G75*
%MOIN*%
%OFA0B0*%
%FSLAX25Y25*%
%IPPOS*%
%LPD*%
%AMOC8*
5,1,8,0,0,1.08239X$1,22.5*
%
%ADD10C,0.02362*%
%ADD11R,0.06500X0.06500*%
%ADD12C,0.06500*%
%ADD13C,0.00787*%
%ADD14C,0.02559*%
%ADD15C,0.01000*%
D10*
X0078106Y0086146D03*
X0082043Y0082209D03*
X0085980Y0087130D03*
X0085980Y0093035D03*
X0089917Y0097957D03*
X0093854Y0094020D03*
X0093854Y0086146D03*
X0089917Y0082209D03*
X0082043Y0097957D03*
X0078106Y0094020D03*
D11*
X0050743Y0099650D03*
D12*
X0050743Y0089650D03*
X0050743Y0079650D03*
X0050743Y0069650D03*
X0050743Y0059650D03*
X0050743Y0049650D03*
X0050743Y0039650D03*
X0050743Y0029650D03*
X0050743Y0019650D03*
X0050743Y0009650D03*
D13*
X0053574Y0009650D01*
X0059204Y0015280D01*
X0059204Y0033055D01*
X0065145Y0038996D01*
X0065145Y0060765D01*
X0076629Y0072249D01*
X0076629Y0074551D01*
X0081925Y0079846D01*
X0083171Y0079846D01*
X0085980Y0082655D01*
X0085980Y0087130D01*
X0085980Y0090621D02*
X0063358Y0067999D01*
X0063358Y0039736D01*
X0057417Y0033795D01*
X0057417Y0026323D01*
X0050743Y0019650D01*
X0050743Y0029650D02*
X0061570Y0040476D01*
X0061570Y0069610D01*
X0078106Y0086146D01*
X0082577Y0078272D02*
X0078204Y0073898D01*
X0078204Y0070496D01*
X0067712Y0060004D01*
X0067712Y0049650D01*
X0073129Y0061930D02*
X0079950Y0068751D01*
X0079950Y0073417D01*
X0083229Y0076697D01*
X0087896Y0076697D01*
X0093854Y0082655D01*
X0093854Y0086146D01*
X0089917Y0082209D02*
X0089129Y0081421D01*
X0088674Y0081421D01*
X0085524Y0078272D01*
X0082577Y0078272D01*
X0085980Y0090621D02*
X0085980Y0093035D01*
X0086565Y0097957D02*
X0068258Y0079650D01*
X0050743Y0079650D01*
X0050743Y0089650D02*
X0062121Y0089650D01*
X0070428Y0097957D01*
X0082043Y0097957D01*
X0086565Y0097957D02*
X0089917Y0097957D01*
D14*
X0066491Y0100909D03*
X0073129Y0061791D03*
X0067712Y0049650D03*
X0070428Y0011343D03*
D15*
X0045338Y0005437D02*
X0045338Y0103862D01*
X0045354Y0103988D01*
X0045480Y0104205D01*
X0045697Y0104330D01*
X0045822Y0104346D01*
X0086176Y0104346D01*
X0088038Y0104224D01*
X0091635Y0103261D01*
X0094860Y0101399D01*
X0097493Y0098766D01*
X0099354Y0095541D01*
X0100318Y0091944D01*
X0100440Y0090083D01*
X0087661Y0090083D01*
X0087661Y0089925D02*
X0087661Y0091226D01*
X0088072Y0091637D01*
X0088448Y0092544D01*
X0088448Y0093526D01*
X0088072Y0094434D01*
X0087378Y0095128D01*
X0086484Y0095498D01*
X0087261Y0096276D01*
X0088107Y0096276D01*
X0088518Y0095864D01*
X0089426Y0095488D01*
X0090408Y0095488D01*
X0091315Y0095864D01*
X0092009Y0096558D01*
X0092385Y0097466D01*
X0092385Y0098448D01*
X0092009Y0099355D01*
X0091315Y0100049D01*
X0090408Y0100425D01*
X0089426Y0100425D01*
X0088518Y0100049D01*
X0088107Y0099638D01*
X0085868Y0099638D01*
X0084511Y0098280D01*
X0084511Y0098448D01*
X0084135Y0099355D01*
X0083441Y0100049D01*
X0082534Y0100425D01*
X0081552Y0100425D01*
X0080644Y0100049D01*
X0080233Y0099638D01*
X0069732Y0099638D01*
X0068747Y0098653D01*
X0061425Y0091331D01*
X0054958Y0091331D01*
X0054590Y0092220D01*
X0053314Y0093496D01*
X0051646Y0094187D01*
X0049841Y0094187D01*
X0048173Y0093496D01*
X0046897Y0092220D01*
X0046206Y0090552D01*
X0046206Y0088747D01*
X0046897Y0087079D01*
X0048173Y0085803D01*
X0049841Y0085112D01*
X0051646Y0085112D01*
X0053314Y0085803D01*
X0054590Y0087079D01*
X0054958Y0087969D01*
X0062818Y0087969D01*
X0071125Y0096276D01*
X0077101Y0096276D01*
X0076707Y0096112D01*
X0076013Y0095418D01*
X0075637Y0094511D01*
X0075637Y0093529D01*
X0076013Y0092621D01*
X0076707Y0091927D01*
X0077615Y0091551D01*
X0077782Y0091551D01*
X0067561Y0081331D01*
X0054958Y0081331D01*
X0054590Y0082220D01*
X0053314Y0083496D01*
X0051646Y0084187D01*
X0049841Y0084187D01*
X0048173Y0083496D01*
X0046897Y0082220D01*
X0046206Y0080552D01*
X0046206Y0078747D01*
X0046897Y0077079D01*
X0048173Y0075803D01*
X0049841Y0075112D01*
X0051646Y0075112D01*
X0053314Y0075803D01*
X0054590Y0077079D01*
X0054958Y0077969D01*
X0067551Y0077969D01*
X0060874Y0071291D01*
X0059889Y0070307D01*
X0059889Y0041173D01*
X0052535Y0033819D01*
X0051646Y0034187D01*
X0049841Y0034187D01*
X0048173Y0033496D01*
X0046897Y0032220D01*
X0046206Y0030552D01*
X0046206Y0028747D01*
X0046897Y0027079D01*
X0048173Y0025803D01*
X0049841Y0025112D01*
X0051646Y0025112D01*
X0053314Y0025803D01*
X0054590Y0027079D01*
X0055281Y0028747D01*
X0055281Y0030552D01*
X0054912Y0031441D01*
X0055736Y0032264D01*
X0055736Y0027019D01*
X0052535Y0023819D01*
X0051646Y0024187D01*
X0049841Y0024187D01*
X0048173Y0023496D01*
X0046897Y0022220D01*
X0046206Y0020552D01*
X0046206Y0018747D01*
X0046897Y0017079D01*
X0048173Y0015803D01*
X0049841Y0015112D01*
X0051646Y0015112D01*
X0053314Y0015803D01*
X0054590Y0017079D01*
X0055281Y0018747D01*
X0055281Y0020552D01*
X0054912Y0021441D01*
X0057523Y0024052D01*
X0057523Y0015976D01*
X0054178Y0012631D01*
X0053314Y0013496D01*
X0051646Y0014187D01*
X0049841Y0014187D01*
X0048173Y0013496D01*
X0046897Y0012220D01*
X0046206Y0010552D01*
X0046206Y0008747D01*
X0046897Y0007079D01*
X0048173Y0005803D01*
X0049841Y0005112D01*
X0051646Y0005112D01*
X0053314Y0005803D01*
X0054590Y0007079D01*
X0055281Y0008747D01*
X0055281Y0008979D01*
X0060885Y0014583D01*
X0060885Y0032358D01*
X0065841Y0037315D01*
X0066826Y0038299D01*
X0066826Y0047238D01*
X0067201Y0047083D01*
X0068222Y0047083D01*
X0069166Y0047473D01*
X0069888Y0048196D01*
X0070279Y0049139D01*
X0070279Y0050160D01*
X0069888Y0051104D01*
X0069393Y0051599D01*
X0069393Y0059308D01*
X0070798Y0060712D01*
X0070953Y0060337D01*
X0071675Y0059615D01*
X0072619Y0059224D01*
X0073640Y0059224D01*
X0074583Y0059615D01*
X0075305Y0060337D01*
X0075696Y0061281D01*
X0075696Y0062120D01*
X0080646Y0067069D01*
X0081631Y0068054D01*
X0081631Y0072721D01*
X0083437Y0074527D01*
X0082724Y0073291D01*
X0082724Y0058587D01*
X0082707Y0058461D01*
X0082582Y0058244D01*
X0082365Y0058119D01*
X0082239Y0058102D01*
X0079193Y0058102D01*
X0077200Y0057277D01*
X0075675Y0055752D01*
X0075675Y0055752D01*
X0074850Y0053759D01*
X0074850Y0011343D01*
X0074771Y0010343D01*
X0074153Y0008442D01*
X0072978Y0006824D01*
X0071361Y0005649D01*
X0069459Y0005031D01*
X0068460Y0004953D01*
X0045822Y0004953D01*
X0045697Y0004969D01*
X0045480Y0005095D01*
X0045354Y0005312D01*
X0045338Y0005437D01*
X0045414Y0005209D02*
X0049607Y0005209D01*
X0047768Y0006208D02*
X0045338Y0006208D01*
X0045338Y0007206D02*
X0046844Y0007206D01*
X0046431Y0008205D02*
X0045338Y0008205D01*
X0045338Y0009203D02*
X0046206Y0009203D01*
X0046206Y0010202D02*
X0045338Y0010202D01*
X0045338Y0011200D02*
X0046474Y0011200D01*
X0046888Y0012199D02*
X0045338Y0012199D01*
X0045338Y0013197D02*
X0047874Y0013197D01*
X0049643Y0015194D02*
X0045338Y0015194D01*
X0045338Y0014196D02*
X0055743Y0014196D01*
X0056741Y0015194D02*
X0051844Y0015194D01*
X0053703Y0016193D02*
X0057523Y0016193D01*
X0057523Y0017191D02*
X0054636Y0017191D01*
X0055050Y0018190D02*
X0057523Y0018190D01*
X0057523Y0019188D02*
X0055281Y0019188D01*
X0055281Y0020187D02*
X0057523Y0020187D01*
X0057523Y0021185D02*
X0055018Y0021185D01*
X0055655Y0022184D02*
X0057523Y0022184D01*
X0057523Y0023182D02*
X0056654Y0023182D01*
X0053896Y0025179D02*
X0051808Y0025179D01*
X0051661Y0024181D02*
X0052897Y0024181D01*
X0053689Y0026178D02*
X0054894Y0026178D01*
X0054630Y0027176D02*
X0055736Y0027176D01*
X0055736Y0028175D02*
X0055044Y0028175D01*
X0055281Y0029173D02*
X0055736Y0029173D01*
X0055736Y0030172D02*
X0055281Y0030172D01*
X0055025Y0031171D02*
X0055736Y0031171D01*
X0055736Y0032169D02*
X0055640Y0032169D01*
X0052882Y0034166D02*
X0051697Y0034166D01*
X0051646Y0035112D02*
X0053314Y0035803D01*
X0054590Y0037079D01*
X0055281Y0038747D01*
X0055281Y0040552D01*
X0054590Y0042220D01*
X0053314Y0043496D01*
X0051646Y0044187D01*
X0049841Y0044187D01*
X0048173Y0043496D01*
X0046897Y0042220D01*
X0046206Y0040552D01*
X0046206Y0038747D01*
X0046897Y0037079D01*
X0048173Y0035803D01*
X0049841Y0035112D01*
X0051646Y0035112D01*
X0051772Y0035165D02*
X0053881Y0035165D01*
X0053674Y0036163D02*
X0054879Y0036163D01*
X0054624Y0037162D02*
X0055878Y0037162D01*
X0055038Y0038160D02*
X0056876Y0038160D01*
X0057875Y0039159D02*
X0055281Y0039159D01*
X0055281Y0040157D02*
X0058873Y0040157D01*
X0059872Y0041156D02*
X0055031Y0041156D01*
X0054617Y0042154D02*
X0059889Y0042154D01*
X0059889Y0043153D02*
X0053657Y0043153D01*
X0051732Y0044151D02*
X0059889Y0044151D01*
X0059889Y0045150D02*
X0051736Y0045150D01*
X0051646Y0045112D02*
X0053314Y0045803D01*
X0054590Y0047079D01*
X0055281Y0048747D01*
X0055281Y0050552D01*
X0054590Y0052220D01*
X0053314Y0053496D01*
X0051646Y0054187D01*
X0049841Y0054187D01*
X0048173Y0053496D01*
X0046897Y0052220D01*
X0046206Y0050552D01*
X0046206Y0048747D01*
X0046897Y0047079D01*
X0048173Y0045803D01*
X0049841Y0045112D01*
X0051646Y0045112D01*
X0053659Y0046148D02*
X0059889Y0046148D01*
X0059889Y0047147D02*
X0054618Y0047147D01*
X0055031Y0048145D02*
X0059889Y0048145D01*
X0059889Y0049144D02*
X0055281Y0049144D01*
X0055281Y0050142D02*
X0059889Y0050142D01*
X0059889Y0051141D02*
X0055037Y0051141D01*
X0054623Y0052139D02*
X0059889Y0052139D01*
X0059889Y0053138D02*
X0053672Y0053138D01*
X0051768Y0054136D02*
X0059889Y0054136D01*
X0059889Y0055135D02*
X0051700Y0055135D01*
X0051646Y0055112D02*
X0053314Y0055803D01*
X0054590Y0057079D01*
X0055281Y0058747D01*
X0055281Y0060552D01*
X0054590Y0062220D01*
X0053314Y0063496D01*
X0051646Y0064187D01*
X0049841Y0064187D01*
X0048173Y0063496D01*
X0046897Y0062220D01*
X0046206Y0060552D01*
X0046206Y0058747D01*
X0046897Y0057079D01*
X0048173Y0055803D01*
X0049841Y0055112D01*
X0051646Y0055112D01*
X0053644Y0056133D02*
X0059889Y0056133D01*
X0059889Y0057132D02*
X0054612Y0057132D01*
X0055025Y0058130D02*
X0059889Y0058130D01*
X0059889Y0059129D02*
X0055281Y0059129D01*
X0055281Y0060127D02*
X0059889Y0060127D01*
X0059889Y0061126D02*
X0055043Y0061126D01*
X0054630Y0062124D02*
X0059889Y0062124D01*
X0059889Y0063123D02*
X0053687Y0063123D01*
X0051804Y0064121D02*
X0059889Y0064121D01*
X0059889Y0065120D02*
X0051664Y0065120D01*
X0051646Y0065112D02*
X0053314Y0065803D01*
X0054590Y0067079D01*
X0055281Y0068747D01*
X0055281Y0070552D01*
X0054590Y0072220D01*
X0053314Y0073496D01*
X0051646Y0074187D01*
X0049841Y0074187D01*
X0048173Y0073496D01*
X0046897Y0072220D01*
X0046206Y0070552D01*
X0046206Y0068747D01*
X0046897Y0067079D01*
X0048173Y0065803D01*
X0049841Y0065112D01*
X0051646Y0065112D01*
X0053629Y0066118D02*
X0059889Y0066118D01*
X0059889Y0067117D02*
X0054606Y0067117D01*
X0055019Y0068115D02*
X0059889Y0068115D01*
X0059889Y0069114D02*
X0055281Y0069114D01*
X0055281Y0070112D02*
X0059889Y0070112D01*
X0060693Y0071111D02*
X0055049Y0071111D01*
X0054636Y0072109D02*
X0061692Y0072109D01*
X0062690Y0073108D02*
X0053702Y0073108D01*
X0051840Y0074106D02*
X0063689Y0074106D01*
X0064687Y0075105D02*
X0045338Y0075105D01*
X0045338Y0074106D02*
X0049646Y0074106D01*
X0047785Y0073108D02*
X0045338Y0073108D01*
X0045338Y0072109D02*
X0046851Y0072109D01*
X0046437Y0071111D02*
X0045338Y0071111D01*
X0045338Y0070112D02*
X0046206Y0070112D01*
X0046206Y0069114D02*
X0045338Y0069114D01*
X0045338Y0068115D02*
X0046468Y0068115D01*
X0046881Y0067117D02*
X0045338Y0067117D01*
X0045338Y0066118D02*
X0047858Y0066118D01*
X0049822Y0065120D02*
X0045338Y0065120D01*
X0045338Y0064121D02*
X0049682Y0064121D01*
X0047800Y0063123D02*
X0045338Y0063123D01*
X0045338Y0062124D02*
X0046857Y0062124D01*
X0046444Y0061126D02*
X0045338Y0061126D01*
X0045338Y0060127D02*
X0046206Y0060127D01*
X0046206Y0059129D02*
X0045338Y0059129D01*
X0045338Y0058130D02*
X0046461Y0058130D01*
X0046875Y0057132D02*
X0045338Y0057132D01*
X0045338Y0056133D02*
X0047843Y0056133D01*
X0049786Y0055135D02*
X0045338Y0055135D01*
X0045338Y0054136D02*
X0049718Y0054136D01*
X0047815Y0053138D02*
X0045338Y0053138D01*
X0045338Y0052139D02*
X0046863Y0052139D01*
X0046450Y0051141D02*
X0045338Y0051141D01*
X0045338Y0050142D02*
X0046206Y0050142D01*
X0046206Y0049144D02*
X0045338Y0049144D01*
X0045338Y0048145D02*
X0046455Y0048145D01*
X0046869Y0047147D02*
X0045338Y0047147D01*
X0045338Y0046148D02*
X0047828Y0046148D01*
X0049750Y0045150D02*
X0045338Y0045150D01*
X0045338Y0044151D02*
X0049754Y0044151D01*
X0047830Y0043153D02*
X0045338Y0043153D01*
X0045338Y0042154D02*
X0046870Y0042154D01*
X0046456Y0041156D02*
X0045338Y0041156D01*
X0045338Y0040157D02*
X0046206Y0040157D01*
X0046206Y0039159D02*
X0045338Y0039159D01*
X0045338Y0038160D02*
X0046449Y0038160D01*
X0046863Y0037162D02*
X0045338Y0037162D01*
X0045338Y0036163D02*
X0047813Y0036163D01*
X0049714Y0035165D02*
X0045338Y0035165D01*
X0045338Y0034166D02*
X0049790Y0034166D01*
X0047844Y0033168D02*
X0045338Y0033168D01*
X0045338Y0032169D02*
X0046876Y0032169D01*
X0046462Y0031171D02*
X0045338Y0031171D01*
X0045338Y0030172D02*
X0046206Y0030172D01*
X0046206Y0029173D02*
X0045338Y0029173D01*
X0045338Y0028175D02*
X0046443Y0028175D01*
X0046857Y0027176D02*
X0045338Y0027176D01*
X0045338Y0026178D02*
X0047798Y0026178D01*
X0049678Y0025179D02*
X0045338Y0025179D01*
X0045338Y0024181D02*
X0049826Y0024181D01*
X0047859Y0023182D02*
X0045338Y0023182D01*
X0045338Y0022184D02*
X0046882Y0022184D01*
X0046468Y0021185D02*
X0045338Y0021185D01*
X0045338Y0020187D02*
X0046206Y0020187D01*
X0046206Y0019188D02*
X0045338Y0019188D01*
X0045338Y0018190D02*
X0046437Y0018190D01*
X0046850Y0017191D02*
X0045338Y0017191D01*
X0045338Y0016193D02*
X0047783Y0016193D01*
X0053613Y0013197D02*
X0054744Y0013197D01*
X0056504Y0010202D02*
X0067892Y0010202D01*
X0067965Y0010026D02*
X0068269Y0009571D01*
X0068657Y0009184D01*
X0069112Y0008879D01*
X0069618Y0008670D01*
X0070155Y0008563D01*
X0070428Y0008563D01*
X0070428Y0011342D01*
X0070428Y0011342D01*
X0067649Y0011342D01*
X0067649Y0011069D01*
X0067756Y0010532D01*
X0067965Y0010026D01*
X0068637Y0009203D02*
X0055505Y0009203D01*
X0055056Y0008205D02*
X0073981Y0008205D01*
X0074401Y0009203D02*
X0072220Y0009203D01*
X0072200Y0009184D02*
X0072587Y0009571D01*
X0072892Y0010026D01*
X0073101Y0010532D01*
X0073208Y0011069D01*
X0073208Y0011342D01*
X0070429Y0011342D01*
X0070429Y0011343D01*
X0073208Y0011343D01*
X0073208Y0011616D01*
X0073101Y0012153D01*
X0072892Y0012659D01*
X0072587Y0013114D01*
X0072200Y0013502D01*
X0071745Y0013806D01*
X0071239Y0014015D01*
X0070702Y0014122D01*
X0070428Y0014122D01*
X0070155Y0014122D01*
X0069618Y0014015D01*
X0069112Y0013806D01*
X0068657Y0013502D01*
X0068269Y0013114D01*
X0067965Y0012659D01*
X0067756Y0012153D01*
X0067649Y0011616D01*
X0067649Y0011343D01*
X0070428Y0011343D01*
X0070428Y0014122D01*
X0070428Y0011343D01*
X0070428Y0011343D01*
X0070428Y0011342D01*
X0070428Y0008563D01*
X0070702Y0008563D01*
X0071239Y0008670D01*
X0071745Y0008879D01*
X0072200Y0009184D01*
X0072964Y0010202D02*
X0074725Y0010202D01*
X0074838Y0011200D02*
X0073208Y0011200D01*
X0073082Y0012199D02*
X0074850Y0012199D01*
X0074850Y0013197D02*
X0072504Y0013197D01*
X0070428Y0013197D02*
X0070428Y0013197D01*
X0070428Y0012199D02*
X0070428Y0012199D01*
X0070428Y0011200D02*
X0070428Y0011200D01*
X0070428Y0010202D02*
X0070428Y0010202D01*
X0070428Y0009203D02*
X0070428Y0009203D01*
X0067649Y0011200D02*
X0057502Y0011200D01*
X0058501Y0012199D02*
X0067775Y0012199D01*
X0068352Y0013197D02*
X0059499Y0013197D01*
X0060498Y0014196D02*
X0074850Y0014196D01*
X0074850Y0015194D02*
X0060885Y0015194D01*
X0060885Y0016193D02*
X0074850Y0016193D01*
X0074850Y0017191D02*
X0060885Y0017191D01*
X0060885Y0018190D02*
X0074850Y0018190D01*
X0074850Y0019188D02*
X0060885Y0019188D01*
X0060885Y0020187D02*
X0074850Y0020187D01*
X0074850Y0021185D02*
X0060885Y0021185D01*
X0060885Y0022184D02*
X0074850Y0022184D01*
X0074850Y0023182D02*
X0060885Y0023182D01*
X0060885Y0024181D02*
X0074850Y0024181D01*
X0074850Y0025179D02*
X0060885Y0025179D01*
X0060885Y0026178D02*
X0074850Y0026178D01*
X0074850Y0027176D02*
X0060885Y0027176D01*
X0060885Y0028175D02*
X0074850Y0028175D01*
X0074850Y0029173D02*
X0060885Y0029173D01*
X0060885Y0030172D02*
X0074850Y0030172D01*
X0074850Y0031171D02*
X0060885Y0031171D01*
X0060885Y0032169D02*
X0074850Y0032169D01*
X0074850Y0033168D02*
X0061694Y0033168D01*
X0062693Y0034166D02*
X0074850Y0034166D01*
X0074850Y0035165D02*
X0063691Y0035165D01*
X0064690Y0036163D02*
X0074850Y0036163D01*
X0074850Y0037162D02*
X0065688Y0037162D01*
X0066687Y0038160D02*
X0074850Y0038160D01*
X0074850Y0039159D02*
X0066826Y0039159D01*
X0066826Y0040157D02*
X0074850Y0040157D01*
X0074850Y0041156D02*
X0066826Y0041156D01*
X0066826Y0042154D02*
X0074850Y0042154D01*
X0074850Y0043153D02*
X0066826Y0043153D01*
X0066826Y0044151D02*
X0074850Y0044151D01*
X0074850Y0045150D02*
X0066826Y0045150D01*
X0066826Y0046148D02*
X0074850Y0046148D01*
X0074850Y0047147D02*
X0068377Y0047147D01*
X0067047Y0047147D02*
X0066826Y0047147D01*
X0069838Y0048145D02*
X0074850Y0048145D01*
X0074850Y0049144D02*
X0070279Y0049144D01*
X0070279Y0050142D02*
X0074850Y0050142D01*
X0074850Y0051141D02*
X0069851Y0051141D01*
X0069393Y0052139D02*
X0074850Y0052139D01*
X0074850Y0053138D02*
X0069393Y0053138D01*
X0069393Y0054136D02*
X0075006Y0054136D01*
X0075419Y0055135D02*
X0069393Y0055135D01*
X0069393Y0056133D02*
X0076056Y0056133D01*
X0077055Y0057132D02*
X0069393Y0057132D01*
X0069393Y0058130D02*
X0082385Y0058130D01*
X0082724Y0059129D02*
X0069393Y0059129D01*
X0070213Y0060127D02*
X0071163Y0060127D01*
X0073129Y0061791D02*
X0073129Y0061930D01*
X0075701Y0062124D02*
X0082724Y0062124D01*
X0082724Y0061126D02*
X0075632Y0061126D01*
X0075096Y0060127D02*
X0082724Y0060127D01*
X0082724Y0063123D02*
X0076699Y0063123D01*
X0077698Y0064121D02*
X0082724Y0064121D01*
X0082724Y0065120D02*
X0078696Y0065120D01*
X0079695Y0066118D02*
X0082724Y0066118D01*
X0082724Y0067117D02*
X0080693Y0067117D01*
X0081631Y0068115D02*
X0082724Y0068115D01*
X0082724Y0069114D02*
X0081631Y0069114D01*
X0081631Y0070112D02*
X0082724Y0070112D01*
X0082724Y0071111D02*
X0081631Y0071111D01*
X0081631Y0072109D02*
X0082724Y0072109D01*
X0082724Y0073108D02*
X0082018Y0073108D01*
X0083017Y0074106D02*
X0083194Y0074106D01*
X0087661Y0083213D02*
X0087661Y0085320D01*
X0088072Y0085732D01*
X0088448Y0086639D01*
X0088448Y0087621D01*
X0088072Y0088528D01*
X0087378Y0089223D01*
X0087081Y0089345D01*
X0087661Y0089925D01*
X0087516Y0089084D02*
X0100375Y0089084D01*
X0100318Y0088221D02*
X0099354Y0084624D01*
X0097493Y0081399D01*
X0097493Y0081399D01*
X0094860Y0078766D01*
X0091635Y0076905D01*
X0090059Y0076482D01*
X0095535Y0081958D01*
X0095535Y0084336D01*
X0095946Y0084747D01*
X0096322Y0085655D01*
X0096322Y0086637D01*
X0095946Y0087544D01*
X0095252Y0088238D01*
X0094345Y0088614D01*
X0093363Y0088614D01*
X0092455Y0088238D01*
X0091761Y0087544D01*
X0091385Y0086637D01*
X0091385Y0085655D01*
X0091761Y0084747D01*
X0092173Y0084336D01*
X0092173Y0083351D01*
X0092132Y0083311D01*
X0092009Y0083607D01*
X0091315Y0084301D01*
X0090408Y0084677D01*
X0089426Y0084677D01*
X0088518Y0084301D01*
X0087824Y0083607D01*
X0087661Y0083213D01*
X0087661Y0084092D02*
X0088309Y0084092D01*
X0087661Y0085090D02*
X0091619Y0085090D01*
X0091525Y0084092D02*
X0092173Y0084092D01*
X0091385Y0086089D02*
X0088220Y0086089D01*
X0088448Y0087087D02*
X0091572Y0087087D01*
X0092303Y0088086D02*
X0088256Y0088086D01*
X0087661Y0091081D02*
X0100375Y0091081D01*
X0100440Y0090083D02*
X0100440Y0090083D01*
X0100318Y0088221D01*
X0100282Y0088086D02*
X0095405Y0088086D01*
X0096136Y0087087D02*
X0100014Y0087087D01*
X0099747Y0086089D02*
X0096322Y0086089D01*
X0096088Y0085090D02*
X0099479Y0085090D01*
X0099047Y0084092D02*
X0095535Y0084092D01*
X0095535Y0083093D02*
X0098471Y0083093D01*
X0097894Y0082095D02*
X0095535Y0082095D01*
X0094672Y0081096D02*
X0097189Y0081096D01*
X0096191Y0080098D02*
X0093674Y0080098D01*
X0092675Y0079099D02*
X0095192Y0079099D01*
X0093706Y0078101D02*
X0091677Y0078101D01*
X0091977Y0077102D02*
X0090678Y0077102D01*
X0093363Y0091551D02*
X0092455Y0091927D01*
X0091761Y0092621D01*
X0091385Y0093529D01*
X0091385Y0094511D01*
X0091761Y0095418D01*
X0092455Y0096112D01*
X0093363Y0096488D01*
X0094345Y0096488D01*
X0095252Y0096112D01*
X0095946Y0095418D01*
X0096322Y0094511D01*
X0096322Y0093529D01*
X0095946Y0092621D01*
X0095252Y0091927D01*
X0094345Y0091551D01*
X0093363Y0091551D01*
X0092303Y0092080D02*
X0088256Y0092080D01*
X0088448Y0093078D02*
X0091572Y0093078D01*
X0091385Y0094077D02*
X0088220Y0094077D01*
X0087431Y0095075D02*
X0091619Y0095075D01*
X0091525Y0096074D02*
X0092417Y0096074D01*
X0092222Y0097072D02*
X0098470Y0097072D01*
X0097894Y0098071D02*
X0092385Y0098071D01*
X0092128Y0099069D02*
X0097189Y0099069D01*
X0096191Y0100068D02*
X0091270Y0100068D01*
X0088563Y0100068D02*
X0083396Y0100068D01*
X0084254Y0099069D02*
X0085300Y0099069D01*
X0087059Y0096074D02*
X0088309Y0096074D01*
X0091977Y0103063D02*
X0068268Y0103063D01*
X0068263Y0103068D02*
X0067808Y0103373D01*
X0067302Y0103582D01*
X0066765Y0103689D01*
X0066491Y0103689D01*
X0066218Y0103689D01*
X0065681Y0103582D01*
X0065175Y0103373D01*
X0064720Y0103068D01*
X0064332Y0102681D01*
X0064028Y0102226D01*
X0063819Y0101720D01*
X0063712Y0101183D01*
X0063712Y0100909D01*
X0063712Y0100636D01*
X0063819Y0100099D01*
X0064028Y0099593D01*
X0064332Y0099138D01*
X0064720Y0098750D01*
X0065175Y0098446D01*
X0065681Y0098237D01*
X0066218Y0098130D01*
X0066491Y0098130D01*
X0066491Y0100909D01*
X0066491Y0100909D01*
X0063712Y0100909D01*
X0066491Y0100909D01*
X0066491Y0100909D01*
X0066491Y0098130D01*
X0066765Y0098130D01*
X0067302Y0098237D01*
X0067808Y0098446D01*
X0068263Y0098750D01*
X0068650Y0099138D01*
X0068955Y0099593D01*
X0069164Y0100099D01*
X0069271Y0100636D01*
X0069271Y0100909D01*
X0066492Y0100909D01*
X0066492Y0100909D01*
X0069271Y0100909D01*
X0069271Y0101183D01*
X0069164Y0101720D01*
X0068955Y0102226D01*
X0068650Y0102681D01*
X0068263Y0103068D01*
X0069021Y0102065D02*
X0093706Y0102065D01*
X0095192Y0101066D02*
X0069271Y0101066D01*
X0069151Y0100068D02*
X0080689Y0100068D01*
X0076669Y0096074D02*
X0070923Y0096074D01*
X0069924Y0095075D02*
X0075871Y0095075D01*
X0075637Y0094077D02*
X0068926Y0094077D01*
X0067927Y0093078D02*
X0075824Y0093078D01*
X0076555Y0092080D02*
X0066929Y0092080D01*
X0065930Y0091081D02*
X0077312Y0091081D01*
X0076313Y0090083D02*
X0064932Y0090083D01*
X0063933Y0089084D02*
X0075315Y0089084D01*
X0074316Y0088086D02*
X0062935Y0088086D01*
X0062174Y0092080D02*
X0054648Y0092080D01*
X0053732Y0093078D02*
X0063173Y0093078D01*
X0064171Y0094077D02*
X0051912Y0094077D01*
X0049575Y0094077D02*
X0045338Y0094077D01*
X0045338Y0095075D02*
X0065170Y0095075D01*
X0066168Y0096074D02*
X0055281Y0096074D01*
X0055281Y0095866D02*
X0054527Y0095112D01*
X0046960Y0095112D01*
X0046206Y0095866D01*
X0046206Y0103433D01*
X0046960Y0104187D01*
X0054527Y0104187D01*
X0055281Y0103433D01*
X0055281Y0095866D01*
X0055281Y0097072D02*
X0067167Y0097072D01*
X0068165Y0098071D02*
X0055281Y0098071D01*
X0055281Y0099069D02*
X0064401Y0099069D01*
X0063831Y0100068D02*
X0055281Y0100068D01*
X0055281Y0101066D02*
X0063712Y0101066D01*
X0063961Y0102065D02*
X0055281Y0102065D01*
X0055281Y0103063D02*
X0064714Y0103063D01*
X0066491Y0103063D02*
X0066491Y0103063D01*
X0066491Y0103689D02*
X0066491Y0100910D01*
X0066491Y0100910D01*
X0066491Y0103689D01*
X0066491Y0102065D02*
X0066491Y0102065D01*
X0066491Y0101066D02*
X0066491Y0101066D01*
X0066491Y0100068D02*
X0066491Y0100068D01*
X0066491Y0099069D02*
X0066491Y0099069D01*
X0068582Y0099069D02*
X0069164Y0099069D01*
X0073318Y0087087D02*
X0054593Y0087087D01*
X0053599Y0086089D02*
X0072319Y0086089D01*
X0071321Y0085090D02*
X0045338Y0085090D01*
X0045338Y0084092D02*
X0049611Y0084092D01*
X0047770Y0083093D02*
X0045338Y0083093D01*
X0045338Y0082095D02*
X0046845Y0082095D01*
X0046431Y0081096D02*
X0045338Y0081096D01*
X0045338Y0080098D02*
X0046206Y0080098D01*
X0046206Y0079099D02*
X0045338Y0079099D01*
X0045338Y0078101D02*
X0046474Y0078101D01*
X0046887Y0077102D02*
X0045338Y0077102D01*
X0045338Y0076104D02*
X0047873Y0076104D01*
X0053614Y0076104D02*
X0065686Y0076104D01*
X0066685Y0077102D02*
X0054599Y0077102D01*
X0054642Y0082095D02*
X0068325Y0082095D01*
X0069324Y0083093D02*
X0053717Y0083093D01*
X0051876Y0084092D02*
X0070322Y0084092D01*
X0054652Y0104062D02*
X0088645Y0104062D01*
X0095291Y0096074D02*
X0099047Y0096074D01*
X0099479Y0095075D02*
X0096088Y0095075D01*
X0096322Y0094077D02*
X0099747Y0094077D01*
X0100014Y0093078D02*
X0096136Y0093078D01*
X0095405Y0092080D02*
X0100282Y0092080D01*
X0077200Y0057277D02*
X0077200Y0057277D01*
X0047887Y0086089D02*
X0045338Y0086089D01*
X0045338Y0087087D02*
X0046894Y0087087D01*
X0046480Y0088086D02*
X0045338Y0088086D01*
X0045338Y0089084D02*
X0046206Y0089084D01*
X0046206Y0090083D02*
X0045338Y0090083D01*
X0045338Y0091081D02*
X0046425Y0091081D01*
X0046839Y0092080D02*
X0045338Y0092080D01*
X0045338Y0093078D02*
X0047755Y0093078D01*
X0046206Y0096074D02*
X0045338Y0096074D01*
X0045338Y0097072D02*
X0046206Y0097072D01*
X0046206Y0098071D02*
X0045338Y0098071D01*
X0045338Y0099069D02*
X0046206Y0099069D01*
X0046206Y0100068D02*
X0045338Y0100068D01*
X0045338Y0101066D02*
X0046206Y0101066D01*
X0046206Y0102065D02*
X0045338Y0102065D01*
X0045338Y0103063D02*
X0046206Y0103063D01*
X0046835Y0104062D02*
X0045397Y0104062D01*
X0054643Y0007206D02*
X0073256Y0007206D01*
X0072130Y0006208D02*
X0053718Y0006208D01*
X0051880Y0005209D02*
X0070007Y0005209D01*
M02*
