G04 EAGLE Gerber X2 export*
%TF.Part,Single*%
%TF.FileFunction,Other,Top Layer*%
%TF.FilePolarity,Positive*%
%TF.GenerationSoftware,Autodesk,EAGLE,9.0.0*%
%TF.CreationDate,2018-05-03T06:19:38Z*%
G75*
%MOMM*%
%FSLAX35Y35*%
%LPD*%
%AMOC8*
5,1,8,0,0,1.08239X$1,22.5*%
G01*
%ADD10C,0.000000*%
%ADD11C,0.900000*%
%ADD12R,1.651000X1.651000*%
%ADD13C,1.651000*%
%ADD14C,0.200000*%
%ADD15C,0.650000*%
%ADD16C,0.254000*%

G36*
X-449780Y-2174972D02*
X-449780Y-2174972D01*
X-449003Y-2174960D01*
X-423614Y-2172962D01*
X-422942Y-2172823D01*
X-422257Y-2172781D01*
X-420686Y-2172380D01*
X-372393Y-2156688D01*
X-371322Y-2156185D01*
X-370223Y-2155752D01*
X-369704Y-2155423D01*
X-369514Y-2155334D01*
X-369355Y-2155203D01*
X-368853Y-2154884D01*
X-327772Y-2125038D01*
X-326909Y-2124227D01*
X-325997Y-2123476D01*
X-325605Y-2123003D01*
X-325453Y-2122860D01*
X-325342Y-2122686D01*
X-324962Y-2122228D01*
X-295115Y-2081147D01*
X-294649Y-2080298D01*
X-294581Y-2080217D01*
X-294490Y-2080023D01*
X-293910Y-2079114D01*
X-293683Y-2078542D01*
X-293583Y-2078359D01*
X-293531Y-2078160D01*
X-293312Y-2077607D01*
X-293225Y-2077340D01*
X-293224Y-2077339D01*
X-293224Y-2077338D01*
X-277620Y-2029313D01*
X-277491Y-2028639D01*
X-277268Y-2027990D01*
X-277038Y-2026385D01*
X-275039Y-2000996D01*
X-275050Y-2000774D01*
X-275000Y-2000000D01*
X-275000Y-925136D01*
X-255969Y-879192D01*
X-220808Y-844030D01*
X-174864Y-824999D01*
X-110000Y-824999D01*
X-109980Y-824997D01*
X-109960Y-824999D01*
X-108342Y-824891D01*
X-102570Y-824131D01*
X-102485Y-824108D01*
X-102397Y-824107D01*
X-100951Y-823706D01*
X-99493Y-823324D01*
X-99416Y-823281D01*
X-99332Y-823258D01*
X-97878Y-822538D01*
X-87882Y-816767D01*
X-87149Y-816211D01*
X-86362Y-815736D01*
X-85887Y-815253D01*
X-85348Y-814843D01*
X-84776Y-814123D01*
X-84132Y-813468D01*
X-83479Y-812487D01*
X-83371Y-812351D01*
X-83336Y-812273D01*
X-83233Y-812118D01*
X-77462Y-802121D01*
X-77428Y-802040D01*
X-77375Y-801969D01*
X-76812Y-800576D01*
X-76229Y-799189D01*
X-76216Y-799102D01*
X-76183Y-799020D01*
X-75869Y-797429D01*
X-75109Y-791658D01*
X-75109Y-791638D01*
X-75104Y-791618D01*
X-75000Y-790000D01*
X-75000Y-477419D01*
X-75175Y-476038D01*
X-75304Y-474658D01*
X-75373Y-474466D01*
X-75399Y-474263D01*
X-75909Y-472974D01*
X-76379Y-471664D01*
X-76494Y-471494D01*
X-76569Y-471305D01*
X-77382Y-470185D01*
X-78165Y-469031D01*
X-78318Y-468895D01*
X-78438Y-468731D01*
X-79506Y-467846D01*
X-80549Y-466925D01*
X-80730Y-466832D01*
X-80888Y-466702D01*
X-82146Y-466108D01*
X-83381Y-465477D01*
X-83580Y-465432D01*
X-83765Y-465345D01*
X-85128Y-465084D01*
X-86485Y-464778D01*
X-86689Y-464784D01*
X-86889Y-464746D01*
X-88270Y-464831D01*
X-89665Y-464873D01*
X-89862Y-464930D01*
X-90064Y-464942D01*
X-91383Y-465369D01*
X-92721Y-465755D01*
X-92897Y-465858D01*
X-93091Y-465921D01*
X-94269Y-466667D01*
X-95462Y-467369D01*
X-95673Y-467555D01*
X-95779Y-467622D01*
X-95923Y-467774D01*
X-96680Y-468440D01*
X-124444Y-496205D01*
X-125048Y-496983D01*
X-125725Y-497702D01*
X-126021Y-498237D01*
X-126394Y-498718D01*
X-126786Y-499622D01*
X-127263Y-500487D01*
X-127416Y-501078D01*
X-127658Y-501637D01*
X-127813Y-502612D01*
X-128060Y-503567D01*
X-128125Y-504575D01*
X-128157Y-504779D01*
X-128146Y-504902D01*
X-128164Y-505184D01*
X-128164Y-554263D01*
X-275176Y-701275D01*
X-275780Y-702053D01*
X-276458Y-702772D01*
X-276753Y-703307D01*
X-277126Y-703788D01*
X-277518Y-704693D01*
X-277995Y-705557D01*
X-278148Y-706149D01*
X-278390Y-706708D01*
X-278545Y-707680D01*
X-278793Y-708637D01*
X-278857Y-709645D01*
X-278889Y-709849D01*
X-278878Y-709972D01*
X-278896Y-710255D01*
X-278896Y-729046D01*
X-286889Y-748343D01*
X-301657Y-763111D01*
X-320953Y-771104D01*
X-341839Y-771104D01*
X-361136Y-763111D01*
X-375904Y-748343D01*
X-378885Y-741145D01*
X-379131Y-740715D01*
X-379298Y-740249D01*
X-379916Y-739337D01*
X-380461Y-738382D01*
X-380805Y-738026D01*
X-381083Y-737616D01*
X-381909Y-736887D01*
X-382674Y-736097D01*
X-383096Y-735838D01*
X-383467Y-735510D01*
X-384447Y-735009D01*
X-385386Y-734433D01*
X-385860Y-734287D01*
X-386300Y-734062D01*
X-387373Y-733821D01*
X-388426Y-733496D01*
X-388920Y-733472D01*
X-389403Y-733363D01*
X-390504Y-733396D01*
X-391603Y-733343D01*
X-392088Y-733443D01*
X-392583Y-733458D01*
X-393640Y-733763D01*
X-394719Y-733986D01*
X-395165Y-734203D01*
X-395639Y-734340D01*
X-396587Y-734898D01*
X-397577Y-735382D01*
X-397954Y-735703D01*
X-398381Y-735954D01*
X-399598Y-737025D01*
X-435280Y-772707D01*
X-435884Y-773486D01*
X-436561Y-774204D01*
X-436856Y-774739D01*
X-437230Y-775221D01*
X-437621Y-776125D01*
X-438099Y-776989D01*
X-438252Y-777580D01*
X-438494Y-778140D01*
X-438649Y-779114D01*
X-438896Y-780069D01*
X-438960Y-781078D01*
X-438993Y-781282D01*
X-438981Y-781404D01*
X-438999Y-781687D01*
X-438999Y-977493D01*
X-438876Y-978471D01*
X-438847Y-979458D01*
X-438677Y-980045D01*
X-438601Y-980649D01*
X-438239Y-981565D01*
X-437965Y-982514D01*
X-437655Y-983041D01*
X-437431Y-983607D01*
X-436852Y-984405D01*
X-436351Y-985256D01*
X-435684Y-986013D01*
X-435562Y-986182D01*
X-435466Y-986261D01*
X-435280Y-986473D01*
X-424492Y-997260D01*
X-416499Y-1016557D01*
X-416499Y-1037443D01*
X-424492Y-1056739D01*
X-439260Y-1071508D01*
X-458557Y-1079500D01*
X-479443Y-1079500D01*
X-486640Y-1076519D01*
X-487117Y-1076388D01*
X-487565Y-1076177D01*
X-488647Y-1075970D01*
X-489708Y-1075679D01*
X-490203Y-1075672D01*
X-490689Y-1075578D01*
X-491788Y-1075646D01*
X-492889Y-1075628D01*
X-493370Y-1075744D01*
X-493864Y-1075774D01*
X-494912Y-1076113D01*
X-495983Y-1076370D01*
X-496420Y-1076601D01*
X-496891Y-1076753D01*
X-497822Y-1077342D01*
X-498795Y-1077856D01*
X-499161Y-1078189D01*
X-499580Y-1078454D01*
X-500335Y-1079256D01*
X-501149Y-1079995D01*
X-501422Y-1080409D01*
X-501761Y-1080769D01*
X-502293Y-1081733D01*
X-502898Y-1082653D01*
X-503059Y-1083120D01*
X-503299Y-1083554D01*
X-503575Y-1084622D01*
X-503932Y-1085661D01*
X-503972Y-1086154D01*
X-504096Y-1086634D01*
X-504199Y-1088252D01*
X-504199Y-1310038D01*
X-651380Y-1457218D01*
X-651983Y-1457996D01*
X-652661Y-1458716D01*
X-652956Y-1459250D01*
X-653330Y-1459732D01*
X-653721Y-1460636D01*
X-654199Y-1461501D01*
X-654352Y-1462093D01*
X-654594Y-1462651D01*
X-654748Y-1463623D01*
X-654996Y-1464580D01*
X-655060Y-1465588D01*
X-655093Y-1465793D01*
X-655081Y-1465915D01*
X-655099Y-1466198D01*
X-655099Y-1912427D01*
X-793730Y-2051057D01*
X-794333Y-2051835D01*
X-795011Y-2052554D01*
X-795306Y-2053089D01*
X-795680Y-2053570D01*
X-796071Y-2054475D01*
X-796549Y-2055339D01*
X-796702Y-2055931D01*
X-796944Y-2056490D01*
X-797098Y-2057462D01*
X-797346Y-2058419D01*
X-797410Y-2059427D01*
X-797443Y-2059631D01*
X-797431Y-2059754D01*
X-797449Y-2060037D01*
X-797449Y-2063398D01*
X-813062Y-2101091D01*
X-841909Y-2129938D01*
X-879601Y-2145550D01*
X-920398Y-2145550D01*
X-958091Y-2129938D01*
X-986938Y-2101091D01*
X-1002550Y-2063398D01*
X-1002550Y-2022601D01*
X-986938Y-1984909D01*
X-958091Y-1956062D01*
X-920398Y-1940449D01*
X-879601Y-1940449D01*
X-841910Y-1956062D01*
X-821729Y-1976242D01*
X-820791Y-1976970D01*
X-819900Y-1977757D01*
X-819538Y-1977943D01*
X-819216Y-1978192D01*
X-818126Y-1978664D01*
X-817068Y-1979205D01*
X-816670Y-1979295D01*
X-816297Y-1979456D01*
X-815126Y-1979642D01*
X-813964Y-1979904D01*
X-813556Y-1979892D01*
X-813155Y-1979955D01*
X-811974Y-1979844D01*
X-810785Y-1979809D01*
X-810393Y-1979696D01*
X-809988Y-1979658D01*
X-808870Y-1979257D01*
X-807728Y-1978927D01*
X-807377Y-1978721D01*
X-806994Y-1978583D01*
X-806010Y-1977916D01*
X-804987Y-1977313D01*
X-804533Y-1976913D01*
X-804361Y-1976797D01*
X-804224Y-1976642D01*
X-803770Y-1976242D01*
X-718820Y-1891293D01*
X-718217Y-1890515D01*
X-717539Y-1889795D01*
X-717244Y-1889261D01*
X-716870Y-1888779D01*
X-716478Y-1887875D01*
X-716001Y-1887010D01*
X-715848Y-1886418D01*
X-715606Y-1885860D01*
X-715452Y-1884888D01*
X-715204Y-1883931D01*
X-715139Y-1882923D01*
X-715107Y-1882718D01*
X-715118Y-1882596D01*
X-715100Y-1882313D01*
X-715100Y-1677186D01*
X-715275Y-1675804D01*
X-715404Y-1674425D01*
X-715473Y-1674233D01*
X-715499Y-1674030D01*
X-716009Y-1672739D01*
X-716479Y-1671431D01*
X-716594Y-1671261D01*
X-716669Y-1671072D01*
X-717482Y-1669952D01*
X-718265Y-1668798D01*
X-718418Y-1668662D01*
X-718538Y-1668498D01*
X-719606Y-1667613D01*
X-720649Y-1666692D01*
X-720830Y-1666599D01*
X-720988Y-1666468D01*
X-722246Y-1665875D01*
X-723481Y-1665244D01*
X-723680Y-1665199D01*
X-723865Y-1665112D01*
X-725227Y-1664851D01*
X-726585Y-1664545D01*
X-726789Y-1664551D01*
X-726989Y-1664513D01*
X-728370Y-1664598D01*
X-729764Y-1664640D01*
X-729962Y-1664697D01*
X-730164Y-1664709D01*
X-731479Y-1665134D01*
X-732821Y-1665522D01*
X-732998Y-1665626D01*
X-733191Y-1665688D01*
X-734366Y-1666431D01*
X-735562Y-1667136D01*
X-735773Y-1667321D01*
X-735879Y-1667388D01*
X-736024Y-1667542D01*
X-736779Y-1668207D01*
X-803084Y-1734512D01*
X-803263Y-1734742D01*
X-803486Y-1734932D01*
X-804236Y-1735996D01*
X-805034Y-1737025D01*
X-805150Y-1737292D01*
X-805319Y-1737531D01*
X-805783Y-1738753D01*
X-806298Y-1739944D01*
X-806344Y-1740231D01*
X-806448Y-1740505D01*
X-806594Y-1741803D01*
X-806798Y-1743086D01*
X-806770Y-1743376D01*
X-806803Y-1743667D01*
X-806622Y-1744959D01*
X-806500Y-1746253D01*
X-806402Y-1746527D01*
X-806361Y-1746817D01*
X-805838Y-1748351D01*
X-797449Y-1768602D01*
X-797449Y-1809398D01*
X-813062Y-1847091D01*
X-841909Y-1875938D01*
X-879601Y-1891550D01*
X-920398Y-1891550D01*
X-958091Y-1875938D01*
X-986938Y-1847091D01*
X-1002550Y-1809398D01*
X-1002550Y-1768601D01*
X-986938Y-1730909D01*
X-958091Y-1702062D01*
X-920398Y-1686449D01*
X-879602Y-1686449D01*
X-859351Y-1694838D01*
X-859068Y-1694915D01*
X-858810Y-1695047D01*
X-857542Y-1695333D01*
X-856283Y-1695677D01*
X-855991Y-1695682D01*
X-855706Y-1695746D01*
X-854403Y-1695707D01*
X-853102Y-1695728D01*
X-852819Y-1695660D01*
X-852527Y-1695651D01*
X-851274Y-1695290D01*
X-850009Y-1694987D01*
X-849750Y-1694850D01*
X-849470Y-1694769D01*
X-848348Y-1694109D01*
X-847196Y-1693500D01*
X-846980Y-1693303D01*
X-846729Y-1693155D01*
X-845512Y-1692084D01*
X-764220Y-1610793D01*
X-763617Y-1610015D01*
X-762939Y-1609295D01*
X-762643Y-1608760D01*
X-762270Y-1608279D01*
X-761879Y-1607376D01*
X-761401Y-1606510D01*
X-761248Y-1605918D01*
X-761006Y-1605360D01*
X-760852Y-1604388D01*
X-760604Y-1603431D01*
X-760539Y-1602423D01*
X-760507Y-1602218D01*
X-760518Y-1602096D01*
X-760500Y-1601813D01*
X-760500Y-1468586D01*
X-760675Y-1467204D01*
X-760804Y-1465825D01*
X-760873Y-1465633D01*
X-760899Y-1465430D01*
X-761409Y-1464139D01*
X-761879Y-1462831D01*
X-761994Y-1462661D01*
X-762069Y-1462472D01*
X-762882Y-1461352D01*
X-763665Y-1460198D01*
X-763818Y-1460062D01*
X-763938Y-1459898D01*
X-765006Y-1459013D01*
X-766049Y-1458092D01*
X-766230Y-1457999D01*
X-766388Y-1457868D01*
X-767646Y-1457275D01*
X-768881Y-1456644D01*
X-769080Y-1456599D01*
X-769265Y-1456512D01*
X-770627Y-1456251D01*
X-771985Y-1455945D01*
X-772189Y-1455951D01*
X-772389Y-1455913D01*
X-773770Y-1455998D01*
X-775164Y-1456040D01*
X-775362Y-1456097D01*
X-775564Y-1456109D01*
X-776879Y-1456534D01*
X-778221Y-1456922D01*
X-778398Y-1457026D01*
X-778591Y-1457088D01*
X-779766Y-1457831D01*
X-780962Y-1458536D01*
X-781173Y-1458721D01*
X-781279Y-1458788D01*
X-781424Y-1458942D01*
X-782179Y-1459607D01*
X-803084Y-1480512D01*
X-803263Y-1480742D01*
X-803486Y-1480932D01*
X-804236Y-1481996D01*
X-805034Y-1483025D01*
X-805150Y-1483292D01*
X-805319Y-1483531D01*
X-805783Y-1484753D01*
X-806298Y-1485944D01*
X-806344Y-1486231D01*
X-806448Y-1486505D01*
X-806594Y-1487803D01*
X-806798Y-1489086D01*
X-806770Y-1489376D01*
X-806803Y-1489667D01*
X-806622Y-1490959D01*
X-806500Y-1492253D01*
X-806402Y-1492527D01*
X-806361Y-1492817D01*
X-805838Y-1494351D01*
X-797449Y-1514602D01*
X-797449Y-1555398D01*
X-813062Y-1593091D01*
X-841909Y-1621938D01*
X-879601Y-1637550D01*
X-920398Y-1637550D01*
X-958091Y-1621938D01*
X-986938Y-1593091D01*
X-1002550Y-1555398D01*
X-1002550Y-1514601D01*
X-986938Y-1476909D01*
X-958091Y-1448062D01*
X-920398Y-1432449D01*
X-879602Y-1432449D01*
X-859351Y-1440838D01*
X-859068Y-1440915D01*
X-858810Y-1441047D01*
X-857542Y-1441333D01*
X-856283Y-1441677D01*
X-855991Y-1441682D01*
X-855706Y-1441746D01*
X-854403Y-1441707D01*
X-853102Y-1441728D01*
X-852819Y-1441660D01*
X-852527Y-1441651D01*
X-851272Y-1441289D01*
X-850009Y-1440987D01*
X-849752Y-1440851D01*
X-849470Y-1440769D01*
X-848345Y-1440107D01*
X-847196Y-1439500D01*
X-846980Y-1439303D01*
X-846729Y-1439155D01*
X-845512Y-1438084D01*
X-658720Y-1251293D01*
X-658117Y-1250515D01*
X-657439Y-1249796D01*
X-657144Y-1249261D01*
X-656770Y-1248780D01*
X-656378Y-1247875D01*
X-655901Y-1247011D01*
X-655748Y-1246419D01*
X-655506Y-1245860D01*
X-655352Y-1244888D01*
X-655104Y-1243931D01*
X-655039Y-1242923D01*
X-655007Y-1242719D01*
X-655018Y-1242596D01*
X-655000Y-1242313D01*
X-655000Y-507573D01*
X-633709Y-486282D01*
X-633707Y-486280D01*
X-273176Y-125749D01*
X-272998Y-125519D01*
X-272775Y-125330D01*
X-272024Y-124264D01*
X-271226Y-123236D01*
X-271110Y-122968D01*
X-270942Y-122730D01*
X-270479Y-121510D01*
X-269962Y-120316D01*
X-269916Y-120029D01*
X-269813Y-119756D01*
X-269667Y-118459D01*
X-269463Y-117175D01*
X-269490Y-116885D01*
X-269458Y-116595D01*
X-269639Y-115301D01*
X-269760Y-114008D01*
X-269858Y-113734D01*
X-269899Y-113444D01*
X-270000Y-113148D01*
X-270000Y-87071D01*
X-260105Y-63180D01*
X-253536Y-56612D01*
X-252684Y-55514D01*
X-251798Y-54444D01*
X-251711Y-54259D01*
X-251586Y-54098D01*
X-251034Y-52824D01*
X-250441Y-51566D01*
X-250403Y-51366D01*
X-250322Y-51179D01*
X-250104Y-49808D01*
X-249842Y-48442D01*
X-249855Y-48238D01*
X-249823Y-48037D01*
X-249953Y-46650D01*
X-250038Y-45267D01*
X-250101Y-45074D01*
X-250120Y-44870D01*
X-250592Y-43557D01*
X-251018Y-42240D01*
X-251126Y-42068D01*
X-251195Y-41876D01*
X-251974Y-40728D01*
X-252718Y-39552D01*
X-252866Y-39412D01*
X-252981Y-39243D01*
X-254021Y-38324D01*
X-255033Y-37371D01*
X-255212Y-37272D01*
X-255365Y-37137D01*
X-256601Y-36505D01*
X-257818Y-35833D01*
X-258016Y-35782D01*
X-258197Y-35689D01*
X-259552Y-35384D01*
X-260898Y-35036D01*
X-261179Y-35018D01*
X-261301Y-34990D01*
X-261509Y-34997D01*
X-262516Y-34932D01*
X-297245Y-34932D01*
X-298222Y-35056D01*
X-299209Y-35085D01*
X-299796Y-35254D01*
X-300401Y-35331D01*
X-301316Y-35693D01*
X-302266Y-35967D01*
X-302793Y-36277D01*
X-303359Y-36501D01*
X-304157Y-37080D01*
X-305007Y-37581D01*
X-305765Y-38248D01*
X-305933Y-38370D01*
X-306013Y-38465D01*
X-306224Y-38652D01*
X-562573Y-295000D01*
X-792941Y-295000D01*
X-793232Y-295037D01*
X-793522Y-295014D01*
X-794803Y-295235D01*
X-796097Y-295399D01*
X-796369Y-295506D01*
X-796657Y-295556D01*
X-797845Y-296090D01*
X-799055Y-296569D01*
X-799292Y-296741D01*
X-799558Y-296860D01*
X-800576Y-297673D01*
X-801630Y-298438D01*
X-801816Y-298663D01*
X-802044Y-298845D01*
X-802828Y-299884D01*
X-803659Y-300888D01*
X-803783Y-301152D01*
X-803959Y-301385D01*
X-804674Y-302840D01*
X-813062Y-323091D01*
X-841909Y-351938D01*
X-879601Y-367550D01*
X-920398Y-367550D01*
X-958091Y-351938D01*
X-986938Y-323091D01*
X-1002550Y-285398D01*
X-1002550Y-244601D01*
X-986938Y-206909D01*
X-958091Y-178062D01*
X-920398Y-162449D01*
X-879601Y-162449D01*
X-841909Y-178062D01*
X-813062Y-206909D01*
X-804674Y-227160D01*
X-804529Y-227414D01*
X-804439Y-227691D01*
X-803743Y-228792D01*
X-803098Y-229923D01*
X-802896Y-230132D01*
X-802739Y-230380D01*
X-801789Y-231274D01*
X-800885Y-232208D01*
X-800636Y-232361D01*
X-800424Y-232561D01*
X-799284Y-233190D01*
X-798173Y-233872D01*
X-797894Y-233958D01*
X-797639Y-234099D01*
X-796378Y-234425D01*
X-795133Y-234809D01*
X-794842Y-234823D01*
X-794559Y-234896D01*
X-792941Y-234999D01*
X-592687Y-234999D01*
X-591709Y-234876D01*
X-590722Y-234847D01*
X-590135Y-234677D01*
X-589531Y-234601D01*
X-588615Y-234239D01*
X-587666Y-233965D01*
X-587139Y-233655D01*
X-586573Y-233431D01*
X-585775Y-232852D01*
X-584924Y-232351D01*
X-584168Y-231685D01*
X-583998Y-231562D01*
X-583919Y-231466D01*
X-583707Y-231280D01*
X-348652Y3775D01*
X-327359Y25068D01*
X-252652Y25068D01*
X-251271Y25243D01*
X-249890Y25373D01*
X-249698Y25441D01*
X-249496Y25467D01*
X-248207Y25977D01*
X-246896Y26448D01*
X-246727Y26563D01*
X-246538Y26637D01*
X-245418Y27450D01*
X-244263Y28233D01*
X-244128Y28387D01*
X-243963Y28506D01*
X-243078Y29574D01*
X-242157Y30617D01*
X-242065Y30798D01*
X-241934Y30956D01*
X-241340Y32217D01*
X-240709Y33450D01*
X-240665Y33648D01*
X-240578Y33833D01*
X-240316Y35197D01*
X-240011Y36553D01*
X-240017Y36758D01*
X-239978Y36957D01*
X-240064Y38338D01*
X-240105Y39733D01*
X-240162Y39930D01*
X-240175Y40132D01*
X-240601Y41451D01*
X-240988Y42789D01*
X-241091Y42965D01*
X-241154Y43159D01*
X-241898Y44335D01*
X-242601Y45531D01*
X-242788Y45743D01*
X-242854Y45848D01*
X-243006Y45991D01*
X-243672Y46748D01*
X-260105Y63180D01*
X-270000Y87071D01*
X-270000Y112929D01*
X-260105Y136820D01*
X-248604Y148320D01*
X-247752Y149418D01*
X-246866Y150488D01*
X-246779Y150673D01*
X-246654Y150833D01*
X-246102Y152108D01*
X-245509Y153365D01*
X-245471Y153565D01*
X-245390Y153753D01*
X-245172Y155123D01*
X-244910Y156489D01*
X-244923Y156693D01*
X-244891Y156894D01*
X-245021Y158281D01*
X-245107Y159664D01*
X-245169Y159857D01*
X-245188Y160062D01*
X-245660Y161374D01*
X-246086Y162691D01*
X-246194Y162863D01*
X-246263Y163055D01*
X-247041Y164201D01*
X-247786Y165380D01*
X-247935Y165520D01*
X-248049Y165688D01*
X-249086Y166605D01*
X-250101Y167561D01*
X-250280Y167660D01*
X-250433Y167795D01*
X-251668Y168426D01*
X-252886Y169099D01*
X-253084Y169150D01*
X-253265Y169243D01*
X-254619Y169548D01*
X-255966Y169896D01*
X-256248Y169914D01*
X-256369Y169941D01*
X-256578Y169935D01*
X-257584Y169999D01*
X-382313Y169999D01*
X-383290Y169876D01*
X-384278Y169847D01*
X-384864Y169677D01*
X-385469Y169601D01*
X-386384Y169239D01*
X-387334Y168965D01*
X-387861Y168655D01*
X-388427Y168431D01*
X-389225Y167852D01*
X-390075Y167351D01*
X-390833Y166684D01*
X-391001Y166562D01*
X-391081Y166466D01*
X-391293Y166280D01*
X-598573Y-41000D01*
X-792941Y-41000D01*
X-793232Y-41037D01*
X-793522Y-41014D01*
X-794803Y-41235D01*
X-796097Y-41399D01*
X-796369Y-41506D01*
X-796657Y-41556D01*
X-797845Y-42090D01*
X-799055Y-42569D01*
X-799292Y-42741D01*
X-799558Y-42860D01*
X-800576Y-43673D01*
X-801630Y-44438D01*
X-801816Y-44663D01*
X-802044Y-44845D01*
X-802828Y-45884D01*
X-803659Y-46888D01*
X-803783Y-47152D01*
X-803959Y-47385D01*
X-804674Y-48840D01*
X-813062Y-69091D01*
X-841909Y-97938D01*
X-879601Y-113550D01*
X-920398Y-113550D01*
X-958091Y-97938D01*
X-986938Y-69091D01*
X-1002550Y-31398D01*
X-1002550Y9398D01*
X-986938Y47091D01*
X-958091Y75938D01*
X-920398Y91550D01*
X-879601Y91550D01*
X-841909Y75938D01*
X-813062Y47091D01*
X-804674Y26840D01*
X-804529Y26586D01*
X-804439Y26308D01*
X-803743Y25208D01*
X-803098Y24077D01*
X-802896Y23868D01*
X-802739Y23620D01*
X-801789Y22725D01*
X-800885Y21792D01*
X-800636Y21639D01*
X-800424Y21439D01*
X-799284Y20809D01*
X-798173Y20128D01*
X-797894Y20042D01*
X-797639Y19901D01*
X-796378Y19574D01*
X-795133Y19191D01*
X-794842Y19177D01*
X-794559Y19104D01*
X-792941Y19000D01*
X-628687Y19000D01*
X-627709Y19124D01*
X-626722Y19153D01*
X-626135Y19323D01*
X-625531Y19399D01*
X-624615Y19761D01*
X-623666Y20035D01*
X-623139Y20345D01*
X-622573Y20569D01*
X-621775Y21148D01*
X-620924Y21649D01*
X-620167Y22316D01*
X-619998Y22438D01*
X-619919Y22533D01*
X-619707Y22720D01*
X-412427Y230000D01*
X-171415Y230000D01*
X-171124Y230037D01*
X-170833Y230014D01*
X-169552Y230235D01*
X-168259Y230399D01*
X-167987Y230507D01*
X-167699Y230556D01*
X-166512Y231090D01*
X-165301Y231569D01*
X-165064Y231741D01*
X-164798Y231861D01*
X-163780Y232673D01*
X-162726Y233438D01*
X-162540Y233663D01*
X-162311Y233845D01*
X-161528Y234885D01*
X-160697Y235888D01*
X-160572Y236152D01*
X-160396Y236385D01*
X-160258Y236667D01*
X-141820Y255104D01*
X-117929Y265000D01*
X-92071Y265000D01*
X-68179Y255104D01*
X-49895Y236820D01*
X-41308Y216088D01*
X-41063Y215658D01*
X-40895Y215192D01*
X-40277Y214280D01*
X-39732Y213324D01*
X-39388Y212969D01*
X-39110Y212559D01*
X-38284Y211830D01*
X-37519Y211039D01*
X-37097Y210781D01*
X-36726Y210453D01*
X-35747Y209952D01*
X-34807Y209376D01*
X-34333Y209230D01*
X-33893Y209005D01*
X-32820Y208763D01*
X-31767Y208439D01*
X-31273Y208415D01*
X-30790Y208306D01*
X-29689Y208339D01*
X-28590Y208286D01*
X-28105Y208386D01*
X-27610Y208401D01*
X-26553Y208706D01*
X-25474Y208928D01*
X-25028Y209146D01*
X-24554Y209283D01*
X-23607Y209840D01*
X-22616Y210325D01*
X-22238Y210647D01*
X-21813Y210897D01*
X-20595Y211968D01*
X-2563Y230000D01*
X28585Y230000D01*
X28876Y230037D01*
X29167Y230014D01*
X30448Y230235D01*
X31741Y230399D01*
X32013Y230507D01*
X32301Y230556D01*
X33488Y231090D01*
X34699Y231569D01*
X34936Y231741D01*
X35202Y231861D01*
X36220Y232673D01*
X37273Y233438D01*
X37460Y233663D01*
X37688Y233845D01*
X38472Y234885D01*
X39303Y235888D01*
X39428Y236152D01*
X39603Y236385D01*
X39742Y236667D01*
X58179Y255104D01*
X82071Y265000D01*
X107929Y265000D01*
X131820Y255104D01*
X150104Y236820D01*
X160000Y212929D01*
X160000Y187071D01*
X156127Y177720D01*
X155759Y176376D01*
X155351Y175052D01*
X155341Y174849D01*
X155287Y174651D01*
X155265Y173258D01*
X155199Y171874D01*
X155240Y171675D01*
X155237Y171471D01*
X155560Y170119D01*
X155841Y168759D01*
X155930Y168575D01*
X155978Y168377D01*
X156626Y167151D01*
X157237Y165900D01*
X157370Y165744D01*
X157465Y165565D01*
X158396Y164540D01*
X159300Y163479D01*
X159467Y163361D01*
X159604Y163210D01*
X160759Y162450D01*
X161900Y161646D01*
X162092Y161573D01*
X162261Y161461D01*
X163571Y161011D01*
X164874Y160516D01*
X165077Y160493D01*
X165269Y160427D01*
X166658Y160316D01*
X168035Y160162D01*
X168236Y160190D01*
X168440Y160173D01*
X169811Y160411D01*
X171185Y160603D01*
X171454Y160695D01*
X171575Y160716D01*
X171763Y160800D01*
X172720Y161127D01*
X182071Y165000D01*
X207929Y165000D01*
X231820Y155104D01*
X250104Y136820D01*
X260000Y112929D01*
X260000Y87071D01*
X250104Y63179D01*
X231820Y44895D01*
X207929Y34999D01*
X182071Y34999D01*
X158179Y44895D01*
X139895Y63179D01*
X129999Y87071D01*
X129999Y112929D01*
X133873Y122280D01*
X134241Y123624D01*
X134649Y124948D01*
X134658Y125151D01*
X134713Y125348D01*
X134735Y126742D01*
X134801Y128125D01*
X134760Y128325D01*
X134763Y128529D01*
X134439Y129880D01*
X134159Y131241D01*
X134069Y131425D01*
X134022Y131623D01*
X133374Y132848D01*
X132763Y134099D01*
X132630Y134255D01*
X132535Y134435D01*
X131604Y135460D01*
X130700Y136521D01*
X130533Y136639D01*
X130396Y136789D01*
X129241Y137550D01*
X128100Y138354D01*
X127908Y138427D01*
X127739Y138538D01*
X126428Y138989D01*
X125126Y139483D01*
X124923Y139506D01*
X124730Y139573D01*
X123342Y139684D01*
X121965Y139838D01*
X121763Y139810D01*
X121559Y139826D01*
X120189Y139589D01*
X118814Y139396D01*
X118546Y139305D01*
X118425Y139284D01*
X118237Y139199D01*
X117280Y138873D01*
X107929Y134999D01*
X82071Y134999D01*
X58179Y144895D01*
X39566Y163508D01*
X39388Y163790D01*
X38743Y164923D01*
X38539Y165133D01*
X38383Y165380D01*
X37433Y166274D01*
X36529Y167208D01*
X36281Y167360D01*
X36068Y167561D01*
X34927Y168191D01*
X33818Y168871D01*
X33539Y168957D01*
X33283Y169099D01*
X32020Y169426D01*
X30778Y169808D01*
X30487Y169823D01*
X30203Y169896D01*
X28585Y169999D01*
X27551Y169999D01*
X26573Y169876D01*
X25586Y169847D01*
X24999Y169677D01*
X24395Y169601D01*
X23478Y169238D01*
X22530Y168965D01*
X22003Y168655D01*
X21437Y168431D01*
X20640Y167852D01*
X19788Y167351D01*
X19029Y166683D01*
X18862Y166562D01*
X18784Y166468D01*
X18571Y166280D01*
X10311Y158020D01*
X10007Y157629D01*
X9641Y157296D01*
X9035Y156375D01*
X8361Y155507D01*
X8164Y155053D01*
X7892Y154639D01*
X7533Y153596D01*
X7097Y152588D01*
X7019Y152100D01*
X6858Y151630D01*
X6770Y150532D01*
X6598Y149446D01*
X6644Y148953D01*
X6604Y148459D01*
X6792Y147377D01*
X6895Y146278D01*
X7062Y145812D01*
X7147Y145325D01*
X7598Y144322D01*
X7970Y143285D01*
X8248Y142874D01*
X8451Y142423D01*
X9136Y141565D01*
X9755Y140652D01*
X10127Y140323D01*
X10435Y139937D01*
X11314Y139275D01*
X12139Y138545D01*
X12580Y138320D01*
X12975Y138022D01*
X14431Y137307D01*
X31820Y130104D01*
X50104Y111820D01*
X60000Y87929D01*
X60000Y62071D01*
X50104Y38179D01*
X31820Y19895D01*
X12113Y11733D01*
X10905Y11044D01*
X9678Y10395D01*
X9527Y10258D01*
X9350Y10157D01*
X8351Y9190D01*
X7323Y8256D01*
X7211Y8085D01*
X7065Y7944D01*
X6340Y6761D01*
X5574Y5599D01*
X5508Y5406D01*
X5402Y5232D01*
X4993Y3906D01*
X4541Y2590D01*
X4524Y2387D01*
X4464Y2192D01*
X4398Y801D01*
X4287Y-581D01*
X4322Y-780D01*
X4312Y-985D01*
X4593Y-2352D01*
X4829Y-3715D01*
X4913Y-3901D01*
X4954Y-4101D01*
X5565Y-5352D01*
X6134Y-6617D01*
X6261Y-6776D01*
X6350Y-6959D01*
X7253Y-8019D01*
X8118Y-9103D01*
X8281Y-9225D01*
X8413Y-9381D01*
X9546Y-10180D01*
X10658Y-11018D01*
X10913Y-11143D01*
X11013Y-11214D01*
X11204Y-11286D01*
X12113Y-11733D01*
X31820Y-19895D01*
X50104Y-38179D01*
X60000Y-62071D01*
X60000Y-87929D01*
X50104Y-111820D01*
X31820Y-130104D01*
X7840Y-140037D01*
X7586Y-140182D01*
X7308Y-140272D01*
X6208Y-140968D01*
X5077Y-141613D01*
X4868Y-141816D01*
X4620Y-141972D01*
X3725Y-142922D01*
X2792Y-143826D01*
X2639Y-144075D01*
X2439Y-144288D01*
X1809Y-145427D01*
X1128Y-146538D01*
X1042Y-146817D01*
X901Y-147073D01*
X574Y-148334D01*
X191Y-149578D01*
X177Y-149869D01*
X104Y-150152D01*
X0Y-151770D01*
X0Y-221913D01*
X175Y-223294D01*
X304Y-224676D01*
X373Y-224868D01*
X399Y-225069D01*
X910Y-226361D01*
X1380Y-227669D01*
X1494Y-227838D01*
X1569Y-228028D01*
X2386Y-229152D01*
X3165Y-230302D01*
X3318Y-230437D01*
X3438Y-230602D01*
X4508Y-231488D01*
X5549Y-232408D01*
X5731Y-232501D01*
X5888Y-232631D01*
X7142Y-233223D01*
X8382Y-233856D01*
X8581Y-233901D01*
X8765Y-233988D01*
X10126Y-234249D01*
X11485Y-234555D01*
X11689Y-234548D01*
X11889Y-234587D01*
X13275Y-234501D01*
X14665Y-234460D01*
X14861Y-234403D01*
X15064Y-234391D01*
X16384Y-233964D01*
X17721Y-233578D01*
X17897Y-233474D01*
X18091Y-233412D01*
X19269Y-232667D01*
X20463Y-231964D01*
X20673Y-231778D01*
X20779Y-231711D01*
X20923Y-231558D01*
X21680Y-230893D01*
X26824Y-225748D01*
X27003Y-225517D01*
X27225Y-225328D01*
X27974Y-224266D01*
X28774Y-223235D01*
X28890Y-222967D01*
X29058Y-222728D01*
X29521Y-221511D01*
X30038Y-220316D01*
X30084Y-220028D01*
X30188Y-219755D01*
X30333Y-218458D01*
X30537Y-217174D01*
X30510Y-216884D01*
X30542Y-216593D01*
X30361Y-215302D01*
X30239Y-214007D01*
X30141Y-213732D01*
X30100Y-213443D01*
X29999Y-213148D01*
X29999Y-187071D01*
X39895Y-163179D01*
X58179Y-144895D01*
X82071Y-134999D01*
X107929Y-134999D01*
X117280Y-138873D01*
X118624Y-139241D01*
X119948Y-139649D01*
X120151Y-139658D01*
X120348Y-139713D01*
X121742Y-139735D01*
X123125Y-139801D01*
X123325Y-139760D01*
X123529Y-139763D01*
X124880Y-139439D01*
X126241Y-139159D01*
X126425Y-139069D01*
X126623Y-139022D01*
X127848Y-138374D01*
X129099Y-137763D01*
X129255Y-137630D01*
X129435Y-137535D01*
X130460Y-136604D01*
X131521Y-135700D01*
X131639Y-135533D01*
X131789Y-135396D01*
X132550Y-134241D01*
X133354Y-133100D01*
X133427Y-132908D01*
X133538Y-132739D01*
X133989Y-131428D01*
X134483Y-130126D01*
X134506Y-129923D01*
X134573Y-129730D01*
X134684Y-128342D01*
X134838Y-126965D01*
X134810Y-126763D01*
X134826Y-126559D01*
X134589Y-125189D01*
X134396Y-123814D01*
X134305Y-123546D01*
X134284Y-123425D01*
X134199Y-123237D01*
X133873Y-122280D01*
X129999Y-112929D01*
X129999Y-87071D01*
X139895Y-63179D01*
X158179Y-44895D01*
X182071Y-34999D01*
X207929Y-34999D01*
X231820Y-44895D01*
X250104Y-63179D01*
X260000Y-87071D01*
X260000Y-112929D01*
X250104Y-136820D01*
X231820Y-155104D01*
X207840Y-165037D01*
X207586Y-165182D01*
X207308Y-165272D01*
X206208Y-165968D01*
X205077Y-166613D01*
X204868Y-166816D01*
X204620Y-166972D01*
X203725Y-167922D01*
X202792Y-168826D01*
X202639Y-169075D01*
X202439Y-169288D01*
X201809Y-170427D01*
X201128Y-171538D01*
X201042Y-171817D01*
X200901Y-172073D01*
X200574Y-173334D01*
X200191Y-174578D01*
X200177Y-174869D01*
X200104Y-175152D01*
X200000Y-176770D01*
X200000Y-243493D01*
X137960Y-305533D01*
X93723Y-305533D01*
X92745Y-305657D01*
X91758Y-305686D01*
X91171Y-305856D01*
X90567Y-305932D01*
X89651Y-306294D01*
X88701Y-306568D01*
X88175Y-306878D01*
X87608Y-307102D01*
X86811Y-307681D01*
X85960Y-308182D01*
X85201Y-308850D01*
X85034Y-308971D01*
X84956Y-309066D01*
X84743Y-309253D01*
X45775Y-348220D01*
X44882Y-349372D01*
X43965Y-350503D01*
X43908Y-350626D01*
X43825Y-350734D01*
X43248Y-352068D01*
X42639Y-353394D01*
X42615Y-353529D01*
X42561Y-353653D01*
X42333Y-355090D01*
X42073Y-356525D01*
X42083Y-356660D01*
X42062Y-356795D01*
X42198Y-358239D01*
X42303Y-359698D01*
X42347Y-359828D01*
X42359Y-359962D01*
X42849Y-361326D01*
X43314Y-362713D01*
X43388Y-362828D01*
X43434Y-362956D01*
X44250Y-364158D01*
X45043Y-365384D01*
X45144Y-365477D01*
X45220Y-365588D01*
X46307Y-366549D01*
X47382Y-367540D01*
X47502Y-367605D01*
X47604Y-367695D01*
X48904Y-368360D01*
X50183Y-369048D01*
X50315Y-369081D01*
X50436Y-369143D01*
X51859Y-369463D01*
X53271Y-369813D01*
X53407Y-369812D01*
X53540Y-369842D01*
X55002Y-369798D01*
X56452Y-369786D01*
X56632Y-369749D01*
X56719Y-369747D01*
X56888Y-369698D01*
X58042Y-369467D01*
X141933Y-346988D01*
X142722Y-346666D01*
X143543Y-346439D01*
X144778Y-345828D01*
X144878Y-345787D01*
X144913Y-345760D01*
X144996Y-345720D01*
X226904Y-298430D01*
X227583Y-297914D01*
X228317Y-297483D01*
X229348Y-296575D01*
X229438Y-296507D01*
X229467Y-296471D01*
X229534Y-296412D01*
X296412Y-229534D01*
X296932Y-228863D01*
X297532Y-228253D01*
X298008Y-227537D01*
X298150Y-227366D01*
X298217Y-227224D01*
X298297Y-227103D01*
X298362Y-227021D01*
X298378Y-226982D01*
X298430Y-226904D01*
X345720Y-144996D01*
X346051Y-144209D01*
X346469Y-143469D01*
X346910Y-142165D01*
X346953Y-142063D01*
X346959Y-142019D01*
X346988Y-141933D01*
X371467Y-50577D01*
X371527Y-50143D01*
X371664Y-49728D01*
X371873Y-48120D01*
X373918Y-16918D01*
X373918Y-16916D01*
X373918Y-16915D01*
X374972Y-831D01*
X374971Y-810D01*
X374975Y-791D01*
X374972Y831D01*
X371873Y48120D01*
X371790Y48550D01*
X371786Y48987D01*
X371658Y49622D01*
X371650Y49756D01*
X371602Y49907D01*
X371467Y50576D01*
X346988Y141933D01*
X346666Y142722D01*
X346439Y143543D01*
X345828Y144778D01*
X345787Y144878D01*
X345760Y144913D01*
X345720Y144996D01*
X298430Y226904D01*
X297914Y227583D01*
X297483Y228317D01*
X296575Y229348D01*
X296507Y229438D01*
X296471Y229467D01*
X296412Y229534D01*
X229534Y296412D01*
X228861Y296933D01*
X228253Y297531D01*
X227106Y298295D01*
X227021Y298362D01*
X226980Y298379D01*
X226904Y298430D01*
X144996Y345720D01*
X144209Y346051D01*
X143469Y346469D01*
X142165Y346910D01*
X142063Y346953D01*
X142019Y346959D01*
X141933Y346988D01*
X50577Y371467D01*
X50143Y371527D01*
X49728Y371664D01*
X48120Y371873D01*
X831Y374972D01*
X622Y374960D01*
X0Y374999D01*
X-1025000Y374999D01*
X-1025019Y374997D01*
X-1025039Y374999D01*
X-1026657Y374891D01*
X-1029841Y374472D01*
X-1029926Y374449D01*
X-1030015Y374448D01*
X-1031471Y374044D01*
X-1032918Y373665D01*
X-1032994Y373622D01*
X-1033080Y373598D01*
X-1034533Y372879D01*
X-1040047Y369695D01*
X-1040779Y369139D01*
X-1041566Y368665D01*
X-1042041Y368182D01*
X-1042581Y367772D01*
X-1043153Y367051D01*
X-1043796Y366397D01*
X-1044449Y365417D01*
X-1044558Y365279D01*
X-1044593Y365200D01*
X-1044695Y365047D01*
X-1047879Y359533D01*
X-1047913Y359453D01*
X-1047966Y359381D01*
X-1048530Y357984D01*
X-1049112Y356601D01*
X-1049125Y356513D01*
X-1049158Y356431D01*
X-1049472Y354841D01*
X-1049891Y351658D01*
X-1049891Y351638D01*
X-1049896Y351618D01*
X-1049999Y350000D01*
X-1049999Y-2150000D01*
X-1049997Y-2150020D01*
X-1049999Y-2150040D01*
X-1049891Y-2151658D01*
X-1049472Y-2154841D01*
X-1049449Y-2154926D01*
X-1049448Y-2155015D01*
X-1049045Y-2156468D01*
X-1048665Y-2157918D01*
X-1048622Y-2157995D01*
X-1048598Y-2158080D01*
X-1047879Y-2159533D01*
X-1044695Y-2165047D01*
X-1044139Y-2165779D01*
X-1043665Y-2166566D01*
X-1043182Y-2167041D01*
X-1042772Y-2167581D01*
X-1042051Y-2168153D01*
X-1041397Y-2168796D01*
X-1040417Y-2169449D01*
X-1040279Y-2169558D01*
X-1040200Y-2169593D01*
X-1040047Y-2169695D01*
X-1034533Y-2172879D01*
X-1034453Y-2172913D01*
X-1034381Y-2172966D01*
X-1032984Y-2173530D01*
X-1031601Y-2174112D01*
X-1031513Y-2174125D01*
X-1031431Y-2174158D01*
X-1029841Y-2174472D01*
X-1026658Y-2174891D01*
X-1026638Y-2174891D01*
X-1026618Y-2174896D01*
X-1025000Y-2174999D01*
X-450000Y-2174999D01*
X-449780Y-2174972D01*
G37*
%LPC*%
G36*
X-990835Y140449D02*
X-990835Y140449D01*
X-1002550Y152165D01*
X-1002550Y333835D01*
X-990835Y345550D01*
X-809165Y345550D01*
X-797449Y333835D01*
X-797449Y152165D01*
X-809165Y140449D01*
X-990835Y140449D01*
G37*
%LPD*%
%LPC*%
G36*
X-920398Y-621550D02*
X-920398Y-621550D01*
X-958091Y-605938D01*
X-986938Y-577091D01*
X-1002550Y-539398D01*
X-1002550Y-498601D01*
X-986938Y-460909D01*
X-958091Y-432062D01*
X-920398Y-416449D01*
X-879601Y-416449D01*
X-841909Y-432062D01*
X-813062Y-460909D01*
X-797449Y-498601D01*
X-797449Y-539398D01*
X-813062Y-577091D01*
X-841909Y-605938D01*
X-879601Y-621550D01*
X-920398Y-621550D01*
G37*
%LPD*%
%LPC*%
G36*
X-920398Y-875550D02*
X-920398Y-875550D01*
X-958091Y-859938D01*
X-986938Y-831091D01*
X-1002550Y-793398D01*
X-1002550Y-752601D01*
X-986938Y-714909D01*
X-958091Y-686062D01*
X-920398Y-670449D01*
X-879601Y-670449D01*
X-841909Y-686062D01*
X-813062Y-714909D01*
X-797449Y-752601D01*
X-797449Y-793398D01*
X-813062Y-831091D01*
X-841909Y-859938D01*
X-879601Y-875550D01*
X-920398Y-875550D01*
G37*
%LPD*%
%LPC*%
G36*
X-920398Y-1129550D02*
X-920398Y-1129550D01*
X-958091Y-1113938D01*
X-986938Y-1085091D01*
X-1002550Y-1047398D01*
X-1002550Y-1006601D01*
X-986938Y-968909D01*
X-958091Y-940062D01*
X-920398Y-924449D01*
X-879601Y-924449D01*
X-841909Y-940062D01*
X-813062Y-968909D01*
X-797449Y-1006601D01*
X-797449Y-1047398D01*
X-813062Y-1085091D01*
X-841909Y-1113938D01*
X-879601Y-1129550D01*
X-920398Y-1129550D01*
G37*
%LPD*%
%LPC*%
G36*
X-920398Y-1383550D02*
X-920398Y-1383550D01*
X-958091Y-1367938D01*
X-986938Y-1339091D01*
X-1002550Y-1301398D01*
X-1002550Y-1260601D01*
X-986938Y-1222909D01*
X-958091Y-1194062D01*
X-920398Y-1178449D01*
X-879601Y-1178449D01*
X-841909Y-1194062D01*
X-813062Y-1222909D01*
X-797449Y-1260601D01*
X-797449Y-1301398D01*
X-813062Y-1339091D01*
X-841909Y-1367938D01*
X-879601Y-1383550D01*
X-920398Y-1383550D01*
G37*
%LPD*%
%LPC*%
G36*
X-556508Y287701D02*
X-556508Y287701D01*
X-555675Y291888D01*
X-551310Y302427D01*
X-544974Y311910D01*
X-536910Y319974D01*
X-527427Y326310D01*
X-516888Y330675D01*
X-512701Y331508D01*
X-512701Y287701D01*
X-556508Y287701D01*
G37*
%LPD*%
%LPC*%
G36*
X-416888Y-2055675D02*
X-416888Y-2055675D01*
X-427427Y-2051310D01*
X-436910Y-2044974D01*
X-444974Y-2036910D01*
X-451310Y-2027427D01*
X-455675Y-2016888D01*
X-456508Y-2012701D01*
X-412701Y-2012701D01*
X-412701Y-2056508D01*
X-416888Y-2055675D01*
G37*
%LPD*%
%LPC*%
G36*
X-487299Y287701D02*
X-487299Y287701D01*
X-487299Y331508D01*
X-483111Y330675D01*
X-472573Y326310D01*
X-463090Y319974D01*
X-455026Y311910D01*
X-448689Y302427D01*
X-444324Y291888D01*
X-443491Y287701D01*
X-487299Y287701D01*
G37*
%LPD*%
%LPC*%
G36*
X-516888Y219324D02*
X-516888Y219324D01*
X-527427Y223689D01*
X-536910Y230026D01*
X-544974Y238090D01*
X-551310Y247573D01*
X-555675Y258111D01*
X-556508Y262299D01*
X-512701Y262299D01*
X-512701Y218491D01*
X-516888Y219324D01*
G37*
%LPD*%
%LPC*%
G36*
X-456508Y-1987299D02*
X-456508Y-1987299D01*
X-455675Y-1983111D01*
X-451310Y-1972573D01*
X-444974Y-1963090D01*
X-436910Y-1955026D01*
X-427427Y-1948689D01*
X-416888Y-1944324D01*
X-412701Y-1943491D01*
X-412701Y-1987299D01*
X-456508Y-1987299D01*
G37*
%LPD*%
%LPC*%
G36*
X-387299Y-2012701D02*
X-387299Y-2012701D01*
X-343491Y-2012701D01*
X-344324Y-2016888D01*
X-348689Y-2027427D01*
X-355026Y-2036910D01*
X-363090Y-2044974D01*
X-372573Y-2051310D01*
X-383111Y-2055675D01*
X-387299Y-2056508D01*
X-387299Y-2012701D01*
G37*
%LPD*%
%LPC*%
G36*
X-487299Y262299D02*
X-487299Y262299D01*
X-443491Y262299D01*
X-444324Y258111D01*
X-448689Y247573D01*
X-455026Y238090D01*
X-463090Y230026D01*
X-472573Y223689D01*
X-483111Y219324D01*
X-487299Y218491D01*
X-487299Y262299D01*
G37*
%LPD*%
%LPC*%
G36*
X-387299Y-1987299D02*
X-387299Y-1987299D01*
X-387299Y-1943491D01*
X-383111Y-1944324D01*
X-372573Y-1948689D01*
X-363090Y-1955026D01*
X-355026Y-1963090D01*
X-348689Y-1972573D01*
X-344324Y-1983111D01*
X-343491Y-1987299D01*
X-387299Y-1987299D01*
G37*
%LPD*%
D10*
X-1025000Y400000D02*
X0Y400000D01*
X9665Y399883D01*
X19325Y399533D01*
X28974Y398949D01*
X38606Y398133D01*
X48215Y397084D01*
X57796Y395803D01*
X67343Y394290D01*
X76851Y392548D01*
X86314Y390576D01*
X95726Y388377D01*
X105083Y385950D01*
X114378Y383298D01*
X123607Y380423D01*
X132763Y377325D01*
X141842Y374006D01*
X150838Y370470D01*
X159746Y366717D01*
X168560Y362750D01*
X177277Y358571D01*
X185889Y354182D01*
X194393Y349587D01*
X202784Y344788D01*
X211056Y339787D01*
X219205Y334588D01*
X227226Y329194D01*
X235114Y323607D01*
X242865Y317831D01*
X250474Y311870D01*
X257937Y305726D01*
X265249Y299404D01*
X272406Y292907D01*
X279405Y286240D01*
X286240Y279405D01*
X292907Y272406D01*
X299404Y265249D01*
X305726Y257937D01*
X311870Y250474D01*
X317831Y242865D01*
X323607Y235114D01*
X329194Y227226D01*
X334588Y219205D01*
X339787Y211056D01*
X344788Y202784D01*
X349587Y194393D01*
X354182Y185889D01*
X358571Y177277D01*
X362750Y168560D01*
X366717Y159746D01*
X370470Y150838D01*
X374006Y141842D01*
X377325Y132763D01*
X380423Y123607D01*
X383298Y114378D01*
X385950Y105083D01*
X388377Y95726D01*
X390576Y86314D01*
X392548Y76851D01*
X394290Y67343D01*
X395803Y57796D01*
X397084Y48215D01*
X398133Y38606D01*
X398949Y28974D01*
X399533Y19325D01*
X399883Y9665D01*
X400000Y0D01*
X-1075000Y350000D02*
X-1075000Y-2150000D01*
X-1074985Y-2151208D01*
X-1074942Y-2152416D01*
X-1074869Y-2153622D01*
X-1074767Y-2154826D01*
X-1074635Y-2156027D01*
X-1074475Y-2157224D01*
X-1074286Y-2158418D01*
X-1074069Y-2159606D01*
X-1073822Y-2160789D01*
X-1073547Y-2161966D01*
X-1073244Y-2163135D01*
X-1072912Y-2164297D01*
X-1072553Y-2165451D01*
X-1072166Y-2166595D01*
X-1071751Y-2167730D01*
X-1071309Y-2168855D01*
X-1070840Y-2169968D01*
X-1070344Y-2171070D01*
X-1069821Y-2172160D01*
X-1069273Y-2173236D01*
X-1068698Y-2174299D01*
X-1068098Y-2175348D01*
X-1067473Y-2176382D01*
X-1066824Y-2177401D01*
X-1066149Y-2178403D01*
X-1065451Y-2179389D01*
X-1064729Y-2180358D01*
X-1063984Y-2181309D01*
X-1063216Y-2182242D01*
X-1062426Y-2183156D01*
X-1061613Y-2184051D01*
X-1060780Y-2184926D01*
X-1059926Y-2185780D01*
X-1059051Y-2186613D01*
X-1058156Y-2187426D01*
X-1057242Y-2188216D01*
X-1056309Y-2188984D01*
X-1055358Y-2189729D01*
X-1054389Y-2190451D01*
X-1053403Y-2191149D01*
X-1052401Y-2191824D01*
X-1051382Y-2192473D01*
X-1050348Y-2193098D01*
X-1049299Y-2193698D01*
X-1048236Y-2194273D01*
X-1047160Y-2194821D01*
X-1046070Y-2195344D01*
X-1044968Y-2195840D01*
X-1043855Y-2196309D01*
X-1042730Y-2196751D01*
X-1041595Y-2197166D01*
X-1040451Y-2197553D01*
X-1039297Y-2197912D01*
X-1038135Y-2198244D01*
X-1036966Y-2198547D01*
X-1035789Y-2198822D01*
X-1034606Y-2199069D01*
X-1033418Y-2199286D01*
X-1032224Y-2199475D01*
X-1031027Y-2199635D01*
X-1029826Y-2199767D01*
X-1028622Y-2199869D01*
X-1027416Y-2199942D01*
X-1026208Y-2199985D01*
X-1025000Y-2200000D01*
X-450000Y-2200000D01*
X-445167Y-2199942D01*
X-440337Y-2199766D01*
X-435513Y-2199475D01*
X-430697Y-2199066D01*
X-425893Y-2198542D01*
X-421102Y-2197901D01*
X-416329Y-2197145D01*
X-411575Y-2196274D01*
X-406843Y-2195288D01*
X-402137Y-2194188D01*
X-397459Y-2192975D01*
X-392811Y-2191649D01*
X-388197Y-2190211D01*
X-383618Y-2188662D01*
X-379079Y-2187003D01*
X-374581Y-2185235D01*
X-370127Y-2183358D01*
X-365720Y-2181375D01*
X-361362Y-2179285D01*
X-357055Y-2177091D01*
X-352803Y-2174794D01*
X-348608Y-2172394D01*
X-344472Y-2169894D01*
X-340397Y-2167294D01*
X-336387Y-2164597D01*
X-332443Y-2161803D01*
X-328567Y-2158916D01*
X-324763Y-2155935D01*
X-321032Y-2152863D01*
X-317375Y-2149702D01*
X-313797Y-2146454D01*
X-310298Y-2143120D01*
X-306880Y-2139702D01*
X-303546Y-2136203D01*
X-300298Y-2132625D01*
X-297137Y-2128968D01*
X-294065Y-2125237D01*
X-291084Y-2121433D01*
X-288197Y-2117557D01*
X-285403Y-2113613D01*
X-282706Y-2109603D01*
X-280106Y-2105528D01*
X-277606Y-2101392D01*
X-275206Y-2097197D01*
X-272909Y-2092945D01*
X-270715Y-2088638D01*
X-268625Y-2084280D01*
X-266642Y-2079873D01*
X-264765Y-2075419D01*
X-262997Y-2070921D01*
X-261338Y-2066382D01*
X-259789Y-2061803D01*
X-258351Y-2057189D01*
X-257025Y-2052541D01*
X-255812Y-2047863D01*
X-254712Y-2043157D01*
X-253726Y-2038425D01*
X-252855Y-2033671D01*
X-252099Y-2028898D01*
X-251458Y-2024107D01*
X-250934Y-2019303D01*
X-250525Y-2014487D01*
X-250234Y-2009663D01*
X-250058Y-2004833D01*
X-250000Y-2000000D01*
X-1075000Y350000D02*
X-1074985Y351208D01*
X-1074942Y352416D01*
X-1074869Y353622D01*
X-1074767Y354826D01*
X-1074635Y356027D01*
X-1074475Y357224D01*
X-1074286Y358418D01*
X-1074069Y359606D01*
X-1073822Y360789D01*
X-1073547Y361966D01*
X-1073244Y363135D01*
X-1072912Y364297D01*
X-1072553Y365451D01*
X-1072166Y366595D01*
X-1071751Y367730D01*
X-1071309Y368855D01*
X-1070840Y369968D01*
X-1070344Y371070D01*
X-1069821Y372160D01*
X-1069273Y373236D01*
X-1068698Y374299D01*
X-1068098Y375348D01*
X-1067473Y376382D01*
X-1066824Y377401D01*
X-1066149Y378403D01*
X-1065451Y379389D01*
X-1064729Y380358D01*
X-1063984Y381309D01*
X-1063216Y382242D01*
X-1062426Y383156D01*
X-1061613Y384051D01*
X-1060780Y384926D01*
X-1059926Y385780D01*
X-1059051Y386613D01*
X-1058156Y387426D01*
X-1057242Y388216D01*
X-1056309Y388984D01*
X-1055358Y389729D01*
X-1054389Y390451D01*
X-1053403Y391149D01*
X-1052401Y391824D01*
X-1051382Y392473D01*
X-1050348Y393098D01*
X-1049299Y393698D01*
X-1048236Y394273D01*
X-1047160Y394821D01*
X-1046070Y395344D01*
X-1044968Y395840D01*
X-1043855Y396309D01*
X-1042730Y396751D01*
X-1041595Y397166D01*
X-1040451Y397553D01*
X-1039297Y397912D01*
X-1038135Y398244D01*
X-1036966Y398547D01*
X-1035789Y398822D01*
X-1034606Y399069D01*
X-1033418Y399286D01*
X-1032224Y399475D01*
X-1031027Y399635D01*
X-1029826Y399767D01*
X-1028622Y399869D01*
X-1027416Y399942D01*
X-1026208Y399985D01*
X-1025000Y400000D01*
X0Y-400000D02*
X9665Y-399883D01*
X19325Y-399533D01*
X28974Y-398949D01*
X38606Y-398133D01*
X48215Y-397084D01*
X57796Y-395803D01*
X67343Y-394290D01*
X76851Y-392548D01*
X86314Y-390576D01*
X95726Y-388377D01*
X105083Y-385950D01*
X114378Y-383298D01*
X123607Y-380423D01*
X132763Y-377325D01*
X141842Y-374006D01*
X150838Y-370470D01*
X159746Y-366717D01*
X168560Y-362750D01*
X177277Y-358571D01*
X185889Y-354182D01*
X194393Y-349587D01*
X202784Y-344788D01*
X211056Y-339787D01*
X219205Y-334588D01*
X227226Y-329194D01*
X235114Y-323607D01*
X242865Y-317831D01*
X250474Y-311870D01*
X257937Y-305726D01*
X265249Y-299404D01*
X272406Y-292907D01*
X279405Y-286240D01*
X286240Y-279405D01*
X292907Y-272406D01*
X299404Y-265249D01*
X305726Y-257937D01*
X311870Y-250474D01*
X317831Y-242865D01*
X323607Y-235114D01*
X329194Y-227226D01*
X334588Y-219205D01*
X339787Y-211056D01*
X344788Y-202784D01*
X349587Y-194393D01*
X354182Y-185889D01*
X358571Y-177277D01*
X362750Y-168560D01*
X366717Y-159746D01*
X370470Y-150838D01*
X374006Y-141842D01*
X377325Y-132763D01*
X380423Y-123607D01*
X383298Y-114378D01*
X385950Y-105083D01*
X388377Y-95726D01*
X390576Y-86314D01*
X392548Y-76851D01*
X394290Y-67343D01*
X395803Y-57796D01*
X397084Y-48215D01*
X398133Y-38606D01*
X398949Y-28974D01*
X399533Y-19325D01*
X399883Y-9665D01*
X400000Y0D01*
X-50000Y-450000D02*
X-50000Y-790000D01*
X-110000Y-850000D02*
X-150000Y-850000D01*
X-250000Y-950000D02*
X-250000Y-2000000D01*
X-110000Y-850000D02*
X-108550Y-849982D01*
X-107101Y-849930D01*
X-105654Y-849842D01*
X-104209Y-849720D01*
X-102768Y-849563D01*
X-101331Y-849370D01*
X-99899Y-849144D01*
X-98472Y-848882D01*
X-97053Y-848586D01*
X-95641Y-848257D01*
X-94238Y-847893D01*
X-92843Y-847495D01*
X-91459Y-847063D01*
X-90086Y-846599D01*
X-88724Y-846101D01*
X-87374Y-845570D01*
X-86038Y-845008D01*
X-84716Y-844412D01*
X-83409Y-843786D01*
X-82117Y-843127D01*
X-80841Y-842438D01*
X-79582Y-841718D01*
X-78342Y-840968D01*
X-77119Y-840188D01*
X-75916Y-839379D01*
X-74733Y-838541D01*
X-73570Y-837675D01*
X-72429Y-836780D01*
X-71309Y-835859D01*
X-70213Y-834911D01*
X-69139Y-833936D01*
X-68089Y-832936D01*
X-67064Y-831911D01*
X-66064Y-830861D01*
X-65089Y-829787D01*
X-64141Y-828691D01*
X-63220Y-827571D01*
X-62325Y-826430D01*
X-61459Y-825267D01*
X-60621Y-824084D01*
X-59812Y-822881D01*
X-59032Y-821658D01*
X-58282Y-820418D01*
X-57562Y-819159D01*
X-56873Y-817883D01*
X-56214Y-816591D01*
X-55588Y-815284D01*
X-54992Y-813962D01*
X-54430Y-812626D01*
X-53899Y-811276D01*
X-53401Y-809914D01*
X-52937Y-808541D01*
X-52505Y-807157D01*
X-52107Y-805762D01*
X-51743Y-804359D01*
X-51414Y-802947D01*
X-51118Y-801528D01*
X-50856Y-800101D01*
X-50630Y-798669D01*
X-50437Y-797232D01*
X-50280Y-795791D01*
X-50158Y-794346D01*
X-50070Y-792899D01*
X-50018Y-791450D01*
X-50000Y-790000D01*
X-150000Y-850000D02*
X-152416Y-850029D01*
X-154831Y-850117D01*
X-157243Y-850263D01*
X-159651Y-850467D01*
X-162054Y-850729D01*
X-164449Y-851049D01*
X-166836Y-851427D01*
X-169213Y-851863D01*
X-171578Y-852356D01*
X-173932Y-852906D01*
X-176271Y-853512D01*
X-178595Y-854175D01*
X-180902Y-854894D01*
X-183191Y-855669D01*
X-185460Y-856498D01*
X-187709Y-857383D01*
X-189936Y-858321D01*
X-192140Y-859313D01*
X-194319Y-860357D01*
X-196472Y-861454D01*
X-198598Y-862603D01*
X-200696Y-863803D01*
X-202764Y-865053D01*
X-204801Y-866353D01*
X-206806Y-867702D01*
X-208779Y-869098D01*
X-210716Y-870542D01*
X-212619Y-872033D01*
X-214484Y-873568D01*
X-216312Y-875149D01*
X-218102Y-876773D01*
X-219851Y-878440D01*
X-221560Y-880149D01*
X-223227Y-881898D01*
X-224851Y-883688D01*
X-226432Y-885516D01*
X-227967Y-887381D01*
X-229458Y-889284D01*
X-230902Y-891221D01*
X-232298Y-893194D01*
X-233647Y-895199D01*
X-234947Y-897236D01*
X-236197Y-899304D01*
X-237397Y-901402D01*
X-238546Y-903528D01*
X-239643Y-905681D01*
X-240687Y-907860D01*
X-241679Y-910064D01*
X-242617Y-912291D01*
X-243502Y-914540D01*
X-244331Y-916809D01*
X-245106Y-919098D01*
X-245825Y-921405D01*
X-246488Y-923729D01*
X-247094Y-926068D01*
X-247644Y-928422D01*
X-248137Y-930787D01*
X-248573Y-933164D01*
X-248951Y-935551D01*
X-249271Y-937946D01*
X-249533Y-940349D01*
X-249737Y-942757D01*
X-249883Y-945169D01*
X-249971Y-947584D01*
X-250000Y-950000D01*
X-50000Y-450000D02*
X-49985Y-448792D01*
X-49942Y-447584D01*
X-49869Y-446378D01*
X-49767Y-445174D01*
X-49635Y-443973D01*
X-49475Y-442776D01*
X-49286Y-441582D01*
X-49069Y-440394D01*
X-48822Y-439211D01*
X-48547Y-438034D01*
X-48244Y-436865D01*
X-47912Y-435703D01*
X-47553Y-434549D01*
X-47166Y-433405D01*
X-46751Y-432270D01*
X-46309Y-431145D01*
X-45840Y-430032D01*
X-45344Y-428930D01*
X-44821Y-427840D01*
X-44273Y-426764D01*
X-43698Y-425701D01*
X-43098Y-424652D01*
X-42473Y-423618D01*
X-41824Y-422599D01*
X-41149Y-421597D01*
X-40451Y-420611D01*
X-39729Y-419642D01*
X-38984Y-418691D01*
X-38216Y-417758D01*
X-37426Y-416844D01*
X-36613Y-415949D01*
X-35780Y-415074D01*
X-34926Y-414220D01*
X-34051Y-413387D01*
X-33156Y-412574D01*
X-32242Y-411784D01*
X-31309Y-411016D01*
X-30358Y-410271D01*
X-29389Y-409549D01*
X-28403Y-408851D01*
X-27401Y-408176D01*
X-26382Y-407527D01*
X-25348Y-406902D01*
X-24299Y-406302D01*
X-23236Y-405727D01*
X-22160Y-405179D01*
X-21070Y-404656D01*
X-19968Y-404160D01*
X-18855Y-403691D01*
X-17730Y-403249D01*
X-16595Y-402834D01*
X-15451Y-402447D01*
X-14297Y-402088D01*
X-13135Y-401756D01*
X-11966Y-401453D01*
X-10789Y-401178D01*
X-9606Y-400931D01*
X-8418Y-400714D01*
X-7224Y-400525D01*
X-6027Y-400365D01*
X-4826Y-400233D01*
X-3622Y-400131D01*
X-2416Y-400058D01*
X-1208Y-400015D01*
X0Y-400000D01*
D11*
X-5000Y-75000D03*
X-5000Y75000D03*
X-105000Y200000D03*
X95000Y200000D03*
X195000Y100000D03*
X195000Y-100000D03*
X-205000Y-100000D03*
X-205000Y100000D03*
X-105000Y-200000D03*
X95000Y-200000D03*
D12*
X-900000Y243000D03*
D13*
X-900000Y-11000D03*
X-900000Y-265000D03*
X-900000Y-519000D03*
X-900000Y-773000D03*
X-900000Y-1027000D03*
X-900000Y-1281000D03*
X-900000Y-1535000D03*
X-900000Y-1789000D03*
X-900000Y-2043000D03*
D14*
X-900000Y-11000D02*
X-611000Y-11000D01*
X-400000Y200000D01*
X-105000Y200000D01*
X-575000Y-265000D02*
X-900000Y-265000D01*
X9864Y200000D02*
X95000Y200000D01*
X9864Y200000D02*
X-195068Y-4932D01*
X-314932Y-4932D02*
X-575000Y-265000D01*
X-314932Y-4932D02*
X-195068Y-4932D01*
D15*
X-331397Y-718603D03*
D16*
X-331397Y-715068D01*
D14*
X-158164Y-541836D01*
X170000Y-125000D02*
X195000Y-100000D01*
X170000Y-125000D02*
X170000Y-231066D01*
X-158164Y-487498D02*
X-158164Y-541836D01*
X125533Y-275533D02*
X170000Y-231066D01*
X-13431Y-365000D02*
X-35667Y-365000D01*
X76036Y-275533D02*
X125533Y-275533D01*
X76036Y-275533D02*
X-13431Y-365000D01*
X-35667Y-365000D02*
X-158164Y-487498D01*
D15*
X-469000Y-1027000D03*
D14*
X-469000Y-764000D01*
X-202500Y-497500D01*
X-202500Y-411078D01*
X-116422Y-325000D02*
X-30000Y-325000D01*
X-116422Y-325000D02*
X-202500Y-411078D01*
X-30000Y-325000D02*
X95000Y-200000D01*
X-625000Y-1260000D02*
X-900000Y-1535000D01*
X-625000Y-520000D02*
X-205000Y-100000D01*
X-625000Y-520000D02*
X-625000Y-1260000D01*
X-730500Y-1619500D02*
X-900000Y-1789000D01*
X-730500Y-1619500D02*
X-730500Y-1429706D01*
X-579600Y-1278806D01*
X-234008Y-226187D02*
X-111963Y-107973D01*
X-111963Y-31963D01*
X-5000Y75000D01*
X-234008Y-226187D02*
X-579600Y-571779D01*
X-579600Y-1278806D01*
X-534200Y-1297611D02*
X-685100Y-1448511D01*
X-534200Y-1297611D02*
X-534200Y-744678D01*
X-685100Y-1448511D02*
X-685100Y-1900000D01*
X-828100Y-2043000D01*
X-900000Y-2043000D01*
X-534200Y-744678D02*
X-242500Y-452978D01*
X-242500Y-394509D01*
X-132991Y-285000D01*
X-30000Y-100000D02*
X-5000Y-75000D01*
X-30000Y-100000D02*
X-30000Y-268431D01*
X-46569Y-285000D02*
X-132991Y-285000D01*
X-46569Y-285000D02*
X-30000Y-268431D01*
D15*
X-400000Y-2000000D03*
X-500000Y275000D03*
M02*
