G04 EAGLE Gerber X2 export*
G75*
%MOMM*%
%FSLAX35Y35*%
%LPD*%
%AMOC8*
5,1,8,0,0,1.08239X$1,22.5*%
G01*
%ADD10C,0.000000*%
%ADD11C,0.900000*%
%ADD12R,1.651000X1.651000*%
%ADD13C,1.651000*%
%ADD14C,0.200000*%
%ADD15C,0.650000*%

G36*
X-449780Y-2174972D02*
X-449780Y-2174972D01*
X-449003Y-2174960D01*
X-423614Y-2172962D01*
X-422942Y-2172823D01*
X-422257Y-2172781D01*
X-420686Y-2172380D01*
X-372393Y-2156688D01*
X-371322Y-2156185D01*
X-370223Y-2155752D01*
X-369704Y-2155423D01*
X-369514Y-2155334D01*
X-369355Y-2155203D01*
X-368853Y-2154884D01*
X-327772Y-2125038D01*
X-326909Y-2124227D01*
X-325997Y-2123476D01*
X-325605Y-2123003D01*
X-325453Y-2122860D01*
X-325342Y-2122686D01*
X-324962Y-2122228D01*
X-295115Y-2081147D01*
X-294649Y-2080298D01*
X-294581Y-2080217D01*
X-294490Y-2080023D01*
X-293910Y-2079114D01*
X-293683Y-2078542D01*
X-293583Y-2078359D01*
X-293531Y-2078160D01*
X-293312Y-2077607D01*
X-293225Y-2077340D01*
X-293224Y-2077339D01*
X-293224Y-2077338D01*
X-277620Y-2029313D01*
X-277491Y-2028639D01*
X-277268Y-2027990D01*
X-277038Y-2026385D01*
X-275039Y-2000996D01*
X-275050Y-2000774D01*
X-275000Y-2000000D01*
X-275000Y-948086D01*
X-275175Y-946704D01*
X-275304Y-945325D01*
X-275373Y-945133D01*
X-275399Y-944930D01*
X-275909Y-943639D01*
X-276379Y-942331D01*
X-276494Y-942161D01*
X-276569Y-941972D01*
X-277382Y-940852D01*
X-278165Y-939698D01*
X-278318Y-939562D01*
X-278438Y-939398D01*
X-279506Y-938513D01*
X-280549Y-937592D01*
X-280730Y-937499D01*
X-280888Y-937368D01*
X-282146Y-936775D01*
X-283381Y-936144D01*
X-283580Y-936099D01*
X-283765Y-936012D01*
X-285127Y-935751D01*
X-286485Y-935445D01*
X-286689Y-935451D01*
X-286889Y-935413D01*
X-288270Y-935498D01*
X-289664Y-935540D01*
X-289861Y-935597D01*
X-290064Y-935609D01*
X-291384Y-936036D01*
X-292721Y-936422D01*
X-292897Y-936525D01*
X-293091Y-936588D01*
X-294269Y-937333D01*
X-295462Y-938036D01*
X-295673Y-938221D01*
X-295779Y-938288D01*
X-295924Y-938442D01*
X-296679Y-939107D01*
X-363461Y-1005888D01*
X-364064Y-1006665D01*
X-364742Y-1007385D01*
X-365038Y-1007920D01*
X-365411Y-1008402D01*
X-365802Y-1009305D01*
X-366280Y-1010170D01*
X-366433Y-1010763D01*
X-366675Y-1011321D01*
X-366829Y-1012293D01*
X-367077Y-1013250D01*
X-367141Y-1014258D01*
X-367174Y-1014462D01*
X-367162Y-1014585D01*
X-367180Y-1014868D01*
X-367180Y-1165246D01*
X-512934Y-1311000D01*
X-792941Y-1311000D01*
X-793232Y-1311037D01*
X-793522Y-1311014D01*
X-794803Y-1311235D01*
X-796097Y-1311399D01*
X-796369Y-1311506D01*
X-796657Y-1311556D01*
X-797845Y-1312090D01*
X-799055Y-1312569D01*
X-799292Y-1312741D01*
X-799558Y-1312860D01*
X-800576Y-1313673D01*
X-801630Y-1314438D01*
X-801816Y-1314663D01*
X-802044Y-1314845D01*
X-802828Y-1315884D01*
X-803659Y-1316888D01*
X-803783Y-1317152D01*
X-803959Y-1317385D01*
X-804674Y-1318840D01*
X-813062Y-1339091D01*
X-841909Y-1367938D01*
X-879601Y-1383550D01*
X-920398Y-1383550D01*
X-958091Y-1367938D01*
X-986938Y-1339091D01*
X-1002550Y-1301398D01*
X-1002550Y-1260601D01*
X-986938Y-1222909D01*
X-958091Y-1194062D01*
X-920398Y-1178449D01*
X-879601Y-1178449D01*
X-841909Y-1194062D01*
X-813062Y-1222909D01*
X-804674Y-1243160D01*
X-804529Y-1243414D01*
X-804439Y-1243691D01*
X-803743Y-1244792D01*
X-803098Y-1245923D01*
X-802896Y-1246132D01*
X-802739Y-1246380D01*
X-801789Y-1247274D01*
X-800885Y-1248208D01*
X-800636Y-1248361D01*
X-800424Y-1248561D01*
X-799284Y-1249190D01*
X-798173Y-1249872D01*
X-797894Y-1249958D01*
X-797639Y-1250099D01*
X-796378Y-1250425D01*
X-795133Y-1250809D01*
X-794842Y-1250823D01*
X-794559Y-1250896D01*
X-792941Y-1250999D01*
X-543048Y-1250999D01*
X-542071Y-1250876D01*
X-541084Y-1250847D01*
X-540497Y-1250677D01*
X-539893Y-1250601D01*
X-538977Y-1250239D01*
X-538027Y-1249965D01*
X-537501Y-1249655D01*
X-536934Y-1249431D01*
X-536137Y-1248852D01*
X-535286Y-1248351D01*
X-534528Y-1247684D01*
X-534360Y-1247562D01*
X-534281Y-1247466D01*
X-534069Y-1247280D01*
X-430901Y-1144112D01*
X-430298Y-1143334D01*
X-429620Y-1142615D01*
X-429325Y-1142080D01*
X-428951Y-1141599D01*
X-428559Y-1140694D01*
X-428082Y-1139830D01*
X-427929Y-1139238D01*
X-427687Y-1138679D01*
X-427533Y-1137707D01*
X-427285Y-1136750D01*
X-427220Y-1135742D01*
X-427188Y-1135538D01*
X-427199Y-1135415D01*
X-427181Y-1135132D01*
X-427181Y-1085510D01*
X-427243Y-1085018D01*
X-427220Y-1084525D01*
X-427442Y-1083447D01*
X-427580Y-1082354D01*
X-427762Y-1081894D01*
X-427862Y-1081409D01*
X-428346Y-1080417D01*
X-428750Y-1079396D01*
X-429040Y-1078996D01*
X-429258Y-1078551D01*
X-429973Y-1077712D01*
X-430619Y-1076822D01*
X-431000Y-1076506D01*
X-431321Y-1076129D01*
X-432220Y-1075495D01*
X-433068Y-1074792D01*
X-433516Y-1074581D01*
X-433921Y-1074296D01*
X-434951Y-1073905D01*
X-435946Y-1073436D01*
X-436431Y-1073343D01*
X-436895Y-1073167D01*
X-437990Y-1073044D01*
X-439070Y-1072837D01*
X-439564Y-1072867D01*
X-440056Y-1072812D01*
X-441148Y-1072965D01*
X-442245Y-1073033D01*
X-442715Y-1073185D01*
X-443206Y-1073254D01*
X-444741Y-1073777D01*
X-458557Y-1079500D01*
X-479443Y-1079500D01*
X-498739Y-1071508D01*
X-509527Y-1060720D01*
X-510305Y-1060117D01*
X-511024Y-1059439D01*
X-511558Y-1059144D01*
X-512040Y-1058770D01*
X-512944Y-1058378D01*
X-513809Y-1057901D01*
X-514401Y-1057748D01*
X-514959Y-1057506D01*
X-515932Y-1057352D01*
X-516889Y-1057104D01*
X-517897Y-1057039D01*
X-518101Y-1057007D01*
X-518224Y-1057018D01*
X-518507Y-1057000D01*
X-792941Y-1057000D01*
X-793232Y-1057037D01*
X-793522Y-1057014D01*
X-794803Y-1057235D01*
X-796097Y-1057399D01*
X-796369Y-1057506D01*
X-796657Y-1057556D01*
X-797845Y-1058090D01*
X-799055Y-1058569D01*
X-799292Y-1058741D01*
X-799558Y-1058860D01*
X-800576Y-1059673D01*
X-801630Y-1060438D01*
X-801816Y-1060663D01*
X-802044Y-1060845D01*
X-802828Y-1061884D01*
X-803659Y-1062888D01*
X-803783Y-1063152D01*
X-803959Y-1063385D01*
X-804674Y-1064840D01*
X-813062Y-1085091D01*
X-841909Y-1113938D01*
X-879601Y-1129550D01*
X-920398Y-1129550D01*
X-958091Y-1113938D01*
X-986938Y-1085091D01*
X-1002550Y-1047398D01*
X-1002550Y-1006601D01*
X-986938Y-968909D01*
X-958091Y-940062D01*
X-920398Y-924449D01*
X-879601Y-924449D01*
X-841909Y-940062D01*
X-813062Y-968909D01*
X-804674Y-989160D01*
X-804529Y-989414D01*
X-804439Y-989691D01*
X-803743Y-990792D01*
X-803098Y-991923D01*
X-802896Y-992132D01*
X-802739Y-992380D01*
X-801789Y-993274D01*
X-800885Y-994208D01*
X-800636Y-994361D01*
X-800424Y-994561D01*
X-799284Y-995190D01*
X-798173Y-995872D01*
X-797894Y-995958D01*
X-797639Y-996099D01*
X-796378Y-996425D01*
X-795133Y-996809D01*
X-794842Y-996823D01*
X-794559Y-996896D01*
X-792941Y-996999D01*
X-518507Y-996999D01*
X-517529Y-996876D01*
X-516542Y-996847D01*
X-515955Y-996677D01*
X-515351Y-996601D01*
X-514435Y-996239D01*
X-513485Y-995965D01*
X-512959Y-995655D01*
X-512393Y-995431D01*
X-511595Y-994852D01*
X-510744Y-994351D01*
X-509987Y-993684D01*
X-509818Y-993562D01*
X-509739Y-993466D01*
X-509527Y-993280D01*
X-498739Y-982492D01*
X-479443Y-974499D01*
X-458557Y-974499D01*
X-436959Y-983446D01*
X-436677Y-983523D01*
X-436418Y-983655D01*
X-435150Y-983941D01*
X-433891Y-984285D01*
X-433599Y-984290D01*
X-433314Y-984354D01*
X-432011Y-984315D01*
X-430710Y-984336D01*
X-430427Y-984268D01*
X-430135Y-984259D01*
X-428880Y-983897D01*
X-427617Y-983595D01*
X-427360Y-983459D01*
X-427078Y-983378D01*
X-425953Y-982715D01*
X-424804Y-982108D01*
X-424588Y-981912D01*
X-424337Y-981763D01*
X-423120Y-980693D01*
X-138720Y-696293D01*
X-138117Y-695515D01*
X-137439Y-694795D01*
X-137143Y-694260D01*
X-136770Y-693779D01*
X-136379Y-692876D01*
X-135901Y-692010D01*
X-135748Y-691418D01*
X-135506Y-690860D01*
X-135352Y-689888D01*
X-135104Y-688931D01*
X-135039Y-687923D01*
X-135007Y-687718D01*
X-135018Y-687596D01*
X-135000Y-687313D01*
X-135000Y-266415D01*
X-135037Y-266124D01*
X-135014Y-265833D01*
X-135235Y-264552D01*
X-135399Y-263259D01*
X-135507Y-262987D01*
X-135556Y-262699D01*
X-136090Y-261512D01*
X-136569Y-260301D01*
X-136741Y-260064D01*
X-136861Y-259798D01*
X-137673Y-258780D01*
X-138438Y-257726D01*
X-138663Y-257540D01*
X-138845Y-257311D01*
X-139885Y-256528D01*
X-140888Y-255697D01*
X-141152Y-255572D01*
X-141385Y-255396D01*
X-141667Y-255258D01*
X-160104Y-236820D01*
X-164288Y-226720D01*
X-164346Y-226618D01*
X-164351Y-226604D01*
X-164386Y-226548D01*
X-164533Y-226290D01*
X-164700Y-225824D01*
X-165319Y-224912D01*
X-165864Y-223957D01*
X-166208Y-223601D01*
X-166486Y-223191D01*
X-167312Y-222462D01*
X-168077Y-221672D01*
X-168499Y-221413D01*
X-168870Y-221085D01*
X-169849Y-220584D01*
X-170788Y-220008D01*
X-171262Y-219862D01*
X-171702Y-219637D01*
X-172776Y-219396D01*
X-173828Y-219071D01*
X-174323Y-219047D01*
X-174806Y-218938D01*
X-175906Y-218971D01*
X-177006Y-218918D01*
X-177491Y-219018D01*
X-177985Y-219033D01*
X-179043Y-219338D01*
X-180122Y-219561D01*
X-180566Y-219778D01*
X-181042Y-219915D01*
X-181991Y-220474D01*
X-182980Y-220957D01*
X-183357Y-221278D01*
X-183783Y-221529D01*
X-185000Y-222600D01*
X-511401Y-549000D01*
X-792941Y-549000D01*
X-793232Y-549037D01*
X-793522Y-549014D01*
X-794803Y-549235D01*
X-796097Y-549399D01*
X-796369Y-549506D01*
X-796657Y-549556D01*
X-797845Y-550090D01*
X-799055Y-550569D01*
X-799292Y-550741D01*
X-799558Y-550860D01*
X-800576Y-551673D01*
X-801630Y-552438D01*
X-801816Y-552663D01*
X-802044Y-552845D01*
X-802828Y-553884D01*
X-803659Y-554888D01*
X-803783Y-555152D01*
X-803959Y-555385D01*
X-804674Y-556840D01*
X-813062Y-577091D01*
X-841909Y-605938D01*
X-879601Y-621550D01*
X-920398Y-621550D01*
X-958091Y-605938D01*
X-986938Y-577091D01*
X-1002550Y-539398D01*
X-1002550Y-498601D01*
X-986938Y-460909D01*
X-958091Y-432062D01*
X-920398Y-416449D01*
X-879601Y-416449D01*
X-841909Y-432062D01*
X-813062Y-460909D01*
X-804674Y-481160D01*
X-804529Y-481414D01*
X-804439Y-481691D01*
X-803743Y-482792D01*
X-803098Y-483923D01*
X-802896Y-484132D01*
X-802739Y-484380D01*
X-801789Y-485274D01*
X-800885Y-486208D01*
X-800636Y-486361D01*
X-800424Y-486561D01*
X-799284Y-487190D01*
X-798173Y-487872D01*
X-797894Y-487958D01*
X-797639Y-488099D01*
X-796378Y-488425D01*
X-795133Y-488809D01*
X-794842Y-488823D01*
X-794559Y-488896D01*
X-792941Y-488999D01*
X-541515Y-488999D01*
X-540537Y-488876D01*
X-539550Y-488847D01*
X-538963Y-488677D01*
X-538359Y-488601D01*
X-537443Y-488239D01*
X-536493Y-487965D01*
X-535967Y-487655D01*
X-535401Y-487431D01*
X-534603Y-486852D01*
X-533752Y-486351D01*
X-532995Y-485684D01*
X-532826Y-485562D01*
X-532747Y-485466D01*
X-532535Y-485280D01*
X-227356Y-180101D01*
X-227054Y-179711D01*
X-226686Y-179378D01*
X-226080Y-178456D01*
X-225406Y-177588D01*
X-225210Y-177135D01*
X-224937Y-176720D01*
X-224578Y-175676D01*
X-224142Y-174669D01*
X-224065Y-174181D01*
X-223903Y-173712D01*
X-223816Y-172613D01*
X-223643Y-171527D01*
X-223689Y-171034D01*
X-223650Y-170541D01*
X-223838Y-169455D01*
X-223941Y-168360D01*
X-224108Y-167895D01*
X-224192Y-167406D01*
X-224644Y-166402D01*
X-225016Y-165366D01*
X-225294Y-164956D01*
X-225497Y-164505D01*
X-226183Y-163644D01*
X-226801Y-162733D01*
X-227172Y-162406D01*
X-227481Y-162018D01*
X-228361Y-161355D01*
X-229185Y-160627D01*
X-229626Y-160402D01*
X-230021Y-160103D01*
X-231476Y-159389D01*
X-241820Y-155104D01*
X-260104Y-136820D01*
X-270000Y-112929D01*
X-270000Y-87071D01*
X-260104Y-63179D01*
X-241820Y-44895D01*
X-217929Y-34999D01*
X-192071Y-34999D01*
X-168179Y-44895D01*
X-149895Y-63179D01*
X-144734Y-75641D01*
X-144542Y-75978D01*
X-144418Y-76343D01*
X-143757Y-77354D01*
X-143158Y-78405D01*
X-142889Y-78683D01*
X-142677Y-79006D01*
X-141785Y-79822D01*
X-140945Y-80690D01*
X-140615Y-80892D01*
X-140329Y-81153D01*
X-139263Y-81721D01*
X-138233Y-82353D01*
X-137863Y-82467D01*
X-137522Y-82649D01*
X-136347Y-82935D01*
X-135193Y-83290D01*
X-134807Y-83309D01*
X-134431Y-83400D01*
X-133223Y-83385D01*
X-132016Y-83443D01*
X-131636Y-83365D01*
X-131250Y-83360D01*
X-130084Y-83045D01*
X-128900Y-82801D01*
X-128553Y-82631D01*
X-128179Y-82530D01*
X-127128Y-81935D01*
X-126042Y-81404D01*
X-125747Y-81153D01*
X-125411Y-80963D01*
X-124175Y-79913D01*
X-121907Y-77721D01*
X-121223Y-76869D01*
X-120472Y-76072D01*
X-120229Y-75632D01*
X-119915Y-75241D01*
X-119463Y-74245D01*
X-118934Y-73287D01*
X-118808Y-72801D01*
X-118601Y-72344D01*
X-118411Y-71266D01*
X-118137Y-70207D01*
X-118087Y-69428D01*
X-118049Y-69211D01*
X-118062Y-69037D01*
X-118033Y-68589D01*
X-118033Y-39540D01*
X-59189Y19304D01*
X-58461Y20243D01*
X-57674Y21133D01*
X-57488Y21496D01*
X-57239Y21818D01*
X-56767Y22908D01*
X-56226Y23966D01*
X-56136Y24363D01*
X-55975Y24737D01*
X-55789Y25908D01*
X-55527Y27069D01*
X-55539Y27477D01*
X-55476Y27878D01*
X-55587Y29060D01*
X-55622Y30249D01*
X-55735Y30640D01*
X-55773Y31046D01*
X-56174Y32164D01*
X-56504Y33305D01*
X-56710Y33656D01*
X-56848Y34040D01*
X-57515Y35023D01*
X-58118Y36047D01*
X-58518Y36501D01*
X-58634Y36672D01*
X-58789Y36809D01*
X-59189Y37264D01*
X-60104Y38179D01*
X-70000Y62071D01*
X-70000Y87929D01*
X-60104Y111820D01*
X-41820Y130104D01*
X-17929Y140000D01*
X7929Y140000D01*
X31820Y130104D01*
X50104Y111820D01*
X60000Y87929D01*
X60000Y62070D01*
X53990Y47560D01*
X53859Y47083D01*
X53648Y46634D01*
X53441Y45554D01*
X53150Y44491D01*
X53142Y43996D01*
X53049Y43510D01*
X53117Y42413D01*
X53099Y41311D01*
X53214Y40829D01*
X53245Y40335D01*
X53584Y39288D01*
X53840Y38217D01*
X54072Y37780D01*
X54224Y37308D01*
X54813Y36377D01*
X55327Y35405D01*
X55659Y35039D01*
X55924Y34620D01*
X56728Y33863D01*
X57466Y33050D01*
X57879Y32779D01*
X58240Y32439D01*
X59204Y31906D01*
X60123Y31301D01*
X60591Y31140D01*
X61025Y30901D01*
X62090Y30625D01*
X63132Y30267D01*
X63626Y30228D01*
X64104Y30104D01*
X65722Y30000D01*
X77313Y30000D01*
X78290Y30124D01*
X79278Y30153D01*
X79864Y30323D01*
X80469Y30399D01*
X81384Y30761D01*
X82334Y31035D01*
X82861Y31345D01*
X83427Y31569D01*
X84225Y32148D01*
X85075Y32649D01*
X85833Y33316D01*
X86001Y33438D01*
X86081Y33533D01*
X86293Y33720D01*
X126824Y74251D01*
X127003Y74482D01*
X127225Y74671D01*
X127975Y75734D01*
X128774Y76764D01*
X128890Y77033D01*
X129058Y77271D01*
X129521Y78491D01*
X130038Y79684D01*
X130083Y79971D01*
X130188Y80245D01*
X130333Y81542D01*
X130537Y82825D01*
X130510Y83116D01*
X130542Y83406D01*
X130361Y84699D01*
X130239Y85993D01*
X130141Y86267D01*
X130100Y86557D01*
X129999Y86852D01*
X129999Y112929D01*
X133873Y122280D01*
X134241Y123624D01*
X134649Y124948D01*
X134658Y125151D01*
X134713Y125348D01*
X134735Y126742D01*
X134801Y128125D01*
X134760Y128325D01*
X134763Y128529D01*
X134439Y129880D01*
X134159Y131241D01*
X134069Y131425D01*
X134022Y131623D01*
X133374Y132848D01*
X132763Y134099D01*
X132630Y134255D01*
X132535Y134435D01*
X131604Y135460D01*
X130700Y136521D01*
X130533Y136639D01*
X130396Y136789D01*
X129241Y137550D01*
X128100Y138354D01*
X127908Y138427D01*
X127739Y138538D01*
X126428Y138989D01*
X125126Y139483D01*
X124923Y139506D01*
X124730Y139573D01*
X123342Y139684D01*
X121965Y139838D01*
X121763Y139810D01*
X121559Y139826D01*
X120189Y139589D01*
X118814Y139396D01*
X118546Y139305D01*
X118425Y139284D01*
X118237Y139199D01*
X117280Y138873D01*
X107929Y134999D01*
X82071Y134999D01*
X58179Y144895D01*
X39895Y163179D01*
X29999Y187071D01*
X29999Y212929D01*
X39895Y236820D01*
X58179Y255104D01*
X82071Y265000D01*
X107929Y265000D01*
X131820Y255104D01*
X150104Y236820D01*
X160000Y212929D01*
X160000Y187071D01*
X156127Y177720D01*
X155759Y176376D01*
X155351Y175052D01*
X155341Y174849D01*
X155287Y174651D01*
X155265Y173258D01*
X155199Y171874D01*
X155240Y171675D01*
X155237Y171471D01*
X155560Y170119D01*
X155841Y168759D01*
X155930Y168575D01*
X155978Y168377D01*
X156626Y167151D01*
X157237Y165900D01*
X157370Y165744D01*
X157465Y165565D01*
X158396Y164540D01*
X159300Y163479D01*
X159467Y163361D01*
X159604Y163210D01*
X160759Y162450D01*
X161900Y161646D01*
X162092Y161573D01*
X162261Y161461D01*
X163571Y161011D01*
X164874Y160516D01*
X165077Y160493D01*
X165269Y160427D01*
X166658Y160316D01*
X168035Y160162D01*
X168236Y160190D01*
X168440Y160173D01*
X169811Y160411D01*
X171185Y160603D01*
X171454Y160695D01*
X171575Y160716D01*
X171763Y160800D01*
X172720Y161127D01*
X182071Y165000D01*
X207929Y165000D01*
X231820Y155104D01*
X250104Y136820D01*
X260000Y112929D01*
X260000Y87071D01*
X250104Y63179D01*
X231820Y44895D01*
X207929Y34999D01*
X181604Y34999D01*
X181279Y35073D01*
X180023Y35417D01*
X179731Y35421D01*
X179446Y35485D01*
X178142Y35447D01*
X176842Y35467D01*
X176559Y35399D01*
X176266Y35391D01*
X175011Y35028D01*
X173748Y34726D01*
X173491Y34590D01*
X173210Y34509D01*
X172088Y33848D01*
X170936Y33239D01*
X170719Y33042D01*
X170468Y32895D01*
X169251Y31824D01*
X128720Y-8707D01*
X128719Y-8708D01*
X107427Y-30000D01*
X65722Y-30000D01*
X65230Y-30063D01*
X64737Y-30039D01*
X63658Y-30261D01*
X62566Y-30399D01*
X62107Y-30581D01*
X61621Y-30681D01*
X60631Y-31165D01*
X59608Y-31569D01*
X59208Y-31860D01*
X58763Y-32077D01*
X57925Y-32791D01*
X57034Y-33438D01*
X56718Y-33819D01*
X56341Y-34140D01*
X55708Y-35039D01*
X55004Y-35888D01*
X54793Y-36335D01*
X54508Y-36740D01*
X54117Y-37770D01*
X53648Y-38765D01*
X53555Y-39250D01*
X53379Y-39714D01*
X53256Y-40809D01*
X53049Y-41889D01*
X53079Y-42383D01*
X53024Y-42875D01*
X53177Y-43967D01*
X53245Y-45064D01*
X53397Y-45534D01*
X53466Y-46025D01*
X53990Y-47560D01*
X60000Y-62070D01*
X60000Y-87929D01*
X50104Y-111820D01*
X31820Y-130104D01*
X7929Y-140000D01*
X-17929Y-140000D01*
X-41820Y-130104D01*
X-56433Y-115491D01*
X-57370Y-114765D01*
X-58263Y-113976D01*
X-58625Y-113790D01*
X-58947Y-113541D01*
X-60035Y-113070D01*
X-61095Y-112528D01*
X-61493Y-112438D01*
X-61866Y-112277D01*
X-63037Y-112091D01*
X-64199Y-111830D01*
X-64606Y-111842D01*
X-65008Y-111778D01*
X-66190Y-111889D01*
X-67378Y-111925D01*
X-67770Y-112038D01*
X-68175Y-112076D01*
X-69293Y-112477D01*
X-70435Y-112807D01*
X-70785Y-113013D01*
X-71169Y-113151D01*
X-72155Y-113819D01*
X-73176Y-114421D01*
X-73629Y-114819D01*
X-73802Y-114936D01*
X-73940Y-115093D01*
X-74393Y-115492D01*
X-77813Y-118912D01*
X-78359Y-119221D01*
X-79349Y-120062D01*
X-79460Y-120142D01*
X-79498Y-120188D01*
X-79594Y-120270D01*
X-80081Y-120741D01*
X-80460Y-121211D01*
X-80908Y-121618D01*
X-81453Y-122447D01*
X-82074Y-123220D01*
X-82325Y-123771D01*
X-82657Y-124276D01*
X-82979Y-125213D01*
X-83389Y-126117D01*
X-83494Y-126712D01*
X-83691Y-127284D01*
X-83770Y-128274D01*
X-83942Y-129249D01*
X-83896Y-129852D01*
X-83944Y-130455D01*
X-83775Y-131434D01*
X-83699Y-132421D01*
X-83505Y-132993D01*
X-83402Y-133590D01*
X-82995Y-134494D01*
X-82676Y-135433D01*
X-82345Y-135940D01*
X-82098Y-136491D01*
X-81480Y-137265D01*
X-80937Y-138097D01*
X-80490Y-138505D01*
X-80113Y-138977D01*
X-79322Y-139574D01*
X-78589Y-140244D01*
X-78056Y-140528D01*
X-77573Y-140892D01*
X-76118Y-141607D01*
X-68179Y-144895D01*
X-49895Y-163179D01*
X-39999Y-187071D01*
X-39999Y-212929D01*
X-49895Y-236820D01*
X-68508Y-255433D01*
X-68790Y-255612D01*
X-69923Y-256257D01*
X-70133Y-256460D01*
X-70380Y-256617D01*
X-71274Y-257567D01*
X-72208Y-258470D01*
X-72360Y-258719D01*
X-72561Y-258932D01*
X-73191Y-260073D01*
X-73871Y-261182D01*
X-73957Y-261461D01*
X-74099Y-261717D01*
X-74426Y-262980D01*
X-74808Y-264222D01*
X-74823Y-264513D01*
X-74896Y-264797D01*
X-74999Y-266415D01*
X-74999Y-384702D01*
X-74833Y-386015D01*
X-74791Y-386523D01*
X-74777Y-386752D01*
X-74771Y-386772D01*
X-74724Y-387332D01*
X-74635Y-387588D01*
X-74601Y-387858D01*
X-74115Y-389086D01*
X-73681Y-390337D01*
X-73530Y-390563D01*
X-73431Y-390816D01*
X-72655Y-391885D01*
X-71923Y-392988D01*
X-71722Y-393171D01*
X-71562Y-393390D01*
X-70544Y-394233D01*
X-69562Y-395120D01*
X-69322Y-395246D01*
X-69112Y-395420D01*
X-67916Y-395983D01*
X-66745Y-396598D01*
X-66480Y-396660D01*
X-66235Y-396776D01*
X-64938Y-397025D01*
X-63649Y-397329D01*
X-63378Y-397324D01*
X-63111Y-397375D01*
X-61792Y-397294D01*
X-60469Y-397268D01*
X-60207Y-397196D01*
X-59936Y-397179D01*
X-58678Y-396772D01*
X-57403Y-396419D01*
X-57059Y-396248D01*
X-56909Y-396200D01*
X-56721Y-396082D01*
X-55950Y-395700D01*
X-20097Y-374999D01*
X0Y-374999D01*
X208Y-374973D01*
X831Y-374972D01*
X48120Y-371873D01*
X48550Y-371790D01*
X48987Y-371786D01*
X50576Y-371467D01*
X141933Y-346988D01*
X142722Y-346666D01*
X143543Y-346439D01*
X144778Y-345828D01*
X144878Y-345787D01*
X144913Y-345760D01*
X144996Y-345720D01*
X226904Y-298430D01*
X227583Y-297914D01*
X228317Y-297483D01*
X229348Y-296575D01*
X229438Y-296507D01*
X229467Y-296471D01*
X229534Y-296412D01*
X296412Y-229534D01*
X296932Y-228863D01*
X297532Y-228253D01*
X298008Y-227537D01*
X298150Y-227366D01*
X298217Y-227224D01*
X298297Y-227103D01*
X298362Y-227021D01*
X298378Y-226982D01*
X298430Y-226904D01*
X345720Y-144996D01*
X346051Y-144209D01*
X346469Y-143469D01*
X346910Y-142165D01*
X346953Y-142063D01*
X346959Y-142019D01*
X346988Y-141933D01*
X371467Y-50577D01*
X371527Y-50143D01*
X371664Y-49728D01*
X371873Y-48120D01*
X373918Y-16918D01*
X373918Y-16916D01*
X373918Y-16915D01*
X374972Y-831D01*
X374971Y-810D01*
X374975Y-791D01*
X374972Y831D01*
X371873Y48120D01*
X371790Y48550D01*
X371786Y48987D01*
X371658Y49622D01*
X371650Y49756D01*
X371602Y49907D01*
X371467Y50576D01*
X346988Y141933D01*
X346666Y142722D01*
X346439Y143543D01*
X345828Y144778D01*
X345787Y144878D01*
X345760Y144913D01*
X345720Y144996D01*
X298430Y226904D01*
X297914Y227583D01*
X297483Y228317D01*
X296575Y229348D01*
X296507Y229438D01*
X296471Y229467D01*
X296412Y229534D01*
X229534Y296412D01*
X228861Y296933D01*
X228253Y297531D01*
X227106Y298295D01*
X227021Y298362D01*
X226980Y298379D01*
X226904Y298430D01*
X144996Y345720D01*
X144209Y346051D01*
X143469Y346469D01*
X142165Y346910D01*
X142063Y346953D01*
X142019Y346959D01*
X141933Y346988D01*
X50577Y371467D01*
X50143Y371527D01*
X49728Y371664D01*
X48120Y371873D01*
X831Y374972D01*
X622Y374960D01*
X0Y374999D01*
X-1025000Y374999D01*
X-1025019Y374997D01*
X-1025039Y374999D01*
X-1026657Y374891D01*
X-1029841Y374472D01*
X-1029926Y374449D01*
X-1030015Y374448D01*
X-1031471Y374044D01*
X-1032918Y373665D01*
X-1032994Y373622D01*
X-1033080Y373598D01*
X-1034533Y372879D01*
X-1040047Y369695D01*
X-1040779Y369139D01*
X-1041566Y368665D01*
X-1042041Y368182D01*
X-1042581Y367772D01*
X-1043153Y367051D01*
X-1043796Y366397D01*
X-1044449Y365417D01*
X-1044558Y365279D01*
X-1044593Y365200D01*
X-1044695Y365047D01*
X-1047879Y359533D01*
X-1047913Y359453D01*
X-1047966Y359381D01*
X-1048530Y357984D01*
X-1049112Y356601D01*
X-1049125Y356513D01*
X-1049158Y356431D01*
X-1049472Y354841D01*
X-1049891Y351658D01*
X-1049891Y351638D01*
X-1049896Y351618D01*
X-1049999Y350000D01*
X-1049999Y-2150000D01*
X-1049997Y-2150020D01*
X-1049999Y-2150040D01*
X-1049891Y-2151658D01*
X-1049472Y-2154841D01*
X-1049449Y-2154926D01*
X-1049448Y-2155015D01*
X-1049045Y-2156468D01*
X-1048665Y-2157918D01*
X-1048622Y-2157995D01*
X-1048598Y-2158080D01*
X-1047879Y-2159533D01*
X-1044695Y-2165047D01*
X-1044139Y-2165779D01*
X-1043665Y-2166566D01*
X-1043182Y-2167041D01*
X-1042772Y-2167581D01*
X-1042051Y-2168153D01*
X-1041397Y-2168796D01*
X-1040417Y-2169449D01*
X-1040279Y-2169558D01*
X-1040200Y-2169593D01*
X-1040047Y-2169695D01*
X-1034533Y-2172879D01*
X-1034453Y-2172913D01*
X-1034381Y-2172966D01*
X-1032984Y-2173530D01*
X-1031601Y-2174112D01*
X-1031513Y-2174125D01*
X-1031431Y-2174158D01*
X-1029841Y-2174472D01*
X-1026658Y-2174891D01*
X-1026638Y-2174891D01*
X-1026618Y-2174896D01*
X-1025000Y-2174999D01*
X-450000Y-2174999D01*
X-449780Y-2174972D01*
G37*
%LPC*%
G36*
X-217929Y34999D02*
X-217929Y34999D01*
X-241820Y44895D01*
X-260433Y63508D01*
X-260612Y63790D01*
X-261257Y64923D01*
X-261460Y65133D01*
X-261617Y65380D01*
X-262567Y66274D01*
X-263470Y67208D01*
X-263719Y67360D01*
X-263932Y67561D01*
X-265073Y68191D01*
X-266182Y68871D01*
X-266461Y68957D01*
X-266717Y69099D01*
X-267980Y69426D01*
X-269222Y69808D01*
X-269513Y69823D01*
X-269797Y69896D01*
X-271415Y69999D01*
X-488667Y69999D01*
X-627947Y209280D01*
X-628725Y209883D01*
X-629444Y210561D01*
X-629978Y210856D01*
X-630460Y211230D01*
X-631364Y211621D01*
X-632229Y212099D01*
X-632821Y212252D01*
X-633379Y212494D01*
X-634352Y212648D01*
X-635309Y212896D01*
X-636317Y212960D01*
X-636521Y212993D01*
X-636644Y212981D01*
X-636927Y212999D01*
X-784750Y212999D01*
X-785930Y212850D01*
X-787114Y212777D01*
X-787501Y212652D01*
X-787906Y212601D01*
X-789012Y212163D01*
X-790141Y211798D01*
X-790486Y211580D01*
X-790864Y211431D01*
X-791823Y210734D01*
X-792830Y210098D01*
X-793110Y209800D01*
X-793438Y209562D01*
X-794195Y208648D01*
X-795011Y207783D01*
X-795208Y207426D01*
X-795468Y207112D01*
X-795974Y206038D01*
X-796549Y204998D01*
X-796651Y204603D01*
X-796824Y204235D01*
X-797048Y203070D01*
X-797346Y201918D01*
X-797385Y201313D01*
X-797423Y201111D01*
X-797411Y200905D01*
X-797449Y200300D01*
X-797449Y152165D01*
X-809165Y140449D01*
X-990835Y140449D01*
X-1002550Y152165D01*
X-1002550Y333835D01*
X-990835Y345550D01*
X-809165Y345550D01*
X-797449Y333835D01*
X-797449Y285700D01*
X-797300Y284520D01*
X-797227Y283335D01*
X-797102Y282948D01*
X-797051Y282544D01*
X-796613Y281438D01*
X-796248Y280308D01*
X-796030Y279964D01*
X-795881Y279586D01*
X-795184Y278626D01*
X-794548Y277620D01*
X-794250Y277340D01*
X-794012Y277011D01*
X-793098Y276254D01*
X-792233Y275439D01*
X-791876Y275242D01*
X-791562Y274982D01*
X-790488Y274475D01*
X-789448Y273901D01*
X-789053Y273799D01*
X-788685Y273625D01*
X-787520Y273402D01*
X-786368Y273104D01*
X-785763Y273065D01*
X-785561Y273026D01*
X-785355Y273039D01*
X-784750Y273000D01*
X-606813Y273000D01*
X-575188Y241376D01*
X-574638Y240948D01*
X-574152Y240447D01*
X-573385Y239977D01*
X-572675Y239426D01*
X-572035Y239148D01*
X-571440Y238784D01*
X-570580Y238518D01*
X-569756Y238162D01*
X-569068Y238052D01*
X-568400Y237847D01*
X-567502Y237803D01*
X-566614Y237663D01*
X-565919Y237728D01*
X-565223Y237694D01*
X-564343Y237876D01*
X-563447Y237960D01*
X-562790Y238196D01*
X-562107Y238336D01*
X-561299Y238731D01*
X-560453Y239035D01*
X-559875Y239427D01*
X-559249Y239733D01*
X-558565Y240315D01*
X-557820Y240821D01*
X-557358Y241343D01*
X-556828Y241796D01*
X-556309Y242530D01*
X-555714Y243204D01*
X-555397Y243825D01*
X-554994Y244395D01*
X-554675Y245237D01*
X-554266Y246037D01*
X-554113Y246717D01*
X-553865Y247369D01*
X-553765Y248263D01*
X-553567Y249140D01*
X-553588Y249838D01*
X-553510Y250531D01*
X-553635Y251420D01*
X-553662Y252320D01*
X-553820Y252869D01*
X-553825Y252946D01*
X-553868Y253077D01*
X-553952Y253681D01*
X-554476Y255215D01*
X-555675Y258111D01*
X-556508Y262299D01*
X-512701Y262299D01*
X-512701Y218491D01*
X-516889Y219324D01*
X-519784Y220524D01*
X-520458Y220708D01*
X-521097Y220985D01*
X-521984Y221126D01*
X-522853Y221364D01*
X-523551Y221375D01*
X-524239Y221484D01*
X-525133Y221400D01*
X-526033Y221414D01*
X-526712Y221252D01*
X-527406Y221187D01*
X-528252Y220883D01*
X-529127Y220673D01*
X-529743Y220348D01*
X-530400Y220112D01*
X-531146Y219606D01*
X-531939Y219186D01*
X-532455Y218718D01*
X-533033Y218326D01*
X-533629Y217651D01*
X-534294Y217047D01*
X-534677Y216465D01*
X-535139Y215942D01*
X-535548Y215141D01*
X-536043Y214390D01*
X-536270Y213730D01*
X-536587Y213110D01*
X-536784Y212233D01*
X-537077Y211382D01*
X-537133Y210686D01*
X-537286Y210006D01*
X-537259Y209108D01*
X-537331Y208211D01*
X-537212Y207524D01*
X-537191Y206827D01*
X-536942Y205962D01*
X-536788Y205076D01*
X-536502Y204440D01*
X-536309Y203770D01*
X-535853Y202997D01*
X-535484Y202175D01*
X-535048Y201628D01*
X-534695Y201029D01*
X-533624Y199812D01*
X-467532Y133720D01*
X-466755Y133117D01*
X-466035Y132439D01*
X-465500Y132143D01*
X-465019Y131770D01*
X-464116Y131379D01*
X-463250Y130901D01*
X-462658Y130748D01*
X-462100Y130506D01*
X-461127Y130352D01*
X-460170Y130104D01*
X-459162Y130039D01*
X-458958Y130007D01*
X-458835Y130018D01*
X-458553Y130000D01*
X-271415Y130000D01*
X-271124Y130037D01*
X-270833Y130014D01*
X-269552Y130235D01*
X-268259Y130399D01*
X-267987Y130507D01*
X-267699Y130556D01*
X-266512Y131090D01*
X-265301Y131569D01*
X-265064Y131741D01*
X-264798Y131861D01*
X-263780Y132673D01*
X-262726Y133438D01*
X-262540Y133663D01*
X-262311Y133845D01*
X-261528Y134885D01*
X-260697Y135888D01*
X-260572Y136152D01*
X-260396Y136385D01*
X-260258Y136667D01*
X-241820Y155104D01*
X-217929Y165000D01*
X-192071Y165000D01*
X-182720Y161127D01*
X-181376Y160759D01*
X-180052Y160351D01*
X-179849Y160341D01*
X-179651Y160287D01*
X-178258Y160265D01*
X-176874Y160199D01*
X-176675Y160240D01*
X-176471Y160237D01*
X-175119Y160560D01*
X-173759Y160841D01*
X-173575Y160930D01*
X-173377Y160978D01*
X-172151Y161626D01*
X-170900Y162237D01*
X-170744Y162370D01*
X-170565Y162465D01*
X-169540Y163396D01*
X-168479Y164300D01*
X-168361Y164467D01*
X-168210Y164604D01*
X-167450Y165759D01*
X-166646Y166900D01*
X-166573Y167092D01*
X-166461Y167261D01*
X-166011Y168571D01*
X-165516Y169874D01*
X-165493Y170077D01*
X-165427Y170269D01*
X-165316Y171658D01*
X-165162Y173035D01*
X-165190Y173236D01*
X-165173Y173440D01*
X-165411Y174811D01*
X-165603Y176185D01*
X-165695Y176454D01*
X-165716Y176575D01*
X-165800Y176763D01*
X-166127Y177720D01*
X-170000Y187071D01*
X-170000Y212929D01*
X-160104Y236820D01*
X-141820Y255104D01*
X-117929Y265000D01*
X-92071Y265000D01*
X-68179Y255104D01*
X-49895Y236820D01*
X-39999Y212929D01*
X-39999Y187071D01*
X-49895Y163179D01*
X-68179Y144895D01*
X-92071Y134999D01*
X-117929Y134999D01*
X-127280Y138873D01*
X-128624Y139241D01*
X-129948Y139649D01*
X-130151Y139658D01*
X-130348Y139713D01*
X-131742Y139735D01*
X-133125Y139801D01*
X-133325Y139760D01*
X-133529Y139763D01*
X-134880Y139439D01*
X-136241Y139159D01*
X-136425Y139069D01*
X-136623Y139022D01*
X-137848Y138374D01*
X-139099Y137763D01*
X-139255Y137630D01*
X-139435Y137535D01*
X-140460Y136604D01*
X-141521Y135700D01*
X-141639Y135533D01*
X-141789Y135396D01*
X-142550Y134241D01*
X-143354Y133100D01*
X-143427Y132908D01*
X-143538Y132739D01*
X-143989Y131428D01*
X-144483Y130126D01*
X-144506Y129923D01*
X-144573Y129730D01*
X-144684Y128342D01*
X-144838Y126965D01*
X-144810Y126763D01*
X-144826Y126559D01*
X-144589Y125189D01*
X-144396Y123814D01*
X-144305Y123546D01*
X-144284Y123425D01*
X-144199Y123237D01*
X-143873Y122280D01*
X-139999Y112929D01*
X-139999Y87071D01*
X-149895Y63179D01*
X-168179Y44895D01*
X-192071Y34999D01*
X-217929Y34999D01*
G37*
%LPD*%
%LPC*%
G36*
X-920398Y-875550D02*
X-920398Y-875550D01*
X-958091Y-859938D01*
X-986938Y-831091D01*
X-1002550Y-793398D01*
X-1002550Y-752601D01*
X-986938Y-714909D01*
X-958091Y-686062D01*
X-920398Y-670449D01*
X-879601Y-670449D01*
X-841909Y-686062D01*
X-813062Y-714909D01*
X-804674Y-735160D01*
X-804529Y-735414D01*
X-804439Y-735691D01*
X-803743Y-736792D01*
X-803098Y-737923D01*
X-802896Y-738132D01*
X-802739Y-738380D01*
X-801789Y-739274D01*
X-800885Y-740208D01*
X-800636Y-740361D01*
X-800424Y-740561D01*
X-799284Y-741190D01*
X-798173Y-741872D01*
X-797894Y-741958D01*
X-797639Y-742099D01*
X-796378Y-742425D01*
X-795133Y-742809D01*
X-794842Y-742823D01*
X-794559Y-742896D01*
X-792941Y-742999D01*
X-403480Y-742999D01*
X-402503Y-742876D01*
X-401515Y-742847D01*
X-400928Y-742677D01*
X-400324Y-742601D01*
X-399408Y-742239D01*
X-398459Y-741965D01*
X-397932Y-741655D01*
X-397366Y-741431D01*
X-396568Y-740852D01*
X-395718Y-740351D01*
X-394960Y-739684D01*
X-394792Y-739562D01*
X-394712Y-739466D01*
X-394500Y-739280D01*
X-387617Y-732396D01*
X-387013Y-731618D01*
X-386335Y-730899D01*
X-386040Y-730364D01*
X-385667Y-729883D01*
X-385275Y-728978D01*
X-384798Y-728114D01*
X-384644Y-727522D01*
X-384403Y-726963D01*
X-384248Y-725991D01*
X-384000Y-725034D01*
X-383936Y-724026D01*
X-383903Y-723822D01*
X-383915Y-723699D01*
X-383897Y-723416D01*
X-383897Y-708160D01*
X-375904Y-688864D01*
X-361136Y-674096D01*
X-341839Y-666103D01*
X-320953Y-666103D01*
X-301657Y-674096D01*
X-286889Y-688864D01*
X-278896Y-708160D01*
X-278896Y-729046D01*
X-286889Y-748343D01*
X-301657Y-763111D01*
X-320953Y-771104D01*
X-336209Y-771104D01*
X-337187Y-771227D01*
X-338174Y-771257D01*
X-338761Y-771426D01*
X-339365Y-771502D01*
X-340281Y-771864D01*
X-341231Y-772138D01*
X-341757Y-772448D01*
X-342323Y-772673D01*
X-343121Y-773252D01*
X-343972Y-773753D01*
X-344729Y-774419D01*
X-344898Y-774541D01*
X-344977Y-774637D01*
X-345189Y-774823D01*
X-373366Y-803000D01*
X-792941Y-803000D01*
X-793232Y-803037D01*
X-793522Y-803014D01*
X-794803Y-803235D01*
X-796097Y-803399D01*
X-796369Y-803506D01*
X-796657Y-803556D01*
X-797845Y-804090D01*
X-799055Y-804569D01*
X-799292Y-804741D01*
X-799558Y-804860D01*
X-800576Y-805673D01*
X-801630Y-806438D01*
X-801816Y-806663D01*
X-802044Y-806845D01*
X-802828Y-807884D01*
X-803659Y-808888D01*
X-803783Y-809152D01*
X-803959Y-809385D01*
X-804674Y-810840D01*
X-813062Y-831091D01*
X-841909Y-859938D01*
X-879601Y-875550D01*
X-920398Y-875550D01*
G37*
%LPD*%
%LPC*%
G36*
X-920398Y-367550D02*
X-920398Y-367550D01*
X-958091Y-351938D01*
X-986938Y-323091D01*
X-1002550Y-285398D01*
X-1002550Y-244601D01*
X-986938Y-206909D01*
X-958091Y-178062D01*
X-920398Y-162449D01*
X-879601Y-162449D01*
X-841909Y-178062D01*
X-813062Y-206909D01*
X-797449Y-244601D01*
X-797449Y-285398D01*
X-813062Y-323091D01*
X-841909Y-351938D01*
X-879601Y-367550D01*
X-920398Y-367550D01*
G37*
%LPD*%
%LPC*%
G36*
X-920398Y-1637550D02*
X-920398Y-1637550D01*
X-958091Y-1621938D01*
X-986938Y-1593091D01*
X-1002550Y-1555398D01*
X-1002550Y-1514601D01*
X-986938Y-1476909D01*
X-958091Y-1448062D01*
X-920398Y-1432449D01*
X-879601Y-1432449D01*
X-841909Y-1448062D01*
X-813062Y-1476909D01*
X-797449Y-1514601D01*
X-797449Y-1555398D01*
X-813062Y-1593091D01*
X-841909Y-1621938D01*
X-879601Y-1637550D01*
X-920398Y-1637550D01*
G37*
%LPD*%
%LPC*%
G36*
X-920398Y-1891550D02*
X-920398Y-1891550D01*
X-958091Y-1875938D01*
X-986938Y-1847091D01*
X-1002550Y-1809398D01*
X-1002550Y-1768601D01*
X-986938Y-1730909D01*
X-958091Y-1702062D01*
X-920398Y-1686449D01*
X-879601Y-1686449D01*
X-841909Y-1702062D01*
X-813062Y-1730909D01*
X-797449Y-1768601D01*
X-797449Y-1809398D01*
X-813062Y-1847091D01*
X-841909Y-1875938D01*
X-879601Y-1891550D01*
X-920398Y-1891550D01*
G37*
%LPD*%
%LPC*%
G36*
X-920398Y-2145550D02*
X-920398Y-2145550D01*
X-958091Y-2129938D01*
X-986938Y-2101091D01*
X-1002550Y-2063398D01*
X-1002550Y-2022601D01*
X-986938Y-1984909D01*
X-958091Y-1956062D01*
X-920398Y-1940449D01*
X-879601Y-1940449D01*
X-841909Y-1956062D01*
X-813062Y-1984909D01*
X-797449Y-2022601D01*
X-797449Y-2063398D01*
X-813062Y-2101091D01*
X-841909Y-2129938D01*
X-879601Y-2145550D01*
X-920398Y-2145550D01*
G37*
%LPD*%
%LPC*%
G36*
X-920398Y-113550D02*
X-920398Y-113550D01*
X-958091Y-97938D01*
X-986938Y-69091D01*
X-1002550Y-31398D01*
X-1002550Y9398D01*
X-986938Y47091D01*
X-958091Y75938D01*
X-920398Y91550D01*
X-879601Y91550D01*
X-841909Y75938D01*
X-813062Y47091D01*
X-797449Y9398D01*
X-797449Y-31398D01*
X-813062Y-69091D01*
X-841909Y-97938D01*
X-879601Y-113550D01*
X-920398Y-113550D01*
G37*
%LPD*%
%LPC*%
G36*
X82071Y-265000D02*
X82071Y-265000D01*
X58179Y-255104D01*
X39895Y-236820D01*
X29999Y-212929D01*
X29999Y-187071D01*
X39895Y-163179D01*
X58179Y-144895D01*
X82071Y-134999D01*
X107929Y-134999D01*
X117280Y-138873D01*
X118624Y-139241D01*
X119948Y-139649D01*
X120151Y-139658D01*
X120348Y-139713D01*
X121742Y-139735D01*
X123125Y-139801D01*
X123325Y-139760D01*
X123529Y-139763D01*
X124880Y-139439D01*
X126241Y-139159D01*
X126425Y-139069D01*
X126623Y-139022D01*
X127848Y-138374D01*
X129099Y-137763D01*
X129255Y-137630D01*
X129435Y-137535D01*
X130460Y-136604D01*
X131521Y-135700D01*
X131639Y-135533D01*
X131789Y-135396D01*
X132550Y-134241D01*
X133354Y-133100D01*
X133427Y-132908D01*
X133538Y-132739D01*
X133989Y-131428D01*
X134483Y-130126D01*
X134506Y-129923D01*
X134573Y-129730D01*
X134684Y-128342D01*
X134838Y-126965D01*
X134810Y-126763D01*
X134826Y-126559D01*
X134589Y-125189D01*
X134396Y-123814D01*
X134305Y-123546D01*
X134284Y-123425D01*
X134199Y-123237D01*
X133873Y-122280D01*
X129999Y-112929D01*
X129999Y-87071D01*
X139895Y-63179D01*
X158179Y-44895D01*
X182071Y-34999D01*
X207929Y-34999D01*
X231820Y-44895D01*
X250104Y-63179D01*
X260000Y-87071D01*
X260000Y-112929D01*
X250104Y-136820D01*
X231820Y-155104D01*
X207929Y-165000D01*
X182071Y-165000D01*
X172720Y-161127D01*
X171376Y-160759D01*
X170052Y-160351D01*
X169849Y-160341D01*
X169651Y-160287D01*
X168258Y-160265D01*
X166874Y-160199D01*
X166675Y-160240D01*
X166471Y-160237D01*
X165119Y-160560D01*
X163759Y-160841D01*
X163575Y-160930D01*
X163377Y-160978D01*
X162151Y-161626D01*
X160900Y-162237D01*
X160744Y-162370D01*
X160565Y-162465D01*
X159540Y-163396D01*
X158479Y-164300D01*
X158361Y-164467D01*
X158210Y-164604D01*
X157450Y-165759D01*
X156646Y-166900D01*
X156573Y-167092D01*
X156461Y-167261D01*
X156011Y-168571D01*
X155516Y-169874D01*
X155493Y-170077D01*
X155427Y-170269D01*
X155316Y-171658D01*
X155162Y-173035D01*
X155190Y-173236D01*
X155173Y-173440D01*
X155411Y-174811D01*
X155603Y-176185D01*
X155695Y-176454D01*
X155716Y-176575D01*
X155800Y-176763D01*
X156127Y-177720D01*
X160000Y-187071D01*
X160000Y-212929D01*
X150104Y-236820D01*
X131820Y-255104D01*
X107929Y-265000D01*
X82071Y-265000D01*
G37*
%LPD*%
%LPC*%
G36*
X-556508Y287701D02*
X-556508Y287701D01*
X-555675Y291888D01*
X-551310Y302427D01*
X-544974Y311910D01*
X-536910Y319974D01*
X-527427Y326310D01*
X-516888Y330675D01*
X-512701Y331508D01*
X-512701Y287701D01*
X-556508Y287701D01*
G37*
%LPD*%
%LPC*%
G36*
X-416888Y-2055675D02*
X-416888Y-2055675D01*
X-427427Y-2051310D01*
X-436910Y-2044974D01*
X-444974Y-2036910D01*
X-451310Y-2027427D01*
X-455675Y-2016888D01*
X-456508Y-2012701D01*
X-412701Y-2012701D01*
X-412701Y-2056508D01*
X-416888Y-2055675D01*
G37*
%LPD*%
%LPC*%
G36*
X-487299Y287701D02*
X-487299Y287701D01*
X-487299Y331508D01*
X-483111Y330675D01*
X-472573Y326310D01*
X-463090Y319974D01*
X-455026Y311910D01*
X-448689Y302427D01*
X-444324Y291888D01*
X-443491Y287701D01*
X-487299Y287701D01*
G37*
%LPD*%
%LPC*%
G36*
X-456508Y-1987299D02*
X-456508Y-1987299D01*
X-455675Y-1983111D01*
X-451310Y-1972573D01*
X-444974Y-1963090D01*
X-436910Y-1955026D01*
X-427427Y-1948689D01*
X-416888Y-1944324D01*
X-412701Y-1943491D01*
X-412701Y-1987299D01*
X-456508Y-1987299D01*
G37*
%LPD*%
%LPC*%
G36*
X-387299Y-2012701D02*
X-387299Y-2012701D01*
X-343491Y-2012701D01*
X-344324Y-2016888D01*
X-348689Y-2027427D01*
X-355026Y-2036910D01*
X-363090Y-2044974D01*
X-372573Y-2051310D01*
X-383111Y-2055675D01*
X-387299Y-2056508D01*
X-387299Y-2012701D01*
G37*
%LPD*%
%LPC*%
G36*
X-487299Y262299D02*
X-487299Y262299D01*
X-443491Y262299D01*
X-444324Y258111D01*
X-448689Y247573D01*
X-455026Y238090D01*
X-463090Y230026D01*
X-472573Y223689D01*
X-483111Y219324D01*
X-487299Y218491D01*
X-487299Y262299D01*
G37*
%LPD*%
%LPC*%
G36*
X-387299Y-1987299D02*
X-387299Y-1987299D01*
X-387299Y-1943491D01*
X-383111Y-1944324D01*
X-372573Y-1948689D01*
X-363090Y-1955026D01*
X-355026Y-1963090D01*
X-348689Y-1972573D01*
X-344324Y-1983111D01*
X-343491Y-1987299D01*
X-387299Y-1987299D01*
G37*
%LPD*%
D10*
X-1025000Y400000D02*
X0Y400000D01*
X9665Y399883D01*
X19325Y399533D01*
X28974Y398949D01*
X38606Y398133D01*
X48215Y397084D01*
X57796Y395803D01*
X67343Y394290D01*
X76851Y392548D01*
X86314Y390576D01*
X95726Y388377D01*
X105083Y385950D01*
X114378Y383298D01*
X123607Y380423D01*
X132763Y377325D01*
X141842Y374006D01*
X150838Y370470D01*
X159746Y366717D01*
X168560Y362750D01*
X177277Y358571D01*
X185889Y354182D01*
X194393Y349587D01*
X202784Y344788D01*
X211056Y339787D01*
X219205Y334588D01*
X227226Y329194D01*
X235114Y323607D01*
X242865Y317831D01*
X250474Y311870D01*
X257937Y305726D01*
X265249Y299404D01*
X272406Y292907D01*
X279405Y286240D01*
X286240Y279405D01*
X292907Y272406D01*
X299404Y265249D01*
X305726Y257937D01*
X311870Y250474D01*
X317831Y242865D01*
X323607Y235114D01*
X329194Y227226D01*
X334588Y219205D01*
X339787Y211056D01*
X344788Y202784D01*
X349587Y194393D01*
X354182Y185889D01*
X358571Y177277D01*
X362750Y168560D01*
X366717Y159746D01*
X370470Y150838D01*
X374006Y141842D01*
X377325Y132763D01*
X380423Y123607D01*
X383298Y114378D01*
X385950Y105083D01*
X388377Y95726D01*
X390576Y86314D01*
X392548Y76851D01*
X394290Y67343D01*
X395803Y57796D01*
X397084Y48215D01*
X398133Y38606D01*
X398949Y28974D01*
X399533Y19325D01*
X399883Y9665D01*
X400000Y0D01*
X-1075000Y350000D02*
X-1075000Y-2150000D01*
X-1074985Y-2151208D01*
X-1074942Y-2152416D01*
X-1074869Y-2153622D01*
X-1074767Y-2154826D01*
X-1074635Y-2156027D01*
X-1074475Y-2157224D01*
X-1074286Y-2158418D01*
X-1074069Y-2159606D01*
X-1073822Y-2160789D01*
X-1073547Y-2161966D01*
X-1073244Y-2163135D01*
X-1072912Y-2164297D01*
X-1072553Y-2165451D01*
X-1072166Y-2166595D01*
X-1071751Y-2167730D01*
X-1071309Y-2168855D01*
X-1070840Y-2169968D01*
X-1070344Y-2171070D01*
X-1069821Y-2172160D01*
X-1069273Y-2173236D01*
X-1068698Y-2174299D01*
X-1068098Y-2175348D01*
X-1067473Y-2176382D01*
X-1066824Y-2177401D01*
X-1066149Y-2178403D01*
X-1065451Y-2179389D01*
X-1064729Y-2180358D01*
X-1063984Y-2181309D01*
X-1063216Y-2182242D01*
X-1062426Y-2183156D01*
X-1061613Y-2184051D01*
X-1060780Y-2184926D01*
X-1059926Y-2185780D01*
X-1059051Y-2186613D01*
X-1058156Y-2187426D01*
X-1057242Y-2188216D01*
X-1056309Y-2188984D01*
X-1055358Y-2189729D01*
X-1054389Y-2190451D01*
X-1053403Y-2191149D01*
X-1052401Y-2191824D01*
X-1051382Y-2192473D01*
X-1050348Y-2193098D01*
X-1049299Y-2193698D01*
X-1048236Y-2194273D01*
X-1047160Y-2194821D01*
X-1046070Y-2195344D01*
X-1044968Y-2195840D01*
X-1043855Y-2196309D01*
X-1042730Y-2196751D01*
X-1041595Y-2197166D01*
X-1040451Y-2197553D01*
X-1039297Y-2197912D01*
X-1038135Y-2198244D01*
X-1036966Y-2198547D01*
X-1035789Y-2198822D01*
X-1034606Y-2199069D01*
X-1033418Y-2199286D01*
X-1032224Y-2199475D01*
X-1031027Y-2199635D01*
X-1029826Y-2199767D01*
X-1028622Y-2199869D01*
X-1027416Y-2199942D01*
X-1026208Y-2199985D01*
X-1025000Y-2200000D01*
X-450000Y-2200000D01*
X-445167Y-2199942D01*
X-440337Y-2199766D01*
X-435513Y-2199475D01*
X-430697Y-2199066D01*
X-425893Y-2198542D01*
X-421102Y-2197901D01*
X-416329Y-2197145D01*
X-411575Y-2196274D01*
X-406843Y-2195288D01*
X-402137Y-2194188D01*
X-397459Y-2192975D01*
X-392811Y-2191649D01*
X-388197Y-2190211D01*
X-383618Y-2188662D01*
X-379079Y-2187003D01*
X-374581Y-2185235D01*
X-370127Y-2183358D01*
X-365720Y-2181375D01*
X-361362Y-2179285D01*
X-357055Y-2177091D01*
X-352803Y-2174794D01*
X-348608Y-2172394D01*
X-344472Y-2169894D01*
X-340397Y-2167294D01*
X-336387Y-2164597D01*
X-332443Y-2161803D01*
X-328567Y-2158916D01*
X-324763Y-2155935D01*
X-321032Y-2152863D01*
X-317375Y-2149702D01*
X-313797Y-2146454D01*
X-310298Y-2143120D01*
X-306880Y-2139702D01*
X-303546Y-2136203D01*
X-300298Y-2132625D01*
X-297137Y-2128968D01*
X-294065Y-2125237D01*
X-291084Y-2121433D01*
X-288197Y-2117557D01*
X-285403Y-2113613D01*
X-282706Y-2109603D01*
X-280106Y-2105528D01*
X-277606Y-2101392D01*
X-275206Y-2097197D01*
X-272909Y-2092945D01*
X-270715Y-2088638D01*
X-268625Y-2084280D01*
X-266642Y-2079873D01*
X-264765Y-2075419D01*
X-262997Y-2070921D01*
X-261338Y-2066382D01*
X-259789Y-2061803D01*
X-258351Y-2057189D01*
X-257025Y-2052541D01*
X-255812Y-2047863D01*
X-254712Y-2043157D01*
X-253726Y-2038425D01*
X-252855Y-2033671D01*
X-252099Y-2028898D01*
X-251458Y-2024107D01*
X-250934Y-2019303D01*
X-250525Y-2014487D01*
X-250234Y-2009663D01*
X-250058Y-2004833D01*
X-250000Y-2000000D01*
X-1075000Y350000D02*
X-1074985Y351208D01*
X-1074942Y352416D01*
X-1074869Y353622D01*
X-1074767Y354826D01*
X-1074635Y356027D01*
X-1074475Y357224D01*
X-1074286Y358418D01*
X-1074069Y359606D01*
X-1073822Y360789D01*
X-1073547Y361966D01*
X-1073244Y363135D01*
X-1072912Y364297D01*
X-1072553Y365451D01*
X-1072166Y366595D01*
X-1071751Y367730D01*
X-1071309Y368855D01*
X-1070840Y369968D01*
X-1070344Y371070D01*
X-1069821Y372160D01*
X-1069273Y373236D01*
X-1068698Y374299D01*
X-1068098Y375348D01*
X-1067473Y376382D01*
X-1066824Y377401D01*
X-1066149Y378403D01*
X-1065451Y379389D01*
X-1064729Y380358D01*
X-1063984Y381309D01*
X-1063216Y382242D01*
X-1062426Y383156D01*
X-1061613Y384051D01*
X-1060780Y384926D01*
X-1059926Y385780D01*
X-1059051Y386613D01*
X-1058156Y387426D01*
X-1057242Y388216D01*
X-1056309Y388984D01*
X-1055358Y389729D01*
X-1054389Y390451D01*
X-1053403Y391149D01*
X-1052401Y391824D01*
X-1051382Y392473D01*
X-1050348Y393098D01*
X-1049299Y393698D01*
X-1048236Y394273D01*
X-1047160Y394821D01*
X-1046070Y395344D01*
X-1044968Y395840D01*
X-1043855Y396309D01*
X-1042730Y396751D01*
X-1041595Y397166D01*
X-1040451Y397553D01*
X-1039297Y397912D01*
X-1038135Y398244D01*
X-1036966Y398547D01*
X-1035789Y398822D01*
X-1034606Y399069D01*
X-1033418Y399286D01*
X-1032224Y399475D01*
X-1031027Y399635D01*
X-1029826Y399767D01*
X-1028622Y399869D01*
X-1027416Y399942D01*
X-1026208Y399985D01*
X-1025000Y400000D01*
X0Y-400000D02*
X9665Y-399883D01*
X19325Y-399533D01*
X28974Y-398949D01*
X38606Y-398133D01*
X48215Y-397084D01*
X57796Y-395803D01*
X67343Y-394290D01*
X76851Y-392548D01*
X86314Y-390576D01*
X95726Y-388377D01*
X105083Y-385950D01*
X114378Y-383298D01*
X123607Y-380423D01*
X132763Y-377325D01*
X141842Y-374006D01*
X150838Y-370470D01*
X159746Y-366717D01*
X168560Y-362750D01*
X177277Y-358571D01*
X185889Y-354182D01*
X194393Y-349587D01*
X202784Y-344788D01*
X211056Y-339787D01*
X219205Y-334588D01*
X227226Y-329194D01*
X235114Y-323607D01*
X242865Y-317831D01*
X250474Y-311870D01*
X257937Y-305726D01*
X265249Y-299404D01*
X272406Y-292907D01*
X279405Y-286240D01*
X286240Y-279405D01*
X292907Y-272406D01*
X299404Y-265249D01*
X305726Y-257937D01*
X311870Y-250474D01*
X317831Y-242865D01*
X323607Y-235114D01*
X329194Y-227226D01*
X334588Y-219205D01*
X339787Y-211056D01*
X344788Y-202784D01*
X349587Y-194393D01*
X354182Y-185889D01*
X358571Y-177277D01*
X362750Y-168560D01*
X366717Y-159746D01*
X370470Y-150838D01*
X374006Y-141842D01*
X377325Y-132763D01*
X380423Y-123607D01*
X383298Y-114378D01*
X385950Y-105083D01*
X388377Y-95726D01*
X390576Y-86314D01*
X392548Y-76851D01*
X394290Y-67343D01*
X395803Y-57796D01*
X397084Y-48215D01*
X398133Y-38606D01*
X398949Y-28974D01*
X399533Y-19325D01*
X399883Y-9665D01*
X400000Y0D01*
X-50000Y-450000D02*
X-50000Y-790000D01*
X-110000Y-850000D02*
X-150000Y-850000D01*
X-250000Y-950000D02*
X-250000Y-2000000D01*
X-110000Y-850000D02*
X-108550Y-849982D01*
X-107101Y-849930D01*
X-105654Y-849842D01*
X-104209Y-849720D01*
X-102768Y-849563D01*
X-101331Y-849370D01*
X-99899Y-849144D01*
X-98472Y-848882D01*
X-97053Y-848586D01*
X-95641Y-848257D01*
X-94238Y-847893D01*
X-92843Y-847495D01*
X-91459Y-847063D01*
X-90086Y-846599D01*
X-88724Y-846101D01*
X-87374Y-845570D01*
X-86038Y-845008D01*
X-84716Y-844412D01*
X-83409Y-843786D01*
X-82117Y-843127D01*
X-80841Y-842438D01*
X-79582Y-841718D01*
X-78342Y-840968D01*
X-77119Y-840188D01*
X-75916Y-839379D01*
X-74733Y-838541D01*
X-73570Y-837675D01*
X-72429Y-836780D01*
X-71309Y-835859D01*
X-70213Y-834911D01*
X-69139Y-833936D01*
X-68089Y-832936D01*
X-67064Y-831911D01*
X-66064Y-830861D01*
X-65089Y-829787D01*
X-64141Y-828691D01*
X-63220Y-827571D01*
X-62325Y-826430D01*
X-61459Y-825267D01*
X-60621Y-824084D01*
X-59812Y-822881D01*
X-59032Y-821658D01*
X-58282Y-820418D01*
X-57562Y-819159D01*
X-56873Y-817883D01*
X-56214Y-816591D01*
X-55588Y-815284D01*
X-54992Y-813962D01*
X-54430Y-812626D01*
X-53899Y-811276D01*
X-53401Y-809914D01*
X-52937Y-808541D01*
X-52505Y-807157D01*
X-52107Y-805762D01*
X-51743Y-804359D01*
X-51414Y-802947D01*
X-51118Y-801528D01*
X-50856Y-800101D01*
X-50630Y-798669D01*
X-50437Y-797232D01*
X-50280Y-795791D01*
X-50158Y-794346D01*
X-50070Y-792899D01*
X-50018Y-791450D01*
X-50000Y-790000D01*
X-150000Y-850000D02*
X-152416Y-850029D01*
X-154831Y-850117D01*
X-157243Y-850263D01*
X-159651Y-850467D01*
X-162054Y-850729D01*
X-164449Y-851049D01*
X-166836Y-851427D01*
X-169213Y-851863D01*
X-171578Y-852356D01*
X-173932Y-852906D01*
X-176271Y-853512D01*
X-178595Y-854175D01*
X-180902Y-854894D01*
X-183191Y-855669D01*
X-185460Y-856498D01*
X-187709Y-857383D01*
X-189936Y-858321D01*
X-192140Y-859313D01*
X-194319Y-860357D01*
X-196472Y-861454D01*
X-198598Y-862603D01*
X-200696Y-863803D01*
X-202764Y-865053D01*
X-204801Y-866353D01*
X-206806Y-867702D01*
X-208779Y-869098D01*
X-210716Y-870542D01*
X-212619Y-872033D01*
X-214484Y-873568D01*
X-216312Y-875149D01*
X-218102Y-876773D01*
X-219851Y-878440D01*
X-221560Y-880149D01*
X-223227Y-881898D01*
X-224851Y-883688D01*
X-226432Y-885516D01*
X-227967Y-887381D01*
X-229458Y-889284D01*
X-230902Y-891221D01*
X-232298Y-893194D01*
X-233647Y-895199D01*
X-234947Y-897236D01*
X-236197Y-899304D01*
X-237397Y-901402D01*
X-238546Y-903528D01*
X-239643Y-905681D01*
X-240687Y-907860D01*
X-241679Y-910064D01*
X-242617Y-912291D01*
X-243502Y-914540D01*
X-244331Y-916809D01*
X-245106Y-919098D01*
X-245825Y-921405D01*
X-246488Y-923729D01*
X-247094Y-926068D01*
X-247644Y-928422D01*
X-248137Y-930787D01*
X-248573Y-933164D01*
X-248951Y-935551D01*
X-249271Y-937946D01*
X-249533Y-940349D01*
X-249737Y-942757D01*
X-249883Y-945169D01*
X-249971Y-947584D01*
X-250000Y-950000D01*
X-50000Y-450000D02*
X-49985Y-448792D01*
X-49942Y-447584D01*
X-49869Y-446378D01*
X-49767Y-445174D01*
X-49635Y-443973D01*
X-49475Y-442776D01*
X-49286Y-441582D01*
X-49069Y-440394D01*
X-48822Y-439211D01*
X-48547Y-438034D01*
X-48244Y-436865D01*
X-47912Y-435703D01*
X-47553Y-434549D01*
X-47166Y-433405D01*
X-46751Y-432270D01*
X-46309Y-431145D01*
X-45840Y-430032D01*
X-45344Y-428930D01*
X-44821Y-427840D01*
X-44273Y-426764D01*
X-43698Y-425701D01*
X-43098Y-424652D01*
X-42473Y-423618D01*
X-41824Y-422599D01*
X-41149Y-421597D01*
X-40451Y-420611D01*
X-39729Y-419642D01*
X-38984Y-418691D01*
X-38216Y-417758D01*
X-37426Y-416844D01*
X-36613Y-415949D01*
X-35780Y-415074D01*
X-34926Y-414220D01*
X-34051Y-413387D01*
X-33156Y-412574D01*
X-32242Y-411784D01*
X-31309Y-411016D01*
X-30358Y-410271D01*
X-29389Y-409549D01*
X-28403Y-408851D01*
X-27401Y-408176D01*
X-26382Y-407527D01*
X-25348Y-406902D01*
X-24299Y-406302D01*
X-23236Y-405727D01*
X-22160Y-405179D01*
X-21070Y-404656D01*
X-19968Y-404160D01*
X-18855Y-403691D01*
X-17730Y-403249D01*
X-16595Y-402834D01*
X-15451Y-402447D01*
X-14297Y-402088D01*
X-13135Y-401756D01*
X-11966Y-401453D01*
X-10789Y-401178D01*
X-9606Y-400931D01*
X-8418Y-400714D01*
X-7224Y-400525D01*
X-6027Y-400365D01*
X-4826Y-400233D01*
X-3622Y-400131D01*
X-2416Y-400058D01*
X-1208Y-400015D01*
X0Y-400000D01*
D11*
X-5000Y-75000D03*
X-5000Y75000D03*
X-105000Y200000D03*
X95000Y200000D03*
X195000Y100000D03*
X195000Y-100000D03*
X-205000Y-100000D03*
X-205000Y100000D03*
X-105000Y-200000D03*
X95000Y-200000D03*
D12*
X-900000Y243000D03*
D13*
X-900000Y-11000D03*
X-900000Y-265000D03*
X-900000Y-519000D03*
X-900000Y-773000D03*
X-900000Y-1027000D03*
X-900000Y-1281000D03*
X-900000Y-1535000D03*
X-900000Y-1789000D03*
X-900000Y-2043000D03*
D14*
X-900000Y243000D02*
X-619240Y243000D01*
X-476240Y100000D01*
X-205000Y100000D01*
X-88033Y-86704D02*
X-192373Y-187545D01*
X95000Y0D02*
X195000Y100000D01*
X95000Y0D02*
X-36066Y0D01*
X-88033Y-51967D02*
X-88033Y-86704D01*
X-88033Y-51967D02*
X-36066Y0D01*
X-192373Y-187545D02*
X-523828Y-519000D01*
X-900000Y-519000D01*
D15*
X-331397Y-718603D03*
D14*
X-385793Y-773000D01*
X-900000Y-773000D01*
D15*
X-469000Y-1027000D03*
D14*
X-900000Y-1027000D01*
X-900000Y-1281000D02*
X-525362Y-1281000D01*
X-397181Y-1152819D01*
X-397181Y-997181D01*
X-105000Y-705000D02*
X-105000Y-200000D01*
X-105000Y-705000D02*
X-397181Y-997181D01*
D15*
X-400000Y-2000000D03*
X-500000Y275000D03*
M02*
