G75*
%MOIN*%
%OFA0B0*%
%FSLAX25Y25*%
%IPPOS*%
%LPD*%
%AMOC8*
5,1,8,0,0,1.08239X$1,22.5*
%
%ADD10C,0.00000*%
%ADD11C,0.00400*%
%ADD12C,0.00500*%
D10*
X0043854Y0005437D02*
X0043854Y0103862D01*
X0043853Y0103862D02*
X0043855Y0103948D01*
X0043860Y0104034D01*
X0043870Y0104119D01*
X0043883Y0104204D01*
X0043900Y0104288D01*
X0043920Y0104372D01*
X0043944Y0104454D01*
X0043972Y0104535D01*
X0044003Y0104616D01*
X0044037Y0104694D01*
X0044075Y0104771D01*
X0044117Y0104847D01*
X0044161Y0104920D01*
X0044209Y0104991D01*
X0044260Y0105061D01*
X0044314Y0105128D01*
X0044370Y0105192D01*
X0044430Y0105254D01*
X0044492Y0105314D01*
X0044556Y0105370D01*
X0044623Y0105424D01*
X0044693Y0105475D01*
X0044764Y0105523D01*
X0044838Y0105567D01*
X0044913Y0105609D01*
X0044990Y0105647D01*
X0045068Y0105681D01*
X0045149Y0105712D01*
X0045230Y0105740D01*
X0045312Y0105764D01*
X0045396Y0105784D01*
X0045480Y0105801D01*
X0045565Y0105814D01*
X0045650Y0105824D01*
X0045736Y0105829D01*
X0045822Y0105831D01*
X0086176Y0105831D01*
X0101924Y0090083D02*
X0101919Y0089702D01*
X0101906Y0089322D01*
X0101883Y0088942D01*
X0101850Y0088563D01*
X0101809Y0088185D01*
X0101759Y0087808D01*
X0101699Y0087432D01*
X0101631Y0087057D01*
X0101553Y0086685D01*
X0101466Y0086314D01*
X0101371Y0085946D01*
X0101266Y0085580D01*
X0101153Y0085217D01*
X0101031Y0084856D01*
X0100901Y0084499D01*
X0100761Y0084145D01*
X0100614Y0083794D01*
X0100457Y0083447D01*
X0100293Y0083104D01*
X0100120Y0082765D01*
X0099939Y0082430D01*
X0099750Y0082099D01*
X0099553Y0081774D01*
X0099349Y0081453D01*
X0099136Y0081137D01*
X0098916Y0080827D01*
X0098689Y0080521D01*
X0098454Y0080222D01*
X0098212Y0079928D01*
X0097964Y0079640D01*
X0097708Y0079358D01*
X0097445Y0079083D01*
X0097176Y0078814D01*
X0096901Y0078551D01*
X0096619Y0078295D01*
X0096331Y0078047D01*
X0096037Y0077805D01*
X0095738Y0077570D01*
X0095432Y0077343D01*
X0095122Y0077123D01*
X0094806Y0076910D01*
X0094485Y0076706D01*
X0094160Y0076509D01*
X0093829Y0076320D01*
X0093494Y0076139D01*
X0093155Y0075966D01*
X0092812Y0075802D01*
X0092465Y0075645D01*
X0092114Y0075498D01*
X0091760Y0075358D01*
X0091403Y0075228D01*
X0091042Y0075106D01*
X0090679Y0074993D01*
X0090313Y0074888D01*
X0089945Y0074793D01*
X0089574Y0074706D01*
X0089202Y0074628D01*
X0088827Y0074560D01*
X0088451Y0074500D01*
X0088074Y0074450D01*
X0087696Y0074409D01*
X0087317Y0074376D01*
X0086937Y0074353D01*
X0086557Y0074340D01*
X0086176Y0074335D01*
X0086090Y0074333D01*
X0086004Y0074328D01*
X0085919Y0074318D01*
X0085834Y0074305D01*
X0085750Y0074288D01*
X0085666Y0074268D01*
X0085584Y0074244D01*
X0085503Y0074216D01*
X0085422Y0074185D01*
X0085344Y0074151D01*
X0085267Y0074113D01*
X0085192Y0074071D01*
X0085118Y0074027D01*
X0085047Y0073979D01*
X0084977Y0073928D01*
X0084910Y0073874D01*
X0084846Y0073818D01*
X0084784Y0073758D01*
X0084724Y0073696D01*
X0084668Y0073632D01*
X0084614Y0073565D01*
X0084563Y0073495D01*
X0084515Y0073424D01*
X0084471Y0073351D01*
X0084429Y0073275D01*
X0084391Y0073198D01*
X0084357Y0073120D01*
X0084326Y0073039D01*
X0084298Y0072958D01*
X0084274Y0072876D01*
X0084254Y0072792D01*
X0084237Y0072708D01*
X0084224Y0072623D01*
X0084214Y0072538D01*
X0084209Y0072452D01*
X0084207Y0072366D01*
X0084208Y0072366D02*
X0084208Y0058587D01*
X0084206Y0058501D01*
X0084201Y0058415D01*
X0084191Y0058330D01*
X0084178Y0058245D01*
X0084161Y0058161D01*
X0084141Y0058077D01*
X0084117Y0057995D01*
X0084089Y0057914D01*
X0084058Y0057833D01*
X0084024Y0057755D01*
X0083986Y0057678D01*
X0083944Y0057603D01*
X0083900Y0057529D01*
X0083852Y0057458D01*
X0083801Y0057388D01*
X0083747Y0057321D01*
X0083691Y0057257D01*
X0083631Y0057195D01*
X0083569Y0057135D01*
X0083505Y0057079D01*
X0083438Y0057025D01*
X0083368Y0056974D01*
X0083297Y0056926D01*
X0083224Y0056882D01*
X0083148Y0056840D01*
X0083071Y0056802D01*
X0082993Y0056768D01*
X0082912Y0056737D01*
X0082831Y0056709D01*
X0082749Y0056685D01*
X0082665Y0056665D01*
X0082581Y0056648D01*
X0082496Y0056635D01*
X0082411Y0056625D01*
X0082325Y0056620D01*
X0082239Y0056618D01*
X0080271Y0056618D01*
X0080147Y0056616D01*
X0080024Y0056610D01*
X0079900Y0056601D01*
X0079778Y0056587D01*
X0079655Y0056570D01*
X0079533Y0056548D01*
X0079412Y0056523D01*
X0079292Y0056494D01*
X0079173Y0056462D01*
X0079054Y0056425D01*
X0078937Y0056385D01*
X0078822Y0056342D01*
X0078707Y0056294D01*
X0078595Y0056243D01*
X0078484Y0056189D01*
X0078374Y0056131D01*
X0078267Y0056070D01*
X0078161Y0056005D01*
X0078058Y0055937D01*
X0077957Y0055866D01*
X0077858Y0055792D01*
X0077761Y0055715D01*
X0077667Y0055634D01*
X0077576Y0055551D01*
X0077487Y0055465D01*
X0077401Y0055376D01*
X0077318Y0055285D01*
X0077237Y0055191D01*
X0077160Y0055094D01*
X0077086Y0054995D01*
X0077015Y0054894D01*
X0076947Y0054791D01*
X0076882Y0054685D01*
X0076821Y0054578D01*
X0076763Y0054468D01*
X0076709Y0054357D01*
X0076658Y0054245D01*
X0076610Y0054130D01*
X0076567Y0054015D01*
X0076527Y0053898D01*
X0076490Y0053779D01*
X0076458Y0053660D01*
X0076429Y0053540D01*
X0076404Y0053419D01*
X0076382Y0053297D01*
X0076365Y0053174D01*
X0076351Y0053052D01*
X0076342Y0052928D01*
X0076336Y0052805D01*
X0076334Y0052681D01*
X0076334Y0011343D01*
X0076332Y0011153D01*
X0076325Y0010963D01*
X0076313Y0010773D01*
X0076297Y0010583D01*
X0076277Y0010394D01*
X0076251Y0010205D01*
X0076222Y0010017D01*
X0076187Y0009830D01*
X0076148Y0009644D01*
X0076105Y0009459D01*
X0076057Y0009274D01*
X0076005Y0009091D01*
X0075949Y0008910D01*
X0075888Y0008730D01*
X0075822Y0008551D01*
X0075753Y0008374D01*
X0075679Y0008198D01*
X0075601Y0008025D01*
X0075518Y0007853D01*
X0075432Y0007684D01*
X0075342Y0007516D01*
X0075247Y0007351D01*
X0075149Y0007188D01*
X0075046Y0007028D01*
X0074940Y0006870D01*
X0074830Y0006715D01*
X0074717Y0006562D01*
X0074599Y0006412D01*
X0074478Y0006266D01*
X0074354Y0006122D01*
X0074226Y0005981D01*
X0074095Y0005843D01*
X0073960Y0005708D01*
X0073822Y0005577D01*
X0073681Y0005449D01*
X0073537Y0005325D01*
X0073391Y0005204D01*
X0073241Y0005086D01*
X0073088Y0004973D01*
X0072933Y0004863D01*
X0072775Y0004757D01*
X0072615Y0004654D01*
X0072452Y0004556D01*
X0072287Y0004461D01*
X0072119Y0004371D01*
X0071950Y0004285D01*
X0071778Y0004202D01*
X0071605Y0004124D01*
X0071429Y0004050D01*
X0071252Y0003981D01*
X0071073Y0003915D01*
X0070893Y0003854D01*
X0070712Y0003798D01*
X0070529Y0003746D01*
X0070344Y0003698D01*
X0070159Y0003655D01*
X0069973Y0003616D01*
X0069786Y0003581D01*
X0069598Y0003552D01*
X0069409Y0003526D01*
X0069220Y0003506D01*
X0069030Y0003490D01*
X0068840Y0003478D01*
X0068650Y0003471D01*
X0068460Y0003469D01*
X0045822Y0003469D01*
X0045822Y0003468D02*
X0045736Y0003470D01*
X0045650Y0003475D01*
X0045565Y0003485D01*
X0045480Y0003498D01*
X0045396Y0003515D01*
X0045312Y0003535D01*
X0045230Y0003559D01*
X0045149Y0003587D01*
X0045068Y0003618D01*
X0044990Y0003652D01*
X0044913Y0003690D01*
X0044838Y0003732D01*
X0044764Y0003776D01*
X0044693Y0003824D01*
X0044623Y0003875D01*
X0044556Y0003929D01*
X0044492Y0003985D01*
X0044430Y0004045D01*
X0044370Y0004107D01*
X0044314Y0004171D01*
X0044260Y0004238D01*
X0044209Y0004308D01*
X0044161Y0004379D01*
X0044117Y0004453D01*
X0044075Y0004528D01*
X0044037Y0004605D01*
X0044003Y0004683D01*
X0043972Y0004764D01*
X0043944Y0004845D01*
X0043920Y0004927D01*
X0043900Y0005011D01*
X0043883Y0005095D01*
X0043870Y0005180D01*
X0043860Y0005265D01*
X0043855Y0005351D01*
X0043853Y0005437D01*
X0101924Y0090083D02*
X0101919Y0090464D01*
X0101906Y0090844D01*
X0101883Y0091224D01*
X0101850Y0091603D01*
X0101809Y0091981D01*
X0101759Y0092358D01*
X0101699Y0092734D01*
X0101631Y0093109D01*
X0101553Y0093481D01*
X0101466Y0093852D01*
X0101371Y0094220D01*
X0101266Y0094586D01*
X0101153Y0094949D01*
X0101031Y0095310D01*
X0100901Y0095667D01*
X0100761Y0096021D01*
X0100614Y0096372D01*
X0100457Y0096719D01*
X0100293Y0097062D01*
X0100120Y0097401D01*
X0099939Y0097736D01*
X0099750Y0098067D01*
X0099553Y0098392D01*
X0099349Y0098713D01*
X0099136Y0099029D01*
X0098916Y0099339D01*
X0098689Y0099645D01*
X0098454Y0099944D01*
X0098212Y0100238D01*
X0097964Y0100526D01*
X0097708Y0100808D01*
X0097445Y0101083D01*
X0097176Y0101352D01*
X0096901Y0101615D01*
X0096619Y0101871D01*
X0096331Y0102119D01*
X0096037Y0102361D01*
X0095738Y0102596D01*
X0095432Y0102823D01*
X0095122Y0103043D01*
X0094806Y0103256D01*
X0094485Y0103460D01*
X0094160Y0103657D01*
X0093829Y0103846D01*
X0093494Y0104027D01*
X0093155Y0104200D01*
X0092812Y0104364D01*
X0092465Y0104521D01*
X0092114Y0104668D01*
X0091760Y0104808D01*
X0091403Y0104938D01*
X0091042Y0105060D01*
X0090679Y0105173D01*
X0090313Y0105278D01*
X0089945Y0105373D01*
X0089574Y0105460D01*
X0089202Y0105538D01*
X0088827Y0105606D01*
X0088451Y0105666D01*
X0088074Y0105716D01*
X0087696Y0105757D01*
X0087317Y0105790D01*
X0086937Y0105813D01*
X0086557Y0105826D01*
X0086176Y0105831D01*
D11*
X0072514Y0100792D02*
X0070781Y0100792D01*
X0071359Y0102525D02*
X0071359Y0098192D01*
X0071358Y0098192D02*
X0071360Y0098135D01*
X0071365Y0098079D01*
X0071375Y0098023D01*
X0071388Y0097968D01*
X0071404Y0097913D01*
X0071424Y0097860D01*
X0071447Y0097809D01*
X0071474Y0097758D01*
X0071504Y0097710D01*
X0071537Y0097664D01*
X0071573Y0097620D01*
X0071612Y0097579D01*
X0071653Y0097540D01*
X0071697Y0097504D01*
X0071743Y0097471D01*
X0071792Y0097441D01*
X0071842Y0097414D01*
X0071893Y0097391D01*
X0071946Y0097371D01*
X0072001Y0097355D01*
X0072056Y0097342D01*
X0072112Y0097332D01*
X0072168Y0097327D01*
X0072225Y0097325D01*
X0072514Y0097325D01*
X0068953Y0097325D02*
X0068953Y0099925D01*
X0068953Y0099347D02*
X0067653Y0099347D01*
X0068954Y0099925D02*
X0068952Y0099982D01*
X0068947Y0100038D01*
X0068937Y0100094D01*
X0068924Y0100149D01*
X0068908Y0100204D01*
X0068888Y0100257D01*
X0068865Y0100308D01*
X0068838Y0100359D01*
X0068808Y0100407D01*
X0068775Y0100453D01*
X0068739Y0100497D01*
X0068700Y0100538D01*
X0068659Y0100577D01*
X0068615Y0100613D01*
X0068569Y0100646D01*
X0068521Y0100676D01*
X0068470Y0100703D01*
X0068419Y0100726D01*
X0068366Y0100746D01*
X0068311Y0100762D01*
X0068256Y0100775D01*
X0068200Y0100785D01*
X0068144Y0100790D01*
X0068087Y0100792D01*
X0066931Y0100792D01*
X0067653Y0099347D02*
X0067591Y0099345D01*
X0067529Y0099339D01*
X0067467Y0099330D01*
X0067406Y0099316D01*
X0067347Y0099299D01*
X0067288Y0099279D01*
X0067230Y0099254D01*
X0067175Y0099227D01*
X0067121Y0099196D01*
X0067069Y0099161D01*
X0067019Y0099124D01*
X0066972Y0099083D01*
X0066927Y0099040D01*
X0066885Y0098994D01*
X0066846Y0098945D01*
X0066810Y0098894D01*
X0066777Y0098842D01*
X0066748Y0098787D01*
X0066722Y0098730D01*
X0066699Y0098672D01*
X0066681Y0098613D01*
X0066665Y0098552D01*
X0066654Y0098491D01*
X0066646Y0098429D01*
X0066642Y0098367D01*
X0066642Y0098305D01*
X0066646Y0098243D01*
X0066654Y0098181D01*
X0066665Y0098120D01*
X0066681Y0098059D01*
X0066699Y0098000D01*
X0066722Y0097942D01*
X0066748Y0097885D01*
X0066777Y0097831D01*
X0066810Y0097778D01*
X0066846Y0097727D01*
X0066885Y0097678D01*
X0066927Y0097632D01*
X0066972Y0097589D01*
X0067019Y0097548D01*
X0067069Y0097511D01*
X0067121Y0097476D01*
X0067175Y0097445D01*
X0067230Y0097418D01*
X0067288Y0097393D01*
X0067347Y0097373D01*
X0067406Y0097356D01*
X0067467Y0097342D01*
X0067529Y0097333D01*
X0067591Y0097327D01*
X0067653Y0097325D01*
X0068953Y0097325D01*
X0067004Y0092683D02*
X0063538Y0087483D01*
X0061706Y0087483D02*
X0060551Y0089794D01*
X0060262Y0089794D02*
X0058817Y0089794D01*
X0060262Y0089794D02*
X0060338Y0089796D01*
X0060413Y0089802D01*
X0060488Y0089812D01*
X0060562Y0089826D01*
X0060636Y0089843D01*
X0060708Y0089865D01*
X0060779Y0089890D01*
X0060849Y0089919D01*
X0060918Y0089951D01*
X0060984Y0089987D01*
X0061048Y0090027D01*
X0061111Y0090070D01*
X0061171Y0090116D01*
X0061228Y0090165D01*
X0061283Y0090217D01*
X0061335Y0090272D01*
X0061384Y0090329D01*
X0061430Y0090389D01*
X0061473Y0090452D01*
X0061513Y0090516D01*
X0061549Y0090582D01*
X0061581Y0090651D01*
X0061610Y0090721D01*
X0061635Y0090792D01*
X0061657Y0090864D01*
X0061674Y0090938D01*
X0061688Y0091012D01*
X0061698Y0091087D01*
X0061704Y0091162D01*
X0061706Y0091238D01*
X0061704Y0091314D01*
X0061698Y0091389D01*
X0061688Y0091464D01*
X0061674Y0091538D01*
X0061657Y0091612D01*
X0061635Y0091684D01*
X0061610Y0091755D01*
X0061581Y0091825D01*
X0061549Y0091894D01*
X0061513Y0091960D01*
X0061473Y0092024D01*
X0061430Y0092087D01*
X0061384Y0092147D01*
X0061335Y0092204D01*
X0061283Y0092259D01*
X0061228Y0092311D01*
X0061171Y0092360D01*
X0061111Y0092406D01*
X0061048Y0092449D01*
X0060984Y0092489D01*
X0060918Y0092525D01*
X0060849Y0092557D01*
X0060779Y0092586D01*
X0060708Y0092611D01*
X0060636Y0092633D01*
X0060562Y0092650D01*
X0060488Y0092664D01*
X0060413Y0092674D01*
X0060338Y0092680D01*
X0060262Y0092682D01*
X0060262Y0092683D02*
X0058817Y0092683D01*
X0058817Y0087483D01*
X0058817Y0082840D02*
X0059973Y0082840D01*
X0059395Y0082840D02*
X0059395Y0077640D01*
X0058817Y0077640D02*
X0059973Y0077640D01*
X0061983Y0079085D02*
X0061983Y0081396D01*
X0061985Y0081472D01*
X0061991Y0081547D01*
X0062001Y0081622D01*
X0062015Y0081696D01*
X0062032Y0081770D01*
X0062054Y0081842D01*
X0062079Y0081913D01*
X0062108Y0081983D01*
X0062140Y0082052D01*
X0062176Y0082118D01*
X0062216Y0082182D01*
X0062259Y0082245D01*
X0062305Y0082305D01*
X0062354Y0082362D01*
X0062406Y0082417D01*
X0062461Y0082469D01*
X0062518Y0082518D01*
X0062578Y0082564D01*
X0062641Y0082607D01*
X0062705Y0082647D01*
X0062771Y0082683D01*
X0062840Y0082715D01*
X0062910Y0082744D01*
X0062981Y0082769D01*
X0063053Y0082791D01*
X0063127Y0082808D01*
X0063201Y0082822D01*
X0063276Y0082832D01*
X0063351Y0082838D01*
X0063427Y0082840D01*
X0063503Y0082838D01*
X0063578Y0082832D01*
X0063653Y0082822D01*
X0063727Y0082808D01*
X0063801Y0082791D01*
X0063873Y0082769D01*
X0063944Y0082744D01*
X0064014Y0082715D01*
X0064083Y0082683D01*
X0064149Y0082647D01*
X0064213Y0082607D01*
X0064276Y0082564D01*
X0064336Y0082518D01*
X0064393Y0082469D01*
X0064448Y0082417D01*
X0064500Y0082362D01*
X0064549Y0082305D01*
X0064595Y0082245D01*
X0064638Y0082182D01*
X0064678Y0082118D01*
X0064714Y0082052D01*
X0064746Y0081983D01*
X0064775Y0081913D01*
X0064800Y0081842D01*
X0064822Y0081770D01*
X0064839Y0081696D01*
X0064853Y0081622D01*
X0064863Y0081547D01*
X0064869Y0081472D01*
X0064871Y0081396D01*
X0064872Y0081396D02*
X0064872Y0079085D01*
X0064871Y0079085D02*
X0064869Y0079009D01*
X0064863Y0078934D01*
X0064853Y0078859D01*
X0064839Y0078785D01*
X0064822Y0078711D01*
X0064800Y0078639D01*
X0064775Y0078568D01*
X0064746Y0078498D01*
X0064714Y0078429D01*
X0064678Y0078363D01*
X0064638Y0078299D01*
X0064595Y0078236D01*
X0064549Y0078176D01*
X0064500Y0078119D01*
X0064448Y0078064D01*
X0064393Y0078012D01*
X0064336Y0077963D01*
X0064276Y0077917D01*
X0064213Y0077874D01*
X0064149Y0077834D01*
X0064083Y0077798D01*
X0064014Y0077766D01*
X0063944Y0077737D01*
X0063873Y0077712D01*
X0063801Y0077690D01*
X0063727Y0077673D01*
X0063653Y0077659D01*
X0063578Y0077649D01*
X0063503Y0077643D01*
X0063427Y0077641D01*
X0063351Y0077643D01*
X0063276Y0077649D01*
X0063201Y0077659D01*
X0063127Y0077673D01*
X0063053Y0077690D01*
X0062981Y0077712D01*
X0062910Y0077737D01*
X0062840Y0077766D01*
X0062771Y0077798D01*
X0062705Y0077834D01*
X0062641Y0077874D01*
X0062578Y0077917D01*
X0062518Y0077963D01*
X0062461Y0078012D01*
X0062406Y0078064D01*
X0062354Y0078119D01*
X0062305Y0078176D01*
X0062259Y0078236D01*
X0062216Y0078299D01*
X0062176Y0078363D01*
X0062140Y0078429D01*
X0062108Y0078498D01*
X0062079Y0078568D01*
X0062054Y0078639D01*
X0062032Y0078711D01*
X0062015Y0078785D01*
X0062001Y0078859D01*
X0061991Y0078934D01*
X0061985Y0079009D01*
X0061983Y0079085D01*
X0065013Y0072998D02*
X0066746Y0072998D01*
X0066746Y0070687D02*
X0065880Y0070687D01*
X0066746Y0070687D02*
X0066746Y0067798D01*
X0065013Y0067798D01*
X0065013Y0067797D02*
X0064946Y0067799D01*
X0064879Y0067805D01*
X0064812Y0067815D01*
X0064746Y0067828D01*
X0064681Y0067846D01*
X0064618Y0067867D01*
X0064555Y0067892D01*
X0064494Y0067920D01*
X0064435Y0067952D01*
X0064378Y0067987D01*
X0064323Y0068026D01*
X0064270Y0068067D01*
X0064220Y0068112D01*
X0064172Y0068160D01*
X0064127Y0068210D01*
X0064086Y0068263D01*
X0064047Y0068318D01*
X0064012Y0068375D01*
X0063980Y0068434D01*
X0063952Y0068495D01*
X0063927Y0068558D01*
X0063906Y0068621D01*
X0063888Y0068686D01*
X0063875Y0068752D01*
X0063865Y0068819D01*
X0063859Y0068886D01*
X0063857Y0068953D01*
X0063857Y0071842D01*
X0063859Y0071909D01*
X0063865Y0071976D01*
X0063875Y0072043D01*
X0063888Y0072109D01*
X0063906Y0072174D01*
X0063927Y0072237D01*
X0063952Y0072300D01*
X0063980Y0072361D01*
X0064012Y0072420D01*
X0064047Y0072477D01*
X0064086Y0072532D01*
X0064127Y0072585D01*
X0064172Y0072635D01*
X0064220Y0072683D01*
X0064270Y0072728D01*
X0064323Y0072769D01*
X0064378Y0072808D01*
X0064435Y0072843D01*
X0064494Y0072875D01*
X0064555Y0072903D01*
X0064618Y0072928D01*
X0064681Y0072949D01*
X0064746Y0072967D01*
X0064812Y0072980D01*
X0064879Y0072990D01*
X0064946Y0072996D01*
X0065013Y0072998D01*
X0061129Y0069964D02*
X0059540Y0070831D01*
X0060117Y0072998D02*
X0060204Y0072996D01*
X0060291Y0072991D01*
X0060378Y0072982D01*
X0060464Y0072970D01*
X0060550Y0072954D01*
X0060635Y0072935D01*
X0060719Y0072913D01*
X0060802Y0072887D01*
X0060884Y0072858D01*
X0060965Y0072825D01*
X0061045Y0072789D01*
X0061123Y0072750D01*
X0061199Y0072708D01*
X0061274Y0072663D01*
X0061346Y0072615D01*
X0061417Y0072565D01*
X0059539Y0070831D02*
X0059482Y0070867D01*
X0059426Y0070906D01*
X0059374Y0070948D01*
X0059323Y0070994D01*
X0059276Y0071042D01*
X0059231Y0071093D01*
X0059190Y0071146D01*
X0059151Y0071202D01*
X0059116Y0071260D01*
X0059084Y0071319D01*
X0059055Y0071381D01*
X0059031Y0071444D01*
X0059009Y0071508D01*
X0058992Y0071574D01*
X0058979Y0071640D01*
X0058969Y0071707D01*
X0058963Y0071774D01*
X0058961Y0071842D01*
X0058963Y0071909D01*
X0058969Y0071976D01*
X0058979Y0072043D01*
X0058992Y0072109D01*
X0059010Y0072174D01*
X0059031Y0072237D01*
X0059056Y0072300D01*
X0059084Y0072361D01*
X0059116Y0072420D01*
X0059151Y0072477D01*
X0059190Y0072532D01*
X0059231Y0072585D01*
X0059276Y0072635D01*
X0059324Y0072683D01*
X0059374Y0072728D01*
X0059427Y0072769D01*
X0059482Y0072808D01*
X0059539Y0072843D01*
X0059598Y0072875D01*
X0059659Y0072903D01*
X0059722Y0072928D01*
X0059785Y0072949D01*
X0059850Y0072967D01*
X0059916Y0072980D01*
X0059983Y0072990D01*
X0060050Y0072996D01*
X0060117Y0072998D01*
X0058818Y0068520D02*
X0058887Y0068453D01*
X0058959Y0068389D01*
X0059033Y0068327D01*
X0059110Y0068269D01*
X0059188Y0068214D01*
X0059269Y0068161D01*
X0059352Y0068112D01*
X0059437Y0068067D01*
X0059524Y0068025D01*
X0059612Y0067986D01*
X0059702Y0067950D01*
X0059793Y0067919D01*
X0059885Y0067891D01*
X0059978Y0067866D01*
X0060072Y0067845D01*
X0060167Y0067828D01*
X0060263Y0067815D01*
X0060358Y0067806D01*
X0060455Y0067800D01*
X0060551Y0067798D01*
X0060551Y0067797D02*
X0060618Y0067799D01*
X0060685Y0067805D01*
X0060752Y0067815D01*
X0060818Y0067828D01*
X0060883Y0067846D01*
X0060946Y0067867D01*
X0061009Y0067892D01*
X0061070Y0067920D01*
X0061129Y0067952D01*
X0061186Y0067987D01*
X0061241Y0068026D01*
X0061294Y0068067D01*
X0061344Y0068112D01*
X0061392Y0068160D01*
X0061437Y0068210D01*
X0061478Y0068263D01*
X0061517Y0068318D01*
X0061552Y0068375D01*
X0061584Y0068434D01*
X0061612Y0068495D01*
X0061637Y0068558D01*
X0061658Y0068621D01*
X0061676Y0068686D01*
X0061689Y0068752D01*
X0061699Y0068819D01*
X0061705Y0068886D01*
X0061707Y0068953D01*
X0061705Y0069021D01*
X0061699Y0069088D01*
X0061689Y0069155D01*
X0061676Y0069221D01*
X0061659Y0069287D01*
X0061637Y0069351D01*
X0061613Y0069414D01*
X0061584Y0069476D01*
X0061552Y0069535D01*
X0061517Y0069593D01*
X0061478Y0069649D01*
X0061437Y0069702D01*
X0061392Y0069753D01*
X0061345Y0069801D01*
X0061294Y0069847D01*
X0061242Y0069889D01*
X0061186Y0069928D01*
X0061129Y0069964D01*
X0060262Y0063155D02*
X0058817Y0063155D01*
X0058817Y0057955D01*
X0058817Y0060266D02*
X0060262Y0060266D01*
X0060262Y0060267D02*
X0060338Y0060269D01*
X0060413Y0060275D01*
X0060488Y0060285D01*
X0060562Y0060299D01*
X0060636Y0060316D01*
X0060708Y0060338D01*
X0060779Y0060363D01*
X0060849Y0060392D01*
X0060918Y0060424D01*
X0060984Y0060460D01*
X0061048Y0060500D01*
X0061111Y0060543D01*
X0061171Y0060589D01*
X0061228Y0060638D01*
X0061283Y0060690D01*
X0061335Y0060745D01*
X0061384Y0060802D01*
X0061430Y0060862D01*
X0061473Y0060925D01*
X0061513Y0060989D01*
X0061549Y0061055D01*
X0061581Y0061124D01*
X0061610Y0061194D01*
X0061635Y0061265D01*
X0061657Y0061337D01*
X0061674Y0061411D01*
X0061688Y0061485D01*
X0061698Y0061560D01*
X0061704Y0061635D01*
X0061706Y0061711D01*
X0061704Y0061787D01*
X0061698Y0061862D01*
X0061688Y0061937D01*
X0061674Y0062011D01*
X0061657Y0062085D01*
X0061635Y0062157D01*
X0061610Y0062228D01*
X0061581Y0062298D01*
X0061549Y0062367D01*
X0061513Y0062433D01*
X0061473Y0062497D01*
X0061430Y0062560D01*
X0061384Y0062620D01*
X0061335Y0062677D01*
X0061283Y0062732D01*
X0061228Y0062784D01*
X0061171Y0062833D01*
X0061111Y0062879D01*
X0061048Y0062922D01*
X0060984Y0062962D01*
X0060918Y0062998D01*
X0060849Y0063030D01*
X0060779Y0063059D01*
X0060708Y0063084D01*
X0060636Y0063106D01*
X0060562Y0063123D01*
X0060488Y0063137D01*
X0060413Y0063147D01*
X0060338Y0063153D01*
X0060262Y0063155D01*
X0063787Y0062000D02*
X0063787Y0059111D01*
X0063786Y0059111D02*
X0063788Y0059044D01*
X0063794Y0058977D01*
X0063804Y0058910D01*
X0063817Y0058844D01*
X0063835Y0058779D01*
X0063856Y0058716D01*
X0063881Y0058653D01*
X0063909Y0058592D01*
X0063941Y0058533D01*
X0063976Y0058476D01*
X0064015Y0058421D01*
X0064056Y0058368D01*
X0064101Y0058318D01*
X0064149Y0058270D01*
X0064199Y0058225D01*
X0064252Y0058184D01*
X0064307Y0058145D01*
X0064364Y0058110D01*
X0064423Y0058078D01*
X0064484Y0058050D01*
X0064547Y0058025D01*
X0064610Y0058004D01*
X0064675Y0057986D01*
X0064741Y0057973D01*
X0064808Y0057963D01*
X0064875Y0057957D01*
X0064942Y0057955D01*
X0066676Y0057955D01*
X0066676Y0060844D01*
X0065809Y0060844D01*
X0063786Y0062000D02*
X0063788Y0062067D01*
X0063794Y0062134D01*
X0063804Y0062201D01*
X0063817Y0062267D01*
X0063835Y0062332D01*
X0063856Y0062395D01*
X0063881Y0062458D01*
X0063909Y0062519D01*
X0063941Y0062578D01*
X0063976Y0062635D01*
X0064015Y0062690D01*
X0064056Y0062743D01*
X0064101Y0062793D01*
X0064149Y0062841D01*
X0064199Y0062886D01*
X0064252Y0062927D01*
X0064307Y0062966D01*
X0064364Y0063001D01*
X0064423Y0063033D01*
X0064484Y0063061D01*
X0064547Y0063086D01*
X0064610Y0063107D01*
X0064675Y0063125D01*
X0064741Y0063138D01*
X0064808Y0063148D01*
X0064875Y0063154D01*
X0064942Y0063156D01*
X0064942Y0063155D02*
X0066676Y0063155D01*
X0069163Y0063155D02*
X0072052Y0057955D01*
X0072052Y0063155D01*
X0074539Y0063155D02*
X0075983Y0063155D01*
X0076059Y0063153D01*
X0076134Y0063147D01*
X0076209Y0063137D01*
X0076283Y0063123D01*
X0076357Y0063106D01*
X0076429Y0063084D01*
X0076500Y0063059D01*
X0076570Y0063030D01*
X0076639Y0062998D01*
X0076705Y0062962D01*
X0076769Y0062922D01*
X0076832Y0062879D01*
X0076892Y0062833D01*
X0076949Y0062784D01*
X0077004Y0062732D01*
X0077056Y0062677D01*
X0077105Y0062620D01*
X0077151Y0062560D01*
X0077194Y0062497D01*
X0077234Y0062433D01*
X0077270Y0062367D01*
X0077302Y0062298D01*
X0077331Y0062228D01*
X0077356Y0062157D01*
X0077378Y0062085D01*
X0077395Y0062011D01*
X0077409Y0061937D01*
X0077419Y0061862D01*
X0077425Y0061787D01*
X0077427Y0061711D01*
X0077428Y0061711D02*
X0077428Y0059400D01*
X0077427Y0059400D02*
X0077425Y0059324D01*
X0077419Y0059249D01*
X0077409Y0059174D01*
X0077395Y0059100D01*
X0077378Y0059026D01*
X0077356Y0058954D01*
X0077331Y0058883D01*
X0077302Y0058813D01*
X0077270Y0058744D01*
X0077234Y0058678D01*
X0077194Y0058614D01*
X0077151Y0058551D01*
X0077105Y0058491D01*
X0077056Y0058434D01*
X0077004Y0058379D01*
X0076949Y0058327D01*
X0076892Y0058278D01*
X0076832Y0058232D01*
X0076769Y0058189D01*
X0076705Y0058149D01*
X0076639Y0058113D01*
X0076570Y0058081D01*
X0076500Y0058052D01*
X0076429Y0058027D01*
X0076357Y0058005D01*
X0076283Y0057988D01*
X0076209Y0057974D01*
X0076134Y0057964D01*
X0076059Y0057958D01*
X0075983Y0057956D01*
X0075983Y0057955D02*
X0074539Y0057955D01*
X0074539Y0063155D01*
X0074609Y0067798D02*
X0076054Y0067798D01*
X0076130Y0067800D01*
X0076205Y0067806D01*
X0076280Y0067816D01*
X0076354Y0067830D01*
X0076428Y0067847D01*
X0076500Y0067869D01*
X0076571Y0067894D01*
X0076641Y0067923D01*
X0076710Y0067955D01*
X0076776Y0067991D01*
X0076840Y0068031D01*
X0076903Y0068074D01*
X0076963Y0068120D01*
X0077020Y0068169D01*
X0077075Y0068221D01*
X0077127Y0068276D01*
X0077176Y0068333D01*
X0077222Y0068393D01*
X0077265Y0068456D01*
X0077305Y0068520D01*
X0077341Y0068586D01*
X0077373Y0068655D01*
X0077402Y0068725D01*
X0077427Y0068796D01*
X0077449Y0068868D01*
X0077466Y0068942D01*
X0077480Y0069016D01*
X0077490Y0069091D01*
X0077496Y0069166D01*
X0077498Y0069242D01*
X0077498Y0071553D01*
X0077496Y0071629D01*
X0077490Y0071704D01*
X0077480Y0071779D01*
X0077466Y0071853D01*
X0077449Y0071927D01*
X0077427Y0071999D01*
X0077402Y0072070D01*
X0077373Y0072140D01*
X0077341Y0072209D01*
X0077305Y0072275D01*
X0077265Y0072339D01*
X0077222Y0072402D01*
X0077176Y0072462D01*
X0077127Y0072519D01*
X0077075Y0072574D01*
X0077020Y0072626D01*
X0076963Y0072675D01*
X0076903Y0072721D01*
X0076840Y0072764D01*
X0076776Y0072804D01*
X0076710Y0072840D01*
X0076641Y0072872D01*
X0076571Y0072901D01*
X0076500Y0072926D01*
X0076428Y0072948D01*
X0076354Y0072965D01*
X0076280Y0072979D01*
X0076205Y0072989D01*
X0076130Y0072995D01*
X0076054Y0072997D01*
X0076054Y0072998D02*
X0074609Y0072998D01*
X0074609Y0067798D01*
X0072122Y0067798D02*
X0072122Y0072998D01*
X0069233Y0072998D02*
X0069233Y0067798D01*
X0072122Y0067798D02*
X0069233Y0072998D01*
X0069163Y0063155D02*
X0069163Y0057955D01*
X0066699Y0053313D02*
X0063232Y0048113D01*
X0060262Y0048113D02*
X0060262Y0053313D01*
X0061706Y0053313D02*
X0058817Y0053313D01*
X0063232Y0053313D02*
X0066699Y0048113D01*
X0066746Y0041502D02*
X0066746Y0036302D01*
X0066746Y0039190D02*
X0063857Y0039190D01*
X0063857Y0041502D02*
X0063857Y0036302D01*
X0061129Y0038468D02*
X0059540Y0039335D01*
X0060117Y0041502D02*
X0060204Y0041500D01*
X0060291Y0041495D01*
X0060378Y0041486D01*
X0060464Y0041474D01*
X0060550Y0041458D01*
X0060635Y0041439D01*
X0060719Y0041417D01*
X0060802Y0041391D01*
X0060884Y0041362D01*
X0060965Y0041329D01*
X0061045Y0041293D01*
X0061123Y0041254D01*
X0061199Y0041212D01*
X0061274Y0041167D01*
X0061346Y0041119D01*
X0061417Y0041069D01*
X0059539Y0039335D02*
X0059482Y0039371D01*
X0059426Y0039410D01*
X0059374Y0039452D01*
X0059323Y0039498D01*
X0059276Y0039546D01*
X0059231Y0039597D01*
X0059190Y0039650D01*
X0059151Y0039706D01*
X0059116Y0039764D01*
X0059084Y0039823D01*
X0059055Y0039885D01*
X0059031Y0039948D01*
X0059009Y0040012D01*
X0058992Y0040078D01*
X0058979Y0040144D01*
X0058969Y0040211D01*
X0058963Y0040278D01*
X0058961Y0040346D01*
X0058963Y0040413D01*
X0058969Y0040480D01*
X0058979Y0040547D01*
X0058992Y0040613D01*
X0059010Y0040678D01*
X0059031Y0040741D01*
X0059056Y0040804D01*
X0059084Y0040865D01*
X0059116Y0040924D01*
X0059151Y0040981D01*
X0059190Y0041036D01*
X0059231Y0041089D01*
X0059276Y0041139D01*
X0059324Y0041187D01*
X0059374Y0041232D01*
X0059427Y0041273D01*
X0059482Y0041312D01*
X0059539Y0041347D01*
X0059598Y0041379D01*
X0059659Y0041407D01*
X0059722Y0041432D01*
X0059785Y0041453D01*
X0059850Y0041471D01*
X0059916Y0041484D01*
X0059983Y0041494D01*
X0060050Y0041500D01*
X0060117Y0041502D01*
X0058818Y0037024D02*
X0058887Y0036957D01*
X0058959Y0036893D01*
X0059033Y0036831D01*
X0059110Y0036773D01*
X0059188Y0036718D01*
X0059269Y0036665D01*
X0059352Y0036616D01*
X0059437Y0036571D01*
X0059524Y0036529D01*
X0059612Y0036490D01*
X0059702Y0036454D01*
X0059793Y0036423D01*
X0059885Y0036395D01*
X0059978Y0036370D01*
X0060072Y0036349D01*
X0060167Y0036332D01*
X0060263Y0036319D01*
X0060358Y0036310D01*
X0060455Y0036304D01*
X0060551Y0036302D01*
X0060551Y0036301D02*
X0060618Y0036303D01*
X0060685Y0036309D01*
X0060752Y0036319D01*
X0060818Y0036332D01*
X0060883Y0036350D01*
X0060946Y0036371D01*
X0061009Y0036396D01*
X0061070Y0036424D01*
X0061129Y0036456D01*
X0061186Y0036491D01*
X0061241Y0036530D01*
X0061294Y0036571D01*
X0061344Y0036616D01*
X0061392Y0036664D01*
X0061437Y0036714D01*
X0061478Y0036767D01*
X0061517Y0036822D01*
X0061552Y0036879D01*
X0061584Y0036938D01*
X0061612Y0036999D01*
X0061637Y0037062D01*
X0061658Y0037125D01*
X0061676Y0037190D01*
X0061689Y0037256D01*
X0061699Y0037323D01*
X0061705Y0037390D01*
X0061707Y0037457D01*
X0061705Y0037525D01*
X0061699Y0037592D01*
X0061689Y0037659D01*
X0061676Y0037725D01*
X0061659Y0037791D01*
X0061637Y0037855D01*
X0061613Y0037918D01*
X0061584Y0037980D01*
X0061552Y0038039D01*
X0061517Y0038097D01*
X0061478Y0038153D01*
X0061437Y0038206D01*
X0061392Y0038257D01*
X0061345Y0038305D01*
X0061294Y0038351D01*
X0061242Y0038393D01*
X0061186Y0038432D01*
X0061129Y0038468D01*
X0062284Y0031659D02*
X0062284Y0026459D01*
X0060551Y0028770D02*
X0062284Y0031659D01*
X0064314Y0031659D02*
X0067203Y0031659D01*
X0065759Y0031659D02*
X0065759Y0026459D01*
X0069217Y0026459D02*
X0069217Y0031659D01*
X0070661Y0031659D01*
X0070737Y0031657D01*
X0070812Y0031651D01*
X0070887Y0031641D01*
X0070961Y0031627D01*
X0071035Y0031610D01*
X0071107Y0031588D01*
X0071178Y0031563D01*
X0071248Y0031534D01*
X0071317Y0031502D01*
X0071383Y0031466D01*
X0071447Y0031426D01*
X0071510Y0031383D01*
X0071570Y0031337D01*
X0071627Y0031288D01*
X0071682Y0031236D01*
X0071734Y0031181D01*
X0071783Y0031124D01*
X0071829Y0031064D01*
X0071872Y0031001D01*
X0071912Y0030937D01*
X0071948Y0030871D01*
X0071980Y0030802D01*
X0072009Y0030732D01*
X0072034Y0030661D01*
X0072056Y0030589D01*
X0072073Y0030515D01*
X0072087Y0030441D01*
X0072097Y0030366D01*
X0072103Y0030291D01*
X0072105Y0030215D01*
X0072103Y0030139D01*
X0072097Y0030064D01*
X0072087Y0029989D01*
X0072073Y0029915D01*
X0072056Y0029841D01*
X0072034Y0029769D01*
X0072009Y0029698D01*
X0071980Y0029628D01*
X0071948Y0029559D01*
X0071912Y0029493D01*
X0071872Y0029429D01*
X0071829Y0029366D01*
X0071783Y0029306D01*
X0071734Y0029249D01*
X0071682Y0029194D01*
X0071627Y0029142D01*
X0071570Y0029093D01*
X0071510Y0029047D01*
X0071447Y0029004D01*
X0071383Y0028964D01*
X0071317Y0028928D01*
X0071248Y0028896D01*
X0071178Y0028867D01*
X0071107Y0028842D01*
X0071035Y0028820D01*
X0070961Y0028803D01*
X0070887Y0028789D01*
X0070812Y0028779D01*
X0070737Y0028773D01*
X0070661Y0028771D01*
X0070661Y0028770D02*
X0069217Y0028770D01*
X0070950Y0028770D02*
X0072106Y0026459D01*
X0066635Y0021817D02*
X0064324Y0021817D01*
X0064324Y0016617D01*
X0062284Y0016617D02*
X0060551Y0021817D01*
X0058817Y0016617D01*
X0059251Y0017917D02*
X0061851Y0017917D01*
X0064324Y0019505D02*
X0066635Y0019505D01*
X0066323Y0011974D02*
X0065167Y0011974D01*
X0065100Y0011972D01*
X0065033Y0011966D01*
X0064966Y0011956D01*
X0064900Y0011943D01*
X0064835Y0011925D01*
X0064772Y0011904D01*
X0064709Y0011879D01*
X0064648Y0011851D01*
X0064589Y0011819D01*
X0064532Y0011784D01*
X0064477Y0011745D01*
X0064424Y0011704D01*
X0064374Y0011659D01*
X0064326Y0011611D01*
X0064281Y0011561D01*
X0064240Y0011508D01*
X0064201Y0011453D01*
X0064166Y0011396D01*
X0064134Y0011337D01*
X0064106Y0011276D01*
X0064081Y0011213D01*
X0064060Y0011150D01*
X0064042Y0011085D01*
X0064029Y0011019D01*
X0064019Y0010952D01*
X0064013Y0010885D01*
X0064011Y0010818D01*
X0064012Y0010818D02*
X0064012Y0007930D01*
X0064011Y0007930D02*
X0064013Y0007863D01*
X0064019Y0007796D01*
X0064029Y0007729D01*
X0064042Y0007663D01*
X0064060Y0007598D01*
X0064081Y0007535D01*
X0064106Y0007472D01*
X0064134Y0007411D01*
X0064166Y0007352D01*
X0064201Y0007295D01*
X0064240Y0007240D01*
X0064281Y0007187D01*
X0064326Y0007137D01*
X0064374Y0007089D01*
X0064424Y0007044D01*
X0064477Y0007003D01*
X0064532Y0006964D01*
X0064589Y0006929D01*
X0064648Y0006897D01*
X0064709Y0006869D01*
X0064772Y0006844D01*
X0064835Y0006823D01*
X0064900Y0006805D01*
X0064966Y0006792D01*
X0065033Y0006782D01*
X0065100Y0006776D01*
X0065167Y0006774D01*
X0066323Y0006774D01*
X0061706Y0006774D02*
X0061706Y0011974D01*
X0058817Y0011974D02*
X0061706Y0006774D01*
X0058817Y0006774D02*
X0058817Y0011974D01*
X0058817Y0026459D02*
X0058817Y0031659D01*
X0060551Y0028770D01*
X0070174Y0036302D02*
X0070174Y0041502D01*
X0071618Y0041502D02*
X0068729Y0041502D01*
X0067004Y0087483D02*
X0063538Y0092683D01*
X0063768Y0097325D02*
X0062323Y0097325D01*
X0062323Y0102525D01*
X0062323Y0100792D02*
X0063768Y0100792D01*
X0063825Y0100790D01*
X0063881Y0100785D01*
X0063937Y0100775D01*
X0063992Y0100762D01*
X0064047Y0100746D01*
X0064100Y0100726D01*
X0064151Y0100703D01*
X0064202Y0100676D01*
X0064250Y0100646D01*
X0064296Y0100613D01*
X0064340Y0100577D01*
X0064381Y0100538D01*
X0064420Y0100497D01*
X0064456Y0100453D01*
X0064489Y0100407D01*
X0064519Y0100359D01*
X0064546Y0100308D01*
X0064569Y0100257D01*
X0064589Y0100204D01*
X0064605Y0100149D01*
X0064618Y0100094D01*
X0064628Y0100038D01*
X0064633Y0099982D01*
X0064635Y0099925D01*
X0064634Y0099925D02*
X0064634Y0098192D01*
X0064635Y0098192D02*
X0064633Y0098135D01*
X0064628Y0098079D01*
X0064618Y0098023D01*
X0064605Y0097968D01*
X0064589Y0097913D01*
X0064569Y0097860D01*
X0064546Y0097809D01*
X0064519Y0097758D01*
X0064489Y0097710D01*
X0064456Y0097664D01*
X0064420Y0097620D01*
X0064381Y0097579D01*
X0064340Y0097540D01*
X0064296Y0097504D01*
X0064250Y0097471D01*
X0064201Y0097441D01*
X0064151Y0097414D01*
X0064100Y0097391D01*
X0064047Y0097371D01*
X0063992Y0097355D01*
X0063937Y0097342D01*
X0063881Y0097332D01*
X0063825Y0097327D01*
X0063768Y0097325D01*
X0058582Y0097325D02*
X0060316Y0102525D01*
X0056849Y0102525D02*
X0058582Y0097325D01*
D12*
X0055743Y0104650D02*
X0055743Y0004650D01*
X0045743Y0004650D01*
X0045743Y0104650D01*
X0055743Y0104650D01*
X0074169Y0088114D02*
X0074255Y0088116D01*
X0074341Y0088121D01*
X0074426Y0088131D01*
X0074511Y0088144D01*
X0074595Y0088161D01*
X0074679Y0088181D01*
X0074761Y0088205D01*
X0074842Y0088233D01*
X0074923Y0088264D01*
X0075001Y0088298D01*
X0075078Y0088336D01*
X0075154Y0088378D01*
X0075227Y0088422D01*
X0075298Y0088470D01*
X0075368Y0088521D01*
X0075435Y0088575D01*
X0075499Y0088631D01*
X0075561Y0088691D01*
X0075621Y0088753D01*
X0075677Y0088817D01*
X0075731Y0088884D01*
X0075782Y0088954D01*
X0075830Y0089025D01*
X0075874Y0089099D01*
X0075916Y0089174D01*
X0075954Y0089251D01*
X0075988Y0089329D01*
X0076019Y0089410D01*
X0076047Y0089491D01*
X0076071Y0089573D01*
X0076091Y0089657D01*
X0076108Y0089741D01*
X0076121Y0089826D01*
X0076131Y0089911D01*
X0076136Y0089997D01*
X0076138Y0090083D01*
X0076136Y0090169D01*
X0076131Y0090255D01*
X0076121Y0090340D01*
X0076108Y0090425D01*
X0076091Y0090509D01*
X0076071Y0090593D01*
X0076047Y0090675D01*
X0076019Y0090756D01*
X0075988Y0090837D01*
X0075954Y0090915D01*
X0075916Y0090992D01*
X0075874Y0091068D01*
X0075830Y0091141D01*
X0075782Y0091212D01*
X0075731Y0091282D01*
X0075677Y0091349D01*
X0075621Y0091413D01*
X0075561Y0091475D01*
X0075499Y0091535D01*
X0075435Y0091591D01*
X0075368Y0091645D01*
X0075298Y0091696D01*
X0075227Y0091744D01*
X0075154Y0091788D01*
X0075078Y0091830D01*
X0075001Y0091868D01*
X0074923Y0091902D01*
X0074842Y0091933D01*
X0074761Y0091961D01*
X0074679Y0091985D01*
X0074595Y0092005D01*
X0074511Y0092022D01*
X0074426Y0092035D01*
X0074341Y0092045D01*
X0074255Y0092050D01*
X0074169Y0092052D01*
X0073185Y0090083D02*
X0073189Y0090397D01*
X0073200Y0090711D01*
X0073220Y0091024D01*
X0073247Y0091337D01*
X0073281Y0091649D01*
X0073323Y0091960D01*
X0073373Y0092270D01*
X0073431Y0092579D01*
X0073496Y0092886D01*
X0073568Y0093192D01*
X0073648Y0093496D01*
X0073736Y0093797D01*
X0073831Y0094097D01*
X0073933Y0094394D01*
X0074042Y0094688D01*
X0074159Y0094979D01*
X0074283Y0095268D01*
X0074413Y0095554D01*
X0074551Y0095836D01*
X0074696Y0096115D01*
X0074847Y0096390D01*
X0075005Y0096661D01*
X0075170Y0096928D01*
X0075341Y0097192D01*
X0075519Y0097450D01*
X0075703Y0097705D01*
X0075893Y0097955D01*
X0076089Y0098200D01*
X0076292Y0098440D01*
X0076500Y0098676D01*
X0076713Y0098906D01*
X0076933Y0099130D01*
X0077157Y0099350D01*
X0077387Y0099563D01*
X0077623Y0099771D01*
X0077863Y0099974D01*
X0078108Y0100170D01*
X0078358Y0100360D01*
X0078613Y0100544D01*
X0078871Y0100722D01*
X0079135Y0100893D01*
X0079402Y0101058D01*
X0079673Y0101216D01*
X0079948Y0101367D01*
X0080227Y0101512D01*
X0080509Y0101650D01*
X0080795Y0101780D01*
X0081084Y0101904D01*
X0081375Y0102021D01*
X0081669Y0102130D01*
X0081966Y0102232D01*
X0082266Y0102327D01*
X0082567Y0102415D01*
X0082871Y0102495D01*
X0083177Y0102567D01*
X0083484Y0102632D01*
X0083793Y0102690D01*
X0084103Y0102740D01*
X0084414Y0102782D01*
X0084726Y0102816D01*
X0085039Y0102843D01*
X0085352Y0102863D01*
X0085666Y0102874D01*
X0085980Y0102878D01*
X0086294Y0102874D01*
X0086608Y0102863D01*
X0086921Y0102843D01*
X0087234Y0102816D01*
X0087546Y0102782D01*
X0087857Y0102740D01*
X0088167Y0102690D01*
X0088476Y0102632D01*
X0088783Y0102567D01*
X0089089Y0102495D01*
X0089393Y0102415D01*
X0089694Y0102327D01*
X0089994Y0102232D01*
X0090291Y0102130D01*
X0090585Y0102021D01*
X0090876Y0101904D01*
X0091165Y0101780D01*
X0091451Y0101650D01*
X0091733Y0101512D01*
X0092012Y0101367D01*
X0092287Y0101216D01*
X0092558Y0101058D01*
X0092825Y0100893D01*
X0093089Y0100722D01*
X0093347Y0100544D01*
X0093602Y0100360D01*
X0093852Y0100170D01*
X0094097Y0099974D01*
X0094337Y0099771D01*
X0094573Y0099563D01*
X0094803Y0099350D01*
X0095027Y0099130D01*
X0095247Y0098906D01*
X0095460Y0098676D01*
X0095668Y0098440D01*
X0095871Y0098200D01*
X0096067Y0097955D01*
X0096257Y0097705D01*
X0096441Y0097450D01*
X0096619Y0097192D01*
X0096790Y0096928D01*
X0096955Y0096661D01*
X0097113Y0096390D01*
X0097264Y0096115D01*
X0097409Y0095836D01*
X0097547Y0095554D01*
X0097677Y0095268D01*
X0097801Y0094979D01*
X0097918Y0094688D01*
X0098027Y0094394D01*
X0098129Y0094097D01*
X0098224Y0093797D01*
X0098312Y0093496D01*
X0098392Y0093192D01*
X0098464Y0092886D01*
X0098529Y0092579D01*
X0098587Y0092270D01*
X0098637Y0091960D01*
X0098679Y0091649D01*
X0098713Y0091337D01*
X0098740Y0091024D01*
X0098760Y0090711D01*
X0098771Y0090397D01*
X0098775Y0090083D01*
X0098771Y0089769D01*
X0098760Y0089455D01*
X0098740Y0089142D01*
X0098713Y0088829D01*
X0098679Y0088517D01*
X0098637Y0088206D01*
X0098587Y0087896D01*
X0098529Y0087587D01*
X0098464Y0087280D01*
X0098392Y0086974D01*
X0098312Y0086670D01*
X0098224Y0086369D01*
X0098129Y0086069D01*
X0098027Y0085772D01*
X0097918Y0085478D01*
X0097801Y0085187D01*
X0097677Y0084898D01*
X0097547Y0084612D01*
X0097409Y0084330D01*
X0097264Y0084051D01*
X0097113Y0083776D01*
X0096955Y0083505D01*
X0096790Y0083238D01*
X0096619Y0082974D01*
X0096441Y0082716D01*
X0096257Y0082461D01*
X0096067Y0082211D01*
X0095871Y0081966D01*
X0095668Y0081726D01*
X0095460Y0081490D01*
X0095247Y0081260D01*
X0095027Y0081036D01*
X0094803Y0080816D01*
X0094573Y0080603D01*
X0094337Y0080395D01*
X0094097Y0080192D01*
X0093852Y0079996D01*
X0093602Y0079806D01*
X0093347Y0079622D01*
X0093089Y0079444D01*
X0092825Y0079273D01*
X0092558Y0079108D01*
X0092287Y0078950D01*
X0092012Y0078799D01*
X0091733Y0078654D01*
X0091451Y0078516D01*
X0091165Y0078386D01*
X0090876Y0078262D01*
X0090585Y0078145D01*
X0090291Y0078036D01*
X0089994Y0077934D01*
X0089694Y0077839D01*
X0089393Y0077751D01*
X0089089Y0077671D01*
X0088783Y0077599D01*
X0088476Y0077534D01*
X0088167Y0077476D01*
X0087857Y0077426D01*
X0087546Y0077384D01*
X0087234Y0077350D01*
X0086921Y0077323D01*
X0086608Y0077303D01*
X0086294Y0077292D01*
X0085980Y0077288D01*
X0085666Y0077292D01*
X0085352Y0077303D01*
X0085039Y0077323D01*
X0084726Y0077350D01*
X0084414Y0077384D01*
X0084103Y0077426D01*
X0083793Y0077476D01*
X0083484Y0077534D01*
X0083177Y0077599D01*
X0082871Y0077671D01*
X0082567Y0077751D01*
X0082266Y0077839D01*
X0081966Y0077934D01*
X0081669Y0078036D01*
X0081375Y0078145D01*
X0081084Y0078262D01*
X0080795Y0078386D01*
X0080509Y0078516D01*
X0080227Y0078654D01*
X0079948Y0078799D01*
X0079673Y0078950D01*
X0079402Y0079108D01*
X0079135Y0079273D01*
X0078871Y0079444D01*
X0078613Y0079622D01*
X0078358Y0079806D01*
X0078108Y0079996D01*
X0077863Y0080192D01*
X0077623Y0080395D01*
X0077387Y0080603D01*
X0077157Y0080816D01*
X0076933Y0081036D01*
X0076713Y0081260D01*
X0076500Y0081490D01*
X0076292Y0081726D01*
X0076089Y0081966D01*
X0075893Y0082211D01*
X0075703Y0082461D01*
X0075519Y0082716D01*
X0075341Y0082974D01*
X0075170Y0083238D01*
X0075005Y0083505D01*
X0074847Y0083776D01*
X0074696Y0084051D01*
X0074551Y0084330D01*
X0074413Y0084612D01*
X0074283Y0084898D01*
X0074159Y0085187D01*
X0074042Y0085478D01*
X0073933Y0085772D01*
X0073831Y0086069D01*
X0073736Y0086369D01*
X0073648Y0086670D01*
X0073568Y0086974D01*
X0073496Y0087280D01*
X0073431Y0087587D01*
X0073373Y0087896D01*
X0073323Y0088206D01*
X0073281Y0088517D01*
X0073247Y0088829D01*
X0073220Y0089142D01*
X0073200Y0089455D01*
X0073189Y0089769D01*
X0073185Y0090083D01*
X0084011Y0101894D02*
X0084013Y0101808D01*
X0084018Y0101722D01*
X0084028Y0101637D01*
X0084041Y0101552D01*
X0084058Y0101468D01*
X0084078Y0101384D01*
X0084102Y0101302D01*
X0084130Y0101221D01*
X0084161Y0101140D01*
X0084195Y0101062D01*
X0084233Y0100985D01*
X0084275Y0100910D01*
X0084319Y0100836D01*
X0084367Y0100765D01*
X0084418Y0100695D01*
X0084472Y0100628D01*
X0084528Y0100564D01*
X0084588Y0100502D01*
X0084650Y0100442D01*
X0084714Y0100386D01*
X0084781Y0100332D01*
X0084851Y0100281D01*
X0084922Y0100233D01*
X0084996Y0100189D01*
X0085071Y0100147D01*
X0085148Y0100109D01*
X0085226Y0100075D01*
X0085307Y0100044D01*
X0085388Y0100016D01*
X0085470Y0099992D01*
X0085554Y0099972D01*
X0085638Y0099955D01*
X0085723Y0099942D01*
X0085808Y0099932D01*
X0085894Y0099927D01*
X0085980Y0099925D01*
X0086066Y0099927D01*
X0086152Y0099932D01*
X0086237Y0099942D01*
X0086322Y0099955D01*
X0086406Y0099972D01*
X0086490Y0099992D01*
X0086572Y0100016D01*
X0086653Y0100044D01*
X0086734Y0100075D01*
X0086812Y0100109D01*
X0086889Y0100147D01*
X0086965Y0100189D01*
X0087038Y0100233D01*
X0087109Y0100281D01*
X0087179Y0100332D01*
X0087246Y0100386D01*
X0087310Y0100442D01*
X0087372Y0100502D01*
X0087432Y0100564D01*
X0087488Y0100628D01*
X0087542Y0100695D01*
X0087593Y0100765D01*
X0087641Y0100836D01*
X0087685Y0100910D01*
X0087727Y0100985D01*
X0087765Y0101062D01*
X0087799Y0101140D01*
X0087830Y0101221D01*
X0087858Y0101302D01*
X0087882Y0101384D01*
X0087902Y0101468D01*
X0087919Y0101552D01*
X0087932Y0101637D01*
X0087942Y0101722D01*
X0087947Y0101808D01*
X0087949Y0101894D01*
X0085980Y0080241D02*
X0085894Y0080239D01*
X0085808Y0080234D01*
X0085723Y0080224D01*
X0085638Y0080211D01*
X0085554Y0080194D01*
X0085470Y0080174D01*
X0085388Y0080150D01*
X0085307Y0080122D01*
X0085226Y0080091D01*
X0085148Y0080057D01*
X0085071Y0080019D01*
X0084996Y0079977D01*
X0084922Y0079933D01*
X0084851Y0079885D01*
X0084781Y0079834D01*
X0084714Y0079780D01*
X0084650Y0079724D01*
X0084588Y0079664D01*
X0084528Y0079602D01*
X0084472Y0079538D01*
X0084418Y0079471D01*
X0084367Y0079401D01*
X0084319Y0079330D01*
X0084275Y0079257D01*
X0084233Y0079181D01*
X0084195Y0079104D01*
X0084161Y0079026D01*
X0084130Y0078945D01*
X0084102Y0078864D01*
X0084078Y0078782D01*
X0084058Y0078698D01*
X0084041Y0078614D01*
X0084028Y0078529D01*
X0084018Y0078444D01*
X0084013Y0078358D01*
X0084011Y0078272D01*
X0085980Y0080241D02*
X0086066Y0080239D01*
X0086152Y0080234D01*
X0086237Y0080224D01*
X0086322Y0080211D01*
X0086406Y0080194D01*
X0086490Y0080174D01*
X0086572Y0080150D01*
X0086653Y0080122D01*
X0086734Y0080091D01*
X0086812Y0080057D01*
X0086889Y0080019D01*
X0086965Y0079977D01*
X0087038Y0079933D01*
X0087109Y0079885D01*
X0087179Y0079834D01*
X0087246Y0079780D01*
X0087310Y0079724D01*
X0087372Y0079664D01*
X0087432Y0079602D01*
X0087488Y0079538D01*
X0087542Y0079471D01*
X0087593Y0079401D01*
X0087641Y0079330D01*
X0087685Y0079257D01*
X0087727Y0079181D01*
X0087765Y0079104D01*
X0087799Y0079026D01*
X0087830Y0078945D01*
X0087858Y0078864D01*
X0087882Y0078782D01*
X0087902Y0078698D01*
X0087919Y0078614D01*
X0087932Y0078529D01*
X0087942Y0078444D01*
X0087947Y0078358D01*
X0087949Y0078272D01*
M02*
