G75*
%MOIN*%
%OFA0B0*%
%FSLAX25Y25*%
%IPPOS*%
%LPD*%
%AMOC8*
5,1,8,0,0,1.08239X$1,22.5*
%
%ADD10C,0.00000*%
%ADD11C,0.03543*%
%ADD12R,0.06500X0.06500*%
%ADD13C,0.06500*%
%ADD14C,0.00787*%
%ADD15C,0.02559*%
%ADD16C,0.01000*%
D10*
X0043854Y0005437D02*
X0043854Y0103862D01*
X0043853Y0103862D02*
X0043855Y0103948D01*
X0043860Y0104034D01*
X0043870Y0104119D01*
X0043883Y0104204D01*
X0043900Y0104288D01*
X0043920Y0104372D01*
X0043944Y0104454D01*
X0043972Y0104535D01*
X0044003Y0104616D01*
X0044037Y0104694D01*
X0044075Y0104771D01*
X0044117Y0104847D01*
X0044161Y0104920D01*
X0044209Y0104991D01*
X0044260Y0105061D01*
X0044314Y0105128D01*
X0044370Y0105192D01*
X0044430Y0105254D01*
X0044492Y0105314D01*
X0044556Y0105370D01*
X0044623Y0105424D01*
X0044693Y0105475D01*
X0044764Y0105523D01*
X0044838Y0105567D01*
X0044913Y0105609D01*
X0044990Y0105647D01*
X0045068Y0105681D01*
X0045149Y0105712D01*
X0045230Y0105740D01*
X0045312Y0105764D01*
X0045396Y0105784D01*
X0045480Y0105801D01*
X0045565Y0105814D01*
X0045650Y0105824D01*
X0045736Y0105829D01*
X0045822Y0105831D01*
X0086176Y0105831D01*
X0101924Y0090083D02*
X0101919Y0089702D01*
X0101906Y0089322D01*
X0101883Y0088942D01*
X0101850Y0088563D01*
X0101809Y0088185D01*
X0101759Y0087808D01*
X0101699Y0087432D01*
X0101631Y0087057D01*
X0101553Y0086685D01*
X0101466Y0086314D01*
X0101371Y0085946D01*
X0101266Y0085580D01*
X0101153Y0085217D01*
X0101031Y0084856D01*
X0100901Y0084499D01*
X0100761Y0084145D01*
X0100614Y0083794D01*
X0100457Y0083447D01*
X0100293Y0083104D01*
X0100120Y0082765D01*
X0099939Y0082430D01*
X0099750Y0082099D01*
X0099553Y0081774D01*
X0099349Y0081453D01*
X0099136Y0081137D01*
X0098916Y0080827D01*
X0098689Y0080521D01*
X0098454Y0080222D01*
X0098212Y0079928D01*
X0097964Y0079640D01*
X0097708Y0079358D01*
X0097445Y0079083D01*
X0097176Y0078814D01*
X0096901Y0078551D01*
X0096619Y0078295D01*
X0096331Y0078047D01*
X0096037Y0077805D01*
X0095738Y0077570D01*
X0095432Y0077343D01*
X0095122Y0077123D01*
X0094806Y0076910D01*
X0094485Y0076706D01*
X0094160Y0076509D01*
X0093829Y0076320D01*
X0093494Y0076139D01*
X0093155Y0075966D01*
X0092812Y0075802D01*
X0092465Y0075645D01*
X0092114Y0075498D01*
X0091760Y0075358D01*
X0091403Y0075228D01*
X0091042Y0075106D01*
X0090679Y0074993D01*
X0090313Y0074888D01*
X0089945Y0074793D01*
X0089574Y0074706D01*
X0089202Y0074628D01*
X0088827Y0074560D01*
X0088451Y0074500D01*
X0088074Y0074450D01*
X0087696Y0074409D01*
X0087317Y0074376D01*
X0086937Y0074353D01*
X0086557Y0074340D01*
X0086176Y0074335D01*
X0086090Y0074333D01*
X0086004Y0074328D01*
X0085919Y0074318D01*
X0085834Y0074305D01*
X0085750Y0074288D01*
X0085666Y0074268D01*
X0085584Y0074244D01*
X0085503Y0074216D01*
X0085422Y0074185D01*
X0085344Y0074151D01*
X0085267Y0074113D01*
X0085192Y0074071D01*
X0085118Y0074027D01*
X0085047Y0073979D01*
X0084977Y0073928D01*
X0084910Y0073874D01*
X0084846Y0073818D01*
X0084784Y0073758D01*
X0084724Y0073696D01*
X0084668Y0073632D01*
X0084614Y0073565D01*
X0084563Y0073495D01*
X0084515Y0073424D01*
X0084471Y0073351D01*
X0084429Y0073275D01*
X0084391Y0073198D01*
X0084357Y0073120D01*
X0084326Y0073039D01*
X0084298Y0072958D01*
X0084274Y0072876D01*
X0084254Y0072792D01*
X0084237Y0072708D01*
X0084224Y0072623D01*
X0084214Y0072538D01*
X0084209Y0072452D01*
X0084207Y0072366D01*
X0084208Y0072366D02*
X0084208Y0058980D01*
X0084206Y0058885D01*
X0084200Y0058790D01*
X0084191Y0058695D01*
X0084177Y0058601D01*
X0084160Y0058508D01*
X0084139Y0058415D01*
X0084115Y0058323D01*
X0084086Y0058232D01*
X0084055Y0058142D01*
X0084019Y0058054D01*
X0083980Y0057967D01*
X0083937Y0057882D01*
X0083892Y0057799D01*
X0083842Y0057718D01*
X0083790Y0057638D01*
X0083734Y0057561D01*
X0083676Y0057486D01*
X0083614Y0057414D01*
X0083549Y0057344D01*
X0083482Y0057277D01*
X0083412Y0057212D01*
X0083340Y0057150D01*
X0083265Y0057092D01*
X0083188Y0057036D01*
X0083108Y0056984D01*
X0083027Y0056934D01*
X0082944Y0056889D01*
X0082859Y0056846D01*
X0082772Y0056807D01*
X0082684Y0056771D01*
X0082594Y0056740D01*
X0082503Y0056711D01*
X0082411Y0056687D01*
X0082318Y0056666D01*
X0082225Y0056649D01*
X0082131Y0056635D01*
X0082036Y0056626D01*
X0081941Y0056620D01*
X0081846Y0056618D01*
X0080271Y0056618D01*
X0080147Y0056616D01*
X0080024Y0056610D01*
X0079900Y0056601D01*
X0079778Y0056587D01*
X0079655Y0056570D01*
X0079533Y0056548D01*
X0079412Y0056523D01*
X0079292Y0056494D01*
X0079173Y0056462D01*
X0079054Y0056425D01*
X0078937Y0056385D01*
X0078822Y0056342D01*
X0078707Y0056294D01*
X0078595Y0056243D01*
X0078484Y0056189D01*
X0078374Y0056131D01*
X0078267Y0056070D01*
X0078161Y0056005D01*
X0078058Y0055937D01*
X0077957Y0055866D01*
X0077858Y0055792D01*
X0077761Y0055715D01*
X0077667Y0055634D01*
X0077576Y0055551D01*
X0077487Y0055465D01*
X0077401Y0055376D01*
X0077318Y0055285D01*
X0077237Y0055191D01*
X0077160Y0055094D01*
X0077086Y0054995D01*
X0077015Y0054894D01*
X0076947Y0054791D01*
X0076882Y0054685D01*
X0076821Y0054578D01*
X0076763Y0054468D01*
X0076709Y0054357D01*
X0076658Y0054245D01*
X0076610Y0054130D01*
X0076567Y0054015D01*
X0076527Y0053898D01*
X0076490Y0053779D01*
X0076458Y0053660D01*
X0076429Y0053540D01*
X0076404Y0053419D01*
X0076382Y0053297D01*
X0076365Y0053174D01*
X0076351Y0053052D01*
X0076342Y0052928D01*
X0076336Y0052805D01*
X0076334Y0052681D01*
X0076334Y0011343D01*
X0076332Y0011153D01*
X0076325Y0010963D01*
X0076313Y0010773D01*
X0076297Y0010583D01*
X0076277Y0010394D01*
X0076251Y0010205D01*
X0076222Y0010017D01*
X0076187Y0009830D01*
X0076148Y0009644D01*
X0076105Y0009459D01*
X0076057Y0009274D01*
X0076005Y0009091D01*
X0075949Y0008910D01*
X0075888Y0008730D01*
X0075822Y0008551D01*
X0075753Y0008374D01*
X0075679Y0008198D01*
X0075601Y0008025D01*
X0075518Y0007853D01*
X0075432Y0007684D01*
X0075342Y0007516D01*
X0075247Y0007351D01*
X0075149Y0007188D01*
X0075046Y0007028D01*
X0074940Y0006870D01*
X0074830Y0006715D01*
X0074717Y0006562D01*
X0074599Y0006412D01*
X0074478Y0006266D01*
X0074354Y0006122D01*
X0074226Y0005981D01*
X0074095Y0005843D01*
X0073960Y0005708D01*
X0073822Y0005577D01*
X0073681Y0005449D01*
X0073537Y0005325D01*
X0073391Y0005204D01*
X0073241Y0005086D01*
X0073088Y0004973D01*
X0072933Y0004863D01*
X0072775Y0004757D01*
X0072615Y0004654D01*
X0072452Y0004556D01*
X0072287Y0004461D01*
X0072119Y0004371D01*
X0071950Y0004285D01*
X0071778Y0004202D01*
X0071605Y0004124D01*
X0071429Y0004050D01*
X0071252Y0003981D01*
X0071073Y0003915D01*
X0070893Y0003854D01*
X0070712Y0003798D01*
X0070529Y0003746D01*
X0070344Y0003698D01*
X0070159Y0003655D01*
X0069973Y0003616D01*
X0069786Y0003581D01*
X0069598Y0003552D01*
X0069409Y0003526D01*
X0069220Y0003506D01*
X0069030Y0003490D01*
X0068840Y0003478D01*
X0068650Y0003471D01*
X0068460Y0003469D01*
X0045822Y0003469D01*
X0045822Y0003468D02*
X0045736Y0003470D01*
X0045650Y0003475D01*
X0045565Y0003485D01*
X0045480Y0003498D01*
X0045396Y0003515D01*
X0045312Y0003535D01*
X0045230Y0003559D01*
X0045149Y0003587D01*
X0045068Y0003618D01*
X0044990Y0003652D01*
X0044913Y0003690D01*
X0044838Y0003732D01*
X0044764Y0003776D01*
X0044693Y0003824D01*
X0044623Y0003875D01*
X0044556Y0003929D01*
X0044492Y0003985D01*
X0044430Y0004045D01*
X0044370Y0004107D01*
X0044314Y0004171D01*
X0044260Y0004238D01*
X0044209Y0004308D01*
X0044161Y0004379D01*
X0044117Y0004453D01*
X0044075Y0004528D01*
X0044037Y0004605D01*
X0044003Y0004683D01*
X0043972Y0004764D01*
X0043944Y0004845D01*
X0043920Y0004927D01*
X0043900Y0005011D01*
X0043883Y0005095D01*
X0043870Y0005180D01*
X0043860Y0005265D01*
X0043855Y0005351D01*
X0043853Y0005437D01*
X0101924Y0090083D02*
X0101919Y0090464D01*
X0101906Y0090844D01*
X0101883Y0091224D01*
X0101850Y0091603D01*
X0101809Y0091981D01*
X0101759Y0092358D01*
X0101699Y0092734D01*
X0101631Y0093109D01*
X0101553Y0093481D01*
X0101466Y0093852D01*
X0101371Y0094220D01*
X0101266Y0094586D01*
X0101153Y0094949D01*
X0101031Y0095310D01*
X0100901Y0095667D01*
X0100761Y0096021D01*
X0100614Y0096372D01*
X0100457Y0096719D01*
X0100293Y0097062D01*
X0100120Y0097401D01*
X0099939Y0097736D01*
X0099750Y0098067D01*
X0099553Y0098392D01*
X0099349Y0098713D01*
X0099136Y0099029D01*
X0098916Y0099339D01*
X0098689Y0099645D01*
X0098454Y0099944D01*
X0098212Y0100238D01*
X0097964Y0100526D01*
X0097708Y0100808D01*
X0097445Y0101083D01*
X0097176Y0101352D01*
X0096901Y0101615D01*
X0096619Y0101871D01*
X0096331Y0102119D01*
X0096037Y0102361D01*
X0095738Y0102596D01*
X0095432Y0102823D01*
X0095122Y0103043D01*
X0094806Y0103256D01*
X0094485Y0103460D01*
X0094160Y0103657D01*
X0093829Y0103846D01*
X0093494Y0104027D01*
X0093155Y0104200D01*
X0092812Y0104364D01*
X0092465Y0104521D01*
X0092114Y0104668D01*
X0091760Y0104808D01*
X0091403Y0104938D01*
X0091042Y0105060D01*
X0090679Y0105173D01*
X0090313Y0105278D01*
X0089945Y0105373D01*
X0089574Y0105460D01*
X0089202Y0105538D01*
X0088827Y0105606D01*
X0088451Y0105666D01*
X0088074Y0105716D01*
X0087696Y0105757D01*
X0087317Y0105790D01*
X0086937Y0105813D01*
X0086557Y0105826D01*
X0086176Y0105831D01*
D11*
X0089917Y0097957D03*
X0093854Y0094020D03*
X0093854Y0086146D03*
X0089917Y0082209D03*
X0085980Y0087130D03*
X0085980Y0093035D03*
X0082043Y0097957D03*
X0078106Y0094020D03*
X0078106Y0086146D03*
X0082043Y0082209D03*
D12*
X0050743Y0099650D03*
D13*
X0050743Y0089650D03*
X0050743Y0079650D03*
X0050743Y0069650D03*
X0050743Y0059650D03*
X0050743Y0049650D03*
X0050743Y0039650D03*
X0050743Y0029650D03*
X0050743Y0019650D03*
X0050743Y0009650D03*
D14*
X0053574Y0009650D01*
X0059204Y0015280D01*
X0059204Y0033055D01*
X0065145Y0038996D01*
X0065145Y0060765D01*
X0076629Y0072249D01*
X0076629Y0074551D01*
X0080941Y0078862D01*
X0084343Y0078862D01*
X0084995Y0079515D01*
X0084995Y0086146D01*
X0085980Y0087130D01*
X0081768Y0085832D02*
X0081768Y0088824D01*
X0085980Y0093035D01*
X0086565Y0097957D02*
X0078497Y0089889D01*
X0073778Y0089889D01*
X0063539Y0079650D01*
X0050743Y0079650D01*
X0050743Y0089650D02*
X0062121Y0089650D01*
X0070428Y0097957D01*
X0082043Y0097957D01*
X0086565Y0097957D02*
X0089917Y0097957D01*
X0093854Y0086146D02*
X0092869Y0085161D01*
X0092869Y0080986D01*
X0091119Y0079235D01*
X0089170Y0079235D01*
X0085648Y0075713D01*
X0084772Y0075713D01*
X0079950Y0070890D01*
X0079950Y0068751D01*
X0073129Y0061930D01*
X0067712Y0060004D02*
X0078204Y0070496D01*
X0078204Y0073898D01*
X0081593Y0077287D01*
X0084995Y0077287D01*
X0089917Y0082209D01*
X0081768Y0085832D02*
X0076964Y0081178D01*
X0063358Y0067572D01*
X0063358Y0039736D01*
X0057417Y0033795D01*
X0057417Y0026323D01*
X0050743Y0019650D01*
X0050743Y0029650D02*
X0061570Y0040476D01*
X0061570Y0069610D01*
X0078106Y0086146D01*
X0067712Y0060004D02*
X0067712Y0049650D01*
D15*
X0067712Y0049650D03*
X0073129Y0061791D03*
X0066491Y0100909D03*
X0070428Y0011343D03*
D16*
X0070428Y0014122D01*
X0070155Y0014122D01*
X0069618Y0014015D01*
X0069112Y0013806D01*
X0068657Y0013502D01*
X0068269Y0013114D01*
X0067965Y0012659D01*
X0067756Y0012153D01*
X0067649Y0011616D01*
X0067649Y0011343D01*
X0070428Y0011343D01*
X0070428Y0011343D01*
X0070428Y0011342D01*
X0070428Y0011342D01*
X0070428Y0008563D01*
X0070155Y0008563D01*
X0069618Y0008670D01*
X0069112Y0008879D01*
X0068657Y0009184D01*
X0068269Y0009571D01*
X0067965Y0010026D01*
X0067756Y0010532D01*
X0067649Y0011069D01*
X0067649Y0011342D01*
X0070428Y0011342D01*
X0070428Y0008563D01*
X0070702Y0008563D01*
X0071239Y0008670D01*
X0071745Y0008879D01*
X0072200Y0009184D01*
X0072587Y0009571D01*
X0072892Y0010026D01*
X0073101Y0010532D01*
X0073208Y0011069D01*
X0073208Y0011342D01*
X0070429Y0011342D01*
X0070429Y0011343D01*
X0073208Y0011343D01*
X0073208Y0011616D01*
X0073101Y0012153D01*
X0072892Y0012659D01*
X0072587Y0013114D01*
X0072200Y0013502D01*
X0071745Y0013806D01*
X0071239Y0014015D01*
X0070702Y0014122D01*
X0070428Y0014122D01*
X0070428Y0011343D01*
X0070428Y0011200D02*
X0070428Y0011200D01*
X0070428Y0010202D02*
X0070428Y0010202D01*
X0070428Y0009203D02*
X0070428Y0009203D01*
X0068637Y0009203D02*
X0055505Y0009203D01*
X0055281Y0008979D02*
X0060885Y0014583D01*
X0060885Y0032358D01*
X0065841Y0037315D01*
X0066826Y0038299D01*
X0066826Y0047238D01*
X0067201Y0047083D01*
X0068222Y0047083D01*
X0069166Y0047473D01*
X0069888Y0048196D01*
X0070279Y0049139D01*
X0070279Y0050160D01*
X0069888Y0051104D01*
X0069393Y0051599D01*
X0069393Y0059308D01*
X0070798Y0060712D01*
X0070953Y0060337D01*
X0071675Y0059615D01*
X0072619Y0059224D01*
X0073640Y0059224D01*
X0074583Y0059615D01*
X0075305Y0060337D01*
X0075696Y0061281D01*
X0075696Y0062120D01*
X0080646Y0067069D01*
X0081631Y0068054D01*
X0081631Y0070194D01*
X0082724Y0071287D01*
X0082724Y0058980D01*
X0082694Y0058753D01*
X0082467Y0058359D01*
X0082073Y0058132D01*
X0081846Y0058102D01*
X0079193Y0058102D01*
X0077200Y0057277D01*
X0075675Y0055752D01*
X0075675Y0055752D01*
X0074850Y0053759D01*
X0074850Y0011343D01*
X0074771Y0010343D01*
X0074153Y0008442D01*
X0072978Y0006824D01*
X0071361Y0005649D01*
X0069459Y0005031D01*
X0068460Y0004953D01*
X0045822Y0004953D01*
X0045697Y0004969D01*
X0045480Y0005095D01*
X0045354Y0005312D01*
X0045338Y0005437D01*
X0045338Y0103862D01*
X0045354Y0103988D01*
X0045480Y0104205D01*
X0045697Y0104330D01*
X0045822Y0104346D01*
X0086176Y0104346D01*
X0088038Y0104224D01*
X0091635Y0103261D01*
X0094860Y0101399D01*
X0097493Y0098766D01*
X0099354Y0095541D01*
X0100318Y0091944D01*
X0100440Y0090083D01*
X0086845Y0090083D01*
X0087712Y0090442D01*
X0088573Y0091303D01*
X0089039Y0092427D01*
X0089039Y0093644D01*
X0088573Y0094768D01*
X0087712Y0095629D01*
X0086936Y0095950D01*
X0087261Y0096276D01*
X0087302Y0096276D01*
X0087323Y0096224D01*
X0088184Y0095363D01*
X0089308Y0094898D01*
X0090525Y0094898D01*
X0090985Y0095088D01*
X0090795Y0094628D01*
X0090795Y0093411D01*
X0091260Y0092287D01*
X0092121Y0091426D01*
X0093245Y0090961D01*
X0094462Y0090961D01*
X0095586Y0091426D01*
X0096447Y0092287D01*
X0096913Y0093411D01*
X0096913Y0094628D01*
X0096447Y0095752D01*
X0095586Y0096613D01*
X0094462Y0097079D01*
X0093245Y0097079D01*
X0092785Y0096888D01*
X0092976Y0097348D01*
X0092976Y0098565D01*
X0092510Y0099690D01*
X0091649Y0100550D01*
X0090525Y0101016D01*
X0089308Y0101016D01*
X0088184Y0100550D01*
X0087323Y0099690D01*
X0087302Y0099638D01*
X0085868Y0099638D01*
X0085012Y0098781D01*
X0084636Y0099690D01*
X0083775Y0100550D01*
X0082651Y0101016D01*
X0081434Y0101016D01*
X0080310Y0100550D01*
X0079449Y0099690D01*
X0079428Y0099638D01*
X0069732Y0099638D01*
X0068747Y0098653D01*
X0061425Y0091331D01*
X0054958Y0091331D01*
X0054590Y0092220D01*
X0053314Y0093496D01*
X0051646Y0094187D01*
X0049841Y0094187D01*
X0048173Y0093496D01*
X0046897Y0092220D01*
X0046206Y0090552D01*
X0046206Y0088747D01*
X0046897Y0087079D01*
X0048173Y0085803D01*
X0049841Y0085112D01*
X0051646Y0085112D01*
X0053314Y0085803D01*
X0054590Y0087079D01*
X0054958Y0087969D01*
X0062818Y0087969D01*
X0071125Y0096276D01*
X0076035Y0096276D01*
X0075512Y0095752D01*
X0075047Y0094628D01*
X0075047Y0093411D01*
X0075512Y0092287D01*
X0076230Y0091570D01*
X0073081Y0091570D01*
X0072096Y0090585D01*
X0062842Y0081331D01*
X0054958Y0081331D01*
X0054590Y0082220D01*
X0053314Y0083496D01*
X0051646Y0084187D01*
X0049841Y0084187D01*
X0048173Y0083496D01*
X0046897Y0082220D01*
X0046206Y0080552D01*
X0046206Y0078747D01*
X0046897Y0077079D01*
X0048173Y0075803D01*
X0049841Y0075112D01*
X0051646Y0075112D01*
X0053314Y0075803D01*
X0054590Y0077079D01*
X0054958Y0077969D01*
X0064235Y0077969D01*
X0074474Y0088207D01*
X0075841Y0088207D01*
X0075512Y0087878D01*
X0075047Y0086754D01*
X0075047Y0085537D01*
X0075068Y0085485D01*
X0060874Y0071291D01*
X0060874Y0071291D01*
X0059889Y0070307D01*
X0059889Y0041173D01*
X0052535Y0033819D01*
X0051646Y0034187D01*
X0049841Y0034187D01*
X0048173Y0033496D01*
X0046897Y0032220D01*
X0046206Y0030552D01*
X0046206Y0028747D01*
X0046897Y0027079D01*
X0048173Y0025803D01*
X0049841Y0025112D01*
X0051646Y0025112D01*
X0053314Y0025803D01*
X0054590Y0027079D01*
X0055281Y0028747D01*
X0055281Y0030552D01*
X0054912Y0031441D01*
X0055736Y0032264D01*
X0055736Y0027019D01*
X0052535Y0023819D01*
X0051646Y0024187D01*
X0049841Y0024187D01*
X0048173Y0023496D01*
X0046897Y0022220D01*
X0046206Y0020552D01*
X0046206Y0018747D01*
X0046897Y0017079D01*
X0048173Y0015803D01*
X0049841Y0015112D01*
X0051646Y0015112D01*
X0053314Y0015803D01*
X0054590Y0017079D01*
X0055281Y0018747D01*
X0055281Y0020552D01*
X0054912Y0021441D01*
X0057523Y0024052D01*
X0057523Y0015976D01*
X0054178Y0012631D01*
X0053314Y0013496D01*
X0051646Y0014187D01*
X0049841Y0014187D01*
X0048173Y0013496D01*
X0046897Y0012220D01*
X0046206Y0010552D01*
X0046206Y0008747D01*
X0046897Y0007079D01*
X0048173Y0005803D01*
X0049841Y0005112D01*
X0051646Y0005112D01*
X0053314Y0005803D01*
X0054590Y0007079D01*
X0055281Y0008747D01*
X0055281Y0008979D01*
X0055056Y0008205D02*
X0073981Y0008205D01*
X0074401Y0009203D02*
X0072220Y0009203D01*
X0072964Y0010202D02*
X0074725Y0010202D01*
X0074838Y0011200D02*
X0073208Y0011200D01*
X0073082Y0012199D02*
X0074850Y0012199D01*
X0074850Y0013197D02*
X0072504Y0013197D01*
X0070428Y0013197D02*
X0070428Y0013197D01*
X0070428Y0012199D02*
X0070428Y0012199D01*
X0068352Y0013197D02*
X0059499Y0013197D01*
X0058501Y0012199D02*
X0067775Y0012199D01*
X0067649Y0011200D02*
X0057502Y0011200D01*
X0056504Y0010202D02*
X0067892Y0010202D01*
X0070007Y0005209D02*
X0051880Y0005209D01*
X0053718Y0006208D02*
X0072130Y0006208D01*
X0073256Y0007206D02*
X0054643Y0007206D01*
X0049607Y0005209D02*
X0045414Y0005209D01*
X0045338Y0006208D02*
X0047768Y0006208D01*
X0046844Y0007206D02*
X0045338Y0007206D01*
X0045338Y0008205D02*
X0046431Y0008205D01*
X0046206Y0009203D02*
X0045338Y0009203D01*
X0045338Y0010202D02*
X0046206Y0010202D01*
X0046474Y0011200D02*
X0045338Y0011200D01*
X0045338Y0012199D02*
X0046888Y0012199D01*
X0047874Y0013197D02*
X0045338Y0013197D01*
X0045338Y0014196D02*
X0055743Y0014196D01*
X0056741Y0015194D02*
X0051844Y0015194D01*
X0053703Y0016193D02*
X0057523Y0016193D01*
X0057523Y0017191D02*
X0054636Y0017191D01*
X0055050Y0018190D02*
X0057523Y0018190D01*
X0057523Y0019188D02*
X0055281Y0019188D01*
X0055281Y0020187D02*
X0057523Y0020187D01*
X0057523Y0021185D02*
X0055018Y0021185D01*
X0055655Y0022184D02*
X0057523Y0022184D01*
X0057523Y0023182D02*
X0056654Y0023182D01*
X0053896Y0025179D02*
X0051808Y0025179D01*
X0051661Y0024181D02*
X0052897Y0024181D01*
X0053689Y0026178D02*
X0054894Y0026178D01*
X0054630Y0027176D02*
X0055736Y0027176D01*
X0055736Y0028175D02*
X0055044Y0028175D01*
X0055281Y0029173D02*
X0055736Y0029173D01*
X0055736Y0030172D02*
X0055281Y0030172D01*
X0055025Y0031171D02*
X0055736Y0031171D01*
X0055736Y0032169D02*
X0055640Y0032169D01*
X0052882Y0034166D02*
X0051697Y0034166D01*
X0051646Y0035112D02*
X0053314Y0035803D01*
X0054590Y0037079D01*
X0055281Y0038747D01*
X0055281Y0040552D01*
X0054590Y0042220D01*
X0053314Y0043496D01*
X0051646Y0044187D01*
X0049841Y0044187D01*
X0048173Y0043496D01*
X0046897Y0042220D01*
X0046206Y0040552D01*
X0046206Y0038747D01*
X0046897Y0037079D01*
X0048173Y0035803D01*
X0049841Y0035112D01*
X0051646Y0035112D01*
X0051772Y0035165D02*
X0053881Y0035165D01*
X0053674Y0036163D02*
X0054879Y0036163D01*
X0054624Y0037162D02*
X0055878Y0037162D01*
X0055038Y0038160D02*
X0056876Y0038160D01*
X0057875Y0039159D02*
X0055281Y0039159D01*
X0055281Y0040157D02*
X0058873Y0040157D01*
X0059872Y0041156D02*
X0055031Y0041156D01*
X0054617Y0042154D02*
X0059889Y0042154D01*
X0059889Y0043153D02*
X0053657Y0043153D01*
X0051732Y0044151D02*
X0059889Y0044151D01*
X0059889Y0045150D02*
X0051736Y0045150D01*
X0051646Y0045112D02*
X0053314Y0045803D01*
X0054590Y0047079D01*
X0055281Y0048747D01*
X0055281Y0050552D01*
X0054590Y0052220D01*
X0053314Y0053496D01*
X0051646Y0054187D01*
X0049841Y0054187D01*
X0048173Y0053496D01*
X0046897Y0052220D01*
X0046206Y0050552D01*
X0046206Y0048747D01*
X0046897Y0047079D01*
X0048173Y0045803D01*
X0049841Y0045112D01*
X0051646Y0045112D01*
X0053659Y0046148D02*
X0059889Y0046148D01*
X0059889Y0047147D02*
X0054618Y0047147D01*
X0055031Y0048145D02*
X0059889Y0048145D01*
X0059889Y0049144D02*
X0055281Y0049144D01*
X0055281Y0050142D02*
X0059889Y0050142D01*
X0059889Y0051141D02*
X0055037Y0051141D01*
X0054623Y0052139D02*
X0059889Y0052139D01*
X0059889Y0053138D02*
X0053672Y0053138D01*
X0051768Y0054136D02*
X0059889Y0054136D01*
X0059889Y0055135D02*
X0051700Y0055135D01*
X0051646Y0055112D02*
X0053314Y0055803D01*
X0054590Y0057079D01*
X0055281Y0058747D01*
X0055281Y0060552D01*
X0054590Y0062220D01*
X0053314Y0063496D01*
X0051646Y0064187D01*
X0049841Y0064187D01*
X0048173Y0063496D01*
X0046897Y0062220D01*
X0046206Y0060552D01*
X0046206Y0058747D01*
X0046897Y0057079D01*
X0048173Y0055803D01*
X0049841Y0055112D01*
X0051646Y0055112D01*
X0053644Y0056133D02*
X0059889Y0056133D01*
X0059889Y0057132D02*
X0054612Y0057132D01*
X0055025Y0058130D02*
X0059889Y0058130D01*
X0059889Y0059129D02*
X0055281Y0059129D01*
X0055281Y0060127D02*
X0059889Y0060127D01*
X0059889Y0061126D02*
X0055043Y0061126D01*
X0054630Y0062124D02*
X0059889Y0062124D01*
X0059889Y0063123D02*
X0053687Y0063123D01*
X0051804Y0064121D02*
X0059889Y0064121D01*
X0059889Y0065120D02*
X0051664Y0065120D01*
X0051646Y0065112D02*
X0053314Y0065803D01*
X0054590Y0067079D01*
X0055281Y0068747D01*
X0055281Y0070552D01*
X0054590Y0072220D01*
X0053314Y0073496D01*
X0051646Y0074187D01*
X0049841Y0074187D01*
X0048173Y0073496D01*
X0046897Y0072220D01*
X0046206Y0070552D01*
X0046206Y0068747D01*
X0046897Y0067079D01*
X0048173Y0065803D01*
X0049841Y0065112D01*
X0051646Y0065112D01*
X0053629Y0066118D02*
X0059889Y0066118D01*
X0059889Y0067117D02*
X0054606Y0067117D01*
X0055019Y0068115D02*
X0059889Y0068115D01*
X0059889Y0069114D02*
X0055281Y0069114D01*
X0055281Y0070112D02*
X0059889Y0070112D01*
X0060693Y0071111D02*
X0055049Y0071111D01*
X0054636Y0072109D02*
X0061692Y0072109D01*
X0062690Y0073108D02*
X0053702Y0073108D01*
X0051840Y0074106D02*
X0063689Y0074106D01*
X0064687Y0075105D02*
X0045338Y0075105D01*
X0045338Y0074106D02*
X0049646Y0074106D01*
X0047785Y0073108D02*
X0045338Y0073108D01*
X0045338Y0072109D02*
X0046851Y0072109D01*
X0046437Y0071111D02*
X0045338Y0071111D01*
X0045338Y0070112D02*
X0046206Y0070112D01*
X0046206Y0069114D02*
X0045338Y0069114D01*
X0045338Y0068115D02*
X0046468Y0068115D01*
X0046881Y0067117D02*
X0045338Y0067117D01*
X0045338Y0066118D02*
X0047858Y0066118D01*
X0049822Y0065120D02*
X0045338Y0065120D01*
X0045338Y0064121D02*
X0049682Y0064121D01*
X0047800Y0063123D02*
X0045338Y0063123D01*
X0045338Y0062124D02*
X0046857Y0062124D01*
X0046444Y0061126D02*
X0045338Y0061126D01*
X0045338Y0060127D02*
X0046206Y0060127D01*
X0046206Y0059129D02*
X0045338Y0059129D01*
X0045338Y0058130D02*
X0046461Y0058130D01*
X0046875Y0057132D02*
X0045338Y0057132D01*
X0045338Y0056133D02*
X0047843Y0056133D01*
X0049786Y0055135D02*
X0045338Y0055135D01*
X0045338Y0054136D02*
X0049718Y0054136D01*
X0047815Y0053138D02*
X0045338Y0053138D01*
X0045338Y0052139D02*
X0046863Y0052139D01*
X0046450Y0051141D02*
X0045338Y0051141D01*
X0045338Y0050142D02*
X0046206Y0050142D01*
X0046206Y0049144D02*
X0045338Y0049144D01*
X0045338Y0048145D02*
X0046455Y0048145D01*
X0046869Y0047147D02*
X0045338Y0047147D01*
X0045338Y0046148D02*
X0047828Y0046148D01*
X0049750Y0045150D02*
X0045338Y0045150D01*
X0045338Y0044151D02*
X0049754Y0044151D01*
X0047830Y0043153D02*
X0045338Y0043153D01*
X0045338Y0042154D02*
X0046870Y0042154D01*
X0046456Y0041156D02*
X0045338Y0041156D01*
X0045338Y0040157D02*
X0046206Y0040157D01*
X0046206Y0039159D02*
X0045338Y0039159D01*
X0045338Y0038160D02*
X0046449Y0038160D01*
X0046863Y0037162D02*
X0045338Y0037162D01*
X0045338Y0036163D02*
X0047813Y0036163D01*
X0049714Y0035165D02*
X0045338Y0035165D01*
X0045338Y0034166D02*
X0049790Y0034166D01*
X0047844Y0033168D02*
X0045338Y0033168D01*
X0045338Y0032169D02*
X0046876Y0032169D01*
X0046462Y0031171D02*
X0045338Y0031171D01*
X0045338Y0030172D02*
X0046206Y0030172D01*
X0046206Y0029173D02*
X0045338Y0029173D01*
X0045338Y0028175D02*
X0046443Y0028175D01*
X0046857Y0027176D02*
X0045338Y0027176D01*
X0045338Y0026178D02*
X0047798Y0026178D01*
X0049678Y0025179D02*
X0045338Y0025179D01*
X0045338Y0024181D02*
X0049826Y0024181D01*
X0047859Y0023182D02*
X0045338Y0023182D01*
X0045338Y0022184D02*
X0046882Y0022184D01*
X0046468Y0021185D02*
X0045338Y0021185D01*
X0045338Y0020187D02*
X0046206Y0020187D01*
X0046206Y0019188D02*
X0045338Y0019188D01*
X0045338Y0018190D02*
X0046437Y0018190D01*
X0046850Y0017191D02*
X0045338Y0017191D01*
X0045338Y0016193D02*
X0047783Y0016193D01*
X0049643Y0015194D02*
X0045338Y0015194D01*
X0053613Y0013197D02*
X0054744Y0013197D01*
X0060498Y0014196D02*
X0074850Y0014196D01*
X0074850Y0015194D02*
X0060885Y0015194D01*
X0060885Y0016193D02*
X0074850Y0016193D01*
X0074850Y0017191D02*
X0060885Y0017191D01*
X0060885Y0018190D02*
X0074850Y0018190D01*
X0074850Y0019188D02*
X0060885Y0019188D01*
X0060885Y0020187D02*
X0074850Y0020187D01*
X0074850Y0021185D02*
X0060885Y0021185D01*
X0060885Y0022184D02*
X0074850Y0022184D01*
X0074850Y0023182D02*
X0060885Y0023182D01*
X0060885Y0024181D02*
X0074850Y0024181D01*
X0074850Y0025179D02*
X0060885Y0025179D01*
X0060885Y0026178D02*
X0074850Y0026178D01*
X0074850Y0027176D02*
X0060885Y0027176D01*
X0060885Y0028175D02*
X0074850Y0028175D01*
X0074850Y0029173D02*
X0060885Y0029173D01*
X0060885Y0030172D02*
X0074850Y0030172D01*
X0074850Y0031171D02*
X0060885Y0031171D01*
X0060885Y0032169D02*
X0074850Y0032169D01*
X0074850Y0033168D02*
X0061694Y0033168D01*
X0062693Y0034166D02*
X0074850Y0034166D01*
X0074850Y0035165D02*
X0063691Y0035165D01*
X0064690Y0036163D02*
X0074850Y0036163D01*
X0074850Y0037162D02*
X0065688Y0037162D01*
X0066687Y0038160D02*
X0074850Y0038160D01*
X0074850Y0039159D02*
X0066826Y0039159D01*
X0066826Y0040157D02*
X0074850Y0040157D01*
X0074850Y0041156D02*
X0066826Y0041156D01*
X0066826Y0042154D02*
X0074850Y0042154D01*
X0074850Y0043153D02*
X0066826Y0043153D01*
X0066826Y0044151D02*
X0074850Y0044151D01*
X0074850Y0045150D02*
X0066826Y0045150D01*
X0066826Y0046148D02*
X0074850Y0046148D01*
X0074850Y0047147D02*
X0068377Y0047147D01*
X0067047Y0047147D02*
X0066826Y0047147D01*
X0069838Y0048145D02*
X0074850Y0048145D01*
X0074850Y0049144D02*
X0070279Y0049144D01*
X0070279Y0050142D02*
X0074850Y0050142D01*
X0074850Y0051141D02*
X0069851Y0051141D01*
X0069393Y0052139D02*
X0074850Y0052139D01*
X0074850Y0053138D02*
X0069393Y0053138D01*
X0069393Y0054136D02*
X0075006Y0054136D01*
X0075419Y0055135D02*
X0069393Y0055135D01*
X0069393Y0056133D02*
X0076056Y0056133D01*
X0077055Y0057132D02*
X0069393Y0057132D01*
X0069393Y0058130D02*
X0082058Y0058130D01*
X0082724Y0059129D02*
X0069393Y0059129D01*
X0070213Y0060127D02*
X0071163Y0060127D01*
X0073129Y0061791D02*
X0073129Y0061930D01*
X0075701Y0062124D02*
X0082724Y0062124D01*
X0082724Y0061126D02*
X0075632Y0061126D01*
X0075096Y0060127D02*
X0082724Y0060127D01*
X0082724Y0063123D02*
X0076699Y0063123D01*
X0077698Y0064121D02*
X0082724Y0064121D01*
X0082724Y0065120D02*
X0078696Y0065120D01*
X0079695Y0066118D02*
X0082724Y0066118D01*
X0082724Y0067117D02*
X0080693Y0067117D01*
X0081631Y0068115D02*
X0082724Y0068115D01*
X0082724Y0069114D02*
X0081631Y0069114D01*
X0081631Y0070112D02*
X0082724Y0070112D01*
X0082724Y0071111D02*
X0082548Y0071111D01*
X0088332Y0076020D02*
X0089866Y0077554D01*
X0091815Y0077554D01*
X0092800Y0078539D01*
X0094550Y0080289D01*
X0094550Y0083123D01*
X0095586Y0083552D01*
X0096447Y0084413D01*
X0096913Y0085537D01*
X0096913Y0086754D01*
X0096447Y0087878D01*
X0095586Y0088739D01*
X0094462Y0089205D01*
X0093245Y0089205D01*
X0092121Y0088739D01*
X0091260Y0087878D01*
X0090795Y0086754D01*
X0090795Y0085537D01*
X0090985Y0085077D01*
X0090525Y0085268D01*
X0089308Y0085268D01*
X0088184Y0084802D01*
X0087323Y0083941D01*
X0086858Y0082817D01*
X0086858Y0081600D01*
X0086879Y0081548D01*
X0086676Y0081346D01*
X0086676Y0084107D01*
X0087712Y0084537D01*
X0088573Y0085397D01*
X0089039Y0086521D01*
X0089039Y0087738D01*
X0088573Y0088863D01*
X0087712Y0089723D01*
X0086845Y0090083D01*
X0088352Y0091081D02*
X0092954Y0091081D01*
X0094753Y0091081D02*
X0100375Y0091081D01*
X0100440Y0090083D02*
X0100440Y0090083D01*
X0100318Y0088221D01*
X0099354Y0084624D01*
X0097493Y0081399D01*
X0097493Y0081399D01*
X0094860Y0078766D01*
X0091635Y0076905D01*
X0088332Y0076020D01*
X0088416Y0076104D02*
X0088645Y0076104D01*
X0089415Y0077102D02*
X0091977Y0077102D01*
X0092362Y0078101D02*
X0093706Y0078101D01*
X0093360Y0079099D02*
X0095192Y0079099D01*
X0094359Y0080098D02*
X0096191Y0080098D01*
X0097189Y0081096D02*
X0094550Y0081096D01*
X0094550Y0082095D02*
X0097894Y0082095D01*
X0098471Y0083093D02*
X0094550Y0083093D01*
X0096126Y0084092D02*
X0099047Y0084092D01*
X0099479Y0085090D02*
X0096727Y0085090D01*
X0096913Y0086089D02*
X0099747Y0086089D01*
X0100014Y0087087D02*
X0096775Y0087087D01*
X0096240Y0088086D02*
X0100282Y0088086D01*
X0100375Y0089084D02*
X0094753Y0089084D01*
X0092954Y0089084D02*
X0088352Y0089084D01*
X0088895Y0088086D02*
X0091467Y0088086D01*
X0090933Y0087087D02*
X0089039Y0087087D01*
X0088859Y0086089D02*
X0090795Y0086089D01*
X0090954Y0085090D02*
X0090980Y0085090D01*
X0088879Y0085090D02*
X0088266Y0085090D01*
X0087473Y0084092D02*
X0086676Y0084092D01*
X0086676Y0083093D02*
X0086972Y0083093D01*
X0086858Y0082095D02*
X0086676Y0082095D01*
X0088895Y0092080D02*
X0091467Y0092080D01*
X0090932Y0093078D02*
X0089039Y0093078D01*
X0088859Y0094077D02*
X0090795Y0094077D01*
X0090954Y0095075D02*
X0090980Y0095075D01*
X0088879Y0095075D02*
X0088266Y0095075D01*
X0087473Y0096074D02*
X0087059Y0096074D01*
X0085300Y0099069D02*
X0084893Y0099069D01*
X0084258Y0100068D02*
X0087702Y0100068D01*
X0088645Y0104062D02*
X0054652Y0104062D01*
X0054527Y0104187D02*
X0046960Y0104187D01*
X0046206Y0103433D01*
X0046206Y0095866D01*
X0046960Y0095112D01*
X0054527Y0095112D01*
X0055281Y0095866D01*
X0055281Y0103433D01*
X0054527Y0104187D01*
X0055281Y0103063D02*
X0064714Y0103063D01*
X0064720Y0103068D02*
X0064332Y0102681D01*
X0064028Y0102226D01*
X0063819Y0101720D01*
X0063712Y0101183D01*
X0063712Y0100909D01*
X0063712Y0100636D01*
X0063819Y0100099D01*
X0064028Y0099593D01*
X0064332Y0099138D01*
X0064720Y0098750D01*
X0065175Y0098446D01*
X0065681Y0098237D01*
X0066218Y0098130D01*
X0066491Y0098130D01*
X0066491Y0100909D01*
X0066491Y0100909D01*
X0063712Y0100909D01*
X0066491Y0100909D01*
X0066491Y0100909D01*
X0066491Y0098130D01*
X0066765Y0098130D01*
X0067302Y0098237D01*
X0067808Y0098446D01*
X0068263Y0098750D01*
X0068650Y0099138D01*
X0068955Y0099593D01*
X0069164Y0100099D01*
X0069271Y0100636D01*
X0069271Y0100909D01*
X0066492Y0100909D01*
X0066492Y0100909D01*
X0069271Y0100909D01*
X0069271Y0101183D01*
X0069164Y0101720D01*
X0068955Y0102226D01*
X0068650Y0102681D01*
X0068263Y0103068D01*
X0067808Y0103373D01*
X0067302Y0103582D01*
X0066765Y0103689D01*
X0066491Y0103689D01*
X0066218Y0103689D01*
X0065681Y0103582D01*
X0065175Y0103373D01*
X0064720Y0103068D01*
X0063961Y0102065D02*
X0055281Y0102065D01*
X0055281Y0101066D02*
X0063712Y0101066D01*
X0063831Y0100068D02*
X0055281Y0100068D01*
X0055281Y0099069D02*
X0064401Y0099069D01*
X0066491Y0099069D02*
X0066491Y0099069D01*
X0066491Y0100068D02*
X0066491Y0100068D01*
X0066491Y0100910D02*
X0066491Y0103689D01*
X0066491Y0100910D01*
X0066491Y0100910D01*
X0066491Y0101066D02*
X0066491Y0101066D01*
X0066491Y0102065D02*
X0066491Y0102065D01*
X0066491Y0103063D02*
X0066491Y0103063D01*
X0068268Y0103063D02*
X0091977Y0103063D01*
X0093706Y0102065D02*
X0069021Y0102065D01*
X0069271Y0101066D02*
X0095192Y0101066D01*
X0096191Y0100068D02*
X0092132Y0100068D01*
X0092767Y0099069D02*
X0097189Y0099069D01*
X0097894Y0098071D02*
X0092976Y0098071D01*
X0092861Y0097072D02*
X0093230Y0097072D01*
X0094478Y0097072D02*
X0098470Y0097072D01*
X0099047Y0096074D02*
X0096126Y0096074D01*
X0096727Y0095075D02*
X0099479Y0095075D01*
X0099747Y0094077D02*
X0096913Y0094077D01*
X0096775Y0093078D02*
X0100014Y0093078D01*
X0100282Y0092080D02*
X0096240Y0092080D01*
X0079828Y0100068D02*
X0069151Y0100068D01*
X0069164Y0099069D02*
X0068582Y0099069D01*
X0068165Y0098071D02*
X0055281Y0098071D01*
X0055281Y0097072D02*
X0067167Y0097072D01*
X0066168Y0096074D02*
X0055281Y0096074D01*
X0053732Y0093078D02*
X0063173Y0093078D01*
X0064171Y0094077D02*
X0051912Y0094077D01*
X0049575Y0094077D02*
X0045338Y0094077D01*
X0045338Y0095075D02*
X0065170Y0095075D01*
X0066929Y0092080D02*
X0075719Y0092080D01*
X0075184Y0093078D02*
X0067927Y0093078D01*
X0068926Y0094077D02*
X0075047Y0094077D01*
X0075232Y0095075D02*
X0069924Y0095075D01*
X0070923Y0096074D02*
X0075834Y0096074D01*
X0072593Y0091081D02*
X0065930Y0091081D01*
X0064932Y0090083D02*
X0071594Y0090083D01*
X0070596Y0089084D02*
X0063933Y0089084D01*
X0062935Y0088086D02*
X0069597Y0088086D01*
X0068599Y0087087D02*
X0054593Y0087087D01*
X0053599Y0086089D02*
X0067600Y0086089D01*
X0066602Y0085090D02*
X0045338Y0085090D01*
X0045338Y0084092D02*
X0049611Y0084092D01*
X0047770Y0083093D02*
X0045338Y0083093D01*
X0045338Y0082095D02*
X0046845Y0082095D01*
X0046431Y0081096D02*
X0045338Y0081096D01*
X0045338Y0080098D02*
X0046206Y0080098D01*
X0046206Y0079099D02*
X0045338Y0079099D01*
X0045338Y0078101D02*
X0046474Y0078101D01*
X0046887Y0077102D02*
X0045338Y0077102D01*
X0045338Y0076104D02*
X0047873Y0076104D01*
X0053614Y0076104D02*
X0065686Y0076104D01*
X0066685Y0077102D02*
X0054599Y0077102D01*
X0054642Y0082095D02*
X0063606Y0082095D01*
X0064605Y0083093D02*
X0053717Y0083093D01*
X0051876Y0084092D02*
X0065603Y0084092D01*
X0068361Y0082095D02*
X0071677Y0082095D01*
X0072676Y0083093D02*
X0069360Y0083093D01*
X0070358Y0084092D02*
X0073674Y0084092D01*
X0074673Y0085090D02*
X0071357Y0085090D01*
X0072355Y0086089D02*
X0075047Y0086089D01*
X0075184Y0087087D02*
X0073354Y0087087D01*
X0074352Y0088086D02*
X0075719Y0088086D01*
X0070679Y0081096D02*
X0067363Y0081096D01*
X0066364Y0080098D02*
X0069680Y0080098D01*
X0068682Y0079099D02*
X0065366Y0079099D01*
X0064367Y0078101D02*
X0067683Y0078101D01*
X0062174Y0092080D02*
X0054648Y0092080D01*
X0047755Y0093078D02*
X0045338Y0093078D01*
X0045338Y0092080D02*
X0046839Y0092080D01*
X0046425Y0091081D02*
X0045338Y0091081D01*
X0045338Y0090083D02*
X0046206Y0090083D01*
X0046206Y0089084D02*
X0045338Y0089084D01*
X0045338Y0088086D02*
X0046480Y0088086D01*
X0046894Y0087087D02*
X0045338Y0087087D01*
X0045338Y0086089D02*
X0047887Y0086089D01*
X0046206Y0096074D02*
X0045338Y0096074D01*
X0045338Y0097072D02*
X0046206Y0097072D01*
X0046206Y0098071D02*
X0045338Y0098071D01*
X0045338Y0099069D02*
X0046206Y0099069D01*
X0046206Y0100068D02*
X0045338Y0100068D01*
X0045338Y0101066D02*
X0046206Y0101066D01*
X0046206Y0102065D02*
X0045338Y0102065D01*
X0045338Y0103063D02*
X0046206Y0103063D01*
X0046835Y0104062D02*
X0045397Y0104062D01*
X0077200Y0057277D02*
X0077200Y0057277D01*
M02*
