G75*
%MOIN*%
%OFA0B0*%
%FSLAX25Y25*%
%IPPOS*%
%LPD*%
%AMOC8*
5,1,8,0,0,1.08239X$1,22.5*
%
%ADD10C,0.00000*%
%ADD11C,0.00400*%
D10*
X0043854Y0005437D02*
X0043854Y0103862D01*
X0043853Y0103862D02*
X0043855Y0103948D01*
X0043860Y0104034D01*
X0043870Y0104119D01*
X0043883Y0104204D01*
X0043900Y0104288D01*
X0043920Y0104372D01*
X0043944Y0104454D01*
X0043972Y0104535D01*
X0044003Y0104616D01*
X0044037Y0104694D01*
X0044075Y0104771D01*
X0044117Y0104847D01*
X0044161Y0104920D01*
X0044209Y0104991D01*
X0044260Y0105061D01*
X0044314Y0105128D01*
X0044370Y0105192D01*
X0044430Y0105254D01*
X0044492Y0105314D01*
X0044556Y0105370D01*
X0044623Y0105424D01*
X0044693Y0105475D01*
X0044764Y0105523D01*
X0044838Y0105567D01*
X0044913Y0105609D01*
X0044990Y0105647D01*
X0045068Y0105681D01*
X0045149Y0105712D01*
X0045230Y0105740D01*
X0045312Y0105764D01*
X0045396Y0105784D01*
X0045480Y0105801D01*
X0045565Y0105814D01*
X0045650Y0105824D01*
X0045736Y0105829D01*
X0045822Y0105831D01*
X0086176Y0105831D01*
X0101924Y0090083D02*
X0101919Y0089702D01*
X0101906Y0089322D01*
X0101883Y0088942D01*
X0101850Y0088563D01*
X0101809Y0088185D01*
X0101759Y0087808D01*
X0101699Y0087432D01*
X0101631Y0087057D01*
X0101553Y0086685D01*
X0101466Y0086314D01*
X0101371Y0085946D01*
X0101266Y0085580D01*
X0101153Y0085217D01*
X0101031Y0084856D01*
X0100901Y0084499D01*
X0100761Y0084145D01*
X0100614Y0083794D01*
X0100457Y0083447D01*
X0100293Y0083104D01*
X0100120Y0082765D01*
X0099939Y0082430D01*
X0099750Y0082099D01*
X0099553Y0081774D01*
X0099349Y0081453D01*
X0099136Y0081137D01*
X0098916Y0080827D01*
X0098689Y0080521D01*
X0098454Y0080222D01*
X0098212Y0079928D01*
X0097964Y0079640D01*
X0097708Y0079358D01*
X0097445Y0079083D01*
X0097176Y0078814D01*
X0096901Y0078551D01*
X0096619Y0078295D01*
X0096331Y0078047D01*
X0096037Y0077805D01*
X0095738Y0077570D01*
X0095432Y0077343D01*
X0095122Y0077123D01*
X0094806Y0076910D01*
X0094485Y0076706D01*
X0094160Y0076509D01*
X0093829Y0076320D01*
X0093494Y0076139D01*
X0093155Y0075966D01*
X0092812Y0075802D01*
X0092465Y0075645D01*
X0092114Y0075498D01*
X0091760Y0075358D01*
X0091403Y0075228D01*
X0091042Y0075106D01*
X0090679Y0074993D01*
X0090313Y0074888D01*
X0089945Y0074793D01*
X0089574Y0074706D01*
X0089202Y0074628D01*
X0088827Y0074560D01*
X0088451Y0074500D01*
X0088074Y0074450D01*
X0087696Y0074409D01*
X0087317Y0074376D01*
X0086937Y0074353D01*
X0086557Y0074340D01*
X0086176Y0074335D01*
X0086090Y0074333D01*
X0086004Y0074328D01*
X0085919Y0074318D01*
X0085834Y0074305D01*
X0085750Y0074288D01*
X0085666Y0074268D01*
X0085584Y0074244D01*
X0085503Y0074216D01*
X0085422Y0074185D01*
X0085344Y0074151D01*
X0085267Y0074113D01*
X0085192Y0074071D01*
X0085118Y0074027D01*
X0085047Y0073979D01*
X0084977Y0073928D01*
X0084910Y0073874D01*
X0084846Y0073818D01*
X0084784Y0073758D01*
X0084724Y0073696D01*
X0084668Y0073632D01*
X0084614Y0073565D01*
X0084563Y0073495D01*
X0084515Y0073424D01*
X0084471Y0073351D01*
X0084429Y0073275D01*
X0084391Y0073198D01*
X0084357Y0073120D01*
X0084326Y0073039D01*
X0084298Y0072958D01*
X0084274Y0072876D01*
X0084254Y0072792D01*
X0084237Y0072708D01*
X0084224Y0072623D01*
X0084214Y0072538D01*
X0084209Y0072452D01*
X0084207Y0072366D01*
X0084208Y0072366D02*
X0084208Y0058980D01*
X0084206Y0058885D01*
X0084200Y0058790D01*
X0084191Y0058695D01*
X0084177Y0058601D01*
X0084160Y0058508D01*
X0084139Y0058415D01*
X0084115Y0058323D01*
X0084086Y0058232D01*
X0084055Y0058142D01*
X0084019Y0058054D01*
X0083980Y0057967D01*
X0083937Y0057882D01*
X0083892Y0057799D01*
X0083842Y0057718D01*
X0083790Y0057638D01*
X0083734Y0057561D01*
X0083676Y0057486D01*
X0083614Y0057414D01*
X0083549Y0057344D01*
X0083482Y0057277D01*
X0083412Y0057212D01*
X0083340Y0057150D01*
X0083265Y0057092D01*
X0083188Y0057036D01*
X0083108Y0056984D01*
X0083027Y0056934D01*
X0082944Y0056889D01*
X0082859Y0056846D01*
X0082772Y0056807D01*
X0082684Y0056771D01*
X0082594Y0056740D01*
X0082503Y0056711D01*
X0082411Y0056687D01*
X0082318Y0056666D01*
X0082225Y0056649D01*
X0082131Y0056635D01*
X0082036Y0056626D01*
X0081941Y0056620D01*
X0081846Y0056618D01*
X0080271Y0056618D01*
X0080147Y0056616D01*
X0080024Y0056610D01*
X0079900Y0056601D01*
X0079778Y0056587D01*
X0079655Y0056570D01*
X0079533Y0056548D01*
X0079412Y0056523D01*
X0079292Y0056494D01*
X0079173Y0056462D01*
X0079054Y0056425D01*
X0078937Y0056385D01*
X0078822Y0056342D01*
X0078707Y0056294D01*
X0078595Y0056243D01*
X0078484Y0056189D01*
X0078374Y0056131D01*
X0078267Y0056070D01*
X0078161Y0056005D01*
X0078058Y0055937D01*
X0077957Y0055866D01*
X0077858Y0055792D01*
X0077761Y0055715D01*
X0077667Y0055634D01*
X0077576Y0055551D01*
X0077487Y0055465D01*
X0077401Y0055376D01*
X0077318Y0055285D01*
X0077237Y0055191D01*
X0077160Y0055094D01*
X0077086Y0054995D01*
X0077015Y0054894D01*
X0076947Y0054791D01*
X0076882Y0054685D01*
X0076821Y0054578D01*
X0076763Y0054468D01*
X0076709Y0054357D01*
X0076658Y0054245D01*
X0076610Y0054130D01*
X0076567Y0054015D01*
X0076527Y0053898D01*
X0076490Y0053779D01*
X0076458Y0053660D01*
X0076429Y0053540D01*
X0076404Y0053419D01*
X0076382Y0053297D01*
X0076365Y0053174D01*
X0076351Y0053052D01*
X0076342Y0052928D01*
X0076336Y0052805D01*
X0076334Y0052681D01*
X0076334Y0011343D01*
X0076332Y0011153D01*
X0076325Y0010963D01*
X0076313Y0010773D01*
X0076297Y0010583D01*
X0076277Y0010394D01*
X0076251Y0010205D01*
X0076222Y0010017D01*
X0076187Y0009830D01*
X0076148Y0009644D01*
X0076105Y0009459D01*
X0076057Y0009274D01*
X0076005Y0009091D01*
X0075949Y0008910D01*
X0075888Y0008730D01*
X0075822Y0008551D01*
X0075753Y0008374D01*
X0075679Y0008198D01*
X0075601Y0008025D01*
X0075518Y0007853D01*
X0075432Y0007684D01*
X0075342Y0007516D01*
X0075247Y0007351D01*
X0075149Y0007188D01*
X0075046Y0007028D01*
X0074940Y0006870D01*
X0074830Y0006715D01*
X0074717Y0006562D01*
X0074599Y0006412D01*
X0074478Y0006266D01*
X0074354Y0006122D01*
X0074226Y0005981D01*
X0074095Y0005843D01*
X0073960Y0005708D01*
X0073822Y0005577D01*
X0073681Y0005449D01*
X0073537Y0005325D01*
X0073391Y0005204D01*
X0073241Y0005086D01*
X0073088Y0004973D01*
X0072933Y0004863D01*
X0072775Y0004757D01*
X0072615Y0004654D01*
X0072452Y0004556D01*
X0072287Y0004461D01*
X0072119Y0004371D01*
X0071950Y0004285D01*
X0071778Y0004202D01*
X0071605Y0004124D01*
X0071429Y0004050D01*
X0071252Y0003981D01*
X0071073Y0003915D01*
X0070893Y0003854D01*
X0070712Y0003798D01*
X0070529Y0003746D01*
X0070344Y0003698D01*
X0070159Y0003655D01*
X0069973Y0003616D01*
X0069786Y0003581D01*
X0069598Y0003552D01*
X0069409Y0003526D01*
X0069220Y0003506D01*
X0069030Y0003490D01*
X0068840Y0003478D01*
X0068650Y0003471D01*
X0068460Y0003469D01*
X0045822Y0003469D01*
X0045822Y0003468D02*
X0045736Y0003470D01*
X0045650Y0003475D01*
X0045565Y0003485D01*
X0045480Y0003498D01*
X0045396Y0003515D01*
X0045312Y0003535D01*
X0045230Y0003559D01*
X0045149Y0003587D01*
X0045068Y0003618D01*
X0044990Y0003652D01*
X0044913Y0003690D01*
X0044838Y0003732D01*
X0044764Y0003776D01*
X0044693Y0003824D01*
X0044623Y0003875D01*
X0044556Y0003929D01*
X0044492Y0003985D01*
X0044430Y0004045D01*
X0044370Y0004107D01*
X0044314Y0004171D01*
X0044260Y0004238D01*
X0044209Y0004308D01*
X0044161Y0004379D01*
X0044117Y0004453D01*
X0044075Y0004528D01*
X0044037Y0004605D01*
X0044003Y0004683D01*
X0043972Y0004764D01*
X0043944Y0004845D01*
X0043920Y0004927D01*
X0043900Y0005011D01*
X0043883Y0005095D01*
X0043870Y0005180D01*
X0043860Y0005265D01*
X0043855Y0005351D01*
X0043853Y0005437D01*
X0101924Y0090083D02*
X0101919Y0090464D01*
X0101906Y0090844D01*
X0101883Y0091224D01*
X0101850Y0091603D01*
X0101809Y0091981D01*
X0101759Y0092358D01*
X0101699Y0092734D01*
X0101631Y0093109D01*
X0101553Y0093481D01*
X0101466Y0093852D01*
X0101371Y0094220D01*
X0101266Y0094586D01*
X0101153Y0094949D01*
X0101031Y0095310D01*
X0100901Y0095667D01*
X0100761Y0096021D01*
X0100614Y0096372D01*
X0100457Y0096719D01*
X0100293Y0097062D01*
X0100120Y0097401D01*
X0099939Y0097736D01*
X0099750Y0098067D01*
X0099553Y0098392D01*
X0099349Y0098713D01*
X0099136Y0099029D01*
X0098916Y0099339D01*
X0098689Y0099645D01*
X0098454Y0099944D01*
X0098212Y0100238D01*
X0097964Y0100526D01*
X0097708Y0100808D01*
X0097445Y0101083D01*
X0097176Y0101352D01*
X0096901Y0101615D01*
X0096619Y0101871D01*
X0096331Y0102119D01*
X0096037Y0102361D01*
X0095738Y0102596D01*
X0095432Y0102823D01*
X0095122Y0103043D01*
X0094806Y0103256D01*
X0094485Y0103460D01*
X0094160Y0103657D01*
X0093829Y0103846D01*
X0093494Y0104027D01*
X0093155Y0104200D01*
X0092812Y0104364D01*
X0092465Y0104521D01*
X0092114Y0104668D01*
X0091760Y0104808D01*
X0091403Y0104938D01*
X0091042Y0105060D01*
X0090679Y0105173D01*
X0090313Y0105278D01*
X0089945Y0105373D01*
X0089574Y0105460D01*
X0089202Y0105538D01*
X0088827Y0105606D01*
X0088451Y0105666D01*
X0088074Y0105716D01*
X0087696Y0105757D01*
X0087317Y0105790D01*
X0086937Y0105813D01*
X0086557Y0105826D01*
X0086176Y0105831D01*
D11*
X0070228Y0093477D02*
X0065028Y0093477D01*
X0065028Y0095788D02*
X0067628Y0095788D01*
X0067628Y0095789D02*
X0067685Y0095787D01*
X0067741Y0095782D01*
X0067797Y0095772D01*
X0067852Y0095759D01*
X0067907Y0095743D01*
X0067960Y0095723D01*
X0068011Y0095700D01*
X0068062Y0095673D01*
X0068110Y0095643D01*
X0068156Y0095610D01*
X0068200Y0095574D01*
X0068241Y0095535D01*
X0068280Y0095494D01*
X0068316Y0095450D01*
X0068349Y0095404D01*
X0068379Y0095356D01*
X0068406Y0095305D01*
X0068429Y0095254D01*
X0068449Y0095201D01*
X0068465Y0095146D01*
X0068478Y0095091D01*
X0068488Y0095035D01*
X0068493Y0094979D01*
X0068495Y0094922D01*
X0068495Y0093477D01*
X0068495Y0091710D02*
X0067917Y0091710D01*
X0068495Y0091710D02*
X0068495Y0089977D01*
X0065028Y0089977D01*
X0065028Y0086737D02*
X0068495Y0087892D01*
X0068495Y0085581D02*
X0065028Y0086737D01*
X0066184Y0083692D02*
X0067340Y0083692D01*
X0067340Y0083693D02*
X0067407Y0083691D01*
X0067474Y0083685D01*
X0067541Y0083675D01*
X0067607Y0083662D01*
X0067672Y0083644D01*
X0067735Y0083623D01*
X0067798Y0083598D01*
X0067859Y0083570D01*
X0067918Y0083538D01*
X0067975Y0083503D01*
X0068030Y0083464D01*
X0068083Y0083423D01*
X0068133Y0083378D01*
X0068181Y0083330D01*
X0068226Y0083280D01*
X0068267Y0083227D01*
X0068306Y0083172D01*
X0068341Y0083115D01*
X0068373Y0083056D01*
X0068401Y0082995D01*
X0068426Y0082932D01*
X0068447Y0082869D01*
X0068465Y0082804D01*
X0068478Y0082738D01*
X0068488Y0082671D01*
X0068494Y0082604D01*
X0068496Y0082537D01*
X0068494Y0082470D01*
X0068488Y0082403D01*
X0068478Y0082336D01*
X0068465Y0082270D01*
X0068447Y0082205D01*
X0068426Y0082142D01*
X0068401Y0082079D01*
X0068373Y0082018D01*
X0068341Y0081959D01*
X0068306Y0081902D01*
X0068267Y0081847D01*
X0068226Y0081794D01*
X0068181Y0081744D01*
X0068133Y0081696D01*
X0068083Y0081651D01*
X0068030Y0081610D01*
X0067975Y0081571D01*
X0067918Y0081536D01*
X0067859Y0081504D01*
X0067798Y0081476D01*
X0067735Y0081451D01*
X0067672Y0081430D01*
X0067607Y0081412D01*
X0067541Y0081399D01*
X0067474Y0081389D01*
X0067407Y0081383D01*
X0067340Y0081381D01*
X0066184Y0081381D01*
X0066117Y0081383D01*
X0066050Y0081389D01*
X0065983Y0081399D01*
X0065917Y0081412D01*
X0065852Y0081430D01*
X0065789Y0081451D01*
X0065726Y0081476D01*
X0065665Y0081504D01*
X0065606Y0081536D01*
X0065549Y0081571D01*
X0065494Y0081610D01*
X0065441Y0081651D01*
X0065391Y0081696D01*
X0065343Y0081744D01*
X0065298Y0081794D01*
X0065257Y0081847D01*
X0065218Y0081902D01*
X0065183Y0081959D01*
X0065151Y0082018D01*
X0065123Y0082079D01*
X0065098Y0082142D01*
X0065077Y0082205D01*
X0065059Y0082270D01*
X0065046Y0082336D01*
X0065036Y0082403D01*
X0065030Y0082470D01*
X0065028Y0082537D01*
X0065030Y0082604D01*
X0065036Y0082671D01*
X0065046Y0082738D01*
X0065059Y0082804D01*
X0065077Y0082869D01*
X0065098Y0082932D01*
X0065123Y0082995D01*
X0065151Y0083056D01*
X0065183Y0083115D01*
X0065218Y0083172D01*
X0065257Y0083227D01*
X0065298Y0083280D01*
X0065343Y0083330D01*
X0065391Y0083378D01*
X0065441Y0083423D01*
X0065494Y0083464D01*
X0065549Y0083503D01*
X0065606Y0083538D01*
X0065665Y0083570D01*
X0065726Y0083598D01*
X0065789Y0083623D01*
X0065852Y0083644D01*
X0065917Y0083662D01*
X0065983Y0083675D01*
X0066050Y0083685D01*
X0066117Y0083691D01*
X0066184Y0083693D01*
X0064162Y0079262D02*
X0068495Y0079262D01*
X0069940Y0079407D02*
X0069940Y0079118D01*
X0070228Y0079118D01*
X0070228Y0079407D01*
X0069940Y0079407D01*
X0067340Y0077308D02*
X0066762Y0077308D01*
X0066762Y0074997D01*
X0067340Y0074997D02*
X0065895Y0074997D01*
X0065838Y0074999D01*
X0065782Y0075004D01*
X0065726Y0075014D01*
X0065671Y0075027D01*
X0065616Y0075043D01*
X0065563Y0075063D01*
X0065512Y0075086D01*
X0065462Y0075113D01*
X0065413Y0075143D01*
X0065367Y0075176D01*
X0065323Y0075212D01*
X0065282Y0075251D01*
X0065243Y0075292D01*
X0065207Y0075336D01*
X0065174Y0075382D01*
X0065144Y0075431D01*
X0065117Y0075481D01*
X0065094Y0075532D01*
X0065074Y0075585D01*
X0065058Y0075640D01*
X0065045Y0075695D01*
X0065035Y0075751D01*
X0065030Y0075807D01*
X0065028Y0075864D01*
X0065028Y0077308D01*
X0063295Y0078396D02*
X0063297Y0078453D01*
X0063302Y0078509D01*
X0063312Y0078565D01*
X0063325Y0078620D01*
X0063341Y0078675D01*
X0063361Y0078728D01*
X0063384Y0078779D01*
X0063411Y0078830D01*
X0063441Y0078878D01*
X0063474Y0078924D01*
X0063510Y0078968D01*
X0063549Y0079009D01*
X0063590Y0079048D01*
X0063634Y0079084D01*
X0063680Y0079117D01*
X0063729Y0079147D01*
X0063779Y0079174D01*
X0063830Y0079197D01*
X0063883Y0079217D01*
X0063938Y0079233D01*
X0063993Y0079246D01*
X0064049Y0079256D01*
X0064105Y0079261D01*
X0064162Y0079263D01*
X0063295Y0078396D02*
X0063295Y0078107D01*
X0061828Y0081261D02*
X0056628Y0081261D01*
X0056628Y0083572D02*
X0059084Y0082272D01*
X0058362Y0081261D02*
X0060095Y0083572D01*
X0058940Y0085405D02*
X0057784Y0085405D01*
X0057784Y0085404D02*
X0057717Y0085406D01*
X0057650Y0085412D01*
X0057583Y0085422D01*
X0057517Y0085435D01*
X0057452Y0085453D01*
X0057389Y0085474D01*
X0057326Y0085499D01*
X0057265Y0085527D01*
X0057206Y0085559D01*
X0057149Y0085594D01*
X0057094Y0085633D01*
X0057041Y0085674D01*
X0056991Y0085719D01*
X0056943Y0085767D01*
X0056898Y0085817D01*
X0056857Y0085870D01*
X0056818Y0085925D01*
X0056783Y0085982D01*
X0056751Y0086041D01*
X0056723Y0086102D01*
X0056698Y0086165D01*
X0056677Y0086228D01*
X0056659Y0086293D01*
X0056646Y0086359D01*
X0056636Y0086426D01*
X0056630Y0086493D01*
X0056628Y0086560D01*
X0056630Y0086627D01*
X0056636Y0086694D01*
X0056646Y0086761D01*
X0056659Y0086827D01*
X0056677Y0086892D01*
X0056698Y0086955D01*
X0056723Y0087018D01*
X0056751Y0087079D01*
X0056783Y0087138D01*
X0056818Y0087195D01*
X0056857Y0087250D01*
X0056898Y0087303D01*
X0056943Y0087353D01*
X0056991Y0087401D01*
X0057041Y0087446D01*
X0057094Y0087487D01*
X0057149Y0087526D01*
X0057206Y0087561D01*
X0057265Y0087593D01*
X0057326Y0087621D01*
X0057389Y0087646D01*
X0057452Y0087667D01*
X0057517Y0087685D01*
X0057583Y0087698D01*
X0057650Y0087708D01*
X0057717Y0087714D01*
X0057784Y0087716D01*
X0058940Y0087716D01*
X0059007Y0087714D01*
X0059074Y0087708D01*
X0059141Y0087698D01*
X0059207Y0087685D01*
X0059272Y0087667D01*
X0059335Y0087646D01*
X0059398Y0087621D01*
X0059459Y0087593D01*
X0059518Y0087561D01*
X0059575Y0087526D01*
X0059630Y0087487D01*
X0059683Y0087446D01*
X0059733Y0087401D01*
X0059781Y0087353D01*
X0059826Y0087303D01*
X0059867Y0087250D01*
X0059906Y0087195D01*
X0059941Y0087138D01*
X0059973Y0087079D01*
X0060001Y0087018D01*
X0060026Y0086955D01*
X0060047Y0086892D01*
X0060065Y0086827D01*
X0060078Y0086761D01*
X0060088Y0086694D01*
X0060094Y0086627D01*
X0060096Y0086560D01*
X0060094Y0086493D01*
X0060088Y0086426D01*
X0060078Y0086359D01*
X0060065Y0086293D01*
X0060047Y0086228D01*
X0060026Y0086165D01*
X0060001Y0086102D01*
X0059973Y0086041D01*
X0059941Y0085982D01*
X0059906Y0085925D01*
X0059867Y0085870D01*
X0059826Y0085817D01*
X0059781Y0085767D01*
X0059733Y0085719D01*
X0059683Y0085674D01*
X0059630Y0085633D01*
X0059575Y0085594D01*
X0059518Y0085559D01*
X0059459Y0085527D01*
X0059398Y0085499D01*
X0059335Y0085474D01*
X0059272Y0085453D01*
X0059207Y0085435D01*
X0059141Y0085422D01*
X0059074Y0085412D01*
X0059007Y0085406D01*
X0058940Y0085404D01*
X0060095Y0089941D02*
X0057495Y0089941D01*
X0057495Y0089940D02*
X0057438Y0089942D01*
X0057382Y0089947D01*
X0057326Y0089957D01*
X0057271Y0089970D01*
X0057216Y0089986D01*
X0057163Y0090006D01*
X0057112Y0090029D01*
X0057062Y0090056D01*
X0057013Y0090086D01*
X0056967Y0090119D01*
X0056923Y0090155D01*
X0056882Y0090194D01*
X0056843Y0090235D01*
X0056807Y0090279D01*
X0056774Y0090325D01*
X0056744Y0090374D01*
X0056717Y0090424D01*
X0056694Y0090475D01*
X0056674Y0090528D01*
X0056658Y0090583D01*
X0056645Y0090638D01*
X0056635Y0090694D01*
X0056630Y0090750D01*
X0056628Y0090807D01*
X0056628Y0092252D01*
X0060095Y0092252D01*
X0060095Y0094055D02*
X0060095Y0095788D01*
X0061828Y0094633D02*
X0057495Y0094633D01*
X0057495Y0094632D02*
X0057438Y0094634D01*
X0057382Y0094639D01*
X0057326Y0094649D01*
X0057271Y0094662D01*
X0057216Y0094678D01*
X0057163Y0094698D01*
X0057112Y0094721D01*
X0057061Y0094748D01*
X0057013Y0094778D01*
X0056967Y0094811D01*
X0056923Y0094847D01*
X0056882Y0094886D01*
X0056843Y0094927D01*
X0056807Y0094971D01*
X0056774Y0095017D01*
X0056744Y0095066D01*
X0056717Y0095116D01*
X0056694Y0095167D01*
X0056674Y0095220D01*
X0056658Y0095275D01*
X0056645Y0095330D01*
X0056635Y0095386D01*
X0056630Y0095442D01*
X0056628Y0095499D01*
X0056628Y0095788D01*
X0056628Y0078787D02*
X0059228Y0078787D01*
X0058651Y0078787D02*
X0058651Y0077487D01*
X0059228Y0078787D02*
X0059285Y0078785D01*
X0059341Y0078780D01*
X0059397Y0078770D01*
X0059452Y0078757D01*
X0059507Y0078741D01*
X0059560Y0078721D01*
X0059611Y0078698D01*
X0059662Y0078671D01*
X0059710Y0078641D01*
X0059756Y0078608D01*
X0059800Y0078572D01*
X0059841Y0078533D01*
X0059880Y0078492D01*
X0059916Y0078448D01*
X0059949Y0078402D01*
X0059979Y0078354D01*
X0060006Y0078303D01*
X0060029Y0078252D01*
X0060049Y0078199D01*
X0060065Y0078144D01*
X0060078Y0078089D01*
X0060088Y0078033D01*
X0060093Y0077977D01*
X0060095Y0077920D01*
X0060095Y0076765D01*
X0058940Y0074444D02*
X0058362Y0074444D01*
X0058362Y0072133D01*
X0058940Y0072133D02*
X0057495Y0072133D01*
X0057495Y0072132D02*
X0057438Y0072134D01*
X0057382Y0072139D01*
X0057326Y0072149D01*
X0057271Y0072162D01*
X0057216Y0072178D01*
X0057163Y0072198D01*
X0057112Y0072221D01*
X0057062Y0072248D01*
X0057013Y0072278D01*
X0056967Y0072311D01*
X0056923Y0072347D01*
X0056882Y0072386D01*
X0056843Y0072427D01*
X0056807Y0072471D01*
X0056774Y0072517D01*
X0056744Y0072566D01*
X0056717Y0072616D01*
X0056694Y0072667D01*
X0056674Y0072720D01*
X0056658Y0072775D01*
X0056645Y0072830D01*
X0056635Y0072886D01*
X0056630Y0072942D01*
X0056628Y0072999D01*
X0056628Y0074444D01*
X0058940Y0074444D02*
X0059007Y0074442D01*
X0059074Y0074436D01*
X0059141Y0074426D01*
X0059207Y0074413D01*
X0059272Y0074395D01*
X0059335Y0074374D01*
X0059398Y0074349D01*
X0059459Y0074321D01*
X0059518Y0074289D01*
X0059575Y0074254D01*
X0059630Y0074215D01*
X0059683Y0074174D01*
X0059733Y0074129D01*
X0059781Y0074081D01*
X0059826Y0074031D01*
X0059867Y0073978D01*
X0059906Y0073923D01*
X0059941Y0073866D01*
X0059973Y0073807D01*
X0060001Y0073746D01*
X0060026Y0073683D01*
X0060047Y0073620D01*
X0060065Y0073555D01*
X0060078Y0073489D01*
X0060088Y0073422D01*
X0060094Y0073355D01*
X0060096Y0073288D01*
X0060094Y0073221D01*
X0060088Y0073154D01*
X0060078Y0073087D01*
X0060065Y0073021D01*
X0060047Y0072956D01*
X0060026Y0072893D01*
X0060001Y0072830D01*
X0059973Y0072769D01*
X0059941Y0072710D01*
X0059906Y0072653D01*
X0059867Y0072598D01*
X0059826Y0072545D01*
X0059781Y0072495D01*
X0059733Y0072447D01*
X0059683Y0072402D01*
X0059630Y0072361D01*
X0059575Y0072322D01*
X0059518Y0072287D01*
X0059459Y0072255D01*
X0059398Y0072227D01*
X0059335Y0072202D01*
X0059272Y0072181D01*
X0059207Y0072163D01*
X0059141Y0072150D01*
X0059074Y0072140D01*
X0059007Y0072134D01*
X0058940Y0072132D01*
X0059517Y0070534D02*
X0060095Y0070534D01*
X0060095Y0068800D01*
X0056628Y0068800D01*
X0056628Y0065295D02*
X0056628Y0063850D01*
X0061828Y0063850D01*
X0061828Y0065295D01*
X0061829Y0065295D02*
X0061827Y0065362D01*
X0061821Y0065429D01*
X0061811Y0065496D01*
X0061798Y0065562D01*
X0061780Y0065627D01*
X0061759Y0065690D01*
X0061734Y0065753D01*
X0061706Y0065814D01*
X0061674Y0065873D01*
X0061639Y0065930D01*
X0061600Y0065985D01*
X0061559Y0066038D01*
X0061514Y0066088D01*
X0061466Y0066136D01*
X0061416Y0066181D01*
X0061363Y0066222D01*
X0061308Y0066261D01*
X0061251Y0066296D01*
X0061192Y0066328D01*
X0061131Y0066356D01*
X0061068Y0066381D01*
X0061005Y0066402D01*
X0060940Y0066420D01*
X0060874Y0066433D01*
X0060807Y0066443D01*
X0060740Y0066449D01*
X0060673Y0066451D01*
X0060606Y0066449D01*
X0060539Y0066443D01*
X0060472Y0066433D01*
X0060406Y0066420D01*
X0060341Y0066402D01*
X0060278Y0066381D01*
X0060215Y0066356D01*
X0060154Y0066328D01*
X0060095Y0066296D01*
X0060038Y0066261D01*
X0059983Y0066222D01*
X0059930Y0066181D01*
X0059880Y0066136D01*
X0059832Y0066088D01*
X0059787Y0066038D01*
X0059746Y0065985D01*
X0059707Y0065930D01*
X0059672Y0065873D01*
X0059640Y0065814D01*
X0059612Y0065753D01*
X0059587Y0065690D01*
X0059566Y0065627D01*
X0059548Y0065562D01*
X0059535Y0065496D01*
X0059525Y0065429D01*
X0059519Y0065362D01*
X0059517Y0065295D01*
X0059517Y0063850D01*
X0059517Y0065295D02*
X0059515Y0065371D01*
X0059509Y0065446D01*
X0059499Y0065521D01*
X0059485Y0065595D01*
X0059468Y0065669D01*
X0059446Y0065741D01*
X0059421Y0065812D01*
X0059392Y0065882D01*
X0059360Y0065951D01*
X0059324Y0066017D01*
X0059284Y0066081D01*
X0059241Y0066144D01*
X0059195Y0066204D01*
X0059146Y0066261D01*
X0059094Y0066316D01*
X0059039Y0066368D01*
X0058982Y0066417D01*
X0058922Y0066463D01*
X0058859Y0066506D01*
X0058795Y0066546D01*
X0058729Y0066582D01*
X0058660Y0066614D01*
X0058590Y0066643D01*
X0058519Y0066668D01*
X0058447Y0066690D01*
X0058373Y0066707D01*
X0058299Y0066721D01*
X0058224Y0066731D01*
X0058149Y0066737D01*
X0058073Y0066739D01*
X0057997Y0066737D01*
X0057922Y0066731D01*
X0057847Y0066721D01*
X0057773Y0066707D01*
X0057699Y0066690D01*
X0057627Y0066668D01*
X0057556Y0066643D01*
X0057486Y0066614D01*
X0057417Y0066582D01*
X0057351Y0066546D01*
X0057287Y0066506D01*
X0057224Y0066463D01*
X0057164Y0066417D01*
X0057107Y0066368D01*
X0057052Y0066316D01*
X0057000Y0066261D01*
X0056951Y0066204D01*
X0056905Y0066144D01*
X0056862Y0066081D01*
X0056822Y0066017D01*
X0056786Y0065951D01*
X0056754Y0065882D01*
X0056725Y0065812D01*
X0056700Y0065741D01*
X0056678Y0065669D01*
X0056661Y0065595D01*
X0056647Y0065521D01*
X0056637Y0065446D01*
X0056631Y0065371D01*
X0056629Y0065295D01*
X0056628Y0058652D02*
X0059228Y0058652D01*
X0059285Y0058650D01*
X0059341Y0058645D01*
X0059397Y0058635D01*
X0059452Y0058622D01*
X0059507Y0058606D01*
X0059560Y0058586D01*
X0059611Y0058563D01*
X0059662Y0058536D01*
X0059710Y0058506D01*
X0059756Y0058473D01*
X0059800Y0058437D01*
X0059841Y0058398D01*
X0059880Y0058357D01*
X0059916Y0058313D01*
X0059949Y0058267D01*
X0059979Y0058219D01*
X0060006Y0058168D01*
X0060029Y0058117D01*
X0060049Y0058064D01*
X0060065Y0058009D01*
X0060078Y0057954D01*
X0060088Y0057898D01*
X0060093Y0057842D01*
X0060095Y0057785D01*
X0060095Y0056341D01*
X0056628Y0056341D01*
X0056628Y0054136D02*
X0060095Y0054136D01*
X0061540Y0054281D02*
X0061540Y0053992D01*
X0061828Y0053992D01*
X0061828Y0054281D01*
X0061540Y0054281D01*
X0061828Y0050847D02*
X0061828Y0049402D01*
X0056628Y0049402D01*
X0058940Y0049402D02*
X0058940Y0050847D01*
X0058942Y0050923D01*
X0058948Y0050998D01*
X0058958Y0051073D01*
X0058972Y0051147D01*
X0058989Y0051221D01*
X0059011Y0051293D01*
X0059036Y0051364D01*
X0059065Y0051434D01*
X0059097Y0051503D01*
X0059133Y0051569D01*
X0059173Y0051633D01*
X0059216Y0051696D01*
X0059262Y0051756D01*
X0059311Y0051813D01*
X0059363Y0051868D01*
X0059418Y0051920D01*
X0059475Y0051969D01*
X0059535Y0052015D01*
X0059598Y0052058D01*
X0059662Y0052098D01*
X0059728Y0052134D01*
X0059797Y0052166D01*
X0059867Y0052195D01*
X0059938Y0052220D01*
X0060010Y0052242D01*
X0060084Y0052259D01*
X0060158Y0052273D01*
X0060233Y0052283D01*
X0060308Y0052289D01*
X0060384Y0052291D01*
X0060460Y0052289D01*
X0060535Y0052283D01*
X0060610Y0052273D01*
X0060684Y0052259D01*
X0060758Y0052242D01*
X0060830Y0052220D01*
X0060901Y0052195D01*
X0060971Y0052166D01*
X0061040Y0052134D01*
X0061106Y0052098D01*
X0061170Y0052058D01*
X0061233Y0052015D01*
X0061293Y0051969D01*
X0061350Y0051920D01*
X0061405Y0051868D01*
X0061457Y0051813D01*
X0061506Y0051756D01*
X0061552Y0051696D01*
X0061595Y0051633D01*
X0061635Y0051569D01*
X0061671Y0051503D01*
X0061703Y0051434D01*
X0061732Y0051364D01*
X0061757Y0051293D01*
X0061779Y0051221D01*
X0061796Y0051147D01*
X0061810Y0051073D01*
X0061820Y0050998D01*
X0061826Y0050923D01*
X0061828Y0050847D01*
X0059228Y0041436D02*
X0059098Y0041438D01*
X0058969Y0041444D01*
X0058840Y0041454D01*
X0058711Y0041467D01*
X0058583Y0041485D01*
X0058455Y0041506D01*
X0058328Y0041532D01*
X0058201Y0041561D01*
X0058076Y0041594D01*
X0057952Y0041630D01*
X0057829Y0041671D01*
X0057707Y0041715D01*
X0057587Y0041763D01*
X0057468Y0041814D01*
X0057350Y0041869D01*
X0057784Y0041725D02*
X0060673Y0044036D01*
X0061107Y0043891D02*
X0061166Y0043869D01*
X0061223Y0043843D01*
X0061280Y0043814D01*
X0061334Y0043782D01*
X0061386Y0043747D01*
X0061436Y0043708D01*
X0061484Y0043667D01*
X0061529Y0043623D01*
X0061571Y0043576D01*
X0061611Y0043527D01*
X0061648Y0043475D01*
X0061681Y0043422D01*
X0061712Y0043367D01*
X0061739Y0043310D01*
X0061763Y0043251D01*
X0061783Y0043191D01*
X0061799Y0043130D01*
X0061812Y0043068D01*
X0061822Y0043006D01*
X0061827Y0042943D01*
X0061829Y0042880D01*
X0061827Y0042817D01*
X0061822Y0042754D01*
X0061812Y0042692D01*
X0061799Y0042630D01*
X0061783Y0042569D01*
X0061763Y0042509D01*
X0061739Y0042450D01*
X0061712Y0042393D01*
X0061681Y0042338D01*
X0061648Y0042285D01*
X0061611Y0042233D01*
X0061571Y0042184D01*
X0061529Y0042137D01*
X0061484Y0042093D01*
X0061436Y0042052D01*
X0061386Y0042013D01*
X0061334Y0041978D01*
X0061280Y0041946D01*
X0061223Y0041917D01*
X0061166Y0041891D01*
X0061107Y0041869D01*
X0061106Y0043891D02*
X0060988Y0043946D01*
X0060869Y0043997D01*
X0060749Y0044045D01*
X0060627Y0044089D01*
X0060504Y0044130D01*
X0060380Y0044166D01*
X0060255Y0044199D01*
X0060128Y0044228D01*
X0060001Y0044254D01*
X0059873Y0044275D01*
X0059745Y0044293D01*
X0059616Y0044306D01*
X0059487Y0044316D01*
X0059358Y0044322D01*
X0059228Y0044324D01*
X0059228Y0041436D02*
X0059358Y0041438D01*
X0059487Y0041444D01*
X0059616Y0041454D01*
X0059745Y0041467D01*
X0059873Y0041485D01*
X0060001Y0041506D01*
X0060128Y0041532D01*
X0060255Y0041561D01*
X0060380Y0041594D01*
X0060504Y0041630D01*
X0060627Y0041671D01*
X0060749Y0041715D01*
X0060869Y0041763D01*
X0060988Y0041814D01*
X0061106Y0041869D01*
X0059228Y0044324D02*
X0059098Y0044322D01*
X0058969Y0044316D01*
X0058840Y0044306D01*
X0058711Y0044293D01*
X0058583Y0044275D01*
X0058455Y0044254D01*
X0058328Y0044228D01*
X0058201Y0044199D01*
X0058076Y0044166D01*
X0057952Y0044130D01*
X0057829Y0044089D01*
X0057707Y0044045D01*
X0057587Y0043997D01*
X0057468Y0043946D01*
X0057350Y0043891D01*
X0057291Y0043869D01*
X0057234Y0043843D01*
X0057177Y0043814D01*
X0057123Y0043782D01*
X0057071Y0043747D01*
X0057021Y0043708D01*
X0056973Y0043667D01*
X0056928Y0043623D01*
X0056886Y0043576D01*
X0056846Y0043527D01*
X0056809Y0043475D01*
X0056776Y0043422D01*
X0056745Y0043367D01*
X0056718Y0043310D01*
X0056694Y0043251D01*
X0056674Y0043191D01*
X0056658Y0043130D01*
X0056645Y0043068D01*
X0056635Y0043006D01*
X0056630Y0042943D01*
X0056628Y0042880D01*
X0056630Y0042817D01*
X0056635Y0042754D01*
X0056645Y0042692D01*
X0056658Y0042630D01*
X0056674Y0042569D01*
X0056694Y0042509D01*
X0056718Y0042450D01*
X0056745Y0042393D01*
X0056776Y0042338D01*
X0056809Y0042285D01*
X0056846Y0042233D01*
X0056886Y0042184D01*
X0056928Y0042137D01*
X0056973Y0042093D01*
X0057021Y0042052D01*
X0057071Y0042013D01*
X0057123Y0041978D01*
X0057177Y0041946D01*
X0057234Y0041917D01*
X0057291Y0041891D01*
X0057350Y0041869D01*
X0056628Y0039285D02*
X0056628Y0036396D01*
X0056628Y0037840D02*
X0061828Y0037840D01*
X0060673Y0036396D01*
X0059228Y0031436D02*
X0056628Y0031436D01*
X0056628Y0029125D02*
X0060095Y0029125D01*
X0060095Y0030569D01*
X0060093Y0030626D01*
X0060088Y0030682D01*
X0060078Y0030738D01*
X0060065Y0030793D01*
X0060049Y0030848D01*
X0060029Y0030901D01*
X0060006Y0030952D01*
X0059979Y0031003D01*
X0059949Y0031051D01*
X0059916Y0031097D01*
X0059880Y0031141D01*
X0059841Y0031182D01*
X0059800Y0031221D01*
X0059756Y0031257D01*
X0059710Y0031290D01*
X0059662Y0031320D01*
X0059611Y0031347D01*
X0059560Y0031370D01*
X0059507Y0031390D01*
X0059452Y0031406D01*
X0059397Y0031419D01*
X0059341Y0031429D01*
X0059285Y0031434D01*
X0059228Y0031436D01*
X0058940Y0026900D02*
X0057784Y0026900D01*
X0057717Y0026898D01*
X0057650Y0026892D01*
X0057583Y0026882D01*
X0057517Y0026869D01*
X0057452Y0026851D01*
X0057389Y0026830D01*
X0057326Y0026805D01*
X0057265Y0026777D01*
X0057206Y0026745D01*
X0057149Y0026710D01*
X0057094Y0026671D01*
X0057041Y0026630D01*
X0056991Y0026585D01*
X0056943Y0026537D01*
X0056898Y0026487D01*
X0056857Y0026434D01*
X0056818Y0026379D01*
X0056783Y0026322D01*
X0056751Y0026263D01*
X0056723Y0026202D01*
X0056698Y0026139D01*
X0056677Y0026076D01*
X0056659Y0026011D01*
X0056646Y0025945D01*
X0056636Y0025878D01*
X0056630Y0025811D01*
X0056628Y0025744D01*
X0056630Y0025677D01*
X0056636Y0025610D01*
X0056646Y0025543D01*
X0056659Y0025477D01*
X0056677Y0025412D01*
X0056698Y0025349D01*
X0056723Y0025286D01*
X0056751Y0025225D01*
X0056783Y0025166D01*
X0056818Y0025109D01*
X0056857Y0025054D01*
X0056898Y0025001D01*
X0056943Y0024951D01*
X0056991Y0024903D01*
X0057041Y0024858D01*
X0057094Y0024817D01*
X0057149Y0024778D01*
X0057206Y0024743D01*
X0057265Y0024711D01*
X0057326Y0024683D01*
X0057389Y0024658D01*
X0057452Y0024637D01*
X0057517Y0024619D01*
X0057583Y0024606D01*
X0057650Y0024596D01*
X0057717Y0024590D01*
X0057784Y0024588D01*
X0057784Y0024589D02*
X0058940Y0024589D01*
X0058940Y0024588D02*
X0059007Y0024590D01*
X0059074Y0024596D01*
X0059141Y0024606D01*
X0059207Y0024619D01*
X0059272Y0024637D01*
X0059335Y0024658D01*
X0059398Y0024683D01*
X0059459Y0024711D01*
X0059518Y0024743D01*
X0059575Y0024778D01*
X0059630Y0024817D01*
X0059683Y0024858D01*
X0059733Y0024903D01*
X0059781Y0024951D01*
X0059826Y0025001D01*
X0059867Y0025054D01*
X0059906Y0025109D01*
X0059941Y0025166D01*
X0059973Y0025225D01*
X0060001Y0025286D01*
X0060026Y0025349D01*
X0060047Y0025412D01*
X0060065Y0025477D01*
X0060078Y0025543D01*
X0060088Y0025610D01*
X0060094Y0025677D01*
X0060096Y0025744D01*
X0060094Y0025811D01*
X0060088Y0025878D01*
X0060078Y0025945D01*
X0060065Y0026011D01*
X0060047Y0026076D01*
X0060026Y0026139D01*
X0060001Y0026202D01*
X0059973Y0026263D01*
X0059941Y0026322D01*
X0059906Y0026379D01*
X0059867Y0026434D01*
X0059826Y0026487D01*
X0059781Y0026537D01*
X0059733Y0026585D01*
X0059683Y0026630D01*
X0059630Y0026671D01*
X0059575Y0026710D01*
X0059518Y0026745D01*
X0059459Y0026777D01*
X0059398Y0026805D01*
X0059335Y0026830D01*
X0059272Y0026851D01*
X0059207Y0026869D01*
X0059141Y0026882D01*
X0059074Y0026892D01*
X0059007Y0026898D01*
X0058940Y0026900D01*
X0060095Y0022756D02*
X0058362Y0020445D01*
X0059084Y0021456D02*
X0056628Y0022756D01*
X0056628Y0020445D02*
X0061828Y0020445D01*
X0061828Y0018329D02*
X0061540Y0018329D01*
X0061540Y0018040D01*
X0061828Y0018040D01*
X0061828Y0018329D01*
X0060095Y0018184D02*
X0056628Y0018184D01*
X0056628Y0015933D02*
X0061828Y0015933D01*
X0061828Y0013044D02*
X0056628Y0015933D01*
X0056628Y0013044D02*
X0061828Y0013044D01*
X0067340Y0074997D02*
X0067407Y0074999D01*
X0067474Y0075005D01*
X0067541Y0075015D01*
X0067607Y0075028D01*
X0067672Y0075046D01*
X0067735Y0075067D01*
X0067798Y0075092D01*
X0067859Y0075120D01*
X0067918Y0075152D01*
X0067975Y0075187D01*
X0068030Y0075226D01*
X0068083Y0075267D01*
X0068133Y0075312D01*
X0068181Y0075360D01*
X0068226Y0075410D01*
X0068267Y0075463D01*
X0068306Y0075518D01*
X0068341Y0075575D01*
X0068373Y0075634D01*
X0068401Y0075695D01*
X0068426Y0075758D01*
X0068447Y0075821D01*
X0068465Y0075886D01*
X0068478Y0075952D01*
X0068488Y0076019D01*
X0068494Y0076086D01*
X0068496Y0076153D01*
X0068494Y0076220D01*
X0068488Y0076287D01*
X0068478Y0076354D01*
X0068465Y0076420D01*
X0068447Y0076485D01*
X0068426Y0076548D01*
X0068401Y0076611D01*
X0068373Y0076672D01*
X0068341Y0076731D01*
X0068306Y0076788D01*
X0068267Y0076843D01*
X0068226Y0076896D01*
X0068181Y0076946D01*
X0068133Y0076994D01*
X0068083Y0077039D01*
X0068030Y0077080D01*
X0067975Y0077119D01*
X0067918Y0077154D01*
X0067859Y0077186D01*
X0067798Y0077214D01*
X0067735Y0077239D01*
X0067672Y0077260D01*
X0067607Y0077278D01*
X0067541Y0077291D01*
X0067474Y0077301D01*
X0067407Y0077307D01*
X0067340Y0077309D01*
X0058651Y0077487D02*
X0058649Y0077425D01*
X0058643Y0077363D01*
X0058634Y0077301D01*
X0058620Y0077240D01*
X0058603Y0077181D01*
X0058583Y0077122D01*
X0058558Y0077064D01*
X0058531Y0077009D01*
X0058500Y0076955D01*
X0058465Y0076903D01*
X0058428Y0076853D01*
X0058387Y0076806D01*
X0058344Y0076761D01*
X0058298Y0076719D01*
X0058249Y0076680D01*
X0058198Y0076644D01*
X0058145Y0076611D01*
X0058091Y0076582D01*
X0058034Y0076556D01*
X0057976Y0076533D01*
X0057917Y0076515D01*
X0057856Y0076499D01*
X0057795Y0076488D01*
X0057733Y0076480D01*
X0057671Y0076476D01*
X0057609Y0076476D01*
X0057547Y0076480D01*
X0057485Y0076488D01*
X0057424Y0076499D01*
X0057363Y0076515D01*
X0057304Y0076533D01*
X0057246Y0076556D01*
X0057189Y0076582D01*
X0057135Y0076611D01*
X0057082Y0076644D01*
X0057031Y0076680D01*
X0056982Y0076719D01*
X0056936Y0076761D01*
X0056893Y0076806D01*
X0056852Y0076853D01*
X0056815Y0076903D01*
X0056780Y0076955D01*
X0056749Y0077009D01*
X0056722Y0077064D01*
X0056697Y0077122D01*
X0056677Y0077181D01*
X0056660Y0077240D01*
X0056646Y0077301D01*
X0056637Y0077363D01*
X0056631Y0077425D01*
X0056629Y0077487D01*
X0056628Y0077487D02*
X0056628Y0078787D01*
M02*
