M48
;GenerationSoftware,Autodesk,EAGLE,9.0.0*%
;CreationDate,2018-05-03T17:38:22Z*%
FMAT,2
ICI,OFF
METRIC,TZ,000.00000
T3C0.35000
T2C0.60000
T1C0.88900
%
G90
M71
T1
X-900000Y243000
X-900000Y-11000
X-900000Y-265000
X-900000Y-519000
X-900000Y-773000
X-900000Y-1027000
X-900000Y-1281000
X-900000Y-1535000
X-900000Y-1789000
X-900000Y-2043000
T2
X-5000Y-75000
X-5000Y75000
X-105000Y200000
X95000Y200000
X195000Y100000
X195000Y-100000
X-205000Y-100000
X-205000Y100000
X-105000Y-200000
X95000Y-200000
T3
X-331397Y-718603
X-469000Y-1027000
X-400000Y-2000000
X-500000Y275000
M30