G04 EAGLE Gerber X2 export*
%TF.Part,Single*%
%TF.FileFunction,Other,Solder paste top*%
%TF.FilePolarity,Positive*%
%TF.GenerationSoftware,Autodesk,EAGLE,9.0.0*%
%TF.CreationDate,2018-05-03T06:19:38Z*%
G75*
%MOMM*%
%FSLAX35Y35*%
%LPD*%
%AMOC8*
5,1,8,0,0,1.08239X$1,22.5*%
G01*
%ADD10C,0.000000*%


D10*
X-1025000Y400000D02*
X0Y400000D01*
X9665Y399883D01*
X19325Y399533D01*
X28974Y398949D01*
X38606Y398133D01*
X48215Y397084D01*
X57796Y395803D01*
X67343Y394290D01*
X76851Y392548D01*
X86314Y390576D01*
X95726Y388377D01*
X105083Y385950D01*
X114378Y383298D01*
X123607Y380423D01*
X132763Y377325D01*
X141842Y374006D01*
X150838Y370470D01*
X159746Y366717D01*
X168560Y362750D01*
X177277Y358571D01*
X185889Y354182D01*
X194393Y349587D01*
X202784Y344788D01*
X211056Y339787D01*
X219205Y334588D01*
X227226Y329194D01*
X235114Y323607D01*
X242865Y317831D01*
X250474Y311870D01*
X257937Y305726D01*
X265249Y299404D01*
X272406Y292907D01*
X279405Y286240D01*
X286240Y279405D01*
X292907Y272406D01*
X299404Y265249D01*
X305726Y257937D01*
X311870Y250474D01*
X317831Y242865D01*
X323607Y235114D01*
X329194Y227226D01*
X334588Y219205D01*
X339787Y211056D01*
X344788Y202784D01*
X349587Y194393D01*
X354182Y185889D01*
X358571Y177277D01*
X362750Y168560D01*
X366717Y159746D01*
X370470Y150838D01*
X374006Y141842D01*
X377325Y132763D01*
X380423Y123607D01*
X383298Y114378D01*
X385950Y105083D01*
X388377Y95726D01*
X390576Y86314D01*
X392548Y76851D01*
X394290Y67343D01*
X395803Y57796D01*
X397084Y48215D01*
X398133Y38606D01*
X398949Y28974D01*
X399533Y19325D01*
X399883Y9665D01*
X400000Y0D01*
X-1075000Y350000D02*
X-1075000Y-2150000D01*
X-1074985Y-2151208D01*
X-1074942Y-2152416D01*
X-1074869Y-2153622D01*
X-1074767Y-2154826D01*
X-1074635Y-2156027D01*
X-1074475Y-2157224D01*
X-1074286Y-2158418D01*
X-1074069Y-2159606D01*
X-1073822Y-2160789D01*
X-1073547Y-2161966D01*
X-1073244Y-2163135D01*
X-1072912Y-2164297D01*
X-1072553Y-2165451D01*
X-1072166Y-2166595D01*
X-1071751Y-2167730D01*
X-1071309Y-2168855D01*
X-1070840Y-2169968D01*
X-1070344Y-2171070D01*
X-1069821Y-2172160D01*
X-1069273Y-2173236D01*
X-1068698Y-2174299D01*
X-1068098Y-2175348D01*
X-1067473Y-2176382D01*
X-1066824Y-2177401D01*
X-1066149Y-2178403D01*
X-1065451Y-2179389D01*
X-1064729Y-2180358D01*
X-1063984Y-2181309D01*
X-1063216Y-2182242D01*
X-1062426Y-2183156D01*
X-1061613Y-2184051D01*
X-1060780Y-2184926D01*
X-1059926Y-2185780D01*
X-1059051Y-2186613D01*
X-1058156Y-2187426D01*
X-1057242Y-2188216D01*
X-1056309Y-2188984D01*
X-1055358Y-2189729D01*
X-1054389Y-2190451D01*
X-1053403Y-2191149D01*
X-1052401Y-2191824D01*
X-1051382Y-2192473D01*
X-1050348Y-2193098D01*
X-1049299Y-2193698D01*
X-1048236Y-2194273D01*
X-1047160Y-2194821D01*
X-1046070Y-2195344D01*
X-1044968Y-2195840D01*
X-1043855Y-2196309D01*
X-1042730Y-2196751D01*
X-1041595Y-2197166D01*
X-1040451Y-2197553D01*
X-1039297Y-2197912D01*
X-1038135Y-2198244D01*
X-1036966Y-2198547D01*
X-1035789Y-2198822D01*
X-1034606Y-2199069D01*
X-1033418Y-2199286D01*
X-1032224Y-2199475D01*
X-1031027Y-2199635D01*
X-1029826Y-2199767D01*
X-1028622Y-2199869D01*
X-1027416Y-2199942D01*
X-1026208Y-2199985D01*
X-1025000Y-2200000D01*
X-450000Y-2200000D01*
X-445167Y-2199942D01*
X-440337Y-2199766D01*
X-435513Y-2199475D01*
X-430697Y-2199066D01*
X-425893Y-2198542D01*
X-421102Y-2197901D01*
X-416329Y-2197145D01*
X-411575Y-2196274D01*
X-406843Y-2195288D01*
X-402137Y-2194188D01*
X-397459Y-2192975D01*
X-392811Y-2191649D01*
X-388197Y-2190211D01*
X-383618Y-2188662D01*
X-379079Y-2187003D01*
X-374581Y-2185235D01*
X-370127Y-2183358D01*
X-365720Y-2181375D01*
X-361362Y-2179285D01*
X-357055Y-2177091D01*
X-352803Y-2174794D01*
X-348608Y-2172394D01*
X-344472Y-2169894D01*
X-340397Y-2167294D01*
X-336387Y-2164597D01*
X-332443Y-2161803D01*
X-328567Y-2158916D01*
X-324763Y-2155935D01*
X-321032Y-2152863D01*
X-317375Y-2149702D01*
X-313797Y-2146454D01*
X-310298Y-2143120D01*
X-306880Y-2139702D01*
X-303546Y-2136203D01*
X-300298Y-2132625D01*
X-297137Y-2128968D01*
X-294065Y-2125237D01*
X-291084Y-2121433D01*
X-288197Y-2117557D01*
X-285403Y-2113613D01*
X-282706Y-2109603D01*
X-280106Y-2105528D01*
X-277606Y-2101392D01*
X-275206Y-2097197D01*
X-272909Y-2092945D01*
X-270715Y-2088638D01*
X-268625Y-2084280D01*
X-266642Y-2079873D01*
X-264765Y-2075419D01*
X-262997Y-2070921D01*
X-261338Y-2066382D01*
X-259789Y-2061803D01*
X-258351Y-2057189D01*
X-257025Y-2052541D01*
X-255812Y-2047863D01*
X-254712Y-2043157D01*
X-253726Y-2038425D01*
X-252855Y-2033671D01*
X-252099Y-2028898D01*
X-251458Y-2024107D01*
X-250934Y-2019303D01*
X-250525Y-2014487D01*
X-250234Y-2009663D01*
X-250058Y-2004833D01*
X-250000Y-2000000D01*
X-1075000Y350000D02*
X-1074985Y351208D01*
X-1074942Y352416D01*
X-1074869Y353622D01*
X-1074767Y354826D01*
X-1074635Y356027D01*
X-1074475Y357224D01*
X-1074286Y358418D01*
X-1074069Y359606D01*
X-1073822Y360789D01*
X-1073547Y361966D01*
X-1073244Y363135D01*
X-1072912Y364297D01*
X-1072553Y365451D01*
X-1072166Y366595D01*
X-1071751Y367730D01*
X-1071309Y368855D01*
X-1070840Y369968D01*
X-1070344Y371070D01*
X-1069821Y372160D01*
X-1069273Y373236D01*
X-1068698Y374299D01*
X-1068098Y375348D01*
X-1067473Y376382D01*
X-1066824Y377401D01*
X-1066149Y378403D01*
X-1065451Y379389D01*
X-1064729Y380358D01*
X-1063984Y381309D01*
X-1063216Y382242D01*
X-1062426Y383156D01*
X-1061613Y384051D01*
X-1060780Y384926D01*
X-1059926Y385780D01*
X-1059051Y386613D01*
X-1058156Y387426D01*
X-1057242Y388216D01*
X-1056309Y388984D01*
X-1055358Y389729D01*
X-1054389Y390451D01*
X-1053403Y391149D01*
X-1052401Y391824D01*
X-1051382Y392473D01*
X-1050348Y393098D01*
X-1049299Y393698D01*
X-1048236Y394273D01*
X-1047160Y394821D01*
X-1046070Y395344D01*
X-1044968Y395840D01*
X-1043855Y396309D01*
X-1042730Y396751D01*
X-1041595Y397166D01*
X-1040451Y397553D01*
X-1039297Y397912D01*
X-1038135Y398244D01*
X-1036966Y398547D01*
X-1035789Y398822D01*
X-1034606Y399069D01*
X-1033418Y399286D01*
X-1032224Y399475D01*
X-1031027Y399635D01*
X-1029826Y399767D01*
X-1028622Y399869D01*
X-1027416Y399942D01*
X-1026208Y399985D01*
X-1025000Y400000D01*
X0Y-400000D02*
X9665Y-399883D01*
X19325Y-399533D01*
X28974Y-398949D01*
X38606Y-398133D01*
X48215Y-397084D01*
X57796Y-395803D01*
X67343Y-394290D01*
X76851Y-392548D01*
X86314Y-390576D01*
X95726Y-388377D01*
X105083Y-385950D01*
X114378Y-383298D01*
X123607Y-380423D01*
X132763Y-377325D01*
X141842Y-374006D01*
X150838Y-370470D01*
X159746Y-366717D01*
X168560Y-362750D01*
X177277Y-358571D01*
X185889Y-354182D01*
X194393Y-349587D01*
X202784Y-344788D01*
X211056Y-339787D01*
X219205Y-334588D01*
X227226Y-329194D01*
X235114Y-323607D01*
X242865Y-317831D01*
X250474Y-311870D01*
X257937Y-305726D01*
X265249Y-299404D01*
X272406Y-292907D01*
X279405Y-286240D01*
X286240Y-279405D01*
X292907Y-272406D01*
X299404Y-265249D01*
X305726Y-257937D01*
X311870Y-250474D01*
X317831Y-242865D01*
X323607Y-235114D01*
X329194Y-227226D01*
X334588Y-219205D01*
X339787Y-211056D01*
X344788Y-202784D01*
X349587Y-194393D01*
X354182Y-185889D01*
X358571Y-177277D01*
X362750Y-168560D01*
X366717Y-159746D01*
X370470Y-150838D01*
X374006Y-141842D01*
X377325Y-132763D01*
X380423Y-123607D01*
X383298Y-114378D01*
X385950Y-105083D01*
X388377Y-95726D01*
X390576Y-86314D01*
X392548Y-76851D01*
X394290Y-67343D01*
X395803Y-57796D01*
X397084Y-48215D01*
X398133Y-38606D01*
X398949Y-28974D01*
X399533Y-19325D01*
X399883Y-9665D01*
X400000Y0D01*
X-50000Y-450000D02*
X-50000Y-790000D01*
X-110000Y-850000D02*
X-150000Y-850000D01*
X-250000Y-950000D02*
X-250000Y-2000000D01*
X-110000Y-850000D02*
X-108550Y-849982D01*
X-107101Y-849930D01*
X-105654Y-849842D01*
X-104209Y-849720D01*
X-102768Y-849563D01*
X-101331Y-849370D01*
X-99899Y-849144D01*
X-98472Y-848882D01*
X-97053Y-848586D01*
X-95641Y-848257D01*
X-94238Y-847893D01*
X-92843Y-847495D01*
X-91459Y-847063D01*
X-90086Y-846599D01*
X-88724Y-846101D01*
X-87374Y-845570D01*
X-86038Y-845008D01*
X-84716Y-844412D01*
X-83409Y-843786D01*
X-82117Y-843127D01*
X-80841Y-842438D01*
X-79582Y-841718D01*
X-78342Y-840968D01*
X-77119Y-840188D01*
X-75916Y-839379D01*
X-74733Y-838541D01*
X-73570Y-837675D01*
X-72429Y-836780D01*
X-71309Y-835859D01*
X-70213Y-834911D01*
X-69139Y-833936D01*
X-68089Y-832936D01*
X-67064Y-831911D01*
X-66064Y-830861D01*
X-65089Y-829787D01*
X-64141Y-828691D01*
X-63220Y-827571D01*
X-62325Y-826430D01*
X-61459Y-825267D01*
X-60621Y-824084D01*
X-59812Y-822881D01*
X-59032Y-821658D01*
X-58282Y-820418D01*
X-57562Y-819159D01*
X-56873Y-817883D01*
X-56214Y-816591D01*
X-55588Y-815284D01*
X-54992Y-813962D01*
X-54430Y-812626D01*
X-53899Y-811276D01*
X-53401Y-809914D01*
X-52937Y-808541D01*
X-52505Y-807157D01*
X-52107Y-805762D01*
X-51743Y-804359D01*
X-51414Y-802947D01*
X-51118Y-801528D01*
X-50856Y-800101D01*
X-50630Y-798669D01*
X-50437Y-797232D01*
X-50280Y-795791D01*
X-50158Y-794346D01*
X-50070Y-792899D01*
X-50018Y-791450D01*
X-50000Y-790000D01*
X-150000Y-850000D02*
X-152416Y-850029D01*
X-154831Y-850117D01*
X-157243Y-850263D01*
X-159651Y-850467D01*
X-162054Y-850729D01*
X-164449Y-851049D01*
X-166836Y-851427D01*
X-169213Y-851863D01*
X-171578Y-852356D01*
X-173932Y-852906D01*
X-176271Y-853512D01*
X-178595Y-854175D01*
X-180902Y-854894D01*
X-183191Y-855669D01*
X-185460Y-856498D01*
X-187709Y-857383D01*
X-189936Y-858321D01*
X-192140Y-859313D01*
X-194319Y-860357D01*
X-196472Y-861454D01*
X-198598Y-862603D01*
X-200696Y-863803D01*
X-202764Y-865053D01*
X-204801Y-866353D01*
X-206806Y-867702D01*
X-208779Y-869098D01*
X-210716Y-870542D01*
X-212619Y-872033D01*
X-214484Y-873568D01*
X-216312Y-875149D01*
X-218102Y-876773D01*
X-219851Y-878440D01*
X-221560Y-880149D01*
X-223227Y-881898D01*
X-224851Y-883688D01*
X-226432Y-885516D01*
X-227967Y-887381D01*
X-229458Y-889284D01*
X-230902Y-891221D01*
X-232298Y-893194D01*
X-233647Y-895199D01*
X-234947Y-897236D01*
X-236197Y-899304D01*
X-237397Y-901402D01*
X-238546Y-903528D01*
X-239643Y-905681D01*
X-240687Y-907860D01*
X-241679Y-910064D01*
X-242617Y-912291D01*
X-243502Y-914540D01*
X-244331Y-916809D01*
X-245106Y-919098D01*
X-245825Y-921405D01*
X-246488Y-923729D01*
X-247094Y-926068D01*
X-247644Y-928422D01*
X-248137Y-930787D01*
X-248573Y-933164D01*
X-248951Y-935551D01*
X-249271Y-937946D01*
X-249533Y-940349D01*
X-249737Y-942757D01*
X-249883Y-945169D01*
X-249971Y-947584D01*
X-250000Y-950000D01*
X-50000Y-450000D02*
X-49985Y-448792D01*
X-49942Y-447584D01*
X-49869Y-446378D01*
X-49767Y-445174D01*
X-49635Y-443973D01*
X-49475Y-442776D01*
X-49286Y-441582D01*
X-49069Y-440394D01*
X-48822Y-439211D01*
X-48547Y-438034D01*
X-48244Y-436865D01*
X-47912Y-435703D01*
X-47553Y-434549D01*
X-47166Y-433405D01*
X-46751Y-432270D01*
X-46309Y-431145D01*
X-45840Y-430032D01*
X-45344Y-428930D01*
X-44821Y-427840D01*
X-44273Y-426764D01*
X-43698Y-425701D01*
X-43098Y-424652D01*
X-42473Y-423618D01*
X-41824Y-422599D01*
X-41149Y-421597D01*
X-40451Y-420611D01*
X-39729Y-419642D01*
X-38984Y-418691D01*
X-38216Y-417758D01*
X-37426Y-416844D01*
X-36613Y-415949D01*
X-35780Y-415074D01*
X-34926Y-414220D01*
X-34051Y-413387D01*
X-33156Y-412574D01*
X-32242Y-411784D01*
X-31309Y-411016D01*
X-30358Y-410271D01*
X-29389Y-409549D01*
X-28403Y-408851D01*
X-27401Y-408176D01*
X-26382Y-407527D01*
X-25348Y-406902D01*
X-24299Y-406302D01*
X-23236Y-405727D01*
X-22160Y-405179D01*
X-21070Y-404656D01*
X-19968Y-404160D01*
X-18855Y-403691D01*
X-17730Y-403249D01*
X-16595Y-402834D01*
X-15451Y-402447D01*
X-14297Y-402088D01*
X-13135Y-401756D01*
X-11966Y-401453D01*
X-10789Y-401178D01*
X-9606Y-400931D01*
X-8418Y-400714D01*
X-7224Y-400525D01*
X-6027Y-400365D01*
X-4826Y-400233D01*
X-3622Y-400131D01*
X-2416Y-400058D01*
X-1208Y-400015D01*
X0Y-400000D01*
M02*
