%
M48
M72
T01C0.01181
T02C0.01378
T03C0.03500
%
T01
X78106Y86146
X82043Y82209
X85980Y87130
X85980Y93035
X89917Y97957
X93854Y94020
X93854Y86146
X89917Y82209
X82043Y97957
X78106Y94020
T02
X66491Y100909
X73129Y61791
X67712Y49650
X70428Y11343
T03
X50743Y9650
X50743Y19650
X50743Y29650
X50743Y39650
X50743Y49650
X50743Y59650
X50743Y69650
X50743Y79650
X50743Y89650
X50743Y99650
M30
