G04 EAGLE Gerber X2 export*
%TF.Part,Single*%
%TF.FileFunction,Legend,Bot,1*%
%TF.FilePolarity,Positive*%
%TF.GenerationSoftware,Autodesk,EAGLE,9.0.0*%
%TF.CreationDate,2018-04-26T19:48:34Z*%
G75*
%MOMM*%
%FSLAX34Y34*%
%LPD*%
%AMOC8*
5,1,8,0,0,1.08239X$1,22.5*%
G01*
%ADD10C,0.076200*%
%ADD11C,0.127000*%
%ADD12C,0.254000*%
%ADD13R,0.300000X2.100000*%


D10*
X261038Y192231D02*
X261038Y201469D01*
X258472Y201469D01*
X258373Y201467D01*
X258273Y201461D01*
X258174Y201452D01*
X258076Y201438D01*
X257978Y201421D01*
X257880Y201400D01*
X257784Y201375D01*
X257689Y201346D01*
X257594Y201314D01*
X257502Y201278D01*
X257410Y201239D01*
X257320Y201196D01*
X257232Y201150D01*
X257146Y201100D01*
X257062Y201047D01*
X256980Y200991D01*
X256900Y200931D01*
X256823Y200869D01*
X256748Y200803D01*
X256675Y200735D01*
X256606Y200664D01*
X256539Y200590D01*
X256475Y200514D01*
X256414Y200435D01*
X256356Y200354D01*
X256301Y200271D01*
X256250Y200186D01*
X256202Y200099D01*
X256157Y200010D01*
X256116Y199919D01*
X256078Y199827D01*
X256044Y199734D01*
X256014Y199639D01*
X255987Y199543D01*
X255964Y199446D01*
X255945Y199349D01*
X255930Y199250D01*
X255918Y199151D01*
X255910Y199052D01*
X255906Y198953D01*
X255906Y198853D01*
X255910Y198754D01*
X255918Y198655D01*
X255930Y198556D01*
X255945Y198457D01*
X255964Y198360D01*
X255987Y198263D01*
X256014Y198167D01*
X256044Y198072D01*
X256078Y197979D01*
X256116Y197887D01*
X256157Y197796D01*
X256202Y197707D01*
X256250Y197620D01*
X256301Y197535D01*
X256356Y197452D01*
X256414Y197371D01*
X256475Y197292D01*
X256539Y197216D01*
X256606Y197142D01*
X256675Y197071D01*
X256748Y197003D01*
X256823Y196937D01*
X256900Y196875D01*
X256980Y196815D01*
X257062Y196759D01*
X257146Y196706D01*
X257232Y196656D01*
X257320Y196610D01*
X257410Y196567D01*
X257502Y196528D01*
X257594Y196492D01*
X257689Y196460D01*
X257784Y196431D01*
X257880Y196406D01*
X257978Y196385D01*
X258076Y196368D01*
X258174Y196354D01*
X258273Y196345D01*
X258373Y196339D01*
X258472Y196337D01*
X261038Y196337D01*
X257959Y196337D02*
X255906Y192231D01*
X246962Y199159D02*
X246964Y199254D01*
X246970Y199350D01*
X246980Y199445D01*
X246994Y199539D01*
X247011Y199633D01*
X247033Y199726D01*
X247058Y199818D01*
X247087Y199909D01*
X247120Y199999D01*
X247157Y200087D01*
X247197Y200174D01*
X247240Y200258D01*
X247288Y200341D01*
X247338Y200422D01*
X247392Y200501D01*
X247449Y200578D01*
X247509Y200652D01*
X247572Y200724D01*
X247639Y200792D01*
X247707Y200859D01*
X247779Y200922D01*
X247853Y200982D01*
X247930Y201039D01*
X248009Y201093D01*
X248090Y201143D01*
X248173Y201191D01*
X248257Y201234D01*
X248344Y201274D01*
X248432Y201311D01*
X248522Y201344D01*
X248613Y201373D01*
X248705Y201398D01*
X248798Y201420D01*
X248892Y201437D01*
X248986Y201451D01*
X249081Y201461D01*
X249177Y201467D01*
X249272Y201469D01*
X249379Y201467D01*
X249485Y201461D01*
X249591Y201452D01*
X249697Y201438D01*
X249802Y201421D01*
X249907Y201400D01*
X250010Y201376D01*
X250113Y201347D01*
X250215Y201315D01*
X250315Y201280D01*
X250414Y201240D01*
X250512Y201197D01*
X250608Y201151D01*
X250702Y201101D01*
X250795Y201048D01*
X250885Y200992D01*
X250974Y200932D01*
X251060Y200870D01*
X251144Y200804D01*
X251225Y200735D01*
X251304Y200664D01*
X251381Y200589D01*
X251454Y200512D01*
X251525Y200432D01*
X251593Y200350D01*
X251658Y200266D01*
X251720Y200179D01*
X251778Y200090D01*
X251834Y199999D01*
X251886Y199906D01*
X251935Y199811D01*
X251980Y199714D01*
X252022Y199616D01*
X252060Y199517D01*
X252095Y199416D01*
X247733Y197363D02*
X247665Y197430D01*
X247599Y197500D01*
X247537Y197573D01*
X247477Y197647D01*
X247420Y197724D01*
X247366Y197803D01*
X247316Y197884D01*
X247268Y197967D01*
X247224Y198052D01*
X247183Y198138D01*
X247145Y198226D01*
X247111Y198315D01*
X247080Y198406D01*
X247053Y198498D01*
X247029Y198590D01*
X247009Y198684D01*
X246992Y198778D01*
X246980Y198873D01*
X246970Y198968D01*
X246965Y199063D01*
X246963Y199159D01*
X247732Y197363D02*
X252094Y192231D01*
X246962Y192231D01*
X214169Y177112D02*
X204931Y177112D01*
X214169Y177112D02*
X214169Y179678D01*
X214167Y179777D01*
X214161Y179877D01*
X214152Y179976D01*
X214138Y180074D01*
X214121Y180172D01*
X214100Y180270D01*
X214075Y180366D01*
X214046Y180461D01*
X214014Y180556D01*
X213978Y180648D01*
X213939Y180740D01*
X213896Y180830D01*
X213850Y180918D01*
X213800Y181004D01*
X213747Y181088D01*
X213691Y181170D01*
X213631Y181250D01*
X213569Y181327D01*
X213503Y181402D01*
X213435Y181475D01*
X213364Y181544D01*
X213290Y181611D01*
X213214Y181675D01*
X213135Y181736D01*
X213054Y181794D01*
X212971Y181849D01*
X212886Y181900D01*
X212799Y181948D01*
X212710Y181993D01*
X212619Y182034D01*
X212527Y182072D01*
X212434Y182106D01*
X212339Y182136D01*
X212243Y182163D01*
X212146Y182186D01*
X212049Y182205D01*
X211950Y182220D01*
X211851Y182232D01*
X211752Y182240D01*
X211653Y182244D01*
X211553Y182244D01*
X211454Y182240D01*
X211355Y182232D01*
X211256Y182220D01*
X211157Y182205D01*
X211060Y182186D01*
X210963Y182163D01*
X210867Y182136D01*
X210772Y182106D01*
X210679Y182072D01*
X210587Y182034D01*
X210496Y181993D01*
X210407Y181948D01*
X210320Y181900D01*
X210235Y181849D01*
X210152Y181794D01*
X210071Y181736D01*
X209992Y181675D01*
X209916Y181611D01*
X209842Y181544D01*
X209771Y181475D01*
X209703Y181402D01*
X209637Y181327D01*
X209575Y181250D01*
X209515Y181170D01*
X209459Y181088D01*
X209406Y181004D01*
X209356Y180918D01*
X209310Y180830D01*
X209267Y180740D01*
X209228Y180648D01*
X209192Y180556D01*
X209160Y180461D01*
X209131Y180366D01*
X209106Y180270D01*
X209085Y180172D01*
X209068Y180074D01*
X209054Y179976D01*
X209045Y179877D01*
X209039Y179777D01*
X209037Y179678D01*
X209037Y177112D01*
X209037Y180192D02*
X204931Y182244D01*
X204931Y186056D02*
X204931Y188622D01*
X204933Y188721D01*
X204939Y188821D01*
X204948Y188920D01*
X204962Y189018D01*
X204979Y189116D01*
X205000Y189214D01*
X205025Y189310D01*
X205054Y189405D01*
X205086Y189500D01*
X205122Y189592D01*
X205161Y189684D01*
X205204Y189774D01*
X205250Y189862D01*
X205300Y189948D01*
X205353Y190032D01*
X205409Y190114D01*
X205469Y190194D01*
X205531Y190271D01*
X205597Y190346D01*
X205665Y190419D01*
X205736Y190488D01*
X205810Y190555D01*
X205886Y190619D01*
X205965Y190680D01*
X206046Y190738D01*
X206129Y190793D01*
X206214Y190844D01*
X206301Y190892D01*
X206390Y190937D01*
X206481Y190978D01*
X206573Y191016D01*
X206666Y191050D01*
X206761Y191080D01*
X206857Y191107D01*
X206954Y191130D01*
X207051Y191149D01*
X207150Y191164D01*
X207249Y191176D01*
X207348Y191184D01*
X207447Y191188D01*
X207547Y191188D01*
X207646Y191184D01*
X207745Y191176D01*
X207844Y191164D01*
X207943Y191149D01*
X208040Y191130D01*
X208137Y191107D01*
X208233Y191080D01*
X208328Y191050D01*
X208421Y191016D01*
X208513Y190978D01*
X208604Y190937D01*
X208693Y190892D01*
X208780Y190844D01*
X208865Y190793D01*
X208948Y190738D01*
X209029Y190680D01*
X209108Y190619D01*
X209184Y190555D01*
X209258Y190488D01*
X209329Y190419D01*
X209397Y190346D01*
X209463Y190271D01*
X209525Y190194D01*
X209585Y190114D01*
X209641Y190032D01*
X209694Y189948D01*
X209744Y189862D01*
X209790Y189774D01*
X209833Y189684D01*
X209872Y189592D01*
X209908Y189500D01*
X209940Y189405D01*
X209969Y189310D01*
X209994Y189214D01*
X210015Y189116D01*
X210032Y189018D01*
X210046Y188920D01*
X210055Y188821D01*
X210061Y188721D01*
X210063Y188622D01*
X214169Y189135D02*
X214169Y186056D01*
X214169Y189135D02*
X214167Y189225D01*
X214161Y189314D01*
X214151Y189403D01*
X214138Y189491D01*
X214120Y189579D01*
X214099Y189666D01*
X214074Y189752D01*
X214045Y189837D01*
X214013Y189921D01*
X213977Y190003D01*
X213937Y190083D01*
X213894Y190162D01*
X213847Y190238D01*
X213798Y190313D01*
X213745Y190385D01*
X213689Y190455D01*
X213630Y190522D01*
X213568Y190587D01*
X213503Y190649D01*
X213436Y190708D01*
X213366Y190764D01*
X213294Y190817D01*
X213219Y190866D01*
X213143Y190913D01*
X213064Y190956D01*
X212984Y190996D01*
X212902Y191032D01*
X212818Y191064D01*
X212733Y191093D01*
X212647Y191118D01*
X212560Y191139D01*
X212472Y191157D01*
X212384Y191170D01*
X212295Y191180D01*
X212206Y191186D01*
X212116Y191188D01*
X212026Y191186D01*
X211937Y191180D01*
X211848Y191170D01*
X211760Y191157D01*
X211672Y191139D01*
X211585Y191118D01*
X211499Y191093D01*
X211414Y191064D01*
X211330Y191032D01*
X211248Y190996D01*
X211168Y190956D01*
X211090Y190913D01*
X211013Y190866D01*
X210938Y190817D01*
X210866Y190764D01*
X210796Y190708D01*
X210729Y190649D01*
X210664Y190587D01*
X210602Y190522D01*
X210543Y190455D01*
X210487Y190385D01*
X210434Y190313D01*
X210385Y190238D01*
X210338Y190162D01*
X210295Y190083D01*
X210255Y190003D01*
X210219Y189921D01*
X210187Y189837D01*
X210158Y189752D01*
X210133Y189666D01*
X210112Y189579D01*
X210094Y189491D01*
X210081Y189403D01*
X210071Y189314D01*
X210065Y189225D01*
X210063Y189135D01*
X210063Y187082D01*
D11*
X271300Y249875D02*
X271300Y289875D01*
X271300Y249875D02*
X211300Y249875D01*
X211300Y289875D01*
X271300Y289875D01*
D10*
X247607Y242744D02*
X247607Y233506D01*
X243502Y233506D01*
X240125Y240691D02*
X237559Y242744D01*
X237559Y233506D01*
X240125Y233506D02*
X234993Y233506D01*
X281131Y187917D02*
X281131Y185864D01*
X281133Y185774D01*
X281139Y185685D01*
X281149Y185596D01*
X281162Y185508D01*
X281180Y185420D01*
X281201Y185333D01*
X281226Y185247D01*
X281255Y185162D01*
X281287Y185078D01*
X281323Y184996D01*
X281363Y184916D01*
X281406Y184838D01*
X281453Y184761D01*
X281502Y184686D01*
X281555Y184614D01*
X281611Y184544D01*
X281670Y184477D01*
X281732Y184412D01*
X281797Y184350D01*
X281864Y184291D01*
X281934Y184235D01*
X282006Y184182D01*
X282081Y184133D01*
X282158Y184086D01*
X282236Y184043D01*
X282316Y184003D01*
X282398Y183967D01*
X282482Y183935D01*
X282567Y183906D01*
X282653Y183881D01*
X282740Y183860D01*
X282828Y183842D01*
X282916Y183829D01*
X283005Y183819D01*
X283094Y183813D01*
X283184Y183811D01*
X288316Y183811D01*
X288406Y183813D01*
X288495Y183819D01*
X288584Y183829D01*
X288672Y183842D01*
X288760Y183860D01*
X288847Y183881D01*
X288933Y183906D01*
X289018Y183935D01*
X289102Y183967D01*
X289184Y184003D01*
X289264Y184043D01*
X289342Y184086D01*
X289419Y184133D01*
X289494Y184182D01*
X289566Y184235D01*
X289636Y184291D01*
X289703Y184350D01*
X289768Y184412D01*
X289830Y184477D01*
X289889Y184544D01*
X289945Y184614D01*
X289998Y184686D01*
X290047Y184761D01*
X290094Y184837D01*
X290137Y184916D01*
X290177Y184996D01*
X290213Y185078D01*
X290245Y185162D01*
X290274Y185247D01*
X290299Y185333D01*
X290320Y185420D01*
X290338Y185507D01*
X290351Y185596D01*
X290361Y185685D01*
X290367Y185774D01*
X290369Y185864D01*
X290369Y187917D01*
X286263Y191337D02*
X286263Y194416D01*
X286261Y194506D01*
X286255Y194595D01*
X286245Y194684D01*
X286232Y194772D01*
X286214Y194860D01*
X286193Y194947D01*
X286168Y195033D01*
X286139Y195118D01*
X286107Y195202D01*
X286071Y195284D01*
X286031Y195364D01*
X285988Y195443D01*
X285941Y195519D01*
X285892Y195594D01*
X285839Y195666D01*
X285783Y195736D01*
X285724Y195803D01*
X285662Y195868D01*
X285597Y195930D01*
X285530Y195989D01*
X285460Y196045D01*
X285388Y196098D01*
X285313Y196147D01*
X285237Y196194D01*
X285158Y196237D01*
X285078Y196277D01*
X284996Y196313D01*
X284912Y196345D01*
X284827Y196374D01*
X284741Y196399D01*
X284654Y196420D01*
X284566Y196438D01*
X284478Y196451D01*
X284389Y196461D01*
X284300Y196467D01*
X284210Y196469D01*
X283697Y196469D01*
X283598Y196467D01*
X283498Y196461D01*
X283399Y196452D01*
X283301Y196438D01*
X283203Y196421D01*
X283105Y196400D01*
X283009Y196375D01*
X282914Y196346D01*
X282819Y196314D01*
X282727Y196278D01*
X282635Y196239D01*
X282545Y196196D01*
X282457Y196150D01*
X282371Y196100D01*
X282287Y196047D01*
X282205Y195991D01*
X282125Y195931D01*
X282048Y195869D01*
X281973Y195803D01*
X281900Y195735D01*
X281831Y195664D01*
X281764Y195590D01*
X281700Y195514D01*
X281639Y195435D01*
X281581Y195354D01*
X281526Y195271D01*
X281475Y195186D01*
X281427Y195099D01*
X281382Y195010D01*
X281341Y194919D01*
X281303Y194827D01*
X281269Y194734D01*
X281239Y194639D01*
X281212Y194543D01*
X281189Y194446D01*
X281170Y194349D01*
X281155Y194250D01*
X281143Y194151D01*
X281135Y194052D01*
X281131Y193953D01*
X281131Y193853D01*
X281135Y193754D01*
X281143Y193655D01*
X281155Y193556D01*
X281170Y193457D01*
X281189Y193360D01*
X281212Y193263D01*
X281239Y193167D01*
X281269Y193072D01*
X281303Y192979D01*
X281341Y192887D01*
X281382Y192796D01*
X281427Y192707D01*
X281475Y192620D01*
X281526Y192535D01*
X281581Y192452D01*
X281639Y192371D01*
X281700Y192292D01*
X281764Y192216D01*
X281831Y192142D01*
X281900Y192071D01*
X281973Y192003D01*
X282048Y191937D01*
X282125Y191875D01*
X282205Y191815D01*
X282287Y191759D01*
X282371Y191706D01*
X282457Y191656D01*
X282545Y191610D01*
X282635Y191567D01*
X282727Y191528D01*
X282819Y191492D01*
X282914Y191460D01*
X283009Y191431D01*
X283105Y191406D01*
X283203Y191385D01*
X283301Y191368D01*
X283399Y191354D01*
X283498Y191345D01*
X283598Y191339D01*
X283697Y191337D01*
X286263Y191337D01*
X286389Y191339D01*
X286516Y191345D01*
X286642Y191355D01*
X286768Y191368D01*
X286893Y191386D01*
X287017Y191407D01*
X287141Y191432D01*
X287265Y191461D01*
X287387Y191494D01*
X287508Y191530D01*
X287628Y191570D01*
X287746Y191614D01*
X287863Y191662D01*
X287979Y191713D01*
X288093Y191767D01*
X288206Y191826D01*
X288316Y191887D01*
X288425Y191952D01*
X288531Y192020D01*
X288635Y192092D01*
X288737Y192166D01*
X288837Y192244D01*
X288934Y192325D01*
X289029Y192409D01*
X289121Y192495D01*
X289211Y192585D01*
X289297Y192677D01*
X289381Y192772D01*
X289462Y192869D01*
X289540Y192969D01*
X289614Y193071D01*
X289686Y193175D01*
X289754Y193281D01*
X289819Y193390D01*
X289880Y193500D01*
X289939Y193613D01*
X289993Y193727D01*
X290044Y193843D01*
X290092Y193960D01*
X290136Y194078D01*
X290176Y194198D01*
X290212Y194319D01*
X290245Y194441D01*
X290274Y194565D01*
X290299Y194688D01*
X290320Y194813D01*
X290338Y194938D01*
X290351Y195064D01*
X290361Y195190D01*
X290367Y195317D01*
X290369Y195443D01*
X306531Y187917D02*
X306531Y185864D01*
X306533Y185774D01*
X306539Y185685D01*
X306549Y185596D01*
X306562Y185508D01*
X306580Y185420D01*
X306601Y185333D01*
X306626Y185247D01*
X306655Y185162D01*
X306687Y185078D01*
X306723Y184996D01*
X306763Y184916D01*
X306806Y184838D01*
X306853Y184761D01*
X306902Y184686D01*
X306955Y184614D01*
X307011Y184544D01*
X307070Y184477D01*
X307132Y184412D01*
X307197Y184350D01*
X307264Y184291D01*
X307334Y184235D01*
X307406Y184182D01*
X307481Y184133D01*
X307558Y184086D01*
X307636Y184043D01*
X307716Y184003D01*
X307798Y183967D01*
X307882Y183935D01*
X307967Y183906D01*
X308053Y183881D01*
X308140Y183860D01*
X308228Y183842D01*
X308316Y183829D01*
X308405Y183819D01*
X308494Y183813D01*
X308584Y183811D01*
X313716Y183811D01*
X313806Y183813D01*
X313895Y183819D01*
X313984Y183829D01*
X314072Y183842D01*
X314160Y183860D01*
X314247Y183881D01*
X314333Y183906D01*
X314418Y183935D01*
X314502Y183967D01*
X314584Y184003D01*
X314664Y184043D01*
X314742Y184086D01*
X314819Y184133D01*
X314894Y184182D01*
X314966Y184235D01*
X315036Y184291D01*
X315103Y184350D01*
X315168Y184412D01*
X315230Y184477D01*
X315289Y184544D01*
X315345Y184614D01*
X315398Y184686D01*
X315447Y184761D01*
X315494Y184837D01*
X315537Y184916D01*
X315577Y184996D01*
X315613Y185078D01*
X315645Y185162D01*
X315674Y185247D01*
X315699Y185333D01*
X315720Y185420D01*
X315738Y185507D01*
X315751Y185596D01*
X315761Y185685D01*
X315767Y185774D01*
X315769Y185864D01*
X315769Y187917D01*
X315769Y191337D02*
X314743Y191337D01*
X315769Y191337D02*
X315769Y196469D01*
X306531Y193903D01*
X331931Y187917D02*
X331931Y185864D01*
X331933Y185774D01*
X331939Y185685D01*
X331949Y185596D01*
X331962Y185508D01*
X331980Y185420D01*
X332001Y185333D01*
X332026Y185247D01*
X332055Y185162D01*
X332087Y185078D01*
X332123Y184996D01*
X332163Y184916D01*
X332206Y184838D01*
X332253Y184761D01*
X332302Y184686D01*
X332355Y184614D01*
X332411Y184544D01*
X332470Y184477D01*
X332532Y184412D01*
X332597Y184350D01*
X332664Y184291D01*
X332734Y184235D01*
X332806Y184182D01*
X332881Y184133D01*
X332958Y184086D01*
X333036Y184043D01*
X333116Y184003D01*
X333198Y183967D01*
X333282Y183935D01*
X333367Y183906D01*
X333453Y183881D01*
X333540Y183860D01*
X333628Y183842D01*
X333716Y183829D01*
X333805Y183819D01*
X333894Y183813D01*
X333984Y183811D01*
X339116Y183811D01*
X339206Y183813D01*
X339295Y183819D01*
X339384Y183829D01*
X339472Y183842D01*
X339560Y183860D01*
X339647Y183881D01*
X339733Y183906D01*
X339818Y183935D01*
X339902Y183967D01*
X339984Y184003D01*
X340064Y184043D01*
X340142Y184086D01*
X340219Y184133D01*
X340294Y184182D01*
X340366Y184235D01*
X340436Y184291D01*
X340503Y184350D01*
X340568Y184412D01*
X340630Y184477D01*
X340689Y184544D01*
X340745Y184614D01*
X340798Y184686D01*
X340847Y184761D01*
X340894Y184837D01*
X340937Y184916D01*
X340977Y184996D01*
X341013Y185078D01*
X341045Y185162D01*
X341074Y185247D01*
X341099Y185333D01*
X341120Y185420D01*
X341138Y185507D01*
X341151Y185596D01*
X341161Y185685D01*
X341167Y185774D01*
X341169Y185864D01*
X341169Y187917D01*
X334497Y191337D02*
X334596Y191339D01*
X334696Y191345D01*
X334795Y191354D01*
X334893Y191368D01*
X334991Y191385D01*
X335089Y191406D01*
X335185Y191431D01*
X335280Y191460D01*
X335375Y191492D01*
X335467Y191528D01*
X335559Y191567D01*
X335649Y191610D01*
X335737Y191656D01*
X335823Y191706D01*
X335907Y191759D01*
X335989Y191815D01*
X336069Y191875D01*
X336146Y191937D01*
X336221Y192003D01*
X336294Y192071D01*
X336363Y192142D01*
X336430Y192216D01*
X336494Y192292D01*
X336555Y192371D01*
X336613Y192452D01*
X336668Y192535D01*
X336719Y192620D01*
X336767Y192707D01*
X336812Y192796D01*
X336853Y192887D01*
X336891Y192979D01*
X336925Y193072D01*
X336955Y193167D01*
X336982Y193263D01*
X337005Y193360D01*
X337024Y193457D01*
X337039Y193556D01*
X337051Y193655D01*
X337059Y193754D01*
X337063Y193853D01*
X337063Y193953D01*
X337059Y194052D01*
X337051Y194151D01*
X337039Y194250D01*
X337024Y194349D01*
X337005Y194446D01*
X336982Y194543D01*
X336955Y194639D01*
X336925Y194734D01*
X336891Y194827D01*
X336853Y194919D01*
X336812Y195010D01*
X336767Y195099D01*
X336719Y195186D01*
X336668Y195271D01*
X336613Y195354D01*
X336555Y195435D01*
X336494Y195514D01*
X336430Y195590D01*
X336363Y195664D01*
X336294Y195735D01*
X336221Y195803D01*
X336146Y195869D01*
X336069Y195931D01*
X335989Y195991D01*
X335907Y196047D01*
X335823Y196100D01*
X335737Y196150D01*
X335649Y196196D01*
X335559Y196239D01*
X335467Y196278D01*
X335375Y196314D01*
X335280Y196346D01*
X335185Y196375D01*
X335089Y196400D01*
X334991Y196421D01*
X334893Y196438D01*
X334795Y196452D01*
X334696Y196461D01*
X334596Y196467D01*
X334497Y196469D01*
X334398Y196467D01*
X334298Y196461D01*
X334199Y196452D01*
X334101Y196438D01*
X334003Y196421D01*
X333905Y196400D01*
X333809Y196375D01*
X333714Y196346D01*
X333619Y196314D01*
X333527Y196278D01*
X333435Y196239D01*
X333345Y196196D01*
X333257Y196150D01*
X333171Y196100D01*
X333087Y196047D01*
X333005Y195991D01*
X332925Y195931D01*
X332848Y195869D01*
X332773Y195803D01*
X332700Y195735D01*
X332631Y195664D01*
X332564Y195590D01*
X332500Y195514D01*
X332439Y195435D01*
X332381Y195354D01*
X332326Y195271D01*
X332275Y195186D01*
X332227Y195099D01*
X332182Y195010D01*
X332141Y194919D01*
X332103Y194827D01*
X332069Y194734D01*
X332039Y194639D01*
X332012Y194543D01*
X331989Y194446D01*
X331970Y194349D01*
X331955Y194250D01*
X331943Y194151D01*
X331935Y194052D01*
X331931Y193953D01*
X331931Y193853D01*
X331935Y193754D01*
X331943Y193655D01*
X331955Y193556D01*
X331970Y193457D01*
X331989Y193360D01*
X332012Y193263D01*
X332039Y193167D01*
X332069Y193072D01*
X332103Y192979D01*
X332141Y192887D01*
X332182Y192796D01*
X332227Y192707D01*
X332275Y192620D01*
X332326Y192535D01*
X332381Y192452D01*
X332439Y192371D01*
X332500Y192292D01*
X332564Y192216D01*
X332631Y192142D01*
X332700Y192071D01*
X332773Y192003D01*
X332848Y191937D01*
X332925Y191875D01*
X333005Y191815D01*
X333087Y191759D01*
X333171Y191706D01*
X333257Y191656D01*
X333345Y191610D01*
X333435Y191567D01*
X333527Y191528D01*
X333619Y191492D01*
X333714Y191460D01*
X333809Y191431D01*
X333905Y191406D01*
X334003Y191385D01*
X334101Y191368D01*
X334199Y191354D01*
X334298Y191345D01*
X334398Y191339D01*
X334497Y191337D01*
X339116Y191850D02*
X339206Y191852D01*
X339295Y191858D01*
X339384Y191868D01*
X339472Y191881D01*
X339560Y191899D01*
X339647Y191920D01*
X339733Y191945D01*
X339818Y191974D01*
X339902Y192006D01*
X339984Y192042D01*
X340064Y192082D01*
X340143Y192125D01*
X340219Y192172D01*
X340294Y192221D01*
X340366Y192274D01*
X340436Y192330D01*
X340503Y192389D01*
X340568Y192451D01*
X340630Y192516D01*
X340689Y192583D01*
X340745Y192653D01*
X340798Y192725D01*
X340847Y192800D01*
X340894Y192877D01*
X340937Y192955D01*
X340977Y193035D01*
X341013Y193117D01*
X341045Y193201D01*
X341074Y193286D01*
X341099Y193372D01*
X341120Y193459D01*
X341138Y193547D01*
X341151Y193635D01*
X341161Y193724D01*
X341167Y193813D01*
X341169Y193903D01*
X341167Y193993D01*
X341161Y194082D01*
X341151Y194171D01*
X341138Y194259D01*
X341120Y194347D01*
X341099Y194434D01*
X341074Y194520D01*
X341045Y194605D01*
X341013Y194689D01*
X340977Y194771D01*
X340937Y194851D01*
X340894Y194930D01*
X340847Y195006D01*
X340798Y195081D01*
X340745Y195153D01*
X340689Y195223D01*
X340630Y195290D01*
X340568Y195355D01*
X340503Y195417D01*
X340436Y195476D01*
X340366Y195532D01*
X340294Y195585D01*
X340219Y195634D01*
X340143Y195681D01*
X340064Y195724D01*
X339984Y195764D01*
X339902Y195800D01*
X339818Y195832D01*
X339733Y195861D01*
X339647Y195886D01*
X339560Y195907D01*
X339472Y195925D01*
X339384Y195938D01*
X339295Y195948D01*
X339206Y195954D01*
X339116Y195956D01*
X339026Y195954D01*
X338937Y195948D01*
X338848Y195938D01*
X338760Y195925D01*
X338672Y195907D01*
X338585Y195886D01*
X338499Y195861D01*
X338414Y195832D01*
X338330Y195800D01*
X338248Y195764D01*
X338168Y195724D01*
X338090Y195681D01*
X338013Y195634D01*
X337938Y195585D01*
X337866Y195532D01*
X337796Y195476D01*
X337729Y195417D01*
X337664Y195355D01*
X337602Y195290D01*
X337543Y195223D01*
X337487Y195153D01*
X337434Y195081D01*
X337385Y195006D01*
X337338Y194930D01*
X337295Y194851D01*
X337255Y194771D01*
X337219Y194689D01*
X337187Y194605D01*
X337158Y194520D01*
X337133Y194434D01*
X337112Y194347D01*
X337094Y194259D01*
X337081Y194171D01*
X337071Y194082D01*
X337065Y193993D01*
X337063Y193903D01*
X337065Y193813D01*
X337071Y193724D01*
X337081Y193635D01*
X337094Y193547D01*
X337112Y193459D01*
X337133Y193372D01*
X337158Y193286D01*
X337187Y193201D01*
X337219Y193117D01*
X337255Y193035D01*
X337295Y192955D01*
X337338Y192877D01*
X337385Y192800D01*
X337434Y192725D01*
X337487Y192653D01*
X337543Y192583D01*
X337602Y192516D01*
X337664Y192451D01*
X337729Y192389D01*
X337796Y192330D01*
X337866Y192274D01*
X337938Y192221D01*
X338013Y192172D01*
X338090Y192125D01*
X338168Y192082D01*
X338248Y192042D01*
X338330Y192006D01*
X338414Y191974D01*
X338499Y191945D01*
X338585Y191920D01*
X338672Y191899D01*
X338760Y191881D01*
X338848Y191868D01*
X338937Y191858D01*
X339026Y191852D01*
X339116Y191850D01*
X179531Y187917D02*
X179531Y185864D01*
X179533Y185774D01*
X179539Y185685D01*
X179549Y185596D01*
X179562Y185508D01*
X179580Y185420D01*
X179601Y185333D01*
X179626Y185247D01*
X179655Y185162D01*
X179687Y185078D01*
X179723Y184996D01*
X179763Y184916D01*
X179806Y184838D01*
X179853Y184761D01*
X179902Y184686D01*
X179955Y184614D01*
X180011Y184544D01*
X180070Y184477D01*
X180132Y184412D01*
X180197Y184350D01*
X180264Y184291D01*
X180334Y184235D01*
X180406Y184182D01*
X180481Y184133D01*
X180558Y184086D01*
X180636Y184043D01*
X180716Y184003D01*
X180798Y183967D01*
X180882Y183935D01*
X180967Y183906D01*
X181053Y183881D01*
X181140Y183860D01*
X181228Y183842D01*
X181316Y183829D01*
X181405Y183819D01*
X181494Y183813D01*
X181584Y183811D01*
X186716Y183811D01*
X186806Y183813D01*
X186895Y183819D01*
X186984Y183829D01*
X187072Y183842D01*
X187160Y183860D01*
X187247Y183881D01*
X187333Y183906D01*
X187418Y183935D01*
X187502Y183967D01*
X187584Y184003D01*
X187664Y184043D01*
X187742Y184086D01*
X187819Y184133D01*
X187894Y184182D01*
X187966Y184235D01*
X188036Y184291D01*
X188103Y184350D01*
X188168Y184412D01*
X188230Y184477D01*
X188289Y184544D01*
X188345Y184614D01*
X188398Y184686D01*
X188447Y184761D01*
X188494Y184837D01*
X188537Y184916D01*
X188577Y184996D01*
X188613Y185078D01*
X188645Y185162D01*
X188674Y185247D01*
X188699Y185333D01*
X188720Y185420D01*
X188738Y185507D01*
X188751Y185596D01*
X188761Y185685D01*
X188767Y185774D01*
X188769Y185864D01*
X188769Y187917D01*
X188769Y194159D02*
X188767Y194254D01*
X188761Y194350D01*
X188751Y194445D01*
X188737Y194539D01*
X188720Y194633D01*
X188698Y194726D01*
X188673Y194818D01*
X188644Y194909D01*
X188611Y194999D01*
X188574Y195087D01*
X188534Y195174D01*
X188491Y195258D01*
X188443Y195341D01*
X188393Y195422D01*
X188339Y195501D01*
X188282Y195578D01*
X188222Y195652D01*
X188159Y195724D01*
X188092Y195792D01*
X188024Y195859D01*
X187952Y195922D01*
X187878Y195982D01*
X187801Y196039D01*
X187722Y196093D01*
X187641Y196143D01*
X187558Y196191D01*
X187474Y196234D01*
X187387Y196274D01*
X187299Y196311D01*
X187209Y196344D01*
X187118Y196373D01*
X187026Y196398D01*
X186933Y196420D01*
X186839Y196437D01*
X186745Y196451D01*
X186650Y196461D01*
X186554Y196467D01*
X186459Y196469D01*
X188769Y194159D02*
X188767Y194052D01*
X188761Y193946D01*
X188752Y193840D01*
X188738Y193734D01*
X188721Y193629D01*
X188700Y193524D01*
X188676Y193421D01*
X188647Y193318D01*
X188615Y193216D01*
X188580Y193116D01*
X188540Y193017D01*
X188497Y192919D01*
X188451Y192823D01*
X188401Y192729D01*
X188348Y192636D01*
X188292Y192546D01*
X188232Y192457D01*
X188170Y192371D01*
X188104Y192287D01*
X188035Y192206D01*
X187964Y192127D01*
X187889Y192050D01*
X187812Y191977D01*
X187732Y191906D01*
X187650Y191838D01*
X187566Y191773D01*
X187479Y191711D01*
X187390Y191653D01*
X187299Y191597D01*
X187206Y191545D01*
X187111Y191496D01*
X187014Y191451D01*
X186916Y191409D01*
X186817Y191371D01*
X186716Y191336D01*
X184662Y195700D02*
X184730Y195768D01*
X184800Y195833D01*
X184872Y195896D01*
X184947Y195956D01*
X185024Y196013D01*
X185103Y196066D01*
X185184Y196117D01*
X185267Y196165D01*
X185351Y196209D01*
X185438Y196250D01*
X185526Y196288D01*
X185615Y196322D01*
X185706Y196353D01*
X185797Y196380D01*
X185890Y196404D01*
X185984Y196424D01*
X186078Y196441D01*
X186173Y196453D01*
X186268Y196463D01*
X186363Y196468D01*
X186459Y196470D01*
X184663Y195699D02*
X179531Y191337D01*
X179531Y196469D01*
X154131Y187917D02*
X154131Y185864D01*
X154133Y185774D01*
X154139Y185685D01*
X154149Y185596D01*
X154162Y185508D01*
X154180Y185420D01*
X154201Y185333D01*
X154226Y185247D01*
X154255Y185162D01*
X154287Y185078D01*
X154323Y184996D01*
X154363Y184916D01*
X154406Y184838D01*
X154453Y184761D01*
X154502Y184686D01*
X154555Y184614D01*
X154611Y184544D01*
X154670Y184477D01*
X154732Y184412D01*
X154797Y184350D01*
X154864Y184291D01*
X154934Y184235D01*
X155006Y184182D01*
X155081Y184133D01*
X155158Y184086D01*
X155236Y184043D01*
X155316Y184003D01*
X155398Y183967D01*
X155482Y183935D01*
X155567Y183906D01*
X155653Y183881D01*
X155740Y183860D01*
X155828Y183842D01*
X155916Y183829D01*
X156005Y183819D01*
X156094Y183813D01*
X156184Y183811D01*
X161316Y183811D01*
X161406Y183813D01*
X161495Y183819D01*
X161584Y183829D01*
X161672Y183842D01*
X161760Y183860D01*
X161847Y183881D01*
X161933Y183906D01*
X162018Y183935D01*
X162102Y183967D01*
X162184Y184003D01*
X162264Y184043D01*
X162342Y184086D01*
X162419Y184133D01*
X162494Y184182D01*
X162566Y184235D01*
X162636Y184291D01*
X162703Y184350D01*
X162768Y184412D01*
X162830Y184477D01*
X162889Y184544D01*
X162945Y184614D01*
X162998Y184686D01*
X163047Y184761D01*
X163094Y184837D01*
X163137Y184916D01*
X163177Y184996D01*
X163213Y185078D01*
X163245Y185162D01*
X163274Y185247D01*
X163299Y185333D01*
X163320Y185420D01*
X163338Y185507D01*
X163351Y185596D01*
X163361Y185685D01*
X163367Y185774D01*
X163369Y185864D01*
X163369Y187917D01*
X161316Y191337D02*
X163369Y193903D01*
X154131Y193903D01*
X154131Y191337D02*
X154131Y196469D01*
D12*
X162425Y259700D02*
X149925Y266700D01*
X162425Y259700D02*
X162425Y273700D01*
X149925Y266700D01*
D13*
X149425Y266700D03*
D10*
X169141Y281131D02*
X169141Y290369D01*
X166575Y290369D01*
X166477Y290367D01*
X166379Y290361D01*
X166281Y290352D01*
X166183Y290339D01*
X166086Y290322D01*
X165990Y290302D01*
X165895Y290277D01*
X165801Y290249D01*
X165708Y290218D01*
X165616Y290183D01*
X165525Y290144D01*
X165436Y290103D01*
X165349Y290057D01*
X165264Y290009D01*
X165180Y289957D01*
X165099Y289902D01*
X165019Y289844D01*
X164942Y289783D01*
X164868Y289719D01*
X164796Y289652D01*
X164726Y289582D01*
X164659Y289510D01*
X164595Y289436D01*
X164534Y289359D01*
X164476Y289279D01*
X164421Y289198D01*
X164369Y289114D01*
X164321Y289029D01*
X164275Y288942D01*
X164234Y288853D01*
X164195Y288762D01*
X164160Y288670D01*
X164129Y288577D01*
X164101Y288483D01*
X164076Y288388D01*
X164056Y288292D01*
X164039Y288195D01*
X164026Y288097D01*
X164017Y287999D01*
X164011Y287901D01*
X164009Y287803D01*
X164009Y283697D01*
X164011Y283599D01*
X164017Y283501D01*
X164026Y283403D01*
X164039Y283305D01*
X164056Y283208D01*
X164076Y283112D01*
X164101Y283017D01*
X164129Y282923D01*
X164160Y282830D01*
X164195Y282738D01*
X164234Y282647D01*
X164275Y282558D01*
X164321Y282471D01*
X164369Y282386D01*
X164421Y282302D01*
X164476Y282221D01*
X164534Y282141D01*
X164595Y282064D01*
X164659Y281990D01*
X164726Y281918D01*
X164796Y281848D01*
X164868Y281781D01*
X164942Y281717D01*
X165019Y281656D01*
X165099Y281598D01*
X165180Y281543D01*
X165264Y281491D01*
X165349Y281443D01*
X165436Y281397D01*
X165525Y281356D01*
X165616Y281317D01*
X165708Y281282D01*
X165801Y281251D01*
X165895Y281223D01*
X165990Y281198D01*
X166086Y281178D01*
X166183Y281161D01*
X166281Y281148D01*
X166379Y281139D01*
X166477Y281133D01*
X166575Y281131D01*
X169141Y281131D01*
X159841Y288316D02*
X157275Y290369D01*
X157275Y281131D01*
X159841Y281131D02*
X154709Y281131D01*
M02*
