G04 EAGLE Gerber X2 export*
G75*
%MOMM*%
%FSLAX35Y35*%
%LPD*%
%AMOC8*
5,1,8,0,0,1.08239X$1,22.5*%
G01*
%ADD10C,0.000000*%
%ADD11R,1.503200X1.703200*%
%ADD12R,1.703200X1.503200*%
%ADD13R,1.703200X2.903200*%
%ADD14C,1.727200*%
%ADD15R,2.003200X2.403200*%
%ADD16C,0.959600*%


D10*
X1016000Y1587500D02*
X1016093Y1579828D01*
X1016371Y1572161D01*
X1016834Y1564502D01*
X1017482Y1556857D01*
X1018315Y1549230D01*
X1019332Y1541625D01*
X1020532Y1534047D01*
X1021915Y1526500D01*
X1023480Y1518989D01*
X1025226Y1511517D01*
X1027152Y1504090D01*
X1029257Y1496712D01*
X1031540Y1489387D01*
X1033998Y1482119D01*
X1036632Y1474913D01*
X1039440Y1467772D01*
X1042418Y1460702D01*
X1045567Y1453705D01*
X1048884Y1446787D01*
X1052368Y1439950D01*
X1056015Y1433200D01*
X1059825Y1426540D01*
X1063794Y1419974D01*
X1067921Y1413506D01*
X1072203Y1407139D01*
X1076637Y1400878D01*
X1081222Y1394726D01*
X1085953Y1388686D01*
X1090830Y1382763D01*
X1095848Y1376959D01*
X1101005Y1371277D01*
X1106297Y1365723D01*
X1111723Y1360297D01*
X1117277Y1355005D01*
X1122959Y1349848D01*
X1128763Y1344830D01*
X1134686Y1339953D01*
X1140726Y1335222D01*
X1146878Y1330637D01*
X1153139Y1326203D01*
X1159506Y1321921D01*
X1165974Y1317794D01*
X1172540Y1313825D01*
X1179200Y1310015D01*
X1185950Y1306368D01*
X1192787Y1302884D01*
X1199705Y1299567D01*
X1206702Y1296418D01*
X1213772Y1293440D01*
X1220913Y1290632D01*
X1228119Y1287998D01*
X1235387Y1285540D01*
X1242712Y1283257D01*
X1250090Y1281152D01*
X1257517Y1279226D01*
X1264989Y1277480D01*
X1272500Y1275915D01*
X1280047Y1274532D01*
X1287625Y1273332D01*
X1295230Y1272315D01*
X1302857Y1271482D01*
X1310502Y1270834D01*
X1318161Y1270371D01*
X1325828Y1270093D01*
X1333500Y1270000D01*
X1016000Y2698750D02*
X1016093Y2706422D01*
X1016371Y2714089D01*
X1016834Y2721748D01*
X1017482Y2729393D01*
X1018315Y2737020D01*
X1019332Y2744625D01*
X1020532Y2752203D01*
X1021915Y2759750D01*
X1023480Y2767261D01*
X1025226Y2774733D01*
X1027152Y2782160D01*
X1029257Y2789538D01*
X1031540Y2796863D01*
X1033998Y2804131D01*
X1036632Y2811337D01*
X1039440Y2818478D01*
X1042418Y2825548D01*
X1045567Y2832545D01*
X1048884Y2839463D01*
X1052368Y2846300D01*
X1056015Y2853050D01*
X1059825Y2859710D01*
X1063794Y2866276D01*
X1067921Y2872744D01*
X1072203Y2879111D01*
X1076637Y2885372D01*
X1081222Y2891524D01*
X1085953Y2897564D01*
X1090830Y2903487D01*
X1095848Y2909291D01*
X1101005Y2914973D01*
X1106297Y2920527D01*
X1111723Y2925953D01*
X1117277Y2931245D01*
X1122959Y2936402D01*
X1128763Y2941420D01*
X1134686Y2946297D01*
X1140726Y2951028D01*
X1146878Y2955613D01*
X1153139Y2960047D01*
X1159506Y2964329D01*
X1165974Y2968456D01*
X1172540Y2972425D01*
X1179200Y2976235D01*
X1185950Y2979882D01*
X1192787Y2983366D01*
X1199705Y2986683D01*
X1206702Y2989832D01*
X1213772Y2992810D01*
X1220913Y2995618D01*
X1228119Y2998252D01*
X1235387Y3000710D01*
X1242712Y3002993D01*
X1250090Y3005098D01*
X1257517Y3007024D01*
X1264989Y3008770D01*
X1272500Y3010335D01*
X1280047Y3011718D01*
X1287625Y3012918D01*
X1295230Y3013935D01*
X1302857Y3014768D01*
X1310502Y3015416D01*
X1318161Y3015879D01*
X1325828Y3016157D01*
X1333500Y3016250D01*
X3619500Y3016250D02*
X3627172Y3016157D01*
X3634839Y3015879D01*
X3642498Y3015416D01*
X3650143Y3014768D01*
X3657770Y3013935D01*
X3665375Y3012918D01*
X3672953Y3011718D01*
X3680500Y3010335D01*
X3688011Y3008770D01*
X3695483Y3007024D01*
X3702910Y3005098D01*
X3710288Y3002993D01*
X3717613Y3000710D01*
X3724881Y2998252D01*
X3732087Y2995618D01*
X3739228Y2992810D01*
X3746298Y2989832D01*
X3753295Y2986683D01*
X3760213Y2983366D01*
X3767050Y2979882D01*
X3773800Y2976235D01*
X3780460Y2972425D01*
X3787026Y2968456D01*
X3793494Y2964329D01*
X3799861Y2960047D01*
X3806122Y2955613D01*
X3812274Y2951028D01*
X3818314Y2946297D01*
X3824237Y2941420D01*
X3830041Y2936402D01*
X3835723Y2931245D01*
X3841277Y2925953D01*
X3846703Y2920527D01*
X3851995Y2914973D01*
X3857152Y2909291D01*
X3862170Y2903487D01*
X3867047Y2897564D01*
X3871778Y2891524D01*
X3876363Y2885372D01*
X3880797Y2879111D01*
X3885079Y2872744D01*
X3889206Y2866276D01*
X3893175Y2859710D01*
X3896985Y2853050D01*
X3900632Y2846300D01*
X3904116Y2839463D01*
X3907433Y2832545D01*
X3910582Y2825548D01*
X3913560Y2818478D01*
X3916368Y2811337D01*
X3919002Y2804131D01*
X3921460Y2796863D01*
X3923743Y2789538D01*
X3925848Y2782160D01*
X3927774Y2774733D01*
X3929520Y2767261D01*
X3931085Y2759750D01*
X3932468Y2752203D01*
X3933668Y2744625D01*
X3934685Y2737020D01*
X3935518Y2729393D01*
X3936166Y2721748D01*
X3936629Y2714089D01*
X3936907Y2706422D01*
X3937000Y2698750D01*
X3937000Y1587500D02*
X3936907Y1579828D01*
X3936629Y1572161D01*
X3936166Y1564502D01*
X3935518Y1556857D01*
X3934685Y1549230D01*
X3933668Y1541625D01*
X3932468Y1534047D01*
X3931085Y1526500D01*
X3929520Y1518989D01*
X3927774Y1511517D01*
X3925848Y1504090D01*
X3923743Y1496712D01*
X3921460Y1489387D01*
X3919002Y1482119D01*
X3916368Y1474913D01*
X3913560Y1467772D01*
X3910582Y1460702D01*
X3907433Y1453705D01*
X3904116Y1446787D01*
X3900632Y1439950D01*
X3896985Y1433200D01*
X3893175Y1426540D01*
X3889206Y1419974D01*
X3885079Y1413506D01*
X3880797Y1407139D01*
X3876363Y1400878D01*
X3871778Y1394726D01*
X3867047Y1388686D01*
X3862170Y1382763D01*
X3857152Y1376959D01*
X3851995Y1371277D01*
X3846703Y1365723D01*
X3841277Y1360297D01*
X3835723Y1355005D01*
X3830041Y1349848D01*
X3824237Y1344830D01*
X3818314Y1339953D01*
X3812274Y1335222D01*
X3806122Y1330637D01*
X3799861Y1326203D01*
X3793494Y1321921D01*
X3787026Y1317794D01*
X3780460Y1313825D01*
X3773800Y1310015D01*
X3767050Y1306368D01*
X3760213Y1302884D01*
X3753295Y1299567D01*
X3746298Y1296418D01*
X3739228Y1293440D01*
X3732087Y1290632D01*
X3724881Y1287998D01*
X3717613Y1285540D01*
X3710288Y1283257D01*
X3702910Y1281152D01*
X3695483Y1279226D01*
X3688011Y1277480D01*
X3680500Y1275915D01*
X3672953Y1274532D01*
X3665375Y1273332D01*
X3657770Y1272315D01*
X3650143Y1271482D01*
X3642498Y1270834D01*
X3634839Y1270371D01*
X3627172Y1270093D01*
X3619500Y1270000D01*
X3619500Y3016250D02*
X1333500Y3016250D01*
X1016000Y2698750D02*
X1016000Y1587500D01*
X1333500Y1270000D02*
X3619500Y1270000D01*
X3937000Y1587500D02*
X3937000Y2698750D01*
D11*
X2445000Y2159000D03*
X2635000Y2159000D03*
D12*
X2095500Y2127500D03*
X2095500Y2317500D03*
D13*
X2278000Y2697750D03*
X2548000Y2699750D03*
D14*
X1346200Y2095500D02*
X1193800Y2095500D01*
X1193800Y2349500D02*
X1346200Y2349500D01*
X3606800Y2095500D02*
X3759200Y2095500D01*
X3759200Y2349500D02*
X3606800Y2349500D01*
X2159000Y1600200D02*
X2159000Y1447800D01*
X2413000Y1447800D02*
X2413000Y1600200D01*
X2667000Y1600200D02*
X2667000Y1447800D01*
D12*
X2857500Y2127500D03*
X2857500Y2317500D03*
X3111500Y2127500D03*
X3111500Y2317500D03*
X3365500Y2127500D03*
X3365500Y2317500D03*
X1841500Y2127500D03*
X1841500Y2317500D03*
X1587500Y2127500D03*
X1587500Y2317500D03*
D15*
X1364250Y2667000D03*
X1874250Y2667000D03*
D16*
X1975000Y2317500D03*
X2975000Y2317500D03*
X2275000Y2075000D03*
X2286000Y2508250D03*
X2540000Y2508250D03*
X2100000Y1975000D03*
M02*
