G04 EAGLE Gerber X2 export*
G75*
%MOMM*%
%FSLAX35Y35*%
%LPD*%
%AMOC8*
5,1,8,0,0,1.08239X$1,22.5*%
G01*
%ADD10C,0.000000*%
%ADD11R,0.250000X0.800000*%
%ADD12R,0.800000X0.250000*%
%ADD13R,0.250000X1.900000*%
%ADD14R,0.250000X1.550000*%
%ADD15R,0.250000X0.600000*%
%ADD16R,1.000000X1.100000*%
%ADD17R,1.300000X1.500000*%
%ADD18C,1.524000*%
%ADD19C,0.254000*%
%ADD20C,0.812800*%
%ADD21C,0.756400*%

G36*
X2093854Y1371608D02*
X2093854Y1371608D01*
X2093894Y1371601D01*
X2094825Y1371806D01*
X2095764Y1371996D01*
X2095798Y1372019D01*
X2095837Y1372028D01*
X2096614Y1372579D01*
X2097405Y1373122D01*
X2097427Y1373156D01*
X2097460Y1373179D01*
X2097958Y1373985D01*
X2098477Y1374798D01*
X2098484Y1374838D01*
X2098505Y1374873D01*
X2098650Y1375817D01*
X2098811Y1376760D01*
X2098801Y1376799D01*
X2098808Y1376839D01*
X2098572Y1377769D01*
X2098353Y1378696D01*
X2098328Y1378729D01*
X2098318Y1378768D01*
X2097349Y1380135D01*
X2081480Y1396003D01*
X2067559Y1429611D01*
X2067559Y1491060D01*
X2067543Y1491140D01*
X2067557Y1491220D01*
X2067345Y1492113D01*
X2067163Y1493010D01*
X2067118Y1493077D01*
X2067099Y1493156D01*
X2066556Y1493896D01*
X2066038Y1494651D01*
X2065970Y1494695D01*
X2065922Y1494761D01*
X2065133Y1495230D01*
X2064362Y1495723D01*
X2064282Y1495737D01*
X2064212Y1495779D01*
X2062560Y1496059D01*
X1963426Y1496059D01*
X1947059Y1512426D01*
X1947059Y2265248D01*
X1947039Y2265348D01*
X1947055Y2265448D01*
X1946843Y2266316D01*
X1946663Y2267198D01*
X1946606Y2267283D01*
X1946582Y2267381D01*
X1946046Y2268099D01*
X1945538Y2268839D01*
X1945453Y2268894D01*
X1945392Y2268976D01*
X1943973Y2269867D01*
X1943346Y2270127D01*
X1927627Y2285846D01*
X1925187Y2291736D01*
X1925108Y2291853D01*
X1925073Y2291991D01*
X1924103Y2293358D01*
X1921939Y2295522D01*
X1921939Y2298582D01*
X1921911Y2298721D01*
X1921932Y2298862D01*
X1921559Y2300495D01*
X1919119Y2306384D01*
X1919119Y2370866D01*
X1927627Y2391404D01*
X1943346Y2407123D01*
X1954797Y2411866D01*
X1954798Y2411867D01*
X1963884Y2415630D01*
X2057010Y2415630D01*
X2057090Y2415647D01*
X2057170Y2415633D01*
X2058063Y2415844D01*
X2058960Y2416026D01*
X2059027Y2416072D01*
X2059106Y2416091D01*
X2059846Y2416634D01*
X2060601Y2417152D01*
X2060645Y2417220D01*
X2060711Y2417268D01*
X2061180Y2418057D01*
X2061673Y2418828D01*
X2061687Y2418908D01*
X2061729Y2418978D01*
X2062009Y2420630D01*
X2062009Y2421063D01*
X2070937Y2429990D01*
X2183563Y2429990D01*
X2192490Y2421063D01*
X2192490Y2393940D01*
X2192507Y2393860D01*
X2192493Y2393780D01*
X2192704Y2392886D01*
X2192886Y2391990D01*
X2192932Y2391923D01*
X2192951Y2391843D01*
X2193494Y2391103D01*
X2194012Y2390348D01*
X2194080Y2390305D01*
X2194128Y2390239D01*
X2194917Y2389769D01*
X2195688Y2389276D01*
X2195768Y2389263D01*
X2195838Y2389221D01*
X2197490Y2388940D01*
X2293167Y2388940D01*
X2294344Y2388740D01*
X2299313Y2388740D01*
X2308240Y2379813D01*
X2308240Y2374844D01*
X2308265Y2374723D01*
X2308246Y2374600D01*
X2308440Y2373837D01*
X2308440Y2323333D01*
X2308240Y2322156D01*
X2308240Y2293940D01*
X2308257Y2293860D01*
X2308243Y2293780D01*
X2308455Y2292884D01*
X2308636Y2291990D01*
X2308682Y2291923D01*
X2308701Y2291843D01*
X2309244Y2291103D01*
X2309762Y2290348D01*
X2309830Y2290305D01*
X2309878Y2290239D01*
X2310667Y2289769D01*
X2311438Y2289276D01*
X2311518Y2289263D01*
X2311588Y2289221D01*
X2313240Y2288940D01*
X2335437Y2288940D01*
X2335477Y2288948D01*
X2335517Y2288941D01*
X2336448Y2289146D01*
X2337387Y2289336D01*
X2337421Y2289359D01*
X2337460Y2289368D01*
X2338232Y2289915D01*
X2339028Y2290462D01*
X2339050Y2290496D01*
X2339083Y2290520D01*
X2339581Y2291325D01*
X2340100Y2292138D01*
X2340107Y2292178D01*
X2340128Y2292213D01*
X2340273Y2293154D01*
X2340434Y2294100D01*
X2340424Y2294139D01*
X2340431Y2294180D01*
X2340197Y2295103D01*
X2339976Y2296036D01*
X2339951Y2296069D01*
X2339941Y2296108D01*
X2338972Y2297475D01*
X2335259Y2301187D01*
X2335259Y2371156D01*
X2335235Y2371275D01*
X2335254Y2371395D01*
X2335059Y2372162D01*
X2335059Y2470201D01*
X2335051Y2470241D01*
X2335059Y2470281D01*
X2334854Y2471213D01*
X2334663Y2472151D01*
X2334640Y2472185D01*
X2334632Y2472225D01*
X2334080Y2473002D01*
X2333538Y2473793D01*
X2333504Y2473814D01*
X2333480Y2473848D01*
X2332674Y2474345D01*
X2331862Y2474865D01*
X2331821Y2474872D01*
X2331787Y2474893D01*
X2330843Y2475038D01*
X2329900Y2475198D01*
X2329861Y2475189D01*
X2329820Y2475195D01*
X2328891Y2474959D01*
X2327964Y2474740D01*
X2327931Y2474716D01*
X2327891Y2474706D01*
X2326525Y2473736D01*
X2307978Y2455189D01*
X2264021Y2455189D01*
X2232939Y2486271D01*
X2232939Y2530228D01*
X2264021Y2561310D01*
X2307978Y2561310D01*
X2331634Y2537655D01*
X2331735Y2537588D01*
X2331808Y2537489D01*
X2332563Y2537039D01*
X2333293Y2536556D01*
X2333413Y2536533D01*
X2333517Y2536471D01*
X2335169Y2536190D01*
X2374573Y2536190D01*
X2390940Y2519823D01*
X2390940Y2482740D01*
X2390957Y2482660D01*
X2390943Y2482580D01*
X2391154Y2481686D01*
X2391336Y2480790D01*
X2391382Y2480723D01*
X2391401Y2480643D01*
X2391944Y2479903D01*
X2392462Y2479148D01*
X2392530Y2479105D01*
X2392578Y2479039D01*
X2393367Y2478569D01*
X2394138Y2478076D01*
X2394218Y2478063D01*
X2394288Y2478021D01*
X2395940Y2477740D01*
X2430060Y2477740D01*
X2430140Y2477757D01*
X2430220Y2477743D01*
X2431113Y2477954D01*
X2432010Y2478136D01*
X2432077Y2478182D01*
X2432156Y2478201D01*
X2432896Y2478744D01*
X2433651Y2479262D01*
X2433695Y2479330D01*
X2433761Y2479378D01*
X2434228Y2480163D01*
X2434723Y2480938D01*
X2434737Y2481018D01*
X2434779Y2481088D01*
X2435059Y2482740D01*
X2435059Y2519823D01*
X2451426Y2536190D01*
X2490831Y2536190D01*
X2490950Y2536214D01*
X2491070Y2536196D01*
X2491922Y2536412D01*
X2492781Y2536586D01*
X2492881Y2536655D01*
X2492999Y2536685D01*
X2494366Y2537655D01*
X2518021Y2561310D01*
X2561978Y2561310D01*
X2593060Y2530228D01*
X2593060Y2486271D01*
X2561978Y2455189D01*
X2518021Y2455189D01*
X2499475Y2473736D01*
X2499441Y2473758D01*
X2499418Y2473793D01*
X2498609Y2474310D01*
X2497816Y2474835D01*
X2497776Y2474843D01*
X2497742Y2474865D01*
X2496799Y2475025D01*
X2495860Y2475200D01*
X2495820Y2475191D01*
X2495780Y2475198D01*
X2494844Y2474977D01*
X2493916Y2474773D01*
X2493883Y2474749D01*
X2493843Y2474740D01*
X2493069Y2474172D01*
X2492293Y2473622D01*
X2492272Y2473587D01*
X2492239Y2473563D01*
X2491747Y2472736D01*
X2491248Y2471928D01*
X2491242Y2471888D01*
X2491221Y2471853D01*
X2490940Y2470201D01*
X2490940Y2372333D01*
X2490740Y2371156D01*
X2490740Y2301187D01*
X2481813Y2292259D01*
X2445740Y2292259D01*
X2445660Y2292243D01*
X2445580Y2292257D01*
X2444686Y2292045D01*
X2443790Y2291863D01*
X2443723Y2291818D01*
X2443643Y2291799D01*
X2442903Y2291255D01*
X2442148Y2290738D01*
X2442105Y2290670D01*
X2442039Y2290622D01*
X2441569Y2289833D01*
X2441076Y2289062D01*
X2441063Y2288982D01*
X2441021Y2288912D01*
X2440740Y2287260D01*
X2440740Y2266187D01*
X2431813Y2257259D01*
X2394187Y2257259D01*
X2385259Y2266187D01*
X2385259Y2287260D01*
X2385243Y2287340D01*
X2385257Y2287420D01*
X2385045Y2288313D01*
X2384863Y2289210D01*
X2384818Y2289277D01*
X2384799Y2289356D01*
X2384256Y2290096D01*
X2383738Y2290851D01*
X2383670Y2290895D01*
X2383622Y2290961D01*
X2382833Y2291430D01*
X2382062Y2291923D01*
X2381982Y2291937D01*
X2381912Y2291979D01*
X2380260Y2292259D01*
X2358323Y2292259D01*
X2358283Y2292251D01*
X2358243Y2292259D01*
X2357312Y2292054D01*
X2356373Y2291863D01*
X2356340Y2291840D01*
X2356300Y2291832D01*
X2355523Y2291280D01*
X2354732Y2290738D01*
X2354710Y2290704D01*
X2354677Y2290680D01*
X2354180Y2289874D01*
X2353660Y2289062D01*
X2353653Y2289021D01*
X2353632Y2288987D01*
X2353487Y2288043D01*
X2353327Y2287100D01*
X2353336Y2287061D01*
X2353330Y2287020D01*
X2353566Y2286090D01*
X2353785Y2285164D01*
X2353809Y2285131D01*
X2353819Y2285091D01*
X2354788Y2283725D01*
X2365940Y2272573D01*
X2365940Y2211240D01*
X2365957Y2211160D01*
X2365943Y2211080D01*
X2366154Y2210186D01*
X2366336Y2209290D01*
X2366382Y2209223D01*
X2366401Y2209143D01*
X2366944Y2208403D01*
X2367462Y2207648D01*
X2367530Y2207605D01*
X2367578Y2207539D01*
X2368367Y2207069D01*
X2369138Y2206576D01*
X2369218Y2206563D01*
X2369288Y2206521D01*
X2370940Y2206240D01*
X2406813Y2206240D01*
X2409465Y2203588D01*
X2409533Y2203543D01*
X2409580Y2203477D01*
X2410359Y2202996D01*
X2411124Y2202489D01*
X2411204Y2202474D01*
X2411273Y2202432D01*
X2412178Y2202293D01*
X2413080Y2202124D01*
X2413159Y2202142D01*
X2413240Y2202129D01*
X2414130Y2202355D01*
X2415023Y2202552D01*
X2415090Y2202599D01*
X2415169Y2202619D01*
X2416535Y2203588D01*
X2419187Y2206240D01*
X2456813Y2206240D01*
X2459464Y2203588D01*
X2459533Y2203543D01*
X2459579Y2203477D01*
X2460361Y2202994D01*
X2461123Y2202489D01*
X2461203Y2202475D01*
X2461273Y2202432D01*
X2462182Y2202292D01*
X2463079Y2202124D01*
X2463158Y2202142D01*
X2463239Y2202129D01*
X2464133Y2202356D01*
X2465023Y2202552D01*
X2465089Y2202598D01*
X2465168Y2202618D01*
X2466535Y2203588D01*
X2469187Y2206240D01*
X2506813Y2206240D01*
X2509225Y2203828D01*
X2509259Y2203805D01*
X2509282Y2203772D01*
X2510094Y2203252D01*
X2510884Y2202729D01*
X2510923Y2202722D01*
X2510958Y2202699D01*
X2511908Y2202538D01*
X2512840Y2202364D01*
X2512879Y2202373D01*
X2512920Y2202366D01*
X2513860Y2202588D01*
X2514783Y2202791D01*
X2514816Y2202814D01*
X2514856Y2202824D01*
X2515635Y2203396D01*
X2516406Y2203943D01*
X2516428Y2203977D01*
X2516461Y2204001D01*
X2516953Y2204828D01*
X2517452Y2205636D01*
X2517458Y2205676D01*
X2517479Y2205711D01*
X2517759Y2207363D01*
X2517759Y2225748D01*
X2517735Y2225867D01*
X2517754Y2225987D01*
X2517538Y2226839D01*
X2517363Y2227698D01*
X2517295Y2227798D01*
X2517265Y2227916D01*
X2516295Y2229283D01*
X2512675Y2232903D01*
X2509330Y2238696D01*
X2507599Y2245156D01*
X2507599Y2254750D01*
X2571748Y2254750D01*
X2571828Y2254766D01*
X2571908Y2254753D01*
X2572801Y2254964D01*
X2572888Y2254982D01*
X2574252Y2254750D01*
X2638400Y2254750D01*
X2638400Y2244893D01*
X2638376Y2244504D01*
X2638253Y2243780D01*
X2638315Y2243518D01*
X2638298Y2243249D01*
X2638542Y2242558D01*
X2638711Y2241843D01*
X2638871Y2241626D01*
X2638960Y2241373D01*
X2639453Y2240832D01*
X2639888Y2240239D01*
X2640120Y2240101D01*
X2640301Y2239903D01*
X2640966Y2239597D01*
X2641598Y2239221D01*
X2641896Y2239170D01*
X2642109Y2239072D01*
X2642551Y2239059D01*
X2643250Y2238940D01*
X2665810Y2238940D01*
X2665890Y2238957D01*
X2665970Y2238943D01*
X2666863Y2239154D01*
X2667760Y2239336D01*
X2667827Y2239382D01*
X2667906Y2239401D01*
X2668646Y2239944D01*
X2669401Y2240462D01*
X2669445Y2240530D01*
X2669511Y2240578D01*
X2669980Y2241367D01*
X2670473Y2242138D01*
X2670487Y2242218D01*
X2670529Y2242288D01*
X2670809Y2243940D01*
X2670809Y2278060D01*
X2670793Y2278140D01*
X2670807Y2278220D01*
X2670595Y2279113D01*
X2670413Y2280010D01*
X2670368Y2280077D01*
X2670349Y2280156D01*
X2669806Y2280896D01*
X2669288Y2281651D01*
X2669220Y2281695D01*
X2669172Y2281761D01*
X2668383Y2282230D01*
X2667612Y2282723D01*
X2667532Y2282737D01*
X2667462Y2282779D01*
X2665810Y2283059D01*
X2643250Y2283059D01*
X2642531Y2282913D01*
X2641801Y2282845D01*
X2641564Y2282717D01*
X2641300Y2282663D01*
X2640695Y2282248D01*
X2640049Y2281900D01*
X2639881Y2281690D01*
X2639659Y2281538D01*
X2639263Y2280919D01*
X2638805Y2280348D01*
X2638732Y2280089D01*
X2638587Y2279862D01*
X2638464Y2279139D01*
X2638264Y2278433D01*
X2638293Y2278133D01*
X2638253Y2277900D01*
X2638355Y2277468D01*
X2638400Y2276990D01*
X2638400Y2267249D01*
X2574252Y2267249D01*
X2574172Y2267233D01*
X2574092Y2267247D01*
X2573198Y2267035D01*
X2573111Y2267018D01*
X2571748Y2267249D01*
X2507599Y2267249D01*
X2507599Y2276844D01*
X2509330Y2283304D01*
X2512675Y2289097D01*
X2516295Y2292717D01*
X2516362Y2292818D01*
X2516461Y2292891D01*
X2516911Y2293647D01*
X2517394Y2294376D01*
X2517416Y2294496D01*
X2517479Y2294600D01*
X2517759Y2296252D01*
X2517759Y2297156D01*
X2517735Y2297277D01*
X2517753Y2297400D01*
X2517559Y2298163D01*
X2517559Y2349167D01*
X2517759Y2350344D01*
X2517759Y2379813D01*
X2526687Y2388740D01*
X2559156Y2388740D01*
X2559277Y2388765D01*
X2559400Y2388746D01*
X2560163Y2388940D01*
X2628510Y2388940D01*
X2628590Y2388957D01*
X2628670Y2388943D01*
X2629563Y2389154D01*
X2630460Y2389336D01*
X2630527Y2389382D01*
X2630606Y2389401D01*
X2631346Y2389944D01*
X2632101Y2390462D01*
X2632145Y2390530D01*
X2632211Y2390578D01*
X2632680Y2391367D01*
X2633173Y2392138D01*
X2633187Y2392218D01*
X2633229Y2392288D01*
X2633509Y2393940D01*
X2633509Y2421063D01*
X2642437Y2429990D01*
X2755063Y2429990D01*
X2763990Y2421063D01*
X2763990Y2420630D01*
X2764007Y2420550D01*
X2763993Y2420470D01*
X2764204Y2419576D01*
X2764386Y2418680D01*
X2764432Y2418613D01*
X2764451Y2418533D01*
X2764994Y2417793D01*
X2765512Y2417038D01*
X2765580Y2416995D01*
X2765628Y2416929D01*
X2766417Y2416459D01*
X2767188Y2415966D01*
X2767268Y2415953D01*
X2767338Y2415911D01*
X2768990Y2415630D01*
X2986116Y2415630D01*
X3006654Y2407123D01*
X3022373Y2391404D01*
X3030880Y2370866D01*
X3030880Y2306384D01*
X3028441Y2300495D01*
X3028414Y2300357D01*
X3028341Y2300234D01*
X3028060Y2298582D01*
X3028060Y2295522D01*
X3025896Y2293358D01*
X3025818Y2293239D01*
X3025704Y2293154D01*
X3024813Y2291736D01*
X3022373Y2285846D01*
X3006654Y2270127D01*
X3000764Y2267687D01*
X3000646Y2267608D01*
X3000508Y2267573D01*
X2999142Y2266603D01*
X2996978Y2264439D01*
X2993918Y2264439D01*
X2993778Y2264411D01*
X2993638Y2264432D01*
X2992004Y2264059D01*
X2986115Y2261619D01*
X2963884Y2261619D01*
X2957995Y2264059D01*
X2957857Y2264086D01*
X2957734Y2264159D01*
X2956082Y2264439D01*
X2953022Y2264439D01*
X2950858Y2266603D01*
X2950739Y2266682D01*
X2950654Y2266796D01*
X2949236Y2267687D01*
X2943346Y2270127D01*
X2927627Y2285846D01*
X2925187Y2291736D01*
X2925108Y2291853D01*
X2925073Y2291991D01*
X2924103Y2293358D01*
X2921939Y2295522D01*
X2921939Y2298582D01*
X2921911Y2298721D01*
X2921932Y2298860D01*
X2921560Y2300493D01*
X2921441Y2300781D01*
X2921383Y2300866D01*
X2921360Y2300966D01*
X2920828Y2301691D01*
X2920329Y2302432D01*
X2920243Y2302488D01*
X2920183Y2302571D01*
X2919412Y2303030D01*
X2918662Y2303518D01*
X2918561Y2303536D01*
X2918473Y2303589D01*
X2916821Y2303869D01*
X2768990Y2303869D01*
X2768910Y2303853D01*
X2768830Y2303867D01*
X2767936Y2303655D01*
X2767040Y2303473D01*
X2766973Y2303428D01*
X2766893Y2303409D01*
X2766153Y2302866D01*
X2765398Y2302348D01*
X2765355Y2302280D01*
X2765289Y2302232D01*
X2764819Y2301443D01*
X2764326Y2300672D01*
X2764313Y2300592D01*
X2764271Y2300522D01*
X2763990Y2298870D01*
X2763990Y2298437D01*
X2755063Y2289509D01*
X2731690Y2289509D01*
X2731610Y2289493D01*
X2731530Y2289507D01*
X2730636Y2289295D01*
X2729740Y2289113D01*
X2729673Y2289068D01*
X2729593Y2289049D01*
X2728853Y2288506D01*
X2728098Y2287988D01*
X2728055Y2287920D01*
X2727989Y2287872D01*
X2727519Y2287083D01*
X2727026Y2286312D01*
X2727013Y2286232D01*
X2726971Y2286162D01*
X2726690Y2284510D01*
X2726690Y2199426D01*
X2710323Y2183059D01*
X2560333Y2183059D01*
X2559156Y2183259D01*
X2526687Y2183259D01*
X2524275Y2185672D01*
X2524241Y2185694D01*
X2524218Y2185728D01*
X2523406Y2186248D01*
X2522616Y2186771D01*
X2522577Y2186778D01*
X2522542Y2186800D01*
X2521592Y2186962D01*
X2520660Y2187136D01*
X2520620Y2187127D01*
X2520580Y2187134D01*
X2519640Y2186912D01*
X2518717Y2186708D01*
X2518684Y2186685D01*
X2518643Y2186676D01*
X2517862Y2186103D01*
X2517093Y2185557D01*
X2517072Y2185523D01*
X2517039Y2185498D01*
X2516547Y2184671D01*
X2516048Y2183864D01*
X2516042Y2183824D01*
X2516021Y2183789D01*
X2515740Y2182137D01*
X2515740Y2104687D01*
X2506813Y2095759D01*
X2470940Y2095759D01*
X2470860Y2095743D01*
X2470780Y2095757D01*
X2469886Y2095545D01*
X2468990Y2095363D01*
X2468923Y2095318D01*
X2468843Y2095299D01*
X2468103Y2094756D01*
X2467348Y2094238D01*
X2467305Y2094170D01*
X2467239Y2094122D01*
X2466769Y2093333D01*
X2466276Y2092562D01*
X2466263Y2092482D01*
X2466221Y2092412D01*
X2465940Y2090760D01*
X2465940Y2088644D01*
X2465964Y2088525D01*
X2465946Y2088404D01*
X2466162Y2087553D01*
X2466336Y2086694D01*
X2466405Y2086594D01*
X2466435Y2086476D01*
X2467405Y2085109D01*
X2546725Y2005788D01*
X2546758Y2005766D01*
X2546782Y2005732D01*
X2547591Y2005215D01*
X2548384Y2004689D01*
X2548424Y2004682D01*
X2548458Y2004660D01*
X2549400Y2004500D01*
X2550340Y2004325D01*
X2550380Y2004333D01*
X2550420Y2004327D01*
X2551355Y2004548D01*
X2552283Y2004752D01*
X2552316Y2004775D01*
X2552356Y2004785D01*
X2553131Y2005353D01*
X2553906Y2005903D01*
X2553928Y2005938D01*
X2553961Y2005962D01*
X2554453Y2006789D01*
X2554952Y2007596D01*
X2554958Y2007636D01*
X2554979Y2007672D01*
X2555259Y2009323D01*
X2555259Y2049813D01*
X2564187Y2058740D01*
X2706813Y2058740D01*
X2715740Y2049813D01*
X2715740Y1887187D01*
X2706813Y1878259D01*
X2564187Y1878259D01*
X2555259Y1887187D01*
X2555259Y1935560D01*
X2555243Y1935640D01*
X2555257Y1935720D01*
X2555045Y1936613D01*
X2554863Y1937510D01*
X2554818Y1937577D01*
X2554799Y1937656D01*
X2554256Y1938396D01*
X2553738Y1939151D01*
X2553670Y1939195D01*
X2553622Y1939261D01*
X2552833Y1939730D01*
X2552062Y1940223D01*
X2551982Y1940237D01*
X2551912Y1940279D01*
X2550260Y1940559D01*
X2532926Y1940559D01*
X2416535Y2056951D01*
X2416467Y2056996D01*
X2416420Y2057062D01*
X2415642Y2057543D01*
X2414876Y2058050D01*
X2414795Y2058065D01*
X2414727Y2058108D01*
X2413821Y2058247D01*
X2412920Y2058415D01*
X2412841Y2058397D01*
X2412760Y2058410D01*
X2411867Y2058183D01*
X2410976Y2057988D01*
X2410910Y2057941D01*
X2410831Y2057921D01*
X2409465Y2056951D01*
X2399573Y2047059D01*
X2324169Y2047059D01*
X2324050Y2047035D01*
X2323929Y2047054D01*
X2323078Y2046838D01*
X2322219Y2046663D01*
X2322119Y2046595D01*
X2322001Y2046565D01*
X2320634Y2045595D01*
X2296978Y2021939D01*
X2253021Y2021939D01*
X2221939Y2053021D01*
X2221939Y2096978D01*
X2253021Y2128060D01*
X2296978Y2128060D01*
X2301725Y2123313D01*
X2301759Y2123291D01*
X2301782Y2123257D01*
X2302587Y2122743D01*
X2303384Y2122214D01*
X2303424Y2122207D01*
X2303458Y2122185D01*
X2304398Y2122025D01*
X2305340Y2121850D01*
X2305379Y2121858D01*
X2305420Y2121852D01*
X2306358Y2122073D01*
X2307283Y2122277D01*
X2307316Y2122300D01*
X2307356Y2122310D01*
X2308131Y2122878D01*
X2308906Y2123428D01*
X2308928Y2123463D01*
X2308961Y2123487D01*
X2309453Y2124314D01*
X2309952Y2125121D01*
X2309958Y2125161D01*
X2309979Y2125197D01*
X2310259Y2126848D01*
X2310259Y2137156D01*
X2310235Y2137275D01*
X2310254Y2137395D01*
X2310059Y2138162D01*
X2310059Y2170360D01*
X2309982Y2170743D01*
X2309999Y2171132D01*
X2309786Y2171708D01*
X2309663Y2172310D01*
X2309443Y2172632D01*
X2309307Y2172998D01*
X2308886Y2173444D01*
X2308538Y2173951D01*
X2308209Y2174162D01*
X2307942Y2174445D01*
X2307379Y2174693D01*
X2306862Y2175023D01*
X2306477Y2175089D01*
X2306120Y2175246D01*
X2305506Y2175254D01*
X2304900Y2175357D01*
X2304520Y2175267D01*
X2304130Y2175272D01*
X2303407Y2175003D01*
X2302964Y2174899D01*
X2302908Y2174858D01*
X2296344Y2173099D01*
X2259249Y2173099D01*
X2259249Y2209748D01*
X2259233Y2209828D01*
X2259247Y2209908D01*
X2259035Y2210801D01*
X2258853Y2211698D01*
X2258808Y2211765D01*
X2258789Y2211844D01*
X2258246Y2212584D01*
X2257728Y2213339D01*
X2257660Y2213383D01*
X2257612Y2213448D01*
X2256823Y2213918D01*
X2256327Y2214235D01*
X2256305Y2214267D01*
X2256287Y2214346D01*
X2255744Y2215086D01*
X2255226Y2215841D01*
X2255158Y2215885D01*
X2255109Y2215951D01*
X2254320Y2216420D01*
X2253550Y2216913D01*
X2253470Y2216927D01*
X2253400Y2216969D01*
X2251748Y2217249D01*
X2187599Y2217249D01*
X2187599Y2227107D01*
X2187623Y2227496D01*
X2187747Y2228220D01*
X2187685Y2228482D01*
X2187701Y2228750D01*
X2187458Y2229442D01*
X2187288Y2230156D01*
X2187129Y2230373D01*
X2187040Y2230627D01*
X2186546Y2231168D01*
X2186111Y2231761D01*
X2185880Y2231898D01*
X2185699Y2232097D01*
X2185033Y2232403D01*
X2184402Y2232779D01*
X2184104Y2232829D01*
X2183890Y2232928D01*
X2183448Y2232941D01*
X2182750Y2233059D01*
X2149644Y2233059D01*
X2149525Y2233035D01*
X2149404Y2233054D01*
X2148551Y2232838D01*
X2147694Y2232663D01*
X2147593Y2232595D01*
X2147475Y2232565D01*
X2146109Y2231595D01*
X2129405Y2214891D01*
X2129338Y2214790D01*
X2129239Y2214717D01*
X2128789Y2213961D01*
X2128306Y2213232D01*
X2128283Y2213112D01*
X2128221Y2213008D01*
X2127940Y2211356D01*
X2127940Y2024169D01*
X2127964Y2024050D01*
X2127946Y2023929D01*
X2128162Y2023078D01*
X2128336Y2022219D01*
X2128405Y2022119D01*
X2128435Y2022001D01*
X2129405Y2020634D01*
X2153060Y1996978D01*
X2153060Y1953021D01*
X2121978Y1921939D01*
X2078021Y1921939D01*
X2046939Y1953021D01*
X2046939Y1996978D01*
X2070595Y2020634D01*
X2070662Y2020735D01*
X2070761Y2020808D01*
X2071211Y2021563D01*
X2071694Y2022293D01*
X2071716Y2022413D01*
X2071779Y2022517D01*
X2072059Y2024169D01*
X2072059Y2236573D01*
X2106595Y2271109D01*
X2113576Y2278089D01*
X2113621Y2278158D01*
X2113687Y2278204D01*
X2114168Y2278983D01*
X2114675Y2279748D01*
X2114690Y2279828D01*
X2114733Y2279898D01*
X2114872Y2280803D01*
X2115040Y2281704D01*
X2115022Y2281783D01*
X2115035Y2281864D01*
X2114809Y2282755D01*
X2114613Y2283648D01*
X2114566Y2283714D01*
X2114546Y2283793D01*
X2113576Y2285160D01*
X2110691Y2288045D01*
X2110590Y2288112D01*
X2110518Y2288211D01*
X2109762Y2288661D01*
X2109033Y2289144D01*
X2108913Y2289166D01*
X2108808Y2289229D01*
X2107156Y2289509D01*
X2070937Y2289509D01*
X2062009Y2298437D01*
X2062009Y2298870D01*
X2061993Y2298950D01*
X2062007Y2299030D01*
X2061795Y2299923D01*
X2061613Y2300820D01*
X2061568Y2300887D01*
X2061549Y2300966D01*
X2061006Y2301706D01*
X2060488Y2302461D01*
X2060420Y2302505D01*
X2060372Y2302571D01*
X2059583Y2303040D01*
X2058812Y2303533D01*
X2058732Y2303547D01*
X2058662Y2303589D01*
X2057010Y2303869D01*
X2033179Y2303869D01*
X2033078Y2303849D01*
X2032977Y2303865D01*
X2032105Y2303651D01*
X2031229Y2303473D01*
X2031144Y2303416D01*
X2031044Y2303391D01*
X2030326Y2302855D01*
X2029588Y2302348D01*
X2029532Y2302261D01*
X2029450Y2302200D01*
X2028559Y2300781D01*
X2028440Y2300493D01*
X2028413Y2300356D01*
X2028341Y2300234D01*
X2028060Y2298582D01*
X2028060Y2295522D01*
X2025896Y2293358D01*
X2025818Y2293239D01*
X2025704Y2293154D01*
X2024813Y2291736D01*
X2022373Y2285846D01*
X2006654Y2270127D01*
X2006027Y2269867D01*
X2005943Y2269810D01*
X2005843Y2269787D01*
X2005118Y2269255D01*
X2004377Y2268755D01*
X2004321Y2268670D01*
X2004239Y2268610D01*
X2003778Y2267835D01*
X2003291Y2267087D01*
X2003273Y2266988D01*
X2003221Y2266900D01*
X2002940Y2265248D01*
X2002940Y1556940D01*
X2002957Y1556860D01*
X2002943Y1556780D01*
X2003154Y1555886D01*
X2003336Y1554990D01*
X2003382Y1554923D01*
X2003401Y1554843D01*
X2003944Y1554103D01*
X2004462Y1553348D01*
X2004530Y1553305D01*
X2004578Y1553239D01*
X2005367Y1552769D01*
X2006138Y1552276D01*
X2006218Y1552263D01*
X2006288Y1552221D01*
X2007940Y1551940D01*
X2062560Y1551940D01*
X2062640Y1551957D01*
X2062720Y1551943D01*
X2063613Y1552154D01*
X2064510Y1552336D01*
X2064577Y1552382D01*
X2064656Y1552401D01*
X2065396Y1552944D01*
X2066151Y1553462D01*
X2066195Y1553530D01*
X2066261Y1553578D01*
X2066730Y1554367D01*
X2067223Y1555138D01*
X2067237Y1555218D01*
X2067279Y1555288D01*
X2067559Y1556940D01*
X2067559Y1618389D01*
X2081480Y1651997D01*
X2107746Y1678262D01*
X2107790Y1678329D01*
X2107857Y1678377D01*
X2108338Y1679157D01*
X2108845Y1679921D01*
X2108860Y1680001D01*
X2108902Y1680070D01*
X2109042Y1680976D01*
X2109209Y1681877D01*
X2109192Y1681956D01*
X2109204Y1682037D01*
X2108978Y1682928D01*
X2108782Y1683820D01*
X2108735Y1683886D01*
X2108715Y1683965D01*
X2107746Y1685332D01*
X2105675Y1687403D01*
X2102330Y1693196D01*
X2100599Y1699656D01*
X2100599Y1768001D01*
X2185999Y1768001D01*
X2186078Y1768017D01*
X2186159Y1768003D01*
X2187052Y1768215D01*
X2187949Y1768397D01*
X2188016Y1768443D01*
X2188095Y1768462D01*
X2188835Y1769004D01*
X2189590Y1769522D01*
X2189634Y1769591D01*
X2189699Y1769639D01*
X2190169Y1770428D01*
X2190662Y1771198D01*
X2190676Y1771278D01*
X2190718Y1771348D01*
X2190998Y1773000D01*
X2190998Y1778002D01*
X2191002Y1778002D01*
X2191002Y1773000D01*
X2191018Y1772921D01*
X2191004Y1772840D01*
X2191216Y1771946D01*
X2191398Y1771050D01*
X2191443Y1770983D01*
X2191462Y1770904D01*
X2192005Y1770164D01*
X2192523Y1769409D01*
X2192591Y1769365D01*
X2192639Y1769300D01*
X2193428Y1768830D01*
X2194199Y1768337D01*
X2194279Y1768323D01*
X2194349Y1768282D01*
X2196001Y1768001D01*
X2281400Y1768001D01*
X2281400Y1699656D01*
X2279670Y1693196D01*
X2276325Y1687403D01*
X2271597Y1682675D01*
X2265804Y1679330D01*
X2259344Y1677599D01*
X2222986Y1677599D01*
X2222946Y1677591D01*
X2222906Y1677599D01*
X2221974Y1677394D01*
X2221036Y1677203D01*
X2221002Y1677180D01*
X2220963Y1677172D01*
X2220185Y1676620D01*
X2219395Y1676078D01*
X2219373Y1676044D01*
X2219340Y1676020D01*
X2218842Y1675214D01*
X2218323Y1674402D01*
X2218316Y1674361D01*
X2218294Y1674327D01*
X2218149Y1673383D01*
X2217989Y1672440D01*
X2217998Y1672401D01*
X2217992Y1672360D01*
X2218228Y1671431D01*
X2218447Y1670504D01*
X2218471Y1670471D01*
X2218481Y1670431D01*
X2219451Y1669065D01*
X2236519Y1651997D01*
X2250440Y1618389D01*
X2250440Y1429611D01*
X2236519Y1396003D01*
X2220651Y1380135D01*
X2220629Y1380101D01*
X2220595Y1380078D01*
X2220077Y1379269D01*
X2219552Y1378476D01*
X2219544Y1378436D01*
X2219523Y1378402D01*
X2219363Y1377459D01*
X2219187Y1376520D01*
X2219196Y1376480D01*
X2219189Y1376440D01*
X2219410Y1375504D01*
X2219614Y1374576D01*
X2219638Y1374543D01*
X2219647Y1374503D01*
X2220216Y1373729D01*
X2220766Y1372953D01*
X2220800Y1372932D01*
X2220824Y1372899D01*
X2221652Y1372407D01*
X2222459Y1371908D01*
X2222499Y1371902D01*
X2222534Y1371881D01*
X2224186Y1371600D01*
X2347814Y1371600D01*
X2347854Y1371608D01*
X2347894Y1371601D01*
X2348825Y1371806D01*
X2349764Y1371996D01*
X2349798Y1372019D01*
X2349837Y1372028D01*
X2350614Y1372579D01*
X2351405Y1373122D01*
X2351427Y1373156D01*
X2351460Y1373179D01*
X2351958Y1373985D01*
X2352477Y1374798D01*
X2352484Y1374838D01*
X2352505Y1374873D01*
X2352650Y1375817D01*
X2352811Y1376760D01*
X2352801Y1376799D01*
X2352808Y1376839D01*
X2352572Y1377769D01*
X2352353Y1378696D01*
X2352328Y1378729D01*
X2352318Y1378768D01*
X2351349Y1380135D01*
X2335480Y1396003D01*
X2321559Y1429611D01*
X2321559Y1618389D01*
X2335480Y1651997D01*
X2361202Y1677719D01*
X2362222Y1678141D01*
X2362239Y1678153D01*
X2362259Y1678157D01*
X2363064Y1678709D01*
X2363872Y1679253D01*
X2363883Y1679270D01*
X2363900Y1679282D01*
X2364414Y1680086D01*
X2364958Y1680921D01*
X2364961Y1680941D01*
X2364972Y1680958D01*
X2365138Y1681932D01*
X2365307Y1682880D01*
X2365302Y1682899D01*
X2365306Y1682920D01*
X2365076Y1683890D01*
X2364864Y1684820D01*
X2364852Y1684836D01*
X2364848Y1684856D01*
X2364267Y1685648D01*
X2363700Y1686433D01*
X2363683Y1686444D01*
X2363670Y1686461D01*
X2362815Y1686970D01*
X2361998Y1687465D01*
X2361979Y1687468D01*
X2361961Y1687479D01*
X2360309Y1687759D01*
X2309687Y1687759D01*
X2300759Y1696687D01*
X2300759Y1859313D01*
X2309687Y1868240D01*
X2452313Y1868240D01*
X2461240Y1859313D01*
X2461240Y1696687D01*
X2454160Y1689607D01*
X2454127Y1689557D01*
X2454076Y1689521D01*
X2453575Y1688723D01*
X2453061Y1687948D01*
X2453050Y1687888D01*
X2453018Y1687836D01*
X2452868Y1686913D01*
X2452697Y1685992D01*
X2452710Y1685932D01*
X2452700Y1685872D01*
X2452923Y1684961D01*
X2453124Y1684048D01*
X2453159Y1683999D01*
X2453173Y1683939D01*
X2453737Y1683184D01*
X2454275Y1682426D01*
X2454327Y1682394D01*
X2454363Y1682344D01*
X2455782Y1681453D01*
X2464797Y1677719D01*
X2490519Y1651997D01*
X2504440Y1618389D01*
X2504440Y1429611D01*
X2490519Y1396003D01*
X2474651Y1380135D01*
X2474629Y1380101D01*
X2474595Y1380078D01*
X2474077Y1379269D01*
X2473552Y1378476D01*
X2473544Y1378436D01*
X2473523Y1378402D01*
X2473363Y1377459D01*
X2473187Y1376520D01*
X2473196Y1376480D01*
X2473189Y1376440D01*
X2473410Y1375504D01*
X2473614Y1374576D01*
X2473638Y1374543D01*
X2473647Y1374503D01*
X2474216Y1373729D01*
X2474766Y1372953D01*
X2474800Y1372932D01*
X2474824Y1372899D01*
X2475652Y1372407D01*
X2476459Y1371908D01*
X2476499Y1371902D01*
X2476534Y1371881D01*
X2478186Y1371600D01*
X2587445Y1371600D01*
X2587485Y1371608D01*
X2587526Y1371601D01*
X2588461Y1371807D01*
X2589395Y1371996D01*
X2589429Y1372019D01*
X2589469Y1372028D01*
X2590249Y1372582D01*
X2591037Y1373122D01*
X2591059Y1373156D01*
X2591092Y1373180D01*
X2591593Y1373991D01*
X2592109Y1374798D01*
X2592116Y1374838D01*
X2592137Y1374873D01*
X2592283Y1375822D01*
X2592442Y1376760D01*
X2592433Y1376799D01*
X2592439Y1376840D01*
X2592204Y1377767D01*
X2591984Y1378696D01*
X2591960Y1378729D01*
X2591950Y1378769D01*
X2590980Y1380135D01*
X2589504Y1381611D01*
X2580103Y1394550D01*
X2572843Y1408798D01*
X2567901Y1424008D01*
X2565399Y1439803D01*
X2565399Y1514001D01*
X2661998Y1514001D01*
X2662078Y1514017D01*
X2662158Y1514003D01*
X2663052Y1514215D01*
X2663948Y1514397D01*
X2664015Y1514443D01*
X2664095Y1514461D01*
X2664835Y1515004D01*
X2665590Y1515522D01*
X2665633Y1515590D01*
X2665699Y1515638D01*
X2666169Y1516428D01*
X2666662Y1517198D01*
X2666675Y1517278D01*
X2666717Y1517348D01*
X2666998Y1519000D01*
X2666998Y1524002D01*
X2667002Y1524002D01*
X2667002Y1519000D01*
X2667018Y1518920D01*
X2667004Y1518840D01*
X2667216Y1517947D01*
X2667398Y1517050D01*
X2667444Y1516983D01*
X2667463Y1516904D01*
X2668005Y1516164D01*
X2668523Y1515409D01*
X2668592Y1515365D01*
X2668640Y1515299D01*
X2669429Y1514830D01*
X2670199Y1514337D01*
X2670279Y1514323D01*
X2670349Y1514281D01*
X2672001Y1514001D01*
X2768600Y1514001D01*
X2768600Y1439803D01*
X2766099Y1424008D01*
X2761156Y1408798D01*
X2753897Y1394550D01*
X2744496Y1381611D01*
X2743020Y1380135D01*
X2742997Y1380101D01*
X2742963Y1380078D01*
X2742443Y1379264D01*
X2741921Y1378476D01*
X2741913Y1378436D01*
X2741891Y1378402D01*
X2741730Y1377456D01*
X2741556Y1376520D01*
X2741564Y1376480D01*
X2741558Y1376440D01*
X2741778Y1375508D01*
X2741983Y1374577D01*
X2742006Y1374543D01*
X2742016Y1374503D01*
X2742581Y1373733D01*
X2743134Y1372954D01*
X2743168Y1372933D01*
X2743193Y1372899D01*
X2744018Y1372408D01*
X2744827Y1371908D01*
X2744867Y1371902D01*
X2744903Y1371881D01*
X2746554Y1371600D01*
X3619500Y1371600D01*
X3619645Y1371630D01*
X3619827Y1371611D01*
X3647355Y1373415D01*
X3647742Y1373521D01*
X3648322Y1373575D01*
X3701502Y1387824D01*
X3701913Y1388029D01*
X3702708Y1388324D01*
X3750388Y1415852D01*
X3750732Y1416156D01*
X3751423Y1416647D01*
X3790353Y1455577D01*
X3790606Y1455958D01*
X3791148Y1456612D01*
X3818676Y1504292D01*
X3818785Y1504619D01*
X3818889Y1504782D01*
X3818914Y1504929D01*
X3819175Y1505498D01*
X3833425Y1558678D01*
X3833449Y1559078D01*
X3833584Y1559645D01*
X3835389Y1587173D01*
X3835369Y1587320D01*
X3835399Y1587500D01*
X3835399Y2015945D01*
X3835391Y2015985D01*
X3835399Y2016026D01*
X3835193Y2016961D01*
X3835003Y2017895D01*
X3834980Y2017929D01*
X3834972Y2017969D01*
X3834423Y2018742D01*
X3833878Y2019537D01*
X3833843Y2019559D01*
X3833820Y2019592D01*
X3833009Y2020093D01*
X3832202Y2020609D01*
X3832162Y2020616D01*
X3832127Y2020637D01*
X3831178Y2020783D01*
X3830240Y2020942D01*
X3830200Y2020933D01*
X3830160Y2020939D01*
X3829233Y2020704D01*
X3828304Y2020484D01*
X3828271Y2020460D01*
X3828231Y2020450D01*
X3826865Y2019480D01*
X3825389Y2018004D01*
X3812450Y2008603D01*
X3798202Y2001343D01*
X3782991Y1996401D01*
X3767196Y1993899D01*
X3692999Y1993899D01*
X3692999Y2090498D01*
X3692983Y2090578D01*
X3692996Y2090658D01*
X3692785Y2091552D01*
X3692603Y2092448D01*
X3692557Y2092515D01*
X3692538Y2092595D01*
X3691995Y2093335D01*
X3691478Y2094090D01*
X3691409Y2094133D01*
X3691361Y2094199D01*
X3690572Y2094669D01*
X3689801Y2095162D01*
X3689721Y2095175D01*
X3689651Y2095217D01*
X3687999Y2095498D01*
X3682998Y2095498D01*
X3682998Y2095502D01*
X3687999Y2095502D01*
X3688079Y2095518D01*
X3688159Y2095504D01*
X3689053Y2095716D01*
X3689949Y2095898D01*
X3690016Y2095944D01*
X3690096Y2095963D01*
X3690836Y2096505D01*
X3691591Y2097023D01*
X3691634Y2097092D01*
X3691700Y2097140D01*
X3692170Y2097929D01*
X3692663Y2098699D01*
X3692676Y2098779D01*
X3692718Y2098849D01*
X3692999Y2100501D01*
X3692999Y2197100D01*
X3767196Y2197100D01*
X3782991Y2194599D01*
X3798202Y2189656D01*
X3812450Y2182397D01*
X3825389Y2172996D01*
X3826865Y2171520D01*
X3826898Y2171497D01*
X3826922Y2171463D01*
X3827735Y2170943D01*
X3828523Y2170421D01*
X3828563Y2170413D01*
X3828598Y2170391D01*
X3829544Y2170230D01*
X3830479Y2170056D01*
X3830519Y2170064D01*
X3830560Y2170058D01*
X3831492Y2170278D01*
X3832423Y2170483D01*
X3832457Y2170506D01*
X3832496Y2170516D01*
X3833267Y2171081D01*
X3834046Y2171634D01*
X3834067Y2171668D01*
X3834101Y2171693D01*
X3834592Y2172518D01*
X3835092Y2173327D01*
X3835098Y2173367D01*
X3835119Y2173403D01*
X3835399Y2175054D01*
X3835399Y2284314D01*
X3835391Y2284354D01*
X3835399Y2284394D01*
X3835196Y2285318D01*
X3835003Y2286264D01*
X3834980Y2286298D01*
X3834972Y2286337D01*
X3834420Y2287114D01*
X3833878Y2287905D01*
X3833844Y2287927D01*
X3833820Y2287960D01*
X3833020Y2288454D01*
X3832202Y2288977D01*
X3832161Y2288984D01*
X3832127Y2289005D01*
X3831183Y2289150D01*
X3830240Y2289311D01*
X3830201Y2289301D01*
X3830160Y2289308D01*
X3829231Y2289072D01*
X3828304Y2288853D01*
X3828271Y2288828D01*
X3828231Y2288818D01*
X3826865Y2287849D01*
X3810997Y2271980D01*
X3777389Y2258059D01*
X3588611Y2258059D01*
X3555003Y2271980D01*
X3529280Y2297703D01*
X3515359Y2331311D01*
X3515359Y2367689D01*
X3529280Y2401297D01*
X3555003Y2427019D01*
X3566698Y2431864D01*
X3566699Y2431864D01*
X3588611Y2440940D01*
X3777389Y2440940D01*
X3810997Y2427019D01*
X3826865Y2411151D01*
X3826898Y2411129D01*
X3826922Y2411095D01*
X3827731Y2410577D01*
X3828524Y2410052D01*
X3828564Y2410044D01*
X3828598Y2410023D01*
X3829540Y2409863D01*
X3830480Y2409687D01*
X3830520Y2409696D01*
X3830560Y2409689D01*
X3831495Y2409910D01*
X3832423Y2410114D01*
X3832456Y2410138D01*
X3832496Y2410147D01*
X3833271Y2410716D01*
X3834046Y2411266D01*
X3834068Y2411300D01*
X3834101Y2411324D01*
X3834593Y2412152D01*
X3835092Y2412959D01*
X3835098Y2412999D01*
X3835119Y2413034D01*
X3835399Y2414686D01*
X3835399Y2698750D01*
X3835370Y2698895D01*
X3835389Y2699077D01*
X3833584Y2726605D01*
X3833479Y2726992D01*
X3833425Y2727572D01*
X3819175Y2780752D01*
X3818971Y2781163D01*
X3818676Y2781958D01*
X3791148Y2829638D01*
X3790844Y2829982D01*
X3790353Y2830673D01*
X3751423Y2869603D01*
X3751042Y2869856D01*
X3750388Y2870398D01*
X3702708Y2897926D01*
X3702273Y2898071D01*
X3701502Y2898425D01*
X3648322Y2912675D01*
X3647921Y2912699D01*
X3647355Y2912834D01*
X3619828Y2914639D01*
X3619681Y2914619D01*
X3619501Y2914649D01*
X1333498Y2914649D01*
X1333353Y2914620D01*
X1333172Y2914639D01*
X1305645Y2912834D01*
X1305258Y2912729D01*
X1304678Y2912675D01*
X1251498Y2898425D01*
X1251087Y2898221D01*
X1250292Y2897926D01*
X1202612Y2870398D01*
X1202268Y2870094D01*
X1201577Y2869603D01*
X1162647Y2830673D01*
X1162394Y2830292D01*
X1161852Y2829638D01*
X1134324Y2781958D01*
X1134178Y2781523D01*
X1133824Y2780752D01*
X1119575Y2727572D01*
X1119550Y2727172D01*
X1119415Y2726605D01*
X1117611Y2699077D01*
X1117631Y2698930D01*
X1117600Y2698750D01*
X1117600Y2414686D01*
X1117608Y2414646D01*
X1117601Y2414606D01*
X1117806Y2413674D01*
X1117996Y2412736D01*
X1118019Y2412702D01*
X1118028Y2412663D01*
X1118579Y2411885D01*
X1119122Y2411095D01*
X1119156Y2411073D01*
X1119179Y2411040D01*
X1119985Y2410542D01*
X1120798Y2410023D01*
X1120838Y2410016D01*
X1120873Y2409994D01*
X1121817Y2409849D01*
X1122760Y2409689D01*
X1122799Y2409698D01*
X1122839Y2409692D01*
X1123769Y2409928D01*
X1124696Y2410147D01*
X1124729Y2410171D01*
X1124768Y2410181D01*
X1126135Y2411151D01*
X1142003Y2427019D01*
X1153698Y2431864D01*
X1153699Y2431864D01*
X1175611Y2440940D01*
X1364389Y2440940D01*
X1397997Y2427019D01*
X1423719Y2401297D01*
X1437640Y2367689D01*
X1437640Y2331311D01*
X1423719Y2297703D01*
X1397997Y2271980D01*
X1364389Y2258059D01*
X1175611Y2258059D01*
X1142003Y2271980D01*
X1126135Y2287849D01*
X1126101Y2287871D01*
X1126078Y2287905D01*
X1125269Y2288423D01*
X1124476Y2288948D01*
X1124436Y2288955D01*
X1124402Y2288977D01*
X1123459Y2289137D01*
X1122520Y2289313D01*
X1122480Y2289304D01*
X1122440Y2289311D01*
X1121504Y2289089D01*
X1120576Y2288885D01*
X1120543Y2288862D01*
X1120503Y2288853D01*
X1119729Y2288284D01*
X1118953Y2287734D01*
X1118932Y2287700D01*
X1118899Y2287675D01*
X1118407Y2286848D01*
X1117908Y2286041D01*
X1117902Y2286001D01*
X1117881Y2285966D01*
X1117600Y2284314D01*
X1117600Y2175054D01*
X1117608Y2175014D01*
X1117601Y2174974D01*
X1117807Y2174039D01*
X1117996Y2173104D01*
X1118019Y2173071D01*
X1118028Y2173031D01*
X1118582Y2172251D01*
X1119122Y2171463D01*
X1119156Y2171441D01*
X1119180Y2171408D01*
X1119991Y2170907D01*
X1120798Y2170391D01*
X1120838Y2170384D01*
X1120873Y2170363D01*
X1121822Y2170217D01*
X1122760Y2170058D01*
X1122799Y2170067D01*
X1122840Y2170061D01*
X1123767Y2170296D01*
X1124696Y2170516D01*
X1124729Y2170540D01*
X1124769Y2170550D01*
X1126135Y2171520D01*
X1127611Y2172996D01*
X1140550Y2182397D01*
X1154798Y2189656D01*
X1170008Y2194599D01*
X1185803Y2197100D01*
X1260001Y2197100D01*
X1260001Y2100501D01*
X1260017Y2100422D01*
X1260003Y2100341D01*
X1260215Y2099448D01*
X1260397Y2098551D01*
X1260443Y2098484D01*
X1260461Y2098405D01*
X1261004Y2097665D01*
X1261522Y2096910D01*
X1261590Y2096866D01*
X1261638Y2096801D01*
X1262428Y2096331D01*
X1263198Y2095838D01*
X1263278Y2095824D01*
X1263348Y2095783D01*
X1265000Y2095502D01*
X1270002Y2095502D01*
X1270002Y2095498D01*
X1265000Y2095498D01*
X1264920Y2095482D01*
X1264840Y2095495D01*
X1263947Y2095284D01*
X1263050Y2095102D01*
X1262983Y2095056D01*
X1262904Y2095037D01*
X1262164Y2094494D01*
X1261409Y2093977D01*
X1261365Y2093908D01*
X1261299Y2093860D01*
X1260830Y2093071D01*
X1260337Y2092300D01*
X1260323Y2092220D01*
X1260281Y2092150D01*
X1260001Y2090498D01*
X1260001Y1993899D01*
X1185803Y1993899D01*
X1170008Y1996401D01*
X1154798Y2001343D01*
X1140550Y2008603D01*
X1127611Y2018004D01*
X1126135Y2019480D01*
X1126101Y2019503D01*
X1126078Y2019537D01*
X1125264Y2020057D01*
X1124476Y2020579D01*
X1124436Y2020587D01*
X1124402Y2020609D01*
X1123456Y2020769D01*
X1122520Y2020944D01*
X1122480Y2020935D01*
X1122440Y2020942D01*
X1121508Y2020722D01*
X1120577Y2020517D01*
X1120543Y2020493D01*
X1120503Y2020484D01*
X1119733Y2019918D01*
X1118954Y2019366D01*
X1118933Y2019331D01*
X1118899Y2019307D01*
X1118408Y2018482D01*
X1117908Y2017673D01*
X1117902Y2017633D01*
X1117881Y2017597D01*
X1117600Y2015945D01*
X1117600Y1587500D01*
X1117630Y1587355D01*
X1117611Y1587173D01*
X1119415Y1559645D01*
X1119521Y1559258D01*
X1119575Y1558678D01*
X1133824Y1505498D01*
X1134029Y1505087D01*
X1134207Y1504608D01*
X1134235Y1504487D01*
X1134268Y1504443D01*
X1134324Y1504292D01*
X1161852Y1456612D01*
X1162156Y1456268D01*
X1162647Y1455577D01*
X1201577Y1416647D01*
X1201958Y1416394D01*
X1202612Y1415852D01*
X1250292Y1388324D01*
X1250726Y1388178D01*
X1251498Y1387824D01*
X1304678Y1373575D01*
X1305078Y1373550D01*
X1305645Y1373415D01*
X1333173Y1371611D01*
X1333320Y1371631D01*
X1333500Y1371600D01*
X2093814Y1371600D01*
X2093854Y1371608D01*
G37*
%LPC*%
G36*
X1279999Y2105499D02*
X1279999Y2105499D01*
X1279999Y2197100D01*
X1354196Y2197100D01*
X1369991Y2194599D01*
X1385202Y2189656D01*
X1399450Y2182397D01*
X1412389Y2172996D01*
X1423696Y2161689D01*
X1433097Y2148750D01*
X1440356Y2134502D01*
X1445299Y2119291D01*
X1447483Y2105499D01*
X1279999Y2105499D01*
G37*
%LPD*%
%LPC*%
G36*
X2676999Y1533999D02*
X2676999Y1533999D01*
X2676999Y1701483D01*
X2690791Y1699299D01*
X2706002Y1694356D01*
X2720250Y1687097D01*
X2733189Y1677696D01*
X2744496Y1666389D01*
X2753897Y1653450D01*
X2761156Y1639202D01*
X2766099Y1623991D01*
X2768600Y1608196D01*
X2768600Y1533999D01*
X2676999Y1533999D01*
G37*
%LPD*%
%LPC*%
G36*
X3505517Y2105499D02*
X3505517Y2105499D01*
X3507701Y2119291D01*
X3512643Y2134502D01*
X3519903Y2148750D01*
X3529304Y2161689D01*
X3540611Y2172996D01*
X3553550Y2182397D01*
X3567798Y2189656D01*
X3583008Y2194599D01*
X3598803Y2197100D01*
X3673001Y2197100D01*
X3673001Y2105499D01*
X3505517Y2105499D01*
G37*
%LPD*%
%LPC*%
G36*
X2565399Y1533999D02*
X2565399Y1533999D01*
X2565399Y1608196D01*
X2567901Y1623991D01*
X2572843Y1639202D01*
X2580103Y1653450D01*
X2589504Y1666389D01*
X2600811Y1677696D01*
X2613750Y1687097D01*
X2627998Y1694356D01*
X2643208Y1699299D01*
X2657001Y1701483D01*
X2657001Y1533999D01*
X2565399Y1533999D01*
G37*
%LPD*%
%LPC*%
G36*
X1279999Y1993899D02*
X1279999Y1993899D01*
X1279999Y2085501D01*
X1447483Y2085501D01*
X1445299Y2071708D01*
X1440356Y2056498D01*
X1433097Y2042250D01*
X1423696Y2029311D01*
X1412389Y2018004D01*
X1399450Y2008603D01*
X1385202Y2001343D01*
X1369991Y1996401D01*
X1354196Y1993899D01*
X1279999Y1993899D01*
G37*
%LPD*%
%LPC*%
G36*
X3598803Y1993899D02*
X3598803Y1993899D01*
X3583008Y1996401D01*
X3567798Y2001343D01*
X3553550Y2008603D01*
X3540611Y2018004D01*
X3529304Y2029311D01*
X3519903Y2042250D01*
X3512643Y2056498D01*
X3507701Y2071708D01*
X3505517Y2085501D01*
X3673001Y2085501D01*
X3673001Y1993899D01*
X3598803Y1993899D01*
G37*
%LPD*%
%LPC*%
G36*
X2835498Y1978498D02*
X2835498Y1978498D01*
X2835498Y2068900D01*
X2893844Y2068900D01*
X2900304Y2067170D01*
X2906097Y2063825D01*
X2910825Y2059097D01*
X2914170Y2053304D01*
X2915900Y2046844D01*
X2915900Y1978498D01*
X2835498Y1978498D01*
G37*
%LPD*%
%LPC*%
G36*
X2200998Y1787998D02*
X2200998Y1787998D01*
X2200998Y1878400D01*
X2259344Y1878400D01*
X2265804Y1876670D01*
X2271597Y1873325D01*
X2276325Y1868597D01*
X2279670Y1862804D01*
X2281400Y1856344D01*
X2281400Y1787998D01*
X2200998Y1787998D01*
G37*
%LPD*%
%LPC*%
G36*
X2735099Y1978498D02*
X2735099Y1978498D01*
X2735099Y2046844D01*
X2736830Y2053304D01*
X2740175Y2059097D01*
X2744903Y2063825D01*
X2750696Y2067170D01*
X2757156Y2068900D01*
X2815501Y2068900D01*
X2815501Y1978498D01*
X2735099Y1978498D01*
G37*
%LPD*%
%LPC*%
G36*
X2100599Y1787998D02*
X2100599Y1787998D01*
X2100599Y1856344D01*
X2102330Y1862804D01*
X2105675Y1868597D01*
X2110403Y1873325D01*
X2116196Y1876670D01*
X2122656Y1878400D01*
X2181001Y1878400D01*
X2181001Y1787998D01*
X2100599Y1787998D01*
G37*
%LPD*%
%LPC*%
G36*
X2835498Y1868099D02*
X2835498Y1868099D01*
X2835498Y1958501D01*
X2915900Y1958501D01*
X2915900Y1890156D01*
X2914170Y1883696D01*
X2910825Y1877903D01*
X2906097Y1873175D01*
X2900304Y1869830D01*
X2893844Y1868099D01*
X2835498Y1868099D01*
G37*
%LPD*%
%LPC*%
G36*
X2757156Y1868099D02*
X2757156Y1868099D01*
X2750696Y1869830D01*
X2744903Y1873175D01*
X2740175Y1877903D01*
X2736830Y1883696D01*
X2735099Y1890156D01*
X2735099Y1958501D01*
X2815501Y1958501D01*
X2815501Y1868099D01*
X2757156Y1868099D01*
G37*
%LPD*%
%LPC*%
G36*
X2708748Y2539748D02*
X2708748Y2539748D01*
X2708748Y2610150D01*
X2752094Y2610150D01*
X2758554Y2608420D01*
X2764347Y2605075D01*
X2769075Y2600347D01*
X2772420Y2594554D01*
X2774150Y2588094D01*
X2774150Y2539748D01*
X2708748Y2539748D01*
G37*
%LPD*%
%LPC*%
G36*
X2137248Y2539748D02*
X2137248Y2539748D01*
X2137248Y2610150D01*
X2180594Y2610150D01*
X2187054Y2608420D01*
X2192847Y2605075D01*
X2197575Y2600347D01*
X2200920Y2594554D01*
X2202650Y2588094D01*
X2202650Y2539748D01*
X2137248Y2539748D01*
G37*
%LPD*%
%LPC*%
G36*
X2623349Y2539748D02*
X2623349Y2539748D01*
X2623349Y2588094D01*
X2625080Y2594554D01*
X2628425Y2600347D01*
X2633153Y2605075D01*
X2638946Y2608420D01*
X2645406Y2610150D01*
X2688751Y2610150D01*
X2688751Y2539748D01*
X2623349Y2539748D01*
G37*
%LPD*%
%LPC*%
G36*
X2051849Y2539748D02*
X2051849Y2539748D01*
X2051849Y2588094D01*
X2053580Y2594554D01*
X2056925Y2600347D01*
X2061653Y2605075D01*
X2067446Y2608420D01*
X2073906Y2610150D01*
X2117251Y2610150D01*
X2117251Y2539748D01*
X2051849Y2539748D01*
G37*
%LPD*%
%LPC*%
G36*
X2708748Y2449349D02*
X2708748Y2449349D01*
X2708748Y2519751D01*
X2774150Y2519751D01*
X2774150Y2471406D01*
X2772420Y2464946D01*
X2769075Y2459153D01*
X2764347Y2454425D01*
X2758554Y2451080D01*
X2752094Y2449349D01*
X2708748Y2449349D01*
G37*
%LPD*%
%LPC*%
G36*
X2137248Y2449349D02*
X2137248Y2449349D01*
X2137248Y2519751D01*
X2202650Y2519751D01*
X2202650Y2471406D01*
X2200920Y2464946D01*
X2197575Y2459153D01*
X2192847Y2454425D01*
X2187054Y2451080D01*
X2180594Y2449349D01*
X2137248Y2449349D01*
G37*
%LPD*%
%LPC*%
G36*
X2645406Y2449349D02*
X2645406Y2449349D01*
X2638946Y2451080D01*
X2633153Y2454425D01*
X2628425Y2459153D01*
X2625080Y2464946D01*
X2623349Y2471406D01*
X2623349Y2519751D01*
X2688751Y2519751D01*
X2688751Y2449349D01*
X2645406Y2449349D01*
G37*
%LPD*%
%LPC*%
G36*
X2073906Y2449349D02*
X2073906Y2449349D01*
X2067446Y2451080D01*
X2061653Y2454425D01*
X2056925Y2459153D01*
X2053580Y2464946D01*
X2051849Y2471406D01*
X2051849Y2519751D01*
X2117251Y2519751D01*
X2117251Y2449349D01*
X2073906Y2449349D01*
G37*
%LPD*%
%LPC*%
G36*
X2209656Y2173099D02*
X2209656Y2173099D01*
X2203196Y2174830D01*
X2197403Y2178175D01*
X2192675Y2182903D01*
X2189330Y2188696D01*
X2187599Y2195156D01*
X2187599Y2204750D01*
X2246750Y2204750D01*
X2246750Y2173099D01*
X2209656Y2173099D01*
G37*
%LPD*%
%LPC*%
G36*
X2698748Y2529748D02*
X2698748Y2529748D01*
X2698748Y2529752D01*
X2698752Y2529752D01*
X2698752Y2529748D01*
X2698748Y2529748D01*
G37*
%LPD*%
%LPC*%
G36*
X2127248Y2529748D02*
X2127248Y2529748D01*
X2127248Y2529752D01*
X2127252Y2529752D01*
X2127252Y2529748D01*
X2127248Y2529748D01*
G37*
%LPD*%
%LPC*%
G36*
X2825498Y1968498D02*
X2825498Y1968498D01*
X2825498Y1968502D01*
X2825502Y1968502D01*
X2825502Y1968498D01*
X2825498Y1968498D01*
G37*
%LPD*%
D10*
X1016000Y1587500D02*
X1016093Y1579828D01*
X1016371Y1572161D01*
X1016834Y1564502D01*
X1017482Y1556857D01*
X1018315Y1549230D01*
X1019332Y1541625D01*
X1020532Y1534047D01*
X1021915Y1526500D01*
X1023480Y1518989D01*
X1025226Y1511517D01*
X1027152Y1504090D01*
X1029257Y1496712D01*
X1031540Y1489387D01*
X1033998Y1482119D01*
X1036632Y1474913D01*
X1039440Y1467772D01*
X1042418Y1460702D01*
X1045567Y1453705D01*
X1048884Y1446787D01*
X1052368Y1439950D01*
X1056015Y1433200D01*
X1059825Y1426540D01*
X1063794Y1419974D01*
X1067921Y1413506D01*
X1072203Y1407139D01*
X1076637Y1400878D01*
X1081222Y1394726D01*
X1085953Y1388686D01*
X1090830Y1382763D01*
X1095848Y1376959D01*
X1101005Y1371277D01*
X1106297Y1365723D01*
X1111723Y1360297D01*
X1117277Y1355005D01*
X1122959Y1349848D01*
X1128763Y1344830D01*
X1134686Y1339953D01*
X1140726Y1335222D01*
X1146878Y1330637D01*
X1153139Y1326203D01*
X1159506Y1321921D01*
X1165974Y1317794D01*
X1172540Y1313825D01*
X1179200Y1310015D01*
X1185950Y1306368D01*
X1192787Y1302884D01*
X1199705Y1299567D01*
X1206702Y1296418D01*
X1213772Y1293440D01*
X1220913Y1290632D01*
X1228119Y1287998D01*
X1235387Y1285540D01*
X1242712Y1283257D01*
X1250090Y1281152D01*
X1257517Y1279226D01*
X1264989Y1277480D01*
X1272500Y1275915D01*
X1280047Y1274532D01*
X1287625Y1273332D01*
X1295230Y1272315D01*
X1302857Y1271482D01*
X1310502Y1270834D01*
X1318161Y1270371D01*
X1325828Y1270093D01*
X1333500Y1270000D01*
X1016000Y2698750D02*
X1016093Y2706422D01*
X1016371Y2714089D01*
X1016834Y2721748D01*
X1017482Y2729393D01*
X1018315Y2737020D01*
X1019332Y2744625D01*
X1020532Y2752203D01*
X1021915Y2759750D01*
X1023480Y2767261D01*
X1025226Y2774733D01*
X1027152Y2782160D01*
X1029257Y2789538D01*
X1031540Y2796863D01*
X1033998Y2804131D01*
X1036632Y2811337D01*
X1039440Y2818478D01*
X1042418Y2825548D01*
X1045567Y2832545D01*
X1048884Y2839463D01*
X1052368Y2846300D01*
X1056015Y2853050D01*
X1059825Y2859710D01*
X1063794Y2866276D01*
X1067921Y2872744D01*
X1072203Y2879111D01*
X1076637Y2885372D01*
X1081222Y2891524D01*
X1085953Y2897564D01*
X1090830Y2903487D01*
X1095848Y2909291D01*
X1101005Y2914973D01*
X1106297Y2920527D01*
X1111723Y2925953D01*
X1117277Y2931245D01*
X1122959Y2936402D01*
X1128763Y2941420D01*
X1134686Y2946297D01*
X1140726Y2951028D01*
X1146878Y2955613D01*
X1153139Y2960047D01*
X1159506Y2964329D01*
X1165974Y2968456D01*
X1172540Y2972425D01*
X1179200Y2976235D01*
X1185950Y2979882D01*
X1192787Y2983366D01*
X1199705Y2986683D01*
X1206702Y2989832D01*
X1213772Y2992810D01*
X1220913Y2995618D01*
X1228119Y2998252D01*
X1235387Y3000710D01*
X1242712Y3002993D01*
X1250090Y3005098D01*
X1257517Y3007024D01*
X1264989Y3008770D01*
X1272500Y3010335D01*
X1280047Y3011718D01*
X1287625Y3012918D01*
X1295230Y3013935D01*
X1302857Y3014768D01*
X1310502Y3015416D01*
X1318161Y3015879D01*
X1325828Y3016157D01*
X1333500Y3016250D01*
X3619500Y3016250D02*
X3627172Y3016157D01*
X3634839Y3015879D01*
X3642498Y3015416D01*
X3650143Y3014768D01*
X3657770Y3013935D01*
X3665375Y3012918D01*
X3672953Y3011718D01*
X3680500Y3010335D01*
X3688011Y3008770D01*
X3695483Y3007024D01*
X3702910Y3005098D01*
X3710288Y3002993D01*
X3717613Y3000710D01*
X3724881Y2998252D01*
X3732087Y2995618D01*
X3739228Y2992810D01*
X3746298Y2989832D01*
X3753295Y2986683D01*
X3760213Y2983366D01*
X3767050Y2979882D01*
X3773800Y2976235D01*
X3780460Y2972425D01*
X3787026Y2968456D01*
X3793494Y2964329D01*
X3799861Y2960047D01*
X3806122Y2955613D01*
X3812274Y2951028D01*
X3818314Y2946297D01*
X3824237Y2941420D01*
X3830041Y2936402D01*
X3835723Y2931245D01*
X3841277Y2925953D01*
X3846703Y2920527D01*
X3851995Y2914973D01*
X3857152Y2909291D01*
X3862170Y2903487D01*
X3867047Y2897564D01*
X3871778Y2891524D01*
X3876363Y2885372D01*
X3880797Y2879111D01*
X3885079Y2872744D01*
X3889206Y2866276D01*
X3893175Y2859710D01*
X3896985Y2853050D01*
X3900632Y2846300D01*
X3904116Y2839463D01*
X3907433Y2832545D01*
X3910582Y2825548D01*
X3913560Y2818478D01*
X3916368Y2811337D01*
X3919002Y2804131D01*
X3921460Y2796863D01*
X3923743Y2789538D01*
X3925848Y2782160D01*
X3927774Y2774733D01*
X3929520Y2767261D01*
X3931085Y2759750D01*
X3932468Y2752203D01*
X3933668Y2744625D01*
X3934685Y2737020D01*
X3935518Y2729393D01*
X3936166Y2721748D01*
X3936629Y2714089D01*
X3936907Y2706422D01*
X3937000Y2698750D01*
X3937000Y1587500D02*
X3936907Y1579828D01*
X3936629Y1572161D01*
X3936166Y1564502D01*
X3935518Y1556857D01*
X3934685Y1549230D01*
X3933668Y1541625D01*
X3932468Y1534047D01*
X3931085Y1526500D01*
X3929520Y1518989D01*
X3927774Y1511517D01*
X3925848Y1504090D01*
X3923743Y1496712D01*
X3921460Y1489387D01*
X3919002Y1482119D01*
X3916368Y1474913D01*
X3913560Y1467772D01*
X3910582Y1460702D01*
X3907433Y1453705D01*
X3904116Y1446787D01*
X3900632Y1439950D01*
X3896985Y1433200D01*
X3893175Y1426540D01*
X3889206Y1419974D01*
X3885079Y1413506D01*
X3880797Y1407139D01*
X3876363Y1400878D01*
X3871778Y1394726D01*
X3867047Y1388686D01*
X3862170Y1382763D01*
X3857152Y1376959D01*
X3851995Y1371277D01*
X3846703Y1365723D01*
X3841277Y1360297D01*
X3835723Y1355005D01*
X3830041Y1349848D01*
X3824237Y1344830D01*
X3818314Y1339953D01*
X3812274Y1335222D01*
X3806122Y1330637D01*
X3799861Y1326203D01*
X3793494Y1321921D01*
X3787026Y1317794D01*
X3780460Y1313825D01*
X3773800Y1310015D01*
X3767050Y1306368D01*
X3760213Y1302884D01*
X3753295Y1299567D01*
X3746298Y1296418D01*
X3739228Y1293440D01*
X3732087Y1290632D01*
X3724881Y1287998D01*
X3717613Y1285540D01*
X3710288Y1283257D01*
X3702910Y1281152D01*
X3695483Y1279226D01*
X3688011Y1277480D01*
X3680500Y1275915D01*
X3672953Y1274532D01*
X3665375Y1273332D01*
X3657770Y1272315D01*
X3650143Y1271482D01*
X3642498Y1270834D01*
X3634839Y1270371D01*
X3627172Y1270093D01*
X3619500Y1270000D01*
X3619500Y3016250D02*
X1333500Y3016250D01*
X1016000Y2698750D02*
X1016000Y1587500D01*
X1333500Y1270000D02*
X3619500Y1270000D01*
X3937000Y1587500D02*
X3937000Y2698750D01*
D11*
X2438000Y2151000D03*
X2488000Y2151000D03*
X2338000Y2151000D03*
X2388000Y2151000D03*
D12*
X2253000Y2211000D03*
X2253000Y2261000D03*
X2253000Y2311000D03*
X2253000Y2361000D03*
X2573000Y2211000D03*
X2573000Y2261000D03*
X2573000Y2311000D03*
X2573000Y2361000D03*
D13*
X2413000Y2367500D03*
D14*
X2363000Y2385000D03*
D15*
X2280500Y2336000D03*
D14*
X2463000Y2385000D03*
D15*
X2545500Y2336500D03*
D16*
X2127250Y2529750D03*
X2127250Y2359750D03*
X2698750Y2529750D03*
X2698750Y2359750D03*
D17*
X2825500Y1968500D03*
X2635500Y1968500D03*
D18*
X1346200Y2095500D02*
X1193800Y2095500D01*
X1193800Y2349500D02*
X1346200Y2349500D01*
X3606800Y2095500D02*
X3759200Y2095500D01*
X3759200Y2349500D02*
X3606800Y2349500D01*
X2159000Y1600200D02*
X2159000Y1447800D01*
X2413000Y1447800D02*
X2413000Y1600200D01*
X2667000Y1600200D02*
X2667000Y1447800D01*
D17*
X2191000Y1778000D03*
X2381000Y1778000D03*
D19*
X2253000Y2361000D02*
X2128500Y2361000D01*
X2127250Y2359750D01*
X2127250Y2311000D02*
X2253000Y2311000D01*
X2127250Y2311000D02*
X2127250Y2359750D01*
X2280500Y2361000D02*
X2280500Y2336000D01*
X2280500Y2361000D02*
X2253000Y2361000D01*
D20*
X2127250Y2359750D02*
X1975000Y2359750D01*
X1975000Y2317500D01*
D21*
X1975000Y2317500D03*
D19*
X1975000Y1524000D01*
X2159000Y1524000D01*
X2573000Y2311000D02*
X2698750Y2311000D01*
X2698750Y2361000D02*
X2573000Y2361000D01*
X2698750Y2361000D02*
X2698750Y2359750D01*
X2545500Y2336500D02*
X2545500Y2311000D01*
X2573000Y2311000D01*
X2573000Y2211000D02*
X2698750Y2211000D01*
X2698750Y2311000D01*
X2698750Y2359750D01*
D20*
X2975000Y2359750D01*
X2975000Y2317500D01*
D21*
X2975000Y2317500D03*
D19*
X2388000Y2151000D02*
X2388000Y2075000D01*
X2275000Y2075000D01*
D21*
X2275000Y2075000D03*
D19*
X2438000Y2075000D02*
X2438000Y2151000D01*
X2544500Y1968500D02*
X2635500Y1968500D01*
X2544500Y1968500D02*
X2438000Y2075000D01*
D21*
X2286000Y2508250D03*
D19*
X2363000Y2508250D01*
X2363000Y2385000D01*
D21*
X2540000Y2508250D03*
D19*
X2463000Y2508250D01*
X2463000Y2385000D01*
X2338000Y2261000D02*
X2253000Y2261000D01*
X2338000Y2261000D02*
X2338000Y2151000D01*
D21*
X2100000Y1975000D03*
D19*
X2100000Y2225000D01*
X2136000Y2261000D01*
X2253000Y2261000D01*
X2413000Y1746000D02*
X2413000Y1524000D01*
X2413000Y1746000D02*
X2381000Y1778000D01*
M02*
