G04 EAGLE Gerber X2 export*
G75*
%MOMM*%
%FSLAX35Y35*%
%LPD*%
%AMOC8*
5,1,8,0,0,1.08239X$1,22.5*%
G01*
%ADD10C,0.000000*%
%ADD11C,0.076200*%
%ADD12C,0.500000*%
%ADD13C,0.127000*%
%ADD14C,0.152400*%
%ADD15C,0.101600*%


D10*
X1016000Y1587500D02*
X1016093Y1579828D01*
X1016371Y1572161D01*
X1016834Y1564502D01*
X1017482Y1556857D01*
X1018315Y1549230D01*
X1019332Y1541625D01*
X1020532Y1534047D01*
X1021915Y1526500D01*
X1023480Y1518989D01*
X1025226Y1511517D01*
X1027152Y1504090D01*
X1029257Y1496712D01*
X1031540Y1489387D01*
X1033998Y1482119D01*
X1036632Y1474913D01*
X1039440Y1467772D01*
X1042418Y1460702D01*
X1045567Y1453705D01*
X1048884Y1446787D01*
X1052368Y1439950D01*
X1056015Y1433200D01*
X1059825Y1426540D01*
X1063794Y1419974D01*
X1067921Y1413506D01*
X1072203Y1407139D01*
X1076637Y1400878D01*
X1081222Y1394726D01*
X1085953Y1388686D01*
X1090830Y1382763D01*
X1095848Y1376959D01*
X1101005Y1371277D01*
X1106297Y1365723D01*
X1111723Y1360297D01*
X1117277Y1355005D01*
X1122959Y1349848D01*
X1128763Y1344830D01*
X1134686Y1339953D01*
X1140726Y1335222D01*
X1146878Y1330637D01*
X1153139Y1326203D01*
X1159506Y1321921D01*
X1165974Y1317794D01*
X1172540Y1313825D01*
X1179200Y1310015D01*
X1185950Y1306368D01*
X1192787Y1302884D01*
X1199705Y1299567D01*
X1206702Y1296418D01*
X1213772Y1293440D01*
X1220913Y1290632D01*
X1228119Y1287998D01*
X1235387Y1285540D01*
X1242712Y1283257D01*
X1250090Y1281152D01*
X1257517Y1279226D01*
X1264989Y1277480D01*
X1272500Y1275915D01*
X1280047Y1274532D01*
X1287625Y1273332D01*
X1295230Y1272315D01*
X1302857Y1271482D01*
X1310502Y1270834D01*
X1318161Y1270371D01*
X1325828Y1270093D01*
X1333500Y1270000D01*
X1016000Y2698750D02*
X1016093Y2706422D01*
X1016371Y2714089D01*
X1016834Y2721748D01*
X1017482Y2729393D01*
X1018315Y2737020D01*
X1019332Y2744625D01*
X1020532Y2752203D01*
X1021915Y2759750D01*
X1023480Y2767261D01*
X1025226Y2774733D01*
X1027152Y2782160D01*
X1029257Y2789538D01*
X1031540Y2796863D01*
X1033998Y2804131D01*
X1036632Y2811337D01*
X1039440Y2818478D01*
X1042418Y2825548D01*
X1045567Y2832545D01*
X1048884Y2839463D01*
X1052368Y2846300D01*
X1056015Y2853050D01*
X1059825Y2859710D01*
X1063794Y2866276D01*
X1067921Y2872744D01*
X1072203Y2879111D01*
X1076637Y2885372D01*
X1081222Y2891524D01*
X1085953Y2897564D01*
X1090830Y2903487D01*
X1095848Y2909291D01*
X1101005Y2914973D01*
X1106297Y2920527D01*
X1111723Y2925953D01*
X1117277Y2931245D01*
X1122959Y2936402D01*
X1128763Y2941420D01*
X1134686Y2946297D01*
X1140726Y2951028D01*
X1146878Y2955613D01*
X1153139Y2960047D01*
X1159506Y2964329D01*
X1165974Y2968456D01*
X1172540Y2972425D01*
X1179200Y2976235D01*
X1185950Y2979882D01*
X1192787Y2983366D01*
X1199705Y2986683D01*
X1206702Y2989832D01*
X1213772Y2992810D01*
X1220913Y2995618D01*
X1228119Y2998252D01*
X1235387Y3000710D01*
X1242712Y3002993D01*
X1250090Y3005098D01*
X1257517Y3007024D01*
X1264989Y3008770D01*
X1272500Y3010335D01*
X1280047Y3011718D01*
X1287625Y3012918D01*
X1295230Y3013935D01*
X1302857Y3014768D01*
X1310502Y3015416D01*
X1318161Y3015879D01*
X1325828Y3016157D01*
X1333500Y3016250D01*
X3619500Y3016250D02*
X3627172Y3016157D01*
X3634839Y3015879D01*
X3642498Y3015416D01*
X3650143Y3014768D01*
X3657770Y3013935D01*
X3665375Y3012918D01*
X3672953Y3011718D01*
X3680500Y3010335D01*
X3688011Y3008770D01*
X3695483Y3007024D01*
X3702910Y3005098D01*
X3710288Y3002993D01*
X3717613Y3000710D01*
X3724881Y2998252D01*
X3732087Y2995618D01*
X3739228Y2992810D01*
X3746298Y2989832D01*
X3753295Y2986683D01*
X3760213Y2983366D01*
X3767050Y2979882D01*
X3773800Y2976235D01*
X3780460Y2972425D01*
X3787026Y2968456D01*
X3793494Y2964329D01*
X3799861Y2960047D01*
X3806122Y2955613D01*
X3812274Y2951028D01*
X3818314Y2946297D01*
X3824237Y2941420D01*
X3830041Y2936402D01*
X3835723Y2931245D01*
X3841277Y2925953D01*
X3846703Y2920527D01*
X3851995Y2914973D01*
X3857152Y2909291D01*
X3862170Y2903487D01*
X3867047Y2897564D01*
X3871778Y2891524D01*
X3876363Y2885372D01*
X3880797Y2879111D01*
X3885079Y2872744D01*
X3889206Y2866276D01*
X3893175Y2859710D01*
X3896985Y2853050D01*
X3900632Y2846300D01*
X3904116Y2839463D01*
X3907433Y2832545D01*
X3910582Y2825548D01*
X3913560Y2818478D01*
X3916368Y2811337D01*
X3919002Y2804131D01*
X3921460Y2796863D01*
X3923743Y2789538D01*
X3925848Y2782160D01*
X3927774Y2774733D01*
X3929520Y2767261D01*
X3931085Y2759750D01*
X3932468Y2752203D01*
X3933668Y2744625D01*
X3934685Y2737020D01*
X3935518Y2729393D01*
X3936166Y2721748D01*
X3936629Y2714089D01*
X3936907Y2706422D01*
X3937000Y2698750D01*
X3937000Y1587500D02*
X3936907Y1579828D01*
X3936629Y1572161D01*
X3936166Y1564502D01*
X3935518Y1556857D01*
X3934685Y1549230D01*
X3933668Y1541625D01*
X3932468Y1534047D01*
X3931085Y1526500D01*
X3929520Y1518989D01*
X3927774Y1511517D01*
X3925848Y1504090D01*
X3923743Y1496712D01*
X3921460Y1489387D01*
X3919002Y1482119D01*
X3916368Y1474913D01*
X3913560Y1467772D01*
X3910582Y1460702D01*
X3907433Y1453705D01*
X3904116Y1446787D01*
X3900632Y1439950D01*
X3896985Y1433200D01*
X3893175Y1426540D01*
X3889206Y1419974D01*
X3885079Y1413506D01*
X3880797Y1407139D01*
X3876363Y1400878D01*
X3871778Y1394726D01*
X3867047Y1388686D01*
X3862170Y1382763D01*
X3857152Y1376959D01*
X3851995Y1371277D01*
X3846703Y1365723D01*
X3841277Y1360297D01*
X3835723Y1355005D01*
X3830041Y1349848D01*
X3824237Y1344830D01*
X3818314Y1339953D01*
X3812274Y1335222D01*
X3806122Y1330637D01*
X3799861Y1326203D01*
X3793494Y1321921D01*
X3787026Y1317794D01*
X3780460Y1313825D01*
X3773800Y1310015D01*
X3767050Y1306368D01*
X3760213Y1302884D01*
X3753295Y1299567D01*
X3746298Y1296418D01*
X3739228Y1293440D01*
X3732087Y1290632D01*
X3724881Y1287998D01*
X3717613Y1285540D01*
X3710288Y1283257D01*
X3702910Y1281152D01*
X3695483Y1279226D01*
X3688011Y1277480D01*
X3680500Y1275915D01*
X3672953Y1274532D01*
X3665375Y1273332D01*
X3657770Y1272315D01*
X3650143Y1271482D01*
X3642498Y1270834D01*
X3634839Y1270371D01*
X3627172Y1270093D01*
X3619500Y1270000D01*
X3619500Y3016250D02*
X1333500Y3016250D01*
X1016000Y2698750D02*
X1016000Y1587500D01*
X1333500Y1270000D02*
X3619500Y1270000D01*
X3937000Y1587500D02*
X3937000Y2698750D01*
D11*
X1820368Y1544529D02*
X1820368Y1503471D01*
X1820368Y1544529D02*
X1820376Y1545154D01*
X1820398Y1545778D01*
X1820436Y1546402D01*
X1820490Y1547025D01*
X1820558Y1547646D01*
X1820641Y1548265D01*
X1820740Y1548882D01*
X1820853Y1549497D01*
X1820982Y1550108D01*
X1821125Y1550717D01*
X1821283Y1551321D01*
X1821456Y1551922D01*
X1821643Y1552518D01*
X1821845Y1553110D01*
X1822061Y1553696D01*
X1822292Y1554277D01*
X1822536Y1554852D01*
X1822794Y1555421D01*
X1823066Y1555984D01*
X1823352Y1556539D01*
X1823651Y1557088D01*
X1823964Y1557629D01*
X1824289Y1558163D01*
X1824628Y1558688D01*
X1824979Y1559205D01*
X1825343Y1559713D01*
X1825718Y1560212D01*
X1826106Y1560702D01*
X1826506Y1561183D01*
X1826917Y1561653D01*
X1827340Y1562113D01*
X1827774Y1562563D01*
X1828218Y1563002D01*
X1828673Y1563431D01*
X1829139Y1563848D01*
X1829614Y1564253D01*
X1830100Y1564647D01*
X1830594Y1565029D01*
X1831098Y1565399D01*
X1831611Y1565756D01*
X1832132Y1566101D01*
X1832661Y1566433D01*
X1833199Y1566752D01*
X1833743Y1567058D01*
X1834296Y1567350D01*
X1834855Y1567629D01*
X1835421Y1567895D01*
X1835993Y1568146D01*
X1836571Y1568383D01*
X1837155Y1568607D01*
X1837744Y1568816D01*
X1838337Y1569010D01*
X1838936Y1569190D01*
X1839538Y1569356D01*
X1840145Y1569506D01*
X1840755Y1569642D01*
X1841368Y1569763D01*
X1841984Y1569869D01*
X1842602Y1569960D01*
X1843222Y1570036D01*
X1843844Y1570097D01*
X1844468Y1570142D01*
X1845092Y1570173D01*
X1845717Y1570188D01*
X1846341Y1570188D01*
X1846966Y1570173D01*
X1847590Y1570142D01*
X1848214Y1570097D01*
X1848836Y1570036D01*
X1849456Y1569960D01*
X1850074Y1569869D01*
X1850690Y1569763D01*
X1851303Y1569642D01*
X1851913Y1569506D01*
X1852520Y1569356D01*
X1853122Y1569190D01*
X1853721Y1569010D01*
X1854314Y1568816D01*
X1854903Y1568607D01*
X1855487Y1568383D01*
X1856065Y1568146D01*
X1856637Y1567895D01*
X1857203Y1567629D01*
X1857762Y1567350D01*
X1858315Y1567058D01*
X1858860Y1566752D01*
X1859397Y1566433D01*
X1859926Y1566101D01*
X1860447Y1565756D01*
X1860960Y1565399D01*
X1861464Y1565029D01*
X1861958Y1564647D01*
X1862444Y1564253D01*
X1862919Y1563848D01*
X1863385Y1563431D01*
X1863840Y1563002D01*
X1864284Y1562563D01*
X1864718Y1562113D01*
X1865141Y1561653D01*
X1865552Y1561183D01*
X1865952Y1560702D01*
X1866340Y1560212D01*
X1866715Y1559713D01*
X1867079Y1559205D01*
X1867430Y1558688D01*
X1867769Y1558163D01*
X1868094Y1557629D01*
X1868407Y1557088D01*
X1868706Y1556539D01*
X1868992Y1555984D01*
X1869264Y1555421D01*
X1869522Y1554852D01*
X1869766Y1554277D01*
X1869997Y1553696D01*
X1870213Y1553110D01*
X1870415Y1552518D01*
X1870602Y1551922D01*
X1870775Y1551321D01*
X1870933Y1550717D01*
X1871076Y1550108D01*
X1871205Y1549497D01*
X1871318Y1548882D01*
X1871417Y1548265D01*
X1871500Y1547646D01*
X1871568Y1547025D01*
X1871622Y1546402D01*
X1871660Y1545778D01*
X1871682Y1545154D01*
X1871690Y1544529D01*
X1871690Y1503471D01*
X1871682Y1502846D01*
X1871660Y1502222D01*
X1871622Y1501598D01*
X1871568Y1500975D01*
X1871500Y1500354D01*
X1871417Y1499735D01*
X1871318Y1499118D01*
X1871205Y1498503D01*
X1871076Y1497892D01*
X1870933Y1497283D01*
X1870775Y1496679D01*
X1870602Y1496078D01*
X1870415Y1495482D01*
X1870213Y1494890D01*
X1869997Y1494304D01*
X1869766Y1493723D01*
X1869522Y1493148D01*
X1869264Y1492579D01*
X1868992Y1492016D01*
X1868706Y1491461D01*
X1868407Y1490912D01*
X1868094Y1490371D01*
X1867769Y1489837D01*
X1867430Y1489312D01*
X1867079Y1488795D01*
X1866715Y1488287D01*
X1866340Y1487788D01*
X1865952Y1487298D01*
X1865552Y1486817D01*
X1865141Y1486347D01*
X1864718Y1485887D01*
X1864284Y1485437D01*
X1863840Y1484998D01*
X1863385Y1484569D01*
X1862919Y1484152D01*
X1862444Y1483747D01*
X1861958Y1483353D01*
X1861464Y1482971D01*
X1860960Y1482601D01*
X1860447Y1482244D01*
X1859926Y1481899D01*
X1859397Y1481567D01*
X1858860Y1481248D01*
X1858315Y1480942D01*
X1857762Y1480650D01*
X1857203Y1480371D01*
X1856637Y1480105D01*
X1856065Y1479854D01*
X1855487Y1479617D01*
X1854903Y1479393D01*
X1854314Y1479184D01*
X1853721Y1478990D01*
X1853122Y1478810D01*
X1852520Y1478644D01*
X1851913Y1478494D01*
X1851303Y1478358D01*
X1850690Y1478237D01*
X1850074Y1478131D01*
X1849456Y1478040D01*
X1848836Y1477964D01*
X1848214Y1477903D01*
X1847590Y1477858D01*
X1846966Y1477827D01*
X1846341Y1477812D01*
X1845717Y1477812D01*
X1845092Y1477827D01*
X1844468Y1477858D01*
X1843844Y1477903D01*
X1843222Y1477964D01*
X1842602Y1478040D01*
X1841984Y1478131D01*
X1841368Y1478237D01*
X1840755Y1478358D01*
X1840145Y1478494D01*
X1839538Y1478644D01*
X1838936Y1478810D01*
X1838337Y1478990D01*
X1837744Y1479184D01*
X1837155Y1479393D01*
X1836571Y1479617D01*
X1835993Y1479854D01*
X1835421Y1480105D01*
X1834855Y1480371D01*
X1834296Y1480650D01*
X1833743Y1480942D01*
X1833199Y1481248D01*
X1832661Y1481567D01*
X1832132Y1481899D01*
X1831611Y1482244D01*
X1831098Y1482601D01*
X1830594Y1482971D01*
X1830100Y1483353D01*
X1829614Y1483747D01*
X1829139Y1484152D01*
X1828673Y1484569D01*
X1828218Y1484998D01*
X1827774Y1485437D01*
X1827340Y1485887D01*
X1826917Y1486347D01*
X1826506Y1486817D01*
X1826106Y1487298D01*
X1825718Y1487788D01*
X1825343Y1488287D01*
X1824979Y1488795D01*
X1824628Y1489312D01*
X1824289Y1489837D01*
X1823964Y1490371D01*
X1823651Y1490912D01*
X1823352Y1491461D01*
X1823066Y1492016D01*
X1822794Y1492579D01*
X1822536Y1493148D01*
X1822292Y1493723D01*
X1822061Y1494304D01*
X1821845Y1494890D01*
X1821643Y1495482D01*
X1821456Y1496078D01*
X1821283Y1496679D01*
X1821125Y1497283D01*
X1820982Y1497892D01*
X1820853Y1498503D01*
X1820740Y1499118D01*
X1820641Y1499735D01*
X1820558Y1500354D01*
X1820490Y1500975D01*
X1820436Y1501598D01*
X1820398Y1502222D01*
X1820376Y1502846D01*
X1820368Y1503471D01*
X1913368Y1477810D02*
X1913368Y1570190D01*
X1964690Y1477810D01*
X1964690Y1570190D01*
X2861310Y1544529D02*
X2861310Y1503471D01*
X2861310Y1544529D02*
X2861318Y1545154D01*
X2861340Y1545778D01*
X2861378Y1546402D01*
X2861432Y1547025D01*
X2861500Y1547646D01*
X2861583Y1548265D01*
X2861682Y1548882D01*
X2861795Y1549497D01*
X2861924Y1550108D01*
X2862067Y1550717D01*
X2862225Y1551321D01*
X2862398Y1551922D01*
X2862585Y1552518D01*
X2862787Y1553110D01*
X2863003Y1553696D01*
X2863234Y1554277D01*
X2863478Y1554852D01*
X2863736Y1555421D01*
X2864008Y1555984D01*
X2864294Y1556539D01*
X2864593Y1557088D01*
X2864906Y1557629D01*
X2865231Y1558163D01*
X2865570Y1558688D01*
X2865921Y1559205D01*
X2866285Y1559713D01*
X2866660Y1560212D01*
X2867048Y1560702D01*
X2867448Y1561183D01*
X2867859Y1561653D01*
X2868282Y1562113D01*
X2868716Y1562563D01*
X2869160Y1563002D01*
X2869615Y1563431D01*
X2870081Y1563848D01*
X2870556Y1564253D01*
X2871042Y1564647D01*
X2871536Y1565029D01*
X2872040Y1565399D01*
X2872553Y1565756D01*
X2873074Y1566101D01*
X2873603Y1566433D01*
X2874141Y1566752D01*
X2874685Y1567058D01*
X2875238Y1567350D01*
X2875797Y1567629D01*
X2876363Y1567895D01*
X2876935Y1568146D01*
X2877513Y1568383D01*
X2878097Y1568607D01*
X2878686Y1568816D01*
X2879279Y1569010D01*
X2879878Y1569190D01*
X2880480Y1569356D01*
X2881087Y1569506D01*
X2881697Y1569642D01*
X2882310Y1569763D01*
X2882926Y1569869D01*
X2883544Y1569960D01*
X2884164Y1570036D01*
X2884786Y1570097D01*
X2885410Y1570142D01*
X2886034Y1570173D01*
X2886659Y1570188D01*
X2887283Y1570188D01*
X2887908Y1570173D01*
X2888532Y1570142D01*
X2889156Y1570097D01*
X2889778Y1570036D01*
X2890398Y1569960D01*
X2891016Y1569869D01*
X2891632Y1569763D01*
X2892245Y1569642D01*
X2892855Y1569506D01*
X2893462Y1569356D01*
X2894064Y1569190D01*
X2894663Y1569010D01*
X2895256Y1568816D01*
X2895845Y1568607D01*
X2896429Y1568383D01*
X2897007Y1568146D01*
X2897579Y1567895D01*
X2898145Y1567629D01*
X2898704Y1567350D01*
X2899257Y1567058D01*
X2899802Y1566752D01*
X2900339Y1566433D01*
X2900868Y1566101D01*
X2901389Y1565756D01*
X2901902Y1565399D01*
X2902406Y1565029D01*
X2902900Y1564647D01*
X2903386Y1564253D01*
X2903861Y1563848D01*
X2904327Y1563431D01*
X2904782Y1563002D01*
X2905226Y1562563D01*
X2905660Y1562113D01*
X2906083Y1561653D01*
X2906494Y1561183D01*
X2906894Y1560702D01*
X2907282Y1560212D01*
X2907657Y1559713D01*
X2908021Y1559205D01*
X2908372Y1558688D01*
X2908711Y1558163D01*
X2909036Y1557629D01*
X2909349Y1557088D01*
X2909648Y1556539D01*
X2909934Y1555984D01*
X2910206Y1555421D01*
X2910464Y1554852D01*
X2910708Y1554277D01*
X2910939Y1553696D01*
X2911155Y1553110D01*
X2911357Y1552518D01*
X2911544Y1551922D01*
X2911717Y1551321D01*
X2911875Y1550717D01*
X2912018Y1550108D01*
X2912147Y1549497D01*
X2912260Y1548882D01*
X2912359Y1548265D01*
X2912442Y1547646D01*
X2912510Y1547025D01*
X2912564Y1546402D01*
X2912602Y1545778D01*
X2912624Y1545154D01*
X2912632Y1544529D01*
X2912632Y1503471D01*
X2912624Y1502846D01*
X2912602Y1502222D01*
X2912564Y1501598D01*
X2912510Y1500975D01*
X2912442Y1500354D01*
X2912359Y1499735D01*
X2912260Y1499118D01*
X2912147Y1498503D01*
X2912018Y1497892D01*
X2911875Y1497283D01*
X2911717Y1496679D01*
X2911544Y1496078D01*
X2911357Y1495482D01*
X2911155Y1494890D01*
X2910939Y1494304D01*
X2910708Y1493723D01*
X2910464Y1493148D01*
X2910206Y1492579D01*
X2909934Y1492016D01*
X2909648Y1491461D01*
X2909349Y1490912D01*
X2909036Y1490371D01*
X2908711Y1489837D01*
X2908372Y1489312D01*
X2908021Y1488795D01*
X2907657Y1488287D01*
X2907282Y1487788D01*
X2906894Y1487298D01*
X2906494Y1486817D01*
X2906083Y1486347D01*
X2905660Y1485887D01*
X2905226Y1485437D01*
X2904782Y1484998D01*
X2904327Y1484569D01*
X2903861Y1484152D01*
X2903386Y1483747D01*
X2902900Y1483353D01*
X2902406Y1482971D01*
X2901902Y1482601D01*
X2901389Y1482244D01*
X2900868Y1481899D01*
X2900339Y1481567D01*
X2899802Y1481248D01*
X2899257Y1480942D01*
X2898704Y1480650D01*
X2898145Y1480371D01*
X2897579Y1480105D01*
X2897007Y1479854D01*
X2896429Y1479617D01*
X2895845Y1479393D01*
X2895256Y1479184D01*
X2894663Y1478990D01*
X2894064Y1478810D01*
X2893462Y1478644D01*
X2892855Y1478494D01*
X2892245Y1478358D01*
X2891632Y1478237D01*
X2891016Y1478131D01*
X2890398Y1478040D01*
X2889778Y1477964D01*
X2889156Y1477903D01*
X2888532Y1477858D01*
X2887908Y1477827D01*
X2887283Y1477812D01*
X2886659Y1477812D01*
X2886034Y1477827D01*
X2885410Y1477858D01*
X2884786Y1477903D01*
X2884164Y1477964D01*
X2883544Y1478040D01*
X2882926Y1478131D01*
X2882310Y1478237D01*
X2881697Y1478358D01*
X2881087Y1478494D01*
X2880480Y1478644D01*
X2879878Y1478810D01*
X2879279Y1478990D01*
X2878686Y1479184D01*
X2878097Y1479393D01*
X2877513Y1479617D01*
X2876935Y1479854D01*
X2876363Y1480105D01*
X2875797Y1480371D01*
X2875238Y1480650D01*
X2874685Y1480942D01*
X2874141Y1481248D01*
X2873603Y1481567D01*
X2873074Y1481899D01*
X2872553Y1482244D01*
X2872040Y1482601D01*
X2871536Y1482971D01*
X2871042Y1483353D01*
X2870556Y1483747D01*
X2870081Y1484152D01*
X2869615Y1484569D01*
X2869160Y1484998D01*
X2868716Y1485437D01*
X2868282Y1485887D01*
X2867859Y1486347D01*
X2867448Y1486817D01*
X2867048Y1487298D01*
X2866660Y1487788D01*
X2866285Y1488287D01*
X2865921Y1488795D01*
X2865570Y1489312D01*
X2865231Y1489837D01*
X2864906Y1490371D01*
X2864593Y1490912D01*
X2864294Y1491461D01*
X2864008Y1492016D01*
X2863736Y1492579D01*
X2863478Y1493148D01*
X2863234Y1493723D01*
X2863003Y1494304D01*
X2862787Y1494890D01*
X2862585Y1495482D01*
X2862398Y1496078D01*
X2862225Y1496679D01*
X2862067Y1497283D01*
X2861924Y1497892D01*
X2861795Y1498503D01*
X2861682Y1499118D01*
X2861583Y1499735D01*
X2861500Y1500354D01*
X2861432Y1500975D01*
X2861378Y1501598D01*
X2861340Y1502222D01*
X2861318Y1502846D01*
X2861310Y1503471D01*
X2954483Y1477810D02*
X2954483Y1570190D01*
X2995541Y1570190D01*
X2995541Y1529132D02*
X2954483Y1529132D01*
X3032483Y1570190D02*
X3032483Y1477810D01*
X3032483Y1570190D02*
X3073541Y1570190D01*
X3073541Y1529132D02*
X3032483Y1529132D01*
X1706502Y2684310D02*
X1706502Y2776690D01*
X1680841Y2776690D02*
X1732163Y2776690D01*
X1769142Y2776690D02*
X1769142Y2684310D01*
X1769142Y2776690D02*
X1794803Y2776690D01*
X1795428Y2776682D01*
X1796052Y2776660D01*
X1796676Y2776622D01*
X1797299Y2776568D01*
X1797920Y2776500D01*
X1798539Y2776417D01*
X1799156Y2776318D01*
X1799771Y2776205D01*
X1800382Y2776076D01*
X1800991Y2775933D01*
X1801595Y2775775D01*
X1802196Y2775602D01*
X1802792Y2775415D01*
X1803384Y2775213D01*
X1803970Y2774997D01*
X1804551Y2774766D01*
X1805126Y2774522D01*
X1805695Y2774264D01*
X1806258Y2773992D01*
X1806813Y2773706D01*
X1807362Y2773407D01*
X1807903Y2773094D01*
X1808437Y2772769D01*
X1808962Y2772430D01*
X1809479Y2772079D01*
X1809987Y2771715D01*
X1810486Y2771340D01*
X1810976Y2770952D01*
X1811457Y2770552D01*
X1811927Y2770141D01*
X1812387Y2769718D01*
X1812837Y2769284D01*
X1813276Y2768840D01*
X1813705Y2768385D01*
X1814122Y2767919D01*
X1814527Y2767444D01*
X1814921Y2766958D01*
X1815303Y2766464D01*
X1815673Y2765960D01*
X1816030Y2765447D01*
X1816375Y2764926D01*
X1816707Y2764397D01*
X1817026Y2763860D01*
X1817332Y2763315D01*
X1817624Y2762762D01*
X1817903Y2762203D01*
X1818169Y2761637D01*
X1818420Y2761065D01*
X1818657Y2760487D01*
X1818881Y2759903D01*
X1819090Y2759314D01*
X1819284Y2758721D01*
X1819464Y2758122D01*
X1819630Y2757520D01*
X1819780Y2756913D01*
X1819916Y2756303D01*
X1820037Y2755690D01*
X1820143Y2755074D01*
X1820234Y2754456D01*
X1820310Y2753836D01*
X1820371Y2753214D01*
X1820416Y2752590D01*
X1820447Y2751966D01*
X1820462Y2751341D01*
X1820462Y2750717D01*
X1820447Y2750092D01*
X1820416Y2749468D01*
X1820371Y2748844D01*
X1820310Y2748222D01*
X1820234Y2747602D01*
X1820143Y2746984D01*
X1820037Y2746368D01*
X1819916Y2745755D01*
X1819780Y2745145D01*
X1819630Y2744538D01*
X1819464Y2743936D01*
X1819284Y2743337D01*
X1819090Y2742744D01*
X1818881Y2742155D01*
X1818657Y2741571D01*
X1818420Y2740993D01*
X1818169Y2740421D01*
X1817903Y2739855D01*
X1817624Y2739296D01*
X1817332Y2738743D01*
X1817026Y2738199D01*
X1816707Y2737661D01*
X1816375Y2737132D01*
X1816030Y2736611D01*
X1815673Y2736098D01*
X1815303Y2735594D01*
X1814921Y2735100D01*
X1814527Y2734614D01*
X1814122Y2734139D01*
X1813705Y2733673D01*
X1813276Y2733218D01*
X1812837Y2732774D01*
X1812387Y2732340D01*
X1811927Y2731917D01*
X1811457Y2731506D01*
X1810976Y2731106D01*
X1810486Y2730718D01*
X1809987Y2730343D01*
X1809479Y2729979D01*
X1808962Y2729628D01*
X1808437Y2729289D01*
X1807903Y2728964D01*
X1807362Y2728651D01*
X1806813Y2728352D01*
X1806258Y2728066D01*
X1805695Y2727794D01*
X1805126Y2727536D01*
X1804551Y2727292D01*
X1803970Y2727061D01*
X1803384Y2726845D01*
X1802792Y2726643D01*
X1802196Y2726456D01*
X1801595Y2726283D01*
X1800991Y2726125D01*
X1800382Y2725982D01*
X1799771Y2725853D01*
X1799156Y2725740D01*
X1798539Y2725641D01*
X1797920Y2725558D01*
X1797299Y2725490D01*
X1796676Y2725436D01*
X1796052Y2725398D01*
X1795428Y2725376D01*
X1794803Y2725368D01*
X1769142Y2725368D01*
X1882633Y2684310D02*
X1883129Y2684316D01*
X1883625Y2684334D01*
X1884120Y2684364D01*
X1884614Y2684406D01*
X1885107Y2684460D01*
X1885599Y2684525D01*
X1886089Y2684603D01*
X1886577Y2684692D01*
X1887063Y2684794D01*
X1887546Y2684907D01*
X1888026Y2685031D01*
X1888503Y2685167D01*
X1888977Y2685315D01*
X1889447Y2685474D01*
X1889913Y2685644D01*
X1890374Y2685826D01*
X1890832Y2686018D01*
X1891284Y2686222D01*
X1891731Y2686436D01*
X1892173Y2686661D01*
X1892610Y2686897D01*
X1893040Y2687144D01*
X1893465Y2687400D01*
X1893883Y2687667D01*
X1894295Y2687944D01*
X1894700Y2688231D01*
X1895097Y2688527D01*
X1895488Y2688833D01*
X1895871Y2689148D01*
X1896246Y2689473D01*
X1896614Y2689806D01*
X1896973Y2690148D01*
X1897324Y2690499D01*
X1897666Y2690858D01*
X1897999Y2691226D01*
X1898324Y2691601D01*
X1898639Y2691984D01*
X1898945Y2692375D01*
X1899241Y2692772D01*
X1899528Y2693177D01*
X1899805Y2693589D01*
X1900072Y2694007D01*
X1900328Y2694432D01*
X1900575Y2694862D01*
X1900811Y2695299D01*
X1901036Y2695741D01*
X1901250Y2696188D01*
X1901454Y2696640D01*
X1901646Y2697098D01*
X1901828Y2697559D01*
X1901998Y2698025D01*
X1902157Y2698495D01*
X1902305Y2698969D01*
X1902441Y2699446D01*
X1902565Y2699926D01*
X1902678Y2700409D01*
X1902780Y2700895D01*
X1902869Y2701383D01*
X1902947Y2701873D01*
X1903012Y2702365D01*
X1903066Y2702858D01*
X1903108Y2703352D01*
X1903138Y2703847D01*
X1903156Y2704343D01*
X1903162Y2704839D01*
X1882633Y2684310D02*
X1881595Y2684322D01*
X1880559Y2684360D01*
X1879523Y2684422D01*
X1878489Y2684508D01*
X1877457Y2684620D01*
X1876429Y2684756D01*
X1875404Y2684917D01*
X1874383Y2685102D01*
X1873366Y2685312D01*
X1872355Y2685545D01*
X1871350Y2685803D01*
X1870352Y2686085D01*
X1869360Y2686391D01*
X1868376Y2686720D01*
X1867401Y2687073D01*
X1866434Y2687449D01*
X1865476Y2687848D01*
X1864528Y2688270D01*
X1863590Y2688715D01*
X1862664Y2689181D01*
X1861748Y2689670D01*
X1860845Y2690181D01*
X1859954Y2690713D01*
X1859076Y2691266D01*
X1858212Y2691840D01*
X1857362Y2692434D01*
X1856526Y2693049D01*
X1855705Y2693683D01*
X1854899Y2694337D01*
X1854109Y2695011D01*
X1853336Y2695702D01*
X1852579Y2696412D01*
X1851840Y2697140D01*
X1854406Y2756161D02*
X1854412Y2756657D01*
X1854430Y2757153D01*
X1854460Y2757648D01*
X1854502Y2758142D01*
X1854556Y2758636D01*
X1854621Y2759127D01*
X1854699Y2759617D01*
X1854788Y2760105D01*
X1854890Y2760591D01*
X1855003Y2761074D01*
X1855127Y2761554D01*
X1855263Y2762031D01*
X1855411Y2762505D01*
X1855570Y2762975D01*
X1855740Y2763441D01*
X1855922Y2763902D01*
X1856114Y2764360D01*
X1856318Y2764812D01*
X1856532Y2765259D01*
X1856758Y2765701D01*
X1856993Y2766138D01*
X1857240Y2766568D01*
X1857496Y2766993D01*
X1857763Y2767411D01*
X1858040Y2767823D01*
X1858327Y2768228D01*
X1858623Y2768626D01*
X1858929Y2769016D01*
X1859244Y2769399D01*
X1859569Y2769774D01*
X1859902Y2770142D01*
X1860245Y2770501D01*
X1860595Y2770852D01*
X1860955Y2771194D01*
X1861322Y2771527D01*
X1861697Y2771852D01*
X1862080Y2772167D01*
X1862471Y2772473D01*
X1862869Y2772769D01*
X1863273Y2773056D01*
X1863685Y2773333D01*
X1864103Y2773600D01*
X1864528Y2773856D01*
X1864958Y2774103D01*
X1865395Y2774339D01*
X1865837Y2774564D01*
X1866284Y2774778D01*
X1866737Y2774982D01*
X1867194Y2775175D01*
X1867656Y2775356D01*
X1868121Y2775526D01*
X1868591Y2775685D01*
X1869065Y2775833D01*
X1869542Y2775969D01*
X1870022Y2776094D01*
X1870505Y2776206D01*
X1870991Y2776308D01*
X1871479Y2776397D01*
X1871969Y2776475D01*
X1872461Y2776540D01*
X1872954Y2776594D01*
X1873448Y2776636D01*
X1873943Y2776666D01*
X1874439Y2776684D01*
X1874935Y2776690D01*
X1875852Y2776679D01*
X1876769Y2776646D01*
X1877684Y2776592D01*
X1878599Y2776515D01*
X1879511Y2776417D01*
X1880420Y2776297D01*
X1881327Y2776155D01*
X1882229Y2775992D01*
X1883128Y2775808D01*
X1884022Y2775602D01*
X1884911Y2775375D01*
X1885794Y2775126D01*
X1886671Y2774857D01*
X1887541Y2774567D01*
X1888404Y2774256D01*
X1889260Y2773925D01*
X1890107Y2773573D01*
X1890946Y2773202D01*
X1891775Y2772810D01*
X1892595Y2772399D01*
X1893405Y2771969D01*
X1894205Y2771519D01*
X1894993Y2771050D01*
X1895771Y2770563D01*
X1896536Y2770057D01*
X1897289Y2769533D01*
X1898030Y2768992D01*
X1864670Y2738198D02*
X1864240Y2738459D01*
X1863816Y2738730D01*
X1863398Y2739011D01*
X1862987Y2739303D01*
X1862584Y2739604D01*
X1862188Y2739915D01*
X1861799Y2740235D01*
X1861419Y2740564D01*
X1861046Y2740903D01*
X1860682Y2741250D01*
X1860326Y2741607D01*
X1859979Y2741971D01*
X1859641Y2742344D01*
X1859312Y2742725D01*
X1858992Y2743114D01*
X1858682Y2743511D01*
X1858382Y2743915D01*
X1858091Y2744325D01*
X1857810Y2744743D01*
X1857539Y2745168D01*
X1857279Y2745599D01*
X1857029Y2746036D01*
X1856790Y2746479D01*
X1856562Y2746928D01*
X1856344Y2747382D01*
X1856138Y2747841D01*
X1855943Y2748305D01*
X1855759Y2748773D01*
X1855586Y2749246D01*
X1855425Y2749723D01*
X1855275Y2750204D01*
X1855137Y2750688D01*
X1855011Y2751175D01*
X1854896Y2751666D01*
X1854794Y2752158D01*
X1854703Y2752654D01*
X1854624Y2753151D01*
X1854558Y2753650D01*
X1854503Y2754150D01*
X1854461Y2754652D01*
X1854430Y2755155D01*
X1854412Y2755658D01*
X1854406Y2756161D01*
X1892897Y2722801D02*
X1893328Y2722541D01*
X1893752Y2722270D01*
X1894170Y2721988D01*
X1894580Y2721697D01*
X1894984Y2721396D01*
X1895380Y2721085D01*
X1895768Y2720765D01*
X1896149Y2720435D01*
X1896521Y2720097D01*
X1896886Y2719749D01*
X1897241Y2719393D01*
X1897589Y2719028D01*
X1897927Y2718655D01*
X1898256Y2718274D01*
X1898575Y2717886D01*
X1898886Y2717489D01*
X1899186Y2717085D01*
X1899477Y2716674D01*
X1899758Y2716256D01*
X1900028Y2715832D01*
X1900289Y2715401D01*
X1900538Y2714964D01*
X1900778Y2714521D01*
X1901006Y2714072D01*
X1901223Y2713618D01*
X1901430Y2713159D01*
X1901625Y2712695D01*
X1901809Y2712227D01*
X1901982Y2711754D01*
X1902143Y2711277D01*
X1902293Y2710796D01*
X1902431Y2710312D01*
X1902557Y2709825D01*
X1902672Y2709334D01*
X1902774Y2708841D01*
X1902865Y2708346D01*
X1902944Y2707849D01*
X1903010Y2707350D01*
X1903065Y2706850D01*
X1903107Y2706348D01*
X1903138Y2705845D01*
X1903156Y2705342D01*
X1903162Y2704839D01*
X1892898Y2722802D02*
X1864670Y2738198D01*
X1938840Y2735632D02*
X1969633Y2735632D01*
X1970129Y2735626D01*
X1970625Y2735608D01*
X1971120Y2735578D01*
X1971614Y2735536D01*
X1972107Y2735482D01*
X1972599Y2735417D01*
X1973089Y2735339D01*
X1973577Y2735250D01*
X1974063Y2735148D01*
X1974546Y2735035D01*
X1975026Y2734911D01*
X1975503Y2734775D01*
X1975977Y2734627D01*
X1976447Y2734468D01*
X1976913Y2734298D01*
X1977374Y2734116D01*
X1977832Y2733924D01*
X1978284Y2733720D01*
X1978731Y2733506D01*
X1979173Y2733281D01*
X1979610Y2733045D01*
X1980040Y2732798D01*
X1980465Y2732542D01*
X1980883Y2732275D01*
X1981295Y2731998D01*
X1981700Y2731711D01*
X1982097Y2731415D01*
X1982488Y2731109D01*
X1982871Y2730794D01*
X1983246Y2730469D01*
X1983614Y2730136D01*
X1983973Y2729794D01*
X1984324Y2729443D01*
X1984666Y2729084D01*
X1984999Y2728716D01*
X1985324Y2728341D01*
X1985639Y2727958D01*
X1985945Y2727567D01*
X1986241Y2727170D01*
X1986528Y2726765D01*
X1986805Y2726353D01*
X1987072Y2725935D01*
X1987328Y2725510D01*
X1987575Y2725080D01*
X1987811Y2724643D01*
X1988036Y2724201D01*
X1988250Y2723754D01*
X1988454Y2723302D01*
X1988646Y2722844D01*
X1988828Y2722383D01*
X1988998Y2721917D01*
X1989157Y2721447D01*
X1989305Y2720973D01*
X1989441Y2720496D01*
X1989565Y2720016D01*
X1989678Y2719533D01*
X1989780Y2719047D01*
X1989869Y2718559D01*
X1989947Y2718069D01*
X1990012Y2717577D01*
X1990066Y2717084D01*
X1990108Y2716590D01*
X1990138Y2716095D01*
X1990156Y2715599D01*
X1990162Y2715103D01*
X1990162Y2709971D01*
X1990154Y2709346D01*
X1990132Y2708722D01*
X1990094Y2708098D01*
X1990040Y2707475D01*
X1989972Y2706854D01*
X1989889Y2706235D01*
X1989790Y2705618D01*
X1989677Y2705003D01*
X1989548Y2704392D01*
X1989405Y2703783D01*
X1989247Y2703179D01*
X1989074Y2702578D01*
X1988887Y2701982D01*
X1988685Y2701390D01*
X1988469Y2700804D01*
X1988238Y2700223D01*
X1987994Y2699648D01*
X1987736Y2699079D01*
X1987464Y2698516D01*
X1987178Y2697961D01*
X1986879Y2697412D01*
X1986566Y2696871D01*
X1986241Y2696337D01*
X1985902Y2695812D01*
X1985551Y2695295D01*
X1985187Y2694787D01*
X1984812Y2694288D01*
X1984424Y2693798D01*
X1984024Y2693317D01*
X1983613Y2692847D01*
X1983190Y2692387D01*
X1982756Y2691937D01*
X1982312Y2691498D01*
X1981857Y2691069D01*
X1981391Y2690652D01*
X1980916Y2690247D01*
X1980430Y2689853D01*
X1979936Y2689471D01*
X1979432Y2689101D01*
X1978919Y2688744D01*
X1978398Y2688399D01*
X1977869Y2688067D01*
X1977332Y2687748D01*
X1976787Y2687442D01*
X1976234Y2687150D01*
X1975675Y2686871D01*
X1975109Y2686605D01*
X1974537Y2686354D01*
X1973959Y2686117D01*
X1973375Y2685893D01*
X1972786Y2685684D01*
X1972193Y2685490D01*
X1971594Y2685310D01*
X1970992Y2685144D01*
X1970385Y2684994D01*
X1969775Y2684858D01*
X1969162Y2684737D01*
X1968546Y2684631D01*
X1967928Y2684540D01*
X1967308Y2684464D01*
X1966686Y2684403D01*
X1966062Y2684358D01*
X1965438Y2684327D01*
X1964813Y2684312D01*
X1964189Y2684312D01*
X1963564Y2684327D01*
X1962940Y2684358D01*
X1962316Y2684403D01*
X1961694Y2684464D01*
X1961074Y2684540D01*
X1960456Y2684631D01*
X1959840Y2684737D01*
X1959227Y2684858D01*
X1958617Y2684994D01*
X1958010Y2685144D01*
X1957408Y2685310D01*
X1956809Y2685490D01*
X1956216Y2685684D01*
X1955627Y2685893D01*
X1955043Y2686117D01*
X1954465Y2686354D01*
X1953893Y2686605D01*
X1953327Y2686871D01*
X1952768Y2687150D01*
X1952215Y2687442D01*
X1951671Y2687748D01*
X1951133Y2688067D01*
X1950604Y2688399D01*
X1950083Y2688744D01*
X1949570Y2689101D01*
X1949066Y2689471D01*
X1948572Y2689853D01*
X1948086Y2690247D01*
X1947611Y2690652D01*
X1947145Y2691069D01*
X1946690Y2691498D01*
X1946246Y2691937D01*
X1945812Y2692387D01*
X1945389Y2692847D01*
X1944978Y2693317D01*
X1944578Y2693798D01*
X1944190Y2694288D01*
X1943815Y2694787D01*
X1943451Y2695295D01*
X1943100Y2695812D01*
X1942761Y2696337D01*
X1942436Y2696871D01*
X1942123Y2697412D01*
X1941824Y2697961D01*
X1941538Y2698516D01*
X1941266Y2699079D01*
X1941008Y2699648D01*
X1940764Y2700223D01*
X1940533Y2700804D01*
X1940317Y2701390D01*
X1940115Y2701982D01*
X1939928Y2702578D01*
X1939755Y2703179D01*
X1939597Y2703783D01*
X1939454Y2704392D01*
X1939325Y2705003D01*
X1939212Y2705618D01*
X1939113Y2706235D01*
X1939030Y2706854D01*
X1938962Y2707475D01*
X1938908Y2708098D01*
X1938870Y2708722D01*
X1938848Y2709346D01*
X1938840Y2709971D01*
X1938840Y2735632D01*
X1938852Y2736640D01*
X1938889Y2737647D01*
X1938951Y2738652D01*
X1939038Y2739656D01*
X1939149Y2740658D01*
X1939284Y2741656D01*
X1939444Y2742651D01*
X1939629Y2743642D01*
X1939838Y2744628D01*
X1940070Y2745608D01*
X1940327Y2746583D01*
X1940608Y2747550D01*
X1940912Y2748511D01*
X1941240Y2749464D01*
X1941591Y2750409D01*
X1941965Y2751344D01*
X1942362Y2752270D01*
X1942782Y2753186D01*
X1943224Y2754092D01*
X1943688Y2754987D01*
X1944174Y2755869D01*
X1944681Y2756740D01*
X1945210Y2757598D01*
X1945759Y2758443D01*
X1946330Y2759273D01*
X1946920Y2760090D01*
X1947530Y2760892D01*
X1948160Y2761679D01*
X1948808Y2762450D01*
X1949476Y2763205D01*
X1950162Y2763943D01*
X1950865Y2764664D01*
X1951587Y2765368D01*
X1952325Y2766054D01*
X1953080Y2766721D01*
X1953851Y2767370D01*
X1954638Y2768000D01*
X1955440Y2768610D01*
X1956256Y2769200D01*
X1957087Y2769770D01*
X1957932Y2770320D01*
X1958790Y2770849D01*
X1959660Y2771356D01*
X1960543Y2771842D01*
X1961438Y2772306D01*
X1962343Y2772748D01*
X1963259Y2773168D01*
X1964186Y2773565D01*
X1965121Y2773939D01*
X1966066Y2774290D01*
X1967019Y2774618D01*
X1967979Y2774922D01*
X1968947Y2775203D01*
X1969921Y2775459D01*
X1970902Y2775692D01*
X1971888Y2775901D01*
X1972878Y2776085D01*
X1973873Y2776246D01*
X1974872Y2776381D01*
X1975873Y2776492D01*
X1976877Y2776579D01*
X1977883Y2776641D01*
X1978890Y2776678D01*
X1979898Y2776690D01*
X2028839Y2684310D02*
X2054500Y2684310D01*
X2055125Y2684318D01*
X2055749Y2684340D01*
X2056373Y2684378D01*
X2056996Y2684432D01*
X2057617Y2684500D01*
X2058236Y2684583D01*
X2058853Y2684682D01*
X2059468Y2684795D01*
X2060079Y2684924D01*
X2060688Y2685067D01*
X2061292Y2685225D01*
X2061893Y2685398D01*
X2062489Y2685585D01*
X2063081Y2685787D01*
X2063667Y2686003D01*
X2064248Y2686234D01*
X2064823Y2686478D01*
X2065392Y2686736D01*
X2065955Y2687008D01*
X2066510Y2687294D01*
X2067059Y2687593D01*
X2067600Y2687906D01*
X2068134Y2688231D01*
X2068659Y2688570D01*
X2069176Y2688921D01*
X2069684Y2689285D01*
X2070183Y2689660D01*
X2070673Y2690048D01*
X2071154Y2690448D01*
X2071624Y2690859D01*
X2072084Y2691282D01*
X2072534Y2691716D01*
X2072973Y2692160D01*
X2073402Y2692615D01*
X2073819Y2693081D01*
X2074224Y2693556D01*
X2074618Y2694042D01*
X2075000Y2694536D01*
X2075370Y2695040D01*
X2075727Y2695553D01*
X2076072Y2696074D01*
X2076404Y2696603D01*
X2076723Y2697141D01*
X2077029Y2697685D01*
X2077321Y2698238D01*
X2077600Y2698797D01*
X2077866Y2699363D01*
X2078117Y2699935D01*
X2078354Y2700513D01*
X2078578Y2701097D01*
X2078787Y2701686D01*
X2078981Y2702279D01*
X2079161Y2702878D01*
X2079327Y2703480D01*
X2079477Y2704087D01*
X2079613Y2704697D01*
X2079734Y2705310D01*
X2079840Y2705926D01*
X2079931Y2706544D01*
X2080007Y2707164D01*
X2080068Y2707786D01*
X2080113Y2708410D01*
X2080144Y2709034D01*
X2080159Y2709659D01*
X2080159Y2710283D01*
X2080144Y2710908D01*
X2080113Y2711532D01*
X2080068Y2712156D01*
X2080007Y2712778D01*
X2079931Y2713398D01*
X2079840Y2714016D01*
X2079734Y2714632D01*
X2079613Y2715245D01*
X2079477Y2715855D01*
X2079327Y2716462D01*
X2079161Y2717064D01*
X2078981Y2717663D01*
X2078787Y2718256D01*
X2078578Y2718845D01*
X2078354Y2719429D01*
X2078117Y2720007D01*
X2077866Y2720579D01*
X2077600Y2721145D01*
X2077321Y2721704D01*
X2077029Y2722257D01*
X2076723Y2722802D01*
X2076404Y2723339D01*
X2076072Y2723868D01*
X2075727Y2724389D01*
X2075370Y2724902D01*
X2075000Y2725406D01*
X2074618Y2725900D01*
X2074224Y2726386D01*
X2073819Y2726861D01*
X2073402Y2727327D01*
X2072973Y2727782D01*
X2072534Y2728226D01*
X2072084Y2728660D01*
X2071624Y2729083D01*
X2071154Y2729494D01*
X2070673Y2729894D01*
X2070183Y2730282D01*
X2069684Y2730657D01*
X2069176Y2731021D01*
X2068659Y2731372D01*
X2068134Y2731711D01*
X2067600Y2732036D01*
X2067059Y2732349D01*
X2066510Y2732648D01*
X2065955Y2732934D01*
X2065392Y2733206D01*
X2064823Y2733464D01*
X2064248Y2733708D01*
X2063667Y2733939D01*
X2063081Y2734155D01*
X2062489Y2734357D01*
X2061893Y2734544D01*
X2061292Y2734717D01*
X2060688Y2734875D01*
X2060079Y2735018D01*
X2059468Y2735147D01*
X2058853Y2735260D01*
X2058236Y2735359D01*
X2057617Y2735442D01*
X2056996Y2735510D01*
X2056373Y2735564D01*
X2055749Y2735602D01*
X2055125Y2735624D01*
X2054500Y2735632D01*
X2059633Y2776690D02*
X2028839Y2776690D01*
X2059633Y2776690D02*
X2060133Y2776684D01*
X2060633Y2776666D01*
X2061132Y2776635D01*
X2061630Y2776593D01*
X2062127Y2776538D01*
X2062622Y2776471D01*
X2063116Y2776392D01*
X2063607Y2776302D01*
X2064097Y2776199D01*
X2064583Y2776084D01*
X2065067Y2775958D01*
X2065547Y2775820D01*
X2066024Y2775670D01*
X2066498Y2775508D01*
X2066967Y2775335D01*
X2067431Y2775151D01*
X2067891Y2774956D01*
X2068347Y2774749D01*
X2068797Y2774531D01*
X2069241Y2774303D01*
X2069680Y2774063D01*
X2070113Y2773813D01*
X2070540Y2773553D01*
X2070960Y2773282D01*
X2071374Y2773001D01*
X2071780Y2772710D01*
X2072180Y2772410D01*
X2072572Y2772099D01*
X2072956Y2771779D01*
X2073332Y2771450D01*
X2073701Y2771112D01*
X2074061Y2770765D01*
X2074412Y2770410D01*
X2074754Y2770046D01*
X2075088Y2769673D01*
X2075413Y2769293D01*
X2075728Y2768905D01*
X2076033Y2768509D01*
X2076329Y2768106D01*
X2076615Y2767696D01*
X2076891Y2767279D01*
X2077156Y2766855D01*
X2077412Y2766426D01*
X2077656Y2765990D01*
X2077890Y2765548D01*
X2078113Y2765100D01*
X2078326Y2764648D01*
X2078527Y2764190D01*
X2078717Y2763728D01*
X2078895Y2763261D01*
X2079062Y2762789D01*
X2079218Y2762314D01*
X2079362Y2761836D01*
X2079494Y2761353D01*
X2079615Y2760868D01*
X2079724Y2760380D01*
X2079821Y2759890D01*
X2079905Y2759397D01*
X2079978Y2758903D01*
X2080039Y2758406D01*
X2080087Y2757909D01*
X2080124Y2757410D01*
X2080148Y2756911D01*
X2080160Y2756411D01*
X2080160Y2755911D01*
X2080148Y2755411D01*
X2080124Y2754912D01*
X2080087Y2754413D01*
X2080039Y2753916D01*
X2079978Y2753419D01*
X2079905Y2752925D01*
X2079821Y2752432D01*
X2079724Y2751942D01*
X2079615Y2751454D01*
X2079494Y2750969D01*
X2079362Y2750486D01*
X2079218Y2750008D01*
X2079062Y2749533D01*
X2078895Y2749061D01*
X2078717Y2748594D01*
X2078527Y2748132D01*
X2078326Y2747674D01*
X2078113Y2747222D01*
X2077890Y2746774D01*
X2077656Y2746332D01*
X2077412Y2745897D01*
X2077156Y2745467D01*
X2076891Y2745043D01*
X2076615Y2744626D01*
X2076329Y2744216D01*
X2076033Y2743813D01*
X2075728Y2743417D01*
X2075413Y2743029D01*
X2075088Y2742649D01*
X2074754Y2742276D01*
X2074412Y2741912D01*
X2074061Y2741557D01*
X2073701Y2741210D01*
X2073332Y2740872D01*
X2072956Y2740543D01*
X2072572Y2740223D01*
X2072180Y2739912D01*
X2071780Y2739612D01*
X2071374Y2739321D01*
X2070960Y2739040D01*
X2070540Y2738769D01*
X2070113Y2738509D01*
X2069680Y2738259D01*
X2069241Y2738019D01*
X2068797Y2737791D01*
X2068347Y2737573D01*
X2067891Y2737366D01*
X2067431Y2737171D01*
X2066967Y2736987D01*
X2066498Y2736814D01*
X2066024Y2736652D01*
X2065547Y2736502D01*
X2065067Y2736364D01*
X2064583Y2736238D01*
X2064097Y2736123D01*
X2063607Y2736020D01*
X2063116Y2735930D01*
X2062622Y2735851D01*
X2062127Y2735784D01*
X2061630Y2735729D01*
X2061132Y2735687D01*
X2060633Y2735656D01*
X2060133Y2735638D01*
X2059633Y2735632D01*
X2039104Y2735632D01*
X2118839Y2730500D02*
X2118861Y2732317D01*
X2118926Y2734133D01*
X2119034Y2735948D01*
X2119186Y2737759D01*
X2119381Y2739566D01*
X2119619Y2741367D01*
X2119900Y2743163D01*
X2120223Y2744951D01*
X2120589Y2746731D01*
X2120998Y2748502D01*
X2121449Y2750263D01*
X2121942Y2752012D01*
X2122476Y2753749D01*
X2123052Y2755473D01*
X2123668Y2757183D01*
X2124325Y2758877D01*
X2125023Y2760555D01*
X2125760Y2762216D01*
X2126537Y2763859D01*
X2126537Y2763860D02*
X2126693Y2764295D01*
X2126858Y2764726D01*
X2127034Y2765153D01*
X2127221Y2765575D01*
X2127417Y2765993D01*
X2127624Y2766406D01*
X2127841Y2766814D01*
X2128067Y2767217D01*
X2128304Y2767614D01*
X2128549Y2768005D01*
X2128805Y2768389D01*
X2129069Y2768768D01*
X2129343Y2769140D01*
X2129626Y2769505D01*
X2129917Y2769864D01*
X2130217Y2770215D01*
X2130526Y2770558D01*
X2130843Y2770894D01*
X2131168Y2771223D01*
X2131501Y2771543D01*
X2131841Y2771855D01*
X2132189Y2772159D01*
X2132544Y2772454D01*
X2132907Y2772740D01*
X2133276Y2773018D01*
X2133652Y2773286D01*
X2134034Y2773545D01*
X2134422Y2773795D01*
X2134817Y2774036D01*
X2135217Y2774266D01*
X2135623Y2774487D01*
X2136033Y2774698D01*
X2136449Y2774899D01*
X2136870Y2775090D01*
X2137295Y2775270D01*
X2137725Y2775440D01*
X2138158Y2775600D01*
X2138595Y2775749D01*
X2139036Y2775887D01*
X2139480Y2776014D01*
X2139927Y2776131D01*
X2140376Y2776237D01*
X2140828Y2776332D01*
X2141282Y2776415D01*
X2141739Y2776488D01*
X2142196Y2776550D01*
X2142655Y2776600D01*
X2143116Y2776639D01*
X2143577Y2776668D01*
X2144038Y2776684D01*
X2144500Y2776690D01*
X2144962Y2776684D01*
X2145423Y2776668D01*
X2145884Y2776639D01*
X2146345Y2776600D01*
X2146804Y2776550D01*
X2147261Y2776488D01*
X2147718Y2776415D01*
X2148172Y2776332D01*
X2148624Y2776237D01*
X2149073Y2776131D01*
X2149520Y2776014D01*
X2149964Y2775887D01*
X2150405Y2775749D01*
X2150842Y2775600D01*
X2151276Y2775440D01*
X2151705Y2775270D01*
X2152130Y2775090D01*
X2152551Y2774899D01*
X2152967Y2774698D01*
X2153378Y2774487D01*
X2153783Y2774266D01*
X2154183Y2774035D01*
X2154578Y2773795D01*
X2154966Y2773545D01*
X2155348Y2773286D01*
X2155724Y2773018D01*
X2156094Y2772740D01*
X2156456Y2772454D01*
X2156811Y2772158D01*
X2157159Y2771855D01*
X2157500Y2771543D01*
X2157832Y2771222D01*
X2158157Y2770894D01*
X2158474Y2770558D01*
X2158783Y2770214D01*
X2159083Y2769863D01*
X2159374Y2769505D01*
X2159657Y2769140D01*
X2159931Y2768768D01*
X2160195Y2768389D01*
X2160451Y2768004D01*
X2160697Y2767613D01*
X2160933Y2767216D01*
X2161159Y2766814D01*
X2161376Y2766406D01*
X2161583Y2765993D01*
X2161779Y2765575D01*
X2161966Y2765153D01*
X2162142Y2764726D01*
X2162308Y2764294D01*
X2162463Y2763859D01*
X2163239Y2762216D01*
X2163977Y2760555D01*
X2164674Y2758877D01*
X2165332Y2757183D01*
X2165948Y2755473D01*
X2166524Y2753749D01*
X2167058Y2752012D01*
X2167551Y2750263D01*
X2168002Y2748502D01*
X2168410Y2746731D01*
X2168777Y2744951D01*
X2169100Y2743163D01*
X2169381Y2741367D01*
X2169619Y2739566D01*
X2169814Y2737759D01*
X2169966Y2735948D01*
X2170074Y2734134D01*
X2170139Y2732317D01*
X2170161Y2730500D01*
X2118839Y2730500D02*
X2118861Y2728683D01*
X2118926Y2726866D01*
X2119034Y2725052D01*
X2119186Y2723241D01*
X2119381Y2721434D01*
X2119619Y2719632D01*
X2119900Y2717837D01*
X2120223Y2716048D01*
X2120589Y2714268D01*
X2120998Y2712497D01*
X2121449Y2710737D01*
X2121942Y2708987D01*
X2122476Y2707250D01*
X2123052Y2705527D01*
X2123668Y2703817D01*
X2124325Y2702122D01*
X2125023Y2700444D01*
X2125760Y2698783D01*
X2126537Y2697140D01*
X2126538Y2697140D02*
X2126693Y2696705D01*
X2126858Y2696274D01*
X2127034Y2695847D01*
X2127221Y2695424D01*
X2127417Y2695006D01*
X2127624Y2694593D01*
X2127841Y2694186D01*
X2128067Y2693783D01*
X2128304Y2693386D01*
X2128550Y2692995D01*
X2128805Y2692610D01*
X2129070Y2692232D01*
X2129343Y2691860D01*
X2129626Y2691495D01*
X2129917Y2691136D01*
X2130218Y2690785D01*
X2130526Y2690442D01*
X2130843Y2690106D01*
X2131168Y2689777D01*
X2131501Y2689457D01*
X2131841Y2689145D01*
X2132189Y2688841D01*
X2132544Y2688546D01*
X2132907Y2688260D01*
X2133276Y2687982D01*
X2133652Y2687714D01*
X2134034Y2687455D01*
X2134422Y2687205D01*
X2134817Y2686964D01*
X2135217Y2686734D01*
X2135623Y2686513D01*
X2136033Y2686302D01*
X2136449Y2686101D01*
X2136870Y2685910D01*
X2137295Y2685730D01*
X2137725Y2685560D01*
X2138158Y2685400D01*
X2138595Y2685251D01*
X2139036Y2685113D01*
X2139480Y2684986D01*
X2139927Y2684869D01*
X2140376Y2684763D01*
X2140828Y2684668D01*
X2141282Y2684585D01*
X2141739Y2684512D01*
X2142196Y2684450D01*
X2142655Y2684400D01*
X2143116Y2684361D01*
X2143577Y2684332D01*
X2144038Y2684316D01*
X2144500Y2684310D01*
X2162463Y2697140D02*
X2163239Y2698783D01*
X2163977Y2700444D01*
X2164674Y2702123D01*
X2165332Y2703817D01*
X2165948Y2705527D01*
X2166524Y2707251D01*
X2167058Y2708988D01*
X2167551Y2710737D01*
X2168002Y2712498D01*
X2168410Y2714268D01*
X2168777Y2716049D01*
X2169100Y2717837D01*
X2169381Y2719632D01*
X2169619Y2721434D01*
X2169814Y2723241D01*
X2169966Y2725052D01*
X2170074Y2726866D01*
X2170139Y2728683D01*
X2170161Y2730500D01*
X2162463Y2697140D02*
X2162307Y2696705D01*
X2162142Y2696274D01*
X2161966Y2695847D01*
X2161779Y2695425D01*
X2161583Y2695007D01*
X2161376Y2694594D01*
X2161159Y2694186D01*
X2160933Y2693783D01*
X2160696Y2693386D01*
X2160451Y2692995D01*
X2160195Y2692611D01*
X2159931Y2692232D01*
X2159657Y2691860D01*
X2159374Y2691495D01*
X2159083Y2691136D01*
X2158783Y2690785D01*
X2158474Y2690442D01*
X2158157Y2690106D01*
X2157832Y2689777D01*
X2157499Y2689457D01*
X2157159Y2689145D01*
X2156811Y2688841D01*
X2156456Y2688546D01*
X2156093Y2688260D01*
X2155724Y2687982D01*
X2155348Y2687714D01*
X2154966Y2687455D01*
X2154578Y2687205D01*
X2154183Y2686964D01*
X2153783Y2686734D01*
X2153377Y2686513D01*
X2152967Y2686302D01*
X2152551Y2686101D01*
X2152130Y2685910D01*
X2151705Y2685730D01*
X2151275Y2685560D01*
X2150842Y2685400D01*
X2150405Y2685251D01*
X2149964Y2685113D01*
X2149520Y2684986D01*
X2149073Y2684869D01*
X2148624Y2684763D01*
X2148172Y2684668D01*
X2147718Y2684585D01*
X2147261Y2684512D01*
X2146804Y2684450D01*
X2146345Y2684400D01*
X2145884Y2684361D01*
X2145423Y2684332D01*
X2144962Y2684316D01*
X2144500Y2684310D01*
X2123971Y2704839D02*
X2165029Y2756161D01*
X2208839Y2766425D02*
X2208839Y2776690D01*
X2260161Y2776690D01*
X2234500Y2684310D01*
X2298839Y2730500D02*
X2298861Y2732317D01*
X2298926Y2734133D01*
X2299034Y2735948D01*
X2299186Y2737759D01*
X2299381Y2739566D01*
X2299619Y2741367D01*
X2299900Y2743163D01*
X2300223Y2744951D01*
X2300589Y2746731D01*
X2300998Y2748502D01*
X2301449Y2750263D01*
X2301942Y2752012D01*
X2302476Y2753749D01*
X2303052Y2755473D01*
X2303668Y2757183D01*
X2304325Y2758877D01*
X2305023Y2760555D01*
X2305760Y2762216D01*
X2306537Y2763859D01*
X2306536Y2763860D02*
X2306692Y2764295D01*
X2306857Y2764726D01*
X2307033Y2765153D01*
X2307220Y2765575D01*
X2307416Y2765993D01*
X2307623Y2766406D01*
X2307840Y2766814D01*
X2308066Y2767217D01*
X2308303Y2767614D01*
X2308548Y2768005D01*
X2308804Y2768389D01*
X2309068Y2768768D01*
X2309342Y2769140D01*
X2309625Y2769505D01*
X2309916Y2769864D01*
X2310216Y2770215D01*
X2310525Y2770558D01*
X2310842Y2770894D01*
X2311167Y2771223D01*
X2311500Y2771543D01*
X2311840Y2771855D01*
X2312188Y2772159D01*
X2312543Y2772454D01*
X2312906Y2772740D01*
X2313275Y2773018D01*
X2313651Y2773286D01*
X2314033Y2773545D01*
X2314421Y2773795D01*
X2314816Y2774036D01*
X2315216Y2774266D01*
X2315622Y2774487D01*
X2316032Y2774698D01*
X2316448Y2774899D01*
X2316869Y2775090D01*
X2317294Y2775270D01*
X2317724Y2775440D01*
X2318157Y2775600D01*
X2318594Y2775749D01*
X2319035Y2775887D01*
X2319479Y2776014D01*
X2319926Y2776131D01*
X2320375Y2776237D01*
X2320827Y2776332D01*
X2321281Y2776415D01*
X2321738Y2776488D01*
X2322195Y2776550D01*
X2322654Y2776600D01*
X2323115Y2776639D01*
X2323576Y2776668D01*
X2324037Y2776684D01*
X2324499Y2776690D01*
X2324961Y2776684D01*
X2325422Y2776668D01*
X2325883Y2776639D01*
X2326344Y2776600D01*
X2326803Y2776550D01*
X2327260Y2776488D01*
X2327717Y2776415D01*
X2328171Y2776332D01*
X2328623Y2776237D01*
X2329072Y2776131D01*
X2329519Y2776014D01*
X2329963Y2775887D01*
X2330404Y2775749D01*
X2330841Y2775600D01*
X2331275Y2775440D01*
X2331704Y2775270D01*
X2332129Y2775090D01*
X2332550Y2774899D01*
X2332966Y2774698D01*
X2333377Y2774487D01*
X2333782Y2774266D01*
X2334182Y2774035D01*
X2334577Y2773795D01*
X2334965Y2773545D01*
X2335347Y2773286D01*
X2335723Y2773018D01*
X2336093Y2772740D01*
X2336455Y2772454D01*
X2336810Y2772158D01*
X2337158Y2771855D01*
X2337499Y2771543D01*
X2337831Y2771222D01*
X2338156Y2770894D01*
X2338473Y2770558D01*
X2338782Y2770214D01*
X2339082Y2769863D01*
X2339373Y2769505D01*
X2339656Y2769140D01*
X2339930Y2768768D01*
X2340194Y2768389D01*
X2340450Y2768004D01*
X2340696Y2767613D01*
X2340932Y2767216D01*
X2341158Y2766814D01*
X2341375Y2766406D01*
X2341582Y2765993D01*
X2341778Y2765575D01*
X2341965Y2765153D01*
X2342141Y2764726D01*
X2342307Y2764294D01*
X2342462Y2763859D01*
X2342463Y2763859D02*
X2343239Y2762216D01*
X2343977Y2760555D01*
X2344674Y2758877D01*
X2345332Y2757183D01*
X2345948Y2755473D01*
X2346524Y2753749D01*
X2347058Y2752012D01*
X2347551Y2750263D01*
X2348002Y2748502D01*
X2348410Y2746731D01*
X2348777Y2744951D01*
X2349100Y2743163D01*
X2349381Y2741367D01*
X2349619Y2739566D01*
X2349814Y2737759D01*
X2349966Y2735948D01*
X2350074Y2734134D01*
X2350139Y2732317D01*
X2350161Y2730500D01*
X2298838Y2730500D02*
X2298860Y2728683D01*
X2298925Y2726866D01*
X2299033Y2725052D01*
X2299185Y2723241D01*
X2299380Y2721434D01*
X2299618Y2719632D01*
X2299899Y2717837D01*
X2300222Y2716048D01*
X2300588Y2714268D01*
X2300997Y2712497D01*
X2301448Y2710737D01*
X2301941Y2708987D01*
X2302475Y2707250D01*
X2303051Y2705527D01*
X2303667Y2703817D01*
X2304324Y2702122D01*
X2305022Y2700444D01*
X2305759Y2698783D01*
X2306536Y2697140D01*
X2306537Y2697140D02*
X2306692Y2696705D01*
X2306857Y2696274D01*
X2307033Y2695847D01*
X2307220Y2695424D01*
X2307416Y2695006D01*
X2307623Y2694593D01*
X2307840Y2694186D01*
X2308066Y2693783D01*
X2308303Y2693386D01*
X2308549Y2692995D01*
X2308804Y2692610D01*
X2309069Y2692232D01*
X2309342Y2691860D01*
X2309625Y2691495D01*
X2309916Y2691136D01*
X2310217Y2690785D01*
X2310525Y2690442D01*
X2310842Y2690106D01*
X2311167Y2689777D01*
X2311500Y2689457D01*
X2311840Y2689145D01*
X2312188Y2688841D01*
X2312543Y2688546D01*
X2312906Y2688260D01*
X2313275Y2687982D01*
X2313651Y2687714D01*
X2314033Y2687455D01*
X2314421Y2687205D01*
X2314816Y2686964D01*
X2315216Y2686734D01*
X2315622Y2686513D01*
X2316032Y2686302D01*
X2316448Y2686101D01*
X2316869Y2685910D01*
X2317294Y2685730D01*
X2317724Y2685560D01*
X2318157Y2685400D01*
X2318594Y2685251D01*
X2319035Y2685113D01*
X2319479Y2684986D01*
X2319926Y2684869D01*
X2320375Y2684763D01*
X2320827Y2684668D01*
X2321281Y2684585D01*
X2321738Y2684512D01*
X2322195Y2684450D01*
X2322654Y2684400D01*
X2323115Y2684361D01*
X2323576Y2684332D01*
X2324037Y2684316D01*
X2324499Y2684310D01*
X2342463Y2697140D02*
X2343239Y2698783D01*
X2343977Y2700444D01*
X2344674Y2702123D01*
X2345332Y2703817D01*
X2345948Y2705527D01*
X2346524Y2707251D01*
X2347058Y2708988D01*
X2347551Y2710737D01*
X2348002Y2712498D01*
X2348410Y2714268D01*
X2348777Y2716049D01*
X2349100Y2717837D01*
X2349381Y2719632D01*
X2349619Y2721434D01*
X2349814Y2723241D01*
X2349966Y2725052D01*
X2350074Y2726866D01*
X2350139Y2728683D01*
X2350161Y2730500D01*
X2342462Y2697140D02*
X2342306Y2696705D01*
X2342141Y2696274D01*
X2341965Y2695847D01*
X2341778Y2695425D01*
X2341582Y2695007D01*
X2341375Y2694594D01*
X2341158Y2694186D01*
X2340932Y2693783D01*
X2340695Y2693386D01*
X2340450Y2692995D01*
X2340194Y2692611D01*
X2339930Y2692232D01*
X2339656Y2691860D01*
X2339373Y2691495D01*
X2339082Y2691136D01*
X2338782Y2690785D01*
X2338473Y2690442D01*
X2338156Y2690106D01*
X2337831Y2689777D01*
X2337498Y2689457D01*
X2337158Y2689145D01*
X2336810Y2688841D01*
X2336455Y2688546D01*
X2336092Y2688260D01*
X2335723Y2687982D01*
X2335347Y2687714D01*
X2334965Y2687455D01*
X2334577Y2687205D01*
X2334182Y2686964D01*
X2333782Y2686734D01*
X2333376Y2686513D01*
X2332966Y2686302D01*
X2332550Y2686101D01*
X2332129Y2685910D01*
X2331704Y2685730D01*
X2331274Y2685560D01*
X2330841Y2685400D01*
X2330404Y2685251D01*
X2329963Y2685113D01*
X2329519Y2684986D01*
X2329072Y2684869D01*
X2328623Y2684763D01*
X2328171Y2684668D01*
X2327717Y2684585D01*
X2327260Y2684512D01*
X2326803Y2684450D01*
X2326344Y2684400D01*
X2325883Y2684361D01*
X2325422Y2684332D01*
X2324961Y2684316D01*
X2324499Y2684310D01*
X2303971Y2704839D02*
X2345028Y2756161D01*
X2388838Y2756161D02*
X2414499Y2776690D01*
X2414499Y2684310D01*
X2388838Y2684310D02*
X2440160Y2684310D01*
X2541367Y2684310D02*
X2567028Y2684310D01*
X2541367Y2684310D02*
X2540995Y2684314D01*
X2540623Y2684328D01*
X2540252Y2684350D01*
X2539881Y2684382D01*
X2539511Y2684422D01*
X2539142Y2684472D01*
X2538775Y2684530D01*
X2538409Y2684597D01*
X2538045Y2684673D01*
X2537682Y2684757D01*
X2537322Y2684851D01*
X2536964Y2684953D01*
X2536609Y2685064D01*
X2536257Y2685183D01*
X2535907Y2685311D01*
X2535561Y2685447D01*
X2535218Y2685591D01*
X2534879Y2685744D01*
X2534543Y2685905D01*
X2534212Y2686074D01*
X2533884Y2686251D01*
X2533561Y2686435D01*
X2533243Y2686628D01*
X2532929Y2686828D01*
X2532621Y2687036D01*
X2532317Y2687251D01*
X2532019Y2687473D01*
X2531726Y2687702D01*
X2531438Y2687939D01*
X2531157Y2688182D01*
X2530881Y2688432D01*
X2530612Y2688689D01*
X2530349Y2688952D01*
X2530092Y2689221D01*
X2529842Y2689497D01*
X2529599Y2689778D01*
X2529362Y2690066D01*
X2529133Y2690359D01*
X2528911Y2690657D01*
X2528696Y2690961D01*
X2528488Y2691269D01*
X2528288Y2691583D01*
X2528095Y2691901D01*
X2527911Y2692224D01*
X2527734Y2692552D01*
X2527565Y2692883D01*
X2527404Y2693219D01*
X2527251Y2693558D01*
X2527107Y2693901D01*
X2526971Y2694247D01*
X2526843Y2694597D01*
X2526724Y2694949D01*
X2526613Y2695304D01*
X2526511Y2695662D01*
X2526417Y2696022D01*
X2526333Y2696385D01*
X2526257Y2696749D01*
X2526190Y2697115D01*
X2526132Y2697482D01*
X2526082Y2697851D01*
X2526042Y2698221D01*
X2526010Y2698592D01*
X2525988Y2698963D01*
X2525974Y2699335D01*
X2525970Y2699707D01*
X2525970Y2725368D01*
X2525976Y2725868D01*
X2525994Y2726368D01*
X2526025Y2726867D01*
X2526067Y2727365D01*
X2526122Y2727862D01*
X2526189Y2728357D01*
X2526268Y2728851D01*
X2526358Y2729342D01*
X2526461Y2729832D01*
X2526576Y2730318D01*
X2526702Y2730802D01*
X2526840Y2731282D01*
X2526990Y2731759D01*
X2527152Y2732233D01*
X2527325Y2732702D01*
X2527509Y2733166D01*
X2527704Y2733626D01*
X2527911Y2734082D01*
X2528129Y2734532D01*
X2528357Y2734976D01*
X2528597Y2735415D01*
X2528847Y2735848D01*
X2529107Y2736275D01*
X2529378Y2736695D01*
X2529659Y2737109D01*
X2529950Y2737515D01*
X2530250Y2737915D01*
X2530561Y2738307D01*
X2530881Y2738691D01*
X2531210Y2739067D01*
X2531548Y2739436D01*
X2531895Y2739796D01*
X2532250Y2740147D01*
X2532614Y2740489D01*
X2532987Y2740823D01*
X2533367Y2741148D01*
X2533755Y2741463D01*
X2534151Y2741768D01*
X2534554Y2742064D01*
X2534964Y2742350D01*
X2535381Y2742626D01*
X2535805Y2742891D01*
X2536235Y2743147D01*
X2536670Y2743391D01*
X2537112Y2743625D01*
X2537560Y2743848D01*
X2538012Y2744061D01*
X2538470Y2744262D01*
X2538932Y2744452D01*
X2539399Y2744630D01*
X2539871Y2744797D01*
X2540346Y2744953D01*
X2540824Y2745097D01*
X2541307Y2745229D01*
X2541792Y2745350D01*
X2542280Y2745459D01*
X2542770Y2745556D01*
X2543263Y2745640D01*
X2543757Y2745713D01*
X2544254Y2745774D01*
X2544751Y2745822D01*
X2545250Y2745859D01*
X2545749Y2745883D01*
X2546249Y2745895D01*
X2546749Y2745895D01*
X2547249Y2745883D01*
X2547748Y2745859D01*
X2548247Y2745822D01*
X2548744Y2745774D01*
X2549241Y2745713D01*
X2549735Y2745640D01*
X2550228Y2745556D01*
X2550718Y2745459D01*
X2551206Y2745350D01*
X2551691Y2745229D01*
X2552174Y2745097D01*
X2552652Y2744953D01*
X2553127Y2744797D01*
X2553599Y2744630D01*
X2554066Y2744452D01*
X2554528Y2744262D01*
X2554986Y2744061D01*
X2555438Y2743848D01*
X2555886Y2743625D01*
X2556328Y2743391D01*
X2556764Y2743147D01*
X2557193Y2742891D01*
X2557617Y2742626D01*
X2558034Y2742350D01*
X2558444Y2742064D01*
X2558847Y2741768D01*
X2559243Y2741463D01*
X2559631Y2741148D01*
X2560011Y2740823D01*
X2560384Y2740489D01*
X2560748Y2740147D01*
X2561103Y2739796D01*
X2561450Y2739436D01*
X2561788Y2739067D01*
X2562117Y2738691D01*
X2562437Y2738307D01*
X2562748Y2737915D01*
X2563048Y2737515D01*
X2563339Y2737109D01*
X2563620Y2736695D01*
X2563891Y2736275D01*
X2564151Y2735848D01*
X2564401Y2735415D01*
X2564641Y2734976D01*
X2564869Y2734532D01*
X2565087Y2734082D01*
X2565294Y2733626D01*
X2565489Y2733166D01*
X2565673Y2732702D01*
X2565846Y2732233D01*
X2566008Y2731759D01*
X2566158Y2731282D01*
X2566296Y2730802D01*
X2566422Y2730318D01*
X2566537Y2729832D01*
X2566640Y2729342D01*
X2566730Y2728851D01*
X2566809Y2728357D01*
X2566876Y2727862D01*
X2566931Y2727365D01*
X2566973Y2726867D01*
X2567004Y2726368D01*
X2567022Y2725868D01*
X2567028Y2725368D01*
X2567028Y2715103D01*
X2525970Y2715103D01*
X2601980Y2745897D02*
X2601980Y2668913D01*
X2601975Y2668535D01*
X2601961Y2668158D01*
X2601938Y2667780D01*
X2601906Y2667404D01*
X2601864Y2667028D01*
X2601813Y2666654D01*
X2601753Y2666281D01*
X2601684Y2665909D01*
X2601606Y2665540D01*
X2601519Y2665172D01*
X2601422Y2664806D01*
X2601317Y2664444D01*
X2601203Y2664083D01*
X2601080Y2663726D01*
X2600948Y2663372D01*
X2600808Y2663021D01*
X2600659Y2662674D01*
X2600502Y2662330D01*
X2600336Y2661990D01*
X2600162Y2661655D01*
X2599980Y2661324D01*
X2599790Y2660997D01*
X2599591Y2660676D01*
X2599385Y2660359D01*
X2599171Y2660047D01*
X2598950Y2659741D01*
X2598721Y2659440D01*
X2598485Y2659145D01*
X2598242Y2658856D01*
X2597992Y2658573D01*
X2597734Y2658296D01*
X2597470Y2658026D01*
X2597200Y2657762D01*
X2596923Y2657505D01*
X2596640Y2657254D01*
X2596351Y2657011D01*
X2596056Y2656775D01*
X2595755Y2656546D01*
X2595449Y2656325D01*
X2595137Y2656111D01*
X2594821Y2655905D01*
X2594499Y2655707D01*
X2594172Y2655516D01*
X2593841Y2655334D01*
X2593506Y2655160D01*
X2593166Y2654994D01*
X2592823Y2654837D01*
X2592475Y2654688D01*
X2592125Y2654548D01*
X2591770Y2654416D01*
X2591413Y2654293D01*
X2591053Y2654179D01*
X2590690Y2654074D01*
X2590324Y2653977D01*
X2589957Y2653890D01*
X2589587Y2653812D01*
X2589216Y2653743D01*
X2588842Y2653683D01*
X2588468Y2653632D01*
X2588092Y2653590D01*
X2587716Y2653558D01*
X2587339Y2653535D01*
X2586961Y2653521D01*
X2586583Y2653516D01*
X2586584Y2653517D02*
X2581452Y2653517D01*
X2599414Y2771558D02*
X2599414Y2776690D01*
X2604547Y2776690D01*
X2604547Y2771558D01*
X2599414Y2771558D01*
X2639970Y2725368D02*
X2639970Y2704839D01*
X2639970Y2725368D02*
X2639976Y2725868D01*
X2639994Y2726368D01*
X2640025Y2726867D01*
X2640067Y2727365D01*
X2640122Y2727862D01*
X2640189Y2728357D01*
X2640268Y2728851D01*
X2640358Y2729342D01*
X2640461Y2729832D01*
X2640576Y2730318D01*
X2640702Y2730802D01*
X2640840Y2731282D01*
X2640990Y2731759D01*
X2641152Y2732233D01*
X2641325Y2732702D01*
X2641509Y2733166D01*
X2641704Y2733626D01*
X2641911Y2734082D01*
X2642129Y2734532D01*
X2642357Y2734976D01*
X2642597Y2735415D01*
X2642847Y2735848D01*
X2643107Y2736275D01*
X2643378Y2736695D01*
X2643659Y2737109D01*
X2643950Y2737515D01*
X2644250Y2737915D01*
X2644561Y2738307D01*
X2644881Y2738691D01*
X2645210Y2739067D01*
X2645548Y2739436D01*
X2645895Y2739796D01*
X2646250Y2740147D01*
X2646614Y2740489D01*
X2646987Y2740823D01*
X2647367Y2741148D01*
X2647755Y2741463D01*
X2648151Y2741768D01*
X2648554Y2742064D01*
X2648964Y2742350D01*
X2649381Y2742626D01*
X2649805Y2742891D01*
X2650235Y2743147D01*
X2650670Y2743391D01*
X2651112Y2743625D01*
X2651560Y2743848D01*
X2652012Y2744061D01*
X2652470Y2744262D01*
X2652932Y2744452D01*
X2653399Y2744630D01*
X2653871Y2744797D01*
X2654346Y2744953D01*
X2654824Y2745097D01*
X2655307Y2745229D01*
X2655792Y2745350D01*
X2656280Y2745459D01*
X2656770Y2745556D01*
X2657263Y2745640D01*
X2657757Y2745713D01*
X2658254Y2745774D01*
X2658751Y2745822D01*
X2659250Y2745859D01*
X2659749Y2745883D01*
X2660249Y2745895D01*
X2660749Y2745895D01*
X2661249Y2745883D01*
X2661748Y2745859D01*
X2662247Y2745822D01*
X2662744Y2745774D01*
X2663241Y2745713D01*
X2663735Y2745640D01*
X2664228Y2745556D01*
X2664718Y2745459D01*
X2665206Y2745350D01*
X2665691Y2745229D01*
X2666174Y2745097D01*
X2666652Y2744953D01*
X2667127Y2744797D01*
X2667599Y2744630D01*
X2668066Y2744452D01*
X2668528Y2744262D01*
X2668986Y2744061D01*
X2669438Y2743848D01*
X2669886Y2743625D01*
X2670328Y2743391D01*
X2670764Y2743147D01*
X2671193Y2742891D01*
X2671617Y2742626D01*
X2672034Y2742350D01*
X2672444Y2742064D01*
X2672847Y2741768D01*
X2673243Y2741463D01*
X2673631Y2741148D01*
X2674011Y2740823D01*
X2674384Y2740489D01*
X2674748Y2740147D01*
X2675103Y2739796D01*
X2675450Y2739436D01*
X2675788Y2739067D01*
X2676117Y2738691D01*
X2676437Y2738307D01*
X2676748Y2737915D01*
X2677048Y2737515D01*
X2677339Y2737109D01*
X2677620Y2736695D01*
X2677891Y2736275D01*
X2678151Y2735848D01*
X2678401Y2735415D01*
X2678641Y2734976D01*
X2678869Y2734532D01*
X2679087Y2734082D01*
X2679294Y2733626D01*
X2679489Y2733166D01*
X2679673Y2732702D01*
X2679846Y2732233D01*
X2680008Y2731759D01*
X2680158Y2731282D01*
X2680296Y2730802D01*
X2680422Y2730318D01*
X2680537Y2729832D01*
X2680640Y2729342D01*
X2680730Y2728851D01*
X2680809Y2728357D01*
X2680876Y2727862D01*
X2680931Y2727365D01*
X2680973Y2726867D01*
X2681004Y2726368D01*
X2681022Y2725868D01*
X2681028Y2725368D01*
X2681028Y2704839D01*
X2681022Y2704339D01*
X2681004Y2703839D01*
X2680973Y2703340D01*
X2680931Y2702842D01*
X2680876Y2702345D01*
X2680809Y2701850D01*
X2680730Y2701356D01*
X2680640Y2700865D01*
X2680537Y2700375D01*
X2680422Y2699889D01*
X2680296Y2699405D01*
X2680158Y2698925D01*
X2680008Y2698448D01*
X2679846Y2697974D01*
X2679673Y2697505D01*
X2679489Y2697041D01*
X2679294Y2696581D01*
X2679087Y2696125D01*
X2678869Y2695675D01*
X2678641Y2695231D01*
X2678401Y2694792D01*
X2678151Y2694359D01*
X2677891Y2693932D01*
X2677620Y2693512D01*
X2677339Y2693098D01*
X2677048Y2692692D01*
X2676748Y2692292D01*
X2676437Y2691900D01*
X2676117Y2691516D01*
X2675788Y2691140D01*
X2675450Y2690771D01*
X2675103Y2690411D01*
X2674748Y2690060D01*
X2674384Y2689718D01*
X2674011Y2689384D01*
X2673631Y2689059D01*
X2673243Y2688744D01*
X2672847Y2688439D01*
X2672444Y2688143D01*
X2672034Y2687857D01*
X2671617Y2687581D01*
X2671193Y2687316D01*
X2670764Y2687060D01*
X2670328Y2686816D01*
X2669886Y2686582D01*
X2669438Y2686359D01*
X2668986Y2686146D01*
X2668528Y2685945D01*
X2668066Y2685755D01*
X2667599Y2685577D01*
X2667127Y2685410D01*
X2666652Y2685254D01*
X2666174Y2685110D01*
X2665691Y2684978D01*
X2665206Y2684857D01*
X2664718Y2684748D01*
X2664228Y2684651D01*
X2663735Y2684567D01*
X2663241Y2684494D01*
X2662744Y2684433D01*
X2662247Y2684385D01*
X2661748Y2684348D01*
X2661249Y2684324D01*
X2660749Y2684312D01*
X2660249Y2684312D01*
X2659749Y2684324D01*
X2659250Y2684348D01*
X2658751Y2684385D01*
X2658254Y2684433D01*
X2657757Y2684494D01*
X2657263Y2684567D01*
X2656770Y2684651D01*
X2656280Y2684748D01*
X2655792Y2684857D01*
X2655307Y2684978D01*
X2654824Y2685110D01*
X2654346Y2685254D01*
X2653871Y2685410D01*
X2653399Y2685577D01*
X2652932Y2685755D01*
X2652470Y2685945D01*
X2652012Y2686146D01*
X2651560Y2686359D01*
X2651112Y2686582D01*
X2650670Y2686816D01*
X2650235Y2687060D01*
X2649805Y2687316D01*
X2649381Y2687581D01*
X2648964Y2687857D01*
X2648554Y2688143D01*
X2648151Y2688439D01*
X2647755Y2688744D01*
X2647367Y2689059D01*
X2646987Y2689384D01*
X2646614Y2689718D01*
X2646250Y2690060D01*
X2645895Y2690411D01*
X2645548Y2690771D01*
X2645210Y2691140D01*
X2644881Y2691516D01*
X2644561Y2691900D01*
X2644250Y2692292D01*
X2643950Y2692692D01*
X2643659Y2693098D01*
X2643378Y2693512D01*
X2643107Y2693932D01*
X2642847Y2694359D01*
X2642597Y2694792D01*
X2642357Y2695231D01*
X2642129Y2695675D01*
X2641911Y2696125D01*
X2641704Y2696581D01*
X2641509Y2697041D01*
X2641325Y2697505D01*
X2641152Y2697974D01*
X2640990Y2698448D01*
X2640840Y2698925D01*
X2640702Y2699405D01*
X2640576Y2699889D01*
X2640461Y2700375D01*
X2640358Y2700865D01*
X2640268Y2701356D01*
X2640189Y2701850D01*
X2640122Y2702345D01*
X2640067Y2702842D01*
X2640025Y2703340D01*
X2639994Y2703839D01*
X2639976Y2704339D01*
X2639970Y2704839D01*
X2714970Y2745897D02*
X2735499Y2684310D01*
X2756028Y2745897D01*
X2793481Y2745897D02*
X2793481Y2684310D01*
X2793481Y2745897D02*
X2824274Y2745897D01*
X2824274Y2735632D01*
X2855970Y2776690D02*
X2855970Y2684310D01*
X2855970Y2745897D02*
X2881631Y2745897D01*
X2882003Y2745893D01*
X2882375Y2745879D01*
X2882746Y2745857D01*
X2883117Y2745825D01*
X2883487Y2745785D01*
X2883856Y2745735D01*
X2884223Y2745677D01*
X2884589Y2745610D01*
X2884953Y2745534D01*
X2885316Y2745450D01*
X2885676Y2745356D01*
X2886034Y2745254D01*
X2886389Y2745143D01*
X2886741Y2745024D01*
X2887091Y2744896D01*
X2887437Y2744760D01*
X2887780Y2744616D01*
X2888119Y2744463D01*
X2888455Y2744302D01*
X2888786Y2744133D01*
X2889114Y2743956D01*
X2889437Y2743772D01*
X2889755Y2743579D01*
X2890069Y2743379D01*
X2890377Y2743171D01*
X2890681Y2742956D01*
X2890979Y2742734D01*
X2891272Y2742505D01*
X2891560Y2742268D01*
X2891841Y2742025D01*
X2892117Y2741775D01*
X2892386Y2741518D01*
X2892649Y2741255D01*
X2892906Y2740986D01*
X2893156Y2740710D01*
X2893399Y2740429D01*
X2893636Y2740141D01*
X2893865Y2739848D01*
X2894087Y2739550D01*
X2894302Y2739246D01*
X2894510Y2738938D01*
X2894710Y2738624D01*
X2894903Y2738306D01*
X2895087Y2737983D01*
X2895264Y2737655D01*
X2895433Y2737324D01*
X2895594Y2736988D01*
X2895747Y2736649D01*
X2895891Y2736306D01*
X2896027Y2735960D01*
X2896155Y2735610D01*
X2896274Y2735258D01*
X2896385Y2734903D01*
X2896487Y2734545D01*
X2896581Y2734185D01*
X2896665Y2733822D01*
X2896741Y2733458D01*
X2896808Y2733092D01*
X2896866Y2732725D01*
X2896916Y2732356D01*
X2896956Y2731986D01*
X2896988Y2731615D01*
X2897010Y2731244D01*
X2897024Y2730872D01*
X2897028Y2730500D01*
X2897028Y2684310D01*
X2981970Y2745897D02*
X3002499Y2684310D01*
X3023028Y2745897D01*
X3053933Y2689442D02*
X3053933Y2684310D01*
X3053933Y2689442D02*
X3059065Y2689442D01*
X3059065Y2684310D01*
X3053933Y2684310D01*
X3093837Y2756161D02*
X3119498Y2776690D01*
X3119498Y2684310D01*
X3093837Y2684310D02*
X3145159Y2684310D01*
X1515632Y2100632D02*
X1500235Y2100632D01*
X1515632Y2100632D02*
X1515632Y2049310D01*
X1484839Y2049310D01*
X1484343Y2049316D01*
X1483847Y2049334D01*
X1483352Y2049364D01*
X1482858Y2049406D01*
X1482365Y2049460D01*
X1481873Y2049525D01*
X1481383Y2049603D01*
X1480895Y2049692D01*
X1480409Y2049794D01*
X1479926Y2049907D01*
X1479446Y2050031D01*
X1478969Y2050167D01*
X1478495Y2050315D01*
X1478025Y2050474D01*
X1477559Y2050644D01*
X1477098Y2050826D01*
X1476640Y2051018D01*
X1476188Y2051222D01*
X1475741Y2051436D01*
X1475299Y2051661D01*
X1474862Y2051897D01*
X1474432Y2052144D01*
X1474007Y2052400D01*
X1473589Y2052667D01*
X1473177Y2052944D01*
X1472772Y2053231D01*
X1472375Y2053527D01*
X1471984Y2053833D01*
X1471601Y2054148D01*
X1471226Y2054473D01*
X1470858Y2054806D01*
X1470499Y2055148D01*
X1470148Y2055499D01*
X1469806Y2055858D01*
X1469473Y2056226D01*
X1469148Y2056601D01*
X1468833Y2056984D01*
X1468527Y2057375D01*
X1468231Y2057772D01*
X1467944Y2058177D01*
X1467667Y2058589D01*
X1467400Y2059007D01*
X1467144Y2059432D01*
X1466897Y2059862D01*
X1466661Y2060299D01*
X1466436Y2060741D01*
X1466222Y2061188D01*
X1466018Y2061640D01*
X1465826Y2062098D01*
X1465644Y2062559D01*
X1465474Y2063025D01*
X1465315Y2063495D01*
X1465167Y2063969D01*
X1465031Y2064446D01*
X1464907Y2064926D01*
X1464794Y2065409D01*
X1464692Y2065895D01*
X1464603Y2066383D01*
X1464525Y2066873D01*
X1464460Y2067365D01*
X1464406Y2067858D01*
X1464364Y2068352D01*
X1464334Y2068847D01*
X1464316Y2069343D01*
X1464310Y2069839D01*
X1464310Y2121161D01*
X1464316Y2121665D01*
X1464335Y2122168D01*
X1464366Y2122671D01*
X1464409Y2123173D01*
X1464464Y2123674D01*
X1464532Y2124173D01*
X1464612Y2124671D01*
X1464704Y2125166D01*
X1464809Y2125659D01*
X1464925Y2126149D01*
X1465054Y2126636D01*
X1465194Y2127120D01*
X1465346Y2127601D01*
X1465510Y2128077D01*
X1465686Y2128549D01*
X1465873Y2129017D01*
X1466071Y2129480D01*
X1466281Y2129938D01*
X1466502Y2130391D01*
X1466734Y2130838D01*
X1466977Y2131280D01*
X1467231Y2131715D01*
X1467495Y2132144D01*
X1467770Y2132566D01*
X1468055Y2132982D01*
X1468350Y2133390D01*
X1468655Y2133791D01*
X1468970Y2134184D01*
X1469294Y2134570D01*
X1469628Y2134947D01*
X1469971Y2135316D01*
X1470323Y2135677D01*
X1470683Y2136029D01*
X1471052Y2136372D01*
X1471430Y2136706D01*
X1471815Y2137030D01*
X1472209Y2137345D01*
X1472610Y2137650D01*
X1473018Y2137945D01*
X1473434Y2138230D01*
X1473856Y2138505D01*
X1474285Y2138769D01*
X1474720Y2139023D01*
X1475162Y2139266D01*
X1475609Y2139498D01*
X1476062Y2139719D01*
X1476520Y2139929D01*
X1476983Y2140127D01*
X1477450Y2140314D01*
X1477923Y2140490D01*
X1478399Y2140654D01*
X1478880Y2140806D01*
X1479363Y2140946D01*
X1479851Y2141075D01*
X1480341Y2141191D01*
X1480834Y2141295D01*
X1481329Y2141388D01*
X1481826Y2141468D01*
X1482326Y2141536D01*
X1482827Y2141591D01*
X1483328Y2141634D01*
X1483831Y2141665D01*
X1484335Y2141684D01*
X1484839Y2141690D01*
X1515632Y2141690D01*
X1560310Y2141690D02*
X1560310Y2049310D01*
X1611632Y2049310D02*
X1560310Y2141690D01*
X1611632Y2141690D02*
X1611632Y2049310D01*
X1656309Y2049310D02*
X1656309Y2141690D01*
X1681970Y2141690D01*
X1682590Y2141683D01*
X1683210Y2141660D01*
X1683829Y2141623D01*
X1684447Y2141570D01*
X1685063Y2141503D01*
X1685678Y2141421D01*
X1686290Y2141324D01*
X1686900Y2141212D01*
X1687507Y2141085D01*
X1688111Y2140944D01*
X1688711Y2140789D01*
X1689308Y2140619D01*
X1689900Y2140434D01*
X1690487Y2140235D01*
X1691070Y2140022D01*
X1691647Y2139796D01*
X1692218Y2139555D01*
X1692784Y2139300D01*
X1693343Y2139032D01*
X1693895Y2138751D01*
X1694441Y2138456D01*
X1694979Y2138148D01*
X1695510Y2137827D01*
X1696033Y2137494D01*
X1696547Y2137148D01*
X1697053Y2136789D01*
X1697550Y2136419D01*
X1698039Y2136036D01*
X1698517Y2135642D01*
X1698986Y2135237D01*
X1699446Y2134820D01*
X1699895Y2134392D01*
X1700333Y2133954D01*
X1700761Y2133505D01*
X1701178Y2133045D01*
X1701583Y2132576D01*
X1701977Y2132098D01*
X1702360Y2131609D01*
X1702730Y2131112D01*
X1703089Y2130606D01*
X1703435Y2130092D01*
X1703768Y2129569D01*
X1704089Y2129038D01*
X1704397Y2128500D01*
X1704692Y2127954D01*
X1704973Y2127402D01*
X1705241Y2126843D01*
X1705496Y2126277D01*
X1705737Y2125706D01*
X1705963Y2125129D01*
X1706176Y2124546D01*
X1706375Y2123959D01*
X1706560Y2123367D01*
X1706730Y2122770D01*
X1706885Y2122170D01*
X1707026Y2121566D01*
X1707153Y2120959D01*
X1707265Y2120349D01*
X1707362Y2119737D01*
X1707444Y2119122D01*
X1707511Y2118506D01*
X1707564Y2117888D01*
X1707601Y2117269D01*
X1707624Y2116649D01*
X1707631Y2116029D01*
X1707632Y2116029D02*
X1707632Y2074971D01*
X1707625Y2074351D01*
X1707602Y2073731D01*
X1707565Y2073112D01*
X1707512Y2072494D01*
X1707445Y2071878D01*
X1707363Y2071263D01*
X1707266Y2070651D01*
X1707154Y2070041D01*
X1707027Y2069434D01*
X1706886Y2068830D01*
X1706731Y2068230D01*
X1706561Y2067633D01*
X1706376Y2067041D01*
X1706177Y2066454D01*
X1705964Y2065871D01*
X1705738Y2065294D01*
X1705497Y2064723D01*
X1705242Y2064157D01*
X1704974Y2063598D01*
X1704693Y2063046D01*
X1704398Y2062500D01*
X1704090Y2061962D01*
X1703769Y2061431D01*
X1703436Y2060908D01*
X1703090Y2060394D01*
X1702731Y2059888D01*
X1702361Y2059390D01*
X1701978Y2058902D01*
X1701584Y2058424D01*
X1701178Y2057955D01*
X1700762Y2057495D01*
X1700334Y2057046D01*
X1699895Y2056608D01*
X1699446Y2056180D01*
X1698987Y2055763D01*
X1698518Y2055358D01*
X1698039Y2054964D01*
X1697551Y2054581D01*
X1697054Y2054211D01*
X1696548Y2053852D01*
X1696033Y2053506D01*
X1695511Y2053173D01*
X1694980Y2052852D01*
X1694442Y2052544D01*
X1693896Y2052249D01*
X1693344Y2051968D01*
X1692784Y2051700D01*
X1692219Y2051445D01*
X1691647Y2051204D01*
X1691070Y2050977D01*
X1690488Y2050765D01*
X1689900Y2050566D01*
X1689308Y2050381D01*
X1688712Y2050211D01*
X1688112Y2050056D01*
X1687508Y2049914D01*
X1686901Y2049788D01*
X1686291Y2049676D01*
X1685678Y2049579D01*
X1685064Y2049497D01*
X1684447Y2049430D01*
X1683829Y2049377D01*
X1683210Y2049340D01*
X1682591Y2049317D01*
X1681971Y2049310D01*
X1681970Y2049310D02*
X1656309Y2049310D01*
X3281294Y2100632D02*
X3296691Y2100632D01*
X3296691Y2049310D01*
X3265897Y2049310D01*
X3265401Y2049316D01*
X3264905Y2049334D01*
X3264410Y2049364D01*
X3263916Y2049406D01*
X3263423Y2049460D01*
X3262931Y2049525D01*
X3262441Y2049603D01*
X3261953Y2049692D01*
X3261467Y2049794D01*
X3260984Y2049907D01*
X3260504Y2050031D01*
X3260027Y2050167D01*
X3259553Y2050315D01*
X3259083Y2050474D01*
X3258617Y2050644D01*
X3258156Y2050826D01*
X3257698Y2051018D01*
X3257246Y2051222D01*
X3256799Y2051436D01*
X3256357Y2051661D01*
X3255920Y2051897D01*
X3255490Y2052144D01*
X3255065Y2052400D01*
X3254647Y2052667D01*
X3254235Y2052944D01*
X3253830Y2053231D01*
X3253433Y2053527D01*
X3253042Y2053833D01*
X3252659Y2054148D01*
X3252284Y2054473D01*
X3251916Y2054806D01*
X3251557Y2055148D01*
X3251206Y2055499D01*
X3250864Y2055858D01*
X3250531Y2056226D01*
X3250206Y2056601D01*
X3249891Y2056984D01*
X3249585Y2057375D01*
X3249289Y2057772D01*
X3249002Y2058177D01*
X3248725Y2058589D01*
X3248458Y2059007D01*
X3248202Y2059432D01*
X3247955Y2059862D01*
X3247719Y2060299D01*
X3247494Y2060741D01*
X3247280Y2061188D01*
X3247076Y2061640D01*
X3246884Y2062098D01*
X3246702Y2062559D01*
X3246532Y2063025D01*
X3246373Y2063495D01*
X3246225Y2063969D01*
X3246089Y2064446D01*
X3245965Y2064926D01*
X3245852Y2065409D01*
X3245750Y2065895D01*
X3245661Y2066383D01*
X3245583Y2066873D01*
X3245518Y2067365D01*
X3245464Y2067858D01*
X3245422Y2068352D01*
X3245392Y2068847D01*
X3245374Y2069343D01*
X3245368Y2069839D01*
X3245368Y2121161D01*
X3245369Y2121161D02*
X3245375Y2121665D01*
X3245394Y2122168D01*
X3245425Y2122671D01*
X3245468Y2123173D01*
X3245523Y2123674D01*
X3245591Y2124173D01*
X3245671Y2124671D01*
X3245763Y2125166D01*
X3245868Y2125659D01*
X3245984Y2126149D01*
X3246113Y2126636D01*
X3246253Y2127120D01*
X3246405Y2127601D01*
X3246569Y2128077D01*
X3246745Y2128549D01*
X3246932Y2129017D01*
X3247130Y2129480D01*
X3247340Y2129938D01*
X3247561Y2130391D01*
X3247793Y2130838D01*
X3248036Y2131280D01*
X3248290Y2131715D01*
X3248554Y2132144D01*
X3248829Y2132566D01*
X3249114Y2132982D01*
X3249409Y2133390D01*
X3249714Y2133791D01*
X3250029Y2134184D01*
X3250353Y2134570D01*
X3250687Y2134947D01*
X3251030Y2135316D01*
X3251382Y2135677D01*
X3251742Y2136029D01*
X3252111Y2136372D01*
X3252489Y2136706D01*
X3252874Y2137030D01*
X3253268Y2137345D01*
X3253669Y2137650D01*
X3254077Y2137945D01*
X3254493Y2138230D01*
X3254915Y2138505D01*
X3255344Y2138769D01*
X3255779Y2139023D01*
X3256221Y2139266D01*
X3256668Y2139498D01*
X3257121Y2139719D01*
X3257579Y2139929D01*
X3258042Y2140127D01*
X3258509Y2140314D01*
X3258982Y2140490D01*
X3259458Y2140654D01*
X3259939Y2140806D01*
X3260422Y2140946D01*
X3260910Y2141075D01*
X3261400Y2141191D01*
X3261893Y2141295D01*
X3262388Y2141388D01*
X3262885Y2141468D01*
X3263385Y2141536D01*
X3263886Y2141591D01*
X3264387Y2141634D01*
X3264890Y2141665D01*
X3265394Y2141684D01*
X3265898Y2141690D01*
X3265897Y2141690D02*
X3296691Y2141690D01*
X3341368Y2141690D02*
X3341368Y2049310D01*
X3392690Y2049310D02*
X3341368Y2141690D01*
X3392690Y2141690D02*
X3392690Y2049310D01*
X3437368Y2049310D02*
X3437368Y2141690D01*
X3463029Y2141690D01*
X3463649Y2141683D01*
X3464269Y2141660D01*
X3464888Y2141623D01*
X3465506Y2141570D01*
X3466122Y2141503D01*
X3466737Y2141421D01*
X3467349Y2141324D01*
X3467959Y2141212D01*
X3468566Y2141085D01*
X3469170Y2140944D01*
X3469770Y2140789D01*
X3470367Y2140619D01*
X3470959Y2140434D01*
X3471546Y2140235D01*
X3472129Y2140022D01*
X3472706Y2139796D01*
X3473277Y2139555D01*
X3473843Y2139300D01*
X3474402Y2139032D01*
X3474954Y2138751D01*
X3475500Y2138456D01*
X3476038Y2138148D01*
X3476569Y2137827D01*
X3477092Y2137494D01*
X3477606Y2137148D01*
X3478112Y2136789D01*
X3478609Y2136419D01*
X3479098Y2136036D01*
X3479576Y2135642D01*
X3480045Y2135237D01*
X3480505Y2134820D01*
X3480954Y2134392D01*
X3481392Y2133954D01*
X3481820Y2133505D01*
X3482237Y2133045D01*
X3482642Y2132576D01*
X3483036Y2132098D01*
X3483419Y2131609D01*
X3483789Y2131112D01*
X3484148Y2130606D01*
X3484494Y2130092D01*
X3484827Y2129569D01*
X3485148Y2129038D01*
X3485456Y2128500D01*
X3485751Y2127954D01*
X3486032Y2127402D01*
X3486300Y2126843D01*
X3486555Y2126277D01*
X3486796Y2125706D01*
X3487022Y2125129D01*
X3487235Y2124546D01*
X3487434Y2123959D01*
X3487619Y2123367D01*
X3487789Y2122770D01*
X3487944Y2122170D01*
X3488085Y2121566D01*
X3488212Y2120959D01*
X3488324Y2120349D01*
X3488421Y2119737D01*
X3488503Y2119122D01*
X3488570Y2118506D01*
X3488623Y2117888D01*
X3488660Y2117269D01*
X3488683Y2116649D01*
X3488690Y2116029D01*
X3488690Y2074971D01*
X3488683Y2074351D01*
X3488660Y2073731D01*
X3488623Y2073112D01*
X3488570Y2072494D01*
X3488503Y2071878D01*
X3488421Y2071263D01*
X3488324Y2070651D01*
X3488212Y2070041D01*
X3488085Y2069434D01*
X3487944Y2068830D01*
X3487789Y2068230D01*
X3487619Y2067633D01*
X3487434Y2067041D01*
X3487235Y2066454D01*
X3487022Y2065871D01*
X3486796Y2065294D01*
X3486555Y2064723D01*
X3486300Y2064157D01*
X3486032Y2063598D01*
X3485751Y2063046D01*
X3485456Y2062500D01*
X3485148Y2061962D01*
X3484827Y2061431D01*
X3484494Y2060908D01*
X3484148Y2060394D01*
X3483789Y2059888D01*
X3483419Y2059390D01*
X3483036Y2058902D01*
X3482642Y2058424D01*
X3482236Y2057955D01*
X3481820Y2057495D01*
X3481392Y2057046D01*
X3480953Y2056608D01*
X3480504Y2056180D01*
X3480045Y2055763D01*
X3479576Y2055358D01*
X3479097Y2054964D01*
X3478609Y2054581D01*
X3478112Y2054211D01*
X3477606Y2053852D01*
X3477091Y2053506D01*
X3476569Y2053173D01*
X3476038Y2052852D01*
X3475500Y2052544D01*
X3474954Y2052249D01*
X3474402Y2051968D01*
X3473842Y2051700D01*
X3473277Y2051445D01*
X3472705Y2051204D01*
X3472128Y2050977D01*
X3471546Y2050765D01*
X3470958Y2050566D01*
X3470366Y2050381D01*
X3469770Y2050211D01*
X3469170Y2050056D01*
X3468566Y2049914D01*
X3467959Y2049788D01*
X3467349Y2049676D01*
X3466736Y2049579D01*
X3466122Y2049497D01*
X3465505Y2049430D01*
X3464887Y2049377D01*
X3464268Y2049340D01*
X3463649Y2049317D01*
X3463029Y2049310D01*
X3437368Y2049310D01*
D12*
X2203000Y2111000D02*
X2203003Y2111245D01*
X2203012Y2111491D01*
X2203027Y2111736D01*
X2203048Y2111980D01*
X2203075Y2112224D01*
X2203108Y2112467D01*
X2203147Y2112710D01*
X2203192Y2112951D01*
X2203243Y2113191D01*
X2203300Y2113430D01*
X2203362Y2113667D01*
X2203431Y2113903D01*
X2203505Y2114137D01*
X2203585Y2114369D01*
X2203670Y2114599D01*
X2203761Y2114827D01*
X2203858Y2115052D01*
X2203960Y2115276D01*
X2204068Y2115496D01*
X2204181Y2115714D01*
X2204299Y2115929D01*
X2204423Y2116141D01*
X2204551Y2116350D01*
X2204685Y2116556D01*
X2204824Y2116758D01*
X2204968Y2116957D01*
X2205117Y2117152D01*
X2205270Y2117344D01*
X2205428Y2117532D01*
X2205590Y2117716D01*
X2205758Y2117895D01*
X2205929Y2118071D01*
X2206105Y2118242D01*
X2206284Y2118410D01*
X2206468Y2118572D01*
X2206656Y2118730D01*
X2206848Y2118883D01*
X2207043Y2119032D01*
X2207242Y2119176D01*
X2207444Y2119315D01*
X2207650Y2119449D01*
X2207859Y2119577D01*
X2208071Y2119701D01*
X2208286Y2119819D01*
X2208504Y2119932D01*
X2208724Y2120040D01*
X2208948Y2120142D01*
X2209173Y2120239D01*
X2209401Y2120330D01*
X2209631Y2120415D01*
X2209863Y2120495D01*
X2210097Y2120569D01*
X2210333Y2120638D01*
X2210570Y2120700D01*
X2210809Y2120757D01*
X2211049Y2120808D01*
X2211290Y2120853D01*
X2211533Y2120892D01*
X2211776Y2120925D01*
X2212020Y2120952D01*
X2212264Y2120973D01*
X2212509Y2120988D01*
X2212755Y2120997D01*
X2213000Y2121000D01*
X2213245Y2120997D01*
X2213491Y2120988D01*
X2213736Y2120973D01*
X2213980Y2120952D01*
X2214224Y2120925D01*
X2214467Y2120892D01*
X2214710Y2120853D01*
X2214951Y2120808D01*
X2215191Y2120757D01*
X2215430Y2120700D01*
X2215667Y2120638D01*
X2215903Y2120569D01*
X2216137Y2120495D01*
X2216369Y2120415D01*
X2216599Y2120330D01*
X2216827Y2120239D01*
X2217052Y2120142D01*
X2217276Y2120040D01*
X2217496Y2119932D01*
X2217714Y2119819D01*
X2217929Y2119701D01*
X2218141Y2119577D01*
X2218350Y2119449D01*
X2218556Y2119315D01*
X2218758Y2119176D01*
X2218957Y2119032D01*
X2219152Y2118883D01*
X2219344Y2118730D01*
X2219532Y2118572D01*
X2219716Y2118410D01*
X2219895Y2118242D01*
X2220071Y2118071D01*
X2220242Y2117895D01*
X2220410Y2117716D01*
X2220572Y2117532D01*
X2220730Y2117344D01*
X2220883Y2117152D01*
X2221032Y2116957D01*
X2221176Y2116758D01*
X2221315Y2116556D01*
X2221449Y2116350D01*
X2221577Y2116141D01*
X2221701Y2115929D01*
X2221819Y2115714D01*
X2221932Y2115496D01*
X2222040Y2115276D01*
X2222142Y2115052D01*
X2222239Y2114827D01*
X2222330Y2114599D01*
X2222415Y2114369D01*
X2222495Y2114137D01*
X2222569Y2113903D01*
X2222638Y2113667D01*
X2222700Y2113430D01*
X2222757Y2113191D01*
X2222808Y2112951D01*
X2222853Y2112710D01*
X2222892Y2112467D01*
X2222925Y2112224D01*
X2222952Y2111980D01*
X2222973Y2111736D01*
X2222988Y2111491D01*
X2222997Y2111245D01*
X2223000Y2111000D01*
X2222997Y2110755D01*
X2222988Y2110509D01*
X2222973Y2110264D01*
X2222952Y2110020D01*
X2222925Y2109776D01*
X2222892Y2109533D01*
X2222853Y2109290D01*
X2222808Y2109049D01*
X2222757Y2108809D01*
X2222700Y2108570D01*
X2222638Y2108333D01*
X2222569Y2108097D01*
X2222495Y2107863D01*
X2222415Y2107631D01*
X2222330Y2107401D01*
X2222239Y2107173D01*
X2222142Y2106948D01*
X2222040Y2106724D01*
X2221932Y2106504D01*
X2221819Y2106286D01*
X2221701Y2106071D01*
X2221577Y2105859D01*
X2221449Y2105650D01*
X2221315Y2105444D01*
X2221176Y2105242D01*
X2221032Y2105043D01*
X2220883Y2104848D01*
X2220730Y2104656D01*
X2220572Y2104468D01*
X2220410Y2104284D01*
X2220242Y2104105D01*
X2220071Y2103929D01*
X2219895Y2103758D01*
X2219716Y2103590D01*
X2219532Y2103428D01*
X2219344Y2103270D01*
X2219152Y2103117D01*
X2218957Y2102968D01*
X2218758Y2102824D01*
X2218556Y2102685D01*
X2218350Y2102551D01*
X2218141Y2102423D01*
X2217929Y2102299D01*
X2217714Y2102181D01*
X2217496Y2102068D01*
X2217276Y2101960D01*
X2217052Y2101858D01*
X2216827Y2101761D01*
X2216599Y2101670D01*
X2216369Y2101585D01*
X2216137Y2101505D01*
X2215903Y2101431D01*
X2215667Y2101362D01*
X2215430Y2101300D01*
X2215191Y2101243D01*
X2214951Y2101192D01*
X2214710Y2101147D01*
X2214467Y2101108D01*
X2214224Y2101075D01*
X2213980Y2101048D01*
X2213736Y2101027D01*
X2213491Y2101012D01*
X2213245Y2101003D01*
X2213000Y2101000D01*
X2212755Y2101003D01*
X2212509Y2101012D01*
X2212264Y2101027D01*
X2212020Y2101048D01*
X2211776Y2101075D01*
X2211533Y2101108D01*
X2211290Y2101147D01*
X2211049Y2101192D01*
X2210809Y2101243D01*
X2210570Y2101300D01*
X2210333Y2101362D01*
X2210097Y2101431D01*
X2209863Y2101505D01*
X2209631Y2101585D01*
X2209401Y2101670D01*
X2209173Y2101761D01*
X2208948Y2101858D01*
X2208724Y2101960D01*
X2208504Y2102068D01*
X2208286Y2102181D01*
X2208071Y2102299D01*
X2207859Y2102423D01*
X2207650Y2102551D01*
X2207444Y2102685D01*
X2207242Y2102824D01*
X2207043Y2102968D01*
X2206848Y2103117D01*
X2206656Y2103270D01*
X2206468Y2103428D01*
X2206284Y2103590D01*
X2206105Y2103758D01*
X2205929Y2103929D01*
X2205758Y2104105D01*
X2205590Y2104284D01*
X2205428Y2104468D01*
X2205270Y2104656D01*
X2205117Y2104848D01*
X2204968Y2105043D01*
X2204824Y2105242D01*
X2204685Y2105444D01*
X2204551Y2105650D01*
X2204423Y2105859D01*
X2204299Y2106071D01*
X2204181Y2106286D01*
X2204068Y2106504D01*
X2203960Y2106724D01*
X2203858Y2106948D01*
X2203761Y2107173D01*
X2203670Y2107401D01*
X2203585Y2107631D01*
X2203505Y2107863D01*
X2203431Y2108097D01*
X2203362Y2108333D01*
X2203300Y2108570D01*
X2203243Y2108809D01*
X2203192Y2109049D01*
X2203147Y2109290D01*
X2203108Y2109533D01*
X2203075Y2109776D01*
X2203048Y2110020D01*
X2203027Y2110264D01*
X2203012Y2110509D01*
X2203003Y2110755D01*
X2203000Y2111000D01*
D13*
X2258000Y2156000D02*
X2258000Y2191000D01*
X2258000Y2156000D02*
X2318000Y2156000D01*
X2258000Y2381000D02*
X2258000Y2416000D01*
X2343000Y2416000D01*
X2508000Y2156000D02*
X2568000Y2156000D01*
X2568000Y2191000D01*
X2568000Y2381000D02*
X2568000Y2416000D01*
X2483000Y2416000D01*
D11*
X2649302Y2236940D02*
X2649302Y2144560D01*
X2639038Y2144560D02*
X2659566Y2144560D01*
X2659566Y2236940D02*
X2639038Y2236940D01*
X2715914Y2144560D02*
X2736443Y2144560D01*
X2715914Y2144560D02*
X2715418Y2144566D01*
X2714922Y2144584D01*
X2714427Y2144614D01*
X2713933Y2144656D01*
X2713440Y2144710D01*
X2712948Y2144775D01*
X2712458Y2144853D01*
X2711970Y2144942D01*
X2711484Y2145044D01*
X2711001Y2145157D01*
X2710521Y2145281D01*
X2710044Y2145417D01*
X2709570Y2145565D01*
X2709100Y2145724D01*
X2708634Y2145894D01*
X2708173Y2146076D01*
X2707715Y2146268D01*
X2707263Y2146472D01*
X2706816Y2146686D01*
X2706374Y2146911D01*
X2705937Y2147147D01*
X2705507Y2147394D01*
X2705082Y2147650D01*
X2704664Y2147917D01*
X2704252Y2148194D01*
X2703847Y2148481D01*
X2703450Y2148777D01*
X2703059Y2149083D01*
X2702676Y2149398D01*
X2702301Y2149723D01*
X2701933Y2150056D01*
X2701574Y2150398D01*
X2701223Y2150749D01*
X2700881Y2151108D01*
X2700548Y2151476D01*
X2700223Y2151851D01*
X2699908Y2152234D01*
X2699602Y2152625D01*
X2699306Y2153022D01*
X2699019Y2153427D01*
X2698742Y2153839D01*
X2698475Y2154257D01*
X2698219Y2154682D01*
X2697972Y2155112D01*
X2697736Y2155549D01*
X2697511Y2155991D01*
X2697297Y2156438D01*
X2697093Y2156890D01*
X2696901Y2157348D01*
X2696719Y2157809D01*
X2696549Y2158275D01*
X2696390Y2158745D01*
X2696242Y2159219D01*
X2696106Y2159696D01*
X2695982Y2160176D01*
X2695869Y2160659D01*
X2695767Y2161145D01*
X2695678Y2161633D01*
X2695600Y2162123D01*
X2695535Y2162615D01*
X2695481Y2163108D01*
X2695439Y2163602D01*
X2695409Y2164097D01*
X2695391Y2164593D01*
X2695385Y2165089D01*
X2695386Y2165089D02*
X2695386Y2216411D01*
X2695392Y2216915D01*
X2695411Y2217418D01*
X2695442Y2217921D01*
X2695485Y2218423D01*
X2695540Y2218924D01*
X2695608Y2219423D01*
X2695688Y2219921D01*
X2695780Y2220416D01*
X2695885Y2220909D01*
X2696001Y2221399D01*
X2696130Y2221886D01*
X2696270Y2222370D01*
X2696422Y2222851D01*
X2696586Y2223327D01*
X2696762Y2223799D01*
X2696949Y2224267D01*
X2697147Y2224730D01*
X2697357Y2225188D01*
X2697578Y2225641D01*
X2697810Y2226088D01*
X2698053Y2226530D01*
X2698307Y2226965D01*
X2698571Y2227394D01*
X2698846Y2227816D01*
X2699131Y2228232D01*
X2699426Y2228640D01*
X2699731Y2229041D01*
X2700046Y2229434D01*
X2700370Y2229820D01*
X2700704Y2230197D01*
X2701047Y2230566D01*
X2701399Y2230927D01*
X2701759Y2231279D01*
X2702128Y2231622D01*
X2702506Y2231956D01*
X2702891Y2232280D01*
X2703285Y2232595D01*
X2703686Y2232900D01*
X2704094Y2233195D01*
X2704510Y2233480D01*
X2704932Y2233755D01*
X2705361Y2234019D01*
X2705796Y2234273D01*
X2706238Y2234516D01*
X2706685Y2234748D01*
X2707138Y2234969D01*
X2707596Y2235179D01*
X2708059Y2235377D01*
X2708526Y2235564D01*
X2708999Y2235740D01*
X2709475Y2235904D01*
X2709956Y2236056D01*
X2710439Y2236196D01*
X2710927Y2236325D01*
X2711417Y2236441D01*
X2711910Y2236545D01*
X2712405Y2236638D01*
X2712902Y2236718D01*
X2713402Y2236786D01*
X2713903Y2236841D01*
X2714404Y2236884D01*
X2714907Y2236915D01*
X2715411Y2236934D01*
X2715915Y2236940D01*
X2715914Y2236940D02*
X2736443Y2236940D01*
X2770640Y2216411D02*
X2796301Y2236940D01*
X2796301Y2144560D01*
X2770640Y2144560D02*
X2821963Y2144560D01*
X1982940Y2401990D02*
X1982940Y2422519D01*
X1982940Y2401990D02*
X1982934Y2401494D01*
X1982916Y2400998D01*
X1982886Y2400503D01*
X1982844Y2400009D01*
X1982790Y2399516D01*
X1982725Y2399024D01*
X1982647Y2398534D01*
X1982558Y2398046D01*
X1982456Y2397560D01*
X1982343Y2397077D01*
X1982219Y2396597D01*
X1982083Y2396120D01*
X1981935Y2395646D01*
X1981776Y2395176D01*
X1981606Y2394710D01*
X1981424Y2394249D01*
X1981232Y2393791D01*
X1981028Y2393339D01*
X1980814Y2392892D01*
X1980589Y2392450D01*
X1980353Y2392013D01*
X1980106Y2391583D01*
X1979850Y2391158D01*
X1979583Y2390740D01*
X1979306Y2390328D01*
X1979019Y2389923D01*
X1978723Y2389526D01*
X1978417Y2389135D01*
X1978102Y2388752D01*
X1977777Y2388377D01*
X1977444Y2388009D01*
X1977102Y2387650D01*
X1976751Y2387299D01*
X1976392Y2386957D01*
X1976024Y2386624D01*
X1975649Y2386299D01*
X1975266Y2385984D01*
X1974875Y2385678D01*
X1974478Y2385382D01*
X1974073Y2385095D01*
X1973661Y2384818D01*
X1973243Y2384551D01*
X1972818Y2384295D01*
X1972388Y2384048D01*
X1971951Y2383812D01*
X1971509Y2383587D01*
X1971062Y2383373D01*
X1970610Y2383169D01*
X1970152Y2382977D01*
X1969691Y2382795D01*
X1969225Y2382625D01*
X1968755Y2382466D01*
X1968281Y2382318D01*
X1967804Y2382182D01*
X1967324Y2382058D01*
X1966841Y2381945D01*
X1966355Y2381843D01*
X1965867Y2381754D01*
X1965377Y2381676D01*
X1964885Y2381611D01*
X1964392Y2381557D01*
X1963898Y2381515D01*
X1963403Y2381485D01*
X1962907Y2381467D01*
X1962411Y2381461D01*
X1962411Y2381462D02*
X1911089Y2381462D01*
X1910585Y2381468D01*
X1910082Y2381487D01*
X1909579Y2381518D01*
X1909077Y2381561D01*
X1908576Y2381616D01*
X1908077Y2381684D01*
X1907579Y2381764D01*
X1907084Y2381856D01*
X1906591Y2381961D01*
X1906101Y2382077D01*
X1905614Y2382206D01*
X1905130Y2382346D01*
X1904650Y2382498D01*
X1904173Y2382662D01*
X1903701Y2382838D01*
X1903233Y2383025D01*
X1902770Y2383223D01*
X1902312Y2383433D01*
X1901859Y2383654D01*
X1901412Y2383886D01*
X1900970Y2384129D01*
X1900535Y2384383D01*
X1900106Y2384647D01*
X1899684Y2384922D01*
X1899268Y2385207D01*
X1898860Y2385502D01*
X1898459Y2385807D01*
X1898066Y2386122D01*
X1897680Y2386446D01*
X1897303Y2386780D01*
X1896934Y2387123D01*
X1896573Y2387475D01*
X1896221Y2387835D01*
X1895878Y2388204D01*
X1895544Y2388582D01*
X1895220Y2388967D01*
X1894905Y2389361D01*
X1894600Y2389762D01*
X1894305Y2390170D01*
X1894020Y2390585D01*
X1893745Y2391008D01*
X1893481Y2391437D01*
X1893227Y2391872D01*
X1892984Y2392313D01*
X1892752Y2392761D01*
X1892531Y2393213D01*
X1892321Y2393671D01*
X1892123Y2394134D01*
X1891936Y2394602D01*
X1891760Y2395075D01*
X1891596Y2395551D01*
X1891444Y2396031D01*
X1891304Y2396515D01*
X1891175Y2397002D01*
X1891059Y2397493D01*
X1890955Y2397985D01*
X1890862Y2398481D01*
X1890782Y2398978D01*
X1890714Y2399477D01*
X1890659Y2399978D01*
X1890616Y2400480D01*
X1890585Y2400983D01*
X1890566Y2401487D01*
X1890560Y2401990D01*
X1890560Y2422519D01*
X1982940Y2456716D02*
X1982940Y2482377D01*
X1982932Y2483002D01*
X1982910Y2483626D01*
X1982872Y2484250D01*
X1982818Y2484873D01*
X1982750Y2485494D01*
X1982667Y2486113D01*
X1982568Y2486730D01*
X1982455Y2487345D01*
X1982326Y2487956D01*
X1982183Y2488565D01*
X1982025Y2489169D01*
X1981852Y2489770D01*
X1981665Y2490366D01*
X1981463Y2490958D01*
X1981247Y2491544D01*
X1981016Y2492125D01*
X1980772Y2492700D01*
X1980514Y2493269D01*
X1980242Y2493832D01*
X1979956Y2494387D01*
X1979657Y2494936D01*
X1979344Y2495477D01*
X1979019Y2496011D01*
X1978680Y2496536D01*
X1978329Y2497053D01*
X1977965Y2497561D01*
X1977590Y2498060D01*
X1977202Y2498550D01*
X1976802Y2499031D01*
X1976391Y2499501D01*
X1975968Y2499961D01*
X1975534Y2500411D01*
X1975090Y2500850D01*
X1974635Y2501279D01*
X1974169Y2501696D01*
X1973694Y2502101D01*
X1973208Y2502495D01*
X1972714Y2502877D01*
X1972210Y2503247D01*
X1971697Y2503604D01*
X1971176Y2503949D01*
X1970647Y2504281D01*
X1970110Y2504600D01*
X1969565Y2504906D01*
X1969012Y2505198D01*
X1968453Y2505477D01*
X1967887Y2505743D01*
X1967315Y2505994D01*
X1966737Y2506231D01*
X1966153Y2506455D01*
X1965564Y2506664D01*
X1964971Y2506858D01*
X1964372Y2507038D01*
X1963770Y2507204D01*
X1963163Y2507354D01*
X1962553Y2507490D01*
X1961940Y2507611D01*
X1961324Y2507717D01*
X1960706Y2507808D01*
X1960086Y2507884D01*
X1959464Y2507945D01*
X1958840Y2507990D01*
X1958216Y2508021D01*
X1957591Y2508036D01*
X1956967Y2508036D01*
X1956342Y2508021D01*
X1955718Y2507990D01*
X1955094Y2507945D01*
X1954472Y2507884D01*
X1953852Y2507808D01*
X1953234Y2507717D01*
X1952618Y2507611D01*
X1952005Y2507490D01*
X1951395Y2507354D01*
X1950788Y2507204D01*
X1950186Y2507038D01*
X1949587Y2506858D01*
X1948994Y2506664D01*
X1948405Y2506455D01*
X1947821Y2506231D01*
X1947243Y2505994D01*
X1946671Y2505743D01*
X1946105Y2505477D01*
X1945546Y2505198D01*
X1944993Y2504906D01*
X1944449Y2504600D01*
X1943911Y2504281D01*
X1943382Y2503949D01*
X1942861Y2503604D01*
X1942348Y2503247D01*
X1941844Y2502877D01*
X1941350Y2502495D01*
X1940864Y2502101D01*
X1940389Y2501696D01*
X1939923Y2501279D01*
X1939468Y2500850D01*
X1939024Y2500411D01*
X1938590Y2499961D01*
X1938167Y2499501D01*
X1937756Y2499031D01*
X1937356Y2498550D01*
X1936968Y2498060D01*
X1936593Y2497561D01*
X1936229Y2497053D01*
X1935878Y2496536D01*
X1935539Y2496011D01*
X1935214Y2495477D01*
X1934901Y2494936D01*
X1934602Y2494387D01*
X1934316Y2493832D01*
X1934044Y2493269D01*
X1933786Y2492700D01*
X1933542Y2492125D01*
X1933311Y2491544D01*
X1933095Y2490958D01*
X1932893Y2490366D01*
X1932706Y2489770D01*
X1932533Y2489169D01*
X1932375Y2488565D01*
X1932232Y2487956D01*
X1932103Y2487345D01*
X1931990Y2486730D01*
X1931891Y2486113D01*
X1931808Y2485494D01*
X1931740Y2484873D01*
X1931686Y2484250D01*
X1931648Y2483626D01*
X1931626Y2483002D01*
X1931618Y2482377D01*
X1890560Y2487509D02*
X1890560Y2456716D01*
X1890560Y2487509D02*
X1890566Y2488009D01*
X1890584Y2488509D01*
X1890615Y2489008D01*
X1890657Y2489506D01*
X1890712Y2490003D01*
X1890779Y2490498D01*
X1890858Y2490992D01*
X1890948Y2491483D01*
X1891051Y2491973D01*
X1891166Y2492459D01*
X1891292Y2492943D01*
X1891430Y2493423D01*
X1891580Y2493900D01*
X1891742Y2494374D01*
X1891915Y2494843D01*
X1892099Y2495307D01*
X1892294Y2495767D01*
X1892501Y2496223D01*
X1892719Y2496673D01*
X1892947Y2497117D01*
X1893187Y2497556D01*
X1893437Y2497989D01*
X1893697Y2498416D01*
X1893968Y2498836D01*
X1894249Y2499250D01*
X1894540Y2499656D01*
X1894840Y2500056D01*
X1895151Y2500448D01*
X1895471Y2500832D01*
X1895800Y2501208D01*
X1896138Y2501577D01*
X1896485Y2501937D01*
X1896840Y2502288D01*
X1897204Y2502630D01*
X1897577Y2502964D01*
X1897957Y2503289D01*
X1898345Y2503604D01*
X1898741Y2503909D01*
X1899144Y2504205D01*
X1899554Y2504491D01*
X1899971Y2504767D01*
X1900395Y2505032D01*
X1900825Y2505288D01*
X1901260Y2505532D01*
X1901702Y2505766D01*
X1902150Y2505989D01*
X1902602Y2506202D01*
X1903060Y2506403D01*
X1903522Y2506593D01*
X1903989Y2506771D01*
X1904461Y2506938D01*
X1904936Y2507094D01*
X1905414Y2507238D01*
X1905897Y2507370D01*
X1906382Y2507491D01*
X1906870Y2507600D01*
X1907360Y2507697D01*
X1907853Y2507781D01*
X1908347Y2507854D01*
X1908844Y2507915D01*
X1909341Y2507963D01*
X1909840Y2508000D01*
X1910339Y2508024D01*
X1910839Y2508036D01*
X1911339Y2508036D01*
X1911839Y2508024D01*
X1912338Y2508000D01*
X1912837Y2507963D01*
X1913334Y2507915D01*
X1913831Y2507854D01*
X1914325Y2507781D01*
X1914818Y2507697D01*
X1915308Y2507600D01*
X1915796Y2507491D01*
X1916281Y2507370D01*
X1916764Y2507238D01*
X1917242Y2507094D01*
X1917717Y2506938D01*
X1918189Y2506771D01*
X1918656Y2506593D01*
X1919118Y2506403D01*
X1919576Y2506202D01*
X1920028Y2505989D01*
X1920476Y2505766D01*
X1920918Y2505532D01*
X1921354Y2505288D01*
X1921783Y2505032D01*
X1922207Y2504767D01*
X1922624Y2504491D01*
X1923034Y2504205D01*
X1923437Y2503909D01*
X1923833Y2503604D01*
X1924221Y2503289D01*
X1924601Y2502964D01*
X1924974Y2502630D01*
X1925338Y2502288D01*
X1925693Y2501937D01*
X1926040Y2501577D01*
X1926378Y2501208D01*
X1926707Y2500832D01*
X1927027Y2500448D01*
X1927338Y2500056D01*
X1927638Y2499656D01*
X1927929Y2499250D01*
X1928210Y2498836D01*
X1928481Y2498416D01*
X1928741Y2497989D01*
X1928991Y2497556D01*
X1929231Y2497117D01*
X1929459Y2496673D01*
X1929677Y2496223D01*
X1929884Y2495767D01*
X1930079Y2495307D01*
X1930263Y2494843D01*
X1930436Y2494374D01*
X1930598Y2493900D01*
X1930748Y2493423D01*
X1930886Y2492943D01*
X1931012Y2492459D01*
X1931127Y2491973D01*
X1931230Y2491483D01*
X1931320Y2490992D01*
X1931399Y2490498D01*
X1931466Y2490003D01*
X1931521Y2489506D01*
X1931563Y2489008D01*
X1931594Y2488509D01*
X1931612Y2488009D01*
X1931618Y2487509D01*
X1931618Y2466981D01*
X2903690Y2422519D02*
X2903690Y2401990D01*
X2903684Y2401494D01*
X2903666Y2400998D01*
X2903636Y2400503D01*
X2903594Y2400009D01*
X2903540Y2399516D01*
X2903475Y2399024D01*
X2903397Y2398534D01*
X2903308Y2398046D01*
X2903206Y2397560D01*
X2903093Y2397077D01*
X2902969Y2396597D01*
X2902833Y2396120D01*
X2902685Y2395646D01*
X2902526Y2395176D01*
X2902356Y2394710D01*
X2902174Y2394249D01*
X2901982Y2393791D01*
X2901778Y2393339D01*
X2901564Y2392892D01*
X2901339Y2392450D01*
X2901103Y2392013D01*
X2900856Y2391583D01*
X2900600Y2391158D01*
X2900333Y2390740D01*
X2900056Y2390328D01*
X2899769Y2389923D01*
X2899473Y2389526D01*
X2899167Y2389135D01*
X2898852Y2388752D01*
X2898527Y2388377D01*
X2898194Y2388009D01*
X2897852Y2387650D01*
X2897501Y2387299D01*
X2897142Y2386957D01*
X2896774Y2386624D01*
X2896399Y2386299D01*
X2896016Y2385984D01*
X2895625Y2385678D01*
X2895228Y2385382D01*
X2894823Y2385095D01*
X2894411Y2384818D01*
X2893993Y2384551D01*
X2893568Y2384295D01*
X2893138Y2384048D01*
X2892701Y2383812D01*
X2892259Y2383587D01*
X2891812Y2383373D01*
X2891360Y2383169D01*
X2890902Y2382977D01*
X2890441Y2382795D01*
X2889975Y2382625D01*
X2889505Y2382466D01*
X2889031Y2382318D01*
X2888554Y2382182D01*
X2888074Y2382058D01*
X2887591Y2381945D01*
X2887105Y2381843D01*
X2886617Y2381754D01*
X2886127Y2381676D01*
X2885635Y2381611D01*
X2885142Y2381557D01*
X2884648Y2381515D01*
X2884153Y2381485D01*
X2883657Y2381467D01*
X2883161Y2381461D01*
X2883161Y2381462D02*
X2831839Y2381462D01*
X2831335Y2381468D01*
X2830832Y2381487D01*
X2830329Y2381518D01*
X2829827Y2381561D01*
X2829326Y2381616D01*
X2828827Y2381684D01*
X2828329Y2381764D01*
X2827834Y2381856D01*
X2827341Y2381961D01*
X2826851Y2382077D01*
X2826364Y2382206D01*
X2825880Y2382346D01*
X2825400Y2382498D01*
X2824923Y2382662D01*
X2824451Y2382838D01*
X2823983Y2383025D01*
X2823520Y2383223D01*
X2823062Y2383433D01*
X2822609Y2383654D01*
X2822162Y2383886D01*
X2821720Y2384129D01*
X2821285Y2384383D01*
X2820856Y2384647D01*
X2820434Y2384922D01*
X2820018Y2385207D01*
X2819610Y2385502D01*
X2819209Y2385807D01*
X2818816Y2386122D01*
X2818430Y2386446D01*
X2818053Y2386780D01*
X2817684Y2387123D01*
X2817323Y2387475D01*
X2816971Y2387835D01*
X2816628Y2388204D01*
X2816294Y2388582D01*
X2815970Y2388967D01*
X2815655Y2389361D01*
X2815350Y2389762D01*
X2815055Y2390170D01*
X2814770Y2390585D01*
X2814495Y2391008D01*
X2814231Y2391437D01*
X2813977Y2391872D01*
X2813734Y2392313D01*
X2813502Y2392761D01*
X2813281Y2393213D01*
X2813071Y2393671D01*
X2812873Y2394134D01*
X2812686Y2394602D01*
X2812510Y2395075D01*
X2812346Y2395551D01*
X2812194Y2396031D01*
X2812054Y2396515D01*
X2811925Y2397002D01*
X2811809Y2397493D01*
X2811705Y2397985D01*
X2811612Y2398481D01*
X2811532Y2398978D01*
X2811464Y2399477D01*
X2811409Y2399978D01*
X2811366Y2400480D01*
X2811335Y2400983D01*
X2811316Y2401487D01*
X2811310Y2401990D01*
X2811310Y2422519D01*
X2903690Y2456716D02*
X2903690Y2487509D01*
X2903684Y2488005D01*
X2903666Y2488501D01*
X2903636Y2488996D01*
X2903594Y2489490D01*
X2903540Y2489983D01*
X2903475Y2490475D01*
X2903397Y2490965D01*
X2903308Y2491453D01*
X2903206Y2491939D01*
X2903093Y2492422D01*
X2902969Y2492902D01*
X2902833Y2493379D01*
X2902685Y2493853D01*
X2902526Y2494323D01*
X2902356Y2494789D01*
X2902174Y2495250D01*
X2901982Y2495708D01*
X2901778Y2496160D01*
X2901564Y2496607D01*
X2901339Y2497049D01*
X2901103Y2497486D01*
X2900856Y2497916D01*
X2900600Y2498341D01*
X2900333Y2498759D01*
X2900056Y2499171D01*
X2899769Y2499576D01*
X2899473Y2499973D01*
X2899167Y2500364D01*
X2898852Y2500747D01*
X2898527Y2501122D01*
X2898194Y2501490D01*
X2897852Y2501849D01*
X2897501Y2502200D01*
X2897142Y2502542D01*
X2896774Y2502875D01*
X2896399Y2503200D01*
X2896016Y2503515D01*
X2895625Y2503821D01*
X2895228Y2504117D01*
X2894823Y2504404D01*
X2894411Y2504681D01*
X2893993Y2504948D01*
X2893568Y2505204D01*
X2893138Y2505451D01*
X2892701Y2505687D01*
X2892259Y2505912D01*
X2891812Y2506126D01*
X2891360Y2506330D01*
X2890902Y2506522D01*
X2890441Y2506704D01*
X2889975Y2506874D01*
X2889505Y2507033D01*
X2889031Y2507181D01*
X2888554Y2507317D01*
X2888074Y2507441D01*
X2887591Y2507554D01*
X2887105Y2507656D01*
X2886617Y2507745D01*
X2886127Y2507823D01*
X2885635Y2507888D01*
X2885142Y2507942D01*
X2884648Y2507984D01*
X2884153Y2508014D01*
X2883657Y2508032D01*
X2883161Y2508038D01*
X2872897Y2508038D01*
X2872393Y2508032D01*
X2871890Y2508013D01*
X2871387Y2507982D01*
X2870885Y2507939D01*
X2870384Y2507884D01*
X2869885Y2507816D01*
X2869387Y2507736D01*
X2868892Y2507644D01*
X2868399Y2507539D01*
X2867909Y2507423D01*
X2867422Y2507294D01*
X2866938Y2507154D01*
X2866457Y2507002D01*
X2865981Y2506838D01*
X2865509Y2506662D01*
X2865041Y2506475D01*
X2864578Y2506277D01*
X2864120Y2506067D01*
X2863667Y2505846D01*
X2863220Y2505614D01*
X2862778Y2505371D01*
X2862343Y2505117D01*
X2861914Y2504853D01*
X2861492Y2504578D01*
X2861076Y2504293D01*
X2860668Y2503998D01*
X2860267Y2503693D01*
X2859874Y2503378D01*
X2859488Y2503054D01*
X2859111Y2502720D01*
X2858742Y2502377D01*
X2858381Y2502025D01*
X2858029Y2501665D01*
X2857686Y2501296D01*
X2857352Y2500918D01*
X2857028Y2500533D01*
X2856713Y2500139D01*
X2856408Y2499738D01*
X2856113Y2499330D01*
X2855828Y2498914D01*
X2855553Y2498492D01*
X2855289Y2498063D01*
X2855035Y2497628D01*
X2854792Y2497186D01*
X2854560Y2496739D01*
X2854339Y2496286D01*
X2854129Y2495828D01*
X2853931Y2495365D01*
X2853744Y2494898D01*
X2853568Y2494425D01*
X2853404Y2493949D01*
X2853252Y2493468D01*
X2853112Y2492985D01*
X2852983Y2492497D01*
X2852867Y2492007D01*
X2852763Y2491514D01*
X2852670Y2491019D01*
X2852590Y2490522D01*
X2852522Y2490022D01*
X2852467Y2489521D01*
X2852424Y2489020D01*
X2852393Y2488517D01*
X2852374Y2488013D01*
X2852368Y2487509D01*
X2852368Y2456716D01*
X2811310Y2456716D01*
X2811310Y2508038D01*
X2708269Y1731810D02*
X2687740Y1731810D01*
X2687244Y1731816D01*
X2686748Y1731834D01*
X2686253Y1731864D01*
X2685759Y1731906D01*
X2685266Y1731960D01*
X2684774Y1732025D01*
X2684284Y1732103D01*
X2683796Y1732192D01*
X2683310Y1732294D01*
X2682827Y1732407D01*
X2682347Y1732531D01*
X2681870Y1732667D01*
X2681396Y1732815D01*
X2680926Y1732974D01*
X2680460Y1733144D01*
X2679999Y1733326D01*
X2679541Y1733518D01*
X2679089Y1733722D01*
X2678642Y1733936D01*
X2678200Y1734161D01*
X2677763Y1734397D01*
X2677333Y1734644D01*
X2676908Y1734900D01*
X2676490Y1735167D01*
X2676078Y1735444D01*
X2675673Y1735731D01*
X2675276Y1736027D01*
X2674885Y1736333D01*
X2674502Y1736648D01*
X2674127Y1736973D01*
X2673759Y1737306D01*
X2673400Y1737648D01*
X2673049Y1737999D01*
X2672707Y1738358D01*
X2672374Y1738726D01*
X2672049Y1739101D01*
X2671734Y1739484D01*
X2671428Y1739875D01*
X2671132Y1740272D01*
X2670845Y1740677D01*
X2670568Y1741089D01*
X2670301Y1741507D01*
X2670045Y1741932D01*
X2669798Y1742362D01*
X2669562Y1742799D01*
X2669337Y1743241D01*
X2669123Y1743688D01*
X2668919Y1744140D01*
X2668727Y1744598D01*
X2668545Y1745059D01*
X2668375Y1745525D01*
X2668216Y1745995D01*
X2668068Y1746469D01*
X2667932Y1746946D01*
X2667808Y1747426D01*
X2667695Y1747909D01*
X2667593Y1748395D01*
X2667504Y1748883D01*
X2667426Y1749373D01*
X2667361Y1749865D01*
X2667307Y1750358D01*
X2667265Y1750852D01*
X2667235Y1751347D01*
X2667217Y1751843D01*
X2667211Y1752339D01*
X2667212Y1752339D02*
X2667212Y1803661D01*
X2667218Y1804165D01*
X2667237Y1804668D01*
X2667268Y1805171D01*
X2667311Y1805673D01*
X2667366Y1806174D01*
X2667434Y1806673D01*
X2667514Y1807171D01*
X2667606Y1807666D01*
X2667711Y1808159D01*
X2667827Y1808649D01*
X2667956Y1809136D01*
X2668096Y1809620D01*
X2668248Y1810101D01*
X2668412Y1810577D01*
X2668588Y1811049D01*
X2668775Y1811517D01*
X2668973Y1811980D01*
X2669183Y1812438D01*
X2669404Y1812891D01*
X2669636Y1813338D01*
X2669879Y1813780D01*
X2670133Y1814215D01*
X2670397Y1814644D01*
X2670672Y1815066D01*
X2670957Y1815482D01*
X2671252Y1815890D01*
X2671557Y1816291D01*
X2671872Y1816684D01*
X2672196Y1817070D01*
X2672530Y1817447D01*
X2672873Y1817816D01*
X2673225Y1818177D01*
X2673585Y1818529D01*
X2673954Y1818872D01*
X2674332Y1819206D01*
X2674717Y1819530D01*
X2675111Y1819845D01*
X2675512Y1820150D01*
X2675920Y1820445D01*
X2676336Y1820730D01*
X2676758Y1821005D01*
X2677187Y1821269D01*
X2677622Y1821523D01*
X2678064Y1821766D01*
X2678511Y1821998D01*
X2678964Y1822219D01*
X2679422Y1822429D01*
X2679885Y1822627D01*
X2680352Y1822814D01*
X2680825Y1822990D01*
X2681301Y1823154D01*
X2681782Y1823306D01*
X2682265Y1823446D01*
X2682753Y1823575D01*
X2683243Y1823691D01*
X2683736Y1823795D01*
X2684231Y1823888D01*
X2684728Y1823968D01*
X2685228Y1824036D01*
X2685729Y1824091D01*
X2686230Y1824134D01*
X2686733Y1824165D01*
X2687237Y1824184D01*
X2687741Y1824190D01*
X2687740Y1824190D02*
X2708269Y1824190D01*
X2762995Y1824190D02*
X2742466Y1752339D01*
X2793788Y1752339D01*
X2778392Y1772868D02*
X2778392Y1731810D01*
D14*
X1143000Y2032000D02*
X1143000Y2159000D01*
X1206500Y2222500D01*
X1333500Y2222500D01*
X1397000Y2159000D01*
X1333500Y1968500D02*
X1206500Y1968500D01*
X1143000Y2032000D01*
X1333500Y1968500D02*
X1397000Y2032000D01*
X1397000Y2159000D01*
X1206500Y2222500D02*
X1143000Y2286000D01*
X1143000Y2413000D01*
X1206500Y2476500D01*
X1333500Y2476500D01*
X1397000Y2413000D01*
X1397000Y2286000D01*
X1333500Y2222500D01*
D15*
X1495527Y2304580D02*
X1465580Y2394420D01*
X1525473Y2394420D02*
X1495527Y2304580D01*
X1567527Y2304580D02*
X1567527Y2394420D01*
X1557544Y2304580D02*
X1577509Y2304580D01*
X1577509Y2394420D02*
X1557544Y2394420D01*
X1617571Y2394420D02*
X1617571Y2304580D01*
X1667482Y2304580D02*
X1617571Y2394420D01*
X1667482Y2394420D02*
X1667482Y2304580D01*
D14*
X3556000Y2159000D02*
X3556000Y2032000D01*
X3556000Y2159000D02*
X3619500Y2222500D01*
X3746500Y2222500D01*
X3810000Y2159000D01*
X3746500Y1968500D02*
X3619500Y1968500D01*
X3556000Y2032000D01*
X3746500Y1968500D02*
X3810000Y2032000D01*
X3810000Y2159000D01*
X3619500Y2222500D02*
X3556000Y2286000D01*
X3556000Y2413000D01*
X3619500Y2476500D01*
X3746500Y2476500D01*
X3810000Y2413000D01*
X3810000Y2286000D01*
X3746500Y2222500D01*
D15*
X3184845Y2296960D02*
X3154899Y2386800D01*
X3214792Y2386800D02*
X3184845Y2296960D01*
X3249890Y2321915D02*
X3249890Y2361844D01*
X3249897Y2362452D01*
X3249920Y2363059D01*
X3249957Y2363666D01*
X3250008Y2364271D01*
X3250075Y2364875D01*
X3250156Y2365477D01*
X3250252Y2366078D01*
X3250362Y2366675D01*
X3250487Y2367270D01*
X3250626Y2367862D01*
X3250780Y2368449D01*
X3250948Y2369034D01*
X3251130Y2369613D01*
X3251326Y2370188D01*
X3251537Y2370759D01*
X3251761Y2371324D01*
X3251998Y2371883D01*
X3252250Y2372436D01*
X3252514Y2372983D01*
X3252792Y2373524D01*
X3253083Y2374057D01*
X3253387Y2374584D01*
X3253703Y2375102D01*
X3254033Y2375613D01*
X3254374Y2376116D01*
X3254728Y2376610D01*
X3255093Y2377096D01*
X3255470Y2377572D01*
X3255859Y2378039D01*
X3256259Y2378497D01*
X3256670Y2378945D01*
X3257092Y2379382D01*
X3257524Y2379809D01*
X3257967Y2380226D01*
X3258420Y2380631D01*
X3258882Y2381026D01*
X3259354Y2381409D01*
X3259835Y2381780D01*
X3260325Y2382140D01*
X3260823Y2382487D01*
X3261330Y2382823D01*
X3261845Y2383145D01*
X3262368Y2383456D01*
X3262897Y2383753D01*
X3263435Y2384038D01*
X3263978Y2384309D01*
X3264529Y2384567D01*
X3265085Y2384811D01*
X3265647Y2385042D01*
X3266215Y2385259D01*
X3266788Y2385462D01*
X3267365Y2385652D01*
X3267947Y2385827D01*
X3268533Y2385988D01*
X3269123Y2386134D01*
X3269716Y2386266D01*
X3270312Y2386384D01*
X3270911Y2386487D01*
X3271512Y2386575D01*
X3272116Y2386649D01*
X3272720Y2386708D01*
X3273327Y2386753D01*
X3273934Y2386782D01*
X3274541Y2386797D01*
X3275149Y2386797D01*
X3275756Y2386782D01*
X3276363Y2386753D01*
X3276970Y2386708D01*
X3277574Y2386649D01*
X3278178Y2386575D01*
X3278779Y2386487D01*
X3279378Y2386384D01*
X3279974Y2386266D01*
X3280567Y2386134D01*
X3281157Y2385988D01*
X3281743Y2385827D01*
X3282325Y2385652D01*
X3282902Y2385462D01*
X3283475Y2385259D01*
X3284043Y2385042D01*
X3284605Y2384811D01*
X3285161Y2384567D01*
X3285712Y2384309D01*
X3286255Y2384038D01*
X3286793Y2383753D01*
X3287323Y2383456D01*
X3287845Y2383145D01*
X3288360Y2382823D01*
X3288867Y2382487D01*
X3289365Y2382140D01*
X3289855Y2381780D01*
X3290336Y2381409D01*
X3290808Y2381026D01*
X3291270Y2380631D01*
X3291723Y2380226D01*
X3292166Y2379809D01*
X3292598Y2379382D01*
X3293020Y2378945D01*
X3293431Y2378497D01*
X3293831Y2378039D01*
X3294220Y2377572D01*
X3294597Y2377096D01*
X3294962Y2376610D01*
X3295316Y2376116D01*
X3295657Y2375613D01*
X3295987Y2375102D01*
X3296303Y2374584D01*
X3296607Y2374057D01*
X3296898Y2373524D01*
X3297176Y2372983D01*
X3297440Y2372436D01*
X3297692Y2371883D01*
X3297929Y2371324D01*
X3298153Y2370759D01*
X3298364Y2370188D01*
X3298560Y2369613D01*
X3298742Y2369034D01*
X3298910Y2368449D01*
X3299064Y2367862D01*
X3299203Y2367270D01*
X3299328Y2366675D01*
X3299438Y2366078D01*
X3299534Y2365477D01*
X3299615Y2364875D01*
X3299682Y2364271D01*
X3299733Y2363666D01*
X3299770Y2363059D01*
X3299793Y2362452D01*
X3299800Y2361844D01*
X3299801Y2361844D02*
X3299801Y2321915D01*
X3299794Y2321307D01*
X3299771Y2320700D01*
X3299734Y2320093D01*
X3299683Y2319488D01*
X3299616Y2318884D01*
X3299535Y2318281D01*
X3299439Y2317681D01*
X3299329Y2317084D01*
X3299204Y2316489D01*
X3299065Y2315897D01*
X3298911Y2315309D01*
X3298743Y2314725D01*
X3298561Y2314145D01*
X3298364Y2313570D01*
X3298154Y2313000D01*
X3297930Y2312435D01*
X3297693Y2311876D01*
X3297441Y2311322D01*
X3297177Y2310775D01*
X3296899Y2310235D01*
X3296608Y2309701D01*
X3296304Y2309175D01*
X3295987Y2308656D01*
X3295658Y2308145D01*
X3295317Y2307642D01*
X3294963Y2307148D01*
X3294598Y2306663D01*
X3294220Y2306186D01*
X3293832Y2305719D01*
X3293432Y2305261D01*
X3293020Y2304814D01*
X3292599Y2304376D01*
X3292166Y2303949D01*
X3291724Y2303533D01*
X3291271Y2303127D01*
X3290809Y2302733D01*
X3290337Y2302350D01*
X3289856Y2301978D01*
X3289366Y2301619D01*
X3288867Y2301271D01*
X3288360Y2300936D01*
X3287846Y2300613D01*
X3287323Y2300302D01*
X3286793Y2300005D01*
X3286256Y2299721D01*
X3285712Y2299449D01*
X3285162Y2299191D01*
X3284605Y2298947D01*
X3284043Y2298716D01*
X3283476Y2298499D01*
X3282903Y2298296D01*
X3282325Y2298106D01*
X3281743Y2297931D01*
X3281157Y2297770D01*
X3280567Y2297624D01*
X3279974Y2297492D01*
X3279378Y2297374D01*
X3278779Y2297271D01*
X3278178Y2297183D01*
X3277574Y2297109D01*
X3276970Y2297050D01*
X3276363Y2297005D01*
X3275756Y2296976D01*
X3275149Y2296961D01*
X3274541Y2296961D01*
X3273934Y2296976D01*
X3273327Y2297005D01*
X3272720Y2297050D01*
X3272116Y2297109D01*
X3271512Y2297183D01*
X3270911Y2297271D01*
X3270312Y2297374D01*
X3269716Y2297492D01*
X3269123Y2297624D01*
X3268533Y2297770D01*
X3267947Y2297931D01*
X3267365Y2298106D01*
X3266787Y2298296D01*
X3266214Y2298499D01*
X3265647Y2298716D01*
X3265085Y2298947D01*
X3264528Y2299191D01*
X3263978Y2299449D01*
X3263434Y2299721D01*
X3262897Y2300005D01*
X3262367Y2300302D01*
X3261844Y2300613D01*
X3261330Y2300936D01*
X3260823Y2301271D01*
X3260324Y2301619D01*
X3259834Y2301978D01*
X3259353Y2302350D01*
X3258881Y2302733D01*
X3258419Y2303127D01*
X3257966Y2303533D01*
X3257524Y2303949D01*
X3257091Y2304376D01*
X3256670Y2304814D01*
X3256258Y2305261D01*
X3255858Y2305719D01*
X3255470Y2306186D01*
X3255092Y2306663D01*
X3254727Y2307148D01*
X3254373Y2307642D01*
X3254032Y2308145D01*
X3253703Y2308656D01*
X3253386Y2309175D01*
X3253082Y2309701D01*
X3252791Y2310235D01*
X3252513Y2310775D01*
X3252249Y2311322D01*
X3251997Y2311876D01*
X3251760Y2312435D01*
X3251536Y2313000D01*
X3251326Y2313570D01*
X3251129Y2314145D01*
X3250947Y2314725D01*
X3250779Y2315309D01*
X3250625Y2315897D01*
X3250486Y2316489D01*
X3250361Y2317084D01*
X3250251Y2317681D01*
X3250155Y2318281D01*
X3250074Y2318884D01*
X3250007Y2319488D01*
X3249956Y2320093D01*
X3249919Y2320700D01*
X3249896Y2321307D01*
X3249889Y2321915D01*
X3342889Y2321915D02*
X3342889Y2386800D01*
X3342890Y2321915D02*
X3342897Y2321307D01*
X3342920Y2320700D01*
X3342957Y2320093D01*
X3343008Y2319488D01*
X3343075Y2318884D01*
X3343156Y2318282D01*
X3343252Y2317681D01*
X3343362Y2317084D01*
X3343487Y2316489D01*
X3343626Y2315897D01*
X3343780Y2315310D01*
X3343948Y2314725D01*
X3344130Y2314146D01*
X3344326Y2313571D01*
X3344537Y2313000D01*
X3344761Y2312435D01*
X3344998Y2311876D01*
X3345250Y2311323D01*
X3345514Y2310776D01*
X3345792Y2310235D01*
X3346083Y2309702D01*
X3346387Y2309175D01*
X3346703Y2308657D01*
X3347033Y2308146D01*
X3347374Y2307643D01*
X3347728Y2307149D01*
X3348093Y2306663D01*
X3348470Y2306187D01*
X3348859Y2305720D01*
X3349259Y2305262D01*
X3349670Y2304814D01*
X3350092Y2304377D01*
X3350524Y2303950D01*
X3350967Y2303533D01*
X3351420Y2303128D01*
X3351882Y2302733D01*
X3352354Y2302350D01*
X3352835Y2301979D01*
X3353325Y2301619D01*
X3353823Y2301272D01*
X3354330Y2300936D01*
X3354845Y2300614D01*
X3355368Y2300303D01*
X3355897Y2300006D01*
X3356435Y2299721D01*
X3356978Y2299450D01*
X3357529Y2299192D01*
X3358085Y2298948D01*
X3358647Y2298717D01*
X3359215Y2298500D01*
X3359788Y2298297D01*
X3360365Y2298107D01*
X3360947Y2297932D01*
X3361533Y2297771D01*
X3362123Y2297625D01*
X3362716Y2297493D01*
X3363312Y2297375D01*
X3363911Y2297272D01*
X3364512Y2297184D01*
X3365116Y2297110D01*
X3365720Y2297051D01*
X3366327Y2297006D01*
X3366934Y2296977D01*
X3367541Y2296962D01*
X3368149Y2296962D01*
X3368756Y2296977D01*
X3369363Y2297006D01*
X3369970Y2297051D01*
X3370574Y2297110D01*
X3371178Y2297184D01*
X3371779Y2297272D01*
X3372378Y2297375D01*
X3372974Y2297493D01*
X3373567Y2297625D01*
X3374157Y2297771D01*
X3374743Y2297932D01*
X3375325Y2298107D01*
X3375902Y2298297D01*
X3376475Y2298500D01*
X3377043Y2298717D01*
X3377605Y2298948D01*
X3378161Y2299192D01*
X3378712Y2299450D01*
X3379255Y2299721D01*
X3379793Y2300006D01*
X3380323Y2300303D01*
X3380845Y2300614D01*
X3381360Y2300936D01*
X3381867Y2301272D01*
X3382365Y2301619D01*
X3382855Y2301979D01*
X3383336Y2302350D01*
X3383808Y2302733D01*
X3384270Y2303128D01*
X3384723Y2303533D01*
X3385166Y2303950D01*
X3385598Y2304377D01*
X3386020Y2304814D01*
X3386431Y2305262D01*
X3386831Y2305720D01*
X3387220Y2306187D01*
X3387597Y2306663D01*
X3387962Y2307149D01*
X3388316Y2307643D01*
X3388657Y2308146D01*
X3388987Y2308657D01*
X3389303Y2309175D01*
X3389607Y2309702D01*
X3389898Y2310235D01*
X3390176Y2310776D01*
X3390440Y2311323D01*
X3390692Y2311876D01*
X3390929Y2312435D01*
X3391153Y2313000D01*
X3391364Y2313571D01*
X3391560Y2314146D01*
X3391742Y2314725D01*
X3391910Y2315310D01*
X3392064Y2315897D01*
X3392203Y2316489D01*
X3392328Y2317084D01*
X3392438Y2317681D01*
X3392534Y2318282D01*
X3392615Y2318884D01*
X3392682Y2319488D01*
X3392733Y2320093D01*
X3392770Y2320700D01*
X3392793Y2321307D01*
X3392800Y2321915D01*
X3392800Y2386800D01*
X3454844Y2386800D02*
X3454844Y2296960D01*
X3429889Y2386800D02*
X3479800Y2386800D01*
D14*
X2222500Y1651000D02*
X2095500Y1651000D01*
X2222500Y1651000D02*
X2286000Y1587500D01*
X2286000Y1460500D01*
X2222500Y1397000D01*
X2286000Y1587500D02*
X2349500Y1651000D01*
X2476500Y1651000D01*
X2540000Y1587500D01*
X2540000Y1460500D01*
X2476500Y1397000D01*
X2349500Y1397000D01*
X2286000Y1460500D01*
X2032000Y1460500D02*
X2032000Y1587500D01*
X2095500Y1651000D01*
X2032000Y1460500D02*
X2095500Y1397000D01*
X2222500Y1397000D01*
X2540000Y1587500D02*
X2603500Y1651000D01*
X2730500Y1651000D01*
X2794000Y1587500D01*
X2794000Y1460500D01*
X2730500Y1397000D01*
X2603500Y1397000D01*
X2540000Y1460500D01*
D11*
X2215622Y1922310D02*
X2215622Y2014690D01*
X2241283Y2014690D01*
X2241908Y2014682D01*
X2242532Y2014660D01*
X2243156Y2014622D01*
X2243779Y2014568D01*
X2244400Y2014500D01*
X2245019Y2014417D01*
X2245636Y2014318D01*
X2246251Y2014205D01*
X2246862Y2014076D01*
X2247471Y2013933D01*
X2248075Y2013775D01*
X2248676Y2013602D01*
X2249272Y2013415D01*
X2249864Y2013213D01*
X2250450Y2012997D01*
X2251031Y2012766D01*
X2251606Y2012522D01*
X2252175Y2012264D01*
X2252738Y2011992D01*
X2253293Y2011706D01*
X2253842Y2011407D01*
X2254383Y2011094D01*
X2254917Y2010769D01*
X2255442Y2010430D01*
X2255959Y2010079D01*
X2256467Y2009715D01*
X2256966Y2009340D01*
X2257456Y2008952D01*
X2257937Y2008552D01*
X2258407Y2008141D01*
X2258867Y2007718D01*
X2259317Y2007284D01*
X2259756Y2006840D01*
X2260185Y2006385D01*
X2260602Y2005919D01*
X2261007Y2005444D01*
X2261401Y2004958D01*
X2261783Y2004464D01*
X2262153Y2003960D01*
X2262510Y2003447D01*
X2262855Y2002926D01*
X2263187Y2002397D01*
X2263506Y2001860D01*
X2263812Y2001315D01*
X2264104Y2000762D01*
X2264383Y2000203D01*
X2264649Y1999637D01*
X2264900Y1999065D01*
X2265137Y1998487D01*
X2265361Y1997903D01*
X2265570Y1997314D01*
X2265764Y1996721D01*
X2265944Y1996122D01*
X2266110Y1995520D01*
X2266260Y1994913D01*
X2266396Y1994303D01*
X2266517Y1993690D01*
X2266623Y1993074D01*
X2266714Y1992456D01*
X2266790Y1991836D01*
X2266851Y1991214D01*
X2266896Y1990590D01*
X2266927Y1989966D01*
X2266942Y1989341D01*
X2266942Y1988717D01*
X2266927Y1988092D01*
X2266896Y1987468D01*
X2266851Y1986844D01*
X2266790Y1986222D01*
X2266714Y1985602D01*
X2266623Y1984984D01*
X2266517Y1984368D01*
X2266396Y1983755D01*
X2266260Y1983145D01*
X2266110Y1982538D01*
X2265944Y1981936D01*
X2265764Y1981337D01*
X2265570Y1980744D01*
X2265361Y1980155D01*
X2265137Y1979571D01*
X2264900Y1978993D01*
X2264649Y1978421D01*
X2264383Y1977855D01*
X2264104Y1977296D01*
X2263812Y1976743D01*
X2263506Y1976199D01*
X2263187Y1975661D01*
X2262855Y1975132D01*
X2262510Y1974611D01*
X2262153Y1974098D01*
X2261783Y1973594D01*
X2261401Y1973100D01*
X2261007Y1972614D01*
X2260602Y1972139D01*
X2260185Y1971673D01*
X2259756Y1971218D01*
X2259317Y1970774D01*
X2258867Y1970340D01*
X2258407Y1969917D01*
X2257937Y1969506D01*
X2257456Y1969106D01*
X2256966Y1968718D01*
X2256467Y1968343D01*
X2255959Y1967979D01*
X2255442Y1967628D01*
X2254917Y1967289D01*
X2254383Y1966964D01*
X2253842Y1966651D01*
X2253293Y1966352D01*
X2252738Y1966066D01*
X2252175Y1965794D01*
X2251606Y1965536D01*
X2251031Y1965292D01*
X2250450Y1965061D01*
X2249864Y1964845D01*
X2249272Y1964643D01*
X2248676Y1964456D01*
X2248075Y1964283D01*
X2247471Y1964125D01*
X2246862Y1963982D01*
X2246251Y1963853D01*
X2245636Y1963740D01*
X2245019Y1963641D01*
X2244400Y1963558D01*
X2243779Y1963490D01*
X2243156Y1963436D01*
X2242532Y1963398D01*
X2241908Y1963376D01*
X2241283Y1963368D01*
X2215622Y1963368D01*
X2246415Y1963368D02*
X2266944Y1922310D01*
X2305056Y1994161D02*
X2330717Y2014690D01*
X2330717Y1922310D01*
X2305056Y1922310D02*
X2356378Y1922310D01*
M02*
