G04 EAGLE Gerber X2 export*
%TF.Part,Single*%
%TF.FileFunction,Other,Bottom layer*%
%TF.FilePolarity,Positive*%
%TF.GenerationSoftware,Autodesk,EAGLE,9.0.0*%
%TF.CreationDate,2018-05-03T06:24:42Z*%
G75*
%MOMM*%
%FSLAX35Y35*%
%LPD*%
%AMOC8*
5,1,8,0,0,1.08239X$1,22.5*%
G01*
%ADD10C,0.000000*%
%ADD11R,1.300000X1.500000*%
%ADD12R,1.500000X1.300000*%
%ADD13R,1.500000X2.700000*%
%ADD14C,1.524000*%
%ADD15R,1.800000X2.200000*%
%ADD16C,0.812800*%
%ADD17C,0.756400*%
%ADD18C,0.254000*%

G36*
X2093854Y1371608D02*
X2093854Y1371608D01*
X2093894Y1371601D01*
X2094825Y1371806D01*
X2095764Y1371996D01*
X2095798Y1372019D01*
X2095837Y1372028D01*
X2096614Y1372579D01*
X2097405Y1373122D01*
X2097427Y1373156D01*
X2097460Y1373179D01*
X2097958Y1373985D01*
X2098477Y1374798D01*
X2098484Y1374838D01*
X2098505Y1374873D01*
X2098650Y1375817D01*
X2098811Y1376760D01*
X2098801Y1376799D01*
X2098808Y1376839D01*
X2098572Y1377769D01*
X2098353Y1378696D01*
X2098328Y1378729D01*
X2098318Y1378768D01*
X2097349Y1380135D01*
X2081480Y1396003D01*
X2067559Y1429611D01*
X2067559Y1618389D01*
X2081480Y1651997D01*
X2107203Y1677719D01*
X2140811Y1691640D01*
X2177189Y1691640D01*
X2210797Y1677719D01*
X2236519Y1651997D01*
X2250440Y1618389D01*
X2250440Y1429611D01*
X2236519Y1396003D01*
X2220651Y1380135D01*
X2220629Y1380101D01*
X2220595Y1380078D01*
X2220077Y1379269D01*
X2219552Y1378476D01*
X2219544Y1378436D01*
X2219523Y1378402D01*
X2219363Y1377459D01*
X2219187Y1376520D01*
X2219196Y1376480D01*
X2219189Y1376440D01*
X2219410Y1375504D01*
X2219614Y1374576D01*
X2219638Y1374543D01*
X2219647Y1374503D01*
X2220216Y1373729D01*
X2220766Y1372953D01*
X2220800Y1372932D01*
X2220824Y1372899D01*
X2221652Y1372407D01*
X2222459Y1371908D01*
X2222499Y1371902D01*
X2222534Y1371881D01*
X2224186Y1371600D01*
X2347814Y1371600D01*
X2347854Y1371608D01*
X2347894Y1371601D01*
X2348825Y1371806D01*
X2349764Y1371996D01*
X2349798Y1372019D01*
X2349837Y1372028D01*
X2350614Y1372579D01*
X2351405Y1373122D01*
X2351427Y1373156D01*
X2351460Y1373179D01*
X2351958Y1373985D01*
X2352477Y1374798D01*
X2352484Y1374838D01*
X2352505Y1374873D01*
X2352650Y1375817D01*
X2352811Y1376760D01*
X2352801Y1376799D01*
X2352808Y1376839D01*
X2352572Y1377769D01*
X2352353Y1378696D01*
X2352328Y1378729D01*
X2352318Y1378768D01*
X2351349Y1380135D01*
X2335480Y1396003D01*
X2321559Y1429611D01*
X2321559Y1618389D01*
X2335480Y1651997D01*
X2361203Y1677719D01*
X2394811Y1691640D01*
X2431189Y1691640D01*
X2464797Y1677719D01*
X2490519Y1651997D01*
X2504440Y1618389D01*
X2504440Y1429611D01*
X2490519Y1396003D01*
X2474651Y1380135D01*
X2474629Y1380101D01*
X2474595Y1380078D01*
X2474077Y1379269D01*
X2473552Y1378476D01*
X2473544Y1378436D01*
X2473523Y1378402D01*
X2473363Y1377459D01*
X2473187Y1376520D01*
X2473196Y1376480D01*
X2473189Y1376440D01*
X2473410Y1375504D01*
X2473614Y1374576D01*
X2473638Y1374543D01*
X2473647Y1374503D01*
X2474216Y1373729D01*
X2474766Y1372953D01*
X2474800Y1372932D01*
X2474824Y1372899D01*
X2475652Y1372407D01*
X2476459Y1371908D01*
X2476499Y1371902D01*
X2476534Y1371881D01*
X2478186Y1371600D01*
X2587445Y1371600D01*
X2587485Y1371608D01*
X2587526Y1371601D01*
X2588461Y1371807D01*
X2589395Y1371996D01*
X2589429Y1372019D01*
X2589469Y1372028D01*
X2590249Y1372582D01*
X2591037Y1373122D01*
X2591059Y1373156D01*
X2591092Y1373180D01*
X2591593Y1373991D01*
X2592109Y1374798D01*
X2592116Y1374838D01*
X2592137Y1374873D01*
X2592283Y1375822D01*
X2592442Y1376760D01*
X2592433Y1376799D01*
X2592439Y1376840D01*
X2592204Y1377767D01*
X2591984Y1378696D01*
X2591960Y1378729D01*
X2591950Y1378769D01*
X2590980Y1380135D01*
X2589504Y1381611D01*
X2580103Y1394550D01*
X2572843Y1408798D01*
X2567901Y1424008D01*
X2565399Y1439803D01*
X2565399Y1514001D01*
X2661998Y1514001D01*
X2662078Y1514017D01*
X2662158Y1514003D01*
X2663052Y1514215D01*
X2663948Y1514397D01*
X2664015Y1514443D01*
X2664095Y1514461D01*
X2664835Y1515004D01*
X2665590Y1515522D01*
X2665633Y1515590D01*
X2665699Y1515638D01*
X2666169Y1516428D01*
X2666662Y1517198D01*
X2666675Y1517278D01*
X2666717Y1517348D01*
X2666998Y1519000D01*
X2666998Y1524002D01*
X2667002Y1524002D01*
X2667002Y1519000D01*
X2667018Y1518920D01*
X2667004Y1518840D01*
X2667216Y1517947D01*
X2667398Y1517050D01*
X2667444Y1516983D01*
X2667463Y1516904D01*
X2668005Y1516164D01*
X2668523Y1515409D01*
X2668592Y1515365D01*
X2668640Y1515299D01*
X2669429Y1514830D01*
X2670199Y1514337D01*
X2670279Y1514323D01*
X2670349Y1514281D01*
X2672001Y1514001D01*
X2768600Y1514001D01*
X2768600Y1439803D01*
X2766099Y1424008D01*
X2761156Y1408798D01*
X2753897Y1394550D01*
X2744496Y1381611D01*
X2743020Y1380135D01*
X2742997Y1380101D01*
X2742963Y1380078D01*
X2742443Y1379264D01*
X2741921Y1378476D01*
X2741913Y1378436D01*
X2741891Y1378402D01*
X2741730Y1377456D01*
X2741556Y1376520D01*
X2741564Y1376480D01*
X2741558Y1376440D01*
X2741778Y1375508D01*
X2741983Y1374577D01*
X2742006Y1374543D01*
X2742016Y1374503D01*
X2742581Y1373733D01*
X2743134Y1372954D01*
X2743168Y1372933D01*
X2743193Y1372899D01*
X2744018Y1372408D01*
X2744827Y1371908D01*
X2744867Y1371902D01*
X2744903Y1371881D01*
X2746554Y1371600D01*
X3619500Y1371600D01*
X3619645Y1371630D01*
X3619827Y1371611D01*
X3647355Y1373415D01*
X3647742Y1373521D01*
X3648322Y1373575D01*
X3701502Y1387824D01*
X3701913Y1388029D01*
X3702708Y1388324D01*
X3750388Y1415852D01*
X3750732Y1416156D01*
X3751423Y1416647D01*
X3790353Y1455577D01*
X3790606Y1455958D01*
X3791148Y1456612D01*
X3818676Y1504292D01*
X3818785Y1504619D01*
X3818889Y1504782D01*
X3818914Y1504929D01*
X3819175Y1505498D01*
X3833425Y1558678D01*
X3833449Y1559078D01*
X3833584Y1559645D01*
X3835389Y1587173D01*
X3835369Y1587320D01*
X3835399Y1587500D01*
X3835399Y2015945D01*
X3835391Y2015985D01*
X3835399Y2016026D01*
X3835193Y2016961D01*
X3835003Y2017895D01*
X3834980Y2017929D01*
X3834972Y2017969D01*
X3834423Y2018742D01*
X3833878Y2019537D01*
X3833843Y2019559D01*
X3833820Y2019592D01*
X3833009Y2020093D01*
X3832202Y2020609D01*
X3832162Y2020616D01*
X3832127Y2020637D01*
X3831178Y2020783D01*
X3830240Y2020942D01*
X3830200Y2020933D01*
X3830160Y2020939D01*
X3829233Y2020704D01*
X3828304Y2020484D01*
X3828271Y2020460D01*
X3828231Y2020450D01*
X3826865Y2019480D01*
X3825389Y2018004D01*
X3812450Y2008603D01*
X3798202Y2001343D01*
X3782991Y1996401D01*
X3767196Y1993899D01*
X3692999Y1993899D01*
X3692999Y2090498D01*
X3692983Y2090578D01*
X3692996Y2090658D01*
X3692785Y2091552D01*
X3692603Y2092448D01*
X3692557Y2092515D01*
X3692538Y2092595D01*
X3691995Y2093335D01*
X3691478Y2094090D01*
X3691409Y2094133D01*
X3691361Y2094199D01*
X3690572Y2094669D01*
X3689801Y2095162D01*
X3689721Y2095175D01*
X3689651Y2095217D01*
X3687999Y2095498D01*
X3682998Y2095498D01*
X3682998Y2095502D01*
X3687999Y2095502D01*
X3688079Y2095518D01*
X3688159Y2095504D01*
X3689053Y2095716D01*
X3689949Y2095898D01*
X3690016Y2095944D01*
X3690096Y2095963D01*
X3690836Y2096505D01*
X3691591Y2097023D01*
X3691634Y2097092D01*
X3691700Y2097140D01*
X3692170Y2097929D01*
X3692663Y2098699D01*
X3692676Y2098779D01*
X3692718Y2098849D01*
X3692999Y2100501D01*
X3692999Y2197100D01*
X3767196Y2197100D01*
X3782991Y2194599D01*
X3798202Y2189656D01*
X3812450Y2182397D01*
X3825389Y2172996D01*
X3826865Y2171520D01*
X3826898Y2171497D01*
X3826922Y2171463D01*
X3827735Y2170943D01*
X3828523Y2170421D01*
X3828563Y2170413D01*
X3828598Y2170391D01*
X3829544Y2170230D01*
X3830479Y2170056D01*
X3830519Y2170064D01*
X3830560Y2170058D01*
X3831492Y2170278D01*
X3832423Y2170483D01*
X3832457Y2170506D01*
X3832496Y2170516D01*
X3833267Y2171081D01*
X3834046Y2171634D01*
X3834067Y2171668D01*
X3834101Y2171693D01*
X3834592Y2172518D01*
X3835092Y2173327D01*
X3835098Y2173367D01*
X3835119Y2173403D01*
X3835399Y2175054D01*
X3835399Y2284314D01*
X3835391Y2284354D01*
X3835399Y2284394D01*
X3835194Y2285325D01*
X3835003Y2286264D01*
X3834980Y2286298D01*
X3834972Y2286337D01*
X3834420Y2287114D01*
X3833878Y2287905D01*
X3833844Y2287927D01*
X3833820Y2287960D01*
X3833014Y2288458D01*
X3832202Y2288977D01*
X3832161Y2288984D01*
X3832127Y2289005D01*
X3831183Y2289150D01*
X3830240Y2289311D01*
X3830201Y2289301D01*
X3830160Y2289308D01*
X3829231Y2289072D01*
X3828304Y2288853D01*
X3828271Y2288828D01*
X3828231Y2288818D01*
X3826865Y2287849D01*
X3810997Y2271980D01*
X3777389Y2258059D01*
X3588611Y2258059D01*
X3580935Y2261239D01*
X3580797Y2261266D01*
X3580674Y2261339D01*
X3579022Y2261619D01*
X3460740Y2261619D01*
X3460660Y2261603D01*
X3460580Y2261617D01*
X3459686Y2261405D01*
X3458790Y2261223D01*
X3458723Y2261178D01*
X3458643Y2261159D01*
X3457903Y2260616D01*
X3457148Y2260098D01*
X3457105Y2260030D01*
X3457039Y2259982D01*
X3456569Y2259193D01*
X3456076Y2258422D01*
X3456063Y2258342D01*
X3456021Y2258272D01*
X3455740Y2256620D01*
X3455740Y2246187D01*
X3446813Y2237259D01*
X3284187Y2237259D01*
X3275259Y2246187D01*
X3275259Y2256620D01*
X3275255Y2256640D01*
X3275257Y2256650D01*
X3275244Y2256704D01*
X3275257Y2256780D01*
X3275045Y2257673D01*
X3274863Y2258570D01*
X3274818Y2258637D01*
X3274799Y2258716D01*
X3274256Y2259456D01*
X3273738Y2260211D01*
X3273670Y2260255D01*
X3273622Y2260321D01*
X3272833Y2260790D01*
X3272062Y2261283D01*
X3271982Y2261297D01*
X3271912Y2261339D01*
X3270260Y2261619D01*
X3206740Y2261619D01*
X3206660Y2261603D01*
X3206580Y2261617D01*
X3205686Y2261405D01*
X3204790Y2261223D01*
X3204723Y2261178D01*
X3204643Y2261159D01*
X3203903Y2260616D01*
X3203148Y2260098D01*
X3203105Y2260030D01*
X3203039Y2259982D01*
X3202569Y2259193D01*
X3202076Y2258422D01*
X3202063Y2258342D01*
X3202021Y2258272D01*
X3201740Y2256620D01*
X3201740Y2246187D01*
X3192813Y2237259D01*
X3030187Y2237259D01*
X3021259Y2246187D01*
X3021259Y2256620D01*
X3021255Y2256640D01*
X3021257Y2256650D01*
X3021244Y2256704D01*
X3021257Y2256780D01*
X3021045Y2257673D01*
X3020863Y2258570D01*
X3020818Y2258637D01*
X3020799Y2258716D01*
X3020256Y2259456D01*
X3019738Y2260211D01*
X3019670Y2260255D01*
X3019622Y2260321D01*
X3018833Y2260790D01*
X3018062Y2261283D01*
X3017982Y2261297D01*
X3017912Y2261339D01*
X3016260Y2261619D01*
X2952740Y2261619D01*
X2952660Y2261603D01*
X2952580Y2261617D01*
X2951686Y2261405D01*
X2950790Y2261223D01*
X2950723Y2261178D01*
X2950643Y2261159D01*
X2949903Y2260616D01*
X2949148Y2260098D01*
X2949105Y2260030D01*
X2949039Y2259982D01*
X2948569Y2259193D01*
X2948076Y2258422D01*
X2948063Y2258342D01*
X2948021Y2258272D01*
X2947740Y2256620D01*
X2947740Y2246187D01*
X2938813Y2237259D01*
X2776187Y2237259D01*
X2767259Y2246187D01*
X2767259Y2256620D01*
X2767255Y2256640D01*
X2767257Y2256650D01*
X2767244Y2256704D01*
X2767257Y2256780D01*
X2767045Y2257673D01*
X2766863Y2258570D01*
X2766818Y2258637D01*
X2766799Y2258716D01*
X2766256Y2259456D01*
X2765738Y2260211D01*
X2765670Y2260255D01*
X2765622Y2260321D01*
X2764833Y2260790D01*
X2764062Y2261283D01*
X2763982Y2261297D01*
X2763912Y2261339D01*
X2762260Y2261619D01*
X2695880Y2261619D01*
X2695800Y2261603D01*
X2695720Y2261617D01*
X2694826Y2261405D01*
X2693930Y2261223D01*
X2693863Y2261178D01*
X2693783Y2261159D01*
X2693043Y2260616D01*
X2692288Y2260098D01*
X2692245Y2260030D01*
X2692179Y2259982D01*
X2691709Y2259193D01*
X2691216Y2258422D01*
X2691203Y2258342D01*
X2691161Y2258272D01*
X2690880Y2256620D01*
X2690880Y2254240D01*
X2690897Y2254160D01*
X2690883Y2254080D01*
X2691094Y2253186D01*
X2691276Y2252290D01*
X2691322Y2252223D01*
X2691341Y2252143D01*
X2691884Y2251403D01*
X2692402Y2250648D01*
X2692470Y2250605D01*
X2692518Y2250539D01*
X2693307Y2250069D01*
X2694078Y2249576D01*
X2694158Y2249563D01*
X2694228Y2249521D01*
X2695880Y2249240D01*
X2706313Y2249240D01*
X2715240Y2240313D01*
X2715240Y2077687D01*
X2706313Y2068759D01*
X2563687Y2068759D01*
X2554759Y2077687D01*
X2554759Y2240313D01*
X2563687Y2249240D01*
X2574120Y2249240D01*
X2574200Y2249257D01*
X2574280Y2249243D01*
X2575173Y2249454D01*
X2576070Y2249636D01*
X2576137Y2249682D01*
X2576216Y2249701D01*
X2576956Y2250244D01*
X2577711Y2250762D01*
X2577755Y2250830D01*
X2577821Y2250878D01*
X2578290Y2251667D01*
X2578783Y2252438D01*
X2578797Y2252518D01*
X2578839Y2252588D01*
X2579119Y2254240D01*
X2579119Y2328616D01*
X2587627Y2349154D01*
X2603346Y2364873D01*
X2623884Y2373380D01*
X2762260Y2373380D01*
X2762340Y2373397D01*
X2762420Y2373383D01*
X2763313Y2373594D01*
X2764210Y2373776D01*
X2764277Y2373822D01*
X2764356Y2373841D01*
X2765096Y2374384D01*
X2765851Y2374902D01*
X2765895Y2374970D01*
X2765961Y2375018D01*
X2766430Y2375807D01*
X2766923Y2376578D01*
X2766937Y2376658D01*
X2766979Y2376728D01*
X2767259Y2378380D01*
X2767259Y2388813D01*
X2776187Y2397740D01*
X2938813Y2397740D01*
X2947740Y2388813D01*
X2947740Y2378380D01*
X2947757Y2378300D01*
X2947743Y2378220D01*
X2947954Y2377326D01*
X2948136Y2376430D01*
X2948182Y2376363D01*
X2948201Y2376283D01*
X2948744Y2375543D01*
X2949262Y2374788D01*
X2949330Y2374745D01*
X2949378Y2374679D01*
X2950167Y2374209D01*
X2950938Y2373716D01*
X2951018Y2373703D01*
X2951088Y2373661D01*
X2952740Y2373380D01*
X3016260Y2373380D01*
X3016340Y2373397D01*
X3016420Y2373383D01*
X3017313Y2373594D01*
X3018210Y2373776D01*
X3018277Y2373822D01*
X3018356Y2373841D01*
X3019096Y2374384D01*
X3019851Y2374902D01*
X3019895Y2374970D01*
X3019961Y2375018D01*
X3020430Y2375807D01*
X3020923Y2376578D01*
X3020937Y2376658D01*
X3020979Y2376728D01*
X3021259Y2378380D01*
X3021259Y2388813D01*
X3030187Y2397740D01*
X3192813Y2397740D01*
X3201740Y2388813D01*
X3201740Y2378380D01*
X3201757Y2378300D01*
X3201743Y2378220D01*
X3201954Y2377326D01*
X3202136Y2376430D01*
X3202182Y2376363D01*
X3202201Y2376283D01*
X3202744Y2375543D01*
X3203262Y2374788D01*
X3203330Y2374745D01*
X3203378Y2374679D01*
X3204167Y2374209D01*
X3204938Y2373716D01*
X3205018Y2373703D01*
X3205088Y2373661D01*
X3206740Y2373380D01*
X3270260Y2373380D01*
X3270340Y2373397D01*
X3270420Y2373383D01*
X3271313Y2373594D01*
X3272210Y2373776D01*
X3272277Y2373822D01*
X3272356Y2373841D01*
X3273096Y2374384D01*
X3273851Y2374902D01*
X3273895Y2374970D01*
X3273961Y2375018D01*
X3274430Y2375807D01*
X3274923Y2376578D01*
X3274937Y2376658D01*
X3274979Y2376728D01*
X3275259Y2378380D01*
X3275259Y2388813D01*
X3284187Y2397740D01*
X3446813Y2397740D01*
X3455740Y2388813D01*
X3455740Y2378380D01*
X3455757Y2378300D01*
X3455743Y2378220D01*
X3455954Y2377326D01*
X3456136Y2376430D01*
X3456182Y2376363D01*
X3456201Y2376283D01*
X3456744Y2375543D01*
X3457262Y2374788D01*
X3457330Y2374745D01*
X3457378Y2374679D01*
X3458167Y2374209D01*
X3458938Y2373716D01*
X3459018Y2373703D01*
X3459088Y2373661D01*
X3460740Y2373380D01*
X3514377Y2373380D01*
X3514476Y2373401D01*
X3514576Y2373384D01*
X3515447Y2373598D01*
X3516327Y2373776D01*
X3516410Y2373834D01*
X3516509Y2373858D01*
X3517228Y2374394D01*
X3517968Y2374902D01*
X3518023Y2374987D01*
X3518104Y2375048D01*
X3518995Y2376467D01*
X3529280Y2401297D01*
X3555003Y2427019D01*
X3566698Y2431864D01*
X3566699Y2431864D01*
X3588611Y2440940D01*
X3777389Y2440940D01*
X3810997Y2427019D01*
X3826865Y2411151D01*
X3826898Y2411129D01*
X3826922Y2411095D01*
X3827731Y2410577D01*
X3828524Y2410052D01*
X3828564Y2410044D01*
X3828598Y2410023D01*
X3829540Y2409863D01*
X3830480Y2409687D01*
X3830520Y2409696D01*
X3830560Y2409689D01*
X3831495Y2409910D01*
X3832423Y2410114D01*
X3832456Y2410138D01*
X3832496Y2410147D01*
X3833271Y2410716D01*
X3834046Y2411266D01*
X3834068Y2411300D01*
X3834101Y2411324D01*
X3834593Y2412152D01*
X3835092Y2412959D01*
X3835098Y2412999D01*
X3835119Y2413034D01*
X3835399Y2414686D01*
X3835399Y2698750D01*
X3835370Y2698895D01*
X3835389Y2699077D01*
X3833584Y2726605D01*
X3833479Y2726992D01*
X3833425Y2727572D01*
X3819175Y2780752D01*
X3818971Y2781163D01*
X3818676Y2781958D01*
X3791148Y2829638D01*
X3790844Y2829982D01*
X3790353Y2830673D01*
X3751423Y2869603D01*
X3751042Y2869856D01*
X3750388Y2870398D01*
X3702708Y2897926D01*
X3702273Y2898071D01*
X3701502Y2898425D01*
X3648322Y2912675D01*
X3647921Y2912699D01*
X3647355Y2912834D01*
X3619828Y2914639D01*
X3619681Y2914619D01*
X3619501Y2914649D01*
X1333498Y2914649D01*
X1333353Y2914620D01*
X1333172Y2914639D01*
X1305645Y2912834D01*
X1305258Y2912729D01*
X1304678Y2912675D01*
X1251498Y2898425D01*
X1251087Y2898221D01*
X1250292Y2897926D01*
X1202612Y2870398D01*
X1202268Y2870094D01*
X1201577Y2869603D01*
X1162647Y2830673D01*
X1162394Y2830292D01*
X1161852Y2829638D01*
X1134324Y2781958D01*
X1134178Y2781523D01*
X1133824Y2780752D01*
X1119575Y2727572D01*
X1119550Y2727172D01*
X1119415Y2726605D01*
X1117611Y2699077D01*
X1117631Y2698930D01*
X1117600Y2698750D01*
X1117600Y2414686D01*
X1117608Y2414646D01*
X1117601Y2414606D01*
X1117806Y2413674D01*
X1117996Y2412736D01*
X1118019Y2412702D01*
X1118028Y2412663D01*
X1118579Y2411885D01*
X1119122Y2411095D01*
X1119156Y2411073D01*
X1119179Y2411040D01*
X1119985Y2410542D01*
X1120798Y2410023D01*
X1120838Y2410016D01*
X1120873Y2409994D01*
X1121817Y2409849D01*
X1122760Y2409689D01*
X1122799Y2409698D01*
X1122839Y2409692D01*
X1123769Y2409928D01*
X1124696Y2410147D01*
X1124729Y2410171D01*
X1124768Y2410181D01*
X1126135Y2411151D01*
X1142003Y2427019D01*
X1153698Y2431864D01*
X1153699Y2431864D01*
X1175611Y2440940D01*
X1209120Y2440940D01*
X1209200Y2440957D01*
X1209280Y2440943D01*
X1210173Y2441154D01*
X1211070Y2441336D01*
X1211137Y2441382D01*
X1211216Y2441401D01*
X1211956Y2441944D01*
X1212711Y2442462D01*
X1212755Y2442530D01*
X1212821Y2442578D01*
X1213290Y2443367D01*
X1213783Y2444138D01*
X1213797Y2444218D01*
X1213839Y2444288D01*
X1214119Y2445940D01*
X1214119Y2583866D01*
X1222627Y2604404D01*
X1257545Y2639322D01*
X1257612Y2639423D01*
X1257711Y2639496D01*
X1258161Y2640252D01*
X1258644Y2640981D01*
X1258666Y2641101D01*
X1258729Y2641205D01*
X1259009Y2642857D01*
X1259009Y2783313D01*
X1267937Y2792240D01*
X1460563Y2792240D01*
X1469490Y2783313D01*
X1469490Y2550687D01*
X1460563Y2541759D01*
X1330880Y2541759D01*
X1330800Y2541743D01*
X1330720Y2541757D01*
X1329826Y2541545D01*
X1328930Y2541363D01*
X1328863Y2541318D01*
X1328783Y2541299D01*
X1328043Y2540756D01*
X1327288Y2540238D01*
X1327245Y2540170D01*
X1327179Y2540122D01*
X1326709Y2539333D01*
X1326216Y2538562D01*
X1326203Y2538482D01*
X1326161Y2538412D01*
X1325880Y2536760D01*
X1325880Y2445940D01*
X1325897Y2445860D01*
X1325883Y2445780D01*
X1326094Y2444886D01*
X1326276Y2443990D01*
X1326322Y2443923D01*
X1326341Y2443843D01*
X1326884Y2443103D01*
X1327402Y2442348D01*
X1327470Y2442305D01*
X1327518Y2442239D01*
X1328307Y2441769D01*
X1329078Y2441276D01*
X1329158Y2441263D01*
X1329228Y2441221D01*
X1330880Y2440940D01*
X1364389Y2440940D01*
X1397997Y2427019D01*
X1423719Y2401297D01*
X1434004Y2376467D01*
X1434061Y2376383D01*
X1434084Y2376283D01*
X1434618Y2375556D01*
X1435117Y2374817D01*
X1435201Y2374762D01*
X1435262Y2374679D01*
X1436038Y2374217D01*
X1436784Y2373731D01*
X1436883Y2373713D01*
X1436971Y2373661D01*
X1438623Y2373380D01*
X1492260Y2373380D01*
X1492340Y2373397D01*
X1492420Y2373383D01*
X1493313Y2373594D01*
X1494210Y2373776D01*
X1494277Y2373822D01*
X1494356Y2373841D01*
X1495096Y2374384D01*
X1495851Y2374902D01*
X1495895Y2374970D01*
X1495961Y2375018D01*
X1496430Y2375807D01*
X1496923Y2376578D01*
X1496937Y2376658D01*
X1496979Y2376728D01*
X1497259Y2378380D01*
X1497259Y2388813D01*
X1506187Y2397740D01*
X1668813Y2397740D01*
X1677740Y2388813D01*
X1677740Y2378380D01*
X1677757Y2378300D01*
X1677743Y2378220D01*
X1677954Y2377326D01*
X1678136Y2376430D01*
X1678182Y2376363D01*
X1678201Y2376283D01*
X1678744Y2375543D01*
X1679262Y2374788D01*
X1679330Y2374745D01*
X1679378Y2374679D01*
X1680167Y2374209D01*
X1680938Y2373716D01*
X1681018Y2373703D01*
X1681088Y2373661D01*
X1682740Y2373380D01*
X1746260Y2373380D01*
X1746340Y2373397D01*
X1746420Y2373383D01*
X1747313Y2373594D01*
X1748210Y2373776D01*
X1748277Y2373822D01*
X1748356Y2373841D01*
X1749096Y2374384D01*
X1749851Y2374902D01*
X1749895Y2374970D01*
X1749961Y2375018D01*
X1750430Y2375807D01*
X1750923Y2376578D01*
X1750937Y2376658D01*
X1750979Y2376728D01*
X1751259Y2378380D01*
X1751259Y2388813D01*
X1760187Y2397740D01*
X1922813Y2397740D01*
X1931740Y2388813D01*
X1931740Y2378380D01*
X1931757Y2378300D01*
X1931743Y2378220D01*
X1931954Y2377326D01*
X1932136Y2376430D01*
X1932182Y2376363D01*
X1932201Y2376283D01*
X1932744Y2375543D01*
X1933262Y2374788D01*
X1933330Y2374745D01*
X1933378Y2374679D01*
X1934167Y2374209D01*
X1934938Y2373716D01*
X1935018Y2373703D01*
X1935088Y2373661D01*
X1936740Y2373380D01*
X2000260Y2373380D01*
X2000340Y2373397D01*
X2000420Y2373383D01*
X2001313Y2373594D01*
X2002210Y2373776D01*
X2002277Y2373822D01*
X2002356Y2373841D01*
X2003096Y2374384D01*
X2003851Y2374902D01*
X2003895Y2374970D01*
X2003961Y2375018D01*
X2004430Y2375807D01*
X2004923Y2376578D01*
X2004937Y2376658D01*
X2004979Y2376728D01*
X2005259Y2378380D01*
X2005259Y2388813D01*
X2014187Y2397740D01*
X2176813Y2397740D01*
X2185740Y2388813D01*
X2185740Y2246187D01*
X2176813Y2237259D01*
X2014187Y2237259D01*
X2005259Y2246187D01*
X2005259Y2256620D01*
X2005255Y2256640D01*
X2005257Y2256650D01*
X2005244Y2256704D01*
X2005257Y2256780D01*
X2005045Y2257673D01*
X2004863Y2258570D01*
X2004818Y2258637D01*
X2004799Y2258716D01*
X2004256Y2259456D01*
X2003738Y2260211D01*
X2003670Y2260255D01*
X2003622Y2260321D01*
X2002833Y2260790D01*
X2002062Y2261283D01*
X2001982Y2261297D01*
X2001912Y2261339D01*
X2000260Y2261619D01*
X1936740Y2261619D01*
X1936660Y2261603D01*
X1936580Y2261617D01*
X1935686Y2261405D01*
X1934790Y2261223D01*
X1934723Y2261178D01*
X1934643Y2261159D01*
X1933903Y2260616D01*
X1933148Y2260098D01*
X1933105Y2260030D01*
X1933039Y2259982D01*
X1932569Y2259193D01*
X1932076Y2258422D01*
X1932063Y2258342D01*
X1932021Y2258272D01*
X1931740Y2256620D01*
X1931740Y2246187D01*
X1922813Y2237259D01*
X1760187Y2237259D01*
X1751259Y2246187D01*
X1751259Y2256620D01*
X1751255Y2256640D01*
X1751257Y2256650D01*
X1751244Y2256704D01*
X1751257Y2256780D01*
X1751045Y2257673D01*
X1750863Y2258570D01*
X1750818Y2258637D01*
X1750799Y2258716D01*
X1750256Y2259456D01*
X1749738Y2260211D01*
X1749670Y2260255D01*
X1749622Y2260321D01*
X1748833Y2260790D01*
X1748062Y2261283D01*
X1747982Y2261297D01*
X1747912Y2261339D01*
X1746260Y2261619D01*
X1682740Y2261619D01*
X1682660Y2261603D01*
X1682580Y2261617D01*
X1681686Y2261405D01*
X1680790Y2261223D01*
X1680723Y2261178D01*
X1680643Y2261159D01*
X1679903Y2260616D01*
X1679148Y2260098D01*
X1679105Y2260030D01*
X1679039Y2259982D01*
X1678569Y2259193D01*
X1678076Y2258422D01*
X1678063Y2258342D01*
X1678021Y2258272D01*
X1677740Y2256620D01*
X1677740Y2246187D01*
X1668813Y2237259D01*
X1506187Y2237259D01*
X1497259Y2246187D01*
X1497259Y2256620D01*
X1497255Y2256640D01*
X1497257Y2256650D01*
X1497244Y2256704D01*
X1497257Y2256780D01*
X1497045Y2257673D01*
X1496863Y2258570D01*
X1496818Y2258637D01*
X1496799Y2258716D01*
X1496256Y2259456D01*
X1495738Y2260211D01*
X1495670Y2260255D01*
X1495622Y2260321D01*
X1494833Y2260790D01*
X1494062Y2261283D01*
X1493982Y2261297D01*
X1493912Y2261339D01*
X1492260Y2261619D01*
X1373978Y2261619D01*
X1373838Y2261591D01*
X1373698Y2261612D01*
X1372064Y2261239D01*
X1364389Y2258059D01*
X1175611Y2258059D01*
X1142003Y2271980D01*
X1126135Y2287849D01*
X1126101Y2287871D01*
X1126078Y2287905D01*
X1125269Y2288423D01*
X1124476Y2288948D01*
X1124436Y2288955D01*
X1124402Y2288977D01*
X1123459Y2289137D01*
X1122520Y2289313D01*
X1122480Y2289304D01*
X1122440Y2289311D01*
X1121504Y2289089D01*
X1120576Y2288885D01*
X1120543Y2288862D01*
X1120503Y2288853D01*
X1119729Y2288284D01*
X1118953Y2287734D01*
X1118932Y2287700D01*
X1118899Y2287675D01*
X1118407Y2286848D01*
X1117908Y2286041D01*
X1117902Y2286001D01*
X1117881Y2285966D01*
X1117600Y2284314D01*
X1117600Y2175054D01*
X1117608Y2175014D01*
X1117601Y2174974D01*
X1117807Y2174039D01*
X1117996Y2173104D01*
X1118019Y2173071D01*
X1118028Y2173031D01*
X1118582Y2172251D01*
X1119122Y2171463D01*
X1119156Y2171441D01*
X1119180Y2171408D01*
X1119991Y2170907D01*
X1120798Y2170391D01*
X1120838Y2170384D01*
X1120873Y2170363D01*
X1121822Y2170217D01*
X1122760Y2170058D01*
X1122799Y2170067D01*
X1122840Y2170061D01*
X1123767Y2170296D01*
X1124696Y2170516D01*
X1124729Y2170540D01*
X1124769Y2170550D01*
X1126135Y2171520D01*
X1127611Y2172996D01*
X1140550Y2182397D01*
X1154798Y2189656D01*
X1170008Y2194599D01*
X1185803Y2197100D01*
X1260001Y2197100D01*
X1260001Y2100501D01*
X1260017Y2100422D01*
X1260003Y2100341D01*
X1260215Y2099448D01*
X1260397Y2098551D01*
X1260443Y2098484D01*
X1260461Y2098405D01*
X1261004Y2097665D01*
X1261522Y2096910D01*
X1261590Y2096866D01*
X1261638Y2096801D01*
X1262428Y2096331D01*
X1263198Y2095838D01*
X1263278Y2095824D01*
X1263348Y2095783D01*
X1265000Y2095502D01*
X1270002Y2095502D01*
X1270002Y2095498D01*
X1265000Y2095498D01*
X1264920Y2095482D01*
X1264840Y2095495D01*
X1263947Y2095284D01*
X1263050Y2095102D01*
X1262983Y2095056D01*
X1262904Y2095037D01*
X1262164Y2094494D01*
X1261409Y2093977D01*
X1261365Y2093908D01*
X1261299Y2093860D01*
X1260830Y2093071D01*
X1260337Y2092300D01*
X1260323Y2092220D01*
X1260281Y2092150D01*
X1260001Y2090498D01*
X1260001Y1993899D01*
X1185803Y1993899D01*
X1170008Y1996401D01*
X1154798Y2001343D01*
X1140550Y2008603D01*
X1127611Y2018004D01*
X1126135Y2019480D01*
X1126101Y2019503D01*
X1126078Y2019537D01*
X1125264Y2020057D01*
X1124476Y2020579D01*
X1124436Y2020587D01*
X1124402Y2020609D01*
X1123456Y2020769D01*
X1122520Y2020944D01*
X1122480Y2020935D01*
X1122440Y2020942D01*
X1121508Y2020722D01*
X1120577Y2020517D01*
X1120543Y2020493D01*
X1120503Y2020484D01*
X1119733Y2019918D01*
X1118954Y2019366D01*
X1118933Y2019331D01*
X1118899Y2019307D01*
X1118408Y2018482D01*
X1117908Y2017673D01*
X1117902Y2017633D01*
X1117881Y2017597D01*
X1117600Y2015945D01*
X1117600Y1587500D01*
X1117630Y1587355D01*
X1117611Y1587173D01*
X1119415Y1559645D01*
X1119521Y1559258D01*
X1119575Y1558678D01*
X1133824Y1505498D01*
X1134029Y1505087D01*
X1134207Y1504608D01*
X1134235Y1504487D01*
X1134268Y1504443D01*
X1134324Y1504292D01*
X1161852Y1456612D01*
X1162156Y1456268D01*
X1162647Y1455577D01*
X1201577Y1416647D01*
X1201958Y1416394D01*
X1202612Y1415852D01*
X1250292Y1388324D01*
X1250726Y1388178D01*
X1251498Y1387824D01*
X1304678Y1373575D01*
X1305078Y1373550D01*
X1305645Y1373415D01*
X1333173Y1371611D01*
X1333320Y1371631D01*
X1333500Y1371600D01*
X2093814Y1371600D01*
X2093854Y1371608D01*
G37*
%LPC*%
G36*
X2518021Y2455189D02*
X2518021Y2455189D01*
X2486939Y2486271D01*
X2486939Y2530228D01*
X2497686Y2540975D01*
X2497708Y2541008D01*
X2497743Y2541032D01*
X2498260Y2541841D01*
X2498785Y2542634D01*
X2498793Y2542674D01*
X2498815Y2542708D01*
X2498975Y2543650D01*
X2499150Y2544590D01*
X2499141Y2544630D01*
X2499148Y2544670D01*
X2498927Y2545605D01*
X2498723Y2546533D01*
X2498699Y2546566D01*
X2498690Y2546606D01*
X2498122Y2547381D01*
X2497572Y2548156D01*
X2497537Y2548178D01*
X2497513Y2548211D01*
X2496686Y2548703D01*
X2495878Y2549202D01*
X2495838Y2549208D01*
X2495803Y2549229D01*
X2494151Y2549509D01*
X2466687Y2549509D01*
X2457759Y2558437D01*
X2457759Y2841063D01*
X2466687Y2849990D01*
X2629313Y2849990D01*
X2638240Y2841063D01*
X2638240Y2558437D01*
X2629313Y2549509D01*
X2585848Y2549509D01*
X2585808Y2549501D01*
X2585768Y2549509D01*
X2584837Y2549304D01*
X2583898Y2549113D01*
X2583865Y2549090D01*
X2583825Y2549082D01*
X2583048Y2548530D01*
X2582257Y2547988D01*
X2582235Y2547954D01*
X2582202Y2547930D01*
X2581698Y2547113D01*
X2581185Y2546312D01*
X2581178Y2546271D01*
X2581157Y2546237D01*
X2581012Y2545293D01*
X2580852Y2544350D01*
X2580861Y2544311D01*
X2580855Y2544270D01*
X2581090Y2543341D01*
X2581310Y2542414D01*
X2581334Y2542381D01*
X2581344Y2542341D01*
X2582313Y2540975D01*
X2593060Y2530228D01*
X2593060Y2486271D01*
X2561978Y2455189D01*
X2518021Y2455189D01*
G37*
%LPD*%
%LPC*%
G36*
X2264021Y2455189D02*
X2264021Y2455189D01*
X2232939Y2486271D01*
X2232939Y2530228D01*
X2241686Y2538975D01*
X2241708Y2539008D01*
X2241743Y2539032D01*
X2242260Y2539841D01*
X2242785Y2540634D01*
X2242793Y2540674D01*
X2242815Y2540708D01*
X2242975Y2541650D01*
X2243150Y2542590D01*
X2243141Y2542630D01*
X2243148Y2542670D01*
X2242927Y2543605D01*
X2242723Y2544533D01*
X2242699Y2544566D01*
X2242690Y2544606D01*
X2242122Y2545381D01*
X2241572Y2546156D01*
X2241537Y2546178D01*
X2241513Y2546211D01*
X2240686Y2546703D01*
X2239878Y2547202D01*
X2239838Y2547208D01*
X2239803Y2547229D01*
X2238151Y2547509D01*
X2196687Y2547509D01*
X2187759Y2556437D01*
X2187759Y2839063D01*
X2196687Y2847990D01*
X2359313Y2847990D01*
X2368240Y2839063D01*
X2368240Y2556437D01*
X2359313Y2547509D01*
X2333848Y2547509D01*
X2333808Y2547501D01*
X2333768Y2547509D01*
X2332837Y2547304D01*
X2331898Y2547113D01*
X2331865Y2547090D01*
X2331825Y2547082D01*
X2331048Y2546530D01*
X2330257Y2545988D01*
X2330235Y2545954D01*
X2330202Y2545930D01*
X2329705Y2545124D01*
X2329185Y2544312D01*
X2329178Y2544271D01*
X2329157Y2544237D01*
X2329012Y2543293D01*
X2328852Y2542350D01*
X2328861Y2542311D01*
X2328855Y2542270D01*
X2329088Y2541349D01*
X2329310Y2540414D01*
X2329334Y2540380D01*
X2329344Y2540341D01*
X2330313Y2538975D01*
X2339060Y2530228D01*
X2339060Y2486271D01*
X2307978Y2455189D01*
X2264021Y2455189D01*
G37*
%LPD*%
%LPC*%
G36*
X2253021Y2021939D02*
X2253021Y2021939D01*
X2221939Y2053021D01*
X2221939Y2096978D01*
X2253021Y2128060D01*
X2286476Y2128060D01*
X2286595Y2128084D01*
X2286715Y2128066D01*
X2287567Y2128282D01*
X2288426Y2128456D01*
X2288526Y2128525D01*
X2288644Y2128555D01*
X2290011Y2129525D01*
X2347426Y2186940D01*
X2359760Y2186940D01*
X2359840Y2186957D01*
X2359920Y2186943D01*
X2360813Y2187154D01*
X2361710Y2187336D01*
X2361777Y2187382D01*
X2361856Y2187401D01*
X2362596Y2187944D01*
X2363351Y2188462D01*
X2363395Y2188530D01*
X2363461Y2188578D01*
X2363930Y2189367D01*
X2364423Y2190138D01*
X2364437Y2190218D01*
X2364479Y2190288D01*
X2364759Y2191940D01*
X2364759Y2240313D01*
X2373687Y2249240D01*
X2516313Y2249240D01*
X2525240Y2240313D01*
X2525240Y2077687D01*
X2516313Y2068759D01*
X2373687Y2068759D01*
X2364759Y2077687D01*
X2364759Y2113176D01*
X2364751Y2113216D01*
X2364759Y2113256D01*
X2364554Y2114188D01*
X2364363Y2115126D01*
X2364340Y2115160D01*
X2364332Y2115200D01*
X2363784Y2115972D01*
X2363238Y2116768D01*
X2363204Y2116789D01*
X2363180Y2116823D01*
X2362374Y2117320D01*
X2361562Y2117840D01*
X2361521Y2117847D01*
X2361487Y2117868D01*
X2360543Y2118013D01*
X2359600Y2118173D01*
X2359561Y2118164D01*
X2359520Y2118170D01*
X2358593Y2117935D01*
X2357664Y2117715D01*
X2357631Y2117691D01*
X2357592Y2117681D01*
X2356225Y2116711D01*
X2329525Y2090011D01*
X2329516Y2089998D01*
X2329503Y2089989D01*
X2329448Y2089903D01*
X2329359Y2089837D01*
X2328909Y2089081D01*
X2328426Y2088352D01*
X2328403Y2088232D01*
X2328341Y2088128D01*
X2328060Y2086476D01*
X2328060Y2053021D01*
X2296978Y2021939D01*
X2253021Y2021939D01*
G37*
%LPD*%
%LPC*%
G36*
X2078021Y1921939D02*
X2078021Y1921939D01*
X2046939Y1953021D01*
X2046939Y1996978D01*
X2066095Y2016134D01*
X2066162Y2016235D01*
X2066261Y2016308D01*
X2066711Y2017063D01*
X2067194Y2017793D01*
X2067216Y2017913D01*
X2067279Y2018017D01*
X2067559Y2019669D01*
X2067559Y2042260D01*
X2067543Y2042340D01*
X2067557Y2042420D01*
X2067345Y2043313D01*
X2067163Y2044210D01*
X2067118Y2044277D01*
X2067099Y2044356D01*
X2066556Y2045096D01*
X2066038Y2045851D01*
X2065970Y2045895D01*
X2065922Y2045961D01*
X2065133Y2046430D01*
X2064362Y2046923D01*
X2064282Y2046937D01*
X2064212Y2046979D01*
X2062560Y2047259D01*
X2014187Y2047259D01*
X2005259Y2056187D01*
X2005259Y2198813D01*
X2014187Y2207740D01*
X2176813Y2207740D01*
X2185740Y2198813D01*
X2185740Y2056187D01*
X2176813Y2047259D01*
X2128440Y2047259D01*
X2128360Y2047243D01*
X2128280Y2047257D01*
X2127386Y2047045D01*
X2126490Y2046863D01*
X2126423Y2046818D01*
X2126343Y2046799D01*
X2125603Y2046256D01*
X2124848Y2045738D01*
X2124805Y2045670D01*
X2124739Y2045622D01*
X2124269Y2044833D01*
X2123776Y2044062D01*
X2123763Y2043982D01*
X2123721Y2043912D01*
X2123440Y2042260D01*
X2123440Y2028669D01*
X2123464Y2028550D01*
X2123446Y2028429D01*
X2123662Y2027578D01*
X2123836Y2026719D01*
X2123905Y2026619D01*
X2123935Y2026501D01*
X2124905Y2025134D01*
X2153060Y1996978D01*
X2153060Y1953021D01*
X2121978Y1921939D01*
X2078021Y1921939D01*
G37*
%LPD*%
%LPC*%
G36*
X2676999Y1533999D02*
X2676999Y1533999D01*
X2676999Y1701483D01*
X2690791Y1699299D01*
X2706002Y1694356D01*
X2720250Y1687097D01*
X2733189Y1677696D01*
X2744496Y1666389D01*
X2753897Y1653450D01*
X2761156Y1639202D01*
X2766099Y1623991D01*
X2768600Y1608196D01*
X2768600Y1533999D01*
X2676999Y1533999D01*
G37*
%LPD*%
%LPC*%
G36*
X1279999Y2105499D02*
X1279999Y2105499D01*
X1279999Y2197100D01*
X1354196Y2197100D01*
X1369991Y2194599D01*
X1385202Y2189656D01*
X1399450Y2182397D01*
X1412389Y2172996D01*
X1423696Y2161689D01*
X1433097Y2148750D01*
X1440356Y2134502D01*
X1445299Y2119291D01*
X1447483Y2105499D01*
X1279999Y2105499D01*
G37*
%LPD*%
%LPC*%
G36*
X3505517Y2105499D02*
X3505517Y2105499D01*
X3507701Y2119291D01*
X3512643Y2134502D01*
X3519903Y2148750D01*
X3529304Y2161689D01*
X3540611Y2172996D01*
X3553550Y2182397D01*
X3567798Y2189656D01*
X3583008Y2194599D01*
X3598803Y2197100D01*
X3673001Y2197100D01*
X3673001Y2105499D01*
X3505517Y2105499D01*
G37*
%LPD*%
%LPC*%
G36*
X2565399Y1533999D02*
X2565399Y1533999D01*
X2565399Y1608196D01*
X2567901Y1623991D01*
X2572843Y1639202D01*
X2580103Y1653450D01*
X2589504Y1666389D01*
X2600811Y1677696D01*
X2613750Y1687097D01*
X2627998Y1694356D01*
X2643208Y1699299D01*
X2657001Y1701483D01*
X2657001Y1533999D01*
X2565399Y1533999D01*
G37*
%LPD*%
%LPC*%
G36*
X1279999Y1993899D02*
X1279999Y1993899D01*
X1279999Y2085501D01*
X1447483Y2085501D01*
X1445299Y2071708D01*
X1440356Y2056498D01*
X1433097Y2042250D01*
X1423696Y2029311D01*
X1412389Y2018004D01*
X1399450Y2008603D01*
X1385202Y2001343D01*
X1369991Y1996401D01*
X1354196Y1993899D01*
X1279999Y1993899D01*
G37*
%LPD*%
%LPC*%
G36*
X3598803Y1993899D02*
X3598803Y1993899D01*
X3583008Y1996401D01*
X3567798Y2001343D01*
X3553550Y2008603D01*
X3540611Y2018004D01*
X3529304Y2029311D01*
X3519903Y2042250D01*
X3512643Y2056498D01*
X3507701Y2071708D01*
X3505517Y2085501D01*
X3673001Y2085501D01*
X3673001Y1993899D01*
X3598803Y1993899D01*
G37*
%LPD*%
%LPC*%
G36*
X1884248Y2676998D02*
X1884248Y2676998D01*
X1884248Y2802400D01*
X1967594Y2802400D01*
X1974054Y2800670D01*
X1979847Y2797325D01*
X1984575Y2792597D01*
X1987920Y2786804D01*
X1989650Y2780344D01*
X1989650Y2676998D01*
X1884248Y2676998D01*
G37*
%LPD*%
%LPC*%
G36*
X1758849Y2676998D02*
X1758849Y2676998D01*
X1758849Y2780344D01*
X1760580Y2786804D01*
X1763925Y2792597D01*
X1768653Y2797325D01*
X1774446Y2800670D01*
X1780906Y2802400D01*
X1864251Y2802400D01*
X1864251Y2676998D01*
X1758849Y2676998D01*
G37*
%LPD*%
%LPC*%
G36*
X1884248Y2531599D02*
X1884248Y2531599D01*
X1884248Y2657001D01*
X1989650Y2657001D01*
X1989650Y2553656D01*
X1987920Y2547196D01*
X1984575Y2541403D01*
X1979847Y2536675D01*
X1974054Y2533330D01*
X1967594Y2531599D01*
X1884248Y2531599D01*
G37*
%LPD*%
%LPC*%
G36*
X1780906Y2531599D02*
X1780906Y2531599D01*
X1774446Y2533330D01*
X1768653Y2536675D01*
X1763925Y2541403D01*
X1760580Y2547196D01*
X1758849Y2553656D01*
X1758849Y2657001D01*
X1864251Y2657001D01*
X1864251Y2531599D01*
X1780906Y2531599D01*
G37*
%LPD*%
%LPC*%
G36*
X1851498Y2137498D02*
X1851498Y2137498D01*
X1851498Y2217900D01*
X1919844Y2217900D01*
X1926304Y2216170D01*
X1932097Y2212825D01*
X1936825Y2208097D01*
X1940170Y2202304D01*
X1941900Y2195844D01*
X1941900Y2137498D01*
X1851498Y2137498D01*
G37*
%LPD*%
%LPC*%
G36*
X1597498Y2137498D02*
X1597498Y2137498D01*
X1597498Y2217900D01*
X1665844Y2217900D01*
X1672304Y2216170D01*
X1678097Y2212825D01*
X1682825Y2208097D01*
X1686170Y2202304D01*
X1687900Y2195844D01*
X1687900Y2137498D01*
X1597498Y2137498D01*
G37*
%LPD*%
%LPC*%
G36*
X2867498Y2137498D02*
X2867498Y2137498D01*
X2867498Y2217900D01*
X2935844Y2217900D01*
X2942304Y2216170D01*
X2948097Y2212825D01*
X2952825Y2208097D01*
X2956170Y2202304D01*
X2957900Y2195844D01*
X2957900Y2137498D01*
X2867498Y2137498D01*
G37*
%LPD*%
%LPC*%
G36*
X3375498Y2137498D02*
X3375498Y2137498D01*
X3375498Y2217900D01*
X3443844Y2217900D01*
X3450304Y2216170D01*
X3456097Y2212825D01*
X3460825Y2208097D01*
X3464170Y2202304D01*
X3465900Y2195844D01*
X3465900Y2137498D01*
X3375498Y2137498D01*
G37*
%LPD*%
%LPC*%
G36*
X3121498Y2137498D02*
X3121498Y2137498D01*
X3121498Y2217900D01*
X3189844Y2217900D01*
X3196304Y2216170D01*
X3202097Y2212825D01*
X3206825Y2208097D01*
X3210170Y2202304D01*
X3211900Y2195844D01*
X3211900Y2137498D01*
X3121498Y2137498D01*
G37*
%LPD*%
%LPC*%
G36*
X2757099Y2137498D02*
X2757099Y2137498D01*
X2757099Y2195844D01*
X2758830Y2202304D01*
X2762175Y2208097D01*
X2766903Y2212825D01*
X2772696Y2216170D01*
X2779156Y2217900D01*
X2847501Y2217900D01*
X2847501Y2137498D01*
X2757099Y2137498D01*
G37*
%LPD*%
%LPC*%
G36*
X3011099Y2137498D02*
X3011099Y2137498D01*
X3011099Y2195844D01*
X3012830Y2202304D01*
X3016175Y2208097D01*
X3020903Y2212825D01*
X3026696Y2216170D01*
X3033156Y2217900D01*
X3101501Y2217900D01*
X3101501Y2137498D01*
X3011099Y2137498D01*
G37*
%LPD*%
%LPC*%
G36*
X3265099Y2137498D02*
X3265099Y2137498D01*
X3265099Y2195844D01*
X3266830Y2202304D01*
X3270175Y2208097D01*
X3274903Y2212825D01*
X3280696Y2216170D01*
X3287156Y2217900D01*
X3355501Y2217900D01*
X3355501Y2137498D01*
X3265099Y2137498D01*
G37*
%LPD*%
%LPC*%
G36*
X1741099Y2137498D02*
X1741099Y2137498D01*
X1741099Y2195844D01*
X1742830Y2202304D01*
X1746175Y2208097D01*
X1750903Y2212825D01*
X1756696Y2216170D01*
X1763156Y2217900D01*
X1831501Y2217900D01*
X1831501Y2137498D01*
X1741099Y2137498D01*
G37*
%LPD*%
%LPC*%
G36*
X1487099Y2137498D02*
X1487099Y2137498D01*
X1487099Y2195844D01*
X1488830Y2202304D01*
X1492175Y2208097D01*
X1496903Y2212825D01*
X1502696Y2216170D01*
X1509156Y2217900D01*
X1577501Y2217900D01*
X1577501Y2137498D01*
X1487099Y2137498D01*
G37*
%LPD*%
%LPC*%
G36*
X2867498Y2037099D02*
X2867498Y2037099D01*
X2867498Y2117501D01*
X2957900Y2117501D01*
X2957900Y2059156D01*
X2956170Y2052696D01*
X2952825Y2046903D01*
X2948097Y2042175D01*
X2942304Y2038830D01*
X2935844Y2037099D01*
X2867498Y2037099D01*
G37*
%LPD*%
%LPC*%
G36*
X3375498Y2037099D02*
X3375498Y2037099D01*
X3375498Y2117501D01*
X3465900Y2117501D01*
X3465900Y2059156D01*
X3464170Y2052696D01*
X3460825Y2046903D01*
X3456097Y2042175D01*
X3450304Y2038830D01*
X3443844Y2037099D01*
X3375498Y2037099D01*
G37*
%LPD*%
%LPC*%
G36*
X3121498Y2037099D02*
X3121498Y2037099D01*
X3121498Y2117501D01*
X3211900Y2117501D01*
X3211900Y2059156D01*
X3210170Y2052696D01*
X3206825Y2046903D01*
X3202097Y2042175D01*
X3196304Y2038830D01*
X3189844Y2037099D01*
X3121498Y2037099D01*
G37*
%LPD*%
%LPC*%
G36*
X1851498Y2037099D02*
X1851498Y2037099D01*
X1851498Y2117501D01*
X1941900Y2117501D01*
X1941900Y2059156D01*
X1940170Y2052696D01*
X1936825Y2046903D01*
X1932097Y2042175D01*
X1926304Y2038830D01*
X1919844Y2037099D01*
X1851498Y2037099D01*
G37*
%LPD*%
%LPC*%
G36*
X1597498Y2037099D02*
X1597498Y2037099D01*
X1597498Y2117501D01*
X1687900Y2117501D01*
X1687900Y2059156D01*
X1686170Y2052696D01*
X1682825Y2046903D01*
X1678097Y2042175D01*
X1672304Y2038830D01*
X1665844Y2037099D01*
X1597498Y2037099D01*
G37*
%LPD*%
%LPC*%
G36*
X3033156Y2037099D02*
X3033156Y2037099D01*
X3026696Y2038830D01*
X3020903Y2042175D01*
X3016175Y2046903D01*
X3012830Y2052696D01*
X3011099Y2059156D01*
X3011099Y2117501D01*
X3101501Y2117501D01*
X3101501Y2037099D01*
X3033156Y2037099D01*
G37*
%LPD*%
%LPC*%
G36*
X3287156Y2037099D02*
X3287156Y2037099D01*
X3280696Y2038830D01*
X3274903Y2042175D01*
X3270175Y2046903D01*
X3266830Y2052696D01*
X3265099Y2059156D01*
X3265099Y2117501D01*
X3355501Y2117501D01*
X3355501Y2037099D01*
X3287156Y2037099D01*
G37*
%LPD*%
%LPC*%
G36*
X2779156Y2037099D02*
X2779156Y2037099D01*
X2772696Y2038830D01*
X2766903Y2042175D01*
X2762175Y2046903D01*
X2758830Y2052696D01*
X2757099Y2059156D01*
X2757099Y2117501D01*
X2847501Y2117501D01*
X2847501Y2037099D01*
X2779156Y2037099D01*
G37*
%LPD*%
%LPC*%
G36*
X1763156Y2037099D02*
X1763156Y2037099D01*
X1756696Y2038830D01*
X1750903Y2042175D01*
X1746175Y2046903D01*
X1742830Y2052696D01*
X1741099Y2059156D01*
X1741099Y2117501D01*
X1831501Y2117501D01*
X1831501Y2037099D01*
X1763156Y2037099D01*
G37*
%LPD*%
%LPC*%
G36*
X1509156Y2037099D02*
X1509156Y2037099D01*
X1502696Y2038830D01*
X1496903Y2042175D01*
X1492175Y2046903D01*
X1488830Y2052696D01*
X1487099Y2059156D01*
X1487099Y2117501D01*
X1577501Y2117501D01*
X1577501Y2037099D01*
X1509156Y2037099D01*
G37*
%LPD*%
%LPC*%
G36*
X1874248Y2666998D02*
X1874248Y2666998D01*
X1874248Y2667002D01*
X1874252Y2667002D01*
X1874252Y2666998D01*
X1874248Y2666998D01*
G37*
%LPD*%
%LPC*%
G36*
X1841498Y2127498D02*
X1841498Y2127498D01*
X1841498Y2127502D01*
X1841502Y2127502D01*
X1841502Y2127498D01*
X1841498Y2127498D01*
G37*
%LPD*%
%LPC*%
G36*
X1587498Y2127498D02*
X1587498Y2127498D01*
X1587498Y2127502D01*
X1587502Y2127502D01*
X1587502Y2127498D01*
X1587498Y2127498D01*
G37*
%LPD*%
%LPC*%
G36*
X3111498Y2127498D02*
X3111498Y2127498D01*
X3111498Y2127502D01*
X3111502Y2127502D01*
X3111502Y2127498D01*
X3111498Y2127498D01*
G37*
%LPD*%
%LPC*%
G36*
X3365498Y2127498D02*
X3365498Y2127498D01*
X3365498Y2127502D01*
X3365502Y2127502D01*
X3365502Y2127498D01*
X3365498Y2127498D01*
G37*
%LPD*%
%LPC*%
G36*
X2857498Y2127498D02*
X2857498Y2127498D01*
X2857498Y2127502D01*
X2857502Y2127502D01*
X2857502Y2127498D01*
X2857498Y2127498D01*
G37*
%LPD*%
D10*
X1016000Y1587500D02*
X1016093Y1579828D01*
X1016371Y1572161D01*
X1016834Y1564502D01*
X1017482Y1556857D01*
X1018315Y1549230D01*
X1019332Y1541625D01*
X1020532Y1534047D01*
X1021915Y1526500D01*
X1023480Y1518989D01*
X1025226Y1511517D01*
X1027152Y1504090D01*
X1029257Y1496712D01*
X1031540Y1489387D01*
X1033998Y1482119D01*
X1036632Y1474913D01*
X1039440Y1467772D01*
X1042418Y1460702D01*
X1045567Y1453705D01*
X1048884Y1446787D01*
X1052368Y1439950D01*
X1056015Y1433200D01*
X1059825Y1426540D01*
X1063794Y1419974D01*
X1067921Y1413506D01*
X1072203Y1407139D01*
X1076637Y1400878D01*
X1081222Y1394726D01*
X1085953Y1388686D01*
X1090830Y1382763D01*
X1095848Y1376959D01*
X1101005Y1371277D01*
X1106297Y1365723D01*
X1111723Y1360297D01*
X1117277Y1355005D01*
X1122959Y1349848D01*
X1128763Y1344830D01*
X1134686Y1339953D01*
X1140726Y1335222D01*
X1146878Y1330637D01*
X1153139Y1326203D01*
X1159506Y1321921D01*
X1165974Y1317794D01*
X1172540Y1313825D01*
X1179200Y1310015D01*
X1185950Y1306368D01*
X1192787Y1302884D01*
X1199705Y1299567D01*
X1206702Y1296418D01*
X1213772Y1293440D01*
X1220913Y1290632D01*
X1228119Y1287998D01*
X1235387Y1285540D01*
X1242712Y1283257D01*
X1250090Y1281152D01*
X1257517Y1279226D01*
X1264989Y1277480D01*
X1272500Y1275915D01*
X1280047Y1274532D01*
X1287625Y1273332D01*
X1295230Y1272315D01*
X1302857Y1271482D01*
X1310502Y1270834D01*
X1318161Y1270371D01*
X1325828Y1270093D01*
X1333500Y1270000D01*
X1016000Y2698750D02*
X1016093Y2706422D01*
X1016371Y2714089D01*
X1016834Y2721748D01*
X1017482Y2729393D01*
X1018315Y2737020D01*
X1019332Y2744625D01*
X1020532Y2752203D01*
X1021915Y2759750D01*
X1023480Y2767261D01*
X1025226Y2774733D01*
X1027152Y2782160D01*
X1029257Y2789538D01*
X1031540Y2796863D01*
X1033998Y2804131D01*
X1036632Y2811337D01*
X1039440Y2818478D01*
X1042418Y2825548D01*
X1045567Y2832545D01*
X1048884Y2839463D01*
X1052368Y2846300D01*
X1056015Y2853050D01*
X1059825Y2859710D01*
X1063794Y2866276D01*
X1067921Y2872744D01*
X1072203Y2879111D01*
X1076637Y2885372D01*
X1081222Y2891524D01*
X1085953Y2897564D01*
X1090830Y2903487D01*
X1095848Y2909291D01*
X1101005Y2914973D01*
X1106297Y2920527D01*
X1111723Y2925953D01*
X1117277Y2931245D01*
X1122959Y2936402D01*
X1128763Y2941420D01*
X1134686Y2946297D01*
X1140726Y2951028D01*
X1146878Y2955613D01*
X1153139Y2960047D01*
X1159506Y2964329D01*
X1165974Y2968456D01*
X1172540Y2972425D01*
X1179200Y2976235D01*
X1185950Y2979882D01*
X1192787Y2983366D01*
X1199705Y2986683D01*
X1206702Y2989832D01*
X1213772Y2992810D01*
X1220913Y2995618D01*
X1228119Y2998252D01*
X1235387Y3000710D01*
X1242712Y3002993D01*
X1250090Y3005098D01*
X1257517Y3007024D01*
X1264989Y3008770D01*
X1272500Y3010335D01*
X1280047Y3011718D01*
X1287625Y3012918D01*
X1295230Y3013935D01*
X1302857Y3014768D01*
X1310502Y3015416D01*
X1318161Y3015879D01*
X1325828Y3016157D01*
X1333500Y3016250D01*
X3619500Y3016250D02*
X3627172Y3016157D01*
X3634839Y3015879D01*
X3642498Y3015416D01*
X3650143Y3014768D01*
X3657770Y3013935D01*
X3665375Y3012918D01*
X3672953Y3011718D01*
X3680500Y3010335D01*
X3688011Y3008770D01*
X3695483Y3007024D01*
X3702910Y3005098D01*
X3710288Y3002993D01*
X3717613Y3000710D01*
X3724881Y2998252D01*
X3732087Y2995618D01*
X3739228Y2992810D01*
X3746298Y2989832D01*
X3753295Y2986683D01*
X3760213Y2983366D01*
X3767050Y2979882D01*
X3773800Y2976235D01*
X3780460Y2972425D01*
X3787026Y2968456D01*
X3793494Y2964329D01*
X3799861Y2960047D01*
X3806122Y2955613D01*
X3812274Y2951028D01*
X3818314Y2946297D01*
X3824237Y2941420D01*
X3830041Y2936402D01*
X3835723Y2931245D01*
X3841277Y2925953D01*
X3846703Y2920527D01*
X3851995Y2914973D01*
X3857152Y2909291D01*
X3862170Y2903487D01*
X3867047Y2897564D01*
X3871778Y2891524D01*
X3876363Y2885372D01*
X3880797Y2879111D01*
X3885079Y2872744D01*
X3889206Y2866276D01*
X3893175Y2859710D01*
X3896985Y2853050D01*
X3900632Y2846300D01*
X3904116Y2839463D01*
X3907433Y2832545D01*
X3910582Y2825548D01*
X3913560Y2818478D01*
X3916368Y2811337D01*
X3919002Y2804131D01*
X3921460Y2796863D01*
X3923743Y2789538D01*
X3925848Y2782160D01*
X3927774Y2774733D01*
X3929520Y2767261D01*
X3931085Y2759750D01*
X3932468Y2752203D01*
X3933668Y2744625D01*
X3934685Y2737020D01*
X3935518Y2729393D01*
X3936166Y2721748D01*
X3936629Y2714089D01*
X3936907Y2706422D01*
X3937000Y2698750D01*
X3937000Y1587500D02*
X3936907Y1579828D01*
X3936629Y1572161D01*
X3936166Y1564502D01*
X3935518Y1556857D01*
X3934685Y1549230D01*
X3933668Y1541625D01*
X3932468Y1534047D01*
X3931085Y1526500D01*
X3929520Y1518989D01*
X3927774Y1511517D01*
X3925848Y1504090D01*
X3923743Y1496712D01*
X3921460Y1489387D01*
X3919002Y1482119D01*
X3916368Y1474913D01*
X3913560Y1467772D01*
X3910582Y1460702D01*
X3907433Y1453705D01*
X3904116Y1446787D01*
X3900632Y1439950D01*
X3896985Y1433200D01*
X3893175Y1426540D01*
X3889206Y1419974D01*
X3885079Y1413506D01*
X3880797Y1407139D01*
X3876363Y1400878D01*
X3871778Y1394726D01*
X3867047Y1388686D01*
X3862170Y1382763D01*
X3857152Y1376959D01*
X3851995Y1371277D01*
X3846703Y1365723D01*
X3841277Y1360297D01*
X3835723Y1355005D01*
X3830041Y1349848D01*
X3824237Y1344830D01*
X3818314Y1339953D01*
X3812274Y1335222D01*
X3806122Y1330637D01*
X3799861Y1326203D01*
X3793494Y1321921D01*
X3787026Y1317794D01*
X3780460Y1313825D01*
X3773800Y1310015D01*
X3767050Y1306368D01*
X3760213Y1302884D01*
X3753295Y1299567D01*
X3746298Y1296418D01*
X3739228Y1293440D01*
X3732087Y1290632D01*
X3724881Y1287998D01*
X3717613Y1285540D01*
X3710288Y1283257D01*
X3702910Y1281152D01*
X3695483Y1279226D01*
X3688011Y1277480D01*
X3680500Y1275915D01*
X3672953Y1274532D01*
X3665375Y1273332D01*
X3657770Y1272315D01*
X3650143Y1271482D01*
X3642498Y1270834D01*
X3634839Y1270371D01*
X3627172Y1270093D01*
X3619500Y1270000D01*
X3619500Y3016250D02*
X1333500Y3016250D01*
X1016000Y2698750D02*
X1016000Y1587500D01*
X1333500Y1270000D02*
X3619500Y1270000D01*
X3937000Y1587500D02*
X3937000Y2698750D01*
D11*
X2445000Y2159000D03*
X2635000Y2159000D03*
D12*
X2095500Y2127500D03*
X2095500Y2317500D03*
D13*
X2278000Y2697750D03*
X2548000Y2699750D03*
D14*
X1346200Y2095500D02*
X1193800Y2095500D01*
X1193800Y2349500D02*
X1346200Y2349500D01*
X3606800Y2095500D02*
X3759200Y2095500D01*
X3759200Y2349500D02*
X3606800Y2349500D01*
X2159000Y1600200D02*
X2159000Y1447800D01*
X2413000Y1447800D02*
X2413000Y1600200D01*
X2667000Y1600200D02*
X2667000Y1447800D01*
D12*
X2857500Y2127500D03*
X2857500Y2317500D03*
X3111500Y2127500D03*
X3111500Y2317500D03*
X3365500Y2127500D03*
X3365500Y2317500D03*
X1841500Y2127500D03*
X1841500Y2317500D03*
X1587500Y2127500D03*
X1587500Y2317500D03*
D15*
X1364250Y2667000D03*
X1874250Y2667000D03*
D16*
X1975000Y2317500D02*
X2095500Y2317500D01*
X1975000Y2317500D02*
X1841500Y2317500D01*
X1587500Y2317500D01*
X1302000Y2317500D01*
X1270000Y2349500D01*
D17*
X1975000Y2317500D03*
D16*
X1270000Y2349500D02*
X1270000Y2572750D01*
X1364250Y2667000D01*
X2857500Y2317500D02*
X2975000Y2317500D01*
X3111500Y2317500D01*
X3365500Y2317500D01*
X3651000Y2317500D01*
X3683000Y2349500D01*
X2857500Y2317500D02*
X2635000Y2317500D01*
X2635000Y2159000D01*
D17*
X2975000Y2317500D03*
X2275000Y2075000D03*
D18*
X2359000Y2159000D02*
X2445000Y2159000D01*
X2359000Y2159000D02*
X2275000Y2075000D01*
D17*
X2286000Y2508250D03*
D18*
X2278000Y2516250D02*
X2278000Y2697750D01*
X2278000Y2516250D02*
X2286000Y2508250D01*
D17*
X2540000Y2508250D03*
D18*
X2548000Y2516250D02*
X2548000Y2699750D01*
X2548000Y2516250D02*
X2540000Y2508250D01*
X2095500Y2127500D02*
X2095500Y1979500D01*
X2100000Y1975000D01*
D17*
X2100000Y1975000D03*
M02*
