G04 EAGLE Gerber X2 export*
G75*
%MOMM*%
%FSLAX35Y35*%
%LPD*%
%AMOC8*
5,1,8,0,0,1.08239X$1,22.5*%
G01*
%ADD10C,0.076200*%
%ADD11R,1.000000X1.300000*%
%ADD12R,1.000000X1.800000*%
%ADD13C,0.000000*%
%ADD14R,0.700000X1.100000*%
%ADD15P,1.924489X8X112.500000*%
%ADD16C,2.540000*%
%ADD17C,0.650000*%
%ADD18C,4.016000*%
%ADD19C,0.254000*%

G36*
X326768Y53985D02*
X326768Y53985D01*
X328147Y54114D01*
X328339Y54183D01*
X328542Y54209D01*
X329833Y54719D01*
X331141Y55189D01*
X331311Y55304D01*
X331500Y55379D01*
X332620Y56192D01*
X333774Y56975D01*
X333910Y57128D01*
X334074Y57248D01*
X334959Y58316D01*
X335880Y59359D01*
X335973Y59540D01*
X336103Y59698D01*
X336697Y60956D01*
X337328Y62191D01*
X337373Y62390D01*
X337460Y62575D01*
X337721Y63937D01*
X338027Y65295D01*
X338021Y65499D01*
X338059Y65699D01*
X337974Y67080D01*
X337932Y68474D01*
X337875Y68671D01*
X337863Y68874D01*
X337436Y70194D01*
X337050Y71531D01*
X336947Y71707D01*
X336884Y71901D01*
X336138Y73079D01*
X335436Y74272D01*
X335251Y74483D01*
X335183Y74589D01*
X335030Y74734D01*
X334365Y75489D01*
X266699Y143155D01*
X266699Y165101D01*
X368298Y165101D01*
X369478Y165250D01*
X370663Y165323D01*
X371050Y165448D01*
X371454Y165499D01*
X372560Y165937D01*
X373690Y166302D01*
X374034Y166520D01*
X374413Y166669D01*
X375372Y167366D01*
X376378Y168002D01*
X376658Y168300D01*
X376987Y168538D01*
X377744Y169452D01*
X378559Y170318D01*
X378756Y170674D01*
X379016Y170988D01*
X379523Y172062D01*
X380097Y173103D01*
X380199Y173498D01*
X380373Y173865D01*
X380596Y175030D01*
X380894Y176182D01*
X380933Y176787D01*
X380972Y176989D01*
X380959Y177195D01*
X380998Y177800D01*
X380998Y190502D01*
X381002Y190502D01*
X381002Y177800D01*
X381151Y176620D01*
X381224Y175436D01*
X381349Y175049D01*
X381400Y174644D01*
X381838Y173538D01*
X382203Y172409D01*
X382421Y172064D01*
X382571Y171686D01*
X383267Y170727D01*
X383903Y169720D01*
X384201Y169440D01*
X384439Y169112D01*
X385353Y168355D01*
X386219Y167539D01*
X386575Y167342D01*
X386889Y167082D01*
X387963Y166576D01*
X389004Y166001D01*
X389399Y165899D01*
X389767Y165726D01*
X390932Y165502D01*
X392083Y165204D01*
X392688Y165165D01*
X392891Y165127D01*
X393097Y165139D01*
X393701Y165101D01*
X495300Y165101D01*
X495300Y143155D01*
X427634Y75489D01*
X426785Y74394D01*
X425896Y73322D01*
X425809Y73137D01*
X425684Y72976D01*
X425133Y71703D01*
X424540Y70444D01*
X424501Y70244D01*
X424420Y70057D01*
X424203Y68687D01*
X423941Y67320D01*
X423953Y67117D01*
X423921Y66915D01*
X424051Y65533D01*
X424137Y64145D01*
X424200Y63951D01*
X424219Y63748D01*
X424689Y62439D01*
X425116Y61118D01*
X425225Y60947D01*
X425294Y60754D01*
X426073Y59606D01*
X426816Y58430D01*
X426966Y58289D01*
X427079Y58122D01*
X428117Y57205D01*
X429132Y56249D01*
X429310Y56150D01*
X429463Y56015D01*
X430698Y55384D01*
X431917Y54711D01*
X432115Y54660D01*
X432296Y54567D01*
X433650Y54262D01*
X434996Y53914D01*
X435278Y53896D01*
X435399Y53868D01*
X435608Y53875D01*
X436614Y53810D01*
X2794000Y53810D01*
X2794219Y53838D01*
X2794996Y53849D01*
X2824326Y56158D01*
X2824999Y56297D01*
X2825683Y56339D01*
X2827254Y56740D01*
X2883043Y74867D01*
X2884113Y75371D01*
X2885213Y75804D01*
X2885732Y76132D01*
X2885921Y76221D01*
X2886080Y76353D01*
X2886583Y76671D01*
X2934040Y111150D01*
X2934903Y111961D01*
X2935815Y112712D01*
X2936207Y113185D01*
X2936359Y113328D01*
X2936470Y113502D01*
X2936849Y113960D01*
X2971329Y161417D01*
X2971899Y162454D01*
X2972534Y163450D01*
X2972761Y164022D01*
X2972862Y164204D01*
X2972913Y164403D01*
X2973133Y164957D01*
X2991259Y220746D01*
X2991388Y221420D01*
X2991612Y222069D01*
X2991842Y223673D01*
X2994150Y253003D01*
X2994140Y253225D01*
X2994189Y254000D01*
X2994189Y2286000D01*
X2994162Y2286219D01*
X2994150Y2286996D01*
X2991842Y2316326D01*
X2991703Y2316999D01*
X2991661Y2317683D01*
X2991259Y2319254D01*
X2973133Y2375043D01*
X2972629Y2376113D01*
X2972196Y2377213D01*
X2971868Y2377732D01*
X2971778Y2377921D01*
X2971647Y2378080D01*
X2971329Y2378583D01*
X2936849Y2426040D01*
X2936039Y2426903D01*
X2935288Y2427815D01*
X2934815Y2428207D01*
X2934672Y2428359D01*
X2934498Y2428470D01*
X2934040Y2428849D01*
X2886583Y2463329D01*
X2885546Y2463899D01*
X2884550Y2464534D01*
X2883978Y2464761D01*
X2883795Y2464862D01*
X2883596Y2464913D01*
X2883043Y2465133D01*
X2827254Y2483259D01*
X2826579Y2483388D01*
X2825931Y2483612D01*
X2824326Y2483842D01*
X2794997Y2486150D01*
X2794775Y2486140D01*
X2794000Y2486189D01*
X254000Y2486189D01*
X253781Y2486162D01*
X253003Y2486150D01*
X223673Y2483842D01*
X223001Y2483703D01*
X222317Y2483661D01*
X220746Y2483259D01*
X164957Y2465133D01*
X163886Y2464629D01*
X162787Y2464196D01*
X162268Y2463868D01*
X162078Y2463778D01*
X161919Y2463647D01*
X161417Y2463329D01*
X113960Y2428849D01*
X113097Y2428039D01*
X112185Y2427288D01*
X111793Y2426815D01*
X111641Y2426672D01*
X111530Y2426498D01*
X111150Y2426040D01*
X76671Y2378583D01*
X76101Y2377546D01*
X75466Y2376550D01*
X75239Y2375978D01*
X75138Y2375795D01*
X75087Y2375596D01*
X74867Y2375043D01*
X72914Y2369033D01*
X72914Y2369031D01*
X72913Y2369030D01*
X56740Y2319254D01*
X56612Y2318579D01*
X56388Y2317931D01*
X56158Y2316326D01*
X53849Y2286997D01*
X53860Y2286775D01*
X53810Y2286000D01*
X53810Y254000D01*
X53838Y253781D01*
X53849Y253003D01*
X56158Y223673D01*
X56297Y223001D01*
X56339Y222317D01*
X56740Y220746D01*
X74867Y164957D01*
X75371Y163886D01*
X75804Y162787D01*
X76132Y162268D01*
X76221Y162078D01*
X76353Y161919D01*
X76671Y161417D01*
X111150Y113960D01*
X111961Y113097D01*
X112712Y112185D01*
X113185Y111793D01*
X113328Y111641D01*
X113502Y111530D01*
X113960Y111150D01*
X161417Y76671D01*
X162453Y76101D01*
X163450Y75466D01*
X164022Y75239D01*
X164204Y75138D01*
X164403Y75087D01*
X164957Y74867D01*
X220745Y56740D01*
X221420Y56612D01*
X222068Y56388D01*
X223673Y56158D01*
X253003Y53849D01*
X253225Y53860D01*
X254000Y53810D01*
X325386Y53810D01*
X326768Y53985D01*
G37*
%LPC*%
G36*
X1196057Y1725499D02*
X1196057Y1725499D01*
X1176760Y1733492D01*
X1161992Y1748260D01*
X1153999Y1767557D01*
X1153999Y1788443D01*
X1161992Y1807739D01*
X1170080Y1815827D01*
X1170683Y1816605D01*
X1171361Y1817324D01*
X1171656Y1817858D01*
X1172030Y1818340D01*
X1172421Y1819244D01*
X1172899Y1820109D01*
X1173052Y1820701D01*
X1173294Y1821259D01*
X1173448Y1822232D01*
X1173696Y1823189D01*
X1173760Y1824197D01*
X1173793Y1824401D01*
X1173781Y1824524D01*
X1173799Y1824807D01*
X1173799Y1880969D01*
X1173676Y1881946D01*
X1173647Y1882933D01*
X1173477Y1883520D01*
X1173401Y1884125D01*
X1173039Y1885040D01*
X1172765Y1885990D01*
X1172455Y1886517D01*
X1172231Y1887083D01*
X1171652Y1887881D01*
X1171151Y1888731D01*
X1170484Y1889489D01*
X1170362Y1889657D01*
X1170266Y1889737D01*
X1170080Y1889948D01*
X1067007Y1993021D01*
X1067007Y2009591D01*
X1149433Y2092017D01*
X1154717Y2092017D01*
X1155897Y2092166D01*
X1157082Y2092239D01*
X1157468Y2092364D01*
X1157873Y2092415D01*
X1158979Y2092853D01*
X1160108Y2093218D01*
X1160453Y2093436D01*
X1160831Y2093586D01*
X1161791Y2094282D01*
X1162797Y2094918D01*
X1163077Y2095216D01*
X1163406Y2095454D01*
X1164163Y2096368D01*
X1164978Y2097234D01*
X1165175Y2097590D01*
X1165435Y2097904D01*
X1165942Y2098978D01*
X1166516Y2100019D01*
X1166618Y2100414D01*
X1166792Y2100782D01*
X1167015Y2101947D01*
X1167313Y2103098D01*
X1167352Y2103703D01*
X1167391Y2103906D01*
X1167378Y2104112D01*
X1167417Y2104716D01*
X1167417Y2110707D01*
X1249843Y2193133D01*
X1257955Y2193133D01*
X1259135Y2193282D01*
X1260319Y2193355D01*
X1260706Y2193481D01*
X1261111Y2193532D01*
X1262216Y2193969D01*
X1263346Y2194334D01*
X1263690Y2194552D01*
X1264069Y2194702D01*
X1265028Y2195398D01*
X1266034Y2196035D01*
X1266315Y2196332D01*
X1266643Y2196571D01*
X1267400Y2197484D01*
X1268216Y2198350D01*
X1268413Y2198706D01*
X1268673Y2199020D01*
X1269179Y2200095D01*
X1269753Y2201135D01*
X1269856Y2201530D01*
X1270029Y2201898D01*
X1270253Y2203063D01*
X1270551Y2204215D01*
X1270589Y2204819D01*
X1270628Y2205022D01*
X1270615Y2205228D01*
X1270654Y2205833D01*
X1270654Y2211116D01*
X1353080Y2293542D01*
X1369650Y2293542D01*
X1473289Y2189903D01*
X1473289Y2173333D01*
X1464179Y2164223D01*
X1463451Y2163285D01*
X1462664Y2162394D01*
X1462479Y2162032D01*
X1462229Y2161710D01*
X1461757Y2160619D01*
X1461216Y2159562D01*
X1461127Y2159165D01*
X1460965Y2158791D01*
X1460779Y2157620D01*
X1460518Y2156458D01*
X1460530Y2156050D01*
X1460466Y2155649D01*
X1460577Y2154468D01*
X1460612Y2153279D01*
X1460725Y2152888D01*
X1460763Y2152482D01*
X1461165Y2151364D01*
X1461494Y2150222D01*
X1461701Y2149871D01*
X1461838Y2149488D01*
X1462505Y2148505D01*
X1463108Y2147481D01*
X1463508Y2147027D01*
X1463624Y2146855D01*
X1463779Y2146718D01*
X1464179Y2146264D01*
X1493200Y2117243D01*
X1493200Y2078807D01*
X1493324Y2077829D01*
X1493353Y2076842D01*
X1493523Y2076255D01*
X1493599Y2075651D01*
X1493961Y2074735D01*
X1494235Y2073785D01*
X1494545Y2073259D01*
X1494769Y2072693D01*
X1495348Y2071895D01*
X1495849Y2071044D01*
X1496516Y2070287D01*
X1496638Y2070118D01*
X1496733Y2070039D01*
X1496920Y2069827D01*
X1505008Y2061739D01*
X1513000Y2042443D01*
X1513000Y2021557D01*
X1505008Y2002260D01*
X1490239Y1987492D01*
X1470943Y1979499D01*
X1450057Y1979499D01*
X1430760Y1987492D01*
X1415992Y2002260D01*
X1407999Y2021557D01*
X1407999Y2042443D01*
X1415992Y2061739D01*
X1424080Y2069827D01*
X1424683Y2070605D01*
X1425361Y2071324D01*
X1425656Y2071858D01*
X1426030Y2072340D01*
X1426421Y2073244D01*
X1426899Y2074109D01*
X1427052Y2074701D01*
X1427294Y2075259D01*
X1427448Y2076232D01*
X1427696Y2077189D01*
X1427760Y2078197D01*
X1427793Y2078401D01*
X1427781Y2078524D01*
X1427799Y2078807D01*
X1427799Y2084892D01*
X1427676Y2085869D01*
X1427647Y2086856D01*
X1427477Y2087443D01*
X1427401Y2088048D01*
X1427039Y2088963D01*
X1426765Y2089913D01*
X1426455Y2090439D01*
X1426231Y2091006D01*
X1425652Y2091803D01*
X1425151Y2092654D01*
X1424484Y2093412D01*
X1424362Y2093580D01*
X1424266Y2093659D01*
X1424080Y2093871D01*
X1417933Y2100018D01*
X1416995Y2100746D01*
X1416104Y2101533D01*
X1415742Y2101718D01*
X1415420Y2101968D01*
X1414328Y2102441D01*
X1413272Y2102981D01*
X1412874Y2103070D01*
X1412501Y2103232D01*
X1411329Y2103418D01*
X1410168Y2103679D01*
X1409760Y2103667D01*
X1409359Y2103731D01*
X1408180Y2103620D01*
X1406988Y2103585D01*
X1406596Y2103471D01*
X1406192Y2103433D01*
X1405074Y2103032D01*
X1403932Y2102703D01*
X1403582Y2102496D01*
X1403198Y2102358D01*
X1402213Y2101691D01*
X1401191Y2101089D01*
X1400736Y2100689D01*
X1400565Y2100573D01*
X1400428Y2100418D01*
X1399973Y2100018D01*
X1390863Y2090907D01*
X1382751Y2090907D01*
X1381571Y2090758D01*
X1380387Y2090685D01*
X1380000Y2090559D01*
X1379595Y2090508D01*
X1378490Y2090071D01*
X1377360Y2089706D01*
X1377016Y2089488D01*
X1376637Y2089338D01*
X1375678Y2088642D01*
X1374672Y2088005D01*
X1374391Y2087708D01*
X1374063Y2087469D01*
X1373306Y2086556D01*
X1372490Y2085690D01*
X1372293Y2085334D01*
X1372033Y2085020D01*
X1371527Y2083945D01*
X1370953Y2082905D01*
X1370850Y2082510D01*
X1370677Y2082142D01*
X1370453Y2080977D01*
X1370155Y2079825D01*
X1370117Y2079221D01*
X1370078Y2079018D01*
X1370091Y2078812D01*
X1370052Y2078208D01*
X1370052Y2072924D01*
X1360942Y2063814D01*
X1360213Y2062876D01*
X1359427Y2061985D01*
X1359241Y2061623D01*
X1358992Y2061301D01*
X1358519Y2060210D01*
X1357979Y2059153D01*
X1357889Y2058756D01*
X1357728Y2058382D01*
X1357542Y2057211D01*
X1357280Y2056049D01*
X1357292Y2055641D01*
X1357228Y2055240D01*
X1357339Y2054059D01*
X1357375Y2052870D01*
X1357488Y2052478D01*
X1357526Y2052073D01*
X1357927Y2050955D01*
X1358257Y2049813D01*
X1358463Y2049462D01*
X1358601Y2049079D01*
X1359267Y2048097D01*
X1359871Y2047072D01*
X1360270Y2046618D01*
X1360387Y2046446D01*
X1360542Y2046309D01*
X1360942Y2045855D01*
X1366200Y2040596D01*
X1366200Y1951807D01*
X1366324Y1950829D01*
X1366353Y1949842D01*
X1366523Y1949255D01*
X1366599Y1948651D01*
X1366961Y1947735D01*
X1367235Y1946785D01*
X1367545Y1946259D01*
X1367769Y1945693D01*
X1368348Y1944895D01*
X1368849Y1944044D01*
X1369516Y1943287D01*
X1369638Y1943118D01*
X1369733Y1943039D01*
X1369920Y1942827D01*
X1378008Y1934739D01*
X1386000Y1915443D01*
X1386000Y1894557D01*
X1378008Y1875260D01*
X1363239Y1860492D01*
X1343943Y1852499D01*
X1323057Y1852499D01*
X1303760Y1860492D01*
X1288992Y1875260D01*
X1280999Y1894557D01*
X1280999Y1915443D01*
X1288992Y1934739D01*
X1297080Y1942827D01*
X1297683Y1943605D01*
X1298361Y1944324D01*
X1298656Y1944858D01*
X1299030Y1945340D01*
X1299421Y1946244D01*
X1299899Y1947109D01*
X1300052Y1947701D01*
X1300294Y1948259D01*
X1300448Y1949232D01*
X1300696Y1950189D01*
X1300760Y1951197D01*
X1300793Y1951401D01*
X1300781Y1951524D01*
X1300799Y1951807D01*
X1300799Y1977798D01*
X1300650Y1978978D01*
X1300577Y1980163D01*
X1300452Y1980550D01*
X1300401Y1980954D01*
X1299963Y1982060D01*
X1299598Y1983190D01*
X1299380Y1983534D01*
X1299231Y1983913D01*
X1298534Y1984872D01*
X1297898Y1985878D01*
X1297601Y1986158D01*
X1297362Y1986487D01*
X1296448Y1987244D01*
X1295583Y1988059D01*
X1295226Y1988256D01*
X1294912Y1988516D01*
X1293838Y1989023D01*
X1292798Y1989597D01*
X1292403Y1989699D01*
X1292035Y1989873D01*
X1290870Y1990096D01*
X1289718Y1990394D01*
X1289113Y1990433D01*
X1288911Y1990472D01*
X1288705Y1990459D01*
X1288100Y1990498D01*
X1282342Y1990498D01*
X1281162Y1990349D01*
X1279978Y1990276D01*
X1279591Y1990150D01*
X1279186Y1990099D01*
X1278080Y1989662D01*
X1276951Y1989297D01*
X1276606Y1989079D01*
X1276228Y1988929D01*
X1275268Y1988233D01*
X1274262Y1987596D01*
X1273982Y1987299D01*
X1273653Y1987060D01*
X1272897Y1986147D01*
X1272081Y1985281D01*
X1271884Y1984925D01*
X1271624Y1984611D01*
X1271118Y1983536D01*
X1270543Y1982496D01*
X1270441Y1982101D01*
X1270268Y1981733D01*
X1270044Y1980568D01*
X1269746Y1979416D01*
X1269707Y1978812D01*
X1269668Y1978609D01*
X1269681Y1978403D01*
X1269643Y1977798D01*
X1269643Y1971808D01*
X1242920Y1945085D01*
X1242317Y1944308D01*
X1241639Y1943588D01*
X1241344Y1943054D01*
X1240970Y1942572D01*
X1240578Y1941668D01*
X1240101Y1940803D01*
X1239948Y1940211D01*
X1239706Y1939653D01*
X1239552Y1938680D01*
X1239304Y1937723D01*
X1239239Y1936715D01*
X1239207Y1936511D01*
X1239218Y1936388D01*
X1239200Y1936106D01*
X1239200Y1824807D01*
X1239324Y1823829D01*
X1239353Y1822842D01*
X1239523Y1822255D01*
X1239599Y1821651D01*
X1239961Y1820735D01*
X1240235Y1819785D01*
X1240545Y1819259D01*
X1240769Y1818693D01*
X1241348Y1817895D01*
X1241849Y1817044D01*
X1242516Y1816287D01*
X1242638Y1816118D01*
X1242733Y1816039D01*
X1242920Y1815827D01*
X1251008Y1807739D01*
X1259000Y1788443D01*
X1259000Y1767557D01*
X1251008Y1748260D01*
X1236239Y1733492D01*
X1216943Y1725499D01*
X1196057Y1725499D01*
G37*
%LPD*%
%LPC*%
G36*
X2320260Y1535749D02*
X2320260Y1535749D01*
X2266230Y1558129D01*
X2224879Y1599480D01*
X2202499Y1653510D01*
X2202499Y1711989D01*
X2224879Y1766020D01*
X2266230Y1807370D01*
X2320260Y1829750D01*
X2378740Y1829750D01*
X2432770Y1807370D01*
X2474120Y1766020D01*
X2496500Y1711989D01*
X2496500Y1653510D01*
X2474120Y1599480D01*
X2432770Y1558129D01*
X2378740Y1535749D01*
X2320260Y1535749D01*
G37*
%LPD*%
%LPC*%
G36*
X623215Y988999D02*
X623215Y988999D01*
X611499Y1000715D01*
X611499Y1127285D01*
X623215Y1139000D01*
X709785Y1139000D01*
X721500Y1127285D01*
X721500Y1109400D01*
X721649Y1108220D01*
X721723Y1107035D01*
X721848Y1106648D01*
X721899Y1106244D01*
X722336Y1105138D01*
X722702Y1104008D01*
X722919Y1103664D01*
X723069Y1103286D01*
X723765Y1102326D01*
X724402Y1101320D01*
X724699Y1101040D01*
X724938Y1100711D01*
X725851Y1099954D01*
X726717Y1099139D01*
X727073Y1098942D01*
X727388Y1098682D01*
X728462Y1098175D01*
X729502Y1097601D01*
X729897Y1097499D01*
X730265Y1097325D01*
X731430Y1097102D01*
X732582Y1096804D01*
X733187Y1096765D01*
X733389Y1096726D01*
X733595Y1096739D01*
X734200Y1096700D01*
X1043800Y1096700D01*
X1044980Y1096849D01*
X1046164Y1096923D01*
X1046551Y1097048D01*
X1046956Y1097099D01*
X1048062Y1097536D01*
X1049191Y1097902D01*
X1049536Y1098119D01*
X1049914Y1098269D01*
X1050873Y1098965D01*
X1051880Y1099602D01*
X1052160Y1099899D01*
X1052488Y1100138D01*
X1053245Y1101051D01*
X1054061Y1101917D01*
X1054258Y1102273D01*
X1054518Y1102588D01*
X1055024Y1103662D01*
X1055599Y1104702D01*
X1055701Y1105097D01*
X1055874Y1105465D01*
X1056098Y1106630D01*
X1056396Y1107782D01*
X1056435Y1108387D01*
X1056473Y1108589D01*
X1056461Y1108795D01*
X1056499Y1109400D01*
X1056499Y1127285D01*
X1068544Y1139329D01*
X1068601Y1139348D01*
X1069006Y1139399D01*
X1070112Y1139836D01*
X1071241Y1140202D01*
X1071586Y1140419D01*
X1071964Y1140569D01*
X1072923Y1141265D01*
X1073930Y1141902D01*
X1074210Y1142199D01*
X1074538Y1142438D01*
X1075295Y1143351D01*
X1076111Y1144217D01*
X1076308Y1144573D01*
X1076568Y1144888D01*
X1077074Y1145962D01*
X1077649Y1147002D01*
X1077751Y1147397D01*
X1077924Y1147765D01*
X1078148Y1148930D01*
X1078446Y1150082D01*
X1078485Y1150687D01*
X1078523Y1150889D01*
X1078511Y1151095D01*
X1078549Y1151700D01*
X1078549Y1156545D01*
X1086780Y1164776D01*
X1087383Y1165553D01*
X1088061Y1166273D01*
X1088356Y1166807D01*
X1088730Y1167289D01*
X1089121Y1168193D01*
X1089599Y1169058D01*
X1089752Y1169650D01*
X1089994Y1170208D01*
X1090148Y1171181D01*
X1090396Y1172138D01*
X1090460Y1173146D01*
X1090493Y1173350D01*
X1090481Y1173473D01*
X1090499Y1173755D01*
X1090499Y1185193D01*
X1098492Y1204489D01*
X1113260Y1219258D01*
X1132557Y1227250D01*
X1153443Y1227250D01*
X1172739Y1219258D01*
X1187508Y1204489D01*
X1195500Y1185193D01*
X1195500Y1164307D01*
X1187508Y1145010D01*
X1172158Y1129661D01*
X1171578Y1129330D01*
X1171368Y1129127D01*
X1171120Y1128970D01*
X1170224Y1128019D01*
X1169293Y1127117D01*
X1169140Y1126868D01*
X1168939Y1126655D01*
X1168309Y1125514D01*
X1167629Y1124406D01*
X1167543Y1124127D01*
X1167401Y1123870D01*
X1167074Y1122609D01*
X1166691Y1121366D01*
X1166677Y1121074D01*
X1166604Y1120790D01*
X1166500Y1119173D01*
X1166500Y1000715D01*
X1154785Y988999D01*
X1068215Y988999D01*
X1056499Y1000715D01*
X1056499Y1018600D01*
X1056350Y1019780D01*
X1056277Y1020964D01*
X1056152Y1021351D01*
X1056101Y1021756D01*
X1055663Y1022862D01*
X1055298Y1023991D01*
X1055080Y1024336D01*
X1054931Y1024714D01*
X1054234Y1025673D01*
X1053598Y1026680D01*
X1053300Y1026960D01*
X1053062Y1027288D01*
X1052148Y1028045D01*
X1051283Y1028861D01*
X1050926Y1029058D01*
X1050612Y1029318D01*
X1049538Y1029824D01*
X1048498Y1030399D01*
X1048103Y1030501D01*
X1047735Y1030674D01*
X1046570Y1030898D01*
X1045418Y1031196D01*
X1044813Y1031235D01*
X1044611Y1031273D01*
X1044405Y1031261D01*
X1043800Y1031299D01*
X734200Y1031299D01*
X733020Y1031150D01*
X731835Y1031077D01*
X731448Y1030952D01*
X731044Y1030901D01*
X729938Y1030463D01*
X728808Y1030098D01*
X728464Y1029880D01*
X728086Y1029731D01*
X727126Y1029034D01*
X726120Y1028398D01*
X725840Y1028100D01*
X725511Y1027862D01*
X724754Y1026948D01*
X723939Y1026083D01*
X723742Y1025726D01*
X723482Y1025412D01*
X722975Y1024338D01*
X722401Y1023298D01*
X722299Y1022903D01*
X722125Y1022535D01*
X721902Y1021370D01*
X721604Y1020218D01*
X721565Y1019613D01*
X721526Y1019411D01*
X721539Y1019205D01*
X721500Y1018600D01*
X721500Y1000715D01*
X709785Y988999D01*
X623215Y988999D01*
G37*
%LPD*%
%LPC*%
G36*
X1258215Y988999D02*
X1258215Y988999D01*
X1246499Y1000715D01*
X1246499Y1127285D01*
X1258215Y1139000D01*
X1344785Y1139000D01*
X1356500Y1127285D01*
X1356500Y1109400D01*
X1356649Y1108220D01*
X1356723Y1107035D01*
X1356848Y1106648D01*
X1356899Y1106244D01*
X1357336Y1105138D01*
X1357702Y1104008D01*
X1357919Y1103664D01*
X1358069Y1103286D01*
X1358765Y1102326D01*
X1359402Y1101320D01*
X1359699Y1101040D01*
X1359938Y1100711D01*
X1360851Y1099954D01*
X1361717Y1099139D01*
X1362073Y1098942D01*
X1362388Y1098682D01*
X1363462Y1098175D01*
X1364502Y1097601D01*
X1364897Y1097499D01*
X1365265Y1097325D01*
X1366430Y1097102D01*
X1367582Y1096804D01*
X1368187Y1096765D01*
X1368389Y1096726D01*
X1368595Y1096739D01*
X1369200Y1096700D01*
X1678800Y1096700D01*
X1679980Y1096849D01*
X1681164Y1096923D01*
X1681551Y1097048D01*
X1681956Y1097099D01*
X1683062Y1097536D01*
X1684191Y1097902D01*
X1684536Y1098119D01*
X1684914Y1098269D01*
X1685873Y1098965D01*
X1686880Y1099602D01*
X1687160Y1099899D01*
X1687488Y1100138D01*
X1688245Y1101051D01*
X1689061Y1101917D01*
X1689258Y1102273D01*
X1689518Y1102588D01*
X1690024Y1103662D01*
X1690599Y1104702D01*
X1690701Y1105097D01*
X1690874Y1105465D01*
X1691098Y1106630D01*
X1691396Y1107782D01*
X1691435Y1108387D01*
X1691473Y1108589D01*
X1691461Y1108795D01*
X1691499Y1109400D01*
X1691499Y1127285D01*
X1697934Y1133719D01*
X1698112Y1133949D01*
X1698335Y1134139D01*
X1699087Y1135205D01*
X1699884Y1136232D01*
X1700000Y1136500D01*
X1700168Y1136739D01*
X1700632Y1137960D01*
X1701148Y1139152D01*
X1701193Y1139439D01*
X1701298Y1139713D01*
X1701443Y1141010D01*
X1701647Y1142293D01*
X1701620Y1142583D01*
X1701652Y1142874D01*
X1701471Y1144167D01*
X1701349Y1145460D01*
X1701251Y1145734D01*
X1701210Y1146024D01*
X1700687Y1147559D01*
X1693749Y1164307D01*
X1693749Y1185193D01*
X1701742Y1204489D01*
X1716510Y1219258D01*
X1735807Y1227250D01*
X1756693Y1227250D01*
X1775989Y1219258D01*
X1790758Y1204489D01*
X1798750Y1185193D01*
X1798750Y1164307D01*
X1791959Y1147912D01*
X1791883Y1147631D01*
X1791749Y1147370D01*
X1791463Y1146098D01*
X1791119Y1144844D01*
X1791115Y1144552D01*
X1791051Y1144267D01*
X1791089Y1142963D01*
X1791069Y1141663D01*
X1791137Y1141380D01*
X1791145Y1141087D01*
X1791507Y1139834D01*
X1791810Y1138570D01*
X1791947Y1138312D01*
X1792028Y1138031D01*
X1792688Y1136908D01*
X1793297Y1135757D01*
X1793493Y1135542D01*
X1793641Y1135289D01*
X1794712Y1134072D01*
X1801500Y1127284D01*
X1801500Y1000715D01*
X1789785Y988999D01*
X1703215Y988999D01*
X1691499Y1000715D01*
X1691499Y1018600D01*
X1691350Y1019780D01*
X1691277Y1020964D01*
X1691152Y1021351D01*
X1691101Y1021756D01*
X1690663Y1022862D01*
X1690298Y1023991D01*
X1690080Y1024336D01*
X1689931Y1024714D01*
X1689234Y1025673D01*
X1688598Y1026680D01*
X1688300Y1026960D01*
X1688062Y1027288D01*
X1687148Y1028045D01*
X1686283Y1028861D01*
X1685926Y1029058D01*
X1685612Y1029318D01*
X1684538Y1029824D01*
X1683498Y1030399D01*
X1683103Y1030501D01*
X1682735Y1030674D01*
X1681570Y1030898D01*
X1680418Y1031196D01*
X1679813Y1031235D01*
X1679611Y1031273D01*
X1679405Y1031261D01*
X1678800Y1031299D01*
X1369200Y1031299D01*
X1368020Y1031150D01*
X1366835Y1031077D01*
X1366448Y1030952D01*
X1366044Y1030901D01*
X1364938Y1030463D01*
X1363808Y1030098D01*
X1363464Y1029880D01*
X1363086Y1029731D01*
X1362126Y1029034D01*
X1361120Y1028398D01*
X1360840Y1028100D01*
X1360511Y1027862D01*
X1359754Y1026948D01*
X1358939Y1026083D01*
X1358742Y1025726D01*
X1358482Y1025412D01*
X1357975Y1024338D01*
X1357401Y1023298D01*
X1357299Y1022903D01*
X1357125Y1022535D01*
X1356902Y1021370D01*
X1356604Y1020218D01*
X1356565Y1019613D01*
X1356526Y1019411D01*
X1356539Y1019205D01*
X1356500Y1018600D01*
X1356500Y1000715D01*
X1344785Y988999D01*
X1258215Y988999D01*
G37*
%LPD*%
%LPC*%
G36*
X1893215Y988999D02*
X1893215Y988999D01*
X1881499Y1000715D01*
X1881499Y1127284D01*
X1888288Y1134072D01*
X1888467Y1134304D01*
X1888689Y1134493D01*
X1889438Y1135556D01*
X1890238Y1136586D01*
X1890353Y1136853D01*
X1890522Y1137092D01*
X1890985Y1138312D01*
X1891502Y1139505D01*
X1891547Y1139793D01*
X1891651Y1140066D01*
X1891797Y1141363D01*
X1892001Y1142647D01*
X1891973Y1142937D01*
X1892006Y1143228D01*
X1891825Y1144516D01*
X1891703Y1145814D01*
X1891605Y1146089D01*
X1891564Y1146378D01*
X1891040Y1147912D01*
X1884249Y1164307D01*
X1884249Y1185193D01*
X1892242Y1204489D01*
X1907010Y1219258D01*
X1926307Y1227250D01*
X1947193Y1227250D01*
X1966489Y1219258D01*
X1981258Y1204489D01*
X1989250Y1185193D01*
X1989250Y1164307D01*
X1982313Y1147559D01*
X1982235Y1147276D01*
X1982103Y1147017D01*
X1981818Y1145749D01*
X1981473Y1144490D01*
X1981468Y1144198D01*
X1981404Y1143914D01*
X1981443Y1142610D01*
X1981423Y1141310D01*
X1981490Y1141027D01*
X1981499Y1140734D01*
X1981861Y1139480D01*
X1982164Y1138216D01*
X1982300Y1137958D01*
X1982381Y1137678D01*
X1983043Y1136554D01*
X1983651Y1135404D01*
X1983847Y1135188D01*
X1983995Y1134936D01*
X1985066Y1133719D01*
X1991500Y1127285D01*
X1991500Y1109400D01*
X1991649Y1108220D01*
X1991723Y1107035D01*
X1991848Y1106648D01*
X1991899Y1106244D01*
X1992336Y1105138D01*
X1992702Y1104008D01*
X1992919Y1103664D01*
X1993069Y1103286D01*
X1993765Y1102326D01*
X1994402Y1101320D01*
X1994699Y1101040D01*
X1994938Y1100711D01*
X1995851Y1099954D01*
X1996717Y1099139D01*
X1997073Y1098942D01*
X1997388Y1098682D01*
X1998462Y1098175D01*
X1999502Y1097601D01*
X1999897Y1097499D01*
X2000265Y1097325D01*
X2001430Y1097102D01*
X2002582Y1096804D01*
X2003187Y1096765D01*
X2003389Y1096726D01*
X2003595Y1096739D01*
X2004200Y1096700D01*
X2313800Y1096700D01*
X2314980Y1096849D01*
X2316164Y1096923D01*
X2316551Y1097048D01*
X2316956Y1097099D01*
X2318062Y1097536D01*
X2319191Y1097902D01*
X2319536Y1098119D01*
X2319914Y1098269D01*
X2320873Y1098965D01*
X2321880Y1099602D01*
X2322160Y1099899D01*
X2322488Y1100138D01*
X2323245Y1101051D01*
X2324061Y1101917D01*
X2324258Y1102273D01*
X2324518Y1102588D01*
X2325024Y1103662D01*
X2325599Y1104702D01*
X2325701Y1105097D01*
X2325874Y1105465D01*
X2326098Y1106630D01*
X2326396Y1107782D01*
X2326435Y1108387D01*
X2326473Y1108589D01*
X2326461Y1108795D01*
X2326499Y1109400D01*
X2326499Y1127285D01*
X2338215Y1139000D01*
X2424785Y1139000D01*
X2436500Y1127285D01*
X2436500Y1000715D01*
X2424785Y988999D01*
X2338215Y988999D01*
X2326499Y1000715D01*
X2326499Y1018600D01*
X2326350Y1019780D01*
X2326277Y1020964D01*
X2326152Y1021351D01*
X2326101Y1021756D01*
X2325663Y1022862D01*
X2325298Y1023991D01*
X2325080Y1024336D01*
X2324931Y1024714D01*
X2324234Y1025673D01*
X2323598Y1026680D01*
X2323300Y1026960D01*
X2323062Y1027288D01*
X2322148Y1028045D01*
X2321283Y1028861D01*
X2320926Y1029058D01*
X2320612Y1029318D01*
X2319538Y1029824D01*
X2318498Y1030399D01*
X2318103Y1030501D01*
X2317735Y1030674D01*
X2316570Y1030898D01*
X2315418Y1031196D01*
X2314813Y1031235D01*
X2314611Y1031273D01*
X2314405Y1031261D01*
X2313800Y1031299D01*
X2004200Y1031299D01*
X2003020Y1031150D01*
X2001835Y1031077D01*
X2001448Y1030952D01*
X2001044Y1030901D01*
X1999938Y1030463D01*
X1998808Y1030098D01*
X1998464Y1029880D01*
X1998086Y1029731D01*
X1997126Y1029034D01*
X1996120Y1028398D01*
X1995840Y1028100D01*
X1995511Y1027862D01*
X1994754Y1026948D01*
X1993939Y1026083D01*
X1993742Y1025726D01*
X1993482Y1025412D01*
X1992975Y1024338D01*
X1992401Y1023298D01*
X1992299Y1022903D01*
X1992125Y1022535D01*
X1991902Y1021370D01*
X1991604Y1020218D01*
X1991565Y1019613D01*
X1991526Y1019411D01*
X1991539Y1019205D01*
X1991500Y1018600D01*
X1991500Y1000715D01*
X1979785Y988999D01*
X1893215Y988999D01*
G37*
%LPD*%
%LPC*%
G36*
X1267533Y1567636D02*
X1267533Y1567636D01*
X1266596Y1568363D01*
X1265704Y1569151D01*
X1265342Y1569336D01*
X1265020Y1569586D01*
X1263930Y1570058D01*
X1262872Y1570598D01*
X1262474Y1570688D01*
X1262101Y1570850D01*
X1260930Y1571036D01*
X1259768Y1571297D01*
X1259360Y1571285D01*
X1258959Y1571349D01*
X1257780Y1571238D01*
X1256589Y1571203D01*
X1256196Y1571089D01*
X1255792Y1571051D01*
X1254677Y1570651D01*
X1253532Y1570321D01*
X1253181Y1570114D01*
X1252798Y1569976D01*
X1251932Y1569389D01*
X1252086Y1569587D01*
X1252558Y1570677D01*
X1253098Y1571735D01*
X1253188Y1572133D01*
X1253350Y1572506D01*
X1253536Y1573677D01*
X1253797Y1574838D01*
X1253785Y1575247D01*
X1253849Y1575648D01*
X1253738Y1576827D01*
X1253703Y1578018D01*
X1253589Y1578411D01*
X1253551Y1578815D01*
X1253151Y1579930D01*
X1252821Y1581075D01*
X1252614Y1581426D01*
X1252476Y1581809D01*
X1251808Y1582793D01*
X1251207Y1583816D01*
X1250808Y1584269D01*
X1250691Y1584442D01*
X1250534Y1584580D01*
X1250136Y1585033D01*
X1205518Y1629651D01*
X1253845Y1677977D01*
X1259637Y1681321D01*
X1266097Y1683052D01*
X1274450Y1683052D01*
X1275630Y1683201D01*
X1276814Y1683274D01*
X1277201Y1683400D01*
X1277606Y1683451D01*
X1278711Y1683888D01*
X1279841Y1684253D01*
X1280185Y1684471D01*
X1280564Y1684621D01*
X1281523Y1685317D01*
X1282529Y1685954D01*
X1282810Y1686251D01*
X1283138Y1686490D01*
X1283895Y1687403D01*
X1284711Y1688269D01*
X1284908Y1688625D01*
X1285168Y1688939D01*
X1285674Y1690014D01*
X1286248Y1691054D01*
X1286351Y1691449D01*
X1286524Y1691817D01*
X1286748Y1692982D01*
X1287046Y1694134D01*
X1287084Y1694738D01*
X1287123Y1694941D01*
X1287110Y1695147D01*
X1287149Y1695752D01*
X1287149Y1727538D01*
X1302754Y1765212D01*
X1331587Y1794045D01*
X1369261Y1809650D01*
X1410038Y1809650D01*
X1447712Y1794045D01*
X1476545Y1765212D01*
X1492150Y1727538D01*
X1492150Y1686761D01*
X1476545Y1649087D01*
X1447712Y1620254D01*
X1410038Y1604649D01*
X1378252Y1604649D01*
X1377072Y1604500D01*
X1375887Y1604427D01*
X1375500Y1604302D01*
X1375096Y1604251D01*
X1373990Y1603813D01*
X1372860Y1603448D01*
X1372516Y1603230D01*
X1372138Y1603080D01*
X1371178Y1602384D01*
X1370172Y1601748D01*
X1369892Y1601450D01*
X1369563Y1601212D01*
X1368806Y1600298D01*
X1367991Y1599432D01*
X1367794Y1599076D01*
X1367534Y1598762D01*
X1367027Y1597688D01*
X1366453Y1596647D01*
X1366351Y1596252D01*
X1366177Y1595884D01*
X1365954Y1594719D01*
X1365656Y1593568D01*
X1365617Y1592963D01*
X1365578Y1592760D01*
X1365591Y1592554D01*
X1365552Y1591950D01*
X1365552Y1583597D01*
X1363821Y1577137D01*
X1360477Y1571345D01*
X1312151Y1523018D01*
X1267533Y1567636D01*
G37*
%LPD*%
%LPC*%
G36*
X1796802Y1599102D02*
X1796802Y1599102D01*
X1795866Y1599828D01*
X1794973Y1600617D01*
X1794610Y1600803D01*
X1794289Y1601052D01*
X1793200Y1601523D01*
X1792141Y1602065D01*
X1791743Y1602154D01*
X1791370Y1602316D01*
X1790199Y1602502D01*
X1789038Y1602763D01*
X1788629Y1602751D01*
X1788228Y1602815D01*
X1787049Y1602704D01*
X1785858Y1602669D01*
X1785465Y1602556D01*
X1785061Y1602518D01*
X1783946Y1602117D01*
X1782801Y1601787D01*
X1782450Y1601580D01*
X1782067Y1601443D01*
X1781203Y1600856D01*
X1781355Y1601053D01*
X1781827Y1602143D01*
X1782368Y1603201D01*
X1782458Y1603599D01*
X1782619Y1603972D01*
X1782805Y1605143D01*
X1783067Y1606304D01*
X1783054Y1606713D01*
X1783118Y1607114D01*
X1783007Y1608293D01*
X1782972Y1609484D01*
X1782859Y1609877D01*
X1782821Y1610281D01*
X1782420Y1611396D01*
X1782090Y1612541D01*
X1781883Y1612892D01*
X1781746Y1613275D01*
X1781078Y1614259D01*
X1780476Y1615282D01*
X1780077Y1615735D01*
X1779960Y1615908D01*
X1779804Y1616046D01*
X1779405Y1616499D01*
X1724181Y1671723D01*
X1744223Y1691766D01*
X1750015Y1695110D01*
X1756475Y1696841D01*
X1757172Y1696841D01*
X1758352Y1696990D01*
X1759537Y1697063D01*
X1759923Y1697188D01*
X1760328Y1697239D01*
X1761434Y1697677D01*
X1762563Y1698042D01*
X1762908Y1698260D01*
X1763286Y1698410D01*
X1764246Y1699106D01*
X1765252Y1699743D01*
X1765532Y1700040D01*
X1765861Y1700278D01*
X1766618Y1701192D01*
X1767433Y1702058D01*
X1767630Y1702414D01*
X1767890Y1702728D01*
X1768397Y1703803D01*
X1768971Y1704843D01*
X1769073Y1705238D01*
X1769247Y1705606D01*
X1769470Y1706771D01*
X1769768Y1707923D01*
X1769807Y1708527D01*
X1769846Y1708730D01*
X1769833Y1708936D01*
X1769872Y1709540D01*
X1769872Y1709777D01*
X1805080Y1744985D01*
X1805684Y1745764D01*
X1806361Y1746483D01*
X1806656Y1747017D01*
X1807030Y1747498D01*
X1807421Y1748403D01*
X1807899Y1749268D01*
X1808052Y1749859D01*
X1808294Y1750418D01*
X1808448Y1751390D01*
X1808696Y1752347D01*
X1808760Y1753355D01*
X1808793Y1753559D01*
X1808781Y1753682D01*
X1808799Y1753965D01*
X1808799Y1858193D01*
X1808676Y1859171D01*
X1808647Y1860158D01*
X1808477Y1860745D01*
X1808401Y1861349D01*
X1808039Y1862265D01*
X1807765Y1863214D01*
X1807455Y1863741D01*
X1807231Y1864307D01*
X1806652Y1865105D01*
X1806151Y1865956D01*
X1805484Y1866713D01*
X1805362Y1866882D01*
X1805266Y1866961D01*
X1805080Y1867173D01*
X1796992Y1875260D01*
X1788999Y1894557D01*
X1788999Y1915443D01*
X1796992Y1934739D01*
X1811760Y1949508D01*
X1831057Y1957500D01*
X1851943Y1957500D01*
X1871239Y1949508D01*
X1886008Y1934739D01*
X1894000Y1915443D01*
X1894000Y1894557D01*
X1886008Y1875260D01*
X1877920Y1867173D01*
X1877317Y1866395D01*
X1876639Y1865676D01*
X1876344Y1865141D01*
X1875970Y1864660D01*
X1875578Y1863755D01*
X1875101Y1862891D01*
X1874948Y1862298D01*
X1874706Y1861740D01*
X1874552Y1860768D01*
X1874304Y1859811D01*
X1874239Y1858803D01*
X1874207Y1858599D01*
X1874218Y1858476D01*
X1874200Y1858193D01*
X1874200Y1792131D01*
X1874324Y1791153D01*
X1874353Y1790166D01*
X1874523Y1789579D01*
X1874599Y1788975D01*
X1874962Y1788057D01*
X1875235Y1787109D01*
X1875544Y1786584D01*
X1875769Y1786017D01*
X1876349Y1785218D01*
X1876849Y1784368D01*
X1877516Y1783611D01*
X1877638Y1783442D01*
X1877733Y1783363D01*
X1877920Y1783151D01*
X1972507Y1688564D01*
X1972507Y1671995D01*
X1890081Y1589568D01*
X1889843Y1589568D01*
X1888663Y1589419D01*
X1887479Y1589346D01*
X1887092Y1589221D01*
X1886688Y1589170D01*
X1885582Y1588733D01*
X1884452Y1588367D01*
X1884108Y1588149D01*
X1883729Y1588000D01*
X1882770Y1587303D01*
X1881764Y1586667D01*
X1881483Y1586369D01*
X1881155Y1586131D01*
X1880398Y1585218D01*
X1879583Y1584352D01*
X1879386Y1583995D01*
X1879126Y1583681D01*
X1878619Y1582607D01*
X1878045Y1581567D01*
X1877943Y1581172D01*
X1877769Y1580804D01*
X1877546Y1579639D01*
X1877248Y1578487D01*
X1877209Y1577882D01*
X1877170Y1577680D01*
X1877183Y1577474D01*
X1877144Y1576869D01*
X1877144Y1576172D01*
X1875413Y1569712D01*
X1872069Y1563920D01*
X1852027Y1543878D01*
X1796802Y1599102D01*
G37*
%LPD*%
%LPC*%
G36*
X1671985Y1388043D02*
X1671985Y1388043D01*
X1568346Y1491682D01*
X1568346Y1508252D01*
X1577457Y1517362D01*
X1578185Y1518301D01*
X1578972Y1519191D01*
X1579157Y1519554D01*
X1579407Y1519876D01*
X1579879Y1520966D01*
X1580420Y1522024D01*
X1580509Y1522421D01*
X1580671Y1522795D01*
X1580857Y1523966D01*
X1581118Y1525127D01*
X1581106Y1525535D01*
X1581170Y1525937D01*
X1581059Y1527118D01*
X1581024Y1528307D01*
X1580911Y1528698D01*
X1580873Y1529104D01*
X1580471Y1530221D01*
X1580142Y1531363D01*
X1579935Y1531715D01*
X1579798Y1532098D01*
X1579131Y1533080D01*
X1578528Y1534105D01*
X1578128Y1534559D01*
X1578012Y1534730D01*
X1577857Y1534868D01*
X1577457Y1535322D01*
X1554799Y1557979D01*
X1554799Y1604193D01*
X1554676Y1605171D01*
X1554647Y1606158D01*
X1554477Y1606745D01*
X1554401Y1607349D01*
X1554039Y1608265D01*
X1553765Y1609214D01*
X1553455Y1609741D01*
X1553231Y1610307D01*
X1552652Y1611105D01*
X1552151Y1611956D01*
X1551484Y1612713D01*
X1551362Y1612882D01*
X1551266Y1612961D01*
X1551080Y1613173D01*
X1542992Y1621260D01*
X1534999Y1640557D01*
X1534999Y1661443D01*
X1542992Y1680739D01*
X1557760Y1695508D01*
X1577057Y1703500D01*
X1597943Y1703500D01*
X1617239Y1695508D01*
X1632008Y1680739D01*
X1640000Y1661443D01*
X1640000Y1640557D01*
X1632008Y1621260D01*
X1623920Y1613173D01*
X1623317Y1612395D01*
X1622639Y1611676D01*
X1622344Y1611141D01*
X1621970Y1610660D01*
X1621578Y1609755D01*
X1621101Y1608891D01*
X1620948Y1608299D01*
X1620706Y1607740D01*
X1620552Y1606768D01*
X1620304Y1605811D01*
X1620239Y1604803D01*
X1620207Y1604599D01*
X1620218Y1604476D01*
X1620200Y1604193D01*
X1620200Y1590765D01*
X1620375Y1589384D01*
X1620504Y1588003D01*
X1620573Y1587811D01*
X1620599Y1587609D01*
X1621109Y1586319D01*
X1621579Y1585009D01*
X1621694Y1584840D01*
X1621769Y1584651D01*
X1622582Y1583531D01*
X1623365Y1582376D01*
X1623518Y1582241D01*
X1623638Y1582076D01*
X1624709Y1581189D01*
X1625749Y1580270D01*
X1625929Y1580178D01*
X1626088Y1580047D01*
X1627350Y1579452D01*
X1628582Y1578822D01*
X1628780Y1578778D01*
X1628965Y1578690D01*
X1630329Y1578429D01*
X1631685Y1578123D01*
X1631889Y1578129D01*
X1632089Y1578091D01*
X1633470Y1578177D01*
X1634865Y1578218D01*
X1635062Y1578275D01*
X1635264Y1578288D01*
X1636583Y1578714D01*
X1637921Y1579100D01*
X1638097Y1579204D01*
X1638291Y1579267D01*
X1639467Y1580010D01*
X1640663Y1580714D01*
X1640874Y1580900D01*
X1640979Y1580967D01*
X1641123Y1581119D01*
X1641880Y1581785D01*
X1650773Y1590678D01*
X1651009Y1590678D01*
X1652189Y1590827D01*
X1653374Y1590900D01*
X1653761Y1591026D01*
X1654165Y1591077D01*
X1655271Y1591514D01*
X1656401Y1591879D01*
X1656745Y1592097D01*
X1657123Y1592247D01*
X1658083Y1592943D01*
X1659089Y1593580D01*
X1659369Y1593877D01*
X1659698Y1594116D01*
X1660455Y1595029D01*
X1661270Y1595895D01*
X1661467Y1596251D01*
X1661727Y1596565D01*
X1662234Y1597640D01*
X1662808Y1598680D01*
X1662910Y1599075D01*
X1663084Y1599443D01*
X1663307Y1600608D01*
X1663605Y1601760D01*
X1663644Y1602364D01*
X1663683Y1602567D01*
X1663670Y1602773D01*
X1663709Y1603378D01*
X1663709Y1604074D01*
X1665440Y1610534D01*
X1668784Y1616326D01*
X1688826Y1636368D01*
X1744050Y1581144D01*
X1744936Y1580458D01*
X1745237Y1580174D01*
X1745307Y1580135D01*
X1745879Y1579629D01*
X1746243Y1579444D01*
X1746564Y1579194D01*
X1747653Y1578723D01*
X1748712Y1578182D01*
X1749109Y1578092D01*
X1749483Y1577930D01*
X1750653Y1577744D01*
X1751815Y1577483D01*
X1752223Y1577495D01*
X1752624Y1577431D01*
X1753804Y1577542D01*
X1754995Y1577578D01*
X1755387Y1577691D01*
X1755792Y1577729D01*
X1756907Y1578129D01*
X1758051Y1578459D01*
X1758403Y1578666D01*
X1758786Y1578804D01*
X1759650Y1579390D01*
X1759498Y1579193D01*
X1759026Y1578103D01*
X1758485Y1577045D01*
X1758395Y1576648D01*
X1758233Y1576274D01*
X1758048Y1575103D01*
X1757786Y1573942D01*
X1757798Y1573534D01*
X1757734Y1573133D01*
X1757845Y1571953D01*
X1757881Y1570762D01*
X1757994Y1570370D01*
X1758032Y1569965D01*
X1758433Y1568850D01*
X1758763Y1567706D01*
X1758969Y1567354D01*
X1759107Y1566971D01*
X1759775Y1565987D01*
X1760377Y1564964D01*
X1760776Y1564511D01*
X1760893Y1564338D01*
X1761049Y1564200D01*
X1761448Y1563747D01*
X1816672Y1508523D01*
X1796629Y1488481D01*
X1790838Y1485137D01*
X1784378Y1483406D01*
X1783681Y1483406D01*
X1782501Y1483257D01*
X1781316Y1483183D01*
X1780929Y1483058D01*
X1780525Y1483007D01*
X1779419Y1482570D01*
X1778289Y1482204D01*
X1777945Y1481987D01*
X1777567Y1481837D01*
X1776607Y1481141D01*
X1775601Y1480504D01*
X1775321Y1480207D01*
X1774992Y1479968D01*
X1774235Y1479055D01*
X1773420Y1478189D01*
X1773223Y1477833D01*
X1772963Y1477518D01*
X1772456Y1476444D01*
X1771882Y1475404D01*
X1771780Y1475009D01*
X1771606Y1474641D01*
X1771383Y1473476D01*
X1771085Y1472324D01*
X1771046Y1471719D01*
X1771007Y1471517D01*
X1771020Y1471311D01*
X1770981Y1470706D01*
X1770981Y1470469D01*
X1688555Y1388043D01*
X1671985Y1388043D01*
G37*
%LPD*%
%LPC*%
G36*
X1097892Y81599D02*
X1097892Y81599D01*
X1034099Y145392D01*
X1034099Y235608D01*
X1097892Y299400D01*
X1188108Y299400D01*
X1251900Y235608D01*
X1251900Y145392D01*
X1188108Y81599D01*
X1097892Y81599D01*
G37*
%LPD*%
%LPC*%
G36*
X1351892Y81599D02*
X1351892Y81599D01*
X1288099Y145392D01*
X1288099Y235608D01*
X1351892Y299400D01*
X1442108Y299400D01*
X1505900Y235608D01*
X1505900Y145392D01*
X1442108Y81599D01*
X1351892Y81599D01*
G37*
%LPD*%
%LPC*%
G36*
X589892Y81599D02*
X589892Y81599D01*
X526099Y145392D01*
X526099Y235608D01*
X589892Y299400D01*
X680108Y299400D01*
X743900Y235608D01*
X743900Y145392D01*
X680108Y81599D01*
X589892Y81599D01*
G37*
%LPD*%
%LPC*%
G36*
X1605892Y81599D02*
X1605892Y81599D01*
X1542099Y145392D01*
X1542099Y235608D01*
X1605892Y299400D01*
X1696108Y299400D01*
X1759900Y235608D01*
X1759900Y145392D01*
X1696108Y81599D01*
X1605892Y81599D01*
G37*
%LPD*%
%LPC*%
G36*
X1859892Y81599D02*
X1859892Y81599D01*
X1796099Y145392D01*
X1796099Y235608D01*
X1859892Y299400D01*
X1950108Y299400D01*
X2013900Y235608D01*
X2013900Y145392D01*
X1950108Y81599D01*
X1859892Y81599D01*
G37*
%LPD*%
%LPC*%
G36*
X2113892Y81599D02*
X2113892Y81599D01*
X2050099Y145392D01*
X2050099Y235608D01*
X2113892Y299400D01*
X2204108Y299400D01*
X2267900Y235608D01*
X2267900Y145392D01*
X2204108Y81599D01*
X2113892Y81599D01*
G37*
%LPD*%
%LPC*%
G36*
X2621892Y81599D02*
X2621892Y81599D01*
X2558099Y145392D01*
X2558099Y235608D01*
X2621892Y299400D01*
X2712108Y299400D01*
X2775900Y235608D01*
X2775900Y145392D01*
X2712108Y81599D01*
X2621892Y81599D01*
G37*
%LPD*%
%LPC*%
G36*
X2367892Y81599D02*
X2367892Y81599D01*
X2304099Y145392D01*
X2304099Y235608D01*
X2367892Y299400D01*
X2458108Y299400D01*
X2521900Y235608D01*
X2521900Y145392D01*
X2458108Y81599D01*
X2367892Y81599D01*
G37*
%LPD*%
%LPC*%
G36*
X843892Y81599D02*
X843892Y81599D01*
X780099Y145392D01*
X780099Y235608D01*
X843892Y299400D01*
X934108Y299400D01*
X997900Y235608D01*
X997900Y145392D01*
X934108Y81599D01*
X843892Y81599D01*
G37*
%LPD*%
%LPC*%
G36*
X1640945Y1888349D02*
X1640945Y1888349D01*
X1608784Y1901671D01*
X1584171Y1926284D01*
X1570849Y1958445D01*
X1570849Y1993255D01*
X1584171Y2025415D01*
X1608784Y2050029D01*
X1640945Y2063350D01*
X1675406Y2063350D01*
X1676719Y2063516D01*
X1678036Y2063626D01*
X1678292Y2063715D01*
X1678562Y2063749D01*
X1679792Y2064236D01*
X1681041Y2064669D01*
X1681267Y2064819D01*
X1681520Y2064919D01*
X1682590Y2065696D01*
X1683693Y2066427D01*
X1683875Y2066628D01*
X1684094Y2066788D01*
X1684939Y2067808D01*
X1685824Y2068788D01*
X1685950Y2069028D01*
X1686124Y2069238D01*
X1686689Y2070436D01*
X1687302Y2071605D01*
X1687364Y2071869D01*
X1687480Y2072115D01*
X1687728Y2073409D01*
X1688033Y2074701D01*
X1688028Y2074973D01*
X1688079Y2075239D01*
X1687998Y2076558D01*
X1687973Y2077881D01*
X1687900Y2078143D01*
X1687883Y2078414D01*
X1687477Y2079671D01*
X1687123Y2080947D01*
X1686953Y2081291D01*
X1686904Y2081441D01*
X1686786Y2081628D01*
X1686404Y2082400D01*
X1684178Y2086254D01*
X1682447Y2092714D01*
X1682447Y2099403D01*
X1684178Y2105863D01*
X1687522Y2111655D01*
X1735849Y2159981D01*
X1780466Y2115363D01*
X1781403Y2114637D01*
X1782295Y2113848D01*
X1782657Y2113663D01*
X1782979Y2113413D01*
X1784069Y2112942D01*
X1785127Y2112401D01*
X1785525Y2112311D01*
X1785898Y2112149D01*
X1787069Y2111963D01*
X1788231Y2111702D01*
X1788639Y2111714D01*
X1789040Y2111650D01*
X1790219Y2111761D01*
X1791410Y2111797D01*
X1791803Y2111910D01*
X1792207Y2111948D01*
X1793323Y2112348D01*
X1794467Y2112678D01*
X1794818Y2112885D01*
X1795201Y2113023D01*
X1796067Y2113610D01*
X1795913Y2113412D01*
X1795442Y2112322D01*
X1794901Y2111264D01*
X1794811Y2110866D01*
X1794649Y2110493D01*
X1794463Y2109322D01*
X1794202Y2108161D01*
X1794214Y2107753D01*
X1794150Y2107351D01*
X1794261Y2106172D01*
X1794297Y2104981D01*
X1794410Y2104588D01*
X1794448Y2104184D01*
X1794849Y2103065D01*
X1795179Y2101924D01*
X1795385Y2101574D01*
X1795523Y2101190D01*
X1796192Y2100204D01*
X1796793Y2099183D01*
X1797192Y2098730D01*
X1797308Y2098557D01*
X1797465Y2098419D01*
X1797863Y2097966D01*
X1842481Y2053349D01*
X1794155Y2005022D01*
X1788363Y2001678D01*
X1781903Y1999947D01*
X1775214Y1999947D01*
X1768754Y2001678D01*
X1764900Y2003904D01*
X1763680Y2004417D01*
X1762484Y2004980D01*
X1762218Y2005031D01*
X1761967Y2005137D01*
X1760657Y2005331D01*
X1759360Y2005579D01*
X1759090Y2005563D01*
X1758820Y2005603D01*
X1757503Y2005465D01*
X1756185Y2005383D01*
X1755927Y2005300D01*
X1755657Y2005271D01*
X1754416Y2004811D01*
X1753158Y2004404D01*
X1752929Y2004259D01*
X1752674Y2004164D01*
X1751589Y2003412D01*
X1750470Y2002704D01*
X1750283Y2002505D01*
X1750061Y2002351D01*
X1749198Y2001353D01*
X1748289Y2000388D01*
X1748157Y2000150D01*
X1747980Y1999945D01*
X1747391Y1998763D01*
X1746751Y1997603D01*
X1746683Y1997340D01*
X1746562Y1997097D01*
X1746285Y1995804D01*
X1745954Y1994524D01*
X1745929Y1994141D01*
X1745896Y1993987D01*
X1745905Y1993765D01*
X1745850Y1992906D01*
X1745850Y1958445D01*
X1732529Y1926284D01*
X1707915Y1901671D01*
X1675755Y1888349D01*
X1640945Y1888349D01*
G37*
%LPD*%
%LPC*%
G36*
X342899Y2247899D02*
X342899Y2247899D01*
X342899Y2447270D01*
X355449Y2445856D01*
X380220Y2440202D01*
X404198Y2431812D01*
X427091Y2420787D01*
X448603Y2407271D01*
X468466Y2391430D01*
X486430Y2373466D01*
X502271Y2353603D01*
X515787Y2332091D01*
X526812Y2309198D01*
X535202Y2285220D01*
X540856Y2260449D01*
X542270Y2247899D01*
X342899Y2247899D01*
G37*
%LPD*%
%LPC*%
G36*
X2755899Y2247899D02*
X2755899Y2247899D01*
X2755899Y2447270D01*
X2768449Y2445856D01*
X2793220Y2440202D01*
X2817198Y2431812D01*
X2840091Y2420787D01*
X2861603Y2407271D01*
X2881466Y2391430D01*
X2899430Y2373466D01*
X2915271Y2353603D01*
X2928787Y2332091D01*
X2939812Y2309198D01*
X2948202Y2285220D01*
X2953856Y2260449D01*
X2955270Y2247899D01*
X2755899Y2247899D01*
G37*
%LPD*%
%LPC*%
G36*
X92730Y2247899D02*
X92730Y2247899D01*
X94144Y2260449D01*
X99798Y2285220D01*
X108188Y2309198D01*
X119213Y2332091D01*
X119711Y2332885D01*
X119712Y2332886D01*
X119713Y2332887D01*
X132729Y2353603D01*
X148570Y2373466D01*
X166533Y2391430D01*
X186397Y2407271D01*
X207909Y2420787D01*
X230802Y2431812D01*
X254780Y2440202D01*
X279551Y2445856D01*
X292101Y2447270D01*
X292101Y2247899D01*
X92730Y2247899D01*
G37*
%LPD*%
%LPC*%
G36*
X2505730Y2247899D02*
X2505730Y2247899D01*
X2507144Y2260449D01*
X2512798Y2285220D01*
X2521188Y2309198D01*
X2532213Y2332091D01*
X2532711Y2332885D01*
X2532712Y2332886D01*
X2532713Y2332887D01*
X2545729Y2353603D01*
X2561570Y2373466D01*
X2579533Y2391430D01*
X2599397Y2407271D01*
X2620909Y2420787D01*
X2643802Y2431812D01*
X2667780Y2440202D01*
X2692551Y2445856D01*
X2705101Y2447270D01*
X2705101Y2247899D01*
X2505730Y2247899D01*
G37*
%LPD*%
%LPC*%
G36*
X342899Y2197101D02*
X342899Y2197101D01*
X542270Y2197101D01*
X540856Y2184551D01*
X535202Y2159780D01*
X526812Y2135802D01*
X515787Y2112909D01*
X510958Y2105223D01*
X510957Y2105222D01*
X510956Y2105221D01*
X502271Y2091397D01*
X486430Y2071533D01*
X468466Y2053570D01*
X448603Y2037729D01*
X427091Y2024213D01*
X404198Y2013188D01*
X380220Y2004798D01*
X355449Y1999144D01*
X342899Y1997730D01*
X342899Y2197101D01*
G37*
%LPD*%
%LPC*%
G36*
X2755899Y2197101D02*
X2755899Y2197101D01*
X2955270Y2197101D01*
X2953856Y2184551D01*
X2948202Y2159780D01*
X2939812Y2135802D01*
X2928787Y2112909D01*
X2923958Y2105223D01*
X2923957Y2105222D01*
X2923956Y2105221D01*
X2915271Y2091397D01*
X2899430Y2071533D01*
X2881466Y2053570D01*
X2861603Y2037729D01*
X2840091Y2024213D01*
X2817198Y2013188D01*
X2793220Y2004798D01*
X2768449Y1999144D01*
X2755899Y1997730D01*
X2755899Y2197101D01*
G37*
%LPD*%
%LPC*%
G36*
X2692551Y1999144D02*
X2692551Y1999144D01*
X2667780Y2004798D01*
X2643802Y2013188D01*
X2620909Y2024213D01*
X2599397Y2037729D01*
X2579533Y2053570D01*
X2561570Y2071533D01*
X2545729Y2091397D01*
X2532213Y2112909D01*
X2521188Y2135802D01*
X2512798Y2159780D01*
X2507144Y2184551D01*
X2505730Y2197101D01*
X2705101Y2197101D01*
X2705101Y1997730D01*
X2692551Y1999144D01*
G37*
%LPD*%
%LPC*%
G36*
X279551Y1999144D02*
X279551Y1999144D01*
X254780Y2004798D01*
X230802Y2013188D01*
X207909Y2024213D01*
X186397Y2037729D01*
X166533Y2053570D01*
X148570Y2071533D01*
X132729Y2091397D01*
X119213Y2112909D01*
X108188Y2135802D01*
X99798Y2159780D01*
X94144Y2184551D01*
X92730Y2197101D01*
X292101Y2197101D01*
X292101Y1997730D01*
X279551Y1999144D01*
G37*
%LPD*%
%LPC*%
G36*
X406399Y215899D02*
X406399Y215899D01*
X406399Y304800D01*
X428345Y304800D01*
X495300Y237845D01*
X495300Y215899D01*
X406399Y215899D01*
G37*
%LPD*%
%LPC*%
G36*
X266699Y215899D02*
X266699Y215899D01*
X266699Y237845D01*
X333655Y304800D01*
X355601Y304800D01*
X355601Y215899D01*
X266699Y215899D01*
G37*
%LPD*%
%LPC*%
G36*
X1771203Y2195336D02*
X1771203Y2195336D01*
X1819530Y2243663D01*
X1825322Y2247007D01*
X1831782Y2248738D01*
X1838471Y2248738D01*
X1844931Y2247007D01*
X1850722Y2243663D01*
X1870765Y2223620D01*
X1806843Y2159697D01*
X1771203Y2195336D01*
G37*
%LPD*%
%LPC*%
G36*
X1842197Y2124343D02*
X1842197Y2124343D01*
X1906120Y2188265D01*
X1926163Y2168222D01*
X1929507Y2162431D01*
X1931238Y2155971D01*
X1931238Y2149282D01*
X1929507Y2142822D01*
X1926163Y2137030D01*
X1877836Y2088703D01*
X1842197Y2124343D01*
G37*
%LPD*%
%LPC*%
G36*
X1209528Y1434262D02*
X1209528Y1434262D01*
X1203068Y1435993D01*
X1197277Y1439337D01*
X1177234Y1459379D01*
X1241157Y1523302D01*
X1276796Y1487663D01*
X1228469Y1439337D01*
X1222678Y1435993D01*
X1216218Y1434262D01*
X1209528Y1434262D01*
G37*
%LPD*%
%LPC*%
G36*
X1121837Y1514777D02*
X1121837Y1514777D01*
X1118493Y1520568D01*
X1116762Y1527028D01*
X1116762Y1533718D01*
X1118493Y1540178D01*
X1121837Y1545969D01*
X1170163Y1594296D01*
X1205802Y1558657D01*
X1141879Y1494734D01*
X1121837Y1514777D01*
G37*
%LPD*%
%LPC*%
G36*
X1128999Y731499D02*
X1128999Y731499D01*
X1128999Y794400D01*
X1149844Y794400D01*
X1156304Y792669D01*
X1162096Y789325D01*
X1166825Y784596D01*
X1170169Y778804D01*
X1171900Y772344D01*
X1171900Y731499D01*
X1128999Y731499D01*
G37*
%LPD*%
%LPC*%
G36*
X683999Y731499D02*
X683999Y731499D01*
X683999Y794400D01*
X704844Y794400D01*
X711304Y792669D01*
X717096Y789325D01*
X721825Y784596D01*
X725169Y778804D01*
X726900Y772344D01*
X726900Y731499D01*
X683999Y731499D01*
G37*
%LPD*%
%LPC*%
G36*
X2398999Y731499D02*
X2398999Y731499D01*
X2398999Y794400D01*
X2419844Y794400D01*
X2426304Y792669D01*
X2432096Y789325D01*
X2436825Y784596D01*
X2440169Y778804D01*
X2441900Y772344D01*
X2441900Y731499D01*
X2398999Y731499D01*
G37*
%LPD*%
%LPC*%
G36*
X1318999Y731499D02*
X1318999Y731499D01*
X1318999Y794400D01*
X1339844Y794400D01*
X1346304Y792669D01*
X1352096Y789325D01*
X1356825Y784596D01*
X1360169Y778804D01*
X1361900Y772344D01*
X1361900Y731499D01*
X1318999Y731499D01*
G37*
%LPD*%
%LPC*%
G36*
X1953999Y731499D02*
X1953999Y731499D01*
X1953999Y794400D01*
X1974844Y794400D01*
X1981304Y792669D01*
X1987096Y789325D01*
X1991825Y784596D01*
X1995169Y778804D01*
X1996900Y772344D01*
X1996900Y731499D01*
X1953999Y731499D01*
G37*
%LPD*%
%LPC*%
G36*
X1763999Y731499D02*
X1763999Y731499D01*
X1763999Y794400D01*
X1784844Y794400D01*
X1791304Y792669D01*
X1797096Y789325D01*
X1801825Y784596D01*
X1805169Y778804D01*
X1806900Y772344D01*
X1806900Y731499D01*
X1763999Y731499D01*
G37*
%LPD*%
%LPC*%
G36*
X1051099Y731499D02*
X1051099Y731499D01*
X1051099Y772344D01*
X1052830Y778804D01*
X1056174Y784596D01*
X1060903Y789325D01*
X1066695Y792669D01*
X1073155Y794400D01*
X1094000Y794400D01*
X1094000Y731499D01*
X1051099Y731499D01*
G37*
%LPD*%
%LPC*%
G36*
X606099Y731499D02*
X606099Y731499D01*
X606099Y772344D01*
X607830Y778804D01*
X611174Y784596D01*
X615903Y789325D01*
X621695Y792669D01*
X628155Y794400D01*
X649000Y794400D01*
X649000Y731499D01*
X606099Y731499D01*
G37*
%LPD*%
%LPC*%
G36*
X2321099Y731499D02*
X2321099Y731499D01*
X2321099Y772344D01*
X2322830Y778804D01*
X2326174Y784596D01*
X2330903Y789325D01*
X2336695Y792669D01*
X2343155Y794400D01*
X2364000Y794400D01*
X2364000Y731499D01*
X2321099Y731499D01*
G37*
%LPD*%
%LPC*%
G36*
X1241099Y731499D02*
X1241099Y731499D01*
X1241099Y772344D01*
X1242830Y778804D01*
X1246174Y784596D01*
X1250903Y789325D01*
X1256695Y792669D01*
X1263155Y794400D01*
X1284000Y794400D01*
X1284000Y731499D01*
X1241099Y731499D01*
G37*
%LPD*%
%LPC*%
G36*
X1876099Y731499D02*
X1876099Y731499D01*
X1876099Y772344D01*
X1877830Y778804D01*
X1881174Y784596D01*
X1885903Y789325D01*
X1891695Y792669D01*
X1898155Y794400D01*
X1919000Y794400D01*
X1919000Y731499D01*
X1876099Y731499D01*
G37*
%LPD*%
%LPC*%
G36*
X1686099Y731499D02*
X1686099Y731499D01*
X1686099Y772344D01*
X1687830Y778804D01*
X1691174Y784596D01*
X1695903Y789325D01*
X1701695Y792669D01*
X1708155Y794400D01*
X1729000Y794400D01*
X1729000Y731499D01*
X1686099Y731499D01*
G37*
%LPD*%
%LPC*%
G36*
X1763999Y633599D02*
X1763999Y633599D01*
X1763999Y696500D01*
X1806900Y696500D01*
X1806900Y655655D01*
X1805169Y649195D01*
X1801825Y643403D01*
X1797096Y638674D01*
X1791304Y635330D01*
X1784844Y633599D01*
X1763999Y633599D01*
G37*
%LPD*%
%LPC*%
G36*
X683999Y633599D02*
X683999Y633599D01*
X683999Y696500D01*
X726900Y696500D01*
X726900Y655655D01*
X725169Y649195D01*
X721825Y643403D01*
X717096Y638674D01*
X711304Y635330D01*
X704844Y633599D01*
X683999Y633599D01*
G37*
%LPD*%
%LPC*%
G36*
X2398999Y633599D02*
X2398999Y633599D01*
X2398999Y696500D01*
X2441900Y696500D01*
X2441900Y655655D01*
X2440169Y649195D01*
X2436825Y643403D01*
X2432096Y638674D01*
X2426304Y635330D01*
X2419844Y633599D01*
X2398999Y633599D01*
G37*
%LPD*%
%LPC*%
G36*
X1318999Y633599D02*
X1318999Y633599D01*
X1318999Y696500D01*
X1361900Y696500D01*
X1361900Y655655D01*
X1360169Y649195D01*
X1356825Y643403D01*
X1352096Y638674D01*
X1346304Y635330D01*
X1339844Y633599D01*
X1318999Y633599D01*
G37*
%LPD*%
%LPC*%
G36*
X1953999Y633599D02*
X1953999Y633599D01*
X1953999Y696500D01*
X1996900Y696500D01*
X1996900Y655655D01*
X1995169Y649195D01*
X1991825Y643403D01*
X1987096Y638674D01*
X1981304Y635330D01*
X1974844Y633599D01*
X1953999Y633599D01*
G37*
%LPD*%
%LPC*%
G36*
X1128999Y633599D02*
X1128999Y633599D01*
X1128999Y696500D01*
X1171900Y696500D01*
X1171900Y655655D01*
X1170169Y649195D01*
X1166825Y643403D01*
X1162096Y638674D01*
X1156304Y635330D01*
X1149844Y633599D01*
X1128999Y633599D01*
G37*
%LPD*%
%LPC*%
G36*
X1898155Y633599D02*
X1898155Y633599D01*
X1891695Y635330D01*
X1885903Y638674D01*
X1881174Y643403D01*
X1877830Y649195D01*
X1876099Y655655D01*
X1876099Y696500D01*
X1919000Y696500D01*
X1919000Y633599D01*
X1898155Y633599D01*
G37*
%LPD*%
%LPC*%
G36*
X1708155Y633599D02*
X1708155Y633599D01*
X1701695Y635330D01*
X1695903Y638674D01*
X1691174Y643403D01*
X1687830Y649195D01*
X1686099Y655655D01*
X1686099Y696500D01*
X1729000Y696500D01*
X1729000Y633599D01*
X1708155Y633599D01*
G37*
%LPD*%
%LPC*%
G36*
X2343155Y633599D02*
X2343155Y633599D01*
X2336695Y635330D01*
X2330903Y638674D01*
X2326174Y643403D01*
X2322830Y649195D01*
X2321099Y655655D01*
X2321099Y696500D01*
X2364000Y696500D01*
X2364000Y633599D01*
X2343155Y633599D01*
G37*
%LPD*%
%LPC*%
G36*
X1263155Y633599D02*
X1263155Y633599D01*
X1256695Y635330D01*
X1250903Y638674D01*
X1246174Y643403D01*
X1242830Y649195D01*
X1241099Y655655D01*
X1241099Y696500D01*
X1284000Y696500D01*
X1284000Y633599D01*
X1263155Y633599D01*
G37*
%LPD*%
%LPC*%
G36*
X1073155Y633599D02*
X1073155Y633599D01*
X1066695Y635330D01*
X1060903Y638674D01*
X1056174Y643403D01*
X1052830Y649195D01*
X1051099Y655655D01*
X1051099Y696500D01*
X1094000Y696500D01*
X1094000Y633599D01*
X1073155Y633599D01*
G37*
%LPD*%
%LPC*%
G36*
X628155Y633599D02*
X628155Y633599D01*
X621695Y635330D01*
X615903Y638674D01*
X611174Y643403D01*
X607830Y649195D01*
X606099Y655655D01*
X606099Y696500D01*
X649000Y696500D01*
X649000Y633599D01*
X628155Y633599D01*
G37*
%LPD*%
%LPC*%
G36*
X1727201Y1790701D02*
X1727201Y1790701D01*
X1727201Y1834508D01*
X1731388Y1833675D01*
X1741927Y1829310D01*
X1751410Y1822974D01*
X1759474Y1814910D01*
X1765810Y1805427D01*
X1770175Y1794888D01*
X1771008Y1790701D01*
X1727201Y1790701D01*
G37*
%LPD*%
%LPC*%
G36*
X1727201Y1765299D02*
X1727201Y1765299D01*
X1771008Y1765299D01*
X1770175Y1761111D01*
X1765810Y1750573D01*
X1759474Y1741090D01*
X1751410Y1733026D01*
X1741927Y1726689D01*
X1731388Y1722324D01*
X1727201Y1721491D01*
X1727201Y1765299D01*
G37*
%LPD*%
%LPC*%
G36*
X1657991Y1790701D02*
X1657991Y1790701D01*
X1658824Y1794888D01*
X1663189Y1805427D01*
X1669526Y1814910D01*
X1677590Y1822974D01*
X1687073Y1829310D01*
X1697611Y1833675D01*
X1701799Y1834508D01*
X1701799Y1790701D01*
X1657991Y1790701D01*
G37*
%LPD*%
%LPC*%
G36*
X1697611Y1722324D02*
X1697611Y1722324D01*
X1687073Y1726689D01*
X1677590Y1733026D01*
X1669526Y1741090D01*
X1663189Y1750573D01*
X1658824Y1761111D01*
X1657991Y1765299D01*
X1701799Y1765299D01*
X1701799Y1721491D01*
X1697611Y1722324D01*
G37*
%LPD*%
%LPC*%
G36*
X2730498Y2222498D02*
X2730498Y2222498D01*
X2730498Y2222502D01*
X2730502Y2222502D01*
X2730502Y2222498D01*
X2730498Y2222498D01*
G37*
%LPD*%
%LPC*%
G36*
X317498Y2222498D02*
X317498Y2222498D01*
X317498Y2222502D01*
X317502Y2222502D01*
X317502Y2222498D01*
X317498Y2222498D01*
G37*
%LPD*%
D10*
X254000Y2540000D02*
X2794000Y2540000D01*
X3048000Y2286000D02*
X3048000Y254000D01*
X2794000Y0D02*
X254000Y0D01*
X0Y254000D02*
X0Y2286000D01*
X0Y254000D02*
X74Y247862D01*
X297Y241728D01*
X667Y235602D01*
X1186Y229485D01*
X1852Y223384D01*
X2665Y217300D01*
X3626Y211237D01*
X4732Y205200D01*
X5984Y199191D01*
X7381Y193214D01*
X8922Y187272D01*
X10606Y181370D01*
X12432Y175510D01*
X14399Y169695D01*
X16506Y163930D01*
X18752Y158218D01*
X21135Y152561D01*
X23654Y146964D01*
X26308Y141429D01*
X29094Y135960D01*
X32012Y130560D01*
X35060Y125232D01*
X38235Y119979D01*
X41537Y114805D01*
X44962Y109712D01*
X48510Y104703D01*
X52177Y99781D01*
X55963Y94949D01*
X59864Y90210D01*
X63878Y85567D01*
X68004Y81022D01*
X72238Y76578D01*
X76578Y72238D01*
X81022Y68004D01*
X85567Y63878D01*
X90210Y59864D01*
X94949Y55963D01*
X99781Y52177D01*
X104703Y48510D01*
X109712Y44962D01*
X114805Y41537D01*
X119979Y38235D01*
X125232Y35060D01*
X130560Y32012D01*
X135960Y29094D01*
X141429Y26308D01*
X146964Y23654D01*
X152561Y21135D01*
X158218Y18752D01*
X163930Y16506D01*
X169695Y14399D01*
X175510Y12432D01*
X181370Y10606D01*
X187272Y8922D01*
X193214Y7381D01*
X199191Y5984D01*
X205200Y4732D01*
X211237Y3626D01*
X217300Y2665D01*
X223384Y1852D01*
X229485Y1186D01*
X235602Y667D01*
X241728Y297D01*
X247862Y74D01*
X254000Y0D01*
X2794000Y0D02*
X2800138Y74D01*
X2806272Y297D01*
X2812398Y667D01*
X2818515Y1186D01*
X2824616Y1852D01*
X2830700Y2665D01*
X2836763Y3626D01*
X2842800Y4732D01*
X2848809Y5984D01*
X2854786Y7381D01*
X2860728Y8922D01*
X2866630Y10606D01*
X2872490Y12432D01*
X2878305Y14399D01*
X2884070Y16506D01*
X2889782Y18752D01*
X2895439Y21135D01*
X2901036Y23654D01*
X2906571Y26308D01*
X2912040Y29094D01*
X2917440Y32012D01*
X2922768Y35060D01*
X2928021Y38235D01*
X2933195Y41537D01*
X2938288Y44962D01*
X2943297Y48510D01*
X2948219Y52177D01*
X2953051Y55963D01*
X2957790Y59864D01*
X2962433Y63878D01*
X2966978Y68004D01*
X2971422Y72238D01*
X2975762Y76578D01*
X2979996Y81022D01*
X2984122Y85567D01*
X2988136Y90210D01*
X2992037Y94949D01*
X2995823Y99781D01*
X2999490Y104703D01*
X3003038Y109712D01*
X3006463Y114805D01*
X3009765Y119979D01*
X3012940Y125232D01*
X3015988Y130560D01*
X3018906Y135960D01*
X3021692Y141429D01*
X3024346Y146964D01*
X3026865Y152561D01*
X3029248Y158218D01*
X3031494Y163930D01*
X3033601Y169695D01*
X3035568Y175510D01*
X3037394Y181370D01*
X3039078Y187272D01*
X3040619Y193214D01*
X3042016Y199191D01*
X3043268Y205200D01*
X3044374Y211237D01*
X3045335Y217300D01*
X3046148Y223384D01*
X3046814Y229485D01*
X3047333Y235602D01*
X3047703Y241728D01*
X3047926Y247862D01*
X3048000Y254000D01*
X3048000Y2286000D02*
X3047926Y2292138D01*
X3047703Y2298272D01*
X3047333Y2304398D01*
X3046814Y2310515D01*
X3046148Y2316616D01*
X3045335Y2322700D01*
X3044374Y2328763D01*
X3043268Y2334800D01*
X3042016Y2340809D01*
X3040619Y2346786D01*
X3039078Y2352728D01*
X3037394Y2358630D01*
X3035568Y2364490D01*
X3033601Y2370305D01*
X3031494Y2376070D01*
X3029248Y2381782D01*
X3026865Y2387439D01*
X3024346Y2393036D01*
X3021692Y2398571D01*
X3018906Y2404040D01*
X3015988Y2409440D01*
X3012940Y2414768D01*
X3009765Y2420021D01*
X3006463Y2425195D01*
X3003038Y2430288D01*
X2999490Y2435297D01*
X2995823Y2440219D01*
X2992037Y2445051D01*
X2988136Y2449790D01*
X2984122Y2454433D01*
X2979996Y2458978D01*
X2975762Y2463422D01*
X2971422Y2467762D01*
X2966978Y2471996D01*
X2962433Y2476122D01*
X2957790Y2480136D01*
X2953051Y2484037D01*
X2948219Y2487823D01*
X2943297Y2491490D01*
X2938288Y2495038D01*
X2933195Y2498463D01*
X2928021Y2501765D01*
X2922768Y2504940D01*
X2917440Y2507988D01*
X2912040Y2510906D01*
X2906571Y2513692D01*
X2901036Y2516346D01*
X2895439Y2518865D01*
X2889782Y2521248D01*
X2884070Y2523494D01*
X2878305Y2525601D01*
X2872490Y2527568D01*
X2866630Y2529394D01*
X2860728Y2531078D01*
X2854786Y2532619D01*
X2848809Y2534016D01*
X2842800Y2535268D01*
X2836763Y2536374D01*
X2830700Y2537335D01*
X2824616Y2538148D01*
X2818515Y2538814D01*
X2812398Y2539333D01*
X2806272Y2539703D01*
X2800138Y2539926D01*
X2794000Y2540000D01*
X254000Y2540000D02*
X247862Y2539926D01*
X241728Y2539703D01*
X235602Y2539333D01*
X229485Y2538814D01*
X223384Y2538148D01*
X217300Y2537335D01*
X211237Y2536374D01*
X205200Y2535268D01*
X199191Y2534016D01*
X193214Y2532619D01*
X187272Y2531078D01*
X181370Y2529394D01*
X175510Y2527568D01*
X169695Y2525601D01*
X163930Y2523494D01*
X158218Y2521248D01*
X152561Y2518865D01*
X146964Y2516346D01*
X141429Y2513692D01*
X135960Y2510906D01*
X130560Y2507988D01*
X125232Y2504940D01*
X119979Y2501765D01*
X114805Y2498463D01*
X109712Y2495038D01*
X104703Y2491490D01*
X99781Y2487823D01*
X94949Y2484037D01*
X90210Y2480136D01*
X85567Y2476122D01*
X81022Y2471996D01*
X76578Y2467762D01*
X72238Y2463422D01*
X68004Y2458978D01*
X63878Y2454433D01*
X59864Y2449790D01*
X55963Y2445051D01*
X52177Y2440219D01*
X48510Y2435297D01*
X44962Y2430288D01*
X41537Y2425195D01*
X38235Y2420021D01*
X35060Y2414768D01*
X32012Y2409440D01*
X29094Y2404040D01*
X26308Y2398571D01*
X23654Y2393036D01*
X21135Y2387439D01*
X18752Y2381782D01*
X16506Y2376070D01*
X14399Y2370305D01*
X12432Y2364490D01*
X10606Y2358630D01*
X8922Y2352728D01*
X7381Y2346786D01*
X5984Y2340809D01*
X4732Y2334800D01*
X3626Y2328763D01*
X2665Y2322700D01*
X1852Y2316616D01*
X1186Y2310515D01*
X667Y2304398D01*
X297Y2298272D01*
X74Y2292138D01*
X0Y2286000D01*
D11*
G36*
X1249642Y1980093D02*
X1178931Y1909382D01*
X1087008Y2001305D01*
X1157719Y2072016D01*
X1249642Y1980093D01*
G37*
G36*
X1750981Y1478755D02*
X1680270Y1408044D01*
X1588347Y1499967D01*
X1659058Y1570678D01*
X1750981Y1478755D01*
G37*
G36*
X1350051Y2081210D02*
X1279340Y2010499D01*
X1187417Y2102422D01*
X1258128Y2173133D01*
X1350051Y2081210D01*
G37*
G36*
X1851744Y1579517D02*
X1781033Y1508806D01*
X1689110Y1600729D01*
X1759821Y1671440D01*
X1851744Y1579517D01*
G37*
G36*
X1952506Y1680280D02*
X1881795Y1609569D01*
X1789872Y1701492D01*
X1860583Y1772203D01*
X1952506Y1680280D01*
G37*
G36*
X1453289Y2181619D02*
X1382578Y2110908D01*
X1290655Y2202831D01*
X1361366Y2273542D01*
X1453289Y2181619D01*
G37*
D12*
G36*
X1835127Y2223337D02*
X1905837Y2152627D01*
X1778559Y2025349D01*
X1707849Y2096059D01*
X1835127Y2223337D01*
G37*
G36*
X1212873Y1459663D02*
X1142163Y1530373D01*
X1269441Y1657651D01*
X1340151Y1586941D01*
X1212873Y1459663D01*
G37*
D13*
X1620850Y1975850D02*
X1620861Y1976770D01*
X1620895Y1977690D01*
X1620952Y1978609D01*
X1621031Y1979526D01*
X1621132Y1980440D01*
X1621256Y1981352D01*
X1621402Y1982261D01*
X1621571Y1983166D01*
X1621761Y1984066D01*
X1621974Y1984962D01*
X1622208Y1985852D01*
X1622465Y1986736D01*
X1622743Y1987613D01*
X1623042Y1988483D01*
X1623363Y1989346D01*
X1623705Y1990201D01*
X1624067Y1991047D01*
X1624450Y1991883D01*
X1624854Y1992710D01*
X1625278Y1993527D01*
X1625722Y1994334D01*
X1626185Y1995129D01*
X1626668Y1995912D01*
X1627170Y1996684D01*
X1627691Y1997443D01*
X1628230Y1998189D01*
X1628787Y1998921D01*
X1629362Y1999640D01*
X1629955Y2000344D01*
X1630564Y2001033D01*
X1631191Y2001708D01*
X1631833Y2002367D01*
X1632492Y2003009D01*
X1633167Y2003636D01*
X1633856Y2004245D01*
X1634560Y2004838D01*
X1635279Y2005413D01*
X1636011Y2005970D01*
X1636757Y2006509D01*
X1637516Y2007030D01*
X1638288Y2007532D01*
X1639071Y2008015D01*
X1639866Y2008478D01*
X1640673Y2008922D01*
X1641490Y2009346D01*
X1642317Y2009750D01*
X1643153Y2010133D01*
X1643999Y2010495D01*
X1644854Y2010837D01*
X1645717Y2011158D01*
X1646587Y2011457D01*
X1647464Y2011735D01*
X1648348Y2011992D01*
X1649238Y2012226D01*
X1650134Y2012439D01*
X1651034Y2012629D01*
X1651939Y2012798D01*
X1652848Y2012944D01*
X1653760Y2013068D01*
X1654674Y2013169D01*
X1655591Y2013248D01*
X1656510Y2013305D01*
X1657430Y2013339D01*
X1658350Y2013350D01*
X1659270Y2013339D01*
X1660190Y2013305D01*
X1661109Y2013248D01*
X1662026Y2013169D01*
X1662940Y2013068D01*
X1663852Y2012944D01*
X1664761Y2012798D01*
X1665666Y2012629D01*
X1666566Y2012439D01*
X1667462Y2012226D01*
X1668352Y2011992D01*
X1669236Y2011735D01*
X1670113Y2011457D01*
X1670983Y2011158D01*
X1671846Y2010837D01*
X1672701Y2010495D01*
X1673547Y2010133D01*
X1674383Y2009750D01*
X1675210Y2009346D01*
X1676027Y2008922D01*
X1676834Y2008478D01*
X1677629Y2008015D01*
X1678412Y2007532D01*
X1679184Y2007030D01*
X1679943Y2006509D01*
X1680689Y2005970D01*
X1681421Y2005413D01*
X1682140Y2004838D01*
X1682844Y2004245D01*
X1683533Y2003636D01*
X1684208Y2003009D01*
X1684867Y2002367D01*
X1685509Y2001708D01*
X1686136Y2001033D01*
X1686745Y2000344D01*
X1687338Y1999640D01*
X1687913Y1998921D01*
X1688470Y1998189D01*
X1689009Y1997443D01*
X1689530Y1996684D01*
X1690032Y1995912D01*
X1690515Y1995129D01*
X1690978Y1994334D01*
X1691422Y1993527D01*
X1691846Y1992710D01*
X1692250Y1991883D01*
X1692633Y1991047D01*
X1692995Y1990201D01*
X1693337Y1989346D01*
X1693658Y1988483D01*
X1693957Y1987613D01*
X1694235Y1986736D01*
X1694492Y1985852D01*
X1694726Y1984962D01*
X1694939Y1984066D01*
X1695129Y1983166D01*
X1695298Y1982261D01*
X1695444Y1981352D01*
X1695568Y1980440D01*
X1695669Y1979526D01*
X1695748Y1978609D01*
X1695805Y1977690D01*
X1695839Y1976770D01*
X1695850Y1975850D01*
X1695839Y1974930D01*
X1695805Y1974010D01*
X1695748Y1973091D01*
X1695669Y1972174D01*
X1695568Y1971260D01*
X1695444Y1970348D01*
X1695298Y1969439D01*
X1695129Y1968534D01*
X1694939Y1967634D01*
X1694726Y1966738D01*
X1694492Y1965848D01*
X1694235Y1964964D01*
X1693957Y1964087D01*
X1693658Y1963217D01*
X1693337Y1962354D01*
X1692995Y1961499D01*
X1692633Y1960653D01*
X1692250Y1959817D01*
X1691846Y1958990D01*
X1691422Y1958173D01*
X1690978Y1957366D01*
X1690515Y1956571D01*
X1690032Y1955788D01*
X1689530Y1955016D01*
X1689009Y1954257D01*
X1688470Y1953511D01*
X1687913Y1952779D01*
X1687338Y1952060D01*
X1686745Y1951356D01*
X1686136Y1950667D01*
X1685509Y1949992D01*
X1684867Y1949333D01*
X1684208Y1948691D01*
X1683533Y1948064D01*
X1682844Y1947455D01*
X1682140Y1946862D01*
X1681421Y1946287D01*
X1680689Y1945730D01*
X1679943Y1945191D01*
X1679184Y1944670D01*
X1678412Y1944168D01*
X1677629Y1943685D01*
X1676834Y1943222D01*
X1676027Y1942778D01*
X1675210Y1942354D01*
X1674383Y1941950D01*
X1673547Y1941567D01*
X1672701Y1941205D01*
X1671846Y1940863D01*
X1670983Y1940542D01*
X1670113Y1940243D01*
X1669236Y1939965D01*
X1668352Y1939708D01*
X1667462Y1939474D01*
X1666566Y1939261D01*
X1665666Y1939071D01*
X1664761Y1938902D01*
X1663852Y1938756D01*
X1662940Y1938632D01*
X1662026Y1938531D01*
X1661109Y1938452D01*
X1660190Y1938395D01*
X1659270Y1938361D01*
X1658350Y1938350D01*
X1657430Y1938361D01*
X1656510Y1938395D01*
X1655591Y1938452D01*
X1654674Y1938531D01*
X1653760Y1938632D01*
X1652848Y1938756D01*
X1651939Y1938902D01*
X1651034Y1939071D01*
X1650134Y1939261D01*
X1649238Y1939474D01*
X1648348Y1939708D01*
X1647464Y1939965D01*
X1646587Y1940243D01*
X1645717Y1940542D01*
X1644854Y1940863D01*
X1643999Y1941205D01*
X1643153Y1941567D01*
X1642317Y1941950D01*
X1641490Y1942354D01*
X1640673Y1942778D01*
X1639866Y1943222D01*
X1639071Y1943685D01*
X1638288Y1944168D01*
X1637516Y1944670D01*
X1636757Y1945191D01*
X1636011Y1945730D01*
X1635279Y1946287D01*
X1634560Y1946862D01*
X1633856Y1947455D01*
X1633167Y1948064D01*
X1632492Y1948691D01*
X1631833Y1949333D01*
X1631191Y1949992D01*
X1630564Y1950667D01*
X1629955Y1951356D01*
X1629362Y1952060D01*
X1628787Y1952779D01*
X1628230Y1953511D01*
X1627691Y1954257D01*
X1627170Y1955016D01*
X1626668Y1955788D01*
X1626185Y1956571D01*
X1625722Y1957366D01*
X1625278Y1958173D01*
X1624854Y1958990D01*
X1624450Y1959817D01*
X1624067Y1960653D01*
X1623705Y1961499D01*
X1623363Y1962354D01*
X1623042Y1963217D01*
X1622743Y1964087D01*
X1622465Y1964964D01*
X1622208Y1965848D01*
X1621974Y1966738D01*
X1621761Y1967634D01*
X1621571Y1968534D01*
X1621402Y1969439D01*
X1621256Y1970348D01*
X1621132Y1971260D01*
X1621031Y1972174D01*
X1620952Y1973091D01*
X1620895Y1974010D01*
X1620861Y1974930D01*
X1620850Y1975850D01*
X1337150Y1707150D02*
X1337166Y1708438D01*
X1337213Y1709726D01*
X1337292Y1711012D01*
X1337403Y1712296D01*
X1337545Y1713577D01*
X1337718Y1714853D01*
X1337923Y1716125D01*
X1338159Y1717392D01*
X1338426Y1718653D01*
X1338723Y1719906D01*
X1339052Y1721152D01*
X1339411Y1722390D01*
X1339800Y1723618D01*
X1340219Y1724837D01*
X1340668Y1726044D01*
X1341146Y1727241D01*
X1341654Y1728425D01*
X1342191Y1729597D01*
X1342756Y1730755D01*
X1343349Y1731898D01*
X1343970Y1733027D01*
X1344619Y1734140D01*
X1345295Y1735237D01*
X1345998Y1736317D01*
X1346727Y1737380D01*
X1347482Y1738424D01*
X1348262Y1739450D01*
X1349067Y1740456D01*
X1349897Y1741442D01*
X1350750Y1742407D01*
X1351627Y1743351D01*
X1352527Y1744273D01*
X1353449Y1745173D01*
X1354393Y1746050D01*
X1355358Y1746903D01*
X1356344Y1747733D01*
X1357350Y1748538D01*
X1358376Y1749318D01*
X1359420Y1750073D01*
X1360483Y1750802D01*
X1361563Y1751505D01*
X1362660Y1752181D01*
X1363773Y1752830D01*
X1364902Y1753451D01*
X1366045Y1754044D01*
X1367203Y1754609D01*
X1368375Y1755146D01*
X1369559Y1755654D01*
X1370756Y1756132D01*
X1371963Y1756581D01*
X1373182Y1757000D01*
X1374410Y1757389D01*
X1375648Y1757748D01*
X1376894Y1758077D01*
X1378147Y1758374D01*
X1379408Y1758641D01*
X1380675Y1758877D01*
X1381947Y1759082D01*
X1383223Y1759255D01*
X1384504Y1759397D01*
X1385788Y1759508D01*
X1387074Y1759587D01*
X1388362Y1759634D01*
X1389650Y1759650D01*
X1390938Y1759634D01*
X1392226Y1759587D01*
X1393512Y1759508D01*
X1394796Y1759397D01*
X1396077Y1759255D01*
X1397353Y1759082D01*
X1398625Y1758877D01*
X1399892Y1758641D01*
X1401153Y1758374D01*
X1402406Y1758077D01*
X1403652Y1757748D01*
X1404890Y1757389D01*
X1406118Y1757000D01*
X1407337Y1756581D01*
X1408544Y1756132D01*
X1409741Y1755654D01*
X1410925Y1755146D01*
X1412097Y1754609D01*
X1413255Y1754044D01*
X1414398Y1753451D01*
X1415527Y1752830D01*
X1416640Y1752181D01*
X1417737Y1751505D01*
X1418817Y1750802D01*
X1419880Y1750073D01*
X1420924Y1749318D01*
X1421950Y1748538D01*
X1422956Y1747733D01*
X1423942Y1746903D01*
X1424907Y1746050D01*
X1425851Y1745173D01*
X1426773Y1744273D01*
X1427673Y1743351D01*
X1428550Y1742407D01*
X1429403Y1741442D01*
X1430233Y1740456D01*
X1431038Y1739450D01*
X1431818Y1738424D01*
X1432573Y1737380D01*
X1433302Y1736317D01*
X1434005Y1735237D01*
X1434681Y1734140D01*
X1435330Y1733027D01*
X1435951Y1731898D01*
X1436544Y1730755D01*
X1437109Y1729597D01*
X1437646Y1728425D01*
X1438154Y1727241D01*
X1438632Y1726044D01*
X1439081Y1724837D01*
X1439500Y1723618D01*
X1439889Y1722390D01*
X1440248Y1721152D01*
X1440577Y1719906D01*
X1440874Y1718653D01*
X1441141Y1717392D01*
X1441377Y1716125D01*
X1441582Y1714853D01*
X1441755Y1713577D01*
X1441897Y1712296D01*
X1442008Y1711012D01*
X1442087Y1709726D01*
X1442134Y1708438D01*
X1442150Y1707150D01*
X1442134Y1705862D01*
X1442087Y1704574D01*
X1442008Y1703288D01*
X1441897Y1702004D01*
X1441755Y1700723D01*
X1441582Y1699447D01*
X1441377Y1698175D01*
X1441141Y1696908D01*
X1440874Y1695647D01*
X1440577Y1694394D01*
X1440248Y1693148D01*
X1439889Y1691910D01*
X1439500Y1690682D01*
X1439081Y1689463D01*
X1438632Y1688256D01*
X1438154Y1687059D01*
X1437646Y1685875D01*
X1437109Y1684703D01*
X1436544Y1683545D01*
X1435951Y1682402D01*
X1435330Y1681273D01*
X1434681Y1680160D01*
X1434005Y1679063D01*
X1433302Y1677983D01*
X1432573Y1676920D01*
X1431818Y1675876D01*
X1431038Y1674850D01*
X1430233Y1673844D01*
X1429403Y1672858D01*
X1428550Y1671893D01*
X1427673Y1670949D01*
X1426773Y1670027D01*
X1425851Y1669127D01*
X1424907Y1668250D01*
X1423942Y1667397D01*
X1422956Y1666567D01*
X1421950Y1665762D01*
X1420924Y1664982D01*
X1419880Y1664227D01*
X1418817Y1663498D01*
X1417737Y1662795D01*
X1416640Y1662119D01*
X1415527Y1661470D01*
X1414398Y1660849D01*
X1413255Y1660256D01*
X1412097Y1659691D01*
X1410925Y1659154D01*
X1409741Y1658646D01*
X1408544Y1658168D01*
X1407337Y1657719D01*
X1406118Y1657300D01*
X1404890Y1656911D01*
X1403652Y1656552D01*
X1402406Y1656223D01*
X1401153Y1655926D01*
X1399892Y1655659D01*
X1398625Y1655423D01*
X1397353Y1655218D01*
X1396077Y1655045D01*
X1394796Y1654903D01*
X1393512Y1654792D01*
X1392226Y1654713D01*
X1390938Y1654666D01*
X1389650Y1654650D01*
X1388362Y1654666D01*
X1387074Y1654713D01*
X1385788Y1654792D01*
X1384504Y1654903D01*
X1383223Y1655045D01*
X1381947Y1655218D01*
X1380675Y1655423D01*
X1379408Y1655659D01*
X1378147Y1655926D01*
X1376894Y1656223D01*
X1375648Y1656552D01*
X1374410Y1656911D01*
X1373182Y1657300D01*
X1371963Y1657719D01*
X1370756Y1658168D01*
X1369559Y1658646D01*
X1368375Y1659154D01*
X1367203Y1659691D01*
X1366045Y1660256D01*
X1364902Y1660849D01*
X1363773Y1661470D01*
X1362660Y1662119D01*
X1361563Y1662795D01*
X1360483Y1663498D01*
X1359420Y1664227D01*
X1358376Y1664982D01*
X1357350Y1665762D01*
X1356344Y1666567D01*
X1355358Y1667397D01*
X1354393Y1668250D01*
X1353449Y1669127D01*
X1352527Y1670027D01*
X1351627Y1670949D01*
X1350750Y1671893D01*
X1349897Y1672858D01*
X1349067Y1673844D01*
X1348262Y1674850D01*
X1347482Y1675876D01*
X1346727Y1676920D01*
X1345998Y1677983D01*
X1345295Y1679063D01*
X1344619Y1680160D01*
X1343970Y1681273D01*
X1343349Y1682402D01*
X1342756Y1683545D01*
X1342191Y1684703D01*
X1341654Y1685875D01*
X1341146Y1687059D01*
X1340668Y1688256D01*
X1340219Y1689463D01*
X1339800Y1690682D01*
X1339411Y1691910D01*
X1339052Y1693148D01*
X1338723Y1694394D01*
X1338426Y1695647D01*
X1338159Y1696908D01*
X1337923Y1698175D01*
X1337718Y1699447D01*
X1337545Y1700723D01*
X1337403Y1702004D01*
X1337292Y1703288D01*
X1337213Y1704574D01*
X1337166Y1705862D01*
X1337150Y1707150D01*
D14*
X1111500Y1064000D03*
X1111500Y714000D03*
X666500Y714000D03*
X666500Y1064000D03*
X1746500Y1064000D03*
X1746500Y714000D03*
X1301500Y714000D03*
X1301500Y1064000D03*
X2381500Y1064000D03*
X2381500Y714000D03*
X1936500Y714000D03*
X1936500Y1064000D03*
D15*
X381000Y190500D03*
X635000Y190500D03*
X889000Y190500D03*
X1143000Y190500D03*
X1397000Y190500D03*
X1651000Y190500D03*
X1905000Y190500D03*
X2159000Y190500D03*
X2413000Y190500D03*
X2667000Y190500D03*
D16*
X2349500Y1682750D03*
D17*
X1714500Y1778000D03*
D18*
X317500Y2222500D03*
X2730500Y2222500D03*
D19*
X1333500Y2027051D02*
X1268735Y2091816D01*
X1333500Y2027051D02*
X1333500Y1905000D01*
D17*
X1333500Y1905000D03*
D19*
X1587500Y1571525D02*
X1669664Y1489361D01*
X1587500Y1571525D02*
X1587500Y1651000D01*
D17*
X1587500Y1651000D03*
D19*
X1460500Y2103697D02*
X1371972Y2192225D01*
X1460500Y2103697D02*
X1460500Y2032000D01*
D17*
X1460500Y2032000D03*
X1841500Y1905000D03*
D19*
X1841500Y1720576D01*
X1871190Y1690887D01*
D17*
X1206500Y1778000D03*
D19*
X1206500Y1952525D02*
X1168325Y1990700D01*
X1206500Y1952525D02*
X1206500Y1778000D01*
X1111500Y1064000D02*
X666500Y1064000D01*
D17*
X1143000Y1174750D03*
D19*
X1111250Y1143000D01*
X1111500Y1142750D01*
X1111500Y1064000D01*
X1301500Y1064000D02*
X1746500Y1064000D01*
D17*
X1746250Y1174750D03*
D19*
X1746500Y1174500D02*
X1746500Y1064000D01*
X1746500Y1174500D02*
X1746250Y1174750D01*
X1936500Y1064000D02*
X2381500Y1064000D01*
D17*
X1936750Y1174750D03*
D19*
X1936500Y1174500D02*
X1936500Y1064000D01*
X1936500Y1174500D02*
X1936750Y1174750D01*
D17*
X2349500Y1682750D03*
M02*
