M48
;GenerationSoftware,Autodesk,EAGLE,9.0.1*%
;CreationDate,2018-05-27T12:11:56Z*%
FMAT,2
ICI,OFF
METRIC,TZ,000.00000
T5C0.35000
T4C0.75000
T3C1.01600
T2C1.05000
T1C3.00000
%
G90
M71
T1
X317500Y2222500
X2730500Y2222500
T2
X1389650Y1707150
T3
X381000Y190500
X635000Y190500
X889000Y190500
X1143000Y190500
X1397000Y190500
X1651000Y190500
X1905000Y190500
X2159000Y190500
X2413000Y190500
X2667000Y190500
T4
X1658350Y1975850
T5
X1714500Y1778000
X1333500Y1905000
X1587500Y1651000
X1460500Y2032000
X1841500Y1905000
X1206500Y1778000
X1143000Y1174750
X1746250Y1174750
X1936750Y1174750
X2349500Y1682750
M30