G04 EAGLE Gerber X2 export*
G75*
%MOMM*%
%FSLAX35Y35*%
%LPD*%
%AMOC8*
5,1,8,0,0,1.08239X$1,22.5*%
G01*
%ADD10C,0.076200*%
%ADD11C,0.000000*%
%ADD12C,0.953200*%
%ADD13C,1.253200*%
%ADD14R,0.503200X1.803200*%
%ADD15R,1.703200X1.503200*%
%ADD16P,2.144431X8X112.500000*%
%ADD17R,1.603200X1.203200*%
%ADD18C,4.219200*%


D10*
X254000Y2540000D02*
X2794000Y2540000D01*
X3048000Y2286000D02*
X3048000Y254000D01*
X2794000Y0D02*
X254000Y0D01*
X0Y254000D02*
X0Y2286000D01*
X0Y254000D02*
X74Y247862D01*
X297Y241728D01*
X667Y235602D01*
X1186Y229485D01*
X1852Y223384D01*
X2665Y217300D01*
X3626Y211237D01*
X4732Y205200D01*
X5984Y199191D01*
X7381Y193214D01*
X8922Y187272D01*
X10606Y181370D01*
X12432Y175510D01*
X14399Y169695D01*
X16506Y163930D01*
X18752Y158218D01*
X21135Y152561D01*
X23654Y146964D01*
X26308Y141429D01*
X29094Y135960D01*
X32012Y130560D01*
X35060Y125232D01*
X38235Y119979D01*
X41537Y114805D01*
X44962Y109712D01*
X48510Y104703D01*
X52177Y99781D01*
X55963Y94949D01*
X59864Y90210D01*
X63878Y85567D01*
X68004Y81022D01*
X72238Y76578D01*
X76578Y72238D01*
X81022Y68004D01*
X85567Y63878D01*
X90210Y59864D01*
X94949Y55963D01*
X99781Y52177D01*
X104703Y48510D01*
X109712Y44962D01*
X114805Y41537D01*
X119979Y38235D01*
X125232Y35060D01*
X130560Y32012D01*
X135960Y29094D01*
X141429Y26308D01*
X146964Y23654D01*
X152561Y21135D01*
X158218Y18752D01*
X163930Y16506D01*
X169695Y14399D01*
X175510Y12432D01*
X181370Y10606D01*
X187272Y8922D01*
X193214Y7381D01*
X199191Y5984D01*
X205200Y4732D01*
X211237Y3626D01*
X217300Y2665D01*
X223384Y1852D01*
X229485Y1186D01*
X235602Y667D01*
X241728Y297D01*
X247862Y74D01*
X254000Y0D01*
X2794000Y0D02*
X2800138Y74D01*
X2806272Y297D01*
X2812398Y667D01*
X2818515Y1186D01*
X2824616Y1852D01*
X2830700Y2665D01*
X2836763Y3626D01*
X2842800Y4732D01*
X2848809Y5984D01*
X2854786Y7381D01*
X2860728Y8922D01*
X2866630Y10606D01*
X2872490Y12432D01*
X2878305Y14399D01*
X2884070Y16506D01*
X2889782Y18752D01*
X2895439Y21135D01*
X2901036Y23654D01*
X2906571Y26308D01*
X2912040Y29094D01*
X2917440Y32012D01*
X2922768Y35060D01*
X2928021Y38235D01*
X2933195Y41537D01*
X2938288Y44962D01*
X2943297Y48510D01*
X2948219Y52177D01*
X2953051Y55963D01*
X2957790Y59864D01*
X2962433Y63878D01*
X2966978Y68004D01*
X2971422Y72238D01*
X2975762Y76578D01*
X2979996Y81022D01*
X2984122Y85567D01*
X2988136Y90210D01*
X2992037Y94949D01*
X2995823Y99781D01*
X2999490Y104703D01*
X3003038Y109712D01*
X3006463Y114805D01*
X3009765Y119979D01*
X3012940Y125232D01*
X3015988Y130560D01*
X3018906Y135960D01*
X3021692Y141429D01*
X3024346Y146964D01*
X3026865Y152561D01*
X3029248Y158218D01*
X3031494Y163930D01*
X3033601Y169695D01*
X3035568Y175510D01*
X3037394Y181370D01*
X3039078Y187272D01*
X3040619Y193214D01*
X3042016Y199191D01*
X3043268Y205200D01*
X3044374Y211237D01*
X3045335Y217300D01*
X3046148Y223384D01*
X3046814Y229485D01*
X3047333Y235602D01*
X3047703Y241728D01*
X3047926Y247862D01*
X3048000Y254000D01*
X3048000Y2286000D02*
X3047926Y2292138D01*
X3047703Y2298272D01*
X3047333Y2304398D01*
X3046814Y2310515D01*
X3046148Y2316616D01*
X3045335Y2322700D01*
X3044374Y2328763D01*
X3043268Y2334800D01*
X3042016Y2340809D01*
X3040619Y2346786D01*
X3039078Y2352728D01*
X3037394Y2358630D01*
X3035568Y2364490D01*
X3033601Y2370305D01*
X3031494Y2376070D01*
X3029248Y2381782D01*
X3026865Y2387439D01*
X3024346Y2393036D01*
X3021692Y2398571D01*
X3018906Y2404040D01*
X3015988Y2409440D01*
X3012940Y2414768D01*
X3009765Y2420021D01*
X3006463Y2425195D01*
X3003038Y2430288D01*
X2999490Y2435297D01*
X2995823Y2440219D01*
X2992037Y2445051D01*
X2988136Y2449790D01*
X2984122Y2454433D01*
X2979996Y2458978D01*
X2975762Y2463422D01*
X2971422Y2467762D01*
X2966978Y2471996D01*
X2962433Y2476122D01*
X2957790Y2480136D01*
X2953051Y2484037D01*
X2948219Y2487823D01*
X2943297Y2491490D01*
X2938288Y2495038D01*
X2933195Y2498463D01*
X2928021Y2501765D01*
X2922768Y2504940D01*
X2917440Y2507988D01*
X2912040Y2510906D01*
X2906571Y2513692D01*
X2901036Y2516346D01*
X2895439Y2518865D01*
X2889782Y2521248D01*
X2884070Y2523494D01*
X2878305Y2525601D01*
X2872490Y2527568D01*
X2866630Y2529394D01*
X2860728Y2531078D01*
X2854786Y2532619D01*
X2848809Y2534016D01*
X2842800Y2535268D01*
X2836763Y2536374D01*
X2830700Y2537335D01*
X2824616Y2538148D01*
X2818515Y2538814D01*
X2812398Y2539333D01*
X2806272Y2539703D01*
X2800138Y2539926D01*
X2794000Y2540000D01*
X254000Y2540000D02*
X247862Y2539926D01*
X241728Y2539703D01*
X235602Y2539333D01*
X229485Y2538814D01*
X223384Y2538148D01*
X217300Y2537335D01*
X211237Y2536374D01*
X205200Y2535268D01*
X199191Y2534016D01*
X193214Y2532619D01*
X187272Y2531078D01*
X181370Y2529394D01*
X175510Y2527568D01*
X169695Y2525601D01*
X163930Y2523494D01*
X158218Y2521248D01*
X152561Y2518865D01*
X146964Y2516346D01*
X141429Y2513692D01*
X135960Y2510906D01*
X130560Y2507988D01*
X125232Y2504940D01*
X119979Y2501765D01*
X114805Y2498463D01*
X109712Y2495038D01*
X104703Y2491490D01*
X99781Y2487823D01*
X94949Y2484037D01*
X90210Y2480136D01*
X85567Y2476122D01*
X81022Y2471996D01*
X76578Y2467762D01*
X72238Y2463422D01*
X68004Y2458978D01*
X63878Y2454433D01*
X59864Y2449790D01*
X55963Y2445051D01*
X52177Y2440219D01*
X48510Y2435297D01*
X44962Y2430288D01*
X41537Y2425195D01*
X38235Y2420021D01*
X35060Y2414768D01*
X32012Y2409440D01*
X29094Y2404040D01*
X26308Y2398571D01*
X23654Y2393036D01*
X21135Y2387439D01*
X18752Y2381782D01*
X16506Y2376070D01*
X14399Y2370305D01*
X12432Y2364490D01*
X10606Y2358630D01*
X8922Y2352728D01*
X7381Y2346786D01*
X5984Y2340809D01*
X4732Y2334800D01*
X3626Y2328763D01*
X2665Y2322700D01*
X1852Y2316616D01*
X1186Y2310515D01*
X667Y2304398D01*
X297Y2298272D01*
X74Y2292138D01*
X0Y2286000D01*
D11*
X1620850Y1975850D02*
X1620861Y1976770D01*
X1620895Y1977690D01*
X1620952Y1978609D01*
X1621031Y1979526D01*
X1621132Y1980440D01*
X1621256Y1981352D01*
X1621402Y1982261D01*
X1621571Y1983166D01*
X1621761Y1984066D01*
X1621974Y1984962D01*
X1622208Y1985852D01*
X1622465Y1986736D01*
X1622743Y1987613D01*
X1623042Y1988483D01*
X1623363Y1989346D01*
X1623705Y1990201D01*
X1624067Y1991047D01*
X1624450Y1991883D01*
X1624854Y1992710D01*
X1625278Y1993527D01*
X1625722Y1994334D01*
X1626185Y1995129D01*
X1626668Y1995912D01*
X1627170Y1996684D01*
X1627691Y1997443D01*
X1628230Y1998189D01*
X1628787Y1998921D01*
X1629362Y1999640D01*
X1629955Y2000344D01*
X1630564Y2001033D01*
X1631191Y2001708D01*
X1631833Y2002367D01*
X1632492Y2003009D01*
X1633167Y2003636D01*
X1633856Y2004245D01*
X1634560Y2004838D01*
X1635279Y2005413D01*
X1636011Y2005970D01*
X1636757Y2006509D01*
X1637516Y2007030D01*
X1638288Y2007532D01*
X1639071Y2008015D01*
X1639866Y2008478D01*
X1640673Y2008922D01*
X1641490Y2009346D01*
X1642317Y2009750D01*
X1643153Y2010133D01*
X1643999Y2010495D01*
X1644854Y2010837D01*
X1645717Y2011158D01*
X1646587Y2011457D01*
X1647464Y2011735D01*
X1648348Y2011992D01*
X1649238Y2012226D01*
X1650134Y2012439D01*
X1651034Y2012629D01*
X1651939Y2012798D01*
X1652848Y2012944D01*
X1653760Y2013068D01*
X1654674Y2013169D01*
X1655591Y2013248D01*
X1656510Y2013305D01*
X1657430Y2013339D01*
X1658350Y2013350D01*
X1659270Y2013339D01*
X1660190Y2013305D01*
X1661109Y2013248D01*
X1662026Y2013169D01*
X1662940Y2013068D01*
X1663852Y2012944D01*
X1664761Y2012798D01*
X1665666Y2012629D01*
X1666566Y2012439D01*
X1667462Y2012226D01*
X1668352Y2011992D01*
X1669236Y2011735D01*
X1670113Y2011457D01*
X1670983Y2011158D01*
X1671846Y2010837D01*
X1672701Y2010495D01*
X1673547Y2010133D01*
X1674383Y2009750D01*
X1675210Y2009346D01*
X1676027Y2008922D01*
X1676834Y2008478D01*
X1677629Y2008015D01*
X1678412Y2007532D01*
X1679184Y2007030D01*
X1679943Y2006509D01*
X1680689Y2005970D01*
X1681421Y2005413D01*
X1682140Y2004838D01*
X1682844Y2004245D01*
X1683533Y2003636D01*
X1684208Y2003009D01*
X1684867Y2002367D01*
X1685509Y2001708D01*
X1686136Y2001033D01*
X1686745Y2000344D01*
X1687338Y1999640D01*
X1687913Y1998921D01*
X1688470Y1998189D01*
X1689009Y1997443D01*
X1689530Y1996684D01*
X1690032Y1995912D01*
X1690515Y1995129D01*
X1690978Y1994334D01*
X1691422Y1993527D01*
X1691846Y1992710D01*
X1692250Y1991883D01*
X1692633Y1991047D01*
X1692995Y1990201D01*
X1693337Y1989346D01*
X1693658Y1988483D01*
X1693957Y1987613D01*
X1694235Y1986736D01*
X1694492Y1985852D01*
X1694726Y1984962D01*
X1694939Y1984066D01*
X1695129Y1983166D01*
X1695298Y1982261D01*
X1695444Y1981352D01*
X1695568Y1980440D01*
X1695669Y1979526D01*
X1695748Y1978609D01*
X1695805Y1977690D01*
X1695839Y1976770D01*
X1695850Y1975850D01*
X1695839Y1974930D01*
X1695805Y1974010D01*
X1695748Y1973091D01*
X1695669Y1972174D01*
X1695568Y1971260D01*
X1695444Y1970348D01*
X1695298Y1969439D01*
X1695129Y1968534D01*
X1694939Y1967634D01*
X1694726Y1966738D01*
X1694492Y1965848D01*
X1694235Y1964964D01*
X1693957Y1964087D01*
X1693658Y1963217D01*
X1693337Y1962354D01*
X1692995Y1961499D01*
X1692633Y1960653D01*
X1692250Y1959817D01*
X1691846Y1958990D01*
X1691422Y1958173D01*
X1690978Y1957366D01*
X1690515Y1956571D01*
X1690032Y1955788D01*
X1689530Y1955016D01*
X1689009Y1954257D01*
X1688470Y1953511D01*
X1687913Y1952779D01*
X1687338Y1952060D01*
X1686745Y1951356D01*
X1686136Y1950667D01*
X1685509Y1949992D01*
X1684867Y1949333D01*
X1684208Y1948691D01*
X1683533Y1948064D01*
X1682844Y1947455D01*
X1682140Y1946862D01*
X1681421Y1946287D01*
X1680689Y1945730D01*
X1679943Y1945191D01*
X1679184Y1944670D01*
X1678412Y1944168D01*
X1677629Y1943685D01*
X1676834Y1943222D01*
X1676027Y1942778D01*
X1675210Y1942354D01*
X1674383Y1941950D01*
X1673547Y1941567D01*
X1672701Y1941205D01*
X1671846Y1940863D01*
X1670983Y1940542D01*
X1670113Y1940243D01*
X1669236Y1939965D01*
X1668352Y1939708D01*
X1667462Y1939474D01*
X1666566Y1939261D01*
X1665666Y1939071D01*
X1664761Y1938902D01*
X1663852Y1938756D01*
X1662940Y1938632D01*
X1662026Y1938531D01*
X1661109Y1938452D01*
X1660190Y1938395D01*
X1659270Y1938361D01*
X1658350Y1938350D01*
X1657430Y1938361D01*
X1656510Y1938395D01*
X1655591Y1938452D01*
X1654674Y1938531D01*
X1653760Y1938632D01*
X1652848Y1938756D01*
X1651939Y1938902D01*
X1651034Y1939071D01*
X1650134Y1939261D01*
X1649238Y1939474D01*
X1648348Y1939708D01*
X1647464Y1939965D01*
X1646587Y1940243D01*
X1645717Y1940542D01*
X1644854Y1940863D01*
X1643999Y1941205D01*
X1643153Y1941567D01*
X1642317Y1941950D01*
X1641490Y1942354D01*
X1640673Y1942778D01*
X1639866Y1943222D01*
X1639071Y1943685D01*
X1638288Y1944168D01*
X1637516Y1944670D01*
X1636757Y1945191D01*
X1636011Y1945730D01*
X1635279Y1946287D01*
X1634560Y1946862D01*
X1633856Y1947455D01*
X1633167Y1948064D01*
X1632492Y1948691D01*
X1631833Y1949333D01*
X1631191Y1949992D01*
X1630564Y1950667D01*
X1629955Y1951356D01*
X1629362Y1952060D01*
X1628787Y1952779D01*
X1628230Y1953511D01*
X1627691Y1954257D01*
X1627170Y1955016D01*
X1626668Y1955788D01*
X1626185Y1956571D01*
X1625722Y1957366D01*
X1625278Y1958173D01*
X1624854Y1958990D01*
X1624450Y1959817D01*
X1624067Y1960653D01*
X1623705Y1961499D01*
X1623363Y1962354D01*
X1623042Y1963217D01*
X1622743Y1964087D01*
X1622465Y1964964D01*
X1622208Y1965848D01*
X1621974Y1966738D01*
X1621761Y1967634D01*
X1621571Y1968534D01*
X1621402Y1969439D01*
X1621256Y1970348D01*
X1621132Y1971260D01*
X1621031Y1972174D01*
X1620952Y1973091D01*
X1620895Y1974010D01*
X1620861Y1974930D01*
X1620850Y1975850D01*
D12*
X1658350Y1975850D03*
D11*
X1337150Y1707150D02*
X1337166Y1708438D01*
X1337213Y1709726D01*
X1337292Y1711012D01*
X1337403Y1712296D01*
X1337545Y1713577D01*
X1337718Y1714853D01*
X1337923Y1716125D01*
X1338159Y1717392D01*
X1338426Y1718653D01*
X1338723Y1719906D01*
X1339052Y1721152D01*
X1339411Y1722390D01*
X1339800Y1723618D01*
X1340219Y1724837D01*
X1340668Y1726044D01*
X1341146Y1727241D01*
X1341654Y1728425D01*
X1342191Y1729597D01*
X1342756Y1730755D01*
X1343349Y1731898D01*
X1343970Y1733027D01*
X1344619Y1734140D01*
X1345295Y1735237D01*
X1345998Y1736317D01*
X1346727Y1737380D01*
X1347482Y1738424D01*
X1348262Y1739450D01*
X1349067Y1740456D01*
X1349897Y1741442D01*
X1350750Y1742407D01*
X1351627Y1743351D01*
X1352527Y1744273D01*
X1353449Y1745173D01*
X1354393Y1746050D01*
X1355358Y1746903D01*
X1356344Y1747733D01*
X1357350Y1748538D01*
X1358376Y1749318D01*
X1359420Y1750073D01*
X1360483Y1750802D01*
X1361563Y1751505D01*
X1362660Y1752181D01*
X1363773Y1752830D01*
X1364902Y1753451D01*
X1366045Y1754044D01*
X1367203Y1754609D01*
X1368375Y1755146D01*
X1369559Y1755654D01*
X1370756Y1756132D01*
X1371963Y1756581D01*
X1373182Y1757000D01*
X1374410Y1757389D01*
X1375648Y1757748D01*
X1376894Y1758077D01*
X1378147Y1758374D01*
X1379408Y1758641D01*
X1380675Y1758877D01*
X1381947Y1759082D01*
X1383223Y1759255D01*
X1384504Y1759397D01*
X1385788Y1759508D01*
X1387074Y1759587D01*
X1388362Y1759634D01*
X1389650Y1759650D01*
X1390938Y1759634D01*
X1392226Y1759587D01*
X1393512Y1759508D01*
X1394796Y1759397D01*
X1396077Y1759255D01*
X1397353Y1759082D01*
X1398625Y1758877D01*
X1399892Y1758641D01*
X1401153Y1758374D01*
X1402406Y1758077D01*
X1403652Y1757748D01*
X1404890Y1757389D01*
X1406118Y1757000D01*
X1407337Y1756581D01*
X1408544Y1756132D01*
X1409741Y1755654D01*
X1410925Y1755146D01*
X1412097Y1754609D01*
X1413255Y1754044D01*
X1414398Y1753451D01*
X1415527Y1752830D01*
X1416640Y1752181D01*
X1417737Y1751505D01*
X1418817Y1750802D01*
X1419880Y1750073D01*
X1420924Y1749318D01*
X1421950Y1748538D01*
X1422956Y1747733D01*
X1423942Y1746903D01*
X1424907Y1746050D01*
X1425851Y1745173D01*
X1426773Y1744273D01*
X1427673Y1743351D01*
X1428550Y1742407D01*
X1429403Y1741442D01*
X1430233Y1740456D01*
X1431038Y1739450D01*
X1431818Y1738424D01*
X1432573Y1737380D01*
X1433302Y1736317D01*
X1434005Y1735237D01*
X1434681Y1734140D01*
X1435330Y1733027D01*
X1435951Y1731898D01*
X1436544Y1730755D01*
X1437109Y1729597D01*
X1437646Y1728425D01*
X1438154Y1727241D01*
X1438632Y1726044D01*
X1439081Y1724837D01*
X1439500Y1723618D01*
X1439889Y1722390D01*
X1440248Y1721152D01*
X1440577Y1719906D01*
X1440874Y1718653D01*
X1441141Y1717392D01*
X1441377Y1716125D01*
X1441582Y1714853D01*
X1441755Y1713577D01*
X1441897Y1712296D01*
X1442008Y1711012D01*
X1442087Y1709726D01*
X1442134Y1708438D01*
X1442150Y1707150D01*
X1442134Y1705862D01*
X1442087Y1704574D01*
X1442008Y1703288D01*
X1441897Y1702004D01*
X1441755Y1700723D01*
X1441582Y1699447D01*
X1441377Y1698175D01*
X1441141Y1696908D01*
X1440874Y1695647D01*
X1440577Y1694394D01*
X1440248Y1693148D01*
X1439889Y1691910D01*
X1439500Y1690682D01*
X1439081Y1689463D01*
X1438632Y1688256D01*
X1438154Y1687059D01*
X1437646Y1685875D01*
X1437109Y1684703D01*
X1436544Y1683545D01*
X1435951Y1682402D01*
X1435330Y1681273D01*
X1434681Y1680160D01*
X1434005Y1679063D01*
X1433302Y1677983D01*
X1432573Y1676920D01*
X1431818Y1675876D01*
X1431038Y1674850D01*
X1430233Y1673844D01*
X1429403Y1672858D01*
X1428550Y1671893D01*
X1427673Y1670949D01*
X1426773Y1670027D01*
X1425851Y1669127D01*
X1424907Y1668250D01*
X1423942Y1667397D01*
X1422956Y1666567D01*
X1421950Y1665762D01*
X1420924Y1664982D01*
X1419880Y1664227D01*
X1418817Y1663498D01*
X1417737Y1662795D01*
X1416640Y1662119D01*
X1415527Y1661470D01*
X1414398Y1660849D01*
X1413255Y1660256D01*
X1412097Y1659691D01*
X1410925Y1659154D01*
X1409741Y1658646D01*
X1408544Y1658168D01*
X1407337Y1657719D01*
X1406118Y1657300D01*
X1404890Y1656911D01*
X1403652Y1656552D01*
X1402406Y1656223D01*
X1401153Y1655926D01*
X1399892Y1655659D01*
X1398625Y1655423D01*
X1397353Y1655218D01*
X1396077Y1655045D01*
X1394796Y1654903D01*
X1393512Y1654792D01*
X1392226Y1654713D01*
X1390938Y1654666D01*
X1389650Y1654650D01*
X1388362Y1654666D01*
X1387074Y1654713D01*
X1385788Y1654792D01*
X1384504Y1654903D01*
X1383223Y1655045D01*
X1381947Y1655218D01*
X1380675Y1655423D01*
X1379408Y1655659D01*
X1378147Y1655926D01*
X1376894Y1656223D01*
X1375648Y1656552D01*
X1374410Y1656911D01*
X1373182Y1657300D01*
X1371963Y1657719D01*
X1370756Y1658168D01*
X1369559Y1658646D01*
X1368375Y1659154D01*
X1367203Y1659691D01*
X1366045Y1660256D01*
X1364902Y1660849D01*
X1363773Y1661470D01*
X1362660Y1662119D01*
X1361563Y1662795D01*
X1360483Y1663498D01*
X1359420Y1664227D01*
X1358376Y1664982D01*
X1357350Y1665762D01*
X1356344Y1666567D01*
X1355358Y1667397D01*
X1354393Y1668250D01*
X1353449Y1669127D01*
X1352527Y1670027D01*
X1351627Y1670949D01*
X1350750Y1671893D01*
X1349897Y1672858D01*
X1349067Y1673844D01*
X1348262Y1674850D01*
X1347482Y1675876D01*
X1346727Y1676920D01*
X1345998Y1677983D01*
X1345295Y1679063D01*
X1344619Y1680160D01*
X1343970Y1681273D01*
X1343349Y1682402D01*
X1342756Y1683545D01*
X1342191Y1684703D01*
X1341654Y1685875D01*
X1341146Y1687059D01*
X1340668Y1688256D01*
X1340219Y1689463D01*
X1339800Y1690682D01*
X1339411Y1691910D01*
X1339052Y1693148D01*
X1338723Y1694394D01*
X1338426Y1695647D01*
X1338159Y1696908D01*
X1337923Y1698175D01*
X1337718Y1699447D01*
X1337545Y1700723D01*
X1337403Y1702004D01*
X1337292Y1703288D01*
X1337213Y1704574D01*
X1337166Y1705862D01*
X1337150Y1707150D01*
D13*
X1389650Y1707150D03*
D14*
X1231000Y1348500D03*
X1296000Y1348500D03*
X1361000Y1348500D03*
X1426000Y1348500D03*
X1491000Y1348500D03*
X1556000Y1348500D03*
X1621000Y1348500D03*
X1686000Y1348500D03*
X1751000Y1348500D03*
X1816000Y1348500D03*
X1231000Y663500D03*
X1296000Y663500D03*
X1361000Y663500D03*
X1426000Y663500D03*
X1491000Y663500D03*
X1556000Y663500D03*
X1621000Y663500D03*
X1686000Y663500D03*
X1751000Y663500D03*
X1816000Y663500D03*
D15*
X952500Y1111000D03*
X952500Y921000D03*
D16*
X381000Y190500D03*
X635000Y190500D03*
X889000Y190500D03*
X1143000Y190500D03*
X1397000Y190500D03*
X1651000Y190500D03*
X1905000Y190500D03*
X2159000Y190500D03*
X2413000Y190500D03*
X2667000Y190500D03*
D17*
X634200Y895350D03*
X634200Y692150D03*
X392900Y793750D03*
D18*
X317500Y2222500D03*
X2730500Y2222500D03*
M02*
