G04 EAGLE Gerber X2 export*
%TF.Part,Single*%
%TF.FileFunction,Copper,L2,Bot,Mixed*%
%TF.FilePolarity,Positive*%
%TF.GenerationSoftware,Autodesk,EAGLE,9.0.0*%
%TF.CreationDate,2018-04-25T20:23:54Z*%
G75*
%MOMM*%
%FSLAX34Y34*%
%LPD*%
%AMOC8*
5,1,8,0,0,1.08239X$1,22.5*%
G01*
%ADD10R,1.300000X1.500000*%
%ADD11R,1.450000X0.450000*%
%ADD12C,1.524000*%
%ADD13C,0.406400*%
%ADD14C,0.700000*%

G36*
X66198Y4221D02*
X66198Y4221D01*
X66251Y4222D01*
X66294Y4241D01*
X66340Y4250D01*
X66384Y4281D01*
X66433Y4302D01*
X66465Y4336D01*
X66504Y4363D01*
X66533Y4408D01*
X66570Y4447D01*
X66586Y4491D01*
X66611Y4530D01*
X66620Y4583D01*
X66639Y4633D01*
X66637Y4680D01*
X66644Y4727D01*
X66632Y4778D01*
X66630Y4832D01*
X66609Y4874D01*
X66598Y4920D01*
X66567Y4963D01*
X66544Y5011D01*
X66503Y5049D01*
X66480Y5080D01*
X66454Y5096D01*
X66423Y5125D01*
X66149Y5308D01*
X65308Y6149D01*
X64647Y7139D01*
X64191Y8238D01*
X64040Y9001D01*
X69500Y9001D01*
X69508Y9002D01*
X69516Y9001D01*
X69605Y9022D01*
X69695Y9040D01*
X69702Y9045D01*
X69710Y9047D01*
X69783Y9101D01*
X69859Y9153D01*
X69863Y9160D01*
X69870Y9165D01*
X69916Y9243D01*
X69966Y9320D01*
X69967Y9329D01*
X69971Y9336D01*
X69999Y9500D01*
X69999Y10001D01*
X70001Y10001D01*
X70001Y9500D01*
X70003Y9492D01*
X70001Y9483D01*
X70022Y9395D01*
X70040Y9305D01*
X70045Y9298D01*
X70047Y9290D01*
X70101Y9217D01*
X70153Y9141D01*
X70160Y9137D01*
X70165Y9130D01*
X70243Y9083D01*
X70321Y9034D01*
X70329Y9033D01*
X70336Y9028D01*
X70500Y9001D01*
X75960Y9001D01*
X75809Y8238D01*
X75353Y7139D01*
X74692Y6149D01*
X73851Y5308D01*
X73577Y5125D01*
X73540Y5087D01*
X73496Y5057D01*
X73470Y5017D01*
X73437Y4984D01*
X73417Y4934D01*
X73389Y4890D01*
X73381Y4843D01*
X73363Y4799D01*
X73364Y4746D01*
X73356Y4693D01*
X73367Y4648D01*
X73367Y4601D01*
X73389Y4552D01*
X73402Y4500D01*
X73430Y4462D01*
X73449Y4419D01*
X73488Y4383D01*
X73520Y4340D01*
X73560Y4316D01*
X73595Y4284D01*
X73645Y4266D01*
X73691Y4238D01*
X73745Y4229D01*
X73782Y4216D01*
X73813Y4218D01*
X73855Y4211D01*
X106145Y4211D01*
X106198Y4221D01*
X106251Y4222D01*
X106294Y4241D01*
X106340Y4250D01*
X106384Y4281D01*
X106433Y4302D01*
X106465Y4336D01*
X106504Y4363D01*
X106533Y4408D01*
X106570Y4447D01*
X106586Y4491D01*
X106611Y4530D01*
X106620Y4583D01*
X106639Y4633D01*
X106637Y4680D01*
X106644Y4727D01*
X106632Y4778D01*
X106630Y4832D01*
X106609Y4874D01*
X106598Y4920D01*
X106567Y4963D01*
X106544Y5011D01*
X106503Y5049D01*
X106480Y5080D01*
X106454Y5096D01*
X106423Y5125D01*
X106149Y5308D01*
X105308Y6149D01*
X104647Y7139D01*
X104191Y8238D01*
X104040Y9001D01*
X109500Y9001D01*
X109508Y9002D01*
X109516Y9001D01*
X109605Y9022D01*
X109695Y9040D01*
X109702Y9045D01*
X109710Y9047D01*
X109783Y9101D01*
X109859Y9153D01*
X109863Y9160D01*
X109870Y9165D01*
X109916Y9243D01*
X109966Y9320D01*
X109967Y9329D01*
X109971Y9336D01*
X109999Y9500D01*
X109999Y10500D01*
X109997Y10508D01*
X109999Y10516D01*
X109978Y10605D01*
X109960Y10695D01*
X109955Y10702D01*
X109953Y10710D01*
X109899Y10783D01*
X109847Y10859D01*
X109840Y10863D01*
X109835Y10870D01*
X109757Y10916D01*
X109679Y10966D01*
X109671Y10967D01*
X109664Y10971D01*
X109500Y10999D01*
X104040Y10999D01*
X104191Y11762D01*
X104647Y12861D01*
X105308Y13851D01*
X105714Y14257D01*
X105716Y14260D01*
X105720Y14263D01*
X105771Y14343D01*
X105824Y14423D01*
X105825Y14427D01*
X105827Y14430D01*
X105843Y14524D01*
X105860Y14618D01*
X105859Y14622D01*
X105860Y14627D01*
X105838Y14718D01*
X105817Y14812D01*
X105815Y14816D01*
X105814Y14820D01*
X105758Y14896D01*
X105702Y14975D01*
X105699Y14977D01*
X105696Y14980D01*
X105615Y15028D01*
X105533Y15079D01*
X105529Y15079D01*
X105525Y15082D01*
X105361Y15109D01*
X103171Y15109D01*
X101999Y16281D01*
X101999Y20078D01*
X101998Y20086D01*
X101999Y20095D01*
X101978Y20183D01*
X101960Y20273D01*
X101955Y20280D01*
X101953Y20288D01*
X101899Y20361D01*
X101847Y20437D01*
X101840Y20441D01*
X101835Y20448D01*
X101757Y20495D01*
X101680Y20544D01*
X101671Y20545D01*
X101664Y20550D01*
X101500Y20577D01*
X96030Y20577D01*
X93667Y22940D01*
X93667Y35560D01*
X93666Y35568D01*
X93667Y35577D01*
X93646Y35665D01*
X93628Y35755D01*
X93623Y35762D01*
X93621Y35770D01*
X93567Y35843D01*
X93515Y35919D01*
X93508Y35923D01*
X93503Y35930D01*
X93425Y35977D01*
X93348Y36026D01*
X93339Y36027D01*
X93332Y36032D01*
X93168Y36059D01*
X89621Y36059D01*
X88449Y37231D01*
X88449Y55278D01*
X88448Y55286D01*
X88449Y55295D01*
X88428Y55383D01*
X88410Y55473D01*
X88405Y55480D01*
X88403Y55488D01*
X88349Y55561D01*
X88297Y55637D01*
X88290Y55641D01*
X88285Y55648D01*
X88207Y55695D01*
X88130Y55744D01*
X88121Y55745D01*
X88114Y55750D01*
X87950Y55777D01*
X85853Y55777D01*
X85841Y55775D01*
X85829Y55777D01*
X85744Y55755D01*
X85658Y55738D01*
X85648Y55731D01*
X85636Y55727D01*
X85500Y55631D01*
X84178Y54309D01*
X79622Y54309D01*
X76399Y57532D01*
X76399Y62088D01*
X79622Y65311D01*
X84178Y65311D01*
X85500Y63989D01*
X85511Y63982D01*
X85518Y63972D01*
X85593Y63927D01*
X85666Y63879D01*
X85678Y63877D01*
X85689Y63870D01*
X85853Y63843D01*
X89196Y63843D01*
X89209Y63845D01*
X89221Y63843D01*
X89306Y63865D01*
X89391Y63882D01*
X89402Y63889D01*
X89414Y63893D01*
X89550Y63989D01*
X89621Y64061D01*
X105779Y64061D01*
X106951Y62889D01*
X106951Y51342D01*
X106952Y51334D01*
X106951Y51325D01*
X106972Y51237D01*
X106990Y51147D01*
X106995Y51140D01*
X106997Y51132D01*
X107051Y51059D01*
X107103Y50983D01*
X107110Y50979D01*
X107115Y50972D01*
X107193Y50925D01*
X107270Y50876D01*
X107279Y50875D01*
X107286Y50870D01*
X107450Y50843D01*
X118320Y50843D01*
X120683Y48480D01*
X120683Y45763D01*
X120685Y45751D01*
X120683Y45739D01*
X120705Y45654D01*
X120722Y45568D01*
X120729Y45558D01*
X120733Y45546D01*
X120829Y45410D01*
X122151Y44088D01*
X122151Y39532D01*
X118928Y36309D01*
X114372Y36309D01*
X111149Y39532D01*
X111149Y42278D01*
X111148Y42286D01*
X111149Y42295D01*
X111128Y42383D01*
X111110Y42473D01*
X111105Y42480D01*
X111103Y42488D01*
X111049Y42561D01*
X110997Y42637D01*
X110990Y42641D01*
X110985Y42648D01*
X110907Y42695D01*
X110830Y42744D01*
X110821Y42745D01*
X110814Y42750D01*
X110650Y42777D01*
X107450Y42777D01*
X107442Y42776D01*
X107433Y42777D01*
X107345Y42756D01*
X107255Y42738D01*
X107248Y42733D01*
X107240Y42731D01*
X107167Y42677D01*
X107091Y42625D01*
X107087Y42618D01*
X107080Y42613D01*
X107033Y42535D01*
X106984Y42458D01*
X106983Y42449D01*
X106978Y42442D01*
X106951Y42278D01*
X106951Y37231D01*
X105779Y36059D01*
X102232Y36059D01*
X102224Y36058D01*
X102215Y36059D01*
X102127Y36038D01*
X102037Y36020D01*
X102030Y36015D01*
X102022Y36013D01*
X101949Y35959D01*
X101873Y35907D01*
X101869Y35900D01*
X101862Y35895D01*
X101815Y35817D01*
X101766Y35740D01*
X101765Y35731D01*
X101760Y35724D01*
X101733Y35560D01*
X101733Y33877D01*
X101734Y33873D01*
X101733Y33869D01*
X101753Y33776D01*
X101772Y33683D01*
X101775Y33679D01*
X101776Y33675D01*
X101831Y33597D01*
X101885Y33519D01*
X101888Y33516D01*
X101891Y33513D01*
X101973Y33463D01*
X102052Y33412D01*
X102057Y33411D01*
X102060Y33409D01*
X102154Y33394D01*
X102249Y33379D01*
X102253Y33379D01*
X102257Y33379D01*
X102349Y33402D01*
X102442Y33425D01*
X102445Y33427D01*
X102449Y33428D01*
X102585Y33524D01*
X103171Y34111D01*
X117829Y34111D01*
X119001Y32939D01*
X119001Y16281D01*
X117829Y15109D01*
X114639Y15109D01*
X114635Y15108D01*
X114631Y15109D01*
X114538Y15089D01*
X114444Y15070D01*
X114441Y15067D01*
X114436Y15066D01*
X114359Y15011D01*
X114280Y14957D01*
X114278Y14954D01*
X114274Y14951D01*
X114224Y14870D01*
X114173Y14790D01*
X114172Y14785D01*
X114170Y14782D01*
X114156Y14688D01*
X114140Y14593D01*
X114141Y14589D01*
X114140Y14585D01*
X114164Y14493D01*
X114186Y14400D01*
X114188Y14397D01*
X114190Y14393D01*
X114286Y14257D01*
X114692Y13851D01*
X115353Y12861D01*
X115809Y11762D01*
X115960Y10999D01*
X110500Y10999D01*
X110492Y10998D01*
X110484Y10999D01*
X110395Y10978D01*
X110305Y10960D01*
X110298Y10955D01*
X110290Y10953D01*
X110217Y10899D01*
X110141Y10847D01*
X110137Y10840D01*
X110130Y10835D01*
X110084Y10757D01*
X110034Y10680D01*
X110033Y10671D01*
X110029Y10664D01*
X110001Y10500D01*
X110001Y9500D01*
X110003Y9492D01*
X110001Y9483D01*
X110022Y9395D01*
X110040Y9305D01*
X110045Y9298D01*
X110047Y9290D01*
X110101Y9217D01*
X110153Y9141D01*
X110160Y9137D01*
X110165Y9130D01*
X110243Y9083D01*
X110321Y9034D01*
X110329Y9033D01*
X110336Y9028D01*
X110500Y9001D01*
X115960Y9001D01*
X115809Y8238D01*
X115353Y7139D01*
X114692Y6149D01*
X113851Y5308D01*
X113577Y5125D01*
X113540Y5087D01*
X113496Y5057D01*
X113470Y5017D01*
X113437Y4984D01*
X113417Y4934D01*
X113389Y4890D01*
X113381Y4843D01*
X113363Y4799D01*
X113364Y4746D01*
X113356Y4693D01*
X113367Y4648D01*
X113367Y4601D01*
X113389Y4552D01*
X113402Y4500D01*
X113430Y4462D01*
X113449Y4419D01*
X113488Y4383D01*
X113520Y4340D01*
X113560Y4316D01*
X113595Y4284D01*
X113645Y4266D01*
X113691Y4238D01*
X113745Y4229D01*
X113782Y4216D01*
X113813Y4218D01*
X113855Y4211D01*
X126145Y4211D01*
X126198Y4221D01*
X126251Y4222D01*
X126294Y4241D01*
X126340Y4250D01*
X126384Y4281D01*
X126433Y4302D01*
X126465Y4336D01*
X126504Y4363D01*
X126533Y4408D01*
X126570Y4447D01*
X126586Y4491D01*
X126611Y4530D01*
X126620Y4583D01*
X126639Y4633D01*
X126637Y4680D01*
X126644Y4727D01*
X126632Y4778D01*
X126630Y4832D01*
X126609Y4874D01*
X126598Y4920D01*
X126567Y4963D01*
X126544Y5011D01*
X126503Y5049D01*
X126480Y5080D01*
X126454Y5096D01*
X126423Y5125D01*
X126149Y5308D01*
X125308Y6149D01*
X124647Y7139D01*
X124191Y8238D01*
X124040Y9001D01*
X129500Y9001D01*
X129508Y9002D01*
X129516Y9001D01*
X129605Y9022D01*
X129695Y9040D01*
X129702Y9045D01*
X129710Y9047D01*
X129783Y9101D01*
X129859Y9153D01*
X129863Y9160D01*
X129870Y9165D01*
X129916Y9243D01*
X129966Y9320D01*
X129967Y9329D01*
X129971Y9336D01*
X129999Y9500D01*
X129999Y10500D01*
X129997Y10508D01*
X129999Y10516D01*
X129978Y10605D01*
X129960Y10695D01*
X129955Y10702D01*
X129953Y10710D01*
X129899Y10783D01*
X129847Y10859D01*
X129840Y10863D01*
X129835Y10870D01*
X129757Y10916D01*
X129679Y10966D01*
X129671Y10967D01*
X129664Y10971D01*
X129500Y10999D01*
X124040Y10999D01*
X124191Y11762D01*
X124647Y12861D01*
X125308Y13851D01*
X125714Y14257D01*
X125716Y14260D01*
X125720Y14263D01*
X125771Y14343D01*
X125824Y14423D01*
X125825Y14427D01*
X125827Y14430D01*
X125843Y14524D01*
X125860Y14618D01*
X125859Y14622D01*
X125860Y14627D01*
X125838Y14718D01*
X125817Y14812D01*
X125815Y14816D01*
X125814Y14820D01*
X125758Y14896D01*
X125702Y14975D01*
X125699Y14977D01*
X125696Y14980D01*
X125615Y15028D01*
X125533Y15079D01*
X125529Y15079D01*
X125525Y15082D01*
X125361Y15109D01*
X122171Y15109D01*
X120999Y16281D01*
X120999Y32939D01*
X122171Y34111D01*
X124968Y34111D01*
X124976Y34112D01*
X124985Y34111D01*
X125073Y34132D01*
X125163Y34150D01*
X125170Y34155D01*
X125178Y34157D01*
X125251Y34211D01*
X125327Y34263D01*
X125331Y34270D01*
X125338Y34275D01*
X125385Y34353D01*
X125434Y34430D01*
X125435Y34439D01*
X125440Y34446D01*
X125467Y34610D01*
X125467Y48480D01*
X127830Y50843D01*
X131950Y50843D01*
X131958Y50844D01*
X131967Y50843D01*
X132055Y50864D01*
X132145Y50882D01*
X132152Y50887D01*
X132160Y50889D01*
X132233Y50943D01*
X132309Y50995D01*
X132313Y51002D01*
X132320Y51007D01*
X132367Y51085D01*
X132416Y51162D01*
X132417Y51171D01*
X132422Y51178D01*
X132449Y51342D01*
X132449Y62889D01*
X133621Y64061D01*
X149779Y64061D01*
X150951Y62889D01*
X150951Y44842D01*
X150952Y44834D01*
X150951Y44825D01*
X150972Y44737D01*
X150990Y44647D01*
X150995Y44640D01*
X150997Y44632D01*
X151051Y44559D01*
X151103Y44483D01*
X151110Y44479D01*
X151115Y44472D01*
X151193Y44425D01*
X151270Y44376D01*
X151279Y44375D01*
X151286Y44370D01*
X151450Y44343D01*
X151670Y44343D01*
X154033Y41980D01*
X154033Y26953D01*
X154035Y26941D01*
X154033Y26929D01*
X154055Y26844D01*
X154072Y26758D01*
X154079Y26748D01*
X154083Y26736D01*
X154179Y26600D01*
X155501Y25278D01*
X155501Y20722D01*
X152278Y17499D01*
X147722Y17499D01*
X144499Y20722D01*
X144499Y25278D01*
X145821Y26600D01*
X145828Y26611D01*
X145838Y26618D01*
X145883Y26693D01*
X145931Y26766D01*
X145933Y26778D01*
X145940Y26789D01*
X145967Y26953D01*
X145967Y35560D01*
X145966Y35568D01*
X145967Y35577D01*
X145946Y35665D01*
X145928Y35755D01*
X145923Y35762D01*
X145921Y35770D01*
X145867Y35843D01*
X145815Y35919D01*
X145808Y35923D01*
X145803Y35930D01*
X145725Y35977D01*
X145648Y36026D01*
X145639Y36027D01*
X145632Y36032D01*
X145468Y36059D01*
X134032Y36059D01*
X134024Y36058D01*
X134015Y36059D01*
X133927Y36038D01*
X133837Y36020D01*
X133830Y36015D01*
X133822Y36013D01*
X133749Y35959D01*
X133673Y35907D01*
X133669Y35900D01*
X133662Y35895D01*
X133615Y35817D01*
X133566Y35740D01*
X133565Y35731D01*
X133560Y35724D01*
X133533Y35560D01*
X133533Y34610D01*
X133534Y34602D01*
X133533Y34593D01*
X133554Y34505D01*
X133572Y34415D01*
X133577Y34408D01*
X133579Y34400D01*
X133633Y34327D01*
X133685Y34251D01*
X133692Y34247D01*
X133697Y34240D01*
X133775Y34193D01*
X133852Y34144D01*
X133861Y34143D01*
X133868Y34138D01*
X134032Y34111D01*
X136829Y34111D01*
X138001Y32939D01*
X138001Y16281D01*
X136829Y15109D01*
X134639Y15109D01*
X134635Y15108D01*
X134631Y15109D01*
X134538Y15089D01*
X134444Y15070D01*
X134441Y15067D01*
X134436Y15066D01*
X134359Y15011D01*
X134280Y14957D01*
X134278Y14954D01*
X134274Y14951D01*
X134224Y14870D01*
X134173Y14790D01*
X134172Y14785D01*
X134170Y14782D01*
X134156Y14688D01*
X134140Y14593D01*
X134141Y14589D01*
X134140Y14585D01*
X134164Y14493D01*
X134186Y14400D01*
X134188Y14397D01*
X134190Y14393D01*
X134286Y14257D01*
X134692Y13851D01*
X135353Y12861D01*
X135809Y11762D01*
X135960Y10999D01*
X130500Y10999D01*
X130492Y10998D01*
X130484Y10999D01*
X130395Y10978D01*
X130305Y10960D01*
X130298Y10955D01*
X130290Y10953D01*
X130217Y10899D01*
X130141Y10847D01*
X130137Y10840D01*
X130130Y10835D01*
X130084Y10757D01*
X130034Y10680D01*
X130033Y10671D01*
X130029Y10664D01*
X130001Y10500D01*
X130001Y9500D01*
X130003Y9492D01*
X130001Y9483D01*
X130022Y9395D01*
X130040Y9305D01*
X130045Y9298D01*
X130047Y9290D01*
X130101Y9217D01*
X130153Y9141D01*
X130160Y9137D01*
X130165Y9130D01*
X130243Y9083D01*
X130321Y9034D01*
X130329Y9033D01*
X130336Y9028D01*
X130500Y9001D01*
X135960Y9001D01*
X135809Y8238D01*
X135353Y7139D01*
X134692Y6149D01*
X133851Y5308D01*
X133577Y5125D01*
X133540Y5087D01*
X133496Y5057D01*
X133470Y5017D01*
X133437Y4984D01*
X133417Y4934D01*
X133389Y4890D01*
X133381Y4843D01*
X133363Y4799D01*
X133364Y4746D01*
X133356Y4693D01*
X133367Y4648D01*
X133367Y4601D01*
X133389Y4552D01*
X133402Y4500D01*
X133430Y4462D01*
X133449Y4419D01*
X133488Y4383D01*
X133520Y4340D01*
X133560Y4316D01*
X133595Y4284D01*
X133645Y4266D01*
X133691Y4238D01*
X133745Y4229D01*
X133782Y4216D01*
X133813Y4218D01*
X133855Y4211D01*
X166145Y4211D01*
X166198Y4221D01*
X166251Y4222D01*
X166294Y4241D01*
X166340Y4250D01*
X166384Y4281D01*
X166433Y4302D01*
X166465Y4336D01*
X166504Y4363D01*
X166533Y4408D01*
X166570Y4447D01*
X166586Y4491D01*
X166611Y4530D01*
X166620Y4583D01*
X166639Y4633D01*
X166637Y4680D01*
X166644Y4727D01*
X166632Y4778D01*
X166630Y4832D01*
X166609Y4874D01*
X166598Y4920D01*
X166567Y4963D01*
X166544Y5011D01*
X166503Y5049D01*
X166480Y5080D01*
X166454Y5096D01*
X166423Y5125D01*
X166149Y5308D01*
X165308Y6149D01*
X164647Y7139D01*
X164191Y8238D01*
X164040Y9001D01*
X169500Y9001D01*
X169508Y9002D01*
X169516Y9001D01*
X169605Y9022D01*
X169695Y9040D01*
X169702Y9045D01*
X169710Y9047D01*
X169783Y9101D01*
X169859Y9153D01*
X169863Y9160D01*
X169870Y9165D01*
X169916Y9243D01*
X169966Y9320D01*
X169967Y9329D01*
X169971Y9336D01*
X169999Y9500D01*
X169999Y10001D01*
X170001Y10001D01*
X170001Y9500D01*
X170003Y9492D01*
X170001Y9483D01*
X170022Y9395D01*
X170040Y9305D01*
X170045Y9298D01*
X170047Y9290D01*
X170101Y9217D01*
X170153Y9141D01*
X170160Y9137D01*
X170165Y9130D01*
X170243Y9083D01*
X170321Y9034D01*
X170329Y9033D01*
X170336Y9028D01*
X170500Y9001D01*
X175960Y9001D01*
X175809Y8238D01*
X175353Y7139D01*
X174692Y6149D01*
X173851Y5308D01*
X173577Y5125D01*
X173540Y5087D01*
X173496Y5057D01*
X173470Y5017D01*
X173437Y4984D01*
X173417Y4934D01*
X173389Y4890D01*
X173381Y4843D01*
X173363Y4799D01*
X173364Y4746D01*
X173356Y4693D01*
X173367Y4648D01*
X173367Y4601D01*
X173389Y4552D01*
X173402Y4500D01*
X173430Y4462D01*
X173449Y4419D01*
X173488Y4383D01*
X173520Y4340D01*
X173560Y4316D01*
X173595Y4284D01*
X173645Y4266D01*
X173691Y4238D01*
X173745Y4229D01*
X173782Y4216D01*
X173813Y4218D01*
X173855Y4211D01*
X206145Y4211D01*
X206198Y4221D01*
X206251Y4222D01*
X206294Y4241D01*
X206340Y4250D01*
X206384Y4281D01*
X206433Y4302D01*
X206465Y4336D01*
X206504Y4363D01*
X206533Y4408D01*
X206570Y4447D01*
X206586Y4491D01*
X206611Y4530D01*
X206620Y4583D01*
X206639Y4633D01*
X206637Y4680D01*
X206644Y4727D01*
X206632Y4778D01*
X206630Y4832D01*
X206609Y4874D01*
X206598Y4920D01*
X206567Y4963D01*
X206544Y5011D01*
X206503Y5049D01*
X206480Y5080D01*
X206454Y5096D01*
X206423Y5125D01*
X206149Y5308D01*
X205308Y6149D01*
X204647Y7139D01*
X204191Y8238D01*
X204040Y9001D01*
X209500Y9001D01*
X209508Y9002D01*
X209516Y9001D01*
X209605Y9022D01*
X209695Y9040D01*
X209702Y9045D01*
X209710Y9047D01*
X209783Y9101D01*
X209859Y9153D01*
X209863Y9160D01*
X209870Y9165D01*
X209916Y9243D01*
X209966Y9320D01*
X209967Y9329D01*
X209971Y9336D01*
X209999Y9500D01*
X209999Y10001D01*
X210001Y10001D01*
X210001Y9500D01*
X210003Y9492D01*
X210001Y9483D01*
X210022Y9395D01*
X210040Y9305D01*
X210045Y9298D01*
X210047Y9290D01*
X210101Y9217D01*
X210153Y9141D01*
X210160Y9137D01*
X210165Y9130D01*
X210243Y9083D01*
X210321Y9034D01*
X210329Y9033D01*
X210336Y9028D01*
X210500Y9001D01*
X215960Y9001D01*
X215809Y8238D01*
X215353Y7139D01*
X214768Y6262D01*
X214755Y6231D01*
X214734Y6204D01*
X214718Y6140D01*
X214692Y6078D01*
X214693Y6044D01*
X214684Y6012D01*
X214694Y5946D01*
X214695Y5879D01*
X214708Y5848D01*
X214713Y5815D01*
X214748Y5758D01*
X214775Y5697D01*
X214799Y5674D01*
X214817Y5645D01*
X214871Y5606D01*
X214919Y5561D01*
X214951Y5549D01*
X214978Y5529D01*
X215043Y5515D01*
X215106Y5492D01*
X215139Y5493D01*
X215172Y5486D01*
X215260Y5499D01*
X215304Y5501D01*
X215318Y5507D01*
X215337Y5510D01*
X218089Y6404D01*
X218115Y6419D01*
X218228Y6475D01*
X223265Y10135D01*
X223285Y10157D01*
X223375Y10245D01*
X227035Y15282D01*
X227048Y15310D01*
X227106Y15421D01*
X229030Y21343D01*
X229035Y21386D01*
X229053Y21458D01*
X229298Y24571D01*
X229296Y24588D01*
X229299Y24610D01*
X229299Y44674D01*
X229288Y44728D01*
X229287Y44783D01*
X229269Y44824D01*
X229260Y44868D01*
X229228Y44914D01*
X229206Y44964D01*
X229173Y44995D01*
X229147Y45032D01*
X229101Y45062D01*
X229060Y45100D01*
X229018Y45115D01*
X228980Y45139D01*
X228925Y45149D01*
X228873Y45167D01*
X228828Y45165D01*
X228783Y45172D01*
X228730Y45160D01*
X228674Y45157D01*
X228626Y45135D01*
X228590Y45126D01*
X228564Y45107D01*
X228523Y45089D01*
X227861Y44647D01*
X226762Y44191D01*
X225999Y44040D01*
X225999Y49500D01*
X225998Y49508D01*
X225999Y49516D01*
X225978Y49605D01*
X225960Y49695D01*
X225955Y49702D01*
X225953Y49710D01*
X225899Y49783D01*
X225847Y49859D01*
X225840Y49863D01*
X225835Y49870D01*
X225757Y49916D01*
X225680Y49966D01*
X225671Y49967D01*
X225664Y49971D01*
X225500Y49999D01*
X224999Y49999D01*
X224999Y50001D01*
X225500Y50001D01*
X225508Y50003D01*
X225516Y50001D01*
X225605Y50022D01*
X225695Y50040D01*
X225702Y50045D01*
X225710Y50047D01*
X225783Y50101D01*
X225859Y50153D01*
X225863Y50160D01*
X225870Y50165D01*
X225916Y50243D01*
X225966Y50321D01*
X225967Y50329D01*
X225971Y50336D01*
X225999Y50500D01*
X225999Y55960D01*
X226762Y55809D01*
X227861Y55353D01*
X228523Y54911D01*
X228574Y54890D01*
X228620Y54861D01*
X228665Y54853D01*
X228707Y54836D01*
X228762Y54837D01*
X228817Y54828D01*
X228860Y54838D01*
X228905Y54839D01*
X228956Y54861D01*
X229010Y54874D01*
X229046Y54900D01*
X229088Y54918D01*
X229126Y54959D01*
X229170Y54991D01*
X229193Y55030D01*
X229224Y55063D01*
X229243Y55115D01*
X229272Y55162D01*
X229280Y55215D01*
X229293Y55249D01*
X229292Y55282D01*
X229299Y55326D01*
X229299Y75410D01*
X229296Y75427D01*
X229298Y75449D01*
X229053Y78562D01*
X229041Y78605D01*
X229030Y78677D01*
X227106Y84599D01*
X227091Y84625D01*
X227035Y84738D01*
X223375Y89775D01*
X223353Y89795D01*
X223265Y89885D01*
X218228Y93545D01*
X218200Y93558D01*
X218089Y93616D01*
X215320Y94515D01*
X215286Y94519D01*
X215255Y94532D01*
X215188Y94531D01*
X215122Y94538D01*
X215090Y94528D01*
X215056Y94528D01*
X214995Y94501D01*
X214932Y94482D01*
X214906Y94460D01*
X214875Y94446D01*
X214829Y94398D01*
X214778Y94355D01*
X214762Y94325D01*
X214739Y94301D01*
X214717Y94238D01*
X214686Y94179D01*
X214683Y94145D01*
X214672Y94114D01*
X214675Y94047D01*
X214670Y93981D01*
X214681Y93949D01*
X214682Y93915D01*
X214719Y93835D01*
X214733Y93792D01*
X214743Y93781D01*
X214751Y93763D01*
X215353Y92861D01*
X215809Y91762D01*
X215960Y90999D01*
X210500Y90999D01*
X210492Y90998D01*
X210484Y90999D01*
X210395Y90978D01*
X210305Y90960D01*
X210298Y90955D01*
X210290Y90953D01*
X210217Y90899D01*
X210141Y90847D01*
X210137Y90840D01*
X210130Y90835D01*
X210084Y90757D01*
X210034Y90680D01*
X210033Y90671D01*
X210029Y90664D01*
X210001Y90500D01*
X210001Y89999D01*
X209999Y89999D01*
X209999Y90500D01*
X209997Y90508D01*
X209999Y90516D01*
X209978Y90605D01*
X209960Y90695D01*
X209955Y90702D01*
X209953Y90710D01*
X209899Y90783D01*
X209847Y90859D01*
X209840Y90863D01*
X209835Y90870D01*
X209757Y90916D01*
X209679Y90966D01*
X209671Y90967D01*
X209664Y90971D01*
X209500Y90999D01*
X204040Y90999D01*
X204191Y91762D01*
X204647Y92861D01*
X205308Y93851D01*
X206149Y94692D01*
X206453Y94895D01*
X206490Y94933D01*
X206534Y94963D01*
X206560Y95003D01*
X206593Y95036D01*
X206613Y95086D01*
X206641Y95130D01*
X206649Y95177D01*
X206667Y95221D01*
X206665Y95274D01*
X206674Y95327D01*
X206663Y95372D01*
X206662Y95419D01*
X206641Y95468D01*
X206628Y95520D01*
X206600Y95558D01*
X206581Y95601D01*
X206542Y95637D01*
X206510Y95680D01*
X206470Y95704D01*
X206435Y95736D01*
X206385Y95754D01*
X206339Y95782D01*
X206285Y95791D01*
X206248Y95804D01*
X206217Y95802D01*
X206175Y95809D01*
X173825Y95809D01*
X173772Y95799D01*
X173719Y95798D01*
X173676Y95779D01*
X173630Y95770D01*
X173586Y95739D01*
X173537Y95718D01*
X173505Y95684D01*
X173466Y95657D01*
X173437Y95612D01*
X173401Y95573D01*
X173384Y95529D01*
X173359Y95490D01*
X173350Y95437D01*
X173331Y95387D01*
X173334Y95340D01*
X173326Y95293D01*
X173338Y95242D01*
X173340Y95188D01*
X173361Y95146D01*
X173372Y95100D01*
X173403Y95057D01*
X173426Y95009D01*
X173467Y94971D01*
X173490Y94940D01*
X173516Y94924D01*
X173547Y94895D01*
X173851Y94692D01*
X174692Y93851D01*
X175353Y92861D01*
X175809Y91762D01*
X175960Y90999D01*
X170500Y90999D01*
X170492Y90998D01*
X170484Y90999D01*
X170395Y90978D01*
X170305Y90960D01*
X170298Y90955D01*
X170290Y90953D01*
X170217Y90899D01*
X170141Y90847D01*
X170137Y90840D01*
X170130Y90835D01*
X170084Y90757D01*
X170034Y90680D01*
X170033Y90671D01*
X170029Y90664D01*
X170001Y90500D01*
X170001Y89999D01*
X169999Y89999D01*
X169999Y90500D01*
X169997Y90508D01*
X169999Y90516D01*
X169978Y90605D01*
X169960Y90695D01*
X169955Y90702D01*
X169953Y90710D01*
X169899Y90783D01*
X169847Y90859D01*
X169840Y90863D01*
X169835Y90870D01*
X169757Y90916D01*
X169679Y90966D01*
X169671Y90967D01*
X169664Y90971D01*
X169500Y90999D01*
X164040Y90999D01*
X164191Y91762D01*
X164647Y92861D01*
X165308Y93851D01*
X166149Y94692D01*
X166453Y94895D01*
X166490Y94933D01*
X166534Y94963D01*
X166560Y95003D01*
X166593Y95036D01*
X166612Y95086D01*
X166641Y95130D01*
X166649Y95177D01*
X166667Y95221D01*
X166665Y95274D01*
X166674Y95327D01*
X166663Y95372D01*
X166662Y95420D01*
X166641Y95468D01*
X166628Y95520D01*
X166600Y95558D01*
X166581Y95601D01*
X166542Y95637D01*
X166510Y95680D01*
X166470Y95704D01*
X166435Y95736D01*
X166385Y95754D01*
X166339Y95782D01*
X166284Y95791D01*
X166248Y95804D01*
X166217Y95802D01*
X166175Y95809D01*
X133825Y95809D01*
X133772Y95799D01*
X133719Y95798D01*
X133676Y95779D01*
X133630Y95770D01*
X133586Y95739D01*
X133537Y95718D01*
X133505Y95684D01*
X133466Y95657D01*
X133437Y95612D01*
X133401Y95573D01*
X133384Y95529D01*
X133359Y95490D01*
X133350Y95437D01*
X133331Y95387D01*
X133334Y95340D01*
X133326Y95293D01*
X133338Y95242D01*
X133340Y95188D01*
X133361Y95146D01*
X133372Y95100D01*
X133403Y95057D01*
X133426Y95009D01*
X133467Y94971D01*
X133490Y94940D01*
X133516Y94924D01*
X133547Y94895D01*
X133851Y94692D01*
X134692Y93851D01*
X135353Y92861D01*
X135809Y91762D01*
X135960Y90999D01*
X130500Y90999D01*
X130492Y90998D01*
X130484Y90999D01*
X130395Y90978D01*
X130305Y90960D01*
X130298Y90955D01*
X130290Y90953D01*
X130217Y90899D01*
X130141Y90847D01*
X130137Y90840D01*
X130130Y90835D01*
X130084Y90757D01*
X130034Y90680D01*
X130033Y90671D01*
X130029Y90664D01*
X130001Y90500D01*
X130001Y89999D01*
X129999Y89999D01*
X129999Y90500D01*
X129997Y90508D01*
X129999Y90516D01*
X129978Y90605D01*
X129960Y90695D01*
X129955Y90702D01*
X129953Y90710D01*
X129899Y90783D01*
X129847Y90859D01*
X129840Y90863D01*
X129835Y90870D01*
X129757Y90916D01*
X129679Y90966D01*
X129671Y90967D01*
X129664Y90971D01*
X129500Y90999D01*
X124040Y90999D01*
X124191Y91762D01*
X124647Y92861D01*
X125308Y93851D01*
X126149Y94692D01*
X126453Y94895D01*
X126490Y94933D01*
X126534Y94963D01*
X126560Y95003D01*
X126593Y95036D01*
X126613Y95086D01*
X126641Y95130D01*
X126649Y95177D01*
X126667Y95221D01*
X126665Y95274D01*
X126674Y95327D01*
X126663Y95372D01*
X126662Y95419D01*
X126641Y95468D01*
X126628Y95520D01*
X126600Y95558D01*
X126581Y95601D01*
X126542Y95637D01*
X126510Y95680D01*
X126470Y95704D01*
X126435Y95736D01*
X126385Y95754D01*
X126339Y95782D01*
X126285Y95791D01*
X126248Y95804D01*
X126217Y95802D01*
X126175Y95809D01*
X113825Y95809D01*
X113772Y95799D01*
X113719Y95798D01*
X113676Y95779D01*
X113630Y95770D01*
X113586Y95739D01*
X113537Y95718D01*
X113505Y95684D01*
X113466Y95657D01*
X113437Y95612D01*
X113401Y95573D01*
X113384Y95529D01*
X113359Y95490D01*
X113350Y95437D01*
X113331Y95387D01*
X113334Y95340D01*
X113326Y95293D01*
X113338Y95242D01*
X113340Y95188D01*
X113361Y95146D01*
X113372Y95100D01*
X113403Y95057D01*
X113426Y95009D01*
X113467Y94971D01*
X113490Y94940D01*
X113516Y94924D01*
X113547Y94895D01*
X113851Y94692D01*
X114692Y93851D01*
X115353Y92861D01*
X115809Y91762D01*
X115960Y90999D01*
X110500Y90999D01*
X110492Y90998D01*
X110484Y90999D01*
X110395Y90978D01*
X110305Y90960D01*
X110298Y90955D01*
X110290Y90953D01*
X110217Y90899D01*
X110141Y90847D01*
X110137Y90840D01*
X110130Y90835D01*
X110084Y90757D01*
X110034Y90680D01*
X110033Y90671D01*
X110029Y90664D01*
X110001Y90500D01*
X110001Y89999D01*
X109999Y89999D01*
X109999Y90500D01*
X109997Y90508D01*
X109999Y90516D01*
X109978Y90605D01*
X109960Y90695D01*
X109955Y90702D01*
X109953Y90710D01*
X109899Y90783D01*
X109847Y90859D01*
X109840Y90863D01*
X109835Y90870D01*
X109757Y90916D01*
X109679Y90966D01*
X109671Y90967D01*
X109664Y90971D01*
X109500Y90999D01*
X104040Y90999D01*
X104191Y91762D01*
X104647Y92861D01*
X105308Y93851D01*
X106149Y94692D01*
X106453Y94895D01*
X106490Y94933D01*
X106534Y94963D01*
X106560Y95003D01*
X106593Y95036D01*
X106613Y95086D01*
X106641Y95130D01*
X106649Y95177D01*
X106667Y95221D01*
X106665Y95274D01*
X106674Y95327D01*
X106663Y95372D01*
X106662Y95419D01*
X106641Y95468D01*
X106628Y95520D01*
X106600Y95558D01*
X106581Y95601D01*
X106542Y95637D01*
X106510Y95680D01*
X106470Y95704D01*
X106435Y95736D01*
X106385Y95754D01*
X106339Y95782D01*
X106285Y95791D01*
X106248Y95804D01*
X106217Y95802D01*
X106175Y95809D01*
X73825Y95809D01*
X73772Y95799D01*
X73719Y95798D01*
X73676Y95779D01*
X73630Y95770D01*
X73586Y95739D01*
X73537Y95718D01*
X73505Y95684D01*
X73466Y95657D01*
X73437Y95612D01*
X73401Y95573D01*
X73384Y95529D01*
X73359Y95490D01*
X73350Y95437D01*
X73331Y95387D01*
X73334Y95340D01*
X73326Y95293D01*
X73338Y95242D01*
X73340Y95188D01*
X73361Y95146D01*
X73372Y95100D01*
X73403Y95057D01*
X73426Y95009D01*
X73467Y94971D01*
X73490Y94940D01*
X73516Y94924D01*
X73547Y94895D01*
X73851Y94692D01*
X74692Y93851D01*
X75353Y92861D01*
X75809Y91762D01*
X75960Y90999D01*
X70500Y90999D01*
X70492Y90998D01*
X70484Y90999D01*
X70395Y90978D01*
X70305Y90960D01*
X70298Y90955D01*
X70290Y90953D01*
X70217Y90899D01*
X70141Y90847D01*
X70137Y90840D01*
X70130Y90835D01*
X70084Y90757D01*
X70034Y90680D01*
X70033Y90671D01*
X70029Y90664D01*
X70001Y90500D01*
X70001Y89999D01*
X69999Y89999D01*
X69999Y90500D01*
X69997Y90508D01*
X69999Y90516D01*
X69978Y90605D01*
X69960Y90695D01*
X69955Y90702D01*
X69953Y90710D01*
X69899Y90783D01*
X69847Y90859D01*
X69840Y90863D01*
X69835Y90870D01*
X69757Y90916D01*
X69679Y90966D01*
X69671Y90967D01*
X69664Y90971D01*
X69500Y90999D01*
X64040Y90999D01*
X64191Y91762D01*
X64647Y92861D01*
X65308Y93851D01*
X66149Y94692D01*
X66453Y94895D01*
X66490Y94933D01*
X66534Y94963D01*
X66560Y95003D01*
X66593Y95036D01*
X66613Y95086D01*
X66641Y95130D01*
X66649Y95177D01*
X66667Y95221D01*
X66665Y95274D01*
X66674Y95327D01*
X66663Y95372D01*
X66662Y95419D01*
X66641Y95468D01*
X66628Y95520D01*
X66600Y95558D01*
X66581Y95601D01*
X66542Y95637D01*
X66510Y95680D01*
X66470Y95704D01*
X66435Y95736D01*
X66385Y95754D01*
X66339Y95782D01*
X66285Y95791D01*
X66248Y95804D01*
X66217Y95802D01*
X66175Y95809D01*
X33825Y95809D01*
X33772Y95799D01*
X33719Y95798D01*
X33676Y95779D01*
X33630Y95770D01*
X33586Y95739D01*
X33537Y95718D01*
X33505Y95684D01*
X33466Y95657D01*
X33437Y95612D01*
X33401Y95573D01*
X33384Y95529D01*
X33359Y95490D01*
X33350Y95437D01*
X33331Y95387D01*
X33334Y95340D01*
X33326Y95293D01*
X33338Y95242D01*
X33340Y95188D01*
X33361Y95146D01*
X33372Y95100D01*
X33403Y95057D01*
X33426Y95009D01*
X33467Y94971D01*
X33490Y94940D01*
X33516Y94924D01*
X33547Y94895D01*
X33851Y94692D01*
X34692Y93851D01*
X35353Y92861D01*
X35809Y91762D01*
X35960Y90999D01*
X30500Y90999D01*
X30492Y90998D01*
X30484Y90999D01*
X30395Y90978D01*
X30305Y90960D01*
X30298Y90955D01*
X30290Y90953D01*
X30217Y90899D01*
X30141Y90847D01*
X30137Y90840D01*
X30130Y90835D01*
X30084Y90757D01*
X30034Y90680D01*
X30033Y90671D01*
X30029Y90664D01*
X30001Y90500D01*
X30001Y89999D01*
X29999Y89999D01*
X29999Y90500D01*
X29997Y90508D01*
X29999Y90516D01*
X29978Y90605D01*
X29960Y90695D01*
X29955Y90702D01*
X29953Y90710D01*
X29899Y90783D01*
X29847Y90859D01*
X29840Y90863D01*
X29835Y90870D01*
X29757Y90916D01*
X29679Y90966D01*
X29671Y90967D01*
X29664Y90971D01*
X29500Y90999D01*
X24040Y90999D01*
X24191Y91762D01*
X24647Y92861D01*
X25249Y93763D01*
X25262Y93795D01*
X25283Y93821D01*
X25300Y93886D01*
X25325Y93947D01*
X25324Y93981D01*
X25333Y94014D01*
X25323Y94080D01*
X25322Y94146D01*
X25309Y94177D01*
X25304Y94211D01*
X25269Y94267D01*
X25242Y94328D01*
X25218Y94351D01*
X25200Y94380D01*
X25146Y94419D01*
X25098Y94465D01*
X25066Y94477D01*
X25039Y94496D01*
X24974Y94511D01*
X24911Y94534D01*
X24878Y94532D01*
X24845Y94540D01*
X24757Y94527D01*
X24713Y94525D01*
X24699Y94518D01*
X24680Y94515D01*
X21911Y93616D01*
X21885Y93601D01*
X21772Y93545D01*
X16735Y89885D01*
X16715Y89863D01*
X16625Y89775D01*
X12965Y84738D01*
X12952Y84710D01*
X12894Y84599D01*
X10970Y78677D01*
X10965Y78634D01*
X10947Y78562D01*
X10702Y75449D01*
X10704Y75432D01*
X10701Y75410D01*
X10701Y55326D01*
X10712Y55272D01*
X10713Y55217D01*
X10731Y55176D01*
X10740Y55132D01*
X10772Y55086D01*
X10794Y55036D01*
X10827Y55005D01*
X10853Y54968D01*
X10899Y54938D01*
X10940Y54900D01*
X10982Y54885D01*
X11020Y54861D01*
X11075Y54851D01*
X11127Y54833D01*
X11172Y54835D01*
X11217Y54828D01*
X11270Y54840D01*
X11326Y54843D01*
X11374Y54865D01*
X11410Y54874D01*
X11436Y54893D01*
X11477Y54911D01*
X12139Y55353D01*
X13238Y55809D01*
X14001Y55960D01*
X14001Y50500D01*
X14002Y50492D01*
X14001Y50484D01*
X14022Y50395D01*
X14040Y50305D01*
X14045Y50298D01*
X14047Y50290D01*
X14101Y50217D01*
X14153Y50141D01*
X14160Y50137D01*
X14165Y50130D01*
X14243Y50084D01*
X14320Y50034D01*
X14329Y50033D01*
X14336Y50029D01*
X14500Y50001D01*
X15001Y50001D01*
X15001Y49999D01*
X14500Y49999D01*
X14492Y49997D01*
X14483Y49999D01*
X14395Y49978D01*
X14305Y49960D01*
X14298Y49955D01*
X14290Y49953D01*
X14217Y49899D01*
X14141Y49847D01*
X14137Y49840D01*
X14130Y49835D01*
X14083Y49757D01*
X14034Y49679D01*
X14033Y49671D01*
X14028Y49664D01*
X14001Y49500D01*
X14001Y44040D01*
X13238Y44191D01*
X12139Y44647D01*
X11477Y45089D01*
X11426Y45110D01*
X11380Y45139D01*
X11335Y45147D01*
X11293Y45164D01*
X11238Y45163D01*
X11183Y45172D01*
X11140Y45162D01*
X11095Y45161D01*
X11044Y45139D01*
X10990Y45126D01*
X10954Y45100D01*
X10912Y45082D01*
X10874Y45041D01*
X10830Y45009D01*
X10807Y44970D01*
X10776Y44937D01*
X10757Y44885D01*
X10728Y44838D01*
X10720Y44785D01*
X10707Y44751D01*
X10708Y44718D01*
X10701Y44674D01*
X10701Y24610D01*
X10704Y24593D01*
X10702Y24571D01*
X10947Y21458D01*
X10959Y21415D01*
X10970Y21343D01*
X12894Y15421D01*
X12909Y15395D01*
X12965Y15282D01*
X16625Y10245D01*
X16647Y10225D01*
X16735Y10135D01*
X21772Y6475D01*
X21800Y6462D01*
X21911Y6404D01*
X24663Y5510D01*
X24697Y5506D01*
X24728Y5494D01*
X24794Y5495D01*
X24861Y5487D01*
X24893Y5497D01*
X24927Y5498D01*
X24987Y5525D01*
X25051Y5544D01*
X25077Y5565D01*
X25108Y5579D01*
X25153Y5628D01*
X25205Y5670D01*
X25220Y5700D01*
X25243Y5725D01*
X25266Y5787D01*
X25297Y5846D01*
X25300Y5880D01*
X25311Y5912D01*
X25308Y5978D01*
X25313Y6045D01*
X25302Y6077D01*
X25300Y6110D01*
X25264Y6191D01*
X25250Y6233D01*
X25240Y6245D01*
X25232Y6262D01*
X24647Y7139D01*
X24191Y8238D01*
X24040Y9001D01*
X29500Y9001D01*
X29508Y9002D01*
X29516Y9001D01*
X29605Y9022D01*
X29695Y9040D01*
X29702Y9045D01*
X29710Y9047D01*
X29783Y9101D01*
X29859Y9153D01*
X29863Y9160D01*
X29870Y9165D01*
X29916Y9243D01*
X29966Y9320D01*
X29967Y9329D01*
X29971Y9336D01*
X29999Y9500D01*
X29999Y10001D01*
X30001Y10001D01*
X30001Y9500D01*
X30003Y9492D01*
X30001Y9483D01*
X30022Y9395D01*
X30040Y9305D01*
X30045Y9298D01*
X30047Y9290D01*
X30101Y9217D01*
X30153Y9141D01*
X30160Y9137D01*
X30165Y9130D01*
X30243Y9083D01*
X30321Y9034D01*
X30329Y9033D01*
X30336Y9028D01*
X30500Y9001D01*
X35960Y9001D01*
X35809Y8238D01*
X35353Y7139D01*
X34692Y6149D01*
X33851Y5308D01*
X33577Y5125D01*
X33540Y5087D01*
X33496Y5057D01*
X33470Y5017D01*
X33437Y4984D01*
X33417Y4934D01*
X33389Y4890D01*
X33381Y4843D01*
X33363Y4799D01*
X33364Y4746D01*
X33356Y4693D01*
X33367Y4648D01*
X33367Y4601D01*
X33389Y4552D01*
X33402Y4500D01*
X33430Y4462D01*
X33449Y4419D01*
X33488Y4383D01*
X33520Y4340D01*
X33560Y4316D01*
X33595Y4284D01*
X33645Y4266D01*
X33691Y4238D01*
X33745Y4229D01*
X33782Y4216D01*
X33813Y4218D01*
X33855Y4211D01*
X66145Y4211D01*
X66198Y4221D01*
G37*
%LPC*%
G36*
X15999Y50999D02*
X15999Y50999D01*
X15999Y56378D01*
X15997Y56391D01*
X15999Y56403D01*
X15977Y56487D01*
X15960Y56573D01*
X15952Y56584D01*
X15949Y56596D01*
X15853Y56731D01*
X15324Y57260D01*
X13859Y60796D01*
X13859Y64624D01*
X15324Y68160D01*
X18030Y70866D01*
X21566Y72331D01*
X40634Y72331D01*
X44170Y70866D01*
X46876Y68160D01*
X48341Y64624D01*
X48341Y60796D01*
X46876Y57260D01*
X44170Y54554D01*
X40634Y53089D01*
X21566Y53089D01*
X21102Y53282D01*
X21097Y53283D01*
X21094Y53285D01*
X21000Y53302D01*
X20906Y53320D01*
X20902Y53319D01*
X20898Y53320D01*
X20805Y53298D01*
X20712Y53279D01*
X20708Y53276D01*
X20704Y53275D01*
X20627Y53219D01*
X20549Y53165D01*
X20547Y53161D01*
X20543Y53159D01*
X20494Y53077D01*
X20443Y52996D01*
X20443Y52992D01*
X20440Y52988D01*
X20427Y52894D01*
X20412Y52800D01*
X20413Y52796D01*
X20412Y52792D01*
X20449Y52629D01*
X20809Y51762D01*
X20960Y50999D01*
X15999Y50999D01*
G37*
%LPD*%
%LPC*%
G36*
X219040Y50999D02*
X219040Y50999D01*
X219191Y51762D01*
X219551Y52629D01*
X219552Y52634D01*
X219554Y52637D01*
X219570Y52731D01*
X219589Y52825D01*
X219588Y52829D01*
X219589Y52833D01*
X219567Y52926D01*
X219547Y53019D01*
X219545Y53023D01*
X219544Y53027D01*
X219489Y53103D01*
X219434Y53182D01*
X219430Y53184D01*
X219428Y53188D01*
X219346Y53237D01*
X219265Y53288D01*
X219261Y53288D01*
X219257Y53291D01*
X219163Y53304D01*
X219069Y53319D01*
X219065Y53318D01*
X219061Y53319D01*
X218898Y53282D01*
X218434Y53089D01*
X199366Y53089D01*
X195830Y54554D01*
X193124Y57260D01*
X191659Y60796D01*
X191659Y64624D01*
X193124Y68160D01*
X195830Y70866D01*
X199366Y72331D01*
X218434Y72331D01*
X221970Y70866D01*
X224676Y68160D01*
X226141Y64624D01*
X226141Y60796D01*
X224676Y57260D01*
X224147Y56731D01*
X224140Y56721D01*
X224130Y56713D01*
X224085Y56638D01*
X224037Y56565D01*
X224035Y56553D01*
X224028Y56542D01*
X224001Y56378D01*
X224001Y50999D01*
X219040Y50999D01*
G37*
%LPD*%
%LPC*%
G36*
X209899Y38309D02*
X209899Y38309D01*
X209899Y47471D01*
X217320Y47471D01*
X218782Y47239D01*
X218828Y47241D01*
X218873Y47233D01*
X218926Y47245D01*
X218981Y47248D01*
X219022Y47267D01*
X219067Y47278D01*
X219111Y47310D01*
X219161Y47333D01*
X219191Y47367D01*
X219228Y47394D01*
X219256Y47441D01*
X219293Y47482D01*
X219307Y47525D01*
X219331Y47564D01*
X219338Y47618D01*
X219356Y47670D01*
X219352Y47716D01*
X219359Y47761D01*
X219344Y47826D01*
X219341Y47869D01*
X219329Y47891D01*
X219322Y47923D01*
X219191Y48238D01*
X219040Y49001D01*
X224001Y49001D01*
X224001Y44405D01*
X224003Y44393D01*
X224001Y44381D01*
X224023Y44296D01*
X224040Y44211D01*
X224047Y44200D01*
X224051Y44188D01*
X224147Y44052D01*
X224270Y43929D01*
X225210Y42635D01*
X225936Y41210D01*
X226431Y39689D01*
X226649Y38309D01*
X209899Y38309D01*
G37*
%LPD*%
%LPC*%
G36*
X13351Y38309D02*
X13351Y38309D01*
X13569Y39689D01*
X14064Y41210D01*
X14790Y42635D01*
X15730Y43929D01*
X15853Y44052D01*
X15860Y44063D01*
X15870Y44070D01*
X15914Y44145D01*
X15963Y44218D01*
X15965Y44231D01*
X15971Y44241D01*
X15999Y44405D01*
X15999Y49001D01*
X20960Y49001D01*
X20809Y48238D01*
X20678Y47923D01*
X20669Y47878D01*
X20651Y47837D01*
X20651Y47782D01*
X20640Y47728D01*
X20650Y47683D01*
X20649Y47638D01*
X20670Y47587D01*
X20681Y47534D01*
X20708Y47496D01*
X20725Y47454D01*
X20764Y47415D01*
X20795Y47371D01*
X20834Y47346D01*
X20866Y47314D01*
X20917Y47294D01*
X20964Y47265D01*
X21009Y47258D01*
X21051Y47241D01*
X21118Y47240D01*
X21160Y47233D01*
X21185Y47239D01*
X21218Y47239D01*
X22680Y47471D01*
X30101Y47471D01*
X30101Y38309D01*
X13351Y38309D01*
G37*
%LPD*%
%LPC*%
G36*
X32099Y38309D02*
X32099Y38309D01*
X32099Y47471D01*
X39520Y47471D01*
X41099Y47221D01*
X42620Y46726D01*
X44045Y46000D01*
X45339Y45060D01*
X46470Y43929D01*
X47410Y42635D01*
X48136Y41210D01*
X48631Y39689D01*
X48849Y38309D01*
X32099Y38309D01*
G37*
%LPD*%
%LPC*%
G36*
X191151Y38309D02*
X191151Y38309D01*
X191369Y39689D01*
X191864Y41210D01*
X192590Y42635D01*
X193530Y43929D01*
X194661Y45060D01*
X195955Y46000D01*
X197380Y46726D01*
X198901Y47221D01*
X200480Y47471D01*
X207901Y47471D01*
X207901Y38309D01*
X191151Y38309D01*
G37*
%LPD*%
%LPC*%
G36*
X209899Y27149D02*
X209899Y27149D01*
X209899Y36311D01*
X226649Y36311D01*
X226431Y34931D01*
X225936Y33410D01*
X225210Y31985D01*
X224270Y30691D01*
X223139Y29560D01*
X221845Y28620D01*
X220420Y27894D01*
X218899Y27399D01*
X217320Y27149D01*
X209899Y27149D01*
G37*
%LPD*%
%LPC*%
G36*
X32099Y27149D02*
X32099Y27149D01*
X32099Y36311D01*
X48849Y36311D01*
X48631Y34931D01*
X48136Y33410D01*
X47410Y31985D01*
X46470Y30691D01*
X45339Y29560D01*
X44045Y28620D01*
X42620Y27894D01*
X41099Y27399D01*
X39520Y27149D01*
X32099Y27149D01*
G37*
%LPD*%
%LPC*%
G36*
X200480Y27149D02*
X200480Y27149D01*
X198901Y27399D01*
X197380Y27894D01*
X195955Y28620D01*
X194661Y29560D01*
X193530Y30691D01*
X192590Y31985D01*
X191864Y33410D01*
X191369Y34931D01*
X191151Y36311D01*
X207901Y36311D01*
X207901Y27149D01*
X200480Y27149D01*
G37*
%LPD*%
%LPC*%
G36*
X22680Y27149D02*
X22680Y27149D01*
X21101Y27399D01*
X19580Y27894D01*
X18155Y28620D01*
X16861Y29560D01*
X15730Y30691D01*
X14790Y31985D01*
X14064Y33410D01*
X13569Y34931D01*
X13351Y36311D01*
X30101Y36311D01*
X30101Y27149D01*
X22680Y27149D01*
G37*
%LPD*%
%LPC*%
G36*
X210999Y10999D02*
X210999Y10999D01*
X210999Y15960D01*
X211762Y15809D01*
X212861Y15353D01*
X213851Y14692D01*
X214692Y13851D01*
X215353Y12861D01*
X215809Y11762D01*
X215960Y10999D01*
X210999Y10999D01*
G37*
%LPD*%
%LPC*%
G36*
X30999Y10999D02*
X30999Y10999D01*
X30999Y15960D01*
X31762Y15809D01*
X32861Y15353D01*
X33851Y14692D01*
X34692Y13851D01*
X35353Y12861D01*
X35809Y11762D01*
X35960Y10999D01*
X30999Y10999D01*
G37*
%LPD*%
%LPC*%
G36*
X70999Y10999D02*
X70999Y10999D01*
X70999Y15960D01*
X71762Y15809D01*
X72861Y15353D01*
X73851Y14692D01*
X74692Y13851D01*
X75353Y12861D01*
X75809Y11762D01*
X75960Y10999D01*
X70999Y10999D01*
G37*
%LPD*%
%LPC*%
G36*
X170999Y10999D02*
X170999Y10999D01*
X170999Y15960D01*
X171762Y15809D01*
X172861Y15353D01*
X173851Y14692D01*
X174692Y13851D01*
X175353Y12861D01*
X175809Y11762D01*
X175960Y10999D01*
X170999Y10999D01*
G37*
%LPD*%
%LPC*%
G36*
X210999Y89001D02*
X210999Y89001D01*
X215960Y89001D01*
X215809Y88238D01*
X215353Y87139D01*
X214692Y86149D01*
X213851Y85308D01*
X212861Y84647D01*
X211762Y84191D01*
X210999Y84040D01*
X210999Y89001D01*
G37*
%LPD*%
%LPC*%
G36*
X30999Y89001D02*
X30999Y89001D01*
X35960Y89001D01*
X35809Y88238D01*
X35353Y87139D01*
X34692Y86149D01*
X33851Y85308D01*
X32861Y84647D01*
X31762Y84191D01*
X30999Y84040D01*
X30999Y89001D01*
G37*
%LPD*%
%LPC*%
G36*
X130999Y89001D02*
X130999Y89001D01*
X135960Y89001D01*
X135809Y88238D01*
X135353Y87139D01*
X134692Y86149D01*
X133851Y85308D01*
X132861Y84647D01*
X131762Y84191D01*
X130999Y84040D01*
X130999Y89001D01*
G37*
%LPD*%
%LPC*%
G36*
X110999Y89001D02*
X110999Y89001D01*
X115960Y89001D01*
X115809Y88238D01*
X115353Y87139D01*
X114692Y86149D01*
X113851Y85308D01*
X112861Y84647D01*
X111762Y84191D01*
X110999Y84040D01*
X110999Y89001D01*
G37*
%LPD*%
%LPC*%
G36*
X70999Y89001D02*
X70999Y89001D01*
X75960Y89001D01*
X75809Y88238D01*
X75353Y87139D01*
X74692Y86149D01*
X73851Y85308D01*
X72861Y84647D01*
X71762Y84191D01*
X70999Y84040D01*
X70999Y89001D01*
G37*
%LPD*%
%LPC*%
G36*
X170999Y89001D02*
X170999Y89001D01*
X175960Y89001D01*
X175809Y88238D01*
X175353Y87139D01*
X174692Y86149D01*
X173851Y85308D01*
X172861Y84647D01*
X171762Y84191D01*
X170999Y84040D01*
X170999Y89001D01*
G37*
%LPD*%
%LPC*%
G36*
X204040Y10999D02*
X204040Y10999D01*
X204191Y11762D01*
X204647Y12861D01*
X205308Y13851D01*
X206149Y14692D01*
X207139Y15353D01*
X208238Y15809D01*
X209001Y15960D01*
X209001Y10999D01*
X204040Y10999D01*
G37*
%LPD*%
%LPC*%
G36*
X24040Y10999D02*
X24040Y10999D01*
X24191Y11762D01*
X24647Y12861D01*
X25308Y13851D01*
X26149Y14692D01*
X27139Y15353D01*
X28238Y15809D01*
X29001Y15960D01*
X29001Y10999D01*
X24040Y10999D01*
G37*
%LPD*%
%LPC*%
G36*
X64040Y10999D02*
X64040Y10999D01*
X64191Y11762D01*
X64647Y12861D01*
X65308Y13851D01*
X66149Y14692D01*
X67139Y15353D01*
X68238Y15809D01*
X69001Y15960D01*
X69001Y10999D01*
X64040Y10999D01*
G37*
%LPD*%
%LPC*%
G36*
X164040Y10999D02*
X164040Y10999D01*
X164191Y11762D01*
X164647Y12861D01*
X165308Y13851D01*
X166149Y14692D01*
X167139Y15353D01*
X168238Y15809D01*
X169001Y15960D01*
X169001Y10999D01*
X164040Y10999D01*
G37*
%LPD*%
%LPC*%
G36*
X128238Y84191D02*
X128238Y84191D01*
X127139Y84647D01*
X126149Y85308D01*
X125308Y86149D01*
X124647Y87139D01*
X124191Y88238D01*
X124040Y89001D01*
X129001Y89001D01*
X129001Y84040D01*
X128238Y84191D01*
G37*
%LPD*%
%LPC*%
G36*
X168238Y84191D02*
X168238Y84191D01*
X167139Y84647D01*
X166149Y85308D01*
X165308Y86149D01*
X164647Y87139D01*
X164191Y88238D01*
X164040Y89001D01*
X169001Y89001D01*
X169001Y84040D01*
X168238Y84191D01*
G37*
%LPD*%
%LPC*%
G36*
X208238Y84191D02*
X208238Y84191D01*
X207139Y84647D01*
X206149Y85308D01*
X205308Y86149D01*
X204647Y87139D01*
X204191Y88238D01*
X204040Y89001D01*
X209001Y89001D01*
X209001Y84040D01*
X208238Y84191D01*
G37*
%LPD*%
%LPC*%
G36*
X108238Y84191D02*
X108238Y84191D01*
X107139Y84647D01*
X106149Y85308D01*
X105308Y86149D01*
X104647Y87139D01*
X104191Y88238D01*
X104040Y89001D01*
X109001Y89001D01*
X109001Y84040D01*
X108238Y84191D01*
G37*
%LPD*%
%LPC*%
G36*
X68238Y84191D02*
X68238Y84191D01*
X67139Y84647D01*
X66149Y85308D01*
X65308Y86149D01*
X64647Y87139D01*
X64191Y88238D01*
X64040Y89001D01*
X69001Y89001D01*
X69001Y84040D01*
X68238Y84191D01*
G37*
%LPD*%
%LPC*%
G36*
X28238Y84191D02*
X28238Y84191D01*
X27139Y84647D01*
X26149Y85308D01*
X25308Y86149D01*
X24647Y87139D01*
X24191Y88238D01*
X24040Y89001D01*
X29001Y89001D01*
X29001Y84040D01*
X28238Y84191D01*
G37*
%LPD*%
%LPC*%
G36*
X208899Y37309D02*
X208899Y37309D01*
X208899Y37311D01*
X208901Y37311D01*
X208901Y37309D01*
X208899Y37309D01*
G37*
%LPD*%
%LPC*%
G36*
X31099Y37309D02*
X31099Y37309D01*
X31099Y37311D01*
X31101Y37311D01*
X31101Y37309D01*
X31099Y37309D01*
G37*
%LPD*%
D10*
X110500Y24610D03*
X129500Y24610D03*
D11*
X97700Y40310D03*
X97700Y46810D03*
X97700Y53310D03*
X97700Y59810D03*
X141700Y40310D03*
X141700Y46810D03*
X141700Y53310D03*
X141700Y59810D03*
D12*
X201280Y37310D02*
X216520Y37310D01*
X216520Y62710D02*
X201280Y62710D01*
X38720Y37310D02*
X23480Y37310D01*
X23480Y62710D02*
X38720Y62710D01*
D13*
X97700Y46810D02*
X116650Y46810D01*
X116650Y41810D01*
D14*
X116650Y41810D03*
D13*
X97700Y59810D02*
X81900Y59810D01*
D14*
X81900Y59810D03*
X150000Y23000D03*
D13*
X150000Y40310D01*
X141700Y40310D01*
D14*
X15000Y50000D03*
X225000Y50000D03*
X30000Y90000D03*
X210000Y90000D03*
X210000Y10000D03*
X30000Y10000D03*
X70000Y90000D03*
X70000Y10000D03*
X170000Y90000D03*
X170000Y10000D03*
X110000Y90000D03*
X130000Y90000D03*
X110000Y10000D03*
X130000Y10000D03*
D13*
X129500Y24610D02*
X129500Y46810D01*
X141700Y46810D01*
X97700Y40310D02*
X97700Y24610D01*
X110500Y24610D01*
M02*
