G04 EAGLE Gerber X2 export*
%TF.Part,Single*%
%TF.FileFunction,Copper,L1,Top,Mixed*%
%TF.FilePolarity,Positive*%
%TF.GenerationSoftware,Autodesk,EAGLE,8.6.1*%
%TF.CreationDate,2018-02-11T14:24:16Z*%
G75*
%MOMM*%
%FSLAX34Y34*%
%LPD*%
%AMOC8*
5,1,8,0,0,1.08239X$1,22.5*%
G01*
%ADD10R,0.700000X0.400000*%
%ADD11R,2.500000X0.580000*%
%ADD12C,1.524000*%
%ADD13C,0.650000*%
%ADD14C,0.406400*%
%ADD15C,1.828800*%

G36*
X228644Y4071D02*
X228644Y4071D01*
X228680Y4068D01*
X231858Y4318D01*
X232017Y4353D01*
X232092Y4365D01*
X238139Y6329D01*
X238394Y6454D01*
X238408Y6467D01*
X238422Y6473D01*
X243565Y10210D01*
X243770Y10408D01*
X243779Y10424D01*
X243790Y10435D01*
X247527Y15578D01*
X247660Y15829D01*
X247664Y15847D01*
X247671Y15861D01*
X249635Y21908D01*
X249663Y22067D01*
X249682Y22142D01*
X249932Y25320D01*
X249929Y25365D01*
X249935Y25400D01*
X249935Y76200D01*
X249929Y76244D01*
X249932Y76280D01*
X249682Y79458D01*
X249647Y79617D01*
X249635Y79692D01*
X247671Y85739D01*
X247546Y85994D01*
X247533Y86008D01*
X247527Y86022D01*
X243790Y91165D01*
X243592Y91370D01*
X243576Y91379D01*
X243565Y91390D01*
X238422Y95127D01*
X238171Y95260D01*
X238153Y95264D01*
X238139Y95271D01*
X232092Y97235D01*
X231932Y97263D01*
X231858Y97282D01*
X228680Y97532D01*
X228635Y97529D01*
X228600Y97535D01*
X50800Y97535D01*
X50756Y97529D01*
X50720Y97532D01*
X47542Y97282D01*
X47383Y97247D01*
X47308Y97235D01*
X41261Y95271D01*
X41006Y95146D01*
X40992Y95133D01*
X40978Y95127D01*
X35835Y91390D01*
X35630Y91192D01*
X35621Y91176D01*
X35610Y91165D01*
X31873Y86022D01*
X31740Y85771D01*
X31736Y85753D01*
X31729Y85739D01*
X29765Y79692D01*
X29737Y79532D01*
X29718Y79458D01*
X29468Y76280D01*
X29471Y76235D01*
X29465Y76200D01*
X29465Y25400D01*
X29471Y25356D01*
X29468Y25320D01*
X29718Y22142D01*
X29753Y21983D01*
X29765Y21908D01*
X31729Y15861D01*
X31854Y15606D01*
X31867Y15592D01*
X31873Y15578D01*
X35610Y10435D01*
X35808Y10230D01*
X35824Y10221D01*
X35835Y10210D01*
X40978Y6473D01*
X41229Y6340D01*
X41247Y6336D01*
X41261Y6329D01*
X47308Y4365D01*
X47468Y4337D01*
X47542Y4318D01*
X50720Y4068D01*
X50765Y4071D01*
X50800Y4065D01*
X228600Y4065D01*
X228644Y4071D01*
G37*
%LPC*%
G36*
X151571Y23299D02*
X151571Y23299D01*
X150399Y24471D01*
X150399Y28284D01*
X150391Y28342D01*
X150393Y28400D01*
X150371Y28482D01*
X150359Y28566D01*
X150336Y28619D01*
X150321Y28675D01*
X150278Y28748D01*
X150243Y28825D01*
X150205Y28870D01*
X150176Y28920D01*
X150114Y28978D01*
X150060Y29042D01*
X150011Y29074D01*
X149968Y29114D01*
X149893Y29153D01*
X149823Y29200D01*
X149767Y29217D01*
X149715Y29244D01*
X149647Y29255D01*
X149552Y29285D01*
X149452Y29288D01*
X149384Y29299D01*
X145571Y29299D01*
X144399Y30471D01*
X144399Y49129D01*
X145353Y50082D01*
X145388Y50129D01*
X145430Y50169D01*
X145473Y50242D01*
X145524Y50309D01*
X145544Y50364D01*
X145574Y50414D01*
X145595Y50496D01*
X145625Y50575D01*
X145630Y50633D01*
X145644Y50690D01*
X145641Y50774D01*
X145648Y50858D01*
X145637Y50916D01*
X145635Y50974D01*
X145609Y51054D01*
X145592Y51137D01*
X145566Y51189D01*
X145548Y51245D01*
X145507Y51301D01*
X145461Y51389D01*
X145393Y51462D01*
X145353Y51518D01*
X144399Y52471D01*
X144399Y71129D01*
X145571Y72301D01*
X149384Y72301D01*
X149442Y72309D01*
X149500Y72307D01*
X149582Y72329D01*
X149666Y72341D01*
X149719Y72364D01*
X149775Y72379D01*
X149848Y72422D01*
X149925Y72457D01*
X149970Y72495D01*
X150020Y72524D01*
X150078Y72586D01*
X150142Y72640D01*
X150174Y72689D01*
X150214Y72732D01*
X150253Y72807D01*
X150300Y72877D01*
X150317Y72933D01*
X150344Y72985D01*
X150355Y73053D01*
X150385Y73148D01*
X150388Y73248D01*
X150399Y73316D01*
X150399Y77129D01*
X151571Y78301D01*
X158229Y78301D01*
X159401Y77129D01*
X159401Y73316D01*
X159409Y73258D01*
X159407Y73200D01*
X159429Y73118D01*
X159441Y73034D01*
X159464Y72981D01*
X159479Y72925D01*
X159522Y72852D01*
X159557Y72775D01*
X159595Y72730D01*
X159624Y72680D01*
X159686Y72622D01*
X159740Y72558D01*
X159789Y72526D01*
X159832Y72486D01*
X159907Y72447D01*
X159977Y72400D01*
X160033Y72383D01*
X160085Y72356D01*
X160153Y72345D01*
X160248Y72315D01*
X160348Y72312D01*
X160416Y72301D01*
X179384Y72301D01*
X179442Y72309D01*
X179500Y72307D01*
X179582Y72329D01*
X179666Y72341D01*
X179719Y72364D01*
X179775Y72379D01*
X179848Y72422D01*
X179925Y72457D01*
X179970Y72495D01*
X180020Y72524D01*
X180078Y72586D01*
X180142Y72640D01*
X180174Y72689D01*
X180214Y72732D01*
X180253Y72807D01*
X180300Y72877D01*
X180317Y72933D01*
X180344Y72985D01*
X180355Y73053D01*
X180385Y73148D01*
X180388Y73248D01*
X180399Y73316D01*
X180399Y76129D01*
X181571Y77301D01*
X187229Y77301D01*
X188401Y76129D01*
X188401Y68548D01*
X188409Y68490D01*
X188407Y68432D01*
X188429Y68350D01*
X188441Y68266D01*
X188464Y68213D01*
X188479Y68157D01*
X188522Y68084D01*
X188557Y68007D01*
X188595Y67962D01*
X188624Y67912D01*
X188686Y67854D01*
X188740Y67790D01*
X188789Y67758D01*
X188832Y67718D01*
X188907Y67679D01*
X188977Y67632D01*
X189033Y67615D01*
X189085Y67588D01*
X189153Y67577D01*
X189248Y67547D01*
X189348Y67544D01*
X189416Y67533D01*
X193037Y67533D01*
X193123Y67545D01*
X193211Y67548D01*
X193263Y67565D01*
X193318Y67573D01*
X193398Y67608D01*
X193481Y67635D01*
X193520Y67663D01*
X193577Y67689D01*
X193691Y67785D01*
X193754Y67830D01*
X193876Y67951D01*
X195806Y68751D01*
X197894Y68751D01*
X199824Y67951D01*
X199946Y67830D01*
X200015Y67778D01*
X200079Y67718D01*
X200129Y67692D01*
X200173Y67659D01*
X200254Y67628D01*
X200332Y67588D01*
X200380Y67580D01*
X200438Y67558D01*
X200586Y67546D01*
X200663Y67533D01*
X211559Y67533D01*
X211560Y67533D01*
X211562Y67533D01*
X211702Y67553D01*
X211840Y67573D01*
X211842Y67573D01*
X211843Y67573D01*
X211971Y67631D01*
X212100Y67689D01*
X212101Y67690D01*
X212102Y67691D01*
X212209Y67782D01*
X212317Y67872D01*
X212317Y67874D01*
X212319Y67875D01*
X212327Y67888D01*
X212474Y68109D01*
X212483Y68138D01*
X212497Y68159D01*
X212824Y68950D01*
X215530Y71656D01*
X219066Y73121D01*
X234788Y73121D01*
X234902Y73137D01*
X235017Y73147D01*
X235042Y73157D01*
X235070Y73161D01*
X235175Y73208D01*
X235282Y73249D01*
X235304Y73266D01*
X235329Y73277D01*
X235417Y73351D01*
X235509Y73421D01*
X235525Y73443D01*
X235546Y73460D01*
X235610Y73556D01*
X235679Y73648D01*
X235688Y73674D01*
X235704Y73697D01*
X235738Y73807D01*
X235779Y73914D01*
X235781Y73942D01*
X235790Y73968D01*
X235792Y74083D01*
X235802Y74198D01*
X235796Y74222D01*
X235797Y74252D01*
X235740Y74470D01*
X235598Y75185D01*
X241300Y75185D01*
X247002Y75185D01*
X246868Y74511D01*
X246432Y73457D01*
X245798Y72508D01*
X244991Y71702D01*
X244001Y71040D01*
X243990Y71030D01*
X243976Y71023D01*
X243884Y70936D01*
X243789Y70851D01*
X243781Y70838D01*
X243770Y70827D01*
X243705Y70717D01*
X243638Y70610D01*
X243634Y70595D01*
X243626Y70582D01*
X243595Y70459D01*
X243560Y70337D01*
X243560Y70321D01*
X243556Y70306D01*
X243560Y70180D01*
X243560Y70053D01*
X243565Y70038D01*
X243565Y70022D01*
X243604Y69902D01*
X243639Y69780D01*
X243648Y69766D01*
X243653Y69752D01*
X243692Y69696D01*
X243791Y69539D01*
X243826Y69508D01*
X243847Y69478D01*
X244376Y68950D01*
X245841Y65414D01*
X245841Y61586D01*
X244376Y58050D01*
X241670Y55344D01*
X238134Y53879D01*
X219066Y53879D01*
X215530Y55344D01*
X212824Y58050D01*
X212497Y58841D01*
X212496Y58842D01*
X212495Y58843D01*
X212424Y58964D01*
X212352Y59085D01*
X212351Y59086D01*
X212350Y59088D01*
X212246Y59185D01*
X212145Y59281D01*
X212144Y59281D01*
X212143Y59282D01*
X212017Y59347D01*
X211893Y59411D01*
X211891Y59411D01*
X211890Y59412D01*
X211875Y59414D01*
X211614Y59466D01*
X211583Y59463D01*
X211559Y59467D01*
X200663Y59467D01*
X200577Y59455D01*
X200489Y59452D01*
X200437Y59435D01*
X200382Y59427D01*
X200302Y59392D01*
X200219Y59365D01*
X200180Y59337D01*
X200123Y59311D01*
X200009Y59215D01*
X199946Y59170D01*
X199824Y59049D01*
X197894Y58249D01*
X195806Y58249D01*
X193876Y59049D01*
X193754Y59170D01*
X193685Y59222D01*
X193621Y59282D01*
X193571Y59308D01*
X193527Y59341D01*
X193446Y59372D01*
X193368Y59412D01*
X193320Y59420D01*
X193262Y59442D01*
X193114Y59454D01*
X193037Y59467D01*
X189416Y59467D01*
X189358Y59459D01*
X189300Y59461D01*
X189218Y59439D01*
X189134Y59427D01*
X189081Y59404D01*
X189025Y59389D01*
X188952Y59346D01*
X188875Y59311D01*
X188830Y59273D01*
X188780Y59244D01*
X188722Y59182D01*
X188658Y59128D01*
X188626Y59079D01*
X188586Y59036D01*
X188547Y58961D01*
X188500Y58891D01*
X188483Y58835D01*
X188456Y58783D01*
X188445Y58715D01*
X188415Y58620D01*
X188412Y58520D01*
X188401Y58452D01*
X188401Y52471D01*
X187447Y51518D01*
X187412Y51471D01*
X187370Y51431D01*
X187327Y51358D01*
X187276Y51291D01*
X187256Y51236D01*
X187226Y51186D01*
X187205Y51104D01*
X187175Y51025D01*
X187170Y50967D01*
X187156Y50910D01*
X187159Y50826D01*
X187152Y50742D01*
X187163Y50684D01*
X187165Y50626D01*
X187191Y50546D01*
X187208Y50463D01*
X187235Y50411D01*
X187252Y50355D01*
X187292Y50299D01*
X187339Y50211D01*
X187395Y50151D01*
X187408Y50130D01*
X187424Y50115D01*
X187447Y50082D01*
X188401Y49129D01*
X188401Y25471D01*
X187229Y24299D01*
X181571Y24299D01*
X180399Y25471D01*
X180399Y28284D01*
X180391Y28342D01*
X180393Y28400D01*
X180371Y28482D01*
X180359Y28566D01*
X180336Y28619D01*
X180321Y28675D01*
X180278Y28748D01*
X180243Y28825D01*
X180205Y28870D01*
X180176Y28920D01*
X180114Y28978D01*
X180060Y29042D01*
X180011Y29074D01*
X179968Y29114D01*
X179893Y29153D01*
X179823Y29200D01*
X179767Y29217D01*
X179715Y29244D01*
X179647Y29255D01*
X179552Y29285D01*
X179452Y29288D01*
X179384Y29299D01*
X160416Y29299D01*
X160358Y29291D01*
X160300Y29293D01*
X160218Y29271D01*
X160134Y29259D01*
X160081Y29236D01*
X160025Y29221D01*
X159952Y29178D01*
X159875Y29143D01*
X159830Y29105D01*
X159780Y29076D01*
X159722Y29014D01*
X159658Y28960D01*
X159626Y28911D01*
X159586Y28868D01*
X159547Y28793D01*
X159500Y28723D01*
X159483Y28667D01*
X159456Y28615D01*
X159445Y28547D01*
X159415Y28452D01*
X159412Y28352D01*
X159401Y28284D01*
X159401Y24471D01*
X158229Y23299D01*
X151571Y23299D01*
G37*
%LPD*%
%LPC*%
G36*
X121020Y27767D02*
X121020Y27767D01*
X121002Y27774D01*
X120854Y27786D01*
X120777Y27799D01*
X118571Y27799D01*
X117399Y28971D01*
X117399Y34629D01*
X118571Y35801D01*
X120777Y35801D01*
X120864Y35813D01*
X120951Y35816D01*
X121004Y35833D01*
X124909Y35833D01*
X124996Y35845D01*
X125083Y35848D01*
X125136Y35865D01*
X125191Y35873D01*
X125270Y35908D01*
X125354Y35935D01*
X125393Y35963D01*
X125450Y35989D01*
X125563Y36085D01*
X125627Y36130D01*
X127802Y38305D01*
X127854Y38375D01*
X127914Y38439D01*
X127940Y38488D01*
X127973Y38532D01*
X128004Y38614D01*
X128044Y38692D01*
X128052Y38739D01*
X128074Y38798D01*
X128086Y38946D01*
X128099Y39023D01*
X128099Y39246D01*
X128122Y39316D01*
X128122Y39344D01*
X128129Y39371D01*
X128126Y39486D01*
X128129Y39600D01*
X128122Y39627D01*
X128121Y39655D01*
X128086Y39764D01*
X128057Y39875D01*
X128043Y39899D01*
X128035Y39926D01*
X127970Y40021D01*
X127912Y40120D01*
X127892Y40139D01*
X127876Y40162D01*
X127788Y40236D01*
X127705Y40314D01*
X127680Y40327D01*
X127659Y40345D01*
X127554Y40392D01*
X127451Y40444D01*
X127427Y40448D01*
X127399Y40460D01*
X127134Y40497D01*
X127120Y40499D01*
X125023Y40499D01*
X124936Y40487D01*
X124849Y40484D01*
X124796Y40467D01*
X99930Y40467D01*
X97567Y42830D01*
X97567Y58452D01*
X97559Y58510D01*
X97561Y58568D01*
X97539Y58650D01*
X97527Y58734D01*
X97504Y58787D01*
X97489Y58843D01*
X97446Y58916D01*
X97411Y58993D01*
X97373Y59038D01*
X97344Y59088D01*
X97282Y59146D01*
X97228Y59210D01*
X97179Y59242D01*
X97136Y59282D01*
X97061Y59321D01*
X96991Y59368D01*
X96935Y59385D01*
X96883Y59412D01*
X96815Y59423D01*
X96720Y59453D01*
X96620Y59456D01*
X96552Y59467D01*
X67841Y59467D01*
X67840Y59467D01*
X67838Y59467D01*
X67698Y59447D01*
X67560Y59427D01*
X67558Y59427D01*
X67557Y59427D01*
X67429Y59369D01*
X67300Y59311D01*
X67299Y59310D01*
X67298Y59309D01*
X67191Y59218D01*
X67083Y59128D01*
X67083Y59126D01*
X67081Y59125D01*
X67073Y59112D01*
X66926Y58891D01*
X66917Y58862D01*
X66903Y58841D01*
X66576Y58050D01*
X63870Y55344D01*
X60334Y53879D01*
X41266Y53879D01*
X37730Y55344D01*
X35024Y58050D01*
X33559Y61586D01*
X33559Y65414D01*
X35024Y68950D01*
X35553Y69478D01*
X35562Y69491D01*
X35574Y69500D01*
X35647Y69604D01*
X35724Y69706D01*
X35729Y69720D01*
X35738Y69733D01*
X35780Y69852D01*
X35825Y69971D01*
X35826Y69987D01*
X35831Y70001D01*
X35838Y70128D01*
X35848Y70255D01*
X35845Y70270D01*
X35846Y70285D01*
X35817Y70409D01*
X35792Y70533D01*
X35785Y70547D01*
X35782Y70562D01*
X35720Y70673D01*
X35661Y70786D01*
X35651Y70797D01*
X35643Y70810D01*
X35593Y70858D01*
X35466Y70992D01*
X35426Y71015D01*
X35399Y71040D01*
X34409Y71702D01*
X33602Y72508D01*
X32968Y73457D01*
X32532Y74511D01*
X32398Y75185D01*
X38100Y75185D01*
X43802Y75185D01*
X43661Y74475D01*
X43645Y74414D01*
X43610Y74304D01*
X43610Y74276D01*
X43603Y74249D01*
X43606Y74135D01*
X43603Y74020D01*
X43610Y73993D01*
X43611Y73965D01*
X43646Y73855D01*
X43675Y73745D01*
X43689Y73721D01*
X43698Y73695D01*
X43762Y73599D01*
X43820Y73500D01*
X43840Y73481D01*
X43856Y73458D01*
X43944Y73384D01*
X44028Y73306D01*
X44052Y73293D01*
X44073Y73275D01*
X44178Y73229D01*
X44281Y73176D01*
X44305Y73172D01*
X44333Y73160D01*
X44598Y73123D01*
X44612Y73121D01*
X60334Y73121D01*
X63870Y71656D01*
X66576Y68950D01*
X66903Y68159D01*
X66904Y68158D01*
X66905Y68157D01*
X66976Y68036D01*
X67048Y67915D01*
X67049Y67914D01*
X67050Y67912D01*
X67154Y67815D01*
X67255Y67719D01*
X67256Y67719D01*
X67257Y67718D01*
X67383Y67653D01*
X67507Y67589D01*
X67509Y67589D01*
X67510Y67588D01*
X67525Y67586D01*
X67786Y67534D01*
X67817Y67537D01*
X67841Y67533D01*
X96552Y67533D01*
X96610Y67541D01*
X96668Y67539D01*
X96750Y67561D01*
X96834Y67573D01*
X96887Y67596D01*
X96943Y67611D01*
X97016Y67654D01*
X97093Y67689D01*
X97138Y67727D01*
X97188Y67756D01*
X97246Y67818D01*
X97310Y67872D01*
X97342Y67921D01*
X97382Y67964D01*
X97421Y68039D01*
X97468Y68109D01*
X97485Y68165D01*
X97512Y68217D01*
X97523Y68285D01*
X97553Y68380D01*
X97556Y68480D01*
X97567Y68548D01*
X97567Y71570D01*
X99930Y73933D01*
X124780Y73933D01*
X124797Y73926D01*
X124946Y73914D01*
X125023Y73901D01*
X127229Y73901D01*
X128401Y72729D01*
X128401Y67071D01*
X127229Y65899D01*
X125023Y65899D01*
X124936Y65887D01*
X124848Y65884D01*
X124796Y65867D01*
X106648Y65867D01*
X106590Y65859D01*
X106532Y65861D01*
X106450Y65839D01*
X106366Y65827D01*
X106313Y65804D01*
X106257Y65789D01*
X106184Y65746D01*
X106107Y65711D01*
X106062Y65673D01*
X106012Y65644D01*
X105954Y65582D01*
X105890Y65528D01*
X105858Y65479D01*
X105818Y65436D01*
X105779Y65361D01*
X105732Y65291D01*
X105715Y65235D01*
X105688Y65183D01*
X105677Y65115D01*
X105647Y65020D01*
X105644Y64920D01*
X105633Y64852D01*
X105633Y62248D01*
X105641Y62190D01*
X105639Y62132D01*
X105661Y62050D01*
X105673Y61966D01*
X105696Y61913D01*
X105711Y61857D01*
X105754Y61784D01*
X105789Y61707D01*
X105827Y61662D01*
X105856Y61612D01*
X105918Y61554D01*
X105972Y61490D01*
X106021Y61458D01*
X106064Y61418D01*
X106139Y61379D01*
X106209Y61332D01*
X106265Y61315D01*
X106317Y61288D01*
X106385Y61277D01*
X106480Y61247D01*
X106580Y61244D01*
X106648Y61233D01*
X124780Y61233D01*
X124798Y61226D01*
X124946Y61214D01*
X125023Y61201D01*
X127530Y61201D01*
X127590Y61196D01*
X127667Y61183D01*
X129537Y61183D01*
X129623Y61195D01*
X129711Y61198D01*
X129763Y61215D01*
X129818Y61223D01*
X129898Y61258D01*
X129981Y61285D01*
X130020Y61313D01*
X130077Y61339D01*
X130191Y61435D01*
X130254Y61480D01*
X130376Y61601D01*
X132306Y62401D01*
X134394Y62401D01*
X136324Y61601D01*
X137801Y60124D01*
X138601Y58194D01*
X138601Y56106D01*
X137801Y54176D01*
X136324Y52699D01*
X134394Y51899D01*
X132306Y51899D01*
X130376Y52699D01*
X130254Y52820D01*
X130185Y52872D01*
X130121Y52932D01*
X130071Y52958D01*
X130027Y52991D01*
X129946Y53022D01*
X129868Y53062D01*
X129820Y53070D01*
X129762Y53092D01*
X129614Y53104D01*
X129537Y53117D01*
X121107Y53117D01*
X121093Y53120D01*
X121034Y53142D01*
X120886Y53154D01*
X120809Y53167D01*
X106648Y53167D01*
X106590Y53159D01*
X106532Y53161D01*
X106450Y53139D01*
X106366Y53127D01*
X106313Y53104D01*
X106257Y53089D01*
X106184Y53046D01*
X106107Y53011D01*
X106062Y52973D01*
X106012Y52944D01*
X105954Y52882D01*
X105890Y52828D01*
X105858Y52779D01*
X105818Y52736D01*
X105779Y52661D01*
X105732Y52591D01*
X105715Y52535D01*
X105688Y52483D01*
X105677Y52415D01*
X105647Y52320D01*
X105644Y52220D01*
X105633Y52152D01*
X105633Y49548D01*
X105641Y49490D01*
X105639Y49432D01*
X105661Y49350D01*
X105673Y49266D01*
X105696Y49213D01*
X105711Y49157D01*
X105754Y49084D01*
X105789Y49007D01*
X105827Y48962D01*
X105856Y48912D01*
X105918Y48854D01*
X105972Y48790D01*
X106021Y48758D01*
X106064Y48718D01*
X106139Y48679D01*
X106209Y48632D01*
X106265Y48615D01*
X106317Y48588D01*
X106385Y48577D01*
X106480Y48547D01*
X106580Y48544D01*
X106648Y48533D01*
X124780Y48533D01*
X124798Y48526D01*
X124946Y48514D01*
X125023Y48501D01*
X127229Y48501D01*
X128401Y47329D01*
X128401Y43077D01*
X128405Y43048D01*
X128402Y43019D01*
X128425Y42908D01*
X128441Y42796D01*
X128453Y42769D01*
X128458Y42740D01*
X128511Y42640D01*
X128557Y42536D01*
X128576Y42514D01*
X128589Y42488D01*
X128667Y42406D01*
X128740Y42319D01*
X128765Y42303D01*
X128785Y42282D01*
X128883Y42225D01*
X128977Y42162D01*
X129005Y42153D01*
X129030Y42138D01*
X129140Y42110D01*
X129248Y42076D01*
X129277Y42075D01*
X129306Y42068D01*
X129419Y42072D01*
X129532Y42069D01*
X129561Y42076D01*
X129590Y42077D01*
X129698Y42112D01*
X129807Y42141D01*
X129833Y42156D01*
X129861Y42165D01*
X129925Y42210D01*
X130052Y42286D01*
X130095Y42332D01*
X130134Y42360D01*
X130376Y42601D01*
X132306Y43401D01*
X134394Y43401D01*
X136324Y42601D01*
X137801Y41124D01*
X138601Y39194D01*
X138601Y37106D01*
X137801Y35176D01*
X136324Y33699D01*
X134394Y32899D01*
X134223Y32899D01*
X134136Y32887D01*
X134049Y32884D01*
X133996Y32867D01*
X133941Y32859D01*
X133862Y32824D01*
X133778Y32797D01*
X133739Y32769D01*
X133682Y32743D01*
X133569Y32647D01*
X133505Y32602D01*
X128670Y27767D01*
X121020Y27767D01*
G37*
%LPD*%
G36*
X157405Y25299D02*
X157405Y25299D01*
X157405Y25300D01*
X157405Y31295D01*
X182395Y31295D01*
X182395Y26300D01*
X182399Y26295D01*
X182400Y26295D01*
X186400Y26295D01*
X186405Y26299D01*
X186405Y26300D01*
X186405Y48300D01*
X186401Y48305D01*
X186400Y48305D01*
X146400Y48305D01*
X146395Y48301D01*
X146395Y48300D01*
X146395Y31300D01*
X146399Y31295D01*
X146400Y31295D01*
X152395Y31295D01*
X152395Y25300D01*
X152399Y25295D01*
X152400Y25295D01*
X157400Y25295D01*
X157405Y25299D01*
G37*
G36*
X186405Y53299D02*
X186405Y53299D01*
X186405Y53300D01*
X186405Y75300D01*
X186401Y75305D01*
X186400Y75305D01*
X182400Y75305D01*
X182395Y75301D01*
X182395Y75300D01*
X182395Y70305D01*
X157405Y70305D01*
X157405Y76300D01*
X157401Y76305D01*
X157400Y76305D01*
X152400Y76305D01*
X152395Y76301D01*
X152395Y76300D01*
X152395Y70305D01*
X146400Y70305D01*
X146395Y70301D01*
X146395Y70300D01*
X146395Y53300D01*
X146399Y53295D01*
X146400Y53295D01*
X186400Y53295D01*
X186405Y53299D01*
G37*
%LPC*%
G36*
X241300Y26415D02*
X241300Y26415D01*
X235598Y26415D01*
X235660Y26726D01*
X235660Y26741D01*
X235665Y26756D01*
X235668Y26883D01*
X235675Y27010D01*
X235672Y27025D01*
X235672Y27040D01*
X235640Y27163D01*
X235612Y27287D01*
X235604Y27301D01*
X235601Y27315D01*
X235536Y27424D01*
X235474Y27536D01*
X235463Y27547D01*
X235455Y27560D01*
X235363Y27646D01*
X235273Y27736D01*
X235259Y27744D01*
X235248Y27754D01*
X235135Y27812D01*
X235024Y27873D01*
X235009Y27877D01*
X234995Y27884D01*
X234927Y27895D01*
X234746Y27936D01*
X234700Y27933D01*
X234664Y27939D01*
X230631Y27939D01*
X230631Y36069D01*
X246186Y36069D01*
X246131Y35721D01*
X245636Y34200D01*
X244910Y32775D01*
X244150Y31729D01*
X244114Y31660D01*
X244069Y31596D01*
X244047Y31535D01*
X244017Y31478D01*
X244001Y31401D01*
X243975Y31327D01*
X243972Y31263D01*
X243959Y31199D01*
X243965Y31121D01*
X243960Y31043D01*
X243975Y30980D01*
X243980Y30916D01*
X244007Y30843D01*
X244025Y30766D01*
X244056Y30710D01*
X244079Y30649D01*
X244125Y30586D01*
X244163Y30518D01*
X244204Y30480D01*
X244247Y30421D01*
X244351Y30341D01*
X244408Y30288D01*
X244991Y29898D01*
X245798Y29092D01*
X246432Y28143D01*
X246868Y27089D01*
X247002Y26415D01*
X241300Y26415D01*
X241300Y26415D01*
G37*
%LPD*%
%LPC*%
G36*
X38100Y26415D02*
X38100Y26415D01*
X32398Y26415D01*
X32532Y27089D01*
X32968Y28143D01*
X33602Y29092D01*
X34409Y29898D01*
X34992Y30288D01*
X35051Y30340D01*
X35115Y30385D01*
X35156Y30434D01*
X35204Y30477D01*
X35246Y30544D01*
X35296Y30604D01*
X35321Y30664D01*
X35355Y30718D01*
X35377Y30793D01*
X35408Y30865D01*
X35416Y30930D01*
X35434Y30991D01*
X35434Y31070D01*
X35443Y31148D01*
X35433Y31211D01*
X35433Y31276D01*
X35411Y31351D01*
X35399Y31428D01*
X35375Y31478D01*
X35354Y31549D01*
X35284Y31659D01*
X35250Y31729D01*
X34490Y32775D01*
X33764Y34200D01*
X33269Y35721D01*
X33214Y36069D01*
X48769Y36069D01*
X48769Y27939D01*
X44736Y27939D01*
X44721Y27937D01*
X44705Y27939D01*
X44580Y27917D01*
X44455Y27899D01*
X44441Y27893D01*
X44425Y27890D01*
X44311Y27835D01*
X44195Y27783D01*
X44183Y27773D01*
X44170Y27766D01*
X44075Y27681D01*
X43978Y27600D01*
X43970Y27587D01*
X43958Y27576D01*
X43891Y27468D01*
X43821Y27363D01*
X43816Y27348D01*
X43808Y27335D01*
X43773Y27213D01*
X43735Y27092D01*
X43734Y27076D01*
X43730Y27061D01*
X43732Y26993D01*
X43728Y26808D01*
X43739Y26763D01*
X43740Y26726D01*
X43802Y26415D01*
X38100Y26415D01*
X38100Y26415D01*
G37*
%LPD*%
%LPC*%
G36*
X230631Y40131D02*
X230631Y40131D01*
X230631Y48261D01*
X237020Y48261D01*
X238599Y48011D01*
X240120Y47516D01*
X241545Y46790D01*
X242839Y45850D01*
X243970Y44719D01*
X244910Y43425D01*
X245636Y42000D01*
X246131Y40479D01*
X246186Y40131D01*
X230631Y40131D01*
G37*
%LPD*%
%LPC*%
G36*
X52831Y40131D02*
X52831Y40131D01*
X52831Y48261D01*
X59220Y48261D01*
X60799Y48011D01*
X62320Y47516D01*
X63745Y46790D01*
X65039Y45850D01*
X66170Y44719D01*
X67110Y43425D01*
X67836Y42000D01*
X68331Y40479D01*
X68386Y40131D01*
X52831Y40131D01*
G37*
%LPD*%
%LPC*%
G36*
X33214Y40131D02*
X33214Y40131D01*
X33269Y40479D01*
X33764Y42000D01*
X34490Y43425D01*
X35430Y44719D01*
X36561Y45850D01*
X37855Y46790D01*
X39280Y47516D01*
X40801Y48011D01*
X42380Y48261D01*
X48769Y48261D01*
X48769Y40131D01*
X33214Y40131D01*
G37*
%LPD*%
%LPC*%
G36*
X211014Y40131D02*
X211014Y40131D01*
X211069Y40479D01*
X211564Y42000D01*
X212290Y43425D01*
X213230Y44719D01*
X214361Y45850D01*
X215655Y46790D01*
X217080Y47516D01*
X218601Y48011D01*
X220180Y48261D01*
X226569Y48261D01*
X226569Y40131D01*
X211014Y40131D01*
G37*
%LPD*%
%LPC*%
G36*
X52831Y27939D02*
X52831Y27939D01*
X52831Y36069D01*
X68386Y36069D01*
X68331Y35721D01*
X67836Y34200D01*
X67110Y32775D01*
X66170Y31481D01*
X65039Y30350D01*
X63745Y29410D01*
X62320Y28684D01*
X60799Y28189D01*
X59220Y27939D01*
X52831Y27939D01*
G37*
%LPD*%
%LPC*%
G36*
X220180Y27939D02*
X220180Y27939D01*
X218601Y28189D01*
X217080Y28684D01*
X215655Y29410D01*
X214361Y30350D01*
X213230Y31481D01*
X212290Y32775D01*
X211564Y34200D01*
X211069Y35721D01*
X211014Y36069D01*
X226569Y36069D01*
X226569Y27939D01*
X220180Y27939D01*
G37*
%LPD*%
%LPC*%
G36*
X128015Y89915D02*
X128015Y89915D01*
X128015Y94602D01*
X128689Y94468D01*
X129743Y94032D01*
X130692Y93398D01*
X131498Y92592D01*
X132132Y91643D01*
X132568Y90589D01*
X132702Y89915D01*
X128015Y89915D01*
G37*
%LPD*%
%LPC*%
G36*
X191515Y89915D02*
X191515Y89915D01*
X191515Y94602D01*
X192189Y94468D01*
X193243Y94032D01*
X194192Y93398D01*
X194998Y92592D01*
X195632Y91643D01*
X196068Y90589D01*
X196202Y89915D01*
X191515Y89915D01*
G37*
%LPD*%
%LPC*%
G36*
X51815Y89915D02*
X51815Y89915D01*
X51815Y94602D01*
X52489Y94468D01*
X53543Y94032D01*
X54492Y93398D01*
X55298Y92592D01*
X55932Y91643D01*
X56368Y90589D01*
X56502Y89915D01*
X51815Y89915D01*
G37*
%LPD*%
%LPC*%
G36*
X89915Y89915D02*
X89915Y89915D01*
X89915Y94602D01*
X90589Y94468D01*
X91643Y94032D01*
X92592Y93398D01*
X93398Y92592D01*
X94032Y91643D01*
X94468Y90589D01*
X94602Y89915D01*
X89915Y89915D01*
G37*
%LPD*%
%LPC*%
G36*
X229615Y89915D02*
X229615Y89915D01*
X229615Y94602D01*
X230289Y94468D01*
X231343Y94032D01*
X232292Y93398D01*
X233098Y92592D01*
X233732Y91643D01*
X234168Y90589D01*
X234302Y89915D01*
X229615Y89915D01*
G37*
%LPD*%
%LPC*%
G36*
X153415Y89915D02*
X153415Y89915D01*
X153415Y94602D01*
X154089Y94468D01*
X155143Y94032D01*
X156092Y93398D01*
X156898Y92592D01*
X157532Y91643D01*
X157968Y90589D01*
X158102Y89915D01*
X153415Y89915D01*
G37*
%LPD*%
%LPC*%
G36*
X39115Y77215D02*
X39115Y77215D01*
X39115Y81902D01*
X39789Y81768D01*
X40843Y81332D01*
X41792Y80698D01*
X42598Y79892D01*
X43232Y78943D01*
X43668Y77889D01*
X43802Y77215D01*
X39115Y77215D01*
G37*
%LPD*%
%LPC*%
G36*
X242315Y77215D02*
X242315Y77215D01*
X242315Y81902D01*
X242989Y81768D01*
X244043Y81332D01*
X244992Y80698D01*
X245798Y79892D01*
X246432Y78943D01*
X246868Y77889D01*
X247002Y77215D01*
X242315Y77215D01*
G37*
%LPD*%
%LPC*%
G36*
X191515Y13715D02*
X191515Y13715D01*
X191515Y18402D01*
X192189Y18268D01*
X193243Y17832D01*
X194192Y17198D01*
X194998Y16392D01*
X195632Y15443D01*
X196068Y14389D01*
X196202Y13715D01*
X191515Y13715D01*
G37*
%LPD*%
%LPC*%
G36*
X229615Y13715D02*
X229615Y13715D01*
X229615Y18402D01*
X230289Y18268D01*
X231343Y17832D01*
X232292Y17198D01*
X233098Y16392D01*
X233732Y15443D01*
X234168Y14389D01*
X234302Y13715D01*
X229615Y13715D01*
G37*
%LPD*%
%LPC*%
G36*
X51815Y13715D02*
X51815Y13715D01*
X51815Y18402D01*
X52489Y18268D01*
X53543Y17832D01*
X54492Y17198D01*
X55298Y16392D01*
X55932Y15443D01*
X56368Y14389D01*
X56502Y13715D01*
X51815Y13715D01*
G37*
%LPD*%
%LPC*%
G36*
X89915Y13715D02*
X89915Y13715D01*
X89915Y18402D01*
X90589Y18268D01*
X91643Y17832D01*
X92592Y17198D01*
X93398Y16392D01*
X94032Y15443D01*
X94468Y14389D01*
X94602Y13715D01*
X89915Y13715D01*
G37*
%LPD*%
%LPC*%
G36*
X128015Y13715D02*
X128015Y13715D01*
X128015Y18402D01*
X128689Y18268D01*
X129743Y17832D01*
X130692Y17198D01*
X131498Y16392D01*
X132132Y15443D01*
X132568Y14389D01*
X132702Y13715D01*
X128015Y13715D01*
G37*
%LPD*%
%LPC*%
G36*
X153415Y13715D02*
X153415Y13715D01*
X153415Y18402D01*
X154089Y18268D01*
X155143Y17832D01*
X156092Y17198D01*
X156898Y16392D01*
X157532Y15443D01*
X157968Y14389D01*
X158102Y13715D01*
X153415Y13715D01*
G37*
%LPD*%
%LPC*%
G36*
X121298Y89915D02*
X121298Y89915D01*
X121432Y90589D01*
X121868Y91643D01*
X122502Y92592D01*
X123308Y93398D01*
X124257Y94032D01*
X125311Y94468D01*
X125985Y94602D01*
X125985Y89915D01*
X121298Y89915D01*
G37*
%LPD*%
%LPC*%
G36*
X51815Y87885D02*
X51815Y87885D01*
X56502Y87885D01*
X56368Y87211D01*
X55932Y86157D01*
X55298Y85208D01*
X54492Y84402D01*
X53543Y83768D01*
X52489Y83332D01*
X51815Y83198D01*
X51815Y87885D01*
G37*
%LPD*%
%LPC*%
G36*
X229615Y87885D02*
X229615Y87885D01*
X234302Y87885D01*
X234168Y87211D01*
X233732Y86157D01*
X233098Y85208D01*
X232292Y84402D01*
X231343Y83768D01*
X230289Y83332D01*
X229615Y83198D01*
X229615Y87885D01*
G37*
%LPD*%
%LPC*%
G36*
X191515Y87885D02*
X191515Y87885D01*
X196202Y87885D01*
X196068Y87211D01*
X195632Y86157D01*
X194998Y85208D01*
X194192Y84402D01*
X193243Y83768D01*
X192189Y83332D01*
X191515Y83198D01*
X191515Y87885D01*
G37*
%LPD*%
%LPC*%
G36*
X153415Y87885D02*
X153415Y87885D01*
X158102Y87885D01*
X157968Y87211D01*
X157532Y86157D01*
X156898Y85208D01*
X156092Y84402D01*
X155143Y83768D01*
X154089Y83332D01*
X153415Y83198D01*
X153415Y87885D01*
G37*
%LPD*%
%LPC*%
G36*
X128015Y87885D02*
X128015Y87885D01*
X132702Y87885D01*
X132568Y87211D01*
X132132Y86157D01*
X131498Y85208D01*
X130692Y84402D01*
X129743Y83768D01*
X128689Y83332D01*
X128015Y83198D01*
X128015Y87885D01*
G37*
%LPD*%
%LPC*%
G36*
X89915Y87885D02*
X89915Y87885D01*
X94602Y87885D01*
X94468Y87211D01*
X94032Y86157D01*
X93398Y85208D01*
X92592Y84402D01*
X91643Y83768D01*
X90589Y83332D01*
X89915Y83198D01*
X89915Y87885D01*
G37*
%LPD*%
%LPC*%
G36*
X235598Y77215D02*
X235598Y77215D01*
X235732Y77889D01*
X236168Y78943D01*
X236802Y79892D01*
X237608Y80698D01*
X238557Y81332D01*
X239611Y81768D01*
X240285Y81902D01*
X240285Y77215D01*
X235598Y77215D01*
G37*
%LPD*%
%LPC*%
G36*
X32398Y77215D02*
X32398Y77215D01*
X32532Y77889D01*
X32968Y78943D01*
X33602Y79892D01*
X34408Y80698D01*
X35357Y81332D01*
X36411Y81768D01*
X37085Y81902D01*
X37085Y77215D01*
X32398Y77215D01*
G37*
%LPD*%
%LPC*%
G36*
X39115Y24385D02*
X39115Y24385D01*
X43802Y24385D01*
X43668Y23711D01*
X43232Y22657D01*
X42598Y21708D01*
X41792Y20902D01*
X40843Y20268D01*
X39789Y19832D01*
X39115Y19698D01*
X39115Y24385D01*
G37*
%LPD*%
%LPC*%
G36*
X242315Y24385D02*
X242315Y24385D01*
X247002Y24385D01*
X246868Y23711D01*
X246432Y22657D01*
X245798Y21708D01*
X244992Y20902D01*
X244043Y20268D01*
X242989Y19832D01*
X242315Y19698D01*
X242315Y24385D01*
G37*
%LPD*%
%LPC*%
G36*
X222898Y89915D02*
X222898Y89915D01*
X223032Y90589D01*
X223468Y91643D01*
X224102Y92592D01*
X224908Y93398D01*
X225857Y94032D01*
X226911Y94468D01*
X227585Y94602D01*
X227585Y89915D01*
X222898Y89915D01*
G37*
%LPD*%
%LPC*%
G36*
X146698Y89915D02*
X146698Y89915D01*
X146832Y90589D01*
X147268Y91643D01*
X147902Y92592D01*
X148708Y93398D01*
X149657Y94032D01*
X150711Y94468D01*
X151385Y94602D01*
X151385Y89915D01*
X146698Y89915D01*
G37*
%LPD*%
%LPC*%
G36*
X83198Y89915D02*
X83198Y89915D01*
X83332Y90589D01*
X83768Y91643D01*
X84402Y92592D01*
X85208Y93398D01*
X86157Y94032D01*
X87211Y94468D01*
X87885Y94602D01*
X87885Y89915D01*
X83198Y89915D01*
G37*
%LPD*%
%LPC*%
G36*
X184798Y89915D02*
X184798Y89915D01*
X184932Y90589D01*
X185368Y91643D01*
X186002Y92592D01*
X186808Y93398D01*
X187757Y94032D01*
X188811Y94468D01*
X189485Y94602D01*
X189485Y89915D01*
X184798Y89915D01*
G37*
%LPD*%
%LPC*%
G36*
X45098Y89915D02*
X45098Y89915D01*
X45232Y90589D01*
X45668Y91643D01*
X46302Y92592D01*
X47108Y93398D01*
X48057Y94032D01*
X49111Y94468D01*
X49785Y94602D01*
X49785Y89915D01*
X45098Y89915D01*
G37*
%LPD*%
%LPC*%
G36*
X45098Y13715D02*
X45098Y13715D01*
X45232Y14389D01*
X45668Y15443D01*
X46302Y16392D01*
X47108Y17198D01*
X48057Y17832D01*
X49111Y18268D01*
X49785Y18402D01*
X49785Y13715D01*
X45098Y13715D01*
G37*
%LPD*%
%LPC*%
G36*
X83198Y13715D02*
X83198Y13715D01*
X83332Y14389D01*
X83768Y15443D01*
X84402Y16392D01*
X85208Y17198D01*
X86157Y17832D01*
X87211Y18268D01*
X87885Y18402D01*
X87885Y13715D01*
X83198Y13715D01*
G37*
%LPD*%
%LPC*%
G36*
X121298Y13715D02*
X121298Y13715D01*
X121432Y14389D01*
X121868Y15443D01*
X122502Y16392D01*
X123308Y17198D01*
X124257Y17832D01*
X125311Y18268D01*
X125985Y18402D01*
X125985Y13715D01*
X121298Y13715D01*
G37*
%LPD*%
%LPC*%
G36*
X146698Y13715D02*
X146698Y13715D01*
X146832Y14389D01*
X147268Y15443D01*
X147902Y16392D01*
X148708Y17198D01*
X149657Y17832D01*
X150711Y18268D01*
X151385Y18402D01*
X151385Y13715D01*
X146698Y13715D01*
G37*
%LPD*%
%LPC*%
G36*
X184798Y13715D02*
X184798Y13715D01*
X184932Y14389D01*
X185368Y15443D01*
X186002Y16392D01*
X186808Y17198D01*
X187757Y17832D01*
X188811Y18268D01*
X189485Y18402D01*
X189485Y13715D01*
X184798Y13715D01*
G37*
%LPD*%
%LPC*%
G36*
X222898Y13715D02*
X222898Y13715D01*
X223032Y14389D01*
X223468Y15443D01*
X224102Y16392D01*
X224908Y17198D01*
X225857Y17832D01*
X226911Y18268D01*
X227585Y18402D01*
X227585Y13715D01*
X222898Y13715D01*
G37*
%LPD*%
%LPC*%
G36*
X229615Y11685D02*
X229615Y11685D01*
X234302Y11685D01*
X234168Y11011D01*
X233732Y9957D01*
X233098Y9008D01*
X232292Y8202D01*
X231343Y7568D01*
X230289Y7132D01*
X229615Y6998D01*
X229615Y11685D01*
G37*
%LPD*%
%LPC*%
G36*
X191515Y11685D02*
X191515Y11685D01*
X196202Y11685D01*
X196068Y11011D01*
X195632Y9957D01*
X194998Y9008D01*
X194192Y8202D01*
X193243Y7568D01*
X192189Y7132D01*
X191515Y6998D01*
X191515Y11685D01*
G37*
%LPD*%
%LPC*%
G36*
X153415Y11685D02*
X153415Y11685D01*
X158102Y11685D01*
X157968Y11011D01*
X157532Y9957D01*
X156898Y9008D01*
X156092Y8202D01*
X155143Y7568D01*
X154089Y7132D01*
X153415Y6998D01*
X153415Y11685D01*
G37*
%LPD*%
%LPC*%
G36*
X128015Y11685D02*
X128015Y11685D01*
X132702Y11685D01*
X132568Y11011D01*
X132132Y9957D01*
X131498Y9008D01*
X130692Y8202D01*
X129743Y7568D01*
X128689Y7132D01*
X128015Y6998D01*
X128015Y11685D01*
G37*
%LPD*%
%LPC*%
G36*
X89915Y11685D02*
X89915Y11685D01*
X94602Y11685D01*
X94468Y11011D01*
X94032Y9957D01*
X93398Y9008D01*
X92592Y8202D01*
X91643Y7568D01*
X90589Y7132D01*
X89915Y6998D01*
X89915Y11685D01*
G37*
%LPD*%
%LPC*%
G36*
X51815Y11685D02*
X51815Y11685D01*
X56502Y11685D01*
X56368Y11011D01*
X55932Y9957D01*
X55298Y9008D01*
X54492Y8202D01*
X53543Y7568D01*
X52489Y7132D01*
X51815Y6998D01*
X51815Y11685D01*
G37*
%LPD*%
%LPC*%
G36*
X239611Y19832D02*
X239611Y19832D01*
X238557Y20268D01*
X237608Y20902D01*
X236802Y21708D01*
X236168Y22657D01*
X235732Y23711D01*
X235598Y24385D01*
X240285Y24385D01*
X240285Y19698D01*
X239611Y19832D01*
G37*
%LPD*%
%LPC*%
G36*
X49111Y83332D02*
X49111Y83332D01*
X48057Y83768D01*
X47108Y84402D01*
X46302Y85208D01*
X45668Y86157D01*
X45232Y87211D01*
X45098Y87885D01*
X49785Y87885D01*
X49785Y83198D01*
X49111Y83332D01*
G37*
%LPD*%
%LPC*%
G36*
X150711Y83332D02*
X150711Y83332D01*
X149657Y83768D01*
X148708Y84402D01*
X147902Y85208D01*
X147268Y86157D01*
X146832Y87211D01*
X146698Y87885D01*
X151385Y87885D01*
X151385Y83198D01*
X150711Y83332D01*
G37*
%LPD*%
%LPC*%
G36*
X226911Y7132D02*
X226911Y7132D01*
X225857Y7568D01*
X224908Y8202D01*
X224102Y9008D01*
X223468Y9957D01*
X223032Y11011D01*
X222898Y11685D01*
X227585Y11685D01*
X227585Y6998D01*
X226911Y7132D01*
G37*
%LPD*%
%LPC*%
G36*
X188811Y83332D02*
X188811Y83332D01*
X187757Y83768D01*
X186808Y84402D01*
X186002Y85208D01*
X185368Y86157D01*
X184932Y87211D01*
X184798Y87885D01*
X189485Y87885D01*
X189485Y83198D01*
X188811Y83332D01*
G37*
%LPD*%
%LPC*%
G36*
X188811Y7132D02*
X188811Y7132D01*
X187757Y7568D01*
X186808Y8202D01*
X186002Y9008D01*
X185368Y9957D01*
X184932Y11011D01*
X184798Y11685D01*
X189485Y11685D01*
X189485Y6998D01*
X188811Y7132D01*
G37*
%LPD*%
%LPC*%
G36*
X226911Y83332D02*
X226911Y83332D01*
X225857Y83768D01*
X224908Y84402D01*
X224102Y85208D01*
X223468Y86157D01*
X223032Y87211D01*
X222898Y87885D01*
X227585Y87885D01*
X227585Y83198D01*
X226911Y83332D01*
G37*
%LPD*%
%LPC*%
G36*
X150711Y7132D02*
X150711Y7132D01*
X149657Y7568D01*
X148708Y8202D01*
X147902Y9008D01*
X147268Y9957D01*
X146832Y11011D01*
X146698Y11685D01*
X151385Y11685D01*
X151385Y6998D01*
X150711Y7132D01*
G37*
%LPD*%
%LPC*%
G36*
X125311Y83332D02*
X125311Y83332D01*
X124257Y83768D01*
X123308Y84402D01*
X122502Y85208D01*
X121868Y86157D01*
X121432Y87211D01*
X121298Y87885D01*
X125985Y87885D01*
X125985Y83198D01*
X125311Y83332D01*
G37*
%LPD*%
%LPC*%
G36*
X125311Y7132D02*
X125311Y7132D01*
X124257Y7568D01*
X123308Y8202D01*
X122502Y9008D01*
X121868Y9957D01*
X121432Y11011D01*
X121298Y11685D01*
X125985Y11685D01*
X125985Y6998D01*
X125311Y7132D01*
G37*
%LPD*%
%LPC*%
G36*
X87211Y83332D02*
X87211Y83332D01*
X86157Y83768D01*
X85208Y84402D01*
X84402Y85208D01*
X83768Y86157D01*
X83332Y87211D01*
X83198Y87885D01*
X87885Y87885D01*
X87885Y83198D01*
X87211Y83332D01*
G37*
%LPD*%
%LPC*%
G36*
X87211Y7132D02*
X87211Y7132D01*
X86157Y7568D01*
X85208Y8202D01*
X84402Y9008D01*
X83768Y9957D01*
X83332Y11011D01*
X83198Y11685D01*
X87885Y11685D01*
X87885Y6998D01*
X87211Y7132D01*
G37*
%LPD*%
%LPC*%
G36*
X36411Y19832D02*
X36411Y19832D01*
X35357Y20268D01*
X34408Y20902D01*
X33602Y21708D01*
X32968Y22657D01*
X32532Y23711D01*
X32398Y24385D01*
X37085Y24385D01*
X37085Y19698D01*
X36411Y19832D01*
G37*
%LPD*%
%LPC*%
G36*
X49111Y7132D02*
X49111Y7132D01*
X48057Y7568D01*
X47108Y8202D01*
X46302Y9008D01*
X45668Y9957D01*
X45232Y11011D01*
X45098Y11685D01*
X49785Y11685D01*
X49785Y6998D01*
X49111Y7132D01*
G37*
%LPD*%
%LPC*%
G36*
X50799Y38099D02*
X50799Y38099D01*
X50799Y38101D01*
X50801Y38101D01*
X50801Y38099D01*
X50799Y38099D01*
G37*
%LPD*%
%LPC*%
G36*
X228599Y38099D02*
X228599Y38099D01*
X228599Y38101D01*
X228601Y38101D01*
X228601Y38099D01*
X228599Y38099D01*
G37*
%LPD*%
D10*
X122900Y69900D03*
X122900Y57200D03*
X122900Y44500D03*
X122900Y31800D03*
D11*
X167400Y60800D03*
X167400Y40800D03*
D12*
X220980Y38100D02*
X236220Y38100D01*
X236220Y63500D02*
X220980Y63500D01*
X58420Y38100D02*
X43180Y38100D01*
X43180Y63500D02*
X58420Y63500D01*
D13*
X50800Y88900D03*
X38100Y76200D03*
X38100Y25400D03*
X50800Y12700D03*
X228600Y88900D03*
X241300Y76200D03*
X241300Y25400D03*
X228600Y12700D03*
X127000Y88900D03*
X127000Y12700D03*
X152400Y12700D03*
X152400Y88900D03*
X190500Y88900D03*
X190500Y12700D03*
X88900Y88900D03*
X88900Y12700D03*
X133350Y38150D03*
D14*
X127000Y31800D02*
X122900Y31800D01*
X127000Y31800D02*
X133350Y38150D01*
X101600Y63500D02*
X50800Y63500D01*
X101600Y63500D02*
X101600Y69900D01*
X122900Y69900D01*
X101600Y63500D02*
X101600Y57200D01*
X122900Y57200D01*
X101600Y57200D02*
X101600Y44500D01*
X122900Y44500D01*
X122950Y57150D02*
X122900Y57200D01*
X122950Y57150D02*
X133350Y57150D01*
D13*
X133350Y57150D03*
D14*
X167400Y63500D02*
X196850Y63500D01*
X167400Y63500D02*
X167400Y60800D01*
D15*
X167400Y40800D01*
D13*
X196850Y63500D03*
D14*
X228600Y63500D01*
M02*
