M48
;GenerationSoftware,Autodesk,EAGLE,9.0.0*%
;CreationDate,2018-04-25T20:23:54Z*%
FMAT,2
ICI,OFF
METRIC,TZ,000.000
T2C0.400
T1C1.016
%
G90
M71
T1
X20890Y3731
X20890Y6271
X3110Y3731
X3110Y6271
T2
X11665Y4181
X8190Y5981
X15000Y2300
X1500Y5000
X22500Y5000
X3000Y9000
X21000Y9000
X21000Y1000
X3000Y1000
X7000Y9000
X7000Y1000
X17000Y9000
X17000Y1000
X11000Y9000
X13000Y9000
X11000Y1000
X13000Y1000
M30