G04 EAGLE Gerber X2 export*
G75*
%MOMM*%
%FSLAX35Y35*%
%LPD*%
%AMOC8*
5,1,8,0,0,1.08239X$1,22.5*%
G01*
%ADD10C,0.000000*%
%ADD11R,1.300000X1.500000*%
%ADD12R,1.450000X0.450000*%
%ADD13C,1.524000*%
%ADD14C,0.406400*%
%ADD15C,0.700000*%

G36*
X661977Y42206D02*
X661977Y42206D01*
X662508Y42213D01*
X662941Y42402D01*
X663404Y42496D01*
X663843Y42798D01*
X664331Y43011D01*
X664656Y43354D01*
X665045Y43622D01*
X665332Y44070D01*
X665698Y44457D01*
X665863Y44899D01*
X666118Y45298D01*
X666207Y45823D01*
X666393Y46322D01*
X666372Y46794D01*
X666451Y47260D01*
X666328Y47778D01*
X666305Y48309D01*
X666102Y48736D01*
X665993Y49196D01*
X665678Y49626D01*
X665449Y50106D01*
X665046Y50487D01*
X664816Y50800D01*
X664541Y50964D01*
X664231Y51257D01*
X661495Y53085D01*
X653084Y61496D01*
X646473Y71390D01*
X641921Y82381D01*
X640405Y90001D01*
X694998Y90001D01*
X695078Y90017D01*
X695158Y90003D01*
X696052Y90215D01*
X696948Y90397D01*
X697015Y90443D01*
X697095Y90461D01*
X697835Y91004D01*
X698590Y91522D01*
X698633Y91590D01*
X698699Y91638D01*
X699169Y92428D01*
X699662Y93198D01*
X699675Y93278D01*
X699717Y93348D01*
X699998Y95000D01*
X699998Y100002D01*
X700002Y100002D01*
X700002Y95000D01*
X700018Y94920D01*
X700004Y94840D01*
X700216Y93947D01*
X700398Y93050D01*
X700444Y92983D01*
X700463Y92904D01*
X701005Y92164D01*
X701523Y91409D01*
X701592Y91365D01*
X701640Y91299D01*
X702429Y90830D01*
X703199Y90337D01*
X703279Y90323D01*
X703349Y90281D01*
X705001Y90001D01*
X759595Y90001D01*
X758079Y82381D01*
X753527Y71390D01*
X746916Y61496D01*
X738504Y53085D01*
X735768Y51257D01*
X735393Y50879D01*
X734954Y50578D01*
X734699Y50179D01*
X734367Y49844D01*
X734169Y49350D01*
X733882Y48902D01*
X733803Y48435D01*
X733628Y47997D01*
X733638Y47465D01*
X733549Y46940D01*
X733658Y46480D01*
X733667Y46008D01*
X733884Y45521D01*
X734007Y45003D01*
X734286Y44623D01*
X734479Y44191D01*
X734869Y43828D01*
X735184Y43399D01*
X735591Y43157D01*
X735936Y42835D01*
X736436Y42654D01*
X736894Y42381D01*
X737442Y42288D01*
X737806Y42155D01*
X738125Y42172D01*
X738546Y42100D01*
X1061454Y42100D01*
X1061977Y42206D01*
X1062508Y42213D01*
X1062941Y42402D01*
X1063404Y42496D01*
X1063843Y42798D01*
X1064331Y43011D01*
X1064656Y43354D01*
X1065045Y43622D01*
X1065332Y44070D01*
X1065698Y44457D01*
X1065863Y44899D01*
X1066118Y45298D01*
X1066207Y45823D01*
X1066393Y46322D01*
X1066372Y46794D01*
X1066451Y47260D01*
X1066328Y47778D01*
X1066305Y48309D01*
X1066102Y48736D01*
X1065993Y49196D01*
X1065678Y49626D01*
X1065449Y50106D01*
X1065046Y50487D01*
X1064816Y50800D01*
X1064541Y50964D01*
X1064231Y51257D01*
X1061495Y53085D01*
X1053084Y61496D01*
X1046473Y71390D01*
X1041921Y82381D01*
X1040405Y90001D01*
X1094998Y90001D01*
X1095078Y90017D01*
X1095158Y90003D01*
X1096052Y90215D01*
X1096948Y90397D01*
X1097015Y90443D01*
X1097095Y90461D01*
X1097835Y91004D01*
X1098590Y91522D01*
X1098633Y91590D01*
X1098699Y91638D01*
X1099169Y92428D01*
X1099662Y93198D01*
X1099675Y93278D01*
X1099717Y93348D01*
X1099998Y95000D01*
X1099998Y104999D01*
X1099982Y105079D01*
X1099995Y105159D01*
X1099784Y106053D01*
X1099602Y106949D01*
X1099556Y107016D01*
X1099537Y107096D01*
X1098994Y107836D01*
X1098477Y108591D01*
X1098408Y108634D01*
X1098360Y108700D01*
X1097571Y109170D01*
X1096800Y109663D01*
X1096720Y109676D01*
X1096650Y109718D01*
X1094998Y109999D01*
X1040405Y109999D01*
X1041921Y117619D01*
X1046473Y128610D01*
X1053083Y138503D01*
X1057146Y142565D01*
X1057168Y142599D01*
X1057202Y142622D01*
X1057721Y143434D01*
X1058244Y144224D01*
X1058252Y144263D01*
X1058274Y144298D01*
X1058435Y145248D01*
X1058609Y146180D01*
X1058601Y146219D01*
X1058608Y146260D01*
X1058385Y147200D01*
X1058182Y148123D01*
X1058159Y148156D01*
X1058149Y148196D01*
X1057578Y148975D01*
X1057031Y149746D01*
X1056997Y149768D01*
X1056972Y149801D01*
X1056145Y150293D01*
X1055338Y150792D01*
X1055298Y150798D01*
X1055263Y150819D01*
X1053611Y151099D01*
X1031715Y151099D01*
X1019999Y162815D01*
X1019999Y200780D01*
X1019983Y200860D01*
X1019997Y200940D01*
X1019785Y201833D01*
X1019603Y202730D01*
X1019558Y202797D01*
X1019539Y202876D01*
X1018996Y203616D01*
X1018478Y204371D01*
X1018410Y204415D01*
X1018362Y204481D01*
X1017573Y204950D01*
X1016802Y205443D01*
X1016722Y205457D01*
X1016652Y205499D01*
X1015000Y205779D01*
X960298Y205779D01*
X936679Y229398D01*
X936679Y355600D01*
X936663Y355680D01*
X936677Y355760D01*
X936465Y356653D01*
X936283Y357550D01*
X936238Y357617D01*
X936219Y357696D01*
X935676Y358436D01*
X935158Y359191D01*
X935090Y359235D01*
X935042Y359301D01*
X934253Y359770D01*
X933482Y360263D01*
X933402Y360277D01*
X933332Y360319D01*
X931680Y360599D01*
X896215Y360599D01*
X884499Y372315D01*
X884499Y552780D01*
X884483Y552860D01*
X884497Y552940D01*
X884285Y553833D01*
X884103Y554730D01*
X884058Y554797D01*
X884039Y554876D01*
X883496Y555616D01*
X882978Y556371D01*
X882910Y556415D01*
X882862Y556481D01*
X882073Y556950D01*
X881302Y557443D01*
X881222Y557457D01*
X881152Y557499D01*
X879500Y557779D01*
X858533Y557779D01*
X858414Y557755D01*
X858293Y557774D01*
X857441Y557558D01*
X856583Y557383D01*
X856483Y557315D01*
X856364Y557285D01*
X854998Y556315D01*
X841782Y543099D01*
X796218Y543099D01*
X763999Y575318D01*
X763999Y620882D01*
X796218Y653100D01*
X841782Y653100D01*
X854998Y639885D01*
X855099Y639818D01*
X855171Y639719D01*
X855927Y639269D01*
X856657Y638786D01*
X856776Y638763D01*
X856881Y638701D01*
X858533Y638420D01*
X891965Y638420D01*
X892084Y638444D01*
X892205Y638426D01*
X893055Y638642D01*
X893915Y638816D01*
X894016Y638885D01*
X894133Y638915D01*
X895500Y639885D01*
X896215Y640600D01*
X1057785Y640600D01*
X1069500Y628885D01*
X1069500Y513420D01*
X1069517Y513340D01*
X1069503Y513260D01*
X1069714Y512366D01*
X1069896Y511470D01*
X1069942Y511403D01*
X1069961Y511323D01*
X1070504Y510583D01*
X1071022Y509828D01*
X1071090Y509785D01*
X1071138Y509719D01*
X1071927Y509249D01*
X1072698Y508756D01*
X1072778Y508743D01*
X1072848Y508701D01*
X1074500Y508420D01*
X1183201Y508420D01*
X1206820Y484801D01*
X1206820Y457633D01*
X1206844Y457514D01*
X1206826Y457393D01*
X1207042Y456541D01*
X1207216Y455683D01*
X1207285Y455583D01*
X1207315Y455464D01*
X1208285Y454098D01*
X1221500Y440882D01*
X1221500Y395318D01*
X1189282Y363099D01*
X1143718Y363099D01*
X1111499Y395318D01*
X1111499Y422780D01*
X1111483Y422860D01*
X1111497Y422940D01*
X1111285Y423833D01*
X1111103Y424730D01*
X1111058Y424797D01*
X1111039Y424876D01*
X1110496Y425616D01*
X1109978Y426371D01*
X1109910Y426415D01*
X1109862Y426481D01*
X1109073Y426950D01*
X1108302Y427443D01*
X1108222Y427457D01*
X1108152Y427499D01*
X1106500Y427779D01*
X1074500Y427779D01*
X1074420Y427763D01*
X1074340Y427777D01*
X1073446Y427565D01*
X1072550Y427383D01*
X1072483Y427338D01*
X1072403Y427319D01*
X1071663Y426776D01*
X1070908Y426258D01*
X1070865Y426190D01*
X1070799Y426142D01*
X1070329Y425353D01*
X1069836Y424582D01*
X1069823Y424502D01*
X1069781Y424432D01*
X1069500Y422780D01*
X1069500Y372315D01*
X1057785Y360599D01*
X1022320Y360599D01*
X1022240Y360583D01*
X1022160Y360597D01*
X1021266Y360385D01*
X1020370Y360203D01*
X1020303Y360158D01*
X1020223Y360139D01*
X1019483Y359596D01*
X1018728Y359078D01*
X1018685Y359010D01*
X1018619Y358962D01*
X1018149Y358173D01*
X1017656Y357402D01*
X1017643Y357322D01*
X1017601Y357252D01*
X1017320Y355600D01*
X1017320Y338775D01*
X1017328Y338735D01*
X1017321Y338695D01*
X1017526Y337763D01*
X1017716Y336825D01*
X1017739Y336791D01*
X1017748Y336751D01*
X1018299Y335974D01*
X1018842Y335183D01*
X1018876Y335162D01*
X1018899Y335128D01*
X1019705Y334631D01*
X1020518Y334111D01*
X1020558Y334104D01*
X1020593Y334083D01*
X1021535Y333938D01*
X1022480Y333778D01*
X1022519Y333787D01*
X1022560Y333781D01*
X1023483Y334015D01*
X1024416Y334236D01*
X1024449Y334260D01*
X1024488Y334270D01*
X1025855Y335240D01*
X1031715Y341100D01*
X1178285Y341100D01*
X1190000Y329385D01*
X1190000Y162815D01*
X1178285Y151099D01*
X1146389Y151099D01*
X1146349Y151091D01*
X1146309Y151099D01*
X1145378Y150894D01*
X1144439Y150703D01*
X1144405Y150680D01*
X1144366Y150672D01*
X1143590Y150122D01*
X1142798Y149578D01*
X1142776Y149543D01*
X1142743Y149520D01*
X1142243Y148712D01*
X1141726Y147902D01*
X1141719Y147861D01*
X1141698Y147827D01*
X1141553Y146885D01*
X1141392Y145940D01*
X1141402Y145901D01*
X1141395Y145860D01*
X1141629Y144937D01*
X1141850Y144004D01*
X1141875Y143970D01*
X1141885Y143931D01*
X1142854Y142565D01*
X1146916Y138503D01*
X1153527Y128610D01*
X1158079Y117619D01*
X1159595Y109999D01*
X1105001Y109999D01*
X1104922Y109983D01*
X1104841Y109996D01*
X1103948Y109785D01*
X1103051Y109603D01*
X1102984Y109557D01*
X1102905Y109538D01*
X1102165Y108995D01*
X1101410Y108478D01*
X1101366Y108409D01*
X1101301Y108361D01*
X1100831Y107572D01*
X1100338Y106801D01*
X1100324Y106721D01*
X1100283Y106651D01*
X1100002Y104999D01*
X1100002Y95000D01*
X1100018Y94920D01*
X1100004Y94840D01*
X1100216Y93947D01*
X1100398Y93050D01*
X1100444Y92983D01*
X1100463Y92904D01*
X1101005Y92164D01*
X1101523Y91409D01*
X1101592Y91365D01*
X1101640Y91299D01*
X1102429Y90830D01*
X1103199Y90337D01*
X1103279Y90323D01*
X1103349Y90281D01*
X1105001Y90001D01*
X1159595Y90001D01*
X1158079Y82381D01*
X1153527Y71390D01*
X1146916Y61496D01*
X1138504Y53085D01*
X1135768Y51257D01*
X1135393Y50879D01*
X1134954Y50578D01*
X1134699Y50179D01*
X1134367Y49844D01*
X1134169Y49350D01*
X1133882Y48902D01*
X1133803Y48435D01*
X1133628Y47997D01*
X1133638Y47465D01*
X1133549Y46940D01*
X1133658Y46480D01*
X1133667Y46008D01*
X1133884Y45521D01*
X1134007Y45003D01*
X1134286Y44623D01*
X1134479Y44191D01*
X1134869Y43828D01*
X1135184Y43399D01*
X1135591Y43157D01*
X1135936Y42835D01*
X1136436Y42654D01*
X1136894Y42381D01*
X1137442Y42288D01*
X1137806Y42155D01*
X1138125Y42172D01*
X1138546Y42100D01*
X1261454Y42100D01*
X1261977Y42206D01*
X1262508Y42213D01*
X1262941Y42402D01*
X1263404Y42496D01*
X1263843Y42798D01*
X1264331Y43011D01*
X1264656Y43354D01*
X1265045Y43622D01*
X1265332Y44070D01*
X1265698Y44457D01*
X1265863Y44899D01*
X1266118Y45298D01*
X1266207Y45823D01*
X1266393Y46322D01*
X1266372Y46794D01*
X1266451Y47260D01*
X1266328Y47778D01*
X1266305Y48309D01*
X1266102Y48736D01*
X1265993Y49196D01*
X1265678Y49626D01*
X1265449Y50106D01*
X1265046Y50487D01*
X1264816Y50800D01*
X1264541Y50964D01*
X1264231Y51257D01*
X1261495Y53085D01*
X1253084Y61496D01*
X1246473Y71390D01*
X1241921Y82381D01*
X1240405Y90001D01*
X1294998Y90001D01*
X1295078Y90017D01*
X1295158Y90003D01*
X1296052Y90215D01*
X1296948Y90397D01*
X1297015Y90443D01*
X1297095Y90461D01*
X1297835Y91004D01*
X1298590Y91522D01*
X1298633Y91590D01*
X1298699Y91638D01*
X1299169Y92428D01*
X1299662Y93198D01*
X1299675Y93278D01*
X1299717Y93348D01*
X1299998Y95000D01*
X1299998Y104999D01*
X1299982Y105079D01*
X1299995Y105159D01*
X1299784Y106053D01*
X1299602Y106949D01*
X1299556Y107016D01*
X1299537Y107096D01*
X1298994Y107836D01*
X1298477Y108591D01*
X1298408Y108634D01*
X1298360Y108700D01*
X1297571Y109170D01*
X1296800Y109663D01*
X1296720Y109676D01*
X1296650Y109718D01*
X1294998Y109999D01*
X1240405Y109999D01*
X1241921Y117619D01*
X1246473Y128610D01*
X1253083Y138503D01*
X1257146Y142565D01*
X1257168Y142599D01*
X1257202Y142622D01*
X1257721Y143434D01*
X1258244Y144224D01*
X1258252Y144263D01*
X1258274Y144298D01*
X1258435Y145248D01*
X1258609Y146180D01*
X1258601Y146219D01*
X1258608Y146260D01*
X1258385Y147200D01*
X1258182Y148123D01*
X1258159Y148156D01*
X1258149Y148196D01*
X1257578Y148975D01*
X1257031Y149746D01*
X1256997Y149768D01*
X1256972Y149801D01*
X1256145Y150293D01*
X1255338Y150792D01*
X1255298Y150798D01*
X1255263Y150819D01*
X1253611Y151099D01*
X1221715Y151099D01*
X1209999Y162815D01*
X1209999Y329385D01*
X1221715Y341100D01*
X1249680Y341100D01*
X1249760Y341117D01*
X1249840Y341103D01*
X1250733Y341314D01*
X1251630Y341496D01*
X1251697Y341542D01*
X1251776Y341561D01*
X1252516Y342104D01*
X1253271Y342622D01*
X1253315Y342690D01*
X1253381Y342738D01*
X1253850Y343527D01*
X1254343Y344298D01*
X1254357Y344378D01*
X1254399Y344448D01*
X1254679Y346100D01*
X1254679Y484801D01*
X1278298Y508420D01*
X1319500Y508420D01*
X1319580Y508437D01*
X1319660Y508423D01*
X1320553Y508634D01*
X1321450Y508816D01*
X1321517Y508862D01*
X1321596Y508881D01*
X1322336Y509424D01*
X1323091Y509942D01*
X1323135Y510010D01*
X1323201Y510058D01*
X1323670Y510847D01*
X1324163Y511618D01*
X1324177Y511698D01*
X1324219Y511768D01*
X1324499Y513420D01*
X1324499Y628885D01*
X1336215Y640600D01*
X1497785Y640600D01*
X1509500Y628885D01*
X1509500Y448420D01*
X1509517Y448340D01*
X1509503Y448260D01*
X1509714Y447366D01*
X1509896Y446470D01*
X1509942Y446403D01*
X1509961Y446323D01*
X1510504Y445583D01*
X1511022Y444828D01*
X1511090Y444785D01*
X1511138Y444719D01*
X1511927Y444249D01*
X1512698Y443756D01*
X1512778Y443743D01*
X1512848Y443701D01*
X1514500Y443420D01*
X1516701Y443420D01*
X1540320Y419801D01*
X1540320Y269533D01*
X1540344Y269414D01*
X1540326Y269293D01*
X1540542Y268441D01*
X1540716Y267583D01*
X1540785Y267483D01*
X1540815Y267364D01*
X1541785Y265998D01*
X1555000Y252782D01*
X1555000Y207218D01*
X1522782Y174999D01*
X1477218Y174999D01*
X1444999Y207218D01*
X1444999Y252782D01*
X1458215Y265998D01*
X1458282Y266099D01*
X1458381Y266171D01*
X1458831Y266927D01*
X1459314Y267657D01*
X1459336Y267776D01*
X1459399Y267881D01*
X1459679Y269533D01*
X1459679Y355600D01*
X1459663Y355680D01*
X1459677Y355760D01*
X1459465Y356653D01*
X1459283Y357550D01*
X1459238Y357617D01*
X1459219Y357696D01*
X1458676Y358436D01*
X1458158Y359191D01*
X1458090Y359235D01*
X1458042Y359301D01*
X1457253Y359770D01*
X1456482Y360263D01*
X1456402Y360277D01*
X1456332Y360319D01*
X1454680Y360599D01*
X1340320Y360599D01*
X1340240Y360583D01*
X1340160Y360597D01*
X1339266Y360385D01*
X1338370Y360203D01*
X1338303Y360158D01*
X1338223Y360139D01*
X1337483Y359596D01*
X1336728Y359078D01*
X1336685Y359010D01*
X1336619Y358962D01*
X1336149Y358173D01*
X1335656Y357402D01*
X1335643Y357322D01*
X1335601Y357252D01*
X1335320Y355600D01*
X1335320Y346100D01*
X1335337Y346020D01*
X1335323Y345940D01*
X1335534Y345046D01*
X1335716Y344150D01*
X1335762Y344083D01*
X1335781Y344003D01*
X1336324Y343263D01*
X1336842Y342508D01*
X1336910Y342465D01*
X1336958Y342399D01*
X1337747Y341929D01*
X1338518Y341436D01*
X1338598Y341423D01*
X1338668Y341381D01*
X1340320Y341100D01*
X1368285Y341100D01*
X1380000Y329385D01*
X1380000Y162815D01*
X1368285Y151099D01*
X1346389Y151099D01*
X1346349Y151091D01*
X1346309Y151099D01*
X1345378Y150894D01*
X1344439Y150703D01*
X1344405Y150680D01*
X1344366Y150672D01*
X1343590Y150122D01*
X1342798Y149578D01*
X1342776Y149543D01*
X1342743Y149520D01*
X1342243Y148712D01*
X1341726Y147902D01*
X1341719Y147861D01*
X1341698Y147827D01*
X1341553Y146885D01*
X1341392Y145940D01*
X1341402Y145901D01*
X1341395Y145860D01*
X1341629Y144937D01*
X1341850Y144004D01*
X1341875Y143970D01*
X1341885Y143931D01*
X1342854Y142565D01*
X1346916Y138503D01*
X1353527Y128610D01*
X1358079Y117619D01*
X1359595Y109999D01*
X1305001Y109999D01*
X1304922Y109983D01*
X1304841Y109996D01*
X1303948Y109785D01*
X1303051Y109603D01*
X1302984Y109557D01*
X1302905Y109538D01*
X1302165Y108995D01*
X1301410Y108478D01*
X1301366Y108409D01*
X1301301Y108361D01*
X1300831Y107572D01*
X1300338Y106801D01*
X1300324Y106721D01*
X1300283Y106651D01*
X1300002Y104999D01*
X1300002Y95000D01*
X1300018Y94920D01*
X1300004Y94840D01*
X1300216Y93947D01*
X1300398Y93050D01*
X1300444Y92983D01*
X1300463Y92904D01*
X1301005Y92164D01*
X1301523Y91409D01*
X1301592Y91365D01*
X1301640Y91299D01*
X1302429Y90830D01*
X1303199Y90337D01*
X1303279Y90323D01*
X1303349Y90281D01*
X1305001Y90001D01*
X1359595Y90001D01*
X1358079Y82381D01*
X1353527Y71390D01*
X1346916Y61496D01*
X1338504Y53085D01*
X1335768Y51257D01*
X1335393Y50879D01*
X1334954Y50578D01*
X1334699Y50179D01*
X1334367Y49844D01*
X1334169Y49350D01*
X1333882Y48902D01*
X1333803Y48435D01*
X1333628Y47997D01*
X1333638Y47465D01*
X1333549Y46940D01*
X1333658Y46480D01*
X1333667Y46008D01*
X1333884Y45521D01*
X1334007Y45003D01*
X1334286Y44623D01*
X1334479Y44191D01*
X1334869Y43828D01*
X1335184Y43399D01*
X1335591Y43157D01*
X1335936Y42835D01*
X1336436Y42654D01*
X1336894Y42381D01*
X1337442Y42288D01*
X1337806Y42155D01*
X1338125Y42172D01*
X1338546Y42100D01*
X1661454Y42100D01*
X1661977Y42206D01*
X1662508Y42213D01*
X1662941Y42402D01*
X1663404Y42496D01*
X1663843Y42798D01*
X1664331Y43011D01*
X1664656Y43354D01*
X1665045Y43622D01*
X1665332Y44070D01*
X1665698Y44457D01*
X1665863Y44899D01*
X1666118Y45298D01*
X1666207Y45823D01*
X1666393Y46322D01*
X1666372Y46794D01*
X1666451Y47260D01*
X1666328Y47778D01*
X1666305Y48309D01*
X1666102Y48736D01*
X1665993Y49196D01*
X1665678Y49626D01*
X1665449Y50106D01*
X1665046Y50487D01*
X1664816Y50800D01*
X1664541Y50964D01*
X1664231Y51257D01*
X1661495Y53085D01*
X1653084Y61496D01*
X1646473Y71390D01*
X1641921Y82381D01*
X1640405Y90001D01*
X1694998Y90001D01*
X1695078Y90017D01*
X1695158Y90003D01*
X1696052Y90215D01*
X1696948Y90397D01*
X1697015Y90443D01*
X1697095Y90461D01*
X1697835Y91004D01*
X1698590Y91522D01*
X1698633Y91590D01*
X1698699Y91638D01*
X1699169Y92428D01*
X1699662Y93198D01*
X1699675Y93278D01*
X1699717Y93348D01*
X1699998Y95000D01*
X1699998Y100002D01*
X1700002Y100002D01*
X1700002Y95000D01*
X1700018Y94920D01*
X1700004Y94840D01*
X1700216Y93947D01*
X1700398Y93050D01*
X1700444Y92983D01*
X1700463Y92904D01*
X1701005Y92164D01*
X1701523Y91409D01*
X1701592Y91365D01*
X1701640Y91299D01*
X1702429Y90830D01*
X1703199Y90337D01*
X1703279Y90323D01*
X1703349Y90281D01*
X1705001Y90001D01*
X1759595Y90001D01*
X1758079Y82381D01*
X1753527Y71390D01*
X1746916Y61496D01*
X1738504Y53085D01*
X1735768Y51257D01*
X1735393Y50879D01*
X1734954Y50578D01*
X1734699Y50179D01*
X1734367Y49844D01*
X1734169Y49350D01*
X1733882Y48902D01*
X1733803Y48435D01*
X1733628Y47997D01*
X1733638Y47465D01*
X1733549Y46940D01*
X1733658Y46480D01*
X1733667Y46008D01*
X1733884Y45521D01*
X1734007Y45003D01*
X1734286Y44623D01*
X1734479Y44191D01*
X1734869Y43828D01*
X1735184Y43399D01*
X1735591Y43157D01*
X1735936Y42835D01*
X1736436Y42654D01*
X1736894Y42381D01*
X1737442Y42288D01*
X1737806Y42155D01*
X1738125Y42172D01*
X1738546Y42100D01*
X2061454Y42100D01*
X2061977Y42206D01*
X2062508Y42213D01*
X2062941Y42402D01*
X2063404Y42496D01*
X2063843Y42798D01*
X2064331Y43011D01*
X2064656Y43354D01*
X2065045Y43622D01*
X2065332Y44070D01*
X2065698Y44457D01*
X2065863Y44899D01*
X2066118Y45298D01*
X2066207Y45823D01*
X2066393Y46322D01*
X2066372Y46794D01*
X2066451Y47260D01*
X2066328Y47778D01*
X2066305Y48309D01*
X2066102Y48736D01*
X2065993Y49196D01*
X2065678Y49626D01*
X2065449Y50106D01*
X2065046Y50487D01*
X2064816Y50800D01*
X2064541Y50964D01*
X2064231Y51257D01*
X2061495Y53085D01*
X2053084Y61496D01*
X2046473Y71390D01*
X2041921Y82381D01*
X2040405Y90001D01*
X2094998Y90001D01*
X2095078Y90017D01*
X2095158Y90003D01*
X2096052Y90215D01*
X2096948Y90397D01*
X2097015Y90443D01*
X2097095Y90461D01*
X2097835Y91004D01*
X2098590Y91522D01*
X2098633Y91590D01*
X2098699Y91638D01*
X2099169Y92428D01*
X2099662Y93198D01*
X2099675Y93278D01*
X2099717Y93348D01*
X2099998Y95000D01*
X2099998Y100002D01*
X2100002Y100002D01*
X2100002Y95000D01*
X2100018Y94920D01*
X2100004Y94840D01*
X2100216Y93947D01*
X2100398Y93050D01*
X2100444Y92983D01*
X2100463Y92904D01*
X2101005Y92164D01*
X2101523Y91409D01*
X2101592Y91365D01*
X2101640Y91299D01*
X2102429Y90830D01*
X2103199Y90337D01*
X2103279Y90323D01*
X2103349Y90281D01*
X2105001Y90001D01*
X2159595Y90001D01*
X2158079Y82381D01*
X2153527Y71390D01*
X2147671Y62626D01*
X2147543Y62314D01*
X2147337Y62047D01*
X2147169Y61401D01*
X2146917Y60784D01*
X2146921Y60447D01*
X2146836Y60121D01*
X2146933Y59462D01*
X2146940Y58795D01*
X2147076Y58485D01*
X2147125Y58152D01*
X2147471Y57583D01*
X2147738Y56972D01*
X2147984Y56740D01*
X2148159Y56452D01*
X2148700Y56063D01*
X2149184Y55605D01*
X2149500Y55487D01*
X2149774Y55290D01*
X2150424Y55143D01*
X2151049Y54910D01*
X2151386Y54925D01*
X2151715Y54850D01*
X2152580Y54978D01*
X2153037Y54998D01*
X2153179Y55065D01*
X2153373Y55094D01*
X2180889Y64035D01*
X2181170Y64193D01*
X2182283Y64745D01*
X2232653Y101341D01*
X2232870Y101578D01*
X2233759Y102447D01*
X2270355Y152817D01*
X2270490Y153113D01*
X2271065Y154211D01*
X2290305Y213424D01*
X2290356Y213869D01*
X2290534Y214577D01*
X2292984Y245708D01*
X2292963Y245883D01*
X2292999Y246100D01*
X2292999Y446735D01*
X2292890Y447276D01*
X2292878Y447828D01*
X2292693Y448241D01*
X2292603Y448685D01*
X2292291Y449140D01*
X2292066Y449644D01*
X2291734Y449953D01*
X2291478Y450326D01*
X2291013Y450624D01*
X2290609Y451000D01*
X2290183Y451154D01*
X2289802Y451398D01*
X2289258Y451491D01*
X2288739Y451679D01*
X2288287Y451656D01*
X2287840Y451732D01*
X2287302Y451605D01*
X2286752Y451576D01*
X2286270Y451360D01*
X2285904Y451274D01*
X2285634Y451076D01*
X2285223Y450892D01*
X2278610Y446473D01*
X2267619Y441921D01*
X2259999Y440405D01*
X2259999Y494998D01*
X2259983Y495078D01*
X2259996Y495158D01*
X2259785Y496052D01*
X2259603Y496948D01*
X2259557Y497015D01*
X2259538Y497095D01*
X2258995Y497835D01*
X2258478Y498590D01*
X2258409Y498633D01*
X2258361Y498699D01*
X2257572Y499169D01*
X2256801Y499662D01*
X2256721Y499675D01*
X2256651Y499717D01*
X2254999Y499998D01*
X2249998Y499998D01*
X2249998Y500002D01*
X2254999Y500002D01*
X2255079Y500018D01*
X2255159Y500004D01*
X2256053Y500216D01*
X2256949Y500398D01*
X2257016Y500444D01*
X2257096Y500463D01*
X2257836Y501005D01*
X2258591Y501523D01*
X2258634Y501592D01*
X2258700Y501640D01*
X2259170Y502429D01*
X2259663Y503199D01*
X2259676Y503279D01*
X2259718Y503349D01*
X2259999Y505001D01*
X2259999Y559595D01*
X2267619Y558079D01*
X2278610Y553527D01*
X2285223Y549108D01*
X2285733Y548899D01*
X2286198Y548601D01*
X2286645Y548525D01*
X2287064Y548354D01*
X2287616Y548360D01*
X2288160Y548268D01*
X2288601Y548372D01*
X2289053Y548378D01*
X2289559Y548599D01*
X2290096Y548726D01*
X2290462Y548994D01*
X2290876Y549176D01*
X2291255Y549576D01*
X2291701Y549903D01*
X2291933Y550293D01*
X2292243Y550622D01*
X2292436Y551138D01*
X2292719Y551613D01*
X2292807Y552134D01*
X2292938Y552486D01*
X2292924Y552820D01*
X2292999Y553265D01*
X2292999Y754100D01*
X2292964Y754273D01*
X2292984Y754492D01*
X2290534Y785623D01*
X2290411Y786053D01*
X2290305Y786775D01*
X2271065Y845989D01*
X2270906Y846271D01*
X2270355Y847383D01*
X2233759Y897753D01*
X2233521Y897970D01*
X2232653Y898859D01*
X2182283Y935455D01*
X2181987Y935590D01*
X2180889Y936165D01*
X2153202Y945161D01*
X2152867Y945199D01*
X2152553Y945325D01*
X2151886Y945312D01*
X2151224Y945387D01*
X2150901Y945292D01*
X2150564Y945285D01*
X2149955Y945013D01*
X2149316Y944824D01*
X2149056Y944610D01*
X2148748Y944473D01*
X2148293Y943984D01*
X2147778Y943561D01*
X2147622Y943263D01*
X2147392Y943016D01*
X2147164Y942389D01*
X2146855Y941799D01*
X2146828Y941463D01*
X2146712Y941146D01*
X2146747Y940481D01*
X2146692Y939815D01*
X2146798Y939494D01*
X2146816Y939158D01*
X2147172Y938361D01*
X2147316Y937926D01*
X2147420Y937807D01*
X2147500Y937629D01*
X2153527Y928610D01*
X2158079Y917619D01*
X2159595Y909999D01*
X2105001Y909999D01*
X2104922Y909983D01*
X2104841Y909996D01*
X2103948Y909785D01*
X2103051Y909603D01*
X2102984Y909557D01*
X2102905Y909538D01*
X2102165Y908995D01*
X2101410Y908478D01*
X2101366Y908409D01*
X2101301Y908361D01*
X2100831Y907572D01*
X2100338Y906801D01*
X2100324Y906721D01*
X2100283Y906651D01*
X2100002Y904999D01*
X2100002Y899998D01*
X2099998Y899998D01*
X2099998Y904999D01*
X2099982Y905079D01*
X2099995Y905159D01*
X2099784Y906053D01*
X2099602Y906949D01*
X2099556Y907016D01*
X2099537Y907096D01*
X2098994Y907836D01*
X2098477Y908591D01*
X2098408Y908634D01*
X2098360Y908700D01*
X2097571Y909170D01*
X2096800Y909663D01*
X2096720Y909676D01*
X2096650Y909718D01*
X2094998Y909999D01*
X2040405Y909999D01*
X2041921Y917619D01*
X2046473Y928610D01*
X2053084Y938504D01*
X2061495Y946915D01*
X2064531Y948943D01*
X2064906Y949321D01*
X2065345Y949622D01*
X2065600Y950020D01*
X2065932Y950356D01*
X2066130Y950849D01*
X2066417Y951298D01*
X2066496Y951765D01*
X2066672Y952203D01*
X2066661Y952735D01*
X2066750Y953260D01*
X2066642Y953720D01*
X2066632Y954192D01*
X2066415Y954678D01*
X2066292Y955196D01*
X2066013Y955577D01*
X2065820Y956009D01*
X2065430Y956372D01*
X2065115Y956801D01*
X2064708Y957043D01*
X2064363Y957364D01*
X2063863Y957546D01*
X2063405Y957819D01*
X2062857Y957912D01*
X2062493Y958044D01*
X2062174Y958028D01*
X2061753Y958099D01*
X1738246Y958099D01*
X1737724Y957993D01*
X1737192Y957987D01*
X1736760Y957798D01*
X1736296Y957703D01*
X1735857Y957402D01*
X1735369Y957189D01*
X1735045Y956845D01*
X1734655Y956578D01*
X1734368Y956129D01*
X1734003Y955743D01*
X1733838Y955300D01*
X1733583Y954902D01*
X1733493Y954377D01*
X1733308Y953878D01*
X1733328Y953406D01*
X1733249Y952940D01*
X1733372Y952422D01*
X1733395Y951890D01*
X1733599Y951464D01*
X1733708Y951004D01*
X1734023Y950574D01*
X1734252Y950094D01*
X1734655Y949713D01*
X1734885Y949399D01*
X1735159Y949236D01*
X1735469Y948943D01*
X1738504Y946915D01*
X1746916Y938504D01*
X1753527Y928610D01*
X1758079Y917619D01*
X1759595Y909999D01*
X1705001Y909999D01*
X1704922Y909983D01*
X1704841Y909996D01*
X1703948Y909785D01*
X1703051Y909603D01*
X1702984Y909557D01*
X1702905Y909538D01*
X1702165Y908995D01*
X1701410Y908478D01*
X1701366Y908409D01*
X1701301Y908361D01*
X1700831Y907572D01*
X1700338Y906801D01*
X1700324Y906721D01*
X1700283Y906651D01*
X1700002Y904999D01*
X1700002Y899998D01*
X1699998Y899998D01*
X1699998Y904999D01*
X1699982Y905079D01*
X1699995Y905159D01*
X1699784Y906053D01*
X1699602Y906949D01*
X1699556Y907016D01*
X1699537Y907096D01*
X1698994Y907836D01*
X1698477Y908591D01*
X1698408Y908634D01*
X1698360Y908700D01*
X1697571Y909170D01*
X1696800Y909663D01*
X1696720Y909676D01*
X1696650Y909718D01*
X1694998Y909999D01*
X1640405Y909999D01*
X1641921Y917619D01*
X1646473Y928610D01*
X1653084Y938504D01*
X1661497Y946916D01*
X1664530Y948943D01*
X1664905Y949320D01*
X1665344Y949622D01*
X1665599Y950021D01*
X1665932Y950356D01*
X1666129Y950849D01*
X1666417Y951298D01*
X1666496Y951765D01*
X1666671Y952203D01*
X1666661Y952734D01*
X1666750Y953260D01*
X1666641Y953721D01*
X1666632Y954193D01*
X1666415Y954678D01*
X1666292Y955196D01*
X1666012Y955578D01*
X1665819Y956009D01*
X1665430Y956371D01*
X1665115Y956801D01*
X1664708Y957043D01*
X1664363Y957364D01*
X1663863Y957546D01*
X1663405Y957819D01*
X1662857Y957912D01*
X1662493Y958044D01*
X1662174Y958028D01*
X1661753Y958099D01*
X1338246Y958099D01*
X1337724Y957993D01*
X1337192Y957987D01*
X1336760Y957798D01*
X1336296Y957703D01*
X1335857Y957402D01*
X1335369Y957189D01*
X1335045Y956845D01*
X1334655Y956578D01*
X1334368Y956129D01*
X1334003Y955743D01*
X1333838Y955300D01*
X1333583Y954902D01*
X1333493Y954377D01*
X1333308Y953878D01*
X1333328Y953406D01*
X1333249Y952940D01*
X1333372Y952422D01*
X1333395Y951890D01*
X1333599Y951464D01*
X1333708Y951004D01*
X1334023Y950574D01*
X1334252Y950094D01*
X1334655Y949713D01*
X1334885Y949399D01*
X1335159Y949236D01*
X1335469Y948943D01*
X1338504Y946915D01*
X1346916Y938504D01*
X1353527Y928610D01*
X1358079Y917619D01*
X1359595Y909999D01*
X1305001Y909999D01*
X1304922Y909983D01*
X1304841Y909996D01*
X1303948Y909785D01*
X1303051Y909603D01*
X1302984Y909557D01*
X1302905Y909538D01*
X1302165Y908995D01*
X1301410Y908478D01*
X1301366Y908409D01*
X1301301Y908361D01*
X1300831Y907572D01*
X1300338Y906801D01*
X1300324Y906721D01*
X1300283Y906651D01*
X1300002Y904999D01*
X1300002Y899998D01*
X1299998Y899998D01*
X1299998Y904999D01*
X1299982Y905079D01*
X1299995Y905159D01*
X1299784Y906053D01*
X1299602Y906949D01*
X1299556Y907016D01*
X1299537Y907096D01*
X1298994Y907836D01*
X1298477Y908591D01*
X1298408Y908634D01*
X1298360Y908700D01*
X1297571Y909170D01*
X1296800Y909663D01*
X1296720Y909676D01*
X1296650Y909718D01*
X1294998Y909999D01*
X1240405Y909999D01*
X1241921Y917619D01*
X1246473Y928610D01*
X1253084Y938504D01*
X1261495Y946915D01*
X1264531Y948943D01*
X1264906Y949321D01*
X1265345Y949622D01*
X1265600Y950020D01*
X1265932Y950356D01*
X1266130Y950849D01*
X1266417Y951298D01*
X1266496Y951765D01*
X1266672Y952203D01*
X1266661Y952735D01*
X1266750Y953260D01*
X1266642Y953720D01*
X1266632Y954192D01*
X1266415Y954678D01*
X1266292Y955196D01*
X1266013Y955577D01*
X1265820Y956009D01*
X1265430Y956372D01*
X1265115Y956801D01*
X1264708Y957043D01*
X1264363Y957364D01*
X1263863Y957546D01*
X1263405Y957819D01*
X1262857Y957912D01*
X1262493Y958044D01*
X1262174Y958028D01*
X1261753Y958099D01*
X1138246Y958099D01*
X1137724Y957993D01*
X1137192Y957987D01*
X1136760Y957798D01*
X1136296Y957703D01*
X1135857Y957402D01*
X1135369Y957189D01*
X1135045Y956845D01*
X1134655Y956578D01*
X1134368Y956129D01*
X1134003Y955743D01*
X1133838Y955300D01*
X1133583Y954902D01*
X1133493Y954377D01*
X1133308Y953878D01*
X1133328Y953406D01*
X1133249Y952940D01*
X1133372Y952422D01*
X1133395Y951890D01*
X1133599Y951464D01*
X1133708Y951004D01*
X1134023Y950574D01*
X1134252Y950094D01*
X1134655Y949713D01*
X1134885Y949399D01*
X1135159Y949236D01*
X1135469Y948943D01*
X1138504Y946915D01*
X1146916Y938504D01*
X1153527Y928610D01*
X1158079Y917619D01*
X1159595Y909999D01*
X1105001Y909999D01*
X1104922Y909983D01*
X1104841Y909996D01*
X1103948Y909785D01*
X1103051Y909603D01*
X1102984Y909557D01*
X1102905Y909538D01*
X1102165Y908995D01*
X1101410Y908478D01*
X1101366Y908409D01*
X1101301Y908361D01*
X1100831Y907572D01*
X1100338Y906801D01*
X1100324Y906721D01*
X1100283Y906651D01*
X1100002Y904999D01*
X1100002Y899998D01*
X1099998Y899998D01*
X1099998Y904999D01*
X1099982Y905079D01*
X1099995Y905159D01*
X1099784Y906053D01*
X1099602Y906949D01*
X1099556Y907016D01*
X1099537Y907096D01*
X1098994Y907836D01*
X1098477Y908591D01*
X1098408Y908634D01*
X1098360Y908700D01*
X1097571Y909170D01*
X1096800Y909663D01*
X1096720Y909676D01*
X1096650Y909718D01*
X1094998Y909999D01*
X1040405Y909999D01*
X1041921Y917619D01*
X1046473Y928610D01*
X1053084Y938504D01*
X1061495Y946915D01*
X1064531Y948943D01*
X1064906Y949321D01*
X1065345Y949622D01*
X1065600Y950020D01*
X1065932Y950356D01*
X1066130Y950849D01*
X1066417Y951298D01*
X1066496Y951765D01*
X1066672Y952203D01*
X1066661Y952735D01*
X1066750Y953260D01*
X1066642Y953720D01*
X1066632Y954192D01*
X1066415Y954678D01*
X1066292Y955196D01*
X1066013Y955577D01*
X1065820Y956009D01*
X1065430Y956372D01*
X1065115Y956801D01*
X1064708Y957043D01*
X1064363Y957364D01*
X1063863Y957546D01*
X1063405Y957819D01*
X1062857Y957912D01*
X1062493Y958044D01*
X1062174Y958028D01*
X1061753Y958099D01*
X738246Y958099D01*
X737724Y957993D01*
X737192Y957987D01*
X736760Y957798D01*
X736296Y957703D01*
X735857Y957402D01*
X735369Y957189D01*
X735045Y956845D01*
X734655Y956578D01*
X734368Y956129D01*
X734003Y955743D01*
X733838Y955300D01*
X733583Y954902D01*
X733493Y954377D01*
X733308Y953878D01*
X733328Y953406D01*
X733249Y952940D01*
X733372Y952422D01*
X733395Y951890D01*
X733599Y951464D01*
X733708Y951004D01*
X734023Y950574D01*
X734252Y950094D01*
X734655Y949713D01*
X734885Y949399D01*
X735159Y949236D01*
X735469Y948943D01*
X738504Y946915D01*
X746916Y938504D01*
X753527Y928610D01*
X758079Y917619D01*
X759595Y909999D01*
X705001Y909999D01*
X704922Y909983D01*
X704841Y909996D01*
X703948Y909785D01*
X703051Y909603D01*
X702984Y909557D01*
X702905Y909538D01*
X702165Y908995D01*
X701410Y908478D01*
X701366Y908409D01*
X701301Y908361D01*
X700831Y907572D01*
X700338Y906801D01*
X700324Y906721D01*
X700283Y906651D01*
X700002Y904999D01*
X700002Y899998D01*
X699998Y899998D01*
X699998Y904999D01*
X699982Y905079D01*
X699995Y905159D01*
X699784Y906053D01*
X699602Y906949D01*
X699556Y907016D01*
X699537Y907096D01*
X698994Y907836D01*
X698477Y908591D01*
X698408Y908634D01*
X698360Y908700D01*
X697571Y909170D01*
X696800Y909663D01*
X696720Y909676D01*
X696650Y909718D01*
X694998Y909999D01*
X640405Y909999D01*
X641921Y917619D01*
X646473Y928610D01*
X653084Y938504D01*
X661495Y946915D01*
X664531Y948943D01*
X664906Y949321D01*
X665345Y949622D01*
X665600Y950020D01*
X665932Y950356D01*
X666130Y950849D01*
X666417Y951298D01*
X666496Y951765D01*
X666672Y952203D01*
X666661Y952735D01*
X666750Y953260D01*
X666642Y953720D01*
X666632Y954192D01*
X666415Y954678D01*
X666292Y955196D01*
X666013Y955577D01*
X665820Y956009D01*
X665430Y956372D01*
X665115Y956801D01*
X664708Y957043D01*
X664363Y957364D01*
X663863Y957546D01*
X663405Y957819D01*
X662857Y957912D01*
X662493Y958044D01*
X662174Y958028D01*
X661753Y958099D01*
X338246Y958099D01*
X337724Y957993D01*
X337192Y957987D01*
X336760Y957798D01*
X336296Y957703D01*
X335857Y957402D01*
X335369Y957189D01*
X335045Y956845D01*
X334655Y956578D01*
X334368Y956129D01*
X334003Y955743D01*
X333838Y955300D01*
X333583Y954902D01*
X333493Y954377D01*
X333308Y953878D01*
X333328Y953406D01*
X333249Y952940D01*
X333372Y952422D01*
X333395Y951890D01*
X333599Y951464D01*
X333708Y951004D01*
X334023Y950574D01*
X334252Y950094D01*
X334655Y949713D01*
X334885Y949399D01*
X335159Y949236D01*
X335469Y948943D01*
X338504Y946915D01*
X346916Y938504D01*
X353527Y928610D01*
X358079Y917619D01*
X359595Y909999D01*
X305001Y909999D01*
X304922Y909983D01*
X304841Y909996D01*
X303948Y909785D01*
X303051Y909603D01*
X302984Y909557D01*
X302905Y909538D01*
X302165Y908995D01*
X301410Y908478D01*
X301366Y908409D01*
X301301Y908361D01*
X300831Y907572D01*
X300338Y906801D01*
X300324Y906721D01*
X300283Y906651D01*
X300002Y904999D01*
X300002Y899998D01*
X299998Y899998D01*
X299998Y904999D01*
X299982Y905079D01*
X299995Y905159D01*
X299784Y906053D01*
X299602Y906949D01*
X299556Y907016D01*
X299537Y907096D01*
X298994Y907836D01*
X298477Y908591D01*
X298408Y908634D01*
X298360Y908700D01*
X297571Y909170D01*
X296800Y909663D01*
X296720Y909676D01*
X296650Y909718D01*
X294998Y909999D01*
X240405Y909999D01*
X241921Y917619D01*
X246473Y928610D01*
X252500Y937629D01*
X252628Y937941D01*
X252833Y938208D01*
X253002Y938853D01*
X253254Y939470D01*
X253250Y939808D01*
X253335Y940134D01*
X253238Y940793D01*
X253230Y941460D01*
X253095Y941769D01*
X253046Y942103D01*
X252699Y942673D01*
X252432Y943283D01*
X252188Y943514D01*
X252012Y943803D01*
X251470Y944193D01*
X250986Y944650D01*
X250670Y944768D01*
X250397Y944965D01*
X249747Y945112D01*
X249122Y945345D01*
X248785Y945330D01*
X248456Y945405D01*
X247591Y945278D01*
X247134Y945258D01*
X246991Y945190D01*
X246798Y945161D01*
X219111Y936165D01*
X218830Y936006D01*
X217717Y935455D01*
X167347Y898859D01*
X167129Y898621D01*
X166241Y897753D01*
X129645Y847383D01*
X129510Y847087D01*
X128935Y845989D01*
X109695Y786775D01*
X109644Y786331D01*
X109466Y785623D01*
X107016Y754492D01*
X107037Y754317D01*
X107000Y754100D01*
X107000Y553265D01*
X107110Y552724D01*
X107121Y552172D01*
X107306Y551759D01*
X107396Y551315D01*
X107708Y550859D01*
X107934Y550356D01*
X108265Y550047D01*
X108522Y549673D01*
X108987Y549376D01*
X109391Y549000D01*
X109816Y548845D01*
X110198Y548601D01*
X110742Y548509D01*
X111261Y548320D01*
X111713Y548344D01*
X112160Y548268D01*
X112698Y548395D01*
X113248Y548424D01*
X113730Y548639D01*
X114096Y548726D01*
X114365Y548923D01*
X114777Y549108D01*
X121390Y553527D01*
X132381Y558079D01*
X140001Y559595D01*
X140001Y505001D01*
X140017Y504922D01*
X140003Y504841D01*
X140215Y503948D01*
X140397Y503051D01*
X140443Y502984D01*
X140461Y502905D01*
X141004Y502165D01*
X141522Y501410D01*
X141590Y501366D01*
X141638Y501301D01*
X142428Y500831D01*
X143198Y500338D01*
X143278Y500324D01*
X143348Y500283D01*
X145000Y500002D01*
X150002Y500002D01*
X150002Y499998D01*
X145000Y499998D01*
X144920Y499982D01*
X144840Y499995D01*
X143947Y499784D01*
X143050Y499602D01*
X142983Y499556D01*
X142904Y499537D01*
X142164Y498994D01*
X141409Y498477D01*
X141365Y498408D01*
X141299Y498360D01*
X140830Y497571D01*
X140337Y496800D01*
X140323Y496720D01*
X140281Y496650D01*
X140001Y494998D01*
X140001Y440405D01*
X132381Y441921D01*
X121390Y446473D01*
X114777Y450892D01*
X114267Y451101D01*
X113802Y451398D01*
X113355Y451474D01*
X112936Y451646D01*
X112384Y451639D01*
X111840Y451732D01*
X111399Y451628D01*
X110946Y451622D01*
X110441Y451401D01*
X109903Y451274D01*
X109538Y451006D01*
X109123Y450824D01*
X108745Y450424D01*
X108299Y450097D01*
X108067Y449707D01*
X107756Y449378D01*
X107564Y448862D01*
X107281Y448387D01*
X107193Y447865D01*
X107061Y447514D01*
X107076Y447180D01*
X107000Y446735D01*
X107000Y246100D01*
X107035Y245927D01*
X107016Y245708D01*
X109466Y214577D01*
X109589Y214147D01*
X109695Y213424D01*
X128935Y154211D01*
X129094Y153929D01*
X129645Y152817D01*
X166241Y102447D01*
X166478Y102229D01*
X167347Y101341D01*
X217717Y64745D01*
X218013Y64610D01*
X219111Y64035D01*
X246627Y55094D01*
X246962Y55056D01*
X247275Y54930D01*
X247943Y54943D01*
X248604Y54868D01*
X248928Y54963D01*
X249265Y54970D01*
X249873Y55242D01*
X250513Y55431D01*
X250773Y55645D01*
X251081Y55783D01*
X251535Y56271D01*
X252051Y56694D01*
X252208Y56993D01*
X252437Y57239D01*
X252664Y57865D01*
X252974Y58456D01*
X253001Y58793D01*
X253117Y59109D01*
X253082Y59774D01*
X253137Y60439D01*
X253031Y60760D01*
X253013Y61097D01*
X252656Y61894D01*
X252513Y62329D01*
X252409Y62448D01*
X252329Y62626D01*
X246473Y71390D01*
X241921Y82381D01*
X240405Y90001D01*
X294998Y90001D01*
X295078Y90017D01*
X295158Y90003D01*
X296052Y90215D01*
X296948Y90397D01*
X297015Y90443D01*
X297095Y90461D01*
X297835Y91004D01*
X298590Y91522D01*
X298633Y91590D01*
X298699Y91638D01*
X299169Y92428D01*
X299662Y93198D01*
X299675Y93278D01*
X299717Y93348D01*
X299998Y95000D01*
X299998Y100002D01*
X300002Y100002D01*
X300002Y95000D01*
X300018Y94920D01*
X300004Y94840D01*
X300216Y93947D01*
X300398Y93050D01*
X300444Y92983D01*
X300463Y92904D01*
X301005Y92164D01*
X301523Y91409D01*
X301592Y91365D01*
X301640Y91299D01*
X302429Y90830D01*
X303199Y90337D01*
X303279Y90323D01*
X303349Y90281D01*
X305001Y90001D01*
X359595Y90001D01*
X358079Y82381D01*
X353527Y71390D01*
X346916Y61496D01*
X338504Y53085D01*
X335768Y51257D01*
X335393Y50879D01*
X334954Y50578D01*
X334699Y50179D01*
X334367Y49844D01*
X334169Y49350D01*
X333882Y48902D01*
X333803Y48435D01*
X333628Y47997D01*
X333638Y47465D01*
X333549Y46940D01*
X333658Y46480D01*
X333667Y46008D01*
X333884Y45521D01*
X334007Y45003D01*
X334286Y44623D01*
X334479Y44191D01*
X334869Y43828D01*
X335184Y43399D01*
X335591Y43157D01*
X335936Y42835D01*
X336436Y42654D01*
X336894Y42381D01*
X337442Y42288D01*
X337806Y42155D01*
X338125Y42172D01*
X338546Y42100D01*
X661454Y42100D01*
X661977Y42206D01*
G37*
%LPC*%
G36*
X159999Y509999D02*
X159999Y509999D01*
X159999Y563782D01*
X159975Y563901D01*
X159993Y564022D01*
X159777Y564874D01*
X159603Y565732D01*
X159534Y565833D01*
X159504Y565951D01*
X158534Y567317D01*
X153245Y572607D01*
X138599Y607964D01*
X138599Y646236D01*
X153245Y681593D01*
X180307Y708655D01*
X215664Y723300D01*
X406336Y723300D01*
X441693Y708655D01*
X468755Y681593D01*
X483400Y646236D01*
X483400Y607964D01*
X468755Y572607D01*
X441693Y545545D01*
X406336Y530899D01*
X215664Y530899D01*
X211019Y532824D01*
X210978Y532832D01*
X210944Y532854D01*
X210004Y533021D01*
X209065Y533204D01*
X209026Y533196D01*
X208985Y533203D01*
X208055Y532991D01*
X207119Y532793D01*
X207085Y532769D01*
X207045Y532760D01*
X206268Y532199D01*
X205487Y531654D01*
X205465Y531620D01*
X205432Y531596D01*
X204938Y530781D01*
X204428Y529970D01*
X204421Y529929D01*
X204400Y529894D01*
X204262Y528942D01*
X204110Y528005D01*
X204120Y527966D01*
X204114Y527925D01*
X204487Y526292D01*
X208079Y517619D01*
X209595Y509999D01*
X159999Y509999D01*
G37*
%LPD*%
%LPC*%
G36*
X2190405Y509999D02*
X2190405Y509999D01*
X2191921Y517619D01*
X2195513Y526292D01*
X2195521Y526332D01*
X2195543Y526366D01*
X2195711Y527308D01*
X2195893Y528245D01*
X2195885Y528285D01*
X2195892Y528325D01*
X2195678Y529263D01*
X2195482Y530192D01*
X2195459Y530225D01*
X2195450Y530265D01*
X2194887Y531046D01*
X2194344Y531824D01*
X2194309Y531845D01*
X2194285Y531879D01*
X2193458Y532380D01*
X2192659Y532883D01*
X2192619Y532889D01*
X2192584Y532910D01*
X2191630Y533049D01*
X2190695Y533200D01*
X2190655Y533191D01*
X2190615Y533197D01*
X2188981Y532824D01*
X2184335Y530899D01*
X1993664Y530899D01*
X1958307Y545545D01*
X1931245Y572607D01*
X1916599Y607964D01*
X1916599Y646236D01*
X1931245Y681593D01*
X1958307Y708655D01*
X1993664Y723300D01*
X2184336Y723300D01*
X2219693Y708655D01*
X2246755Y681593D01*
X2261400Y646236D01*
X2261400Y607964D01*
X2246755Y572607D01*
X2241465Y567318D01*
X2241398Y567216D01*
X2241299Y567144D01*
X2240850Y566389D01*
X2240366Y565658D01*
X2240344Y565539D01*
X2240281Y565434D01*
X2240001Y563782D01*
X2240001Y509999D01*
X2190405Y509999D01*
G37*
%LPD*%
%LPC*%
G36*
X2098999Y383099D02*
X2098999Y383099D01*
X2098999Y474700D01*
X2173196Y474700D01*
X2187823Y472384D01*
X2188278Y472403D01*
X2188726Y472324D01*
X2189261Y472446D01*
X2189811Y472470D01*
X2190222Y472665D01*
X2190666Y472766D01*
X2191112Y473088D01*
X2191608Y473324D01*
X2191910Y473665D01*
X2192279Y473931D01*
X2192564Y474401D01*
X2192929Y474813D01*
X2193075Y475244D01*
X2193311Y475633D01*
X2193390Y476177D01*
X2193566Y476698D01*
X2193532Y477151D01*
X2193597Y477602D01*
X2193448Y478252D01*
X2193416Y478682D01*
X2193298Y478911D01*
X2193224Y479235D01*
X2191921Y482382D01*
X2190405Y490001D01*
X2240001Y490001D01*
X2240001Y444054D01*
X2240025Y443935D01*
X2240006Y443814D01*
X2240223Y442962D01*
X2240397Y442104D01*
X2240466Y442004D01*
X2240496Y441885D01*
X2241465Y440519D01*
X2242696Y439289D01*
X2252097Y426350D01*
X2259356Y412102D01*
X2264299Y396891D01*
X2266483Y383099D01*
X2098999Y383099D01*
G37*
%LPD*%
%LPC*%
G36*
X133517Y383099D02*
X133517Y383099D01*
X135701Y396891D01*
X140643Y412102D01*
X147903Y426350D01*
X157304Y439289D01*
X158534Y440519D01*
X158601Y440620D01*
X158700Y440693D01*
X159150Y441449D01*
X159633Y442178D01*
X159656Y442298D01*
X159718Y442403D01*
X159999Y444054D01*
X159999Y490001D01*
X209595Y490001D01*
X208079Y482382D01*
X206776Y479235D01*
X206689Y478788D01*
X206507Y478372D01*
X206500Y477821D01*
X206395Y477282D01*
X206489Y476838D01*
X206484Y476382D01*
X206693Y475873D01*
X206807Y475335D01*
X207067Y474962D01*
X207239Y474541D01*
X207630Y474154D01*
X207945Y473703D01*
X208330Y473461D01*
X208653Y473141D01*
X209165Y472936D01*
X209630Y472644D01*
X210078Y472572D01*
X210501Y472403D01*
X211169Y472395D01*
X211594Y472326D01*
X211844Y472388D01*
X212177Y472384D01*
X226803Y474700D01*
X301001Y474700D01*
X301001Y383099D01*
X133517Y383099D01*
G37*
%LPD*%
%LPC*%
G36*
X320999Y383099D02*
X320999Y383099D01*
X320999Y474700D01*
X395196Y474700D01*
X410991Y472199D01*
X426202Y467256D01*
X440450Y459997D01*
X453389Y450596D01*
X464696Y439289D01*
X474097Y426350D01*
X481356Y412102D01*
X486299Y396891D01*
X488483Y383099D01*
X320999Y383099D01*
G37*
%LPD*%
%LPC*%
G36*
X1911517Y383099D02*
X1911517Y383099D01*
X1913701Y396891D01*
X1918643Y412102D01*
X1925903Y426350D01*
X1935304Y439289D01*
X1946611Y450596D01*
X1959550Y459997D01*
X1973798Y467256D01*
X1989008Y472199D01*
X2004803Y474700D01*
X2079001Y474700D01*
X2079001Y383099D01*
X1911517Y383099D01*
G37*
%LPD*%
%LPC*%
G36*
X2098999Y271499D02*
X2098999Y271499D01*
X2098999Y363101D01*
X2266483Y363101D01*
X2264299Y349308D01*
X2259356Y334098D01*
X2252097Y319850D01*
X2242696Y306911D01*
X2231389Y295604D01*
X2218450Y286203D01*
X2204202Y278943D01*
X2188991Y274001D01*
X2173196Y271499D01*
X2098999Y271499D01*
G37*
%LPD*%
%LPC*%
G36*
X320999Y271499D02*
X320999Y271499D01*
X320999Y363101D01*
X488483Y363101D01*
X486299Y349308D01*
X481356Y334098D01*
X474097Y319850D01*
X464696Y306911D01*
X453389Y295604D01*
X440450Y286203D01*
X426202Y278943D01*
X410991Y274001D01*
X395196Y271499D01*
X320999Y271499D01*
G37*
%LPD*%
%LPC*%
G36*
X2004803Y271499D02*
X2004803Y271499D01*
X1989008Y274001D01*
X1973798Y278943D01*
X1959550Y286203D01*
X1946611Y295604D01*
X1935304Y306911D01*
X1925903Y319850D01*
X1918643Y334098D01*
X1913701Y349308D01*
X1911517Y363101D01*
X2079001Y363101D01*
X2079001Y271499D01*
X2004803Y271499D01*
G37*
%LPD*%
%LPC*%
G36*
X226803Y271499D02*
X226803Y271499D01*
X211008Y274001D01*
X195798Y278943D01*
X181550Y286203D01*
X168611Y295604D01*
X157304Y306911D01*
X147903Y319850D01*
X140643Y334098D01*
X135701Y349308D01*
X133517Y363101D01*
X301001Y363101D01*
X301001Y271499D01*
X226803Y271499D01*
G37*
%LPD*%
%LPC*%
G36*
X309999Y109999D02*
X309999Y109999D01*
X309999Y159595D01*
X317619Y158079D01*
X328610Y153527D01*
X338504Y146916D01*
X346916Y138504D01*
X353527Y128610D01*
X358079Y117619D01*
X359595Y109999D01*
X309999Y109999D01*
G37*
%LPD*%
%LPC*%
G36*
X2109999Y109999D02*
X2109999Y109999D01*
X2109999Y159595D01*
X2117619Y158079D01*
X2128610Y153527D01*
X2138504Y146916D01*
X2146916Y138504D01*
X2153527Y128610D01*
X2158079Y117619D01*
X2159595Y109999D01*
X2109999Y109999D01*
G37*
%LPD*%
%LPC*%
G36*
X709999Y109999D02*
X709999Y109999D01*
X709999Y159595D01*
X717619Y158079D01*
X728610Y153527D01*
X738504Y146916D01*
X746916Y138504D01*
X753527Y128610D01*
X758079Y117619D01*
X759595Y109999D01*
X709999Y109999D01*
G37*
%LPD*%
%LPC*%
G36*
X1709999Y109999D02*
X1709999Y109999D01*
X1709999Y159595D01*
X1717619Y158079D01*
X1728610Y153527D01*
X1738504Y146916D01*
X1746916Y138504D01*
X1753527Y128610D01*
X1758079Y117619D01*
X1759595Y109999D01*
X1709999Y109999D01*
G37*
%LPD*%
%LPC*%
G36*
X2109999Y890001D02*
X2109999Y890001D01*
X2159595Y890001D01*
X2158079Y882381D01*
X2153527Y871390D01*
X2146916Y861496D01*
X2138504Y853084D01*
X2128610Y846473D01*
X2117619Y841921D01*
X2109999Y840405D01*
X2109999Y890001D01*
G37*
%LPD*%
%LPC*%
G36*
X309999Y890001D02*
X309999Y890001D01*
X359595Y890001D01*
X358079Y882381D01*
X353527Y871390D01*
X346916Y861496D01*
X338504Y853084D01*
X328610Y846473D01*
X317619Y841921D01*
X309999Y840405D01*
X309999Y890001D01*
G37*
%LPD*%
%LPC*%
G36*
X1309999Y890001D02*
X1309999Y890001D01*
X1359595Y890001D01*
X1358079Y882381D01*
X1353527Y871390D01*
X1346916Y861496D01*
X1338504Y853084D01*
X1328610Y846473D01*
X1317619Y841921D01*
X1309999Y840405D01*
X1309999Y890001D01*
G37*
%LPD*%
%LPC*%
G36*
X1109999Y890001D02*
X1109999Y890001D01*
X1159595Y890001D01*
X1158079Y882381D01*
X1153527Y871390D01*
X1146916Y861496D01*
X1138504Y853084D01*
X1128610Y846473D01*
X1117619Y841921D01*
X1109999Y840405D01*
X1109999Y890001D01*
G37*
%LPD*%
%LPC*%
G36*
X709999Y890001D02*
X709999Y890001D01*
X759595Y890001D01*
X758079Y882381D01*
X753527Y871390D01*
X746916Y861496D01*
X738504Y853084D01*
X728610Y846473D01*
X717619Y841921D01*
X709999Y840405D01*
X709999Y890001D01*
G37*
%LPD*%
%LPC*%
G36*
X1709999Y890001D02*
X1709999Y890001D01*
X1759595Y890001D01*
X1758079Y882381D01*
X1753527Y871390D01*
X1746916Y861496D01*
X1738504Y853084D01*
X1728610Y846473D01*
X1717619Y841921D01*
X1709999Y840405D01*
X1709999Y890001D01*
G37*
%LPD*%
%LPC*%
G36*
X2040405Y109999D02*
X2040405Y109999D01*
X2041921Y117619D01*
X2046473Y128610D01*
X2053084Y138504D01*
X2061496Y146916D01*
X2071390Y153527D01*
X2082381Y158079D01*
X2090001Y159595D01*
X2090001Y109999D01*
X2040405Y109999D01*
G37*
%LPD*%
%LPC*%
G36*
X640405Y109999D02*
X640405Y109999D01*
X641921Y117619D01*
X646473Y128610D01*
X653084Y138504D01*
X661496Y146916D01*
X671390Y153527D01*
X682381Y158079D01*
X690001Y159595D01*
X690001Y109999D01*
X640405Y109999D01*
G37*
%LPD*%
%LPC*%
G36*
X1640405Y109999D02*
X1640405Y109999D01*
X1641921Y117619D01*
X1646473Y128610D01*
X1653084Y138504D01*
X1661496Y146916D01*
X1671390Y153527D01*
X1682381Y158079D01*
X1690001Y159595D01*
X1690001Y109999D01*
X1640405Y109999D01*
G37*
%LPD*%
%LPC*%
G36*
X240405Y109999D02*
X240405Y109999D01*
X241921Y117619D01*
X246473Y128610D01*
X253084Y138504D01*
X261496Y146916D01*
X271390Y153527D01*
X282381Y158079D01*
X290001Y159595D01*
X290001Y109999D01*
X240405Y109999D01*
G37*
%LPD*%
%LPC*%
G36*
X1282381Y841921D02*
X1282381Y841921D01*
X1271390Y846473D01*
X1261496Y853084D01*
X1253084Y861496D01*
X1246473Y871390D01*
X1241921Y882381D01*
X1240405Y890001D01*
X1290001Y890001D01*
X1290001Y840405D01*
X1282381Y841921D01*
G37*
%LPD*%
%LPC*%
G36*
X1682381Y841921D02*
X1682381Y841921D01*
X1671390Y846473D01*
X1661496Y853084D01*
X1653084Y861496D01*
X1646473Y871390D01*
X1641921Y882381D01*
X1640405Y890001D01*
X1690001Y890001D01*
X1690001Y840405D01*
X1682381Y841921D01*
G37*
%LPD*%
%LPC*%
G36*
X2082381Y841921D02*
X2082381Y841921D01*
X2071390Y846473D01*
X2061496Y853084D01*
X2053084Y861496D01*
X2046473Y871390D01*
X2041921Y882381D01*
X2040405Y890001D01*
X2090001Y890001D01*
X2090001Y840405D01*
X2082381Y841921D01*
G37*
%LPD*%
%LPC*%
G36*
X1082381Y841921D02*
X1082381Y841921D01*
X1071390Y846473D01*
X1061496Y853084D01*
X1053084Y861496D01*
X1046473Y871390D01*
X1041921Y882381D01*
X1040405Y890001D01*
X1090001Y890001D01*
X1090001Y840405D01*
X1082381Y841921D01*
G37*
%LPD*%
%LPC*%
G36*
X682381Y841921D02*
X682381Y841921D01*
X671390Y846473D01*
X661496Y853084D01*
X653084Y861496D01*
X646473Y871390D01*
X641921Y882381D01*
X640405Y890001D01*
X690001Y890001D01*
X690001Y840405D01*
X682381Y841921D01*
G37*
%LPD*%
%LPC*%
G36*
X282381Y841921D02*
X282381Y841921D01*
X271390Y846473D01*
X261496Y853084D01*
X253084Y861496D01*
X246473Y871390D01*
X241921Y882381D01*
X240405Y890001D01*
X290001Y890001D01*
X290001Y840405D01*
X282381Y841921D01*
G37*
%LPD*%
%LPC*%
G36*
X2088998Y373098D02*
X2088998Y373098D01*
X2088998Y373102D01*
X2089002Y373102D01*
X2089002Y373098D01*
X2088998Y373098D01*
G37*
%LPD*%
%LPC*%
G36*
X310998Y373098D02*
X310998Y373098D01*
X310998Y373102D01*
X311002Y373102D01*
X311002Y373098D01*
X310998Y373098D01*
G37*
%LPD*%
D10*
X311000Y-7900D02*
X2089000Y-7900D01*
X57000Y246100D02*
X57000Y754100D01*
X311000Y1008100D02*
X2089000Y1008100D01*
X2343000Y754100D02*
X2343000Y246100D01*
X2342926Y239962D01*
X2342703Y233828D01*
X2342333Y227702D01*
X2341814Y221585D01*
X2341148Y215484D01*
X2340335Y209400D01*
X2339374Y203337D01*
X2338268Y197300D01*
X2337016Y191291D01*
X2335619Y185314D01*
X2334078Y179372D01*
X2332394Y173470D01*
X2330568Y167610D01*
X2328601Y161795D01*
X2326494Y156030D01*
X2324248Y150318D01*
X2321865Y144661D01*
X2319346Y139064D01*
X2316692Y133529D01*
X2313906Y128060D01*
X2310988Y122660D01*
X2307940Y117332D01*
X2304765Y112079D01*
X2301463Y106905D01*
X2298038Y101812D01*
X2294490Y96803D01*
X2290823Y91881D01*
X2287037Y87049D01*
X2283136Y82310D01*
X2279122Y77667D01*
X2274996Y73122D01*
X2270762Y68678D01*
X2266422Y64338D01*
X2261978Y60104D01*
X2257433Y55978D01*
X2252790Y51964D01*
X2248051Y48063D01*
X2243219Y44277D01*
X2238297Y40610D01*
X2233288Y37062D01*
X2228195Y33637D01*
X2223021Y30335D01*
X2217768Y27160D01*
X2212440Y24112D01*
X2207040Y21194D01*
X2201571Y18408D01*
X2196036Y15754D01*
X2190439Y13235D01*
X2184782Y10852D01*
X2179070Y8606D01*
X2173305Y6499D01*
X2167490Y4532D01*
X2161630Y2706D01*
X2155728Y1022D01*
X2149786Y-519D01*
X2143809Y-1916D01*
X2137800Y-3168D01*
X2131763Y-4274D01*
X2125700Y-5235D01*
X2119616Y-6048D01*
X2113515Y-6714D01*
X2107398Y-7233D01*
X2101272Y-7603D01*
X2095138Y-7826D01*
X2089000Y-7900D01*
X2343000Y754100D02*
X2342926Y760238D01*
X2342703Y766372D01*
X2342333Y772498D01*
X2341814Y778615D01*
X2341148Y784716D01*
X2340335Y790800D01*
X2339374Y796863D01*
X2338268Y802900D01*
X2337016Y808909D01*
X2335619Y814886D01*
X2334078Y820828D01*
X2332394Y826730D01*
X2330568Y832590D01*
X2328601Y838405D01*
X2326494Y844170D01*
X2324248Y849882D01*
X2321865Y855539D01*
X2319346Y861136D01*
X2316692Y866671D01*
X2313906Y872140D01*
X2310988Y877540D01*
X2307940Y882868D01*
X2304765Y888121D01*
X2301463Y893295D01*
X2298038Y898388D01*
X2294490Y903397D01*
X2290823Y908319D01*
X2287037Y913151D01*
X2283136Y917890D01*
X2279122Y922533D01*
X2274996Y927078D01*
X2270762Y931522D01*
X2266422Y935862D01*
X2261978Y940096D01*
X2257433Y944222D01*
X2252790Y948236D01*
X2248051Y952137D01*
X2243219Y955923D01*
X2238297Y959590D01*
X2233288Y963138D01*
X2228195Y966563D01*
X2223021Y969865D01*
X2217768Y973040D01*
X2212440Y976088D01*
X2207040Y979006D01*
X2201571Y981792D01*
X2196036Y984446D01*
X2190439Y986965D01*
X2184782Y989348D01*
X2179070Y991594D01*
X2173305Y993701D01*
X2167490Y995668D01*
X2161630Y997494D01*
X2155728Y999178D01*
X2149786Y1000719D01*
X2143809Y1002116D01*
X2137800Y1003368D01*
X2131763Y1004474D01*
X2125700Y1005435D01*
X2119616Y1006248D01*
X2113515Y1006914D01*
X2107398Y1007433D01*
X2101272Y1007803D01*
X2095138Y1008026D01*
X2089000Y1008100D01*
X311000Y1008100D02*
X304862Y1008026D01*
X298728Y1007803D01*
X292602Y1007433D01*
X286485Y1006914D01*
X280384Y1006248D01*
X274300Y1005435D01*
X268237Y1004474D01*
X262200Y1003368D01*
X256191Y1002116D01*
X250214Y1000719D01*
X244272Y999178D01*
X238370Y997494D01*
X232510Y995668D01*
X226695Y993701D01*
X220930Y991594D01*
X215218Y989348D01*
X209561Y986965D01*
X203964Y984446D01*
X198429Y981792D01*
X192960Y979006D01*
X187560Y976088D01*
X182232Y973040D01*
X176979Y969865D01*
X171805Y966563D01*
X166712Y963138D01*
X161703Y959590D01*
X156781Y955923D01*
X151949Y952137D01*
X147210Y948236D01*
X142567Y944222D01*
X138022Y940096D01*
X133578Y935862D01*
X129238Y931522D01*
X125004Y927078D01*
X120878Y922533D01*
X116864Y917890D01*
X112963Y913151D01*
X109177Y908319D01*
X105510Y903397D01*
X101962Y898388D01*
X98537Y893295D01*
X95235Y888121D01*
X92060Y882868D01*
X89012Y877540D01*
X86094Y872140D01*
X83308Y866671D01*
X80654Y861136D01*
X78135Y855539D01*
X75752Y849882D01*
X73506Y844170D01*
X71399Y838405D01*
X69432Y832590D01*
X67606Y826730D01*
X65922Y820828D01*
X64381Y814886D01*
X62984Y808909D01*
X61732Y802900D01*
X60626Y796863D01*
X59665Y790800D01*
X58852Y784716D01*
X58186Y778615D01*
X57667Y772498D01*
X57297Y766372D01*
X57074Y760238D01*
X57000Y754100D01*
X57000Y246100D02*
X57074Y239962D01*
X57297Y233828D01*
X57667Y227702D01*
X58186Y221585D01*
X58852Y215484D01*
X59665Y209400D01*
X60626Y203337D01*
X61732Y197300D01*
X62984Y191291D01*
X64381Y185314D01*
X65922Y179372D01*
X67606Y173470D01*
X69432Y167610D01*
X71399Y161795D01*
X73506Y156030D01*
X75752Y150318D01*
X78135Y144661D01*
X80654Y139064D01*
X83308Y133529D01*
X86094Y128060D01*
X89012Y122660D01*
X92060Y117332D01*
X95235Y112079D01*
X98537Y106905D01*
X101962Y101812D01*
X105510Y96803D01*
X109177Y91881D01*
X112963Y87049D01*
X116864Y82310D01*
X120878Y77667D01*
X125004Y73122D01*
X129238Y68678D01*
X133578Y64338D01*
X138022Y60104D01*
X142567Y55978D01*
X147210Y51964D01*
X151949Y48063D01*
X156781Y44277D01*
X161703Y40610D01*
X166712Y37062D01*
X171805Y33637D01*
X176979Y30335D01*
X182232Y27160D01*
X187560Y24112D01*
X192960Y21194D01*
X198429Y18408D01*
X203964Y15754D01*
X209561Y13235D01*
X215218Y10852D01*
X220930Y8606D01*
X226695Y6499D01*
X232510Y4532D01*
X238370Y2706D01*
X244272Y1022D01*
X250214Y-519D01*
X256191Y-1916D01*
X262200Y-3168D01*
X268237Y-4274D01*
X274300Y-5235D01*
X280384Y-6048D01*
X286485Y-6714D01*
X292602Y-7233D01*
X298728Y-7603D01*
X304862Y-7826D01*
X311000Y-7900D01*
D11*
X1105000Y246100D03*
X1295000Y246100D03*
D12*
X977000Y403100D03*
X977000Y468100D03*
X977000Y533100D03*
X977000Y598100D03*
X1417000Y403100D03*
X1417000Y468100D03*
X1417000Y533100D03*
X1417000Y598100D03*
D13*
X2012800Y373100D02*
X2165200Y373100D01*
X2165200Y627100D02*
X2012800Y627100D01*
X387200Y373100D02*
X234800Y373100D01*
X234800Y627100D02*
X387200Y627100D01*
D14*
X977000Y468100D02*
X1166500Y468100D01*
X1166500Y418100D01*
D15*
X1166500Y418100D03*
D14*
X977000Y598100D02*
X819000Y598100D01*
D15*
X819000Y598100D03*
X1500000Y230000D03*
D14*
X1500000Y403100D01*
X1417000Y403100D01*
D15*
X150000Y500000D03*
X2250000Y500000D03*
X300000Y900000D03*
X2100000Y900000D03*
X2100000Y100000D03*
X300000Y100000D03*
X700000Y900000D03*
X700000Y100000D03*
X1700000Y900000D03*
X1700000Y100000D03*
X1100000Y900000D03*
X1300000Y900000D03*
X1100000Y100000D03*
X1300000Y100000D03*
D14*
X1295000Y246100D02*
X1295000Y468100D01*
X1417000Y468100D01*
X977000Y403100D02*
X977000Y246100D01*
X1105000Y246100D01*
M02*
