M48
;GenerationSoftware,Autodesk,EAGLE,9.0.0*%
;CreationDate,2018-05-03T17:36:18Z*%
FMAT,2
ICI,OFF
METRIC,TZ,000.00000
T2C0.40000
T1C1.01600
%
G90
M71
T1
X2089000Y373100
X2089000Y627100
X311000Y373100
X311000Y627100
T2
X1166500Y418100
X819000Y598100
X1500000Y230000
X150000Y500000
X2250000Y500000
X300000Y900000
X2100000Y900000
X2100000Y100000
X300000Y100000
X700000Y900000
X700000Y100000
X1700000Y900000
X1700000Y100000
X1100000Y900000
X1300000Y900000
X1100000Y100000
X1300000Y100000
M30