G04 EAGLE Gerber X2 export*
%TF.Part,Single*%
%TF.FileFunction,Other,Silk top*%
%TF.FilePolarity,Positive*%
%TF.GenerationSoftware,Autodesk,EAGLE,9.0.0*%
%TF.CreationDate,2018-05-03T06:11:52Z*%
G75*
%MOMM*%
%FSLAX35Y35*%
%LPD*%
%AMOC8*
5,1,8,0,0,1.08239X$1,22.5*%
G01*
%ADD10C,0.000000*%
%ADD11C,0.050800*%
%ADD12C,0.100000*%
%ADD13C,0.076200*%
%ADD14C,0.152400*%


D10*
X311000Y-7900D02*
X2089000Y-7900D01*
X57000Y246100D02*
X57000Y754100D01*
X311000Y1008100D02*
X2089000Y1008100D01*
X2343000Y754100D02*
X2343000Y246100D01*
X2342926Y239962D01*
X2342703Y233828D01*
X2342333Y227702D01*
X2341814Y221585D01*
X2341148Y215484D01*
X2340335Y209400D01*
X2339374Y203337D01*
X2338268Y197300D01*
X2337016Y191291D01*
X2335619Y185314D01*
X2334078Y179372D01*
X2332394Y173470D01*
X2330568Y167610D01*
X2328601Y161795D01*
X2326494Y156030D01*
X2324248Y150318D01*
X2321865Y144661D01*
X2319346Y139064D01*
X2316692Y133529D01*
X2313906Y128060D01*
X2310988Y122660D01*
X2307940Y117332D01*
X2304765Y112079D01*
X2301463Y106905D01*
X2298038Y101812D01*
X2294490Y96803D01*
X2290823Y91881D01*
X2287037Y87049D01*
X2283136Y82310D01*
X2279122Y77667D01*
X2274996Y73122D01*
X2270762Y68678D01*
X2266422Y64338D01*
X2261978Y60104D01*
X2257433Y55978D01*
X2252790Y51964D01*
X2248051Y48063D01*
X2243219Y44277D01*
X2238297Y40610D01*
X2233288Y37062D01*
X2228195Y33637D01*
X2223021Y30335D01*
X2217768Y27160D01*
X2212440Y24112D01*
X2207040Y21194D01*
X2201571Y18408D01*
X2196036Y15754D01*
X2190439Y13235D01*
X2184782Y10852D01*
X2179070Y8606D01*
X2173305Y6499D01*
X2167490Y4532D01*
X2161630Y2706D01*
X2155728Y1022D01*
X2149786Y-519D01*
X2143809Y-1916D01*
X2137800Y-3168D01*
X2131763Y-4274D01*
X2125700Y-5235D01*
X2119616Y-6048D01*
X2113515Y-6714D01*
X2107398Y-7233D01*
X2101272Y-7603D01*
X2095138Y-7826D01*
X2089000Y-7900D01*
X2343000Y754100D02*
X2342926Y760238D01*
X2342703Y766372D01*
X2342333Y772498D01*
X2341814Y778615D01*
X2341148Y784716D01*
X2340335Y790800D01*
X2339374Y796863D01*
X2338268Y802900D01*
X2337016Y808909D01*
X2335619Y814886D01*
X2334078Y820828D01*
X2332394Y826730D01*
X2330568Y832590D01*
X2328601Y838405D01*
X2326494Y844170D01*
X2324248Y849882D01*
X2321865Y855539D01*
X2319346Y861136D01*
X2316692Y866671D01*
X2313906Y872140D01*
X2310988Y877540D01*
X2307940Y882868D01*
X2304765Y888121D01*
X2301463Y893295D01*
X2298038Y898388D01*
X2294490Y903397D01*
X2290823Y908319D01*
X2287037Y913151D01*
X2283136Y917890D01*
X2279122Y922533D01*
X2274996Y927078D01*
X2270762Y931522D01*
X2266422Y935862D01*
X2261978Y940096D01*
X2257433Y944222D01*
X2252790Y948236D01*
X2248051Y952137D01*
X2243219Y955923D01*
X2238297Y959590D01*
X2233288Y963138D01*
X2228195Y966563D01*
X2223021Y969865D01*
X2217768Y973040D01*
X2212440Y976088D01*
X2207040Y979006D01*
X2201571Y981792D01*
X2196036Y984446D01*
X2190439Y986965D01*
X2184782Y989348D01*
X2179070Y991594D01*
X2173305Y993701D01*
X2167490Y995668D01*
X2161630Y997494D01*
X2155728Y999178D01*
X2149786Y1000719D01*
X2143809Y1002116D01*
X2137800Y1003368D01*
X2131763Y1004474D01*
X2125700Y1005435D01*
X2119616Y1006248D01*
X2113515Y1006914D01*
X2107398Y1007433D01*
X2101272Y1007803D01*
X2095138Y1008026D01*
X2089000Y1008100D01*
X311000Y1008100D02*
X304862Y1008026D01*
X298728Y1007803D01*
X292602Y1007433D01*
X286485Y1006914D01*
X280384Y1006248D01*
X274300Y1005435D01*
X268237Y1004474D01*
X262200Y1003368D01*
X256191Y1002116D01*
X250214Y1000719D01*
X244272Y999178D01*
X238370Y997494D01*
X232510Y995668D01*
X226695Y993701D01*
X220930Y991594D01*
X215218Y989348D01*
X209561Y986965D01*
X203964Y984446D01*
X198429Y981792D01*
X192960Y979006D01*
X187560Y976088D01*
X182232Y973040D01*
X176979Y969865D01*
X171805Y966563D01*
X166712Y963138D01*
X161703Y959590D01*
X156781Y955923D01*
X151949Y952137D01*
X147210Y948236D01*
X142567Y944222D01*
X138022Y940096D01*
X133578Y935862D01*
X129238Y931522D01*
X125004Y927078D01*
X120878Y922533D01*
X116864Y917890D01*
X112963Y913151D01*
X109177Y908319D01*
X105510Y903397D01*
X101962Y898388D01*
X98537Y893295D01*
X95235Y888121D01*
X92060Y882868D01*
X89012Y877540D01*
X86094Y872140D01*
X83308Y866671D01*
X80654Y861136D01*
X78135Y855539D01*
X75752Y849882D01*
X73506Y844170D01*
X71399Y838405D01*
X69432Y832590D01*
X67606Y826730D01*
X65922Y820828D01*
X64381Y814886D01*
X62984Y808909D01*
X61732Y802900D01*
X60626Y796863D01*
X59665Y790800D01*
X58852Y784716D01*
X58186Y778615D01*
X57667Y772498D01*
X57297Y766372D01*
X57074Y760238D01*
X57000Y754100D01*
X57000Y246100D02*
X57074Y239962D01*
X57297Y233828D01*
X57667Y227702D01*
X58186Y221585D01*
X58852Y215484D01*
X59665Y209400D01*
X60626Y203337D01*
X61732Y197300D01*
X62984Y191291D01*
X64381Y185314D01*
X65922Y179372D01*
X67606Y173470D01*
X69432Y167610D01*
X71399Y161795D01*
X73506Y156030D01*
X75752Y150318D01*
X78135Y144661D01*
X80654Y139064D01*
X83308Y133529D01*
X86094Y128060D01*
X89012Y122660D01*
X92060Y117332D01*
X95235Y112079D01*
X98537Y106905D01*
X101962Y101812D01*
X105510Y96803D01*
X109177Y91881D01*
X112963Y87049D01*
X116864Y82310D01*
X120878Y77667D01*
X125004Y73122D01*
X129238Y68678D01*
X133578Y64338D01*
X138022Y60104D01*
X142567Y55978D01*
X147210Y51964D01*
X151949Y48063D01*
X156781Y44277D01*
X161703Y40610D01*
X166712Y37062D01*
X171805Y33637D01*
X176979Y30335D01*
X182232Y27160D01*
X187560Y24112D01*
X192960Y21194D01*
X198429Y18408D01*
X203964Y15754D01*
X209561Y13235D01*
X215218Y10852D01*
X220930Y8606D01*
X226695Y6499D01*
X232510Y4532D01*
X238370Y2706D01*
X244272Y1022D01*
X250214Y-519D01*
X256191Y-1916D01*
X262200Y-3168D01*
X268237Y-4274D01*
X274300Y-5235D01*
X280384Y-6048D01*
X286485Y-6714D01*
X292602Y-7233D01*
X298728Y-7603D01*
X304862Y-7826D01*
X311000Y-7900D01*
D11*
X502540Y253082D02*
X572460Y253082D01*
X572460Y284157D01*
X572460Y312074D02*
X502540Y312074D01*
X541385Y335381D01*
X502540Y358687D01*
X572460Y358687D01*
X510309Y390208D02*
X502540Y390208D01*
X502540Y429053D01*
X572460Y409631D01*
X556923Y457708D02*
X502540Y473246D01*
X556923Y457708D02*
X556923Y496553D01*
X541385Y484899D02*
X572460Y484899D01*
X533616Y525208D02*
X533616Y548515D01*
X533615Y548515D02*
X533620Y548890D01*
X533633Y549266D01*
X533656Y549641D01*
X533688Y550015D01*
X533728Y550388D01*
X533778Y550760D01*
X533837Y551131D01*
X533904Y551500D01*
X533981Y551868D01*
X534067Y552234D01*
X534161Y552597D01*
X534264Y552958D01*
X534376Y553317D01*
X534496Y553672D01*
X534625Y554025D01*
X534762Y554374D01*
X534908Y554720D01*
X535062Y555063D01*
X535224Y555401D01*
X535395Y555736D01*
X535573Y556066D01*
X535760Y556392D01*
X535954Y556714D01*
X536156Y557030D01*
X536366Y557342D01*
X536583Y557648D01*
X536807Y557949D01*
X537039Y558245D01*
X537277Y558535D01*
X537523Y558819D01*
X537775Y559097D01*
X538034Y559369D01*
X538300Y559634D01*
X538571Y559893D01*
X538850Y560145D01*
X539134Y560391D01*
X539423Y560630D01*
X539719Y560861D01*
X540020Y561086D01*
X540327Y561303D01*
X540638Y561512D01*
X540955Y561714D01*
X541276Y561908D01*
X541602Y562095D01*
X541932Y562273D01*
X542267Y562444D01*
X542605Y562606D01*
X542948Y562760D01*
X543294Y562906D01*
X543643Y563043D01*
X543996Y563172D01*
X544352Y563293D01*
X544710Y563404D01*
X545071Y563507D01*
X545435Y563602D01*
X545800Y563687D01*
X546168Y563764D01*
X546537Y563831D01*
X546908Y563890D01*
X547280Y563940D01*
X547654Y563980D01*
X548028Y564012D01*
X548403Y564035D01*
X548778Y564048D01*
X549153Y564053D01*
X553038Y564053D01*
X553511Y564047D01*
X553984Y564030D01*
X554456Y564001D01*
X554927Y563961D01*
X555397Y563909D01*
X555866Y563846D01*
X556333Y563771D01*
X556798Y563686D01*
X557261Y563588D01*
X557721Y563480D01*
X558179Y563360D01*
X558633Y563230D01*
X559085Y563088D01*
X559532Y562935D01*
X559976Y562771D01*
X560416Y562597D01*
X560851Y562412D01*
X561282Y562217D01*
X561708Y562011D01*
X562128Y561794D01*
X562543Y561568D01*
X562953Y561331D01*
X563357Y561085D01*
X563754Y560829D01*
X564146Y560563D01*
X564530Y560288D01*
X564908Y560003D01*
X565279Y559710D01*
X565643Y559407D01*
X565999Y559096D01*
X566347Y558776D01*
X566688Y558448D01*
X567020Y558111D01*
X567344Y557767D01*
X567660Y557415D01*
X567967Y557055D01*
X568265Y556688D01*
X568554Y556313D01*
X568834Y555932D01*
X569104Y555544D01*
X569365Y555149D01*
X569616Y554749D01*
X569858Y554342D01*
X570089Y553930D01*
X570311Y553512D01*
X570522Y553088D01*
X570723Y552660D01*
X570913Y552227D01*
X571093Y551790D01*
X571262Y551348D01*
X571420Y550902D01*
X571567Y550453D01*
X571703Y550000D01*
X571828Y549543D01*
X571943Y549084D01*
X572045Y548623D01*
X572137Y548159D01*
X572217Y547693D01*
X572286Y547225D01*
X572343Y546755D01*
X572389Y546284D01*
X572424Y545813D01*
X572447Y545340D01*
X572459Y544867D01*
X572459Y544395D01*
X572447Y543922D01*
X572424Y543449D01*
X572389Y542978D01*
X572343Y542507D01*
X572286Y542037D01*
X572217Y541569D01*
X572137Y541103D01*
X572045Y540639D01*
X571943Y540178D01*
X571828Y539719D01*
X571703Y539262D01*
X571567Y538809D01*
X571420Y538360D01*
X571262Y537914D01*
X571093Y537472D01*
X570913Y537035D01*
X570723Y536602D01*
X570522Y536174D01*
X570311Y535750D01*
X570089Y535332D01*
X569858Y534920D01*
X569616Y534513D01*
X569365Y534113D01*
X569104Y533718D01*
X568834Y533330D01*
X568554Y532949D01*
X568265Y532574D01*
X567967Y532207D01*
X567660Y531847D01*
X567344Y531495D01*
X567020Y531151D01*
X566688Y530814D01*
X566347Y530486D01*
X565999Y530166D01*
X565643Y529855D01*
X565279Y529552D01*
X564908Y529259D01*
X564530Y528974D01*
X564146Y528699D01*
X563754Y528433D01*
X563357Y528177D01*
X562953Y527931D01*
X562543Y527694D01*
X562128Y527468D01*
X561708Y527251D01*
X561282Y527045D01*
X560851Y526850D01*
X560416Y526665D01*
X559976Y526491D01*
X559532Y526327D01*
X559085Y526174D01*
X558633Y526032D01*
X558179Y525902D01*
X557721Y525782D01*
X557261Y525674D01*
X556798Y525576D01*
X556333Y525491D01*
X555866Y525416D01*
X555397Y525353D01*
X554927Y525301D01*
X554456Y525261D01*
X553984Y525232D01*
X553511Y525215D01*
X553038Y525209D01*
X553038Y525208D02*
X533616Y525208D01*
X532853Y525217D01*
X532091Y525245D01*
X531330Y525292D01*
X530570Y525358D01*
X529812Y525442D01*
X529056Y525544D01*
X528303Y525666D01*
X527553Y525805D01*
X526807Y525963D01*
X526065Y526139D01*
X525328Y526334D01*
X524595Y526546D01*
X523868Y526776D01*
X523147Y527025D01*
X522432Y527290D01*
X521724Y527573D01*
X521023Y527874D01*
X520329Y528192D01*
X519644Y528526D01*
X518967Y528877D01*
X518299Y529245D01*
X517640Y529629D01*
X516991Y530029D01*
X516351Y530445D01*
X515722Y530877D01*
X515104Y531323D01*
X514497Y531785D01*
X513902Y532262D01*
X513318Y532753D01*
X512747Y533258D01*
X512188Y533777D01*
X511642Y534310D01*
X511109Y534856D01*
X510590Y535415D01*
X510085Y535986D01*
X509594Y536569D01*
X509117Y537165D01*
X508656Y537772D01*
X508209Y538390D01*
X507777Y539019D01*
X507361Y539658D01*
X506961Y540308D01*
X506577Y540967D01*
X506210Y541635D01*
X505858Y542312D01*
X505524Y542997D01*
X505206Y543691D01*
X504906Y544392D01*
X504622Y545100D01*
X504357Y545815D01*
X504109Y546536D01*
X503878Y547263D01*
X503666Y547995D01*
X503471Y548733D01*
X503295Y549475D01*
X503137Y550221D01*
X502998Y550971D01*
X502876Y551724D01*
X502774Y552480D01*
X502690Y553238D01*
X502624Y553998D01*
X502577Y554759D01*
X502549Y555521D01*
X502540Y556284D01*
X502540Y592708D02*
X510309Y592708D01*
X502540Y592708D02*
X502540Y631553D01*
X572460Y612131D01*
X537500Y660209D02*
X536125Y660225D01*
X534750Y660275D01*
X533377Y660357D01*
X532006Y660472D01*
X530639Y660619D01*
X529275Y660799D01*
X527916Y661012D01*
X526562Y661257D01*
X525215Y661534D01*
X523875Y661843D01*
X522542Y662184D01*
X521218Y662557D01*
X519903Y662962D01*
X518599Y663397D01*
X517305Y663864D01*
X516022Y664362D01*
X514752Y664889D01*
X513495Y665448D01*
X512251Y666036D01*
X512252Y666035D02*
X511922Y666152D01*
X511596Y666278D01*
X511273Y666411D01*
X510953Y666552D01*
X510637Y666701D01*
X510324Y666857D01*
X510015Y667021D01*
X509711Y667193D01*
X509410Y667372D01*
X509114Y667558D01*
X508823Y667751D01*
X508536Y667951D01*
X508255Y668158D01*
X507978Y668372D01*
X507707Y668593D01*
X507441Y668820D01*
X507181Y669054D01*
X506927Y669294D01*
X506678Y669540D01*
X506436Y669791D01*
X506200Y670049D01*
X505970Y670313D01*
X505747Y670581D01*
X505530Y670856D01*
X505320Y671135D01*
X505117Y671420D01*
X504920Y671709D01*
X504731Y672003D01*
X504549Y672302D01*
X504375Y672604D01*
X504207Y672911D01*
X504048Y673222D01*
X503896Y673537D01*
X503751Y673856D01*
X503615Y674177D01*
X503486Y674503D01*
X503365Y674831D01*
X503253Y675162D01*
X503148Y675495D01*
X503051Y675831D01*
X502963Y676169D01*
X502883Y676510D01*
X502811Y676852D01*
X502748Y677196D01*
X502693Y677541D01*
X502646Y677887D01*
X502608Y678235D01*
X502578Y678583D01*
X502557Y678932D01*
X502544Y679281D01*
X502540Y679631D01*
X502544Y679981D01*
X502557Y680330D01*
X502578Y680679D01*
X502608Y681027D01*
X502646Y681375D01*
X502693Y681721D01*
X502748Y682066D01*
X502811Y682410D01*
X502883Y682752D01*
X502963Y683093D01*
X503051Y683431D01*
X503148Y683767D01*
X503253Y684100D01*
X503365Y684431D01*
X503486Y684759D01*
X503615Y685084D01*
X503751Y685406D01*
X503896Y685724D01*
X504048Y686039D01*
X504207Y686350D01*
X504375Y686657D01*
X504549Y686960D01*
X504731Y687259D01*
X504920Y687553D01*
X505116Y687842D01*
X505320Y688126D01*
X505530Y688406D01*
X505746Y688680D01*
X505970Y688949D01*
X506200Y689212D01*
X506436Y689470D01*
X506678Y689722D01*
X506927Y689968D01*
X507181Y690208D01*
X507441Y690441D01*
X507707Y690668D01*
X507978Y690889D01*
X508255Y691103D01*
X508536Y691310D01*
X508823Y691510D01*
X509114Y691704D01*
X509410Y691890D01*
X509710Y692069D01*
X510015Y692240D01*
X510324Y692404D01*
X510636Y692560D01*
X510953Y692709D01*
X511273Y692850D01*
X511596Y692984D01*
X511922Y693109D01*
X512251Y693226D01*
X513495Y693814D01*
X514752Y694372D01*
X516022Y694900D01*
X517305Y695398D01*
X518599Y695864D01*
X519903Y696300D01*
X521218Y696705D01*
X522542Y697078D01*
X523875Y697419D01*
X525215Y697728D01*
X526562Y698005D01*
X527916Y698250D01*
X529275Y698463D01*
X530638Y698643D01*
X532006Y698790D01*
X533377Y698905D01*
X534750Y698987D01*
X536125Y699037D01*
X537500Y699053D01*
X537500Y660208D02*
X538875Y660224D01*
X540250Y660274D01*
X541623Y660356D01*
X542994Y660471D01*
X544362Y660618D01*
X545725Y660798D01*
X547084Y661011D01*
X548438Y661256D01*
X549785Y661533D01*
X551126Y661842D01*
X552458Y662183D01*
X553782Y662556D01*
X555097Y662961D01*
X556402Y663396D01*
X557696Y663863D01*
X558978Y664361D01*
X560248Y664889D01*
X561505Y665447D01*
X562749Y666035D01*
X563078Y666152D01*
X563405Y666278D01*
X563728Y666411D01*
X564048Y666552D01*
X564364Y666701D01*
X564677Y666858D01*
X564985Y667022D01*
X565290Y667193D01*
X565590Y667372D01*
X565886Y667558D01*
X566177Y667751D01*
X566464Y667952D01*
X566746Y668159D01*
X567022Y668373D01*
X567293Y668593D01*
X567559Y668821D01*
X567819Y669054D01*
X568073Y669294D01*
X568322Y669540D01*
X568564Y669792D01*
X568800Y670049D01*
X569030Y670313D01*
X569254Y670582D01*
X569470Y670856D01*
X569680Y671135D01*
X569884Y671420D01*
X570080Y671709D01*
X570269Y672003D01*
X570451Y672302D01*
X570625Y672605D01*
X570793Y672912D01*
X570952Y673223D01*
X571104Y673537D01*
X571249Y673856D01*
X571385Y674178D01*
X571514Y674503D01*
X571635Y674831D01*
X571747Y675162D01*
X571852Y675495D01*
X571949Y675831D01*
X572037Y676169D01*
X572117Y676510D01*
X572189Y676852D01*
X572252Y677196D01*
X572307Y677541D01*
X572354Y677887D01*
X572392Y678235D01*
X572422Y678583D01*
X572443Y678932D01*
X572456Y679281D01*
X572460Y679631D01*
X562749Y693226D02*
X561506Y693814D01*
X560248Y694372D01*
X558978Y694900D01*
X557696Y695398D01*
X556402Y695864D01*
X555097Y696300D01*
X553782Y696705D01*
X552458Y697077D01*
X551126Y697419D01*
X549785Y697728D01*
X548438Y698005D01*
X547084Y698250D01*
X545725Y698463D01*
X544362Y698643D01*
X542994Y698790D01*
X541623Y698905D01*
X540250Y698987D01*
X538875Y699037D01*
X537500Y699053D01*
X562749Y693226D02*
X563078Y693109D01*
X563405Y692983D01*
X563728Y692850D01*
X564048Y692709D01*
X564364Y692560D01*
X564677Y692404D01*
X564985Y692240D01*
X565290Y692068D01*
X565590Y691889D01*
X565886Y691703D01*
X566178Y691510D01*
X566464Y691310D01*
X566746Y691103D01*
X567022Y690889D01*
X567293Y690668D01*
X567559Y690441D01*
X567819Y690207D01*
X568073Y689968D01*
X568322Y689722D01*
X568564Y689470D01*
X568800Y689212D01*
X569030Y688949D01*
X569254Y688680D01*
X569470Y688406D01*
X569681Y688126D01*
X569884Y687842D01*
X570080Y687552D01*
X570269Y687258D01*
X570451Y686960D01*
X570626Y686657D01*
X570793Y686350D01*
X570952Y686039D01*
X571104Y685724D01*
X571249Y685406D01*
X571385Y685084D01*
X571514Y684759D01*
X571635Y684431D01*
X571747Y684100D01*
X571852Y683767D01*
X571949Y683431D01*
X572037Y683092D01*
X572117Y682752D01*
X572189Y682410D01*
X572252Y682066D01*
X572307Y681721D01*
X572354Y681375D01*
X572392Y681027D01*
X572422Y680679D01*
X572443Y680330D01*
X572456Y679981D01*
X572460Y679631D01*
X556923Y664093D02*
X518078Y695168D01*
X638347Y242328D02*
X684960Y242328D01*
X618925Y240386D02*
X615040Y240386D01*
X615040Y244271D01*
X618925Y244271D01*
X618925Y240386D01*
X615040Y300295D02*
X684960Y300295D01*
X684960Y280873D01*
X684957Y280591D01*
X684946Y280310D01*
X684929Y280029D01*
X684906Y279748D01*
X684875Y279468D01*
X684838Y279189D01*
X684794Y278911D01*
X684743Y278634D01*
X684685Y278358D01*
X684621Y278084D01*
X684551Y277812D01*
X684473Y277541D01*
X684390Y277272D01*
X684299Y277005D01*
X684203Y276741D01*
X684100Y276479D01*
X683990Y276219D01*
X683875Y275962D01*
X683753Y275708D01*
X683625Y275458D01*
X683491Y275210D01*
X683352Y274965D01*
X683206Y274724D01*
X683054Y274487D01*
X682897Y274253D01*
X682734Y274024D01*
X682566Y273798D01*
X682393Y273576D01*
X682214Y273359D01*
X682029Y273146D01*
X681840Y272937D01*
X681646Y272733D01*
X681447Y272534D01*
X681243Y272340D01*
X681034Y272151D01*
X680821Y271966D01*
X680604Y271787D01*
X680382Y271614D01*
X680156Y271446D01*
X679927Y271283D01*
X679693Y271126D01*
X679456Y270974D01*
X679215Y270828D01*
X678970Y270689D01*
X678722Y270555D01*
X678472Y270427D01*
X678218Y270305D01*
X677961Y270190D01*
X677701Y270080D01*
X677439Y269977D01*
X677175Y269881D01*
X676908Y269790D01*
X676639Y269707D01*
X676368Y269629D01*
X676096Y269559D01*
X675822Y269495D01*
X675546Y269437D01*
X675269Y269386D01*
X674991Y269342D01*
X674712Y269305D01*
X674432Y269274D01*
X674151Y269251D01*
X673870Y269234D01*
X673589Y269223D01*
X673307Y269220D01*
X673307Y269219D02*
X650000Y269219D01*
X650000Y269220D02*
X649718Y269223D01*
X649437Y269234D01*
X649156Y269251D01*
X648875Y269274D01*
X648595Y269305D01*
X648316Y269342D01*
X648038Y269386D01*
X647761Y269437D01*
X647485Y269495D01*
X647211Y269559D01*
X646939Y269629D01*
X646668Y269707D01*
X646399Y269790D01*
X646132Y269881D01*
X645868Y269977D01*
X645606Y270080D01*
X645346Y270190D01*
X645089Y270305D01*
X644835Y270427D01*
X644585Y270555D01*
X644337Y270689D01*
X644092Y270828D01*
X643851Y270974D01*
X643614Y271126D01*
X643380Y271283D01*
X643151Y271446D01*
X642925Y271614D01*
X642703Y271787D01*
X642486Y271966D01*
X642273Y272151D01*
X642064Y272340D01*
X641860Y272534D01*
X641661Y272733D01*
X641467Y272937D01*
X641278Y273146D01*
X641093Y273359D01*
X640914Y273576D01*
X640741Y273798D01*
X640573Y274024D01*
X640410Y274253D01*
X640253Y274487D01*
X640101Y274724D01*
X639955Y274965D01*
X639816Y275210D01*
X639682Y275458D01*
X639554Y275708D01*
X639432Y275962D01*
X639317Y276219D01*
X639207Y276479D01*
X639104Y276741D01*
X639008Y277005D01*
X638917Y277272D01*
X638834Y277541D01*
X638756Y277812D01*
X638686Y278084D01*
X638622Y278358D01*
X638564Y278634D01*
X638513Y278911D01*
X638469Y279189D01*
X638432Y279468D01*
X638401Y279748D01*
X638378Y280029D01*
X638361Y280310D01*
X638350Y280591D01*
X638347Y280873D01*
X638347Y300295D01*
X684960Y341943D02*
X684960Y361366D01*
X684960Y341943D02*
X684957Y341661D01*
X684946Y341380D01*
X684929Y341099D01*
X684906Y340818D01*
X684875Y340538D01*
X684838Y340259D01*
X684794Y339981D01*
X684743Y339704D01*
X684685Y339428D01*
X684621Y339154D01*
X684551Y338882D01*
X684473Y338611D01*
X684390Y338342D01*
X684299Y338075D01*
X684203Y337811D01*
X684100Y337549D01*
X683990Y337289D01*
X683875Y337032D01*
X683753Y336778D01*
X683625Y336528D01*
X683491Y336280D01*
X683352Y336035D01*
X683206Y335794D01*
X683054Y335557D01*
X682897Y335323D01*
X682734Y335094D01*
X682566Y334868D01*
X682393Y334646D01*
X682214Y334429D01*
X682029Y334216D01*
X681840Y334007D01*
X681646Y333803D01*
X681447Y333604D01*
X681243Y333410D01*
X681034Y333221D01*
X680821Y333036D01*
X680604Y332857D01*
X680382Y332684D01*
X680156Y332516D01*
X679927Y332353D01*
X679693Y332196D01*
X679456Y332044D01*
X679215Y331898D01*
X678970Y331759D01*
X678722Y331625D01*
X678472Y331497D01*
X678218Y331375D01*
X677961Y331260D01*
X677701Y331150D01*
X677439Y331047D01*
X677175Y330951D01*
X676908Y330860D01*
X676639Y330777D01*
X676368Y330699D01*
X676096Y330629D01*
X675822Y330565D01*
X675546Y330507D01*
X675269Y330456D01*
X674991Y330412D01*
X674712Y330375D01*
X674432Y330344D01*
X674151Y330321D01*
X673870Y330304D01*
X673589Y330293D01*
X673307Y330290D01*
X653885Y330290D01*
X653507Y330295D01*
X653128Y330308D01*
X652751Y330331D01*
X652374Y330364D01*
X651998Y330405D01*
X651623Y330456D01*
X651249Y330515D01*
X650877Y330584D01*
X650507Y330662D01*
X650138Y330748D01*
X649772Y330844D01*
X649409Y330949D01*
X649048Y331062D01*
X648689Y331184D01*
X648334Y331315D01*
X647983Y331455D01*
X647634Y331603D01*
X647290Y331759D01*
X646949Y331924D01*
X646613Y332097D01*
X646280Y332278D01*
X645953Y332467D01*
X645630Y332664D01*
X645312Y332869D01*
X644999Y333082D01*
X644691Y333302D01*
X644389Y333530D01*
X644092Y333765D01*
X643801Y334007D01*
X643516Y334256D01*
X643237Y334512D01*
X642965Y334774D01*
X642699Y335043D01*
X642440Y335319D01*
X642187Y335601D01*
X641942Y335889D01*
X641703Y336183D01*
X641472Y336482D01*
X641248Y336787D01*
X641032Y337097D01*
X640823Y337413D01*
X640622Y337734D01*
X640429Y338059D01*
X640244Y338389D01*
X640066Y338723D01*
X639897Y339062D01*
X639737Y339405D01*
X639585Y339751D01*
X639441Y340101D01*
X639306Y340454D01*
X639179Y340811D01*
X639061Y341171D01*
X638952Y341533D01*
X638852Y341898D01*
X638761Y342265D01*
X638679Y342634D01*
X638605Y343006D01*
X638541Y343379D01*
X638486Y343753D01*
X638440Y344129D01*
X638403Y344505D01*
X638376Y344883D01*
X638357Y345261D01*
X638348Y345639D01*
X638348Y346017D01*
X638357Y346395D01*
X638376Y346773D01*
X638403Y347151D01*
X638440Y347527D01*
X638486Y347903D01*
X638541Y348277D01*
X638605Y348650D01*
X638679Y349022D01*
X638761Y349391D01*
X638852Y349758D01*
X638952Y350123D01*
X639061Y350485D01*
X639179Y350845D01*
X639306Y351202D01*
X639441Y351555D01*
X639585Y351905D01*
X639737Y352251D01*
X639897Y352594D01*
X640066Y352933D01*
X640244Y353267D01*
X640429Y353597D01*
X640622Y353922D01*
X640823Y354243D01*
X641032Y354559D01*
X641248Y354869D01*
X641472Y355174D01*
X641703Y355473D01*
X641942Y355767D01*
X642187Y356055D01*
X642440Y356337D01*
X642699Y356613D01*
X642965Y356882D01*
X643237Y357144D01*
X643516Y357400D01*
X643801Y357649D01*
X644092Y357891D01*
X644389Y358126D01*
X644691Y358354D01*
X644999Y358574D01*
X645312Y358787D01*
X645630Y358992D01*
X645953Y359189D01*
X646280Y359378D01*
X646613Y359559D01*
X646949Y359732D01*
X647290Y359897D01*
X647634Y360053D01*
X647983Y360201D01*
X648334Y360341D01*
X648689Y360472D01*
X649048Y360594D01*
X649409Y360707D01*
X649772Y360812D01*
X650138Y360908D01*
X650507Y360994D01*
X650877Y361072D01*
X651249Y361141D01*
X651623Y361200D01*
X651998Y361251D01*
X652374Y361292D01*
X652751Y361325D01*
X653128Y361348D01*
X653507Y361361D01*
X653885Y361366D01*
X661653Y361366D01*
X661653Y330290D01*
X657769Y402064D02*
X657769Y419544D01*
X657769Y402064D02*
X657773Y401733D01*
X657785Y401402D01*
X657805Y401072D01*
X657833Y400742D01*
X657870Y400413D01*
X657914Y400085D01*
X657966Y399758D01*
X658026Y399432D01*
X658094Y399108D01*
X658170Y398786D01*
X658254Y398465D01*
X658345Y398147D01*
X658445Y397831D01*
X658552Y397518D01*
X658666Y397207D01*
X658788Y396900D01*
X658918Y396595D01*
X659054Y396294D01*
X659199Y395995D01*
X659350Y395701D01*
X659508Y395410D01*
X659674Y395124D01*
X659846Y394841D01*
X660026Y394563D01*
X660212Y394289D01*
X660404Y394020D01*
X660604Y393755D01*
X660809Y393496D01*
X661021Y393241D01*
X661239Y392992D01*
X661463Y392748D01*
X661693Y392510D01*
X661928Y392277D01*
X662169Y392050D01*
X662416Y391829D01*
X662668Y391614D01*
X662925Y391406D01*
X663187Y391203D01*
X663454Y391007D01*
X663725Y390818D01*
X664001Y390635D01*
X664282Y390459D01*
X664567Y390290D01*
X664855Y390128D01*
X665148Y389973D01*
X665444Y389826D01*
X665744Y389685D01*
X666047Y389552D01*
X666353Y389426D01*
X666662Y389308D01*
X666974Y389197D01*
X667289Y389094D01*
X667606Y388999D01*
X667925Y388911D01*
X668247Y388831D01*
X668570Y388759D01*
X668895Y388695D01*
X669221Y388639D01*
X669548Y388591D01*
X669877Y388551D01*
X670207Y388518D01*
X670537Y388494D01*
X670867Y388478D01*
X671198Y388470D01*
X671530Y388470D01*
X671861Y388478D01*
X672191Y388494D01*
X672521Y388518D01*
X672851Y388551D01*
X673180Y388591D01*
X673507Y388639D01*
X673833Y388695D01*
X674158Y388759D01*
X674481Y388831D01*
X674803Y388911D01*
X675122Y388999D01*
X675439Y389094D01*
X675754Y389197D01*
X676066Y389308D01*
X676375Y389426D01*
X676681Y389552D01*
X676984Y389685D01*
X677284Y389826D01*
X677580Y389973D01*
X677873Y390128D01*
X678162Y390290D01*
X678446Y390459D01*
X678727Y390635D01*
X679003Y390818D01*
X679274Y391007D01*
X679541Y391203D01*
X679803Y391406D01*
X680060Y391614D01*
X680312Y391829D01*
X680559Y392050D01*
X680800Y392277D01*
X681035Y392510D01*
X681265Y392748D01*
X681489Y392992D01*
X681707Y393241D01*
X681919Y393496D01*
X682124Y393755D01*
X682324Y394020D01*
X682516Y394289D01*
X682702Y394563D01*
X682882Y394841D01*
X683054Y395124D01*
X683220Y395410D01*
X683378Y395701D01*
X683529Y395995D01*
X683674Y396294D01*
X683810Y396595D01*
X683940Y396900D01*
X684062Y397207D01*
X684176Y397518D01*
X684283Y397831D01*
X684383Y398147D01*
X684474Y398465D01*
X684558Y398786D01*
X684634Y399108D01*
X684702Y399432D01*
X684762Y399758D01*
X684814Y400085D01*
X684858Y400413D01*
X684895Y400742D01*
X684923Y401072D01*
X684943Y401402D01*
X684955Y401733D01*
X684959Y402064D01*
X684960Y402064D02*
X684960Y419544D01*
X650000Y419544D01*
X649718Y419541D01*
X649437Y419530D01*
X649156Y419513D01*
X648875Y419490D01*
X648595Y419459D01*
X648316Y419422D01*
X648038Y419378D01*
X647761Y419327D01*
X647485Y419269D01*
X647211Y419205D01*
X646939Y419135D01*
X646668Y419057D01*
X646399Y418974D01*
X646132Y418883D01*
X645868Y418787D01*
X645606Y418684D01*
X645346Y418574D01*
X645089Y418459D01*
X644835Y418337D01*
X644585Y418209D01*
X644337Y418075D01*
X644092Y417936D01*
X643851Y417790D01*
X643614Y417638D01*
X643380Y417481D01*
X643151Y417318D01*
X642925Y417150D01*
X642703Y416977D01*
X642486Y416798D01*
X642273Y416613D01*
X642064Y416424D01*
X641860Y416230D01*
X641661Y416031D01*
X641467Y415827D01*
X641278Y415618D01*
X641093Y415405D01*
X640914Y415188D01*
X640741Y414966D01*
X640573Y414740D01*
X640410Y414511D01*
X640253Y414277D01*
X640101Y414040D01*
X639955Y413799D01*
X639816Y413554D01*
X639682Y413306D01*
X639554Y413056D01*
X639432Y412802D01*
X639317Y412545D01*
X639207Y412285D01*
X639104Y412023D01*
X639008Y411759D01*
X638917Y411492D01*
X638834Y411223D01*
X638756Y410952D01*
X638686Y410680D01*
X638622Y410406D01*
X638564Y410130D01*
X638513Y409853D01*
X638469Y409575D01*
X638432Y409296D01*
X638401Y409016D01*
X638378Y408735D01*
X638361Y408454D01*
X638350Y408173D01*
X638347Y407891D01*
X638347Y392353D01*
X615040Y450528D02*
X673307Y450528D01*
X673589Y450531D01*
X673870Y450542D01*
X674151Y450559D01*
X674432Y450582D01*
X674712Y450613D01*
X674991Y450650D01*
X675269Y450694D01*
X675546Y450745D01*
X675822Y450803D01*
X676096Y450867D01*
X676368Y450937D01*
X676639Y451015D01*
X676908Y451098D01*
X677175Y451189D01*
X677439Y451285D01*
X677701Y451388D01*
X677961Y451498D01*
X678218Y451613D01*
X678472Y451735D01*
X678722Y451863D01*
X678970Y451997D01*
X679215Y452136D01*
X679456Y452282D01*
X679693Y452434D01*
X679927Y452591D01*
X680156Y452754D01*
X680382Y452922D01*
X680604Y453095D01*
X680821Y453274D01*
X681034Y453459D01*
X681243Y453648D01*
X681447Y453842D01*
X681646Y454041D01*
X681840Y454245D01*
X682029Y454454D01*
X682214Y454667D01*
X682393Y454884D01*
X682566Y455106D01*
X682734Y455332D01*
X682897Y455561D01*
X683054Y455795D01*
X683206Y456032D01*
X683352Y456273D01*
X683491Y456518D01*
X683625Y456766D01*
X683753Y457016D01*
X683875Y457270D01*
X683990Y457527D01*
X684100Y457787D01*
X684203Y458049D01*
X684299Y458313D01*
X684390Y458580D01*
X684473Y458849D01*
X684551Y459120D01*
X684621Y459392D01*
X684685Y459666D01*
X684743Y459942D01*
X684794Y460219D01*
X684838Y460497D01*
X684875Y460776D01*
X684906Y461056D01*
X684929Y461337D01*
X684946Y461618D01*
X684957Y461899D01*
X684960Y462181D01*
X684960Y552293D02*
X615040Y552293D01*
X684960Y552293D02*
X684960Y532871D01*
X684957Y532589D01*
X684946Y532308D01*
X684929Y532027D01*
X684906Y531746D01*
X684875Y531466D01*
X684838Y531187D01*
X684794Y530909D01*
X684743Y530632D01*
X684685Y530356D01*
X684621Y530082D01*
X684551Y529810D01*
X684473Y529539D01*
X684390Y529270D01*
X684299Y529003D01*
X684203Y528739D01*
X684100Y528477D01*
X683990Y528217D01*
X683875Y527960D01*
X683753Y527706D01*
X683625Y527456D01*
X683491Y527208D01*
X683352Y526963D01*
X683206Y526722D01*
X683054Y526485D01*
X682897Y526251D01*
X682734Y526022D01*
X682566Y525796D01*
X682393Y525574D01*
X682214Y525357D01*
X682029Y525144D01*
X681840Y524935D01*
X681646Y524731D01*
X681447Y524532D01*
X681243Y524338D01*
X681034Y524149D01*
X680821Y523964D01*
X680604Y523785D01*
X680382Y523612D01*
X680156Y523444D01*
X679927Y523281D01*
X679693Y523124D01*
X679456Y522972D01*
X679215Y522826D01*
X678970Y522687D01*
X678722Y522553D01*
X678472Y522425D01*
X678218Y522303D01*
X677961Y522188D01*
X677701Y522078D01*
X677439Y521975D01*
X677175Y521879D01*
X676908Y521788D01*
X676639Y521705D01*
X676368Y521627D01*
X676096Y521557D01*
X675822Y521493D01*
X675546Y521435D01*
X675269Y521384D01*
X674991Y521340D01*
X674712Y521303D01*
X674432Y521272D01*
X674151Y521249D01*
X673870Y521232D01*
X673589Y521221D01*
X673307Y521218D01*
X650000Y521218D01*
X649718Y521221D01*
X649437Y521232D01*
X649156Y521249D01*
X648875Y521272D01*
X648595Y521303D01*
X648316Y521340D01*
X648038Y521384D01*
X647761Y521435D01*
X647485Y521493D01*
X647211Y521557D01*
X646939Y521627D01*
X646668Y521705D01*
X646399Y521788D01*
X646132Y521879D01*
X645868Y521975D01*
X645606Y522078D01*
X645346Y522188D01*
X645089Y522303D01*
X644835Y522425D01*
X644585Y522553D01*
X644337Y522687D01*
X644092Y522826D01*
X643851Y522972D01*
X643614Y523124D01*
X643380Y523281D01*
X643151Y523444D01*
X642925Y523612D01*
X642703Y523785D01*
X642486Y523964D01*
X642273Y524149D01*
X642064Y524338D01*
X641860Y524532D01*
X641661Y524731D01*
X641467Y524935D01*
X641278Y525144D01*
X641093Y525357D01*
X640914Y525574D01*
X640741Y525796D01*
X640573Y526022D01*
X640410Y526251D01*
X640253Y526485D01*
X640101Y526722D01*
X639955Y526963D01*
X639816Y527208D01*
X639682Y527456D01*
X639554Y527706D01*
X639432Y527960D01*
X639317Y528217D01*
X639207Y528477D01*
X639104Y528739D01*
X639008Y529003D01*
X638917Y529270D01*
X638834Y529539D01*
X638756Y529810D01*
X638686Y530082D01*
X638622Y530356D01*
X638564Y530632D01*
X638513Y530909D01*
X638469Y531187D01*
X638432Y531466D01*
X638401Y531746D01*
X638378Y532027D01*
X638361Y532308D01*
X638350Y532589D01*
X638347Y532871D01*
X638347Y552293D01*
X638347Y582077D02*
X684960Y582077D01*
X618925Y580134D02*
X615040Y580134D01*
X615040Y584019D01*
X618925Y584019D01*
X618925Y580134D01*
X653885Y609289D02*
X669423Y609289D01*
X653885Y609288D02*
X653507Y609293D01*
X653128Y609306D01*
X652751Y609329D01*
X652374Y609362D01*
X651998Y609403D01*
X651623Y609454D01*
X651249Y609513D01*
X650877Y609582D01*
X650507Y609660D01*
X650138Y609746D01*
X649772Y609842D01*
X649409Y609947D01*
X649048Y610060D01*
X648689Y610182D01*
X648334Y610313D01*
X647983Y610453D01*
X647634Y610601D01*
X647290Y610757D01*
X646949Y610922D01*
X646613Y611095D01*
X646280Y611276D01*
X645953Y611465D01*
X645630Y611662D01*
X645312Y611867D01*
X644999Y612080D01*
X644691Y612300D01*
X644389Y612528D01*
X644092Y612763D01*
X643801Y613005D01*
X643516Y613254D01*
X643237Y613510D01*
X642965Y613772D01*
X642699Y614041D01*
X642440Y614317D01*
X642187Y614599D01*
X641942Y614887D01*
X641703Y615181D01*
X641472Y615480D01*
X641248Y615785D01*
X641032Y616095D01*
X640823Y616411D01*
X640622Y616732D01*
X640429Y617057D01*
X640244Y617387D01*
X640066Y617721D01*
X639897Y618060D01*
X639737Y618403D01*
X639585Y618749D01*
X639441Y619099D01*
X639306Y619452D01*
X639179Y619809D01*
X639061Y620169D01*
X638952Y620531D01*
X638852Y620896D01*
X638761Y621263D01*
X638679Y621632D01*
X638605Y622004D01*
X638541Y622377D01*
X638486Y622751D01*
X638440Y623127D01*
X638403Y623503D01*
X638376Y623881D01*
X638357Y624259D01*
X638348Y624637D01*
X638348Y625015D01*
X638357Y625393D01*
X638376Y625771D01*
X638403Y626149D01*
X638440Y626525D01*
X638486Y626901D01*
X638541Y627275D01*
X638605Y627648D01*
X638679Y628020D01*
X638761Y628389D01*
X638852Y628756D01*
X638952Y629121D01*
X639061Y629483D01*
X639179Y629843D01*
X639306Y630200D01*
X639441Y630553D01*
X639585Y630903D01*
X639737Y631249D01*
X639897Y631592D01*
X640066Y631931D01*
X640244Y632265D01*
X640429Y632595D01*
X640622Y632920D01*
X640823Y633241D01*
X641032Y633557D01*
X641248Y633867D01*
X641472Y634172D01*
X641703Y634471D01*
X641942Y634765D01*
X642187Y635053D01*
X642440Y635335D01*
X642699Y635611D01*
X642965Y635880D01*
X643237Y636142D01*
X643516Y636398D01*
X643801Y636647D01*
X644092Y636889D01*
X644389Y637124D01*
X644691Y637352D01*
X644999Y637572D01*
X645312Y637785D01*
X645630Y637990D01*
X645953Y638187D01*
X646280Y638376D01*
X646613Y638557D01*
X646949Y638730D01*
X647290Y638895D01*
X647634Y639051D01*
X647983Y639199D01*
X648334Y639339D01*
X648689Y639470D01*
X649048Y639592D01*
X649409Y639705D01*
X649772Y639810D01*
X650138Y639906D01*
X650507Y639992D01*
X650877Y640070D01*
X651249Y640139D01*
X651623Y640198D01*
X651998Y640249D01*
X652374Y640290D01*
X652751Y640323D01*
X653128Y640346D01*
X653507Y640359D01*
X653885Y640364D01*
X669423Y640364D01*
X669801Y640359D01*
X670180Y640346D01*
X670557Y640323D01*
X670934Y640290D01*
X671310Y640249D01*
X671685Y640198D01*
X672059Y640139D01*
X672431Y640070D01*
X672801Y639992D01*
X673170Y639906D01*
X673536Y639810D01*
X673899Y639705D01*
X674260Y639592D01*
X674619Y639470D01*
X674974Y639339D01*
X675325Y639199D01*
X675674Y639051D01*
X676018Y638895D01*
X676359Y638730D01*
X676695Y638557D01*
X677028Y638376D01*
X677355Y638187D01*
X677678Y637990D01*
X677996Y637785D01*
X678309Y637572D01*
X678617Y637352D01*
X678919Y637124D01*
X679216Y636889D01*
X679507Y636647D01*
X679792Y636398D01*
X680071Y636142D01*
X680343Y635880D01*
X680609Y635611D01*
X680868Y635335D01*
X681121Y635053D01*
X681366Y634765D01*
X681605Y634471D01*
X681836Y634172D01*
X682060Y633867D01*
X682276Y633557D01*
X682485Y633241D01*
X682686Y632920D01*
X682879Y632595D01*
X683064Y632265D01*
X683242Y631931D01*
X683411Y631592D01*
X683571Y631249D01*
X683723Y630903D01*
X683867Y630553D01*
X684002Y630200D01*
X684129Y629843D01*
X684247Y629483D01*
X684356Y629121D01*
X684456Y628756D01*
X684547Y628389D01*
X684629Y628020D01*
X684703Y627648D01*
X684767Y627275D01*
X684822Y626901D01*
X684868Y626525D01*
X684905Y626149D01*
X684932Y625771D01*
X684951Y625393D01*
X684960Y625015D01*
X684960Y624637D01*
X684951Y624259D01*
X684932Y623881D01*
X684905Y623503D01*
X684868Y623127D01*
X684822Y622751D01*
X684767Y622377D01*
X684703Y622004D01*
X684629Y621632D01*
X684547Y621263D01*
X684456Y620896D01*
X684356Y620531D01*
X684247Y620169D01*
X684129Y619809D01*
X684002Y619452D01*
X683867Y619099D01*
X683723Y618749D01*
X683571Y618403D01*
X683411Y618060D01*
X683242Y617721D01*
X683064Y617387D01*
X682879Y617057D01*
X682686Y616732D01*
X682485Y616411D01*
X682276Y616095D01*
X682060Y615785D01*
X681836Y615480D01*
X681605Y615181D01*
X681366Y614887D01*
X681121Y614599D01*
X680868Y614317D01*
X680609Y614041D01*
X680343Y613772D01*
X680071Y613510D01*
X679792Y613254D01*
X679507Y613005D01*
X679216Y612763D01*
X678919Y612528D01*
X678617Y612300D01*
X678309Y612080D01*
X677996Y611867D01*
X677678Y611662D01*
X677355Y611465D01*
X677028Y611276D01*
X676695Y611095D01*
X676359Y610922D01*
X676018Y610757D01*
X675674Y610601D01*
X675325Y610453D01*
X674974Y610313D01*
X674619Y610182D01*
X674260Y610060D01*
X673899Y609947D01*
X673536Y609842D01*
X673170Y609746D01*
X672801Y609660D01*
X672431Y609582D01*
X672059Y609513D01*
X671685Y609454D01*
X671310Y609403D01*
X670934Y609362D01*
X670557Y609329D01*
X670180Y609306D01*
X669801Y609293D01*
X669423Y609288D01*
X684960Y698543D02*
X615040Y698543D01*
X684960Y698543D02*
X684960Y679120D01*
X684957Y678838D01*
X684946Y678557D01*
X684929Y678276D01*
X684906Y677995D01*
X684875Y677715D01*
X684838Y677436D01*
X684794Y677158D01*
X684743Y676881D01*
X684685Y676605D01*
X684621Y676331D01*
X684551Y676059D01*
X684473Y675788D01*
X684390Y675519D01*
X684299Y675252D01*
X684203Y674988D01*
X684100Y674726D01*
X683990Y674466D01*
X683875Y674209D01*
X683753Y673955D01*
X683625Y673705D01*
X683491Y673457D01*
X683352Y673212D01*
X683206Y672971D01*
X683054Y672734D01*
X682897Y672500D01*
X682734Y672271D01*
X682566Y672045D01*
X682393Y671823D01*
X682214Y671606D01*
X682029Y671393D01*
X681840Y671184D01*
X681646Y670980D01*
X681447Y670781D01*
X681243Y670587D01*
X681034Y670398D01*
X680821Y670213D01*
X680604Y670034D01*
X680382Y669861D01*
X680156Y669693D01*
X679927Y669530D01*
X679693Y669373D01*
X679456Y669221D01*
X679215Y669075D01*
X678970Y668936D01*
X678722Y668802D01*
X678472Y668674D01*
X678218Y668552D01*
X677961Y668437D01*
X677701Y668327D01*
X677439Y668224D01*
X677175Y668128D01*
X676908Y668037D01*
X676639Y667954D01*
X676368Y667876D01*
X676096Y667806D01*
X675822Y667742D01*
X675546Y667684D01*
X675269Y667633D01*
X674991Y667589D01*
X674712Y667552D01*
X674432Y667521D01*
X674151Y667498D01*
X673870Y667481D01*
X673589Y667470D01*
X673307Y667467D01*
X650000Y667467D01*
X649718Y667470D01*
X649437Y667481D01*
X649156Y667498D01*
X648875Y667521D01*
X648595Y667552D01*
X648316Y667589D01*
X648038Y667633D01*
X647761Y667684D01*
X647485Y667742D01*
X647211Y667806D01*
X646939Y667876D01*
X646668Y667954D01*
X646399Y668037D01*
X646132Y668128D01*
X645868Y668224D01*
X645606Y668327D01*
X645346Y668437D01*
X645089Y668552D01*
X644835Y668674D01*
X644585Y668802D01*
X644337Y668936D01*
X644092Y669075D01*
X643851Y669221D01*
X643614Y669373D01*
X643380Y669530D01*
X643151Y669693D01*
X642925Y669861D01*
X642703Y670034D01*
X642486Y670213D01*
X642273Y670398D01*
X642064Y670587D01*
X641860Y670781D01*
X641661Y670980D01*
X641467Y671184D01*
X641278Y671393D01*
X641093Y671606D01*
X640914Y671823D01*
X640741Y672045D01*
X640573Y672271D01*
X640410Y672500D01*
X640253Y672734D01*
X640101Y672971D01*
X639955Y673212D01*
X639816Y673457D01*
X639682Y673705D01*
X639554Y673955D01*
X639432Y674209D01*
X639317Y674466D01*
X639207Y674726D01*
X639104Y674988D01*
X639008Y675252D01*
X638917Y675519D01*
X638834Y675788D01*
X638756Y676059D01*
X638686Y676331D01*
X638622Y676605D01*
X638564Y676881D01*
X638513Y677158D01*
X638469Y677436D01*
X638432Y677715D01*
X638401Y677995D01*
X638378Y678276D01*
X638361Y678557D01*
X638350Y678838D01*
X638347Y679120D01*
X638347Y698543D01*
X684960Y740191D02*
X684960Y759613D01*
X684960Y740191D02*
X684957Y739909D01*
X684946Y739628D01*
X684929Y739347D01*
X684906Y739066D01*
X684875Y738786D01*
X684838Y738507D01*
X684794Y738229D01*
X684743Y737952D01*
X684685Y737676D01*
X684621Y737402D01*
X684551Y737130D01*
X684473Y736859D01*
X684390Y736590D01*
X684299Y736323D01*
X684203Y736059D01*
X684100Y735797D01*
X683990Y735537D01*
X683875Y735280D01*
X683753Y735026D01*
X683625Y734776D01*
X683491Y734528D01*
X683352Y734283D01*
X683206Y734042D01*
X683054Y733805D01*
X682897Y733571D01*
X682734Y733342D01*
X682566Y733116D01*
X682393Y732894D01*
X682214Y732677D01*
X682029Y732464D01*
X681840Y732255D01*
X681646Y732051D01*
X681447Y731852D01*
X681243Y731658D01*
X681034Y731469D01*
X680821Y731284D01*
X680604Y731105D01*
X680382Y730932D01*
X680156Y730764D01*
X679927Y730601D01*
X679693Y730444D01*
X679456Y730292D01*
X679215Y730146D01*
X678970Y730007D01*
X678722Y729873D01*
X678472Y729745D01*
X678218Y729623D01*
X677961Y729508D01*
X677701Y729398D01*
X677439Y729295D01*
X677175Y729199D01*
X676908Y729108D01*
X676639Y729025D01*
X676368Y728947D01*
X676096Y728877D01*
X675822Y728813D01*
X675546Y728755D01*
X675269Y728704D01*
X674991Y728660D01*
X674712Y728623D01*
X674432Y728592D01*
X674151Y728569D01*
X673870Y728552D01*
X673589Y728541D01*
X673307Y728538D01*
X653885Y728538D01*
X653507Y728543D01*
X653128Y728556D01*
X652751Y728579D01*
X652374Y728612D01*
X651998Y728653D01*
X651623Y728704D01*
X651249Y728763D01*
X650877Y728832D01*
X650507Y728910D01*
X650138Y728996D01*
X649772Y729092D01*
X649409Y729197D01*
X649048Y729310D01*
X648689Y729432D01*
X648334Y729563D01*
X647983Y729703D01*
X647634Y729851D01*
X647290Y730007D01*
X646949Y730172D01*
X646613Y730345D01*
X646280Y730526D01*
X645953Y730715D01*
X645630Y730912D01*
X645312Y731117D01*
X644999Y731330D01*
X644691Y731550D01*
X644389Y731778D01*
X644092Y732013D01*
X643801Y732255D01*
X643516Y732504D01*
X643237Y732760D01*
X642965Y733022D01*
X642699Y733291D01*
X642440Y733567D01*
X642187Y733849D01*
X641942Y734137D01*
X641703Y734431D01*
X641472Y734730D01*
X641248Y735035D01*
X641032Y735345D01*
X640823Y735661D01*
X640622Y735982D01*
X640429Y736307D01*
X640244Y736637D01*
X640066Y736971D01*
X639897Y737310D01*
X639737Y737653D01*
X639585Y737999D01*
X639441Y738349D01*
X639306Y738702D01*
X639179Y739059D01*
X639061Y739419D01*
X638952Y739781D01*
X638852Y740146D01*
X638761Y740513D01*
X638679Y740882D01*
X638605Y741254D01*
X638541Y741627D01*
X638486Y742001D01*
X638440Y742377D01*
X638403Y742753D01*
X638376Y743131D01*
X638357Y743509D01*
X638348Y743887D01*
X638348Y744265D01*
X638357Y744643D01*
X638376Y745021D01*
X638403Y745399D01*
X638440Y745775D01*
X638486Y746151D01*
X638541Y746525D01*
X638605Y746898D01*
X638679Y747270D01*
X638761Y747639D01*
X638852Y748006D01*
X638952Y748371D01*
X639061Y748733D01*
X639179Y749093D01*
X639306Y749450D01*
X639441Y749803D01*
X639585Y750153D01*
X639737Y750499D01*
X639897Y750842D01*
X640066Y751181D01*
X640244Y751515D01*
X640429Y751845D01*
X640622Y752170D01*
X640823Y752491D01*
X641032Y752807D01*
X641248Y753117D01*
X641472Y753422D01*
X641703Y753721D01*
X641942Y754015D01*
X642187Y754303D01*
X642440Y754585D01*
X642699Y754861D01*
X642965Y755130D01*
X643237Y755392D01*
X643516Y755648D01*
X643801Y755897D01*
X644092Y756139D01*
X644389Y756374D01*
X644691Y756602D01*
X644999Y756822D01*
X645312Y757035D01*
X645630Y757240D01*
X645953Y757437D01*
X646280Y757626D01*
X646613Y757807D01*
X646949Y757980D01*
X647290Y758145D01*
X647634Y758301D01*
X647983Y758449D01*
X648334Y758589D01*
X648689Y758720D01*
X649048Y758842D01*
X649409Y758955D01*
X649772Y759060D01*
X650138Y759156D01*
X650507Y759242D01*
X650877Y759320D01*
X651249Y759389D01*
X651623Y759448D01*
X651998Y759499D01*
X652374Y759540D01*
X652751Y759573D01*
X653128Y759596D01*
X653507Y759609D01*
X653885Y759614D01*
X653885Y759613D02*
X661653Y759613D01*
X661653Y728538D01*
X727540Y129286D02*
X797460Y129286D01*
X797460Y148708D01*
X797457Y148990D01*
X797446Y149271D01*
X797429Y149552D01*
X797406Y149833D01*
X797375Y150113D01*
X797338Y150392D01*
X797294Y150670D01*
X797243Y150947D01*
X797185Y151223D01*
X797121Y151497D01*
X797051Y151769D01*
X796973Y152040D01*
X796890Y152309D01*
X796799Y152576D01*
X796703Y152840D01*
X796600Y153102D01*
X796490Y153362D01*
X796375Y153619D01*
X796253Y153873D01*
X796125Y154123D01*
X795991Y154371D01*
X795852Y154616D01*
X795706Y154857D01*
X795554Y155094D01*
X795397Y155328D01*
X795234Y155557D01*
X795066Y155783D01*
X794893Y156005D01*
X794714Y156222D01*
X794529Y156435D01*
X794340Y156644D01*
X794146Y156848D01*
X793947Y157047D01*
X793743Y157241D01*
X793534Y157430D01*
X793321Y157615D01*
X793104Y157794D01*
X792882Y157967D01*
X792656Y158135D01*
X792427Y158298D01*
X792193Y158455D01*
X791956Y158607D01*
X791715Y158753D01*
X791470Y158892D01*
X791222Y159026D01*
X790972Y159154D01*
X790718Y159276D01*
X790461Y159391D01*
X790201Y159501D01*
X789939Y159604D01*
X789675Y159700D01*
X789408Y159791D01*
X789139Y159874D01*
X788868Y159952D01*
X788596Y160022D01*
X788322Y160086D01*
X788046Y160144D01*
X787769Y160195D01*
X787491Y160239D01*
X787212Y160276D01*
X786932Y160307D01*
X786651Y160330D01*
X786370Y160347D01*
X786089Y160358D01*
X785807Y160361D01*
X762500Y160361D01*
X762218Y160358D01*
X761937Y160347D01*
X761656Y160330D01*
X761375Y160307D01*
X761095Y160276D01*
X760816Y160239D01*
X760538Y160195D01*
X760261Y160144D01*
X759985Y160086D01*
X759711Y160022D01*
X759439Y159952D01*
X759168Y159874D01*
X758899Y159791D01*
X758632Y159700D01*
X758368Y159604D01*
X758106Y159501D01*
X757846Y159391D01*
X757589Y159276D01*
X757335Y159154D01*
X757085Y159026D01*
X756837Y158892D01*
X756592Y158753D01*
X756351Y158607D01*
X756114Y158455D01*
X755880Y158298D01*
X755651Y158135D01*
X755425Y157967D01*
X755203Y157794D01*
X754986Y157615D01*
X754773Y157430D01*
X754564Y157241D01*
X754360Y157047D01*
X754161Y156848D01*
X753967Y156644D01*
X753778Y156435D01*
X753593Y156222D01*
X753414Y156005D01*
X753241Y155783D01*
X753073Y155557D01*
X752910Y155328D01*
X752753Y155094D01*
X752601Y154857D01*
X752455Y154616D01*
X752316Y154371D01*
X752182Y154123D01*
X752054Y153873D01*
X751932Y153619D01*
X751817Y153362D01*
X751707Y153102D01*
X751604Y152840D01*
X751508Y152576D01*
X751417Y152309D01*
X751334Y152040D01*
X751256Y151769D01*
X751186Y151497D01*
X751122Y151223D01*
X751064Y150947D01*
X751013Y150670D01*
X750969Y150392D01*
X750932Y150113D01*
X750901Y149833D01*
X750878Y149552D01*
X750861Y149271D01*
X750850Y148990D01*
X750847Y148708D01*
X750847Y129286D01*
X750847Y190076D02*
X797460Y190076D01*
X750847Y190076D02*
X750847Y213383D01*
X758616Y213383D01*
X797460Y246367D02*
X797460Y265789D01*
X797460Y246367D02*
X797457Y246085D01*
X797446Y245804D01*
X797429Y245523D01*
X797406Y245242D01*
X797375Y244962D01*
X797338Y244683D01*
X797294Y244405D01*
X797243Y244128D01*
X797185Y243852D01*
X797121Y243578D01*
X797051Y243306D01*
X796973Y243035D01*
X796890Y242766D01*
X796799Y242499D01*
X796703Y242235D01*
X796600Y241973D01*
X796490Y241713D01*
X796375Y241456D01*
X796253Y241202D01*
X796125Y240952D01*
X795991Y240704D01*
X795852Y240459D01*
X795706Y240218D01*
X795554Y239981D01*
X795397Y239747D01*
X795234Y239518D01*
X795066Y239292D01*
X794893Y239070D01*
X794714Y238853D01*
X794529Y238640D01*
X794340Y238431D01*
X794146Y238227D01*
X793947Y238028D01*
X793743Y237834D01*
X793534Y237645D01*
X793321Y237460D01*
X793104Y237281D01*
X792882Y237108D01*
X792656Y236940D01*
X792427Y236777D01*
X792193Y236620D01*
X791956Y236468D01*
X791715Y236322D01*
X791470Y236183D01*
X791222Y236049D01*
X790972Y235921D01*
X790718Y235799D01*
X790461Y235684D01*
X790201Y235574D01*
X789939Y235471D01*
X789675Y235375D01*
X789408Y235284D01*
X789139Y235201D01*
X788868Y235123D01*
X788596Y235053D01*
X788322Y234989D01*
X788046Y234931D01*
X787769Y234880D01*
X787491Y234836D01*
X787212Y234799D01*
X786932Y234768D01*
X786651Y234745D01*
X786370Y234728D01*
X786089Y234717D01*
X785807Y234714D01*
X766385Y234714D01*
X766385Y234713D02*
X766007Y234718D01*
X765628Y234731D01*
X765251Y234754D01*
X764874Y234787D01*
X764498Y234828D01*
X764123Y234879D01*
X763749Y234938D01*
X763377Y235007D01*
X763007Y235085D01*
X762638Y235171D01*
X762272Y235267D01*
X761909Y235372D01*
X761548Y235485D01*
X761189Y235607D01*
X760834Y235738D01*
X760483Y235878D01*
X760134Y236026D01*
X759790Y236182D01*
X759449Y236347D01*
X759113Y236520D01*
X758780Y236701D01*
X758453Y236890D01*
X758130Y237087D01*
X757812Y237292D01*
X757499Y237505D01*
X757191Y237725D01*
X756889Y237953D01*
X756592Y238188D01*
X756301Y238430D01*
X756016Y238679D01*
X755737Y238935D01*
X755465Y239197D01*
X755199Y239466D01*
X754940Y239742D01*
X754687Y240024D01*
X754442Y240312D01*
X754203Y240606D01*
X753972Y240905D01*
X753748Y241210D01*
X753532Y241520D01*
X753323Y241836D01*
X753122Y242157D01*
X752929Y242482D01*
X752744Y242812D01*
X752566Y243146D01*
X752397Y243485D01*
X752237Y243828D01*
X752085Y244174D01*
X751941Y244524D01*
X751806Y244877D01*
X751679Y245234D01*
X751561Y245594D01*
X751452Y245956D01*
X751352Y246321D01*
X751261Y246688D01*
X751179Y247057D01*
X751105Y247429D01*
X751041Y247802D01*
X750986Y248176D01*
X750940Y248552D01*
X750903Y248928D01*
X750876Y249306D01*
X750857Y249684D01*
X750848Y250062D01*
X750848Y250440D01*
X750857Y250818D01*
X750876Y251196D01*
X750903Y251574D01*
X750940Y251950D01*
X750986Y252326D01*
X751041Y252700D01*
X751105Y253073D01*
X751179Y253445D01*
X751261Y253814D01*
X751352Y254181D01*
X751452Y254546D01*
X751561Y254908D01*
X751679Y255268D01*
X751806Y255625D01*
X751941Y255978D01*
X752085Y256328D01*
X752237Y256674D01*
X752397Y257017D01*
X752566Y257356D01*
X752744Y257690D01*
X752929Y258020D01*
X753122Y258345D01*
X753323Y258666D01*
X753532Y258982D01*
X753748Y259292D01*
X753972Y259597D01*
X754203Y259896D01*
X754442Y260190D01*
X754687Y260478D01*
X754940Y260760D01*
X755199Y261036D01*
X755465Y261305D01*
X755737Y261567D01*
X756016Y261823D01*
X756301Y262072D01*
X756592Y262314D01*
X756889Y262549D01*
X757191Y262777D01*
X757499Y262997D01*
X757812Y263210D01*
X758130Y263415D01*
X758453Y263612D01*
X758780Y263801D01*
X759113Y263982D01*
X759449Y264155D01*
X759790Y264320D01*
X760134Y264476D01*
X760483Y264624D01*
X760834Y264764D01*
X761189Y264895D01*
X761548Y265017D01*
X761909Y265130D01*
X762272Y265235D01*
X762638Y265331D01*
X763007Y265417D01*
X763377Y265495D01*
X763749Y265564D01*
X764123Y265623D01*
X764498Y265674D01*
X764874Y265715D01*
X765251Y265748D01*
X765628Y265771D01*
X766007Y265784D01*
X766385Y265789D01*
X774153Y265789D01*
X774153Y234714D01*
X770269Y306488D02*
X770269Y323968D01*
X770269Y306488D02*
X770273Y306157D01*
X770285Y305826D01*
X770305Y305496D01*
X770333Y305166D01*
X770370Y304837D01*
X770414Y304509D01*
X770466Y304182D01*
X770526Y303856D01*
X770594Y303532D01*
X770670Y303210D01*
X770754Y302889D01*
X770845Y302571D01*
X770945Y302255D01*
X771052Y301942D01*
X771166Y301631D01*
X771288Y301324D01*
X771418Y301019D01*
X771554Y300718D01*
X771699Y300419D01*
X771850Y300125D01*
X772008Y299834D01*
X772174Y299548D01*
X772346Y299265D01*
X772526Y298987D01*
X772712Y298713D01*
X772904Y298444D01*
X773104Y298179D01*
X773309Y297920D01*
X773521Y297665D01*
X773739Y297416D01*
X773963Y297172D01*
X774193Y296934D01*
X774428Y296701D01*
X774669Y296474D01*
X774916Y296253D01*
X775168Y296038D01*
X775425Y295830D01*
X775687Y295627D01*
X775954Y295431D01*
X776225Y295242D01*
X776501Y295059D01*
X776782Y294883D01*
X777067Y294714D01*
X777355Y294552D01*
X777648Y294397D01*
X777944Y294250D01*
X778244Y294109D01*
X778547Y293976D01*
X778853Y293850D01*
X779162Y293732D01*
X779474Y293621D01*
X779789Y293518D01*
X780106Y293423D01*
X780425Y293335D01*
X780747Y293255D01*
X781070Y293183D01*
X781395Y293119D01*
X781721Y293063D01*
X782048Y293015D01*
X782377Y292975D01*
X782707Y292942D01*
X783037Y292918D01*
X783367Y292902D01*
X783698Y292894D01*
X784030Y292894D01*
X784361Y292902D01*
X784691Y292918D01*
X785021Y292942D01*
X785351Y292975D01*
X785680Y293015D01*
X786007Y293063D01*
X786333Y293119D01*
X786658Y293183D01*
X786981Y293255D01*
X787303Y293335D01*
X787622Y293423D01*
X787939Y293518D01*
X788254Y293621D01*
X788566Y293732D01*
X788875Y293850D01*
X789181Y293976D01*
X789484Y294109D01*
X789784Y294250D01*
X790080Y294397D01*
X790373Y294552D01*
X790662Y294714D01*
X790946Y294883D01*
X791227Y295059D01*
X791503Y295242D01*
X791774Y295431D01*
X792041Y295627D01*
X792303Y295830D01*
X792560Y296038D01*
X792812Y296253D01*
X793059Y296474D01*
X793300Y296701D01*
X793535Y296934D01*
X793765Y297172D01*
X793989Y297416D01*
X794207Y297665D01*
X794419Y297920D01*
X794624Y298179D01*
X794824Y298444D01*
X795016Y298713D01*
X795202Y298987D01*
X795382Y299265D01*
X795554Y299548D01*
X795720Y299834D01*
X795878Y300125D01*
X796029Y300419D01*
X796174Y300718D01*
X796310Y301019D01*
X796440Y301324D01*
X796562Y301631D01*
X796676Y301942D01*
X796783Y302255D01*
X796883Y302571D01*
X796974Y302889D01*
X797058Y303210D01*
X797134Y303532D01*
X797202Y303856D01*
X797262Y304182D01*
X797314Y304509D01*
X797358Y304837D01*
X797395Y305166D01*
X797423Y305496D01*
X797443Y305826D01*
X797455Y306157D01*
X797459Y306488D01*
X797460Y306488D02*
X797460Y323968D01*
X762500Y323968D01*
X762500Y323967D02*
X762218Y323964D01*
X761937Y323953D01*
X761656Y323936D01*
X761375Y323913D01*
X761095Y323882D01*
X760816Y323845D01*
X760538Y323801D01*
X760261Y323750D01*
X759985Y323692D01*
X759711Y323628D01*
X759439Y323558D01*
X759168Y323480D01*
X758899Y323397D01*
X758632Y323306D01*
X758368Y323210D01*
X758106Y323107D01*
X757846Y322997D01*
X757589Y322882D01*
X757335Y322760D01*
X757085Y322632D01*
X756837Y322498D01*
X756592Y322359D01*
X756351Y322213D01*
X756114Y322061D01*
X755880Y321904D01*
X755651Y321741D01*
X755425Y321573D01*
X755203Y321400D01*
X754986Y321221D01*
X754773Y321036D01*
X754564Y320847D01*
X754360Y320653D01*
X754161Y320454D01*
X753967Y320250D01*
X753778Y320041D01*
X753593Y319828D01*
X753414Y319611D01*
X753241Y319389D01*
X753073Y319163D01*
X752910Y318934D01*
X752753Y318700D01*
X752601Y318463D01*
X752455Y318222D01*
X752316Y317977D01*
X752182Y317729D01*
X752054Y317479D01*
X751932Y317225D01*
X751817Y316968D01*
X751707Y316708D01*
X751604Y316446D01*
X751508Y316182D01*
X751417Y315915D01*
X751334Y315646D01*
X751256Y315375D01*
X751186Y315103D01*
X751122Y314829D01*
X751064Y314553D01*
X751013Y314276D01*
X750969Y313998D01*
X750932Y313719D01*
X750901Y313439D01*
X750878Y313158D01*
X750861Y312877D01*
X750850Y312596D01*
X750847Y312314D01*
X750847Y296777D01*
X727540Y356952D02*
X797460Y356952D01*
X774153Y356952D02*
X750847Y388027D01*
X764443Y370547D02*
X797460Y388027D01*
X781923Y412463D02*
X766385Y412463D01*
X766385Y412462D02*
X766007Y412467D01*
X765628Y412480D01*
X765251Y412503D01*
X764874Y412536D01*
X764498Y412577D01*
X764123Y412628D01*
X763749Y412687D01*
X763377Y412756D01*
X763007Y412834D01*
X762638Y412920D01*
X762272Y413016D01*
X761909Y413121D01*
X761548Y413234D01*
X761189Y413356D01*
X760834Y413487D01*
X760483Y413627D01*
X760134Y413775D01*
X759790Y413931D01*
X759449Y414096D01*
X759113Y414269D01*
X758780Y414450D01*
X758453Y414639D01*
X758130Y414836D01*
X757812Y415041D01*
X757499Y415254D01*
X757191Y415474D01*
X756889Y415702D01*
X756592Y415937D01*
X756301Y416179D01*
X756016Y416428D01*
X755737Y416684D01*
X755465Y416946D01*
X755199Y417215D01*
X754940Y417491D01*
X754687Y417773D01*
X754442Y418061D01*
X754203Y418355D01*
X753972Y418654D01*
X753748Y418959D01*
X753532Y419269D01*
X753323Y419585D01*
X753122Y419906D01*
X752929Y420231D01*
X752744Y420561D01*
X752566Y420895D01*
X752397Y421234D01*
X752237Y421577D01*
X752085Y421923D01*
X751941Y422273D01*
X751806Y422626D01*
X751679Y422983D01*
X751561Y423343D01*
X751452Y423705D01*
X751352Y424070D01*
X751261Y424437D01*
X751179Y424806D01*
X751105Y425178D01*
X751041Y425551D01*
X750986Y425925D01*
X750940Y426301D01*
X750903Y426677D01*
X750876Y427055D01*
X750857Y427433D01*
X750848Y427811D01*
X750848Y428189D01*
X750857Y428567D01*
X750876Y428945D01*
X750903Y429323D01*
X750940Y429699D01*
X750986Y430075D01*
X751041Y430449D01*
X751105Y430822D01*
X751179Y431194D01*
X751261Y431563D01*
X751352Y431930D01*
X751452Y432295D01*
X751561Y432657D01*
X751679Y433017D01*
X751806Y433374D01*
X751941Y433727D01*
X752085Y434077D01*
X752237Y434423D01*
X752397Y434766D01*
X752566Y435105D01*
X752744Y435439D01*
X752929Y435769D01*
X753122Y436094D01*
X753323Y436415D01*
X753532Y436731D01*
X753748Y437041D01*
X753972Y437346D01*
X754203Y437645D01*
X754442Y437939D01*
X754687Y438227D01*
X754940Y438509D01*
X755199Y438785D01*
X755465Y439054D01*
X755737Y439316D01*
X756016Y439572D01*
X756301Y439821D01*
X756592Y440063D01*
X756889Y440298D01*
X757191Y440526D01*
X757499Y440746D01*
X757812Y440959D01*
X758130Y441164D01*
X758453Y441361D01*
X758780Y441550D01*
X759113Y441731D01*
X759449Y441904D01*
X759790Y442069D01*
X760134Y442225D01*
X760483Y442373D01*
X760834Y442513D01*
X761189Y442644D01*
X761548Y442766D01*
X761909Y442879D01*
X762272Y442984D01*
X762638Y443080D01*
X763007Y443166D01*
X763377Y443244D01*
X763749Y443313D01*
X764123Y443372D01*
X764498Y443423D01*
X764874Y443464D01*
X765251Y443497D01*
X765628Y443520D01*
X766007Y443533D01*
X766385Y443538D01*
X781923Y443538D01*
X782301Y443533D01*
X782680Y443520D01*
X783057Y443497D01*
X783434Y443464D01*
X783810Y443423D01*
X784185Y443372D01*
X784559Y443313D01*
X784931Y443244D01*
X785301Y443166D01*
X785670Y443080D01*
X786036Y442984D01*
X786399Y442879D01*
X786760Y442766D01*
X787119Y442644D01*
X787474Y442513D01*
X787825Y442373D01*
X788174Y442225D01*
X788518Y442069D01*
X788859Y441904D01*
X789195Y441731D01*
X789528Y441550D01*
X789855Y441361D01*
X790178Y441164D01*
X790496Y440959D01*
X790809Y440746D01*
X791117Y440526D01*
X791419Y440298D01*
X791716Y440063D01*
X792007Y439821D01*
X792292Y439572D01*
X792571Y439316D01*
X792843Y439054D01*
X793109Y438785D01*
X793368Y438509D01*
X793621Y438227D01*
X793866Y437939D01*
X794105Y437645D01*
X794336Y437346D01*
X794560Y437041D01*
X794776Y436731D01*
X794985Y436415D01*
X795186Y436094D01*
X795379Y435769D01*
X795564Y435439D01*
X795742Y435105D01*
X795911Y434766D01*
X796071Y434423D01*
X796223Y434077D01*
X796367Y433727D01*
X796502Y433374D01*
X796629Y433017D01*
X796747Y432657D01*
X796856Y432295D01*
X796956Y431930D01*
X797047Y431563D01*
X797129Y431194D01*
X797203Y430822D01*
X797267Y430449D01*
X797322Y430075D01*
X797368Y429699D01*
X797405Y429323D01*
X797432Y428945D01*
X797451Y428567D01*
X797460Y428189D01*
X797460Y427811D01*
X797451Y427433D01*
X797432Y427055D01*
X797405Y426677D01*
X797368Y426301D01*
X797322Y425925D01*
X797267Y425551D01*
X797203Y425178D01*
X797129Y424806D01*
X797047Y424437D01*
X796956Y424070D01*
X796856Y423705D01*
X796747Y423343D01*
X796629Y422983D01*
X796502Y422626D01*
X796367Y422273D01*
X796223Y421923D01*
X796071Y421577D01*
X795911Y421234D01*
X795742Y420895D01*
X795564Y420561D01*
X795379Y420231D01*
X795186Y419906D01*
X794985Y419585D01*
X794776Y419269D01*
X794560Y418959D01*
X794336Y418654D01*
X794105Y418355D01*
X793866Y418061D01*
X793621Y417773D01*
X793368Y417491D01*
X793109Y417215D01*
X792843Y416946D01*
X792571Y416684D01*
X792292Y416428D01*
X792007Y416179D01*
X791716Y415937D01*
X791419Y415702D01*
X791117Y415474D01*
X790809Y415254D01*
X790496Y415041D01*
X790178Y414836D01*
X789855Y414639D01*
X789528Y414450D01*
X789195Y414269D01*
X788859Y414096D01*
X788518Y413931D01*
X788174Y413775D01*
X787825Y413627D01*
X787474Y413487D01*
X787119Y413356D01*
X786760Y413234D01*
X786399Y413121D01*
X786036Y413016D01*
X785670Y412920D01*
X785301Y412834D01*
X784931Y412756D01*
X784559Y412687D01*
X784185Y412628D01*
X783810Y412577D01*
X783434Y412536D01*
X783057Y412503D01*
X782680Y412480D01*
X782301Y412467D01*
X781923Y412462D01*
X785807Y473213D02*
X750847Y473213D01*
X785807Y473213D02*
X786089Y473216D01*
X786370Y473227D01*
X786651Y473244D01*
X786932Y473267D01*
X787212Y473298D01*
X787491Y473335D01*
X787769Y473379D01*
X788046Y473430D01*
X788322Y473488D01*
X788596Y473552D01*
X788868Y473622D01*
X789139Y473700D01*
X789408Y473783D01*
X789675Y473874D01*
X789939Y473970D01*
X790201Y474073D01*
X790461Y474183D01*
X790718Y474298D01*
X790972Y474420D01*
X791222Y474548D01*
X791470Y474682D01*
X791715Y474821D01*
X791956Y474967D01*
X792193Y475119D01*
X792427Y475276D01*
X792656Y475439D01*
X792882Y475607D01*
X793104Y475780D01*
X793321Y475959D01*
X793534Y476144D01*
X793743Y476333D01*
X793947Y476527D01*
X794146Y476726D01*
X794340Y476930D01*
X794529Y477139D01*
X794714Y477352D01*
X794893Y477569D01*
X795066Y477791D01*
X795234Y478017D01*
X795397Y478246D01*
X795554Y478480D01*
X795706Y478717D01*
X795852Y478958D01*
X795991Y479203D01*
X796125Y479451D01*
X796253Y479701D01*
X796375Y479955D01*
X796490Y480212D01*
X796600Y480472D01*
X796703Y480734D01*
X796799Y480998D01*
X796890Y481265D01*
X796973Y481534D01*
X797051Y481805D01*
X797121Y482077D01*
X797185Y482351D01*
X797243Y482627D01*
X797294Y482904D01*
X797338Y483182D01*
X797375Y483461D01*
X797406Y483741D01*
X797429Y484022D01*
X797446Y484303D01*
X797457Y484584D01*
X797460Y484866D01*
X797460Y504288D01*
X750847Y504288D01*
X750847Y528343D02*
X750847Y551649D01*
X727540Y536112D02*
X785807Y536112D01*
X786089Y536115D01*
X786370Y536126D01*
X786651Y536143D01*
X786932Y536166D01*
X787212Y536197D01*
X787491Y536234D01*
X787769Y536278D01*
X788046Y536329D01*
X788322Y536387D01*
X788596Y536451D01*
X788868Y536521D01*
X789139Y536599D01*
X789408Y536682D01*
X789675Y536773D01*
X789939Y536869D01*
X790201Y536972D01*
X790461Y537082D01*
X790718Y537197D01*
X790972Y537319D01*
X791223Y537447D01*
X791470Y537581D01*
X791715Y537721D01*
X791956Y537866D01*
X792193Y538018D01*
X792427Y538175D01*
X792657Y538338D01*
X792882Y538506D01*
X793104Y538680D01*
X793321Y538859D01*
X793534Y539043D01*
X793743Y539232D01*
X793947Y539426D01*
X794146Y539625D01*
X794340Y539829D01*
X794530Y540038D01*
X794714Y540251D01*
X794893Y540468D01*
X795066Y540690D01*
X795235Y540916D01*
X795397Y541145D01*
X795554Y541379D01*
X795706Y541617D01*
X795852Y541858D01*
X795991Y542102D01*
X796125Y542350D01*
X796253Y542601D01*
X796375Y542855D01*
X796490Y543111D01*
X796600Y543371D01*
X796703Y543633D01*
X796799Y543898D01*
X796890Y544164D01*
X796974Y544433D01*
X797051Y544704D01*
X797121Y544977D01*
X797186Y545251D01*
X797243Y545526D01*
X797294Y545803D01*
X797338Y546082D01*
X797375Y546361D01*
X797406Y546641D01*
X797429Y546921D01*
X797446Y547202D01*
X797457Y547484D01*
X797460Y547765D01*
X797460Y551649D01*
X797460Y615283D02*
X727540Y615283D01*
X797460Y615283D02*
X797460Y634705D01*
X797457Y634987D01*
X797446Y635268D01*
X797429Y635549D01*
X797406Y635830D01*
X797375Y636110D01*
X797338Y636389D01*
X797294Y636667D01*
X797243Y636944D01*
X797185Y637220D01*
X797121Y637494D01*
X797051Y637766D01*
X796973Y638037D01*
X796890Y638306D01*
X796799Y638573D01*
X796703Y638837D01*
X796600Y639099D01*
X796490Y639359D01*
X796375Y639616D01*
X796253Y639870D01*
X796125Y640120D01*
X795991Y640368D01*
X795852Y640613D01*
X795706Y640854D01*
X795554Y641091D01*
X795397Y641325D01*
X795234Y641554D01*
X795066Y641780D01*
X794893Y642002D01*
X794714Y642219D01*
X794529Y642432D01*
X794340Y642641D01*
X794146Y642845D01*
X793947Y643044D01*
X793743Y643238D01*
X793534Y643427D01*
X793321Y643612D01*
X793104Y643791D01*
X792882Y643964D01*
X792656Y644132D01*
X792427Y644295D01*
X792193Y644452D01*
X791956Y644604D01*
X791715Y644750D01*
X791470Y644889D01*
X791222Y645023D01*
X790972Y645151D01*
X790718Y645273D01*
X790461Y645388D01*
X790201Y645498D01*
X789939Y645601D01*
X789675Y645697D01*
X789408Y645788D01*
X789139Y645871D01*
X788868Y645949D01*
X788596Y646019D01*
X788322Y646083D01*
X788046Y646141D01*
X787769Y646192D01*
X787491Y646236D01*
X787212Y646273D01*
X786932Y646304D01*
X786651Y646327D01*
X786370Y646344D01*
X786089Y646355D01*
X785807Y646358D01*
X762500Y646358D01*
X762218Y646355D01*
X761937Y646344D01*
X761656Y646327D01*
X761375Y646304D01*
X761095Y646273D01*
X760816Y646236D01*
X760538Y646192D01*
X760261Y646141D01*
X759985Y646083D01*
X759711Y646019D01*
X759439Y645949D01*
X759168Y645871D01*
X758899Y645788D01*
X758632Y645697D01*
X758368Y645601D01*
X758106Y645498D01*
X757846Y645388D01*
X757589Y645273D01*
X757335Y645151D01*
X757085Y645023D01*
X756837Y644889D01*
X756592Y644750D01*
X756351Y644604D01*
X756114Y644452D01*
X755880Y644295D01*
X755651Y644132D01*
X755425Y643964D01*
X755203Y643791D01*
X754986Y643612D01*
X754773Y643427D01*
X754564Y643238D01*
X754360Y643044D01*
X754161Y642845D01*
X753967Y642641D01*
X753778Y642432D01*
X753593Y642219D01*
X753414Y642002D01*
X753241Y641780D01*
X753073Y641554D01*
X752910Y641325D01*
X752753Y641091D01*
X752601Y640854D01*
X752455Y640613D01*
X752316Y640368D01*
X752182Y640120D01*
X752054Y639870D01*
X751932Y639616D01*
X751817Y639359D01*
X751707Y639099D01*
X751604Y638837D01*
X751508Y638573D01*
X751417Y638306D01*
X751334Y638037D01*
X751256Y637766D01*
X751186Y637494D01*
X751122Y637220D01*
X751064Y636944D01*
X751013Y636667D01*
X750969Y636389D01*
X750932Y636110D01*
X750901Y635830D01*
X750878Y635549D01*
X750861Y635268D01*
X750850Y634987D01*
X750847Y634705D01*
X750847Y615283D01*
X766385Y673461D02*
X781923Y673461D01*
X766385Y673461D02*
X766007Y673466D01*
X765628Y673479D01*
X765251Y673502D01*
X764874Y673535D01*
X764498Y673576D01*
X764123Y673627D01*
X763749Y673686D01*
X763377Y673755D01*
X763007Y673833D01*
X762638Y673919D01*
X762272Y674015D01*
X761909Y674120D01*
X761548Y674233D01*
X761189Y674355D01*
X760834Y674486D01*
X760483Y674626D01*
X760134Y674774D01*
X759790Y674930D01*
X759449Y675095D01*
X759113Y675268D01*
X758780Y675449D01*
X758453Y675638D01*
X758130Y675835D01*
X757812Y676040D01*
X757499Y676253D01*
X757191Y676473D01*
X756889Y676701D01*
X756592Y676936D01*
X756301Y677178D01*
X756016Y677427D01*
X755737Y677683D01*
X755465Y677945D01*
X755199Y678214D01*
X754940Y678490D01*
X754687Y678772D01*
X754442Y679060D01*
X754203Y679354D01*
X753972Y679653D01*
X753748Y679958D01*
X753532Y680268D01*
X753323Y680584D01*
X753122Y680905D01*
X752929Y681230D01*
X752744Y681560D01*
X752566Y681894D01*
X752397Y682233D01*
X752237Y682576D01*
X752085Y682922D01*
X751941Y683272D01*
X751806Y683625D01*
X751679Y683982D01*
X751561Y684342D01*
X751452Y684704D01*
X751352Y685069D01*
X751261Y685436D01*
X751179Y685805D01*
X751105Y686177D01*
X751041Y686550D01*
X750986Y686924D01*
X750940Y687300D01*
X750903Y687676D01*
X750876Y688054D01*
X750857Y688432D01*
X750848Y688810D01*
X750848Y689188D01*
X750857Y689566D01*
X750876Y689944D01*
X750903Y690322D01*
X750940Y690698D01*
X750986Y691074D01*
X751041Y691448D01*
X751105Y691821D01*
X751179Y692193D01*
X751261Y692562D01*
X751352Y692929D01*
X751452Y693294D01*
X751561Y693656D01*
X751679Y694016D01*
X751806Y694373D01*
X751941Y694726D01*
X752085Y695076D01*
X752237Y695422D01*
X752397Y695765D01*
X752566Y696104D01*
X752744Y696438D01*
X752929Y696768D01*
X753122Y697093D01*
X753323Y697414D01*
X753532Y697730D01*
X753748Y698040D01*
X753972Y698345D01*
X754203Y698644D01*
X754442Y698938D01*
X754687Y699226D01*
X754940Y699508D01*
X755199Y699784D01*
X755465Y700053D01*
X755737Y700315D01*
X756016Y700571D01*
X756301Y700820D01*
X756592Y701062D01*
X756889Y701297D01*
X757191Y701525D01*
X757499Y701745D01*
X757812Y701958D01*
X758130Y702163D01*
X758453Y702360D01*
X758780Y702549D01*
X759113Y702730D01*
X759449Y702903D01*
X759790Y703068D01*
X760134Y703224D01*
X760483Y703372D01*
X760834Y703512D01*
X761189Y703643D01*
X761548Y703765D01*
X761909Y703878D01*
X762272Y703983D01*
X762638Y704079D01*
X763007Y704165D01*
X763377Y704243D01*
X763749Y704312D01*
X764123Y704371D01*
X764498Y704422D01*
X764874Y704463D01*
X765251Y704496D01*
X765628Y704519D01*
X766007Y704532D01*
X766385Y704537D01*
X781923Y704537D01*
X782301Y704532D01*
X782680Y704519D01*
X783057Y704496D01*
X783434Y704463D01*
X783810Y704422D01*
X784185Y704371D01*
X784559Y704312D01*
X784931Y704243D01*
X785301Y704165D01*
X785670Y704079D01*
X786036Y703983D01*
X786399Y703878D01*
X786760Y703765D01*
X787119Y703643D01*
X787474Y703512D01*
X787825Y703372D01*
X788174Y703224D01*
X788518Y703068D01*
X788859Y702903D01*
X789195Y702730D01*
X789528Y702549D01*
X789855Y702360D01*
X790178Y702163D01*
X790496Y701958D01*
X790809Y701745D01*
X791117Y701525D01*
X791419Y701297D01*
X791716Y701062D01*
X792007Y700820D01*
X792292Y700571D01*
X792571Y700315D01*
X792843Y700053D01*
X793109Y699784D01*
X793368Y699508D01*
X793621Y699226D01*
X793866Y698938D01*
X794105Y698644D01*
X794336Y698345D01*
X794560Y698040D01*
X794776Y697730D01*
X794985Y697414D01*
X795186Y697093D01*
X795379Y696768D01*
X795564Y696438D01*
X795742Y696104D01*
X795911Y695765D01*
X796071Y695422D01*
X796223Y695076D01*
X796367Y694726D01*
X796502Y694373D01*
X796629Y694016D01*
X796747Y693656D01*
X796856Y693294D01*
X796956Y692929D01*
X797047Y692562D01*
X797129Y692193D01*
X797203Y691821D01*
X797267Y691448D01*
X797322Y691074D01*
X797368Y690698D01*
X797405Y690322D01*
X797432Y689944D01*
X797451Y689566D01*
X797460Y689188D01*
X797460Y688810D01*
X797451Y688432D01*
X797432Y688054D01*
X797405Y687676D01*
X797368Y687300D01*
X797322Y686924D01*
X797267Y686550D01*
X797203Y686177D01*
X797129Y685805D01*
X797047Y685436D01*
X796956Y685069D01*
X796856Y684704D01*
X796747Y684342D01*
X796629Y683982D01*
X796502Y683625D01*
X796367Y683272D01*
X796223Y682922D01*
X796071Y682576D01*
X795911Y682233D01*
X795742Y681894D01*
X795564Y681560D01*
X795379Y681230D01*
X795186Y680905D01*
X794985Y680584D01*
X794776Y680268D01*
X794560Y679958D01*
X794336Y679653D01*
X794105Y679354D01*
X793866Y679060D01*
X793621Y678772D01*
X793368Y678490D01*
X793109Y678214D01*
X792843Y677945D01*
X792571Y677683D01*
X792292Y677427D01*
X792007Y677178D01*
X791716Y676936D01*
X791419Y676701D01*
X791117Y676473D01*
X790809Y676253D01*
X790496Y676040D01*
X790178Y675835D01*
X789855Y675638D01*
X789528Y675449D01*
X789195Y675268D01*
X788859Y675095D01*
X788518Y674930D01*
X788174Y674774D01*
X787825Y674626D01*
X787474Y674486D01*
X787119Y674355D01*
X786760Y674233D01*
X786399Y674120D01*
X786036Y674015D01*
X785670Y673919D01*
X785301Y673833D01*
X784931Y673755D01*
X784559Y673686D01*
X784185Y673627D01*
X783810Y673576D01*
X783434Y673535D01*
X783057Y673502D01*
X782680Y673479D01*
X782301Y673466D01*
X781923Y673461D01*
X770269Y745235D02*
X770269Y762715D01*
X770269Y745235D02*
X770273Y744904D01*
X770285Y744573D01*
X770305Y744243D01*
X770333Y743913D01*
X770370Y743584D01*
X770414Y743256D01*
X770466Y742929D01*
X770526Y742603D01*
X770594Y742279D01*
X770670Y741957D01*
X770754Y741636D01*
X770845Y741318D01*
X770945Y741002D01*
X771052Y740689D01*
X771166Y740378D01*
X771288Y740071D01*
X771418Y739766D01*
X771554Y739465D01*
X771699Y739166D01*
X771850Y738872D01*
X772008Y738581D01*
X772174Y738295D01*
X772346Y738012D01*
X772526Y737734D01*
X772712Y737460D01*
X772904Y737191D01*
X773104Y736926D01*
X773309Y736667D01*
X773521Y736412D01*
X773739Y736163D01*
X773963Y735919D01*
X774193Y735681D01*
X774428Y735448D01*
X774669Y735221D01*
X774916Y735000D01*
X775168Y734785D01*
X775425Y734577D01*
X775687Y734374D01*
X775954Y734178D01*
X776225Y733989D01*
X776501Y733806D01*
X776782Y733630D01*
X777067Y733461D01*
X777355Y733299D01*
X777648Y733144D01*
X777944Y732997D01*
X778244Y732856D01*
X778547Y732723D01*
X778853Y732597D01*
X779162Y732479D01*
X779474Y732368D01*
X779789Y732265D01*
X780106Y732170D01*
X780425Y732082D01*
X780747Y732002D01*
X781070Y731930D01*
X781395Y731866D01*
X781721Y731810D01*
X782048Y731762D01*
X782377Y731722D01*
X782707Y731689D01*
X783037Y731665D01*
X783367Y731649D01*
X783698Y731641D01*
X784030Y731641D01*
X784361Y731649D01*
X784691Y731665D01*
X785021Y731689D01*
X785351Y731722D01*
X785680Y731762D01*
X786007Y731810D01*
X786333Y731866D01*
X786658Y731930D01*
X786981Y732002D01*
X787303Y732082D01*
X787622Y732170D01*
X787939Y732265D01*
X788254Y732368D01*
X788566Y732479D01*
X788875Y732597D01*
X789181Y732723D01*
X789484Y732856D01*
X789784Y732997D01*
X790080Y733144D01*
X790373Y733299D01*
X790662Y733461D01*
X790946Y733630D01*
X791227Y733806D01*
X791503Y733989D01*
X791774Y734178D01*
X792041Y734374D01*
X792303Y734577D01*
X792560Y734785D01*
X792812Y735000D01*
X793059Y735221D01*
X793300Y735448D01*
X793535Y735681D01*
X793765Y735919D01*
X793989Y736163D01*
X794207Y736412D01*
X794419Y736667D01*
X794624Y736926D01*
X794824Y737191D01*
X795016Y737460D01*
X795202Y737734D01*
X795382Y738012D01*
X795554Y738295D01*
X795720Y738581D01*
X795878Y738872D01*
X796029Y739166D01*
X796174Y739465D01*
X796310Y739766D01*
X796440Y740071D01*
X796562Y740378D01*
X796676Y740689D01*
X796783Y741002D01*
X796883Y741318D01*
X796974Y741636D01*
X797058Y741957D01*
X797134Y742279D01*
X797202Y742603D01*
X797262Y742929D01*
X797314Y743256D01*
X797358Y743584D01*
X797395Y743913D01*
X797423Y744243D01*
X797443Y744573D01*
X797455Y744904D01*
X797459Y745235D01*
X797460Y745235D02*
X797460Y762715D01*
X762500Y762715D01*
X762218Y762712D01*
X761937Y762701D01*
X761656Y762684D01*
X761375Y762661D01*
X761095Y762630D01*
X760816Y762593D01*
X760538Y762549D01*
X760261Y762498D01*
X759985Y762440D01*
X759711Y762376D01*
X759439Y762306D01*
X759168Y762228D01*
X758899Y762145D01*
X758632Y762054D01*
X758368Y761958D01*
X758106Y761855D01*
X757846Y761745D01*
X757589Y761630D01*
X757335Y761508D01*
X757085Y761380D01*
X756837Y761246D01*
X756592Y761107D01*
X756351Y760961D01*
X756114Y760809D01*
X755880Y760652D01*
X755651Y760489D01*
X755425Y760321D01*
X755203Y760148D01*
X754986Y759969D01*
X754773Y759784D01*
X754564Y759595D01*
X754360Y759401D01*
X754161Y759202D01*
X753967Y758998D01*
X753778Y758789D01*
X753593Y758576D01*
X753414Y758359D01*
X753241Y758137D01*
X753073Y757911D01*
X752910Y757682D01*
X752753Y757448D01*
X752601Y757211D01*
X752455Y756970D01*
X752316Y756725D01*
X752182Y756477D01*
X752054Y756227D01*
X751932Y755973D01*
X751817Y755716D01*
X751707Y755456D01*
X751604Y755194D01*
X751508Y754930D01*
X751417Y754663D01*
X751334Y754394D01*
X751256Y754123D01*
X751186Y753851D01*
X751122Y753577D01*
X751064Y753301D01*
X751013Y753024D01*
X750969Y752746D01*
X750932Y752467D01*
X750901Y752187D01*
X750878Y751906D01*
X750861Y751625D01*
X750850Y751344D01*
X750847Y751062D01*
X750847Y735524D01*
X750847Y795323D02*
X797460Y795323D01*
X750847Y795323D02*
X750847Y818629D01*
X758616Y818629D01*
X727540Y870714D02*
X797460Y870714D01*
X797460Y851292D01*
X797457Y851010D01*
X797446Y850729D01*
X797429Y850448D01*
X797406Y850167D01*
X797375Y849887D01*
X797338Y849608D01*
X797294Y849330D01*
X797243Y849053D01*
X797185Y848777D01*
X797121Y848503D01*
X797051Y848231D01*
X796973Y847960D01*
X796890Y847691D01*
X796799Y847424D01*
X796703Y847160D01*
X796600Y846898D01*
X796490Y846638D01*
X796375Y846381D01*
X796253Y846127D01*
X796125Y845877D01*
X795991Y845629D01*
X795852Y845384D01*
X795706Y845143D01*
X795554Y844906D01*
X795397Y844672D01*
X795234Y844443D01*
X795066Y844217D01*
X794893Y843995D01*
X794714Y843778D01*
X794529Y843565D01*
X794340Y843356D01*
X794146Y843152D01*
X793947Y842953D01*
X793743Y842759D01*
X793534Y842570D01*
X793321Y842385D01*
X793104Y842206D01*
X792882Y842033D01*
X792656Y841865D01*
X792427Y841702D01*
X792193Y841545D01*
X791956Y841393D01*
X791715Y841247D01*
X791470Y841108D01*
X791222Y840974D01*
X790972Y840846D01*
X790718Y840724D01*
X790461Y840609D01*
X790201Y840499D01*
X789939Y840396D01*
X789675Y840300D01*
X789408Y840209D01*
X789139Y840126D01*
X788868Y840048D01*
X788596Y839978D01*
X788322Y839914D01*
X788046Y839856D01*
X787769Y839805D01*
X787491Y839761D01*
X787212Y839724D01*
X786932Y839693D01*
X786651Y839670D01*
X786370Y839653D01*
X786089Y839642D01*
X785807Y839639D01*
X762500Y839639D01*
X762218Y839642D01*
X761937Y839653D01*
X761656Y839670D01*
X761375Y839693D01*
X761095Y839724D01*
X760816Y839761D01*
X760538Y839805D01*
X760261Y839856D01*
X759985Y839914D01*
X759711Y839978D01*
X759439Y840048D01*
X759168Y840126D01*
X758899Y840209D01*
X758632Y840300D01*
X758368Y840396D01*
X758106Y840499D01*
X757846Y840609D01*
X757589Y840724D01*
X757335Y840846D01*
X757085Y840974D01*
X756837Y841108D01*
X756592Y841247D01*
X756351Y841393D01*
X756114Y841545D01*
X755880Y841702D01*
X755651Y841865D01*
X755425Y842033D01*
X755203Y842206D01*
X754986Y842385D01*
X754773Y842570D01*
X754564Y842759D01*
X754360Y842953D01*
X754161Y843152D01*
X753967Y843356D01*
X753778Y843565D01*
X753593Y843778D01*
X753414Y843995D01*
X753241Y844217D01*
X753073Y844443D01*
X752910Y844672D01*
X752753Y844906D01*
X752601Y845143D01*
X752455Y845384D01*
X752316Y845629D01*
X752182Y845877D01*
X752054Y846127D01*
X751932Y846381D01*
X751817Y846638D01*
X751707Y846898D01*
X751604Y847160D01*
X751508Y847424D01*
X751417Y847691D01*
X751334Y847960D01*
X751256Y848231D01*
X751186Y848503D01*
X751122Y848777D01*
X751064Y849053D01*
X751013Y849330D01*
X750969Y849608D01*
X750932Y849887D01*
X750901Y850167D01*
X750878Y850448D01*
X750861Y850729D01*
X750850Y851010D01*
X750847Y851292D01*
X750847Y870714D01*
X2066807Y178884D02*
X2078460Y178884D01*
X2078460Y140040D01*
X2055153Y140040D01*
X2054778Y140045D01*
X2054402Y140058D01*
X2054028Y140081D01*
X2053653Y140113D01*
X2053280Y140153D01*
X2052908Y140203D01*
X2052537Y140262D01*
X2052168Y140329D01*
X2051800Y140406D01*
X2051435Y140492D01*
X2051071Y140586D01*
X2050710Y140689D01*
X2050351Y140800D01*
X2049996Y140921D01*
X2049643Y141050D01*
X2049294Y141187D01*
X2048948Y141333D01*
X2048605Y141487D01*
X2048267Y141649D01*
X2047932Y141820D01*
X2047602Y141998D01*
X2047276Y142185D01*
X2046955Y142379D01*
X2046638Y142581D01*
X2046326Y142790D01*
X2046020Y143007D01*
X2045719Y143232D01*
X2045423Y143463D01*
X2045133Y143702D01*
X2044849Y143948D01*
X2044571Y144200D01*
X2044300Y144459D01*
X2044034Y144725D01*
X2043775Y144996D01*
X2043523Y145274D01*
X2043277Y145558D01*
X2043038Y145848D01*
X2042807Y146144D01*
X2042582Y146445D01*
X2042365Y146751D01*
X2042156Y147063D01*
X2041954Y147380D01*
X2041760Y147701D01*
X2041573Y148027D01*
X2041395Y148357D01*
X2041224Y148692D01*
X2041062Y149030D01*
X2040908Y149373D01*
X2040762Y149719D01*
X2040625Y150068D01*
X2040496Y150421D01*
X2040375Y150776D01*
X2040264Y151135D01*
X2040161Y151496D01*
X2040067Y151860D01*
X2039981Y152225D01*
X2039904Y152593D01*
X2039837Y152962D01*
X2039778Y153333D01*
X2039728Y153705D01*
X2039688Y154078D01*
X2039656Y154453D01*
X2039633Y154827D01*
X2039620Y155203D01*
X2039615Y155578D01*
X2039616Y155578D02*
X2039616Y194422D01*
X2039615Y194422D02*
X2039620Y194803D01*
X2039634Y195184D01*
X2039657Y195565D01*
X2039690Y195945D01*
X2039732Y196324D01*
X2039783Y196702D01*
X2039844Y197078D01*
X2039914Y197453D01*
X2039993Y197826D01*
X2040081Y198197D01*
X2040178Y198566D01*
X2040284Y198932D01*
X2040399Y199296D01*
X2040523Y199657D01*
X2040656Y200014D01*
X2040798Y200368D01*
X2040948Y200719D01*
X2041107Y201065D01*
X2041274Y201408D01*
X2041450Y201746D01*
X2041634Y202081D01*
X2041826Y202410D01*
X2042026Y202735D01*
X2042234Y203054D01*
X2042449Y203369D01*
X2042673Y203678D01*
X2042904Y203981D01*
X2043142Y204279D01*
X2043387Y204571D01*
X2043640Y204857D01*
X2043900Y205136D01*
X2044166Y205409D01*
X2044439Y205675D01*
X2044718Y205935D01*
X2045004Y206187D01*
X2045296Y206433D01*
X2045593Y206671D01*
X2045897Y206902D01*
X2046206Y207126D01*
X2046520Y207341D01*
X2046840Y207549D01*
X2047165Y207749D01*
X2047494Y207941D01*
X2047828Y208125D01*
X2048167Y208301D01*
X2048509Y208468D01*
X2048856Y208627D01*
X2049207Y208777D01*
X2049561Y208919D01*
X2049918Y209052D01*
X2050279Y209176D01*
X2050642Y209291D01*
X2051009Y209397D01*
X2051377Y209494D01*
X2051748Y209582D01*
X2052121Y209661D01*
X2052496Y209731D01*
X2052873Y209792D01*
X2053251Y209843D01*
X2053630Y209885D01*
X2054010Y209918D01*
X2054390Y209941D01*
X2054771Y209955D01*
X2055153Y209960D01*
X2078460Y209960D01*
X2111616Y209960D02*
X2111616Y140040D01*
X2150460Y140040D02*
X2111616Y209960D01*
X2150460Y209960D02*
X2150460Y140040D01*
X2183616Y140040D02*
X2183616Y209960D01*
X2203038Y209960D01*
X2203507Y209954D01*
X2203976Y209937D01*
X2204445Y209909D01*
X2204913Y209869D01*
X2205379Y209818D01*
X2205844Y209756D01*
X2206308Y209683D01*
X2206770Y209598D01*
X2207229Y209502D01*
X2207686Y209396D01*
X2208140Y209278D01*
X2208592Y209149D01*
X2209040Y209009D01*
X2209484Y208859D01*
X2209925Y208698D01*
X2210362Y208526D01*
X2210795Y208344D01*
X2211223Y208151D01*
X2211646Y207948D01*
X2212064Y207735D01*
X2212477Y207512D01*
X2212884Y207279D01*
X2213286Y207036D01*
X2213682Y206784D01*
X2214071Y206522D01*
X2214454Y206251D01*
X2214830Y205970D01*
X2215200Y205681D01*
X2215562Y205382D01*
X2215917Y205075D01*
X2216265Y204760D01*
X2216605Y204436D01*
X2216936Y204104D01*
X2217260Y203765D01*
X2217576Y203417D01*
X2217883Y203062D01*
X2218181Y202700D01*
X2218470Y202330D01*
X2218751Y201954D01*
X2219022Y201571D01*
X2219284Y201181D01*
X2219536Y200786D01*
X2219779Y200384D01*
X2220012Y199977D01*
X2220235Y199564D01*
X2220449Y199145D01*
X2220651Y198722D01*
X2220844Y198294D01*
X2221026Y197862D01*
X2221198Y197425D01*
X2221359Y196984D01*
X2221509Y196539D01*
X2221649Y196091D01*
X2221778Y195640D01*
X2221896Y195186D01*
X2222002Y194729D01*
X2222098Y194269D01*
X2222183Y193808D01*
X2222256Y193344D01*
X2222318Y192879D01*
X2222369Y192412D01*
X2222409Y191945D01*
X2222437Y191476D01*
X2222454Y191007D01*
X2222460Y190538D01*
X2222460Y159462D01*
X2222461Y159462D02*
X2222455Y158985D01*
X2222438Y158509D01*
X2222408Y158033D01*
X2222367Y157558D01*
X2222315Y157084D01*
X2222251Y156612D01*
X2222175Y156141D01*
X2222088Y155673D01*
X2221989Y155206D01*
X2221879Y154743D01*
X2221757Y154282D01*
X2221625Y153824D01*
X2221481Y153369D01*
X2221326Y152919D01*
X2221160Y152472D01*
X2220983Y152029D01*
X2220795Y151591D01*
X2220596Y151158D01*
X2220387Y150729D01*
X2220168Y150306D01*
X2219938Y149889D01*
X2219698Y149477D01*
X2219448Y149071D01*
X2219188Y148671D01*
X2218918Y148278D01*
X2218639Y147892D01*
X2218350Y147512D01*
X2218052Y147140D01*
X2217745Y146776D01*
X2217430Y146418D01*
X2217105Y146069D01*
X2216772Y145728D01*
X2216431Y145395D01*
X2216082Y145071D01*
X2215725Y144755D01*
X2215360Y144448D01*
X2214988Y144150D01*
X2214608Y143861D01*
X2214222Y143582D01*
X2213829Y143312D01*
X2213429Y143053D01*
X2213024Y142802D01*
X2212612Y142562D01*
X2212194Y142333D01*
X2211771Y142113D01*
X2211343Y141904D01*
X2210909Y141705D01*
X2210471Y141518D01*
X2210028Y141341D01*
X2209582Y141174D01*
X2209131Y141019D01*
X2208676Y140875D01*
X2208219Y140743D01*
X2207758Y140621D01*
X2207294Y140511D01*
X2206828Y140412D01*
X2206359Y140325D01*
X2205888Y140249D01*
X2205416Y140185D01*
X2204942Y140133D01*
X2204467Y140092D01*
X2203991Y140062D01*
X2203515Y140045D01*
X2203038Y140039D01*
X2203038Y140040D02*
X2183616Y140040D01*
X216384Y178884D02*
X204731Y178884D01*
X216384Y178884D02*
X216384Y140040D01*
X193078Y140040D01*
X192703Y140045D01*
X192327Y140058D01*
X191953Y140081D01*
X191578Y140113D01*
X191205Y140153D01*
X190833Y140203D01*
X190462Y140262D01*
X190093Y140329D01*
X189725Y140406D01*
X189360Y140492D01*
X188996Y140586D01*
X188635Y140689D01*
X188276Y140800D01*
X187921Y140921D01*
X187568Y141050D01*
X187219Y141187D01*
X186873Y141333D01*
X186530Y141487D01*
X186192Y141649D01*
X185857Y141820D01*
X185527Y141998D01*
X185201Y142185D01*
X184880Y142379D01*
X184563Y142581D01*
X184251Y142790D01*
X183945Y143007D01*
X183644Y143232D01*
X183348Y143463D01*
X183058Y143702D01*
X182774Y143948D01*
X182496Y144200D01*
X182225Y144459D01*
X181959Y144725D01*
X181700Y144996D01*
X181448Y145274D01*
X181202Y145558D01*
X180963Y145848D01*
X180732Y146144D01*
X180507Y146445D01*
X180290Y146751D01*
X180081Y147063D01*
X179879Y147380D01*
X179685Y147701D01*
X179498Y148027D01*
X179320Y148357D01*
X179149Y148692D01*
X178987Y149030D01*
X178833Y149373D01*
X178687Y149719D01*
X178550Y150068D01*
X178421Y150421D01*
X178300Y150776D01*
X178189Y151135D01*
X178086Y151496D01*
X177992Y151860D01*
X177906Y152225D01*
X177829Y152593D01*
X177762Y152962D01*
X177703Y153333D01*
X177653Y153705D01*
X177613Y154078D01*
X177581Y154453D01*
X177558Y154827D01*
X177545Y155203D01*
X177540Y155578D01*
X177540Y194422D01*
X177545Y194803D01*
X177559Y195184D01*
X177582Y195565D01*
X177615Y195945D01*
X177657Y196324D01*
X177708Y196702D01*
X177769Y197078D01*
X177839Y197453D01*
X177918Y197826D01*
X178006Y198197D01*
X178103Y198566D01*
X178209Y198932D01*
X178324Y199296D01*
X178448Y199657D01*
X178581Y200014D01*
X178723Y200368D01*
X178873Y200719D01*
X179032Y201065D01*
X179199Y201408D01*
X179375Y201746D01*
X179559Y202081D01*
X179751Y202410D01*
X179951Y202735D01*
X180159Y203054D01*
X180374Y203369D01*
X180598Y203678D01*
X180829Y203981D01*
X181067Y204279D01*
X181312Y204571D01*
X181565Y204857D01*
X181825Y205136D01*
X182091Y205409D01*
X182364Y205675D01*
X182643Y205935D01*
X182929Y206187D01*
X183221Y206433D01*
X183518Y206671D01*
X183822Y206902D01*
X184131Y207126D01*
X184445Y207341D01*
X184765Y207549D01*
X185090Y207749D01*
X185419Y207941D01*
X185753Y208125D01*
X186092Y208301D01*
X186434Y208468D01*
X186781Y208627D01*
X187132Y208777D01*
X187486Y208919D01*
X187843Y209052D01*
X188204Y209176D01*
X188567Y209291D01*
X188934Y209397D01*
X189302Y209494D01*
X189673Y209582D01*
X190046Y209661D01*
X190421Y209731D01*
X190798Y209792D01*
X191176Y209843D01*
X191555Y209885D01*
X191935Y209918D01*
X192315Y209941D01*
X192696Y209955D01*
X193078Y209960D01*
X216384Y209960D01*
X249540Y209960D02*
X249540Y140040D01*
X288384Y140040D02*
X249540Y209960D01*
X288384Y209960D02*
X288384Y140040D01*
X321540Y140040D02*
X321540Y209960D01*
X340962Y209960D01*
X341431Y209954D01*
X341900Y209937D01*
X342369Y209909D01*
X342837Y209869D01*
X343303Y209818D01*
X343768Y209756D01*
X344232Y209683D01*
X344694Y209598D01*
X345153Y209502D01*
X345610Y209396D01*
X346064Y209278D01*
X346516Y209149D01*
X346964Y209009D01*
X347408Y208859D01*
X347849Y208698D01*
X348286Y208526D01*
X348719Y208344D01*
X349147Y208151D01*
X349570Y207948D01*
X349988Y207735D01*
X350401Y207512D01*
X350808Y207279D01*
X351210Y207036D01*
X351606Y206784D01*
X351995Y206522D01*
X352378Y206251D01*
X352754Y205970D01*
X353124Y205681D01*
X353486Y205382D01*
X353841Y205075D01*
X354189Y204760D01*
X354529Y204436D01*
X354860Y204104D01*
X355184Y203765D01*
X355500Y203417D01*
X355807Y203062D01*
X356105Y202700D01*
X356394Y202330D01*
X356675Y201954D01*
X356946Y201571D01*
X357208Y201181D01*
X357460Y200786D01*
X357703Y200384D01*
X357936Y199977D01*
X358159Y199564D01*
X358373Y199145D01*
X358575Y198722D01*
X358768Y198294D01*
X358950Y197862D01*
X359122Y197425D01*
X359283Y196984D01*
X359433Y196539D01*
X359573Y196091D01*
X359702Y195640D01*
X359820Y195186D01*
X359926Y194729D01*
X360022Y194269D01*
X360107Y193808D01*
X360180Y193344D01*
X360242Y192879D01*
X360293Y192412D01*
X360333Y191945D01*
X360361Y191476D01*
X360378Y191007D01*
X360384Y190538D01*
X360384Y159462D01*
X360385Y159462D02*
X360379Y158985D01*
X360362Y158509D01*
X360332Y158033D01*
X360291Y157558D01*
X360239Y157084D01*
X360175Y156612D01*
X360099Y156141D01*
X360012Y155673D01*
X359913Y155206D01*
X359803Y154743D01*
X359681Y154282D01*
X359549Y153824D01*
X359405Y153369D01*
X359250Y152919D01*
X359084Y152472D01*
X358907Y152029D01*
X358719Y151591D01*
X358520Y151158D01*
X358311Y150729D01*
X358092Y150306D01*
X357862Y149889D01*
X357622Y149477D01*
X357372Y149071D01*
X357112Y148671D01*
X356842Y148278D01*
X356563Y147892D01*
X356274Y147512D01*
X355976Y147140D01*
X355669Y146776D01*
X355354Y146418D01*
X355029Y146069D01*
X354696Y145728D01*
X354355Y145395D01*
X354006Y145071D01*
X353649Y144755D01*
X353284Y144448D01*
X352912Y144150D01*
X352532Y143861D01*
X352146Y143582D01*
X351753Y143312D01*
X351353Y143053D01*
X350948Y142802D01*
X350536Y142562D01*
X350118Y142333D01*
X349695Y142113D01*
X349267Y141904D01*
X348833Y141705D01*
X348395Y141518D01*
X347952Y141341D01*
X347506Y141174D01*
X347055Y141019D01*
X346600Y140875D01*
X346143Y140743D01*
X345682Y140621D01*
X345218Y140511D01*
X344752Y140412D01*
X344283Y140325D01*
X343812Y140249D01*
X343340Y140185D01*
X342866Y140133D01*
X342391Y140092D01*
X341915Y140062D01*
X341439Y140045D01*
X340962Y140039D01*
X340962Y140040D02*
X321540Y140040D01*
D12*
X1717000Y160100D02*
X1717000Y840100D01*
X1717000Y160100D02*
X937000Y160100D01*
X937000Y840100D01*
X1717000Y840100D01*
D13*
X1443802Y121190D02*
X1443802Y28810D01*
X1433538Y28810D02*
X1454066Y28810D01*
X1454066Y121190D02*
X1433538Y121190D01*
X1510414Y28810D02*
X1530943Y28810D01*
X1510414Y28810D02*
X1509918Y28816D01*
X1509422Y28834D01*
X1508927Y28864D01*
X1508433Y28906D01*
X1507940Y28960D01*
X1507448Y29025D01*
X1506958Y29103D01*
X1506470Y29192D01*
X1505984Y29294D01*
X1505501Y29407D01*
X1505021Y29531D01*
X1504544Y29667D01*
X1504070Y29815D01*
X1503600Y29974D01*
X1503134Y30144D01*
X1502673Y30326D01*
X1502215Y30518D01*
X1501763Y30722D01*
X1501316Y30936D01*
X1500874Y31161D01*
X1500437Y31397D01*
X1500007Y31644D01*
X1499582Y31900D01*
X1499164Y32167D01*
X1498752Y32444D01*
X1498347Y32731D01*
X1497950Y33027D01*
X1497559Y33333D01*
X1497176Y33648D01*
X1496801Y33973D01*
X1496433Y34306D01*
X1496074Y34648D01*
X1495723Y34999D01*
X1495381Y35358D01*
X1495048Y35726D01*
X1494723Y36101D01*
X1494408Y36484D01*
X1494102Y36875D01*
X1493806Y37272D01*
X1493519Y37677D01*
X1493242Y38089D01*
X1492975Y38507D01*
X1492719Y38932D01*
X1492472Y39362D01*
X1492236Y39799D01*
X1492011Y40241D01*
X1491797Y40688D01*
X1491593Y41140D01*
X1491401Y41598D01*
X1491219Y42059D01*
X1491049Y42525D01*
X1490890Y42995D01*
X1490742Y43469D01*
X1490606Y43946D01*
X1490482Y44426D01*
X1490369Y44909D01*
X1490267Y45395D01*
X1490178Y45883D01*
X1490100Y46373D01*
X1490035Y46865D01*
X1489981Y47358D01*
X1489939Y47852D01*
X1489909Y48347D01*
X1489891Y48843D01*
X1489885Y49339D01*
X1489886Y49339D02*
X1489886Y100661D01*
X1489892Y101165D01*
X1489911Y101668D01*
X1489942Y102171D01*
X1489985Y102673D01*
X1490040Y103174D01*
X1490108Y103673D01*
X1490188Y104171D01*
X1490280Y104666D01*
X1490385Y105159D01*
X1490501Y105649D01*
X1490630Y106136D01*
X1490770Y106620D01*
X1490922Y107101D01*
X1491086Y107577D01*
X1491262Y108049D01*
X1491449Y108517D01*
X1491647Y108980D01*
X1491857Y109438D01*
X1492078Y109891D01*
X1492310Y110338D01*
X1492553Y110780D01*
X1492807Y111215D01*
X1493071Y111644D01*
X1493346Y112066D01*
X1493631Y112482D01*
X1493926Y112890D01*
X1494231Y113291D01*
X1494546Y113684D01*
X1494870Y114070D01*
X1495204Y114447D01*
X1495547Y114816D01*
X1495899Y115177D01*
X1496259Y115529D01*
X1496628Y115872D01*
X1497006Y116206D01*
X1497391Y116530D01*
X1497785Y116845D01*
X1498186Y117150D01*
X1498594Y117445D01*
X1499010Y117730D01*
X1499432Y118005D01*
X1499861Y118269D01*
X1500296Y118523D01*
X1500738Y118766D01*
X1501185Y118998D01*
X1501638Y119219D01*
X1502096Y119429D01*
X1502559Y119627D01*
X1503026Y119814D01*
X1503499Y119990D01*
X1503975Y120154D01*
X1504456Y120306D01*
X1504939Y120446D01*
X1505427Y120575D01*
X1505917Y120691D01*
X1506410Y120795D01*
X1506905Y120888D01*
X1507402Y120968D01*
X1507902Y121036D01*
X1508403Y121091D01*
X1508904Y121134D01*
X1509407Y121165D01*
X1509911Y121184D01*
X1510415Y121190D01*
X1510414Y121190D02*
X1530943Y121190D01*
X1593368Y121190D02*
X1593926Y121183D01*
X1594484Y121163D01*
X1595041Y121129D01*
X1595597Y121082D01*
X1596152Y121022D01*
X1596705Y120948D01*
X1597256Y120860D01*
X1597805Y120760D01*
X1598352Y120646D01*
X1598895Y120519D01*
X1599435Y120379D01*
X1599972Y120226D01*
X1600505Y120060D01*
X1601033Y119881D01*
X1601558Y119689D01*
X1602077Y119485D01*
X1602591Y119268D01*
X1603100Y119039D01*
X1603604Y118798D01*
X1604101Y118545D01*
X1604592Y118279D01*
X1605076Y118002D01*
X1605554Y117713D01*
X1606024Y117413D01*
X1606487Y117102D01*
X1606943Y116779D01*
X1607390Y116446D01*
X1607830Y116102D01*
X1608261Y115747D01*
X1608683Y115382D01*
X1609096Y115007D01*
X1609500Y114622D01*
X1609895Y114227D01*
X1610280Y113823D01*
X1610655Y113410D01*
X1611020Y112988D01*
X1611375Y112557D01*
X1611719Y112117D01*
X1612052Y111670D01*
X1612375Y111214D01*
X1612686Y110751D01*
X1612986Y110281D01*
X1613275Y109803D01*
X1613552Y109319D01*
X1613818Y108828D01*
X1614071Y108331D01*
X1614312Y107827D01*
X1614541Y107318D01*
X1614758Y106804D01*
X1614962Y106285D01*
X1615154Y105760D01*
X1615333Y105232D01*
X1615499Y104699D01*
X1615652Y104162D01*
X1615792Y103622D01*
X1615919Y103079D01*
X1616033Y102532D01*
X1616133Y101983D01*
X1616221Y101432D01*
X1616295Y100879D01*
X1616355Y100324D01*
X1616402Y99768D01*
X1616436Y99211D01*
X1616456Y98653D01*
X1616463Y98095D01*
X1593368Y121190D02*
X1592650Y121181D01*
X1591933Y121155D01*
X1591217Y121112D01*
X1590502Y121051D01*
X1589789Y120973D01*
X1589078Y120878D01*
X1588369Y120766D01*
X1587663Y120636D01*
X1586961Y120490D01*
X1586262Y120327D01*
X1585567Y120146D01*
X1584877Y119949D01*
X1584192Y119736D01*
X1583513Y119505D01*
X1582839Y119259D01*
X1582171Y118996D01*
X1581510Y118717D01*
X1580856Y118423D01*
X1580209Y118112D01*
X1579570Y117786D01*
X1578938Y117445D01*
X1578316Y117088D01*
X1577702Y116717D01*
X1577097Y116331D01*
X1576502Y115930D01*
X1575916Y115515D01*
X1575341Y115086D01*
X1574777Y114643D01*
X1574223Y114187D01*
X1573680Y113717D01*
X1573149Y113235D01*
X1572630Y112739D01*
X1572123Y112232D01*
X1571628Y111712D01*
X1571146Y111180D01*
X1570677Y110637D01*
X1570222Y110083D01*
X1569780Y109518D01*
X1569351Y108942D01*
X1568937Y108356D01*
X1568537Y107760D01*
X1568151Y107155D01*
X1567781Y106541D01*
X1567425Y105918D01*
X1567084Y105286D01*
X1566759Y104647D01*
X1566449Y103999D01*
X1566155Y103345D01*
X1565877Y102683D01*
X1565616Y102015D01*
X1565370Y101341D01*
X1565140Y100661D01*
X1608765Y80132D02*
X1609200Y80558D01*
X1609625Y80993D01*
X1610039Y81439D01*
X1610443Y81895D01*
X1610834Y82361D01*
X1611215Y82836D01*
X1611583Y83321D01*
X1611940Y83814D01*
X1612284Y84316D01*
X1612616Y84826D01*
X1612935Y85345D01*
X1613242Y85871D01*
X1613535Y86404D01*
X1613815Y86944D01*
X1614082Y87491D01*
X1614336Y88045D01*
X1614575Y88604D01*
X1614801Y89169D01*
X1615014Y89740D01*
X1615211Y90315D01*
X1615395Y90896D01*
X1615565Y91480D01*
X1615720Y92069D01*
X1615861Y92661D01*
X1615987Y93257D01*
X1616098Y93855D01*
X1616195Y94456D01*
X1616277Y95059D01*
X1616344Y95664D01*
X1616396Y96271D01*
X1616433Y96878D01*
X1616456Y97486D01*
X1616463Y98095D01*
X1608764Y80132D02*
X1565140Y28810D01*
X1616463Y28810D01*
D14*
X1962000Y309600D02*
X1962000Y436600D01*
X2025500Y500100D01*
X2152500Y500100D01*
X2216000Y436600D01*
X2152500Y246100D02*
X2025500Y246100D01*
X1962000Y309600D01*
X2152500Y246100D02*
X2216000Y309600D01*
X2216000Y436600D01*
X2025500Y500100D02*
X1962000Y563600D01*
X1962000Y690600D01*
X2025500Y754100D01*
X2152500Y754100D01*
X2216000Y690600D01*
X2216000Y563600D01*
X2152500Y500100D01*
D11*
X1826156Y790040D02*
X1810618Y790040D01*
X1810243Y790045D01*
X1809867Y790058D01*
X1809493Y790081D01*
X1809118Y790113D01*
X1808745Y790153D01*
X1808373Y790203D01*
X1808002Y790262D01*
X1807633Y790329D01*
X1807265Y790406D01*
X1806900Y790492D01*
X1806536Y790586D01*
X1806175Y790689D01*
X1805816Y790800D01*
X1805461Y790921D01*
X1805108Y791050D01*
X1804759Y791187D01*
X1804413Y791333D01*
X1804070Y791487D01*
X1803732Y791649D01*
X1803397Y791820D01*
X1803067Y791998D01*
X1802741Y792185D01*
X1802420Y792379D01*
X1802103Y792581D01*
X1801791Y792790D01*
X1801485Y793007D01*
X1801184Y793232D01*
X1800888Y793463D01*
X1800598Y793702D01*
X1800314Y793948D01*
X1800036Y794200D01*
X1799765Y794459D01*
X1799499Y794725D01*
X1799240Y794996D01*
X1798988Y795274D01*
X1798742Y795558D01*
X1798503Y795848D01*
X1798272Y796144D01*
X1798047Y796445D01*
X1797830Y796751D01*
X1797621Y797063D01*
X1797419Y797380D01*
X1797225Y797701D01*
X1797038Y798027D01*
X1796860Y798357D01*
X1796689Y798692D01*
X1796527Y799030D01*
X1796373Y799373D01*
X1796227Y799719D01*
X1796090Y800068D01*
X1795961Y800421D01*
X1795840Y800776D01*
X1795729Y801135D01*
X1795626Y801496D01*
X1795532Y801860D01*
X1795446Y802225D01*
X1795369Y802593D01*
X1795302Y802962D01*
X1795243Y803333D01*
X1795193Y803705D01*
X1795153Y804078D01*
X1795121Y804453D01*
X1795098Y804827D01*
X1795085Y805203D01*
X1795080Y805578D01*
X1795081Y805578D02*
X1795081Y844422D01*
X1795080Y844422D02*
X1795085Y844803D01*
X1795099Y845184D01*
X1795122Y845565D01*
X1795155Y845945D01*
X1795197Y846324D01*
X1795248Y846702D01*
X1795309Y847078D01*
X1795379Y847453D01*
X1795458Y847826D01*
X1795546Y848197D01*
X1795643Y848566D01*
X1795749Y848932D01*
X1795864Y849296D01*
X1795988Y849657D01*
X1796121Y850014D01*
X1796263Y850368D01*
X1796413Y850719D01*
X1796572Y851065D01*
X1796739Y851408D01*
X1796915Y851746D01*
X1797099Y852081D01*
X1797291Y852410D01*
X1797491Y852735D01*
X1797699Y853054D01*
X1797914Y853369D01*
X1798138Y853678D01*
X1798369Y853981D01*
X1798607Y854279D01*
X1798852Y854571D01*
X1799105Y854857D01*
X1799365Y855136D01*
X1799631Y855409D01*
X1799904Y855675D01*
X1800183Y855935D01*
X1800469Y856187D01*
X1800761Y856433D01*
X1801058Y856671D01*
X1801362Y856902D01*
X1801671Y857126D01*
X1801985Y857341D01*
X1802305Y857549D01*
X1802630Y857749D01*
X1802959Y857941D01*
X1803293Y858125D01*
X1803632Y858301D01*
X1803974Y858468D01*
X1804321Y858627D01*
X1804672Y858777D01*
X1805026Y858919D01*
X1805383Y859052D01*
X1805744Y859176D01*
X1806107Y859291D01*
X1806474Y859397D01*
X1806842Y859494D01*
X1807213Y859582D01*
X1807586Y859661D01*
X1807961Y859731D01*
X1808338Y859792D01*
X1808716Y859843D01*
X1809095Y859885D01*
X1809475Y859918D01*
X1809855Y859941D01*
X1810236Y859955D01*
X1810618Y859960D01*
X1826156Y859960D01*
X1870934Y859960D02*
X1847627Y790040D01*
X1894240Y790040D02*
X1870934Y859960D01*
X1888414Y807520D02*
X1853454Y807520D01*
X1933934Y790040D02*
X1933934Y859960D01*
X1914512Y859960D02*
X1953356Y859960D01*
X1979762Y859960D02*
X1979762Y790040D01*
X1979762Y828884D02*
X2018606Y828884D01*
X2018606Y859960D02*
X2018606Y790040D01*
X2049512Y809462D02*
X2049512Y840538D01*
X2049518Y841011D01*
X2049535Y841484D01*
X2049564Y841956D01*
X2049604Y842427D01*
X2049656Y842897D01*
X2049719Y843366D01*
X2049794Y843833D01*
X2049879Y844298D01*
X2049977Y844761D01*
X2050085Y845221D01*
X2050205Y845679D01*
X2050335Y846133D01*
X2050477Y846585D01*
X2050630Y847032D01*
X2050794Y847476D01*
X2050968Y847916D01*
X2051153Y848351D01*
X2051348Y848782D01*
X2051554Y849208D01*
X2051771Y849628D01*
X2051997Y850043D01*
X2052234Y850453D01*
X2052480Y850857D01*
X2052736Y851254D01*
X2053002Y851646D01*
X2053277Y852030D01*
X2053562Y852408D01*
X2053855Y852779D01*
X2054158Y853143D01*
X2054469Y853499D01*
X2054789Y853847D01*
X2055117Y854188D01*
X2055454Y854520D01*
X2055798Y854844D01*
X2056150Y855160D01*
X2056510Y855467D01*
X2056877Y855765D01*
X2057252Y856054D01*
X2057633Y856334D01*
X2058021Y856604D01*
X2058416Y856865D01*
X2058816Y857116D01*
X2059223Y857358D01*
X2059635Y857589D01*
X2060053Y857811D01*
X2060477Y858022D01*
X2060905Y858223D01*
X2061338Y858413D01*
X2061775Y858593D01*
X2062217Y858762D01*
X2062663Y858920D01*
X2063112Y859067D01*
X2063565Y859203D01*
X2064022Y859328D01*
X2064481Y859443D01*
X2064942Y859545D01*
X2065406Y859637D01*
X2065872Y859717D01*
X2066340Y859786D01*
X2066810Y859843D01*
X2067281Y859889D01*
X2067752Y859924D01*
X2068225Y859947D01*
X2068698Y859959D01*
X2069170Y859959D01*
X2069643Y859947D01*
X2070116Y859924D01*
X2070587Y859889D01*
X2071058Y859843D01*
X2071528Y859786D01*
X2071996Y859717D01*
X2072462Y859637D01*
X2072926Y859545D01*
X2073387Y859443D01*
X2073846Y859328D01*
X2074303Y859203D01*
X2074756Y859067D01*
X2075205Y858920D01*
X2075651Y858762D01*
X2076093Y858593D01*
X2076530Y858413D01*
X2076963Y858223D01*
X2077391Y858022D01*
X2077815Y857811D01*
X2078233Y857589D01*
X2078645Y857358D01*
X2079052Y857116D01*
X2079452Y856865D01*
X2079847Y856604D01*
X2080235Y856334D01*
X2080616Y856054D01*
X2080991Y855765D01*
X2081358Y855467D01*
X2081718Y855160D01*
X2082070Y854844D01*
X2082414Y854520D01*
X2082751Y854188D01*
X2083079Y853847D01*
X2083399Y853499D01*
X2083710Y853143D01*
X2084013Y852779D01*
X2084306Y852408D01*
X2084591Y852030D01*
X2084866Y851646D01*
X2085132Y851254D01*
X2085388Y850857D01*
X2085634Y850453D01*
X2085871Y850043D01*
X2086097Y849628D01*
X2086314Y849208D01*
X2086520Y848782D01*
X2086715Y848351D01*
X2086900Y847916D01*
X2087074Y847476D01*
X2087238Y847032D01*
X2087391Y846585D01*
X2087533Y846133D01*
X2087663Y845679D01*
X2087783Y845221D01*
X2087891Y844761D01*
X2087989Y844298D01*
X2088074Y843833D01*
X2088149Y843366D01*
X2088212Y842897D01*
X2088264Y842427D01*
X2088304Y841956D01*
X2088333Y841484D01*
X2088350Y841011D01*
X2088356Y840538D01*
X2088356Y809462D01*
X2088350Y808989D01*
X2088333Y808516D01*
X2088304Y808044D01*
X2088264Y807573D01*
X2088212Y807103D01*
X2088149Y806634D01*
X2088074Y806167D01*
X2087989Y805702D01*
X2087891Y805239D01*
X2087783Y804779D01*
X2087663Y804321D01*
X2087533Y803867D01*
X2087391Y803415D01*
X2087238Y802968D01*
X2087074Y802524D01*
X2086900Y802084D01*
X2086715Y801649D01*
X2086520Y801218D01*
X2086314Y800792D01*
X2086097Y800372D01*
X2085871Y799957D01*
X2085634Y799547D01*
X2085388Y799143D01*
X2085132Y798746D01*
X2084866Y798354D01*
X2084591Y797970D01*
X2084306Y797592D01*
X2084013Y797221D01*
X2083710Y796857D01*
X2083399Y796501D01*
X2083079Y796153D01*
X2082751Y795812D01*
X2082414Y795480D01*
X2082070Y795156D01*
X2081718Y794840D01*
X2081358Y794533D01*
X2080991Y794235D01*
X2080616Y793946D01*
X2080235Y793666D01*
X2079847Y793396D01*
X2079452Y793135D01*
X2079052Y792884D01*
X2078645Y792642D01*
X2078233Y792411D01*
X2077815Y792189D01*
X2077391Y791978D01*
X2076963Y791777D01*
X2076530Y791587D01*
X2076093Y791407D01*
X2075651Y791238D01*
X2075205Y791080D01*
X2074756Y790933D01*
X2074303Y790797D01*
X2073846Y790672D01*
X2073387Y790557D01*
X2072926Y790455D01*
X2072462Y790363D01*
X2071996Y790283D01*
X2071528Y790214D01*
X2071058Y790157D01*
X2070587Y790111D01*
X2070116Y790076D01*
X2069643Y790053D01*
X2069170Y790041D01*
X2068698Y790041D01*
X2068225Y790053D01*
X2067752Y790076D01*
X2067281Y790111D01*
X2066810Y790157D01*
X2066340Y790214D01*
X2065872Y790283D01*
X2065406Y790363D01*
X2064942Y790455D01*
X2064481Y790557D01*
X2064022Y790672D01*
X2063565Y790797D01*
X2063112Y790933D01*
X2062663Y791080D01*
X2062217Y791238D01*
X2061775Y791407D01*
X2061338Y791587D01*
X2060905Y791777D01*
X2060477Y791978D01*
X2060053Y792189D01*
X2059635Y792411D01*
X2059223Y792642D01*
X2058816Y792884D01*
X2058416Y793135D01*
X2058021Y793396D01*
X2057633Y793666D01*
X2057252Y793946D01*
X2056877Y794235D01*
X2056510Y794533D01*
X2056150Y794840D01*
X2055798Y795156D01*
X2055454Y795480D01*
X2055117Y795812D01*
X2054789Y796153D01*
X2054469Y796501D01*
X2054158Y796857D01*
X2053855Y797221D01*
X2053562Y797592D01*
X2053277Y797970D01*
X2053002Y798354D01*
X2052736Y798746D01*
X2052480Y799143D01*
X2052234Y799547D01*
X2051997Y799957D01*
X2051771Y800372D01*
X2051554Y800792D01*
X2051348Y801218D01*
X2051153Y801649D01*
X2050968Y802084D01*
X2050794Y802524D01*
X2050630Y802968D01*
X2050477Y803415D01*
X2050335Y803867D01*
X2050205Y804321D01*
X2050085Y804779D01*
X2049977Y805239D01*
X2049879Y805702D01*
X2049794Y806167D01*
X2049719Y806634D01*
X2049656Y807103D01*
X2049604Y807573D01*
X2049564Y808044D01*
X2049535Y808516D01*
X2049518Y808989D01*
X2049512Y809462D01*
X2119262Y790040D02*
X2119262Y859960D01*
X2138684Y859960D01*
X2139153Y859954D01*
X2139622Y859937D01*
X2140091Y859909D01*
X2140559Y859869D01*
X2141025Y859818D01*
X2141490Y859756D01*
X2141954Y859683D01*
X2142416Y859598D01*
X2142875Y859502D01*
X2143332Y859396D01*
X2143786Y859278D01*
X2144238Y859149D01*
X2144686Y859009D01*
X2145130Y858859D01*
X2145571Y858698D01*
X2146008Y858526D01*
X2146441Y858344D01*
X2146869Y858151D01*
X2147292Y857948D01*
X2147710Y857735D01*
X2148123Y857512D01*
X2148530Y857279D01*
X2148932Y857036D01*
X2149328Y856784D01*
X2149717Y856522D01*
X2150100Y856251D01*
X2150476Y855970D01*
X2150846Y855681D01*
X2151208Y855382D01*
X2151563Y855075D01*
X2151911Y854760D01*
X2152251Y854436D01*
X2152582Y854104D01*
X2152906Y853765D01*
X2153222Y853417D01*
X2153529Y853062D01*
X2153827Y852700D01*
X2154116Y852330D01*
X2154397Y851954D01*
X2154668Y851571D01*
X2154930Y851181D01*
X2155182Y850786D01*
X2155425Y850384D01*
X2155658Y849977D01*
X2155881Y849564D01*
X2156095Y849145D01*
X2156297Y848722D01*
X2156490Y848294D01*
X2156672Y847862D01*
X2156844Y847425D01*
X2157005Y846984D01*
X2157155Y846539D01*
X2157295Y846091D01*
X2157424Y845640D01*
X2157542Y845186D01*
X2157648Y844729D01*
X2157744Y844269D01*
X2157829Y843808D01*
X2157902Y843344D01*
X2157964Y842879D01*
X2158015Y842412D01*
X2158055Y841945D01*
X2158083Y841476D01*
X2158100Y841007D01*
X2158106Y840538D01*
X2158106Y809462D01*
X2158100Y808985D01*
X2158083Y808509D01*
X2158053Y808033D01*
X2158012Y807558D01*
X2157960Y807084D01*
X2157896Y806612D01*
X2157820Y806141D01*
X2157733Y805673D01*
X2157634Y805206D01*
X2157524Y804743D01*
X2157402Y804282D01*
X2157270Y803824D01*
X2157126Y803369D01*
X2156971Y802919D01*
X2156805Y802472D01*
X2156628Y802029D01*
X2156440Y801591D01*
X2156241Y801158D01*
X2156032Y800729D01*
X2155813Y800306D01*
X2155583Y799889D01*
X2155343Y799477D01*
X2155093Y799071D01*
X2154833Y798671D01*
X2154563Y798278D01*
X2154284Y797892D01*
X2153995Y797512D01*
X2153697Y797140D01*
X2153390Y796776D01*
X2153075Y796418D01*
X2152750Y796069D01*
X2152417Y795728D01*
X2152076Y795395D01*
X2151727Y795071D01*
X2151370Y794755D01*
X2151005Y794448D01*
X2150633Y794150D01*
X2150253Y793861D01*
X2149867Y793582D01*
X2149474Y793312D01*
X2149074Y793053D01*
X2148669Y792802D01*
X2148257Y792562D01*
X2147839Y792333D01*
X2147416Y792113D01*
X2146988Y791904D01*
X2146554Y791705D01*
X2146116Y791518D01*
X2145673Y791341D01*
X2145227Y791174D01*
X2144776Y791019D01*
X2144321Y790875D01*
X2143864Y790743D01*
X2143403Y790621D01*
X2142939Y790511D01*
X2142473Y790412D01*
X2142004Y790325D01*
X2141533Y790249D01*
X2141061Y790185D01*
X2140587Y790133D01*
X2140112Y790092D01*
X2139636Y790062D01*
X2139160Y790045D01*
X2138683Y790039D01*
X2138684Y790040D02*
X2119262Y790040D01*
X2191385Y790040D02*
X2222460Y790040D01*
X2191385Y790040D02*
X2191385Y859960D01*
X2222460Y859960D01*
X2214691Y828884D02*
X2191385Y828884D01*
D14*
X184000Y436600D02*
X184000Y309600D01*
X184000Y436600D02*
X247500Y500100D01*
X374500Y500100D01*
X438000Y436600D01*
X374500Y246100D02*
X247500Y246100D01*
X184000Y309600D01*
X374500Y246100D02*
X438000Y309600D01*
X438000Y436600D01*
X247500Y500100D02*
X184000Y563600D01*
X184000Y690600D01*
X247500Y754100D01*
X374500Y754100D01*
X438000Y690600D01*
X438000Y563600D01*
X374500Y500100D01*
D11*
X177540Y790040D02*
X200847Y859960D01*
X224153Y790040D01*
X218327Y807520D02*
X183367Y807520D01*
X251174Y790040D02*
X251174Y859960D01*
X290019Y790040D01*
X290019Y859960D01*
X320924Y840538D02*
X320924Y809462D01*
X320925Y840538D02*
X320931Y841011D01*
X320948Y841484D01*
X320977Y841956D01*
X321017Y842427D01*
X321069Y842897D01*
X321132Y843366D01*
X321207Y843833D01*
X321292Y844298D01*
X321390Y844761D01*
X321498Y845221D01*
X321618Y845679D01*
X321748Y846133D01*
X321890Y846585D01*
X322043Y847032D01*
X322207Y847476D01*
X322381Y847916D01*
X322566Y848351D01*
X322761Y848782D01*
X322967Y849208D01*
X323184Y849628D01*
X323410Y850043D01*
X323647Y850453D01*
X323893Y850857D01*
X324149Y851254D01*
X324415Y851646D01*
X324690Y852030D01*
X324975Y852408D01*
X325268Y852779D01*
X325571Y853143D01*
X325882Y853499D01*
X326202Y853847D01*
X326530Y854188D01*
X326867Y854520D01*
X327211Y854844D01*
X327563Y855160D01*
X327923Y855467D01*
X328290Y855765D01*
X328665Y856054D01*
X329046Y856334D01*
X329434Y856604D01*
X329829Y856865D01*
X330229Y857116D01*
X330636Y857358D01*
X331048Y857589D01*
X331466Y857811D01*
X331890Y858022D01*
X332318Y858223D01*
X332751Y858413D01*
X333188Y858593D01*
X333630Y858762D01*
X334076Y858920D01*
X334525Y859067D01*
X334978Y859203D01*
X335435Y859328D01*
X335894Y859443D01*
X336355Y859545D01*
X336819Y859637D01*
X337285Y859717D01*
X337753Y859786D01*
X338223Y859843D01*
X338694Y859889D01*
X339165Y859924D01*
X339638Y859947D01*
X340111Y859959D01*
X340583Y859959D01*
X341056Y859947D01*
X341529Y859924D01*
X342000Y859889D01*
X342471Y859843D01*
X342941Y859786D01*
X343409Y859717D01*
X343875Y859637D01*
X344339Y859545D01*
X344800Y859443D01*
X345259Y859328D01*
X345716Y859203D01*
X346169Y859067D01*
X346618Y858920D01*
X347064Y858762D01*
X347506Y858593D01*
X347943Y858413D01*
X348376Y858223D01*
X348804Y858022D01*
X349228Y857811D01*
X349646Y857589D01*
X350058Y857358D01*
X350465Y857116D01*
X350865Y856865D01*
X351260Y856604D01*
X351648Y856334D01*
X352029Y856054D01*
X352404Y855765D01*
X352771Y855467D01*
X353131Y855160D01*
X353483Y854844D01*
X353827Y854520D01*
X354164Y854188D01*
X354492Y853847D01*
X354812Y853499D01*
X355123Y853143D01*
X355426Y852779D01*
X355719Y852408D01*
X356004Y852030D01*
X356279Y851646D01*
X356545Y851254D01*
X356801Y850857D01*
X357047Y850453D01*
X357284Y850043D01*
X357510Y849628D01*
X357727Y849208D01*
X357933Y848782D01*
X358128Y848351D01*
X358313Y847916D01*
X358487Y847476D01*
X358651Y847032D01*
X358804Y846585D01*
X358946Y846133D01*
X359076Y845679D01*
X359196Y845221D01*
X359304Y844761D01*
X359402Y844298D01*
X359487Y843833D01*
X359562Y843366D01*
X359625Y842897D01*
X359677Y842427D01*
X359717Y841956D01*
X359746Y841484D01*
X359763Y841011D01*
X359769Y840538D01*
X359769Y809462D01*
X359763Y808989D01*
X359746Y808516D01*
X359717Y808044D01*
X359677Y807573D01*
X359625Y807103D01*
X359562Y806634D01*
X359487Y806167D01*
X359402Y805702D01*
X359304Y805239D01*
X359196Y804779D01*
X359076Y804321D01*
X358946Y803867D01*
X358804Y803415D01*
X358651Y802968D01*
X358487Y802524D01*
X358313Y802084D01*
X358128Y801649D01*
X357933Y801218D01*
X357727Y800792D01*
X357510Y800372D01*
X357284Y799957D01*
X357047Y799547D01*
X356801Y799143D01*
X356545Y798746D01*
X356279Y798354D01*
X356004Y797970D01*
X355719Y797592D01*
X355426Y797221D01*
X355123Y796857D01*
X354812Y796501D01*
X354492Y796153D01*
X354164Y795812D01*
X353827Y795480D01*
X353483Y795156D01*
X353131Y794840D01*
X352771Y794533D01*
X352404Y794235D01*
X352029Y793946D01*
X351648Y793666D01*
X351260Y793396D01*
X350865Y793135D01*
X350465Y792884D01*
X350058Y792642D01*
X349646Y792411D01*
X349228Y792189D01*
X348804Y791978D01*
X348376Y791777D01*
X347943Y791587D01*
X347506Y791407D01*
X347064Y791238D01*
X346618Y791080D01*
X346169Y790933D01*
X345716Y790797D01*
X345259Y790672D01*
X344800Y790557D01*
X344339Y790455D01*
X343875Y790363D01*
X343409Y790283D01*
X342941Y790214D01*
X342471Y790157D01*
X342000Y790111D01*
X341529Y790076D01*
X341056Y790053D01*
X340583Y790041D01*
X340111Y790041D01*
X339638Y790053D01*
X339165Y790076D01*
X338694Y790111D01*
X338223Y790157D01*
X337753Y790214D01*
X337285Y790283D01*
X336819Y790363D01*
X336355Y790455D01*
X335894Y790557D01*
X335435Y790672D01*
X334978Y790797D01*
X334525Y790933D01*
X334076Y791080D01*
X333630Y791238D01*
X333188Y791407D01*
X332751Y791587D01*
X332318Y791777D01*
X331890Y791978D01*
X331466Y792189D01*
X331048Y792411D01*
X330636Y792642D01*
X330229Y792884D01*
X329829Y793135D01*
X329434Y793396D01*
X329046Y793666D01*
X328665Y793946D01*
X328290Y794235D01*
X327923Y794533D01*
X327563Y794840D01*
X327211Y795156D01*
X326867Y795480D01*
X326530Y795812D01*
X326202Y796153D01*
X325882Y796501D01*
X325571Y796857D01*
X325268Y797221D01*
X324975Y797592D01*
X324690Y797970D01*
X324415Y798354D01*
X324149Y798746D01*
X323893Y799143D01*
X323647Y799547D01*
X323410Y799957D01*
X323184Y800372D01*
X322967Y800792D01*
X322761Y801218D01*
X322566Y801649D01*
X322381Y802084D01*
X322207Y802524D01*
X322043Y802968D01*
X321890Y803415D01*
X321748Y803867D01*
X321618Y804321D01*
X321498Y804779D01*
X321390Y805239D01*
X321292Y805702D01*
X321207Y806167D01*
X321132Y806634D01*
X321069Y807103D01*
X321017Y807573D01*
X320977Y808044D01*
X320948Y808516D01*
X320931Y808989D01*
X320925Y809462D01*
X390674Y790040D02*
X390674Y859960D01*
X410097Y859960D01*
X410566Y859954D01*
X411035Y859937D01*
X411504Y859909D01*
X411972Y859869D01*
X412438Y859818D01*
X412903Y859756D01*
X413367Y859683D01*
X413829Y859598D01*
X414288Y859502D01*
X414745Y859396D01*
X415199Y859278D01*
X415651Y859149D01*
X416099Y859009D01*
X416543Y858859D01*
X416984Y858698D01*
X417421Y858526D01*
X417854Y858344D01*
X418282Y858151D01*
X418705Y857948D01*
X419123Y857735D01*
X419536Y857512D01*
X419943Y857279D01*
X420345Y857036D01*
X420741Y856784D01*
X421130Y856522D01*
X421513Y856251D01*
X421889Y855970D01*
X422259Y855681D01*
X422621Y855382D01*
X422976Y855075D01*
X423324Y854760D01*
X423664Y854436D01*
X423995Y854104D01*
X424319Y853765D01*
X424635Y853417D01*
X424942Y853062D01*
X425240Y852700D01*
X425529Y852330D01*
X425810Y851954D01*
X426081Y851571D01*
X426343Y851181D01*
X426595Y850786D01*
X426838Y850384D01*
X427071Y849977D01*
X427294Y849564D01*
X427508Y849145D01*
X427710Y848722D01*
X427903Y848294D01*
X428085Y847862D01*
X428257Y847425D01*
X428418Y846984D01*
X428568Y846539D01*
X428708Y846091D01*
X428837Y845640D01*
X428955Y845186D01*
X429061Y844729D01*
X429157Y844269D01*
X429242Y843808D01*
X429315Y843344D01*
X429377Y842879D01*
X429428Y842412D01*
X429468Y841945D01*
X429496Y841476D01*
X429513Y841007D01*
X429519Y840538D01*
X429519Y809462D01*
X429513Y808985D01*
X429496Y808509D01*
X429466Y808033D01*
X429425Y807558D01*
X429373Y807084D01*
X429309Y806612D01*
X429233Y806141D01*
X429146Y805673D01*
X429047Y805206D01*
X428937Y804743D01*
X428815Y804282D01*
X428683Y803824D01*
X428539Y803369D01*
X428384Y802919D01*
X428218Y802472D01*
X428041Y802029D01*
X427853Y801591D01*
X427654Y801158D01*
X427445Y800729D01*
X427226Y800306D01*
X426996Y799889D01*
X426756Y799477D01*
X426506Y799071D01*
X426246Y798671D01*
X425976Y798278D01*
X425697Y797892D01*
X425408Y797512D01*
X425110Y797140D01*
X424803Y796776D01*
X424488Y796418D01*
X424163Y796069D01*
X423830Y795728D01*
X423489Y795395D01*
X423140Y795071D01*
X422783Y794755D01*
X422418Y794448D01*
X422046Y794150D01*
X421666Y793861D01*
X421280Y793582D01*
X420887Y793312D01*
X420487Y793053D01*
X420082Y792802D01*
X419670Y792562D01*
X419252Y792333D01*
X418829Y792113D01*
X418401Y791904D01*
X417967Y791705D01*
X417529Y791518D01*
X417086Y791341D01*
X416640Y791174D01*
X416189Y791019D01*
X415734Y790875D01*
X415277Y790743D01*
X414816Y790621D01*
X414352Y790511D01*
X413886Y790412D01*
X413417Y790325D01*
X412946Y790249D01*
X412474Y790185D01*
X412000Y790133D01*
X411525Y790092D01*
X411049Y790062D01*
X410573Y790045D01*
X410096Y790039D01*
X410097Y790040D02*
X390674Y790040D01*
X462798Y790040D02*
X493873Y790040D01*
X462798Y790040D02*
X462798Y859960D01*
X493873Y859960D01*
X486104Y828884D02*
X462798Y828884D01*
M02*
