G04 EAGLE Gerber X2 export*
%TF.Part,Single*%
%TF.FileFunction,Legend,Bot,1*%
%TF.FilePolarity,Positive*%
%TF.GenerationSoftware,Autodesk,EAGLE,8.6.1*%
%TF.CreationDate,2018-02-11T14:24:17Z*%
G75*
%MOMM*%
%FSLAX34Y34*%
%LPD*%
%AMOC8*
5,1,8,0,0,1.08239X$1,22.5*%
G01*
%ADD10C,0.076200*%
%ADD11C,0.127000*%
%ADD12C,0.300000*%


D10*
X80819Y36353D02*
X80819Y33787D01*
X80817Y33709D01*
X80811Y33631D01*
X80801Y33554D01*
X80787Y33477D01*
X80770Y33401D01*
X80748Y33326D01*
X80723Y33252D01*
X80694Y33180D01*
X80662Y33109D01*
X80625Y33040D01*
X80586Y32972D01*
X80543Y32907D01*
X80497Y32844D01*
X80447Y32784D01*
X80395Y32726D01*
X80340Y32671D01*
X80282Y32619D01*
X80222Y32569D01*
X80159Y32523D01*
X80094Y32480D01*
X80026Y32441D01*
X79957Y32404D01*
X79886Y32372D01*
X79814Y32343D01*
X79740Y32318D01*
X79665Y32296D01*
X79589Y32279D01*
X79512Y32265D01*
X79435Y32255D01*
X79357Y32249D01*
X79279Y32247D01*
X76713Y32247D01*
X76623Y32249D01*
X76534Y32255D01*
X76445Y32265D01*
X76357Y32278D01*
X76269Y32296D01*
X76182Y32317D01*
X76096Y32342D01*
X76011Y32371D01*
X75927Y32403D01*
X75845Y32439D01*
X75765Y32479D01*
X75687Y32522D01*
X75610Y32569D01*
X75535Y32618D01*
X75463Y32671D01*
X75393Y32727D01*
X75326Y32786D01*
X75261Y32848D01*
X75199Y32913D01*
X75140Y32980D01*
X75084Y33050D01*
X75031Y33122D01*
X74982Y33197D01*
X74935Y33274D01*
X74892Y33352D01*
X74852Y33432D01*
X74816Y33514D01*
X74784Y33598D01*
X74755Y33683D01*
X74730Y33769D01*
X74709Y33856D01*
X74691Y33944D01*
X74678Y34032D01*
X74668Y34121D01*
X74662Y34210D01*
X74660Y34300D01*
X74662Y34390D01*
X74668Y34479D01*
X74678Y34568D01*
X74691Y34656D01*
X74709Y34744D01*
X74730Y34831D01*
X74755Y34917D01*
X74784Y35002D01*
X74816Y35086D01*
X74852Y35168D01*
X74892Y35248D01*
X74935Y35327D01*
X74982Y35403D01*
X75031Y35478D01*
X75084Y35550D01*
X75140Y35620D01*
X75199Y35687D01*
X75261Y35752D01*
X75326Y35814D01*
X75393Y35873D01*
X75463Y35929D01*
X75535Y35982D01*
X75610Y36031D01*
X75687Y36078D01*
X75765Y36121D01*
X75845Y36161D01*
X75927Y36197D01*
X76011Y36229D01*
X76096Y36258D01*
X76182Y36283D01*
X76269Y36304D01*
X76357Y36322D01*
X76445Y36335D01*
X76534Y36345D01*
X76623Y36351D01*
X76713Y36353D01*
X77740Y36353D01*
X77740Y32247D01*
X74660Y39848D02*
X82359Y39848D01*
X82359Y39849D02*
X82435Y39847D01*
X82510Y39842D01*
X82585Y39832D01*
X82659Y39819D01*
X82733Y39803D01*
X82806Y39783D01*
X82878Y39759D01*
X82948Y39732D01*
X83017Y39701D01*
X83085Y39667D01*
X83151Y39630D01*
X83215Y39589D01*
X83276Y39546D01*
X83336Y39499D01*
X83393Y39450D01*
X83448Y39398D01*
X83500Y39343D01*
X83549Y39286D01*
X83596Y39226D01*
X83639Y39165D01*
X83680Y39101D01*
X83717Y39035D01*
X83751Y38967D01*
X83782Y38898D01*
X83809Y38828D01*
X83833Y38756D01*
X83853Y38683D01*
X83869Y38609D01*
X83882Y38535D01*
X83892Y38460D01*
X83897Y38385D01*
X83899Y38309D01*
X83898Y38309D02*
X83898Y37795D01*
X72094Y39592D02*
X71581Y39592D01*
X71581Y40105D01*
X72094Y40105D01*
X72094Y39592D01*
X76713Y43647D02*
X78766Y43647D01*
X76713Y43647D02*
X76623Y43649D01*
X76534Y43655D01*
X76445Y43665D01*
X76357Y43678D01*
X76269Y43696D01*
X76182Y43717D01*
X76096Y43742D01*
X76011Y43771D01*
X75927Y43803D01*
X75845Y43839D01*
X75765Y43879D01*
X75687Y43922D01*
X75610Y43969D01*
X75535Y44018D01*
X75463Y44071D01*
X75393Y44127D01*
X75326Y44186D01*
X75261Y44248D01*
X75199Y44313D01*
X75140Y44380D01*
X75084Y44450D01*
X75031Y44522D01*
X74982Y44597D01*
X74935Y44674D01*
X74892Y44752D01*
X74852Y44832D01*
X74816Y44914D01*
X74784Y44998D01*
X74755Y45083D01*
X74730Y45169D01*
X74709Y45256D01*
X74691Y45344D01*
X74678Y45432D01*
X74668Y45521D01*
X74662Y45610D01*
X74660Y45700D01*
X74662Y45790D01*
X74668Y45879D01*
X74678Y45968D01*
X74691Y46056D01*
X74709Y46144D01*
X74730Y46231D01*
X74755Y46317D01*
X74784Y46402D01*
X74816Y46486D01*
X74852Y46568D01*
X74892Y46648D01*
X74935Y46727D01*
X74982Y46803D01*
X75031Y46878D01*
X75084Y46950D01*
X75140Y47020D01*
X75199Y47087D01*
X75261Y47152D01*
X75326Y47214D01*
X75393Y47273D01*
X75463Y47329D01*
X75535Y47382D01*
X75610Y47431D01*
X75687Y47478D01*
X75765Y47521D01*
X75845Y47561D01*
X75927Y47597D01*
X76011Y47629D01*
X76096Y47658D01*
X76182Y47683D01*
X76269Y47704D01*
X76357Y47722D01*
X76445Y47735D01*
X76534Y47745D01*
X76623Y47751D01*
X76713Y47753D01*
X78766Y47753D01*
X78856Y47751D01*
X78945Y47745D01*
X79034Y47735D01*
X79122Y47722D01*
X79210Y47704D01*
X79297Y47683D01*
X79383Y47658D01*
X79468Y47629D01*
X79552Y47597D01*
X79634Y47561D01*
X79714Y47521D01*
X79793Y47478D01*
X79869Y47431D01*
X79944Y47382D01*
X80016Y47329D01*
X80086Y47273D01*
X80153Y47214D01*
X80218Y47152D01*
X80280Y47087D01*
X80339Y47020D01*
X80395Y46950D01*
X80448Y46878D01*
X80497Y46803D01*
X80544Y46726D01*
X80587Y46648D01*
X80627Y46568D01*
X80663Y46486D01*
X80695Y46402D01*
X80724Y46317D01*
X80749Y46231D01*
X80770Y46144D01*
X80788Y46056D01*
X80801Y45968D01*
X80811Y45879D01*
X80817Y45790D01*
X80819Y45700D01*
X80817Y45610D01*
X80811Y45521D01*
X80801Y45432D01*
X80788Y45344D01*
X80770Y45256D01*
X80749Y45169D01*
X80724Y45083D01*
X80695Y44998D01*
X80663Y44914D01*
X80627Y44832D01*
X80587Y44752D01*
X80544Y44674D01*
X80497Y44597D01*
X80448Y44522D01*
X80395Y44450D01*
X80339Y44380D01*
X80280Y44313D01*
X80218Y44248D01*
X80153Y44186D01*
X80086Y44127D01*
X80016Y44071D01*
X79944Y44018D01*
X79869Y43969D01*
X79793Y43922D01*
X79714Y43879D01*
X79634Y43839D01*
X79552Y43803D01*
X79468Y43771D01*
X79383Y43742D01*
X79297Y43717D01*
X79210Y43696D01*
X79122Y43678D01*
X79034Y43665D01*
X78945Y43655D01*
X78856Y43649D01*
X78766Y43647D01*
X74660Y51147D02*
X80819Y53200D01*
X74660Y55253D01*
X74660Y58998D02*
X80819Y58998D01*
X74660Y58998D02*
X74660Y62078D01*
X75687Y62078D01*
X71581Y65247D02*
X80819Y65247D01*
X74660Y65247D02*
X74660Y67813D01*
X74662Y67889D01*
X74667Y67964D01*
X74677Y68039D01*
X74690Y68113D01*
X74706Y68187D01*
X74726Y68260D01*
X74750Y68332D01*
X74777Y68402D01*
X74808Y68471D01*
X74842Y68539D01*
X74879Y68605D01*
X74920Y68669D01*
X74963Y68730D01*
X75010Y68790D01*
X75059Y68847D01*
X75111Y68902D01*
X75166Y68954D01*
X75223Y69003D01*
X75283Y69050D01*
X75344Y69093D01*
X75408Y69134D01*
X75474Y69171D01*
X75542Y69205D01*
X75611Y69236D01*
X75681Y69263D01*
X75753Y69287D01*
X75826Y69307D01*
X75900Y69323D01*
X75974Y69336D01*
X76049Y69346D01*
X76124Y69351D01*
X76200Y69353D01*
X80819Y69353D01*
X87360Y42641D02*
X93519Y44693D01*
X87360Y46746D01*
X93006Y49837D02*
X93519Y49837D01*
X93006Y49837D02*
X93006Y50350D01*
X93519Y50350D01*
X93519Y49837D01*
X86334Y53827D02*
X84281Y56393D01*
X93519Y56393D01*
X93519Y53827D02*
X93519Y58959D01*
X173673Y20781D02*
X175726Y20781D01*
X175816Y20783D01*
X175905Y20789D01*
X175994Y20799D01*
X176082Y20812D01*
X176170Y20830D01*
X176257Y20851D01*
X176343Y20876D01*
X176428Y20905D01*
X176512Y20937D01*
X176594Y20973D01*
X176674Y21013D01*
X176753Y21056D01*
X176829Y21103D01*
X176904Y21152D01*
X176976Y21205D01*
X177046Y21261D01*
X177113Y21320D01*
X177178Y21382D01*
X177240Y21447D01*
X177299Y21514D01*
X177355Y21584D01*
X177408Y21656D01*
X177457Y21731D01*
X177504Y21807D01*
X177547Y21886D01*
X177587Y21966D01*
X177623Y22048D01*
X177655Y22132D01*
X177684Y22217D01*
X177709Y22303D01*
X177730Y22390D01*
X177748Y22478D01*
X177761Y22566D01*
X177771Y22655D01*
X177777Y22744D01*
X177779Y22834D01*
X177779Y27966D01*
X177777Y28056D01*
X177771Y28145D01*
X177761Y28234D01*
X177748Y28322D01*
X177730Y28410D01*
X177709Y28497D01*
X177684Y28583D01*
X177655Y28668D01*
X177623Y28752D01*
X177587Y28834D01*
X177547Y28914D01*
X177504Y28993D01*
X177457Y29069D01*
X177408Y29144D01*
X177355Y29216D01*
X177299Y29286D01*
X177240Y29353D01*
X177178Y29418D01*
X177113Y29480D01*
X177046Y29539D01*
X176976Y29595D01*
X176904Y29648D01*
X176829Y29697D01*
X176753Y29744D01*
X176674Y29787D01*
X176594Y29827D01*
X176512Y29863D01*
X176428Y29895D01*
X176343Y29924D01*
X176257Y29949D01*
X176170Y29970D01*
X176082Y29988D01*
X175994Y30001D01*
X175905Y30011D01*
X175816Y30017D01*
X175726Y30019D01*
X173673Y30019D01*
X170253Y27966D02*
X167687Y30019D01*
X167687Y20781D01*
X170253Y20781D02*
X165121Y20781D01*
D11*
X154700Y35800D02*
X124700Y35800D01*
X124700Y65800D02*
X154700Y65800D01*
D12*
X118700Y30800D02*
X118702Y30863D01*
X118708Y30925D01*
X118718Y30987D01*
X118731Y31049D01*
X118749Y31109D01*
X118770Y31168D01*
X118795Y31226D01*
X118824Y31282D01*
X118856Y31336D01*
X118891Y31388D01*
X118929Y31437D01*
X118971Y31485D01*
X119015Y31529D01*
X119063Y31571D01*
X119112Y31609D01*
X119164Y31644D01*
X119218Y31676D01*
X119274Y31705D01*
X119332Y31730D01*
X119391Y31751D01*
X119451Y31769D01*
X119513Y31782D01*
X119575Y31792D01*
X119637Y31798D01*
X119700Y31800D01*
X119763Y31798D01*
X119825Y31792D01*
X119887Y31782D01*
X119949Y31769D01*
X120009Y31751D01*
X120068Y31730D01*
X120126Y31705D01*
X120182Y31676D01*
X120236Y31644D01*
X120288Y31609D01*
X120337Y31571D01*
X120385Y31529D01*
X120429Y31485D01*
X120471Y31437D01*
X120509Y31388D01*
X120544Y31336D01*
X120576Y31282D01*
X120605Y31226D01*
X120630Y31168D01*
X120651Y31109D01*
X120669Y31049D01*
X120682Y30987D01*
X120692Y30925D01*
X120698Y30863D01*
X120700Y30800D01*
X120698Y30737D01*
X120692Y30675D01*
X120682Y30613D01*
X120669Y30551D01*
X120651Y30491D01*
X120630Y30432D01*
X120605Y30374D01*
X120576Y30318D01*
X120544Y30264D01*
X120509Y30212D01*
X120471Y30163D01*
X120429Y30115D01*
X120385Y30071D01*
X120337Y30029D01*
X120288Y29991D01*
X120236Y29956D01*
X120182Y29924D01*
X120126Y29895D01*
X120068Y29870D01*
X120009Y29849D01*
X119949Y29831D01*
X119887Y29818D01*
X119825Y29808D01*
X119763Y29802D01*
X119700Y29800D01*
X119637Y29802D01*
X119575Y29808D01*
X119513Y29818D01*
X119451Y29831D01*
X119391Y29849D01*
X119332Y29870D01*
X119274Y29895D01*
X119218Y29924D01*
X119164Y29956D01*
X119112Y29991D01*
X119063Y30029D01*
X119015Y30071D01*
X118971Y30115D01*
X118929Y30163D01*
X118891Y30212D01*
X118856Y30264D01*
X118824Y30318D01*
X118795Y30374D01*
X118770Y30432D01*
X118749Y30491D01*
X118731Y30551D01*
X118718Y30613D01*
X118708Y30675D01*
X118702Y30737D01*
X118700Y30800D01*
D10*
X147820Y71581D02*
X147820Y80819D01*
X148846Y71581D02*
X146793Y71581D01*
X146793Y80819D02*
X148846Y80819D01*
X141159Y71581D02*
X139106Y71581D01*
X141159Y71581D02*
X141249Y71583D01*
X141338Y71589D01*
X141427Y71599D01*
X141515Y71612D01*
X141603Y71630D01*
X141690Y71651D01*
X141776Y71676D01*
X141861Y71705D01*
X141945Y71737D01*
X142027Y71773D01*
X142107Y71813D01*
X142186Y71856D01*
X142262Y71903D01*
X142337Y71952D01*
X142409Y72005D01*
X142479Y72061D01*
X142546Y72120D01*
X142611Y72182D01*
X142673Y72247D01*
X142732Y72314D01*
X142788Y72384D01*
X142841Y72456D01*
X142890Y72531D01*
X142937Y72608D01*
X142980Y72686D01*
X143020Y72766D01*
X143056Y72848D01*
X143088Y72932D01*
X143117Y73017D01*
X143142Y73103D01*
X143163Y73190D01*
X143181Y73278D01*
X143194Y73366D01*
X143204Y73455D01*
X143210Y73544D01*
X143212Y73634D01*
X143211Y73634D02*
X143211Y78766D01*
X143212Y78766D02*
X143210Y78856D01*
X143204Y78945D01*
X143194Y79034D01*
X143181Y79122D01*
X143163Y79210D01*
X143142Y79297D01*
X143117Y79383D01*
X143088Y79468D01*
X143056Y79552D01*
X143020Y79634D01*
X142980Y79714D01*
X142937Y79793D01*
X142890Y79869D01*
X142841Y79944D01*
X142788Y80016D01*
X142732Y80086D01*
X142673Y80153D01*
X142611Y80218D01*
X142546Y80280D01*
X142479Y80339D01*
X142409Y80395D01*
X142337Y80448D01*
X142262Y80497D01*
X142186Y80544D01*
X142107Y80587D01*
X142027Y80627D01*
X141945Y80663D01*
X141861Y80695D01*
X141776Y80724D01*
X141690Y80749D01*
X141603Y80770D01*
X141515Y80788D01*
X141427Y80801D01*
X141338Y80811D01*
X141249Y80817D01*
X141159Y80819D01*
X139106Y80819D01*
X135686Y78766D02*
X133120Y80819D01*
X133120Y71581D01*
X135686Y71581D02*
X130554Y71581D01*
M02*
