G04 EAGLE Gerber X2 export*
%TF.Part,Single*%
%TF.FileFunction,Legend,Bot,1*%
%TF.FilePolarity,Positive*%
%TF.GenerationSoftware,Autodesk,EAGLE,9.0.0*%
%TF.CreationDate,2018-04-25T20:23:54Z*%
G75*
%MOMM*%
%FSLAX34Y34*%
%LPD*%
%AMOC8*
5,1,8,0,0,1.08239X$1,22.5*%
G01*
%ADD10C,0.076200*%
%ADD11C,0.127000*%
%ADD12C,0.300000*%


D10*
X153973Y19991D02*
X156026Y19991D01*
X156116Y19993D01*
X156205Y19999D01*
X156294Y20009D01*
X156382Y20022D01*
X156470Y20040D01*
X156557Y20061D01*
X156643Y20086D01*
X156728Y20115D01*
X156812Y20147D01*
X156894Y20183D01*
X156974Y20223D01*
X157053Y20266D01*
X157129Y20313D01*
X157204Y20362D01*
X157276Y20415D01*
X157346Y20471D01*
X157413Y20530D01*
X157478Y20592D01*
X157540Y20657D01*
X157599Y20724D01*
X157655Y20794D01*
X157708Y20866D01*
X157757Y20941D01*
X157804Y21017D01*
X157847Y21096D01*
X157887Y21176D01*
X157923Y21258D01*
X157955Y21342D01*
X157984Y21427D01*
X158009Y21513D01*
X158030Y21600D01*
X158048Y21688D01*
X158061Y21776D01*
X158071Y21865D01*
X158077Y21954D01*
X158079Y22044D01*
X158079Y27176D01*
X158077Y27266D01*
X158071Y27355D01*
X158061Y27444D01*
X158048Y27532D01*
X158030Y27620D01*
X158009Y27707D01*
X157984Y27793D01*
X157955Y27878D01*
X157923Y27962D01*
X157887Y28044D01*
X157847Y28124D01*
X157804Y28203D01*
X157757Y28279D01*
X157708Y28354D01*
X157655Y28426D01*
X157599Y28496D01*
X157540Y28563D01*
X157478Y28628D01*
X157413Y28690D01*
X157346Y28749D01*
X157276Y28805D01*
X157204Y28858D01*
X157129Y28907D01*
X157053Y28954D01*
X156974Y28997D01*
X156894Y29037D01*
X156812Y29073D01*
X156728Y29105D01*
X156643Y29134D01*
X156557Y29159D01*
X156470Y29180D01*
X156382Y29198D01*
X156294Y29211D01*
X156205Y29221D01*
X156116Y29227D01*
X156026Y29229D01*
X153973Y29229D01*
X150553Y27176D02*
X147987Y29229D01*
X147987Y19991D01*
X150553Y19991D02*
X145421Y19991D01*
D11*
X135000Y35010D02*
X105000Y35010D01*
X105000Y65010D02*
X135000Y65010D01*
D12*
X99000Y30010D02*
X99002Y30073D01*
X99008Y30135D01*
X99018Y30197D01*
X99031Y30259D01*
X99049Y30319D01*
X99070Y30378D01*
X99095Y30436D01*
X99124Y30492D01*
X99156Y30546D01*
X99191Y30598D01*
X99229Y30647D01*
X99271Y30695D01*
X99315Y30739D01*
X99363Y30781D01*
X99412Y30819D01*
X99464Y30854D01*
X99518Y30886D01*
X99574Y30915D01*
X99632Y30940D01*
X99691Y30961D01*
X99751Y30979D01*
X99813Y30992D01*
X99875Y31002D01*
X99937Y31008D01*
X100000Y31010D01*
X100063Y31008D01*
X100125Y31002D01*
X100187Y30992D01*
X100249Y30979D01*
X100309Y30961D01*
X100368Y30940D01*
X100426Y30915D01*
X100482Y30886D01*
X100536Y30854D01*
X100588Y30819D01*
X100637Y30781D01*
X100685Y30739D01*
X100729Y30695D01*
X100771Y30647D01*
X100809Y30598D01*
X100844Y30546D01*
X100876Y30492D01*
X100905Y30436D01*
X100930Y30378D01*
X100951Y30319D01*
X100969Y30259D01*
X100982Y30197D01*
X100992Y30135D01*
X100998Y30073D01*
X101000Y30010D01*
X100998Y29947D01*
X100992Y29885D01*
X100982Y29823D01*
X100969Y29761D01*
X100951Y29701D01*
X100930Y29642D01*
X100905Y29584D01*
X100876Y29528D01*
X100844Y29474D01*
X100809Y29422D01*
X100771Y29373D01*
X100729Y29325D01*
X100685Y29281D01*
X100637Y29239D01*
X100588Y29201D01*
X100536Y29166D01*
X100482Y29134D01*
X100426Y29105D01*
X100368Y29080D01*
X100309Y29059D01*
X100249Y29041D01*
X100187Y29028D01*
X100125Y29018D01*
X100063Y29012D01*
X100000Y29010D01*
X99937Y29012D01*
X99875Y29018D01*
X99813Y29028D01*
X99751Y29041D01*
X99691Y29059D01*
X99632Y29080D01*
X99574Y29105D01*
X99518Y29134D01*
X99464Y29166D01*
X99412Y29201D01*
X99363Y29239D01*
X99315Y29281D01*
X99271Y29325D01*
X99229Y29373D01*
X99191Y29422D01*
X99156Y29474D01*
X99124Y29528D01*
X99095Y29584D01*
X99070Y29642D01*
X99049Y29701D01*
X99031Y29761D01*
X99018Y29823D01*
X99008Y29885D01*
X99002Y29947D01*
X99000Y30010D01*
D10*
X128120Y70791D02*
X128120Y80029D01*
X129146Y70791D02*
X127093Y70791D01*
X127093Y80029D02*
X129146Y80029D01*
X121459Y70791D02*
X119406Y70791D01*
X121459Y70791D02*
X121549Y70793D01*
X121638Y70799D01*
X121727Y70809D01*
X121815Y70822D01*
X121903Y70840D01*
X121990Y70861D01*
X122076Y70886D01*
X122161Y70915D01*
X122245Y70947D01*
X122327Y70983D01*
X122407Y71023D01*
X122486Y71066D01*
X122562Y71113D01*
X122637Y71162D01*
X122709Y71215D01*
X122779Y71271D01*
X122846Y71330D01*
X122911Y71392D01*
X122973Y71457D01*
X123032Y71524D01*
X123088Y71594D01*
X123141Y71666D01*
X123190Y71741D01*
X123237Y71818D01*
X123280Y71896D01*
X123320Y71976D01*
X123356Y72058D01*
X123388Y72142D01*
X123417Y72227D01*
X123442Y72313D01*
X123463Y72400D01*
X123481Y72488D01*
X123494Y72576D01*
X123504Y72665D01*
X123510Y72754D01*
X123512Y72844D01*
X123511Y72844D02*
X123511Y77976D01*
X123512Y77976D02*
X123510Y78066D01*
X123504Y78155D01*
X123494Y78244D01*
X123481Y78332D01*
X123463Y78420D01*
X123442Y78507D01*
X123417Y78593D01*
X123388Y78678D01*
X123356Y78762D01*
X123320Y78844D01*
X123280Y78924D01*
X123237Y79003D01*
X123190Y79079D01*
X123141Y79154D01*
X123088Y79226D01*
X123032Y79296D01*
X122973Y79363D01*
X122911Y79428D01*
X122846Y79490D01*
X122779Y79549D01*
X122709Y79605D01*
X122637Y79658D01*
X122562Y79707D01*
X122486Y79754D01*
X122407Y79797D01*
X122327Y79837D01*
X122245Y79873D01*
X122161Y79905D01*
X122076Y79934D01*
X121990Y79959D01*
X121903Y79980D01*
X121815Y79998D01*
X121727Y80011D01*
X121638Y80021D01*
X121549Y80027D01*
X121459Y80029D01*
X119406Y80029D01*
X115986Y77976D02*
X113420Y80029D01*
X113420Y70791D01*
X115986Y70791D02*
X110854Y70791D01*
M02*
