G04 EAGLE Gerber X2 export*
%TF.Part,Single*%
%TF.FileFunction,Legend,Top,1*%
%TF.FilePolarity,Positive*%
%TF.GenerationSoftware,Autodesk,EAGLE,9.0.0*%
%TF.CreationDate,2018-04-25T20:23:54Z*%
G75*
%MOMM*%
%FSLAX34Y34*%
%LPD*%
%AMOC8*
5,1,8,0,0,1.08239X$1,22.5*%
G01*
%ADD10C,0.050800*%
%ADD11C,0.100000*%
%ADD12C,0.076200*%
%ADD13C,0.152400*%


D10*
X50254Y25308D02*
X57246Y25308D01*
X57246Y28416D01*
X57246Y31207D02*
X50254Y31207D01*
X54138Y33538D01*
X50254Y35869D01*
X57246Y35869D01*
X51031Y39021D02*
X50254Y39021D01*
X50254Y42905D01*
X57246Y40963D01*
X55692Y45771D02*
X50254Y47325D01*
X55692Y45771D02*
X55692Y49655D01*
X54138Y48490D02*
X57246Y48490D01*
X53362Y52521D02*
X53362Y54852D01*
X53361Y54852D02*
X53363Y54928D01*
X53368Y55004D01*
X53378Y55080D01*
X53391Y55155D01*
X53408Y55230D01*
X53428Y55303D01*
X53452Y55376D01*
X53479Y55447D01*
X53510Y55516D01*
X53544Y55585D01*
X53582Y55651D01*
X53623Y55715D01*
X53667Y55778D01*
X53714Y55838D01*
X53764Y55896D01*
X53816Y55951D01*
X53871Y56003D01*
X53929Y56053D01*
X53989Y56100D01*
X54052Y56144D01*
X54116Y56185D01*
X54182Y56223D01*
X54251Y56257D01*
X54320Y56288D01*
X54391Y56315D01*
X54464Y56339D01*
X54537Y56359D01*
X54612Y56376D01*
X54687Y56389D01*
X54763Y56399D01*
X54839Y56404D01*
X54915Y56406D01*
X54915Y56405D02*
X55304Y56405D01*
X55391Y56403D01*
X55478Y56397D01*
X55565Y56387D01*
X55651Y56374D01*
X55736Y56356D01*
X55821Y56335D01*
X55904Y56310D01*
X55986Y56281D01*
X56067Y56249D01*
X56147Y56213D01*
X56224Y56173D01*
X56300Y56130D01*
X56374Y56084D01*
X56445Y56034D01*
X56515Y55981D01*
X56582Y55925D01*
X56646Y55867D01*
X56708Y55805D01*
X56766Y55741D01*
X56822Y55674D01*
X56875Y55604D01*
X56925Y55533D01*
X56971Y55459D01*
X57014Y55383D01*
X57054Y55306D01*
X57090Y55226D01*
X57122Y55145D01*
X57151Y55063D01*
X57176Y54980D01*
X57197Y54895D01*
X57215Y54810D01*
X57228Y54724D01*
X57238Y54637D01*
X57244Y54550D01*
X57246Y54463D01*
X57244Y54376D01*
X57238Y54289D01*
X57228Y54202D01*
X57215Y54116D01*
X57197Y54031D01*
X57176Y53946D01*
X57151Y53863D01*
X57122Y53781D01*
X57090Y53700D01*
X57054Y53620D01*
X57014Y53543D01*
X56971Y53467D01*
X56925Y53393D01*
X56875Y53322D01*
X56822Y53252D01*
X56766Y53185D01*
X56708Y53121D01*
X56646Y53059D01*
X56582Y53001D01*
X56515Y52945D01*
X56445Y52892D01*
X56374Y52842D01*
X56300Y52796D01*
X56224Y52753D01*
X56147Y52713D01*
X56067Y52677D01*
X55986Y52645D01*
X55904Y52616D01*
X55821Y52591D01*
X55736Y52570D01*
X55651Y52552D01*
X55565Y52539D01*
X55478Y52529D01*
X55391Y52523D01*
X55304Y52521D01*
X53362Y52521D01*
X53362Y52520D02*
X53251Y52522D01*
X53140Y52528D01*
X53030Y52538D01*
X52920Y52552D01*
X52810Y52569D01*
X52701Y52591D01*
X52593Y52617D01*
X52486Y52646D01*
X52381Y52679D01*
X52276Y52716D01*
X52173Y52757D01*
X52071Y52801D01*
X51971Y52849D01*
X51873Y52900D01*
X51776Y52955D01*
X51682Y53013D01*
X51589Y53075D01*
X51499Y53140D01*
X51412Y53208D01*
X51327Y53279D01*
X51244Y53353D01*
X51164Y53430D01*
X51087Y53510D01*
X51013Y53593D01*
X50942Y53678D01*
X50874Y53765D01*
X50809Y53855D01*
X50747Y53948D01*
X50689Y54042D01*
X50634Y54138D01*
X50583Y54237D01*
X50535Y54337D01*
X50491Y54439D01*
X50450Y54542D01*
X50413Y54646D01*
X50380Y54752D01*
X50351Y54859D01*
X50325Y54967D01*
X50303Y55076D01*
X50286Y55186D01*
X50272Y55296D01*
X50262Y55406D01*
X50256Y55517D01*
X50254Y55628D01*
X50254Y59271D02*
X51031Y59271D01*
X50254Y59271D02*
X50254Y63155D01*
X57246Y61213D01*
X53750Y66021D02*
X53605Y66023D01*
X53460Y66028D01*
X53315Y66037D01*
X53170Y66050D01*
X53026Y66067D01*
X52882Y66087D01*
X52739Y66110D01*
X52596Y66138D01*
X52454Y66169D01*
X52313Y66203D01*
X52173Y66241D01*
X52034Y66282D01*
X51896Y66327D01*
X51759Y66376D01*
X51623Y66428D01*
X51489Y66483D01*
X51356Y66542D01*
X51225Y66604D01*
X51155Y66630D01*
X51087Y66659D01*
X51021Y66692D01*
X50956Y66728D01*
X50893Y66768D01*
X50832Y66811D01*
X50774Y66857D01*
X50718Y66906D01*
X50665Y66957D01*
X50614Y67012D01*
X50566Y67068D01*
X50522Y67128D01*
X50480Y67189D01*
X50442Y67253D01*
X50407Y67318D01*
X50375Y67386D01*
X50347Y67454D01*
X50323Y67524D01*
X50302Y67596D01*
X50285Y67668D01*
X50271Y67741D01*
X50262Y67815D01*
X50256Y67889D01*
X50254Y67963D01*
X50256Y68037D01*
X50262Y68111D01*
X50271Y68185D01*
X50285Y68258D01*
X50302Y68330D01*
X50323Y68402D01*
X50347Y68472D01*
X50375Y68540D01*
X50407Y68608D01*
X50442Y68673D01*
X50480Y68737D01*
X50522Y68798D01*
X50566Y68858D01*
X50614Y68914D01*
X50665Y68969D01*
X50718Y69021D01*
X50774Y69069D01*
X50832Y69115D01*
X50893Y69158D01*
X50956Y69198D01*
X51021Y69234D01*
X51087Y69267D01*
X51155Y69296D01*
X51225Y69322D01*
X51225Y69323D02*
X51356Y69385D01*
X51489Y69444D01*
X51623Y69499D01*
X51759Y69551D01*
X51896Y69600D01*
X52034Y69645D01*
X52173Y69686D01*
X52313Y69724D01*
X52454Y69758D01*
X52596Y69789D01*
X52739Y69817D01*
X52882Y69840D01*
X53026Y69860D01*
X53170Y69877D01*
X53315Y69890D01*
X53460Y69899D01*
X53605Y69904D01*
X53750Y69906D01*
X53750Y66021D02*
X53895Y66023D01*
X54040Y66028D01*
X54185Y66037D01*
X54330Y66050D01*
X54474Y66067D01*
X54618Y66087D01*
X54761Y66110D01*
X54904Y66138D01*
X55046Y66169D01*
X55187Y66203D01*
X55327Y66241D01*
X55466Y66282D01*
X55604Y66327D01*
X55741Y66376D01*
X55877Y66428D01*
X56011Y66483D01*
X56144Y66542D01*
X56275Y66604D01*
X56345Y66630D01*
X56413Y66659D01*
X56479Y66692D01*
X56544Y66728D01*
X56607Y66768D01*
X56668Y66811D01*
X56726Y66857D01*
X56782Y66906D01*
X56835Y66957D01*
X56886Y67012D01*
X56934Y67068D01*
X56978Y67128D01*
X57020Y67189D01*
X57058Y67253D01*
X57093Y67318D01*
X57125Y67386D01*
X57153Y67454D01*
X57177Y67524D01*
X57198Y67596D01*
X57215Y67668D01*
X57229Y67741D01*
X57238Y67815D01*
X57244Y67889D01*
X57246Y67963D01*
X56275Y69323D02*
X56144Y69385D01*
X56011Y69444D01*
X55877Y69499D01*
X55741Y69551D01*
X55604Y69600D01*
X55466Y69645D01*
X55327Y69686D01*
X55187Y69724D01*
X55046Y69758D01*
X54904Y69789D01*
X54761Y69817D01*
X54618Y69840D01*
X54474Y69860D01*
X54330Y69877D01*
X54185Y69890D01*
X54040Y69899D01*
X53895Y69904D01*
X53750Y69906D01*
X56275Y69322D02*
X56345Y69296D01*
X56413Y69267D01*
X56479Y69234D01*
X56544Y69198D01*
X56607Y69158D01*
X56668Y69115D01*
X56726Y69069D01*
X56782Y69020D01*
X56835Y68969D01*
X56886Y68914D01*
X56934Y68858D01*
X56978Y68798D01*
X57020Y68737D01*
X57058Y68673D01*
X57093Y68608D01*
X57125Y68540D01*
X57153Y68472D01*
X57177Y68402D01*
X57198Y68330D01*
X57215Y68258D01*
X57229Y68185D01*
X57238Y68111D01*
X57244Y68037D01*
X57246Y67963D01*
X55692Y66409D02*
X51808Y69517D01*
X63835Y24233D02*
X68496Y24233D01*
X61892Y24039D02*
X61504Y24039D01*
X61504Y24427D01*
X61892Y24427D01*
X61892Y24039D01*
X61504Y30029D02*
X68496Y30029D01*
X68496Y28087D01*
X68494Y28022D01*
X68489Y27957D01*
X68480Y27892D01*
X68467Y27828D01*
X68450Y27764D01*
X68431Y27702D01*
X68407Y27641D01*
X68381Y27582D01*
X68351Y27523D01*
X68317Y27467D01*
X68281Y27413D01*
X68242Y27361D01*
X68200Y27311D01*
X68155Y27263D01*
X68107Y27218D01*
X68057Y27176D01*
X68005Y27137D01*
X67951Y27101D01*
X67895Y27067D01*
X67836Y27037D01*
X67777Y27011D01*
X67716Y26987D01*
X67654Y26968D01*
X67590Y26951D01*
X67526Y26938D01*
X67461Y26929D01*
X67396Y26924D01*
X67331Y26922D01*
X65000Y26922D01*
X64935Y26924D01*
X64870Y26929D01*
X64805Y26938D01*
X64741Y26951D01*
X64677Y26968D01*
X64615Y26987D01*
X64554Y27011D01*
X64495Y27037D01*
X64436Y27067D01*
X64380Y27101D01*
X64326Y27137D01*
X64274Y27176D01*
X64224Y27218D01*
X64176Y27263D01*
X64131Y27311D01*
X64089Y27361D01*
X64050Y27413D01*
X64014Y27467D01*
X63980Y27523D01*
X63950Y27582D01*
X63924Y27641D01*
X63900Y27702D01*
X63881Y27764D01*
X63864Y27828D01*
X63851Y27892D01*
X63842Y27957D01*
X63837Y28022D01*
X63835Y28087D01*
X63835Y30029D01*
X68496Y34194D02*
X68496Y36137D01*
X68496Y34194D02*
X68494Y34129D01*
X68489Y34064D01*
X68480Y33999D01*
X68467Y33935D01*
X68450Y33871D01*
X68431Y33809D01*
X68407Y33748D01*
X68381Y33689D01*
X68351Y33630D01*
X68317Y33574D01*
X68281Y33520D01*
X68242Y33468D01*
X68200Y33418D01*
X68155Y33370D01*
X68107Y33325D01*
X68057Y33283D01*
X68005Y33244D01*
X67951Y33208D01*
X67895Y33174D01*
X67836Y33144D01*
X67777Y33118D01*
X67716Y33094D01*
X67654Y33075D01*
X67590Y33058D01*
X67526Y33045D01*
X67461Y33036D01*
X67396Y33031D01*
X67331Y33029D01*
X65388Y33029D01*
X65311Y33031D01*
X65233Y33037D01*
X65156Y33046D01*
X65080Y33060D01*
X65005Y33077D01*
X64930Y33098D01*
X64857Y33123D01*
X64784Y33151D01*
X64714Y33183D01*
X64645Y33218D01*
X64578Y33257D01*
X64513Y33299D01*
X64450Y33344D01*
X64389Y33393D01*
X64331Y33444D01*
X64276Y33498D01*
X64223Y33555D01*
X64173Y33614D01*
X64126Y33676D01*
X64083Y33740D01*
X64042Y33806D01*
X64005Y33874D01*
X63972Y33944D01*
X63941Y34015D01*
X63915Y34088D01*
X63892Y34162D01*
X63873Y34237D01*
X63858Y34313D01*
X63846Y34390D01*
X63838Y34467D01*
X63834Y34544D01*
X63834Y34622D01*
X63838Y34699D01*
X63846Y34776D01*
X63858Y34853D01*
X63873Y34929D01*
X63892Y35004D01*
X63915Y35078D01*
X63941Y35151D01*
X63972Y35222D01*
X64005Y35292D01*
X64042Y35360D01*
X64083Y35426D01*
X64126Y35490D01*
X64173Y35552D01*
X64223Y35611D01*
X64276Y35668D01*
X64331Y35722D01*
X64389Y35773D01*
X64450Y35822D01*
X64513Y35867D01*
X64578Y35909D01*
X64645Y35948D01*
X64714Y35983D01*
X64784Y36015D01*
X64857Y36043D01*
X64930Y36068D01*
X65005Y36089D01*
X65080Y36106D01*
X65156Y36120D01*
X65233Y36129D01*
X65311Y36135D01*
X65388Y36137D01*
X66165Y36137D01*
X66165Y33029D01*
X65777Y40206D02*
X65777Y41954D01*
X65776Y40206D02*
X65778Y40134D01*
X65784Y40061D01*
X65793Y39990D01*
X65807Y39919D01*
X65824Y39848D01*
X65845Y39779D01*
X65869Y39711D01*
X65898Y39644D01*
X65929Y39579D01*
X65964Y39516D01*
X66003Y39454D01*
X66044Y39395D01*
X66089Y39338D01*
X66137Y39283D01*
X66187Y39232D01*
X66240Y39183D01*
X66296Y39136D01*
X66354Y39093D01*
X66415Y39053D01*
X66477Y39016D01*
X66541Y38983D01*
X66607Y38953D01*
X66675Y38927D01*
X66743Y38904D01*
X66813Y38885D01*
X66884Y38870D01*
X66955Y38858D01*
X67027Y38850D01*
X67100Y38846D01*
X67172Y38846D01*
X67245Y38850D01*
X67317Y38858D01*
X67388Y38870D01*
X67459Y38885D01*
X67529Y38904D01*
X67597Y38927D01*
X67665Y38953D01*
X67731Y38983D01*
X67795Y39016D01*
X67857Y39053D01*
X67918Y39093D01*
X67976Y39136D01*
X68032Y39183D01*
X68085Y39232D01*
X68135Y39283D01*
X68183Y39338D01*
X68228Y39395D01*
X68269Y39454D01*
X68308Y39516D01*
X68343Y39579D01*
X68374Y39644D01*
X68403Y39711D01*
X68427Y39779D01*
X68448Y39848D01*
X68465Y39919D01*
X68479Y39990D01*
X68488Y40061D01*
X68494Y40134D01*
X68496Y40206D01*
X68496Y41954D01*
X65000Y41954D01*
X64935Y41952D01*
X64870Y41947D01*
X64805Y41938D01*
X64741Y41925D01*
X64677Y41908D01*
X64615Y41889D01*
X64554Y41865D01*
X64495Y41839D01*
X64436Y41809D01*
X64380Y41775D01*
X64326Y41739D01*
X64274Y41700D01*
X64224Y41658D01*
X64176Y41613D01*
X64131Y41565D01*
X64089Y41515D01*
X64050Y41463D01*
X64014Y41409D01*
X63980Y41353D01*
X63950Y41294D01*
X63924Y41235D01*
X63900Y41174D01*
X63881Y41112D01*
X63864Y41048D01*
X63851Y40984D01*
X63842Y40919D01*
X63837Y40854D01*
X63835Y40789D01*
X63835Y39235D01*
X61504Y45053D02*
X67331Y45053D01*
X67396Y45055D01*
X67461Y45060D01*
X67526Y45069D01*
X67590Y45082D01*
X67654Y45099D01*
X67716Y45118D01*
X67777Y45142D01*
X67836Y45168D01*
X67895Y45198D01*
X67951Y45232D01*
X68005Y45268D01*
X68057Y45307D01*
X68107Y45349D01*
X68155Y45394D01*
X68200Y45442D01*
X68242Y45492D01*
X68281Y45544D01*
X68317Y45598D01*
X68351Y45654D01*
X68381Y45713D01*
X68407Y45772D01*
X68431Y45833D01*
X68450Y45895D01*
X68467Y45959D01*
X68480Y46023D01*
X68489Y46088D01*
X68494Y46153D01*
X68496Y46218D01*
X68496Y55229D02*
X61504Y55229D01*
X68496Y55229D02*
X68496Y53287D01*
X68494Y53222D01*
X68489Y53157D01*
X68480Y53092D01*
X68467Y53028D01*
X68450Y52964D01*
X68431Y52902D01*
X68407Y52841D01*
X68381Y52782D01*
X68351Y52723D01*
X68317Y52667D01*
X68281Y52613D01*
X68242Y52561D01*
X68200Y52511D01*
X68155Y52463D01*
X68107Y52418D01*
X68057Y52376D01*
X68005Y52337D01*
X67951Y52301D01*
X67895Y52267D01*
X67836Y52237D01*
X67777Y52211D01*
X67716Y52187D01*
X67654Y52168D01*
X67590Y52151D01*
X67526Y52138D01*
X67461Y52129D01*
X67396Y52124D01*
X67331Y52122D01*
X65000Y52122D01*
X64935Y52124D01*
X64870Y52129D01*
X64805Y52138D01*
X64741Y52151D01*
X64677Y52168D01*
X64615Y52187D01*
X64554Y52211D01*
X64495Y52237D01*
X64436Y52267D01*
X64380Y52301D01*
X64326Y52337D01*
X64274Y52376D01*
X64224Y52418D01*
X64176Y52463D01*
X64131Y52511D01*
X64089Y52561D01*
X64050Y52613D01*
X64014Y52667D01*
X63980Y52723D01*
X63950Y52782D01*
X63924Y52841D01*
X63900Y52902D01*
X63881Y52964D01*
X63864Y53028D01*
X63851Y53092D01*
X63842Y53157D01*
X63837Y53222D01*
X63835Y53287D01*
X63835Y55229D01*
X63835Y58208D02*
X68496Y58208D01*
X61892Y58013D02*
X61504Y58013D01*
X61504Y58402D01*
X61892Y58402D01*
X61892Y58013D01*
X65388Y60929D02*
X66942Y60929D01*
X65388Y60929D02*
X65311Y60931D01*
X65233Y60937D01*
X65156Y60946D01*
X65080Y60960D01*
X65005Y60977D01*
X64930Y60998D01*
X64857Y61023D01*
X64784Y61051D01*
X64714Y61083D01*
X64645Y61118D01*
X64578Y61157D01*
X64513Y61199D01*
X64450Y61244D01*
X64389Y61293D01*
X64331Y61344D01*
X64276Y61398D01*
X64223Y61455D01*
X64173Y61514D01*
X64126Y61576D01*
X64083Y61640D01*
X64042Y61706D01*
X64005Y61774D01*
X63972Y61844D01*
X63941Y61915D01*
X63915Y61988D01*
X63892Y62062D01*
X63873Y62137D01*
X63858Y62213D01*
X63846Y62290D01*
X63838Y62367D01*
X63834Y62444D01*
X63834Y62522D01*
X63838Y62599D01*
X63846Y62676D01*
X63858Y62753D01*
X63873Y62829D01*
X63892Y62904D01*
X63915Y62978D01*
X63941Y63051D01*
X63972Y63122D01*
X64005Y63192D01*
X64042Y63260D01*
X64083Y63326D01*
X64126Y63390D01*
X64173Y63452D01*
X64223Y63511D01*
X64276Y63568D01*
X64331Y63622D01*
X64389Y63673D01*
X64450Y63722D01*
X64513Y63767D01*
X64578Y63809D01*
X64645Y63848D01*
X64714Y63883D01*
X64784Y63915D01*
X64857Y63943D01*
X64930Y63968D01*
X65005Y63989D01*
X65080Y64006D01*
X65156Y64020D01*
X65233Y64029D01*
X65311Y64035D01*
X65388Y64037D01*
X65388Y64036D02*
X66942Y64036D01*
X66942Y64037D02*
X67019Y64035D01*
X67097Y64029D01*
X67174Y64020D01*
X67250Y64006D01*
X67325Y63989D01*
X67400Y63968D01*
X67473Y63943D01*
X67546Y63915D01*
X67616Y63883D01*
X67685Y63848D01*
X67752Y63809D01*
X67817Y63767D01*
X67880Y63722D01*
X67941Y63673D01*
X67999Y63622D01*
X68054Y63568D01*
X68107Y63511D01*
X68157Y63452D01*
X68204Y63390D01*
X68247Y63326D01*
X68288Y63260D01*
X68325Y63192D01*
X68358Y63122D01*
X68389Y63051D01*
X68415Y62978D01*
X68438Y62904D01*
X68457Y62829D01*
X68472Y62753D01*
X68484Y62676D01*
X68492Y62599D01*
X68496Y62522D01*
X68496Y62444D01*
X68492Y62367D01*
X68484Y62290D01*
X68472Y62213D01*
X68457Y62137D01*
X68438Y62062D01*
X68415Y61988D01*
X68389Y61915D01*
X68358Y61844D01*
X68325Y61774D01*
X68288Y61706D01*
X68247Y61640D01*
X68204Y61576D01*
X68157Y61514D01*
X68107Y61455D01*
X68054Y61398D01*
X67999Y61344D01*
X67941Y61293D01*
X67880Y61244D01*
X67817Y61199D01*
X67752Y61157D01*
X67685Y61118D01*
X67616Y61083D01*
X67546Y61051D01*
X67473Y61023D01*
X67400Y60998D01*
X67325Y60977D01*
X67250Y60960D01*
X67174Y60946D01*
X67097Y60937D01*
X67019Y60931D01*
X66942Y60929D01*
X68496Y69854D02*
X61504Y69854D01*
X68496Y69854D02*
X68496Y67912D01*
X68494Y67847D01*
X68489Y67782D01*
X68480Y67717D01*
X68467Y67653D01*
X68450Y67589D01*
X68431Y67527D01*
X68407Y67466D01*
X68381Y67407D01*
X68351Y67348D01*
X68317Y67292D01*
X68281Y67238D01*
X68242Y67186D01*
X68200Y67136D01*
X68155Y67088D01*
X68107Y67043D01*
X68057Y67001D01*
X68005Y66962D01*
X67951Y66926D01*
X67895Y66892D01*
X67836Y66862D01*
X67777Y66836D01*
X67716Y66812D01*
X67654Y66793D01*
X67590Y66776D01*
X67526Y66763D01*
X67461Y66754D01*
X67396Y66749D01*
X67331Y66747D01*
X65000Y66747D01*
X64935Y66749D01*
X64870Y66754D01*
X64805Y66763D01*
X64741Y66776D01*
X64677Y66793D01*
X64615Y66812D01*
X64554Y66836D01*
X64495Y66862D01*
X64436Y66892D01*
X64380Y66926D01*
X64326Y66962D01*
X64274Y67001D01*
X64224Y67043D01*
X64176Y67088D01*
X64131Y67136D01*
X64089Y67186D01*
X64050Y67238D01*
X64014Y67292D01*
X63980Y67348D01*
X63950Y67407D01*
X63924Y67466D01*
X63900Y67527D01*
X63881Y67589D01*
X63864Y67653D01*
X63851Y67717D01*
X63842Y67782D01*
X63837Y67847D01*
X63835Y67912D01*
X63835Y69854D01*
X68496Y74019D02*
X68496Y75961D01*
X68496Y74019D02*
X68494Y73954D01*
X68489Y73889D01*
X68480Y73824D01*
X68467Y73760D01*
X68450Y73696D01*
X68431Y73634D01*
X68407Y73573D01*
X68381Y73514D01*
X68351Y73455D01*
X68317Y73399D01*
X68281Y73345D01*
X68242Y73293D01*
X68200Y73243D01*
X68155Y73195D01*
X68107Y73150D01*
X68057Y73108D01*
X68005Y73069D01*
X67951Y73033D01*
X67895Y72999D01*
X67836Y72969D01*
X67777Y72943D01*
X67716Y72919D01*
X67654Y72900D01*
X67590Y72883D01*
X67526Y72870D01*
X67461Y72861D01*
X67396Y72856D01*
X67331Y72854D01*
X65388Y72854D01*
X65311Y72856D01*
X65233Y72862D01*
X65156Y72871D01*
X65080Y72885D01*
X65005Y72902D01*
X64930Y72923D01*
X64857Y72948D01*
X64784Y72976D01*
X64714Y73008D01*
X64645Y73043D01*
X64578Y73082D01*
X64513Y73124D01*
X64450Y73169D01*
X64389Y73218D01*
X64331Y73269D01*
X64276Y73323D01*
X64223Y73380D01*
X64173Y73439D01*
X64126Y73501D01*
X64083Y73565D01*
X64042Y73631D01*
X64005Y73699D01*
X63972Y73769D01*
X63941Y73840D01*
X63915Y73913D01*
X63892Y73987D01*
X63873Y74062D01*
X63858Y74138D01*
X63846Y74215D01*
X63838Y74292D01*
X63834Y74369D01*
X63834Y74447D01*
X63838Y74524D01*
X63846Y74601D01*
X63858Y74678D01*
X63873Y74754D01*
X63892Y74829D01*
X63915Y74903D01*
X63941Y74976D01*
X63972Y75047D01*
X64005Y75117D01*
X64042Y75185D01*
X64083Y75251D01*
X64126Y75315D01*
X64173Y75377D01*
X64223Y75436D01*
X64276Y75493D01*
X64331Y75547D01*
X64389Y75598D01*
X64450Y75647D01*
X64513Y75692D01*
X64578Y75734D01*
X64645Y75773D01*
X64714Y75808D01*
X64784Y75840D01*
X64857Y75868D01*
X64930Y75893D01*
X65005Y75914D01*
X65080Y75931D01*
X65156Y75945D01*
X65233Y75954D01*
X65311Y75960D01*
X65388Y75962D01*
X65388Y75961D02*
X66165Y75961D01*
X66165Y72854D01*
X72754Y12929D02*
X79746Y12929D01*
X79746Y14871D01*
X79744Y14936D01*
X79739Y15001D01*
X79730Y15066D01*
X79717Y15130D01*
X79700Y15194D01*
X79681Y15256D01*
X79657Y15317D01*
X79631Y15376D01*
X79601Y15435D01*
X79567Y15491D01*
X79531Y15545D01*
X79492Y15597D01*
X79450Y15647D01*
X79405Y15695D01*
X79357Y15740D01*
X79307Y15782D01*
X79255Y15821D01*
X79201Y15857D01*
X79145Y15891D01*
X79086Y15921D01*
X79027Y15947D01*
X78966Y15971D01*
X78904Y15990D01*
X78840Y16007D01*
X78776Y16020D01*
X78711Y16029D01*
X78646Y16034D01*
X78581Y16036D01*
X76250Y16036D01*
X76185Y16034D01*
X76120Y16029D01*
X76055Y16020D01*
X75991Y16007D01*
X75927Y15990D01*
X75865Y15971D01*
X75804Y15947D01*
X75745Y15921D01*
X75686Y15891D01*
X75630Y15857D01*
X75576Y15821D01*
X75524Y15782D01*
X75474Y15740D01*
X75426Y15695D01*
X75381Y15647D01*
X75339Y15597D01*
X75300Y15545D01*
X75264Y15491D01*
X75230Y15435D01*
X75200Y15376D01*
X75174Y15317D01*
X75150Y15256D01*
X75131Y15194D01*
X75114Y15130D01*
X75101Y15066D01*
X75092Y15001D01*
X75087Y14936D01*
X75085Y14871D01*
X75085Y12929D01*
X75085Y19008D02*
X79746Y19008D01*
X75085Y19008D02*
X75085Y21338D01*
X75862Y21338D01*
X79746Y24637D02*
X79746Y26579D01*
X79746Y24637D02*
X79744Y24572D01*
X79739Y24507D01*
X79730Y24442D01*
X79717Y24378D01*
X79700Y24314D01*
X79681Y24252D01*
X79657Y24191D01*
X79631Y24132D01*
X79601Y24073D01*
X79567Y24017D01*
X79531Y23963D01*
X79492Y23911D01*
X79450Y23861D01*
X79405Y23813D01*
X79357Y23768D01*
X79307Y23726D01*
X79255Y23687D01*
X79201Y23651D01*
X79145Y23617D01*
X79086Y23587D01*
X79027Y23561D01*
X78966Y23537D01*
X78904Y23518D01*
X78840Y23501D01*
X78776Y23488D01*
X78711Y23479D01*
X78646Y23474D01*
X78581Y23472D01*
X78581Y23471D02*
X76638Y23471D01*
X76561Y23473D01*
X76483Y23479D01*
X76406Y23488D01*
X76330Y23502D01*
X76255Y23519D01*
X76180Y23540D01*
X76107Y23565D01*
X76034Y23593D01*
X75964Y23625D01*
X75895Y23660D01*
X75828Y23699D01*
X75763Y23741D01*
X75700Y23786D01*
X75639Y23835D01*
X75581Y23886D01*
X75526Y23940D01*
X75473Y23997D01*
X75423Y24056D01*
X75376Y24118D01*
X75333Y24182D01*
X75292Y24248D01*
X75255Y24316D01*
X75222Y24386D01*
X75191Y24457D01*
X75165Y24530D01*
X75142Y24604D01*
X75123Y24679D01*
X75108Y24755D01*
X75096Y24832D01*
X75088Y24909D01*
X75084Y24986D01*
X75084Y25064D01*
X75088Y25141D01*
X75096Y25218D01*
X75108Y25295D01*
X75123Y25371D01*
X75142Y25446D01*
X75165Y25520D01*
X75191Y25593D01*
X75222Y25664D01*
X75255Y25734D01*
X75292Y25802D01*
X75333Y25868D01*
X75376Y25932D01*
X75423Y25994D01*
X75473Y26053D01*
X75526Y26110D01*
X75581Y26164D01*
X75639Y26215D01*
X75700Y26264D01*
X75763Y26309D01*
X75828Y26351D01*
X75895Y26390D01*
X75964Y26425D01*
X76034Y26457D01*
X76107Y26485D01*
X76180Y26510D01*
X76255Y26531D01*
X76330Y26548D01*
X76406Y26562D01*
X76483Y26571D01*
X76561Y26577D01*
X76638Y26579D01*
X77415Y26579D01*
X77415Y23471D01*
X77027Y30649D02*
X77027Y32397D01*
X77026Y30649D02*
X77028Y30577D01*
X77034Y30504D01*
X77043Y30433D01*
X77057Y30362D01*
X77074Y30291D01*
X77095Y30222D01*
X77119Y30154D01*
X77148Y30087D01*
X77179Y30022D01*
X77214Y29959D01*
X77253Y29897D01*
X77294Y29838D01*
X77339Y29781D01*
X77387Y29726D01*
X77437Y29675D01*
X77490Y29626D01*
X77546Y29579D01*
X77604Y29536D01*
X77665Y29496D01*
X77727Y29459D01*
X77791Y29426D01*
X77857Y29396D01*
X77925Y29370D01*
X77993Y29347D01*
X78063Y29328D01*
X78134Y29313D01*
X78205Y29301D01*
X78277Y29293D01*
X78350Y29289D01*
X78422Y29289D01*
X78495Y29293D01*
X78567Y29301D01*
X78638Y29313D01*
X78709Y29328D01*
X78779Y29347D01*
X78847Y29370D01*
X78915Y29396D01*
X78981Y29426D01*
X79045Y29459D01*
X79107Y29496D01*
X79168Y29536D01*
X79226Y29579D01*
X79282Y29626D01*
X79335Y29675D01*
X79385Y29726D01*
X79433Y29781D01*
X79478Y29838D01*
X79519Y29897D01*
X79558Y29959D01*
X79593Y30022D01*
X79624Y30087D01*
X79653Y30154D01*
X79677Y30222D01*
X79698Y30291D01*
X79715Y30362D01*
X79729Y30433D01*
X79738Y30504D01*
X79744Y30577D01*
X79746Y30649D01*
X79746Y32397D01*
X76250Y32397D01*
X76250Y32396D02*
X76185Y32394D01*
X76120Y32389D01*
X76055Y32380D01*
X75991Y32367D01*
X75927Y32350D01*
X75865Y32331D01*
X75804Y32307D01*
X75745Y32281D01*
X75686Y32251D01*
X75630Y32217D01*
X75576Y32181D01*
X75524Y32142D01*
X75474Y32100D01*
X75426Y32055D01*
X75381Y32007D01*
X75339Y31957D01*
X75300Y31905D01*
X75264Y31851D01*
X75230Y31795D01*
X75200Y31736D01*
X75174Y31677D01*
X75150Y31616D01*
X75131Y31554D01*
X75114Y31490D01*
X75101Y31426D01*
X75092Y31361D01*
X75087Y31296D01*
X75085Y31231D01*
X75085Y29678D01*
X72754Y35695D02*
X79746Y35695D01*
X77415Y35695D02*
X75085Y38803D01*
X76444Y37055D02*
X79746Y38803D01*
X78192Y41246D02*
X76638Y41246D01*
X76561Y41248D01*
X76483Y41254D01*
X76406Y41263D01*
X76330Y41277D01*
X76255Y41294D01*
X76180Y41315D01*
X76107Y41340D01*
X76034Y41368D01*
X75964Y41400D01*
X75895Y41435D01*
X75828Y41474D01*
X75763Y41516D01*
X75700Y41561D01*
X75639Y41610D01*
X75581Y41661D01*
X75526Y41715D01*
X75473Y41772D01*
X75423Y41831D01*
X75376Y41893D01*
X75333Y41957D01*
X75292Y42023D01*
X75255Y42091D01*
X75222Y42161D01*
X75191Y42232D01*
X75165Y42305D01*
X75142Y42379D01*
X75123Y42454D01*
X75108Y42530D01*
X75096Y42607D01*
X75088Y42684D01*
X75084Y42761D01*
X75084Y42839D01*
X75088Y42916D01*
X75096Y42993D01*
X75108Y43070D01*
X75123Y43146D01*
X75142Y43221D01*
X75165Y43295D01*
X75191Y43368D01*
X75222Y43439D01*
X75255Y43509D01*
X75292Y43577D01*
X75333Y43643D01*
X75376Y43707D01*
X75423Y43769D01*
X75473Y43828D01*
X75526Y43885D01*
X75581Y43939D01*
X75639Y43990D01*
X75700Y44039D01*
X75763Y44084D01*
X75828Y44126D01*
X75895Y44165D01*
X75964Y44200D01*
X76034Y44232D01*
X76107Y44260D01*
X76180Y44285D01*
X76255Y44306D01*
X76330Y44323D01*
X76406Y44337D01*
X76483Y44346D01*
X76561Y44352D01*
X76638Y44354D01*
X78192Y44354D01*
X78269Y44352D01*
X78347Y44346D01*
X78424Y44337D01*
X78500Y44323D01*
X78575Y44306D01*
X78650Y44285D01*
X78723Y44260D01*
X78796Y44232D01*
X78866Y44200D01*
X78935Y44165D01*
X79002Y44126D01*
X79067Y44084D01*
X79130Y44039D01*
X79191Y43990D01*
X79249Y43939D01*
X79304Y43885D01*
X79357Y43828D01*
X79407Y43769D01*
X79454Y43707D01*
X79497Y43643D01*
X79538Y43577D01*
X79575Y43509D01*
X79608Y43439D01*
X79639Y43368D01*
X79665Y43295D01*
X79688Y43221D01*
X79707Y43146D01*
X79722Y43070D01*
X79734Y42993D01*
X79742Y42916D01*
X79746Y42839D01*
X79746Y42761D01*
X79742Y42684D01*
X79734Y42607D01*
X79722Y42530D01*
X79707Y42454D01*
X79688Y42379D01*
X79665Y42305D01*
X79639Y42232D01*
X79608Y42161D01*
X79575Y42091D01*
X79538Y42023D01*
X79497Y41957D01*
X79454Y41893D01*
X79407Y41831D01*
X79357Y41772D01*
X79304Y41715D01*
X79249Y41661D01*
X79191Y41610D01*
X79130Y41561D01*
X79067Y41516D01*
X79002Y41474D01*
X78935Y41435D01*
X78866Y41400D01*
X78796Y41368D01*
X78723Y41340D01*
X78650Y41315D01*
X78575Y41294D01*
X78500Y41277D01*
X78424Y41263D01*
X78347Y41254D01*
X78269Y41248D01*
X78192Y41246D01*
X78581Y47321D02*
X75085Y47321D01*
X78581Y47322D02*
X78646Y47324D01*
X78711Y47329D01*
X78776Y47338D01*
X78840Y47351D01*
X78904Y47368D01*
X78966Y47387D01*
X79027Y47411D01*
X79086Y47437D01*
X79145Y47467D01*
X79201Y47501D01*
X79255Y47537D01*
X79307Y47576D01*
X79357Y47618D01*
X79405Y47663D01*
X79450Y47711D01*
X79492Y47761D01*
X79531Y47813D01*
X79567Y47867D01*
X79601Y47923D01*
X79631Y47982D01*
X79657Y48041D01*
X79681Y48102D01*
X79700Y48164D01*
X79717Y48228D01*
X79730Y48292D01*
X79739Y48357D01*
X79744Y48422D01*
X79746Y48487D01*
X79746Y50429D01*
X75085Y50429D01*
X75085Y52834D02*
X75085Y55165D01*
X72754Y53611D02*
X78581Y53611D01*
X78646Y53613D01*
X78711Y53618D01*
X78776Y53627D01*
X78840Y53640D01*
X78904Y53657D01*
X78966Y53676D01*
X79027Y53700D01*
X79086Y53726D01*
X79145Y53756D01*
X79201Y53790D01*
X79255Y53826D01*
X79307Y53865D01*
X79357Y53907D01*
X79405Y53952D01*
X79450Y54000D01*
X79492Y54050D01*
X79531Y54102D01*
X79567Y54156D01*
X79601Y54212D01*
X79631Y54271D01*
X79657Y54330D01*
X79681Y54391D01*
X79700Y54454D01*
X79717Y54517D01*
X79730Y54581D01*
X79739Y54646D01*
X79744Y54711D01*
X79746Y54776D01*
X79746Y54777D02*
X79746Y55165D01*
X79746Y61528D02*
X72754Y61528D01*
X79746Y61528D02*
X79746Y63471D01*
X79744Y63536D01*
X79739Y63601D01*
X79730Y63666D01*
X79717Y63730D01*
X79700Y63794D01*
X79681Y63856D01*
X79657Y63917D01*
X79631Y63976D01*
X79601Y64035D01*
X79567Y64091D01*
X79531Y64145D01*
X79492Y64197D01*
X79450Y64247D01*
X79405Y64295D01*
X79357Y64340D01*
X79307Y64382D01*
X79255Y64421D01*
X79201Y64457D01*
X79145Y64491D01*
X79086Y64521D01*
X79027Y64547D01*
X78966Y64571D01*
X78904Y64590D01*
X78840Y64607D01*
X78776Y64620D01*
X78711Y64629D01*
X78646Y64634D01*
X78581Y64636D01*
X76250Y64636D01*
X76185Y64634D01*
X76120Y64629D01*
X76055Y64620D01*
X75991Y64607D01*
X75927Y64590D01*
X75865Y64571D01*
X75804Y64547D01*
X75745Y64521D01*
X75686Y64491D01*
X75630Y64457D01*
X75576Y64421D01*
X75524Y64382D01*
X75474Y64340D01*
X75426Y64295D01*
X75381Y64247D01*
X75339Y64197D01*
X75300Y64145D01*
X75264Y64091D01*
X75230Y64035D01*
X75200Y63976D01*
X75174Y63917D01*
X75150Y63856D01*
X75131Y63794D01*
X75114Y63730D01*
X75101Y63666D01*
X75092Y63601D01*
X75087Y63536D01*
X75085Y63471D01*
X75085Y61528D01*
X76638Y67346D02*
X78192Y67346D01*
X76638Y67346D02*
X76561Y67348D01*
X76483Y67354D01*
X76406Y67363D01*
X76330Y67377D01*
X76255Y67394D01*
X76180Y67415D01*
X76107Y67440D01*
X76034Y67468D01*
X75964Y67500D01*
X75895Y67535D01*
X75828Y67574D01*
X75763Y67616D01*
X75700Y67661D01*
X75639Y67710D01*
X75581Y67761D01*
X75526Y67815D01*
X75473Y67872D01*
X75423Y67931D01*
X75376Y67993D01*
X75333Y68057D01*
X75292Y68123D01*
X75255Y68191D01*
X75222Y68261D01*
X75191Y68332D01*
X75165Y68405D01*
X75142Y68479D01*
X75123Y68554D01*
X75108Y68630D01*
X75096Y68707D01*
X75088Y68784D01*
X75084Y68861D01*
X75084Y68939D01*
X75088Y69016D01*
X75096Y69093D01*
X75108Y69170D01*
X75123Y69246D01*
X75142Y69321D01*
X75165Y69395D01*
X75191Y69468D01*
X75222Y69539D01*
X75255Y69609D01*
X75292Y69677D01*
X75333Y69743D01*
X75376Y69807D01*
X75423Y69869D01*
X75473Y69928D01*
X75526Y69985D01*
X75581Y70039D01*
X75639Y70090D01*
X75700Y70139D01*
X75763Y70184D01*
X75828Y70226D01*
X75895Y70265D01*
X75964Y70300D01*
X76034Y70332D01*
X76107Y70360D01*
X76180Y70385D01*
X76255Y70406D01*
X76330Y70423D01*
X76406Y70437D01*
X76483Y70446D01*
X76561Y70452D01*
X76638Y70454D01*
X78192Y70454D01*
X78269Y70452D01*
X78347Y70446D01*
X78424Y70437D01*
X78500Y70423D01*
X78575Y70406D01*
X78650Y70385D01*
X78723Y70360D01*
X78796Y70332D01*
X78866Y70300D01*
X78935Y70265D01*
X79002Y70226D01*
X79067Y70184D01*
X79130Y70139D01*
X79191Y70090D01*
X79249Y70039D01*
X79304Y69985D01*
X79357Y69928D01*
X79407Y69869D01*
X79454Y69807D01*
X79497Y69743D01*
X79538Y69677D01*
X79575Y69609D01*
X79608Y69539D01*
X79639Y69468D01*
X79665Y69395D01*
X79688Y69321D01*
X79707Y69246D01*
X79722Y69170D01*
X79734Y69093D01*
X79742Y69016D01*
X79746Y68939D01*
X79746Y68861D01*
X79742Y68784D01*
X79734Y68707D01*
X79722Y68630D01*
X79707Y68554D01*
X79688Y68479D01*
X79665Y68405D01*
X79639Y68332D01*
X79608Y68261D01*
X79575Y68191D01*
X79538Y68123D01*
X79497Y68057D01*
X79454Y67993D01*
X79407Y67931D01*
X79357Y67872D01*
X79304Y67815D01*
X79249Y67761D01*
X79191Y67710D01*
X79130Y67661D01*
X79067Y67616D01*
X79002Y67574D01*
X78935Y67535D01*
X78866Y67500D01*
X78796Y67468D01*
X78723Y67440D01*
X78650Y67415D01*
X78575Y67394D01*
X78500Y67377D01*
X78424Y67363D01*
X78347Y67354D01*
X78269Y67348D01*
X78192Y67346D01*
X77027Y74524D02*
X77027Y76272D01*
X77026Y74524D02*
X77028Y74452D01*
X77034Y74379D01*
X77043Y74308D01*
X77057Y74237D01*
X77074Y74166D01*
X77095Y74097D01*
X77119Y74029D01*
X77148Y73962D01*
X77179Y73897D01*
X77214Y73834D01*
X77253Y73772D01*
X77294Y73713D01*
X77339Y73656D01*
X77387Y73601D01*
X77437Y73550D01*
X77490Y73501D01*
X77546Y73454D01*
X77604Y73411D01*
X77665Y73371D01*
X77727Y73334D01*
X77791Y73301D01*
X77857Y73271D01*
X77925Y73245D01*
X77993Y73222D01*
X78063Y73203D01*
X78134Y73188D01*
X78205Y73176D01*
X78277Y73168D01*
X78350Y73164D01*
X78422Y73164D01*
X78495Y73168D01*
X78567Y73176D01*
X78638Y73188D01*
X78709Y73203D01*
X78779Y73222D01*
X78847Y73245D01*
X78915Y73271D01*
X78981Y73301D01*
X79045Y73334D01*
X79107Y73371D01*
X79168Y73411D01*
X79226Y73454D01*
X79282Y73501D01*
X79335Y73550D01*
X79385Y73601D01*
X79433Y73656D01*
X79478Y73713D01*
X79519Y73772D01*
X79558Y73834D01*
X79593Y73897D01*
X79624Y73962D01*
X79653Y74029D01*
X79677Y74097D01*
X79698Y74166D01*
X79715Y74237D01*
X79729Y74308D01*
X79738Y74379D01*
X79744Y74452D01*
X79746Y74524D01*
X79746Y76272D01*
X76250Y76272D01*
X76250Y76271D02*
X76185Y76269D01*
X76120Y76264D01*
X76055Y76255D01*
X75991Y76242D01*
X75927Y76225D01*
X75865Y76206D01*
X75804Y76182D01*
X75745Y76156D01*
X75686Y76126D01*
X75630Y76092D01*
X75576Y76056D01*
X75524Y76017D01*
X75474Y75975D01*
X75426Y75930D01*
X75381Y75882D01*
X75339Y75832D01*
X75300Y75780D01*
X75264Y75726D01*
X75230Y75670D01*
X75200Y75611D01*
X75174Y75552D01*
X75150Y75491D01*
X75131Y75429D01*
X75114Y75365D01*
X75101Y75301D01*
X75092Y75236D01*
X75087Y75171D01*
X75085Y75106D01*
X75085Y73552D01*
X75085Y79532D02*
X79746Y79532D01*
X75085Y79532D02*
X75085Y81863D01*
X75862Y81863D01*
X72754Y87071D02*
X79746Y87071D01*
X79746Y85129D01*
X79744Y85064D01*
X79739Y84999D01*
X79730Y84934D01*
X79717Y84870D01*
X79700Y84806D01*
X79681Y84744D01*
X79657Y84683D01*
X79631Y84624D01*
X79601Y84565D01*
X79567Y84509D01*
X79531Y84455D01*
X79492Y84403D01*
X79450Y84353D01*
X79405Y84305D01*
X79357Y84260D01*
X79307Y84218D01*
X79255Y84179D01*
X79201Y84143D01*
X79145Y84109D01*
X79086Y84079D01*
X79027Y84053D01*
X78966Y84029D01*
X78904Y84010D01*
X78840Y83993D01*
X78776Y83980D01*
X78711Y83971D01*
X78646Y83966D01*
X78581Y83964D01*
X76250Y83964D01*
X76185Y83966D01*
X76120Y83971D01*
X76055Y83980D01*
X75991Y83993D01*
X75927Y84010D01*
X75865Y84029D01*
X75804Y84053D01*
X75745Y84079D01*
X75686Y84109D01*
X75630Y84143D01*
X75576Y84179D01*
X75524Y84218D01*
X75474Y84260D01*
X75426Y84305D01*
X75381Y84353D01*
X75339Y84403D01*
X75300Y84455D01*
X75264Y84509D01*
X75230Y84565D01*
X75200Y84624D01*
X75174Y84683D01*
X75150Y84744D01*
X75131Y84806D01*
X75114Y84870D01*
X75101Y84934D01*
X75092Y84999D01*
X75087Y85064D01*
X75085Y85129D01*
X75085Y87071D01*
X206681Y17888D02*
X207846Y17888D01*
X207846Y14004D01*
X205515Y14004D01*
X205439Y14006D01*
X205363Y14011D01*
X205287Y14021D01*
X205212Y14034D01*
X205137Y14051D01*
X205064Y14071D01*
X204991Y14095D01*
X204920Y14122D01*
X204851Y14153D01*
X204782Y14187D01*
X204716Y14225D01*
X204652Y14266D01*
X204589Y14310D01*
X204529Y14357D01*
X204471Y14407D01*
X204416Y14459D01*
X204364Y14514D01*
X204314Y14572D01*
X204267Y14632D01*
X204223Y14695D01*
X204182Y14759D01*
X204144Y14825D01*
X204110Y14894D01*
X204079Y14963D01*
X204052Y15034D01*
X204028Y15107D01*
X204008Y15180D01*
X203991Y15255D01*
X203978Y15330D01*
X203968Y15406D01*
X203963Y15482D01*
X203961Y15558D01*
X203962Y15558D02*
X203962Y19442D01*
X203961Y19442D02*
X203963Y19521D01*
X203969Y19599D01*
X203979Y19677D01*
X203993Y19755D01*
X204011Y19832D01*
X204032Y19907D01*
X204058Y19982D01*
X204087Y20055D01*
X204120Y20126D01*
X204156Y20196D01*
X204196Y20264D01*
X204240Y20330D01*
X204286Y20393D01*
X204336Y20454D01*
X204389Y20513D01*
X204444Y20568D01*
X204503Y20621D01*
X204564Y20671D01*
X204627Y20717D01*
X204693Y20761D01*
X204761Y20801D01*
X204831Y20837D01*
X204902Y20870D01*
X204975Y20899D01*
X205050Y20925D01*
X205125Y20946D01*
X205202Y20964D01*
X205280Y20978D01*
X205358Y20988D01*
X205436Y20994D01*
X205515Y20996D01*
X207846Y20996D01*
X211162Y20996D02*
X211162Y14004D01*
X215046Y14004D02*
X211162Y20996D01*
X215046Y20996D02*
X215046Y14004D01*
X218362Y14004D02*
X218362Y20996D01*
X220304Y20996D01*
X220391Y20994D01*
X220478Y20988D01*
X220565Y20978D01*
X220651Y20965D01*
X220736Y20947D01*
X220821Y20926D01*
X220904Y20901D01*
X220986Y20872D01*
X221067Y20840D01*
X221147Y20804D01*
X221224Y20764D01*
X221300Y20721D01*
X221374Y20675D01*
X221445Y20625D01*
X221515Y20572D01*
X221582Y20516D01*
X221646Y20458D01*
X221708Y20396D01*
X221766Y20332D01*
X221822Y20265D01*
X221875Y20195D01*
X221925Y20124D01*
X221971Y20050D01*
X222014Y19974D01*
X222054Y19897D01*
X222090Y19817D01*
X222122Y19736D01*
X222151Y19654D01*
X222176Y19571D01*
X222197Y19486D01*
X222215Y19401D01*
X222228Y19315D01*
X222238Y19228D01*
X222244Y19141D01*
X222246Y19054D01*
X222246Y15946D01*
X222244Y15859D01*
X222238Y15772D01*
X222228Y15685D01*
X222215Y15599D01*
X222197Y15514D01*
X222176Y15429D01*
X222151Y15346D01*
X222122Y15264D01*
X222090Y15183D01*
X222054Y15103D01*
X222014Y15026D01*
X221971Y14950D01*
X221925Y14876D01*
X221875Y14805D01*
X221822Y14735D01*
X221766Y14668D01*
X221708Y14604D01*
X221646Y14542D01*
X221582Y14484D01*
X221515Y14428D01*
X221445Y14375D01*
X221374Y14325D01*
X221300Y14279D01*
X221224Y14236D01*
X221147Y14196D01*
X221067Y14160D01*
X220986Y14128D01*
X220904Y14099D01*
X220821Y14074D01*
X220736Y14053D01*
X220651Y14035D01*
X220565Y14022D01*
X220478Y14012D01*
X220391Y14006D01*
X220304Y14004D01*
X218362Y14004D01*
X21638Y17888D02*
X20473Y17888D01*
X21638Y17888D02*
X21638Y14004D01*
X19308Y14004D01*
X19232Y14006D01*
X19156Y14011D01*
X19080Y14021D01*
X19005Y14034D01*
X18930Y14051D01*
X18857Y14071D01*
X18784Y14095D01*
X18713Y14122D01*
X18644Y14153D01*
X18575Y14187D01*
X18509Y14225D01*
X18445Y14266D01*
X18382Y14310D01*
X18322Y14357D01*
X18264Y14407D01*
X18209Y14459D01*
X18157Y14514D01*
X18107Y14572D01*
X18060Y14632D01*
X18016Y14695D01*
X17975Y14759D01*
X17937Y14825D01*
X17903Y14894D01*
X17872Y14963D01*
X17845Y15034D01*
X17821Y15107D01*
X17801Y15180D01*
X17784Y15255D01*
X17771Y15330D01*
X17761Y15406D01*
X17756Y15482D01*
X17754Y15558D01*
X17754Y19442D01*
X17756Y19521D01*
X17762Y19599D01*
X17772Y19677D01*
X17786Y19755D01*
X17804Y19832D01*
X17825Y19907D01*
X17851Y19982D01*
X17880Y20055D01*
X17913Y20126D01*
X17949Y20196D01*
X17989Y20264D01*
X18033Y20330D01*
X18079Y20393D01*
X18129Y20454D01*
X18182Y20513D01*
X18237Y20568D01*
X18296Y20621D01*
X18357Y20671D01*
X18420Y20717D01*
X18486Y20761D01*
X18554Y20801D01*
X18624Y20837D01*
X18695Y20870D01*
X18768Y20899D01*
X18843Y20925D01*
X18918Y20946D01*
X18995Y20964D01*
X19073Y20978D01*
X19151Y20988D01*
X19229Y20994D01*
X19308Y20996D01*
X21638Y20996D01*
X24954Y20996D02*
X24954Y14004D01*
X28838Y14004D02*
X24954Y20996D01*
X28838Y20996D02*
X28838Y14004D01*
X32154Y14004D02*
X32154Y20996D01*
X34096Y20996D01*
X34183Y20994D01*
X34270Y20988D01*
X34357Y20978D01*
X34443Y20965D01*
X34528Y20947D01*
X34613Y20926D01*
X34696Y20901D01*
X34778Y20872D01*
X34859Y20840D01*
X34939Y20804D01*
X35016Y20764D01*
X35092Y20721D01*
X35166Y20675D01*
X35237Y20625D01*
X35307Y20572D01*
X35374Y20516D01*
X35438Y20458D01*
X35500Y20396D01*
X35558Y20332D01*
X35614Y20265D01*
X35667Y20195D01*
X35717Y20124D01*
X35763Y20050D01*
X35806Y19974D01*
X35846Y19897D01*
X35882Y19817D01*
X35914Y19736D01*
X35943Y19654D01*
X35968Y19571D01*
X35989Y19486D01*
X36007Y19401D01*
X36020Y19315D01*
X36030Y19228D01*
X36036Y19141D01*
X36038Y19054D01*
X36038Y15946D01*
X36036Y15859D01*
X36030Y15772D01*
X36020Y15685D01*
X36007Y15599D01*
X35989Y15514D01*
X35968Y15429D01*
X35943Y15346D01*
X35914Y15264D01*
X35882Y15183D01*
X35846Y15103D01*
X35806Y15026D01*
X35763Y14950D01*
X35717Y14876D01*
X35667Y14805D01*
X35614Y14735D01*
X35558Y14668D01*
X35500Y14604D01*
X35438Y14542D01*
X35374Y14484D01*
X35307Y14428D01*
X35237Y14375D01*
X35166Y14325D01*
X35092Y14279D01*
X35016Y14236D01*
X34939Y14196D01*
X34859Y14160D01*
X34778Y14128D01*
X34696Y14099D01*
X34613Y14074D01*
X34528Y14053D01*
X34443Y14035D01*
X34357Y14022D01*
X34270Y14012D01*
X34183Y14006D01*
X34096Y14004D01*
X32154Y14004D01*
D11*
X171700Y16010D02*
X171700Y84010D01*
X171700Y16010D02*
X93700Y16010D01*
X93700Y84010D01*
X171700Y84010D01*
D12*
X144380Y12119D02*
X144380Y2881D01*
X143354Y2881D02*
X145407Y2881D01*
X145407Y12119D02*
X143354Y12119D01*
X151041Y2881D02*
X153094Y2881D01*
X151041Y2881D02*
X150951Y2883D01*
X150862Y2889D01*
X150773Y2899D01*
X150685Y2912D01*
X150597Y2930D01*
X150510Y2951D01*
X150424Y2976D01*
X150339Y3005D01*
X150255Y3037D01*
X150173Y3073D01*
X150093Y3113D01*
X150015Y3156D01*
X149938Y3203D01*
X149863Y3252D01*
X149791Y3305D01*
X149721Y3361D01*
X149654Y3420D01*
X149589Y3482D01*
X149527Y3547D01*
X149468Y3614D01*
X149412Y3684D01*
X149359Y3756D01*
X149310Y3831D01*
X149263Y3908D01*
X149220Y3986D01*
X149180Y4066D01*
X149144Y4148D01*
X149112Y4232D01*
X149083Y4317D01*
X149058Y4403D01*
X149037Y4490D01*
X149019Y4578D01*
X149006Y4666D01*
X148996Y4755D01*
X148990Y4844D01*
X148988Y4934D01*
X148989Y4934D02*
X148989Y10066D01*
X148988Y10066D02*
X148990Y10156D01*
X148996Y10245D01*
X149006Y10334D01*
X149019Y10422D01*
X149037Y10510D01*
X149058Y10597D01*
X149083Y10683D01*
X149112Y10768D01*
X149144Y10852D01*
X149180Y10934D01*
X149220Y11014D01*
X149263Y11092D01*
X149310Y11169D01*
X149359Y11244D01*
X149412Y11316D01*
X149468Y11386D01*
X149527Y11453D01*
X149589Y11518D01*
X149654Y11580D01*
X149721Y11639D01*
X149791Y11695D01*
X149863Y11748D01*
X149938Y11797D01*
X150014Y11844D01*
X150093Y11887D01*
X150173Y11927D01*
X150255Y11963D01*
X150339Y11995D01*
X150424Y12024D01*
X150510Y12049D01*
X150597Y12070D01*
X150684Y12088D01*
X150773Y12101D01*
X150862Y12111D01*
X150951Y12117D01*
X151041Y12119D01*
X153094Y12119D01*
X159337Y12119D02*
X159430Y12117D01*
X159523Y12112D01*
X159615Y12102D01*
X159708Y12089D01*
X159799Y12072D01*
X159890Y12052D01*
X159980Y12028D01*
X160069Y12000D01*
X160156Y11969D01*
X160242Y11934D01*
X160327Y11896D01*
X160411Y11854D01*
X160492Y11810D01*
X160572Y11761D01*
X160649Y11710D01*
X160725Y11656D01*
X160798Y11598D01*
X160869Y11538D01*
X160937Y11475D01*
X161003Y11409D01*
X161066Y11341D01*
X161126Y11270D01*
X161184Y11197D01*
X161238Y11121D01*
X161289Y11044D01*
X161338Y10964D01*
X161382Y10883D01*
X161424Y10799D01*
X161462Y10714D01*
X161497Y10628D01*
X161528Y10541D01*
X161556Y10452D01*
X161580Y10362D01*
X161600Y10271D01*
X161617Y10180D01*
X161630Y10087D01*
X161640Y9995D01*
X161645Y9902D01*
X161647Y9809D01*
X159337Y12119D02*
X159230Y12117D01*
X159124Y12111D01*
X159018Y12102D01*
X158912Y12088D01*
X158807Y12071D01*
X158702Y12050D01*
X158599Y12026D01*
X158496Y11997D01*
X158394Y11965D01*
X158294Y11930D01*
X158195Y11890D01*
X158097Y11847D01*
X158001Y11801D01*
X157907Y11751D01*
X157814Y11698D01*
X157724Y11642D01*
X157635Y11582D01*
X157549Y11520D01*
X157465Y11454D01*
X157384Y11385D01*
X157305Y11314D01*
X157228Y11239D01*
X157155Y11162D01*
X157084Y11083D01*
X157016Y11000D01*
X156951Y10916D01*
X156889Y10829D01*
X156831Y10740D01*
X156775Y10649D01*
X156723Y10556D01*
X156674Y10461D01*
X156629Y10365D01*
X156587Y10266D01*
X156549Y10167D01*
X156514Y10066D01*
X160877Y8012D02*
X160945Y8080D01*
X161010Y8150D01*
X161073Y8222D01*
X161133Y8297D01*
X161190Y8374D01*
X161243Y8453D01*
X161294Y8534D01*
X161342Y8617D01*
X161386Y8701D01*
X161427Y8788D01*
X161465Y8876D01*
X161499Y8965D01*
X161530Y9056D01*
X161557Y9147D01*
X161581Y9240D01*
X161601Y9334D01*
X161618Y9428D01*
X161630Y9523D01*
X161640Y9618D01*
X161645Y9713D01*
X161647Y9809D01*
X160876Y8013D02*
X156514Y2881D01*
X161646Y2881D01*
D13*
X196200Y30960D02*
X196200Y43660D01*
X202550Y50010D01*
X215250Y50010D01*
X221600Y43660D01*
X215250Y24610D02*
X202550Y24610D01*
X196200Y30960D01*
X215250Y24610D02*
X221600Y30960D01*
X221600Y43660D01*
X202550Y50010D02*
X196200Y56360D01*
X196200Y69060D01*
X202550Y75410D01*
X215250Y75410D01*
X221600Y69060D01*
X221600Y56360D01*
X215250Y50010D01*
D10*
X182616Y79004D02*
X181062Y79004D01*
X180986Y79006D01*
X180910Y79011D01*
X180834Y79021D01*
X180759Y79034D01*
X180684Y79051D01*
X180611Y79071D01*
X180538Y79095D01*
X180467Y79122D01*
X180398Y79153D01*
X180329Y79187D01*
X180263Y79225D01*
X180199Y79266D01*
X180136Y79310D01*
X180076Y79357D01*
X180018Y79407D01*
X179963Y79459D01*
X179911Y79514D01*
X179861Y79572D01*
X179814Y79632D01*
X179770Y79695D01*
X179729Y79759D01*
X179691Y79825D01*
X179657Y79894D01*
X179626Y79963D01*
X179599Y80034D01*
X179575Y80107D01*
X179555Y80180D01*
X179538Y80255D01*
X179525Y80330D01*
X179515Y80406D01*
X179510Y80482D01*
X179508Y80558D01*
X179508Y84442D01*
X179510Y84521D01*
X179516Y84599D01*
X179526Y84677D01*
X179540Y84755D01*
X179558Y84832D01*
X179579Y84907D01*
X179605Y84982D01*
X179634Y85055D01*
X179667Y85126D01*
X179703Y85196D01*
X179743Y85264D01*
X179787Y85330D01*
X179833Y85393D01*
X179883Y85454D01*
X179936Y85513D01*
X179991Y85568D01*
X180050Y85621D01*
X180111Y85671D01*
X180174Y85717D01*
X180240Y85761D01*
X180308Y85801D01*
X180378Y85837D01*
X180449Y85870D01*
X180522Y85899D01*
X180597Y85925D01*
X180672Y85946D01*
X180749Y85964D01*
X180827Y85978D01*
X180905Y85988D01*
X180983Y85994D01*
X181062Y85996D01*
X182616Y85996D01*
X187093Y85996D02*
X184763Y79004D01*
X189424Y79004D02*
X187093Y85996D01*
X188841Y80752D02*
X185345Y80752D01*
X193393Y79004D02*
X193393Y85996D01*
X191451Y85996D02*
X195336Y85996D01*
X197976Y85996D02*
X197976Y79004D01*
X197976Y82888D02*
X201861Y82888D01*
X201861Y85996D02*
X201861Y79004D01*
X204951Y80946D02*
X204951Y84054D01*
X204953Y84141D01*
X204959Y84228D01*
X204969Y84315D01*
X204982Y84401D01*
X205000Y84486D01*
X205021Y84571D01*
X205046Y84654D01*
X205075Y84736D01*
X205107Y84817D01*
X205143Y84897D01*
X205183Y84974D01*
X205226Y85050D01*
X205272Y85124D01*
X205322Y85195D01*
X205375Y85265D01*
X205431Y85332D01*
X205489Y85396D01*
X205551Y85458D01*
X205615Y85516D01*
X205682Y85572D01*
X205752Y85625D01*
X205823Y85675D01*
X205897Y85721D01*
X205973Y85764D01*
X206050Y85804D01*
X206130Y85840D01*
X206211Y85872D01*
X206293Y85901D01*
X206376Y85926D01*
X206461Y85947D01*
X206546Y85965D01*
X206632Y85978D01*
X206719Y85988D01*
X206806Y85994D01*
X206893Y85996D01*
X206980Y85994D01*
X207067Y85988D01*
X207154Y85978D01*
X207240Y85965D01*
X207325Y85947D01*
X207410Y85926D01*
X207493Y85901D01*
X207575Y85872D01*
X207656Y85840D01*
X207736Y85804D01*
X207813Y85764D01*
X207889Y85721D01*
X207963Y85675D01*
X208034Y85625D01*
X208104Y85572D01*
X208171Y85516D01*
X208235Y85458D01*
X208297Y85396D01*
X208355Y85332D01*
X208411Y85265D01*
X208464Y85195D01*
X208514Y85124D01*
X208560Y85050D01*
X208603Y84974D01*
X208643Y84897D01*
X208679Y84817D01*
X208711Y84736D01*
X208740Y84654D01*
X208765Y84571D01*
X208786Y84486D01*
X208804Y84401D01*
X208817Y84315D01*
X208827Y84228D01*
X208833Y84141D01*
X208835Y84054D01*
X208836Y84054D02*
X208836Y80946D01*
X208835Y80946D02*
X208833Y80859D01*
X208827Y80772D01*
X208817Y80685D01*
X208804Y80599D01*
X208786Y80514D01*
X208765Y80429D01*
X208740Y80346D01*
X208711Y80264D01*
X208679Y80183D01*
X208643Y80103D01*
X208603Y80026D01*
X208560Y79950D01*
X208514Y79876D01*
X208464Y79805D01*
X208411Y79735D01*
X208355Y79668D01*
X208297Y79604D01*
X208235Y79542D01*
X208171Y79484D01*
X208104Y79428D01*
X208034Y79375D01*
X207963Y79325D01*
X207889Y79279D01*
X207813Y79236D01*
X207736Y79196D01*
X207656Y79160D01*
X207575Y79128D01*
X207493Y79099D01*
X207410Y79074D01*
X207325Y79053D01*
X207240Y79035D01*
X207154Y79022D01*
X207067Y79012D01*
X206980Y79006D01*
X206893Y79004D01*
X206806Y79006D01*
X206719Y79012D01*
X206632Y79022D01*
X206546Y79035D01*
X206461Y79053D01*
X206376Y79074D01*
X206293Y79099D01*
X206211Y79128D01*
X206130Y79160D01*
X206050Y79196D01*
X205973Y79236D01*
X205897Y79279D01*
X205823Y79325D01*
X205752Y79375D01*
X205682Y79428D01*
X205615Y79484D01*
X205551Y79542D01*
X205489Y79604D01*
X205431Y79668D01*
X205375Y79735D01*
X205322Y79805D01*
X205272Y79876D01*
X205226Y79950D01*
X205183Y80026D01*
X205143Y80103D01*
X205107Y80183D01*
X205075Y80264D01*
X205046Y80346D01*
X205021Y80429D01*
X205000Y80514D01*
X204982Y80599D01*
X204969Y80685D01*
X204959Y80772D01*
X204953Y80859D01*
X204951Y80946D01*
X211926Y79004D02*
X211926Y85996D01*
X213868Y85996D01*
X213955Y85994D01*
X214042Y85988D01*
X214129Y85978D01*
X214215Y85965D01*
X214300Y85947D01*
X214385Y85926D01*
X214468Y85901D01*
X214550Y85872D01*
X214631Y85840D01*
X214711Y85804D01*
X214788Y85764D01*
X214864Y85721D01*
X214938Y85675D01*
X215009Y85625D01*
X215079Y85572D01*
X215146Y85516D01*
X215210Y85458D01*
X215272Y85396D01*
X215330Y85332D01*
X215386Y85265D01*
X215439Y85195D01*
X215489Y85124D01*
X215535Y85050D01*
X215578Y84974D01*
X215618Y84897D01*
X215654Y84817D01*
X215686Y84736D01*
X215715Y84654D01*
X215740Y84571D01*
X215761Y84486D01*
X215779Y84401D01*
X215792Y84315D01*
X215802Y84228D01*
X215808Y84141D01*
X215810Y84054D01*
X215811Y84054D02*
X215811Y80946D01*
X215810Y80946D02*
X215808Y80859D01*
X215802Y80772D01*
X215792Y80685D01*
X215779Y80599D01*
X215761Y80514D01*
X215740Y80429D01*
X215715Y80346D01*
X215686Y80264D01*
X215654Y80183D01*
X215618Y80103D01*
X215578Y80026D01*
X215535Y79950D01*
X215489Y79876D01*
X215439Y79805D01*
X215386Y79735D01*
X215330Y79668D01*
X215272Y79604D01*
X215210Y79542D01*
X215146Y79484D01*
X215079Y79428D01*
X215009Y79375D01*
X214938Y79325D01*
X214864Y79279D01*
X214788Y79236D01*
X214711Y79196D01*
X214631Y79160D01*
X214550Y79128D01*
X214468Y79099D01*
X214385Y79074D01*
X214300Y79053D01*
X214215Y79035D01*
X214129Y79022D01*
X214042Y79012D01*
X213955Y79006D01*
X213868Y79004D01*
X211926Y79004D01*
X219138Y79004D02*
X222246Y79004D01*
X219138Y79004D02*
X219138Y85996D01*
X222246Y85996D01*
X221469Y82888D02*
X219138Y82888D01*
D13*
X18400Y43660D02*
X18400Y30960D01*
X18400Y43660D02*
X24750Y50010D01*
X37450Y50010D01*
X43800Y43660D01*
X37450Y24610D02*
X24750Y24610D01*
X18400Y30960D01*
X37450Y24610D02*
X43800Y30960D01*
X43800Y43660D01*
X24750Y50010D02*
X18400Y56360D01*
X18400Y69060D01*
X24750Y75410D01*
X37450Y75410D01*
X43800Y69060D01*
X43800Y56360D01*
X37450Y50010D01*
D10*
X17754Y79004D02*
X20085Y85996D01*
X22415Y79004D01*
X21833Y80752D02*
X18337Y80752D01*
X25117Y79004D02*
X25117Y85996D01*
X29002Y79004D01*
X29002Y85996D01*
X32092Y84054D02*
X32092Y80946D01*
X32093Y84054D02*
X32095Y84141D01*
X32101Y84228D01*
X32111Y84315D01*
X32124Y84401D01*
X32142Y84486D01*
X32163Y84571D01*
X32188Y84654D01*
X32217Y84736D01*
X32249Y84817D01*
X32285Y84897D01*
X32325Y84974D01*
X32368Y85050D01*
X32414Y85124D01*
X32464Y85195D01*
X32517Y85265D01*
X32573Y85332D01*
X32631Y85396D01*
X32693Y85458D01*
X32757Y85516D01*
X32824Y85572D01*
X32894Y85625D01*
X32965Y85675D01*
X33039Y85721D01*
X33115Y85764D01*
X33192Y85804D01*
X33272Y85840D01*
X33353Y85872D01*
X33435Y85901D01*
X33518Y85926D01*
X33603Y85947D01*
X33688Y85965D01*
X33774Y85978D01*
X33861Y85988D01*
X33948Y85994D01*
X34035Y85996D01*
X34122Y85994D01*
X34209Y85988D01*
X34296Y85978D01*
X34382Y85965D01*
X34467Y85947D01*
X34552Y85926D01*
X34635Y85901D01*
X34717Y85872D01*
X34798Y85840D01*
X34878Y85804D01*
X34955Y85764D01*
X35031Y85721D01*
X35105Y85675D01*
X35176Y85625D01*
X35246Y85572D01*
X35313Y85516D01*
X35377Y85458D01*
X35439Y85396D01*
X35497Y85332D01*
X35553Y85265D01*
X35606Y85195D01*
X35656Y85124D01*
X35702Y85050D01*
X35745Y84974D01*
X35785Y84897D01*
X35821Y84817D01*
X35853Y84736D01*
X35882Y84654D01*
X35907Y84571D01*
X35928Y84486D01*
X35946Y84401D01*
X35959Y84315D01*
X35969Y84228D01*
X35975Y84141D01*
X35977Y84054D01*
X35977Y80946D01*
X35975Y80859D01*
X35969Y80772D01*
X35959Y80685D01*
X35946Y80599D01*
X35928Y80514D01*
X35907Y80429D01*
X35882Y80346D01*
X35853Y80264D01*
X35821Y80183D01*
X35785Y80103D01*
X35745Y80026D01*
X35702Y79950D01*
X35656Y79876D01*
X35606Y79805D01*
X35553Y79735D01*
X35497Y79668D01*
X35439Y79604D01*
X35377Y79542D01*
X35313Y79484D01*
X35246Y79428D01*
X35176Y79375D01*
X35105Y79325D01*
X35031Y79279D01*
X34955Y79236D01*
X34878Y79196D01*
X34798Y79160D01*
X34717Y79128D01*
X34635Y79099D01*
X34552Y79074D01*
X34467Y79053D01*
X34382Y79035D01*
X34296Y79022D01*
X34209Y79012D01*
X34122Y79006D01*
X34035Y79004D01*
X33948Y79006D01*
X33861Y79012D01*
X33774Y79022D01*
X33688Y79035D01*
X33603Y79053D01*
X33518Y79074D01*
X33435Y79099D01*
X33353Y79128D01*
X33272Y79160D01*
X33192Y79196D01*
X33115Y79236D01*
X33039Y79279D01*
X32965Y79325D01*
X32894Y79375D01*
X32824Y79428D01*
X32757Y79484D01*
X32693Y79542D01*
X32631Y79604D01*
X32573Y79668D01*
X32517Y79735D01*
X32464Y79805D01*
X32414Y79876D01*
X32368Y79950D01*
X32325Y80026D01*
X32285Y80103D01*
X32249Y80183D01*
X32217Y80264D01*
X32188Y80346D01*
X32163Y80429D01*
X32142Y80514D01*
X32124Y80599D01*
X32111Y80685D01*
X32101Y80772D01*
X32095Y80859D01*
X32093Y80946D01*
X39067Y79004D02*
X39067Y85996D01*
X41010Y85996D01*
X41097Y85994D01*
X41184Y85988D01*
X41271Y85978D01*
X41357Y85965D01*
X41442Y85947D01*
X41527Y85926D01*
X41610Y85901D01*
X41692Y85872D01*
X41773Y85840D01*
X41853Y85804D01*
X41930Y85764D01*
X42006Y85721D01*
X42080Y85675D01*
X42151Y85625D01*
X42221Y85572D01*
X42288Y85516D01*
X42352Y85458D01*
X42414Y85396D01*
X42472Y85332D01*
X42528Y85265D01*
X42581Y85195D01*
X42631Y85124D01*
X42677Y85050D01*
X42720Y84974D01*
X42760Y84897D01*
X42796Y84817D01*
X42828Y84736D01*
X42857Y84654D01*
X42882Y84571D01*
X42903Y84486D01*
X42921Y84401D01*
X42934Y84315D01*
X42944Y84228D01*
X42950Y84141D01*
X42952Y84054D01*
X42952Y80946D01*
X42950Y80859D01*
X42944Y80772D01*
X42934Y80685D01*
X42921Y80599D01*
X42903Y80514D01*
X42882Y80429D01*
X42857Y80346D01*
X42828Y80264D01*
X42796Y80183D01*
X42760Y80103D01*
X42720Y80026D01*
X42677Y79950D01*
X42631Y79876D01*
X42581Y79805D01*
X42528Y79735D01*
X42472Y79668D01*
X42414Y79604D01*
X42352Y79542D01*
X42288Y79484D01*
X42221Y79428D01*
X42151Y79375D01*
X42080Y79325D01*
X42006Y79279D01*
X41930Y79236D01*
X41853Y79196D01*
X41773Y79160D01*
X41692Y79128D01*
X41610Y79099D01*
X41527Y79074D01*
X41442Y79053D01*
X41357Y79035D01*
X41271Y79022D01*
X41184Y79012D01*
X41097Y79006D01*
X41010Y79004D01*
X39067Y79004D01*
X46280Y79004D02*
X49387Y79004D01*
X46280Y79004D02*
X46280Y85996D01*
X49387Y85996D01*
X48610Y82888D02*
X46280Y82888D01*
M02*
