G04 EAGLE Gerber RS-274X export*
G75*
%MOMM*%
%FSLAX35Y35*%
%LPD*%
%INsilk_top*%
%IPPOS*%
%AMOC8*
5,1,8,0,0,1.08239X$1,22.5*%
G01*
%ADD10C,1.000000*%
%ADD11C,0.000000*%
%ADD12C,0.787400*%
%ADD13C,0.152400*%
%ADD14C,0.127000*%


D10*
X-2825000Y2500D02*
X-2824736Y23974D01*
X-2823946Y45434D01*
X-2822629Y66869D01*
X-2820787Y88265D01*
X-2818420Y109609D01*
X-2815529Y130889D01*
X-2812118Y152092D01*
X-2808187Y173204D01*
X-2803739Y194214D01*
X-2798777Y215108D01*
X-2793304Y235874D01*
X-2787323Y256499D01*
X-2780837Y276972D01*
X-2773851Y297279D01*
X-2766369Y317408D01*
X-2758395Y337348D01*
X-2749934Y357086D01*
X-2740991Y376611D01*
X-2731571Y395910D01*
X-2721681Y414972D01*
X-2711326Y433786D01*
X-2700513Y452340D01*
X-2689247Y470623D01*
X-2677536Y488624D01*
X-2665387Y506332D01*
X-2652807Y523737D01*
X-2639803Y540828D01*
X-2626384Y557594D01*
X-2612558Y574026D01*
X-2598332Y590114D01*
X-2583716Y605848D01*
X-2568718Y621218D01*
X-2553348Y636216D01*
X-2537614Y650832D01*
X-2521526Y665058D01*
X-2505094Y678884D01*
X-2488328Y692303D01*
X-2471237Y705307D01*
X-2453832Y717887D01*
X-2436124Y730036D01*
X-2418123Y741747D01*
X-2399840Y753013D01*
X-2381286Y763826D01*
X-2362472Y774181D01*
X-2343410Y784071D01*
X-2324111Y793491D01*
X-2304586Y802434D01*
X-2284848Y810895D01*
X-2264908Y818869D01*
X-2244779Y826351D01*
X-2224472Y833337D01*
X-2203999Y839823D01*
X-2183374Y845804D01*
X-2162608Y851277D01*
X-2141714Y856239D01*
X-2120704Y860687D01*
X-2099592Y864618D01*
X-2078389Y868029D01*
X-2057109Y870920D01*
X-2035765Y873287D01*
X-2014369Y875129D01*
X-1992934Y876446D01*
X-1971474Y877236D01*
X-1950000Y877500D01*
X-1928526Y877236D01*
X-1907066Y876446D01*
X-1885631Y875129D01*
X-1864235Y873287D01*
X-1842891Y870920D01*
X-1821611Y868029D01*
X-1800408Y864618D01*
X-1779296Y860687D01*
X-1758286Y856239D01*
X-1737392Y851277D01*
X-1716626Y845804D01*
X-1696001Y839823D01*
X-1675528Y833337D01*
X-1655221Y826351D01*
X-1635092Y818869D01*
X-1615152Y810895D01*
X-1595414Y802434D01*
X-1575889Y793491D01*
X-1556590Y784071D01*
X-1537528Y774181D01*
X-1518714Y763826D01*
X-1500160Y753013D01*
X-1481877Y741747D01*
X-1463876Y730036D01*
X-1446168Y717887D01*
X-1428763Y705307D01*
X-1411672Y692303D01*
X-1394906Y678884D01*
X-1378474Y665058D01*
X-1362386Y650832D01*
X-1346652Y636216D01*
X-1331282Y621218D01*
X-1316284Y605848D01*
X-1301668Y590114D01*
X-1287442Y574026D01*
X-1273616Y557594D01*
X-1260197Y540828D01*
X-1247193Y523737D01*
X-1234613Y506332D01*
X-1222464Y488624D01*
X-1210753Y470623D01*
X-1199487Y452340D01*
X-1188674Y433786D01*
X-1178319Y414972D01*
X-1168429Y395910D01*
X-1159009Y376611D01*
X-1150066Y357086D01*
X-1141605Y337348D01*
X-1133631Y317408D01*
X-1126149Y297279D01*
X-1119163Y276972D01*
X-1112677Y256499D01*
X-1106696Y235874D01*
X-1101223Y215108D01*
X-1096261Y194214D01*
X-1091813Y173204D01*
X-1087882Y152092D01*
X-1084471Y130889D01*
X-1081580Y109609D01*
X-1079213Y88265D01*
X-1077371Y66869D01*
X-1076054Y45434D01*
X-1075264Y23974D01*
X-1075000Y2500D01*
X-1075264Y-18974D01*
X-1076054Y-40434D01*
X-1077371Y-61869D01*
X-1079213Y-83265D01*
X-1081580Y-104609D01*
X-1084471Y-125889D01*
X-1087882Y-147092D01*
X-1091813Y-168204D01*
X-1096261Y-189214D01*
X-1101223Y-210108D01*
X-1106696Y-230874D01*
X-1112677Y-251499D01*
X-1119163Y-271972D01*
X-1126149Y-292279D01*
X-1133631Y-312408D01*
X-1141605Y-332348D01*
X-1150066Y-352086D01*
X-1159009Y-371611D01*
X-1168429Y-390910D01*
X-1178319Y-409972D01*
X-1188674Y-428786D01*
X-1199487Y-447340D01*
X-1210753Y-465623D01*
X-1222464Y-483624D01*
X-1234613Y-501332D01*
X-1247193Y-518737D01*
X-1260197Y-535828D01*
X-1273616Y-552594D01*
X-1287442Y-569026D01*
X-1301668Y-585114D01*
X-1316284Y-600848D01*
X-1331282Y-616218D01*
X-1346652Y-631216D01*
X-1362386Y-645832D01*
X-1378474Y-660058D01*
X-1394906Y-673884D01*
X-1411672Y-687303D01*
X-1428763Y-700307D01*
X-1446168Y-712887D01*
X-1463876Y-725036D01*
X-1481877Y-736747D01*
X-1500160Y-748013D01*
X-1518714Y-758826D01*
X-1537528Y-769181D01*
X-1556590Y-779071D01*
X-1575889Y-788491D01*
X-1595414Y-797434D01*
X-1615152Y-805895D01*
X-1635092Y-813869D01*
X-1655221Y-821351D01*
X-1675528Y-828337D01*
X-1696001Y-834823D01*
X-1716626Y-840804D01*
X-1737392Y-846277D01*
X-1758286Y-851239D01*
X-1779296Y-855687D01*
X-1800408Y-859618D01*
X-1821611Y-863029D01*
X-1842891Y-865920D01*
X-1864235Y-868287D01*
X-1885631Y-870129D01*
X-1907066Y-871446D01*
X-1928526Y-872236D01*
X-1950000Y-872500D01*
X-1971474Y-872236D01*
X-1992934Y-871446D01*
X-2014369Y-870129D01*
X-2035765Y-868287D01*
X-2057109Y-865920D01*
X-2078389Y-863029D01*
X-2099592Y-859618D01*
X-2120704Y-855687D01*
X-2141714Y-851239D01*
X-2162608Y-846277D01*
X-2183374Y-840804D01*
X-2203999Y-834823D01*
X-2224472Y-828337D01*
X-2244779Y-821351D01*
X-2264908Y-813869D01*
X-2284848Y-805895D01*
X-2304586Y-797434D01*
X-2324111Y-788491D01*
X-2343410Y-779071D01*
X-2362472Y-769181D01*
X-2381286Y-758826D01*
X-2399840Y-748013D01*
X-2418123Y-736747D01*
X-2436124Y-725036D01*
X-2453832Y-712887D01*
X-2471237Y-700307D01*
X-2488328Y-687303D01*
X-2505094Y-673884D01*
X-2521526Y-660058D01*
X-2537614Y-645832D01*
X-2553348Y-631216D01*
X-2568718Y-616218D01*
X-2583716Y-600848D01*
X-2598332Y-585114D01*
X-2612558Y-569026D01*
X-2626384Y-552594D01*
X-2639803Y-535828D01*
X-2652807Y-518737D01*
X-2665387Y-501332D01*
X-2677536Y-483624D01*
X-2689247Y-465623D01*
X-2700513Y-447340D01*
X-2711326Y-428786D01*
X-2721681Y-409972D01*
X-2731571Y-390910D01*
X-2740991Y-371611D01*
X-2749934Y-352086D01*
X-2758395Y-332348D01*
X-2766369Y-312408D01*
X-2773851Y-292279D01*
X-2780837Y-271972D01*
X-2787323Y-251499D01*
X-2793304Y-230874D01*
X-2798777Y-210108D01*
X-2803739Y-189214D01*
X-2808187Y-168204D01*
X-2812118Y-147092D01*
X-2815529Y-125889D01*
X-2818420Y-104609D01*
X-2820787Y-83265D01*
X-2822629Y-61869D01*
X-2823946Y-40434D01*
X-2824736Y-18974D01*
X-2825000Y2500D01*
X1075000Y700D02*
X1075264Y22174D01*
X1076054Y43634D01*
X1077371Y65069D01*
X1079213Y86465D01*
X1081580Y107809D01*
X1084471Y129089D01*
X1087882Y150292D01*
X1091813Y171404D01*
X1096261Y192414D01*
X1101223Y213308D01*
X1106696Y234074D01*
X1112677Y254699D01*
X1119163Y275172D01*
X1126149Y295479D01*
X1133631Y315608D01*
X1141605Y335548D01*
X1150066Y355286D01*
X1159009Y374811D01*
X1168429Y394110D01*
X1178319Y413172D01*
X1188674Y431986D01*
X1199487Y450540D01*
X1210753Y468823D01*
X1222464Y486824D01*
X1234613Y504532D01*
X1247193Y521937D01*
X1260197Y539028D01*
X1273616Y555794D01*
X1287442Y572226D01*
X1301668Y588314D01*
X1316284Y604048D01*
X1331282Y619418D01*
X1346652Y634416D01*
X1362386Y649032D01*
X1378474Y663258D01*
X1394906Y677084D01*
X1411672Y690503D01*
X1428763Y703507D01*
X1446168Y716087D01*
X1463876Y728236D01*
X1481877Y739947D01*
X1500160Y751213D01*
X1518714Y762026D01*
X1537528Y772381D01*
X1556590Y782271D01*
X1575889Y791691D01*
X1595414Y800634D01*
X1615152Y809095D01*
X1635092Y817069D01*
X1655221Y824551D01*
X1675528Y831537D01*
X1696001Y838023D01*
X1716626Y844004D01*
X1737392Y849477D01*
X1758286Y854439D01*
X1779296Y858887D01*
X1800408Y862818D01*
X1821611Y866229D01*
X1842891Y869120D01*
X1864235Y871487D01*
X1885631Y873329D01*
X1907066Y874646D01*
X1928526Y875436D01*
X1950000Y875700D01*
X1971474Y875436D01*
X1992934Y874646D01*
X2014369Y873329D01*
X2035765Y871487D01*
X2057109Y869120D01*
X2078389Y866229D01*
X2099592Y862818D01*
X2120704Y858887D01*
X2141714Y854439D01*
X2162608Y849477D01*
X2183374Y844004D01*
X2203999Y838023D01*
X2224472Y831537D01*
X2244779Y824551D01*
X2264908Y817069D01*
X2284848Y809095D01*
X2304586Y800634D01*
X2324111Y791691D01*
X2343410Y782271D01*
X2362472Y772381D01*
X2381286Y762026D01*
X2399840Y751213D01*
X2418123Y739947D01*
X2436124Y728236D01*
X2453832Y716087D01*
X2471237Y703507D01*
X2488328Y690503D01*
X2505094Y677084D01*
X2521526Y663258D01*
X2537614Y649032D01*
X2553348Y634416D01*
X2568718Y619418D01*
X2583716Y604048D01*
X2598332Y588314D01*
X2612558Y572226D01*
X2626384Y555794D01*
X2639803Y539028D01*
X2652807Y521937D01*
X2665387Y504532D01*
X2677536Y486824D01*
X2689247Y468823D01*
X2700513Y450540D01*
X2711326Y431986D01*
X2721681Y413172D01*
X2731571Y394110D01*
X2740991Y374811D01*
X2749934Y355286D01*
X2758395Y335548D01*
X2766369Y315608D01*
X2773851Y295479D01*
X2780837Y275172D01*
X2787323Y254699D01*
X2793304Y234074D01*
X2798777Y213308D01*
X2803739Y192414D01*
X2808187Y171404D01*
X2812118Y150292D01*
X2815529Y129089D01*
X2818420Y107809D01*
X2820787Y86465D01*
X2822629Y65069D01*
X2823946Y43634D01*
X2824736Y22174D01*
X2825000Y700D01*
X2824736Y-20774D01*
X2823946Y-42234D01*
X2822629Y-63669D01*
X2820787Y-85065D01*
X2818420Y-106409D01*
X2815529Y-127689D01*
X2812118Y-148892D01*
X2808187Y-170004D01*
X2803739Y-191014D01*
X2798777Y-211908D01*
X2793304Y-232674D01*
X2787323Y-253299D01*
X2780837Y-273772D01*
X2773851Y-294079D01*
X2766369Y-314208D01*
X2758395Y-334148D01*
X2749934Y-353886D01*
X2740991Y-373411D01*
X2731571Y-392710D01*
X2721681Y-411772D01*
X2711326Y-430586D01*
X2700513Y-449140D01*
X2689247Y-467423D01*
X2677536Y-485424D01*
X2665387Y-503132D01*
X2652807Y-520537D01*
X2639803Y-537628D01*
X2626384Y-554394D01*
X2612558Y-570826D01*
X2598332Y-586914D01*
X2583716Y-602648D01*
X2568718Y-618018D01*
X2553348Y-633016D01*
X2537614Y-647632D01*
X2521526Y-661858D01*
X2505094Y-675684D01*
X2488328Y-689103D01*
X2471237Y-702107D01*
X2453832Y-714687D01*
X2436124Y-726836D01*
X2418123Y-738547D01*
X2399840Y-749813D01*
X2381286Y-760626D01*
X2362472Y-770981D01*
X2343410Y-780871D01*
X2324111Y-790291D01*
X2304586Y-799234D01*
X2284848Y-807695D01*
X2264908Y-815669D01*
X2244779Y-823151D01*
X2224472Y-830137D01*
X2203999Y-836623D01*
X2183374Y-842604D01*
X2162608Y-848077D01*
X2141714Y-853039D01*
X2120704Y-857487D01*
X2099592Y-861418D01*
X2078389Y-864829D01*
X2057109Y-867720D01*
X2035765Y-870087D01*
X2014369Y-871929D01*
X1992934Y-873246D01*
X1971474Y-874036D01*
X1950000Y-874300D01*
X1928526Y-874036D01*
X1907066Y-873246D01*
X1885631Y-871929D01*
X1864235Y-870087D01*
X1842891Y-867720D01*
X1821611Y-864829D01*
X1800408Y-861418D01*
X1779296Y-857487D01*
X1758286Y-853039D01*
X1737392Y-848077D01*
X1716626Y-842604D01*
X1696001Y-836623D01*
X1675528Y-830137D01*
X1655221Y-823151D01*
X1635092Y-815669D01*
X1615152Y-807695D01*
X1595414Y-799234D01*
X1575889Y-790291D01*
X1556590Y-780871D01*
X1537528Y-770981D01*
X1518714Y-760626D01*
X1500160Y-749813D01*
X1481877Y-738547D01*
X1463876Y-726836D01*
X1446168Y-714687D01*
X1428763Y-702107D01*
X1411672Y-689103D01*
X1394906Y-675684D01*
X1378474Y-661858D01*
X1362386Y-647632D01*
X1346652Y-633016D01*
X1331282Y-618018D01*
X1316284Y-602648D01*
X1301668Y-586914D01*
X1287442Y-570826D01*
X1273616Y-554394D01*
X1260197Y-537628D01*
X1247193Y-520537D01*
X1234613Y-503132D01*
X1222464Y-485424D01*
X1210753Y-467423D01*
X1199487Y-449140D01*
X1188674Y-430586D01*
X1178319Y-411772D01*
X1168429Y-392710D01*
X1159009Y-373411D01*
X1150066Y-353886D01*
X1141605Y-334148D01*
X1133631Y-314208D01*
X1126149Y-294079D01*
X1119163Y-273772D01*
X1112677Y-253299D01*
X1106696Y-232674D01*
X1101223Y-211908D01*
X1096261Y-191014D01*
X1091813Y-170004D01*
X1087882Y-148892D01*
X1084471Y-127689D01*
X1081580Y-106409D01*
X1079213Y-85065D01*
X1077371Y-63669D01*
X1076054Y-42234D01*
X1075264Y-20774D01*
X1075000Y700D01*
D11*
X3550000Y1250000D02*
X-1700000Y1250000D01*
X3550000Y1250000D02*
X3580205Y1249635D01*
X3610392Y1248540D01*
X3640544Y1246716D01*
X3670642Y1244165D01*
X3700671Y1240886D01*
X3730611Y1236883D01*
X3760446Y1232158D01*
X3790158Y1226713D01*
X3819730Y1220551D01*
X3849145Y1213677D01*
X3878384Y1206094D01*
X3907432Y1197807D01*
X3936271Y1188821D01*
X3964885Y1179140D01*
X3993256Y1168770D01*
X4021369Y1157718D01*
X4049206Y1145990D01*
X4076751Y1133593D01*
X4103989Y1120534D01*
X4130904Y1106820D01*
X4157479Y1092460D01*
X4183700Y1077462D01*
X4209550Y1061835D01*
X4235016Y1045588D01*
X4260081Y1028730D01*
X4284732Y1011271D01*
X4308953Y993222D01*
X4332731Y974593D01*
X4356053Y955395D01*
X4378903Y935638D01*
X4401270Y915336D01*
X4423139Y894499D01*
X4444499Y873139D01*
X4465336Y851270D01*
X4485638Y828903D01*
X4505395Y806053D01*
X4524593Y782731D01*
X4543222Y758953D01*
X4561271Y734732D01*
X4578730Y710081D01*
X4595588Y685016D01*
X4611835Y659550D01*
X4627462Y633700D01*
X4642460Y607479D01*
X4656820Y580904D01*
X4670534Y553989D01*
X4683593Y526751D01*
X4695990Y499206D01*
X4707718Y471369D01*
X4718770Y443256D01*
X4729140Y414885D01*
X4738821Y386271D01*
X4747807Y357432D01*
X4756094Y328384D01*
X4763677Y299145D01*
X4770551Y269730D01*
X4776713Y240158D01*
X4782158Y210446D01*
X4786883Y180611D01*
X4790886Y150671D01*
X4794165Y120642D01*
X4796716Y90544D01*
X4798540Y60392D01*
X4799635Y30205D01*
X4800000Y0D01*
X4799635Y-30205D01*
X4798540Y-60392D01*
X4796716Y-90544D01*
X4794165Y-120642D01*
X4790886Y-150671D01*
X4786883Y-180611D01*
X4782158Y-210446D01*
X4776713Y-240158D01*
X4770551Y-269730D01*
X4763677Y-299145D01*
X4756094Y-328384D01*
X4747807Y-357432D01*
X4738821Y-386271D01*
X4729140Y-414885D01*
X4718770Y-443256D01*
X4707718Y-471369D01*
X4695990Y-499206D01*
X4683593Y-526751D01*
X4670534Y-553989D01*
X4656820Y-580904D01*
X4642460Y-607479D01*
X4627462Y-633700D01*
X4611835Y-659550D01*
X4595588Y-685016D01*
X4578730Y-710081D01*
X4561271Y-734732D01*
X4543222Y-758953D01*
X4524593Y-782731D01*
X4505395Y-806053D01*
X4485638Y-828903D01*
X4465336Y-851270D01*
X4444499Y-873139D01*
X4423139Y-894499D01*
X4401270Y-915336D01*
X4378903Y-935638D01*
X4356053Y-955395D01*
X4332731Y-974593D01*
X4308953Y-993222D01*
X4284732Y-1011271D01*
X4260081Y-1028730D01*
X4235016Y-1045588D01*
X4209550Y-1061835D01*
X4183700Y-1077462D01*
X4157479Y-1092460D01*
X4130904Y-1106820D01*
X4103989Y-1120534D01*
X4076751Y-1133593D01*
X4049206Y-1145990D01*
X4021369Y-1157718D01*
X3993256Y-1168770D01*
X3964885Y-1179140D01*
X3936271Y-1188821D01*
X3907432Y-1197807D01*
X3878384Y-1206094D01*
X3849145Y-1213677D01*
X3819730Y-1220551D01*
X3790158Y-1226713D01*
X3760446Y-1232158D01*
X3730611Y-1236883D01*
X3700671Y-1240886D01*
X3670642Y-1244165D01*
X3640544Y-1246716D01*
X3610392Y-1248540D01*
X3580205Y-1249635D01*
X3550000Y-1250000D01*
X-1700000Y-1250000D01*
X-1730205Y-1249635D01*
X-1760392Y-1248540D01*
X-1790544Y-1246716D01*
X-1820642Y-1244165D01*
X-1850671Y-1240886D01*
X-1880611Y-1236883D01*
X-1910446Y-1232158D01*
X-1940158Y-1226713D01*
X-1969730Y-1220551D01*
X-1999145Y-1213677D01*
X-2028384Y-1206094D01*
X-2057432Y-1197807D01*
X-2086271Y-1188821D01*
X-2114885Y-1179140D01*
X-2143256Y-1168770D01*
X-2171369Y-1157718D01*
X-2199206Y-1145990D01*
X-2226751Y-1133593D01*
X-2253989Y-1120534D01*
X-2280904Y-1106820D01*
X-2307479Y-1092460D01*
X-2333700Y-1077462D01*
X-2359550Y-1061835D01*
X-2385016Y-1045588D01*
X-2410081Y-1028730D01*
X-2434732Y-1011271D01*
X-2458953Y-993222D01*
X-2482731Y-974593D01*
X-2506053Y-955395D01*
X-2528903Y-935638D01*
X-2551270Y-915336D01*
X-2573139Y-894499D01*
X-2594499Y-873139D01*
X-2615336Y-851270D01*
X-2635638Y-828903D01*
X-2655395Y-806053D01*
X-2674593Y-782731D01*
X-2693222Y-758953D01*
X-2711271Y-734732D01*
X-2728730Y-710081D01*
X-2745588Y-685016D01*
X-2761835Y-659550D01*
X-2777462Y-633700D01*
X-2792460Y-607479D01*
X-2806820Y-580904D01*
X-2820534Y-553989D01*
X-2833593Y-526751D01*
X-2845990Y-499206D01*
X-2857718Y-471369D01*
X-2868770Y-443256D01*
X-2879140Y-414885D01*
X-2888821Y-386271D01*
X-2897807Y-357432D01*
X-2906094Y-328384D01*
X-2913677Y-299145D01*
X-2920551Y-269730D01*
X-2926713Y-240158D01*
X-2932158Y-210446D01*
X-2936883Y-180611D01*
X-2940886Y-150671D01*
X-2944165Y-120642D01*
X-2946716Y-90544D01*
X-2948540Y-60392D01*
X-2949635Y-30205D01*
X-2950000Y0D01*
X-2949635Y30205D01*
X-2948540Y60392D01*
X-2946716Y90544D01*
X-2944165Y120642D01*
X-2940886Y150671D01*
X-2936883Y180611D01*
X-2932158Y210446D01*
X-2926713Y240158D01*
X-2920551Y269730D01*
X-2913677Y299145D01*
X-2906094Y328384D01*
X-2897807Y357432D01*
X-2888821Y386271D01*
X-2879140Y414885D01*
X-2868770Y443256D01*
X-2857718Y471369D01*
X-2845990Y499206D01*
X-2833593Y526751D01*
X-2820534Y553989D01*
X-2806820Y580904D01*
X-2792460Y607479D01*
X-2777462Y633700D01*
X-2761835Y659550D01*
X-2745588Y685016D01*
X-2728730Y710081D01*
X-2711271Y734732D01*
X-2693222Y758953D01*
X-2674593Y782731D01*
X-2655395Y806053D01*
X-2635638Y828903D01*
X-2615336Y851270D01*
X-2594499Y873139D01*
X-2573139Y894499D01*
X-2551270Y915336D01*
X-2528903Y935638D01*
X-2506053Y955395D01*
X-2482731Y974593D01*
X-2458953Y993222D01*
X-2434732Y1011271D01*
X-2410081Y1028730D01*
X-2385016Y1045588D01*
X-2359550Y1061835D01*
X-2333700Y1077462D01*
X-2307479Y1092460D01*
X-2280904Y1106820D01*
X-2253989Y1120534D01*
X-2226751Y1133593D01*
X-2199206Y1145990D01*
X-2171369Y1157718D01*
X-2143256Y1168770D01*
X-2114885Y1179140D01*
X-2086271Y1188821D01*
X-2057432Y1197807D01*
X-2028384Y1206094D01*
X-1999145Y1213677D01*
X-1969730Y1220551D01*
X-1940158Y1226713D01*
X-1910446Y1232158D01*
X-1880611Y1236883D01*
X-1850671Y1240886D01*
X-1820642Y1244165D01*
X-1790544Y1246716D01*
X-1760392Y1248540D01*
X-1730205Y1249635D01*
X-1700000Y1250000D01*
D12*
X2542913Y797638D02*
X3157087Y797638D01*
X2850000Y1104724D02*
X2850000Y490551D01*
X-742913Y847638D02*
X-1357087Y847638D01*
D13*
X573486Y-1092380D02*
X624808Y-1092380D01*
X573486Y-1092380D02*
X572742Y-1092371D01*
X571998Y-1092344D01*
X571256Y-1092299D01*
X570514Y-1092236D01*
X569774Y-1092155D01*
X569037Y-1092057D01*
X568302Y-1091940D01*
X567570Y-1091806D01*
X566841Y-1091655D01*
X566117Y-1091485D01*
X565396Y-1091298D01*
X564681Y-1091094D01*
X563970Y-1090873D01*
X563266Y-1090634D01*
X562567Y-1090379D01*
X561874Y-1090107D01*
X561188Y-1089818D01*
X560510Y-1089512D01*
X559839Y-1089191D01*
X559176Y-1088853D01*
X558521Y-1088499D01*
X557875Y-1088130D01*
X557238Y-1087745D01*
X556611Y-1087344D01*
X555994Y-1086929D01*
X555386Y-1086499D01*
X554790Y-1086054D01*
X554204Y-1085596D01*
X553629Y-1085123D01*
X553066Y-1084636D01*
X552515Y-1084136D01*
X551977Y-1083622D01*
X551451Y-1083096D01*
X550937Y-1082558D01*
X550437Y-1082007D01*
X549950Y-1081444D01*
X549477Y-1080869D01*
X549019Y-1080283D01*
X548574Y-1079687D01*
X548144Y-1079079D01*
X547729Y-1078462D01*
X547328Y-1077835D01*
X546943Y-1077198D01*
X546574Y-1076552D01*
X546220Y-1075897D01*
X545882Y-1075234D01*
X545561Y-1074563D01*
X545255Y-1073885D01*
X544966Y-1073199D01*
X544694Y-1072506D01*
X544439Y-1071807D01*
X544200Y-1071103D01*
X543979Y-1070392D01*
X543775Y-1069677D01*
X543588Y-1068956D01*
X543418Y-1068232D01*
X543267Y-1067503D01*
X543133Y-1066771D01*
X543016Y-1066036D01*
X542918Y-1065299D01*
X542837Y-1064559D01*
X542774Y-1063817D01*
X542729Y-1063075D01*
X542702Y-1062331D01*
X542693Y-1061587D01*
X542693Y-1010265D01*
X542705Y-1009265D01*
X542742Y-1008266D01*
X542803Y-1007268D01*
X542888Y-1006272D01*
X542997Y-1005278D01*
X543131Y-1004287D01*
X543288Y-1003300D01*
X543470Y-1002316D01*
X543675Y-1001338D01*
X543905Y-1000365D01*
X544157Y-999397D01*
X544434Y-998436D01*
X544734Y-997482D01*
X545056Y-996536D01*
X545402Y-995598D01*
X545771Y-994668D01*
X546162Y-993748D01*
X546575Y-992838D01*
X547011Y-991938D01*
X547468Y-991048D01*
X547946Y-990170D01*
X548446Y-989305D01*
X548967Y-988451D01*
X549509Y-987611D01*
X550071Y-986783D01*
X550652Y-985970D01*
X551254Y-985171D01*
X551874Y-984388D01*
X552514Y-983619D01*
X553172Y-982866D01*
X553848Y-982130D01*
X554542Y-981410D01*
X555254Y-980707D01*
X555982Y-980022D01*
X556727Y-979355D01*
X557487Y-978706D01*
X558264Y-978076D01*
X559055Y-977465D01*
X559861Y-976873D01*
X560681Y-976301D01*
X561515Y-975749D01*
X562362Y-975218D01*
X563222Y-974708D01*
X564094Y-974218D01*
X564978Y-973750D01*
X565872Y-973304D01*
X566778Y-972880D01*
X567693Y-972477D01*
X568618Y-972098D01*
X569552Y-971740D01*
X570494Y-971406D01*
X571444Y-971095D01*
X572402Y-970807D01*
X573366Y-970542D01*
X574336Y-970301D01*
X575312Y-970084D01*
X576293Y-969890D01*
X577279Y-969720D01*
X578268Y-969575D01*
X579260Y-969453D01*
X580256Y-969356D01*
X581253Y-969283D01*
X582251Y-969234D01*
X583251Y-969210D01*
X584251Y-969210D01*
X585251Y-969234D01*
X586249Y-969283D01*
X587246Y-969356D01*
X588242Y-969453D01*
X589234Y-969575D01*
X590223Y-969720D01*
X591209Y-969890D01*
X592190Y-970084D01*
X593166Y-970301D01*
X594136Y-970542D01*
X595100Y-970807D01*
X596058Y-971095D01*
X597008Y-971406D01*
X597950Y-971740D01*
X598884Y-972098D01*
X599809Y-972477D01*
X600724Y-972880D01*
X601630Y-973304D01*
X602524Y-973750D01*
X603408Y-974218D01*
X604280Y-974708D01*
X605140Y-975218D01*
X605987Y-975749D01*
X606821Y-976301D01*
X607641Y-976873D01*
X608447Y-977465D01*
X609238Y-978076D01*
X610015Y-978706D01*
X610775Y-979355D01*
X611520Y-980022D01*
X612248Y-980707D01*
X612960Y-981410D01*
X613654Y-982130D01*
X614330Y-982866D01*
X614988Y-983619D01*
X615628Y-984388D01*
X616248Y-985171D01*
X616850Y-985970D01*
X617431Y-986783D01*
X617993Y-987611D01*
X618535Y-988451D01*
X619056Y-989305D01*
X619556Y-990170D01*
X620034Y-991048D01*
X620491Y-991938D01*
X620927Y-992838D01*
X621340Y-993748D01*
X621731Y-994668D01*
X622100Y-995598D01*
X622446Y-996536D01*
X622768Y-997482D01*
X623068Y-998436D01*
X623345Y-999397D01*
X623597Y-1000365D01*
X623827Y-1001338D01*
X624032Y-1002316D01*
X624214Y-1003300D01*
X624371Y-1004287D01*
X624505Y-1005278D01*
X624614Y-1006272D01*
X624699Y-1007268D01*
X624760Y-1008266D01*
X624797Y-1009265D01*
X624809Y-1010265D01*
X624808Y-1010265D02*
X624808Y-1030793D01*
X542693Y-1030793D01*
X690838Y-969207D02*
X690838Y-1123173D01*
X690829Y-1123917D01*
X690802Y-1124661D01*
X690757Y-1125403D01*
X690694Y-1126145D01*
X690613Y-1126885D01*
X690515Y-1127622D01*
X690398Y-1128357D01*
X690264Y-1129089D01*
X690113Y-1129818D01*
X689943Y-1130542D01*
X689756Y-1131263D01*
X689552Y-1131978D01*
X689331Y-1132689D01*
X689092Y-1133393D01*
X688837Y-1134092D01*
X688565Y-1134785D01*
X688276Y-1135471D01*
X687970Y-1136149D01*
X687649Y-1136820D01*
X687311Y-1137483D01*
X686957Y-1138138D01*
X686588Y-1138784D01*
X686203Y-1139421D01*
X685802Y-1140048D01*
X685387Y-1140665D01*
X684957Y-1141273D01*
X684512Y-1141869D01*
X684054Y-1142455D01*
X683581Y-1143030D01*
X683094Y-1143593D01*
X682594Y-1144144D01*
X682080Y-1144682D01*
X681554Y-1145208D01*
X681016Y-1145722D01*
X680465Y-1146222D01*
X679902Y-1146709D01*
X679327Y-1147182D01*
X678741Y-1147640D01*
X678145Y-1148085D01*
X677537Y-1148515D01*
X676920Y-1148930D01*
X676293Y-1149331D01*
X675656Y-1149716D01*
X675010Y-1150085D01*
X674355Y-1150439D01*
X673692Y-1150777D01*
X673021Y-1151098D01*
X672343Y-1151404D01*
X671657Y-1151693D01*
X670964Y-1151965D01*
X670265Y-1152220D01*
X669561Y-1152459D01*
X668850Y-1152680D01*
X668135Y-1152884D01*
X667414Y-1153071D01*
X666690Y-1153241D01*
X665961Y-1153392D01*
X665229Y-1153526D01*
X664494Y-1153643D01*
X663757Y-1153741D01*
X663017Y-1153822D01*
X662275Y-1153885D01*
X661533Y-1153930D01*
X660789Y-1153957D01*
X660045Y-1153966D01*
X660045Y-1153967D02*
X649781Y-1153967D01*
X685706Y-917885D02*
X685706Y-907620D01*
X695971Y-907620D01*
X695971Y-917885D01*
X685706Y-917885D01*
X761193Y-1010265D02*
X761193Y-1051323D01*
X761192Y-1010265D02*
X761204Y-1009265D01*
X761241Y-1008266D01*
X761302Y-1007268D01*
X761387Y-1006272D01*
X761496Y-1005278D01*
X761630Y-1004287D01*
X761787Y-1003300D01*
X761969Y-1002316D01*
X762174Y-1001338D01*
X762404Y-1000365D01*
X762656Y-999397D01*
X762933Y-998436D01*
X763233Y-997482D01*
X763555Y-996536D01*
X763901Y-995598D01*
X764270Y-994668D01*
X764661Y-993748D01*
X765074Y-992838D01*
X765510Y-991938D01*
X765967Y-991048D01*
X766445Y-990170D01*
X766945Y-989305D01*
X767466Y-988451D01*
X768008Y-987611D01*
X768570Y-986783D01*
X769151Y-985970D01*
X769753Y-985171D01*
X770373Y-984388D01*
X771013Y-983619D01*
X771671Y-982866D01*
X772347Y-982130D01*
X773041Y-981410D01*
X773753Y-980707D01*
X774481Y-980022D01*
X775226Y-979355D01*
X775986Y-978706D01*
X776763Y-978076D01*
X777554Y-977465D01*
X778360Y-976873D01*
X779180Y-976301D01*
X780014Y-975749D01*
X780861Y-975218D01*
X781721Y-974708D01*
X782593Y-974218D01*
X783477Y-973750D01*
X784371Y-973304D01*
X785277Y-972880D01*
X786192Y-972477D01*
X787117Y-972098D01*
X788051Y-971740D01*
X788993Y-971406D01*
X789943Y-971095D01*
X790901Y-970807D01*
X791865Y-970542D01*
X792835Y-970301D01*
X793811Y-970084D01*
X794792Y-969890D01*
X795778Y-969720D01*
X796767Y-969575D01*
X797759Y-969453D01*
X798755Y-969356D01*
X799752Y-969283D01*
X800750Y-969234D01*
X801750Y-969210D01*
X802750Y-969210D01*
X803750Y-969234D01*
X804748Y-969283D01*
X805745Y-969356D01*
X806741Y-969453D01*
X807733Y-969575D01*
X808722Y-969720D01*
X809708Y-969890D01*
X810689Y-970084D01*
X811665Y-970301D01*
X812635Y-970542D01*
X813599Y-970807D01*
X814557Y-971095D01*
X815507Y-971406D01*
X816449Y-971740D01*
X817383Y-972098D01*
X818308Y-972477D01*
X819223Y-972880D01*
X820129Y-973304D01*
X821023Y-973750D01*
X821907Y-974218D01*
X822779Y-974708D01*
X823639Y-975218D01*
X824486Y-975749D01*
X825320Y-976301D01*
X826140Y-976873D01*
X826946Y-977465D01*
X827737Y-978076D01*
X828514Y-978706D01*
X829274Y-979355D01*
X830019Y-980022D01*
X830747Y-980707D01*
X831459Y-981410D01*
X832153Y-982130D01*
X832829Y-982866D01*
X833487Y-983619D01*
X834127Y-984388D01*
X834747Y-985171D01*
X835349Y-985970D01*
X835930Y-986783D01*
X836492Y-987611D01*
X837034Y-988451D01*
X837555Y-989305D01*
X838055Y-990170D01*
X838533Y-991048D01*
X838990Y-991938D01*
X839426Y-992838D01*
X839839Y-993748D01*
X840230Y-994668D01*
X840599Y-995598D01*
X840945Y-996536D01*
X841267Y-997482D01*
X841567Y-998436D01*
X841844Y-999397D01*
X842096Y-1000365D01*
X842326Y-1001338D01*
X842531Y-1002316D01*
X842713Y-1003300D01*
X842870Y-1004287D01*
X843004Y-1005278D01*
X843113Y-1006272D01*
X843198Y-1007268D01*
X843259Y-1008266D01*
X843296Y-1009265D01*
X843308Y-1010265D01*
X843308Y-1051323D01*
X843296Y-1052323D01*
X843259Y-1053322D01*
X843198Y-1054320D01*
X843113Y-1055316D01*
X843004Y-1056310D01*
X842870Y-1057301D01*
X842713Y-1058288D01*
X842531Y-1059272D01*
X842326Y-1060250D01*
X842096Y-1061223D01*
X841844Y-1062191D01*
X841567Y-1063152D01*
X841267Y-1064106D01*
X840945Y-1065052D01*
X840599Y-1065990D01*
X840230Y-1066920D01*
X839839Y-1067840D01*
X839426Y-1068750D01*
X838990Y-1069650D01*
X838533Y-1070540D01*
X838055Y-1071418D01*
X837555Y-1072283D01*
X837034Y-1073137D01*
X836492Y-1073977D01*
X835930Y-1074805D01*
X835349Y-1075618D01*
X834747Y-1076417D01*
X834127Y-1077200D01*
X833487Y-1077969D01*
X832829Y-1078722D01*
X832153Y-1079458D01*
X831459Y-1080178D01*
X830747Y-1080881D01*
X830019Y-1081566D01*
X829274Y-1082233D01*
X828514Y-1082882D01*
X827737Y-1083512D01*
X826946Y-1084123D01*
X826140Y-1084715D01*
X825320Y-1085287D01*
X824486Y-1085839D01*
X823639Y-1086370D01*
X822779Y-1086880D01*
X821907Y-1087370D01*
X821023Y-1087838D01*
X820129Y-1088284D01*
X819223Y-1088708D01*
X818308Y-1089111D01*
X817383Y-1089490D01*
X816449Y-1089848D01*
X815507Y-1090182D01*
X814557Y-1090493D01*
X813599Y-1090781D01*
X812635Y-1091046D01*
X811665Y-1091287D01*
X810689Y-1091504D01*
X809708Y-1091698D01*
X808722Y-1091868D01*
X807733Y-1092013D01*
X806741Y-1092135D01*
X805745Y-1092232D01*
X804748Y-1092305D01*
X803750Y-1092354D01*
X802750Y-1092378D01*
X801750Y-1092378D01*
X800750Y-1092354D01*
X799752Y-1092305D01*
X798755Y-1092232D01*
X797759Y-1092135D01*
X796767Y-1092013D01*
X795778Y-1091868D01*
X794792Y-1091698D01*
X793811Y-1091504D01*
X792835Y-1091287D01*
X791865Y-1091046D01*
X790901Y-1090781D01*
X789943Y-1090493D01*
X788993Y-1090182D01*
X788051Y-1089848D01*
X787117Y-1089490D01*
X786192Y-1089111D01*
X785277Y-1088708D01*
X784371Y-1088284D01*
X783477Y-1087838D01*
X782593Y-1087370D01*
X781721Y-1086880D01*
X780861Y-1086370D01*
X780014Y-1085839D01*
X779180Y-1085287D01*
X778360Y-1084715D01*
X777554Y-1084123D01*
X776763Y-1083512D01*
X775986Y-1082882D01*
X775226Y-1082233D01*
X774481Y-1081566D01*
X773753Y-1080881D01*
X773041Y-1080178D01*
X772347Y-1079458D01*
X771671Y-1078722D01*
X771013Y-1077969D01*
X770373Y-1077200D01*
X769753Y-1076417D01*
X769151Y-1075618D01*
X768570Y-1074805D01*
X768008Y-1073977D01*
X767466Y-1073137D01*
X766945Y-1072283D01*
X766445Y-1071418D01*
X765967Y-1070540D01*
X765510Y-1069650D01*
X765074Y-1068750D01*
X764661Y-1067840D01*
X764270Y-1066920D01*
X763901Y-1065990D01*
X763555Y-1065052D01*
X763233Y-1064106D01*
X762933Y-1063152D01*
X762656Y-1062191D01*
X762404Y-1061223D01*
X762174Y-1060250D01*
X761969Y-1059272D01*
X761787Y-1058288D01*
X761630Y-1057301D01*
X761496Y-1056310D01*
X761387Y-1055316D01*
X761302Y-1054320D01*
X761241Y-1053322D01*
X761204Y-1052323D01*
X761192Y-1051323D01*
X904943Y-969207D02*
X946000Y-1092380D01*
X987058Y-969207D01*
X1055220Y-969207D02*
X1055220Y-1092380D01*
X1055220Y-969207D02*
X1116807Y-969207D01*
X1116807Y-989736D01*
X1175192Y-907620D02*
X1175192Y-1092380D01*
X1175192Y-969207D02*
X1226514Y-969207D01*
X1227258Y-969216D01*
X1228002Y-969243D01*
X1228744Y-969288D01*
X1229486Y-969351D01*
X1230226Y-969432D01*
X1230963Y-969530D01*
X1231698Y-969647D01*
X1232430Y-969781D01*
X1233159Y-969932D01*
X1233883Y-970102D01*
X1234604Y-970289D01*
X1235319Y-970493D01*
X1236030Y-970714D01*
X1236734Y-970953D01*
X1237433Y-971208D01*
X1238126Y-971480D01*
X1238812Y-971769D01*
X1239490Y-972075D01*
X1240161Y-972396D01*
X1240824Y-972734D01*
X1241479Y-973088D01*
X1242125Y-973457D01*
X1242762Y-973842D01*
X1243389Y-974243D01*
X1244006Y-974658D01*
X1244614Y-975088D01*
X1245210Y-975533D01*
X1245796Y-975991D01*
X1246371Y-976464D01*
X1246934Y-976951D01*
X1247485Y-977451D01*
X1248023Y-977965D01*
X1248549Y-978491D01*
X1249063Y-979029D01*
X1249563Y-979580D01*
X1250050Y-980143D01*
X1250523Y-980718D01*
X1250981Y-981304D01*
X1251426Y-981900D01*
X1251856Y-982508D01*
X1252271Y-983125D01*
X1252672Y-983752D01*
X1253057Y-984389D01*
X1253426Y-985035D01*
X1253780Y-985690D01*
X1254118Y-986353D01*
X1254439Y-987024D01*
X1254745Y-987702D01*
X1255034Y-988388D01*
X1255306Y-989081D01*
X1255561Y-989780D01*
X1255800Y-990484D01*
X1256021Y-991195D01*
X1256225Y-991910D01*
X1256412Y-992631D01*
X1256582Y-993355D01*
X1256733Y-994084D01*
X1256867Y-994816D01*
X1256984Y-995551D01*
X1257082Y-996288D01*
X1257163Y-997028D01*
X1257226Y-997770D01*
X1257271Y-998512D01*
X1257298Y-999256D01*
X1257307Y-1000000D01*
X1257307Y-1092380D01*
D14*
X-1000000Y0D02*
X-999729Y22087D01*
X-998916Y44161D01*
X-997561Y66208D01*
X-995666Y88215D01*
X-993232Y110170D01*
X-990259Y132057D01*
X-986750Y153866D01*
X-982707Y175581D01*
X-978132Y197191D01*
X-973028Y218682D01*
X-967398Y240041D01*
X-961246Y261256D01*
X-954575Y282314D01*
X-947390Y303201D01*
X-939694Y323906D01*
X-931492Y344415D01*
X-922789Y364717D01*
X-913590Y384800D01*
X-903902Y404650D01*
X-893729Y424257D01*
X-883078Y443608D01*
X-871956Y462692D01*
X-860368Y481498D01*
X-848323Y500013D01*
X-835826Y518227D01*
X-822887Y536129D01*
X-809512Y553708D01*
X-795709Y570954D01*
X-781488Y587856D01*
X-766856Y604403D01*
X-751822Y620586D01*
X-736396Y636396D01*
X-720586Y651822D01*
X-704403Y666856D01*
X-687856Y681488D01*
X-670954Y695709D01*
X-653708Y709512D01*
X-636129Y722887D01*
X-618227Y735826D01*
X-600013Y748323D01*
X-581498Y760368D01*
X-562692Y771956D01*
X-543608Y783078D01*
X-524257Y793729D01*
X-504650Y803902D01*
X-484800Y813590D01*
X-464717Y822789D01*
X-444415Y831492D01*
X-423906Y839694D01*
X-403201Y847390D01*
X-382314Y854575D01*
X-361256Y861246D01*
X-340041Y867398D01*
X-318682Y873028D01*
X-297191Y878132D01*
X-275581Y882707D01*
X-253866Y886750D01*
X-232057Y890259D01*
X-210170Y893232D01*
X-188215Y895666D01*
X-166208Y897561D01*
X-144161Y898916D01*
X-122087Y899729D01*
X-100000Y900000D01*
X-77913Y899729D01*
X-55839Y898916D01*
X-33792Y897561D01*
X-11785Y895666D01*
X10170Y893232D01*
X32057Y890259D01*
X53866Y886750D01*
X75581Y882707D01*
X97191Y878132D01*
X118682Y873028D01*
X140041Y867398D01*
X161256Y861246D01*
X182314Y854575D01*
X203201Y847390D01*
X223906Y839694D01*
X244415Y831492D01*
X264717Y822789D01*
X284800Y813590D01*
X304650Y803902D01*
X324257Y793729D01*
X343608Y783078D01*
X362692Y771956D01*
X381498Y760368D01*
X400013Y748323D01*
X418227Y735826D01*
X436129Y722887D01*
X453708Y709512D01*
X470954Y695709D01*
X487856Y681488D01*
X504403Y666856D01*
X520586Y651822D01*
X536396Y636396D01*
X551822Y620586D01*
X566856Y604403D01*
X581488Y587856D01*
X595709Y570954D01*
X609512Y553708D01*
X622887Y536129D01*
X635826Y518227D01*
X648323Y500013D01*
X660368Y481498D01*
X671956Y462692D01*
X683078Y443608D01*
X693729Y424257D01*
X703902Y404650D01*
X713590Y384800D01*
X722789Y364717D01*
X731492Y344415D01*
X739694Y323906D01*
X747390Y303201D01*
X754575Y282314D01*
X761246Y261256D01*
X767398Y240041D01*
X773028Y218682D01*
X778132Y197191D01*
X782707Y175581D01*
X786750Y153866D01*
X790259Y132057D01*
X793232Y110170D01*
X795666Y88215D01*
X797561Y66208D01*
X798916Y44161D01*
X799729Y22087D01*
X800000Y0D01*
X799729Y-22087D01*
X798916Y-44161D01*
X797561Y-66208D01*
X795666Y-88215D01*
X793232Y-110170D01*
X790259Y-132057D01*
X786750Y-153866D01*
X782707Y-175581D01*
X778132Y-197191D01*
X773028Y-218682D01*
X767398Y-240041D01*
X761246Y-261256D01*
X754575Y-282314D01*
X747390Y-303201D01*
X739694Y-323906D01*
X731492Y-344415D01*
X722789Y-364717D01*
X713590Y-384800D01*
X703902Y-404650D01*
X693729Y-424257D01*
X683078Y-443608D01*
X671956Y-462692D01*
X660368Y-481498D01*
X648323Y-500013D01*
X635826Y-518227D01*
X622887Y-536129D01*
X609512Y-553708D01*
X595709Y-570954D01*
X581488Y-587856D01*
X566856Y-604403D01*
X551822Y-620586D01*
X536396Y-636396D01*
X520586Y-651822D01*
X504403Y-666856D01*
X487856Y-681488D01*
X470954Y-695709D01*
X453708Y-709512D01*
X436129Y-722887D01*
X418227Y-735826D01*
X400013Y-748323D01*
X381498Y-760368D01*
X362692Y-771956D01*
X343608Y-783078D01*
X324257Y-793729D01*
X304650Y-803902D01*
X284800Y-813590D01*
X264717Y-822789D01*
X244415Y-831492D01*
X223906Y-839694D01*
X203201Y-847390D01*
X182314Y-854575D01*
X161256Y-861246D01*
X140041Y-867398D01*
X118682Y-873028D01*
X97191Y-878132D01*
X75581Y-882707D01*
X53866Y-886750D01*
X32057Y-890259D01*
X10170Y-893232D01*
X-11785Y-895666D01*
X-33792Y-897561D01*
X-55839Y-898916D01*
X-77913Y-899729D01*
X-100000Y-900000D01*
X-122087Y-899729D01*
X-144161Y-898916D01*
X-166208Y-897561D01*
X-188215Y-895666D01*
X-210170Y-893232D01*
X-232057Y-890259D01*
X-253866Y-886750D01*
X-275581Y-882707D01*
X-297191Y-878132D01*
X-318682Y-873028D01*
X-340041Y-867398D01*
X-361256Y-861246D01*
X-382314Y-854575D01*
X-403201Y-847390D01*
X-423906Y-839694D01*
X-444415Y-831492D01*
X-464717Y-822789D01*
X-484800Y-813590D01*
X-504650Y-803902D01*
X-524257Y-793729D01*
X-543608Y-783078D01*
X-562692Y-771956D01*
X-581498Y-760368D01*
X-600013Y-748323D01*
X-618227Y-735826D01*
X-636129Y-722887D01*
X-653708Y-709512D01*
X-670954Y-695709D01*
X-687856Y-681488D01*
X-704403Y-666856D01*
X-720586Y-651822D01*
X-736396Y-636396D01*
X-751822Y-620586D01*
X-766856Y-604403D01*
X-781488Y-587856D01*
X-795709Y-570954D01*
X-809512Y-553708D01*
X-822887Y-536129D01*
X-835826Y-518227D01*
X-848323Y-500013D01*
X-860368Y-481498D01*
X-871956Y-462692D01*
X-883078Y-443608D01*
X-893729Y-424257D01*
X-903902Y-404650D01*
X-913590Y-384800D01*
X-922789Y-364717D01*
X-931492Y-344415D01*
X-939694Y-323906D01*
X-947390Y-303201D01*
X-954575Y-282314D01*
X-961246Y-261256D01*
X-967398Y-240041D01*
X-973028Y-218682D01*
X-978132Y-197191D01*
X-982707Y-175581D01*
X-986750Y-153866D01*
X-990259Y-132057D01*
X-993232Y-110170D01*
X-995666Y-88215D01*
X-997561Y-66208D01*
X-998916Y-44161D01*
X-999729Y-22087D01*
X-1000000Y0D01*
X2900000Y0D02*
X2900271Y22087D01*
X2901084Y44161D01*
X2902439Y66208D01*
X2904334Y88215D01*
X2906768Y110170D01*
X2909741Y132057D01*
X2913250Y153866D01*
X2917293Y175581D01*
X2921868Y197191D01*
X2926972Y218682D01*
X2932602Y240041D01*
X2938754Y261256D01*
X2945425Y282314D01*
X2952610Y303201D01*
X2960306Y323906D01*
X2968508Y344415D01*
X2977211Y364717D01*
X2986410Y384800D01*
X2996098Y404650D01*
X3006271Y424257D01*
X3016922Y443608D01*
X3028044Y462692D01*
X3039632Y481498D01*
X3051677Y500013D01*
X3064174Y518227D01*
X3077113Y536129D01*
X3090488Y553708D01*
X3104291Y570954D01*
X3118512Y587856D01*
X3133144Y604403D01*
X3148178Y620586D01*
X3163604Y636396D01*
X3179414Y651822D01*
X3195597Y666856D01*
X3212144Y681488D01*
X3229046Y695709D01*
X3246292Y709512D01*
X3263871Y722887D01*
X3281773Y735826D01*
X3299987Y748323D01*
X3318502Y760368D01*
X3337308Y771956D01*
X3356392Y783078D01*
X3375743Y793729D01*
X3395350Y803902D01*
X3415200Y813590D01*
X3435283Y822789D01*
X3455585Y831492D01*
X3476094Y839694D01*
X3496799Y847390D01*
X3517686Y854575D01*
X3538744Y861246D01*
X3559959Y867398D01*
X3581318Y873028D01*
X3602809Y878132D01*
X3624419Y882707D01*
X3646134Y886750D01*
X3667943Y890259D01*
X3689830Y893232D01*
X3711785Y895666D01*
X3733792Y897561D01*
X3755839Y898916D01*
X3777913Y899729D01*
X3800000Y900000D01*
X3822087Y899729D01*
X3844161Y898916D01*
X3866208Y897561D01*
X3888215Y895666D01*
X3910170Y893232D01*
X3932057Y890259D01*
X3953866Y886750D01*
X3975581Y882707D01*
X3997191Y878132D01*
X4018682Y873028D01*
X4040041Y867398D01*
X4061256Y861246D01*
X4082314Y854575D01*
X4103201Y847390D01*
X4123906Y839694D01*
X4144415Y831492D01*
X4164717Y822789D01*
X4184800Y813590D01*
X4204650Y803902D01*
X4224257Y793729D01*
X4243608Y783078D01*
X4262692Y771956D01*
X4281498Y760368D01*
X4300013Y748323D01*
X4318227Y735826D01*
X4336129Y722887D01*
X4353708Y709512D01*
X4370954Y695709D01*
X4387856Y681488D01*
X4404403Y666856D01*
X4420586Y651822D01*
X4436396Y636396D01*
X4451822Y620586D01*
X4466856Y604403D01*
X4481488Y587856D01*
X4495709Y570954D01*
X4509512Y553708D01*
X4522887Y536129D01*
X4535826Y518227D01*
X4548323Y500013D01*
X4560368Y481498D01*
X4571956Y462692D01*
X4583078Y443608D01*
X4593729Y424257D01*
X4603902Y404650D01*
X4613590Y384800D01*
X4622789Y364717D01*
X4631492Y344415D01*
X4639694Y323906D01*
X4647390Y303201D01*
X4654575Y282314D01*
X4661246Y261256D01*
X4667398Y240041D01*
X4673028Y218682D01*
X4678132Y197191D01*
X4682707Y175581D01*
X4686750Y153866D01*
X4690259Y132057D01*
X4693232Y110170D01*
X4695666Y88215D01*
X4697561Y66208D01*
X4698916Y44161D01*
X4699729Y22087D01*
X4700000Y0D01*
X4699729Y-22087D01*
X4698916Y-44161D01*
X4697561Y-66208D01*
X4695666Y-88215D01*
X4693232Y-110170D01*
X4690259Y-132057D01*
X4686750Y-153866D01*
X4682707Y-175581D01*
X4678132Y-197191D01*
X4673028Y-218682D01*
X4667398Y-240041D01*
X4661246Y-261256D01*
X4654575Y-282314D01*
X4647390Y-303201D01*
X4639694Y-323906D01*
X4631492Y-344415D01*
X4622789Y-364717D01*
X4613590Y-384800D01*
X4603902Y-404650D01*
X4593729Y-424257D01*
X4583078Y-443608D01*
X4571956Y-462692D01*
X4560368Y-481498D01*
X4548323Y-500013D01*
X4535826Y-518227D01*
X4522887Y-536129D01*
X4509512Y-553708D01*
X4495709Y-570954D01*
X4481488Y-587856D01*
X4466856Y-604403D01*
X4451822Y-620586D01*
X4436396Y-636396D01*
X4420586Y-651822D01*
X4404403Y-666856D01*
X4387856Y-681488D01*
X4370954Y-695709D01*
X4353708Y-709512D01*
X4336129Y-722887D01*
X4318227Y-735826D01*
X4300013Y-748323D01*
X4281498Y-760368D01*
X4262692Y-771956D01*
X4243608Y-783078D01*
X4224257Y-793729D01*
X4204650Y-803902D01*
X4184800Y-813590D01*
X4164717Y-822789D01*
X4144415Y-831492D01*
X4123906Y-839694D01*
X4103201Y-847390D01*
X4082314Y-854575D01*
X4061256Y-861246D01*
X4040041Y-867398D01*
X4018682Y-873028D01*
X3997191Y-878132D01*
X3975581Y-882707D01*
X3953866Y-886750D01*
X3932057Y-890259D01*
X3910170Y-893232D01*
X3888215Y-895666D01*
X3866208Y-897561D01*
X3844161Y-898916D01*
X3822087Y-899729D01*
X3800000Y-900000D01*
X3777913Y-899729D01*
X3755839Y-898916D01*
X3733792Y-897561D01*
X3711785Y-895666D01*
X3689830Y-893232D01*
X3667943Y-890259D01*
X3646134Y-886750D01*
X3624419Y-882707D01*
X3602809Y-878132D01*
X3581318Y-873028D01*
X3559959Y-867398D01*
X3538744Y-861246D01*
X3517686Y-854575D01*
X3496799Y-847390D01*
X3476094Y-839694D01*
X3455585Y-831492D01*
X3435283Y-822789D01*
X3415200Y-813590D01*
X3395350Y-803902D01*
X3375743Y-793729D01*
X3356392Y-783078D01*
X3337308Y-771956D01*
X3318502Y-760368D01*
X3299987Y-748323D01*
X3281773Y-735826D01*
X3263871Y-722887D01*
X3246292Y-709512D01*
X3229046Y-695709D01*
X3212144Y-681488D01*
X3195597Y-666856D01*
X3179414Y-651822D01*
X3163604Y-636396D01*
X3148178Y-620586D01*
X3133144Y-604403D01*
X3118512Y-587856D01*
X3104291Y-570954D01*
X3090488Y-553708D01*
X3077113Y-536129D01*
X3064174Y-518227D01*
X3051677Y-500013D01*
X3039632Y-481498D01*
X3028044Y-462692D01*
X3016922Y-443608D01*
X3006271Y-424257D01*
X2996098Y-404650D01*
X2986410Y-384800D01*
X2977211Y-364717D01*
X2968508Y-344415D01*
X2960306Y-323906D01*
X2952610Y-303201D01*
X2945425Y-282314D01*
X2938754Y-261256D01*
X2932602Y-240041D01*
X2926972Y-218682D01*
X2921868Y-197191D01*
X2917293Y-175581D01*
X2913250Y-153866D01*
X2909741Y-132057D01*
X2906768Y-110170D01*
X2904334Y-88215D01*
X2902439Y-66208D01*
X2901084Y-44161D01*
X2900271Y-22087D01*
X2900000Y0D01*
M02*
