G04 EAGLE Gerber RS-274X export*
G75*
%MOMM*%
%FSLAX35Y35*%
%LPD*%
%INcopper_bottom*%
%IPPOS*%
%AMOC8*
5,1,8,0,0,1.08239X$1,22.5*%
G01*
%ADD10C,0.000000*%
%ADD11C,3.000000*%
%ADD12C,5.000000*%
%ADD13C,14.000000*%
%ADD14C,2.000000*%
%ADD15C,1.016000*%

G36*
X-878634Y-704854D02*
X-878634Y-704854D01*
X-877903Y-704785D01*
X-877665Y-704657D01*
X-877401Y-704603D01*
X-876797Y-704189D01*
X-876152Y-703842D01*
X-875983Y-703631D01*
X-875760Y-703478D01*
X-875364Y-702859D01*
X-874907Y-702289D01*
X-874834Y-702030D01*
X-874688Y-701802D01*
X-874565Y-701078D01*
X-874366Y-700374D01*
X-874394Y-700074D01*
X-874354Y-699840D01*
X-874456Y-699409D01*
X-874522Y-698706D01*
X-884500Y-661468D01*
X-884500Y-588532D01*
X-865623Y-518082D01*
X-829155Y-454917D01*
X-777583Y-403345D01*
X-714418Y-366877D01*
X-643968Y-347999D01*
X-571032Y-347999D01*
X-500582Y-366877D01*
X-437417Y-403345D01*
X-385845Y-454917D01*
X-349377Y-518082D01*
X-330499Y-588532D01*
X-330499Y-661468D01*
X-340221Y-697748D01*
X-340276Y-698641D01*
X-340368Y-699529D01*
X-340337Y-699629D01*
X-340343Y-699735D01*
X-340046Y-700577D01*
X-339784Y-701431D01*
X-339716Y-701512D01*
X-339681Y-701611D01*
X-339079Y-702270D01*
X-338504Y-702955D01*
X-338411Y-703003D01*
X-338339Y-703081D01*
X-337529Y-703453D01*
X-336732Y-703859D01*
X-336617Y-703871D01*
X-336531Y-703910D01*
X-336118Y-703923D01*
X-335065Y-704031D01*
X-284410Y-700711D01*
X-284135Y-700636D01*
X-283762Y-700626D01*
X-219615Y-687866D01*
X-219352Y-687756D01*
X-218984Y-687697D01*
X-157052Y-666674D01*
X-156805Y-666530D01*
X-156447Y-666423D01*
X-97789Y-637497D01*
X-97563Y-637322D01*
X-97223Y-637170D01*
X-42842Y-600833D01*
X-42641Y-600631D01*
X-42323Y-600435D01*
X6850Y-557312D01*
X7023Y-557085D01*
X7312Y-556850D01*
X50435Y-507677D01*
X50577Y-507429D01*
X50833Y-507158D01*
X87170Y-452778D01*
X87278Y-452513D01*
X87497Y-452211D01*
X116423Y-393553D01*
X116496Y-393277D01*
X116674Y-392948D01*
X137697Y-331016D01*
X137733Y-330734D01*
X137866Y-330385D01*
X150626Y-266238D01*
X150625Y-265953D01*
X150711Y-265590D01*
X154989Y-200327D01*
X154969Y-200180D01*
X154999Y-200000D01*
X154999Y200000D01*
X154994Y200028D01*
X154997Y200048D01*
X154971Y200156D01*
X154989Y200327D01*
X150711Y265590D01*
X150636Y265865D01*
X150626Y266238D01*
X137866Y330385D01*
X137756Y330648D01*
X137697Y331016D01*
X116674Y392948D01*
X116530Y393195D01*
X116423Y393553D01*
X87497Y452211D01*
X87322Y452437D01*
X87170Y452778D01*
X50833Y507158D01*
X50631Y507359D01*
X50435Y507677D01*
X7312Y556850D01*
X7085Y557023D01*
X6850Y557312D01*
X-42323Y600435D01*
X-42571Y600577D01*
X-42842Y600833D01*
X-97223Y637170D01*
X-97487Y637278D01*
X-97789Y637497D01*
X-156447Y666423D01*
X-156723Y666496D01*
X-157052Y666674D01*
X-218984Y687697D01*
X-219266Y687733D01*
X-219615Y687866D01*
X-283762Y700626D01*
X-284047Y700625D01*
X-284410Y700711D01*
X-334693Y704007D01*
X-335574Y703887D01*
X-336467Y703803D01*
X-336561Y703753D01*
X-336664Y703739D01*
X-337428Y703286D01*
X-338219Y702860D01*
X-338285Y702777D01*
X-338375Y702724D01*
X-338906Y702003D01*
X-339464Y701307D01*
X-339492Y701207D01*
X-339555Y701121D01*
X-339763Y700250D01*
X-340005Y699393D01*
X-339994Y699278D01*
X-340016Y699185D01*
X-339947Y698776D01*
X-339848Y697724D01*
X-329999Y660968D01*
X-329999Y588032D01*
X-348877Y517582D01*
X-385345Y454417D01*
X-436917Y402845D01*
X-500082Y366377D01*
X-570532Y347499D01*
X-643468Y347499D01*
X-713918Y366377D01*
X-777083Y402845D01*
X-828655Y454417D01*
X-865123Y517582D01*
X-884000Y588032D01*
X-884000Y660968D01*
X-873888Y698706D01*
X-873843Y699438D01*
X-873720Y700160D01*
X-873783Y700423D01*
X-873766Y700692D01*
X-874010Y701383D01*
X-874178Y702096D01*
X-874338Y702314D01*
X-874428Y702568D01*
X-874921Y703109D01*
X-875356Y703701D01*
X-875588Y703839D01*
X-875770Y704038D01*
X-876434Y704343D01*
X-877065Y704719D01*
X-877364Y704769D01*
X-877578Y704868D01*
X-878019Y704881D01*
X-878717Y704999D01*
X-1950000Y704999D01*
X-1950080Y704983D01*
X-1950160Y704997D01*
X-1951053Y704785D01*
X-1951950Y704603D01*
X-1952017Y704558D01*
X-1952096Y704539D01*
X-1952836Y703996D01*
X-1953591Y703478D01*
X-1953635Y703410D01*
X-1953701Y703362D01*
X-1954170Y702573D01*
X-1954663Y701802D01*
X-1954677Y701722D01*
X-1954719Y701652D01*
X-1954999Y700000D01*
X-1954999Y-700000D01*
X-1954983Y-700080D01*
X-1954997Y-700160D01*
X-1954785Y-701053D01*
X-1954603Y-701950D01*
X-1954558Y-702017D01*
X-1954539Y-702096D01*
X-1953996Y-702836D01*
X-1953478Y-703591D01*
X-1953410Y-703635D01*
X-1953362Y-703701D01*
X-1952573Y-704170D01*
X-1951802Y-704663D01*
X-1951722Y-704677D01*
X-1951652Y-704719D01*
X-1950000Y-704999D01*
X-879351Y-704999D01*
X-878634Y-704854D01*
G37*
G36*
X3021366Y-704854D02*
X3021366Y-704854D01*
X3022096Y-704785D01*
X3022334Y-704657D01*
X3022598Y-704603D01*
X3023203Y-704189D01*
X3023848Y-703842D01*
X3024017Y-703631D01*
X3024240Y-703478D01*
X3024635Y-702859D01*
X3025093Y-702289D01*
X3025166Y-702030D01*
X3025312Y-701802D01*
X3025435Y-701078D01*
X3025634Y-700374D01*
X3025606Y-700074D01*
X3025645Y-699840D01*
X3025543Y-699409D01*
X3025478Y-698706D01*
X3015499Y-661468D01*
X3015499Y-588532D01*
X3034377Y-518082D01*
X3070845Y-454917D01*
X3122417Y-403345D01*
X3185582Y-366877D01*
X3256032Y-347999D01*
X3328968Y-347999D01*
X3399418Y-366877D01*
X3462583Y-403345D01*
X3514155Y-454917D01*
X3550623Y-518082D01*
X3569500Y-588532D01*
X3569500Y-661468D01*
X3559779Y-697748D01*
X3559724Y-698641D01*
X3559632Y-699529D01*
X3559663Y-699629D01*
X3559657Y-699735D01*
X3559954Y-700577D01*
X3560216Y-701431D01*
X3560284Y-701512D01*
X3560319Y-701611D01*
X3560920Y-702270D01*
X3561496Y-702955D01*
X3561589Y-703003D01*
X3561660Y-703081D01*
X3562471Y-703453D01*
X3563268Y-703859D01*
X3563383Y-703871D01*
X3563469Y-703910D01*
X3563882Y-703923D01*
X3564935Y-704031D01*
X3615590Y-700711D01*
X3615865Y-700636D01*
X3616238Y-700626D01*
X3680385Y-687866D01*
X3680648Y-687756D01*
X3681016Y-687697D01*
X3742948Y-666674D01*
X3743195Y-666530D01*
X3743553Y-666423D01*
X3802211Y-637497D01*
X3802437Y-637322D01*
X3802778Y-637170D01*
X3857158Y-600833D01*
X3857359Y-600631D01*
X3857677Y-600435D01*
X3906850Y-557312D01*
X3907023Y-557085D01*
X3907312Y-556850D01*
X3950435Y-507677D01*
X3950577Y-507429D01*
X3950833Y-507158D01*
X3987170Y-452778D01*
X3987278Y-452513D01*
X3987497Y-452211D01*
X4016423Y-393553D01*
X4016496Y-393277D01*
X4016674Y-392948D01*
X4037697Y-331016D01*
X4037733Y-330734D01*
X4037866Y-330385D01*
X4050626Y-266238D01*
X4050625Y-265953D01*
X4050711Y-265590D01*
X4054989Y-200327D01*
X4054969Y-200180D01*
X4054999Y-200000D01*
X4054999Y200000D01*
X4054994Y200028D01*
X4054997Y200048D01*
X4054971Y200156D01*
X4054989Y200327D01*
X4050711Y265590D01*
X4050636Y265865D01*
X4050626Y266238D01*
X4037866Y330385D01*
X4037756Y330648D01*
X4037697Y331016D01*
X4016674Y392948D01*
X4016530Y393195D01*
X4016423Y393553D01*
X3987497Y452211D01*
X3987322Y452437D01*
X3987170Y452778D01*
X3950833Y507158D01*
X3950631Y507359D01*
X3950435Y507677D01*
X3907312Y556850D01*
X3907085Y557023D01*
X3906850Y557312D01*
X3857677Y600435D01*
X3857429Y600577D01*
X3857158Y600833D01*
X3802778Y637170D01*
X3802513Y637278D01*
X3802211Y637497D01*
X3743553Y666423D01*
X3743277Y666496D01*
X3742948Y666674D01*
X3681016Y687697D01*
X3680734Y687733D01*
X3680385Y687866D01*
X3616238Y700626D01*
X3615953Y700625D01*
X3615590Y700711D01*
X3565307Y704007D01*
X3564425Y703887D01*
X3563533Y703803D01*
X3563439Y703753D01*
X3563336Y703739D01*
X3562572Y703286D01*
X3561781Y702860D01*
X3561714Y702777D01*
X3561624Y702724D01*
X3561094Y702003D01*
X3560536Y701307D01*
X3560508Y701207D01*
X3560445Y701121D01*
X3560237Y700250D01*
X3559995Y699393D01*
X3560006Y699278D01*
X3559984Y699185D01*
X3560053Y698776D01*
X3560151Y697724D01*
X3570000Y660968D01*
X3570000Y588032D01*
X3551123Y517582D01*
X3514655Y454417D01*
X3463083Y402845D01*
X3399918Y366377D01*
X3329468Y347499D01*
X3256532Y347499D01*
X3186082Y366377D01*
X3122917Y402845D01*
X3071345Y454417D01*
X3034877Y517582D01*
X3015999Y588032D01*
X3015999Y660968D01*
X3026112Y698706D01*
X3026157Y699438D01*
X3026279Y700160D01*
X3026217Y700423D01*
X3026234Y700692D01*
X3025990Y701383D01*
X3025821Y702096D01*
X3025661Y702314D01*
X3025572Y702568D01*
X3025078Y703109D01*
X3024644Y703701D01*
X3024412Y703839D01*
X3024230Y704038D01*
X3023565Y704343D01*
X3022934Y704719D01*
X3022636Y704769D01*
X3022421Y704868D01*
X3021980Y704881D01*
X3021283Y704999D01*
X1950000Y704999D01*
X1949920Y704983D01*
X1949840Y704997D01*
X1948947Y704785D01*
X1948050Y704603D01*
X1947983Y704558D01*
X1947904Y704539D01*
X1947164Y703996D01*
X1946409Y703478D01*
X1946365Y703410D01*
X1946299Y703362D01*
X1945830Y702573D01*
X1945337Y701802D01*
X1945323Y701722D01*
X1945281Y701652D01*
X1945001Y700000D01*
X1945001Y-700000D01*
X1945017Y-700080D01*
X1945003Y-700160D01*
X1945215Y-701053D01*
X1945397Y-701950D01*
X1945443Y-702017D01*
X1945461Y-702096D01*
X1946004Y-702836D01*
X1946522Y-703591D01*
X1946590Y-703635D01*
X1946638Y-703701D01*
X1947428Y-704170D01*
X1948198Y-704663D01*
X1948278Y-704677D01*
X1948348Y-704719D01*
X1950000Y-704999D01*
X3020648Y-704999D01*
X3021366Y-704854D01*
G37*
D10*
X-1700000Y1250000D02*
X3550000Y1250000D01*
X3580205Y1249635D01*
X3610392Y1248540D01*
X3640544Y1246716D01*
X3670642Y1244165D01*
X3700671Y1240886D01*
X3730611Y1236883D01*
X3760446Y1232158D01*
X3790158Y1226713D01*
X3819730Y1220551D01*
X3849145Y1213677D01*
X3878384Y1206094D01*
X3907432Y1197807D01*
X3936271Y1188821D01*
X3964885Y1179140D01*
X3993256Y1168770D01*
X4021369Y1157718D01*
X4049206Y1145990D01*
X4076751Y1133593D01*
X4103989Y1120534D01*
X4130904Y1106820D01*
X4157479Y1092460D01*
X4183700Y1077462D01*
X4209550Y1061835D01*
X4235016Y1045588D01*
X4260081Y1028730D01*
X4284732Y1011271D01*
X4308953Y993222D01*
X4332731Y974593D01*
X4356053Y955395D01*
X4378903Y935638D01*
X4401270Y915336D01*
X4423139Y894499D01*
X4444499Y873139D01*
X4465336Y851270D01*
X4485638Y828903D01*
X4505395Y806053D01*
X4524593Y782731D01*
X4543222Y758953D01*
X4561271Y734732D01*
X4578730Y710081D01*
X4595588Y685016D01*
X4611835Y659550D01*
X4627462Y633700D01*
X4642460Y607479D01*
X4656820Y580904D01*
X4670534Y553989D01*
X4683593Y526751D01*
X4695990Y499206D01*
X4707718Y471369D01*
X4718770Y443256D01*
X4729140Y414885D01*
X4738821Y386271D01*
X4747807Y357432D01*
X4756094Y328384D01*
X4763677Y299145D01*
X4770551Y269730D01*
X4776713Y240158D01*
X4782158Y210446D01*
X4786883Y180611D01*
X4790886Y150671D01*
X4794165Y120642D01*
X4796716Y90544D01*
X4798540Y60392D01*
X4799635Y30205D01*
X4800000Y0D01*
X4799635Y-30205D01*
X4798540Y-60392D01*
X4796716Y-90544D01*
X4794165Y-120642D01*
X4790886Y-150671D01*
X4786883Y-180611D01*
X4782158Y-210446D01*
X4776713Y-240158D01*
X4770551Y-269730D01*
X4763677Y-299145D01*
X4756094Y-328384D01*
X4747807Y-357432D01*
X4738821Y-386271D01*
X4729140Y-414885D01*
X4718770Y-443256D01*
X4707718Y-471369D01*
X4695990Y-499206D01*
X4683593Y-526751D01*
X4670534Y-553989D01*
X4656820Y-580904D01*
X4642460Y-607479D01*
X4627462Y-633700D01*
X4611835Y-659550D01*
X4595588Y-685016D01*
X4578730Y-710081D01*
X4561271Y-734732D01*
X4543222Y-758953D01*
X4524593Y-782731D01*
X4505395Y-806053D01*
X4485638Y-828903D01*
X4465336Y-851270D01*
X4444499Y-873139D01*
X4423139Y-894499D01*
X4401270Y-915336D01*
X4378903Y-935638D01*
X4356053Y-955395D01*
X4332731Y-974593D01*
X4308953Y-993222D01*
X4284732Y-1011271D01*
X4260081Y-1028730D01*
X4235016Y-1045588D01*
X4209550Y-1061835D01*
X4183700Y-1077462D01*
X4157479Y-1092460D01*
X4130904Y-1106820D01*
X4103989Y-1120534D01*
X4076751Y-1133593D01*
X4049206Y-1145990D01*
X4021369Y-1157718D01*
X3993256Y-1168770D01*
X3964885Y-1179140D01*
X3936271Y-1188821D01*
X3907432Y-1197807D01*
X3878384Y-1206094D01*
X3849145Y-1213677D01*
X3819730Y-1220551D01*
X3790158Y-1226713D01*
X3760446Y-1232158D01*
X3730611Y-1236883D01*
X3700671Y-1240886D01*
X3670642Y-1244165D01*
X3640544Y-1246716D01*
X3610392Y-1248540D01*
X3580205Y-1249635D01*
X3550000Y-1250000D01*
X-1700000Y-1250000D01*
X-1730205Y-1249635D01*
X-1760392Y-1248540D01*
X-1790544Y-1246716D01*
X-1820642Y-1244165D01*
X-1850671Y-1240886D01*
X-1880611Y-1236883D01*
X-1910446Y-1232158D01*
X-1940158Y-1226713D01*
X-1969730Y-1220551D01*
X-1999145Y-1213677D01*
X-2028384Y-1206094D01*
X-2057432Y-1197807D01*
X-2086271Y-1188821D01*
X-2114885Y-1179140D01*
X-2143256Y-1168770D01*
X-2171369Y-1157718D01*
X-2199206Y-1145990D01*
X-2226751Y-1133593D01*
X-2253989Y-1120534D01*
X-2280904Y-1106820D01*
X-2307479Y-1092460D01*
X-2333700Y-1077462D01*
X-2359550Y-1061835D01*
X-2385016Y-1045588D01*
X-2410081Y-1028730D01*
X-2434732Y-1011271D01*
X-2458953Y-993222D01*
X-2482731Y-974593D01*
X-2506053Y-955395D01*
X-2528903Y-935638D01*
X-2551270Y-915336D01*
X-2573139Y-894499D01*
X-2594499Y-873139D01*
X-2615336Y-851270D01*
X-2635638Y-828903D01*
X-2655395Y-806053D01*
X-2674593Y-782731D01*
X-2693222Y-758953D01*
X-2711271Y-734732D01*
X-2728730Y-710081D01*
X-2745588Y-685016D01*
X-2761835Y-659550D01*
X-2777462Y-633700D01*
X-2792460Y-607479D01*
X-2806820Y-580904D01*
X-2820534Y-553989D01*
X-2833593Y-526751D01*
X-2845990Y-499206D01*
X-2857718Y-471369D01*
X-2868770Y-443256D01*
X-2879140Y-414885D01*
X-2888821Y-386271D01*
X-2897807Y-357432D01*
X-2906094Y-328384D01*
X-2913677Y-299145D01*
X-2920551Y-269730D01*
X-2926713Y-240158D01*
X-2932158Y-210446D01*
X-2936883Y-180611D01*
X-2940886Y-150671D01*
X-2944165Y-120642D01*
X-2946716Y-90544D01*
X-2948540Y-60392D01*
X-2949635Y-30205D01*
X-2950000Y0D01*
X-2949635Y30205D01*
X-2948540Y60392D01*
X-2946716Y90544D01*
X-2944165Y120642D01*
X-2940886Y150671D01*
X-2936883Y180611D01*
X-2932158Y210446D01*
X-2926713Y240158D01*
X-2920551Y269730D01*
X-2913677Y299145D01*
X-2906094Y328384D01*
X-2897807Y357432D01*
X-2888821Y386271D01*
X-2879140Y414885D01*
X-2868770Y443256D01*
X-2857718Y471369D01*
X-2845990Y499206D01*
X-2833593Y526751D01*
X-2820534Y553989D01*
X-2806820Y580904D01*
X-2792460Y607479D01*
X-2777462Y633700D01*
X-2761835Y659550D01*
X-2745588Y685016D01*
X-2728730Y710081D01*
X-2711271Y734732D01*
X-2693222Y758953D01*
X-2674593Y782731D01*
X-2655395Y806053D01*
X-2635638Y828903D01*
X-2615336Y851270D01*
X-2594499Y873139D01*
X-2573139Y894499D01*
X-2551270Y915336D01*
X-2528903Y935638D01*
X-2506053Y955395D01*
X-2482731Y974593D01*
X-2458953Y993222D01*
X-2434732Y1011271D01*
X-2410081Y1028730D01*
X-2385016Y1045588D01*
X-2359550Y1061835D01*
X-2333700Y1077462D01*
X-2307479Y1092460D01*
X-2280904Y1106820D01*
X-2253989Y1120534D01*
X-2226751Y1133593D01*
X-2199206Y1145990D01*
X-2171369Y1157718D01*
X-2143256Y1168770D01*
X-2114885Y1179140D01*
X-2086271Y1188821D01*
X-2057432Y1197807D01*
X-2028384Y1206094D01*
X-1999145Y1213677D01*
X-1969730Y1220551D01*
X-1940158Y1226713D01*
X-1910446Y1232158D01*
X-1880611Y1236883D01*
X-1850671Y1240886D01*
X-1820642Y1244165D01*
X-1790544Y1246716D01*
X-1760392Y1248540D01*
X-1730205Y1249635D01*
X-1700000Y1250000D01*
D11*
X407500Y-625000D03*
X407500Y625000D03*
X-607500Y-625000D03*
X-607000Y624500D03*
D12*
X-100000Y0D03*
D11*
X4307500Y-625000D03*
X4307500Y625000D03*
X3292500Y-625000D03*
X3293000Y624500D03*
D12*
X3800000Y0D03*
D13*
X1950000Y0D03*
D14*
X2850000Y-1000000D03*
D15*
X2850000Y0D01*
X3800000Y0D01*
D13*
X-1950000Y0D03*
D14*
X-1050000Y-1000000D03*
D15*
X-1050000Y0D01*
X-100000Y0D01*
M02*
