G04 EAGLE Gerber X2 export*
%TF.Part,Single*%
%TF.FileFunction,Copper,L1,Top,Mixed*%
%TF.FilePolarity,Positive*%
%TF.GenerationSoftware,Autodesk,EAGLE,9.0.0*%
%TF.CreationDate,2018-04-25T18:52:18Z*%
G75*
%MOMM*%
%FSLAX34Y34*%
%LPD*%
%AMOC8*
5,1,8,0,0,1.08239X$1,22.5*%
G01*
%ADD10R,0.900000X0.400000*%
%ADD11R,1.600000X2.900000*%
%ADD12C,0.600000*%
%ADD13R,1.300000X1.500000*%
%ADD14C,1.524000*%
%ADD15R,1.803000X1.600000*%
%ADD16C,0.650000*%
%ADD17C,0.406400*%
%ADD18C,1.600200*%

G36*
X32130Y4574D02*
X32130Y4574D01*
X32151Y4573D01*
X32820Y4586D01*
X32977Y4573D01*
X297223Y4573D01*
X297235Y4574D01*
X297247Y4573D01*
X297364Y4586D01*
X298048Y4573D01*
X298065Y4574D01*
X298086Y4573D01*
X298764Y4573D01*
X298807Y4577D01*
X298862Y4575D01*
X301959Y4725D01*
X301997Y4730D01*
X302035Y4730D01*
X302337Y4781D01*
X302358Y4784D01*
X302360Y4784D01*
X302363Y4785D01*
X308727Y6405D01*
X308827Y6441D01*
X308930Y6468D01*
X309034Y6516D01*
X309106Y6543D01*
X309157Y6574D01*
X309231Y6608D01*
X314939Y9856D01*
X315025Y9918D01*
X315118Y9971D01*
X315205Y10045D01*
X315267Y10089D01*
X315308Y10132D01*
X315371Y10185D01*
X320015Y14829D01*
X320082Y14912D01*
X320157Y14987D01*
X320221Y15082D01*
X320270Y15141D01*
X320298Y15194D01*
X320344Y15261D01*
X323592Y20969D01*
X323635Y21066D01*
X323687Y21159D01*
X323724Y21267D01*
X323755Y21337D01*
X323768Y21396D01*
X323795Y21473D01*
X325415Y27837D01*
X325421Y27875D01*
X325432Y27912D01*
X325472Y28215D01*
X325475Y28236D01*
X325475Y28238D01*
X325475Y28241D01*
X325625Y31338D01*
X325623Y31381D01*
X325627Y31436D01*
X325627Y32113D01*
X325626Y32130D01*
X325627Y32151D01*
X325614Y32820D01*
X325627Y32977D01*
X325627Y195623D01*
X325626Y195635D01*
X325627Y195647D01*
X325614Y195764D01*
X325627Y196449D01*
X325626Y196466D01*
X325627Y196487D01*
X325627Y197164D01*
X325623Y197206D01*
X325625Y197262D01*
X325475Y200359D01*
X325470Y200397D01*
X325470Y200435D01*
X325419Y200737D01*
X325416Y200758D01*
X325416Y200760D01*
X325415Y200763D01*
X323795Y207127D01*
X323759Y207227D01*
X323732Y207330D01*
X323684Y207434D01*
X323657Y207506D01*
X323626Y207557D01*
X323592Y207631D01*
X320344Y213339D01*
X320282Y213425D01*
X320229Y213518D01*
X320155Y213605D01*
X320111Y213667D01*
X320068Y213708D01*
X320015Y213771D01*
X315371Y218415D01*
X315288Y218482D01*
X315213Y218557D01*
X315118Y218621D01*
X315059Y218670D01*
X315006Y218698D01*
X314939Y218744D01*
X309231Y221992D01*
X309134Y222035D01*
X309041Y222087D01*
X308933Y222124D01*
X308863Y222155D01*
X308805Y222168D01*
X308727Y222195D01*
X302363Y223815D01*
X302325Y223821D01*
X302288Y223832D01*
X301985Y223872D01*
X301964Y223875D01*
X301962Y223875D01*
X301959Y223875D01*
X298862Y224025D01*
X298819Y224023D01*
X298764Y224027D01*
X298087Y224027D01*
X298070Y224026D01*
X298049Y224027D01*
X297380Y224014D01*
X297223Y224027D01*
X32977Y224027D01*
X32965Y224026D01*
X32953Y224027D01*
X32836Y224014D01*
X32151Y224027D01*
X32134Y224026D01*
X32113Y224027D01*
X31436Y224027D01*
X31394Y224023D01*
X31338Y224025D01*
X28241Y223875D01*
X28203Y223870D01*
X28165Y223870D01*
X27863Y223819D01*
X27842Y223816D01*
X27840Y223816D01*
X27837Y223815D01*
X21473Y222195D01*
X21373Y222159D01*
X21270Y222132D01*
X21166Y222084D01*
X21094Y222057D01*
X21043Y222026D01*
X20969Y221992D01*
X15261Y218744D01*
X15175Y218682D01*
X15082Y218629D01*
X14995Y218555D01*
X14933Y218511D01*
X14892Y218468D01*
X14829Y218415D01*
X10185Y213771D01*
X10118Y213688D01*
X10043Y213613D01*
X9979Y213518D01*
X9930Y213459D01*
X9902Y213406D01*
X9856Y213339D01*
X6608Y207631D01*
X6565Y207534D01*
X6513Y207441D01*
X6476Y207333D01*
X6445Y207263D01*
X6432Y207204D01*
X6405Y207127D01*
X4785Y200763D01*
X4779Y200725D01*
X4768Y200688D01*
X4728Y200385D01*
X4725Y200364D01*
X4725Y200362D01*
X4725Y200359D01*
X4575Y197262D01*
X4577Y197219D01*
X4573Y197164D01*
X4573Y196487D01*
X4574Y196470D01*
X4573Y196449D01*
X4586Y195780D01*
X4573Y195623D01*
X4573Y32977D01*
X4574Y32965D01*
X4573Y32953D01*
X4586Y32836D01*
X4573Y32151D01*
X4574Y32134D01*
X4573Y32113D01*
X4573Y31436D01*
X4577Y31394D01*
X4575Y31338D01*
X4725Y28241D01*
X4730Y28203D01*
X4730Y28165D01*
X4781Y27863D01*
X4784Y27842D01*
X4784Y27840D01*
X4785Y27837D01*
X6405Y21473D01*
X6441Y21373D01*
X6468Y21270D01*
X6516Y21166D01*
X6543Y21094D01*
X6574Y21043D01*
X6608Y20969D01*
X9856Y15261D01*
X9918Y15175D01*
X9971Y15082D01*
X10045Y14995D01*
X10089Y14933D01*
X10132Y14892D01*
X10185Y14829D01*
X14829Y10185D01*
X14912Y10118D01*
X14987Y10043D01*
X15082Y9979D01*
X15141Y9930D01*
X15194Y9902D01*
X15261Y9856D01*
X20969Y6608D01*
X21066Y6565D01*
X21159Y6513D01*
X21267Y6476D01*
X21337Y6445D01*
X21396Y6432D01*
X21473Y6405D01*
X27837Y4785D01*
X27875Y4779D01*
X27912Y4768D01*
X28215Y4728D01*
X28236Y4725D01*
X28238Y4725D01*
X28241Y4725D01*
X31338Y4575D01*
X31381Y4577D01*
X31436Y4573D01*
X32113Y4573D01*
X32130Y4574D01*
G37*
%LPC*%
G36*
X118736Y30384D02*
X118736Y30384D01*
X115200Y31849D01*
X112494Y34555D01*
X111029Y38091D01*
X111029Y57159D01*
X112494Y60695D01*
X115200Y63401D01*
X118736Y64866D01*
X122564Y64866D01*
X126100Y63401D01*
X128806Y60695D01*
X130271Y57159D01*
X130271Y53689D01*
X130273Y53671D01*
X130271Y53653D01*
X130292Y53471D01*
X130311Y53288D01*
X130316Y53271D01*
X130318Y53254D01*
X130375Y53079D01*
X130429Y52903D01*
X130437Y52888D01*
X130443Y52871D01*
X130533Y52711D01*
X130621Y52549D01*
X130632Y52536D01*
X130641Y52520D01*
X130761Y52381D01*
X130878Y52240D01*
X130892Y52229D01*
X130904Y52215D01*
X131049Y52103D01*
X131192Y51988D01*
X131208Y51980D01*
X131222Y51969D01*
X131387Y51887D01*
X131549Y51802D01*
X131566Y51797D01*
X131582Y51789D01*
X131761Y51742D01*
X131936Y51691D01*
X131954Y51689D01*
X131971Y51685D01*
X132302Y51658D01*
X185198Y51658D01*
X185216Y51660D01*
X185234Y51658D01*
X185416Y51679D01*
X185599Y51698D01*
X185616Y51703D01*
X185633Y51705D01*
X185808Y51762D01*
X185984Y51816D01*
X185999Y51824D01*
X186016Y51830D01*
X186176Y51920D01*
X186338Y52008D01*
X186351Y52019D01*
X186367Y52028D01*
X186506Y52148D01*
X186647Y52265D01*
X186658Y52279D01*
X186672Y52291D01*
X186784Y52436D01*
X186899Y52579D01*
X186907Y52595D01*
X186918Y52609D01*
X187000Y52774D01*
X187085Y52936D01*
X187090Y52953D01*
X187098Y52969D01*
X187145Y53148D01*
X187196Y53323D01*
X187198Y53341D01*
X187202Y53358D01*
X187229Y53689D01*
X187229Y57159D01*
X188694Y60695D01*
X191400Y63401D01*
X191563Y63469D01*
X191583Y63479D01*
X191604Y63486D01*
X191760Y63574D01*
X191918Y63659D01*
X191935Y63673D01*
X191955Y63684D01*
X192090Y63801D01*
X192229Y63915D01*
X192243Y63933D01*
X192260Y63947D01*
X192369Y64089D01*
X192482Y64228D01*
X192493Y64248D01*
X192506Y64265D01*
X192586Y64426D01*
X192669Y64584D01*
X192676Y64606D01*
X192686Y64626D01*
X192732Y64799D01*
X192782Y64971D01*
X192784Y64993D01*
X192790Y65015D01*
X192817Y65345D01*
X192817Y92236D01*
X192815Y92254D01*
X192817Y92272D01*
X192796Y92454D01*
X192777Y92637D01*
X192772Y92654D01*
X192770Y92671D01*
X192713Y92846D01*
X192659Y93022D01*
X192651Y93037D01*
X192645Y93054D01*
X192555Y93214D01*
X192467Y93376D01*
X192456Y93389D01*
X192447Y93405D01*
X192327Y93544D01*
X192210Y93685D01*
X192196Y93696D01*
X192184Y93710D01*
X192039Y93822D01*
X191896Y93937D01*
X191880Y93945D01*
X191866Y93956D01*
X191701Y94038D01*
X191539Y94123D01*
X191522Y94128D01*
X191506Y94136D01*
X191327Y94183D01*
X191152Y94234D01*
X191134Y94236D01*
X191117Y94240D01*
X190786Y94267D01*
X184405Y94267D01*
X184387Y94272D01*
X184056Y94299D01*
X181271Y94299D01*
X180099Y95471D01*
X180099Y99310D01*
X180086Y99447D01*
X180081Y99584D01*
X180066Y99647D01*
X180059Y99711D01*
X180019Y99842D01*
X179987Y99976D01*
X179960Y100034D01*
X179941Y100096D01*
X179876Y100216D01*
X179818Y100341D01*
X179780Y100393D01*
X179749Y100450D01*
X179662Y100555D01*
X179580Y100666D01*
X179533Y100710D01*
X179492Y100759D01*
X179385Y100845D01*
X179283Y100938D01*
X179228Y100971D01*
X179178Y101011D01*
X179056Y101075D01*
X178938Y101145D01*
X178878Y101167D01*
X178821Y101197D01*
X178689Y101235D01*
X178559Y101281D01*
X178496Y101290D01*
X178434Y101308D01*
X178297Y101319D01*
X178161Y101339D01*
X178097Y101336D01*
X178032Y101341D01*
X177896Y101325D01*
X177759Y101318D01*
X177696Y101302D01*
X177633Y101294D01*
X177502Y101252D01*
X177369Y101217D01*
X177311Y101189D01*
X177250Y101169D01*
X177130Y101102D01*
X177006Y101042D01*
X176955Y101003D01*
X176899Y100971D01*
X176795Y100882D01*
X176686Y100799D01*
X176643Y100750D01*
X176595Y100708D01*
X176510Y100600D01*
X176419Y100497D01*
X176387Y100441D01*
X176348Y100390D01*
X176287Y100267D01*
X176218Y100148D01*
X176193Y100079D01*
X176168Y100030D01*
X176148Y99952D01*
X176106Y99836D01*
X175968Y99319D01*
X175633Y98740D01*
X175160Y98267D01*
X174581Y97932D01*
X173935Y97759D01*
X169599Y97759D01*
X169599Y112832D01*
X169597Y112850D01*
X169599Y112867D01*
X169578Y113050D01*
X169559Y113232D01*
X169554Y113249D01*
X169552Y113267D01*
X169495Y113442D01*
X169441Y113617D01*
X169433Y113633D01*
X169427Y113650D01*
X169337Y113810D01*
X169249Y113971D01*
X169238Y113985D01*
X169229Y114001D01*
X169109Y114140D01*
X168992Y114281D01*
X168978Y114292D01*
X168966Y114305D01*
X168821Y114418D01*
X168678Y114533D01*
X168662Y114541D01*
X168648Y114552D01*
X168483Y114634D01*
X168321Y114718D01*
X168304Y114723D01*
X168288Y114731D01*
X168110Y114779D01*
X168045Y114798D01*
X168178Y114841D01*
X168354Y114895D01*
X168369Y114903D01*
X168386Y114909D01*
X168546Y114999D01*
X168708Y115087D01*
X168721Y115098D01*
X168737Y115107D01*
X168876Y115227D01*
X169017Y115345D01*
X169028Y115358D01*
X169042Y115370D01*
X169154Y115515D01*
X169269Y115658D01*
X169277Y115674D01*
X169288Y115688D01*
X169370Y115853D01*
X169455Y116016D01*
X169460Y116033D01*
X169468Y116049D01*
X169515Y116227D01*
X169566Y116402D01*
X169568Y116420D01*
X169572Y116437D01*
X169599Y116768D01*
X169599Y131841D01*
X173935Y131841D01*
X174581Y131668D01*
X175160Y131333D01*
X175633Y130860D01*
X175968Y130281D01*
X176106Y129764D01*
X176155Y129636D01*
X176195Y129504D01*
X176225Y129448D01*
X176248Y129388D01*
X176321Y129271D01*
X176387Y129150D01*
X176428Y129101D01*
X176462Y129046D01*
X176557Y128946D01*
X176644Y128841D01*
X176694Y128801D01*
X176739Y128754D01*
X176851Y128675D01*
X176958Y128589D01*
X177015Y128559D01*
X177068Y128522D01*
X177194Y128466D01*
X177315Y128403D01*
X177377Y128385D01*
X177436Y128359D01*
X177570Y128330D01*
X177702Y128292D01*
X177767Y128287D01*
X177829Y128273D01*
X177966Y128270D01*
X178104Y128259D01*
X178168Y128266D01*
X178232Y128265D01*
X178367Y128290D01*
X178503Y128306D01*
X178565Y128326D01*
X178628Y128337D01*
X178756Y128388D01*
X178886Y128431D01*
X178942Y128462D01*
X179002Y128486D01*
X179117Y128561D01*
X179237Y128629D01*
X179285Y128671D01*
X179339Y128706D01*
X179438Y128802D01*
X179542Y128892D01*
X179581Y128943D01*
X179627Y128988D01*
X179704Y129101D01*
X179788Y129210D01*
X179817Y129267D01*
X179853Y129321D01*
X179906Y129447D01*
X179968Y129570D01*
X179984Y129633D01*
X180009Y129692D01*
X180036Y129826D01*
X180072Y129959D01*
X180078Y130033D01*
X180089Y130086D01*
X180089Y130166D01*
X180099Y130290D01*
X180099Y133629D01*
X181271Y134801D01*
X184056Y134801D01*
X184083Y134803D01*
X184110Y134801D01*
X184283Y134823D01*
X184377Y134833D01*
X209474Y134833D01*
X209496Y134835D01*
X209518Y134833D01*
X209696Y134855D01*
X209874Y134873D01*
X209895Y134879D01*
X209918Y134882D01*
X210088Y134938D01*
X210259Y134991D01*
X210279Y135001D01*
X210300Y135008D01*
X210456Y135097D01*
X210613Y135183D01*
X210630Y135197D01*
X210650Y135208D01*
X210785Y135325D01*
X210922Y135440D01*
X210936Y135458D01*
X210953Y135472D01*
X211063Y135615D01*
X211175Y135754D01*
X211185Y135774D01*
X211199Y135791D01*
X211350Y136087D01*
X211449Y136324D01*
X212926Y137801D01*
X214856Y138601D01*
X216944Y138601D01*
X218874Y137801D01*
X220351Y136324D01*
X221151Y134394D01*
X221151Y132306D01*
X220351Y130376D01*
X218874Y128899D01*
X216865Y128067D01*
X216793Y128059D01*
X216768Y128052D01*
X216741Y128048D01*
X216575Y127993D01*
X216408Y127941D01*
X216385Y127928D01*
X216359Y127920D01*
X216208Y127833D01*
X216054Y127749D01*
X216034Y127732D01*
X216010Y127719D01*
X215757Y127504D01*
X215020Y126767D01*
X203039Y126767D01*
X203026Y126766D01*
X203013Y126767D01*
X202826Y126746D01*
X202639Y126727D01*
X202626Y126723D01*
X202613Y126722D01*
X202435Y126665D01*
X202254Y126609D01*
X202242Y126603D01*
X202229Y126599D01*
X202065Y126507D01*
X201900Y126417D01*
X201890Y126409D01*
X201878Y126402D01*
X201734Y126279D01*
X201591Y126160D01*
X201582Y126149D01*
X201572Y126141D01*
X201456Y125992D01*
X201338Y125846D01*
X201332Y125834D01*
X201324Y125824D01*
X201239Y125654D01*
X201153Y125489D01*
X201149Y125476D01*
X201143Y125464D01*
X201093Y125282D01*
X201041Y125102D01*
X201040Y125088D01*
X201037Y125075D01*
X201024Y124888D01*
X201009Y124700D01*
X201010Y124687D01*
X201009Y124674D01*
X201034Y124486D01*
X201055Y124301D01*
X201060Y124288D01*
X201061Y124275D01*
X201163Y123959D01*
X202101Y121694D01*
X202101Y119606D01*
X201494Y118141D01*
X201490Y118128D01*
X201484Y118117D01*
X201432Y117936D01*
X201378Y117756D01*
X201377Y117743D01*
X201373Y117730D01*
X201357Y117540D01*
X201340Y117355D01*
X201341Y117342D01*
X201340Y117328D01*
X201362Y117142D01*
X201381Y116955D01*
X201385Y116942D01*
X201387Y116929D01*
X201445Y116751D01*
X201501Y116570D01*
X201507Y116559D01*
X201512Y116546D01*
X201604Y116382D01*
X201694Y116217D01*
X201703Y116207D01*
X201710Y116195D01*
X201832Y116053D01*
X201953Y115909D01*
X201964Y115901D01*
X201973Y115890D01*
X202121Y115776D01*
X202268Y115658D01*
X202280Y115652D01*
X202291Y115644D01*
X202459Y115560D01*
X202626Y115474D01*
X202639Y115470D01*
X202651Y115464D01*
X202834Y115415D01*
X203014Y115364D01*
X203027Y115363D01*
X203040Y115360D01*
X203371Y115333D01*
X206743Y115333D01*
X206761Y115335D01*
X206779Y115333D01*
X206961Y115354D01*
X207144Y115373D01*
X207161Y115378D01*
X207178Y115380D01*
X207353Y115437D01*
X207529Y115491D01*
X207544Y115499D01*
X207561Y115505D01*
X207721Y115595D01*
X207883Y115683D01*
X207896Y115694D01*
X207912Y115703D01*
X208051Y115823D01*
X208192Y115940D01*
X208203Y115954D01*
X208217Y115966D01*
X208329Y116111D01*
X208444Y116254D01*
X208452Y116270D01*
X208463Y116284D01*
X208545Y116449D01*
X208630Y116611D01*
X208635Y116628D01*
X208643Y116644D01*
X208690Y116823D01*
X208741Y116998D01*
X208743Y117016D01*
X208747Y117033D01*
X208774Y117364D01*
X208774Y119629D01*
X209946Y120801D01*
X224604Y120801D01*
X224957Y120448D01*
X224971Y120436D01*
X224982Y120423D01*
X225126Y120309D01*
X225268Y120193D01*
X225284Y120184D01*
X225298Y120173D01*
X225463Y120089D01*
X225624Y120004D01*
X225641Y119999D01*
X225657Y119991D01*
X225835Y119941D01*
X226010Y119889D01*
X226028Y119888D01*
X226045Y119883D01*
X226228Y119869D01*
X226411Y119853D01*
X226429Y119855D01*
X226447Y119853D01*
X226628Y119876D01*
X226811Y119896D01*
X226828Y119902D01*
X226846Y119904D01*
X227019Y119962D01*
X227195Y120018D01*
X227211Y120026D01*
X227228Y120032D01*
X227387Y120124D01*
X227547Y120212D01*
X227561Y120224D01*
X227577Y120233D01*
X227830Y120448D01*
X228215Y120833D01*
X228794Y121168D01*
X229440Y121341D01*
X233026Y121341D01*
X233026Y112518D01*
X233027Y112500D01*
X233026Y112483D01*
X233047Y112300D01*
X233066Y112118D01*
X233071Y112101D01*
X233073Y112083D01*
X233130Y111908D01*
X233184Y111733D01*
X233192Y111717D01*
X233198Y111700D01*
X233288Y111540D01*
X233375Y111379D01*
X233387Y111365D01*
X233396Y111349D01*
X233441Y111297D01*
X233356Y111192D01*
X233348Y111176D01*
X233337Y111162D01*
X233255Y110997D01*
X233170Y110834D01*
X233165Y110817D01*
X233157Y110801D01*
X233109Y110623D01*
X233059Y110448D01*
X233057Y110430D01*
X233053Y110413D01*
X233026Y110082D01*
X233026Y101259D01*
X229440Y101259D01*
X228794Y101432D01*
X228215Y101767D01*
X227830Y102152D01*
X227816Y102164D01*
X227804Y102177D01*
X227660Y102291D01*
X227518Y102407D01*
X227502Y102416D01*
X227488Y102427D01*
X227324Y102510D01*
X227162Y102596D01*
X227145Y102601D01*
X227129Y102609D01*
X226953Y102658D01*
X226776Y102711D01*
X226759Y102712D01*
X226741Y102717D01*
X226559Y102731D01*
X226375Y102747D01*
X226358Y102745D01*
X226340Y102747D01*
X226158Y102724D01*
X225975Y102704D01*
X225958Y102698D01*
X225940Y102696D01*
X225766Y102638D01*
X225591Y102582D01*
X225576Y102574D01*
X225559Y102568D01*
X225399Y102476D01*
X225239Y102388D01*
X225225Y102376D01*
X225210Y102367D01*
X224957Y102152D01*
X224604Y101799D01*
X209946Y101799D01*
X208774Y102971D01*
X208774Y105236D01*
X208772Y105254D01*
X208774Y105272D01*
X208753Y105454D01*
X208734Y105637D01*
X208729Y105654D01*
X208727Y105671D01*
X208670Y105846D01*
X208616Y106022D01*
X208608Y106037D01*
X208602Y106054D01*
X208512Y106214D01*
X208424Y106376D01*
X208413Y106389D01*
X208404Y106405D01*
X208284Y106544D01*
X208167Y106685D01*
X208153Y106696D01*
X208141Y106710D01*
X207996Y106822D01*
X207853Y106937D01*
X207837Y106945D01*
X207823Y106956D01*
X207658Y107038D01*
X207496Y107123D01*
X207479Y107128D01*
X207463Y107136D01*
X207284Y107183D01*
X207109Y107234D01*
X207091Y107236D01*
X207074Y107240D01*
X206743Y107267D01*
X202914Y107267D01*
X202896Y107265D01*
X202878Y107267D01*
X202696Y107246D01*
X202513Y107227D01*
X202496Y107222D01*
X202479Y107220D01*
X202304Y107163D01*
X202128Y107109D01*
X202113Y107101D01*
X202096Y107095D01*
X201936Y107005D01*
X201774Y106917D01*
X201761Y106906D01*
X201745Y106897D01*
X201606Y106777D01*
X201465Y106660D01*
X201454Y106646D01*
X201440Y106634D01*
X201328Y106489D01*
X201213Y106346D01*
X201205Y106330D01*
X201194Y106316D01*
X201112Y106151D01*
X201027Y105989D01*
X201022Y105972D01*
X201014Y105956D01*
X200967Y105777D01*
X200916Y105602D01*
X200914Y105584D01*
X200910Y105567D01*
X200883Y105236D01*
X200883Y65345D01*
X200885Y65323D01*
X200883Y65301D01*
X200905Y65123D01*
X200923Y64945D01*
X200929Y64923D01*
X200932Y64901D01*
X200988Y64731D01*
X201041Y64560D01*
X201051Y64540D01*
X201058Y64519D01*
X201147Y64363D01*
X201233Y64206D01*
X201247Y64189D01*
X201258Y64169D01*
X201376Y64033D01*
X201490Y63896D01*
X201508Y63882D01*
X201522Y63866D01*
X201664Y63756D01*
X201804Y63644D01*
X201824Y63634D01*
X201842Y63620D01*
X202137Y63469D01*
X202300Y63401D01*
X205006Y60695D01*
X206471Y57159D01*
X206471Y38091D01*
X205006Y34555D01*
X202300Y31849D01*
X199818Y30821D01*
X198764Y30384D01*
X194936Y30384D01*
X191400Y31849D01*
X188694Y34555D01*
X187229Y38091D01*
X187229Y41561D01*
X187227Y41579D01*
X187229Y41597D01*
X187208Y41779D01*
X187189Y41962D01*
X187184Y41979D01*
X187182Y41996D01*
X187125Y42171D01*
X187071Y42347D01*
X187063Y42362D01*
X187057Y42379D01*
X186967Y42539D01*
X186879Y42701D01*
X186868Y42714D01*
X186859Y42730D01*
X186739Y42869D01*
X186622Y43010D01*
X186608Y43021D01*
X186596Y43035D01*
X186451Y43147D01*
X186308Y43262D01*
X186292Y43270D01*
X186278Y43281D01*
X186113Y43363D01*
X185951Y43448D01*
X185934Y43453D01*
X185918Y43461D01*
X185739Y43508D01*
X185564Y43559D01*
X185546Y43561D01*
X185529Y43565D01*
X185198Y43592D01*
X132302Y43592D01*
X132284Y43590D01*
X132266Y43592D01*
X132084Y43571D01*
X131901Y43552D01*
X131884Y43547D01*
X131867Y43545D01*
X131692Y43488D01*
X131516Y43434D01*
X131501Y43426D01*
X131484Y43420D01*
X131324Y43330D01*
X131162Y43242D01*
X131149Y43231D01*
X131133Y43222D01*
X130994Y43102D01*
X130853Y42985D01*
X130842Y42971D01*
X130828Y42959D01*
X130716Y42814D01*
X130601Y42671D01*
X130593Y42655D01*
X130582Y42641D01*
X130500Y42476D01*
X130415Y42314D01*
X130410Y42297D01*
X130402Y42281D01*
X130355Y42102D01*
X130304Y41927D01*
X130302Y41909D01*
X130298Y41892D01*
X130271Y41561D01*
X130271Y38091D01*
X128806Y34555D01*
X126100Y31849D01*
X123618Y30821D01*
X122564Y30384D01*
X118736Y30384D01*
G37*
%LPD*%
%LPC*%
G36*
X119606Y83649D02*
X119606Y83649D01*
X117676Y84449D01*
X116199Y85926D01*
X115399Y87856D01*
X115399Y89944D01*
X116231Y91953D01*
X116277Y92009D01*
X116290Y92033D01*
X116306Y92054D01*
X116384Y92211D01*
X116466Y92365D01*
X116474Y92391D01*
X116486Y92415D01*
X116531Y92584D01*
X116581Y92751D01*
X116583Y92778D01*
X116590Y92804D01*
X116617Y93134D01*
X116617Y109620D01*
X119429Y112432D01*
X119438Y112443D01*
X119448Y112451D01*
X119565Y112599D01*
X119684Y112744D01*
X119690Y112756D01*
X119699Y112766D01*
X119786Y112935D01*
X119873Y113100D01*
X119877Y113112D01*
X119883Y113124D01*
X119934Y113306D01*
X119988Y113485D01*
X119989Y113499D01*
X119993Y113512D01*
X120007Y113697D01*
X120024Y113886D01*
X120023Y113900D01*
X120024Y113913D01*
X120001Y114098D01*
X119981Y114287D01*
X119977Y114300D01*
X119975Y114313D01*
X119916Y114490D01*
X119859Y114671D01*
X119853Y114682D01*
X119848Y114695D01*
X119755Y114858D01*
X119664Y115023D01*
X119656Y115033D01*
X119649Y115045D01*
X119526Y115186D01*
X119404Y115330D01*
X119393Y115338D01*
X119385Y115348D01*
X119236Y115463D01*
X119088Y115579D01*
X119076Y115586D01*
X119065Y115594D01*
X118770Y115745D01*
X117676Y116199D01*
X116199Y117676D01*
X115399Y119606D01*
X115399Y121694D01*
X116199Y123624D01*
X117676Y125101D01*
X117729Y125123D01*
X117737Y125128D01*
X117745Y125130D01*
X117915Y125223D01*
X118084Y125314D01*
X118091Y125319D01*
X118099Y125324D01*
X118246Y125447D01*
X118394Y125570D01*
X118400Y125577D01*
X118407Y125583D01*
X118526Y125733D01*
X118648Y125883D01*
X118652Y125891D01*
X118658Y125898D01*
X118745Y126068D01*
X118835Y126239D01*
X118837Y126248D01*
X118842Y126256D01*
X118894Y126440D01*
X118948Y126626D01*
X118949Y126634D01*
X118951Y126643D01*
X118966Y126835D01*
X118983Y127027D01*
X118982Y127036D01*
X118982Y127045D01*
X118959Y127236D01*
X118937Y127427D01*
X118935Y127435D01*
X118934Y127444D01*
X118873Y127628D01*
X118814Y127810D01*
X118810Y127818D01*
X118807Y127826D01*
X118712Y127993D01*
X118618Y128162D01*
X118612Y128168D01*
X118608Y128176D01*
X118481Y128321D01*
X118356Y128467D01*
X118349Y128473D01*
X118343Y128480D01*
X118189Y128598D01*
X118039Y128716D01*
X118031Y128720D01*
X118024Y128725D01*
X117729Y128877D01*
X117676Y128899D01*
X116199Y130376D01*
X115399Y132306D01*
X115399Y134394D01*
X116199Y136324D01*
X117676Y137801D01*
X119606Y138601D01*
X121694Y138601D01*
X123624Y137801D01*
X125101Y136324D01*
X125158Y136187D01*
X125169Y136167D01*
X125176Y136146D01*
X125264Y135990D01*
X125349Y135832D01*
X125363Y135815D01*
X125374Y135795D01*
X125491Y135659D01*
X125605Y135521D01*
X125622Y135507D01*
X125637Y135490D01*
X125778Y135381D01*
X125918Y135268D01*
X125937Y135257D01*
X125955Y135244D01*
X126115Y135164D01*
X126274Y135081D01*
X126295Y135074D01*
X126315Y135064D01*
X126489Y135018D01*
X126660Y134968D01*
X126683Y134966D01*
X126704Y134960D01*
X127035Y134933D01*
X146795Y134933D01*
X146813Y134928D01*
X147144Y134901D01*
X149929Y134901D01*
X151101Y133729D01*
X151101Y130290D01*
X151114Y130153D01*
X151119Y130016D01*
X151134Y129953D01*
X151141Y129889D01*
X151181Y129758D01*
X151213Y129624D01*
X151240Y129566D01*
X151259Y129504D01*
X151324Y129384D01*
X151382Y129259D01*
X151420Y129207D01*
X151451Y129150D01*
X151538Y129045D01*
X151620Y128934D01*
X151667Y128890D01*
X151708Y128841D01*
X151815Y128755D01*
X151917Y128662D01*
X151972Y128629D01*
X152022Y128589D01*
X152144Y128525D01*
X152262Y128455D01*
X152322Y128433D01*
X152379Y128403D01*
X152511Y128365D01*
X152641Y128319D01*
X152704Y128310D01*
X152766Y128292D01*
X152903Y128281D01*
X153039Y128261D01*
X153103Y128264D01*
X153168Y128259D01*
X153304Y128275D01*
X153441Y128282D01*
X153504Y128298D01*
X153567Y128306D01*
X153698Y128348D01*
X153831Y128383D01*
X153889Y128411D01*
X153950Y128431D01*
X154070Y128498D01*
X154194Y128558D01*
X154245Y128597D01*
X154301Y128629D01*
X154405Y128718D01*
X154514Y128801D01*
X154557Y128850D01*
X154605Y128892D01*
X154690Y129000D01*
X154781Y129103D01*
X154813Y129159D01*
X154852Y129210D01*
X154913Y129333D01*
X154982Y129452D01*
X155007Y129521D01*
X155032Y129570D01*
X155052Y129647D01*
X155094Y129764D01*
X155232Y130281D01*
X155567Y130860D01*
X156040Y131333D01*
X156619Y131668D01*
X157265Y131841D01*
X161601Y131841D01*
X161601Y116768D01*
X161602Y116750D01*
X161601Y116733D01*
X161622Y116550D01*
X161641Y116368D01*
X161646Y116351D01*
X161648Y116333D01*
X161705Y116158D01*
X161759Y115983D01*
X161767Y115967D01*
X161773Y115950D01*
X161863Y115790D01*
X161950Y115629D01*
X161962Y115615D01*
X161971Y115599D01*
X162091Y115460D01*
X162208Y115319D01*
X162222Y115308D01*
X162234Y115295D01*
X162379Y115182D01*
X162522Y115067D01*
X162538Y115059D01*
X162552Y115048D01*
X162717Y114966D01*
X162879Y114882D01*
X162896Y114877D01*
X162912Y114869D01*
X163091Y114821D01*
X163155Y114802D01*
X163022Y114759D01*
X162846Y114705D01*
X162831Y114697D01*
X162814Y114691D01*
X162654Y114601D01*
X162492Y114513D01*
X162479Y114502D01*
X162463Y114493D01*
X162324Y114373D01*
X162183Y114255D01*
X162172Y114242D01*
X162158Y114230D01*
X162046Y114085D01*
X161931Y113942D01*
X161923Y113926D01*
X161912Y113912D01*
X161830Y113747D01*
X161745Y113584D01*
X161740Y113567D01*
X161732Y113551D01*
X161684Y113373D01*
X161634Y113198D01*
X161632Y113180D01*
X161628Y113163D01*
X161601Y112832D01*
X161601Y97759D01*
X157265Y97759D01*
X156619Y97932D01*
X156040Y98267D01*
X155567Y98740D01*
X155232Y99319D01*
X155094Y99836D01*
X155045Y99964D01*
X155005Y100096D01*
X154975Y100152D01*
X154952Y100212D01*
X154879Y100329D01*
X154813Y100450D01*
X154772Y100499D01*
X154738Y100554D01*
X154644Y100654D01*
X154556Y100759D01*
X154506Y100799D01*
X154461Y100846D01*
X154349Y100925D01*
X154242Y101011D01*
X154185Y101041D01*
X154132Y101078D01*
X154006Y101134D01*
X153885Y101197D01*
X153823Y101215D01*
X153764Y101241D01*
X153630Y101270D01*
X153498Y101308D01*
X153433Y101313D01*
X153371Y101327D01*
X153234Y101330D01*
X153096Y101341D01*
X153032Y101334D01*
X152968Y101335D01*
X152833Y101310D01*
X152697Y101294D01*
X152635Y101274D01*
X152572Y101263D01*
X152444Y101212D01*
X152314Y101169D01*
X152258Y101138D01*
X152198Y101114D01*
X152083Y101039D01*
X151963Y100971D01*
X151915Y100929D01*
X151861Y100894D01*
X151762Y100798D01*
X151658Y100708D01*
X151619Y100657D01*
X151573Y100612D01*
X151496Y100499D01*
X151412Y100390D01*
X151383Y100333D01*
X151347Y100279D01*
X151294Y100153D01*
X151232Y100030D01*
X151216Y99967D01*
X151191Y99908D01*
X151164Y99774D01*
X151128Y99641D01*
X151122Y99567D01*
X151111Y99514D01*
X151111Y99434D01*
X151101Y99310D01*
X151101Y95571D01*
X149929Y94399D01*
X147144Y94399D01*
X147117Y94397D01*
X147090Y94399D01*
X146917Y94377D01*
X146823Y94367D01*
X131680Y94367D01*
X129317Y96730D01*
X129317Y97366D01*
X129315Y97392D01*
X129317Y97419D01*
X129295Y97593D01*
X129277Y97766D01*
X129270Y97792D01*
X129266Y97818D01*
X129211Y97984D01*
X129159Y98151D01*
X129146Y98175D01*
X129138Y98200D01*
X129051Y98352D01*
X128967Y98505D01*
X128950Y98526D01*
X128937Y98549D01*
X128924Y98564D01*
X128591Y99369D01*
X128589Y99373D01*
X128587Y99378D01*
X128494Y99551D01*
X128400Y99724D01*
X128398Y99728D01*
X128395Y99732D01*
X128270Y99882D01*
X128144Y100035D01*
X128141Y100037D01*
X128138Y100041D01*
X127985Y100164D01*
X127831Y100288D01*
X127827Y100290D01*
X127824Y100293D01*
X127651Y100383D01*
X127475Y100475D01*
X127471Y100477D01*
X127467Y100479D01*
X127279Y100533D01*
X127088Y100589D01*
X127084Y100589D01*
X127080Y100590D01*
X126882Y100606D01*
X126687Y100623D01*
X126683Y100623D01*
X126678Y100623D01*
X126484Y100600D01*
X126287Y100578D01*
X126283Y100577D01*
X126279Y100576D01*
X126093Y100516D01*
X125904Y100455D01*
X125900Y100453D01*
X125896Y100451D01*
X125724Y100355D01*
X125552Y100258D01*
X125549Y100256D01*
X125545Y100253D01*
X125397Y100125D01*
X125247Y99997D01*
X125244Y99993D01*
X125240Y99990D01*
X125120Y99836D01*
X124998Y99680D01*
X124996Y99676D01*
X124994Y99672D01*
X124905Y99494D01*
X124818Y99320D01*
X124816Y99316D01*
X124814Y99312D01*
X124763Y99120D01*
X124711Y98932D01*
X124711Y98927D01*
X124710Y98923D01*
X124683Y98592D01*
X124683Y93134D01*
X124685Y93108D01*
X124683Y93081D01*
X124705Y92907D01*
X124723Y92734D01*
X124730Y92708D01*
X124734Y92682D01*
X124789Y92516D01*
X124841Y92349D01*
X124854Y92325D01*
X124862Y92300D01*
X124949Y92148D01*
X125033Y91995D01*
X125050Y91974D01*
X125063Y91951D01*
X125076Y91936D01*
X125901Y89944D01*
X125901Y87856D01*
X125101Y85926D01*
X123624Y84449D01*
X121694Y83649D01*
X119606Y83649D01*
G37*
%LPD*%
%LPC*%
G36*
X93336Y30384D02*
X93336Y30384D01*
X89800Y31849D01*
X87094Y34555D01*
X85629Y38091D01*
X85629Y57159D01*
X87094Y60695D01*
X89800Y63401D01*
X89963Y63469D01*
X89983Y63479D01*
X90004Y63486D01*
X90160Y63574D01*
X90318Y63659D01*
X90335Y63673D01*
X90355Y63684D01*
X90490Y63801D01*
X90629Y63915D01*
X90643Y63933D01*
X90660Y63947D01*
X90769Y64089D01*
X90882Y64228D01*
X90893Y64248D01*
X90906Y64265D01*
X90986Y64426D01*
X91069Y64584D01*
X91076Y64606D01*
X91086Y64626D01*
X91132Y64799D01*
X91182Y64971D01*
X91184Y64993D01*
X91190Y65015D01*
X91217Y65345D01*
X91217Y88048D01*
X91215Y88066D01*
X91217Y88084D01*
X91196Y88266D01*
X91177Y88449D01*
X91172Y88466D01*
X91170Y88483D01*
X91113Y88658D01*
X91059Y88834D01*
X91051Y88849D01*
X91045Y88866D01*
X90955Y89026D01*
X90867Y89188D01*
X90856Y89201D01*
X90847Y89217D01*
X90727Y89356D01*
X90610Y89497D01*
X90596Y89508D01*
X90584Y89522D01*
X90439Y89634D01*
X90296Y89749D01*
X90280Y89757D01*
X90266Y89768D01*
X90101Y89850D01*
X89939Y89935D01*
X89922Y89940D01*
X89906Y89948D01*
X89727Y89995D01*
X89552Y90046D01*
X89534Y90048D01*
X89517Y90052D01*
X89186Y90079D01*
X85406Y90079D01*
X84234Y91251D01*
X84234Y108909D01*
X85406Y110081D01*
X105094Y110081D01*
X106266Y108909D01*
X106266Y91251D01*
X105094Y90079D01*
X101314Y90079D01*
X101296Y90077D01*
X101278Y90079D01*
X101096Y90058D01*
X100913Y90039D01*
X100896Y90034D01*
X100879Y90032D01*
X100704Y89975D01*
X100528Y89921D01*
X100513Y89913D01*
X100496Y89907D01*
X100336Y89817D01*
X100174Y89729D01*
X100161Y89718D01*
X100145Y89709D01*
X100005Y89589D01*
X99865Y89472D01*
X99854Y89458D01*
X99840Y89446D01*
X99728Y89301D01*
X99613Y89158D01*
X99605Y89142D01*
X99594Y89128D01*
X99512Y88963D01*
X99427Y88801D01*
X99422Y88784D01*
X99414Y88768D01*
X99367Y88589D01*
X99316Y88414D01*
X99314Y88396D01*
X99310Y88379D01*
X99283Y88048D01*
X99283Y65345D01*
X99285Y65323D01*
X99283Y65301D01*
X99305Y65123D01*
X99323Y64945D01*
X99329Y64923D01*
X99332Y64901D01*
X99388Y64731D01*
X99441Y64560D01*
X99451Y64540D01*
X99458Y64519D01*
X99547Y64363D01*
X99633Y64206D01*
X99647Y64189D01*
X99658Y64169D01*
X99776Y64033D01*
X99890Y63896D01*
X99908Y63882D01*
X99922Y63866D01*
X100064Y63756D01*
X100204Y63644D01*
X100224Y63634D01*
X100242Y63620D01*
X100537Y63469D01*
X100700Y63401D01*
X103406Y60695D01*
X104871Y57159D01*
X104871Y38091D01*
X103406Y34555D01*
X100700Y31849D01*
X98218Y30821D01*
X97164Y30384D01*
X93336Y30384D01*
G37*
%LPD*%
%LPC*%
G36*
X264786Y173259D02*
X264786Y173259D01*
X261250Y174724D01*
X258544Y177430D01*
X257079Y180966D01*
X257079Y200034D01*
X257535Y201134D01*
X257540Y201149D01*
X257547Y201163D01*
X257598Y201342D01*
X257651Y201519D01*
X257653Y201535D01*
X257657Y201550D01*
X257672Y201735D01*
X257690Y201920D01*
X257688Y201936D01*
X257689Y201951D01*
X257667Y202135D01*
X257648Y202321D01*
X257643Y202336D01*
X257641Y202351D01*
X257583Y202528D01*
X257528Y202705D01*
X257521Y202719D01*
X257516Y202734D01*
X257424Y202896D01*
X257335Y203058D01*
X257325Y203070D01*
X257317Y203084D01*
X257196Y203223D01*
X257076Y203366D01*
X257063Y203376D01*
X257053Y203388D01*
X256907Y203501D01*
X256761Y203617D01*
X256747Y203624D01*
X256735Y203634D01*
X256568Y203716D01*
X256403Y203801D01*
X256388Y203805D01*
X256374Y203812D01*
X256055Y203903D01*
X255661Y203982D01*
X254607Y204418D01*
X253659Y205052D01*
X252848Y205863D01*
X252842Y205874D01*
X252218Y206807D01*
X251924Y207519D01*
X257350Y207519D01*
X257367Y207520D01*
X257385Y207519D01*
X257568Y207540D01*
X257750Y207558D01*
X257767Y207564D01*
X257785Y207566D01*
X257960Y207623D01*
X258135Y207677D01*
X258151Y207685D01*
X258168Y207691D01*
X258328Y207781D01*
X258489Y207868D01*
X258503Y207880D01*
X258518Y207889D01*
X258658Y208009D01*
X258798Y208126D01*
X258799Y208126D01*
X258799Y208127D01*
X258810Y208140D01*
X258823Y208152D01*
X258824Y208152D01*
X258936Y208297D01*
X259051Y208440D01*
X259060Y208456D01*
X259070Y208470D01*
X259152Y208635D01*
X259237Y208798D01*
X259242Y208815D01*
X259250Y208831D01*
X259298Y209009D01*
X259348Y209185D01*
X259350Y209202D01*
X259354Y209220D01*
X259381Y209550D01*
X259381Y214976D01*
X260093Y214682D01*
X261041Y214048D01*
X261848Y213241D01*
X262482Y212293D01*
X262918Y211239D01*
X263141Y210120D01*
X263141Y209772D01*
X263143Y209754D01*
X263141Y209736D01*
X263162Y209554D01*
X263181Y209371D01*
X263186Y209354D01*
X263188Y209337D01*
X263245Y209162D01*
X263299Y208986D01*
X263307Y208971D01*
X263313Y208954D01*
X263403Y208794D01*
X263491Y208632D01*
X263502Y208619D01*
X263511Y208603D01*
X263631Y208464D01*
X263748Y208323D01*
X263762Y208312D01*
X263774Y208298D01*
X263919Y208186D01*
X264062Y208071D01*
X264078Y208063D01*
X264092Y208052D01*
X264257Y207970D01*
X264419Y207885D01*
X264436Y207880D01*
X264452Y207872D01*
X264631Y207825D01*
X264806Y207774D01*
X264824Y207772D01*
X264841Y207768D01*
X265172Y207741D01*
X268614Y207741D01*
X272150Y206276D01*
X274856Y203570D01*
X276321Y200034D01*
X276321Y180966D01*
X274856Y177430D01*
X272150Y174724D01*
X268614Y173259D01*
X264786Y173259D01*
G37*
%LPD*%
%LPC*%
G36*
X21081Y116331D02*
X21081Y116331D01*
X21081Y120462D01*
X21201Y120565D01*
X21346Y120686D01*
X21353Y120695D01*
X21362Y120703D01*
X21480Y120854D01*
X21598Y121001D01*
X21603Y121011D01*
X21610Y121020D01*
X21696Y121191D01*
X21783Y121358D01*
X21786Y121369D01*
X21791Y121379D01*
X21842Y121564D01*
X21893Y121745D01*
X21894Y121757D01*
X21897Y121768D01*
X21910Y121958D01*
X21926Y122147D01*
X21924Y122158D01*
X21925Y122169D01*
X21900Y122358D01*
X21878Y122546D01*
X21874Y122557D01*
X21873Y122569D01*
X21771Y122885D01*
X20859Y125086D01*
X20859Y128914D01*
X22324Y132450D01*
X25030Y135156D01*
X28566Y136621D01*
X47634Y136621D01*
X51170Y135156D01*
X53876Y132450D01*
X55341Y128914D01*
X55341Y125086D01*
X53876Y121550D01*
X51170Y118844D01*
X47634Y117379D01*
X28566Y117379D01*
X27473Y117832D01*
X27463Y117835D01*
X27453Y117840D01*
X27271Y117893D01*
X27088Y117948D01*
X27077Y117950D01*
X27066Y117953D01*
X26877Y117969D01*
X26687Y117987D01*
X26676Y117985D01*
X26665Y117986D01*
X26475Y117965D01*
X26287Y117945D01*
X26276Y117942D01*
X26265Y117940D01*
X26083Y117881D01*
X25902Y117825D01*
X25892Y117820D01*
X25882Y117816D01*
X25716Y117723D01*
X25549Y117632D01*
X25540Y117625D01*
X25531Y117619D01*
X25387Y117496D01*
X25241Y117373D01*
X25234Y117364D01*
X25225Y117357D01*
X25108Y117207D01*
X24990Y117058D01*
X24985Y117048D01*
X24978Y117039D01*
X24893Y116868D01*
X24806Y116700D01*
X24803Y116689D01*
X24798Y116679D01*
X24748Y116494D01*
X24702Y116331D01*
X21081Y116331D01*
G37*
%LPD*%
%LPC*%
G36*
X305497Y116331D02*
X305497Y116331D01*
X305495Y116360D01*
X305491Y116371D01*
X305490Y116382D01*
X305432Y116564D01*
X305376Y116745D01*
X305370Y116755D01*
X305367Y116765D01*
X305273Y116933D01*
X305183Y117099D01*
X305176Y117107D01*
X305170Y117117D01*
X305046Y117262D01*
X304925Y117407D01*
X304916Y117414D01*
X304909Y117423D01*
X304760Y117539D01*
X304610Y117659D01*
X304600Y117664D01*
X304592Y117671D01*
X304422Y117756D01*
X304253Y117844D01*
X304242Y117847D01*
X304232Y117852D01*
X304048Y117902D01*
X303865Y117954D01*
X303854Y117955D01*
X303844Y117958D01*
X303654Y117971D01*
X303464Y117986D01*
X303453Y117985D01*
X303442Y117986D01*
X303254Y117961D01*
X303064Y117939D01*
X303054Y117935D01*
X303043Y117934D01*
X302727Y117832D01*
X301634Y117379D01*
X282566Y117379D01*
X279030Y118844D01*
X276324Y121550D01*
X274859Y125086D01*
X274859Y128914D01*
X276324Y132450D01*
X279030Y135156D01*
X282566Y136621D01*
X301634Y136621D01*
X305170Y135156D01*
X307876Y132450D01*
X309341Y128914D01*
X309341Y125086D01*
X308429Y122885D01*
X308425Y122874D01*
X308420Y122864D01*
X308368Y122682D01*
X308312Y122499D01*
X308311Y122488D01*
X308308Y122477D01*
X308292Y122288D01*
X308274Y122098D01*
X308275Y122087D01*
X308274Y122076D01*
X308296Y121888D01*
X308316Y121698D01*
X308319Y121687D01*
X308320Y121676D01*
X308379Y121495D01*
X308436Y121314D01*
X308441Y121304D01*
X308444Y121293D01*
X308538Y121126D01*
X308629Y120960D01*
X308636Y120952D01*
X308642Y120942D01*
X308765Y120798D01*
X308888Y120652D01*
X308897Y120645D01*
X308904Y120637D01*
X309053Y120520D01*
X309119Y120468D01*
X309119Y116331D01*
X305497Y116331D01*
G37*
%LPD*%
%LPC*%
G36*
X239386Y173259D02*
X239386Y173259D01*
X235850Y174724D01*
X233144Y177430D01*
X231679Y180966D01*
X231679Y200034D01*
X233144Y203570D01*
X235850Y206276D01*
X239386Y207741D01*
X243214Y207741D01*
X246750Y206276D01*
X249456Y203570D01*
X250921Y200034D01*
X250921Y180966D01*
X249456Y177430D01*
X246750Y174724D01*
X243214Y173259D01*
X239386Y173259D01*
G37*
%LPD*%
%LPC*%
G36*
X308407Y191718D02*
X308407Y191718D01*
X307459Y192352D01*
X306652Y193159D01*
X305981Y194163D01*
X305977Y194168D01*
X305973Y194174D01*
X305850Y194323D01*
X305725Y194474D01*
X305720Y194478D01*
X305716Y194483D01*
X305564Y194605D01*
X305413Y194728D01*
X305407Y194731D01*
X305402Y194736D01*
X305230Y194825D01*
X305057Y194916D01*
X305050Y194918D01*
X305045Y194921D01*
X304858Y194975D01*
X304671Y195030D01*
X304664Y195031D01*
X304658Y195033D01*
X304462Y195049D01*
X304270Y195066D01*
X304263Y195065D01*
X304256Y195066D01*
X304062Y195043D01*
X303870Y195021D01*
X303863Y195019D01*
X303857Y195019D01*
X303671Y194958D01*
X303486Y194899D01*
X303480Y194896D01*
X303474Y194894D01*
X303304Y194798D01*
X303134Y194704D01*
X303129Y194699D01*
X303123Y194696D01*
X302976Y194568D01*
X302828Y194442D01*
X302824Y194437D01*
X302818Y194433D01*
X302700Y194279D01*
X302579Y194126D01*
X302576Y194120D01*
X302572Y194115D01*
X302485Y193940D01*
X302397Y193767D01*
X302395Y193760D01*
X302392Y193754D01*
X302342Y193565D01*
X302290Y193378D01*
X302290Y193372D01*
X302288Y193365D01*
X302261Y193039D01*
X292608Y193039D01*
X292590Y193037D01*
X292573Y193039D01*
X292390Y193018D01*
X292208Y192999D01*
X292191Y192994D01*
X292173Y192992D01*
X292095Y192967D01*
X291958Y193006D01*
X291940Y193008D01*
X291923Y193012D01*
X291592Y193039D01*
X281939Y193039D01*
X281939Y198920D01*
X282189Y200499D01*
X282684Y202020D01*
X283410Y203445D01*
X284350Y204739D01*
X285481Y205870D01*
X286775Y206810D01*
X288200Y207536D01*
X289721Y208031D01*
X290946Y208225D01*
X291004Y208240D01*
X291063Y208247D01*
X291198Y208291D01*
X291335Y208327D01*
X291389Y208353D01*
X291446Y208372D01*
X291570Y208441D01*
X291697Y208504D01*
X291745Y208540D01*
X291797Y208570D01*
X291904Y208662D01*
X292017Y208748D01*
X292056Y208793D01*
X292102Y208833D01*
X292188Y208945D01*
X292282Y209051D01*
X292312Y209103D01*
X292348Y209151D01*
X292411Y209278D01*
X292482Y209401D01*
X292501Y209457D01*
X292528Y209511D01*
X292564Y209648D01*
X292609Y209783D01*
X292617Y209842D01*
X292632Y209900D01*
X292644Y210043D01*
X292882Y211239D01*
X293318Y212293D01*
X293952Y213241D01*
X294759Y214048D01*
X295707Y214682D01*
X296419Y214976D01*
X296419Y209550D01*
X296420Y209533D01*
X296419Y209515D01*
X296440Y209332D01*
X296458Y209150D01*
X296464Y209133D01*
X296466Y209115D01*
X296523Y208940D01*
X296577Y208765D01*
X296585Y208749D01*
X296591Y208732D01*
X296681Y208572D01*
X296768Y208411D01*
X296780Y208397D01*
X296789Y208382D01*
X296909Y208242D01*
X297026Y208102D01*
X297026Y208101D01*
X297027Y208101D01*
X297040Y208090D01*
X297052Y208077D01*
X297052Y208076D01*
X297197Y207964D01*
X297340Y207849D01*
X297356Y207840D01*
X297370Y207830D01*
X297535Y207748D01*
X297698Y207663D01*
X297715Y207658D01*
X297731Y207650D01*
X297909Y207602D01*
X298085Y207552D01*
X298102Y207550D01*
X298120Y207546D01*
X298450Y207519D01*
X303876Y207519D01*
X303582Y206807D01*
X302948Y205859D01*
X302141Y205052D01*
X302024Y204973D01*
X301946Y204910D01*
X301863Y204854D01*
X301791Y204782D01*
X301713Y204718D01*
X301649Y204640D01*
X301579Y204569D01*
X301523Y204484D01*
X301458Y204406D01*
X301412Y204317D01*
X301356Y204234D01*
X301318Y204140D01*
X301270Y204049D01*
X301242Y203954D01*
X301204Y203861D01*
X301185Y203761D01*
X301156Y203663D01*
X301148Y203564D01*
X301129Y203466D01*
X301130Y203364D01*
X301121Y203262D01*
X301132Y203163D01*
X301133Y203063D01*
X301154Y202963D01*
X301165Y202862D01*
X301195Y202767D01*
X301216Y202669D01*
X301263Y202555D01*
X301287Y202478D01*
X301314Y202430D01*
X301342Y202362D01*
X301516Y202020D01*
X302011Y200499D01*
X302096Y199958D01*
X302108Y199913D01*
X302113Y199866D01*
X302159Y199718D01*
X302198Y199568D01*
X302219Y199527D01*
X302233Y199482D01*
X302307Y199346D01*
X302375Y199207D01*
X302404Y199170D01*
X302426Y199129D01*
X302526Y199010D01*
X302620Y198887D01*
X302655Y198856D01*
X302685Y198821D01*
X302806Y198724D01*
X302923Y198622D01*
X302963Y198599D01*
X303000Y198570D01*
X303138Y198499D01*
X303272Y198422D01*
X303317Y198407D01*
X303358Y198386D01*
X303507Y198344D01*
X303654Y198295D01*
X303701Y198289D01*
X303746Y198276D01*
X303900Y198264D01*
X304054Y198245D01*
X304100Y198249D01*
X304147Y198245D01*
X304301Y198264D01*
X304455Y198275D01*
X304500Y198288D01*
X304547Y198294D01*
X304694Y198342D01*
X304843Y198384D01*
X304885Y198405D01*
X304929Y198420D01*
X305063Y198497D01*
X305201Y198567D01*
X305238Y198596D01*
X305279Y198620D01*
X305396Y198721D01*
X305517Y198818D01*
X305547Y198853D01*
X305582Y198884D01*
X305677Y199007D01*
X305777Y199125D01*
X305799Y199166D01*
X305828Y199203D01*
X305942Y199426D01*
X305971Y199478D01*
X305974Y199488D01*
X305979Y199498D01*
X306018Y199593D01*
X306652Y200541D01*
X307459Y201348D01*
X308407Y201982D01*
X309119Y202276D01*
X309119Y196850D01*
X309119Y191424D01*
X308407Y191718D01*
G37*
%LPD*%
%LPC*%
G36*
X294639Y104139D02*
X294639Y104139D01*
X294639Y111761D01*
X300520Y111761D01*
X302099Y111511D01*
X302760Y111296D01*
X302890Y111267D01*
X303018Y111230D01*
X303087Y111225D01*
X303154Y111210D01*
X303287Y111208D01*
X303419Y111197D01*
X303487Y111204D01*
X303556Y111203D01*
X303687Y111227D01*
X303819Y111243D01*
X303885Y111264D01*
X303952Y111276D01*
X304076Y111326D01*
X304202Y111367D01*
X304262Y111400D01*
X304326Y111426D01*
X304438Y111499D01*
X304553Y111564D01*
X304605Y111609D01*
X304663Y111646D01*
X304758Y111740D01*
X304859Y111826D01*
X304901Y111881D01*
X304950Y111929D01*
X305024Y112039D01*
X305106Y112144D01*
X305137Y112205D01*
X305175Y112262D01*
X305178Y112269D01*
X309119Y112269D01*
X309119Y107419D01*
X309081Y107327D01*
X309031Y107231D01*
X309005Y107141D01*
X308970Y107054D01*
X308950Y106948D01*
X308920Y106844D01*
X308912Y106751D01*
X308895Y106659D01*
X308896Y106551D01*
X308887Y106442D01*
X308898Y106350D01*
X308899Y106256D01*
X308921Y106150D01*
X308934Y106043D01*
X308963Y105954D01*
X308982Y105863D01*
X309033Y105739D01*
X309059Y105660D01*
X309083Y105617D01*
X309108Y105556D01*
X309136Y105500D01*
X309579Y104139D01*
X294639Y104139D01*
G37*
%LPD*%
%LPC*%
G36*
X20621Y104139D02*
X20621Y104139D01*
X21064Y105500D01*
X21092Y105556D01*
X21126Y105643D01*
X21169Y105725D01*
X21199Y105830D01*
X21238Y105931D01*
X21254Y106023D01*
X21280Y106112D01*
X21289Y106220D01*
X21308Y106327D01*
X21305Y106421D01*
X21313Y106514D01*
X21300Y106621D01*
X21298Y106730D01*
X21277Y106821D01*
X21266Y106913D01*
X21233Y107016D01*
X21208Y107122D01*
X21170Y107207D01*
X21141Y107296D01*
X21088Y107391D01*
X21081Y107405D01*
X21081Y112269D01*
X25028Y112269D01*
X25060Y112200D01*
X25100Y112145D01*
X25133Y112084D01*
X25218Y111982D01*
X25297Y111875D01*
X25347Y111829D01*
X25391Y111776D01*
X25495Y111692D01*
X25593Y111603D01*
X25652Y111567D01*
X25706Y111524D01*
X25823Y111463D01*
X25938Y111394D01*
X26002Y111371D01*
X26063Y111339D01*
X26191Y111303D01*
X26316Y111258D01*
X26384Y111248D01*
X26450Y111229D01*
X26583Y111218D01*
X26715Y111199D01*
X26783Y111202D01*
X26852Y111197D01*
X26984Y111212D01*
X27117Y111219D01*
X27194Y111238D01*
X27252Y111244D01*
X27325Y111269D01*
X27440Y111296D01*
X28101Y111511D01*
X29680Y111761D01*
X35561Y111761D01*
X35561Y104139D01*
X20621Y104139D01*
G37*
%LPD*%
%LPC*%
G36*
X40639Y104139D02*
X40639Y104139D01*
X40639Y111761D01*
X46520Y111761D01*
X48099Y111511D01*
X49620Y111016D01*
X51045Y110290D01*
X52339Y109350D01*
X53470Y108219D01*
X54410Y106925D01*
X55136Y105500D01*
X55579Y104139D01*
X40639Y104139D01*
G37*
%LPD*%
%LPC*%
G36*
X224789Y50164D02*
X224789Y50164D01*
X224789Y65104D01*
X226150Y64661D01*
X227575Y63935D01*
X228869Y62995D01*
X230000Y61864D01*
X230940Y60570D01*
X231666Y59145D01*
X232161Y57624D01*
X232411Y56045D01*
X232411Y50164D01*
X224789Y50164D01*
G37*
%LPD*%
%LPC*%
G36*
X72389Y50164D02*
X72389Y50164D01*
X72389Y65104D01*
X73750Y64661D01*
X75175Y63935D01*
X76469Y62995D01*
X77600Y61864D01*
X78540Y60570D01*
X79266Y59145D01*
X79761Y57624D01*
X80011Y56045D01*
X80011Y50164D01*
X72389Y50164D01*
G37*
%LPD*%
%LPC*%
G36*
X224789Y45086D02*
X224789Y45086D01*
X232411Y45086D01*
X232411Y39205D01*
X232161Y37626D01*
X231666Y36105D01*
X230940Y34680D01*
X230000Y33386D01*
X228869Y32255D01*
X227575Y31315D01*
X226150Y30589D01*
X224789Y30146D01*
X224789Y45086D01*
G37*
%LPD*%
%LPC*%
G36*
X72389Y45086D02*
X72389Y45086D01*
X80011Y45086D01*
X80011Y39205D01*
X79761Y37626D01*
X79266Y36105D01*
X78540Y34680D01*
X77600Y33386D01*
X76469Y32255D01*
X75175Y31315D01*
X73750Y30589D01*
X72389Y30146D01*
X72389Y45086D01*
G37*
%LPD*%
%LPC*%
G36*
X274621Y104139D02*
X274621Y104139D01*
X275064Y105500D01*
X275790Y106925D01*
X276730Y108219D01*
X277861Y109350D01*
X279155Y110290D01*
X280580Y111016D01*
X282101Y111511D01*
X283680Y111761D01*
X289561Y111761D01*
X289561Y104139D01*
X274621Y104139D01*
G37*
%LPD*%
%LPC*%
G36*
X294639Y187961D02*
X294639Y187961D01*
X302261Y187961D01*
X302261Y182080D01*
X302011Y180501D01*
X301516Y178980D01*
X300790Y177555D01*
X299850Y176261D01*
X298719Y175130D01*
X297425Y174190D01*
X296000Y173464D01*
X294639Y173021D01*
X294639Y187961D01*
G37*
%LPD*%
%LPC*%
G36*
X212089Y50164D02*
X212089Y50164D01*
X212089Y56045D01*
X212339Y57624D01*
X212834Y59145D01*
X213560Y60570D01*
X214500Y61864D01*
X215631Y62995D01*
X216925Y63935D01*
X218350Y64661D01*
X219711Y65104D01*
X219711Y50164D01*
X212089Y50164D01*
G37*
%LPD*%
%LPC*%
G36*
X59689Y50164D02*
X59689Y50164D01*
X59689Y56045D01*
X59939Y57624D01*
X60434Y59145D01*
X61160Y60570D01*
X62100Y61864D01*
X63231Y62995D01*
X64525Y63935D01*
X65950Y64661D01*
X67311Y65104D01*
X67311Y50164D01*
X59689Y50164D01*
G37*
%LPD*%
%LPC*%
G36*
X294639Y91439D02*
X294639Y91439D01*
X294639Y99061D01*
X309579Y99061D01*
X309136Y97700D01*
X308410Y96275D01*
X307470Y94981D01*
X306339Y93850D01*
X305045Y92910D01*
X303620Y92184D01*
X302099Y91689D01*
X300520Y91439D01*
X294639Y91439D01*
G37*
%LPD*%
%LPC*%
G36*
X40639Y91439D02*
X40639Y91439D01*
X40639Y99061D01*
X55579Y99061D01*
X55136Y97700D01*
X54410Y96275D01*
X53470Y94981D01*
X52339Y93850D01*
X51045Y92910D01*
X49620Y92184D01*
X48099Y91689D01*
X46520Y91439D01*
X40639Y91439D01*
G37*
%LPD*%
%LPC*%
G36*
X29680Y91439D02*
X29680Y91439D01*
X28101Y91689D01*
X26580Y92184D01*
X25155Y92910D01*
X23861Y93850D01*
X22730Y94981D01*
X21790Y96275D01*
X21064Y97700D01*
X20621Y99061D01*
X35561Y99061D01*
X35561Y91439D01*
X29680Y91439D01*
G37*
%LPD*%
%LPC*%
G36*
X283680Y91439D02*
X283680Y91439D01*
X282101Y91689D01*
X280580Y92184D01*
X279155Y92910D01*
X277861Y93850D01*
X276730Y94981D01*
X275790Y96275D01*
X275064Y97700D01*
X274621Y99061D01*
X289561Y99061D01*
X289561Y91439D01*
X283680Y91439D01*
G37*
%LPD*%
%LPC*%
G36*
X65950Y30589D02*
X65950Y30589D01*
X64525Y31315D01*
X63231Y32255D01*
X62100Y33386D01*
X61160Y34680D01*
X60434Y36105D01*
X59939Y37626D01*
X59689Y39205D01*
X59689Y45086D01*
X67311Y45086D01*
X67311Y30146D01*
X65950Y30589D01*
G37*
%LPD*%
%LPC*%
G36*
X218350Y30589D02*
X218350Y30589D01*
X216925Y31315D01*
X215631Y32255D01*
X214500Y33386D01*
X213560Y34680D01*
X212834Y36105D01*
X212339Y37626D01*
X212089Y39205D01*
X212089Y45086D01*
X219711Y45086D01*
X219711Y30146D01*
X218350Y30589D01*
G37*
%LPD*%
%LPC*%
G36*
X288200Y173464D02*
X288200Y173464D01*
X286775Y174190D01*
X285481Y175130D01*
X284350Y176261D01*
X283410Y177555D01*
X282684Y178980D01*
X282189Y180501D01*
X281939Y182080D01*
X281939Y187961D01*
X289561Y187961D01*
X289561Y173021D01*
X288200Y173464D01*
G37*
%LPD*%
%LPC*%
G36*
X99249Y132519D02*
X99249Y132519D01*
X99249Y139061D01*
X104600Y139061D01*
X105246Y138888D01*
X105825Y138553D01*
X106298Y138080D01*
X106633Y137501D01*
X106806Y136855D01*
X106806Y132519D01*
X99249Y132519D01*
G37*
%LPD*%
%LPC*%
G36*
X99249Y124521D02*
X99249Y124521D01*
X106806Y124521D01*
X106806Y120185D01*
X106633Y119539D01*
X106298Y118960D01*
X105825Y118487D01*
X105246Y118152D01*
X104600Y117979D01*
X99249Y117979D01*
X99249Y124521D01*
G37*
%LPD*%
%LPC*%
G36*
X83694Y132519D02*
X83694Y132519D01*
X83694Y136855D01*
X83867Y137501D01*
X84202Y138080D01*
X84675Y138553D01*
X85254Y138888D01*
X85900Y139061D01*
X91251Y139061D01*
X91251Y132519D01*
X83694Y132519D01*
G37*
%LPD*%
%LPC*%
G36*
X85900Y117979D02*
X85900Y117979D01*
X85254Y118152D01*
X84675Y118487D01*
X84202Y118960D01*
X83867Y119539D01*
X83694Y120185D01*
X83694Y124521D01*
X91251Y124521D01*
X91251Y117979D01*
X85900Y117979D01*
G37*
%LPD*%
%LPC*%
G36*
X239524Y114549D02*
X239524Y114549D01*
X239524Y121341D01*
X243110Y121341D01*
X243756Y121168D01*
X244335Y120833D01*
X244808Y120360D01*
X245143Y119781D01*
X245316Y119135D01*
X245316Y114549D01*
X239524Y114549D01*
G37*
%LPD*%
%LPC*%
G36*
X239524Y101259D02*
X239524Y101259D01*
X239524Y108051D01*
X245316Y108051D01*
X245316Y103465D01*
X245143Y102819D01*
X244808Y102240D01*
X244335Y101767D01*
X243756Y101432D01*
X243110Y101259D01*
X239524Y101259D01*
G37*
%LPD*%
%LPC*%
G36*
X313181Y74881D02*
X313181Y74881D01*
X313181Y78276D01*
X313893Y77982D01*
X314841Y77348D01*
X315648Y76541D01*
X316282Y75593D01*
X316576Y74881D01*
X313181Y74881D01*
G37*
%LPD*%
%LPC*%
G36*
X21081Y75231D02*
X21081Y75231D01*
X21081Y78626D01*
X21793Y78332D01*
X22741Y77698D01*
X23548Y76891D01*
X24182Y75943D01*
X24476Y75231D01*
X21081Y75231D01*
G37*
%LPD*%
%LPC*%
G36*
X313181Y157781D02*
X313181Y157781D01*
X313181Y161176D01*
X313893Y160882D01*
X314841Y160248D01*
X315648Y159441D01*
X316282Y158493D01*
X316576Y157781D01*
X313181Y157781D01*
G37*
%LPD*%
%LPC*%
G36*
X21081Y157431D02*
X21081Y157431D01*
X21081Y160826D01*
X21793Y160532D01*
X22741Y159898D01*
X23548Y159091D01*
X24182Y158143D01*
X24476Y157431D01*
X21081Y157431D01*
G37*
%LPD*%
%LPC*%
G36*
X21081Y198881D02*
X21081Y198881D01*
X21081Y202276D01*
X21793Y201982D01*
X22741Y201348D01*
X23548Y200541D01*
X24182Y199593D01*
X24476Y198881D01*
X21081Y198881D01*
G37*
%LPD*%
%LPC*%
G36*
X167131Y211581D02*
X167131Y211581D01*
X167131Y214976D01*
X167843Y214682D01*
X168791Y214048D01*
X169598Y213241D01*
X170232Y212293D01*
X170526Y211581D01*
X167131Y211581D01*
G37*
%LPD*%
%LPC*%
G36*
X116331Y211581D02*
X116331Y211581D01*
X116331Y214976D01*
X117043Y214682D01*
X117991Y214048D01*
X118798Y213241D01*
X119432Y212293D01*
X119726Y211581D01*
X116331Y211581D01*
G37*
%LPD*%
%LPC*%
G36*
X300481Y211581D02*
X300481Y211581D01*
X300481Y214976D01*
X301193Y214682D01*
X302141Y214048D01*
X302948Y213241D01*
X303582Y212293D01*
X303876Y211581D01*
X300481Y211581D01*
G37*
%LPD*%
%LPC*%
G36*
X74881Y211581D02*
X74881Y211581D01*
X74881Y214976D01*
X75593Y214682D01*
X76541Y214048D01*
X77348Y213241D01*
X77982Y212293D01*
X78276Y211581D01*
X74881Y211581D01*
G37*
%LPD*%
%LPC*%
G36*
X33781Y211581D02*
X33781Y211581D01*
X33781Y214976D01*
X34493Y214682D01*
X35441Y214048D01*
X36248Y213241D01*
X36882Y212293D01*
X37176Y211581D01*
X33781Y211581D01*
G37*
%LPD*%
%LPC*%
G36*
X313181Y198881D02*
X313181Y198881D01*
X313181Y202276D01*
X313893Y201982D01*
X314841Y201348D01*
X315648Y200541D01*
X316282Y199593D01*
X316576Y198881D01*
X313181Y198881D01*
G37*
%LPD*%
%LPC*%
G36*
X313181Y116331D02*
X313181Y116331D01*
X313181Y119726D01*
X313893Y119432D01*
X314841Y118798D01*
X315648Y117991D01*
X316282Y117043D01*
X316576Y116331D01*
X313181Y116331D01*
G37*
%LPD*%
%LPC*%
G36*
X217931Y211581D02*
X217931Y211581D01*
X217931Y214976D01*
X218643Y214682D01*
X219591Y214048D01*
X220398Y213241D01*
X221032Y212293D01*
X221326Y211581D01*
X217931Y211581D01*
G37*
%LPD*%
%LPC*%
G36*
X259231Y21331D02*
X259231Y21331D01*
X259231Y24726D01*
X259943Y24432D01*
X260891Y23798D01*
X261698Y22991D01*
X262332Y22043D01*
X262626Y21331D01*
X259231Y21331D01*
G37*
%LPD*%
%LPC*%
G36*
X313181Y33781D02*
X313181Y33781D01*
X313181Y37176D01*
X313893Y36882D01*
X314841Y36248D01*
X315648Y35441D01*
X316282Y34493D01*
X316576Y33781D01*
X313181Y33781D01*
G37*
%LPD*%
%LPC*%
G36*
X21081Y33781D02*
X21081Y33781D01*
X21081Y37176D01*
X21793Y36882D01*
X22741Y36248D01*
X23548Y35441D01*
X24182Y34493D01*
X24476Y33781D01*
X21081Y33781D01*
G37*
%LPD*%
%LPC*%
G36*
X75381Y21081D02*
X75381Y21081D01*
X75381Y24476D01*
X76093Y24182D01*
X77041Y23548D01*
X77848Y22741D01*
X78482Y21793D01*
X78776Y21081D01*
X75381Y21081D01*
G37*
%LPD*%
%LPC*%
G36*
X116331Y21081D02*
X116331Y21081D01*
X116331Y24476D01*
X117043Y24182D01*
X117991Y23548D01*
X118798Y22741D01*
X119432Y21793D01*
X119726Y21081D01*
X116331Y21081D01*
G37*
%LPD*%
%LPC*%
G36*
X33781Y21081D02*
X33781Y21081D01*
X33781Y24476D01*
X34493Y24182D01*
X35441Y23548D01*
X36248Y22741D01*
X36882Y21793D01*
X37176Y21081D01*
X33781Y21081D01*
G37*
%LPD*%
%LPC*%
G36*
X167131Y21081D02*
X167131Y21081D01*
X167131Y24476D01*
X167843Y24182D01*
X168791Y23548D01*
X169598Y22741D01*
X170232Y21793D01*
X170526Y21081D01*
X167131Y21081D01*
G37*
%LPD*%
%LPC*%
G36*
X217931Y21081D02*
X217931Y21081D01*
X217931Y24476D01*
X218643Y24182D01*
X219591Y23548D01*
X220398Y22741D01*
X221032Y21793D01*
X221326Y21081D01*
X217931Y21081D01*
G37*
%LPD*%
%LPC*%
G36*
X300481Y21081D02*
X300481Y21081D01*
X300481Y24476D01*
X301193Y24182D01*
X302141Y23548D01*
X302948Y22741D01*
X303582Y21793D01*
X303876Y21081D01*
X300481Y21081D01*
G37*
%LPD*%
%LPC*%
G36*
X305724Y157781D02*
X305724Y157781D01*
X306018Y158493D01*
X306652Y159441D01*
X307459Y160248D01*
X308407Y160882D01*
X309023Y161137D01*
X309024Y161137D01*
X309119Y161176D01*
X309119Y157781D01*
X305724Y157781D01*
G37*
%LPD*%
%LPC*%
G36*
X13624Y157431D02*
X13624Y157431D01*
X13918Y158143D01*
X14552Y159091D01*
X15359Y159898D01*
X16307Y160532D01*
X17019Y160826D01*
X17019Y157431D01*
X13624Y157431D01*
G37*
%LPD*%
%LPC*%
G36*
X13624Y116331D02*
X13624Y116331D01*
X13918Y117043D01*
X14552Y117991D01*
X15359Y118798D01*
X16307Y119432D01*
X17019Y119726D01*
X17019Y116331D01*
X13624Y116331D01*
G37*
%LPD*%
%LPC*%
G36*
X159674Y211581D02*
X159674Y211581D01*
X159968Y212293D01*
X160602Y213241D01*
X161409Y214048D01*
X162357Y214682D01*
X163069Y214976D01*
X163069Y211581D01*
X159674Y211581D01*
G37*
%LPD*%
%LPC*%
G36*
X13624Y75231D02*
X13624Y75231D01*
X13918Y75943D01*
X14552Y76891D01*
X15359Y77698D01*
X16307Y78332D01*
X17019Y78626D01*
X17019Y75231D01*
X13624Y75231D01*
G37*
%LPD*%
%LPC*%
G36*
X305724Y74881D02*
X305724Y74881D01*
X306018Y75593D01*
X306652Y76541D01*
X307459Y77348D01*
X308407Y77982D01*
X309119Y78276D01*
X309119Y74881D01*
X305724Y74881D01*
G37*
%LPD*%
%LPC*%
G36*
X305724Y33781D02*
X305724Y33781D01*
X306018Y34493D01*
X306652Y35441D01*
X307459Y36248D01*
X308407Y36882D01*
X309119Y37176D01*
X309119Y33781D01*
X305724Y33781D01*
G37*
%LPD*%
%LPC*%
G36*
X13624Y33781D02*
X13624Y33781D01*
X13918Y34493D01*
X14552Y35441D01*
X15359Y36248D01*
X16307Y36882D01*
X17019Y37176D01*
X17019Y33781D01*
X13624Y33781D01*
G37*
%LPD*%
%LPC*%
G36*
X293024Y21081D02*
X293024Y21081D01*
X293318Y21793D01*
X293952Y22741D01*
X294759Y23548D01*
X295707Y24182D01*
X296419Y24476D01*
X296419Y21081D01*
X293024Y21081D01*
G37*
%LPD*%
%LPC*%
G36*
X251774Y21331D02*
X251774Y21331D01*
X252068Y22043D01*
X252702Y22991D01*
X253509Y23798D01*
X254457Y24432D01*
X255169Y24726D01*
X255169Y21331D01*
X251774Y21331D01*
G37*
%LPD*%
%LPC*%
G36*
X210474Y211581D02*
X210474Y211581D01*
X210768Y212293D01*
X211402Y213241D01*
X212209Y214048D01*
X213157Y214682D01*
X213869Y214976D01*
X213869Y211581D01*
X210474Y211581D01*
G37*
%LPD*%
%LPC*%
G36*
X108874Y211581D02*
X108874Y211581D01*
X109168Y212293D01*
X109802Y213241D01*
X110609Y214048D01*
X111557Y214682D01*
X112269Y214976D01*
X112269Y211581D01*
X108874Y211581D01*
G37*
%LPD*%
%LPC*%
G36*
X251924Y211581D02*
X251924Y211581D01*
X252218Y212293D01*
X252852Y213241D01*
X253659Y214048D01*
X254607Y214682D01*
X255319Y214976D01*
X255319Y211581D01*
X251924Y211581D01*
G37*
%LPD*%
%LPC*%
G36*
X26324Y211581D02*
X26324Y211581D01*
X26618Y212293D01*
X27252Y213241D01*
X28059Y214048D01*
X29007Y214682D01*
X29719Y214976D01*
X29719Y211581D01*
X26324Y211581D01*
G37*
%LPD*%
%LPC*%
G36*
X67424Y211581D02*
X67424Y211581D01*
X67718Y212293D01*
X68352Y213241D01*
X69159Y214048D01*
X70107Y214682D01*
X70819Y214976D01*
X70819Y211581D01*
X67424Y211581D01*
G37*
%LPD*%
%LPC*%
G36*
X13624Y198881D02*
X13624Y198881D01*
X13918Y199593D01*
X14552Y200541D01*
X15359Y201348D01*
X16307Y201982D01*
X17019Y202276D01*
X17019Y198881D01*
X13624Y198881D01*
G37*
%LPD*%
%LPC*%
G36*
X26324Y21081D02*
X26324Y21081D01*
X26618Y21793D01*
X27252Y22741D01*
X28059Y23548D01*
X29007Y24182D01*
X29719Y24476D01*
X29719Y21081D01*
X26324Y21081D01*
G37*
%LPD*%
%LPC*%
G36*
X67924Y21081D02*
X67924Y21081D01*
X68218Y21793D01*
X68852Y22741D01*
X69659Y23548D01*
X70607Y24182D01*
X71319Y24476D01*
X71319Y21081D01*
X67924Y21081D01*
G37*
%LPD*%
%LPC*%
G36*
X108874Y21081D02*
X108874Y21081D01*
X109168Y21793D01*
X109802Y22741D01*
X110609Y23548D01*
X111557Y24182D01*
X112269Y24476D01*
X112269Y21081D01*
X108874Y21081D01*
G37*
%LPD*%
%LPC*%
G36*
X159674Y21081D02*
X159674Y21081D01*
X159968Y21793D01*
X160602Y22741D01*
X161409Y23548D01*
X162357Y24182D01*
X163069Y24476D01*
X163069Y21081D01*
X159674Y21081D01*
G37*
%LPD*%
%LPC*%
G36*
X210474Y21081D02*
X210474Y21081D01*
X210768Y21793D01*
X211402Y22741D01*
X212209Y23548D01*
X213157Y24182D01*
X213869Y24476D01*
X213869Y21081D01*
X210474Y21081D01*
G37*
%LPD*%
%LPC*%
G36*
X116331Y207519D02*
X116331Y207519D01*
X119726Y207519D01*
X119432Y206807D01*
X118798Y205859D01*
X117991Y205052D01*
X117043Y204418D01*
X116331Y204124D01*
X116331Y207519D01*
G37*
%LPD*%
%LPC*%
G36*
X313181Y70819D02*
X313181Y70819D01*
X316576Y70819D01*
X316282Y70107D01*
X315648Y69159D01*
X314841Y68352D01*
X313893Y67718D01*
X313181Y67424D01*
X313181Y70819D01*
G37*
%LPD*%
%LPC*%
G36*
X74881Y207519D02*
X74881Y207519D01*
X78276Y207519D01*
X77982Y206807D01*
X77348Y205859D01*
X76541Y205052D01*
X75593Y204418D01*
X74881Y204124D01*
X74881Y207519D01*
G37*
%LPD*%
%LPC*%
G36*
X217931Y207519D02*
X217931Y207519D01*
X221326Y207519D01*
X221032Y206807D01*
X220398Y205859D01*
X219591Y205052D01*
X218643Y204418D01*
X217931Y204124D01*
X217931Y207519D01*
G37*
%LPD*%
%LPC*%
G36*
X33781Y207519D02*
X33781Y207519D01*
X37176Y207519D01*
X36882Y206807D01*
X36248Y205859D01*
X35441Y205052D01*
X34493Y204418D01*
X33781Y204124D01*
X33781Y207519D01*
G37*
%LPD*%
%LPC*%
G36*
X313181Y29719D02*
X313181Y29719D01*
X316576Y29719D01*
X316282Y29007D01*
X315648Y28059D01*
X314841Y27252D01*
X313893Y26618D01*
X313181Y26324D01*
X313181Y29719D01*
G37*
%LPD*%
%LPC*%
G36*
X167131Y207519D02*
X167131Y207519D01*
X170526Y207519D01*
X170232Y206807D01*
X169598Y205859D01*
X168791Y205052D01*
X167843Y204418D01*
X167131Y204124D01*
X167131Y207519D01*
G37*
%LPD*%
%LPC*%
G36*
X259231Y17269D02*
X259231Y17269D01*
X262626Y17269D01*
X262332Y16557D01*
X261698Y15609D01*
X260891Y14802D01*
X259943Y14168D01*
X259231Y13874D01*
X259231Y17269D01*
G37*
%LPD*%
%LPC*%
G36*
X21081Y153369D02*
X21081Y153369D01*
X24476Y153369D01*
X24182Y152657D01*
X23548Y151709D01*
X22741Y150902D01*
X21793Y150268D01*
X21081Y149974D01*
X21081Y153369D01*
G37*
%LPD*%
%LPC*%
G36*
X167131Y17019D02*
X167131Y17019D01*
X170526Y17019D01*
X170232Y16307D01*
X169598Y15359D01*
X168791Y14552D01*
X167843Y13918D01*
X167131Y13624D01*
X167131Y17019D01*
G37*
%LPD*%
%LPC*%
G36*
X21081Y29719D02*
X21081Y29719D01*
X24476Y29719D01*
X24182Y29007D01*
X23548Y28059D01*
X22741Y27252D01*
X21793Y26618D01*
X21081Y26324D01*
X21081Y29719D01*
G37*
%LPD*%
%LPC*%
G36*
X300481Y17019D02*
X300481Y17019D01*
X303876Y17019D01*
X303582Y16307D01*
X302948Y15359D01*
X302141Y14552D01*
X301193Y13918D01*
X300481Y13624D01*
X300481Y17019D01*
G37*
%LPD*%
%LPC*%
G36*
X313181Y153719D02*
X313181Y153719D01*
X316576Y153719D01*
X316282Y153007D01*
X315648Y152059D01*
X314841Y151252D01*
X313893Y150618D01*
X313181Y150324D01*
X313181Y153719D01*
G37*
%LPD*%
%LPC*%
G36*
X217931Y17019D02*
X217931Y17019D01*
X221326Y17019D01*
X221032Y16307D01*
X220398Y15359D01*
X219591Y14552D01*
X218643Y13918D01*
X217931Y13624D01*
X217931Y17019D01*
G37*
%LPD*%
%LPC*%
G36*
X116331Y17019D02*
X116331Y17019D01*
X119726Y17019D01*
X119432Y16307D01*
X118798Y15359D01*
X117991Y14552D01*
X117043Y13918D01*
X116331Y13624D01*
X116331Y17019D01*
G37*
%LPD*%
%LPC*%
G36*
X313181Y194819D02*
X313181Y194819D01*
X316576Y194819D01*
X316282Y194107D01*
X315648Y193159D01*
X314841Y192352D01*
X313893Y191718D01*
X313181Y191424D01*
X313181Y194819D01*
G37*
%LPD*%
%LPC*%
G36*
X313181Y112269D02*
X313181Y112269D01*
X316576Y112269D01*
X316282Y111557D01*
X315648Y110609D01*
X314841Y109802D01*
X313893Y109168D01*
X313181Y108874D01*
X313181Y112269D01*
G37*
%LPD*%
%LPC*%
G36*
X21081Y194819D02*
X21081Y194819D01*
X24476Y194819D01*
X24182Y194107D01*
X23548Y193159D01*
X22741Y192352D01*
X21793Y191718D01*
X21081Y191424D01*
X21081Y194819D01*
G37*
%LPD*%
%LPC*%
G36*
X75381Y17019D02*
X75381Y17019D01*
X78776Y17019D01*
X78482Y16307D01*
X77848Y15359D01*
X77041Y14552D01*
X76093Y13918D01*
X75381Y13624D01*
X75381Y17019D01*
G37*
%LPD*%
%LPC*%
G36*
X33781Y17019D02*
X33781Y17019D01*
X37176Y17019D01*
X36882Y16307D01*
X36248Y15359D01*
X35441Y14552D01*
X34493Y13918D01*
X33781Y13624D01*
X33781Y17019D01*
G37*
%LPD*%
%LPC*%
G36*
X21081Y71169D02*
X21081Y71169D01*
X24476Y71169D01*
X24182Y70457D01*
X23548Y69509D01*
X22741Y68702D01*
X21793Y68068D01*
X21081Y67774D01*
X21081Y71169D01*
G37*
%LPD*%
%LPC*%
G36*
X162357Y204418D02*
X162357Y204418D01*
X161409Y205052D01*
X160602Y205859D01*
X159968Y206807D01*
X159674Y207519D01*
X163069Y207519D01*
X163069Y204124D01*
X162357Y204418D01*
G37*
%LPD*%
%LPC*%
G36*
X70107Y204418D02*
X70107Y204418D01*
X69159Y205052D01*
X68352Y205859D01*
X67718Y206807D01*
X67424Y207519D01*
X70819Y207519D01*
X70819Y204124D01*
X70107Y204418D01*
G37*
%LPD*%
%LPC*%
G36*
X213157Y204418D02*
X213157Y204418D01*
X212209Y205052D01*
X211402Y205859D01*
X210768Y206807D01*
X210474Y207519D01*
X213869Y207519D01*
X213869Y204124D01*
X213157Y204418D01*
G37*
%LPD*%
%LPC*%
G36*
X16307Y150268D02*
X16307Y150268D01*
X15359Y150902D01*
X14552Y151709D01*
X13918Y152657D01*
X13624Y153369D01*
X17019Y153369D01*
X17019Y149974D01*
X16307Y150268D01*
G37*
%LPD*%
%LPC*%
G36*
X16307Y26618D02*
X16307Y26618D01*
X15359Y27252D01*
X14552Y28059D01*
X13918Y29007D01*
X13624Y29719D01*
X17019Y29719D01*
X17019Y26324D01*
X16307Y26618D01*
G37*
%LPD*%
%LPC*%
G36*
X308407Y26618D02*
X308407Y26618D01*
X307459Y27252D01*
X306652Y28059D01*
X306018Y29007D01*
X305724Y29719D01*
X309119Y29719D01*
X309119Y26324D01*
X308407Y26618D01*
G37*
%LPD*%
%LPC*%
G36*
X29007Y204418D02*
X29007Y204418D01*
X28059Y205052D01*
X27252Y205859D01*
X26618Y206807D01*
X26324Y207519D01*
X29719Y207519D01*
X29719Y204124D01*
X29007Y204418D01*
G37*
%LPD*%
%LPC*%
G36*
X308407Y150618D02*
X308407Y150618D01*
X307459Y151252D01*
X306652Y152059D01*
X306018Y153007D01*
X305724Y153719D01*
X309119Y153719D01*
X309119Y150324D01*
X308407Y150618D01*
G37*
%LPD*%
%LPC*%
G36*
X16307Y109168D02*
X16307Y109168D01*
X15359Y109802D01*
X14552Y110609D01*
X13918Y111557D01*
X13624Y112269D01*
X17019Y112269D01*
X17019Y108874D01*
X16307Y109168D01*
G37*
%LPD*%
%LPC*%
G36*
X16307Y68068D02*
X16307Y68068D01*
X15359Y68702D01*
X14552Y69509D01*
X13918Y70457D01*
X13624Y71169D01*
X17019Y71169D01*
X17019Y67774D01*
X16307Y68068D01*
G37*
%LPD*%
%LPC*%
G36*
X16307Y191718D02*
X16307Y191718D01*
X15359Y192352D01*
X14552Y193159D01*
X13918Y194107D01*
X13624Y194819D01*
X17019Y194819D01*
X17019Y191424D01*
X16307Y191718D01*
G37*
%LPD*%
%LPC*%
G36*
X295707Y13918D02*
X295707Y13918D01*
X294759Y14552D01*
X293952Y15359D01*
X293318Y16307D01*
X293024Y17019D01*
X296419Y17019D01*
X296419Y13624D01*
X295707Y13918D01*
G37*
%LPD*%
%LPC*%
G36*
X308407Y67718D02*
X308407Y67718D01*
X307459Y68352D01*
X306652Y69159D01*
X306018Y70107D01*
X305724Y70819D01*
X309119Y70819D01*
X309119Y67424D01*
X308407Y67718D01*
G37*
%LPD*%
%LPC*%
G36*
X162357Y13918D02*
X162357Y13918D01*
X161409Y14552D01*
X160602Y15359D01*
X159968Y16307D01*
X159674Y17019D01*
X163069Y17019D01*
X163069Y13624D01*
X162357Y13918D01*
G37*
%LPD*%
%LPC*%
G36*
X254457Y14168D02*
X254457Y14168D01*
X253509Y14802D01*
X252702Y15609D01*
X252068Y16557D01*
X251774Y17269D01*
X255169Y17269D01*
X255169Y13874D01*
X254457Y14168D01*
G37*
%LPD*%
%LPC*%
G36*
X111557Y13918D02*
X111557Y13918D01*
X110609Y14552D01*
X109802Y15359D01*
X109168Y16307D01*
X108874Y17019D01*
X112269Y17019D01*
X112269Y13624D01*
X111557Y13918D01*
G37*
%LPD*%
%LPC*%
G36*
X111557Y204418D02*
X111557Y204418D01*
X110609Y205052D01*
X109802Y205859D01*
X109168Y206807D01*
X108874Y207519D01*
X112269Y207519D01*
X112269Y204124D01*
X111557Y204418D01*
G37*
%LPD*%
%LPC*%
G36*
X70607Y13918D02*
X70607Y13918D01*
X69659Y14552D01*
X68852Y15359D01*
X68218Y16307D01*
X67924Y17019D01*
X71319Y17019D01*
X71319Y13624D01*
X70607Y13918D01*
G37*
%LPD*%
%LPC*%
G36*
X213157Y13918D02*
X213157Y13918D01*
X212209Y14552D01*
X211402Y15359D01*
X210768Y16307D01*
X210474Y17019D01*
X213869Y17019D01*
X213869Y13624D01*
X213157Y13918D01*
G37*
%LPD*%
%LPC*%
G36*
X29007Y13918D02*
X29007Y13918D01*
X28059Y14552D01*
X27252Y15359D01*
X26618Y16307D01*
X26324Y17019D01*
X29719Y17019D01*
X29719Y13624D01*
X29007Y13918D01*
G37*
%LPD*%
D10*
X186600Y98300D03*
X186600Y104800D03*
X186600Y111300D03*
X186600Y117800D03*
X186600Y124300D03*
X186600Y130800D03*
X144600Y130900D03*
X144600Y124400D03*
X144600Y117900D03*
X144600Y111400D03*
X144600Y104900D03*
X144600Y98400D03*
D11*
X165600Y114800D03*
D12*
X165100Y106800D03*
X165100Y121800D03*
D13*
X236275Y111300D03*
X217275Y111300D03*
D14*
X45720Y101600D02*
X30480Y101600D01*
X30480Y127000D02*
X45720Y127000D01*
X284480Y101600D02*
X299720Y101600D01*
X299720Y127000D02*
X284480Y127000D01*
X292100Y182880D02*
X292100Y198120D01*
X266700Y198120D02*
X266700Y182880D01*
X241300Y182880D02*
X241300Y198120D01*
X222250Y55245D02*
X222250Y40005D01*
X196850Y40005D02*
X196850Y55245D01*
X69850Y55245D02*
X69850Y40005D01*
X95250Y40005D02*
X95250Y55245D01*
X120650Y55245D02*
X120650Y40005D01*
D15*
X95250Y128520D03*
X95250Y100080D03*
D16*
X120650Y133350D03*
D17*
X123100Y130900D02*
X144600Y130900D01*
X123100Y130900D02*
X120650Y133350D01*
D16*
X120650Y120650D03*
D17*
X123400Y117900D02*
X144600Y117900D01*
X123400Y117900D02*
X120650Y120650D01*
D16*
X31750Y19050D03*
X19050Y31750D03*
X19050Y196850D03*
X298450Y209550D03*
X31750Y209550D03*
X311150Y196850D03*
X311150Y31750D03*
X298450Y19050D03*
X311150Y114300D03*
X19050Y114300D03*
X19050Y73200D03*
X19050Y155400D03*
X311150Y155750D03*
X311150Y72850D03*
X257200Y19300D03*
X215900Y19050D03*
X215900Y209550D03*
X257350Y209550D03*
X72850Y209550D03*
X114300Y209550D03*
X73350Y19050D03*
X114300Y19050D03*
D18*
X165600Y114800D02*
X165600Y145550D01*
D17*
X165100Y146050D01*
D18*
X165600Y114800D02*
X165100Y114300D01*
X165100Y88900D01*
D16*
X165100Y209550D03*
X165100Y19050D03*
D17*
X144600Y104900D02*
X133350Y104900D01*
D16*
X133350Y101600D03*
D17*
X133350Y98400D02*
X144600Y98400D01*
X133350Y98400D02*
X133350Y101600D01*
X133350Y104900D01*
X186600Y117800D02*
X196850Y117800D01*
X196850Y124300D02*
X186600Y124300D01*
X196850Y124300D02*
X196850Y120650D01*
X196850Y117800D01*
D16*
X196850Y120650D03*
D17*
X196850Y104800D02*
X186600Y104800D01*
X186600Y98300D02*
X196850Y98300D01*
X196850Y104800D01*
X196850Y98300D02*
X196850Y47625D01*
X120650Y47625D01*
D16*
X120650Y88900D03*
D17*
X120650Y107950D01*
X124100Y111400D01*
X144600Y111400D01*
X186600Y111300D02*
X217275Y111300D01*
D16*
X215900Y133350D03*
D17*
X213350Y130800D02*
X186600Y130800D01*
X213350Y130800D02*
X215900Y133350D01*
X95250Y100080D02*
X95250Y47625D01*
M02*
