M48
;GenerationSoftware,Autodesk,EAGLE,9.0.0*%
;CreationDate,2018-05-01T19:04:03Z*%
FMAT,2
ICI,OFF
METRIC,TZ,000.000
T3C0.300
T2C0.350
T1C1.016
%
G90
M71
T1
X24130Y19050
X3810Y10160
X3810Y12700
X29210Y10160
X29210Y12700
X29210Y19050
X26670Y19050
X22225Y4763
X19685Y4763
X6985Y4763
X9525Y4763
X12065Y4763
T2
X1905Y7320
X1905Y15540
X31115Y15575
X31115Y7285
X25720Y1930
X21590Y1905
X21590Y20955
X25735Y20955
X7285Y20955
X11430Y20955
X29845Y20955
X11430Y1905
X16510Y20955
X16510Y1905
X13335Y10160
X19685Y12065
X12065Y8890
X21590Y13335
X12065Y13335
X12065Y12065
X3175Y1905
X1905Y3175
X1905Y19685
X3175Y20955
X7335Y1905
X31115Y19685
X31115Y3175
X29845Y1905
X31115Y11430
X1905Y11430
T3
X16510Y10680
X16510Y12180
M30