G75*
%MOIN*%
%OFA0B0*%
%FSLAX25Y25*%
%IPPOS*%
%LPD*%
%AMOC8*
5,1,8,0,0,1.08239X$1,22.5*
%
%ADD10C,0.00394*%
%ADD11C,0.00400*%
%ADD12C,0.00300*%
%ADD13C,0.00500*%
%ADD14C,0.00600*%
D10*
X0014300Y0023933D02*
X0014001Y0023931D01*
X0013702Y0023936D01*
X0013403Y0023949D01*
X0013105Y0023969D01*
X0012807Y0023996D01*
X0012510Y0024030D01*
X0012214Y0024072D01*
X0011919Y0024121D01*
X0011625Y0024177D01*
X0011333Y0024240D01*
X0011042Y0024310D01*
X0010753Y0024388D01*
X0010466Y0024472D01*
X0010181Y0024563D01*
X0009899Y0024661D01*
X0009619Y0024766D01*
X0009342Y0024878D01*
X0009067Y0024997D01*
X0008796Y0025122D01*
X0008527Y0025254D01*
X0008262Y0025392D01*
X0008000Y0025537D01*
X0007742Y0025688D01*
X0007488Y0025845D01*
X0007237Y0026009D01*
X0006991Y0026178D01*
X0006749Y0026353D01*
X0006511Y0026535D01*
X0006278Y0026722D01*
X0006049Y0026914D01*
X0005825Y0027113D01*
X0005606Y0027316D01*
X0005392Y0027525D01*
X0005183Y0027739D01*
X0004980Y0027958D01*
X0004781Y0028182D01*
X0004589Y0028411D01*
X0004402Y0028644D01*
X0004220Y0028882D01*
X0004045Y0029124D01*
X0003876Y0029370D01*
X0003712Y0029621D01*
X0003555Y0029875D01*
X0003404Y0030133D01*
X0003259Y0030395D01*
X0003121Y0030660D01*
X0002989Y0030929D01*
X0002864Y0031200D01*
X0002745Y0031475D01*
X0002633Y0031752D01*
X0002528Y0032032D01*
X0002430Y0032314D01*
X0002339Y0032599D01*
X0002255Y0032886D01*
X0002177Y0033175D01*
X0002107Y0033466D01*
X0002044Y0033758D01*
X0001988Y0034052D01*
X0001939Y0034347D01*
X0001897Y0034643D01*
X0001863Y0034940D01*
X0001836Y0035238D01*
X0001816Y0035536D01*
X0001803Y0035835D01*
X0001798Y0036134D01*
X0001800Y0036433D01*
X0001800Y0101433D02*
X0001798Y0101732D01*
X0001803Y0102031D01*
X0001816Y0102330D01*
X0001836Y0102628D01*
X0001863Y0102926D01*
X0001897Y0103223D01*
X0001939Y0103519D01*
X0001988Y0103814D01*
X0002044Y0104108D01*
X0002107Y0104400D01*
X0002177Y0104691D01*
X0002255Y0104980D01*
X0002339Y0105267D01*
X0002430Y0105552D01*
X0002528Y0105834D01*
X0002633Y0106114D01*
X0002745Y0106391D01*
X0002864Y0106666D01*
X0002989Y0106937D01*
X0003121Y0107206D01*
X0003259Y0107471D01*
X0003404Y0107733D01*
X0003555Y0107991D01*
X0003712Y0108245D01*
X0003876Y0108496D01*
X0004045Y0108742D01*
X0004220Y0108984D01*
X0004402Y0109222D01*
X0004589Y0109455D01*
X0004781Y0109684D01*
X0004980Y0109908D01*
X0005183Y0110127D01*
X0005392Y0110341D01*
X0005606Y0110550D01*
X0005825Y0110753D01*
X0006049Y0110952D01*
X0006278Y0111144D01*
X0006511Y0111331D01*
X0006749Y0111513D01*
X0006991Y0111688D01*
X0007237Y0111857D01*
X0007488Y0112021D01*
X0007742Y0112178D01*
X0008000Y0112329D01*
X0008262Y0112474D01*
X0008527Y0112612D01*
X0008796Y0112744D01*
X0009067Y0112869D01*
X0009342Y0112988D01*
X0009619Y0113100D01*
X0009899Y0113205D01*
X0010181Y0113303D01*
X0010466Y0113394D01*
X0010753Y0113478D01*
X0011042Y0113556D01*
X0011333Y0113626D01*
X0011625Y0113689D01*
X0011919Y0113745D01*
X0012214Y0113794D01*
X0012510Y0113836D01*
X0012807Y0113870D01*
X0013105Y0113897D01*
X0013403Y0113917D01*
X0013702Y0113930D01*
X0014001Y0113935D01*
X0014300Y0113933D01*
X0119300Y0113933D02*
X0119599Y0113935D01*
X0119898Y0113930D01*
X0120197Y0113917D01*
X0120495Y0113897D01*
X0120793Y0113870D01*
X0121090Y0113836D01*
X0121386Y0113794D01*
X0121681Y0113745D01*
X0121975Y0113689D01*
X0122267Y0113626D01*
X0122558Y0113556D01*
X0122847Y0113478D01*
X0123134Y0113394D01*
X0123419Y0113303D01*
X0123701Y0113205D01*
X0123981Y0113100D01*
X0124258Y0112988D01*
X0124533Y0112869D01*
X0124804Y0112744D01*
X0125073Y0112612D01*
X0125338Y0112474D01*
X0125600Y0112329D01*
X0125858Y0112178D01*
X0126112Y0112021D01*
X0126363Y0111857D01*
X0126609Y0111688D01*
X0126851Y0111513D01*
X0127089Y0111331D01*
X0127322Y0111144D01*
X0127551Y0110952D01*
X0127775Y0110753D01*
X0127994Y0110550D01*
X0128208Y0110341D01*
X0128417Y0110127D01*
X0128620Y0109908D01*
X0128819Y0109684D01*
X0129011Y0109455D01*
X0129198Y0109222D01*
X0129380Y0108984D01*
X0129555Y0108742D01*
X0129724Y0108496D01*
X0129888Y0108245D01*
X0130045Y0107991D01*
X0130196Y0107733D01*
X0130341Y0107471D01*
X0130479Y0107206D01*
X0130611Y0106937D01*
X0130736Y0106666D01*
X0130855Y0106391D01*
X0130967Y0106114D01*
X0131072Y0105834D01*
X0131170Y0105552D01*
X0131261Y0105267D01*
X0131345Y0104980D01*
X0131423Y0104691D01*
X0131493Y0104400D01*
X0131556Y0104108D01*
X0131612Y0103814D01*
X0131661Y0103519D01*
X0131703Y0103223D01*
X0131737Y0102926D01*
X0131764Y0102628D01*
X0131784Y0102330D01*
X0131797Y0102031D01*
X0131802Y0101732D01*
X0131800Y0101433D01*
X0131800Y0036433D02*
X0131802Y0036134D01*
X0131797Y0035835D01*
X0131784Y0035536D01*
X0131764Y0035238D01*
X0131737Y0034940D01*
X0131703Y0034643D01*
X0131661Y0034347D01*
X0131612Y0034052D01*
X0131556Y0033758D01*
X0131493Y0033466D01*
X0131423Y0033175D01*
X0131345Y0032886D01*
X0131261Y0032599D01*
X0131170Y0032314D01*
X0131072Y0032032D01*
X0130967Y0031752D01*
X0130855Y0031475D01*
X0130736Y0031200D01*
X0130611Y0030929D01*
X0130479Y0030660D01*
X0130341Y0030395D01*
X0130196Y0030133D01*
X0130045Y0029875D01*
X0129888Y0029621D01*
X0129724Y0029370D01*
X0129555Y0029124D01*
X0129380Y0028882D01*
X0129198Y0028644D01*
X0129011Y0028411D01*
X0128819Y0028182D01*
X0128620Y0027958D01*
X0128417Y0027739D01*
X0128208Y0027525D01*
X0127994Y0027316D01*
X0127775Y0027113D01*
X0127551Y0026914D01*
X0127322Y0026722D01*
X0127089Y0026535D01*
X0126851Y0026353D01*
X0126609Y0026178D01*
X0126363Y0026009D01*
X0126112Y0025845D01*
X0125858Y0025688D01*
X0125600Y0025537D01*
X0125338Y0025392D01*
X0125073Y0025254D01*
X0124804Y0025122D01*
X0124533Y0024997D01*
X0124258Y0024878D01*
X0123981Y0024766D01*
X0123701Y0024661D01*
X0123419Y0024563D01*
X0123134Y0024472D01*
X0122847Y0024388D01*
X0122558Y0024310D01*
X0122267Y0024240D01*
X0121975Y0024177D01*
X0121681Y0024121D01*
X0121386Y0024072D01*
X0121090Y0024030D01*
X0120793Y0023996D01*
X0120495Y0023969D01*
X0120197Y0023949D01*
X0119898Y0023936D01*
X0119599Y0023931D01*
X0119300Y0023933D01*
D11*
X0014300Y0023933D01*
X0001800Y0036433D02*
X0001800Y0101433D01*
X0014300Y0113933D02*
X0119300Y0113933D01*
X0131800Y0101433D02*
X0131800Y0036433D01*
D12*
X0108919Y0066214D02*
X0105281Y0065002D01*
X0105281Y0067427D02*
X0108919Y0066214D01*
X0108919Y0068645D02*
X0108919Y0069453D01*
X0108919Y0069049D02*
X0105281Y0069049D01*
X0105281Y0068645D02*
X0105281Y0069453D01*
X0105281Y0070992D02*
X0108919Y0073012D01*
X0105281Y0073012D01*
X0105281Y0070992D02*
X0108919Y0070992D01*
X0102901Y0094615D02*
X0100880Y0094615D01*
X0102598Y0096635D01*
X0101992Y0098251D02*
X0101925Y0098249D01*
X0101859Y0098243D01*
X0101793Y0098234D01*
X0101727Y0098221D01*
X0101663Y0098204D01*
X0101599Y0098183D01*
X0101537Y0098159D01*
X0101476Y0098131D01*
X0101417Y0098100D01*
X0101360Y0098065D01*
X0101305Y0098028D01*
X0101252Y0097987D01*
X0101202Y0097943D01*
X0101154Y0097897D01*
X0101109Y0097847D01*
X0101067Y0097796D01*
X0101027Y0097742D01*
X0100991Y0097685D01*
X0100959Y0097627D01*
X0100929Y0097567D01*
X0100903Y0097506D01*
X0100881Y0097443D01*
X0102598Y0096635D02*
X0102641Y0096678D01*
X0102680Y0096724D01*
X0102717Y0096772D01*
X0102751Y0096823D01*
X0102782Y0096875D01*
X0102810Y0096929D01*
X0102834Y0096985D01*
X0102854Y0097043D01*
X0102871Y0097101D01*
X0102884Y0097160D01*
X0102893Y0097221D01*
X0102899Y0097281D01*
X0102901Y0097342D01*
X0102899Y0097401D01*
X0102893Y0097461D01*
X0102884Y0097519D01*
X0102870Y0097577D01*
X0102853Y0097634D01*
X0102832Y0097690D01*
X0102807Y0097744D01*
X0102779Y0097797D01*
X0102748Y0097847D01*
X0102713Y0097895D01*
X0102675Y0097941D01*
X0102635Y0097985D01*
X0102591Y0098025D01*
X0102545Y0098063D01*
X0102497Y0098098D01*
X0102447Y0098129D01*
X0102394Y0098157D01*
X0102340Y0098182D01*
X0102284Y0098203D01*
X0102227Y0098220D01*
X0102169Y0098234D01*
X0102111Y0098243D01*
X0102051Y0098249D01*
X0101992Y0098251D01*
X0099534Y0098252D02*
X0098726Y0098252D01*
X0098726Y0098251D02*
X0098671Y0098249D01*
X0098616Y0098243D01*
X0098562Y0098234D01*
X0098508Y0098221D01*
X0098455Y0098204D01*
X0098404Y0098184D01*
X0098354Y0098160D01*
X0098306Y0098133D01*
X0098260Y0098103D01*
X0098216Y0098070D01*
X0098174Y0098034D01*
X0098135Y0097994D01*
X0098099Y0097953D01*
X0098066Y0097909D01*
X0098036Y0097863D01*
X0098009Y0097815D01*
X0097985Y0097765D01*
X0097965Y0097714D01*
X0097948Y0097661D01*
X0097935Y0097607D01*
X0097926Y0097553D01*
X0097920Y0097498D01*
X0097918Y0097443D01*
X0097918Y0095423D01*
X0097920Y0095368D01*
X0097926Y0095313D01*
X0097935Y0095259D01*
X0097948Y0095205D01*
X0097965Y0095152D01*
X0097985Y0095101D01*
X0098009Y0095051D01*
X0098036Y0095003D01*
X0098066Y0094957D01*
X0098099Y0094913D01*
X0098135Y0094871D01*
X0098174Y0094832D01*
X0098216Y0094796D01*
X0098260Y0094763D01*
X0098306Y0094733D01*
X0098354Y0094706D01*
X0098404Y0094682D01*
X0098455Y0094662D01*
X0098508Y0094645D01*
X0098562Y0094632D01*
X0098616Y0094623D01*
X0098671Y0094617D01*
X0098726Y0094615D01*
X0099534Y0094615D01*
X0096507Y0094615D02*
X0095699Y0094615D01*
X0096103Y0094615D02*
X0096103Y0098252D01*
X0095699Y0098252D02*
X0096507Y0098252D01*
X0043375Y0087115D02*
X0041354Y0087115D01*
X0042364Y0087115D02*
X0042364Y0090752D01*
X0041354Y0089943D01*
X0038566Y0089539D02*
X0037758Y0087115D01*
X0036950Y0089539D01*
X0039783Y0087317D02*
X0039985Y0087317D01*
X0039985Y0087115D01*
X0039783Y0087115D01*
X0039783Y0087317D01*
X0031559Y0087115D02*
X0031559Y0088933D01*
X0031558Y0088933D02*
X0031556Y0088981D01*
X0031551Y0089028D01*
X0031541Y0089074D01*
X0031528Y0089120D01*
X0031512Y0089165D01*
X0031492Y0089208D01*
X0031469Y0089250D01*
X0031442Y0089289D01*
X0031413Y0089327D01*
X0031381Y0089362D01*
X0031346Y0089394D01*
X0031308Y0089423D01*
X0031269Y0089450D01*
X0031227Y0089473D01*
X0031184Y0089493D01*
X0031139Y0089509D01*
X0031093Y0089522D01*
X0031047Y0089532D01*
X0031000Y0089537D01*
X0030952Y0089539D01*
X0029942Y0089539D01*
X0029942Y0090752D02*
X0029942Y0087115D01*
X0028694Y0089135D02*
X0028694Y0089539D01*
X0027482Y0089539D01*
X0027482Y0087115D01*
X0025199Y0087115D02*
X0026007Y0089539D01*
X0024391Y0089539D02*
X0025199Y0087115D01*
X0023055Y0087923D02*
X0023055Y0088731D01*
X0023054Y0088731D02*
X0023052Y0088786D01*
X0023046Y0088841D01*
X0023037Y0088895D01*
X0023024Y0088949D01*
X0023007Y0089002D01*
X0022987Y0089053D01*
X0022963Y0089103D01*
X0022936Y0089151D01*
X0022906Y0089197D01*
X0022873Y0089241D01*
X0022837Y0089283D01*
X0022798Y0089322D01*
X0022756Y0089358D01*
X0022712Y0089391D01*
X0022666Y0089421D01*
X0022618Y0089448D01*
X0022568Y0089472D01*
X0022517Y0089492D01*
X0022464Y0089509D01*
X0022410Y0089522D01*
X0022356Y0089531D01*
X0022301Y0089537D01*
X0022246Y0089539D01*
X0022191Y0089537D01*
X0022136Y0089531D01*
X0022082Y0089522D01*
X0022028Y0089509D01*
X0021975Y0089492D01*
X0021924Y0089472D01*
X0021874Y0089448D01*
X0021826Y0089421D01*
X0021780Y0089391D01*
X0021736Y0089358D01*
X0021694Y0089322D01*
X0021655Y0089283D01*
X0021619Y0089241D01*
X0021586Y0089197D01*
X0021556Y0089151D01*
X0021529Y0089103D01*
X0021505Y0089053D01*
X0021485Y0089002D01*
X0021468Y0088949D01*
X0021455Y0088895D01*
X0021446Y0088841D01*
X0021440Y0088786D01*
X0021438Y0088731D01*
X0021438Y0087923D01*
X0021440Y0087868D01*
X0021446Y0087813D01*
X0021455Y0087759D01*
X0021468Y0087705D01*
X0021485Y0087652D01*
X0021505Y0087601D01*
X0021529Y0087551D01*
X0021556Y0087503D01*
X0021586Y0087457D01*
X0021619Y0087413D01*
X0021655Y0087371D01*
X0021694Y0087332D01*
X0021736Y0087296D01*
X0021780Y0087263D01*
X0021826Y0087233D01*
X0021874Y0087206D01*
X0021924Y0087182D01*
X0021975Y0087162D01*
X0022028Y0087145D01*
X0022082Y0087132D01*
X0022136Y0087123D01*
X0022191Y0087117D01*
X0022246Y0087115D01*
X0022301Y0087117D01*
X0022356Y0087123D01*
X0022410Y0087132D01*
X0022464Y0087145D01*
X0022517Y0087162D01*
X0022568Y0087182D01*
X0022618Y0087206D01*
X0022666Y0087233D01*
X0022712Y0087263D01*
X0022756Y0087296D01*
X0022798Y0087332D01*
X0022837Y0087371D01*
X0022873Y0087413D01*
X0022906Y0087457D01*
X0022936Y0087503D01*
X0022963Y0087551D01*
X0022987Y0087601D01*
X0023007Y0087652D01*
X0023024Y0087705D01*
X0023037Y0087759D01*
X0023046Y0087813D01*
X0023052Y0087868D01*
X0023054Y0087923D01*
X0019943Y0086508D02*
X0019943Y0089539D01*
X0020044Y0090550D02*
X0019841Y0090550D01*
X0019841Y0090752D01*
X0020044Y0090752D01*
X0020044Y0090550D01*
X0018566Y0088731D02*
X0018566Y0088327D01*
X0016950Y0088327D01*
X0016950Y0088731D02*
X0016950Y0087721D01*
X0016952Y0087673D01*
X0016957Y0087626D01*
X0016967Y0087580D01*
X0016980Y0087534D01*
X0016996Y0087489D01*
X0017016Y0087446D01*
X0017039Y0087404D01*
X0017066Y0087365D01*
X0017095Y0087327D01*
X0017127Y0087292D01*
X0017162Y0087260D01*
X0017200Y0087231D01*
X0017239Y0087204D01*
X0017281Y0087181D01*
X0017324Y0087161D01*
X0017369Y0087145D01*
X0017415Y0087132D01*
X0017461Y0087122D01*
X0017508Y0087117D01*
X0017556Y0087115D01*
X0018566Y0087115D01*
X0019336Y0085902D02*
X0019384Y0085904D01*
X0019431Y0085909D01*
X0019477Y0085919D01*
X0019523Y0085932D01*
X0019568Y0085948D01*
X0019611Y0085968D01*
X0019653Y0085991D01*
X0019692Y0086018D01*
X0019730Y0086047D01*
X0019765Y0086079D01*
X0019797Y0086114D01*
X0019826Y0086152D01*
X0019853Y0086191D01*
X0019876Y0086233D01*
X0019896Y0086276D01*
X0019912Y0086321D01*
X0019925Y0086367D01*
X0019935Y0086413D01*
X0019940Y0086460D01*
X0019942Y0086508D01*
X0019336Y0085902D02*
X0019134Y0085902D01*
X0018566Y0088731D02*
X0018564Y0088786D01*
X0018558Y0088841D01*
X0018549Y0088895D01*
X0018536Y0088949D01*
X0018519Y0089002D01*
X0018499Y0089053D01*
X0018475Y0089103D01*
X0018448Y0089151D01*
X0018418Y0089197D01*
X0018385Y0089241D01*
X0018349Y0089283D01*
X0018310Y0089322D01*
X0018268Y0089358D01*
X0018224Y0089391D01*
X0018178Y0089421D01*
X0018130Y0089448D01*
X0018080Y0089472D01*
X0018029Y0089492D01*
X0017976Y0089509D01*
X0017922Y0089522D01*
X0017868Y0089531D01*
X0017813Y0089537D01*
X0017758Y0089539D01*
X0017703Y0089537D01*
X0017648Y0089531D01*
X0017594Y0089522D01*
X0017540Y0089509D01*
X0017487Y0089492D01*
X0017436Y0089472D01*
X0017386Y0089448D01*
X0017338Y0089421D01*
X0017292Y0089391D01*
X0017248Y0089358D01*
X0017206Y0089322D01*
X0017167Y0089283D01*
X0017131Y0089241D01*
X0017098Y0089197D01*
X0017068Y0089151D01*
X0017041Y0089103D01*
X0017017Y0089053D01*
X0016997Y0089002D01*
X0016980Y0088949D01*
X0016967Y0088895D01*
X0016958Y0088841D01*
X0016952Y0088786D01*
X0016950Y0088731D01*
X0016950Y0094615D02*
X0018566Y0094615D01*
X0016950Y0094615D02*
X0016950Y0098252D01*
X0019660Y0098252D02*
X0021680Y0098252D01*
X0020670Y0098252D02*
X0020670Y0094615D01*
X0022957Y0095423D02*
X0022957Y0097443D01*
X0022959Y0097498D01*
X0022965Y0097553D01*
X0022974Y0097607D01*
X0022987Y0097661D01*
X0023004Y0097714D01*
X0023024Y0097765D01*
X0023048Y0097815D01*
X0023075Y0097863D01*
X0023105Y0097909D01*
X0023138Y0097953D01*
X0023174Y0097994D01*
X0023213Y0098034D01*
X0023255Y0098070D01*
X0023299Y0098103D01*
X0023345Y0098133D01*
X0023393Y0098160D01*
X0023443Y0098184D01*
X0023494Y0098204D01*
X0023547Y0098221D01*
X0023601Y0098234D01*
X0023655Y0098243D01*
X0023710Y0098249D01*
X0023765Y0098251D01*
X0023765Y0098252D02*
X0024573Y0098252D01*
X0026728Y0098252D02*
X0025920Y0095423D01*
X0027940Y0095423D01*
X0027334Y0096231D02*
X0027334Y0094615D01*
X0024573Y0094615D02*
X0023765Y0094615D01*
X0023710Y0094617D01*
X0023655Y0094623D01*
X0023601Y0094632D01*
X0023547Y0094645D01*
X0023494Y0094662D01*
X0023443Y0094682D01*
X0023393Y0094706D01*
X0023345Y0094733D01*
X0023299Y0094763D01*
X0023255Y0094796D01*
X0023213Y0094832D01*
X0023174Y0094871D01*
X0023138Y0094913D01*
X0023105Y0094957D01*
X0023075Y0095003D01*
X0023048Y0095051D01*
X0023024Y0095101D01*
X0023004Y0095152D01*
X0022987Y0095205D01*
X0022974Y0095259D01*
X0022965Y0095313D01*
X0022959Y0095368D01*
X0022957Y0095423D01*
X0029463Y0095423D02*
X0031483Y0095423D01*
X0030877Y0096231D02*
X0030877Y0094615D01*
X0029463Y0095423D02*
X0030271Y0098252D01*
X0034724Y0096635D02*
X0034767Y0096678D01*
X0034806Y0096724D01*
X0034843Y0096772D01*
X0034877Y0096823D01*
X0034908Y0096875D01*
X0034936Y0096929D01*
X0034960Y0096985D01*
X0034980Y0097043D01*
X0034997Y0097101D01*
X0035010Y0097160D01*
X0035019Y0097221D01*
X0035025Y0097281D01*
X0035027Y0097342D01*
X0034724Y0096635D02*
X0033006Y0094615D01*
X0035027Y0094615D01*
X0036549Y0094615D02*
X0037762Y0094615D01*
X0037817Y0094617D01*
X0037872Y0094623D01*
X0037926Y0094632D01*
X0037980Y0094645D01*
X0038033Y0094662D01*
X0038084Y0094682D01*
X0038134Y0094706D01*
X0038182Y0094733D01*
X0038228Y0094763D01*
X0038272Y0094796D01*
X0038313Y0094832D01*
X0038353Y0094871D01*
X0038389Y0094913D01*
X0038422Y0094957D01*
X0038452Y0095003D01*
X0038479Y0095051D01*
X0038503Y0095101D01*
X0038523Y0095152D01*
X0038540Y0095205D01*
X0038553Y0095259D01*
X0038562Y0095313D01*
X0038568Y0095368D01*
X0038570Y0095423D01*
X0038570Y0095827D01*
X0038568Y0095882D01*
X0038562Y0095937D01*
X0038553Y0095991D01*
X0038540Y0096045D01*
X0038523Y0096098D01*
X0038503Y0096149D01*
X0038479Y0096199D01*
X0038452Y0096247D01*
X0038422Y0096293D01*
X0038389Y0096337D01*
X0038353Y0096379D01*
X0038314Y0096418D01*
X0038272Y0096454D01*
X0038228Y0096487D01*
X0038182Y0096517D01*
X0038134Y0096544D01*
X0038084Y0096568D01*
X0038033Y0096588D01*
X0037980Y0096605D01*
X0037926Y0096618D01*
X0037872Y0096627D01*
X0037817Y0096633D01*
X0037762Y0096635D01*
X0036549Y0096635D01*
X0036549Y0098252D01*
X0038570Y0098252D01*
X0035026Y0097342D02*
X0035024Y0097401D01*
X0035018Y0097461D01*
X0035009Y0097519D01*
X0034995Y0097577D01*
X0034978Y0097634D01*
X0034957Y0097690D01*
X0034932Y0097744D01*
X0034904Y0097797D01*
X0034873Y0097847D01*
X0034838Y0097895D01*
X0034800Y0097941D01*
X0034760Y0097985D01*
X0034716Y0098025D01*
X0034670Y0098063D01*
X0034622Y0098098D01*
X0034572Y0098129D01*
X0034519Y0098157D01*
X0034465Y0098182D01*
X0034409Y0098203D01*
X0034352Y0098220D01*
X0034294Y0098234D01*
X0034236Y0098243D01*
X0034176Y0098249D01*
X0034117Y0098251D01*
X0034050Y0098249D01*
X0033984Y0098243D01*
X0033918Y0098234D01*
X0033852Y0098221D01*
X0033788Y0098204D01*
X0033724Y0098183D01*
X0033662Y0098159D01*
X0033601Y0098131D01*
X0033542Y0098100D01*
X0033485Y0098065D01*
X0033430Y0098028D01*
X0033377Y0097987D01*
X0033327Y0097943D01*
X0033279Y0097897D01*
X0033234Y0097847D01*
X0033192Y0097796D01*
X0033152Y0097742D01*
X0033116Y0097685D01*
X0033084Y0097627D01*
X0033054Y0097567D01*
X0033028Y0097506D01*
X0033006Y0097443D01*
X0024981Y0075359D02*
X0024981Y0073339D01*
X0024981Y0074349D02*
X0028619Y0074349D01*
X0027608Y0071934D02*
X0024981Y0071934D01*
X0027608Y0071934D02*
X0027670Y0071932D01*
X0027732Y0071926D01*
X0027794Y0071917D01*
X0027854Y0071903D01*
X0027914Y0071886D01*
X0027973Y0071866D01*
X0028030Y0071842D01*
X0028086Y0071814D01*
X0028140Y0071783D01*
X0028192Y0071748D01*
X0028241Y0071711D01*
X0028288Y0071670D01*
X0028333Y0071627D01*
X0028375Y0071581D01*
X0028414Y0071533D01*
X0028450Y0071482D01*
X0028483Y0071429D01*
X0028512Y0071374D01*
X0028538Y0071318D01*
X0028561Y0071260D01*
X0028579Y0071200D01*
X0028595Y0071140D01*
X0028606Y0071079D01*
X0028614Y0071017D01*
X0028618Y0070955D01*
X0028618Y0070893D01*
X0028614Y0070831D01*
X0028606Y0070769D01*
X0028595Y0070708D01*
X0028579Y0070648D01*
X0028561Y0070588D01*
X0028538Y0070530D01*
X0028512Y0070474D01*
X0028483Y0070419D01*
X0028450Y0070366D01*
X0028414Y0070315D01*
X0028375Y0070267D01*
X0028333Y0070221D01*
X0028288Y0070178D01*
X0028241Y0070137D01*
X0028192Y0070100D01*
X0028140Y0070065D01*
X0028086Y0070034D01*
X0028030Y0070006D01*
X0027973Y0069982D01*
X0027914Y0069962D01*
X0027854Y0069945D01*
X0027794Y0069931D01*
X0027732Y0069922D01*
X0027670Y0069916D01*
X0027608Y0069914D01*
X0024981Y0069914D01*
X0025992Y0068273D02*
X0027608Y0068273D01*
X0027608Y0068272D02*
X0027670Y0068270D01*
X0027732Y0068264D01*
X0027794Y0068255D01*
X0027854Y0068241D01*
X0027914Y0068224D01*
X0027973Y0068204D01*
X0028030Y0068180D01*
X0028086Y0068152D01*
X0028140Y0068121D01*
X0028192Y0068086D01*
X0028241Y0068049D01*
X0028288Y0068008D01*
X0028333Y0067965D01*
X0028375Y0067919D01*
X0028414Y0067871D01*
X0028450Y0067820D01*
X0028483Y0067767D01*
X0028512Y0067712D01*
X0028538Y0067656D01*
X0028561Y0067598D01*
X0028579Y0067538D01*
X0028595Y0067478D01*
X0028606Y0067417D01*
X0028614Y0067355D01*
X0028618Y0067293D01*
X0028618Y0067231D01*
X0028614Y0067169D01*
X0028606Y0067107D01*
X0028595Y0067046D01*
X0028579Y0066986D01*
X0028561Y0066926D01*
X0028538Y0066868D01*
X0028512Y0066812D01*
X0028483Y0066757D01*
X0028450Y0066704D01*
X0028414Y0066653D01*
X0028375Y0066605D01*
X0028333Y0066559D01*
X0028288Y0066516D01*
X0028241Y0066475D01*
X0028192Y0066438D01*
X0028140Y0066403D01*
X0028086Y0066372D01*
X0028030Y0066344D01*
X0027973Y0066320D01*
X0027914Y0066300D01*
X0027854Y0066283D01*
X0027794Y0066269D01*
X0027732Y0066260D01*
X0027670Y0066254D01*
X0027608Y0066252D01*
X0025992Y0066252D01*
X0025930Y0066254D01*
X0025868Y0066260D01*
X0025806Y0066269D01*
X0025746Y0066283D01*
X0025686Y0066300D01*
X0025627Y0066320D01*
X0025570Y0066344D01*
X0025514Y0066372D01*
X0025460Y0066403D01*
X0025408Y0066438D01*
X0025359Y0066475D01*
X0025312Y0066516D01*
X0025267Y0066559D01*
X0025225Y0066605D01*
X0025186Y0066653D01*
X0025150Y0066704D01*
X0025117Y0066757D01*
X0025088Y0066812D01*
X0025062Y0066868D01*
X0025039Y0066926D01*
X0025021Y0066986D01*
X0025005Y0067046D01*
X0024994Y0067107D01*
X0024986Y0067169D01*
X0024982Y0067231D01*
X0024982Y0067293D01*
X0024986Y0067355D01*
X0024994Y0067417D01*
X0025005Y0067478D01*
X0025021Y0067538D01*
X0025039Y0067598D01*
X0025062Y0067656D01*
X0025088Y0067712D01*
X0025117Y0067767D01*
X0025150Y0067820D01*
X0025186Y0067871D01*
X0025225Y0067919D01*
X0025267Y0067965D01*
X0025312Y0068008D01*
X0025359Y0068049D01*
X0025408Y0068086D01*
X0025460Y0068121D01*
X0025514Y0068152D01*
X0025570Y0068180D01*
X0025627Y0068204D01*
X0025686Y0068224D01*
X0025746Y0068241D01*
X0025806Y0068255D01*
X0025868Y0068264D01*
X0025930Y0068270D01*
X0025992Y0068272D01*
X0024981Y0064931D02*
X0028619Y0063719D01*
X0024981Y0062507D01*
X0039981Y0063662D02*
X0039981Y0064673D01*
X0039981Y0063662D02*
X0043619Y0063662D01*
X0042002Y0063662D02*
X0042002Y0064673D01*
X0042002Y0064875D02*
X0043619Y0065683D01*
X0042002Y0064673D02*
X0042000Y0064735D01*
X0041994Y0064797D01*
X0041985Y0064859D01*
X0041971Y0064919D01*
X0041954Y0064979D01*
X0041934Y0065038D01*
X0041910Y0065095D01*
X0041882Y0065151D01*
X0041851Y0065205D01*
X0041816Y0065257D01*
X0041779Y0065306D01*
X0041738Y0065353D01*
X0041695Y0065398D01*
X0041649Y0065440D01*
X0041601Y0065479D01*
X0041550Y0065515D01*
X0041497Y0065548D01*
X0041442Y0065577D01*
X0041386Y0065603D01*
X0041328Y0065626D01*
X0041268Y0065644D01*
X0041208Y0065660D01*
X0041147Y0065671D01*
X0041085Y0065679D01*
X0041023Y0065683D01*
X0040961Y0065683D01*
X0040899Y0065679D01*
X0040837Y0065671D01*
X0040776Y0065660D01*
X0040716Y0065644D01*
X0040656Y0065626D01*
X0040598Y0065603D01*
X0040542Y0065577D01*
X0040487Y0065548D01*
X0040434Y0065515D01*
X0040383Y0065479D01*
X0040335Y0065440D01*
X0040289Y0065398D01*
X0040246Y0065353D01*
X0040205Y0065306D01*
X0040168Y0065257D01*
X0040133Y0065205D01*
X0040102Y0065151D01*
X0040074Y0065095D01*
X0040050Y0065038D01*
X0040030Y0064979D01*
X0040013Y0064919D01*
X0039999Y0064859D01*
X0039990Y0064797D01*
X0039984Y0064735D01*
X0039982Y0064673D01*
X0039981Y0067183D02*
X0039981Y0068396D01*
X0039982Y0068396D02*
X0039984Y0068451D01*
X0039990Y0068506D01*
X0039999Y0068560D01*
X0040012Y0068614D01*
X0040029Y0068667D01*
X0040049Y0068718D01*
X0040073Y0068768D01*
X0040100Y0068816D01*
X0040130Y0068862D01*
X0040163Y0068906D01*
X0040199Y0068948D01*
X0040238Y0068987D01*
X0040280Y0069023D01*
X0040324Y0069056D01*
X0040370Y0069086D01*
X0040418Y0069113D01*
X0040468Y0069137D01*
X0040519Y0069157D01*
X0040572Y0069174D01*
X0040626Y0069187D01*
X0040680Y0069196D01*
X0040735Y0069202D01*
X0040790Y0069204D01*
X0040845Y0069202D01*
X0040900Y0069196D01*
X0040954Y0069187D01*
X0041008Y0069174D01*
X0041061Y0069157D01*
X0041112Y0069137D01*
X0041162Y0069113D01*
X0041210Y0069086D01*
X0041256Y0069056D01*
X0041300Y0069023D01*
X0041342Y0068987D01*
X0041381Y0068948D01*
X0041417Y0068906D01*
X0041450Y0068862D01*
X0041480Y0068816D01*
X0041507Y0068768D01*
X0041531Y0068718D01*
X0041551Y0068667D01*
X0041568Y0068614D01*
X0041581Y0068560D01*
X0041590Y0068506D01*
X0041596Y0068451D01*
X0041598Y0068396D01*
X0041598Y0067587D01*
X0041598Y0068194D02*
X0041600Y0068256D01*
X0041606Y0068318D01*
X0041615Y0068380D01*
X0041629Y0068440D01*
X0041646Y0068500D01*
X0041666Y0068559D01*
X0041690Y0068616D01*
X0041718Y0068672D01*
X0041749Y0068726D01*
X0041784Y0068778D01*
X0041821Y0068827D01*
X0041862Y0068874D01*
X0041905Y0068919D01*
X0041951Y0068961D01*
X0041999Y0069000D01*
X0042050Y0069036D01*
X0042103Y0069069D01*
X0042158Y0069098D01*
X0042214Y0069124D01*
X0042272Y0069147D01*
X0042332Y0069165D01*
X0042392Y0069181D01*
X0042453Y0069192D01*
X0042515Y0069200D01*
X0042577Y0069204D01*
X0042639Y0069204D01*
X0042701Y0069200D01*
X0042763Y0069192D01*
X0042824Y0069181D01*
X0042884Y0069165D01*
X0042944Y0069147D01*
X0043002Y0069124D01*
X0043058Y0069098D01*
X0043113Y0069069D01*
X0043166Y0069036D01*
X0043217Y0069000D01*
X0043265Y0068961D01*
X0043311Y0068919D01*
X0043354Y0068874D01*
X0043395Y0068827D01*
X0043432Y0068778D01*
X0043467Y0068726D01*
X0043498Y0068672D01*
X0043526Y0068616D01*
X0043550Y0068559D01*
X0043570Y0068500D01*
X0043587Y0068440D01*
X0043601Y0068380D01*
X0043610Y0068318D01*
X0043616Y0068256D01*
X0043618Y0068194D01*
X0043619Y0068194D02*
X0043619Y0067183D01*
X0063199Y0058252D02*
X0064007Y0058252D01*
X0063603Y0058252D02*
X0063603Y0054615D01*
X0063199Y0054615D02*
X0064007Y0054615D01*
X0065418Y0055423D02*
X0065418Y0057443D01*
X0065420Y0057498D01*
X0065426Y0057553D01*
X0065435Y0057607D01*
X0065448Y0057661D01*
X0065465Y0057714D01*
X0065485Y0057765D01*
X0065509Y0057815D01*
X0065536Y0057863D01*
X0065566Y0057909D01*
X0065599Y0057953D01*
X0065635Y0057994D01*
X0065674Y0058034D01*
X0065716Y0058070D01*
X0065760Y0058103D01*
X0065806Y0058133D01*
X0065854Y0058160D01*
X0065904Y0058184D01*
X0065955Y0058204D01*
X0066008Y0058221D01*
X0066062Y0058234D01*
X0066116Y0058243D01*
X0066171Y0058249D01*
X0066226Y0058251D01*
X0066226Y0058252D02*
X0067034Y0058252D01*
X0068380Y0057443D02*
X0069391Y0058252D01*
X0069391Y0054615D01*
X0070401Y0054615D02*
X0068380Y0054615D01*
X0067034Y0054615D02*
X0066226Y0054615D01*
X0066171Y0054617D01*
X0066116Y0054623D01*
X0066062Y0054632D01*
X0066008Y0054645D01*
X0065955Y0054662D01*
X0065904Y0054682D01*
X0065854Y0054706D01*
X0065806Y0054733D01*
X0065760Y0054763D01*
X0065716Y0054796D01*
X0065674Y0054832D01*
X0065635Y0054871D01*
X0065599Y0054913D01*
X0065566Y0054957D01*
X0065536Y0055003D01*
X0065509Y0055051D01*
X0065485Y0055101D01*
X0065465Y0055152D01*
X0065448Y0055205D01*
X0065435Y0055259D01*
X0065426Y0055313D01*
X0065420Y0055368D01*
X0065418Y0055423D01*
X0063612Y0040752D02*
X0061996Y0040752D01*
X0061996Y0037115D01*
X0063612Y0037115D01*
X0063208Y0039135D02*
X0061996Y0039135D01*
X0060541Y0037115D02*
X0058925Y0037115D01*
X0058925Y0040752D01*
X0056436Y0040752D02*
X0055426Y0040752D01*
X0055426Y0037115D01*
X0056436Y0037115D01*
X0056498Y0037117D01*
X0056560Y0037123D01*
X0056622Y0037132D01*
X0056682Y0037146D01*
X0056742Y0037163D01*
X0056801Y0037183D01*
X0056858Y0037207D01*
X0056914Y0037235D01*
X0056968Y0037266D01*
X0057020Y0037301D01*
X0057069Y0037338D01*
X0057116Y0037379D01*
X0057161Y0037422D01*
X0057203Y0037468D01*
X0057242Y0037516D01*
X0057278Y0037567D01*
X0057311Y0037620D01*
X0057340Y0037675D01*
X0057366Y0037731D01*
X0057389Y0037789D01*
X0057407Y0037849D01*
X0057423Y0037909D01*
X0057434Y0037970D01*
X0057442Y0038032D01*
X0057446Y0038094D01*
X0057446Y0038156D01*
X0057442Y0038218D01*
X0057434Y0038280D01*
X0057423Y0038341D01*
X0057407Y0038401D01*
X0057389Y0038461D01*
X0057366Y0038519D01*
X0057340Y0038575D01*
X0057311Y0038630D01*
X0057278Y0038683D01*
X0057242Y0038734D01*
X0057203Y0038782D01*
X0057161Y0038828D01*
X0057116Y0038871D01*
X0057069Y0038912D01*
X0057020Y0038949D01*
X0056968Y0038984D01*
X0056914Y0039015D01*
X0056858Y0039043D01*
X0056801Y0039067D01*
X0056742Y0039087D01*
X0056682Y0039104D01*
X0056622Y0039118D01*
X0056560Y0039127D01*
X0056498Y0039133D01*
X0056436Y0039135D01*
X0055426Y0039135D01*
X0056436Y0039135D02*
X0056491Y0039137D01*
X0056546Y0039143D01*
X0056600Y0039152D01*
X0056654Y0039165D01*
X0056707Y0039182D01*
X0056758Y0039202D01*
X0056808Y0039226D01*
X0056856Y0039253D01*
X0056902Y0039283D01*
X0056946Y0039316D01*
X0056988Y0039352D01*
X0057027Y0039391D01*
X0057063Y0039433D01*
X0057096Y0039477D01*
X0057126Y0039523D01*
X0057153Y0039571D01*
X0057177Y0039621D01*
X0057197Y0039672D01*
X0057214Y0039725D01*
X0057227Y0039779D01*
X0057236Y0039833D01*
X0057242Y0039888D01*
X0057244Y0039943D01*
X0057242Y0039998D01*
X0057236Y0040053D01*
X0057227Y0040107D01*
X0057214Y0040161D01*
X0057197Y0040214D01*
X0057177Y0040265D01*
X0057153Y0040315D01*
X0057126Y0040363D01*
X0057096Y0040409D01*
X0057063Y0040453D01*
X0057027Y0040495D01*
X0056988Y0040534D01*
X0056946Y0040570D01*
X0056902Y0040603D01*
X0056856Y0040633D01*
X0056808Y0040660D01*
X0056758Y0040684D01*
X0056707Y0040704D01*
X0056654Y0040721D01*
X0056600Y0040734D01*
X0056546Y0040743D01*
X0056491Y0040749D01*
X0056436Y0040751D01*
X0052724Y0040752D02*
X0053936Y0037115D01*
X0053633Y0038024D02*
X0051814Y0038024D01*
X0051511Y0037115D02*
X0052724Y0040752D01*
X0050072Y0040752D02*
X0050072Y0037115D01*
X0048052Y0040752D01*
X0048052Y0037115D01*
X0046604Y0037115D02*
X0044988Y0037115D01*
X0044988Y0040752D01*
X0046604Y0040752D01*
X0046200Y0039135D02*
X0044988Y0039135D01*
D13*
X0059713Y0061059D02*
X0059713Y0073657D01*
X0062469Y0076413D01*
X0073493Y0076413D01*
X0073493Y0061059D01*
X0059713Y0061059D01*
X0103926Y0092496D02*
X0105894Y0092496D01*
X0103926Y0092496D02*
X0103926Y0100370D01*
X0109831Y0100370D01*
X0113769Y0100370D02*
X0119674Y0100370D01*
X0119674Y0092496D01*
X0117706Y0092496D01*
X0008300Y0041183D02*
X0008300Y0036683D01*
X0007050Y0036683D02*
X0009550Y0036683D01*
X0007050Y0040183D02*
X0008300Y0041183D01*
D14*
X0011800Y0041433D02*
X0014300Y0043933D01*
X0019300Y0043933D01*
X0021800Y0041433D01*
X0024300Y0043933D01*
X0029300Y0043933D01*
X0031800Y0041433D01*
X0034300Y0043933D01*
X0039300Y0043933D01*
X0041800Y0041433D01*
X0041800Y0036433D01*
X0039300Y0033933D01*
X0034300Y0033933D01*
X0031800Y0036433D01*
X0029300Y0033933D01*
X0024300Y0033933D01*
X0021800Y0036433D01*
X0019300Y0033933D01*
X0014300Y0033933D01*
X0011800Y0036433D01*
X0011800Y0041433D01*
X0014300Y0058933D02*
X0011800Y0061433D01*
X0011800Y0066433D01*
X0014300Y0068933D01*
X0011800Y0071433D01*
X0011800Y0076433D01*
X0014300Y0078933D01*
X0019300Y0078933D01*
X0021800Y0076433D01*
X0021800Y0071433D01*
X0019300Y0068933D01*
X0021800Y0066433D01*
X0021800Y0061433D01*
X0019300Y0058933D01*
X0014300Y0058933D01*
X0014300Y0068933D02*
X0019300Y0068933D01*
X0111800Y0066433D02*
X0111800Y0061433D01*
X0114300Y0058933D01*
X0119300Y0058933D01*
X0121800Y0061433D01*
X0121800Y0066433D01*
X0119300Y0068933D01*
X0121800Y0071433D01*
X0121800Y0076433D01*
X0119300Y0078933D01*
X0114300Y0078933D01*
X0111800Y0076433D01*
X0111800Y0071433D01*
X0114300Y0068933D01*
X0119300Y0068933D01*
X0114300Y0068933D02*
X0111800Y0066433D01*
M02*
