G04 EAGLE Gerber X2 export*
%TF.Part,Single*%
%TF.FileFunction,Other,Bottom layer*%
%TF.FilePolarity,Positive*%
%TF.GenerationSoftware,Autodesk,EAGLE,9.0.0*%
%TF.CreationDate,2018-05-03T06:14:30Z*%
G75*
%MOMM*%
%FSLAX35Y35*%
%LPD*%
%AMOC8*
5,1,8,0,0,1.08239X$1,22.5*%
G01*
%ADD10C,0.100000*%
%ADD11C,0.101600*%
%ADD12R,1.500000X1.300000*%
%ADD13R,0.600000X0.700000*%
%ADD14C,0.600000*%
%ADD15R,0.700000X0.600000*%
%ADD16C,1.524000*%
%ADD17R,1.000000X1.400000*%
%ADD18C,0.650000*%
%ADD19C,0.406400*%

G36*
X321301Y45737D02*
X321301Y45737D01*
X321513Y45724D01*
X328201Y45849D01*
X329772Y45720D01*
X2972228Y45720D01*
X2972346Y45732D01*
X2972465Y45722D01*
X2973642Y45853D01*
X2980480Y45724D01*
X2980650Y45738D01*
X2980863Y45720D01*
X2987641Y45720D01*
X2988067Y45763D01*
X2988620Y45744D01*
X3019593Y47238D01*
X3019966Y47294D01*
X3020344Y47288D01*
X3023376Y47800D01*
X3023577Y47830D01*
X3023598Y47838D01*
X3023627Y47843D01*
X3087273Y64044D01*
X3088268Y64405D01*
X3089291Y64671D01*
X3090334Y65156D01*
X3091058Y65419D01*
X3091570Y65731D01*
X3092310Y66075D01*
X3149392Y98556D01*
X3150253Y99166D01*
X3151172Y99695D01*
X3152051Y100441D01*
X3152678Y100884D01*
X3153087Y101319D01*
X3153711Y101848D01*
X3200151Y148288D01*
X3200821Y149106D01*
X3201566Y149858D01*
X3202215Y150808D01*
X3202703Y151404D01*
X3202983Y151933D01*
X3203444Y152607D01*
X3235925Y209689D01*
X3236354Y210655D01*
X3236873Y211578D01*
X3237248Y212667D01*
X3237560Y213369D01*
X3237690Y213953D01*
X3237956Y214726D01*
X3254157Y278373D01*
X3254214Y278746D01*
X3254329Y279105D01*
X3254727Y282141D01*
X3254759Y282354D01*
X3254758Y282378D01*
X3254761Y282406D01*
X3256256Y313383D01*
X3256234Y313808D01*
X3256279Y314362D01*
X3256279Y321130D01*
X3256263Y321299D01*
X3256276Y321512D01*
X3256150Y328201D01*
X3256279Y329772D01*
X3256279Y1956228D01*
X3256268Y1956343D01*
X3256278Y1956459D01*
X3256147Y1957638D01*
X3256276Y1964488D01*
X3256262Y1964660D01*
X3256279Y1964870D01*
X3256279Y1971638D01*
X3256237Y1972064D01*
X3256256Y1972617D01*
X3254761Y2003593D01*
X3254706Y2003966D01*
X3254711Y2004344D01*
X3254199Y2007378D01*
X3254170Y2007577D01*
X3254162Y2007598D01*
X3254157Y2007627D01*
X3237956Y2071273D01*
X3237594Y2072268D01*
X3237329Y2073291D01*
X3236844Y2074334D01*
X3236581Y2075058D01*
X3236269Y2075570D01*
X3235925Y2076310D01*
X3203444Y2133392D01*
X3202834Y2134253D01*
X3202305Y2135172D01*
X3201560Y2136051D01*
X3201115Y2136678D01*
X3200679Y2137088D01*
X3200151Y2137711D01*
X3153711Y2184151D01*
X3152894Y2184820D01*
X3152142Y2185566D01*
X3151193Y2186214D01*
X3150596Y2186703D01*
X3150065Y2186984D01*
X3149392Y2187444D01*
X3092310Y2219925D01*
X3091345Y2220354D01*
X3090422Y2220873D01*
X3089333Y2221248D01*
X3088630Y2221560D01*
X3088047Y2221690D01*
X3087273Y2221956D01*
X3023627Y2238157D01*
X3023253Y2238214D01*
X3022895Y2238329D01*
X3019858Y2238727D01*
X3019646Y2238759D01*
X3019622Y2238758D01*
X3019594Y2238761D01*
X2988617Y2240256D01*
X2988191Y2240234D01*
X2987638Y2240279D01*
X2980871Y2240279D01*
X2980702Y2240263D01*
X2980489Y2240276D01*
X2973798Y2240150D01*
X2972228Y2240279D01*
X329772Y2240279D01*
X329657Y2240268D01*
X329541Y2240278D01*
X328362Y2240147D01*
X321510Y2240276D01*
X321338Y2240262D01*
X321128Y2240279D01*
X314362Y2240279D01*
X313936Y2240237D01*
X313383Y2240256D01*
X282406Y2238761D01*
X282034Y2238706D01*
X281656Y2238711D01*
X278621Y2238199D01*
X278423Y2238170D01*
X278402Y2238162D01*
X278373Y2238157D01*
X214726Y2221956D01*
X213731Y2221594D01*
X212708Y2221329D01*
X211666Y2220844D01*
X210942Y2220581D01*
X210429Y2220269D01*
X209690Y2219925D01*
X152608Y2187444D01*
X151747Y2186834D01*
X150828Y2186305D01*
X149949Y2185560D01*
X149322Y2185115D01*
X148911Y2184679D01*
X148289Y2184151D01*
X101848Y2137711D01*
X101179Y2136894D01*
X100434Y2136142D01*
X99786Y2135193D01*
X99297Y2134596D01*
X99015Y2134065D01*
X98556Y2133392D01*
X66075Y2076310D01*
X65646Y2075345D01*
X65127Y2074422D01*
X64752Y2073333D01*
X64440Y2072630D01*
X64310Y2072047D01*
X64044Y2071273D01*
X47843Y2007627D01*
X47786Y2007253D01*
X47671Y2006895D01*
X47273Y2003858D01*
X47241Y2003645D01*
X47242Y2003621D01*
X47238Y2003593D01*
X45744Y1972616D01*
X45766Y1972190D01*
X45720Y1971637D01*
X45720Y1964873D01*
X45737Y1964703D01*
X45724Y1964491D01*
X45849Y1957798D01*
X45720Y1956228D01*
X45720Y329772D01*
X45732Y329657D01*
X45722Y329541D01*
X45853Y328362D01*
X45724Y321508D01*
X45738Y321337D01*
X45720Y321127D01*
X45720Y314363D01*
X45763Y313936D01*
X45744Y313383D01*
X47238Y282406D01*
X47294Y282034D01*
X47288Y281656D01*
X47801Y278621D01*
X47830Y278423D01*
X47838Y278402D01*
X47843Y278373D01*
X64044Y214726D01*
X64405Y213731D01*
X64671Y212708D01*
X65156Y211666D01*
X65419Y210942D01*
X65731Y210429D01*
X66075Y209690D01*
X98556Y152608D01*
X99166Y151747D01*
X99695Y150828D01*
X100440Y149949D01*
X100884Y149322D01*
X101320Y148911D01*
X101848Y148289D01*
X148289Y101848D01*
X149106Y101179D01*
X149858Y100434D01*
X150807Y99786D01*
X151404Y99297D01*
X151935Y99015D01*
X152608Y98556D01*
X209690Y66075D01*
X210655Y65646D01*
X211578Y65127D01*
X212667Y64752D01*
X213370Y64440D01*
X213953Y64310D01*
X214726Y64044D01*
X278373Y47843D01*
X278747Y47786D01*
X279105Y47671D01*
X282142Y47273D01*
X282354Y47241D01*
X282378Y47242D01*
X282406Y47238D01*
X313382Y45744D01*
X313808Y45766D01*
X314361Y45720D01*
X321132Y45720D01*
X321301Y45737D01*
G37*
%LPC*%
G36*
X1949365Y303849D02*
X1949365Y303849D01*
X1914006Y318496D01*
X1886946Y345556D01*
X1872299Y380915D01*
X1872299Y571585D01*
X1886946Y606944D01*
X1914006Y634004D01*
X1915636Y634679D01*
X1915829Y634783D01*
X1916038Y634851D01*
X1917607Y635736D01*
X1919185Y636582D01*
X1919354Y636721D01*
X1919546Y636829D01*
X1920908Y638005D01*
X1922290Y639146D01*
X1922428Y639317D01*
X1922594Y639460D01*
X1923692Y640873D01*
X1924828Y642273D01*
X1924930Y642468D01*
X1925064Y642641D01*
X1925862Y644244D01*
X1926699Y645838D01*
X1926761Y646049D01*
X1926858Y646246D01*
X1927326Y647980D01*
X1927830Y649703D01*
X1927849Y649922D01*
X1927907Y650134D01*
X1928179Y653452D01*
X1928179Y701360D01*
X1928162Y701535D01*
X1928176Y701710D01*
X1927963Y703537D01*
X1927780Y705367D01*
X1927729Y705534D01*
X1927708Y705710D01*
X1927137Y707465D01*
X1926599Y709217D01*
X1926516Y709371D01*
X1926461Y709538D01*
X1925554Y711146D01*
X1924682Y712758D01*
X1924569Y712893D01*
X1924483Y713046D01*
X1923283Y714437D01*
X1922104Y715851D01*
X1921966Y715962D01*
X1921852Y716094D01*
X1920407Y717217D01*
X1918966Y718376D01*
X1918809Y718457D01*
X1918671Y718564D01*
X1917030Y719381D01*
X1915393Y720232D01*
X1915223Y720280D01*
X1915066Y720358D01*
X1913298Y720835D01*
X1911523Y721347D01*
X1911347Y721361D01*
X1911178Y721407D01*
X1907860Y721679D01*
X1444881Y721679D01*
X1444618Y721653D01*
X1444355Y721673D01*
X1442619Y721454D01*
X1440874Y721280D01*
X1440621Y721203D01*
X1440360Y721170D01*
X1438700Y720613D01*
X1437024Y720099D01*
X1436792Y719973D01*
X1436542Y719890D01*
X1435024Y719016D01*
X1433483Y718182D01*
X1433280Y718013D01*
X1433052Y717881D01*
X1430513Y715728D01*
X1421784Y706999D01*
X1344574Y706999D01*
X1344459Y707090D01*
X1342823Y707922D01*
X1341196Y708785D01*
X1341026Y708835D01*
X1340870Y708915D01*
X1339109Y709406D01*
X1337336Y709933D01*
X1337160Y709949D01*
X1336991Y709996D01*
X1335168Y710130D01*
X1333326Y710298D01*
X1333150Y710279D01*
X1332975Y710292D01*
X1331161Y710063D01*
X1329323Y709864D01*
X1329154Y709811D01*
X1328979Y709789D01*
X1327237Y709205D01*
X1325483Y708650D01*
X1325329Y708565D01*
X1325162Y708509D01*
X1323565Y707590D01*
X1322496Y706999D01*
X1245215Y706999D01*
X1236487Y715728D01*
X1236283Y715894D01*
X1236111Y716094D01*
X1234729Y717167D01*
X1233371Y718279D01*
X1233137Y718403D01*
X1232930Y718564D01*
X1231368Y719342D01*
X1229814Y720166D01*
X1229560Y720241D01*
X1229325Y720358D01*
X1227636Y720814D01*
X1225954Y721314D01*
X1225692Y721338D01*
X1225437Y721407D01*
X1222119Y721679D01*
X1190881Y721679D01*
X1190618Y721653D01*
X1190356Y721673D01*
X1188621Y721454D01*
X1186874Y721280D01*
X1186622Y721203D01*
X1186360Y721170D01*
X1184700Y720613D01*
X1183024Y720099D01*
X1182793Y719973D01*
X1182543Y719890D01*
X1181020Y719014D01*
X1179483Y718182D01*
X1179281Y718013D01*
X1179052Y717882D01*
X1176513Y715728D01*
X1167785Y706999D01*
X1087094Y706999D01*
X1086928Y707057D01*
X1086465Y707121D01*
X1086019Y707254D01*
X1084473Y707395D01*
X1082938Y707606D01*
X1082474Y707577D01*
X1082008Y707619D01*
X1080463Y707453D01*
X1078919Y707357D01*
X1078470Y707237D01*
X1078005Y707187D01*
X1076525Y706719D01*
X1075028Y706320D01*
X1074553Y706096D01*
X1074165Y705973D01*
X1073403Y705552D01*
X1072018Y704898D01*
X1069304Y703330D01*
X1062844Y701599D01*
X1049821Y701599D01*
X1049821Y761997D01*
X1049820Y761999D01*
X1049821Y762003D01*
X1049821Y822400D01*
X1062844Y822400D01*
X1069304Y820669D01*
X1072018Y819102D01*
X1073434Y818462D01*
X1074813Y817762D01*
X1075261Y817637D01*
X1075688Y817444D01*
X1077201Y817097D01*
X1078693Y816681D01*
X1079158Y816647D01*
X1079613Y816543D01*
X1081160Y816500D01*
X1082709Y816387D01*
X1083172Y816445D01*
X1083638Y816432D01*
X1085165Y816696D01*
X1086704Y816890D01*
X1087033Y817000D01*
X1145860Y817000D01*
X1146035Y817018D01*
X1146210Y817003D01*
X1148037Y817217D01*
X1149867Y817399D01*
X1150034Y817451D01*
X1150210Y817471D01*
X1151965Y818043D01*
X1153717Y818581D01*
X1153871Y818664D01*
X1154038Y818719D01*
X1155646Y819625D01*
X1157258Y820498D01*
X1157393Y820610D01*
X1157546Y820697D01*
X1158937Y821897D01*
X1160351Y823076D01*
X1160462Y823213D01*
X1160594Y823328D01*
X1161717Y824773D01*
X1162876Y826213D01*
X1162957Y826370D01*
X1163064Y826508D01*
X1163881Y828149D01*
X1164732Y829787D01*
X1164780Y829957D01*
X1164858Y830113D01*
X1165335Y831881D01*
X1165847Y833657D01*
X1165861Y833833D01*
X1165907Y834002D01*
X1166179Y837320D01*
X1166179Y846657D01*
X1166153Y846921D01*
X1166173Y847185D01*
X1165954Y848922D01*
X1165780Y850664D01*
X1165703Y850918D01*
X1165669Y851181D01*
X1165113Y852838D01*
X1164599Y854514D01*
X1164473Y854747D01*
X1164388Y854998D01*
X1163517Y856513D01*
X1162682Y858055D01*
X1162512Y858259D01*
X1162380Y858488D01*
X1162248Y858644D01*
X1153999Y878557D01*
X1153999Y899443D01*
X1161992Y918739D01*
X1176760Y933507D01*
X1184196Y936587D01*
X1184235Y936608D01*
X1184278Y936621D01*
X1186012Y937560D01*
X1187746Y938489D01*
X1187780Y938518D01*
X1187819Y938538D01*
X1189341Y939807D01*
X1190850Y941054D01*
X1190878Y941088D01*
X1190912Y941116D01*
X1192158Y942665D01*
X1193388Y944180D01*
X1193408Y944219D01*
X1193437Y944254D01*
X1194339Y945992D01*
X1195260Y947746D01*
X1195272Y947788D01*
X1195293Y947828D01*
X1195842Y949734D01*
X1196391Y951610D01*
X1196395Y951653D01*
X1196408Y951697D01*
X1196568Y953657D01*
X1196739Y955622D01*
X1196734Y955667D01*
X1196737Y955710D01*
X1196509Y957661D01*
X1196288Y959624D01*
X1196275Y959665D01*
X1196269Y959710D01*
X1195644Y961628D01*
X1195057Y963458D01*
X1195036Y963495D01*
X1195022Y963538D01*
X1194033Y965292D01*
X1193094Y966974D01*
X1193066Y967007D01*
X1193044Y967046D01*
X1191766Y968527D01*
X1190477Y970034D01*
X1190441Y970062D01*
X1190413Y970094D01*
X1188892Y971275D01*
X1187307Y972518D01*
X1187266Y972538D01*
X1187232Y972564D01*
X1185518Y973418D01*
X1183710Y974327D01*
X1183666Y974339D01*
X1183627Y974358D01*
X1181737Y974868D01*
X1179826Y975392D01*
X1179783Y975395D01*
X1179739Y975407D01*
X1176421Y975679D01*
X840548Y975679D01*
X831748Y984481D01*
X830618Y985406D01*
X829539Y986392D01*
X829062Y986680D01*
X828632Y987032D01*
X827344Y987715D01*
X826090Y988471D01*
X825565Y988659D01*
X825074Y988919D01*
X823677Y989334D01*
X822299Y989828D01*
X821747Y989908D01*
X821215Y990067D01*
X819760Y990199D01*
X818314Y990411D01*
X817759Y990381D01*
X817204Y990432D01*
X815753Y990274D01*
X814293Y990197D01*
X813753Y990058D01*
X813201Y989998D01*
X811811Y989558D01*
X810393Y989193D01*
X809892Y988951D01*
X809362Y988783D01*
X808084Y988078D01*
X806768Y987441D01*
X806324Y987105D01*
X805837Y986836D01*
X804724Y985892D01*
X803559Y985008D01*
X803190Y984591D01*
X802766Y984231D01*
X801860Y983085D01*
X800893Y981990D01*
X800614Y981509D01*
X800269Y981072D01*
X799606Y979768D01*
X798874Y978506D01*
X798662Y977911D01*
X798444Y977483D01*
X798217Y976668D01*
X797752Y975371D01*
X797169Y973196D01*
X793825Y967403D01*
X789097Y962675D01*
X783304Y959330D01*
X776844Y957599D01*
X730999Y957599D01*
X730999Y1035818D01*
X730982Y1035993D01*
X730996Y1036168D01*
X730783Y1037995D01*
X730600Y1039825D01*
X730549Y1039992D01*
X730528Y1040168D01*
X729957Y1041923D01*
X729419Y1043674D01*
X729336Y1043828D01*
X729281Y1043996D01*
X728374Y1045604D01*
X727502Y1047216D01*
X727389Y1047350D01*
X727303Y1047504D01*
X726103Y1048895D01*
X724924Y1050309D01*
X724786Y1050420D01*
X724672Y1050552D01*
X723227Y1051674D01*
X721786Y1052833D01*
X721629Y1052915D01*
X721491Y1053022D01*
X719850Y1053839D01*
X718213Y1054689D01*
X718043Y1054738D01*
X717886Y1054816D01*
X716118Y1055293D01*
X714343Y1055804D01*
X714167Y1055819D01*
X713998Y1055864D01*
X710680Y1056137D01*
X706637Y1056137D01*
X706637Y1060180D01*
X706620Y1060355D01*
X706634Y1060530D01*
X706420Y1062357D01*
X706238Y1064187D01*
X706187Y1064354D01*
X706166Y1064530D01*
X705594Y1066285D01*
X705057Y1068037D01*
X704973Y1068191D01*
X704919Y1068358D01*
X704012Y1069966D01*
X703139Y1071578D01*
X703027Y1071713D01*
X702941Y1071866D01*
X701740Y1073257D01*
X700562Y1074671D01*
X700424Y1074782D01*
X700310Y1074914D01*
X698865Y1076037D01*
X697424Y1077196D01*
X697267Y1077277D01*
X697129Y1077384D01*
X695488Y1078201D01*
X693850Y1079052D01*
X693681Y1079100D01*
X693524Y1079178D01*
X691756Y1079655D01*
X689981Y1080167D01*
X689805Y1080181D01*
X689636Y1080227D01*
X686318Y1080499D01*
X598099Y1080499D01*
X598099Y1116344D01*
X599830Y1122804D01*
X603175Y1128597D01*
X607028Y1132451D01*
X607139Y1132585D01*
X607274Y1132700D01*
X608417Y1134146D01*
X609580Y1135566D01*
X609663Y1135723D01*
X609771Y1135859D01*
X610602Y1137493D01*
X611467Y1139123D01*
X611517Y1139292D01*
X611597Y1139449D01*
X612088Y1141213D01*
X612615Y1142983D01*
X612631Y1143159D01*
X612678Y1143328D01*
X612812Y1145153D01*
X612979Y1146993D01*
X612960Y1147170D01*
X612973Y1147344D01*
X612744Y1149165D01*
X612546Y1150997D01*
X612493Y1151164D01*
X612471Y1151339D01*
X611884Y1153088D01*
X611331Y1154836D01*
X611247Y1154989D01*
X611190Y1155157D01*
X610269Y1156758D01*
X609383Y1158361D01*
X609270Y1158494D01*
X609182Y1158648D01*
X607028Y1161187D01*
X603499Y1164716D01*
X603499Y1209360D01*
X603482Y1209535D01*
X603496Y1209710D01*
X603283Y1211537D01*
X603100Y1213367D01*
X603049Y1213534D01*
X603028Y1213710D01*
X602457Y1215465D01*
X601919Y1217217D01*
X601836Y1217371D01*
X601781Y1217538D01*
X600874Y1219146D01*
X600002Y1220758D01*
X599889Y1220893D01*
X599803Y1221046D01*
X598603Y1222437D01*
X597424Y1223851D01*
X597286Y1223962D01*
X597172Y1224094D01*
X595727Y1225217D01*
X594286Y1226376D01*
X594129Y1226457D01*
X593991Y1226564D01*
X592350Y1227381D01*
X590713Y1228232D01*
X590543Y1228280D01*
X590386Y1228358D01*
X588618Y1228835D01*
X586843Y1229347D01*
X586667Y1229361D01*
X586498Y1229407D01*
X583180Y1229679D01*
X558202Y1229679D01*
X557984Y1229658D01*
X557764Y1229675D01*
X555980Y1229458D01*
X554195Y1229280D01*
X553985Y1229216D01*
X553767Y1229189D01*
X552064Y1228626D01*
X550346Y1228099D01*
X550152Y1227994D01*
X549944Y1227925D01*
X548385Y1227038D01*
X546804Y1226182D01*
X546636Y1226041D01*
X546445Y1225932D01*
X545093Y1224755D01*
X543711Y1223604D01*
X543573Y1223432D01*
X543408Y1223288D01*
X542313Y1221867D01*
X541187Y1220466D01*
X541085Y1220272D01*
X540951Y1220097D01*
X539429Y1217136D01*
X538754Y1215506D01*
X511694Y1188446D01*
X476335Y1173799D01*
X285664Y1173799D01*
X274735Y1178326D01*
X274630Y1178358D01*
X274533Y1178409D01*
X272706Y1178939D01*
X270881Y1179491D01*
X270771Y1179502D01*
X270666Y1179532D01*
X268763Y1179693D01*
X266872Y1179873D01*
X266764Y1179862D01*
X266653Y1179871D01*
X264740Y1179651D01*
X262867Y1179457D01*
X262763Y1179424D01*
X262653Y1179412D01*
X260828Y1178821D01*
X259022Y1178259D01*
X258926Y1178206D01*
X258821Y1178172D01*
X257161Y1177240D01*
X255489Y1176326D01*
X255405Y1176255D01*
X255309Y1176202D01*
X253875Y1174969D01*
X252407Y1173735D01*
X252338Y1173648D01*
X252255Y1173577D01*
X251088Y1172081D01*
X249896Y1170587D01*
X249846Y1170489D01*
X249778Y1170402D01*
X248923Y1168692D01*
X248056Y1167005D01*
X248026Y1166900D01*
X247976Y1166801D01*
X247473Y1164948D01*
X247011Y1163321D01*
X210821Y1163321D01*
X210821Y1204622D01*
X212002Y1205632D01*
X213465Y1206856D01*
X213535Y1206943D01*
X213620Y1207017D01*
X214792Y1208512D01*
X215983Y1209998D01*
X216035Y1210099D01*
X216104Y1210187D01*
X216958Y1211883D01*
X217832Y1213575D01*
X217863Y1213683D01*
X217914Y1213784D01*
X218419Y1215627D01*
X218940Y1217447D01*
X218949Y1217558D01*
X218978Y1217667D01*
X219110Y1219564D01*
X219262Y1221461D01*
X219248Y1221573D01*
X219256Y1221684D01*
X219011Y1223567D01*
X218786Y1225460D01*
X218752Y1225565D01*
X218737Y1225678D01*
X217719Y1228848D01*
X208599Y1250865D01*
X208599Y1289135D01*
X223246Y1324494D01*
X250306Y1351554D01*
X285665Y1366200D01*
X320360Y1366200D01*
X320535Y1366218D01*
X320710Y1366203D01*
X322537Y1366417D01*
X324367Y1366599D01*
X324534Y1366651D01*
X324710Y1366671D01*
X326465Y1367243D01*
X328217Y1367781D01*
X328371Y1367864D01*
X328538Y1367919D01*
X330146Y1368825D01*
X331758Y1369698D01*
X331893Y1369810D01*
X332046Y1369897D01*
X333437Y1371097D01*
X334851Y1372276D01*
X334962Y1372413D01*
X335094Y1372528D01*
X336217Y1373973D01*
X337376Y1375413D01*
X337457Y1375570D01*
X337564Y1375708D01*
X338381Y1377349D01*
X339232Y1378987D01*
X339280Y1379157D01*
X339358Y1379313D01*
X339835Y1381081D01*
X340347Y1382857D01*
X340361Y1383033D01*
X340407Y1383202D01*
X340679Y1386520D01*
X340679Y1497319D01*
X340653Y1497582D01*
X340673Y1497845D01*
X340454Y1499583D01*
X340280Y1501326D01*
X340203Y1501577D01*
X340170Y1501840D01*
X339613Y1503502D01*
X339099Y1505176D01*
X338973Y1505408D01*
X338889Y1505658D01*
X338015Y1507177D01*
X337182Y1508717D01*
X337013Y1508920D01*
X336881Y1509148D01*
X336399Y1509716D01*
X336399Y1666585D01*
X348115Y1678300D01*
X464685Y1678300D01*
X476400Y1666585D01*
X476400Y1648940D01*
X476418Y1648764D01*
X476403Y1648590D01*
X476617Y1646763D01*
X476799Y1644933D01*
X476851Y1644765D01*
X476871Y1644590D01*
X477443Y1642835D01*
X477981Y1641083D01*
X478064Y1640929D01*
X478119Y1640761D01*
X479025Y1639154D01*
X479898Y1637542D01*
X480010Y1637407D01*
X480097Y1637254D01*
X481297Y1635863D01*
X482476Y1634448D01*
X482613Y1634338D01*
X482728Y1634205D01*
X484173Y1633083D01*
X485613Y1631924D01*
X485770Y1631843D01*
X485908Y1631735D01*
X487549Y1630919D01*
X489187Y1630068D01*
X489357Y1630019D01*
X489513Y1629941D01*
X491281Y1629465D01*
X493057Y1628953D01*
X493233Y1628939D01*
X493402Y1628893D01*
X496720Y1628620D01*
X519280Y1628620D01*
X519455Y1628638D01*
X519630Y1628623D01*
X521457Y1628837D01*
X523287Y1629019D01*
X523454Y1629071D01*
X523630Y1629091D01*
X525385Y1629663D01*
X527137Y1630201D01*
X527291Y1630284D01*
X527458Y1630339D01*
X529066Y1631245D01*
X530678Y1632118D01*
X530813Y1632230D01*
X530966Y1632317D01*
X532357Y1633517D01*
X533771Y1634696D01*
X533882Y1634833D01*
X534014Y1634948D01*
X535137Y1636393D01*
X536296Y1637833D01*
X536377Y1637990D01*
X536484Y1638128D01*
X537301Y1639769D01*
X538152Y1641407D01*
X538200Y1641577D01*
X538278Y1641733D01*
X538755Y1643501D01*
X539267Y1645277D01*
X539281Y1645453D01*
X539327Y1645622D01*
X539599Y1648940D01*
X539599Y1666585D01*
X551315Y1678300D01*
X667885Y1678300D01*
X679600Y1666585D01*
X679600Y1510015D01*
X667885Y1498299D01*
X551315Y1498299D01*
X539599Y1510015D01*
X539599Y1527660D01*
X539582Y1527835D01*
X539596Y1528010D01*
X539383Y1529837D01*
X539200Y1531667D01*
X539149Y1531834D01*
X539128Y1532010D01*
X538557Y1533765D01*
X538019Y1535517D01*
X537936Y1535671D01*
X537881Y1535838D01*
X536974Y1537446D01*
X536102Y1539058D01*
X535989Y1539193D01*
X535903Y1539346D01*
X534703Y1540737D01*
X533524Y1542151D01*
X533386Y1542262D01*
X533272Y1542394D01*
X531827Y1543517D01*
X530386Y1544676D01*
X530229Y1544757D01*
X530091Y1544864D01*
X528450Y1545681D01*
X526813Y1546532D01*
X526643Y1546580D01*
X526486Y1546658D01*
X524718Y1547135D01*
X522943Y1547647D01*
X522767Y1547661D01*
X522598Y1547707D01*
X519280Y1547979D01*
X496720Y1547979D01*
X496544Y1547962D01*
X496370Y1547976D01*
X494543Y1547763D01*
X492713Y1547580D01*
X492545Y1547529D01*
X492370Y1547508D01*
X490615Y1546937D01*
X488863Y1546399D01*
X488709Y1546316D01*
X488541Y1546261D01*
X486934Y1545354D01*
X485322Y1544482D01*
X485187Y1544369D01*
X485034Y1544283D01*
X483643Y1543083D01*
X482228Y1541904D01*
X482118Y1541766D01*
X481985Y1541652D01*
X480863Y1540207D01*
X479704Y1538766D01*
X479623Y1538609D01*
X479515Y1538471D01*
X478699Y1536830D01*
X477848Y1535193D01*
X477799Y1535023D01*
X477721Y1534866D01*
X477245Y1533098D01*
X476733Y1531323D01*
X476719Y1531147D01*
X476673Y1530978D01*
X476400Y1527660D01*
X476400Y1510015D01*
X464685Y1498299D01*
X441640Y1498299D01*
X441464Y1498282D01*
X441290Y1498296D01*
X439463Y1498083D01*
X437633Y1497900D01*
X437465Y1497849D01*
X437290Y1497828D01*
X435535Y1497257D01*
X433783Y1496719D01*
X433629Y1496636D01*
X433461Y1496581D01*
X431854Y1495674D01*
X430242Y1494802D01*
X430107Y1494689D01*
X429954Y1494603D01*
X428563Y1493403D01*
X427148Y1492224D01*
X427038Y1492086D01*
X426905Y1491972D01*
X425783Y1490527D01*
X424624Y1489086D01*
X424543Y1488929D01*
X424435Y1488791D01*
X423619Y1487150D01*
X422768Y1485513D01*
X422719Y1485343D01*
X422641Y1485186D01*
X422165Y1483418D01*
X421653Y1481643D01*
X421639Y1481467D01*
X421593Y1481298D01*
X421320Y1477980D01*
X421320Y1386520D01*
X421325Y1386471D01*
X421323Y1386449D01*
X421337Y1386334D01*
X421323Y1386170D01*
X421537Y1384343D01*
X421719Y1382513D01*
X421771Y1382345D01*
X421791Y1382170D01*
X422363Y1380415D01*
X422901Y1378663D01*
X422984Y1378509D01*
X423039Y1378341D01*
X423945Y1376734D01*
X424818Y1375122D01*
X424930Y1374987D01*
X425017Y1374834D01*
X426217Y1373443D01*
X427396Y1372028D01*
X427533Y1371918D01*
X427648Y1371785D01*
X429093Y1370663D01*
X430533Y1369504D01*
X430690Y1369423D01*
X430828Y1369315D01*
X432469Y1368499D01*
X434107Y1367648D01*
X434277Y1367599D01*
X434433Y1367521D01*
X436201Y1367045D01*
X437977Y1366533D01*
X438153Y1366519D01*
X438322Y1366473D01*
X441640Y1366200D01*
X476335Y1366200D01*
X511694Y1351554D01*
X538754Y1324494D01*
X539429Y1322864D01*
X539533Y1322671D01*
X539601Y1322461D01*
X540486Y1320893D01*
X541332Y1319315D01*
X541471Y1319146D01*
X541579Y1318954D01*
X542755Y1317592D01*
X543896Y1316210D01*
X544067Y1316072D01*
X544210Y1315905D01*
X545623Y1314808D01*
X547023Y1313672D01*
X547218Y1313570D01*
X547391Y1313435D01*
X548994Y1312638D01*
X550588Y1311801D01*
X550799Y1311739D01*
X550996Y1311641D01*
X552730Y1311174D01*
X554453Y1310669D01*
X554672Y1310650D01*
X554884Y1310593D01*
X558202Y1310320D01*
X594119Y1310320D01*
X594382Y1310347D01*
X594644Y1310327D01*
X596380Y1310546D01*
X598126Y1310719D01*
X598378Y1310797D01*
X598640Y1310830D01*
X600300Y1311386D01*
X601976Y1311901D01*
X602208Y1312026D01*
X602458Y1312110D01*
X603978Y1312985D01*
X605517Y1313818D01*
X605719Y1313987D01*
X605948Y1314118D01*
X608487Y1316272D01*
X615215Y1323000D01*
X781784Y1323000D01*
X788513Y1316272D01*
X788717Y1316105D01*
X788889Y1315905D01*
X790272Y1314831D01*
X791628Y1313721D01*
X791861Y1313597D01*
X792069Y1313435D01*
X793633Y1312657D01*
X795185Y1311834D01*
X795439Y1311758D01*
X795674Y1311641D01*
X797362Y1311186D01*
X799045Y1310686D01*
X799308Y1310662D01*
X799563Y1310593D01*
X802881Y1310320D01*
X873952Y1310320D01*
X897570Y1286702D01*
X897570Y1076640D01*
X897588Y1076464D01*
X897573Y1076290D01*
X897787Y1074463D01*
X897969Y1072633D01*
X898021Y1072465D01*
X898041Y1072290D01*
X898613Y1070535D01*
X899151Y1068783D01*
X899234Y1068629D01*
X899289Y1068461D01*
X900195Y1066854D01*
X901068Y1065242D01*
X901180Y1065107D01*
X901267Y1064954D01*
X902467Y1063563D01*
X903646Y1062148D01*
X903783Y1062038D01*
X903898Y1061905D01*
X905343Y1060783D01*
X906783Y1059624D01*
X906940Y1059543D01*
X907078Y1059435D01*
X908719Y1058619D01*
X910357Y1057768D01*
X910527Y1057719D01*
X910683Y1057641D01*
X912451Y1057165D01*
X914227Y1056653D01*
X914403Y1056639D01*
X914572Y1056593D01*
X917890Y1056320D01*
X940680Y1056320D01*
X940855Y1056338D01*
X941030Y1056323D01*
X942857Y1056537D01*
X944687Y1056719D01*
X944854Y1056771D01*
X945030Y1056791D01*
X946785Y1057363D01*
X948537Y1057901D01*
X948691Y1057984D01*
X948858Y1058039D01*
X950466Y1058945D01*
X952078Y1059818D01*
X952213Y1059930D01*
X952366Y1060017D01*
X953757Y1061217D01*
X955171Y1062396D01*
X955282Y1062533D01*
X955414Y1062648D01*
X956537Y1064093D01*
X957696Y1065533D01*
X957777Y1065690D01*
X957884Y1065828D01*
X958701Y1067469D01*
X959552Y1069107D01*
X959600Y1069277D01*
X959678Y1069433D01*
X960155Y1071201D01*
X960667Y1072977D01*
X960681Y1073153D01*
X960727Y1073322D01*
X960999Y1076640D01*
X960999Y1131927D01*
X961090Y1132042D01*
X961924Y1133682D01*
X962785Y1135305D01*
X962835Y1135473D01*
X962915Y1135631D01*
X963411Y1137410D01*
X963933Y1139165D01*
X963949Y1139338D01*
X963997Y1139510D01*
X964131Y1141339D01*
X964298Y1143175D01*
X964279Y1143351D01*
X964292Y1143526D01*
X964062Y1145351D01*
X963864Y1147178D01*
X963811Y1147346D01*
X963789Y1147522D01*
X963202Y1149273D01*
X962650Y1151018D01*
X962565Y1151172D01*
X962508Y1151339D01*
X961588Y1152938D01*
X960999Y1154004D01*
X960999Y1231284D01*
X969728Y1240013D01*
X969895Y1240217D01*
X970094Y1240389D01*
X971168Y1241772D01*
X972279Y1243128D01*
X972403Y1243361D01*
X972564Y1243569D01*
X973344Y1245136D01*
X974166Y1246686D01*
X974241Y1246939D01*
X974358Y1247174D01*
X974814Y1248863D01*
X975314Y1250545D01*
X975338Y1250808D01*
X975407Y1251063D01*
X975679Y1254381D01*
X975679Y1285619D01*
X975653Y1285882D01*
X975673Y1286144D01*
X975454Y1287879D01*
X975280Y1289626D01*
X975203Y1289878D01*
X975170Y1290139D01*
X974614Y1291798D01*
X974099Y1293475D01*
X973973Y1293707D01*
X973890Y1293957D01*
X973014Y1295479D01*
X972182Y1297017D01*
X972013Y1297218D01*
X971882Y1297448D01*
X969728Y1299987D01*
X960999Y1308715D01*
X960999Y1385927D01*
X961090Y1386042D01*
X961924Y1387682D01*
X962785Y1389305D01*
X962835Y1389473D01*
X962915Y1389631D01*
X963411Y1391410D01*
X963933Y1393165D01*
X963949Y1393339D01*
X963997Y1393510D01*
X964131Y1395342D01*
X964298Y1397175D01*
X964279Y1397351D01*
X964292Y1397526D01*
X964062Y1399351D01*
X963864Y1401178D01*
X963811Y1401346D01*
X963789Y1401522D01*
X963202Y1403273D01*
X962650Y1405018D01*
X962565Y1405172D01*
X962508Y1405339D01*
X961588Y1406938D01*
X960999Y1408004D01*
X960999Y1485285D01*
X972715Y1497000D01*
X1059285Y1497000D01*
X1063013Y1493272D01*
X1063216Y1493105D01*
X1063389Y1492905D01*
X1064770Y1491833D01*
X1066128Y1490720D01*
X1066363Y1490596D01*
X1066570Y1490435D01*
X1068132Y1489658D01*
X1069686Y1488834D01*
X1069939Y1488758D01*
X1070175Y1488641D01*
X1071864Y1488186D01*
X1073546Y1487686D01*
X1073808Y1487662D01*
X1074063Y1487593D01*
X1077381Y1487320D01*
X1223202Y1487320D01*
X1246820Y1463702D01*
X1246820Y1375843D01*
X1246847Y1375580D01*
X1246827Y1375318D01*
X1247045Y1373583D01*
X1247219Y1371836D01*
X1247297Y1371583D01*
X1247330Y1371322D01*
X1247886Y1369662D01*
X1248401Y1367986D01*
X1248526Y1367754D01*
X1248610Y1367504D01*
X1249486Y1365982D01*
X1250318Y1364445D01*
X1250486Y1364243D01*
X1250618Y1364014D01*
X1250752Y1363856D01*
X1259000Y1343943D01*
X1259000Y1323057D01*
X1251008Y1303760D01*
X1236240Y1288993D01*
X1235709Y1288773D01*
X1235631Y1288731D01*
X1235547Y1288705D01*
X1233868Y1287786D01*
X1232160Y1286871D01*
X1232092Y1286815D01*
X1232014Y1286773D01*
X1230543Y1285536D01*
X1229055Y1284307D01*
X1229000Y1284238D01*
X1228932Y1284181D01*
X1227728Y1282672D01*
X1226518Y1281180D01*
X1226477Y1281103D01*
X1226421Y1281033D01*
X1225532Y1279303D01*
X1224646Y1277615D01*
X1224621Y1277531D01*
X1224581Y1277452D01*
X1224049Y1275578D01*
X1223514Y1273750D01*
X1223506Y1273662D01*
X1223483Y1273578D01*
X1223334Y1271670D01*
X1223167Y1269738D01*
X1223177Y1269650D01*
X1223170Y1269563D01*
X1223400Y1267667D01*
X1223617Y1265737D01*
X1223644Y1265652D01*
X1223655Y1265565D01*
X1224259Y1263737D01*
X1224848Y1261903D01*
X1224891Y1261826D01*
X1224919Y1261742D01*
X1225878Y1260057D01*
X1226811Y1258387D01*
X1226868Y1258320D01*
X1226912Y1258243D01*
X1228176Y1256791D01*
X1229428Y1255327D01*
X1229498Y1255272D01*
X1229556Y1255206D01*
X1231076Y1254036D01*
X1232598Y1252843D01*
X1232677Y1252803D01*
X1232747Y1252749D01*
X1235708Y1251228D01*
X1236239Y1251008D01*
X1251008Y1236239D01*
X1259000Y1216943D01*
X1259000Y1196057D01*
X1251008Y1176760D01*
X1236239Y1161992D01*
X1216943Y1153999D01*
X1196057Y1153999D01*
X1175972Y1162319D01*
X1175409Y1162779D01*
X1175175Y1162903D01*
X1174968Y1163064D01*
X1173406Y1163842D01*
X1171852Y1164666D01*
X1171598Y1164741D01*
X1171363Y1164858D01*
X1169674Y1165314D01*
X1167992Y1165814D01*
X1167730Y1165838D01*
X1167475Y1165907D01*
X1164157Y1166179D01*
X1090881Y1166179D01*
X1090618Y1166153D01*
X1090356Y1166173D01*
X1088620Y1165954D01*
X1086874Y1165780D01*
X1086621Y1165703D01*
X1086360Y1165670D01*
X1084700Y1165113D01*
X1083024Y1164599D01*
X1082792Y1164473D01*
X1082542Y1164390D01*
X1081020Y1163514D01*
X1079483Y1162682D01*
X1079281Y1162513D01*
X1079052Y1162382D01*
X1076513Y1160228D01*
X1073653Y1157368D01*
X1073542Y1157232D01*
X1073407Y1157118D01*
X1072266Y1155674D01*
X1071101Y1154253D01*
X1071019Y1154097D01*
X1070910Y1153959D01*
X1070079Y1152325D01*
X1069215Y1150695D01*
X1069164Y1150526D01*
X1069085Y1150370D01*
X1068592Y1148602D01*
X1068067Y1146835D01*
X1068051Y1146660D01*
X1068003Y1146491D01*
X1067869Y1144663D01*
X1067702Y1142825D01*
X1067721Y1142648D01*
X1067708Y1142475D01*
X1067937Y1140657D01*
X1068136Y1138822D01*
X1068189Y1138653D01*
X1068211Y1138479D01*
X1068795Y1136736D01*
X1069350Y1134982D01*
X1069435Y1134828D01*
X1069491Y1134662D01*
X1070415Y1133055D01*
X1071000Y1131996D01*
X1071000Y1076640D01*
X1071018Y1076464D01*
X1071003Y1076290D01*
X1071217Y1074463D01*
X1071399Y1072633D01*
X1071451Y1072465D01*
X1071471Y1072290D01*
X1072043Y1070535D01*
X1072581Y1068783D01*
X1072664Y1068629D01*
X1072719Y1068461D01*
X1073625Y1066854D01*
X1074498Y1065242D01*
X1074610Y1065107D01*
X1074697Y1064954D01*
X1075897Y1063563D01*
X1077076Y1062148D01*
X1077213Y1062038D01*
X1077328Y1061905D01*
X1078773Y1060783D01*
X1080213Y1059624D01*
X1080370Y1059543D01*
X1080508Y1059435D01*
X1082149Y1058619D01*
X1083787Y1057768D01*
X1083957Y1057719D01*
X1084113Y1057641D01*
X1085881Y1057165D01*
X1087657Y1056653D01*
X1087833Y1056639D01*
X1088002Y1056593D01*
X1091320Y1056320D01*
X1291157Y1056320D01*
X1291420Y1056347D01*
X1291682Y1056327D01*
X1293417Y1056545D01*
X1295164Y1056719D01*
X1295416Y1056797D01*
X1295678Y1056830D01*
X1297338Y1057386D01*
X1299013Y1057901D01*
X1299245Y1058026D01*
X1299495Y1058110D01*
X1301018Y1058986D01*
X1302555Y1059818D01*
X1302757Y1059986D01*
X1302986Y1060118D01*
X1303143Y1060252D01*
X1323846Y1068828D01*
X1324569Y1068899D01*
X1324821Y1068977D01*
X1325083Y1069010D01*
X1326743Y1069566D01*
X1328418Y1070081D01*
X1328650Y1070206D01*
X1328900Y1070290D01*
X1330423Y1071166D01*
X1331960Y1071998D01*
X1332162Y1072166D01*
X1332391Y1072298D01*
X1334930Y1074452D01*
X1448478Y1188000D01*
X1655009Y1188000D01*
X1655272Y1188027D01*
X1655534Y1188007D01*
X1657270Y1188225D01*
X1659016Y1188399D01*
X1659269Y1188477D01*
X1659530Y1188510D01*
X1661190Y1189066D01*
X1662866Y1189581D01*
X1663098Y1189706D01*
X1663348Y1189790D01*
X1664870Y1190666D01*
X1666407Y1191498D01*
X1666609Y1191666D01*
X1666838Y1191798D01*
X1669377Y1193952D01*
X1722246Y1246820D01*
X1907860Y1246820D01*
X1908035Y1246838D01*
X1908210Y1246823D01*
X1910037Y1247037D01*
X1911867Y1247219D01*
X1912034Y1247271D01*
X1912210Y1247291D01*
X1913965Y1247863D01*
X1915717Y1248401D01*
X1915871Y1248484D01*
X1916038Y1248539D01*
X1917646Y1249445D01*
X1919258Y1250318D01*
X1919393Y1250430D01*
X1919546Y1250517D01*
X1920937Y1251717D01*
X1922351Y1252896D01*
X1922462Y1253033D01*
X1922594Y1253148D01*
X1923717Y1254593D01*
X1924876Y1256033D01*
X1924957Y1256190D01*
X1925064Y1256328D01*
X1925881Y1257969D01*
X1926732Y1259607D01*
X1926780Y1259777D01*
X1926858Y1259933D01*
X1927335Y1261701D01*
X1927847Y1263477D01*
X1927861Y1263653D01*
X1927907Y1263822D01*
X1928179Y1267140D01*
X1928179Y1477202D01*
X2310848Y1859870D01*
X2311014Y1860073D01*
X2311214Y1860246D01*
X2312287Y1861627D01*
X2313399Y1862985D01*
X2313523Y1863219D01*
X2313684Y1863427D01*
X2314462Y1864989D01*
X2315286Y1866543D01*
X2315361Y1866796D01*
X2315478Y1867032D01*
X2315934Y1868721D01*
X2316434Y1870403D01*
X2316458Y1870665D01*
X2316527Y1870920D01*
X2316799Y1874238D01*
X2316799Y2000335D01*
X2331446Y2035694D01*
X2358506Y2062754D01*
X2393865Y2077400D01*
X2432135Y2077400D01*
X2467493Y2062754D01*
X2494555Y2035693D01*
X2509200Y2000336D01*
X2509200Y1809665D01*
X2494554Y1774306D01*
X2467494Y1747246D01*
X2432135Y1732599D01*
X2393865Y1732599D01*
X2358506Y1747245D01*
X2349755Y1755997D01*
X2349618Y1756109D01*
X2349505Y1756243D01*
X2348059Y1757386D01*
X2346639Y1758548D01*
X2346485Y1758630D01*
X2346346Y1758740D01*
X2344711Y1759571D01*
X2343082Y1760435D01*
X2342912Y1760486D01*
X2342757Y1760565D01*
X2340994Y1761056D01*
X2339223Y1761583D01*
X2339047Y1761599D01*
X2338878Y1761646D01*
X2337052Y1761781D01*
X2335212Y1761948D01*
X2335036Y1761929D01*
X2334862Y1761942D01*
X2333042Y1761713D01*
X2331209Y1761514D01*
X2331041Y1761461D01*
X2330866Y1761439D01*
X2329117Y1760853D01*
X2327369Y1760300D01*
X2327216Y1760215D01*
X2327048Y1760159D01*
X2325453Y1759241D01*
X2323845Y1758352D01*
X2323710Y1758238D01*
X2323558Y1758151D01*
X2321019Y1755997D01*
X2014772Y1449750D01*
X2014605Y1449547D01*
X2014405Y1449374D01*
X2013333Y1447993D01*
X2012220Y1446634D01*
X2012096Y1446400D01*
X2011935Y1446193D01*
X2011158Y1444631D01*
X2010334Y1443077D01*
X2010258Y1442823D01*
X2010141Y1442588D01*
X2009686Y1440899D01*
X2009186Y1439217D01*
X2009162Y1438955D01*
X2009093Y1438700D01*
X2008820Y1435382D01*
X2008820Y1248843D01*
X2008847Y1248580D01*
X2008827Y1248318D01*
X2009045Y1246583D01*
X2009219Y1244836D01*
X2009297Y1244583D01*
X2009330Y1244322D01*
X2009886Y1242662D01*
X2010401Y1240986D01*
X2010526Y1240754D01*
X2010610Y1240504D01*
X2011488Y1238978D01*
X2012318Y1237445D01*
X2012486Y1237243D01*
X2012618Y1237014D01*
X2012752Y1236856D01*
X2021000Y1216943D01*
X2021000Y1196057D01*
X2013008Y1176760D01*
X1998239Y1161992D01*
X1978943Y1153999D01*
X1958057Y1153999D01*
X1937972Y1162319D01*
X1937409Y1162779D01*
X1937175Y1162903D01*
X1936968Y1163064D01*
X1935406Y1163842D01*
X1933852Y1164666D01*
X1933598Y1164741D01*
X1933363Y1164858D01*
X1931674Y1165314D01*
X1929992Y1165814D01*
X1929730Y1165838D01*
X1929475Y1165907D01*
X1926157Y1166179D01*
X1764065Y1166179D01*
X1763803Y1166153D01*
X1763540Y1166173D01*
X1761805Y1165954D01*
X1760058Y1165780D01*
X1759806Y1165703D01*
X1759545Y1165670D01*
X1757885Y1165113D01*
X1756209Y1164599D01*
X1755977Y1164473D01*
X1755727Y1164390D01*
X1754205Y1163514D01*
X1752668Y1162682D01*
X1752466Y1162513D01*
X1752237Y1162382D01*
X1749698Y1160228D01*
X1696829Y1107359D01*
X1490298Y1107359D01*
X1490035Y1107333D01*
X1489773Y1107353D01*
X1488038Y1107134D01*
X1486291Y1106960D01*
X1486038Y1106883D01*
X1485777Y1106850D01*
X1484117Y1106293D01*
X1482441Y1105779D01*
X1482209Y1105653D01*
X1481959Y1105570D01*
X1480437Y1104694D01*
X1478900Y1103862D01*
X1478698Y1103693D01*
X1478469Y1103562D01*
X1475930Y1101408D01*
X1391952Y1017430D01*
X1391785Y1017227D01*
X1391585Y1017054D01*
X1390513Y1015673D01*
X1389400Y1014314D01*
X1389276Y1014080D01*
X1389115Y1013873D01*
X1388338Y1012311D01*
X1387514Y1010757D01*
X1387438Y1010503D01*
X1387321Y1010268D01*
X1386866Y1008579D01*
X1386366Y1006897D01*
X1386342Y1006635D01*
X1386273Y1006380D01*
X1386256Y1006174D01*
X1378008Y986260D01*
X1363239Y971492D01*
X1343943Y963499D01*
X1323057Y963499D01*
X1302972Y971819D01*
X1302409Y972279D01*
X1302175Y972403D01*
X1301968Y972564D01*
X1300406Y973342D01*
X1298852Y974166D01*
X1298598Y974241D01*
X1298363Y974358D01*
X1296674Y974814D01*
X1294992Y975314D01*
X1294730Y975338D01*
X1294475Y975407D01*
X1291157Y975679D01*
X1236579Y975679D01*
X1236534Y975675D01*
X1236491Y975679D01*
X1234536Y975476D01*
X1232572Y975280D01*
X1232530Y975268D01*
X1232485Y975263D01*
X1230603Y974676D01*
X1228722Y974099D01*
X1228683Y974078D01*
X1228641Y974065D01*
X1226904Y973115D01*
X1225181Y972182D01*
X1225148Y972154D01*
X1225108Y972132D01*
X1223602Y970866D01*
X1222088Y969604D01*
X1222059Y969569D01*
X1222026Y969541D01*
X1220785Y967984D01*
X1219563Y966466D01*
X1219543Y966427D01*
X1219515Y966393D01*
X1218611Y964634D01*
X1217707Y962893D01*
X1217695Y962851D01*
X1217675Y962811D01*
X1217135Y960908D01*
X1216592Y959023D01*
X1216588Y958979D01*
X1216577Y958937D01*
X1216423Y956960D01*
X1216263Y955010D01*
X1216268Y954967D01*
X1216264Y954922D01*
X1216508Y952914D01*
X1216730Y951010D01*
X1216744Y950968D01*
X1216749Y950924D01*
X1217367Y949056D01*
X1217978Y947182D01*
X1217999Y947143D01*
X1218013Y947101D01*
X1218983Y945400D01*
X1219956Y943674D01*
X1219985Y943640D01*
X1220007Y943602D01*
X1221292Y942127D01*
X1222587Y940626D01*
X1222622Y940598D01*
X1222651Y940565D01*
X1224223Y939355D01*
X1225768Y938156D01*
X1225807Y938136D01*
X1225842Y938109D01*
X1228803Y936587D01*
X1236240Y933507D01*
X1251008Y918739D01*
X1259000Y899443D01*
X1259000Y878557D01*
X1250681Y858472D01*
X1250222Y857912D01*
X1250098Y857678D01*
X1249935Y857468D01*
X1249157Y855903D01*
X1248335Y854355D01*
X1248259Y854099D01*
X1248141Y853863D01*
X1247688Y852182D01*
X1247186Y850495D01*
X1247162Y850230D01*
X1247093Y849975D01*
X1246820Y846657D01*
X1246820Y837320D01*
X1246838Y837144D01*
X1246823Y836970D01*
X1247037Y835143D01*
X1247219Y833313D01*
X1247271Y833145D01*
X1247291Y832970D01*
X1247863Y831215D01*
X1248401Y829463D01*
X1248484Y829309D01*
X1248539Y829141D01*
X1249446Y827533D01*
X1250318Y825922D01*
X1250430Y825787D01*
X1250517Y825634D01*
X1251717Y824243D01*
X1252896Y822828D01*
X1253033Y822718D01*
X1253148Y822585D01*
X1254593Y821463D01*
X1256033Y820304D01*
X1256190Y820223D01*
X1256328Y820115D01*
X1257969Y819299D01*
X1259607Y818448D01*
X1259777Y818399D01*
X1259933Y818321D01*
X1261701Y817845D01*
X1263477Y817333D01*
X1263653Y817319D01*
X1263822Y817273D01*
X1267140Y817000D01*
X1322427Y817000D01*
X1322542Y816909D01*
X1324182Y816075D01*
X1325805Y815215D01*
X1325973Y815165D01*
X1326131Y815084D01*
X1327910Y814588D01*
X1329665Y814067D01*
X1329839Y814051D01*
X1330010Y814003D01*
X1331842Y813868D01*
X1333675Y813702D01*
X1333851Y813721D01*
X1334026Y813708D01*
X1335851Y813938D01*
X1337678Y814136D01*
X1337846Y814188D01*
X1338022Y814211D01*
X1339773Y814798D01*
X1341518Y815350D01*
X1341672Y815435D01*
X1341839Y815491D01*
X1343438Y816411D01*
X1344504Y817000D01*
X1421784Y817000D01*
X1430513Y808272D01*
X1430717Y808105D01*
X1430889Y807905D01*
X1432272Y806831D01*
X1433628Y805721D01*
X1433861Y805597D01*
X1434069Y805435D01*
X1435636Y804656D01*
X1437186Y803834D01*
X1437439Y803758D01*
X1437674Y803641D01*
X1439363Y803186D01*
X1441045Y802686D01*
X1441308Y802662D01*
X1441563Y802593D01*
X1444881Y802320D01*
X2006882Y802320D01*
X2007145Y802347D01*
X2007407Y802327D01*
X2009142Y802545D01*
X2010889Y802719D01*
X2011141Y802797D01*
X2011403Y802830D01*
X2013063Y803386D01*
X2014738Y803901D01*
X2014970Y804026D01*
X2015220Y804110D01*
X2016743Y804986D01*
X2018280Y805818D01*
X2018482Y805986D01*
X2018711Y806118D01*
X2021250Y808272D01*
X2523298Y1310320D01*
X2743798Y1310320D01*
X2744016Y1310342D01*
X2744235Y1310325D01*
X2746020Y1310542D01*
X2747804Y1310719D01*
X2748014Y1310784D01*
X2748233Y1310810D01*
X2749936Y1311373D01*
X2751654Y1311901D01*
X2751848Y1312006D01*
X2752056Y1312074D01*
X2753614Y1312962D01*
X2755195Y1313818D01*
X2755364Y1313959D01*
X2755555Y1314068D01*
X2756907Y1315245D01*
X2758289Y1316396D01*
X2758427Y1316568D01*
X2758592Y1316712D01*
X2759686Y1318133D01*
X2760813Y1319533D01*
X2760914Y1319728D01*
X2761048Y1319903D01*
X2762570Y1322864D01*
X2763245Y1324494D01*
X2790306Y1351554D01*
X2825665Y1366200D01*
X3016335Y1366200D01*
X3051694Y1351554D01*
X3078754Y1324494D01*
X3093400Y1289135D01*
X3093400Y1250864D01*
X3084281Y1228848D01*
X3084249Y1228742D01*
X3084197Y1228642D01*
X3083665Y1226811D01*
X3083116Y1224993D01*
X3083105Y1224882D01*
X3083074Y1224775D01*
X3082915Y1222884D01*
X3082734Y1220985D01*
X3082746Y1220874D01*
X3082736Y1220763D01*
X3082954Y1218872D01*
X3083150Y1216979D01*
X3083183Y1216873D01*
X3083196Y1216762D01*
X3083784Y1214947D01*
X3084348Y1213135D01*
X3084402Y1213037D01*
X3084436Y1212931D01*
X3085368Y1211271D01*
X3086281Y1209602D01*
X3086353Y1209516D01*
X3086407Y1209419D01*
X3087653Y1207970D01*
X3088872Y1206520D01*
X3088959Y1206450D01*
X3089032Y1206365D01*
X3090533Y1205195D01*
X3091179Y1204680D01*
X3091179Y1163321D01*
X3054981Y1163321D01*
X3054953Y1163603D01*
X3054920Y1163709D01*
X3054908Y1163818D01*
X3054328Y1165624D01*
X3053763Y1167451D01*
X3053710Y1167548D01*
X3053676Y1167653D01*
X3052754Y1169305D01*
X3051838Y1170988D01*
X3051767Y1171073D01*
X3051713Y1171168D01*
X3050478Y1172613D01*
X3049253Y1174076D01*
X3049168Y1174145D01*
X3049096Y1174228D01*
X3047610Y1175392D01*
X3046111Y1176593D01*
X3046013Y1176644D01*
X3045926Y1176712D01*
X3044223Y1177569D01*
X3042533Y1178442D01*
X3042428Y1178472D01*
X3042328Y1178522D01*
X3040480Y1179028D01*
X3038661Y1179548D01*
X3038552Y1179557D01*
X3038445Y1179586D01*
X3036546Y1179718D01*
X3034647Y1179870D01*
X3034537Y1179857D01*
X3034428Y1179864D01*
X3032553Y1179620D01*
X3030649Y1179393D01*
X3030543Y1179358D01*
X3030434Y1179344D01*
X3027264Y1178327D01*
X3016335Y1173799D01*
X2825665Y1173799D01*
X2790306Y1188446D01*
X2763245Y1215506D01*
X2762570Y1217136D01*
X2762467Y1217329D01*
X2762398Y1217538D01*
X2761514Y1219107D01*
X2760668Y1220685D01*
X2760529Y1220854D01*
X2760420Y1221046D01*
X2759245Y1222408D01*
X2758103Y1223790D01*
X2757933Y1223928D01*
X2757789Y1224094D01*
X2756376Y1225192D01*
X2754977Y1226328D01*
X2754782Y1226430D01*
X2754609Y1226564D01*
X2753006Y1227362D01*
X2751412Y1228199D01*
X2751200Y1228261D01*
X2751004Y1228358D01*
X2749269Y1228826D01*
X2747547Y1229330D01*
X2747328Y1229349D01*
X2747116Y1229407D01*
X2743798Y1229679D01*
X2565118Y1229679D01*
X2564855Y1229653D01*
X2564593Y1229673D01*
X2562858Y1229454D01*
X2561111Y1229280D01*
X2560858Y1229203D01*
X2560597Y1229170D01*
X2558937Y1228613D01*
X2557261Y1228099D01*
X2557029Y1227973D01*
X2556779Y1227890D01*
X2555257Y1227014D01*
X2553720Y1226182D01*
X2553518Y1226013D01*
X2553289Y1225882D01*
X2550750Y1223728D01*
X2048702Y721679D01*
X2029140Y721679D01*
X2028964Y721662D01*
X2028790Y721676D01*
X2026963Y721463D01*
X2025133Y721280D01*
X2024965Y721229D01*
X2024790Y721208D01*
X2023035Y720637D01*
X2021283Y720099D01*
X2021129Y720016D01*
X2020961Y719961D01*
X2019354Y719054D01*
X2017742Y718182D01*
X2017607Y718069D01*
X2017454Y717983D01*
X2016063Y716783D01*
X2014648Y715604D01*
X2014538Y715466D01*
X2014405Y715352D01*
X2013283Y713907D01*
X2012124Y712466D01*
X2012043Y712309D01*
X2011935Y712171D01*
X2011119Y710530D01*
X2010268Y708893D01*
X2010219Y708723D01*
X2010141Y708566D01*
X2009665Y706798D01*
X2009153Y705023D01*
X2009139Y704847D01*
X2009093Y704678D01*
X2008820Y701360D01*
X2008820Y653452D01*
X2008842Y653234D01*
X2008825Y653014D01*
X2009042Y651225D01*
X2009219Y649445D01*
X2009284Y649235D01*
X2009310Y649017D01*
X2009873Y647314D01*
X2010401Y645596D01*
X2010506Y645402D01*
X2010574Y645194D01*
X2011462Y643635D01*
X2012318Y642054D01*
X2012459Y641886D01*
X2012568Y641695D01*
X2013745Y640343D01*
X2014896Y638961D01*
X2015068Y638823D01*
X2015212Y638658D01*
X2016633Y637563D01*
X2018033Y636437D01*
X2018228Y636335D01*
X2018403Y636201D01*
X2021364Y634679D01*
X2022994Y634004D01*
X2050054Y606944D01*
X2064700Y571585D01*
X2064700Y380915D01*
X2050054Y345556D01*
X2022994Y318496D01*
X1987635Y303849D01*
X1949365Y303849D01*
G37*
%LPD*%
%LPC*%
G36*
X2148557Y1280999D02*
X2148557Y1280999D01*
X2129260Y1288992D01*
X2114492Y1303760D01*
X2106499Y1323057D01*
X2106499Y1343943D01*
X2114492Y1363239D01*
X2129260Y1378008D01*
X2149346Y1386328D01*
X2150069Y1386399D01*
X2150321Y1386477D01*
X2150583Y1386510D01*
X2152243Y1387066D01*
X2153918Y1387581D01*
X2154150Y1387706D01*
X2154400Y1387790D01*
X2155923Y1388666D01*
X2157460Y1389498D01*
X2157662Y1389666D01*
X2157891Y1389798D01*
X2160430Y1391952D01*
X2459798Y1691320D01*
X2606360Y1691320D01*
X2606535Y1691338D01*
X2606710Y1691323D01*
X2608537Y1691537D01*
X2610367Y1691719D01*
X2610534Y1691771D01*
X2610710Y1691791D01*
X2612465Y1692363D01*
X2614217Y1692901D01*
X2614371Y1692984D01*
X2614538Y1693039D01*
X2616146Y1693945D01*
X2617758Y1694818D01*
X2617893Y1694930D01*
X2618046Y1695017D01*
X2619437Y1696217D01*
X2620851Y1697396D01*
X2620962Y1697533D01*
X2621094Y1697648D01*
X2622217Y1699093D01*
X2623376Y1700533D01*
X2623457Y1700690D01*
X2623564Y1700828D01*
X2624381Y1702469D01*
X2625232Y1704107D01*
X2625280Y1704277D01*
X2625358Y1704433D01*
X2625835Y1706201D01*
X2626347Y1707977D01*
X2626361Y1708153D01*
X2626407Y1708322D01*
X2626679Y1711640D01*
X2626679Y1727798D01*
X2626658Y1728016D01*
X2626675Y1728235D01*
X2626458Y1730020D01*
X2626280Y1731804D01*
X2626216Y1732014D01*
X2626189Y1732233D01*
X2625627Y1733934D01*
X2625099Y1735654D01*
X2624994Y1735848D01*
X2624925Y1736056D01*
X2624038Y1737614D01*
X2623182Y1739195D01*
X2623041Y1739364D01*
X2622932Y1739555D01*
X2621755Y1740907D01*
X2620604Y1742289D01*
X2620432Y1742427D01*
X2620288Y1742592D01*
X2618867Y1743686D01*
X2617466Y1744813D01*
X2617272Y1744914D01*
X2617097Y1745048D01*
X2614136Y1746570D01*
X2612506Y1747245D01*
X2585446Y1774306D01*
X2570799Y1809665D01*
X2570799Y2000336D01*
X2575356Y2011337D01*
X2575401Y2011484D01*
X2575472Y2011621D01*
X2575982Y2013408D01*
X2576521Y2015191D01*
X2576536Y2015345D01*
X2576578Y2015493D01*
X2576727Y2017351D01*
X2576903Y2019200D01*
X2576887Y2019352D01*
X2576899Y2019507D01*
X2576678Y2021364D01*
X2576487Y2023205D01*
X2576441Y2023352D01*
X2576423Y2023505D01*
X2575841Y2025278D01*
X2575289Y2027050D01*
X2575215Y2027184D01*
X2575167Y2027331D01*
X2574255Y2028940D01*
X2573356Y2030583D01*
X2573257Y2030701D01*
X2573181Y2030835D01*
X2571961Y2032242D01*
X2570765Y2033665D01*
X2570645Y2033761D01*
X2570543Y2033878D01*
X2569070Y2035017D01*
X2567617Y2036176D01*
X2567480Y2036246D01*
X2567358Y2036340D01*
X2565696Y2037163D01*
X2564035Y2038016D01*
X2563886Y2038058D01*
X2563749Y2038127D01*
X2560548Y2039042D01*
X2556611Y2039824D01*
X2546074Y2044189D01*
X2536589Y2050527D01*
X2528487Y2058629D01*
X2528423Y2058745D01*
X2522190Y2068073D01*
X2519246Y2075179D01*
X2573497Y2075179D01*
X2573672Y2075196D01*
X2573847Y2075182D01*
X2575674Y2075396D01*
X2577503Y2075578D01*
X2577671Y2075629D01*
X2577846Y2075650D01*
X2579601Y2076222D01*
X2581353Y2076759D01*
X2581507Y2076843D01*
X2581675Y2076897D01*
X2583283Y2077804D01*
X2584894Y2078677D01*
X2585029Y2078789D01*
X2585183Y2078875D01*
X2586573Y2080076D01*
X2587988Y2081254D01*
X2587990Y2081258D01*
X2587993Y2081259D01*
X2588101Y2081394D01*
X2588231Y2081506D01*
X2588233Y2081509D01*
X2588236Y2081511D01*
X2589358Y2082956D01*
X2590517Y2084397D01*
X2590598Y2084554D01*
X2590706Y2084692D01*
X2591522Y2086333D01*
X2592373Y2087971D01*
X2592422Y2088140D01*
X2592500Y2088297D01*
X2592976Y2090065D01*
X2593488Y2091840D01*
X2593502Y2092016D01*
X2593548Y2092185D01*
X2593821Y2095503D01*
X2593821Y2149754D01*
X2600926Y2146811D01*
X2610411Y2140473D01*
X2618473Y2132411D01*
X2624811Y2122926D01*
X2629175Y2112389D01*
X2631400Y2101202D01*
X2631400Y2097720D01*
X2631406Y2097661D01*
X2631403Y2097627D01*
X2631416Y2097521D01*
X2631403Y2097370D01*
X2631617Y2095543D01*
X2631799Y2093713D01*
X2631851Y2093545D01*
X2631871Y2093370D01*
X2632443Y2091615D01*
X2632981Y2089863D01*
X2633064Y2089709D01*
X2633119Y2089541D01*
X2634025Y2087934D01*
X2634898Y2086322D01*
X2635010Y2086187D01*
X2635097Y2086034D01*
X2636297Y2084643D01*
X2637476Y2083228D01*
X2637613Y2083118D01*
X2637728Y2082985D01*
X2639173Y2081863D01*
X2640613Y2080704D01*
X2640770Y2080623D01*
X2640908Y2080515D01*
X2642549Y2079699D01*
X2644187Y2078848D01*
X2644357Y2078799D01*
X2644513Y2078721D01*
X2646281Y2078245D01*
X2648057Y2077733D01*
X2648233Y2077719D01*
X2648402Y2077673D01*
X2651720Y2077400D01*
X2686135Y2077400D01*
X2721494Y2062754D01*
X2748554Y2035694D01*
X2763200Y2000335D01*
X2763200Y1809665D01*
X2748554Y1774306D01*
X2721494Y1747245D01*
X2719864Y1746570D01*
X2719671Y1746467D01*
X2719461Y1746398D01*
X2717893Y1745514D01*
X2716315Y1744668D01*
X2716146Y1744529D01*
X2715954Y1744420D01*
X2714592Y1743245D01*
X2713210Y1742103D01*
X2713072Y1741933D01*
X2712905Y1741789D01*
X2711808Y1740376D01*
X2710672Y1738977D01*
X2710570Y1738782D01*
X2710435Y1738609D01*
X2709638Y1737006D01*
X2708801Y1735412D01*
X2708739Y1735200D01*
X2708641Y1735004D01*
X2708174Y1733269D01*
X2707669Y1731547D01*
X2707650Y1731328D01*
X2707593Y1731116D01*
X2707320Y1727798D01*
X2707320Y1726320D01*
X2707338Y1726144D01*
X2707323Y1725970D01*
X2707537Y1724143D01*
X2707719Y1722313D01*
X2707771Y1722145D01*
X2707791Y1721970D01*
X2708367Y1720204D01*
X2708901Y1718463D01*
X2708984Y1718309D01*
X2709039Y1718141D01*
X2709945Y1716534D01*
X2710818Y1714922D01*
X2710930Y1714787D01*
X2711017Y1714634D01*
X2712217Y1713243D01*
X2713396Y1711828D01*
X2713533Y1711718D01*
X2713648Y1711585D01*
X2715093Y1710463D01*
X2716533Y1709304D01*
X2716690Y1709223D01*
X2716828Y1709115D01*
X2718469Y1708299D01*
X2720107Y1707448D01*
X2720277Y1707399D01*
X2720433Y1707321D01*
X2722201Y1706845D01*
X2723977Y1706333D01*
X2724153Y1706319D01*
X2724322Y1706273D01*
X2727640Y1706000D01*
X2786406Y1706000D01*
X2786572Y1705943D01*
X2787034Y1705879D01*
X2787481Y1705746D01*
X2789027Y1705605D01*
X2790561Y1705394D01*
X2791025Y1705423D01*
X2791491Y1705380D01*
X2793037Y1705547D01*
X2794580Y1705643D01*
X2795030Y1705763D01*
X2795495Y1705813D01*
X2796974Y1706281D01*
X2798472Y1706679D01*
X2798947Y1706904D01*
X2799334Y1707027D01*
X2800096Y1707448D01*
X2801482Y1708102D01*
X2804196Y1709669D01*
X2810656Y1711400D01*
X2823679Y1711400D01*
X2823679Y1651003D01*
X2823679Y1651000D01*
X2823679Y1650997D01*
X2823679Y1590599D01*
X2810656Y1590599D01*
X2804196Y1592330D01*
X2801482Y1593898D01*
X2800065Y1594538D01*
X2798686Y1595238D01*
X2798238Y1595363D01*
X2797812Y1595556D01*
X2796299Y1595903D01*
X2794807Y1596319D01*
X2794341Y1596353D01*
X2793887Y1596457D01*
X2792340Y1596500D01*
X2790791Y1596613D01*
X2790328Y1596555D01*
X2789862Y1596568D01*
X2788335Y1596304D01*
X2786796Y1596110D01*
X2786467Y1595999D01*
X2705715Y1595999D01*
X2696987Y1604728D01*
X2696783Y1604894D01*
X2696611Y1605094D01*
X2695229Y1606167D01*
X2693871Y1607279D01*
X2693637Y1607403D01*
X2693430Y1607564D01*
X2691868Y1608342D01*
X2690314Y1609166D01*
X2690060Y1609241D01*
X2689825Y1609358D01*
X2688136Y1609814D01*
X2686454Y1610314D01*
X2686192Y1610338D01*
X2685937Y1610407D01*
X2682619Y1610679D01*
X2501618Y1610679D01*
X2501355Y1610653D01*
X2501093Y1610673D01*
X2499358Y1610454D01*
X2497611Y1610280D01*
X2497358Y1610203D01*
X2497097Y1610170D01*
X2495437Y1609613D01*
X2493761Y1609099D01*
X2493529Y1608973D01*
X2493279Y1608890D01*
X2491757Y1608014D01*
X2490220Y1607182D01*
X2490018Y1607013D01*
X2489789Y1606882D01*
X2487250Y1604728D01*
X2217452Y1334930D01*
X2217285Y1334727D01*
X2217085Y1334554D01*
X2216013Y1333173D01*
X2214900Y1331814D01*
X2214776Y1331580D01*
X2214615Y1331373D01*
X2213838Y1329811D01*
X2213014Y1328257D01*
X2212938Y1328003D01*
X2212821Y1327768D01*
X2212366Y1326079D01*
X2211866Y1324397D01*
X2211842Y1324135D01*
X2211773Y1323880D01*
X2211756Y1323674D01*
X2203508Y1303760D01*
X2188739Y1288992D01*
X2169443Y1280999D01*
X2148557Y1280999D01*
G37*
%LPD*%
%LPC*%
G36*
X1187365Y303849D02*
X1187365Y303849D01*
X1152006Y318496D01*
X1124946Y345556D01*
X1110299Y380915D01*
X1110299Y571585D01*
X1124946Y606944D01*
X1152006Y634004D01*
X1187365Y648650D01*
X1225635Y648650D01*
X1260994Y634004D01*
X1288054Y606944D01*
X1302700Y571585D01*
X1302700Y380915D01*
X1288054Y345556D01*
X1260994Y318496D01*
X1225635Y303849D01*
X1187365Y303849D01*
G37*
%LPD*%
%LPC*%
G36*
X933365Y303849D02*
X933365Y303849D01*
X898006Y318496D01*
X870946Y345556D01*
X856299Y380915D01*
X856299Y571585D01*
X870946Y606944D01*
X898006Y634004D01*
X933365Y648650D01*
X971635Y648650D01*
X1006994Y634004D01*
X1034054Y606944D01*
X1048700Y571585D01*
X1048700Y380915D01*
X1034054Y345556D01*
X1006994Y318496D01*
X971635Y303849D01*
X933365Y303849D01*
G37*
%LPD*%
%LPC*%
G36*
X3084074Y1917189D02*
X3084074Y1917189D01*
X3074589Y1923527D01*
X3066526Y1931589D01*
X3059815Y1941634D01*
X3059773Y1941685D01*
X3059741Y1941743D01*
X3058494Y1943239D01*
X3057257Y1944744D01*
X3057206Y1944786D01*
X3057163Y1944837D01*
X3055638Y1946064D01*
X3054136Y1947289D01*
X3054078Y1947319D01*
X3054026Y1947361D01*
X3052295Y1948260D01*
X3050574Y1949168D01*
X3050511Y1949187D01*
X3050452Y1949217D01*
X3048576Y1949758D01*
X3046712Y1950308D01*
X3046648Y1950313D01*
X3046583Y1950332D01*
X3044624Y1950493D01*
X3042701Y1950663D01*
X3042635Y1950656D01*
X3042570Y1950662D01*
X3040623Y1950434D01*
X3038698Y1950221D01*
X3038637Y1950202D01*
X3038570Y1950194D01*
X3036700Y1949584D01*
X3034862Y1948999D01*
X3034804Y1948967D01*
X3034741Y1948946D01*
X3033042Y1947988D01*
X3031342Y1947043D01*
X3031291Y1947001D01*
X3031234Y1946968D01*
X3029767Y1945702D01*
X3028276Y1944432D01*
X3028235Y1944380D01*
X3028185Y1944337D01*
X3027002Y1942813D01*
X3025786Y1941268D01*
X3025756Y1941208D01*
X3025715Y1941157D01*
X3024854Y1939426D01*
X3023968Y1937674D01*
X3023950Y1937610D01*
X3023921Y1937552D01*
X3023411Y1935660D01*
X3022895Y1933793D01*
X3022890Y1933727D01*
X3022873Y1933663D01*
X3022605Y1930399D01*
X2926082Y1930399D01*
X2925907Y1930382D01*
X2925732Y1930396D01*
X2923905Y1930183D01*
X2922075Y1930000D01*
X2921908Y1929949D01*
X2921732Y1929928D01*
X2920948Y1929673D01*
X2919581Y1930067D01*
X2919405Y1930081D01*
X2919236Y1930127D01*
X2915918Y1930399D01*
X2819399Y1930399D01*
X2819399Y1989197D01*
X2821901Y2004991D01*
X2826843Y2020201D01*
X2834103Y2034450D01*
X2843504Y2047389D01*
X2854810Y2058695D01*
X2867749Y2068096D01*
X2881999Y2075357D01*
X2897208Y2080298D01*
X2909458Y2082238D01*
X2910037Y2082390D01*
X2910630Y2082459D01*
X2911980Y2082899D01*
X2913354Y2083259D01*
X2913890Y2083522D01*
X2914458Y2083707D01*
X2915696Y2084405D01*
X2916971Y2085028D01*
X2917446Y2085392D01*
X2917966Y2085685D01*
X2919042Y2086613D01*
X2920169Y2087476D01*
X2920562Y2087926D01*
X2921014Y2088316D01*
X2921885Y2089437D01*
X2922821Y2090506D01*
X2923118Y2091026D01*
X2923484Y2091497D01*
X2924116Y2092766D01*
X2924823Y2094000D01*
X2925013Y2094568D01*
X2925278Y2095102D01*
X2925648Y2096471D01*
X2926098Y2097820D01*
X2926171Y2098413D01*
X2926327Y2098990D01*
X2926444Y2100423D01*
X2928824Y2112389D01*
X2933189Y2122926D01*
X2939527Y2132411D01*
X2947589Y2140473D01*
X2957074Y2146811D01*
X2964179Y2149753D01*
X2964179Y2095503D01*
X2964196Y2095328D01*
X2964182Y2095153D01*
X2964396Y2093326D01*
X2964578Y2091496D01*
X2964629Y2091329D01*
X2964650Y2091153D01*
X2965222Y2089398D01*
X2965759Y2087647D01*
X2965843Y2087493D01*
X2965897Y2087325D01*
X2966804Y2085717D01*
X2967677Y2084105D01*
X2967789Y2083971D01*
X2967875Y2083817D01*
X2969076Y2082426D01*
X2970254Y2081012D01*
X2970257Y2081010D01*
X2970259Y2081007D01*
X2970395Y2080898D01*
X2970506Y2080769D01*
X2970508Y2080767D01*
X2970511Y2080764D01*
X2971956Y2079642D01*
X2973397Y2078483D01*
X2973554Y2078401D01*
X2973692Y2078294D01*
X2975333Y2077477D01*
X2976971Y2076627D01*
X2977140Y2076578D01*
X2977297Y2076500D01*
X2979065Y2076023D01*
X2980840Y2075512D01*
X2981016Y2075497D01*
X2981185Y2075452D01*
X2984503Y2075179D01*
X3038753Y2075179D01*
X3035811Y2068074D01*
X3029473Y2058589D01*
X3021410Y2050526D01*
X3020231Y2049738D01*
X3019462Y2049105D01*
X3018633Y2048553D01*
X3017911Y2047830D01*
X3017121Y2047181D01*
X3016492Y2046409D01*
X3015788Y2045704D01*
X3015223Y2044852D01*
X3014577Y2044059D01*
X3014112Y2043179D01*
X3013561Y2042349D01*
X3013175Y2041402D01*
X3012698Y2040498D01*
X3012416Y2039543D01*
X3012039Y2038621D01*
X3011847Y2037615D01*
X3011558Y2036636D01*
X3011470Y2035645D01*
X3011283Y2034665D01*
X3011292Y2033643D01*
X3011202Y2032625D01*
X3011311Y2031635D01*
X3011321Y2030639D01*
X3011532Y2029637D01*
X3011644Y2028622D01*
X3011946Y2027675D01*
X3012152Y2026699D01*
X3012623Y2025551D01*
X3012867Y2024786D01*
X3013135Y2024303D01*
X3013416Y2023618D01*
X3015157Y2020202D01*
X3020098Y2004992D01*
X3020956Y1999578D01*
X3021074Y1999127D01*
X3021122Y1998663D01*
X3021583Y1997183D01*
X3021977Y1995683D01*
X3022182Y1995264D01*
X3022320Y1994819D01*
X3023064Y1993459D01*
X3023746Y1992066D01*
X3024029Y1991695D01*
X3024253Y1991286D01*
X3025252Y1990099D01*
X3026193Y1988868D01*
X3026544Y1988561D01*
X3026845Y1988204D01*
X3028057Y1987237D01*
X3029223Y1986216D01*
X3029628Y1985984D01*
X3029993Y1985693D01*
X3031371Y1984985D01*
X3032717Y1984213D01*
X3033161Y1984066D01*
X3033575Y1983853D01*
X3035065Y1983430D01*
X3036537Y1982939D01*
X3037000Y1982882D01*
X3037449Y1982755D01*
X3038996Y1982634D01*
X3040533Y1982443D01*
X3040998Y1982478D01*
X3041463Y1982442D01*
X3043003Y1982629D01*
X3044549Y1982745D01*
X3044998Y1982871D01*
X3045461Y1982928D01*
X3046932Y1983414D01*
X3048426Y1983833D01*
X3048842Y1984046D01*
X3049284Y1984192D01*
X3050631Y1984959D01*
X3052013Y1985664D01*
X3052378Y1985954D01*
X3052783Y1986185D01*
X3053955Y1987205D01*
X3055167Y1988167D01*
X3055468Y1988523D01*
X3055820Y1988829D01*
X3056766Y1990058D01*
X3057767Y1991242D01*
X3057992Y1991652D01*
X3058276Y1992021D01*
X3059413Y1994232D01*
X3059709Y1994770D01*
X3059740Y1994868D01*
X3059798Y1994982D01*
X3060189Y1995926D01*
X3066527Y2005411D01*
X3074589Y2013473D01*
X3084074Y2019811D01*
X3091179Y2022753D01*
X3091179Y1968503D01*
X3091179Y1968500D01*
X3091179Y1968497D01*
X3091179Y1914246D01*
X3084074Y1917189D01*
G37*
%LPD*%
%LPC*%
G36*
X406399Y914399D02*
X406399Y914399D01*
X406399Y1010918D01*
X406382Y1011093D01*
X406396Y1011268D01*
X406183Y1013095D01*
X406000Y1014925D01*
X405949Y1015092D01*
X405928Y1015268D01*
X405673Y1016052D01*
X406067Y1017419D01*
X406081Y1017595D01*
X406127Y1017764D01*
X406399Y1021082D01*
X406399Y1117600D01*
X465197Y1117600D01*
X480991Y1115099D01*
X496201Y1110157D01*
X510450Y1102896D01*
X523390Y1093495D01*
X534695Y1082189D01*
X544096Y1069250D01*
X551357Y1055001D01*
X556298Y1039793D01*
X557711Y1030874D01*
X557818Y1030464D01*
X557860Y1030045D01*
X558327Y1028524D01*
X558732Y1026978D01*
X558917Y1026599D01*
X559041Y1026196D01*
X559799Y1024795D01*
X560501Y1023361D01*
X560758Y1023025D01*
X560958Y1022654D01*
X561979Y1021430D01*
X562948Y1020163D01*
X563266Y1019885D01*
X563536Y1019561D01*
X564779Y1018561D01*
X565978Y1017511D01*
X566345Y1017301D01*
X566674Y1017037D01*
X568088Y1016302D01*
X568569Y1016027D01*
X567487Y1015356D01*
X566094Y1014570D01*
X565774Y1014294D01*
X565416Y1014072D01*
X564253Y1012982D01*
X563046Y1011939D01*
X562787Y1011606D01*
X562478Y1011317D01*
X561552Y1010016D01*
X560576Y1008759D01*
X560388Y1008381D01*
X560143Y1008037D01*
X559490Y1006578D01*
X558782Y1005154D01*
X558672Y1004748D01*
X558499Y1004361D01*
X557851Y1001701D01*
X557733Y1001266D01*
X557728Y1001196D01*
X557711Y1001126D01*
X556298Y992207D01*
X551357Y976999D01*
X544096Y962749D01*
X534695Y949810D01*
X523389Y938504D01*
X510450Y929103D01*
X496201Y921843D01*
X480991Y916901D01*
X465197Y914399D01*
X406399Y914399D01*
G37*
%LPD*%
%LPC*%
G36*
X2864321Y1671321D02*
X2864321Y1671321D01*
X2864321Y1720821D01*
X2864986Y1722102D01*
X2865812Y1723573D01*
X2865915Y1723892D01*
X2866069Y1724187D01*
X2866533Y1725800D01*
X2867053Y1727403D01*
X2867091Y1727735D01*
X2867184Y1728057D01*
X2867322Y1729735D01*
X2867514Y1731404D01*
X2867486Y1731737D01*
X2867513Y1732070D01*
X2867318Y1733739D01*
X2867178Y1735417D01*
X2867084Y1735738D01*
X2867046Y1736069D01*
X2866523Y1737673D01*
X2866056Y1739284D01*
X2865902Y1739579D01*
X2865798Y1739898D01*
X2864970Y1741367D01*
X2864194Y1742854D01*
X2863984Y1743114D01*
X2863820Y1743406D01*
X2862718Y1744682D01*
X2861664Y1745988D01*
X2861383Y1746230D01*
X2861189Y1746454D01*
X2860499Y1746990D01*
X2859140Y1748159D01*
X2854810Y1751305D01*
X2843504Y1762610D01*
X2834103Y1775549D01*
X2826843Y1789799D01*
X2821901Y1805009D01*
X2819399Y1820803D01*
X2819399Y1879600D01*
X2895600Y1879600D01*
X2895600Y1713489D01*
X2895462Y1713012D01*
X2894981Y1711630D01*
X2894906Y1711081D01*
X2894752Y1710548D01*
X2894631Y1709087D01*
X2894433Y1707640D01*
X2894467Y1707089D01*
X2894421Y1706535D01*
X2894591Y1705079D01*
X2894681Y1703621D01*
X2894824Y1703086D01*
X2894888Y1702536D01*
X2895342Y1701143D01*
X2895718Y1699730D01*
X2895986Y1699163D01*
X2896134Y1698707D01*
X2896551Y1697967D01*
X2897141Y1696720D01*
X2897669Y1695804D01*
X2899400Y1689344D01*
X2899400Y1671321D01*
X2864321Y1671321D01*
G37*
%LPD*%
%LPC*%
G36*
X2946399Y1041399D02*
X2946399Y1041399D01*
X2946399Y1117600D01*
X3005197Y1117600D01*
X3020991Y1115099D01*
X3027602Y1112951D01*
X3028901Y1112667D01*
X3030176Y1112297D01*
X3030863Y1112239D01*
X3031537Y1112092D01*
X3032865Y1112070D01*
X3034189Y1111958D01*
X3034874Y1112037D01*
X3035563Y1112026D01*
X3036868Y1112266D01*
X3038189Y1112418D01*
X3038846Y1112631D01*
X3039523Y1112755D01*
X3040756Y1113248D01*
X3042021Y1113658D01*
X3042622Y1113995D01*
X3043262Y1114251D01*
X3044372Y1114978D01*
X3045532Y1115628D01*
X3046055Y1116078D01*
X3046632Y1116455D01*
X3047578Y1117387D01*
X3048586Y1118253D01*
X3049011Y1118797D01*
X3049501Y1119280D01*
X3050244Y1120379D01*
X3051063Y1121428D01*
X3051372Y1122046D01*
X3051757Y1122616D01*
X3051783Y1122679D01*
X3091179Y1122679D01*
X3091179Y1074184D01*
X3090808Y1073277D01*
X3090308Y1072313D01*
X3090050Y1071420D01*
X3089698Y1070557D01*
X3089494Y1069488D01*
X3089193Y1068443D01*
X3089116Y1067515D01*
X3088942Y1066602D01*
X3088952Y1065514D01*
X3088863Y1064430D01*
X3088971Y1063506D01*
X3088980Y1062575D01*
X3089204Y1061511D01*
X3089331Y1060430D01*
X3089619Y1059546D01*
X3089811Y1058635D01*
X3090319Y1057397D01*
X3090578Y1056602D01*
X3090824Y1056165D01*
X3091075Y1055555D01*
X3091357Y1055001D01*
X3095776Y1041399D01*
X2946399Y1041399D01*
G37*
%LPD*%
%LPC*%
G36*
X206224Y1041399D02*
X206224Y1041399D01*
X210643Y1055001D01*
X210925Y1055555D01*
X211263Y1056421D01*
X211692Y1057248D01*
X211994Y1058293D01*
X212389Y1059306D01*
X212549Y1060222D01*
X212807Y1061117D01*
X212896Y1062201D01*
X213084Y1063273D01*
X213061Y1064204D01*
X213137Y1065130D01*
X213011Y1066209D01*
X212983Y1067298D01*
X212777Y1068206D01*
X212669Y1069130D01*
X212332Y1070164D01*
X212091Y1071225D01*
X211710Y1072074D01*
X211422Y1072958D01*
X210887Y1073906D01*
X210821Y1074054D01*
X210821Y1122679D01*
X250277Y1122679D01*
X250586Y1122006D01*
X250991Y1121448D01*
X251321Y1120843D01*
X252173Y1119824D01*
X252955Y1118750D01*
X253463Y1118283D01*
X253905Y1117755D01*
X254943Y1116924D01*
X255921Y1116025D01*
X256510Y1115668D01*
X257048Y1115237D01*
X258229Y1114627D01*
X259365Y1113939D01*
X260013Y1113705D01*
X260625Y1113388D01*
X261904Y1113023D01*
X263153Y1112573D01*
X263834Y1112471D01*
X264497Y1112282D01*
X265822Y1112175D01*
X267136Y1111980D01*
X267824Y1112015D01*
X268511Y1111960D01*
X269831Y1112117D01*
X271157Y1112185D01*
X271929Y1112367D01*
X272510Y1112436D01*
X273252Y1112680D01*
X274398Y1112951D01*
X281009Y1115099D01*
X296803Y1117600D01*
X355600Y1117600D01*
X355600Y1041399D01*
X206224Y1041399D01*
G37*
%LPD*%
%LPC*%
G36*
X723899Y501649D02*
X723899Y501649D01*
X723899Y651026D01*
X737501Y646607D01*
X751750Y639346D01*
X764689Y629945D01*
X775995Y618639D01*
X785396Y605700D01*
X792657Y591451D01*
X797599Y576241D01*
X800100Y560447D01*
X800100Y501649D01*
X723899Y501649D01*
G37*
%LPD*%
%LPC*%
G36*
X2247899Y501649D02*
X2247899Y501649D01*
X2247899Y651026D01*
X2261501Y646607D01*
X2275750Y639346D01*
X2288689Y629945D01*
X2299995Y618639D01*
X2309396Y605700D01*
X2316657Y591451D01*
X2321599Y576241D01*
X2324100Y560447D01*
X2324100Y501649D01*
X2247899Y501649D01*
G37*
%LPD*%
%LPC*%
G36*
X2946399Y1879600D02*
X2946399Y1879600D01*
X3022600Y1879600D01*
X3022600Y1820803D01*
X3020099Y1805009D01*
X3015157Y1789799D01*
X3007896Y1775549D01*
X2998495Y1762610D01*
X2987189Y1751304D01*
X2974250Y1741903D01*
X2960001Y1734643D01*
X2946399Y1730224D01*
X2946399Y1879600D01*
G37*
%LPD*%
%LPC*%
G36*
X2247899Y450850D02*
X2247899Y450850D01*
X2324100Y450850D01*
X2324100Y392053D01*
X2321599Y376259D01*
X2316657Y361049D01*
X2309396Y346799D01*
X2299995Y333860D01*
X2288689Y322554D01*
X2275750Y313153D01*
X2261501Y305893D01*
X2247899Y301474D01*
X2247899Y450850D01*
G37*
%LPD*%
%LPC*%
G36*
X723899Y450850D02*
X723899Y450850D01*
X800100Y450850D01*
X800100Y392053D01*
X797599Y376259D01*
X792657Y361049D01*
X785396Y346799D01*
X775995Y333860D01*
X764689Y322554D01*
X751750Y313153D01*
X737501Y305893D01*
X723899Y301474D01*
X723899Y450850D01*
G37*
%LPD*%
%LPC*%
G36*
X2746224Y1041399D02*
X2746224Y1041399D01*
X2750643Y1055001D01*
X2757903Y1069250D01*
X2767304Y1082189D01*
X2778610Y1093495D01*
X2791549Y1102896D01*
X2805799Y1110157D01*
X2821009Y1115099D01*
X2836803Y1117600D01*
X2895600Y1117600D01*
X2895600Y1041399D01*
X2746224Y1041399D01*
G37*
%LPD*%
%LPC*%
G36*
X596899Y501649D02*
X596899Y501649D01*
X596899Y560447D01*
X599401Y576241D01*
X604343Y591451D01*
X611603Y605700D01*
X621004Y618639D01*
X632310Y629945D01*
X645249Y639346D01*
X659499Y646607D01*
X673100Y651026D01*
X673100Y501649D01*
X596899Y501649D01*
G37*
%LPD*%
%LPC*%
G36*
X2120899Y501649D02*
X2120899Y501649D01*
X2120899Y560447D01*
X2123401Y576241D01*
X2128343Y591451D01*
X2135603Y605700D01*
X2145004Y618639D01*
X2156310Y629945D01*
X2169249Y639346D01*
X2183499Y646607D01*
X2197100Y651026D01*
X2197100Y501649D01*
X2120899Y501649D01*
G37*
%LPD*%
%LPC*%
G36*
X2946399Y914399D02*
X2946399Y914399D01*
X2946399Y990600D01*
X3095776Y990600D01*
X3091357Y976999D01*
X3084096Y962749D01*
X3074695Y949810D01*
X3063389Y938504D01*
X3050450Y929103D01*
X3036201Y921843D01*
X3020991Y916901D01*
X3005197Y914399D01*
X2946399Y914399D01*
G37*
%LPD*%
%LPC*%
G36*
X296803Y914399D02*
X296803Y914399D01*
X281009Y916901D01*
X265799Y921843D01*
X251549Y929103D01*
X238610Y938504D01*
X227304Y949810D01*
X217903Y962749D01*
X210643Y976999D01*
X206224Y990600D01*
X355600Y990600D01*
X355600Y914399D01*
X296803Y914399D01*
G37*
%LPD*%
%LPC*%
G36*
X2836803Y914399D02*
X2836803Y914399D01*
X2821009Y916901D01*
X2805799Y921843D01*
X2791549Y929103D01*
X2778610Y938504D01*
X2767304Y949810D01*
X2757903Y962749D01*
X2750643Y976999D01*
X2746224Y990600D01*
X2895600Y990600D01*
X2895600Y914399D01*
X2836803Y914399D01*
G37*
%LPD*%
%LPC*%
G36*
X659499Y305893D02*
X659499Y305893D01*
X645249Y313153D01*
X632310Y322554D01*
X621004Y333860D01*
X611603Y346799D01*
X604343Y361049D01*
X599401Y376259D01*
X596899Y392053D01*
X596899Y450850D01*
X673100Y450850D01*
X673100Y301474D01*
X659499Y305893D01*
G37*
%LPD*%
%LPC*%
G36*
X2183499Y305893D02*
X2183499Y305893D01*
X2169249Y313153D01*
X2156310Y322554D01*
X2145004Y333860D01*
X2135603Y346799D01*
X2128343Y361049D01*
X2123401Y376259D01*
X2120899Y392053D01*
X2120899Y450850D01*
X2197100Y450850D01*
X2197100Y301474D01*
X2183499Y305893D01*
G37*
%LPD*%
%LPC*%
G36*
X620156Y957599D02*
X620156Y957599D01*
X613695Y959330D01*
X607903Y962675D01*
X603175Y967403D01*
X599830Y973195D01*
X598099Y979656D01*
X598099Y997948D01*
X598058Y998368D01*
X598082Y998789D01*
X597858Y1000368D01*
X597700Y1001954D01*
X597576Y1002358D01*
X597517Y1002776D01*
X596987Y1004280D01*
X596519Y1005804D01*
X596318Y1006175D01*
X596178Y1006574D01*
X595360Y1007944D01*
X594602Y1009345D01*
X594331Y1009670D01*
X594115Y1010032D01*
X593046Y1011212D01*
X592024Y1012439D01*
X591694Y1012704D01*
X591411Y1013016D01*
X590130Y1013962D01*
X588886Y1014963D01*
X588511Y1015158D01*
X588172Y1015408D01*
X587976Y1015500D01*
X666000Y1015500D01*
X666000Y957599D01*
X620156Y957599D01*
G37*
%LPD*%
%LPC*%
G36*
X532999Y1854599D02*
X532999Y1854599D01*
X532999Y1925000D01*
X561344Y1925000D01*
X567804Y1923269D01*
X573597Y1919925D01*
X578325Y1915197D01*
X581669Y1909404D01*
X583400Y1902944D01*
X583400Y1854599D01*
X532999Y1854599D01*
G37*
%LPD*%
%LPC*%
G36*
X532999Y1734199D02*
X532999Y1734199D01*
X532999Y1804600D01*
X583400Y1804600D01*
X583400Y1756256D01*
X581669Y1749795D01*
X578325Y1744003D01*
X573597Y1739275D01*
X567804Y1735930D01*
X561344Y1734199D01*
X532999Y1734199D01*
G37*
%LPD*%
%LPC*%
G36*
X432599Y1854599D02*
X432599Y1854599D01*
X432599Y1902944D01*
X434330Y1909404D01*
X437675Y1915197D01*
X442403Y1919925D01*
X448195Y1923269D01*
X454656Y1925000D01*
X483000Y1925000D01*
X483000Y1854599D01*
X432599Y1854599D01*
G37*
%LPD*%
%LPC*%
G36*
X454656Y1734199D02*
X454656Y1734199D01*
X448195Y1735930D01*
X442403Y1739275D01*
X437675Y1744003D01*
X434330Y1749795D01*
X432599Y1756256D01*
X432599Y1804600D01*
X483000Y1804600D01*
X483000Y1734199D01*
X454656Y1734199D01*
G37*
%LPD*%
%LPC*%
G36*
X974099Y782321D02*
X974099Y782321D01*
X974099Y800344D01*
X975830Y806804D01*
X979175Y812597D01*
X983903Y817325D01*
X989695Y820669D01*
X996156Y822400D01*
X1009179Y822400D01*
X1009179Y782321D01*
X974099Y782321D01*
G37*
%LPD*%
%LPC*%
G36*
X2864321Y1590599D02*
X2864321Y1590599D01*
X2864321Y1630679D01*
X2899400Y1630679D01*
X2899400Y1612656D01*
X2897669Y1606195D01*
X2894325Y1600403D01*
X2889597Y1595675D01*
X2883804Y1592330D01*
X2877344Y1590599D01*
X2864321Y1590599D01*
G37*
%LPD*%
%LPC*%
G36*
X996156Y701599D02*
X996156Y701599D01*
X989695Y703330D01*
X983903Y706675D01*
X979175Y711403D01*
X975830Y717195D01*
X974099Y723656D01*
X974099Y741679D01*
X1009179Y741679D01*
X1009179Y701599D01*
X996156Y701599D01*
G37*
%LPD*%
%LPC*%
G36*
X210821Y1988821D02*
X210821Y1988821D01*
X210821Y2022754D01*
X217926Y2019811D01*
X227411Y2013473D01*
X235473Y2005411D01*
X241811Y1995926D01*
X244754Y1988821D01*
X210821Y1988821D01*
G37*
%LPD*%
%LPC*%
G36*
X1163321Y2115821D02*
X1163321Y2115821D01*
X1163321Y2149754D01*
X1170426Y2146811D01*
X1179911Y2140473D01*
X1187973Y2132411D01*
X1194311Y2122926D01*
X1197254Y2115821D01*
X1163321Y2115821D01*
G37*
%LPD*%
%LPC*%
G36*
X748821Y2115821D02*
X748821Y2115821D01*
X748821Y2149754D01*
X755926Y2146811D01*
X765411Y2140473D01*
X773473Y2132411D01*
X779811Y2122926D01*
X782754Y2115821D01*
X748821Y2115821D01*
G37*
%LPD*%
%LPC*%
G36*
X1671321Y2115821D02*
X1671321Y2115821D01*
X1671321Y2149754D01*
X1678426Y2146811D01*
X1687911Y2140473D01*
X1695973Y2132411D01*
X1702311Y2122926D01*
X1705254Y2115821D01*
X1671321Y2115821D01*
G37*
%LPD*%
%LPC*%
G36*
X210821Y1574321D02*
X210821Y1574321D01*
X210821Y1608254D01*
X217926Y1605311D01*
X227411Y1598973D01*
X235473Y1590911D01*
X241811Y1581426D01*
X244754Y1574321D01*
X210821Y1574321D01*
G37*
%LPD*%
%LPC*%
G36*
X210821Y752321D02*
X210821Y752321D01*
X210821Y786254D01*
X217926Y783311D01*
X227411Y776973D01*
X235473Y768911D01*
X241811Y759426D01*
X244754Y752321D01*
X210821Y752321D01*
G37*
%LPD*%
%LPC*%
G36*
X3131821Y1577821D02*
X3131821Y1577821D01*
X3131821Y1611754D01*
X3138926Y1608811D01*
X3148411Y1602473D01*
X3156473Y1594411D01*
X3162811Y1584926D01*
X3165754Y1577821D01*
X3131821Y1577821D01*
G37*
%LPD*%
%LPC*%
G36*
X3131821Y1163321D02*
X3131821Y1163321D01*
X3131821Y1197254D01*
X3138926Y1194311D01*
X3148411Y1187973D01*
X3156473Y1179911D01*
X3162811Y1170426D01*
X3165754Y1163321D01*
X3131821Y1163321D01*
G37*
%LPD*%
%LPC*%
G36*
X3131821Y1988821D02*
X3131821Y1988821D01*
X3131821Y2022754D01*
X3138926Y2019811D01*
X3148411Y2013473D01*
X3156473Y2005411D01*
X3162811Y1995926D01*
X3165754Y1988821D01*
X3131821Y1988821D01*
G37*
%LPD*%
%LPC*%
G36*
X337821Y2115821D02*
X337821Y2115821D01*
X337821Y2149754D01*
X344926Y2146811D01*
X354411Y2140473D01*
X362473Y2132411D01*
X368811Y2122926D01*
X371754Y2115821D01*
X337821Y2115821D01*
G37*
%LPD*%
%LPC*%
G36*
X3131821Y748821D02*
X3131821Y748821D01*
X3131821Y782754D01*
X3138926Y779811D01*
X3148411Y773473D01*
X3156473Y765411D01*
X3162811Y755926D01*
X3165754Y748821D01*
X3131821Y748821D01*
G37*
%LPD*%
%LPC*%
G36*
X2179321Y2115821D02*
X2179321Y2115821D01*
X2179321Y2149754D01*
X2186426Y2146811D01*
X2195911Y2140473D01*
X2203973Y2132411D01*
X2210311Y2122926D01*
X2213254Y2115821D01*
X2179321Y2115821D01*
G37*
%LPD*%
%LPC*%
G36*
X3004821Y2115821D02*
X3004821Y2115821D01*
X3004821Y2149754D01*
X3011926Y2146811D01*
X3021411Y2140473D01*
X3029473Y2132411D01*
X3035811Y2122926D01*
X3038754Y2115821D01*
X3004821Y2115821D01*
G37*
%LPD*%
%LPC*%
G36*
X210821Y337821D02*
X210821Y337821D01*
X210821Y371754D01*
X217926Y368811D01*
X227411Y362473D01*
X235473Y354411D01*
X241811Y344926D01*
X244754Y337821D01*
X210821Y337821D01*
G37*
%LPD*%
%LPC*%
G36*
X3131821Y337821D02*
X3131821Y337821D01*
X3131821Y371754D01*
X3138926Y368811D01*
X3148411Y362473D01*
X3156473Y354411D01*
X3162811Y344926D01*
X3165754Y337821D01*
X3131821Y337821D01*
G37*
%LPD*%
%LPC*%
G36*
X2592321Y213321D02*
X2592321Y213321D01*
X2592321Y247254D01*
X2599426Y244311D01*
X2608911Y237973D01*
X2616973Y229911D01*
X2623311Y220426D01*
X2626254Y213321D01*
X2592321Y213321D01*
G37*
%LPD*%
%LPC*%
G36*
X3004821Y210821D02*
X3004821Y210821D01*
X3004821Y244754D01*
X3011926Y241811D01*
X3021411Y235473D01*
X3029473Y227411D01*
X3035811Y217926D01*
X3038754Y210821D01*
X3004821Y210821D01*
G37*
%LPD*%
%LPC*%
G36*
X2179321Y210821D02*
X2179321Y210821D01*
X2179321Y244754D01*
X2186426Y241811D01*
X2195911Y235473D01*
X2203973Y227411D01*
X2210311Y217926D01*
X2213254Y210821D01*
X2179321Y210821D01*
G37*
%LPD*%
%LPC*%
G36*
X753821Y210821D02*
X753821Y210821D01*
X753821Y244754D01*
X760926Y241811D01*
X770411Y235473D01*
X778473Y227411D01*
X784811Y217926D01*
X787754Y210821D01*
X753821Y210821D01*
G37*
%LPD*%
%LPC*%
G36*
X1163321Y210821D02*
X1163321Y210821D01*
X1163321Y244754D01*
X1170426Y241811D01*
X1179911Y235473D01*
X1187973Y227411D01*
X1194311Y217926D01*
X1197254Y210821D01*
X1163321Y210821D01*
G37*
%LPD*%
%LPC*%
G36*
X1671321Y210821D02*
X1671321Y210821D01*
X1671321Y244754D01*
X1678426Y241811D01*
X1687911Y235473D01*
X1695973Y227411D01*
X1702311Y217926D01*
X1705254Y210821D01*
X1671321Y210821D01*
G37*
%LPD*%
%LPC*%
G36*
X337821Y210821D02*
X337821Y210821D01*
X337821Y244754D01*
X344926Y241811D01*
X354411Y235473D01*
X362473Y227411D01*
X368811Y217926D01*
X371754Y210821D01*
X337821Y210821D01*
G37*
%LPD*%
%LPC*%
G36*
X3131821Y708179D02*
X3131821Y708179D01*
X3165753Y708179D01*
X3162810Y701073D01*
X3156473Y691589D01*
X3148411Y683527D01*
X3138926Y677189D01*
X3131821Y674246D01*
X3131821Y708179D01*
G37*
%LPD*%
%LPC*%
G36*
X210821Y1533679D02*
X210821Y1533679D01*
X244753Y1533679D01*
X241810Y1526573D01*
X235473Y1517089D01*
X227411Y1509027D01*
X217926Y1502689D01*
X210821Y1499746D01*
X210821Y1533679D01*
G37*
%LPD*%
%LPC*%
G36*
X136246Y1163321D02*
X136246Y1163321D01*
X139189Y1170426D01*
X145527Y1179911D01*
X153589Y1187973D01*
X163074Y1194311D01*
X170179Y1197253D01*
X170179Y1163321D01*
X136246Y1163321D01*
G37*
%LPD*%
%LPC*%
G36*
X3131821Y1122679D02*
X3131821Y1122679D01*
X3165753Y1122679D01*
X3162811Y1115574D01*
X3156473Y1106089D01*
X3148411Y1098027D01*
X3138926Y1091689D01*
X3131821Y1088746D01*
X3131821Y1122679D01*
G37*
%LPD*%
%LPC*%
G36*
X1088746Y2115821D02*
X1088746Y2115821D01*
X1091689Y2122926D01*
X1098027Y2132411D01*
X1106089Y2140473D01*
X1115574Y2146811D01*
X1122679Y2149753D01*
X1122679Y2115821D01*
X1088746Y2115821D01*
G37*
%LPD*%
%LPC*%
G36*
X136246Y752321D02*
X136246Y752321D01*
X139189Y759426D01*
X145527Y768911D01*
X153589Y776973D01*
X163074Y783311D01*
X170179Y786253D01*
X170179Y752321D01*
X136246Y752321D01*
G37*
%LPD*%
%LPC*%
G36*
X3057246Y748821D02*
X3057246Y748821D01*
X3060189Y755926D01*
X3066527Y765411D01*
X3074589Y773473D01*
X3084074Y779811D01*
X3091179Y782753D01*
X3091179Y748821D01*
X3057246Y748821D01*
G37*
%LPD*%
%LPC*%
G36*
X210821Y711679D02*
X210821Y711679D01*
X244753Y711679D01*
X241811Y704574D01*
X235473Y695089D01*
X227411Y687027D01*
X217926Y680689D01*
X210821Y677746D01*
X210821Y711679D01*
G37*
%LPD*%
%LPC*%
G36*
X3131821Y1537179D02*
X3131821Y1537179D01*
X3165753Y1537179D01*
X3162811Y1530074D01*
X3156473Y1520589D01*
X3148411Y1512527D01*
X3138926Y1506189D01*
X3131821Y1503246D01*
X3131821Y1537179D01*
G37*
%LPD*%
%LPC*%
G36*
X674246Y2115821D02*
X674246Y2115821D01*
X677189Y2122926D01*
X683527Y2132411D01*
X691589Y2140473D01*
X701074Y2146811D01*
X708179Y2149753D01*
X708179Y2115821D01*
X674246Y2115821D01*
G37*
%LPD*%
%LPC*%
G36*
X263246Y2115821D02*
X263246Y2115821D01*
X266189Y2122926D01*
X272527Y2132411D01*
X280589Y2140473D01*
X290074Y2146811D01*
X297179Y2149753D01*
X297179Y2115821D01*
X263246Y2115821D01*
G37*
%LPD*%
%LPC*%
G36*
X1596746Y2115821D02*
X1596746Y2115821D01*
X1599689Y2122926D01*
X1606027Y2132411D01*
X1614089Y2140473D01*
X1623574Y2146811D01*
X1630679Y2149753D01*
X1630679Y2115821D01*
X1596746Y2115821D01*
G37*
%LPD*%
%LPC*%
G36*
X2104746Y2115821D02*
X2104746Y2115821D01*
X2107689Y2122926D01*
X2114027Y2132411D01*
X2122089Y2140473D01*
X2131574Y2146811D01*
X2138679Y2149753D01*
X2138679Y2115821D01*
X2104746Y2115821D01*
G37*
%LPD*%
%LPC*%
G36*
X2519246Y2115821D02*
X2519246Y2115821D01*
X2522189Y2122926D01*
X2528527Y2132411D01*
X2536589Y2140473D01*
X2546074Y2146811D01*
X2553179Y2149753D01*
X2553179Y2115821D01*
X2519246Y2115821D01*
G37*
%LPD*%
%LPC*%
G36*
X337821Y2075179D02*
X337821Y2075179D01*
X371753Y2075179D01*
X368811Y2068074D01*
X362473Y2058589D01*
X354411Y2050527D01*
X344926Y2044189D01*
X337821Y2041246D01*
X337821Y2075179D01*
G37*
%LPD*%
%LPC*%
G36*
X1163321Y2075179D02*
X1163321Y2075179D01*
X1197253Y2075179D01*
X1194311Y2068074D01*
X1187973Y2058589D01*
X1179911Y2050527D01*
X1170426Y2044189D01*
X1163321Y2041246D01*
X1163321Y2075179D01*
G37*
%LPD*%
%LPC*%
G36*
X2179321Y2075179D02*
X2179321Y2075179D01*
X2213253Y2075179D01*
X2210311Y2068074D01*
X2203973Y2058589D01*
X2195911Y2050527D01*
X2186426Y2044189D01*
X2179321Y2041246D01*
X2179321Y2075179D01*
G37*
%LPD*%
%LPC*%
G36*
X3057246Y337821D02*
X3057246Y337821D01*
X3060189Y344926D01*
X3066527Y354411D01*
X3074589Y362473D01*
X3084074Y368811D01*
X3091179Y371753D01*
X3091179Y337821D01*
X3057246Y337821D01*
G37*
%LPD*%
%LPC*%
G36*
X136246Y337821D02*
X136246Y337821D01*
X139189Y344926D01*
X145527Y354411D01*
X153589Y362473D01*
X163074Y368811D01*
X170179Y371753D01*
X170179Y337821D01*
X136246Y337821D01*
G37*
%LPD*%
%LPC*%
G36*
X210821Y297179D02*
X210821Y297179D01*
X244753Y297179D01*
X241811Y290074D01*
X235473Y280589D01*
X227411Y272527D01*
X217926Y266189D01*
X210821Y263246D01*
X210821Y297179D01*
G37*
%LPD*%
%LPC*%
G36*
X3131821Y297179D02*
X3131821Y297179D01*
X3165753Y297179D01*
X3162811Y290074D01*
X3156473Y280589D01*
X3148411Y272527D01*
X3138926Y266189D01*
X3131821Y263246D01*
X3131821Y297179D01*
G37*
%LPD*%
%LPC*%
G36*
X263246Y210821D02*
X263246Y210821D01*
X266189Y217926D01*
X272527Y227411D01*
X280589Y235473D01*
X290074Y241811D01*
X297179Y244753D01*
X297179Y210821D01*
X263246Y210821D01*
G37*
%LPD*%
%LPC*%
G36*
X1671321Y2075179D02*
X1671321Y2075179D01*
X1705253Y2075179D01*
X1702311Y2068074D01*
X1695973Y2058589D01*
X1687911Y2050527D01*
X1678426Y2044189D01*
X1671321Y2041246D01*
X1671321Y2075179D01*
G37*
%LPD*%
%LPC*%
G36*
X2517746Y213321D02*
X2517746Y213321D01*
X2520689Y220426D01*
X2527027Y229911D01*
X2535089Y237973D01*
X2544574Y244311D01*
X2551679Y247253D01*
X2551679Y213321D01*
X2517746Y213321D01*
G37*
%LPD*%
%LPC*%
G36*
X748821Y2075179D02*
X748821Y2075179D01*
X782753Y2075179D01*
X779811Y2068074D01*
X773473Y2058589D01*
X765411Y2050527D01*
X755926Y2044189D01*
X748821Y2041246D01*
X748821Y2075179D01*
G37*
%LPD*%
%LPC*%
G36*
X136246Y1988821D02*
X136246Y1988821D01*
X139189Y1995926D01*
X145527Y2005411D01*
X153589Y2013473D01*
X163074Y2019811D01*
X170179Y2022753D01*
X170179Y1988821D01*
X136246Y1988821D01*
G37*
%LPD*%
%LPC*%
G36*
X210821Y1948179D02*
X210821Y1948179D01*
X244753Y1948179D01*
X241811Y1941074D01*
X235473Y1931589D01*
X227411Y1923527D01*
X217926Y1917189D01*
X210821Y1914246D01*
X210821Y1948179D01*
G37*
%LPD*%
%LPC*%
G36*
X3131821Y1948179D02*
X3131821Y1948179D01*
X3165753Y1948179D01*
X3162811Y1941074D01*
X3156473Y1931589D01*
X3148411Y1923527D01*
X3138926Y1917189D01*
X3131821Y1914246D01*
X3131821Y1948179D01*
G37*
%LPD*%
%LPC*%
G36*
X3057246Y1577821D02*
X3057246Y1577821D01*
X3060189Y1584926D01*
X3066527Y1594411D01*
X3074589Y1602473D01*
X3084074Y1608811D01*
X3091179Y1611753D01*
X3091179Y1577821D01*
X3057246Y1577821D01*
G37*
%LPD*%
%LPC*%
G36*
X136246Y1574321D02*
X136246Y1574321D01*
X139189Y1581426D01*
X145527Y1590911D01*
X153589Y1598973D01*
X163074Y1605311D01*
X170179Y1608253D01*
X170179Y1574321D01*
X136246Y1574321D01*
G37*
%LPD*%
%LPC*%
G36*
X2930246Y210821D02*
X2930246Y210821D01*
X2933189Y217926D01*
X2939527Y227411D01*
X2947589Y235473D01*
X2957074Y241811D01*
X2964179Y244753D01*
X2964179Y210821D01*
X2930246Y210821D01*
G37*
%LPD*%
%LPC*%
G36*
X2104746Y210821D02*
X2104746Y210821D01*
X2107689Y217926D01*
X2114027Y227411D01*
X2122089Y235473D01*
X2131574Y241811D01*
X2138679Y244753D01*
X2138679Y210821D01*
X2104746Y210821D01*
G37*
%LPD*%
%LPC*%
G36*
X1596746Y210821D02*
X1596746Y210821D01*
X1599689Y217926D01*
X1606027Y227411D01*
X1614089Y235473D01*
X1623574Y241811D01*
X1630679Y244753D01*
X1630679Y210821D01*
X1596746Y210821D01*
G37*
%LPD*%
%LPC*%
G36*
X1088746Y210821D02*
X1088746Y210821D01*
X1091689Y217926D01*
X1098027Y227411D01*
X1106089Y235473D01*
X1115574Y241811D01*
X1122679Y244753D01*
X1122679Y210821D01*
X1088746Y210821D01*
G37*
%LPD*%
%LPC*%
G36*
X679246Y210821D02*
X679246Y210821D01*
X682189Y217926D01*
X688527Y227411D01*
X696589Y235473D01*
X706074Y241811D01*
X713179Y244753D01*
X713179Y210821D01*
X679246Y210821D01*
G37*
%LPD*%
%LPC*%
G36*
X337821Y170179D02*
X337821Y170179D01*
X371753Y170179D01*
X368811Y163074D01*
X362473Y153589D01*
X354411Y145527D01*
X344926Y139189D01*
X337821Y136246D01*
X337821Y170179D01*
G37*
%LPD*%
%LPC*%
G36*
X2592321Y172679D02*
X2592321Y172679D01*
X2626253Y172679D01*
X2623311Y165574D01*
X2616973Y156089D01*
X2608911Y148027D01*
X2599426Y141689D01*
X2592321Y138746D01*
X2592321Y172679D01*
G37*
%LPD*%
%LPC*%
G36*
X1671321Y170179D02*
X1671321Y170179D01*
X1705253Y170179D01*
X1702311Y163074D01*
X1695973Y153589D01*
X1687911Y145527D01*
X1678426Y139189D01*
X1671321Y136246D01*
X1671321Y170179D01*
G37*
%LPD*%
%LPC*%
G36*
X3004821Y170179D02*
X3004821Y170179D01*
X3038753Y170179D01*
X3035811Y163074D01*
X3029473Y153589D01*
X3021411Y145527D01*
X3011926Y139189D01*
X3004821Y136246D01*
X3004821Y170179D01*
G37*
%LPD*%
%LPC*%
G36*
X2179321Y170179D02*
X2179321Y170179D01*
X2213253Y170179D01*
X2210311Y163074D01*
X2203973Y153589D01*
X2195911Y145527D01*
X2186426Y139189D01*
X2179321Y136246D01*
X2179321Y170179D01*
G37*
%LPD*%
%LPC*%
G36*
X1163321Y170179D02*
X1163321Y170179D01*
X1197253Y170179D01*
X1194311Y163074D01*
X1187973Y153589D01*
X1179911Y145527D01*
X1170426Y139189D01*
X1163321Y136246D01*
X1163321Y170179D01*
G37*
%LPD*%
%LPC*%
G36*
X753821Y170179D02*
X753821Y170179D01*
X787753Y170179D01*
X784811Y163074D01*
X778473Y153589D01*
X770411Y145527D01*
X760926Y139189D01*
X753821Y136246D01*
X753821Y170179D01*
G37*
%LPD*%
%LPC*%
G36*
X163074Y1502689D02*
X163074Y1502689D01*
X153589Y1509027D01*
X145527Y1517089D01*
X139189Y1526573D01*
X136246Y1533679D01*
X170179Y1533679D01*
X170179Y1499746D01*
X163074Y1502689D01*
G37*
%LPD*%
%LPC*%
G36*
X3084074Y677189D02*
X3084074Y677189D01*
X3074589Y683527D01*
X3066527Y691589D01*
X3060189Y701073D01*
X3057246Y708179D01*
X3091179Y708179D01*
X3091179Y674246D01*
X3084074Y677189D01*
G37*
%LPD*%
%LPC*%
G36*
X1623574Y2044189D02*
X1623574Y2044189D01*
X1614089Y2050527D01*
X1606027Y2058589D01*
X1599689Y2068074D01*
X1596746Y2075179D01*
X1630679Y2075179D01*
X1630679Y2041246D01*
X1623574Y2044189D01*
G37*
%LPD*%
%LPC*%
G36*
X163074Y266189D02*
X163074Y266189D01*
X153589Y272527D01*
X145527Y280589D01*
X139189Y290074D01*
X136246Y297179D01*
X170179Y297179D01*
X170179Y263246D01*
X163074Y266189D01*
G37*
%LPD*%
%LPC*%
G36*
X163074Y1917189D02*
X163074Y1917189D01*
X153589Y1923527D01*
X145527Y1931589D01*
X139189Y1941074D01*
X136246Y1948179D01*
X170179Y1948179D01*
X170179Y1914246D01*
X163074Y1917189D01*
G37*
%LPD*%
%LPC*%
G36*
X290074Y2044189D02*
X290074Y2044189D01*
X280589Y2050527D01*
X272527Y2058589D01*
X266189Y2068074D01*
X263246Y2075179D01*
X297179Y2075179D01*
X297179Y2041246D01*
X290074Y2044189D01*
G37*
%LPD*%
%LPC*%
G36*
X163074Y680689D02*
X163074Y680689D01*
X153589Y687027D01*
X145527Y695089D01*
X139189Y704574D01*
X136246Y711679D01*
X170179Y711679D01*
X170179Y677746D01*
X163074Y680689D01*
G37*
%LPD*%
%LPC*%
G36*
X2544574Y141689D02*
X2544574Y141689D01*
X2535089Y148027D01*
X2527027Y156089D01*
X2520689Y165574D01*
X2517746Y172679D01*
X2551679Y172679D01*
X2551679Y138746D01*
X2544574Y141689D01*
G37*
%LPD*%
%LPC*%
G36*
X3084074Y1506189D02*
X3084074Y1506189D01*
X3074589Y1512527D01*
X3066527Y1520589D01*
X3060189Y1530074D01*
X3057246Y1537179D01*
X3091179Y1537179D01*
X3091179Y1503246D01*
X3084074Y1506189D01*
G37*
%LPD*%
%LPC*%
G36*
X290074Y139189D02*
X290074Y139189D01*
X280589Y145527D01*
X272527Y153589D01*
X266189Y163074D01*
X263246Y170179D01*
X297179Y170179D01*
X297179Y136246D01*
X290074Y139189D01*
G37*
%LPD*%
%LPC*%
G36*
X1115574Y2044189D02*
X1115574Y2044189D01*
X1106089Y2050527D01*
X1098027Y2058589D01*
X1091689Y2068074D01*
X1088746Y2075179D01*
X1122679Y2075179D01*
X1122679Y2041246D01*
X1115574Y2044189D01*
G37*
%LPD*%
%LPC*%
G36*
X2957074Y139189D02*
X2957074Y139189D01*
X2947589Y145527D01*
X2939527Y153589D01*
X2933189Y163074D01*
X2930246Y170179D01*
X2964179Y170179D01*
X2964179Y136246D01*
X2957074Y139189D01*
G37*
%LPD*%
%LPC*%
G36*
X701074Y2044189D02*
X701074Y2044189D01*
X691589Y2050527D01*
X683527Y2058589D01*
X677189Y2068074D01*
X674246Y2075179D01*
X708179Y2075179D01*
X708179Y2041246D01*
X701074Y2044189D01*
G37*
%LPD*%
%LPC*%
G36*
X2131574Y139189D02*
X2131574Y139189D01*
X2122089Y145527D01*
X2114027Y153589D01*
X2107689Y163074D01*
X2104746Y170179D01*
X2138679Y170179D01*
X2138679Y136246D01*
X2131574Y139189D01*
G37*
%LPD*%
%LPC*%
G36*
X1623574Y139189D02*
X1623574Y139189D01*
X1614089Y145527D01*
X1606027Y153589D01*
X1599689Y163074D01*
X1596746Y170179D01*
X1630679Y170179D01*
X1630679Y136246D01*
X1623574Y139189D01*
G37*
%LPD*%
%LPC*%
G36*
X2131574Y2044189D02*
X2131574Y2044189D01*
X2122089Y2050527D01*
X2114027Y2058589D01*
X2107689Y2068074D01*
X2104746Y2075179D01*
X2138679Y2075179D01*
X2138679Y2041246D01*
X2131574Y2044189D01*
G37*
%LPD*%
%LPC*%
G36*
X1115574Y139189D02*
X1115574Y139189D01*
X1106089Y145527D01*
X1098027Y153589D01*
X1091689Y163074D01*
X1088746Y170179D01*
X1122679Y170179D01*
X1122679Y136246D01*
X1115574Y139189D01*
G37*
%LPD*%
%LPC*%
G36*
X163074Y1091689D02*
X163074Y1091689D01*
X153589Y1098027D01*
X145527Y1106089D01*
X139189Y1115574D01*
X136246Y1122679D01*
X170179Y1122679D01*
X170179Y1088746D01*
X163074Y1091689D01*
G37*
%LPD*%
%LPC*%
G36*
X706074Y139189D02*
X706074Y139189D01*
X696589Y145527D01*
X688527Y153589D01*
X682189Y163074D01*
X679246Y170179D01*
X713179Y170179D01*
X713179Y136246D01*
X706074Y139189D01*
G37*
%LPD*%
%LPC*%
G36*
X3084074Y266189D02*
X3084074Y266189D01*
X3074589Y272527D01*
X3066527Y280589D01*
X3060189Y290074D01*
X3057246Y297179D01*
X3091179Y297179D01*
X3091179Y263246D01*
X3084074Y266189D01*
G37*
%LPD*%
D10*
X2984500Y0D02*
X2992095Y-50D01*
X2999690Y85D01*
X3007279Y404D01*
X3014858Y909D01*
X3022422Y1598D01*
X3029968Y2471D01*
X3037490Y3528D01*
X3044984Y4768D01*
X3052445Y6190D01*
X3059870Y7794D01*
X3067253Y9578D01*
X3074590Y11541D01*
X3081878Y13682D01*
X3089111Y16001D01*
X3096286Y18495D01*
X3103398Y21163D01*
X3110442Y24004D01*
X3117415Y27015D01*
X3124313Y30196D01*
X3131132Y33543D01*
X3137866Y37056D01*
X3144513Y40732D01*
X3151069Y44569D01*
X3157529Y48564D01*
X3163890Y52715D01*
X3170148Y57021D01*
X3176299Y61477D01*
X3182339Y66082D01*
X3188266Y70833D01*
X3194075Y75727D01*
X3199763Y80761D01*
X3205326Y85932D01*
X3210763Y91237D01*
X3216068Y96674D01*
X3221239Y102237D01*
X3226273Y107925D01*
X3231167Y113734D01*
X3235918Y119661D01*
X3240523Y125701D01*
X3244979Y131852D01*
X3249285Y138110D01*
X3253436Y144471D01*
X3257431Y150931D01*
X3261268Y157487D01*
X3264944Y164134D01*
X3268457Y170868D01*
X3271804Y177687D01*
X3274985Y184585D01*
X3277996Y191558D01*
X3280837Y198602D01*
X3283505Y205714D01*
X3285999Y212889D01*
X3288318Y220122D01*
X3290459Y227410D01*
X3292422Y234747D01*
X3294206Y242130D01*
X3295810Y249555D01*
X3297232Y257016D01*
X3298472Y264510D01*
X3299529Y272032D01*
X3300402Y279578D01*
X3301091Y287142D01*
X3301596Y294721D01*
X3301915Y302310D01*
X3302050Y309905D01*
X3302000Y317500D01*
X3302000Y1968500D02*
X3302050Y1976095D01*
X3301915Y1983690D01*
X3301596Y1991279D01*
X3301091Y1998858D01*
X3300402Y2006422D01*
X3299529Y2013968D01*
X3298472Y2021490D01*
X3297232Y2028984D01*
X3295810Y2036445D01*
X3294206Y2043870D01*
X3292422Y2051253D01*
X3290459Y2058590D01*
X3288318Y2065878D01*
X3285999Y2073111D01*
X3283505Y2080286D01*
X3280837Y2087398D01*
X3277996Y2094442D01*
X3274985Y2101415D01*
X3271804Y2108313D01*
X3268457Y2115132D01*
X3264944Y2121866D01*
X3261268Y2128513D01*
X3257431Y2135069D01*
X3253436Y2141529D01*
X3249285Y2147890D01*
X3244979Y2154148D01*
X3240523Y2160299D01*
X3235918Y2166339D01*
X3231167Y2172266D01*
X3226273Y2178075D01*
X3221239Y2183763D01*
X3216068Y2189326D01*
X3210763Y2194763D01*
X3205326Y2200068D01*
X3199763Y2205239D01*
X3194075Y2210273D01*
X3188266Y2215167D01*
X3182339Y2219918D01*
X3176299Y2224523D01*
X3170148Y2228979D01*
X3163890Y2233285D01*
X3157529Y2237436D01*
X3151069Y2241431D01*
X3144513Y2245268D01*
X3137866Y2248944D01*
X3131132Y2252457D01*
X3124313Y2255804D01*
X3117415Y2258985D01*
X3110442Y2261996D01*
X3103398Y2264837D01*
X3096286Y2267505D01*
X3089111Y2269999D01*
X3081878Y2272318D01*
X3074590Y2274459D01*
X3067253Y2276422D01*
X3059870Y2278206D01*
X3052445Y2279810D01*
X3044984Y2281232D01*
X3037490Y2282472D01*
X3029968Y2283529D01*
X3022422Y2284402D01*
X3014858Y2285091D01*
X3007279Y2285596D01*
X2999690Y2285915D01*
X2992095Y2286050D01*
X2984500Y2286000D01*
X317500Y2286000D02*
X309905Y2286050D01*
X302310Y2285915D01*
X294721Y2285596D01*
X287142Y2285091D01*
X279578Y2284402D01*
X272032Y2283529D01*
X264510Y2282472D01*
X257016Y2281232D01*
X249555Y2279810D01*
X242130Y2278206D01*
X234747Y2276422D01*
X227410Y2274459D01*
X220122Y2272318D01*
X212889Y2269999D01*
X205714Y2267505D01*
X198602Y2264837D01*
X191558Y2261996D01*
X184585Y2258985D01*
X177687Y2255804D01*
X170868Y2252457D01*
X164134Y2248944D01*
X157487Y2245268D01*
X150931Y2241431D01*
X144471Y2237436D01*
X138110Y2233285D01*
X131852Y2228979D01*
X125701Y2224523D01*
X119661Y2219918D01*
X113734Y2215167D01*
X107925Y2210273D01*
X102237Y2205239D01*
X96674Y2200068D01*
X91237Y2194763D01*
X85932Y2189326D01*
X80761Y2183763D01*
X75727Y2178075D01*
X70833Y2172266D01*
X66082Y2166339D01*
X61477Y2160299D01*
X57021Y2154148D01*
X52715Y2147890D01*
X48564Y2141529D01*
X44569Y2135069D01*
X40732Y2128513D01*
X37056Y2121866D01*
X33543Y2115132D01*
X30196Y2108313D01*
X27015Y2101415D01*
X24004Y2094442D01*
X21163Y2087398D01*
X18495Y2080286D01*
X16001Y2073111D01*
X13682Y2065878D01*
X11541Y2058590D01*
X9578Y2051253D01*
X7794Y2043870D01*
X6190Y2036445D01*
X4768Y2028984D01*
X3528Y2021490D01*
X2471Y2013968D01*
X1598Y2006422D01*
X909Y1998858D01*
X404Y1991279D01*
X85Y1983690D01*
X-50Y1976095D01*
X0Y1968500D01*
X0Y317500D02*
X-50Y309905D01*
X85Y302310D01*
X404Y294721D01*
X909Y287142D01*
X1598Y279578D01*
X2471Y272032D01*
X3528Y264510D01*
X4768Y257016D01*
X6190Y249555D01*
X7794Y242130D01*
X9578Y234747D01*
X11541Y227410D01*
X13682Y220122D01*
X16001Y212889D01*
X18495Y205714D01*
X21163Y198602D01*
X24004Y191558D01*
X27015Y184585D01*
X30196Y177687D01*
X33543Y170868D01*
X37056Y164134D01*
X40732Y157487D01*
X44569Y150931D01*
X48564Y144471D01*
X52715Y138110D01*
X57021Y131852D01*
X61477Y125701D01*
X66082Y119661D01*
X70833Y113734D01*
X75727Y107925D01*
X80761Y102237D01*
X85932Y96674D01*
X91237Y91237D01*
X96674Y85932D01*
X102237Y80761D01*
X107925Y75727D01*
X113734Y70833D01*
X119661Y66082D01*
X125701Y61477D01*
X131852Y57021D01*
X138110Y52715D01*
X144471Y48564D01*
X150931Y44569D01*
X157487Y40732D01*
X164134Y37056D01*
X170868Y33543D01*
X177687Y30196D01*
X184585Y27015D01*
X191558Y24004D01*
X198602Y21163D01*
X205714Y18495D01*
X212889Y16001D01*
X220122Y13682D01*
X227410Y11541D01*
X234747Y9578D01*
X242130Y7794D01*
X249555Y6190D01*
X257016Y4768D01*
X264510Y3528D01*
X272032Y2471D01*
X279578Y1598D01*
X287142Y909D01*
X294721Y404D01*
X302310Y85D01*
X309905Y-50D01*
X317500Y0D01*
D11*
X2984500Y0D01*
X3302000Y317500D02*
X3302000Y1968500D01*
X2984500Y2286000D02*
X317500Y2286000D01*
X0Y1968500D02*
X0Y317500D01*
D12*
X698500Y1238000D03*
X698500Y1048000D03*
D13*
X1383500Y762000D03*
X1283500Y762000D03*
X1129500Y762000D03*
X1029500Y762000D03*
D14*
X1651000Y1068000D03*
X1651000Y1218000D03*
D13*
X2744000Y1651000D03*
X2844000Y1651000D03*
D15*
X1016000Y1193000D03*
X1016000Y1093000D03*
X1016000Y1447000D03*
X1016000Y1347000D03*
D16*
X457200Y1016000D02*
X304800Y1016000D01*
X304800Y1270000D02*
X457200Y1270000D01*
X2844800Y1016000D02*
X2997200Y1016000D01*
X2997200Y1270000D02*
X2844800Y1270000D01*
D17*
X609600Y1588300D03*
X406400Y1588300D03*
X508000Y1829600D03*
D16*
X2921000Y1828800D02*
X2921000Y1981200D01*
X2667000Y1981200D02*
X2667000Y1828800D01*
X2413000Y1828800D02*
X2413000Y1981200D01*
X2222500Y552450D02*
X2222500Y400050D01*
X1968500Y400050D02*
X1968500Y552450D01*
X698500Y552450D02*
X698500Y400050D01*
X952500Y400050D02*
X952500Y552450D01*
X1206500Y552450D02*
X1206500Y400050D01*
D18*
X1206500Y1333500D03*
D19*
X1206500Y1447000D02*
X1016000Y1447000D01*
X1206500Y1447000D02*
X1206500Y1333500D01*
D18*
X1206500Y1206500D03*
D19*
X1016000Y1193000D02*
X1016000Y1347000D01*
X1016000Y1206500D02*
X1206500Y1206500D01*
X1016000Y1206500D02*
X1016000Y1193000D01*
D18*
X317500Y190500D03*
X190500Y317500D03*
X190500Y1968500D03*
X2984500Y2095500D03*
X317500Y2095500D03*
X3111500Y1968500D03*
X3111500Y317500D03*
X2984500Y190500D03*
X3111500Y1143000D03*
X190500Y1143000D03*
X190500Y732000D03*
X190500Y1554000D03*
X3111500Y1557500D03*
X3111500Y728500D03*
X2572000Y193000D03*
X2159000Y190500D03*
X2159000Y2095500D03*
X2573500Y2095500D03*
X728500Y2095500D03*
X1143000Y2095500D03*
X733500Y190500D03*
X1143000Y190500D03*
X1651000Y2095500D03*
X1651000Y190500D03*
D19*
X609600Y1588300D02*
X406400Y1588300D01*
D18*
X1333500Y1016000D03*
D19*
X1016000Y1016000D01*
X1016000Y1093000D01*
D18*
X1968500Y1206500D03*
D19*
X1465180Y1147680D02*
X1333500Y1016000D01*
X1738948Y1206500D02*
X1968500Y1206500D01*
X1738948Y1206500D02*
X1680128Y1147680D01*
X1465180Y1147680D01*
X1968500Y1460500D02*
X2413000Y1905000D01*
X1968500Y1460500D02*
X1968500Y1206500D01*
X603000Y1270000D02*
X381000Y1270000D01*
X381000Y1562900D01*
X406400Y1588300D01*
X381000Y1270000D02*
X698500Y1270000D01*
X698500Y1238000D01*
X857250Y1270000D02*
X857250Y1016000D01*
X857250Y1270000D02*
X698500Y1270000D01*
X857250Y1016000D02*
X1016000Y1016000D01*
X2540000Y1270000D02*
X2921000Y1270000D01*
X1968500Y762000D02*
X1383500Y762000D01*
X1968500Y762000D02*
X2032000Y762000D01*
X2540000Y1270000D01*
X1968500Y762000D02*
X1968500Y476250D01*
D18*
X1206500Y889000D03*
D19*
X1206500Y762000D02*
X1129500Y762000D01*
X1206500Y762000D02*
X1283500Y762000D01*
X1206500Y794588D02*
X1206500Y889000D01*
X1206500Y762000D01*
X2667000Y1651000D02*
X2744000Y1651000D01*
X2667000Y1651000D02*
X2476500Y1651000D01*
X2159000Y1333500D01*
D18*
X2159000Y1333500D03*
D19*
X2667000Y1683000D02*
X2667000Y1905000D01*
X2667000Y1651000D01*
M02*
