G75*
%MOIN*%
%OFA0B0*%
%FSLAX25Y25*%
%IPPOS*%
%LPD*%
%AMOC8*
5,1,8,0,0,1.08239X$1,22.5*
%
%ADD10C,0.00394*%
%ADD11C,0.00400*%
%ADD12R,0.05906X0.05118*%
%ADD13R,0.05118X0.05906*%
D10*
X0014300Y0023933D02*
X0014001Y0023931D01*
X0013702Y0023936D01*
X0013403Y0023949D01*
X0013105Y0023969D01*
X0012807Y0023996D01*
X0012510Y0024030D01*
X0012214Y0024072D01*
X0011919Y0024121D01*
X0011625Y0024177D01*
X0011333Y0024240D01*
X0011042Y0024310D01*
X0010753Y0024388D01*
X0010466Y0024472D01*
X0010181Y0024563D01*
X0009899Y0024661D01*
X0009619Y0024766D01*
X0009342Y0024878D01*
X0009067Y0024997D01*
X0008796Y0025122D01*
X0008527Y0025254D01*
X0008262Y0025392D01*
X0008000Y0025537D01*
X0007742Y0025688D01*
X0007488Y0025845D01*
X0007237Y0026009D01*
X0006991Y0026178D01*
X0006749Y0026353D01*
X0006511Y0026535D01*
X0006278Y0026722D01*
X0006049Y0026914D01*
X0005825Y0027113D01*
X0005606Y0027316D01*
X0005392Y0027525D01*
X0005183Y0027739D01*
X0004980Y0027958D01*
X0004781Y0028182D01*
X0004589Y0028411D01*
X0004402Y0028644D01*
X0004220Y0028882D01*
X0004045Y0029124D01*
X0003876Y0029370D01*
X0003712Y0029621D01*
X0003555Y0029875D01*
X0003404Y0030133D01*
X0003259Y0030395D01*
X0003121Y0030660D01*
X0002989Y0030929D01*
X0002864Y0031200D01*
X0002745Y0031475D01*
X0002633Y0031752D01*
X0002528Y0032032D01*
X0002430Y0032314D01*
X0002339Y0032599D01*
X0002255Y0032886D01*
X0002177Y0033175D01*
X0002107Y0033466D01*
X0002044Y0033758D01*
X0001988Y0034052D01*
X0001939Y0034347D01*
X0001897Y0034643D01*
X0001863Y0034940D01*
X0001836Y0035238D01*
X0001816Y0035536D01*
X0001803Y0035835D01*
X0001798Y0036134D01*
X0001800Y0036433D01*
X0001800Y0101433D02*
X0001798Y0101732D01*
X0001803Y0102031D01*
X0001816Y0102330D01*
X0001836Y0102628D01*
X0001863Y0102926D01*
X0001897Y0103223D01*
X0001939Y0103519D01*
X0001988Y0103814D01*
X0002044Y0104108D01*
X0002107Y0104400D01*
X0002177Y0104691D01*
X0002255Y0104980D01*
X0002339Y0105267D01*
X0002430Y0105552D01*
X0002528Y0105834D01*
X0002633Y0106114D01*
X0002745Y0106391D01*
X0002864Y0106666D01*
X0002989Y0106937D01*
X0003121Y0107206D01*
X0003259Y0107471D01*
X0003404Y0107733D01*
X0003555Y0107991D01*
X0003712Y0108245D01*
X0003876Y0108496D01*
X0004045Y0108742D01*
X0004220Y0108984D01*
X0004402Y0109222D01*
X0004589Y0109455D01*
X0004781Y0109684D01*
X0004980Y0109908D01*
X0005183Y0110127D01*
X0005392Y0110341D01*
X0005606Y0110550D01*
X0005825Y0110753D01*
X0006049Y0110952D01*
X0006278Y0111144D01*
X0006511Y0111331D01*
X0006749Y0111513D01*
X0006991Y0111688D01*
X0007237Y0111857D01*
X0007488Y0112021D01*
X0007742Y0112178D01*
X0008000Y0112329D01*
X0008262Y0112474D01*
X0008527Y0112612D01*
X0008796Y0112744D01*
X0009067Y0112869D01*
X0009342Y0112988D01*
X0009619Y0113100D01*
X0009899Y0113205D01*
X0010181Y0113303D01*
X0010466Y0113394D01*
X0010753Y0113478D01*
X0011042Y0113556D01*
X0011333Y0113626D01*
X0011625Y0113689D01*
X0011919Y0113745D01*
X0012214Y0113794D01*
X0012510Y0113836D01*
X0012807Y0113870D01*
X0013105Y0113897D01*
X0013403Y0113917D01*
X0013702Y0113930D01*
X0014001Y0113935D01*
X0014300Y0113933D01*
X0119300Y0113933D02*
X0119599Y0113935D01*
X0119898Y0113930D01*
X0120197Y0113917D01*
X0120495Y0113897D01*
X0120793Y0113870D01*
X0121090Y0113836D01*
X0121386Y0113794D01*
X0121681Y0113745D01*
X0121975Y0113689D01*
X0122267Y0113626D01*
X0122558Y0113556D01*
X0122847Y0113478D01*
X0123134Y0113394D01*
X0123419Y0113303D01*
X0123701Y0113205D01*
X0123981Y0113100D01*
X0124258Y0112988D01*
X0124533Y0112869D01*
X0124804Y0112744D01*
X0125073Y0112612D01*
X0125338Y0112474D01*
X0125600Y0112329D01*
X0125858Y0112178D01*
X0126112Y0112021D01*
X0126363Y0111857D01*
X0126609Y0111688D01*
X0126851Y0111513D01*
X0127089Y0111331D01*
X0127322Y0111144D01*
X0127551Y0110952D01*
X0127775Y0110753D01*
X0127994Y0110550D01*
X0128208Y0110341D01*
X0128417Y0110127D01*
X0128620Y0109908D01*
X0128819Y0109684D01*
X0129011Y0109455D01*
X0129198Y0109222D01*
X0129380Y0108984D01*
X0129555Y0108742D01*
X0129724Y0108496D01*
X0129888Y0108245D01*
X0130045Y0107991D01*
X0130196Y0107733D01*
X0130341Y0107471D01*
X0130479Y0107206D01*
X0130611Y0106937D01*
X0130736Y0106666D01*
X0130855Y0106391D01*
X0130967Y0106114D01*
X0131072Y0105834D01*
X0131170Y0105552D01*
X0131261Y0105267D01*
X0131345Y0104980D01*
X0131423Y0104691D01*
X0131493Y0104400D01*
X0131556Y0104108D01*
X0131612Y0103814D01*
X0131661Y0103519D01*
X0131703Y0103223D01*
X0131737Y0102926D01*
X0131764Y0102628D01*
X0131784Y0102330D01*
X0131797Y0102031D01*
X0131802Y0101732D01*
X0131800Y0101433D01*
X0131800Y0036433D02*
X0131802Y0036134D01*
X0131797Y0035835D01*
X0131784Y0035536D01*
X0131764Y0035238D01*
X0131737Y0034940D01*
X0131703Y0034643D01*
X0131661Y0034347D01*
X0131612Y0034052D01*
X0131556Y0033758D01*
X0131493Y0033466D01*
X0131423Y0033175D01*
X0131345Y0032886D01*
X0131261Y0032599D01*
X0131170Y0032314D01*
X0131072Y0032032D01*
X0130967Y0031752D01*
X0130855Y0031475D01*
X0130736Y0031200D01*
X0130611Y0030929D01*
X0130479Y0030660D01*
X0130341Y0030395D01*
X0130196Y0030133D01*
X0130045Y0029875D01*
X0129888Y0029621D01*
X0129724Y0029370D01*
X0129555Y0029124D01*
X0129380Y0028882D01*
X0129198Y0028644D01*
X0129011Y0028411D01*
X0128819Y0028182D01*
X0128620Y0027958D01*
X0128417Y0027739D01*
X0128208Y0027525D01*
X0127994Y0027316D01*
X0127775Y0027113D01*
X0127551Y0026914D01*
X0127322Y0026722D01*
X0127089Y0026535D01*
X0126851Y0026353D01*
X0126609Y0026178D01*
X0126363Y0026009D01*
X0126112Y0025845D01*
X0125858Y0025688D01*
X0125600Y0025537D01*
X0125338Y0025392D01*
X0125073Y0025254D01*
X0124804Y0025122D01*
X0124533Y0024997D01*
X0124258Y0024878D01*
X0123981Y0024766D01*
X0123701Y0024661D01*
X0123419Y0024563D01*
X0123134Y0024472D01*
X0122847Y0024388D01*
X0122558Y0024310D01*
X0122267Y0024240D01*
X0121975Y0024177D01*
X0121681Y0024121D01*
X0121386Y0024072D01*
X0121090Y0024030D01*
X0120793Y0023996D01*
X0120495Y0023969D01*
X0120197Y0023949D01*
X0119898Y0023936D01*
X0119599Y0023931D01*
X0119300Y0023933D01*
D11*
X0014300Y0023933D01*
X0001800Y0036433D02*
X0001800Y0101433D01*
X0014300Y0113933D02*
X0119300Y0113933D01*
X0131800Y0101433D02*
X0131800Y0036433D01*
D12*
X0091800Y0050193D03*
X0091800Y0057673D03*
X0091800Y0067693D03*
X0091800Y0075173D03*
X0106800Y0072673D03*
X0106800Y0065193D03*
X0066800Y0090193D03*
X0066800Y0097673D03*
D13*
X0080560Y0083933D03*
X0088040Y0083933D03*
X0025540Y0048933D03*
X0018060Y0048933D03*
M02*
