M48
;GenerationSoftware,Autodesk,EAGLE,9.0.0*%
;CreationDate,2018-05-03T17:36:58Z*%
FMAT,2
ICI,OFF
METRIC,TZ,000.00000
T3C0.30000
T2C0.35000
T1C1.01600
%
G90
M71
T1
X2413000Y1905000
X381000Y1016000
X381000Y1270000
X2921000Y1016000
X2921000Y1270000
X2921000Y1905000
X2667000Y1905000
X2222500Y476250
X1968500Y476250
X698500Y476250
X952500Y476250
X1206500Y476250
T2
X190500Y732000
X190500Y1554000
X3111500Y1557500
X3111500Y728500
X2572000Y193000
X2159000Y190500
X2159000Y2095500
X2573500Y2095500
X728500Y2095500
X1143000Y2095500
X2984500Y2095500
X1143000Y190500
X1651000Y2095500
X1651000Y190500
X1333500Y1016000
X1968500Y1206500
X1206500Y889000
X2159000Y1333500
X1206500Y1333500
X1206500Y1206500
X317500Y190500
X190500Y317500
X190500Y1968500
X317500Y2095500
X733500Y190500
X3111500Y1968500
X3111500Y317500
X2984500Y190500
X3111500Y1143000
X190500Y1143000
T3
X1651000Y1068000
X1651000Y1218000
M30