G04 EAGLE Gerber X2 export*
G75*
%MOMM*%
%FSLAX35Y35*%
%LPD*%
%AMOC8*
5,1,8,0,0,1.08239X$1,22.5*%
G01*
%ADD10C,0.100000*%
%ADD11C,0.101600*%
%ADD12R,0.900000X0.400000*%
%ADD13R,1.600000X2.900000*%
%ADD14C,0.600000*%
%ADD15R,0.600000X0.700000*%
%ADD16C,1.524000*%
%ADD17R,1.803000X1.600000*%
%ADD18C,0.650000*%
%ADD19C,0.406400*%
%ADD20C,1.600200*%

G36*
X321301Y45737D02*
X321301Y45737D01*
X321513Y45724D01*
X328201Y45849D01*
X329772Y45720D01*
X2972228Y45720D01*
X2972346Y45732D01*
X2972465Y45722D01*
X2973642Y45853D01*
X2980480Y45724D01*
X2980650Y45738D01*
X2980863Y45720D01*
X2987641Y45720D01*
X2988067Y45763D01*
X2988620Y45744D01*
X3019593Y47238D01*
X3019966Y47294D01*
X3020344Y47288D01*
X3023376Y47800D01*
X3023577Y47830D01*
X3023598Y47838D01*
X3023627Y47843D01*
X3087273Y64044D01*
X3088268Y64405D01*
X3089291Y64671D01*
X3090334Y65156D01*
X3091058Y65419D01*
X3091570Y65731D01*
X3092310Y66075D01*
X3149392Y98556D01*
X3150253Y99166D01*
X3151172Y99695D01*
X3152051Y100441D01*
X3152678Y100884D01*
X3153087Y101319D01*
X3153711Y101848D01*
X3200151Y148288D01*
X3200821Y149106D01*
X3201566Y149858D01*
X3202215Y150808D01*
X3202703Y151404D01*
X3202983Y151933D01*
X3203444Y152607D01*
X3235925Y209689D01*
X3236354Y210655D01*
X3236873Y211578D01*
X3237248Y212667D01*
X3237560Y213369D01*
X3237690Y213953D01*
X3237956Y214726D01*
X3254157Y278373D01*
X3254214Y278746D01*
X3254329Y279105D01*
X3254727Y282141D01*
X3254759Y282354D01*
X3254758Y282378D01*
X3254761Y282406D01*
X3256256Y313383D01*
X3256234Y313808D01*
X3256279Y314362D01*
X3256279Y321130D01*
X3256263Y321299D01*
X3256276Y321512D01*
X3256150Y328201D01*
X3256279Y329772D01*
X3256279Y1956228D01*
X3256268Y1956343D01*
X3256278Y1956459D01*
X3256147Y1957638D01*
X3256276Y1964488D01*
X3256262Y1964660D01*
X3256279Y1964870D01*
X3256279Y1971638D01*
X3256237Y1972064D01*
X3256256Y1972617D01*
X3254761Y2003593D01*
X3254706Y2003966D01*
X3254711Y2004344D01*
X3254199Y2007378D01*
X3254170Y2007577D01*
X3254162Y2007598D01*
X3254157Y2007627D01*
X3237956Y2071273D01*
X3237594Y2072268D01*
X3237329Y2073291D01*
X3236844Y2074334D01*
X3236581Y2075058D01*
X3236269Y2075570D01*
X3235925Y2076310D01*
X3203444Y2133392D01*
X3202834Y2134253D01*
X3202305Y2135172D01*
X3201560Y2136051D01*
X3201115Y2136678D01*
X3200679Y2137088D01*
X3200151Y2137711D01*
X3153711Y2184151D01*
X3152894Y2184820D01*
X3152142Y2185566D01*
X3151193Y2186214D01*
X3150596Y2186703D01*
X3150065Y2186984D01*
X3149392Y2187444D01*
X3092310Y2219925D01*
X3091345Y2220354D01*
X3090422Y2220873D01*
X3089333Y2221248D01*
X3088630Y2221560D01*
X3088047Y2221690D01*
X3087273Y2221956D01*
X3023627Y2238157D01*
X3023253Y2238214D01*
X3022895Y2238329D01*
X3019858Y2238727D01*
X3019646Y2238759D01*
X3019622Y2238758D01*
X3019594Y2238761D01*
X2988617Y2240256D01*
X2988191Y2240234D01*
X2987638Y2240279D01*
X2980871Y2240279D01*
X2980702Y2240263D01*
X2980489Y2240276D01*
X2973798Y2240150D01*
X2972228Y2240279D01*
X329772Y2240279D01*
X329657Y2240268D01*
X329541Y2240278D01*
X328362Y2240147D01*
X321510Y2240276D01*
X321338Y2240262D01*
X321128Y2240279D01*
X314362Y2240279D01*
X313936Y2240237D01*
X313383Y2240256D01*
X282406Y2238761D01*
X282034Y2238706D01*
X281656Y2238711D01*
X278621Y2238199D01*
X278423Y2238170D01*
X278402Y2238162D01*
X278373Y2238157D01*
X214726Y2221956D01*
X213731Y2221594D01*
X212708Y2221329D01*
X211666Y2220844D01*
X210942Y2220581D01*
X210429Y2220269D01*
X209690Y2219925D01*
X152608Y2187444D01*
X151747Y2186834D01*
X150828Y2186305D01*
X149949Y2185560D01*
X149322Y2185115D01*
X148911Y2184679D01*
X148289Y2184151D01*
X101848Y2137711D01*
X101179Y2136894D01*
X100434Y2136142D01*
X99786Y2135193D01*
X99297Y2134596D01*
X99015Y2134065D01*
X98556Y2133392D01*
X66075Y2076310D01*
X65646Y2075345D01*
X65127Y2074422D01*
X64752Y2073333D01*
X64440Y2072630D01*
X64310Y2072047D01*
X64044Y2071273D01*
X47843Y2007627D01*
X47786Y2007253D01*
X47671Y2006895D01*
X47273Y2003858D01*
X47241Y2003645D01*
X47242Y2003621D01*
X47238Y2003593D01*
X45744Y1972616D01*
X45766Y1972190D01*
X45720Y1971637D01*
X45720Y1964873D01*
X45737Y1964703D01*
X45724Y1964491D01*
X45849Y1957798D01*
X45720Y1956228D01*
X45720Y329772D01*
X45732Y329657D01*
X45722Y329541D01*
X45853Y328362D01*
X45724Y321508D01*
X45738Y321337D01*
X45720Y321127D01*
X45720Y314363D01*
X45763Y313936D01*
X45744Y313383D01*
X47238Y282406D01*
X47294Y282034D01*
X47288Y281656D01*
X47801Y278621D01*
X47830Y278423D01*
X47838Y278402D01*
X47843Y278373D01*
X64044Y214726D01*
X64405Y213731D01*
X64671Y212708D01*
X65156Y211666D01*
X65419Y210942D01*
X65731Y210429D01*
X66075Y209690D01*
X98556Y152608D01*
X99166Y151747D01*
X99695Y150828D01*
X100440Y149949D01*
X100884Y149322D01*
X101320Y148911D01*
X101848Y148289D01*
X148289Y101848D01*
X149106Y101179D01*
X149858Y100434D01*
X150807Y99786D01*
X151404Y99297D01*
X151935Y99015D01*
X152608Y98556D01*
X209690Y66075D01*
X210655Y65646D01*
X211578Y65127D01*
X212667Y64752D01*
X213370Y64440D01*
X213953Y64310D01*
X214726Y64044D01*
X278373Y47843D01*
X278747Y47786D01*
X279105Y47671D01*
X282142Y47273D01*
X282354Y47241D01*
X282378Y47242D01*
X282406Y47238D01*
X313382Y45744D01*
X313808Y45766D01*
X314361Y45720D01*
X321132Y45720D01*
X321301Y45737D01*
G37*
%LPC*%
G36*
X1187365Y303849D02*
X1187365Y303849D01*
X1152006Y318496D01*
X1124946Y345556D01*
X1110299Y380915D01*
X1110299Y571585D01*
X1124946Y606944D01*
X1152006Y634004D01*
X1187365Y648650D01*
X1225635Y648650D01*
X1260994Y634004D01*
X1288054Y606944D01*
X1302700Y571585D01*
X1302700Y536890D01*
X1302718Y536714D01*
X1302703Y536540D01*
X1302918Y534706D01*
X1303099Y532883D01*
X1303151Y532715D01*
X1303171Y532540D01*
X1303743Y530785D01*
X1304281Y529033D01*
X1304364Y528879D01*
X1304419Y528711D01*
X1305325Y527104D01*
X1306198Y525492D01*
X1306310Y525357D01*
X1306397Y525204D01*
X1307597Y523813D01*
X1308776Y522398D01*
X1308913Y522288D01*
X1309028Y522155D01*
X1310473Y521033D01*
X1311913Y519874D01*
X1312070Y519793D01*
X1312208Y519685D01*
X1313849Y518869D01*
X1315487Y518018D01*
X1315657Y517969D01*
X1315813Y517891D01*
X1317581Y517415D01*
X1319357Y516903D01*
X1319533Y516889D01*
X1319702Y516843D01*
X1323020Y516570D01*
X1851980Y516570D01*
X1852155Y516588D01*
X1852330Y516573D01*
X1854157Y516787D01*
X1855987Y516969D01*
X1856154Y517021D01*
X1856330Y517041D01*
X1858085Y517613D01*
X1859837Y518151D01*
X1859991Y518234D01*
X1860158Y518289D01*
X1861766Y519195D01*
X1863378Y520068D01*
X1863513Y520180D01*
X1863666Y520267D01*
X1865057Y521467D01*
X1866471Y522646D01*
X1866582Y522783D01*
X1866714Y522898D01*
X1867837Y524343D01*
X1868996Y525783D01*
X1869077Y525940D01*
X1869184Y526078D01*
X1870001Y527719D01*
X1870852Y529357D01*
X1870900Y529527D01*
X1870978Y529683D01*
X1871455Y531451D01*
X1871967Y533227D01*
X1871981Y533403D01*
X1872027Y533572D01*
X1872299Y536890D01*
X1872299Y571585D01*
X1886946Y606944D01*
X1914006Y634004D01*
X1915636Y634679D01*
X1915829Y634783D01*
X1916038Y634851D01*
X1917607Y635736D01*
X1919185Y636582D01*
X1919354Y636721D01*
X1919546Y636829D01*
X1920908Y638005D01*
X1922290Y639146D01*
X1922428Y639317D01*
X1922594Y639460D01*
X1923692Y640873D01*
X1924828Y642273D01*
X1924930Y642468D01*
X1925064Y642641D01*
X1925862Y644244D01*
X1926699Y645838D01*
X1926761Y646049D01*
X1926858Y646246D01*
X1927326Y647980D01*
X1927830Y649703D01*
X1927849Y649922D01*
X1927907Y650134D01*
X1928179Y653452D01*
X1928179Y922360D01*
X1928162Y922535D01*
X1928176Y922710D01*
X1927963Y924537D01*
X1927780Y926367D01*
X1927729Y926534D01*
X1927708Y926710D01*
X1927137Y928465D01*
X1926599Y930217D01*
X1926516Y930371D01*
X1926461Y930538D01*
X1925554Y932146D01*
X1924682Y933758D01*
X1924569Y933893D01*
X1924483Y934046D01*
X1923283Y935437D01*
X1922104Y936851D01*
X1921966Y936962D01*
X1921852Y937094D01*
X1920407Y938217D01*
X1918966Y939376D01*
X1918809Y939457D01*
X1918671Y939564D01*
X1917030Y940381D01*
X1915393Y941232D01*
X1915223Y941280D01*
X1915066Y941358D01*
X1913298Y941835D01*
X1911523Y942347D01*
X1911347Y942361D01*
X1911178Y942407D01*
X1907860Y942679D01*
X1844055Y942679D01*
X1843880Y942727D01*
X1840562Y942999D01*
X1812715Y942999D01*
X1800999Y954715D01*
X1800999Y993101D01*
X1800863Y994468D01*
X1800814Y995841D01*
X1800664Y996467D01*
X1800600Y997108D01*
X1800198Y998421D01*
X1799878Y999758D01*
X1799608Y1000342D01*
X1799419Y1000958D01*
X1798765Y1002166D01*
X1798188Y1003413D01*
X1797808Y1003933D01*
X1797502Y1004499D01*
X1796622Y1005554D01*
X1795811Y1006663D01*
X1795336Y1007098D01*
X1794924Y1007593D01*
X1793853Y1008454D01*
X1792840Y1009381D01*
X1792288Y1009713D01*
X1791786Y1010117D01*
X1790568Y1010749D01*
X1789391Y1011459D01*
X1788783Y1011677D01*
X1788213Y1011973D01*
X1786895Y1012353D01*
X1785599Y1012816D01*
X1784962Y1012909D01*
X1784343Y1013088D01*
X1782974Y1013200D01*
X1781615Y1013399D01*
X1780972Y1013365D01*
X1780330Y1013418D01*
X1778967Y1013258D01*
X1777594Y1013185D01*
X1776970Y1013024D01*
X1776330Y1012950D01*
X1775023Y1012524D01*
X1773694Y1012182D01*
X1773115Y1011902D01*
X1772502Y1011702D01*
X1771303Y1011027D01*
X1770068Y1010429D01*
X1769555Y1010041D01*
X1768994Y1009724D01*
X1767954Y1008827D01*
X1766859Y1007997D01*
X1766433Y1007513D01*
X1765946Y1007093D01*
X1765103Y1006009D01*
X1764193Y1004978D01*
X1763871Y1004421D01*
X1763476Y1003913D01*
X1762864Y1002683D01*
X1762175Y1001494D01*
X1761926Y1000799D01*
X1761682Y1000308D01*
X1761472Y999531D01*
X1761053Y998359D01*
X1759669Y993196D01*
X1756325Y987403D01*
X1751597Y982675D01*
X1745804Y979330D01*
X1739344Y977599D01*
X1695999Y977599D01*
X1695999Y1128318D01*
X1695982Y1128493D01*
X1695996Y1128668D01*
X1695783Y1130495D01*
X1695600Y1132325D01*
X1695549Y1132492D01*
X1695528Y1132668D01*
X1694957Y1134423D01*
X1694419Y1136174D01*
X1694336Y1136328D01*
X1694281Y1136496D01*
X1693374Y1138104D01*
X1692502Y1139716D01*
X1692389Y1139850D01*
X1692303Y1140004D01*
X1691103Y1141395D01*
X1689924Y1142809D01*
X1689786Y1142920D01*
X1689672Y1143052D01*
X1688227Y1144174D01*
X1686786Y1145333D01*
X1686629Y1145415D01*
X1686491Y1145522D01*
X1684850Y1146339D01*
X1683213Y1147189D01*
X1683043Y1147238D01*
X1682886Y1147316D01*
X1681118Y1147793D01*
X1680474Y1147978D01*
X1681785Y1148405D01*
X1683537Y1148943D01*
X1683691Y1149026D01*
X1683858Y1149081D01*
X1685466Y1149988D01*
X1687078Y1150860D01*
X1687213Y1150973D01*
X1687366Y1151059D01*
X1688757Y1152259D01*
X1690171Y1153438D01*
X1690282Y1153576D01*
X1690414Y1153690D01*
X1691533Y1155130D01*
X1692696Y1156576D01*
X1692777Y1156733D01*
X1692884Y1156871D01*
X1693701Y1158512D01*
X1694552Y1160149D01*
X1694600Y1160319D01*
X1694678Y1160476D01*
X1695155Y1162243D01*
X1695667Y1164019D01*
X1695681Y1164195D01*
X1695727Y1164364D01*
X1695999Y1167682D01*
X1695999Y1318400D01*
X1739344Y1318400D01*
X1745804Y1316669D01*
X1751597Y1313325D01*
X1756325Y1308597D01*
X1759669Y1302804D01*
X1761053Y1297640D01*
X1761538Y1296355D01*
X1761941Y1295042D01*
X1762247Y1294476D01*
X1762475Y1293873D01*
X1763206Y1292707D01*
X1763858Y1291501D01*
X1764270Y1291007D01*
X1764613Y1290460D01*
X1765556Y1289463D01*
X1766436Y1288407D01*
X1766939Y1288003D01*
X1767381Y1287536D01*
X1768501Y1286746D01*
X1769574Y1285883D01*
X1770146Y1285585D01*
X1770672Y1285215D01*
X1771928Y1284660D01*
X1773148Y1284027D01*
X1773766Y1283849D01*
X1774355Y1283588D01*
X1775697Y1283292D01*
X1777017Y1282912D01*
X1777659Y1282859D01*
X1778288Y1282720D01*
X1779663Y1282694D01*
X1781030Y1282582D01*
X1781668Y1282657D01*
X1782314Y1282645D01*
X1783667Y1282891D01*
X1785030Y1283050D01*
X1785642Y1283250D01*
X1786276Y1283365D01*
X1787551Y1283871D01*
X1788858Y1284298D01*
X1789421Y1284614D01*
X1790018Y1284852D01*
X1791168Y1285600D01*
X1792366Y1286276D01*
X1792853Y1286696D01*
X1793393Y1287048D01*
X1794376Y1288010D01*
X1795414Y1288907D01*
X1795809Y1289415D01*
X1796269Y1289866D01*
X1797042Y1291003D01*
X1797884Y1292087D01*
X1798171Y1292663D01*
X1798533Y1293196D01*
X1799068Y1294465D01*
X1799678Y1295692D01*
X1799846Y1296312D01*
X1800096Y1296908D01*
X1800370Y1298257D01*
X1800727Y1299580D01*
X1800787Y1300315D01*
X1800896Y1300854D01*
X1800898Y1301659D01*
X1800999Y1302898D01*
X1800999Y1336285D01*
X1812715Y1348000D01*
X1840562Y1348000D01*
X1840825Y1348027D01*
X1841087Y1348007D01*
X1842822Y1348225D01*
X1843775Y1348320D01*
X2094736Y1348320D01*
X2094954Y1348342D01*
X2095173Y1348325D01*
X2096956Y1348542D01*
X2098743Y1348719D01*
X2098953Y1348784D01*
X2099171Y1348810D01*
X2100872Y1349373D01*
X2102592Y1349901D01*
X2102786Y1350006D01*
X2102994Y1350074D01*
X2104550Y1350961D01*
X2106133Y1351818D01*
X2106303Y1351959D01*
X2106493Y1352068D01*
X2107845Y1353244D01*
X2109227Y1354396D01*
X2109364Y1354567D01*
X2109530Y1354711D01*
X2110624Y1356133D01*
X2111751Y1357533D01*
X2111853Y1357729D01*
X2111986Y1357903D01*
X2113508Y1360864D01*
X2114492Y1363239D01*
X2129260Y1378008D01*
X2148557Y1386000D01*
X2169443Y1386000D01*
X2188739Y1378008D01*
X2203508Y1363239D01*
X2211500Y1343943D01*
X2211500Y1323057D01*
X2203508Y1303760D01*
X2188739Y1288992D01*
X2168653Y1280672D01*
X2167931Y1280600D01*
X2167678Y1280523D01*
X2167417Y1280490D01*
X2165757Y1279933D01*
X2164081Y1279419D01*
X2163849Y1279293D01*
X2163599Y1279210D01*
X2162077Y1278334D01*
X2160540Y1277502D01*
X2160338Y1277333D01*
X2160109Y1277202D01*
X2157570Y1275048D01*
X2150202Y1267679D01*
X2030394Y1267679D01*
X2030264Y1267666D01*
X2030132Y1267678D01*
X2028252Y1267466D01*
X2026388Y1267280D01*
X2026262Y1267242D01*
X2026130Y1267227D01*
X2024330Y1266649D01*
X2022538Y1266099D01*
X2022422Y1266037D01*
X2022296Y1265996D01*
X2020646Y1265075D01*
X2018997Y1264182D01*
X2018895Y1264097D01*
X2018780Y1264033D01*
X2017350Y1262809D01*
X2015903Y1261604D01*
X2015820Y1261501D01*
X2015720Y1261415D01*
X2014558Y1259933D01*
X2013379Y1258466D01*
X2013318Y1258349D01*
X2013237Y1258245D01*
X2012389Y1256560D01*
X2011523Y1254893D01*
X2011486Y1254766D01*
X2011427Y1254648D01*
X2010929Y1252831D01*
X2010408Y1251023D01*
X2010397Y1250891D01*
X2010362Y1250764D01*
X2010233Y1248889D01*
X2010078Y1247010D01*
X2010093Y1246879D01*
X2010084Y1246747D01*
X2010326Y1244890D01*
X2010546Y1243010D01*
X2010587Y1242884D01*
X2010604Y1242754D01*
X2011622Y1239584D01*
X2021000Y1216943D01*
X2021000Y1196057D01*
X2014936Y1181416D01*
X2014897Y1181289D01*
X2014837Y1181172D01*
X2014317Y1179367D01*
X2013771Y1177561D01*
X2013758Y1177430D01*
X2013722Y1177303D01*
X2013567Y1175425D01*
X2013389Y1173553D01*
X2013403Y1173421D01*
X2013392Y1173290D01*
X2013612Y1171406D01*
X2013805Y1169547D01*
X2013844Y1169422D01*
X2013860Y1169290D01*
X2014448Y1167486D01*
X2015003Y1165703D01*
X2015066Y1165588D01*
X2015107Y1165461D01*
X2016035Y1163816D01*
X2016936Y1162170D01*
X2017020Y1162069D01*
X2017085Y1161954D01*
X2018317Y1160527D01*
X2019527Y1159088D01*
X2019630Y1159005D01*
X2019716Y1158905D01*
X2021198Y1157755D01*
X2022675Y1156577D01*
X2022793Y1156516D01*
X2022897Y1156435D01*
X2024572Y1155602D01*
X2026257Y1154736D01*
X2026384Y1154700D01*
X2026502Y1154641D01*
X2028321Y1154151D01*
X2030131Y1153638D01*
X2030262Y1153628D01*
X2030390Y1153593D01*
X2033708Y1153320D01*
X2156369Y1153320D01*
X2156632Y1153347D01*
X2156894Y1153327D01*
X2158629Y1153545D01*
X2160376Y1153719D01*
X2160628Y1153797D01*
X2160889Y1153830D01*
X2162549Y1154386D01*
X2164225Y1154901D01*
X2164457Y1155026D01*
X2164707Y1155110D01*
X2166229Y1155986D01*
X2167767Y1156818D01*
X2167968Y1156986D01*
X2168198Y1157118D01*
X2170737Y1159272D01*
X2179465Y1168000D01*
X2260156Y1168000D01*
X2260322Y1167943D01*
X2260784Y1167879D01*
X2261231Y1167746D01*
X2262777Y1167605D01*
X2264311Y1167394D01*
X2264775Y1167423D01*
X2265241Y1167380D01*
X2266787Y1167547D01*
X2268330Y1167643D01*
X2268780Y1167763D01*
X2269245Y1167813D01*
X2270724Y1168281D01*
X2272222Y1168679D01*
X2272697Y1168904D01*
X2273084Y1169027D01*
X2273846Y1169448D01*
X2275232Y1170102D01*
X2277946Y1171669D01*
X2284406Y1173400D01*
X2297429Y1173400D01*
X2297429Y1113003D01*
X2297429Y1113000D01*
X2297429Y1112997D01*
X2297429Y1052599D01*
X2284406Y1052599D01*
X2277946Y1054330D01*
X2275232Y1055898D01*
X2273815Y1056538D01*
X2272436Y1057238D01*
X2271988Y1057363D01*
X2271562Y1057556D01*
X2270049Y1057903D01*
X2268557Y1058319D01*
X2268091Y1058353D01*
X2267637Y1058457D01*
X2266090Y1058500D01*
X2264541Y1058613D01*
X2264078Y1058555D01*
X2263612Y1058568D01*
X2262085Y1058304D01*
X2260546Y1058110D01*
X2260217Y1057999D01*
X2179465Y1057999D01*
X2170737Y1066728D01*
X2170533Y1066894D01*
X2170361Y1067094D01*
X2168979Y1068167D01*
X2167621Y1069279D01*
X2167387Y1069403D01*
X2167180Y1069564D01*
X2165618Y1070342D01*
X2164064Y1071166D01*
X2163810Y1071241D01*
X2163575Y1071358D01*
X2161886Y1071814D01*
X2160204Y1072314D01*
X2159942Y1072338D01*
X2159687Y1072407D01*
X2156369Y1072679D01*
X2029140Y1072679D01*
X2028964Y1072662D01*
X2028790Y1072676D01*
X2026963Y1072463D01*
X2025133Y1072280D01*
X2024965Y1072229D01*
X2024790Y1072208D01*
X2023035Y1071637D01*
X2021283Y1071099D01*
X2021129Y1071016D01*
X2020961Y1070961D01*
X2019354Y1070054D01*
X2017742Y1069182D01*
X2017607Y1069069D01*
X2017454Y1068983D01*
X2016063Y1067783D01*
X2014648Y1066604D01*
X2014538Y1066466D01*
X2014405Y1066352D01*
X2013283Y1064907D01*
X2012124Y1063466D01*
X2012043Y1063309D01*
X2011935Y1063171D01*
X2011119Y1061530D01*
X2010268Y1059893D01*
X2010219Y1059723D01*
X2010141Y1059566D01*
X2009662Y1057787D01*
X2009153Y1056023D01*
X2009139Y1055847D01*
X2009093Y1055678D01*
X2008820Y1052360D01*
X2008820Y653452D01*
X2008842Y653234D01*
X2008825Y653014D01*
X2009042Y651225D01*
X2009219Y649445D01*
X2009284Y649235D01*
X2009310Y649017D01*
X2009873Y647314D01*
X2010401Y645596D01*
X2010506Y645402D01*
X2010574Y645194D01*
X2011462Y643635D01*
X2012318Y642054D01*
X2012459Y641886D01*
X2012568Y641695D01*
X2013745Y640343D01*
X2014896Y638961D01*
X2015068Y638823D01*
X2015212Y638658D01*
X2016633Y637563D01*
X2018033Y636437D01*
X2018228Y636335D01*
X2018403Y636201D01*
X2021364Y634679D01*
X2022994Y634004D01*
X2050054Y606944D01*
X2064700Y571585D01*
X2064700Y380915D01*
X2050054Y345556D01*
X2022994Y318496D01*
X1987635Y303849D01*
X1949365Y303849D01*
X1914006Y318496D01*
X1886946Y345556D01*
X1872299Y380915D01*
X1872299Y415610D01*
X1872282Y415785D01*
X1872296Y415960D01*
X1872083Y417787D01*
X1871900Y419617D01*
X1871849Y419784D01*
X1871828Y419960D01*
X1871257Y421715D01*
X1870719Y423467D01*
X1870636Y423621D01*
X1870581Y423788D01*
X1869674Y425396D01*
X1868802Y427008D01*
X1868689Y427143D01*
X1868603Y427296D01*
X1867403Y428687D01*
X1866224Y430101D01*
X1866086Y430212D01*
X1865972Y430344D01*
X1864527Y431467D01*
X1863086Y432626D01*
X1862929Y432707D01*
X1862791Y432814D01*
X1861150Y433631D01*
X1859513Y434482D01*
X1859343Y434530D01*
X1859186Y434608D01*
X1857418Y435085D01*
X1855643Y435597D01*
X1855467Y435611D01*
X1855298Y435657D01*
X1851980Y435929D01*
X1323020Y435929D01*
X1322844Y435912D01*
X1322670Y435926D01*
X1320843Y435713D01*
X1319013Y435530D01*
X1318845Y435479D01*
X1318670Y435458D01*
X1316915Y434887D01*
X1315163Y434349D01*
X1315009Y434266D01*
X1314841Y434211D01*
X1313234Y433304D01*
X1311622Y432432D01*
X1311487Y432319D01*
X1311334Y432233D01*
X1309943Y431033D01*
X1308528Y429854D01*
X1308418Y429716D01*
X1308285Y429602D01*
X1307163Y428157D01*
X1306004Y426716D01*
X1305923Y426559D01*
X1305815Y426421D01*
X1304999Y424780D01*
X1304148Y423143D01*
X1304099Y422973D01*
X1304021Y422816D01*
X1303545Y421048D01*
X1303033Y419273D01*
X1303019Y419097D01*
X1302973Y418928D01*
X1302700Y415610D01*
X1302700Y380915D01*
X1288054Y345556D01*
X1260994Y318496D01*
X1225635Y303849D01*
X1187365Y303849D01*
G37*
%LPD*%
%LPC*%
G36*
X1196057Y836499D02*
X1196057Y836499D01*
X1176760Y844492D01*
X1161992Y859260D01*
X1153999Y878557D01*
X1153999Y899443D01*
X1162319Y919528D01*
X1162779Y920090D01*
X1162903Y920324D01*
X1163064Y920532D01*
X1163842Y922094D01*
X1164666Y923648D01*
X1164741Y923901D01*
X1164858Y924137D01*
X1165314Y925826D01*
X1165814Y927508D01*
X1165838Y927770D01*
X1165907Y928025D01*
X1166179Y931343D01*
X1166179Y1096202D01*
X1194297Y1124319D01*
X1194380Y1124420D01*
X1194481Y1124506D01*
X1195653Y1125975D01*
X1196848Y1127434D01*
X1196910Y1127552D01*
X1196992Y1127654D01*
X1197845Y1129314D01*
X1198735Y1130992D01*
X1198772Y1131118D01*
X1198833Y1131236D01*
X1199347Y1133050D01*
X1199883Y1134851D01*
X1199895Y1134982D01*
X1199931Y1135110D01*
X1200077Y1136990D01*
X1200248Y1138862D01*
X1200233Y1138993D01*
X1200243Y1139124D01*
X1200017Y1140987D01*
X1199814Y1142865D01*
X1199774Y1142990D01*
X1199758Y1143122D01*
X1199166Y1144912D01*
X1198599Y1146704D01*
X1198536Y1146820D01*
X1198494Y1146945D01*
X1197564Y1148578D01*
X1196652Y1150229D01*
X1196566Y1150329D01*
X1196501Y1150444D01*
X1195262Y1151867D01*
X1194047Y1153300D01*
X1193943Y1153382D01*
X1193857Y1153481D01*
X1192370Y1154626D01*
X1190888Y1155797D01*
X1190770Y1155858D01*
X1190666Y1155938D01*
X1187704Y1157459D01*
X1176760Y1161993D01*
X1161992Y1176760D01*
X1153999Y1196057D01*
X1153999Y1216943D01*
X1161992Y1236239D01*
X1176760Y1251008D01*
X1177292Y1251228D01*
X1177369Y1251269D01*
X1177453Y1251295D01*
X1179155Y1252226D01*
X1180841Y1253130D01*
X1180908Y1253185D01*
X1180986Y1253228D01*
X1182468Y1254474D01*
X1183945Y1255694D01*
X1184001Y1255763D01*
X1184068Y1255820D01*
X1185264Y1257319D01*
X1186483Y1258821D01*
X1186524Y1258900D01*
X1186579Y1258968D01*
X1187450Y1260664D01*
X1188354Y1262386D01*
X1188379Y1262472D01*
X1188419Y1262550D01*
X1188940Y1264386D01*
X1189486Y1266251D01*
X1189494Y1266339D01*
X1189518Y1266424D01*
X1189666Y1268331D01*
X1189833Y1270263D01*
X1189823Y1270351D01*
X1189830Y1270439D01*
X1189597Y1272355D01*
X1189382Y1274264D01*
X1189355Y1274348D01*
X1189345Y1274436D01*
X1188734Y1276283D01*
X1188151Y1278098D01*
X1188108Y1278175D01*
X1188080Y1278259D01*
X1187128Y1279931D01*
X1186188Y1281614D01*
X1186130Y1281682D01*
X1186087Y1281758D01*
X1184846Y1283183D01*
X1183570Y1284674D01*
X1183500Y1284729D01*
X1183443Y1284795D01*
X1181930Y1285959D01*
X1180401Y1287158D01*
X1180321Y1287198D01*
X1180252Y1287251D01*
X1177290Y1288773D01*
X1176760Y1288993D01*
X1161992Y1303760D01*
X1153999Y1323057D01*
X1153999Y1343943D01*
X1161992Y1363239D01*
X1176760Y1378008D01*
X1196057Y1386000D01*
X1216943Y1386000D01*
X1236239Y1378008D01*
X1251007Y1363240D01*
X1251577Y1361864D01*
X1251681Y1361671D01*
X1251749Y1361461D01*
X1252630Y1359899D01*
X1253479Y1358315D01*
X1253619Y1358145D01*
X1253727Y1357954D01*
X1254898Y1356597D01*
X1256043Y1355210D01*
X1256214Y1355072D01*
X1256358Y1354905D01*
X1257777Y1353803D01*
X1259170Y1352673D01*
X1259364Y1352570D01*
X1259538Y1352435D01*
X1261143Y1351637D01*
X1262735Y1350801D01*
X1262947Y1350739D01*
X1263143Y1350641D01*
X1264874Y1350175D01*
X1266600Y1349669D01*
X1266819Y1349650D01*
X1267032Y1349593D01*
X1270350Y1349320D01*
X1467945Y1349320D01*
X1468120Y1349273D01*
X1471438Y1349000D01*
X1499285Y1349000D01*
X1511000Y1337285D01*
X1511000Y1302898D01*
X1511137Y1301531D01*
X1511186Y1300159D01*
X1511336Y1299533D01*
X1511399Y1298892D01*
X1511802Y1297578D01*
X1512122Y1296242D01*
X1512392Y1295658D01*
X1512581Y1295042D01*
X1513235Y1293833D01*
X1513811Y1292587D01*
X1514191Y1292067D01*
X1514498Y1291501D01*
X1515378Y1290445D01*
X1516188Y1289337D01*
X1516663Y1288902D01*
X1517076Y1288407D01*
X1518147Y1287545D01*
X1519160Y1286619D01*
X1519711Y1286287D01*
X1520213Y1285883D01*
X1521432Y1285250D01*
X1522609Y1284541D01*
X1523217Y1284323D01*
X1523787Y1284027D01*
X1525105Y1283647D01*
X1526400Y1283183D01*
X1527038Y1283090D01*
X1527657Y1282912D01*
X1529026Y1282799D01*
X1530385Y1282601D01*
X1531028Y1282635D01*
X1531670Y1282582D01*
X1533033Y1282742D01*
X1534406Y1282815D01*
X1535030Y1282975D01*
X1535669Y1283050D01*
X1536976Y1283476D01*
X1538306Y1283818D01*
X1538885Y1284098D01*
X1539498Y1284298D01*
X1540696Y1284973D01*
X1541932Y1285570D01*
X1542444Y1285959D01*
X1543006Y1286276D01*
X1544045Y1287173D01*
X1545140Y1288003D01*
X1545567Y1288486D01*
X1546054Y1288907D01*
X1546896Y1289991D01*
X1547806Y1291021D01*
X1548129Y1291579D01*
X1548524Y1292087D01*
X1549136Y1293317D01*
X1549825Y1294506D01*
X1550073Y1295201D01*
X1550318Y1295692D01*
X1550528Y1296469D01*
X1550947Y1297640D01*
X1552330Y1302804D01*
X1555675Y1308597D01*
X1560403Y1313325D01*
X1566195Y1316669D01*
X1572656Y1318400D01*
X1616000Y1318400D01*
X1616000Y1167682D01*
X1616018Y1167507D01*
X1616003Y1167332D01*
X1616217Y1165505D01*
X1616399Y1163675D01*
X1616450Y1163508D01*
X1616471Y1163332D01*
X1617043Y1161577D01*
X1617580Y1159825D01*
X1617664Y1159671D01*
X1617718Y1159503D01*
X1618625Y1157896D01*
X1619498Y1156284D01*
X1619610Y1156149D01*
X1619697Y1155996D01*
X1620897Y1154605D01*
X1622076Y1153191D01*
X1622213Y1153080D01*
X1622328Y1152948D01*
X1623773Y1151825D01*
X1625213Y1150666D01*
X1625370Y1150585D01*
X1625508Y1150478D01*
X1627149Y1149661D01*
X1628787Y1148810D01*
X1628956Y1148762D01*
X1629113Y1148683D01*
X1630881Y1148207D01*
X1631525Y1148021D01*
X1630215Y1147594D01*
X1628463Y1147057D01*
X1628309Y1146973D01*
X1628141Y1146919D01*
X1626533Y1146012D01*
X1624922Y1145139D01*
X1624787Y1145027D01*
X1624633Y1144941D01*
X1623243Y1143740D01*
X1621828Y1142562D01*
X1621718Y1142424D01*
X1621585Y1142310D01*
X1620463Y1140865D01*
X1619304Y1139424D01*
X1619222Y1139267D01*
X1619115Y1139129D01*
X1618298Y1137488D01*
X1617448Y1135850D01*
X1617399Y1135681D01*
X1617321Y1135524D01*
X1616844Y1133756D01*
X1616333Y1131981D01*
X1616318Y1131805D01*
X1616273Y1131636D01*
X1616000Y1128318D01*
X1616000Y977599D01*
X1572656Y977599D01*
X1566195Y979330D01*
X1560403Y982675D01*
X1555675Y987403D01*
X1552330Y993196D01*
X1550947Y998359D01*
X1550462Y999645D01*
X1550059Y1000958D01*
X1549753Y1001523D01*
X1549525Y1002127D01*
X1548794Y1003293D01*
X1548141Y1004499D01*
X1547729Y1004993D01*
X1547387Y1005540D01*
X1546443Y1006537D01*
X1545563Y1007593D01*
X1545061Y1007997D01*
X1544619Y1008464D01*
X1543499Y1009254D01*
X1542426Y1010117D01*
X1541853Y1010414D01*
X1541328Y1010785D01*
X1540072Y1011339D01*
X1538852Y1011973D01*
X1538234Y1012151D01*
X1537644Y1012411D01*
X1536303Y1012708D01*
X1534983Y1013088D01*
X1534341Y1013141D01*
X1533712Y1013279D01*
X1532337Y1013305D01*
X1530970Y1013418D01*
X1530332Y1013343D01*
X1529686Y1013355D01*
X1528333Y1013109D01*
X1526970Y1012950D01*
X1526358Y1012750D01*
X1525724Y1012635D01*
X1524449Y1012128D01*
X1523141Y1011702D01*
X1522579Y1011385D01*
X1521982Y1011148D01*
X1520831Y1010399D01*
X1519634Y1009724D01*
X1519147Y1009304D01*
X1518606Y1008952D01*
X1517624Y1007989D01*
X1516585Y1007093D01*
X1516191Y1006585D01*
X1515730Y1006134D01*
X1514958Y1004997D01*
X1514115Y1003913D01*
X1513829Y1003337D01*
X1513466Y1002803D01*
X1512932Y1001535D01*
X1512321Y1000308D01*
X1512154Y999688D01*
X1511903Y999092D01*
X1511630Y997743D01*
X1511273Y996419D01*
X1511213Y995685D01*
X1511103Y995146D01*
X1511102Y994340D01*
X1511000Y993101D01*
X1511000Y955715D01*
X1499285Y943999D01*
X1471438Y943999D01*
X1471175Y943973D01*
X1470913Y943993D01*
X1469178Y943774D01*
X1468225Y943679D01*
X1316798Y943679D01*
X1293179Y967298D01*
X1293179Y973657D01*
X1293153Y973920D01*
X1293173Y974182D01*
X1292954Y975917D01*
X1292780Y977664D01*
X1292703Y977916D01*
X1292670Y978178D01*
X1292113Y979838D01*
X1291599Y981513D01*
X1291473Y981745D01*
X1291390Y981995D01*
X1290514Y983518D01*
X1289682Y985055D01*
X1289513Y985257D01*
X1289382Y985486D01*
X1289248Y985643D01*
X1285913Y993696D01*
X1285892Y993735D01*
X1285879Y993777D01*
X1284940Y995511D01*
X1284010Y997246D01*
X1283982Y997279D01*
X1283961Y997318D01*
X1282690Y998844D01*
X1281446Y1000350D01*
X1281412Y1000378D01*
X1281383Y1000412D01*
X1279839Y1001654D01*
X1278319Y1002888D01*
X1278280Y1002909D01*
X1278246Y1002936D01*
X1276496Y1003845D01*
X1274754Y1004759D01*
X1274712Y1004772D01*
X1274672Y1004792D01*
X1272756Y1005344D01*
X1270889Y1005891D01*
X1270846Y1005895D01*
X1270803Y1005907D01*
X1268843Y1006068D01*
X1266878Y1006238D01*
X1266833Y1006233D01*
X1266790Y1006237D01*
X1264839Y1006009D01*
X1262876Y1005788D01*
X1262835Y1005774D01*
X1262790Y1005769D01*
X1260872Y1005144D01*
X1259042Y1004557D01*
X1259004Y1004536D01*
X1258961Y1004522D01*
X1257223Y1003542D01*
X1255526Y1002594D01*
X1255492Y1002565D01*
X1255454Y1002543D01*
X1253955Y1001250D01*
X1252466Y999976D01*
X1252439Y999942D01*
X1252405Y999913D01*
X1251198Y998357D01*
X1249982Y996806D01*
X1249962Y996767D01*
X1249935Y996732D01*
X1249046Y994944D01*
X1248173Y993209D01*
X1248161Y993166D01*
X1248141Y993127D01*
X1247638Y991262D01*
X1247108Y989326D01*
X1247104Y989281D01*
X1247093Y989239D01*
X1246820Y985921D01*
X1246820Y931343D01*
X1246847Y931080D01*
X1246827Y930818D01*
X1247045Y929083D01*
X1247219Y927336D01*
X1247297Y927083D01*
X1247330Y926822D01*
X1247886Y925162D01*
X1248401Y923486D01*
X1248526Y923254D01*
X1248610Y923004D01*
X1249486Y921482D01*
X1250318Y919945D01*
X1250486Y919743D01*
X1250618Y919514D01*
X1250752Y919356D01*
X1259000Y899443D01*
X1259000Y878557D01*
X1251008Y859260D01*
X1236239Y844492D01*
X1216943Y836499D01*
X1196057Y836499D01*
G37*
%LPD*%
%LPC*%
G36*
X933365Y303849D02*
X933365Y303849D01*
X898006Y318496D01*
X870946Y345556D01*
X856299Y380915D01*
X856299Y571585D01*
X870946Y606944D01*
X898006Y634004D01*
X899636Y634679D01*
X899829Y634783D01*
X900038Y634851D01*
X901607Y635736D01*
X903185Y636582D01*
X903354Y636721D01*
X903546Y636829D01*
X904908Y638005D01*
X906290Y639146D01*
X906428Y639317D01*
X906594Y639460D01*
X907692Y640873D01*
X908828Y642273D01*
X908930Y642468D01*
X909064Y642641D01*
X909862Y644244D01*
X910699Y645838D01*
X910761Y646049D01*
X910858Y646246D01*
X911326Y647980D01*
X911830Y649703D01*
X911849Y649922D01*
X911907Y650134D01*
X912179Y653452D01*
X912179Y880480D01*
X912162Y880655D01*
X912176Y880830D01*
X911963Y882657D01*
X911780Y884487D01*
X911729Y884654D01*
X911708Y884830D01*
X911137Y886585D01*
X910599Y888337D01*
X910516Y888491D01*
X910461Y888658D01*
X909554Y890266D01*
X908682Y891878D01*
X908569Y892013D01*
X908483Y892166D01*
X907283Y893556D01*
X906104Y894971D01*
X905966Y895082D01*
X905852Y895214D01*
X904407Y896337D01*
X902966Y897496D01*
X902809Y897577D01*
X902671Y897684D01*
X901030Y898501D01*
X899393Y899352D01*
X899223Y899400D01*
X899066Y899478D01*
X897298Y899955D01*
X895523Y900467D01*
X895347Y900481D01*
X895178Y900527D01*
X891860Y900799D01*
X854065Y900799D01*
X842349Y912515D01*
X842349Y1089085D01*
X854065Y1100800D01*
X1050935Y1100800D01*
X1062650Y1089085D01*
X1062650Y912515D01*
X1050935Y900799D01*
X1013140Y900799D01*
X1012964Y900782D01*
X1012790Y900796D01*
X1010963Y900583D01*
X1009133Y900400D01*
X1008965Y900349D01*
X1008790Y900328D01*
X1007035Y899757D01*
X1005283Y899219D01*
X1005129Y899136D01*
X1004961Y899081D01*
X1003354Y898174D01*
X1001742Y897302D01*
X1001607Y897189D01*
X1001454Y897103D01*
X1000063Y895903D01*
X998648Y894724D01*
X998538Y894586D01*
X998405Y894472D01*
X997283Y893027D01*
X996124Y891586D01*
X996043Y891429D01*
X995935Y891291D01*
X995119Y889650D01*
X994268Y888013D01*
X994219Y887843D01*
X994141Y887686D01*
X993665Y885918D01*
X993153Y884143D01*
X993139Y883967D01*
X993093Y883798D01*
X992820Y880480D01*
X992820Y653452D01*
X992842Y653234D01*
X992825Y653014D01*
X993042Y651225D01*
X993219Y649445D01*
X993284Y649235D01*
X993310Y649017D01*
X993873Y647314D01*
X994401Y645596D01*
X994506Y645402D01*
X994574Y645194D01*
X995462Y643635D01*
X996318Y642054D01*
X996459Y641886D01*
X996568Y641695D01*
X997745Y640343D01*
X998896Y638961D01*
X999068Y638823D01*
X999212Y638658D01*
X1000633Y637563D01*
X1002033Y636437D01*
X1002228Y636335D01*
X1002403Y636201D01*
X1005364Y634679D01*
X1006994Y634004D01*
X1034054Y606944D01*
X1048700Y571585D01*
X1048700Y380915D01*
X1034054Y345556D01*
X1006994Y318496D01*
X971635Y303849D01*
X933365Y303849D01*
G37*
%LPD*%
%LPC*%
G36*
X2647865Y1732599D02*
X2647865Y1732599D01*
X2612506Y1747246D01*
X2585446Y1774306D01*
X2570799Y1809665D01*
X2570799Y2000336D01*
X2575356Y2011337D01*
X2575401Y2011484D01*
X2575472Y2011621D01*
X2575982Y2013408D01*
X2576521Y2015191D01*
X2576536Y2015345D01*
X2576578Y2015493D01*
X2576727Y2017351D01*
X2576903Y2019200D01*
X2576887Y2019352D01*
X2576899Y2019507D01*
X2576678Y2021364D01*
X2576487Y2023205D01*
X2576441Y2023352D01*
X2576423Y2023505D01*
X2575841Y2025278D01*
X2575289Y2027050D01*
X2575215Y2027184D01*
X2575167Y2027331D01*
X2574255Y2028940D01*
X2573356Y2030583D01*
X2573257Y2030701D01*
X2573181Y2030835D01*
X2571961Y2032242D01*
X2570765Y2033665D01*
X2570645Y2033761D01*
X2570543Y2033878D01*
X2569070Y2035017D01*
X2567617Y2036176D01*
X2567480Y2036246D01*
X2567358Y2036340D01*
X2565696Y2037163D01*
X2564035Y2038016D01*
X2563886Y2038058D01*
X2563749Y2038127D01*
X2560548Y2039042D01*
X2556611Y2039824D01*
X2546074Y2044189D01*
X2536589Y2050527D01*
X2528487Y2058629D01*
X2528423Y2058745D01*
X2522190Y2068073D01*
X2519246Y2075179D01*
X2573497Y2075179D01*
X2573672Y2075196D01*
X2573847Y2075182D01*
X2575674Y2075396D01*
X2577503Y2075578D01*
X2577671Y2075629D01*
X2577846Y2075650D01*
X2579601Y2076222D01*
X2581353Y2076759D01*
X2581507Y2076843D01*
X2581675Y2076897D01*
X2583283Y2077804D01*
X2584894Y2078677D01*
X2585029Y2078789D01*
X2585183Y2078875D01*
X2586573Y2080076D01*
X2587988Y2081254D01*
X2587990Y2081258D01*
X2587993Y2081259D01*
X2588101Y2081394D01*
X2588231Y2081506D01*
X2588233Y2081509D01*
X2588236Y2081511D01*
X2589358Y2082956D01*
X2590517Y2084397D01*
X2590598Y2084554D01*
X2590706Y2084692D01*
X2591522Y2086333D01*
X2592373Y2087971D01*
X2592422Y2088140D01*
X2592500Y2088297D01*
X2592976Y2090065D01*
X2593488Y2091840D01*
X2593502Y2092016D01*
X2593548Y2092185D01*
X2593821Y2095503D01*
X2593821Y2149754D01*
X2600926Y2146811D01*
X2610411Y2140473D01*
X2618473Y2132411D01*
X2624811Y2122926D01*
X2629175Y2112389D01*
X2631400Y2101202D01*
X2631400Y2097720D01*
X2631406Y2097661D01*
X2631403Y2097627D01*
X2631416Y2097521D01*
X2631403Y2097370D01*
X2631617Y2095543D01*
X2631799Y2093713D01*
X2631851Y2093545D01*
X2631871Y2093370D01*
X2632443Y2091615D01*
X2632981Y2089863D01*
X2633064Y2089709D01*
X2633119Y2089541D01*
X2634025Y2087934D01*
X2634898Y2086322D01*
X2635010Y2086187D01*
X2635097Y2086034D01*
X2636297Y2084643D01*
X2637476Y2083228D01*
X2637613Y2083118D01*
X2637728Y2082985D01*
X2639173Y2081863D01*
X2640613Y2080704D01*
X2640770Y2080623D01*
X2640908Y2080515D01*
X2642549Y2079699D01*
X2644187Y2078848D01*
X2644357Y2078799D01*
X2644513Y2078721D01*
X2646281Y2078245D01*
X2648057Y2077733D01*
X2648233Y2077719D01*
X2648402Y2077673D01*
X2651720Y2077400D01*
X2686135Y2077400D01*
X2721494Y2062754D01*
X2748554Y2035694D01*
X2763200Y2000335D01*
X2763200Y1809665D01*
X2748554Y1774306D01*
X2721494Y1747246D01*
X2686135Y1732599D01*
X2647865Y1732599D01*
G37*
%LPD*%
%LPC*%
G36*
X210821Y1163321D02*
X210821Y1163321D01*
X210821Y1204622D01*
X212002Y1205632D01*
X213465Y1206856D01*
X213535Y1206943D01*
X213620Y1207017D01*
X214792Y1208512D01*
X215983Y1209998D01*
X216035Y1210099D01*
X216104Y1210187D01*
X216957Y1211882D01*
X217832Y1213575D01*
X217863Y1213683D01*
X217914Y1213784D01*
X218419Y1215627D01*
X218940Y1217447D01*
X218949Y1217558D01*
X218978Y1217667D01*
X219110Y1219564D01*
X219262Y1221461D01*
X219248Y1221573D01*
X219256Y1221684D01*
X219011Y1223567D01*
X218786Y1225460D01*
X218752Y1225565D01*
X218737Y1225678D01*
X217719Y1228848D01*
X208599Y1250865D01*
X208599Y1289135D01*
X223246Y1324494D01*
X250306Y1351554D01*
X285665Y1366200D01*
X476335Y1366200D01*
X511694Y1351554D01*
X538754Y1324494D01*
X553400Y1289135D01*
X553400Y1250865D01*
X538754Y1215506D01*
X511694Y1188446D01*
X476335Y1173799D01*
X285665Y1173799D01*
X274735Y1178327D01*
X274629Y1178359D01*
X274532Y1178409D01*
X272708Y1178939D01*
X270880Y1179491D01*
X270771Y1179502D01*
X270665Y1179533D01*
X268753Y1179694D01*
X266872Y1179873D01*
X266763Y1179862D01*
X266652Y1179871D01*
X264745Y1179652D01*
X262866Y1179457D01*
X262761Y1179424D01*
X262652Y1179411D01*
X260841Y1178826D01*
X259022Y1178259D01*
X258925Y1178206D01*
X258820Y1178172D01*
X257162Y1177242D01*
X255489Y1176326D01*
X255404Y1176255D01*
X255308Y1176201D01*
X253869Y1174964D01*
X252407Y1173735D01*
X252338Y1173649D01*
X252254Y1173577D01*
X251078Y1172068D01*
X249896Y1170587D01*
X249846Y1170489D01*
X249778Y1170402D01*
X248916Y1168679D01*
X248055Y1167005D01*
X248025Y1166899D01*
X247976Y1166800D01*
X247480Y1164976D01*
X247011Y1163321D01*
X210821Y1163321D01*
G37*
%LPD*%
%LPC*%
G36*
X3054981Y1163321D02*
X3054981Y1163321D01*
X3054953Y1163603D01*
X3054920Y1163709D01*
X3054908Y1163818D01*
X3054328Y1165622D01*
X3053763Y1167451D01*
X3053710Y1167548D01*
X3053676Y1167653D01*
X3052754Y1169305D01*
X3051838Y1170988D01*
X3051767Y1171073D01*
X3051713Y1171168D01*
X3050483Y1172607D01*
X3049253Y1174076D01*
X3049168Y1174145D01*
X3049096Y1174228D01*
X3047610Y1175392D01*
X3046111Y1176593D01*
X3046013Y1176644D01*
X3045926Y1176712D01*
X3044223Y1177569D01*
X3042533Y1178442D01*
X3042428Y1178472D01*
X3042328Y1178522D01*
X3040480Y1179028D01*
X3038661Y1179548D01*
X3038552Y1179557D01*
X3038445Y1179586D01*
X3036546Y1179718D01*
X3034647Y1179870D01*
X3034537Y1179857D01*
X3034428Y1179864D01*
X3032553Y1179620D01*
X3030649Y1179393D01*
X3030543Y1179358D01*
X3030434Y1179344D01*
X3027264Y1178327D01*
X3016335Y1173799D01*
X2825665Y1173799D01*
X2790306Y1188446D01*
X2763246Y1215506D01*
X2748599Y1250865D01*
X2748599Y1289135D01*
X2763246Y1324494D01*
X2790306Y1351554D01*
X2825665Y1366200D01*
X3016335Y1366200D01*
X3051694Y1351554D01*
X3078754Y1324494D01*
X3093400Y1289135D01*
X3093400Y1250864D01*
X3084281Y1228848D01*
X3084249Y1228742D01*
X3084197Y1228642D01*
X3083665Y1226811D01*
X3083116Y1224993D01*
X3083105Y1224882D01*
X3083074Y1224775D01*
X3082915Y1222884D01*
X3082734Y1220985D01*
X3082746Y1220874D01*
X3082736Y1220763D01*
X3082954Y1218872D01*
X3083150Y1216979D01*
X3083183Y1216873D01*
X3083196Y1216762D01*
X3083784Y1214947D01*
X3084348Y1213135D01*
X3084402Y1213037D01*
X3084436Y1212931D01*
X3085368Y1211271D01*
X3086281Y1209602D01*
X3086353Y1209516D01*
X3086407Y1209419D01*
X3087649Y1207974D01*
X3088872Y1206520D01*
X3088959Y1206450D01*
X3089032Y1206365D01*
X3090533Y1205195D01*
X3091179Y1204680D01*
X3091179Y1163321D01*
X3054981Y1163321D01*
G37*
%LPD*%
%LPC*%
G36*
X2393865Y1732599D02*
X2393865Y1732599D01*
X2358506Y1747246D01*
X2331446Y1774306D01*
X2316799Y1809665D01*
X2316799Y2000335D01*
X2331446Y2035694D01*
X2358506Y2062754D01*
X2393865Y2077400D01*
X2432135Y2077400D01*
X2467493Y2062754D01*
X2494555Y2035693D01*
X2509200Y2000336D01*
X2509200Y1809665D01*
X2494554Y1774306D01*
X2467494Y1747246D01*
X2432135Y1732599D01*
X2393865Y1732599D01*
G37*
%LPD*%
%LPC*%
G36*
X3084074Y1917189D02*
X3084074Y1917189D01*
X3074589Y1923527D01*
X3066526Y1931590D01*
X3059815Y1941634D01*
X3059773Y1941685D01*
X3059741Y1941743D01*
X3058485Y1943251D01*
X3057257Y1944744D01*
X3057206Y1944786D01*
X3057163Y1944837D01*
X3055635Y1946067D01*
X3054136Y1947289D01*
X3054078Y1947319D01*
X3054026Y1947361D01*
X3052297Y1948259D01*
X3050574Y1949168D01*
X3050510Y1949187D01*
X3050452Y1949217D01*
X3048577Y1949758D01*
X3046712Y1950308D01*
X3046648Y1950313D01*
X3046583Y1950332D01*
X3044626Y1950493D01*
X3042701Y1950664D01*
X3042635Y1950657D01*
X3042570Y1950662D01*
X3040642Y1950437D01*
X3038699Y1950222D01*
X3038636Y1950202D01*
X3038570Y1950194D01*
X3036714Y1949589D01*
X3034862Y1948999D01*
X3034804Y1948967D01*
X3034741Y1948947D01*
X3033042Y1947988D01*
X3031342Y1947044D01*
X3031291Y1947001D01*
X3031234Y1946968D01*
X3029754Y1945692D01*
X3028276Y1944433D01*
X3028236Y1944381D01*
X3028185Y1944338D01*
X3026990Y1942799D01*
X3025786Y1941268D01*
X3025756Y1941209D01*
X3025715Y1941157D01*
X3024854Y1939426D01*
X3023968Y1937675D01*
X3023950Y1937610D01*
X3023921Y1937552D01*
X3023421Y1935695D01*
X3022895Y1933794D01*
X3022890Y1933727D01*
X3022873Y1933664D01*
X3022605Y1930399D01*
X2926082Y1930399D01*
X2925907Y1930382D01*
X2925732Y1930396D01*
X2923905Y1930183D01*
X2922075Y1930000D01*
X2921908Y1929949D01*
X2921732Y1929928D01*
X2920948Y1929673D01*
X2919581Y1930067D01*
X2919405Y1930081D01*
X2919236Y1930127D01*
X2915918Y1930399D01*
X2819399Y1930399D01*
X2819399Y1989197D01*
X2821901Y2004991D01*
X2826843Y2020201D01*
X2834103Y2034450D01*
X2843504Y2047389D01*
X2854810Y2058695D01*
X2867749Y2068096D01*
X2881999Y2075357D01*
X2897208Y2080298D01*
X2909458Y2082238D01*
X2910037Y2082390D01*
X2910630Y2082459D01*
X2911980Y2082899D01*
X2913354Y2083259D01*
X2913890Y2083522D01*
X2914458Y2083707D01*
X2915696Y2084405D01*
X2916971Y2085028D01*
X2917446Y2085392D01*
X2917966Y2085685D01*
X2919042Y2086613D01*
X2920169Y2087476D01*
X2920562Y2087926D01*
X2921014Y2088316D01*
X2921885Y2089437D01*
X2922821Y2090506D01*
X2923118Y2091026D01*
X2923484Y2091497D01*
X2924116Y2092766D01*
X2924823Y2094000D01*
X2925013Y2094568D01*
X2925278Y2095102D01*
X2925648Y2096471D01*
X2926098Y2097820D01*
X2926171Y2098413D01*
X2926327Y2098990D01*
X2926444Y2100423D01*
X2928824Y2112389D01*
X2933189Y2122926D01*
X2939527Y2132411D01*
X2947589Y2140473D01*
X2957074Y2146811D01*
X2964179Y2149753D01*
X2964179Y2095503D01*
X2964196Y2095328D01*
X2964182Y2095153D01*
X2964396Y2093326D01*
X2964578Y2091496D01*
X2964629Y2091329D01*
X2964650Y2091153D01*
X2965222Y2089398D01*
X2965759Y2087647D01*
X2965843Y2087493D01*
X2965897Y2087325D01*
X2966804Y2085717D01*
X2967677Y2084105D01*
X2967789Y2083971D01*
X2967875Y2083817D01*
X2969076Y2082426D01*
X2970254Y2081012D01*
X2970257Y2081010D01*
X2970259Y2081007D01*
X2970395Y2080898D01*
X2970506Y2080769D01*
X2970508Y2080767D01*
X2970511Y2080764D01*
X2971956Y2079642D01*
X2973397Y2078483D01*
X2973554Y2078401D01*
X2973692Y2078294D01*
X2975333Y2077477D01*
X2976971Y2076627D01*
X2977140Y2076578D01*
X2977297Y2076500D01*
X2979065Y2076023D01*
X2980840Y2075512D01*
X2981016Y2075497D01*
X2981185Y2075452D01*
X2984503Y2075179D01*
X3038753Y2075179D01*
X3035811Y2068074D01*
X3029473Y2058589D01*
X3021411Y2050527D01*
X3020232Y2049739D01*
X3019462Y2049106D01*
X3018632Y2048553D01*
X3017910Y2047830D01*
X3017122Y2047181D01*
X3016491Y2046408D01*
X3015787Y2045703D01*
X3015223Y2044853D01*
X3014577Y2044060D01*
X3014111Y2043177D01*
X3013560Y2042348D01*
X3013175Y2041404D01*
X3012698Y2040499D01*
X3012415Y2039543D01*
X3012038Y2038620D01*
X3011847Y2037616D01*
X3011558Y2036637D01*
X3011469Y2035643D01*
X3011282Y2034664D01*
X3011292Y2033643D01*
X3011202Y2032626D01*
X3011311Y2031636D01*
X3011320Y2030638D01*
X3011532Y2029637D01*
X3011643Y2028623D01*
X3011946Y2027674D01*
X3012152Y2026698D01*
X3012623Y2025551D01*
X3012866Y2024787D01*
X3013134Y2024305D01*
X3013416Y2023617D01*
X3015157Y2020200D01*
X3020098Y2004992D01*
X3020956Y1999578D01*
X3021074Y1999127D01*
X3021122Y1998663D01*
X3021583Y1997183D01*
X3021977Y1995683D01*
X3022182Y1995264D01*
X3022320Y1994819D01*
X3023064Y1993459D01*
X3023746Y1992066D01*
X3024029Y1991695D01*
X3024253Y1991286D01*
X3025252Y1990099D01*
X3026193Y1988868D01*
X3026544Y1988561D01*
X3026845Y1988204D01*
X3028057Y1987237D01*
X3029223Y1986216D01*
X3029628Y1985984D01*
X3029993Y1985693D01*
X3031371Y1984985D01*
X3032717Y1984213D01*
X3033161Y1984066D01*
X3033575Y1983853D01*
X3035065Y1983430D01*
X3036537Y1982939D01*
X3037000Y1982882D01*
X3037449Y1982755D01*
X3038996Y1982634D01*
X3040533Y1982443D01*
X3040998Y1982478D01*
X3041463Y1982442D01*
X3043003Y1982629D01*
X3044549Y1982745D01*
X3044998Y1982871D01*
X3045461Y1982928D01*
X3046932Y1983414D01*
X3048426Y1983833D01*
X3048842Y1984046D01*
X3049284Y1984192D01*
X3050631Y1984959D01*
X3052013Y1985664D01*
X3052378Y1985954D01*
X3052783Y1986185D01*
X3053955Y1987205D01*
X3055167Y1988167D01*
X3055468Y1988523D01*
X3055820Y1988829D01*
X3056766Y1990058D01*
X3057767Y1991242D01*
X3057992Y1991652D01*
X3058276Y1992021D01*
X3059413Y1994232D01*
X3059709Y1994770D01*
X3059740Y1994868D01*
X3059798Y1994982D01*
X3060189Y1995926D01*
X3066527Y2005411D01*
X3074589Y2013473D01*
X3084074Y2019811D01*
X3091179Y2022753D01*
X3091179Y1968503D01*
X3091179Y1968500D01*
X3091179Y1968497D01*
X3091179Y1914246D01*
X3084074Y1917189D01*
G37*
%LPD*%
%LPC*%
G36*
X2946399Y1041399D02*
X2946399Y1041399D01*
X2946399Y1117600D01*
X3005197Y1117600D01*
X3020991Y1115099D01*
X3027602Y1112951D01*
X3028901Y1112667D01*
X3030176Y1112297D01*
X3030863Y1112239D01*
X3031537Y1112092D01*
X3032865Y1112070D01*
X3034189Y1111958D01*
X3034874Y1112037D01*
X3035563Y1112026D01*
X3036868Y1112266D01*
X3038189Y1112418D01*
X3038846Y1112631D01*
X3039523Y1112755D01*
X3040756Y1113248D01*
X3042021Y1113658D01*
X3042622Y1113995D01*
X3043262Y1114251D01*
X3044372Y1114978D01*
X3045532Y1115628D01*
X3046055Y1116078D01*
X3046632Y1116455D01*
X3047578Y1117387D01*
X3048586Y1118253D01*
X3049011Y1118797D01*
X3049501Y1119280D01*
X3050244Y1120379D01*
X3051063Y1121428D01*
X3051372Y1122046D01*
X3051757Y1122616D01*
X3051783Y1122679D01*
X3091179Y1122679D01*
X3091179Y1074186D01*
X3090808Y1073276D01*
X3090307Y1072313D01*
X3090049Y1071418D01*
X3089697Y1070555D01*
X3089493Y1069488D01*
X3089192Y1068443D01*
X3089116Y1067514D01*
X3088941Y1066599D01*
X3088951Y1065512D01*
X3088863Y1064430D01*
X3088971Y1063505D01*
X3088980Y1062573D01*
X3089204Y1061511D01*
X3089330Y1060430D01*
X3089619Y1059543D01*
X3089812Y1058633D01*
X3090319Y1057396D01*
X3090578Y1056602D01*
X3090824Y1056165D01*
X3091075Y1055553D01*
X3091357Y1054999D01*
X3095776Y1041399D01*
X2946399Y1041399D01*
G37*
%LPD*%
%LPC*%
G36*
X206224Y1041399D02*
X206224Y1041399D01*
X210643Y1054999D01*
X210924Y1055553D01*
X211263Y1056422D01*
X211693Y1057248D01*
X211993Y1058291D01*
X212388Y1059304D01*
X212549Y1060221D01*
X212808Y1061117D01*
X212897Y1062201D01*
X213084Y1063270D01*
X213061Y1064201D01*
X213137Y1065130D01*
X213011Y1066208D01*
X212984Y1067296D01*
X212778Y1068204D01*
X212669Y1069130D01*
X212333Y1070164D01*
X212092Y1071223D01*
X211711Y1072072D01*
X211422Y1072958D01*
X210888Y1073905D01*
X210821Y1074055D01*
X210821Y1122679D01*
X250277Y1122679D01*
X250586Y1122006D01*
X250991Y1121448D01*
X251321Y1120843D01*
X252173Y1119824D01*
X252955Y1118750D01*
X253463Y1118283D01*
X253905Y1117755D01*
X254943Y1116924D01*
X255921Y1116025D01*
X256510Y1115668D01*
X257048Y1115237D01*
X258229Y1114627D01*
X259365Y1113939D01*
X260013Y1113705D01*
X260625Y1113388D01*
X261904Y1113023D01*
X263153Y1112573D01*
X263834Y1112471D01*
X264497Y1112282D01*
X265822Y1112175D01*
X267136Y1111980D01*
X267824Y1112015D01*
X268511Y1111960D01*
X269831Y1112117D01*
X271157Y1112185D01*
X271929Y1112367D01*
X272510Y1112436D01*
X273252Y1112680D01*
X274398Y1112951D01*
X281009Y1115099D01*
X296803Y1117600D01*
X355600Y1117600D01*
X355600Y1041399D01*
X206224Y1041399D01*
G37*
%LPD*%
%LPC*%
G36*
X2247899Y501649D02*
X2247899Y501649D01*
X2247899Y651026D01*
X2261501Y646607D01*
X2275750Y639346D01*
X2288689Y629945D01*
X2299995Y618639D01*
X2309396Y605700D01*
X2316657Y591451D01*
X2321599Y576241D01*
X2324100Y560447D01*
X2324100Y501649D01*
X2247899Y501649D01*
G37*
%LPD*%
%LPC*%
G36*
X723899Y501649D02*
X723899Y501649D01*
X723899Y651026D01*
X737501Y646607D01*
X751750Y639346D01*
X764689Y629945D01*
X775995Y618639D01*
X785396Y605700D01*
X792657Y591451D01*
X797599Y576241D01*
X800100Y560447D01*
X800100Y501649D01*
X723899Y501649D01*
G37*
%LPD*%
%LPC*%
G36*
X406399Y1041399D02*
X406399Y1041399D01*
X406399Y1117600D01*
X465197Y1117600D01*
X480991Y1115099D01*
X496201Y1110157D01*
X510450Y1102896D01*
X523390Y1093495D01*
X534695Y1082189D01*
X544096Y1069250D01*
X551357Y1055001D01*
X555776Y1041399D01*
X406399Y1041399D01*
G37*
%LPD*%
%LPC*%
G36*
X723899Y450850D02*
X723899Y450850D01*
X800100Y450850D01*
X800100Y392053D01*
X797599Y376259D01*
X792657Y361049D01*
X785396Y346799D01*
X775995Y333860D01*
X764689Y322554D01*
X751750Y313153D01*
X737501Y305893D01*
X723899Y301474D01*
X723899Y450850D01*
G37*
%LPD*%
%LPC*%
G36*
X2946399Y1879600D02*
X2946399Y1879600D01*
X3022600Y1879600D01*
X3022600Y1820803D01*
X3020099Y1805009D01*
X3015157Y1789799D01*
X3007896Y1775549D01*
X2998495Y1762610D01*
X2987189Y1751304D01*
X2974250Y1741903D01*
X2960001Y1734643D01*
X2946399Y1730224D01*
X2946399Y1879600D01*
G37*
%LPD*%
%LPC*%
G36*
X2247899Y450850D02*
X2247899Y450850D01*
X2324100Y450850D01*
X2324100Y392053D01*
X2321599Y376259D01*
X2316657Y361049D01*
X2309396Y346799D01*
X2299995Y333860D01*
X2288689Y322554D01*
X2275750Y313153D01*
X2261501Y305893D01*
X2247899Y301474D01*
X2247899Y450850D01*
G37*
%LPD*%
%LPC*%
G36*
X2746224Y1041399D02*
X2746224Y1041399D01*
X2750643Y1055001D01*
X2757903Y1069250D01*
X2767304Y1082189D01*
X2778610Y1093495D01*
X2791549Y1102896D01*
X2805799Y1110157D01*
X2821009Y1115099D01*
X2836803Y1117600D01*
X2895600Y1117600D01*
X2895600Y1041399D01*
X2746224Y1041399D01*
G37*
%LPD*%
%LPC*%
G36*
X596899Y501649D02*
X596899Y501649D01*
X596899Y560447D01*
X599401Y576241D01*
X604343Y591451D01*
X611603Y605700D01*
X621004Y618639D01*
X632310Y629945D01*
X645249Y639346D01*
X659499Y646607D01*
X673100Y651026D01*
X673100Y501649D01*
X596899Y501649D01*
G37*
%LPD*%
%LPC*%
G36*
X2120899Y501649D02*
X2120899Y501649D01*
X2120899Y560447D01*
X2123401Y576241D01*
X2128343Y591451D01*
X2135603Y605700D01*
X2145004Y618639D01*
X2156310Y629945D01*
X2169249Y639346D01*
X2183499Y646607D01*
X2197100Y651026D01*
X2197100Y501649D01*
X2120899Y501649D01*
G37*
%LPD*%
%LPC*%
G36*
X406399Y914399D02*
X406399Y914399D01*
X406399Y990600D01*
X555776Y990600D01*
X551357Y976999D01*
X544096Y962749D01*
X534695Y949810D01*
X523389Y938504D01*
X510450Y929103D01*
X496201Y921843D01*
X480991Y916901D01*
X465197Y914399D01*
X406399Y914399D01*
G37*
%LPD*%
%LPC*%
G36*
X2946399Y914399D02*
X2946399Y914399D01*
X2946399Y990600D01*
X3095776Y990600D01*
X3091357Y976999D01*
X3084096Y962749D01*
X3074695Y949810D01*
X3063389Y938504D01*
X3050450Y929103D01*
X3036201Y921843D01*
X3020991Y916901D01*
X3005197Y914399D01*
X2946399Y914399D01*
G37*
%LPD*%
%LPC*%
G36*
X296803Y914399D02*
X296803Y914399D01*
X281009Y916901D01*
X265799Y921843D01*
X251549Y929103D01*
X238610Y938504D01*
X227304Y949810D01*
X217903Y962749D01*
X210643Y976999D01*
X206224Y990600D01*
X355600Y990600D01*
X355600Y914399D01*
X296803Y914399D01*
G37*
%LPD*%
%LPC*%
G36*
X2836803Y914399D02*
X2836803Y914399D01*
X2821009Y916901D01*
X2805799Y921843D01*
X2791549Y929103D01*
X2778610Y938504D01*
X2767304Y949810D01*
X2757903Y962749D01*
X2750643Y976999D01*
X2746224Y990600D01*
X2895600Y990600D01*
X2895600Y914399D01*
X2836803Y914399D01*
G37*
%LPD*%
%LPC*%
G36*
X659499Y305893D02*
X659499Y305893D01*
X645249Y313153D01*
X632310Y322554D01*
X621004Y333860D01*
X611603Y346799D01*
X604343Y361049D01*
X599401Y376259D01*
X596899Y392053D01*
X596899Y450850D01*
X673100Y450850D01*
X673100Y301474D01*
X659499Y305893D01*
G37*
%LPD*%
%LPC*%
G36*
X2881999Y1734643D02*
X2881999Y1734643D01*
X2867749Y1741903D01*
X2854810Y1751304D01*
X2843504Y1762610D01*
X2834103Y1775549D01*
X2826843Y1789799D01*
X2821901Y1805009D01*
X2819399Y1820803D01*
X2819399Y1879600D01*
X2895600Y1879600D01*
X2895600Y1730224D01*
X2881999Y1734643D01*
G37*
%LPD*%
%LPC*%
G36*
X2183499Y305893D02*
X2183499Y305893D01*
X2169249Y313153D01*
X2156310Y322554D01*
X2145004Y333860D01*
X2135603Y346799D01*
X2128343Y361049D01*
X2123401Y376259D01*
X2120899Y392053D01*
X2120899Y450850D01*
X2197100Y450850D01*
X2197100Y301474D01*
X2183499Y305893D01*
G37*
%LPD*%
%LPC*%
G36*
X992499Y1325199D02*
X992499Y1325199D01*
X992499Y1390600D01*
X1045994Y1390600D01*
X1052454Y1388869D01*
X1058247Y1385525D01*
X1062975Y1380797D01*
X1066319Y1375004D01*
X1068050Y1368544D01*
X1068050Y1325199D01*
X992499Y1325199D01*
G37*
%LPD*%
%LPC*%
G36*
X992499Y1245200D02*
X992499Y1245200D01*
X1068050Y1245200D01*
X1068050Y1201856D01*
X1066319Y1195395D01*
X1062975Y1189603D01*
X1058247Y1184875D01*
X1052454Y1181530D01*
X1045994Y1179799D01*
X992499Y1179799D01*
X992499Y1245200D01*
G37*
%LPD*%
%LPC*%
G36*
X836949Y1325199D02*
X836949Y1325199D01*
X836949Y1368544D01*
X838680Y1375004D01*
X842025Y1380797D01*
X846753Y1385525D01*
X852545Y1388869D01*
X859006Y1390600D01*
X912500Y1390600D01*
X912500Y1325199D01*
X836949Y1325199D01*
G37*
%LPD*%
%LPC*%
G36*
X859006Y1179799D02*
X859006Y1179799D01*
X852545Y1181530D01*
X846753Y1184875D01*
X842025Y1189603D01*
X838680Y1195395D01*
X836949Y1201856D01*
X836949Y1245200D01*
X912500Y1245200D01*
X912500Y1179799D01*
X859006Y1179799D01*
G37*
%LPD*%
%LPC*%
G36*
X2338071Y1133321D02*
X2338071Y1133321D01*
X2338071Y1173400D01*
X2351094Y1173400D01*
X2357554Y1171669D01*
X2363347Y1168325D01*
X2368075Y1163597D01*
X2371419Y1157804D01*
X2373150Y1151344D01*
X2373150Y1133321D01*
X2338071Y1133321D01*
G37*
%LPD*%
%LPC*%
G36*
X2338071Y1052599D02*
X2338071Y1052599D01*
X2338071Y1092679D01*
X2373150Y1092679D01*
X2373150Y1074656D01*
X2371419Y1068195D01*
X2368075Y1062403D01*
X2363347Y1057675D01*
X2357554Y1054330D01*
X2351094Y1052599D01*
X2338071Y1052599D01*
G37*
%LPD*%
%LPC*%
G36*
X3131821Y1988821D02*
X3131821Y1988821D01*
X3131821Y2022754D01*
X3138926Y2019811D01*
X3148411Y2013473D01*
X3156473Y2005411D01*
X3162811Y1995926D01*
X3165754Y1988821D01*
X3131821Y1988821D01*
G37*
%LPD*%
%LPC*%
G36*
X210821Y752321D02*
X210821Y752321D01*
X210821Y786254D01*
X217926Y783311D01*
X227411Y776973D01*
X235473Y768911D01*
X241811Y759426D01*
X244754Y752321D01*
X210821Y752321D01*
G37*
%LPD*%
%LPC*%
G36*
X3131821Y748821D02*
X3131821Y748821D01*
X3131821Y782754D01*
X3138926Y779811D01*
X3148411Y773473D01*
X3156473Y765411D01*
X3162811Y755926D01*
X3165754Y748821D01*
X3131821Y748821D01*
G37*
%LPD*%
%LPC*%
G36*
X3131821Y1577821D02*
X3131821Y1577821D01*
X3131821Y1611754D01*
X3138926Y1608811D01*
X3148411Y1602473D01*
X3156473Y1594411D01*
X3162811Y1584926D01*
X3165754Y1577821D01*
X3131821Y1577821D01*
G37*
%LPD*%
%LPC*%
G36*
X3131821Y1163321D02*
X3131821Y1163321D01*
X3131821Y1197254D01*
X3138926Y1194311D01*
X3148411Y1187973D01*
X3156473Y1179911D01*
X3162811Y1170426D01*
X3165754Y1163321D01*
X3131821Y1163321D01*
G37*
%LPD*%
%LPC*%
G36*
X210821Y1574321D02*
X210821Y1574321D01*
X210821Y1608254D01*
X217926Y1605311D01*
X227411Y1598973D01*
X235473Y1590911D01*
X241811Y1581426D01*
X244754Y1574321D01*
X210821Y1574321D01*
G37*
%LPD*%
%LPC*%
G36*
X2179321Y2115821D02*
X2179321Y2115821D01*
X2179321Y2149754D01*
X2186426Y2146811D01*
X2195911Y2140473D01*
X2203973Y2132411D01*
X2210311Y2122926D01*
X2213254Y2115821D01*
X2179321Y2115821D01*
G37*
%LPD*%
%LPC*%
G36*
X337821Y2115821D02*
X337821Y2115821D01*
X337821Y2149754D01*
X344926Y2146811D01*
X354411Y2140473D01*
X362473Y2132411D01*
X368811Y2122926D01*
X371754Y2115821D01*
X337821Y2115821D01*
G37*
%LPD*%
%LPC*%
G36*
X748821Y2115821D02*
X748821Y2115821D01*
X748821Y2149754D01*
X755926Y2146811D01*
X765411Y2140473D01*
X773473Y2132411D01*
X779811Y2122926D01*
X782754Y2115821D01*
X748821Y2115821D01*
G37*
%LPD*%
%LPC*%
G36*
X3004821Y2115821D02*
X3004821Y2115821D01*
X3004821Y2149754D01*
X3011926Y2146811D01*
X3021411Y2140473D01*
X3029473Y2132411D01*
X3035811Y2122926D01*
X3038754Y2115821D01*
X3004821Y2115821D01*
G37*
%LPD*%
%LPC*%
G36*
X1163321Y2115821D02*
X1163321Y2115821D01*
X1163321Y2149754D01*
X1170426Y2146811D01*
X1179911Y2140473D01*
X1187973Y2132411D01*
X1194311Y2122926D01*
X1197254Y2115821D01*
X1163321Y2115821D01*
G37*
%LPD*%
%LPC*%
G36*
X1671321Y2115821D02*
X1671321Y2115821D01*
X1671321Y2149754D01*
X1678426Y2146811D01*
X1687911Y2140473D01*
X1695973Y2132411D01*
X1702311Y2122926D01*
X1705254Y2115821D01*
X1671321Y2115821D01*
G37*
%LPD*%
%LPC*%
G36*
X210821Y1988821D02*
X210821Y1988821D01*
X210821Y2022754D01*
X217926Y2019811D01*
X227411Y2013473D01*
X235473Y2005411D01*
X241811Y1995926D01*
X244754Y1988821D01*
X210821Y1988821D01*
G37*
%LPD*%
%LPC*%
G36*
X210821Y337821D02*
X210821Y337821D01*
X210821Y371754D01*
X217926Y368811D01*
X227411Y362473D01*
X235473Y354411D01*
X241811Y344926D01*
X244754Y337821D01*
X210821Y337821D01*
G37*
%LPD*%
%LPC*%
G36*
X3131821Y337821D02*
X3131821Y337821D01*
X3131821Y371754D01*
X3138926Y368811D01*
X3148411Y362473D01*
X3156473Y354411D01*
X3162811Y344926D01*
X3165754Y337821D01*
X3131821Y337821D01*
G37*
%LPD*%
%LPC*%
G36*
X2592321Y213321D02*
X2592321Y213321D01*
X2592321Y247254D01*
X2599426Y244311D01*
X2608911Y237973D01*
X2616973Y229911D01*
X2623311Y220426D01*
X2626254Y213321D01*
X2592321Y213321D01*
G37*
%LPD*%
%LPC*%
G36*
X3004821Y210821D02*
X3004821Y210821D01*
X3004821Y244754D01*
X3011926Y241811D01*
X3021411Y235473D01*
X3029473Y227411D01*
X3035811Y217926D01*
X3038754Y210821D01*
X3004821Y210821D01*
G37*
%LPD*%
%LPC*%
G36*
X1671321Y210821D02*
X1671321Y210821D01*
X1671321Y244754D01*
X1678426Y241811D01*
X1687911Y235473D01*
X1695973Y227411D01*
X1702311Y217926D01*
X1705254Y210821D01*
X1671321Y210821D01*
G37*
%LPD*%
%LPC*%
G36*
X337821Y210821D02*
X337821Y210821D01*
X337821Y244754D01*
X344926Y241811D01*
X354411Y235473D01*
X362473Y227411D01*
X368811Y217926D01*
X371754Y210821D01*
X337821Y210821D01*
G37*
%LPD*%
%LPC*%
G36*
X1163321Y210821D02*
X1163321Y210821D01*
X1163321Y244754D01*
X1170426Y241811D01*
X1179911Y235473D01*
X1187973Y227411D01*
X1194311Y217926D01*
X1197254Y210821D01*
X1163321Y210821D01*
G37*
%LPD*%
%LPC*%
G36*
X753821Y210821D02*
X753821Y210821D01*
X753821Y244754D01*
X760926Y241811D01*
X770411Y235473D01*
X778473Y227411D01*
X784811Y217926D01*
X787754Y210821D01*
X753821Y210821D01*
G37*
%LPD*%
%LPC*%
G36*
X2179321Y210821D02*
X2179321Y210821D01*
X2179321Y244754D01*
X2186426Y241811D01*
X2195911Y235473D01*
X2203973Y227411D01*
X2210311Y217926D01*
X2213254Y210821D01*
X2179321Y210821D01*
G37*
%LPD*%
%LPC*%
G36*
X3131821Y708179D02*
X3131821Y708179D01*
X3165753Y708179D01*
X3162810Y701073D01*
X3156473Y691589D01*
X3148411Y683527D01*
X3138926Y677189D01*
X3131821Y674246D01*
X3131821Y708179D01*
G37*
%LPD*%
%LPC*%
G36*
X210821Y1533679D02*
X210821Y1533679D01*
X244753Y1533679D01*
X241810Y1526573D01*
X235473Y1517089D01*
X227411Y1509027D01*
X217926Y1502689D01*
X210821Y1499746D01*
X210821Y1533679D01*
G37*
%LPD*%
%LPC*%
G36*
X3131821Y1122679D02*
X3131821Y1122679D01*
X3165753Y1122679D01*
X3162811Y1115574D01*
X3156473Y1106089D01*
X3148411Y1098027D01*
X3138926Y1091689D01*
X3131821Y1088746D01*
X3131821Y1122679D01*
G37*
%LPD*%
%LPC*%
G36*
X1596746Y2115821D02*
X1596746Y2115821D01*
X1599689Y2122926D01*
X1606027Y2132411D01*
X1614089Y2140473D01*
X1623574Y2146811D01*
X1630679Y2149753D01*
X1630679Y2115821D01*
X1596746Y2115821D01*
G37*
%LPD*%
%LPC*%
G36*
X136246Y752321D02*
X136246Y752321D01*
X139189Y759426D01*
X145527Y768911D01*
X153589Y776973D01*
X163074Y783311D01*
X170179Y786253D01*
X170179Y752321D01*
X136246Y752321D01*
G37*
%LPD*%
%LPC*%
G36*
X3057246Y748821D02*
X3057246Y748821D01*
X3060189Y755926D01*
X3066527Y765411D01*
X3074589Y773473D01*
X3084074Y779811D01*
X3091179Y782753D01*
X3091179Y748821D01*
X3057246Y748821D01*
G37*
%LPD*%
%LPC*%
G36*
X210821Y711679D02*
X210821Y711679D01*
X244753Y711679D01*
X241811Y704574D01*
X235473Y695089D01*
X227411Y687027D01*
X217926Y680689D01*
X210821Y677746D01*
X210821Y711679D01*
G37*
%LPD*%
%LPC*%
G36*
X2104746Y2115821D02*
X2104746Y2115821D01*
X2107689Y2122926D01*
X2114027Y2132411D01*
X2122089Y2140473D01*
X2131574Y2146811D01*
X2138679Y2149753D01*
X2138679Y2115821D01*
X2104746Y2115821D01*
G37*
%LPD*%
%LPC*%
G36*
X1088746Y2115821D02*
X1088746Y2115821D01*
X1091689Y2122926D01*
X1098027Y2132411D01*
X1106089Y2140473D01*
X1115574Y2146811D01*
X1122679Y2149753D01*
X1122679Y2115821D01*
X1088746Y2115821D01*
G37*
%LPD*%
%LPC*%
G36*
X2519246Y2115821D02*
X2519246Y2115821D01*
X2522189Y2122926D01*
X2528527Y2132411D01*
X2536589Y2140473D01*
X2546074Y2146811D01*
X2553179Y2149753D01*
X2553179Y2115821D01*
X2519246Y2115821D01*
G37*
%LPD*%
%LPC*%
G36*
X263246Y2115821D02*
X263246Y2115821D01*
X266189Y2122926D01*
X272527Y2132411D01*
X280589Y2140473D01*
X290074Y2146811D01*
X297179Y2149753D01*
X297179Y2115821D01*
X263246Y2115821D01*
G37*
%LPD*%
%LPC*%
G36*
X674246Y2115821D02*
X674246Y2115821D01*
X677189Y2122926D01*
X683527Y2132411D01*
X691589Y2140473D01*
X701074Y2146811D01*
X708179Y2149753D01*
X708179Y2115821D01*
X674246Y2115821D01*
G37*
%LPD*%
%LPC*%
G36*
X1671321Y2075179D02*
X1671321Y2075179D01*
X1705253Y2075179D01*
X1702311Y2068074D01*
X1695973Y2058589D01*
X1687911Y2050527D01*
X1678426Y2044189D01*
X1671321Y2041246D01*
X1671321Y2075179D01*
G37*
%LPD*%
%LPC*%
G36*
X1163321Y2075179D02*
X1163321Y2075179D01*
X1197253Y2075179D01*
X1194311Y2068074D01*
X1187973Y2058589D01*
X1179911Y2050527D01*
X1170426Y2044189D01*
X1163321Y2041246D01*
X1163321Y2075179D01*
G37*
%LPD*%
%LPC*%
G36*
X2179321Y2075179D02*
X2179321Y2075179D01*
X2213253Y2075179D01*
X2210311Y2068074D01*
X2203973Y2058589D01*
X2195911Y2050527D01*
X2186426Y2044189D01*
X2179321Y2041246D01*
X2179321Y2075179D01*
G37*
%LPD*%
%LPC*%
G36*
X337821Y2075179D02*
X337821Y2075179D01*
X371753Y2075179D01*
X368811Y2068074D01*
X362473Y2058589D01*
X354411Y2050527D01*
X344926Y2044189D01*
X337821Y2041246D01*
X337821Y2075179D01*
G37*
%LPD*%
%LPC*%
G36*
X748821Y2075179D02*
X748821Y2075179D01*
X782753Y2075179D01*
X779811Y2068074D01*
X773473Y2058589D01*
X765411Y2050527D01*
X755926Y2044189D01*
X748821Y2041246D01*
X748821Y2075179D01*
G37*
%LPD*%
%LPC*%
G36*
X3057246Y337821D02*
X3057246Y337821D01*
X3060189Y344926D01*
X3066527Y354411D01*
X3074589Y362473D01*
X3084074Y368811D01*
X3091179Y371753D01*
X3091179Y337821D01*
X3057246Y337821D01*
G37*
%LPD*%
%LPC*%
G36*
X136246Y337821D02*
X136246Y337821D01*
X139189Y344926D01*
X145527Y354411D01*
X153589Y362473D01*
X163074Y368811D01*
X170179Y371753D01*
X170179Y337821D01*
X136246Y337821D01*
G37*
%LPD*%
%LPC*%
G36*
X210821Y297179D02*
X210821Y297179D01*
X244753Y297179D01*
X241811Y290074D01*
X235473Y280589D01*
X227411Y272527D01*
X217926Y266189D01*
X210821Y263246D01*
X210821Y297179D01*
G37*
%LPD*%
%LPC*%
G36*
X3131821Y297179D02*
X3131821Y297179D01*
X3165753Y297179D01*
X3162811Y290074D01*
X3156473Y280589D01*
X3148411Y272527D01*
X3138926Y266189D01*
X3131821Y263246D01*
X3131821Y297179D01*
G37*
%LPD*%
%LPC*%
G36*
X1088746Y210821D02*
X1088746Y210821D01*
X1091689Y217926D01*
X1098027Y227411D01*
X1106089Y235473D01*
X1115574Y241811D01*
X1122679Y244753D01*
X1122679Y210821D01*
X1088746Y210821D01*
G37*
%LPD*%
%LPC*%
G36*
X136246Y1988821D02*
X136246Y1988821D01*
X139189Y1995926D01*
X145527Y2005411D01*
X153589Y2013473D01*
X163074Y2019811D01*
X170179Y2022753D01*
X170179Y1988821D01*
X136246Y1988821D01*
G37*
%LPD*%
%LPC*%
G36*
X2517746Y213321D02*
X2517746Y213321D01*
X2520689Y220426D01*
X2527027Y229911D01*
X2535089Y237973D01*
X2544574Y244311D01*
X2551679Y247253D01*
X2551679Y213321D01*
X2517746Y213321D01*
G37*
%LPD*%
%LPC*%
G36*
X3131821Y1948179D02*
X3131821Y1948179D01*
X3165753Y1948179D01*
X3162811Y1941074D01*
X3156473Y1931589D01*
X3148411Y1923527D01*
X3138926Y1917189D01*
X3131821Y1914246D01*
X3131821Y1948179D01*
G37*
%LPD*%
%LPC*%
G36*
X210821Y1948179D02*
X210821Y1948179D01*
X244753Y1948179D01*
X241811Y1941074D01*
X235473Y1931589D01*
X227411Y1923527D01*
X217926Y1917189D01*
X210821Y1914246D01*
X210821Y1948179D01*
G37*
%LPD*%
%LPC*%
G36*
X3057246Y1577821D02*
X3057246Y1577821D01*
X3060189Y1584926D01*
X3066527Y1594411D01*
X3074589Y1602473D01*
X3084074Y1608811D01*
X3091179Y1611753D01*
X3091179Y1577821D01*
X3057246Y1577821D01*
G37*
%LPD*%
%LPC*%
G36*
X136246Y1574321D02*
X136246Y1574321D01*
X139189Y1581426D01*
X145527Y1590911D01*
X153589Y1598973D01*
X163074Y1605311D01*
X170179Y1608253D01*
X170179Y1574321D01*
X136246Y1574321D01*
G37*
%LPD*%
%LPC*%
G36*
X3131821Y1537179D02*
X3131821Y1537179D01*
X3165753Y1537179D01*
X3162811Y1530074D01*
X3156473Y1520589D01*
X3148411Y1512527D01*
X3138926Y1506189D01*
X3131821Y1503246D01*
X3131821Y1537179D01*
G37*
%LPD*%
%LPC*%
G36*
X136246Y1163321D02*
X136246Y1163321D01*
X139189Y1170426D01*
X145527Y1179911D01*
X153589Y1187973D01*
X163074Y1194311D01*
X170179Y1197253D01*
X170179Y1163321D01*
X136246Y1163321D01*
G37*
%LPD*%
%LPC*%
G36*
X679246Y210821D02*
X679246Y210821D01*
X682189Y217926D01*
X688527Y227411D01*
X696589Y235473D01*
X706074Y241811D01*
X713179Y244753D01*
X713179Y210821D01*
X679246Y210821D01*
G37*
%LPD*%
%LPC*%
G36*
X263246Y210821D02*
X263246Y210821D01*
X266189Y217926D01*
X272527Y227411D01*
X280589Y235473D01*
X290074Y241811D01*
X297179Y244753D01*
X297179Y210821D01*
X263246Y210821D01*
G37*
%LPD*%
%LPC*%
G36*
X2930246Y210821D02*
X2930246Y210821D01*
X2933189Y217926D01*
X2939527Y227411D01*
X2947589Y235473D01*
X2957074Y241811D01*
X2964179Y244753D01*
X2964179Y210821D01*
X2930246Y210821D01*
G37*
%LPD*%
%LPC*%
G36*
X2104746Y210821D02*
X2104746Y210821D01*
X2107689Y217926D01*
X2114027Y227411D01*
X2122089Y235473D01*
X2131574Y241811D01*
X2138679Y244753D01*
X2138679Y210821D01*
X2104746Y210821D01*
G37*
%LPD*%
%LPC*%
G36*
X1596746Y210821D02*
X1596746Y210821D01*
X1599689Y217926D01*
X1606027Y227411D01*
X1614089Y235473D01*
X1623574Y241811D01*
X1630679Y244753D01*
X1630679Y210821D01*
X1596746Y210821D01*
G37*
%LPD*%
%LPC*%
G36*
X753821Y170179D02*
X753821Y170179D01*
X787753Y170179D01*
X784811Y163074D01*
X778473Y153589D01*
X770411Y145527D01*
X760926Y139189D01*
X753821Y136246D01*
X753821Y170179D01*
G37*
%LPD*%
%LPC*%
G36*
X2592321Y172679D02*
X2592321Y172679D01*
X2626253Y172679D01*
X2623311Y165574D01*
X2616973Y156089D01*
X2608911Y148027D01*
X2599426Y141689D01*
X2592321Y138746D01*
X2592321Y172679D01*
G37*
%LPD*%
%LPC*%
G36*
X337821Y170179D02*
X337821Y170179D01*
X371753Y170179D01*
X368811Y163074D01*
X362473Y153589D01*
X354411Y145527D01*
X344926Y139189D01*
X337821Y136246D01*
X337821Y170179D01*
G37*
%LPD*%
%LPC*%
G36*
X3004821Y170179D02*
X3004821Y170179D01*
X3038753Y170179D01*
X3035811Y163074D01*
X3029473Y153589D01*
X3021411Y145527D01*
X3011926Y139189D01*
X3004821Y136246D01*
X3004821Y170179D01*
G37*
%LPD*%
%LPC*%
G36*
X2179321Y170179D02*
X2179321Y170179D01*
X2213253Y170179D01*
X2210311Y163074D01*
X2203973Y153589D01*
X2195911Y145527D01*
X2186426Y139189D01*
X2179321Y136246D01*
X2179321Y170179D01*
G37*
%LPD*%
%LPC*%
G36*
X1671321Y170179D02*
X1671321Y170179D01*
X1705253Y170179D01*
X1702311Y163074D01*
X1695973Y153589D01*
X1687911Y145527D01*
X1678426Y139189D01*
X1671321Y136246D01*
X1671321Y170179D01*
G37*
%LPD*%
%LPC*%
G36*
X1163321Y170179D02*
X1163321Y170179D01*
X1197253Y170179D01*
X1194311Y163074D01*
X1187973Y153589D01*
X1179911Y145527D01*
X1170426Y139189D01*
X1163321Y136246D01*
X1163321Y170179D01*
G37*
%LPD*%
%LPC*%
G36*
X163074Y1502689D02*
X163074Y1502689D01*
X153589Y1509027D01*
X145527Y1517089D01*
X139189Y1526573D01*
X136246Y1533679D01*
X170179Y1533679D01*
X170179Y1499746D01*
X163074Y1502689D01*
G37*
%LPD*%
%LPC*%
G36*
X3084074Y677189D02*
X3084074Y677189D01*
X3074589Y683527D01*
X3066527Y691589D01*
X3060189Y701073D01*
X3057246Y708179D01*
X3091179Y708179D01*
X3091179Y674246D01*
X3084074Y677189D01*
G37*
%LPD*%
%LPC*%
G36*
X1623574Y2044189D02*
X1623574Y2044189D01*
X1614089Y2050527D01*
X1606027Y2058589D01*
X1599689Y2068074D01*
X1596746Y2075179D01*
X1630679Y2075179D01*
X1630679Y2041246D01*
X1623574Y2044189D01*
G37*
%LPD*%
%LPC*%
G36*
X1115574Y2044189D02*
X1115574Y2044189D01*
X1106089Y2050527D01*
X1098027Y2058589D01*
X1091689Y2068074D01*
X1088746Y2075179D01*
X1122679Y2075179D01*
X1122679Y2041246D01*
X1115574Y2044189D01*
G37*
%LPD*%
%LPC*%
G36*
X163074Y266189D02*
X163074Y266189D01*
X153589Y272527D01*
X145527Y280589D01*
X139189Y290074D01*
X136246Y297179D01*
X170179Y297179D01*
X170179Y263246D01*
X163074Y266189D01*
G37*
%LPD*%
%LPC*%
G36*
X701074Y2044189D02*
X701074Y2044189D01*
X691589Y2050527D01*
X683527Y2058589D01*
X677189Y2068074D01*
X674246Y2075179D01*
X708179Y2075179D01*
X708179Y2041246D01*
X701074Y2044189D01*
G37*
%LPD*%
%LPC*%
G36*
X163074Y1091689D02*
X163074Y1091689D01*
X153589Y1098027D01*
X145527Y1106089D01*
X139189Y1115574D01*
X136246Y1122679D01*
X170179Y1122679D01*
X170179Y1088746D01*
X163074Y1091689D01*
G37*
%LPD*%
%LPC*%
G36*
X2131574Y2044189D02*
X2131574Y2044189D01*
X2122089Y2050527D01*
X2114027Y2058589D01*
X2107689Y2068074D01*
X2104746Y2075179D01*
X2138679Y2075179D01*
X2138679Y2041246D01*
X2131574Y2044189D01*
G37*
%LPD*%
%LPC*%
G36*
X2544574Y141689D02*
X2544574Y141689D01*
X2535089Y148027D01*
X2527027Y156089D01*
X2520689Y165574D01*
X2517746Y172679D01*
X2551679Y172679D01*
X2551679Y138746D01*
X2544574Y141689D01*
G37*
%LPD*%
%LPC*%
G36*
X706074Y139189D02*
X706074Y139189D01*
X696589Y145527D01*
X688527Y153589D01*
X682189Y163074D01*
X679246Y170179D01*
X713179Y170179D01*
X713179Y136246D01*
X706074Y139189D01*
G37*
%LPD*%
%LPC*%
G36*
X3084074Y1506189D02*
X3084074Y1506189D01*
X3074589Y1512527D01*
X3066527Y1520589D01*
X3060189Y1530074D01*
X3057246Y1537179D01*
X3091179Y1537179D01*
X3091179Y1503246D01*
X3084074Y1506189D01*
G37*
%LPD*%
%LPC*%
G36*
X290074Y139189D02*
X290074Y139189D01*
X280589Y145527D01*
X272527Y153589D01*
X266189Y163074D01*
X263246Y170179D01*
X297179Y170179D01*
X297179Y136246D01*
X290074Y139189D01*
G37*
%LPD*%
%LPC*%
G36*
X2131574Y139189D02*
X2131574Y139189D01*
X2122089Y145527D01*
X2114027Y153589D01*
X2107689Y163074D01*
X2104746Y170179D01*
X2138679Y170179D01*
X2138679Y136246D01*
X2131574Y139189D01*
G37*
%LPD*%
%LPC*%
G36*
X163074Y680689D02*
X163074Y680689D01*
X153589Y687027D01*
X145527Y695089D01*
X139189Y704574D01*
X136246Y711679D01*
X170179Y711679D01*
X170179Y677746D01*
X163074Y680689D01*
G37*
%LPD*%
%LPC*%
G36*
X2957074Y139189D02*
X2957074Y139189D01*
X2947589Y145527D01*
X2939527Y153589D01*
X2933189Y163074D01*
X2930246Y170179D01*
X2964179Y170179D01*
X2964179Y136246D01*
X2957074Y139189D01*
G37*
%LPD*%
%LPC*%
G36*
X290074Y2044189D02*
X290074Y2044189D01*
X280589Y2050527D01*
X272527Y2058589D01*
X266189Y2068074D01*
X263246Y2075179D01*
X297179Y2075179D01*
X297179Y2041246D01*
X290074Y2044189D01*
G37*
%LPD*%
%LPC*%
G36*
X1623574Y139189D02*
X1623574Y139189D01*
X1614089Y145527D01*
X1606027Y153589D01*
X1599689Y163074D01*
X1596746Y170179D01*
X1630679Y170179D01*
X1630679Y136246D01*
X1623574Y139189D01*
G37*
%LPD*%
%LPC*%
G36*
X163074Y1917189D02*
X163074Y1917189D01*
X153589Y1923527D01*
X145527Y1931589D01*
X139189Y1941074D01*
X136246Y1948179D01*
X170179Y1948179D01*
X170179Y1914246D01*
X163074Y1917189D01*
G37*
%LPD*%
%LPC*%
G36*
X1115574Y139189D02*
X1115574Y139189D01*
X1106089Y145527D01*
X1098027Y153589D01*
X1091689Y163074D01*
X1088746Y170179D01*
X1122679Y170179D01*
X1122679Y136246D01*
X1115574Y139189D01*
G37*
%LPD*%
%LPC*%
G36*
X3084074Y266189D02*
X3084074Y266189D01*
X3074589Y272527D01*
X3066527Y280589D01*
X3060189Y290074D01*
X3057246Y297179D01*
X3091179Y297179D01*
X3091179Y263246D01*
X3084074Y266189D01*
G37*
%LPD*%
D10*
X2984500Y0D02*
X2992095Y-50D01*
X2999690Y85D01*
X3007279Y404D01*
X3014858Y909D01*
X3022422Y1598D01*
X3029968Y2471D01*
X3037490Y3528D01*
X3044984Y4768D01*
X3052445Y6190D01*
X3059870Y7794D01*
X3067253Y9578D01*
X3074590Y11541D01*
X3081878Y13682D01*
X3089111Y16001D01*
X3096286Y18495D01*
X3103398Y21163D01*
X3110442Y24004D01*
X3117415Y27015D01*
X3124313Y30196D01*
X3131132Y33543D01*
X3137866Y37056D01*
X3144513Y40732D01*
X3151069Y44569D01*
X3157529Y48564D01*
X3163890Y52715D01*
X3170148Y57021D01*
X3176299Y61477D01*
X3182339Y66082D01*
X3188266Y70833D01*
X3194075Y75727D01*
X3199763Y80761D01*
X3205326Y85932D01*
X3210763Y91237D01*
X3216068Y96674D01*
X3221239Y102237D01*
X3226273Y107925D01*
X3231167Y113734D01*
X3235918Y119661D01*
X3240523Y125701D01*
X3244979Y131852D01*
X3249285Y138110D01*
X3253436Y144471D01*
X3257431Y150931D01*
X3261268Y157487D01*
X3264944Y164134D01*
X3268457Y170868D01*
X3271804Y177687D01*
X3274985Y184585D01*
X3277996Y191558D01*
X3280837Y198602D01*
X3283505Y205714D01*
X3285999Y212889D01*
X3288318Y220122D01*
X3290459Y227410D01*
X3292422Y234747D01*
X3294206Y242130D01*
X3295810Y249555D01*
X3297232Y257016D01*
X3298472Y264510D01*
X3299529Y272032D01*
X3300402Y279578D01*
X3301091Y287142D01*
X3301596Y294721D01*
X3301915Y302310D01*
X3302050Y309905D01*
X3302000Y317500D01*
X3302000Y1968500D02*
X3302050Y1976095D01*
X3301915Y1983690D01*
X3301596Y1991279D01*
X3301091Y1998858D01*
X3300402Y2006422D01*
X3299529Y2013968D01*
X3298472Y2021490D01*
X3297232Y2028984D01*
X3295810Y2036445D01*
X3294206Y2043870D01*
X3292422Y2051253D01*
X3290459Y2058590D01*
X3288318Y2065878D01*
X3285999Y2073111D01*
X3283505Y2080286D01*
X3280837Y2087398D01*
X3277996Y2094442D01*
X3274985Y2101415D01*
X3271804Y2108313D01*
X3268457Y2115132D01*
X3264944Y2121866D01*
X3261268Y2128513D01*
X3257431Y2135069D01*
X3253436Y2141529D01*
X3249285Y2147890D01*
X3244979Y2154148D01*
X3240523Y2160299D01*
X3235918Y2166339D01*
X3231167Y2172266D01*
X3226273Y2178075D01*
X3221239Y2183763D01*
X3216068Y2189326D01*
X3210763Y2194763D01*
X3205326Y2200068D01*
X3199763Y2205239D01*
X3194075Y2210273D01*
X3188266Y2215167D01*
X3182339Y2219918D01*
X3176299Y2224523D01*
X3170148Y2228979D01*
X3163890Y2233285D01*
X3157529Y2237436D01*
X3151069Y2241431D01*
X3144513Y2245268D01*
X3137866Y2248944D01*
X3131132Y2252457D01*
X3124313Y2255804D01*
X3117415Y2258985D01*
X3110442Y2261996D01*
X3103398Y2264837D01*
X3096286Y2267505D01*
X3089111Y2269999D01*
X3081878Y2272318D01*
X3074590Y2274459D01*
X3067253Y2276422D01*
X3059870Y2278206D01*
X3052445Y2279810D01*
X3044984Y2281232D01*
X3037490Y2282472D01*
X3029968Y2283529D01*
X3022422Y2284402D01*
X3014858Y2285091D01*
X3007279Y2285596D01*
X2999690Y2285915D01*
X2992095Y2286050D01*
X2984500Y2286000D01*
X317500Y2286000D02*
X309905Y2286050D01*
X302310Y2285915D01*
X294721Y2285596D01*
X287142Y2285091D01*
X279578Y2284402D01*
X272032Y2283529D01*
X264510Y2282472D01*
X257016Y2281232D01*
X249555Y2279810D01*
X242130Y2278206D01*
X234747Y2276422D01*
X227410Y2274459D01*
X220122Y2272318D01*
X212889Y2269999D01*
X205714Y2267505D01*
X198602Y2264837D01*
X191558Y2261996D01*
X184585Y2258985D01*
X177687Y2255804D01*
X170868Y2252457D01*
X164134Y2248944D01*
X157487Y2245268D01*
X150931Y2241431D01*
X144471Y2237436D01*
X138110Y2233285D01*
X131852Y2228979D01*
X125701Y2224523D01*
X119661Y2219918D01*
X113734Y2215167D01*
X107925Y2210273D01*
X102237Y2205239D01*
X96674Y2200068D01*
X91237Y2194763D01*
X85932Y2189326D01*
X80761Y2183763D01*
X75727Y2178075D01*
X70833Y2172266D01*
X66082Y2166339D01*
X61477Y2160299D01*
X57021Y2154148D01*
X52715Y2147890D01*
X48564Y2141529D01*
X44569Y2135069D01*
X40732Y2128513D01*
X37056Y2121866D01*
X33543Y2115132D01*
X30196Y2108313D01*
X27015Y2101415D01*
X24004Y2094442D01*
X21163Y2087398D01*
X18495Y2080286D01*
X16001Y2073111D01*
X13682Y2065878D01*
X11541Y2058590D01*
X9578Y2051253D01*
X7794Y2043870D01*
X6190Y2036445D01*
X4768Y2028984D01*
X3528Y2021490D01*
X2471Y2013968D01*
X1598Y2006422D01*
X909Y1998858D01*
X404Y1991279D01*
X85Y1983690D01*
X-50Y1976095D01*
X0Y1968500D01*
X0Y317500D02*
X-50Y309905D01*
X85Y302310D01*
X404Y294721D01*
X909Y287142D01*
X1598Y279578D01*
X2471Y272032D01*
X3528Y264510D01*
X4768Y257016D01*
X6190Y249555D01*
X7794Y242130D01*
X9578Y234747D01*
X11541Y227410D01*
X13682Y220122D01*
X16001Y212889D01*
X18495Y205714D01*
X21163Y198602D01*
X24004Y191558D01*
X27015Y184585D01*
X30196Y177687D01*
X33543Y170868D01*
X37056Y164134D01*
X40732Y157487D01*
X44569Y150931D01*
X48564Y144471D01*
X52715Y138110D01*
X57021Y131852D01*
X61477Y125701D01*
X66082Y119661D01*
X70833Y113734D01*
X75727Y107925D01*
X80761Y102237D01*
X85932Y96674D01*
X91237Y91237D01*
X96674Y85932D01*
X102237Y80761D01*
X107925Y75727D01*
X113734Y70833D01*
X119661Y66082D01*
X125701Y61477D01*
X131852Y57021D01*
X138110Y52715D01*
X144471Y48564D01*
X150931Y44569D01*
X157487Y40732D01*
X164134Y37056D01*
X170868Y33543D01*
X177687Y30196D01*
X184585Y27015D01*
X191558Y24004D01*
X198602Y21163D01*
X205714Y18495D01*
X212889Y16001D01*
X220122Y13682D01*
X227410Y11541D01*
X234747Y9578D01*
X242130Y7794D01*
X249555Y6190D01*
X257016Y4768D01*
X264510Y3528D01*
X272032Y2471D01*
X279578Y1598D01*
X287142Y909D01*
X294721Y404D01*
X302310Y85D01*
X309905Y-50D01*
X317500Y0D01*
D11*
X2984500Y0D01*
X3302000Y317500D02*
X3302000Y1968500D01*
X2984500Y2286000D02*
X317500Y2286000D01*
X0Y1968500D02*
X0Y317500D01*
D12*
X1866000Y983000D03*
X1866000Y1048000D03*
X1866000Y1113000D03*
X1866000Y1178000D03*
X1866000Y1243000D03*
X1866000Y1308000D03*
X1446000Y1309000D03*
X1446000Y1244000D03*
X1446000Y1179000D03*
X1446000Y1114000D03*
X1446000Y1049000D03*
X1446000Y984000D03*
D13*
X1656000Y1148000D03*
D14*
X1651000Y1068000D03*
X1651000Y1218000D03*
D15*
X2317750Y1113000D03*
X2217750Y1113000D03*
D16*
X457200Y1016000D02*
X304800Y1016000D01*
X304800Y1270000D02*
X457200Y1270000D01*
X2844800Y1016000D02*
X2997200Y1016000D01*
X2997200Y1270000D02*
X2844800Y1270000D01*
X2921000Y1828800D02*
X2921000Y1981200D01*
X2667000Y1981200D02*
X2667000Y1828800D01*
X2413000Y1828800D02*
X2413000Y1981200D01*
X2222500Y552450D02*
X2222500Y400050D01*
X1968500Y400050D02*
X1968500Y552450D01*
X698500Y552450D02*
X698500Y400050D01*
X952500Y400050D02*
X952500Y552450D01*
X1206500Y552450D02*
X1206500Y400050D01*
D17*
X952500Y1285200D03*
X952500Y1000800D03*
D18*
X1206500Y1333500D03*
D19*
X1231000Y1309000D02*
X1446000Y1309000D01*
X1231000Y1309000D02*
X1206500Y1333500D01*
D18*
X1206500Y1206500D03*
D19*
X1234000Y1179000D02*
X1446000Y1179000D01*
X1234000Y1179000D02*
X1206500Y1206500D01*
D18*
X317500Y190500D03*
X190500Y317500D03*
X190500Y1968500D03*
X2984500Y2095500D03*
X317500Y2095500D03*
X3111500Y1968500D03*
X3111500Y317500D03*
X2984500Y190500D03*
X3111500Y1143000D03*
X190500Y1143000D03*
X190500Y732000D03*
X190500Y1554000D03*
X3111500Y1557500D03*
X3111500Y728500D03*
X2572000Y193000D03*
X2159000Y190500D03*
X2159000Y2095500D03*
X2573500Y2095500D03*
X728500Y2095500D03*
X1143000Y2095500D03*
X733500Y190500D03*
X1143000Y190500D03*
D20*
X1656000Y1148000D02*
X1656000Y1455500D01*
D19*
X1651000Y1460500D01*
D20*
X1656000Y1148000D02*
X1651000Y1143000D01*
X1651000Y889000D01*
D18*
X1651000Y2095500D03*
X1651000Y190500D03*
D19*
X1446000Y1049000D02*
X1333500Y1049000D01*
D18*
X1333500Y1016000D03*
D19*
X1333500Y984000D02*
X1446000Y984000D01*
X1333500Y984000D02*
X1333500Y1016000D01*
X1333500Y1049000D01*
X1866000Y1178000D02*
X1968500Y1178000D01*
X1968500Y1243000D02*
X1866000Y1243000D01*
X1968500Y1243000D02*
X1968500Y1206500D01*
X1968500Y1178000D01*
D18*
X1968500Y1206500D03*
D19*
X1968500Y1048000D02*
X1866000Y1048000D01*
X1866000Y983000D02*
X1968500Y983000D01*
X1968500Y1048000D01*
X1968500Y983000D02*
X1968500Y476250D01*
X1206500Y476250D01*
D18*
X1206500Y889000D03*
D19*
X1206500Y1079500D01*
X1241000Y1114000D01*
X1446000Y1114000D01*
X1866000Y1113000D02*
X2217750Y1113000D01*
D18*
X2159000Y1333500D03*
D19*
X2133500Y1308000D02*
X1866000Y1308000D01*
X2133500Y1308000D02*
X2159000Y1333500D01*
X952500Y1000800D02*
X952500Y476250D01*
M02*
