G04 EAGLE Gerber X2 export*
%TF.Part,Single*%
%TF.FileFunction,Copper,L1,Top,Mixed*%
%TF.FilePolarity,Positive*%
%TF.GenerationSoftware,Autodesk,EAGLE,8.6.1*%
%TF.CreationDate,2018-02-11T16:56:18Z*%
G75*
%MOMM*%
%FSLAX34Y34*%
%LPD*%
%AMOC8*
5,1,8,0,0,1.08239X$1,22.5*%
G01*
%ADD10R,0.450000X1.450000*%
%ADD11R,0.400000X0.700000*%
%ADD12R,0.580000X2.500000*%
%ADD13C,1.524000*%
%ADD14C,0.650000*%
%ADD15C,0.406400*%
%ADD16C,0.450000*%
%ADD17C,1.473200*%
%ADD18C,0.812800*%

G36*
X250891Y32646D02*
X250891Y32646D01*
X250984Y32646D01*
X254004Y32884D01*
X254076Y32897D01*
X254150Y32900D01*
X254315Y32939D01*
X254400Y32955D01*
X254431Y32967D01*
X254472Y32977D01*
X260217Y34843D01*
X260357Y34905D01*
X260499Y34959D01*
X260546Y34988D01*
X260585Y35005D01*
X260656Y35054D01*
X260783Y35132D01*
X265669Y38682D01*
X265783Y38783D01*
X265902Y38879D01*
X265938Y38921D01*
X265970Y38949D01*
X266021Y39018D01*
X266118Y39131D01*
X269668Y44017D01*
X269745Y44149D01*
X269829Y44277D01*
X269850Y44328D01*
X269872Y44365D01*
X269899Y44446D01*
X269957Y44583D01*
X271823Y50328D01*
X271839Y50399D01*
X271863Y50468D01*
X271876Y50548D01*
X271878Y50555D01*
X271879Y50566D01*
X271890Y50636D01*
X271909Y50721D01*
X271910Y50754D01*
X271916Y50796D01*
X272154Y53816D01*
X272153Y53882D01*
X272160Y53975D01*
X272160Y358775D01*
X272154Y358841D01*
X272154Y358934D01*
X271916Y361954D01*
X271903Y362026D01*
X271900Y362100D01*
X271861Y362265D01*
X271845Y362350D01*
X271833Y362381D01*
X271823Y362422D01*
X269957Y368167D01*
X269895Y368306D01*
X269841Y368449D01*
X269812Y368496D01*
X269795Y368535D01*
X269746Y368606D01*
X269668Y368733D01*
X266118Y373619D01*
X266017Y373733D01*
X265921Y373852D01*
X265879Y373888D01*
X265851Y373920D01*
X265782Y373971D01*
X265669Y374068D01*
X260783Y377618D01*
X260651Y377695D01*
X260523Y377779D01*
X260472Y377800D01*
X260435Y377822D01*
X260354Y377849D01*
X260217Y377907D01*
X254472Y379773D01*
X254401Y379789D01*
X254332Y379813D01*
X254164Y379840D01*
X254079Y379859D01*
X254046Y379860D01*
X254004Y379866D01*
X250984Y380104D01*
X250918Y380103D01*
X250825Y380110D01*
X127000Y380110D01*
X126982Y380108D01*
X126964Y380110D01*
X126782Y380089D01*
X126599Y380070D01*
X126582Y380065D01*
X126565Y380063D01*
X126390Y380006D01*
X126214Y379952D01*
X126199Y379944D01*
X126182Y379938D01*
X126022Y379848D01*
X125860Y379760D01*
X125847Y379749D01*
X125831Y379740D01*
X125692Y379620D01*
X125551Y379503D01*
X125540Y379489D01*
X125527Y379477D01*
X125414Y379332D01*
X125299Y379189D01*
X125291Y379173D01*
X125280Y379159D01*
X125198Y378994D01*
X125113Y378832D01*
X125108Y378815D01*
X125100Y378799D01*
X125053Y378620D01*
X125002Y378445D01*
X125000Y378427D01*
X124996Y378410D01*
X124969Y378079D01*
X124969Y227171D01*
X124971Y227153D01*
X124969Y227135D01*
X124990Y226953D01*
X125009Y226770D01*
X125014Y226753D01*
X125016Y226736D01*
X125073Y226561D01*
X125127Y226385D01*
X125135Y226370D01*
X125141Y226353D01*
X125231Y226193D01*
X125319Y226031D01*
X125330Y226018D01*
X125339Y226002D01*
X125459Y225863D01*
X125576Y225722D01*
X125590Y225711D01*
X125602Y225697D01*
X125747Y225585D01*
X125890Y225470D01*
X125906Y225462D01*
X125920Y225451D01*
X126085Y225369D01*
X126247Y225284D01*
X126264Y225279D01*
X126281Y225271D01*
X126459Y225224D01*
X126634Y225173D01*
X126652Y225171D01*
X126669Y225167D01*
X127000Y225140D01*
X152443Y225140D01*
X152461Y225142D01*
X152479Y225140D01*
X152661Y225161D01*
X152844Y225180D01*
X152861Y225185D01*
X152878Y225187D01*
X153053Y225244D01*
X153229Y225298D01*
X153244Y225306D01*
X153261Y225312D01*
X153421Y225402D01*
X153583Y225490D01*
X153596Y225501D01*
X153612Y225510D01*
X153751Y225630D01*
X153892Y225747D01*
X153903Y225761D01*
X153917Y225773D01*
X154029Y225918D01*
X154144Y226061D01*
X154152Y226077D01*
X154163Y226091D01*
X154245Y226256D01*
X154330Y226418D01*
X154335Y226435D01*
X154343Y226451D01*
X154390Y226630D01*
X154441Y226805D01*
X154443Y226823D01*
X154447Y226840D01*
X154474Y227171D01*
X154474Y228004D01*
X155646Y229176D01*
X157443Y229176D01*
X157461Y229178D01*
X157479Y229176D01*
X157661Y229197D01*
X157844Y229216D01*
X157861Y229221D01*
X157878Y229223D01*
X158053Y229280D01*
X158229Y229334D01*
X158244Y229342D01*
X158261Y229348D01*
X158421Y229438D01*
X158583Y229526D01*
X158596Y229537D01*
X158612Y229546D01*
X158751Y229666D01*
X158892Y229783D01*
X158903Y229797D01*
X158917Y229809D01*
X159029Y229954D01*
X159144Y230097D01*
X159152Y230113D01*
X159163Y230127D01*
X159245Y230292D01*
X159330Y230454D01*
X159335Y230471D01*
X159343Y230487D01*
X159390Y230666D01*
X159441Y230841D01*
X159443Y230859D01*
X159447Y230876D01*
X159474Y231207D01*
X159474Y248143D01*
X159472Y248161D01*
X159474Y248179D01*
X159453Y248361D01*
X159434Y248544D01*
X159429Y248561D01*
X159427Y248578D01*
X159370Y248753D01*
X159316Y248929D01*
X159308Y248944D01*
X159302Y248961D01*
X159212Y249121D01*
X159124Y249283D01*
X159113Y249296D01*
X159104Y249312D01*
X158984Y249451D01*
X158867Y249592D01*
X158853Y249603D01*
X158841Y249617D01*
X158696Y249729D01*
X158553Y249844D01*
X158537Y249852D01*
X158523Y249863D01*
X158358Y249945D01*
X158196Y250030D01*
X158179Y250035D01*
X158163Y250043D01*
X157984Y250090D01*
X157809Y250141D01*
X157791Y250143D01*
X157774Y250147D01*
X157443Y250174D01*
X154646Y250174D01*
X153474Y251346D01*
X153474Y258004D01*
X154646Y259176D01*
X157443Y259176D01*
X157461Y259178D01*
X157479Y259176D01*
X157661Y259197D01*
X157844Y259216D01*
X157861Y259221D01*
X157878Y259223D01*
X158053Y259280D01*
X158229Y259334D01*
X158244Y259342D01*
X158261Y259348D01*
X158421Y259438D01*
X158583Y259526D01*
X158596Y259537D01*
X158612Y259546D01*
X158751Y259666D01*
X158892Y259783D01*
X158903Y259797D01*
X158917Y259809D01*
X159029Y259954D01*
X159144Y260097D01*
X159152Y260113D01*
X159163Y260127D01*
X159245Y260292D01*
X159330Y260454D01*
X159335Y260471D01*
X159343Y260487D01*
X159390Y260666D01*
X159441Y260841D01*
X159443Y260859D01*
X159447Y260876D01*
X159474Y261207D01*
X159474Y264004D01*
X160646Y265176D01*
X164693Y265176D01*
X164711Y265178D01*
X164729Y265176D01*
X164911Y265197D01*
X165094Y265216D01*
X165111Y265221D01*
X165128Y265223D01*
X165303Y265280D01*
X165479Y265334D01*
X165494Y265342D01*
X165511Y265348D01*
X165671Y265438D01*
X165833Y265526D01*
X165846Y265537D01*
X165862Y265546D01*
X166001Y265666D01*
X166142Y265783D01*
X166153Y265797D01*
X166167Y265809D01*
X166279Y265954D01*
X166394Y266097D01*
X166402Y266113D01*
X166413Y266127D01*
X166495Y266292D01*
X166580Y266454D01*
X166585Y266471D01*
X166593Y266487D01*
X166640Y266666D01*
X166691Y266841D01*
X166693Y266859D01*
X166697Y266876D01*
X166724Y267207D01*
X166724Y269187D01*
X166721Y269218D01*
X166723Y269250D01*
X166701Y269419D01*
X166684Y269588D01*
X166675Y269618D01*
X166671Y269649D01*
X166570Y269965D01*
X165724Y272006D01*
X165724Y274094D01*
X166524Y276024D01*
X168001Y277501D01*
X169969Y278316D01*
X169980Y278323D01*
X169993Y278327D01*
X170158Y278418D01*
X170323Y278507D01*
X170334Y278515D01*
X170346Y278522D01*
X170489Y278643D01*
X170634Y278763D01*
X170642Y278774D01*
X170653Y278782D01*
X170769Y278930D01*
X170887Y279076D01*
X170894Y279088D01*
X170902Y279098D01*
X170987Y279265D01*
X171075Y279432D01*
X171078Y279445D01*
X171084Y279457D01*
X171135Y279638D01*
X171188Y279819D01*
X171189Y279832D01*
X171192Y279845D01*
X171206Y280033D01*
X171222Y280220D01*
X171221Y280233D01*
X171222Y280247D01*
X171198Y280433D01*
X171177Y280620D01*
X171173Y280633D01*
X171171Y280646D01*
X171112Y280823D01*
X171054Y281003D01*
X171047Y281015D01*
X171043Y281028D01*
X170950Y281190D01*
X170858Y281355D01*
X170849Y281365D01*
X170842Y281377D01*
X170647Y281607D01*
X170307Y282194D01*
X170134Y282840D01*
X170134Y285054D01*
X170134Y285058D01*
X170134Y285063D01*
X170114Y285257D01*
X170094Y285454D01*
X170093Y285459D01*
X170093Y285463D01*
X170034Y285651D01*
X169976Y285839D01*
X169974Y285843D01*
X169973Y285848D01*
X169877Y286022D01*
X169784Y286193D01*
X169782Y286197D01*
X169779Y286201D01*
X169651Y286353D01*
X169527Y286503D01*
X169523Y286505D01*
X169520Y286509D01*
X169364Y286633D01*
X169213Y286755D01*
X169209Y286757D01*
X169205Y286760D01*
X169026Y286852D01*
X168856Y286940D01*
X168851Y286942D01*
X168847Y286944D01*
X168657Y286998D01*
X168469Y287052D01*
X168464Y287052D01*
X168460Y287053D01*
X168267Y287068D01*
X168067Y287085D01*
X168063Y287084D01*
X168058Y287085D01*
X167864Y287061D01*
X167668Y287038D01*
X167663Y287036D01*
X167659Y287036D01*
X167472Y286974D01*
X167285Y286913D01*
X167281Y286911D01*
X167277Y286909D01*
X167106Y286812D01*
X166934Y286715D01*
X166931Y286712D01*
X166927Y286710D01*
X166778Y286580D01*
X166630Y286452D01*
X166627Y286448D01*
X166623Y286445D01*
X166502Y286288D01*
X166383Y286134D01*
X166381Y286130D01*
X166378Y286126D01*
X166226Y285831D01*
X166130Y285599D01*
X166121Y285569D01*
X166107Y285541D01*
X166063Y285377D01*
X166014Y285214D01*
X166011Y285183D01*
X166003Y285153D01*
X165976Y284822D01*
X165976Y282346D01*
X164804Y281174D01*
X159146Y281174D01*
X157974Y282346D01*
X157974Y284822D01*
X157971Y284853D01*
X157973Y284884D01*
X157951Y285053D01*
X157934Y285223D01*
X157925Y285252D01*
X157921Y285283D01*
X157820Y285599D01*
X157724Y285829D01*
X157724Y295773D01*
X157722Y295799D01*
X157724Y295826D01*
X157702Y296000D01*
X157684Y296174D01*
X157677Y296199D01*
X157673Y296226D01*
X157618Y296391D01*
X157566Y296558D01*
X157553Y296582D01*
X157545Y296607D01*
X157458Y296759D01*
X157374Y296912D01*
X157357Y296933D01*
X157344Y296956D01*
X157129Y297209D01*
X156603Y297736D01*
X155121Y299217D01*
X154561Y300570D01*
X154550Y300590D01*
X154543Y300611D01*
X154455Y300768D01*
X154371Y300925D01*
X154357Y300942D01*
X154346Y300962D01*
X154228Y301098D01*
X154114Y301236D01*
X154097Y301250D01*
X154082Y301267D01*
X153941Y301376D01*
X153802Y301489D01*
X153782Y301500D01*
X153764Y301513D01*
X153604Y301593D01*
X153445Y301676D01*
X153424Y301683D01*
X153404Y301693D01*
X153231Y301739D01*
X153059Y301789D01*
X153037Y301791D01*
X153015Y301797D01*
X152684Y301824D01*
X149264Y301824D01*
X149252Y301823D01*
X149241Y301824D01*
X149052Y301803D01*
X148863Y301784D01*
X148852Y301781D01*
X148841Y301780D01*
X148659Y301722D01*
X148478Y301666D01*
X148468Y301661D01*
X148458Y301658D01*
X148291Y301565D01*
X148124Y301474D01*
X148115Y301467D01*
X148106Y301462D01*
X147960Y301338D01*
X147815Y301217D01*
X147808Y301208D01*
X147799Y301201D01*
X147682Y301051D01*
X147562Y300903D01*
X147557Y300893D01*
X147550Y300884D01*
X147464Y300714D01*
X147377Y300546D01*
X147374Y300535D01*
X147369Y300525D01*
X147318Y300341D01*
X147266Y300159D01*
X147265Y300148D01*
X147262Y300137D01*
X147248Y299946D01*
X147233Y299757D01*
X147234Y299746D01*
X147233Y299735D01*
X147258Y299545D01*
X147280Y299358D01*
X147283Y299347D01*
X147284Y299336D01*
X147345Y299156D01*
X147404Y298975D01*
X147410Y298965D01*
X147413Y298955D01*
X147575Y298664D01*
X148007Y298018D01*
X148301Y297306D01*
X144906Y297306D01*
X144906Y300701D01*
X145166Y300594D01*
X145179Y300590D01*
X145190Y300584D01*
X145371Y300532D01*
X145551Y300478D01*
X145564Y300476D01*
X145577Y300473D01*
X145766Y300457D01*
X145952Y300439D01*
X145965Y300441D01*
X145979Y300440D01*
X146165Y300462D01*
X146352Y300481D01*
X146365Y300485D01*
X146378Y300487D01*
X146558Y300545D01*
X146737Y300601D01*
X146748Y300607D01*
X146761Y300611D01*
X146926Y300704D01*
X147090Y300794D01*
X147100Y300803D01*
X147112Y300809D01*
X147254Y300932D01*
X147398Y301053D01*
X147406Y301064D01*
X147417Y301073D01*
X147531Y301220D01*
X147649Y301368D01*
X147655Y301380D01*
X147663Y301391D01*
X147747Y301559D01*
X147833Y301726D01*
X147837Y301739D01*
X147843Y301751D01*
X147892Y301934D01*
X147943Y302114D01*
X147944Y302127D01*
X147947Y302140D01*
X147974Y302471D01*
X147974Y304539D01*
X147973Y304552D01*
X147974Y304566D01*
X147953Y304752D01*
X147934Y304939D01*
X147930Y304952D01*
X147929Y304966D01*
X147871Y305145D01*
X147816Y305324D01*
X147810Y305336D01*
X147806Y305349D01*
X147714Y305514D01*
X147624Y305678D01*
X147616Y305689D01*
X147609Y305700D01*
X147487Y305844D01*
X147367Y305988D01*
X147356Y305996D01*
X147348Y306006D01*
X147199Y306123D01*
X147053Y306240D01*
X147041Y306246D01*
X147031Y306254D01*
X146861Y306339D01*
X146696Y306426D01*
X146683Y306429D01*
X146671Y306435D01*
X146488Y306485D01*
X146309Y306537D01*
X146295Y306538D01*
X146282Y306542D01*
X146094Y306554D01*
X145907Y306570D01*
X145894Y306568D01*
X145881Y306569D01*
X145693Y306545D01*
X145508Y306523D01*
X145495Y306519D01*
X145482Y306517D01*
X145166Y306415D01*
X143919Y305899D01*
X141831Y305899D01*
X139901Y306699D01*
X138424Y308176D01*
X137624Y310106D01*
X137624Y312194D01*
X138424Y314124D01*
X139901Y315601D01*
X141831Y316401D01*
X143919Y316401D01*
X145166Y315885D01*
X145179Y315881D01*
X145190Y315874D01*
X145370Y315823D01*
X145551Y315768D01*
X145564Y315767D01*
X145577Y315763D01*
X145765Y315748D01*
X145952Y315730D01*
X145965Y315731D01*
X145979Y315730D01*
X146165Y315752D01*
X146352Y315772D01*
X146365Y315776D01*
X146378Y315777D01*
X146557Y315835D01*
X146737Y315891D01*
X146748Y315898D01*
X146761Y315902D01*
X146925Y315994D01*
X147090Y316085D01*
X147100Y316093D01*
X147112Y316100D01*
X147254Y316222D01*
X147398Y316344D01*
X147406Y316354D01*
X147417Y316363D01*
X147531Y316511D01*
X147649Y316659D01*
X147655Y316671D01*
X147663Y316681D01*
X147747Y316849D01*
X147833Y317017D01*
X147837Y317030D01*
X147843Y317042D01*
X147892Y317224D01*
X147943Y317404D01*
X147944Y317417D01*
X147947Y317430D01*
X147974Y317761D01*
X147974Y319154D01*
X149146Y320326D01*
X152443Y320326D01*
X152461Y320328D01*
X152479Y320326D01*
X152661Y320347D01*
X152844Y320366D01*
X152861Y320371D01*
X152878Y320373D01*
X153053Y320430D01*
X153229Y320484D01*
X153244Y320492D01*
X153261Y320498D01*
X153421Y320588D01*
X153583Y320676D01*
X153596Y320687D01*
X153612Y320696D01*
X153751Y320816D01*
X153892Y320933D01*
X153903Y320947D01*
X153917Y320959D01*
X154029Y321104D01*
X154144Y321247D01*
X154152Y321263D01*
X154163Y321277D01*
X154245Y321442D01*
X154330Y321604D01*
X154335Y321621D01*
X154343Y321637D01*
X154390Y321816D01*
X154441Y321991D01*
X154443Y322009D01*
X154447Y322026D01*
X154474Y322357D01*
X154474Y331021D01*
X155121Y332583D01*
X160379Y337841D01*
X160396Y337861D01*
X160417Y337879D01*
X160524Y338017D01*
X160634Y338152D01*
X160647Y338176D01*
X160663Y338197D01*
X160741Y338354D01*
X160823Y338508D01*
X160831Y338533D01*
X160843Y338558D01*
X160888Y338727D01*
X160938Y338894D01*
X160940Y338920D01*
X160947Y338946D01*
X160974Y339277D01*
X160974Y343793D01*
X160972Y343811D01*
X160974Y343829D01*
X160953Y344011D01*
X160934Y344194D01*
X160929Y344211D01*
X160927Y344228D01*
X160870Y344403D01*
X160816Y344579D01*
X160808Y344594D01*
X160802Y344611D01*
X160712Y344771D01*
X160624Y344933D01*
X160613Y344946D01*
X160604Y344962D01*
X160484Y345101D01*
X160367Y345242D01*
X160353Y345253D01*
X160341Y345267D01*
X160196Y345379D01*
X160053Y345494D01*
X160037Y345502D01*
X160023Y345513D01*
X159858Y345595D01*
X159696Y345680D01*
X159679Y345685D01*
X159663Y345693D01*
X159484Y345740D01*
X159309Y345791D01*
X159291Y345793D01*
X159274Y345797D01*
X158943Y345824D01*
X149146Y345824D01*
X147974Y346996D01*
X147974Y348318D01*
X147972Y348336D01*
X147974Y348354D01*
X147953Y348536D01*
X147934Y348719D01*
X147929Y348736D01*
X147927Y348753D01*
X147870Y348928D01*
X147816Y349104D01*
X147808Y349119D01*
X147802Y349136D01*
X147712Y349296D01*
X147624Y349458D01*
X147613Y349471D01*
X147604Y349487D01*
X147484Y349626D01*
X147367Y349767D01*
X147353Y349778D01*
X147341Y349792D01*
X147196Y349904D01*
X147053Y350019D01*
X147037Y350027D01*
X147023Y350038D01*
X146858Y350120D01*
X146696Y350205D01*
X146679Y350210D01*
X146663Y350218D01*
X146484Y350265D01*
X146309Y350316D01*
X146291Y350318D01*
X146274Y350322D01*
X145943Y350349D01*
X145006Y350349D01*
X143076Y351149D01*
X141599Y352626D01*
X140799Y354556D01*
X140799Y356644D01*
X141599Y358574D01*
X143076Y360051D01*
X145006Y360851D01*
X145943Y360851D01*
X145961Y360853D01*
X145979Y360851D01*
X146161Y360872D01*
X146344Y360891D01*
X146361Y360896D01*
X146378Y360898D01*
X146553Y360955D01*
X146729Y361009D01*
X146744Y361017D01*
X146761Y361023D01*
X146921Y361113D01*
X147083Y361201D01*
X147096Y361212D01*
X147112Y361221D01*
X147251Y361341D01*
X147392Y361458D01*
X147403Y361472D01*
X147417Y361484D01*
X147529Y361629D01*
X147644Y361772D01*
X147652Y361788D01*
X147663Y361802D01*
X147745Y361967D01*
X147830Y362129D01*
X147835Y362146D01*
X147843Y362162D01*
X147890Y362341D01*
X147941Y362516D01*
X147943Y362534D01*
X147947Y362551D01*
X147974Y362882D01*
X147974Y363154D01*
X149146Y364326D01*
X151673Y364326D01*
X151686Y364327D01*
X151700Y364326D01*
X151886Y364347D01*
X152073Y364366D01*
X152086Y364370D01*
X152100Y364371D01*
X152279Y364429D01*
X152458Y364484D01*
X152470Y364490D01*
X152483Y364494D01*
X152648Y364586D01*
X152812Y364676D01*
X152823Y364684D01*
X152834Y364691D01*
X152977Y364813D01*
X153122Y364933D01*
X153130Y364944D01*
X153140Y364952D01*
X153256Y365100D01*
X153374Y365247D01*
X153380Y365259D01*
X153388Y365269D01*
X153473Y365438D01*
X153560Y365604D01*
X153563Y365617D01*
X153569Y365629D01*
X153619Y365810D01*
X153671Y365991D01*
X153672Y366005D01*
X153676Y366018D01*
X153688Y366206D01*
X153704Y366393D01*
X153702Y366406D01*
X153703Y366419D01*
X153679Y366607D01*
X153657Y366792D01*
X153653Y366805D01*
X153651Y366818D01*
X153549Y367134D01*
X153499Y367256D01*
X153499Y369344D01*
X154299Y371274D01*
X155776Y372751D01*
X157706Y373551D01*
X159794Y373551D01*
X161724Y372751D01*
X163201Y371274D01*
X164001Y369344D01*
X164001Y367256D01*
X163951Y367134D01*
X163947Y367121D01*
X163940Y367110D01*
X163889Y366930D01*
X163834Y366749D01*
X163833Y366736D01*
X163829Y366723D01*
X163814Y366535D01*
X163796Y366348D01*
X163797Y366335D01*
X163796Y366321D01*
X163818Y366135D01*
X163838Y365948D01*
X163842Y365935D01*
X163843Y365922D01*
X163901Y365743D01*
X163957Y365563D01*
X163964Y365552D01*
X163968Y365539D01*
X164061Y365374D01*
X164151Y365210D01*
X164159Y365200D01*
X164166Y365188D01*
X164289Y365046D01*
X164410Y364902D01*
X164420Y364894D01*
X164429Y364883D01*
X164577Y364768D01*
X164725Y364651D01*
X164737Y364645D01*
X164747Y364637D01*
X164916Y364553D01*
X165083Y364467D01*
X165096Y364463D01*
X165108Y364457D01*
X165290Y364408D01*
X165470Y364357D01*
X165483Y364356D01*
X165496Y364353D01*
X165827Y364326D01*
X174804Y364326D01*
X175976Y363154D01*
X175976Y346996D01*
X174804Y345824D01*
X171507Y345824D01*
X171489Y345822D01*
X171471Y345824D01*
X171289Y345803D01*
X171106Y345784D01*
X171089Y345779D01*
X171072Y345777D01*
X170897Y345720D01*
X170721Y345666D01*
X170706Y345658D01*
X170689Y345652D01*
X170529Y345562D01*
X170367Y345474D01*
X170354Y345463D01*
X170338Y345454D01*
X170199Y345334D01*
X170058Y345217D01*
X170047Y345203D01*
X170033Y345191D01*
X169921Y345046D01*
X169806Y344903D01*
X169798Y344887D01*
X169787Y344873D01*
X169705Y344708D01*
X169620Y344546D01*
X169615Y344529D01*
X169607Y344513D01*
X169560Y344334D01*
X169509Y344159D01*
X169507Y344141D01*
X169503Y344124D01*
X169476Y343793D01*
X169476Y335829D01*
X168829Y334267D01*
X163571Y329009D01*
X163554Y328989D01*
X163533Y328971D01*
X163426Y328833D01*
X163316Y328698D01*
X163303Y328674D01*
X163287Y328653D01*
X163209Y328496D01*
X163127Y328342D01*
X163119Y328317D01*
X163107Y328292D01*
X163062Y328123D01*
X163012Y327956D01*
X163010Y327930D01*
X163003Y327904D01*
X162976Y327573D01*
X162976Y322357D01*
X162978Y322339D01*
X162976Y322321D01*
X162997Y322139D01*
X163016Y321956D01*
X163021Y321939D01*
X163023Y321922D01*
X163080Y321747D01*
X163134Y321571D01*
X163142Y321556D01*
X163148Y321539D01*
X163238Y321379D01*
X163326Y321217D01*
X163337Y321204D01*
X163346Y321188D01*
X163466Y321049D01*
X163583Y320908D01*
X163597Y320897D01*
X163609Y320883D01*
X163754Y320771D01*
X163897Y320656D01*
X163913Y320648D01*
X163927Y320637D01*
X164092Y320555D01*
X164254Y320470D01*
X164271Y320465D01*
X164287Y320457D01*
X164466Y320410D01*
X164641Y320359D01*
X164659Y320357D01*
X164676Y320353D01*
X165007Y320326D01*
X167315Y320326D01*
X167477Y320342D01*
X167641Y320352D01*
X167678Y320362D01*
X167715Y320366D01*
X167872Y320414D01*
X168030Y320456D01*
X168068Y320474D01*
X168100Y320484D01*
X168177Y320525D01*
X168330Y320598D01*
X168494Y320693D01*
X169140Y320866D01*
X169694Y320866D01*
X169694Y311075D01*
X169694Y301284D01*
X169141Y301284D01*
X168783Y301380D01*
X168702Y301393D01*
X168623Y301416D01*
X168503Y301426D01*
X168385Y301445D01*
X168303Y301442D01*
X168221Y301449D01*
X168103Y301435D01*
X167983Y301431D01*
X167903Y301412D01*
X167822Y301402D01*
X167708Y301365D01*
X167591Y301337D01*
X167517Y301303D01*
X167439Y301277D01*
X167335Y301218D01*
X167226Y301168D01*
X167160Y301120D01*
X167088Y301079D01*
X166998Y301001D01*
X166901Y300931D01*
X166846Y300870D01*
X166783Y300816D01*
X166710Y300722D01*
X166629Y300633D01*
X166587Y300563D01*
X166537Y300498D01*
X166483Y300391D01*
X166422Y300289D01*
X166394Y300211D01*
X166357Y300138D01*
X166326Y300022D01*
X166286Y299909D01*
X166274Y299828D01*
X166253Y299749D01*
X166240Y299597D01*
X166228Y299511D01*
X166230Y299471D01*
X166226Y299418D01*
X166226Y291351D01*
X166239Y291215D01*
X166244Y291077D01*
X166259Y291015D01*
X166266Y290951D01*
X166306Y290820D01*
X166338Y290686D01*
X166365Y290627D01*
X166384Y290566D01*
X166449Y290445D01*
X166507Y290320D01*
X166545Y290269D01*
X166576Y290212D01*
X166664Y290106D01*
X166745Y289995D01*
X166792Y289952D01*
X166833Y289903D01*
X166940Y289816D01*
X167042Y289724D01*
X167097Y289691D01*
X167147Y289650D01*
X167269Y289587D01*
X167387Y289516D01*
X167447Y289494D01*
X167504Y289465D01*
X167636Y289427D01*
X167766Y289380D01*
X167829Y289371D01*
X167891Y289353D01*
X168028Y289342D01*
X168164Y289322D01*
X168228Y289326D01*
X168293Y289321D01*
X168429Y289337D01*
X168566Y289344D01*
X168628Y289360D01*
X168692Y289367D01*
X168823Y289410D01*
X168956Y289444D01*
X169014Y289472D01*
X169075Y289492D01*
X169195Y289560D01*
X169319Y289620D01*
X169370Y289658D01*
X169426Y289690D01*
X169530Y289780D01*
X169639Y289863D01*
X169682Y289911D01*
X169730Y289953D01*
X169815Y290062D01*
X169906Y290165D01*
X169938Y290221D01*
X169977Y290271D01*
X170038Y290394D01*
X170107Y290513D01*
X170132Y290583D01*
X170157Y290632D01*
X170177Y290709D01*
X170219Y290826D01*
X170307Y291156D01*
X170642Y291735D01*
X171115Y292208D01*
X171694Y292543D01*
X172340Y292716D01*
X172644Y292716D01*
X172644Y286675D01*
X172645Y286658D01*
X172644Y286640D01*
X172665Y286457D01*
X172683Y286275D01*
X172689Y286258D01*
X172691Y286240D01*
X172748Y286065D01*
X172802Y285890D01*
X172810Y285874D01*
X172816Y285857D01*
X172906Y285697D01*
X172993Y285536D01*
X173005Y285522D01*
X173014Y285507D01*
X173134Y285367D01*
X173251Y285227D01*
X173265Y285215D01*
X173277Y285202D01*
X173422Y285089D01*
X173565Y284974D01*
X173581Y284966D01*
X173595Y284955D01*
X173760Y284873D01*
X173922Y284789D01*
X173939Y284784D01*
X173955Y284776D01*
X174133Y284728D01*
X174309Y284677D01*
X174327Y284676D01*
X174344Y284671D01*
X174675Y284644D01*
X174693Y284646D01*
X174710Y284644D01*
X174711Y284644D01*
X174893Y284666D01*
X175076Y284684D01*
X175093Y284689D01*
X175111Y284691D01*
X175285Y284748D01*
X175461Y284802D01*
X175476Y284811D01*
X175493Y284816D01*
X175654Y284907D01*
X175815Y284994D01*
X175828Y285005D01*
X175844Y285014D01*
X175983Y285134D01*
X176124Y285252D01*
X176135Y285266D01*
X176149Y285277D01*
X176261Y285422D01*
X176376Y285565D01*
X176385Y285581D01*
X176395Y285595D01*
X176477Y285760D01*
X176562Y285923D01*
X176567Y285940D01*
X176575Y285956D01*
X176623Y286134D01*
X176673Y286310D01*
X176675Y286327D01*
X176679Y286345D01*
X176706Y286675D01*
X176706Y292716D01*
X177010Y292716D01*
X177656Y292543D01*
X178235Y292208D01*
X178708Y291735D01*
X179043Y291156D01*
X179131Y290826D01*
X179179Y290697D01*
X179220Y290566D01*
X179250Y290509D01*
X179273Y290449D01*
X179346Y290333D01*
X179412Y290212D01*
X179453Y290163D01*
X179487Y290108D01*
X179582Y290008D01*
X179669Y289903D01*
X179719Y289862D01*
X179764Y289816D01*
X179876Y289736D01*
X179983Y289650D01*
X180040Y289621D01*
X180093Y289584D01*
X180219Y289528D01*
X180340Y289465D01*
X180402Y289447D01*
X180461Y289421D01*
X180595Y289391D01*
X180727Y289353D01*
X180792Y289348D01*
X180854Y289334D01*
X180991Y289332D01*
X181129Y289321D01*
X181193Y289328D01*
X181257Y289327D01*
X181392Y289351D01*
X181528Y289367D01*
X181590Y289387D01*
X181653Y289399D01*
X181780Y289450D01*
X181911Y289492D01*
X181967Y289524D01*
X182027Y289548D01*
X182142Y289623D01*
X182262Y289690D01*
X182311Y289732D01*
X182364Y289767D01*
X182462Y289863D01*
X182567Y289953D01*
X182606Y290004D01*
X182652Y290049D01*
X182729Y290163D01*
X182813Y290271D01*
X182842Y290329D01*
X182878Y290382D01*
X182931Y290509D01*
X182993Y290632D01*
X183009Y290694D01*
X183034Y290753D01*
X183061Y290888D01*
X183097Y291021D01*
X183103Y291094D01*
X183114Y291148D01*
X183114Y291228D01*
X183124Y291351D01*
X183124Y292996D01*
X183771Y294558D01*
X187706Y298492D01*
X187717Y298506D01*
X187731Y298518D01*
X187845Y298662D01*
X187961Y298804D01*
X187969Y298819D01*
X187980Y298833D01*
X188063Y298997D01*
X188149Y299159D01*
X188155Y299176D01*
X188163Y299192D01*
X188212Y299369D01*
X188264Y299545D01*
X188266Y299563D01*
X188271Y299580D01*
X188284Y299763D01*
X188301Y299946D01*
X188299Y299964D01*
X188300Y299982D01*
X188277Y300164D01*
X188257Y300347D01*
X188252Y300364D01*
X188250Y300381D01*
X188191Y300555D01*
X188136Y300730D01*
X188127Y300746D01*
X188121Y300763D01*
X188030Y300922D01*
X187941Y301083D01*
X187929Y301096D01*
X187920Y301112D01*
X187706Y301365D01*
X186074Y302996D01*
X186074Y304539D01*
X186073Y304552D01*
X186074Y304566D01*
X186053Y304752D01*
X186034Y304940D01*
X186030Y304952D01*
X186029Y304966D01*
X185971Y305144D01*
X185916Y305324D01*
X185910Y305336D01*
X185906Y305349D01*
X185814Y305513D01*
X185724Y305678D01*
X185716Y305689D01*
X185709Y305700D01*
X185587Y305844D01*
X185467Y305988D01*
X185456Y305996D01*
X185448Y306006D01*
X185299Y306123D01*
X185153Y306240D01*
X185141Y306246D01*
X185131Y306255D01*
X184961Y306339D01*
X184796Y306426D01*
X184783Y306429D01*
X184771Y306435D01*
X184589Y306485D01*
X184409Y306537D01*
X184395Y306538D01*
X184382Y306542D01*
X184196Y306554D01*
X184007Y306570D01*
X183994Y306568D01*
X183981Y306569D01*
X183795Y306545D01*
X183608Y306523D01*
X183595Y306519D01*
X183582Y306517D01*
X183266Y306416D01*
X182019Y305899D01*
X179931Y305899D01*
X179324Y306150D01*
X179311Y306154D01*
X179300Y306160D01*
X179119Y306212D01*
X178939Y306267D01*
X178926Y306268D01*
X178913Y306272D01*
X178724Y306287D01*
X178538Y306305D01*
X178525Y306304D01*
X178511Y306305D01*
X178325Y306283D01*
X178138Y306263D01*
X178125Y306259D01*
X178112Y306258D01*
X177934Y306200D01*
X177753Y306144D01*
X177742Y306137D01*
X177729Y306133D01*
X177565Y306040D01*
X177400Y305950D01*
X177390Y305942D01*
X177378Y305935D01*
X177236Y305812D01*
X177092Y305691D01*
X177084Y305681D01*
X177073Y305672D01*
X176959Y305524D01*
X176841Y305376D01*
X176835Y305364D01*
X176827Y305354D01*
X176743Y305186D01*
X176657Y305018D01*
X176653Y305005D01*
X176647Y304993D01*
X176598Y304811D01*
X176547Y304631D01*
X176546Y304618D01*
X176543Y304604D01*
X176516Y304274D01*
X176516Y303490D01*
X176343Y302844D01*
X176008Y302265D01*
X175535Y301792D01*
X174956Y301457D01*
X174310Y301284D01*
X173756Y301284D01*
X173756Y311075D01*
X173756Y320866D01*
X174310Y320866D01*
X174956Y320693D01*
X175535Y320358D01*
X176008Y319885D01*
X176343Y319306D01*
X176516Y318660D01*
X176516Y318026D01*
X176517Y318013D01*
X176516Y318000D01*
X176537Y317813D01*
X176556Y317626D01*
X176560Y317613D01*
X176561Y317599D01*
X176618Y317421D01*
X176674Y317241D01*
X176680Y317229D01*
X176684Y317216D01*
X176776Y317052D01*
X176866Y316887D01*
X176874Y316876D01*
X176881Y316865D01*
X177004Y316721D01*
X177123Y316577D01*
X177134Y316569D01*
X177142Y316559D01*
X177291Y316442D01*
X177437Y316325D01*
X177449Y316319D01*
X177459Y316311D01*
X177629Y316226D01*
X177794Y316140D01*
X177807Y316136D01*
X177819Y316130D01*
X178001Y316080D01*
X178181Y316028D01*
X178195Y316027D01*
X178208Y316024D01*
X178394Y316011D01*
X178583Y315995D01*
X178596Y315997D01*
X178609Y315996D01*
X178796Y316020D01*
X178982Y316042D01*
X178995Y316046D01*
X179008Y316048D01*
X179324Y316150D01*
X179931Y316401D01*
X182019Y316401D01*
X183266Y315884D01*
X183279Y315881D01*
X183290Y315874D01*
X183471Y315823D01*
X183651Y315768D01*
X183664Y315767D01*
X183677Y315763D01*
X183866Y315748D01*
X184052Y315730D01*
X184065Y315731D01*
X184079Y315730D01*
X184265Y315752D01*
X184452Y315772D01*
X184465Y315776D01*
X184478Y315777D01*
X184656Y315835D01*
X184837Y315891D01*
X184848Y315898D01*
X184861Y315902D01*
X185025Y315994D01*
X185190Y316085D01*
X185200Y316093D01*
X185212Y316100D01*
X185354Y316223D01*
X185498Y316344D01*
X185506Y316354D01*
X185517Y316363D01*
X185631Y316511D01*
X185749Y316659D01*
X185755Y316671D01*
X185763Y316681D01*
X185847Y316849D01*
X185933Y317017D01*
X185937Y317030D01*
X185943Y317042D01*
X185992Y317224D01*
X186043Y317404D01*
X186044Y317417D01*
X186047Y317430D01*
X186074Y317761D01*
X186074Y319154D01*
X187246Y320326D01*
X190543Y320326D01*
X190561Y320328D01*
X190579Y320326D01*
X190761Y320347D01*
X190944Y320366D01*
X190961Y320371D01*
X190978Y320373D01*
X191153Y320430D01*
X191329Y320484D01*
X191344Y320492D01*
X191361Y320498D01*
X191521Y320588D01*
X191683Y320676D01*
X191696Y320687D01*
X191712Y320696D01*
X191851Y320816D01*
X191992Y320933D01*
X192003Y320947D01*
X192017Y320959D01*
X192129Y321104D01*
X192244Y321247D01*
X192252Y321263D01*
X192263Y321277D01*
X192345Y321442D01*
X192430Y321604D01*
X192435Y321621D01*
X192443Y321637D01*
X192490Y321816D01*
X192541Y321991D01*
X192543Y322009D01*
X192547Y322026D01*
X192574Y322357D01*
X192574Y331020D01*
X192842Y331666D01*
X192845Y331679D01*
X192852Y331690D01*
X192903Y331871D01*
X192958Y332051D01*
X192959Y332064D01*
X192963Y332077D01*
X192978Y332266D01*
X192996Y332452D01*
X192995Y332465D01*
X192996Y332479D01*
X192974Y332665D01*
X192954Y332852D01*
X192950Y332865D01*
X192949Y332878D01*
X192891Y333056D01*
X192835Y333237D01*
X192828Y333248D01*
X192824Y333261D01*
X192732Y333425D01*
X192641Y333590D01*
X192633Y333600D01*
X192626Y333612D01*
X192503Y333754D01*
X192382Y333898D01*
X192372Y333906D01*
X192363Y333917D01*
X192214Y334032D01*
X192067Y334149D01*
X192056Y334155D01*
X192045Y334163D01*
X191876Y334247D01*
X191709Y334333D01*
X191696Y334337D01*
X191684Y334343D01*
X191502Y334392D01*
X191322Y334443D01*
X191309Y334444D01*
X191296Y334447D01*
X190965Y334474D01*
X189456Y334474D01*
X187526Y335274D01*
X186049Y336751D01*
X185249Y338681D01*
X185249Y340769D01*
X185920Y342388D01*
X185929Y342418D01*
X185943Y342446D01*
X185987Y342610D01*
X186036Y342773D01*
X186039Y342804D01*
X186047Y342834D01*
X186074Y343165D01*
X186074Y363154D01*
X187246Y364326D01*
X189773Y364326D01*
X189786Y364327D01*
X189800Y364326D01*
X189987Y364347D01*
X190174Y364366D01*
X190186Y364370D01*
X190200Y364371D01*
X190379Y364429D01*
X190558Y364484D01*
X190570Y364490D01*
X190583Y364494D01*
X190747Y364586D01*
X190912Y364676D01*
X190923Y364684D01*
X190935Y364691D01*
X191078Y364813D01*
X191222Y364933D01*
X191230Y364944D01*
X191240Y364953D01*
X191357Y365101D01*
X191474Y365247D01*
X191480Y365259D01*
X191489Y365270D01*
X191573Y365439D01*
X191660Y365604D01*
X191663Y365617D01*
X191669Y365629D01*
X191719Y365811D01*
X191771Y365991D01*
X191772Y366005D01*
X191776Y366018D01*
X191788Y366204D01*
X191804Y366393D01*
X191802Y366406D01*
X191803Y366419D01*
X191779Y366606D01*
X191757Y366792D01*
X191753Y366805D01*
X191751Y366819D01*
X191649Y367134D01*
X191599Y367256D01*
X191599Y369344D01*
X192399Y371274D01*
X193876Y372751D01*
X195806Y373551D01*
X197894Y373551D01*
X199824Y372751D01*
X201301Y371274D01*
X202101Y369344D01*
X202101Y367256D01*
X202051Y367134D01*
X202047Y367121D01*
X202040Y367110D01*
X201989Y366930D01*
X201934Y366749D01*
X201933Y366736D01*
X201929Y366723D01*
X201914Y366535D01*
X201896Y366348D01*
X201897Y366335D01*
X201896Y366321D01*
X201918Y366134D01*
X201938Y365948D01*
X201942Y365935D01*
X201943Y365922D01*
X202001Y365743D01*
X202057Y365563D01*
X202064Y365552D01*
X202068Y365539D01*
X202161Y365374D01*
X202251Y365210D01*
X202259Y365200D01*
X202266Y365188D01*
X202389Y365046D01*
X202510Y364902D01*
X202520Y364894D01*
X202529Y364883D01*
X202677Y364768D01*
X202825Y364651D01*
X202836Y364645D01*
X202847Y364637D01*
X203016Y364553D01*
X203183Y364467D01*
X203196Y364463D01*
X203208Y364457D01*
X203390Y364408D01*
X203570Y364357D01*
X203583Y364356D01*
X203596Y364353D01*
X203927Y364326D01*
X212904Y364326D01*
X214076Y363154D01*
X214076Y346996D01*
X212904Y345824D01*
X209607Y345824D01*
X209589Y345822D01*
X209571Y345824D01*
X209389Y345803D01*
X209206Y345784D01*
X209189Y345779D01*
X209172Y345777D01*
X208997Y345720D01*
X208821Y345666D01*
X208806Y345658D01*
X208789Y345652D01*
X208629Y345562D01*
X208467Y345474D01*
X208454Y345463D01*
X208438Y345454D01*
X208299Y345334D01*
X208158Y345217D01*
X208147Y345203D01*
X208133Y345191D01*
X208021Y345046D01*
X207906Y344903D01*
X207898Y344887D01*
X207887Y344873D01*
X207805Y344708D01*
X207720Y344546D01*
X207715Y344529D01*
X207707Y344513D01*
X207660Y344334D01*
X207609Y344159D01*
X207607Y344141D01*
X207603Y344124D01*
X207576Y343793D01*
X207576Y335829D01*
X206929Y334267D01*
X201671Y329009D01*
X201654Y328989D01*
X201633Y328971D01*
X201526Y328833D01*
X201416Y328698D01*
X201403Y328674D01*
X201387Y328653D01*
X201309Y328496D01*
X201227Y328342D01*
X201219Y328317D01*
X201207Y328292D01*
X201162Y328123D01*
X201112Y327956D01*
X201110Y327930D01*
X201103Y327904D01*
X201076Y327573D01*
X201076Y322357D01*
X201078Y322339D01*
X201076Y322321D01*
X201097Y322139D01*
X201116Y321956D01*
X201121Y321939D01*
X201123Y321922D01*
X201180Y321747D01*
X201234Y321571D01*
X201242Y321556D01*
X201248Y321539D01*
X201338Y321379D01*
X201426Y321217D01*
X201437Y321204D01*
X201446Y321188D01*
X201566Y321049D01*
X201683Y320908D01*
X201697Y320897D01*
X201709Y320883D01*
X201854Y320771D01*
X201997Y320656D01*
X202013Y320648D01*
X202027Y320637D01*
X202192Y320555D01*
X202354Y320470D01*
X202371Y320465D01*
X202387Y320457D01*
X202566Y320410D01*
X202741Y320359D01*
X202759Y320357D01*
X202776Y320353D01*
X203107Y320326D01*
X212904Y320326D01*
X214076Y319154D01*
X214076Y301054D01*
X213429Y299492D01*
X204921Y290984D01*
X204904Y290964D01*
X204883Y290946D01*
X204776Y290808D01*
X204666Y290673D01*
X204653Y290649D01*
X204637Y290628D01*
X204559Y290471D01*
X204477Y290317D01*
X204469Y290292D01*
X204457Y290267D01*
X204412Y290098D01*
X204362Y289931D01*
X204360Y289905D01*
X204353Y289879D01*
X204326Y289548D01*
X204326Y272204D01*
X203679Y270642D01*
X202483Y269446D01*
X201438Y269014D01*
X201426Y269007D01*
X201413Y269003D01*
X201249Y268912D01*
X201083Y268823D01*
X201073Y268815D01*
X201061Y268808D01*
X200918Y268687D01*
X200773Y268567D01*
X200764Y268557D01*
X200754Y268548D01*
X200637Y268400D01*
X200519Y268254D01*
X200513Y268242D01*
X200504Y268232D01*
X200419Y268065D01*
X200332Y267898D01*
X200328Y267885D01*
X200322Y267873D01*
X200271Y267692D01*
X200219Y267511D01*
X200218Y267498D01*
X200214Y267485D01*
X200200Y267296D01*
X200184Y267110D01*
X200186Y267097D01*
X200185Y267084D01*
X200208Y266896D01*
X200229Y266710D01*
X200233Y266697D01*
X200235Y266684D01*
X200295Y266506D01*
X200352Y266327D01*
X200359Y266315D01*
X200363Y266302D01*
X200457Y266140D01*
X200549Y265975D01*
X200558Y265965D01*
X200564Y265954D01*
X200779Y265701D01*
X202476Y264004D01*
X202476Y261207D01*
X202478Y261189D01*
X202476Y261171D01*
X202497Y260989D01*
X202516Y260806D01*
X202521Y260789D01*
X202523Y260772D01*
X202580Y260597D01*
X202634Y260421D01*
X202642Y260406D01*
X202648Y260389D01*
X202738Y260229D01*
X202826Y260067D01*
X202837Y260054D01*
X202846Y260038D01*
X202966Y259899D01*
X203083Y259758D01*
X203097Y259747D01*
X203109Y259733D01*
X203254Y259621D01*
X203397Y259506D01*
X203413Y259498D01*
X203427Y259487D01*
X203592Y259405D01*
X203754Y259320D01*
X203771Y259315D01*
X203787Y259307D01*
X203966Y259260D01*
X204141Y259209D01*
X204159Y259207D01*
X204176Y259203D01*
X204507Y259176D01*
X207304Y259176D01*
X208476Y258004D01*
X208476Y251346D01*
X207304Y250174D01*
X204507Y250174D01*
X204489Y250172D01*
X204471Y250174D01*
X204289Y250153D01*
X204106Y250134D01*
X204089Y250129D01*
X204072Y250127D01*
X203897Y250070D01*
X203721Y250016D01*
X203706Y250008D01*
X203689Y250002D01*
X203529Y249912D01*
X203367Y249824D01*
X203354Y249813D01*
X203338Y249804D01*
X203199Y249684D01*
X203058Y249567D01*
X203047Y249553D01*
X203033Y249541D01*
X202921Y249396D01*
X202806Y249253D01*
X202798Y249237D01*
X202787Y249223D01*
X202705Y249058D01*
X202620Y248896D01*
X202615Y248879D01*
X202607Y248863D01*
X202560Y248684D01*
X202509Y248509D01*
X202507Y248491D01*
X202503Y248474D01*
X202476Y248143D01*
X202476Y231207D01*
X202478Y231189D01*
X202476Y231171D01*
X202497Y230989D01*
X202516Y230806D01*
X202521Y230789D01*
X202523Y230772D01*
X202580Y230597D01*
X202634Y230421D01*
X202642Y230406D01*
X202648Y230389D01*
X202738Y230229D01*
X202826Y230067D01*
X202837Y230054D01*
X202846Y230038D01*
X202966Y229899D01*
X203083Y229758D01*
X203097Y229747D01*
X203109Y229733D01*
X203254Y229621D01*
X203397Y229506D01*
X203413Y229498D01*
X203427Y229487D01*
X203592Y229405D01*
X203754Y229320D01*
X203771Y229315D01*
X203787Y229307D01*
X203966Y229260D01*
X204141Y229209D01*
X204159Y229207D01*
X204176Y229203D01*
X204507Y229176D01*
X206304Y229176D01*
X207476Y228004D01*
X207476Y227171D01*
X207478Y227153D01*
X207476Y227135D01*
X207497Y226953D01*
X207516Y226770D01*
X207521Y226753D01*
X207523Y226736D01*
X207580Y226561D01*
X207634Y226385D01*
X207642Y226370D01*
X207648Y226353D01*
X207738Y226193D01*
X207826Y226031D01*
X207837Y226018D01*
X207846Y226002D01*
X207966Y225863D01*
X208083Y225722D01*
X208097Y225711D01*
X208109Y225697D01*
X208254Y225585D01*
X208397Y225470D01*
X208413Y225462D01*
X208427Y225451D01*
X208592Y225369D01*
X208754Y225284D01*
X208771Y225279D01*
X208787Y225271D01*
X208966Y225224D01*
X209141Y225173D01*
X209159Y225171D01*
X209176Y225167D01*
X209507Y225140D01*
X228473Y225140D01*
X228499Y225142D01*
X228526Y225140D01*
X228700Y225162D01*
X228873Y225180D01*
X228899Y225187D01*
X228925Y225191D01*
X229091Y225246D01*
X229258Y225298D01*
X229282Y225311D01*
X229307Y225319D01*
X229459Y225406D01*
X229612Y225490D01*
X229633Y225507D01*
X229656Y225520D01*
X229909Y225735D01*
X231405Y227231D01*
X234941Y228696D01*
X254009Y228696D01*
X257545Y227231D01*
X260251Y224525D01*
X261716Y220989D01*
X261716Y217161D01*
X260251Y213625D01*
X257545Y210919D01*
X254009Y209454D01*
X234941Y209454D01*
X231405Y210919D01*
X229909Y212415D01*
X229888Y212432D01*
X229871Y212453D01*
X229733Y212560D01*
X229597Y212670D01*
X229574Y212683D01*
X229553Y212699D01*
X229396Y212777D01*
X229242Y212859D01*
X229216Y212867D01*
X229192Y212879D01*
X229023Y212924D01*
X228856Y212974D01*
X228829Y212976D01*
X228803Y212983D01*
X228473Y213010D01*
X202373Y213010D01*
X202355Y213008D01*
X202337Y213010D01*
X202155Y212989D01*
X201972Y212970D01*
X201955Y212965D01*
X201938Y212963D01*
X201763Y212906D01*
X201587Y212852D01*
X201572Y212844D01*
X201555Y212838D01*
X201395Y212748D01*
X201233Y212660D01*
X201220Y212649D01*
X201204Y212640D01*
X201065Y212520D01*
X200924Y212403D01*
X200913Y212389D01*
X200899Y212377D01*
X200787Y212232D01*
X200672Y212089D01*
X200664Y212073D01*
X200653Y212059D01*
X200571Y211894D01*
X200486Y211732D01*
X200481Y211715D01*
X200473Y211699D01*
X200426Y211520D01*
X200375Y211345D01*
X200373Y211327D01*
X200369Y211310D01*
X200342Y210979D01*
X200342Y193607D01*
X200344Y193589D01*
X200342Y193571D01*
X200363Y193389D01*
X200382Y193206D01*
X200387Y193189D01*
X200389Y193172D01*
X200446Y192997D01*
X200500Y192821D01*
X200508Y192806D01*
X200514Y192789D01*
X200604Y192629D01*
X200692Y192467D01*
X200703Y192454D01*
X200712Y192438D01*
X200832Y192299D01*
X200949Y192158D01*
X200963Y192147D01*
X200975Y192133D01*
X201120Y192021D01*
X201263Y191906D01*
X201279Y191898D01*
X201293Y191887D01*
X201458Y191805D01*
X201620Y191720D01*
X201637Y191715D01*
X201653Y191707D01*
X201832Y191660D01*
X202007Y191609D01*
X202025Y191607D01*
X202042Y191603D01*
X202373Y191576D01*
X206304Y191576D01*
X207476Y190404D01*
X207476Y184746D01*
X206304Y183574D01*
X204507Y183574D01*
X204489Y183572D01*
X204471Y183574D01*
X204289Y183553D01*
X204106Y183534D01*
X204089Y183529D01*
X204072Y183527D01*
X203897Y183470D01*
X203721Y183416D01*
X203706Y183408D01*
X203689Y183402D01*
X203529Y183312D01*
X203367Y183224D01*
X203354Y183213D01*
X203338Y183204D01*
X203199Y183084D01*
X203058Y182967D01*
X203047Y182953D01*
X203033Y182941D01*
X202921Y182796D01*
X202806Y182653D01*
X202798Y182637D01*
X202787Y182623D01*
X202705Y182458D01*
X202620Y182296D01*
X202615Y182279D01*
X202607Y182263D01*
X202560Y182084D01*
X202509Y181909D01*
X202507Y181891D01*
X202503Y181874D01*
X202476Y181543D01*
X202476Y164607D01*
X202478Y164589D01*
X202476Y164571D01*
X202497Y164389D01*
X202516Y164206D01*
X202521Y164189D01*
X202523Y164172D01*
X202580Y163997D01*
X202634Y163821D01*
X202642Y163806D01*
X202648Y163789D01*
X202738Y163629D01*
X202826Y163467D01*
X202837Y163454D01*
X202846Y163438D01*
X202966Y163299D01*
X203083Y163158D01*
X203097Y163147D01*
X203109Y163133D01*
X203254Y163021D01*
X203397Y162906D01*
X203413Y162898D01*
X203427Y162887D01*
X203592Y162805D01*
X203754Y162720D01*
X203771Y162715D01*
X203787Y162707D01*
X203966Y162660D01*
X204141Y162609D01*
X204159Y162607D01*
X204176Y162603D01*
X204507Y162576D01*
X207304Y162576D01*
X208476Y161404D01*
X208476Y154746D01*
X207304Y153574D01*
X204507Y153574D01*
X204489Y153572D01*
X204471Y153574D01*
X204289Y153553D01*
X204106Y153534D01*
X204089Y153529D01*
X204072Y153527D01*
X203897Y153470D01*
X203721Y153416D01*
X203706Y153408D01*
X203689Y153402D01*
X203529Y153312D01*
X203367Y153224D01*
X203354Y153213D01*
X203338Y153204D01*
X203199Y153084D01*
X203058Y152967D01*
X203047Y152953D01*
X203033Y152941D01*
X202921Y152796D01*
X202806Y152653D01*
X202798Y152637D01*
X202787Y152623D01*
X202705Y152458D01*
X202620Y152296D01*
X202615Y152279D01*
X202607Y152263D01*
X202560Y152084D01*
X202509Y151909D01*
X202507Y151891D01*
X202503Y151874D01*
X202476Y151543D01*
X202476Y148746D01*
X201304Y147574D01*
X189634Y147574D01*
X189630Y147574D01*
X189625Y147574D01*
X189432Y147554D01*
X189234Y147534D01*
X189229Y147533D01*
X189225Y147533D01*
X189039Y147475D01*
X188849Y147416D01*
X188845Y147414D01*
X188841Y147413D01*
X188669Y147319D01*
X188495Y147224D01*
X188491Y147222D01*
X188487Y147219D01*
X188336Y147092D01*
X188185Y146967D01*
X188183Y146963D01*
X188179Y146960D01*
X188056Y146806D01*
X187933Y146653D01*
X187931Y146649D01*
X187928Y146646D01*
X187837Y146469D01*
X187748Y146296D01*
X187746Y146291D01*
X187744Y146287D01*
X187691Y146100D01*
X187636Y145909D01*
X187636Y145904D01*
X187635Y145900D01*
X187620Y145707D01*
X187603Y145507D01*
X187604Y145503D01*
X187604Y145499D01*
X187627Y145305D01*
X187650Y145108D01*
X187652Y145103D01*
X187652Y145099D01*
X187713Y144914D01*
X187775Y144725D01*
X187777Y144721D01*
X187779Y144717D01*
X187877Y144545D01*
X187973Y144374D01*
X187976Y144371D01*
X187978Y144367D01*
X188110Y144216D01*
X188236Y144070D01*
X188240Y144067D01*
X188243Y144063D01*
X188399Y143943D01*
X188554Y143823D01*
X188558Y143821D01*
X188562Y143818D01*
X188857Y143666D01*
X189733Y143304D01*
X190929Y142108D01*
X191576Y140546D01*
X191576Y125136D01*
X191564Y125097D01*
X191561Y125066D01*
X191553Y125035D01*
X191526Y124705D01*
X191526Y116952D01*
X191528Y116926D01*
X191526Y116899D01*
X191548Y116725D01*
X191566Y116551D01*
X191573Y116526D01*
X191577Y116500D01*
X191632Y116334D01*
X191684Y116167D01*
X191697Y116143D01*
X191705Y116118D01*
X191792Y115966D01*
X191876Y115813D01*
X191893Y115792D01*
X191906Y115769D01*
X192121Y115516D01*
X192257Y115380D01*
X192264Y115374D01*
X192269Y115367D01*
X192419Y115247D01*
X192568Y115125D01*
X192576Y115121D01*
X192583Y115115D01*
X192753Y115027D01*
X192924Y114936D01*
X192932Y114933D01*
X192940Y114929D01*
X193125Y114876D01*
X193310Y114821D01*
X193319Y114820D01*
X193327Y114818D01*
X193519Y114802D01*
X193711Y114785D01*
X193720Y114786D01*
X193729Y114785D01*
X193919Y114807D01*
X194111Y114828D01*
X194119Y114831D01*
X194128Y114832D01*
X194312Y114892D01*
X194495Y114950D01*
X194503Y114954D01*
X194511Y114957D01*
X194680Y115052D01*
X194847Y115144D01*
X194854Y115150D01*
X194862Y115155D01*
X195008Y115281D01*
X195154Y115405D01*
X195160Y115412D01*
X195167Y115418D01*
X195284Y115570D01*
X195404Y115721D01*
X195408Y115729D01*
X195413Y115736D01*
X195499Y115909D01*
X195586Y116080D01*
X195589Y116088D01*
X195593Y116097D01*
X195643Y116284D01*
X195694Y116468D01*
X195695Y116476D01*
X195697Y116485D01*
X195724Y116816D01*
X195724Y126921D01*
X195820Y127151D01*
X195829Y127181D01*
X195843Y127209D01*
X195887Y127373D01*
X195936Y127536D01*
X195939Y127567D01*
X195947Y127597D01*
X195974Y127928D01*
X195974Y130404D01*
X197146Y131576D01*
X202804Y131576D01*
X203976Y130404D01*
X203976Y127928D01*
X203979Y127897D01*
X203977Y127866D01*
X203999Y127697D01*
X204016Y127528D01*
X204025Y127498D01*
X204029Y127467D01*
X204130Y127151D01*
X204226Y126921D01*
X204226Y116229D01*
X204228Y116203D01*
X204226Y116176D01*
X204248Y116002D01*
X204266Y115829D01*
X204273Y115803D01*
X204277Y115776D01*
X204332Y115611D01*
X204384Y115444D01*
X204397Y115420D01*
X204405Y115395D01*
X204492Y115243D01*
X204576Y115090D01*
X204593Y115069D01*
X204606Y115046D01*
X204821Y114793D01*
X206829Y112785D01*
X207079Y112180D01*
X207090Y112160D01*
X207097Y112139D01*
X207185Y111982D01*
X207270Y111825D01*
X207284Y111808D01*
X207295Y111788D01*
X207412Y111652D01*
X207526Y111514D01*
X207543Y111500D01*
X207558Y111483D01*
X207699Y111374D01*
X207839Y111261D01*
X207858Y111250D01*
X207876Y111237D01*
X208037Y111157D01*
X208195Y111074D01*
X208216Y111067D01*
X208236Y111057D01*
X208410Y111011D01*
X208581Y110961D01*
X208604Y110959D01*
X208625Y110953D01*
X208956Y110926D01*
X212804Y110926D01*
X213976Y109754D01*
X213976Y108211D01*
X213977Y108198D01*
X213976Y108184D01*
X213997Y107998D01*
X214016Y107811D01*
X214020Y107798D01*
X214021Y107784D01*
X214079Y107605D01*
X214134Y107426D01*
X214140Y107414D01*
X214144Y107401D01*
X214236Y107236D01*
X214326Y107072D01*
X214334Y107061D01*
X214341Y107050D01*
X214463Y106906D01*
X214583Y106762D01*
X214594Y106754D01*
X214602Y106744D01*
X214751Y106627D01*
X214897Y106510D01*
X214909Y106504D01*
X214919Y106496D01*
X215089Y106411D01*
X215254Y106324D01*
X215267Y106321D01*
X215279Y106315D01*
X215462Y106265D01*
X215641Y106213D01*
X215655Y106212D01*
X215668Y106208D01*
X215856Y106196D01*
X216043Y106180D01*
X216056Y106182D01*
X216069Y106181D01*
X216257Y106205D01*
X216442Y106227D01*
X216455Y106231D01*
X216468Y106233D01*
X216784Y106335D01*
X218031Y106851D01*
X220119Y106851D01*
X222049Y106051D01*
X223526Y104574D01*
X224326Y102644D01*
X224326Y100556D01*
X223526Y98626D01*
X222049Y97149D01*
X220119Y96349D01*
X218031Y96349D01*
X216784Y96865D01*
X216771Y96869D01*
X216760Y96876D01*
X216580Y96927D01*
X216399Y96982D01*
X216386Y96983D01*
X216373Y96987D01*
X216185Y97002D01*
X215998Y97020D01*
X215985Y97019D01*
X215971Y97020D01*
X215785Y96998D01*
X215598Y96978D01*
X215585Y96974D01*
X215572Y96973D01*
X215393Y96915D01*
X215213Y96859D01*
X215202Y96852D01*
X215189Y96848D01*
X215025Y96756D01*
X214860Y96665D01*
X214850Y96657D01*
X214838Y96650D01*
X214696Y96528D01*
X214552Y96406D01*
X214544Y96396D01*
X214533Y96387D01*
X214419Y96239D01*
X214301Y96091D01*
X214295Y96079D01*
X214287Y96069D01*
X214203Y95901D01*
X214117Y95733D01*
X214113Y95720D01*
X214107Y95708D01*
X214058Y95526D01*
X214007Y95346D01*
X214006Y95333D01*
X214003Y95320D01*
X213976Y94989D01*
X213976Y93596D01*
X212804Y92424D01*
X209507Y92424D01*
X209489Y92422D01*
X209471Y92424D01*
X209289Y92403D01*
X209106Y92384D01*
X209089Y92379D01*
X209072Y92377D01*
X208897Y92320D01*
X208721Y92266D01*
X208706Y92258D01*
X208689Y92252D01*
X208529Y92162D01*
X208367Y92074D01*
X208354Y92063D01*
X208338Y92054D01*
X208199Y91934D01*
X208058Y91817D01*
X208047Y91803D01*
X208033Y91791D01*
X207921Y91646D01*
X207806Y91503D01*
X207798Y91487D01*
X207787Y91473D01*
X207705Y91308D01*
X207620Y91146D01*
X207615Y91129D01*
X207607Y91113D01*
X207560Y90934D01*
X207509Y90759D01*
X207507Y90741D01*
X207503Y90724D01*
X207476Y90393D01*
X207476Y81730D01*
X207208Y81084D01*
X207205Y81071D01*
X207198Y81060D01*
X207147Y80879D01*
X207092Y80699D01*
X207091Y80686D01*
X207087Y80673D01*
X207072Y80484D01*
X207054Y80298D01*
X207055Y80285D01*
X207054Y80271D01*
X207076Y80085D01*
X207096Y79898D01*
X207100Y79885D01*
X207101Y79872D01*
X207159Y79694D01*
X207215Y79513D01*
X207222Y79502D01*
X207226Y79489D01*
X207318Y79325D01*
X207409Y79160D01*
X207417Y79150D01*
X207424Y79138D01*
X207547Y78996D01*
X207668Y78852D01*
X207678Y78844D01*
X207687Y78833D01*
X207836Y78718D01*
X207983Y78601D01*
X207994Y78595D01*
X208005Y78587D01*
X208174Y78503D01*
X208341Y78417D01*
X208354Y78413D01*
X208366Y78407D01*
X208548Y78358D01*
X208728Y78307D01*
X208741Y78306D01*
X208754Y78303D01*
X209085Y78276D01*
X210594Y78276D01*
X212524Y77476D01*
X214001Y75999D01*
X214801Y74069D01*
X214801Y71981D01*
X214130Y70362D01*
X214121Y70332D01*
X214107Y70304D01*
X214063Y70140D01*
X214014Y69977D01*
X214011Y69946D01*
X214003Y69916D01*
X213976Y69585D01*
X213976Y49596D01*
X212804Y48424D01*
X210277Y48424D01*
X210264Y48423D01*
X210250Y48424D01*
X210063Y48403D01*
X209876Y48384D01*
X209864Y48380D01*
X209850Y48379D01*
X209671Y48321D01*
X209492Y48266D01*
X209480Y48260D01*
X209467Y48256D01*
X209303Y48164D01*
X209138Y48074D01*
X209127Y48066D01*
X209115Y48059D01*
X208972Y47937D01*
X208828Y47817D01*
X208820Y47806D01*
X208810Y47797D01*
X208693Y47649D01*
X208576Y47503D01*
X208570Y47491D01*
X208561Y47480D01*
X208477Y47311D01*
X208390Y47146D01*
X208387Y47133D01*
X208381Y47121D01*
X208331Y46939D01*
X208279Y46759D01*
X208278Y46745D01*
X208274Y46732D01*
X208262Y46546D01*
X208246Y46357D01*
X208248Y46344D01*
X208247Y46331D01*
X208271Y46144D01*
X208293Y45958D01*
X208297Y45945D01*
X208299Y45931D01*
X208401Y45616D01*
X208451Y45494D01*
X208451Y43406D01*
X207651Y41476D01*
X206174Y39999D01*
X204244Y39199D01*
X202156Y39199D01*
X200226Y39999D01*
X198749Y41476D01*
X197949Y43406D01*
X197949Y45494D01*
X197999Y45616D01*
X198003Y45629D01*
X198010Y45640D01*
X198061Y45820D01*
X198116Y46001D01*
X198117Y46014D01*
X198121Y46027D01*
X198136Y46215D01*
X198154Y46402D01*
X198153Y46415D01*
X198154Y46429D01*
X198132Y46616D01*
X198112Y46802D01*
X198108Y46815D01*
X198107Y46828D01*
X198049Y47007D01*
X197993Y47187D01*
X197986Y47198D01*
X197982Y47211D01*
X197889Y47376D01*
X197799Y47540D01*
X197791Y47550D01*
X197784Y47562D01*
X197661Y47704D01*
X197540Y47848D01*
X197530Y47856D01*
X197521Y47867D01*
X197373Y47982D01*
X197225Y48099D01*
X197214Y48105D01*
X197203Y48113D01*
X197034Y48197D01*
X196867Y48283D01*
X196854Y48287D01*
X196842Y48293D01*
X196660Y48342D01*
X196480Y48393D01*
X196467Y48394D01*
X196454Y48397D01*
X196123Y48424D01*
X187146Y48424D01*
X185974Y49596D01*
X185974Y65754D01*
X187146Y66926D01*
X190443Y66926D01*
X190461Y66928D01*
X190479Y66926D01*
X190661Y66947D01*
X190844Y66966D01*
X190861Y66971D01*
X190878Y66973D01*
X191053Y67030D01*
X191229Y67084D01*
X191244Y67092D01*
X191261Y67098D01*
X191421Y67188D01*
X191583Y67276D01*
X191596Y67287D01*
X191612Y67296D01*
X191751Y67416D01*
X191892Y67533D01*
X191903Y67547D01*
X191917Y67559D01*
X192029Y67704D01*
X192144Y67847D01*
X192152Y67863D01*
X192163Y67877D01*
X192245Y68042D01*
X192330Y68204D01*
X192335Y68221D01*
X192343Y68237D01*
X192390Y68416D01*
X192441Y68591D01*
X192443Y68609D01*
X192447Y68626D01*
X192474Y68957D01*
X192474Y76921D01*
X193121Y78483D01*
X198379Y83741D01*
X198396Y83761D01*
X198417Y83779D01*
X198524Y83917D01*
X198634Y84052D01*
X198647Y84076D01*
X198663Y84097D01*
X198741Y84254D01*
X198823Y84408D01*
X198831Y84433D01*
X198843Y84458D01*
X198888Y84627D01*
X198938Y84794D01*
X198940Y84820D01*
X198947Y84846D01*
X198974Y85177D01*
X198974Y90393D01*
X198972Y90411D01*
X198974Y90429D01*
X198953Y90611D01*
X198934Y90794D01*
X198929Y90811D01*
X198927Y90828D01*
X198870Y91003D01*
X198816Y91179D01*
X198808Y91194D01*
X198802Y91211D01*
X198712Y91371D01*
X198624Y91533D01*
X198613Y91546D01*
X198604Y91562D01*
X198484Y91701D01*
X198367Y91842D01*
X198353Y91853D01*
X198341Y91867D01*
X198196Y91979D01*
X198053Y92094D01*
X198037Y92102D01*
X198023Y92113D01*
X197858Y92195D01*
X197696Y92280D01*
X197679Y92285D01*
X197663Y92293D01*
X197484Y92340D01*
X197309Y92391D01*
X197291Y92393D01*
X197274Y92397D01*
X196943Y92424D01*
X196507Y92424D01*
X196489Y92422D01*
X196471Y92424D01*
X196289Y92403D01*
X196106Y92384D01*
X196089Y92379D01*
X196072Y92377D01*
X195897Y92320D01*
X195721Y92266D01*
X195706Y92258D01*
X195689Y92252D01*
X195529Y92162D01*
X195367Y92074D01*
X195354Y92063D01*
X195338Y92054D01*
X195199Y91934D01*
X195058Y91817D01*
X195047Y91803D01*
X195033Y91791D01*
X194921Y91646D01*
X194806Y91503D01*
X194798Y91487D01*
X194787Y91473D01*
X194705Y91308D01*
X194620Y91146D01*
X194615Y91129D01*
X194607Y91113D01*
X194560Y90934D01*
X194509Y90759D01*
X194507Y90741D01*
X194503Y90724D01*
X194476Y90393D01*
X194476Y87779D01*
X193829Y86217D01*
X176471Y68859D01*
X176454Y68839D01*
X176433Y68821D01*
X176326Y68683D01*
X176216Y68548D01*
X176203Y68524D01*
X176187Y68503D01*
X176109Y68346D01*
X176027Y68192D01*
X176019Y68167D01*
X176007Y68142D01*
X175962Y67973D01*
X175912Y67806D01*
X175910Y67780D01*
X175903Y67754D01*
X175876Y67423D01*
X175876Y49596D01*
X174704Y48424D01*
X172177Y48424D01*
X172164Y48423D01*
X172150Y48424D01*
X171963Y48403D01*
X171776Y48384D01*
X171764Y48380D01*
X171750Y48379D01*
X171571Y48321D01*
X171392Y48266D01*
X171380Y48260D01*
X171367Y48256D01*
X171203Y48164D01*
X171038Y48074D01*
X171027Y48066D01*
X171015Y48059D01*
X170872Y47937D01*
X170728Y47817D01*
X170720Y47806D01*
X170710Y47797D01*
X170593Y47649D01*
X170476Y47503D01*
X170470Y47491D01*
X170461Y47480D01*
X170377Y47311D01*
X170290Y47146D01*
X170287Y47133D01*
X170281Y47121D01*
X170231Y46939D01*
X170179Y46759D01*
X170178Y46745D01*
X170174Y46732D01*
X170162Y46546D01*
X170146Y46357D01*
X170148Y46344D01*
X170147Y46331D01*
X170171Y46144D01*
X170193Y45958D01*
X170197Y45945D01*
X170199Y45931D01*
X170301Y45616D01*
X170351Y45494D01*
X170351Y43406D01*
X169551Y41476D01*
X168074Y39999D01*
X166144Y39199D01*
X164056Y39199D01*
X162126Y39999D01*
X160649Y41476D01*
X159849Y43406D01*
X159849Y45494D01*
X159899Y45616D01*
X159903Y45629D01*
X159910Y45640D01*
X159961Y45820D01*
X160016Y46001D01*
X160017Y46014D01*
X160021Y46027D01*
X160036Y46215D01*
X160054Y46402D01*
X160053Y46415D01*
X160054Y46429D01*
X160032Y46616D01*
X160012Y46802D01*
X160008Y46815D01*
X160007Y46828D01*
X159949Y47007D01*
X159893Y47187D01*
X159886Y47198D01*
X159882Y47211D01*
X159789Y47376D01*
X159699Y47540D01*
X159691Y47550D01*
X159684Y47562D01*
X159561Y47704D01*
X159440Y47848D01*
X159430Y47856D01*
X159421Y47867D01*
X159273Y47982D01*
X159125Y48099D01*
X159114Y48105D01*
X159103Y48113D01*
X158934Y48197D01*
X158767Y48283D01*
X158754Y48287D01*
X158742Y48293D01*
X158560Y48342D01*
X158380Y48393D01*
X158367Y48394D01*
X158354Y48397D01*
X158023Y48424D01*
X149046Y48424D01*
X147874Y49596D01*
X147874Y59438D01*
X147873Y59451D01*
X147874Y59465D01*
X147853Y59651D01*
X147834Y59839D01*
X147830Y59851D01*
X147829Y59865D01*
X147771Y60044D01*
X147716Y60223D01*
X147710Y60235D01*
X147706Y60248D01*
X147614Y60412D01*
X147524Y60578D01*
X147516Y60588D01*
X147509Y60600D01*
X147386Y60743D01*
X147267Y60887D01*
X147256Y60895D01*
X147248Y60905D01*
X147099Y61022D01*
X146953Y61139D01*
X146941Y61145D01*
X146931Y61154D01*
X146761Y61239D01*
X146596Y61325D01*
X146583Y61328D01*
X146571Y61334D01*
X146389Y61384D01*
X146209Y61436D01*
X146195Y61437D01*
X146182Y61441D01*
X145996Y61453D01*
X145807Y61469D01*
X145794Y61467D01*
X145781Y61468D01*
X145595Y61444D01*
X145408Y61422D01*
X145395Y61418D01*
X145382Y61416D01*
X145066Y61315D01*
X144906Y61249D01*
X144906Y66675D01*
X144906Y72101D01*
X145618Y71807D01*
X146566Y71173D01*
X147373Y70366D01*
X148007Y69418D01*
X148520Y68180D01*
X148530Y68160D01*
X148537Y68139D01*
X148625Y67983D01*
X148710Y67825D01*
X148724Y67808D01*
X148735Y67788D01*
X148852Y67653D01*
X148966Y67514D01*
X148984Y67500D01*
X148998Y67483D01*
X149140Y67374D01*
X149279Y67261D01*
X149299Y67250D01*
X149316Y67237D01*
X149477Y67157D01*
X149635Y67074D01*
X149657Y67067D01*
X149677Y67057D01*
X149850Y67011D01*
X150022Y66961D01*
X150044Y66959D01*
X150066Y66953D01*
X150396Y66926D01*
X152343Y66926D01*
X152361Y66928D01*
X152379Y66926D01*
X152561Y66947D01*
X152744Y66966D01*
X152761Y66971D01*
X152778Y66973D01*
X152953Y67030D01*
X153129Y67084D01*
X153144Y67092D01*
X153161Y67098D01*
X153321Y67188D01*
X153483Y67276D01*
X153496Y67287D01*
X153512Y67296D01*
X153651Y67416D01*
X153792Y67533D01*
X153803Y67547D01*
X153817Y67559D01*
X153929Y67704D01*
X154044Y67847D01*
X154052Y67863D01*
X154063Y67877D01*
X154145Y68042D01*
X154230Y68204D01*
X154235Y68221D01*
X154243Y68237D01*
X154290Y68416D01*
X154341Y68591D01*
X154343Y68609D01*
X154347Y68626D01*
X154374Y68957D01*
X154374Y76921D01*
X155021Y78483D01*
X160279Y83741D01*
X160296Y83761D01*
X160317Y83779D01*
X160424Y83917D01*
X160534Y84052D01*
X160547Y84076D01*
X160563Y84097D01*
X160641Y84254D01*
X160723Y84408D01*
X160731Y84433D01*
X160743Y84458D01*
X160788Y84627D01*
X160838Y84794D01*
X160840Y84820D01*
X160847Y84846D01*
X160874Y85177D01*
X160874Y90393D01*
X160872Y90411D01*
X160874Y90429D01*
X160853Y90611D01*
X160834Y90794D01*
X160829Y90811D01*
X160827Y90828D01*
X160770Y91003D01*
X160716Y91179D01*
X160708Y91194D01*
X160702Y91211D01*
X160612Y91371D01*
X160524Y91533D01*
X160513Y91546D01*
X160504Y91562D01*
X160384Y91701D01*
X160267Y91842D01*
X160253Y91853D01*
X160241Y91867D01*
X160096Y91979D01*
X159953Y92094D01*
X159937Y92102D01*
X159923Y92113D01*
X159758Y92195D01*
X159596Y92280D01*
X159579Y92285D01*
X159563Y92293D01*
X159384Y92340D01*
X159209Y92391D01*
X159191Y92393D01*
X159174Y92397D01*
X158843Y92424D01*
X156535Y92424D01*
X156373Y92408D01*
X156209Y92398D01*
X156172Y92388D01*
X156135Y92384D01*
X155978Y92336D01*
X155820Y92294D01*
X155782Y92276D01*
X155750Y92266D01*
X155673Y92225D01*
X155520Y92152D01*
X155356Y92057D01*
X154710Y91884D01*
X154156Y91884D01*
X154156Y101675D01*
X154156Y111466D01*
X154710Y111466D01*
X155356Y111293D01*
X155520Y111198D01*
X155669Y111130D01*
X155816Y111057D01*
X155852Y111048D01*
X155887Y111032D01*
X156046Y110995D01*
X156205Y110953D01*
X156247Y110949D01*
X156279Y110942D01*
X156366Y110940D01*
X156535Y110926D01*
X159074Y110926D01*
X159096Y110928D01*
X159118Y110926D01*
X159296Y110948D01*
X159475Y110966D01*
X159496Y110972D01*
X159518Y110975D01*
X159688Y111031D01*
X159859Y111084D01*
X159879Y111094D01*
X159900Y111101D01*
X160056Y111190D01*
X160213Y111276D01*
X160231Y111290D01*
X160250Y111301D01*
X160386Y111419D01*
X160523Y111533D01*
X160537Y111551D01*
X160554Y111565D01*
X160663Y111707D01*
X160775Y111847D01*
X160785Y111867D01*
X160799Y111885D01*
X160951Y112180D01*
X161521Y113558D01*
X164530Y116567D01*
X164536Y116574D01*
X164543Y116579D01*
X164663Y116729D01*
X164785Y116878D01*
X164790Y116886D01*
X164795Y116893D01*
X164884Y117063D01*
X164974Y117234D01*
X164977Y117243D01*
X164981Y117250D01*
X165034Y117435D01*
X165089Y117620D01*
X165090Y117629D01*
X165092Y117637D01*
X165108Y117828D01*
X165125Y118021D01*
X165124Y118030D01*
X165125Y118039D01*
X165103Y118227D01*
X165082Y118421D01*
X165079Y118430D01*
X165078Y118438D01*
X165019Y118620D01*
X164960Y118805D01*
X164956Y118813D01*
X164953Y118821D01*
X164858Y118990D01*
X164765Y119157D01*
X164760Y119164D01*
X164755Y119172D01*
X164629Y119318D01*
X164505Y119464D01*
X164498Y119470D01*
X164492Y119477D01*
X164341Y119594D01*
X164189Y119714D01*
X164181Y119718D01*
X164174Y119723D01*
X164002Y119809D01*
X163906Y119857D01*
X163906Y126075D01*
X163906Y132116D01*
X164210Y132116D01*
X164856Y131943D01*
X165435Y131608D01*
X165908Y131135D01*
X166243Y130556D01*
X166416Y129910D01*
X166416Y127526D01*
X166416Y127521D01*
X166416Y127517D01*
X166436Y127322D01*
X166456Y127125D01*
X166457Y127121D01*
X166457Y127116D01*
X166516Y126928D01*
X166574Y126740D01*
X166576Y126736D01*
X166577Y126732D01*
X166673Y126556D01*
X166766Y126386D01*
X166768Y126383D01*
X166771Y126379D01*
X166899Y126226D01*
X167023Y126077D01*
X167027Y126074D01*
X167030Y126070D01*
X167185Y125947D01*
X167337Y125824D01*
X167341Y125822D01*
X167345Y125820D01*
X167524Y125727D01*
X167694Y125639D01*
X167699Y125638D01*
X167703Y125636D01*
X167896Y125581D01*
X168081Y125527D01*
X168086Y125527D01*
X168090Y125526D01*
X168286Y125511D01*
X168483Y125495D01*
X168487Y125495D01*
X168491Y125495D01*
X168685Y125518D01*
X168882Y125542D01*
X168887Y125543D01*
X168891Y125543D01*
X169076Y125605D01*
X169265Y125666D01*
X169269Y125669D01*
X169273Y125670D01*
X169442Y125766D01*
X169616Y125864D01*
X169619Y125867D01*
X169623Y125869D01*
X169772Y125999D01*
X169920Y126127D01*
X169923Y126131D01*
X169927Y126134D01*
X170048Y126291D01*
X170167Y126446D01*
X170169Y126450D01*
X170172Y126453D01*
X170324Y126748D01*
X170388Y126903D01*
X170397Y126933D01*
X170411Y126961D01*
X170455Y127125D01*
X170504Y127288D01*
X170507Y127319D01*
X170515Y127349D01*
X170542Y127680D01*
X170542Y128270D01*
X170547Y128288D01*
X170574Y128619D01*
X170574Y130404D01*
X172152Y131982D01*
X172158Y131989D01*
X172165Y131994D01*
X172284Y132143D01*
X172407Y132293D01*
X172412Y132301D01*
X172417Y132308D01*
X172506Y132478D01*
X172596Y132649D01*
X172599Y132658D01*
X172603Y132665D01*
X172656Y132850D01*
X172711Y133035D01*
X172712Y133044D01*
X172714Y133052D01*
X172729Y133241D01*
X172747Y133436D01*
X172746Y133445D01*
X172747Y133454D01*
X172725Y133643D01*
X172704Y133836D01*
X172701Y133845D01*
X172700Y133853D01*
X172641Y134035D01*
X172582Y134220D01*
X172578Y134228D01*
X172575Y134236D01*
X172480Y134405D01*
X172387Y134572D01*
X172382Y134579D01*
X172377Y134587D01*
X172251Y134733D01*
X172127Y134879D01*
X172120Y134885D01*
X172114Y134892D01*
X171963Y135009D01*
X171811Y135129D01*
X171803Y135133D01*
X171796Y135138D01*
X171624Y135224D01*
X171452Y135311D01*
X171443Y135314D01*
X171435Y135318D01*
X171249Y135368D01*
X171064Y135419D01*
X171055Y135420D01*
X171047Y135422D01*
X170716Y135449D01*
X170129Y135449D01*
X168567Y136096D01*
X167371Y137292D01*
X166724Y138854D01*
X166724Y145543D01*
X166722Y145561D01*
X166724Y145579D01*
X166703Y145761D01*
X166684Y145944D01*
X166679Y145961D01*
X166677Y145978D01*
X166620Y146153D01*
X166566Y146329D01*
X166558Y146344D01*
X166552Y146361D01*
X166462Y146521D01*
X166374Y146683D01*
X166363Y146696D01*
X166354Y146712D01*
X166234Y146851D01*
X166117Y146992D01*
X166103Y147003D01*
X166091Y147017D01*
X165946Y147129D01*
X165803Y147244D01*
X165787Y147252D01*
X165773Y147263D01*
X165608Y147345D01*
X165446Y147430D01*
X165429Y147435D01*
X165413Y147443D01*
X165234Y147490D01*
X165059Y147541D01*
X165041Y147543D01*
X165024Y147547D01*
X164693Y147574D01*
X160646Y147574D01*
X159474Y148746D01*
X159474Y151543D01*
X159472Y151561D01*
X159474Y151579D01*
X159453Y151761D01*
X159434Y151944D01*
X159429Y151961D01*
X159427Y151978D01*
X159370Y152153D01*
X159316Y152329D01*
X159308Y152344D01*
X159302Y152361D01*
X159212Y152521D01*
X159124Y152683D01*
X159113Y152696D01*
X159104Y152712D01*
X158984Y152851D01*
X158867Y152992D01*
X158853Y153003D01*
X158841Y153017D01*
X158696Y153129D01*
X158553Y153244D01*
X158537Y153252D01*
X158523Y153263D01*
X158358Y153345D01*
X158196Y153430D01*
X158179Y153435D01*
X158163Y153443D01*
X157984Y153490D01*
X157809Y153541D01*
X157791Y153543D01*
X157774Y153547D01*
X157443Y153574D01*
X154646Y153574D01*
X153474Y154746D01*
X153474Y161404D01*
X154646Y162576D01*
X157443Y162576D01*
X157461Y162578D01*
X157479Y162576D01*
X157661Y162597D01*
X157844Y162616D01*
X157861Y162621D01*
X157878Y162623D01*
X158053Y162680D01*
X158229Y162734D01*
X158244Y162742D01*
X158261Y162748D01*
X158421Y162838D01*
X158583Y162926D01*
X158596Y162937D01*
X158612Y162946D01*
X158751Y163066D01*
X158892Y163183D01*
X158903Y163197D01*
X158917Y163209D01*
X159029Y163354D01*
X159144Y163497D01*
X159152Y163513D01*
X159163Y163527D01*
X159245Y163692D01*
X159330Y163854D01*
X159335Y163871D01*
X159343Y163887D01*
X159390Y164066D01*
X159441Y164241D01*
X159443Y164259D01*
X159447Y164276D01*
X159474Y164607D01*
X159474Y181543D01*
X159472Y181561D01*
X159474Y181579D01*
X159453Y181761D01*
X159434Y181944D01*
X159429Y181961D01*
X159427Y181978D01*
X159370Y182153D01*
X159316Y182329D01*
X159308Y182344D01*
X159302Y182361D01*
X159212Y182521D01*
X159124Y182683D01*
X159113Y182696D01*
X159104Y182712D01*
X158984Y182851D01*
X158867Y182992D01*
X158853Y183003D01*
X158841Y183017D01*
X158696Y183129D01*
X158553Y183244D01*
X158537Y183252D01*
X158523Y183263D01*
X158358Y183345D01*
X158196Y183430D01*
X158179Y183435D01*
X158163Y183443D01*
X157984Y183490D01*
X157809Y183541D01*
X157791Y183543D01*
X157774Y183547D01*
X157443Y183574D01*
X155646Y183574D01*
X154474Y184746D01*
X154474Y185579D01*
X154472Y185597D01*
X154474Y185615D01*
X154453Y185797D01*
X154434Y185980D01*
X154429Y185997D01*
X154427Y186014D01*
X154370Y186189D01*
X154316Y186365D01*
X154308Y186380D01*
X154302Y186397D01*
X154212Y186557D01*
X154124Y186719D01*
X154113Y186732D01*
X154104Y186748D01*
X153984Y186887D01*
X153867Y187028D01*
X153853Y187039D01*
X153841Y187053D01*
X153696Y187165D01*
X153553Y187280D01*
X153537Y187288D01*
X153523Y187299D01*
X153358Y187381D01*
X153196Y187466D01*
X153179Y187471D01*
X153163Y187479D01*
X152984Y187526D01*
X152809Y187577D01*
X152791Y187579D01*
X152774Y187583D01*
X152443Y187610D01*
X127000Y187610D01*
X126982Y187608D01*
X126964Y187610D01*
X126782Y187589D01*
X126599Y187570D01*
X126582Y187565D01*
X126565Y187563D01*
X126390Y187506D01*
X126214Y187452D01*
X126199Y187444D01*
X126182Y187438D01*
X126022Y187348D01*
X125860Y187260D01*
X125847Y187249D01*
X125831Y187240D01*
X125692Y187120D01*
X125551Y187003D01*
X125540Y186989D01*
X125527Y186977D01*
X125414Y186832D01*
X125299Y186689D01*
X125291Y186673D01*
X125280Y186659D01*
X125198Y186494D01*
X125113Y186332D01*
X125108Y186315D01*
X125100Y186299D01*
X125053Y186120D01*
X125002Y185945D01*
X125000Y185927D01*
X124996Y185910D01*
X124969Y185579D01*
X124969Y34671D01*
X124971Y34653D01*
X124969Y34635D01*
X124990Y34453D01*
X125009Y34270D01*
X125014Y34253D01*
X125016Y34236D01*
X125073Y34061D01*
X125127Y33885D01*
X125135Y33870D01*
X125141Y33853D01*
X125231Y33693D01*
X125319Y33531D01*
X125330Y33518D01*
X125339Y33502D01*
X125459Y33363D01*
X125576Y33222D01*
X125590Y33211D01*
X125602Y33197D01*
X125747Y33085D01*
X125890Y32970D01*
X125906Y32962D01*
X125920Y32951D01*
X126085Y32869D01*
X126247Y32784D01*
X126264Y32779D01*
X126281Y32771D01*
X126459Y32724D01*
X126634Y32673D01*
X126652Y32671D01*
X126669Y32667D01*
X127000Y32640D01*
X250825Y32640D01*
X250891Y32646D01*
G37*
G36*
X114335Y32643D02*
X114335Y32643D01*
X114369Y32641D01*
X114558Y32663D01*
X114749Y32680D01*
X114782Y32689D01*
X114816Y32693D01*
X114999Y32748D01*
X115183Y32798D01*
X115214Y32813D01*
X115247Y32823D01*
X115418Y32910D01*
X115590Y32992D01*
X115618Y33012D01*
X115649Y33027D01*
X115801Y33143D01*
X115956Y33254D01*
X115980Y33279D01*
X116007Y33299D01*
X116136Y33439D01*
X116270Y33576D01*
X116289Y33605D01*
X116313Y33631D01*
X116415Y33792D01*
X116522Y33949D01*
X116536Y33981D01*
X116554Y34010D01*
X116627Y34187D01*
X116704Y34361D01*
X116712Y34395D01*
X116725Y34427D01*
X116765Y34614D01*
X116811Y34799D01*
X116813Y34833D01*
X116820Y34867D01*
X116839Y35179D01*
X116839Y184733D01*
X116828Y184863D01*
X116826Y184993D01*
X116808Y185087D01*
X116799Y185182D01*
X116765Y185307D01*
X116740Y185435D01*
X116706Y185524D01*
X116681Y185616D01*
X116625Y185733D01*
X116578Y185855D01*
X116528Y185937D01*
X116487Y186023D01*
X116412Y186128D01*
X116344Y186240D01*
X116281Y186311D01*
X116225Y186389D01*
X116132Y186480D01*
X116046Y186577D01*
X115971Y186636D01*
X115903Y186703D01*
X115795Y186776D01*
X115693Y186856D01*
X115609Y186901D01*
X115530Y186955D01*
X115411Y187008D01*
X115296Y187069D01*
X115205Y187098D01*
X115118Y187137D01*
X114991Y187168D01*
X114868Y187208D01*
X114773Y187221D01*
X114680Y187244D01*
X114551Y187252D01*
X114422Y187270D01*
X114326Y187266D01*
X114231Y187272D01*
X114102Y187256D01*
X113972Y187251D01*
X113879Y187230D01*
X113784Y187219D01*
X113659Y187182D01*
X113532Y187154D01*
X113444Y187117D01*
X113353Y187089D01*
X113237Y187030D01*
X113117Y186980D01*
X113036Y186928D01*
X112951Y186885D01*
X112848Y186806D01*
X112739Y186736D01*
X112641Y186650D01*
X112593Y186613D01*
X112562Y186580D01*
X112504Y186529D01*
X111495Y185519D01*
X107959Y184054D01*
X88891Y184054D01*
X85355Y185519D01*
X84008Y186867D01*
X83881Y186972D01*
X83761Y187084D01*
X83709Y187116D01*
X83662Y187155D01*
X83520Y187237D01*
X83381Y187325D01*
X83324Y187349D01*
X83271Y187379D01*
X83117Y187434D01*
X82964Y187496D01*
X82905Y187509D01*
X82847Y187530D01*
X82685Y187556D01*
X82524Y187591D01*
X82447Y187596D01*
X82403Y187603D01*
X82342Y187602D01*
X82212Y187610D01*
X70188Y187610D01*
X70024Y187596D01*
X69860Y187589D01*
X69800Y187576D01*
X69739Y187570D01*
X69580Y187527D01*
X69420Y187491D01*
X69364Y187468D01*
X69305Y187452D01*
X69157Y187381D01*
X69005Y187318D01*
X68953Y187285D01*
X68898Y187258D01*
X68765Y187163D01*
X68626Y187073D01*
X68569Y187022D01*
X68532Y186996D01*
X68490Y186953D01*
X68392Y186867D01*
X67045Y185519D01*
X63509Y184054D01*
X44441Y184054D01*
X40905Y185519D01*
X38199Y188225D01*
X36734Y191761D01*
X36734Y195589D01*
X38199Y199125D01*
X40905Y201831D01*
X44441Y203296D01*
X63509Y203296D01*
X67045Y201831D01*
X68392Y200483D01*
X68519Y200378D01*
X68639Y200266D01*
X68691Y200234D01*
X68738Y200195D01*
X68880Y200113D01*
X69019Y200025D01*
X69076Y200001D01*
X69129Y199971D01*
X69283Y199916D01*
X69436Y199854D01*
X69495Y199841D01*
X69553Y199820D01*
X69715Y199794D01*
X69876Y199759D01*
X69953Y199754D01*
X69997Y199747D01*
X70058Y199748D01*
X70188Y199740D01*
X82212Y199740D01*
X82376Y199754D01*
X82540Y199761D01*
X82600Y199774D01*
X82661Y199780D01*
X82820Y199823D01*
X82980Y199859D01*
X83036Y199882D01*
X83095Y199898D01*
X83243Y199969D01*
X83395Y200032D01*
X83447Y200065D01*
X83502Y200092D01*
X83635Y200187D01*
X83774Y200277D01*
X83831Y200328D01*
X83868Y200354D01*
X83910Y200397D01*
X84008Y200483D01*
X85355Y201831D01*
X88891Y203296D01*
X107959Y203296D01*
X111495Y201831D01*
X112504Y200821D01*
X112604Y200738D01*
X112697Y200647D01*
X112777Y200594D01*
X112850Y200532D01*
X112963Y200468D01*
X113070Y200395D01*
X113158Y200356D01*
X113241Y200309D01*
X113363Y200266D01*
X113482Y200213D01*
X113575Y200190D01*
X113665Y200158D01*
X113794Y200137D01*
X113920Y200106D01*
X114015Y200100D01*
X114109Y200085D01*
X114240Y200086D01*
X114369Y200078D01*
X114464Y200090D01*
X114560Y200091D01*
X114687Y200116D01*
X114816Y200131D01*
X114908Y200158D01*
X115002Y200176D01*
X115123Y200223D01*
X115247Y200261D01*
X115332Y200304D01*
X115422Y200339D01*
X115533Y200406D01*
X115649Y200465D01*
X115725Y200523D01*
X115806Y200573D01*
X115904Y200659D01*
X116007Y200737D01*
X116072Y200808D01*
X116144Y200871D01*
X116224Y200973D01*
X116313Y201068D01*
X116364Y201149D01*
X116423Y201224D01*
X116484Y201338D01*
X116554Y201448D01*
X116591Y201537D01*
X116636Y201621D01*
X116676Y201744D01*
X116725Y201865D01*
X116745Y201958D01*
X116775Y202049D01*
X116793Y202178D01*
X116820Y202305D01*
X116828Y202435D01*
X116836Y202495D01*
X116835Y202540D01*
X116839Y202617D01*
X116839Y210133D01*
X116828Y210263D01*
X116826Y210393D01*
X116808Y210487D01*
X116799Y210582D01*
X116765Y210707D01*
X116740Y210835D01*
X116706Y210924D01*
X116681Y211016D01*
X116625Y211133D01*
X116578Y211255D01*
X116528Y211337D01*
X116487Y211423D01*
X116412Y211528D01*
X116344Y211640D01*
X116281Y211711D01*
X116225Y211789D01*
X116132Y211880D01*
X116046Y211977D01*
X115971Y212036D01*
X115903Y212103D01*
X115795Y212176D01*
X115693Y212256D01*
X115609Y212301D01*
X115530Y212355D01*
X115411Y212408D01*
X115296Y212469D01*
X115205Y212498D01*
X115118Y212537D01*
X114991Y212568D01*
X114868Y212608D01*
X114773Y212621D01*
X114680Y212644D01*
X114551Y212652D01*
X114422Y212670D01*
X114326Y212666D01*
X114231Y212672D01*
X114102Y212656D01*
X113972Y212651D01*
X113879Y212630D01*
X113784Y212619D01*
X113659Y212582D01*
X113532Y212554D01*
X113444Y212517D01*
X113353Y212489D01*
X113237Y212430D01*
X113117Y212380D01*
X113036Y212328D01*
X112951Y212285D01*
X112848Y212206D01*
X112739Y212136D01*
X112641Y212050D01*
X112593Y212013D01*
X112562Y211980D01*
X112504Y211929D01*
X111495Y210919D01*
X107959Y209454D01*
X88891Y209454D01*
X85355Y210919D01*
X84008Y212267D01*
X83882Y212372D01*
X83761Y212484D01*
X83709Y212516D01*
X83662Y212555D01*
X83520Y212637D01*
X83381Y212725D01*
X83324Y212749D01*
X83271Y212779D01*
X83116Y212834D01*
X82964Y212896D01*
X82905Y212909D01*
X82847Y212930D01*
X82685Y212956D01*
X82524Y212991D01*
X82447Y212996D01*
X82403Y213003D01*
X82342Y213002D01*
X82212Y213010D01*
X70188Y213010D01*
X70024Y212996D01*
X69860Y212989D01*
X69800Y212976D01*
X69739Y212970D01*
X69581Y212927D01*
X69420Y212891D01*
X69364Y212868D01*
X69305Y212852D01*
X69156Y212781D01*
X69005Y212718D01*
X68953Y212685D01*
X68898Y212658D01*
X68765Y212563D01*
X68626Y212473D01*
X68569Y212422D01*
X68532Y212396D01*
X68490Y212353D01*
X68392Y212267D01*
X67045Y210919D01*
X63509Y209454D01*
X44441Y209454D01*
X40905Y210919D01*
X38199Y213625D01*
X36734Y217161D01*
X36734Y220989D01*
X38199Y224525D01*
X40905Y227231D01*
X44441Y228696D01*
X63509Y228696D01*
X67045Y227231D01*
X68392Y225883D01*
X68518Y225778D01*
X68639Y225666D01*
X68691Y225634D01*
X68738Y225595D01*
X68880Y225513D01*
X69019Y225425D01*
X69076Y225401D01*
X69129Y225371D01*
X69284Y225316D01*
X69436Y225254D01*
X69495Y225241D01*
X69553Y225220D01*
X69715Y225194D01*
X69876Y225159D01*
X69953Y225154D01*
X69997Y225147D01*
X70058Y225148D01*
X70188Y225140D01*
X82212Y225140D01*
X82376Y225154D01*
X82540Y225161D01*
X82600Y225174D01*
X82661Y225180D01*
X82819Y225223D01*
X82980Y225259D01*
X83036Y225282D01*
X83095Y225298D01*
X83244Y225369D01*
X83395Y225432D01*
X83447Y225465D01*
X83502Y225492D01*
X83635Y225587D01*
X83774Y225677D01*
X83831Y225728D01*
X83868Y225754D01*
X83910Y225797D01*
X84008Y225883D01*
X85355Y227231D01*
X88891Y228696D01*
X107959Y228696D01*
X111495Y227231D01*
X112504Y226221D01*
X112604Y226138D01*
X112697Y226047D01*
X112777Y225994D01*
X112850Y225932D01*
X112963Y225868D01*
X113070Y225795D01*
X113158Y225756D01*
X113241Y225709D01*
X113363Y225666D01*
X113482Y225613D01*
X113575Y225590D01*
X113665Y225558D01*
X113794Y225537D01*
X113920Y225506D01*
X114015Y225500D01*
X114109Y225485D01*
X114240Y225486D01*
X114369Y225478D01*
X114464Y225490D01*
X114560Y225491D01*
X114687Y225516D01*
X114816Y225531D01*
X114908Y225558D01*
X115002Y225576D01*
X115123Y225623D01*
X115247Y225661D01*
X115332Y225704D01*
X115422Y225739D01*
X115533Y225806D01*
X115649Y225865D01*
X115725Y225923D01*
X115806Y225973D01*
X115904Y226059D01*
X116007Y226137D01*
X116072Y226208D01*
X116144Y226271D01*
X116224Y226373D01*
X116313Y226468D01*
X116364Y226549D01*
X116423Y226624D01*
X116484Y226738D01*
X116554Y226848D01*
X116591Y226937D01*
X116636Y227021D01*
X116676Y227144D01*
X116725Y227265D01*
X116745Y227358D01*
X116775Y227449D01*
X116793Y227578D01*
X116820Y227705D01*
X116828Y227835D01*
X116836Y227895D01*
X116835Y227940D01*
X116839Y228017D01*
X116839Y377571D01*
X116836Y377606D01*
X116838Y377640D01*
X116816Y377829D01*
X116799Y378020D01*
X116790Y378053D01*
X116786Y378087D01*
X116731Y378270D01*
X116681Y378454D01*
X116666Y378485D01*
X116656Y378518D01*
X116569Y378689D01*
X116487Y378861D01*
X116467Y378889D01*
X116452Y378920D01*
X116336Y379072D01*
X116225Y379227D01*
X116200Y379251D01*
X116180Y379278D01*
X116040Y379407D01*
X115903Y379541D01*
X115874Y379560D01*
X115848Y379584D01*
X115687Y379686D01*
X115530Y379793D01*
X115498Y379807D01*
X115469Y379825D01*
X115292Y379898D01*
X115118Y379975D01*
X115084Y379983D01*
X115052Y379996D01*
X114865Y380036D01*
X114680Y380082D01*
X114646Y380084D01*
X114612Y380091D01*
X114300Y380110D01*
X47625Y380110D01*
X47563Y380105D01*
X47426Y380102D01*
X44485Y379871D01*
X44345Y379847D01*
X44203Y379833D01*
X44097Y379805D01*
X44041Y379796D01*
X43993Y379778D01*
X43900Y379755D01*
X38307Y377937D01*
X38291Y377931D01*
X38275Y377927D01*
X38085Y377843D01*
X37893Y377761D01*
X37879Y377751D01*
X37863Y377744D01*
X37599Y377577D01*
X32842Y374120D01*
X32829Y374109D01*
X32814Y374100D01*
X32660Y373961D01*
X32502Y373824D01*
X32492Y373811D01*
X32479Y373799D01*
X32280Y373558D01*
X28823Y368801D01*
X28814Y368786D01*
X28803Y368773D01*
X28700Y368594D01*
X28592Y368414D01*
X28586Y368398D01*
X28577Y368384D01*
X28463Y368093D01*
X26645Y362500D01*
X26614Y362361D01*
X26573Y362224D01*
X26557Y362116D01*
X26545Y362061D01*
X26542Y362009D01*
X26529Y361915D01*
X26298Y358974D01*
X26298Y358912D01*
X26290Y358775D01*
X26290Y53975D01*
X26295Y53913D01*
X26298Y53776D01*
X26529Y50835D01*
X26553Y50695D01*
X26567Y50553D01*
X26595Y50447D01*
X26604Y50391D01*
X26622Y50343D01*
X26645Y50250D01*
X28463Y44657D01*
X28469Y44641D01*
X28473Y44625D01*
X28557Y44435D01*
X28639Y44243D01*
X28649Y44229D01*
X28656Y44213D01*
X28823Y43949D01*
X32280Y39192D01*
X32291Y39179D01*
X32300Y39164D01*
X32439Y39010D01*
X32576Y38852D01*
X32589Y38842D01*
X32601Y38829D01*
X32842Y38630D01*
X37599Y35173D01*
X37614Y35164D01*
X37627Y35153D01*
X37806Y35050D01*
X37986Y34942D01*
X38002Y34936D01*
X38016Y34927D01*
X38307Y34813D01*
X43900Y32995D01*
X44039Y32963D01*
X44176Y32923D01*
X44284Y32907D01*
X44339Y32895D01*
X44391Y32892D01*
X44485Y32879D01*
X47426Y32648D01*
X47488Y32648D01*
X47625Y32640D01*
X114300Y32640D01*
X114335Y32643D01*
G37*
G36*
X179595Y191578D02*
X179595Y191578D01*
X179613Y191576D01*
X179795Y191597D01*
X179978Y191616D01*
X179995Y191621D01*
X180012Y191623D01*
X180187Y191680D01*
X180363Y191734D01*
X180378Y191742D01*
X180395Y191748D01*
X180555Y191838D01*
X180717Y191926D01*
X180730Y191937D01*
X180746Y191946D01*
X180885Y192066D01*
X181026Y192183D01*
X181037Y192197D01*
X181051Y192209D01*
X181163Y192354D01*
X181278Y192497D01*
X181286Y192513D01*
X181297Y192527D01*
X181379Y192692D01*
X181464Y192854D01*
X181469Y192871D01*
X181477Y192887D01*
X181524Y193066D01*
X181575Y193241D01*
X181577Y193259D01*
X181581Y193276D01*
X181608Y193607D01*
X181608Y219143D01*
X181606Y219161D01*
X181608Y219179D01*
X181587Y219361D01*
X181568Y219544D01*
X181563Y219561D01*
X181561Y219578D01*
X181504Y219753D01*
X181450Y219929D01*
X181442Y219944D01*
X181436Y219961D01*
X181346Y220121D01*
X181258Y220283D01*
X181247Y220296D01*
X181238Y220312D01*
X181118Y220451D01*
X181001Y220592D01*
X180987Y220603D01*
X180975Y220617D01*
X180830Y220729D01*
X180687Y220844D01*
X180671Y220852D01*
X180657Y220863D01*
X180492Y220945D01*
X180330Y221030D01*
X180313Y221035D01*
X180297Y221043D01*
X180118Y221090D01*
X179943Y221141D01*
X179925Y221143D01*
X179908Y221147D01*
X179577Y221174D01*
X179071Y221174D01*
X179053Y221172D01*
X179035Y221174D01*
X178853Y221153D01*
X178670Y221134D01*
X178653Y221129D01*
X178636Y221127D01*
X178461Y221070D01*
X178285Y221016D01*
X178270Y221008D01*
X178253Y221002D01*
X178093Y220912D01*
X177931Y220824D01*
X177918Y220813D01*
X177902Y220804D01*
X177762Y220684D01*
X177622Y220567D01*
X177611Y220553D01*
X177597Y220541D01*
X177485Y220396D01*
X177370Y220253D01*
X177362Y220237D01*
X177351Y220223D01*
X177269Y220058D01*
X177184Y219896D01*
X177179Y219879D01*
X177171Y219863D01*
X177124Y219684D01*
X177073Y219509D01*
X177071Y219491D01*
X177067Y219474D01*
X177040Y219143D01*
X177040Y217869D01*
X176116Y215640D01*
X174410Y213934D01*
X172181Y213010D01*
X149206Y213010D01*
X149195Y213009D01*
X149184Y213010D01*
X148994Y212989D01*
X148805Y212970D01*
X148795Y212967D01*
X148784Y212966D01*
X148602Y212908D01*
X148421Y212852D01*
X148411Y212847D01*
X148400Y212844D01*
X148233Y212751D01*
X148067Y212660D01*
X148058Y212653D01*
X148048Y212648D01*
X147903Y212524D01*
X147757Y212403D01*
X147750Y212394D01*
X147742Y212387D01*
X147624Y212237D01*
X147505Y212089D01*
X147500Y212079D01*
X147493Y212070D01*
X147407Y211900D01*
X147319Y211732D01*
X147316Y211721D01*
X147311Y211711D01*
X147261Y211527D01*
X147208Y211345D01*
X147207Y211334D01*
X147204Y211323D01*
X147191Y211133D01*
X147175Y210943D01*
X147176Y210932D01*
X147176Y210921D01*
X147200Y210731D01*
X147222Y210544D01*
X147226Y210533D01*
X147227Y210522D01*
X147288Y210342D01*
X147347Y210161D01*
X147352Y210151D01*
X147356Y210141D01*
X147517Y209850D01*
X148007Y209118D01*
X148301Y208406D01*
X142875Y208406D01*
X137449Y208406D01*
X137743Y209118D01*
X138233Y209850D01*
X138238Y209860D01*
X138245Y209869D01*
X138332Y210037D01*
X138422Y210206D01*
X138425Y210217D01*
X138431Y210226D01*
X138483Y210408D01*
X138538Y210591D01*
X138539Y210603D01*
X138542Y210613D01*
X138557Y210802D01*
X138575Y210992D01*
X138574Y211003D01*
X138575Y211015D01*
X138553Y211203D01*
X138533Y211393D01*
X138529Y211403D01*
X138528Y211414D01*
X138469Y211595D01*
X138412Y211777D01*
X138407Y211787D01*
X138403Y211797D01*
X138310Y211963D01*
X138218Y212130D01*
X138211Y212138D01*
X138205Y212148D01*
X138081Y212292D01*
X137958Y212437D01*
X137949Y212444D01*
X137942Y212453D01*
X137792Y212569D01*
X137643Y212687D01*
X137633Y212692D01*
X137624Y212699D01*
X137454Y212784D01*
X137284Y212871D01*
X137273Y212874D01*
X137263Y212879D01*
X137079Y212928D01*
X136897Y212979D01*
X136885Y212980D01*
X136875Y212983D01*
X136544Y213010D01*
X127000Y213010D01*
X126982Y213008D01*
X126964Y213010D01*
X126782Y212989D01*
X126599Y212970D01*
X126582Y212965D01*
X126565Y212963D01*
X126390Y212906D01*
X126214Y212852D01*
X126199Y212844D01*
X126182Y212838D01*
X126022Y212748D01*
X125860Y212660D01*
X125847Y212649D01*
X125831Y212640D01*
X125692Y212520D01*
X125551Y212403D01*
X125540Y212389D01*
X125527Y212377D01*
X125414Y212232D01*
X125299Y212089D01*
X125291Y212073D01*
X125280Y212059D01*
X125198Y211894D01*
X125113Y211732D01*
X125108Y211715D01*
X125100Y211699D01*
X125053Y211520D01*
X125002Y211345D01*
X125000Y211327D01*
X124996Y211310D01*
X124969Y210979D01*
X124969Y201771D01*
X124971Y201753D01*
X124969Y201735D01*
X124990Y201553D01*
X125009Y201370D01*
X125014Y201353D01*
X125016Y201336D01*
X125073Y201161D01*
X125127Y200985D01*
X125135Y200970D01*
X125141Y200953D01*
X125231Y200793D01*
X125319Y200631D01*
X125330Y200618D01*
X125339Y200602D01*
X125459Y200463D01*
X125576Y200322D01*
X125590Y200311D01*
X125602Y200297D01*
X125747Y200185D01*
X125890Y200070D01*
X125906Y200062D01*
X125920Y200051D01*
X126085Y199969D01*
X126247Y199884D01*
X126264Y199879D01*
X126281Y199871D01*
X126459Y199824D01*
X126634Y199773D01*
X126652Y199771D01*
X126669Y199767D01*
X127000Y199740D01*
X136544Y199740D01*
X136555Y199741D01*
X136566Y199740D01*
X136756Y199761D01*
X136945Y199780D01*
X136955Y199783D01*
X136966Y199784D01*
X137148Y199842D01*
X137329Y199898D01*
X137339Y199903D01*
X137350Y199906D01*
X137517Y199999D01*
X137683Y200090D01*
X137692Y200097D01*
X137702Y200102D01*
X137847Y200226D01*
X137993Y200347D01*
X138000Y200356D01*
X138008Y200363D01*
X138126Y200513D01*
X138245Y200661D01*
X138250Y200671D01*
X138257Y200680D01*
X138343Y200850D01*
X138431Y201018D01*
X138434Y201029D01*
X138439Y201039D01*
X138489Y201223D01*
X138542Y201405D01*
X138543Y201416D01*
X138546Y201427D01*
X138559Y201615D01*
X138575Y201807D01*
X138574Y201818D01*
X138574Y201829D01*
X138550Y202018D01*
X138528Y202206D01*
X138524Y202217D01*
X138523Y202228D01*
X138462Y202408D01*
X138403Y202589D01*
X138398Y202599D01*
X138394Y202609D01*
X138233Y202900D01*
X137743Y203632D01*
X137449Y204344D01*
X142875Y204344D01*
X148301Y204344D01*
X148007Y203632D01*
X147517Y202900D01*
X147512Y202890D01*
X147505Y202881D01*
X147418Y202713D01*
X147328Y202544D01*
X147325Y202533D01*
X147319Y202524D01*
X147267Y202341D01*
X147212Y202159D01*
X147211Y202147D01*
X147208Y202137D01*
X147193Y201948D01*
X147175Y201758D01*
X147176Y201747D01*
X147175Y201735D01*
X147197Y201547D01*
X147217Y201357D01*
X147221Y201347D01*
X147222Y201336D01*
X147281Y201155D01*
X147338Y200973D01*
X147343Y200963D01*
X147347Y200953D01*
X147440Y200787D01*
X147532Y200620D01*
X147539Y200612D01*
X147545Y200602D01*
X147669Y200458D01*
X147792Y200313D01*
X147801Y200306D01*
X147808Y200297D01*
X147958Y200181D01*
X148107Y200063D01*
X148117Y200058D01*
X148126Y200051D01*
X148296Y199966D01*
X148466Y199879D01*
X148477Y199876D01*
X148487Y199871D01*
X148671Y199822D01*
X148853Y199771D01*
X148865Y199770D01*
X148875Y199767D01*
X149206Y199740D01*
X172181Y199740D01*
X174410Y198816D01*
X176116Y197110D01*
X177040Y194881D01*
X177040Y193607D01*
X177042Y193589D01*
X177040Y193571D01*
X177061Y193389D01*
X177080Y193206D01*
X177085Y193189D01*
X177087Y193172D01*
X177144Y192997D01*
X177198Y192821D01*
X177206Y192806D01*
X177212Y192789D01*
X177302Y192629D01*
X177390Y192467D01*
X177401Y192454D01*
X177410Y192438D01*
X177530Y192299D01*
X177647Y192158D01*
X177661Y192147D01*
X177673Y192133D01*
X177818Y192021D01*
X177961Y191906D01*
X177977Y191898D01*
X177991Y191887D01*
X178156Y191805D01*
X178318Y191720D01*
X178335Y191715D01*
X178351Y191707D01*
X178530Y191660D01*
X178705Y191609D01*
X178723Y191607D01*
X178740Y191603D01*
X179071Y191576D01*
X179577Y191576D01*
X179595Y191578D01*
G37*
G36*
X178480Y149574D02*
X178480Y149574D01*
X178480Y149575D01*
X178480Y189575D01*
X178476Y189580D01*
X178475Y189580D01*
X156475Y189580D01*
X156470Y189576D01*
X156470Y189575D01*
X156470Y185575D01*
X156474Y185570D01*
X156475Y185570D01*
X161470Y185570D01*
X161470Y160580D01*
X155475Y160580D01*
X155470Y160576D01*
X155470Y160575D01*
X155470Y155575D01*
X155474Y155570D01*
X155475Y155570D01*
X161470Y155570D01*
X161470Y149575D01*
X161474Y149570D01*
X161475Y149570D01*
X178475Y149570D01*
X178480Y149574D01*
G37*
G36*
X178480Y223174D02*
X178480Y223174D01*
X178480Y223175D01*
X178480Y263175D01*
X178476Y263180D01*
X178475Y263180D01*
X161475Y263180D01*
X161470Y263176D01*
X161470Y263175D01*
X161470Y257180D01*
X155475Y257180D01*
X155470Y257176D01*
X155470Y257175D01*
X155470Y252175D01*
X155474Y252170D01*
X155475Y252170D01*
X161470Y252170D01*
X161470Y227180D01*
X156475Y227180D01*
X156470Y227176D01*
X156470Y227175D01*
X156470Y223175D01*
X156474Y223170D01*
X156475Y223170D01*
X178475Y223170D01*
X178480Y223174D01*
G37*
G36*
X200480Y149574D02*
X200480Y149574D01*
X200480Y149575D01*
X200480Y155570D01*
X206475Y155570D01*
X206480Y155574D01*
X206480Y155575D01*
X206480Y160575D01*
X206476Y160580D01*
X206475Y160580D01*
X200480Y160580D01*
X200480Y185570D01*
X205475Y185570D01*
X205480Y185574D01*
X205480Y185575D01*
X205480Y189575D01*
X205476Y189580D01*
X205475Y189580D01*
X183475Y189580D01*
X183470Y189576D01*
X183470Y189575D01*
X183470Y149575D01*
X183474Y149570D01*
X183475Y149570D01*
X200475Y149570D01*
X200480Y149574D01*
G37*
G36*
X205480Y223174D02*
X205480Y223174D01*
X205480Y223175D01*
X205480Y227175D01*
X205476Y227180D01*
X205475Y227180D01*
X200480Y227180D01*
X200480Y252170D01*
X206475Y252170D01*
X206480Y252174D01*
X206480Y252175D01*
X206480Y257175D01*
X206476Y257180D01*
X206475Y257180D01*
X200480Y257180D01*
X200480Y263175D01*
X200476Y263180D01*
X200475Y263180D01*
X183475Y263180D01*
X183470Y263176D01*
X183470Y263175D01*
X183470Y223175D01*
X183474Y223170D01*
X183475Y223170D01*
X205475Y223170D01*
X205480Y223174D01*
G37*
%LPC*%
G36*
X247014Y196214D02*
X247014Y196214D01*
X247014Y203836D01*
X252895Y203836D01*
X254474Y203586D01*
X255995Y203091D01*
X257420Y202365D01*
X258714Y201425D01*
X259845Y200294D01*
X260785Y199000D01*
X261511Y197575D01*
X261954Y196214D01*
X247014Y196214D01*
G37*
%LPD*%
%LPC*%
G36*
X226996Y196214D02*
X226996Y196214D01*
X227439Y197575D01*
X228165Y199000D01*
X229105Y200294D01*
X230236Y201425D01*
X231530Y202365D01*
X232955Y203091D01*
X234476Y203586D01*
X236055Y203836D01*
X241936Y203836D01*
X241936Y196214D01*
X226996Y196214D01*
G37*
%LPD*%
%LPC*%
G36*
X247014Y183514D02*
X247014Y183514D01*
X247014Y191136D01*
X261954Y191136D01*
X261511Y189775D01*
X260785Y188350D01*
X259845Y187056D01*
X258714Y185925D01*
X257420Y184985D01*
X255995Y184259D01*
X254474Y183764D01*
X252895Y183514D01*
X247014Y183514D01*
G37*
%LPD*%
%LPC*%
G36*
X236055Y183514D02*
X236055Y183514D01*
X234476Y183764D01*
X232955Y184259D01*
X231530Y184985D01*
X230236Y185925D01*
X229105Y187056D01*
X228165Y188350D01*
X227439Y189775D01*
X226996Y191136D01*
X241936Y191136D01*
X241936Y183514D01*
X236055Y183514D01*
G37*
%LPD*%
%LPC*%
G36*
X147334Y103706D02*
X147334Y103706D01*
X147334Y109259D01*
X147412Y109549D01*
X147425Y109626D01*
X147446Y109701D01*
X147457Y109824D01*
X147477Y109947D01*
X147474Y110024D01*
X147481Y110102D01*
X147467Y110225D01*
X147463Y110349D01*
X147445Y110425D01*
X147436Y110502D01*
X147398Y110620D01*
X147369Y110741D01*
X147336Y110811D01*
X147313Y110885D01*
X147252Y110993D01*
X147200Y111106D01*
X147154Y111169D01*
X147116Y111237D01*
X147036Y111331D01*
X146962Y111431D01*
X146905Y111483D01*
X146854Y111543D01*
X146757Y111619D01*
X146665Y111703D01*
X146599Y111743D01*
X146537Y111791D01*
X146427Y111846D01*
X146320Y111910D01*
X146247Y111937D01*
X146178Y111972D01*
X146058Y112004D01*
X145941Y112046D01*
X145864Y112057D01*
X145789Y112078D01*
X145666Y112086D01*
X145543Y112104D01*
X145465Y112100D01*
X145388Y112105D01*
X145265Y112089D01*
X145141Y112083D01*
X145065Y112063D01*
X144988Y112053D01*
X144906Y112027D01*
X144906Y115444D01*
X148301Y115444D01*
X148007Y114732D01*
X147936Y114626D01*
X147930Y114616D01*
X147923Y114607D01*
X147836Y114439D01*
X147746Y114270D01*
X147743Y114259D01*
X147738Y114250D01*
X147685Y114067D01*
X147630Y113885D01*
X147629Y113874D01*
X147626Y113863D01*
X147611Y113673D01*
X147593Y113484D01*
X147594Y113473D01*
X147593Y113461D01*
X147616Y113273D01*
X147636Y113083D01*
X147639Y113073D01*
X147640Y113062D01*
X147700Y112880D01*
X147756Y112699D01*
X147762Y112690D01*
X147765Y112679D01*
X147859Y112513D01*
X147950Y112347D01*
X147958Y112338D01*
X147963Y112328D01*
X148088Y112184D01*
X148210Y112039D01*
X148219Y112032D01*
X148226Y112023D01*
X148376Y111907D01*
X148526Y111789D01*
X148536Y111784D01*
X148544Y111777D01*
X148715Y111692D01*
X148884Y111605D01*
X148895Y111602D01*
X148905Y111597D01*
X149090Y111548D01*
X149272Y111497D01*
X149283Y111496D01*
X149294Y111493D01*
X149624Y111466D01*
X150094Y111466D01*
X150094Y103706D01*
X147334Y103706D01*
G37*
%LPD*%
%LPC*%
G36*
X149540Y91884D02*
X149540Y91884D01*
X148894Y92057D01*
X148315Y92392D01*
X147842Y92865D01*
X147507Y93444D01*
X147334Y94090D01*
X147334Y99644D01*
X150094Y99644D01*
X150094Y91884D01*
X149540Y91884D01*
G37*
%LPD*%
%LPC*%
G36*
X157334Y128106D02*
X157334Y128106D01*
X157334Y129910D01*
X157507Y130556D01*
X157842Y131135D01*
X158315Y131608D01*
X158894Y131943D01*
X159540Y132116D01*
X159844Y132116D01*
X159844Y128106D01*
X157334Y128106D01*
G37*
%LPD*%
%LPC*%
G36*
X159540Y120034D02*
X159540Y120034D01*
X158894Y120207D01*
X158315Y120542D01*
X157842Y121015D01*
X157507Y121594D01*
X157334Y122240D01*
X157334Y124044D01*
X159844Y124044D01*
X159844Y120034D01*
X159540Y120034D01*
G37*
%LPD*%
%LPC*%
G36*
X259206Y348106D02*
X259206Y348106D01*
X259206Y351501D01*
X259918Y351207D01*
X260866Y350573D01*
X261673Y349766D01*
X262307Y348818D01*
X262601Y348106D01*
X259206Y348106D01*
G37*
%LPD*%
%LPC*%
G36*
X259206Y68706D02*
X259206Y68706D01*
X259206Y72101D01*
X259918Y71807D01*
X260866Y71173D01*
X261673Y70366D01*
X262307Y69418D01*
X262601Y68706D01*
X259206Y68706D01*
G37*
%LPD*%
%LPC*%
G36*
X144906Y170306D02*
X144906Y170306D01*
X144906Y173701D01*
X145618Y173407D01*
X146566Y172773D01*
X147373Y171966D01*
X148007Y171018D01*
X148301Y170306D01*
X144906Y170306D01*
G37*
%LPD*%
%LPC*%
G36*
X259206Y119506D02*
X259206Y119506D01*
X259206Y122901D01*
X259918Y122607D01*
X260866Y121973D01*
X261673Y121166D01*
X262307Y120218D01*
X262601Y119506D01*
X259206Y119506D01*
G37*
%LPD*%
%LPC*%
G36*
X144906Y119506D02*
X144906Y119506D01*
X144906Y122901D01*
X145618Y122607D01*
X146566Y121973D01*
X147373Y121166D01*
X148007Y120218D01*
X148301Y119506D01*
X144906Y119506D01*
G37*
%LPD*%
%LPC*%
G36*
X259206Y297306D02*
X259206Y297306D01*
X259206Y300701D01*
X259918Y300407D01*
X260866Y299773D01*
X261673Y298966D01*
X262307Y298018D01*
X262601Y297306D01*
X259206Y297306D01*
G37*
%LPD*%
%LPC*%
G36*
X144906Y246506D02*
X144906Y246506D01*
X144906Y249901D01*
X145618Y249607D01*
X146566Y248973D01*
X147373Y248166D01*
X148007Y247218D01*
X148301Y246506D01*
X144906Y246506D01*
G37*
%LPD*%
%LPC*%
G36*
X259206Y246506D02*
X259206Y246506D01*
X259206Y249901D01*
X259918Y249607D01*
X260866Y248973D01*
X261673Y248166D01*
X262307Y247218D01*
X262601Y246506D01*
X259206Y246506D01*
G37*
%LPD*%
%LPC*%
G36*
X259206Y170306D02*
X259206Y170306D01*
X259206Y173701D01*
X259918Y173407D01*
X260866Y172773D01*
X261673Y171966D01*
X262307Y171018D01*
X262601Y170306D01*
X259206Y170306D01*
G37*
%LPD*%
%LPC*%
G36*
X251749Y348106D02*
X251749Y348106D01*
X252043Y348818D01*
X252677Y349766D01*
X253484Y350573D01*
X254432Y351207D01*
X255144Y351501D01*
X255144Y348106D01*
X251749Y348106D01*
G37*
%LPD*%
%LPC*%
G36*
X137449Y68706D02*
X137449Y68706D01*
X137743Y69418D01*
X138377Y70366D01*
X139184Y71173D01*
X140132Y71807D01*
X140844Y72101D01*
X140844Y68706D01*
X137449Y68706D01*
G37*
%LPD*%
%LPC*%
G36*
X137449Y119506D02*
X137449Y119506D01*
X137743Y120218D01*
X138377Y121166D01*
X139184Y121973D01*
X140132Y122607D01*
X140844Y122901D01*
X140844Y119506D01*
X137449Y119506D01*
G37*
%LPD*%
%LPC*%
G36*
X137449Y246506D02*
X137449Y246506D01*
X137743Y247218D01*
X138377Y248166D01*
X139184Y248973D01*
X140132Y249607D01*
X140844Y249901D01*
X140844Y246506D01*
X137449Y246506D01*
G37*
%LPD*%
%LPC*%
G36*
X251749Y246506D02*
X251749Y246506D01*
X252043Y247218D01*
X252677Y248166D01*
X253484Y248973D01*
X254432Y249607D01*
X255144Y249901D01*
X255144Y246506D01*
X251749Y246506D01*
G37*
%LPD*%
%LPC*%
G36*
X251749Y119506D02*
X251749Y119506D01*
X252043Y120218D01*
X252677Y121166D01*
X253484Y121973D01*
X254432Y122607D01*
X255144Y122901D01*
X255144Y119506D01*
X251749Y119506D01*
G37*
%LPD*%
%LPC*%
G36*
X251749Y297306D02*
X251749Y297306D01*
X252043Y298018D01*
X252677Y298966D01*
X253484Y299773D01*
X254432Y300407D01*
X255144Y300701D01*
X255144Y297306D01*
X251749Y297306D01*
G37*
%LPD*%
%LPC*%
G36*
X137449Y297306D02*
X137449Y297306D01*
X137743Y298018D01*
X138377Y298966D01*
X139184Y299773D01*
X140132Y300407D01*
X140844Y300701D01*
X140844Y297306D01*
X137449Y297306D01*
G37*
%LPD*%
%LPC*%
G36*
X137449Y170306D02*
X137449Y170306D01*
X137743Y171018D01*
X138377Y171966D01*
X139184Y172773D01*
X140132Y173407D01*
X140844Y173701D01*
X140844Y170306D01*
X137449Y170306D01*
G37*
%LPD*%
%LPC*%
G36*
X251749Y170306D02*
X251749Y170306D01*
X252043Y171018D01*
X252677Y171966D01*
X253484Y172773D01*
X254432Y173407D01*
X255144Y173701D01*
X255144Y170306D01*
X251749Y170306D01*
G37*
%LPD*%
%LPC*%
G36*
X251749Y68706D02*
X251749Y68706D01*
X252043Y69418D01*
X252677Y70366D01*
X253484Y71173D01*
X254432Y71807D01*
X255144Y72101D01*
X255144Y68706D01*
X251749Y68706D01*
G37*
%LPD*%
%LPC*%
G36*
X259206Y115444D02*
X259206Y115444D01*
X262601Y115444D01*
X262307Y114732D01*
X261673Y113784D01*
X260866Y112977D01*
X259918Y112343D01*
X259206Y112049D01*
X259206Y115444D01*
G37*
%LPD*%
%LPC*%
G36*
X259206Y293244D02*
X259206Y293244D01*
X262601Y293244D01*
X262307Y292532D01*
X261673Y291584D01*
X260866Y290777D01*
X259918Y290143D01*
X259206Y289849D01*
X259206Y293244D01*
G37*
%LPD*%
%LPC*%
G36*
X259206Y242444D02*
X259206Y242444D01*
X262601Y242444D01*
X262307Y241732D01*
X261673Y240784D01*
X260866Y239977D01*
X259918Y239343D01*
X259206Y239049D01*
X259206Y242444D01*
G37*
%LPD*%
%LPC*%
G36*
X144906Y242444D02*
X144906Y242444D01*
X148301Y242444D01*
X148007Y241732D01*
X147373Y240784D01*
X146566Y239977D01*
X145618Y239343D01*
X144906Y239049D01*
X144906Y242444D01*
G37*
%LPD*%
%LPC*%
G36*
X259206Y166244D02*
X259206Y166244D01*
X262601Y166244D01*
X262307Y165532D01*
X261673Y164584D01*
X260866Y163777D01*
X259918Y163143D01*
X259206Y162849D01*
X259206Y166244D01*
G37*
%LPD*%
%LPC*%
G36*
X144906Y293244D02*
X144906Y293244D01*
X148301Y293244D01*
X148007Y292532D01*
X147373Y291584D01*
X146566Y290777D01*
X145618Y290143D01*
X144906Y289849D01*
X144906Y293244D01*
G37*
%LPD*%
%LPC*%
G36*
X144906Y166244D02*
X144906Y166244D01*
X148301Y166244D01*
X148007Y165532D01*
X147373Y164584D01*
X146566Y163777D01*
X145618Y163143D01*
X144906Y162849D01*
X144906Y166244D01*
G37*
%LPD*%
%LPC*%
G36*
X259206Y344044D02*
X259206Y344044D01*
X262601Y344044D01*
X262307Y343332D01*
X261673Y342384D01*
X260866Y341577D01*
X259918Y340943D01*
X259206Y340649D01*
X259206Y344044D01*
G37*
%LPD*%
%LPC*%
G36*
X259206Y64644D02*
X259206Y64644D01*
X262601Y64644D01*
X262307Y63932D01*
X261673Y62984D01*
X260866Y62177D01*
X259918Y61543D01*
X259206Y61249D01*
X259206Y64644D01*
G37*
%LPD*%
%LPC*%
G36*
X254432Y290143D02*
X254432Y290143D01*
X253484Y290777D01*
X252677Y291584D01*
X252043Y292532D01*
X251749Y293244D01*
X255144Y293244D01*
X255144Y289849D01*
X254432Y290143D01*
G37*
%LPD*%
%LPC*%
G36*
X254432Y239343D02*
X254432Y239343D01*
X253484Y239977D01*
X252677Y240784D01*
X252043Y241732D01*
X251749Y242444D01*
X255144Y242444D01*
X255144Y239049D01*
X254432Y239343D01*
G37*
%LPD*%
%LPC*%
G36*
X140132Y239343D02*
X140132Y239343D01*
X139184Y239977D01*
X138377Y240784D01*
X137743Y241732D01*
X137449Y242444D01*
X140844Y242444D01*
X140844Y239049D01*
X140132Y239343D01*
G37*
%LPD*%
%LPC*%
G36*
X254432Y163143D02*
X254432Y163143D01*
X253484Y163777D01*
X252677Y164584D01*
X252043Y165532D01*
X251749Y166244D01*
X255144Y166244D01*
X255144Y162849D01*
X254432Y163143D01*
G37*
%LPD*%
%LPC*%
G36*
X140132Y163143D02*
X140132Y163143D01*
X139184Y163777D01*
X138377Y164584D01*
X137743Y165532D01*
X137449Y166244D01*
X140844Y166244D01*
X140844Y162849D01*
X140132Y163143D01*
G37*
%LPD*%
%LPC*%
G36*
X140132Y112343D02*
X140132Y112343D01*
X139184Y112977D01*
X138377Y113784D01*
X137743Y114732D01*
X137449Y115444D01*
X140844Y115444D01*
X140844Y112049D01*
X140132Y112343D01*
G37*
%LPD*%
%LPC*%
G36*
X254432Y340943D02*
X254432Y340943D01*
X253484Y341577D01*
X252677Y342384D01*
X252043Y343332D01*
X251749Y344044D01*
X255144Y344044D01*
X255144Y340649D01*
X254432Y340943D01*
G37*
%LPD*%
%LPC*%
G36*
X254432Y112343D02*
X254432Y112343D01*
X253484Y112977D01*
X252677Y113784D01*
X252043Y114732D01*
X251749Y115444D01*
X255144Y115444D01*
X255144Y112049D01*
X254432Y112343D01*
G37*
%LPD*%
%LPC*%
G36*
X140132Y61543D02*
X140132Y61543D01*
X139184Y62177D01*
X138377Y62984D01*
X137743Y63932D01*
X137449Y64644D01*
X140844Y64644D01*
X140844Y61249D01*
X140132Y61543D01*
G37*
%LPD*%
%LPC*%
G36*
X140132Y290143D02*
X140132Y290143D01*
X139184Y290777D01*
X138377Y291584D01*
X137743Y292532D01*
X137449Y293244D01*
X140844Y293244D01*
X140844Y289849D01*
X140132Y290143D01*
G37*
%LPD*%
%LPC*%
G36*
X254432Y61543D02*
X254432Y61543D01*
X253484Y62177D01*
X252677Y62984D01*
X252043Y63932D01*
X251749Y64644D01*
X255144Y64644D01*
X255144Y61249D01*
X254432Y61543D01*
G37*
%LPD*%
%LPC*%
G36*
X43814Y170814D02*
X43814Y170814D01*
X43814Y173491D01*
X44018Y173407D01*
X44966Y172773D01*
X45773Y171966D01*
X46407Y171018D01*
X46491Y170814D01*
X43814Y170814D01*
G37*
%LPD*%
%LPC*%
G36*
X94614Y69214D02*
X94614Y69214D01*
X94614Y71891D01*
X94818Y71807D01*
X95766Y71173D01*
X96573Y70366D01*
X97207Y69418D01*
X97291Y69214D01*
X94614Y69214D01*
G37*
%LPD*%
%LPC*%
G36*
X94614Y120014D02*
X94614Y120014D01*
X94614Y122691D01*
X94818Y122607D01*
X95766Y121973D01*
X96573Y121166D01*
X97207Y120218D01*
X97291Y120014D01*
X94614Y120014D01*
G37*
%LPD*%
%LPC*%
G36*
X43814Y348614D02*
X43814Y348614D01*
X43814Y351291D01*
X44018Y351207D01*
X44966Y350573D01*
X45773Y349766D01*
X46407Y348818D01*
X46491Y348614D01*
X43814Y348614D01*
G37*
%LPD*%
%LPC*%
G36*
X43814Y69214D02*
X43814Y69214D01*
X43814Y71891D01*
X44018Y71807D01*
X44966Y71173D01*
X45773Y70366D01*
X46407Y69418D01*
X46491Y69214D01*
X43814Y69214D01*
G37*
%LPD*%
%LPC*%
G36*
X94614Y348614D02*
X94614Y348614D01*
X94614Y351291D01*
X94818Y351207D01*
X95766Y350573D01*
X96573Y349766D01*
X97207Y348818D01*
X97291Y348614D01*
X94614Y348614D01*
G37*
%LPD*%
%LPC*%
G36*
X43814Y247014D02*
X43814Y247014D01*
X43814Y249691D01*
X44018Y249607D01*
X44966Y248973D01*
X45773Y248166D01*
X46407Y247218D01*
X46491Y247014D01*
X43814Y247014D01*
G37*
%LPD*%
%LPC*%
G36*
X43814Y297814D02*
X43814Y297814D01*
X43814Y300491D01*
X44018Y300407D01*
X44966Y299773D01*
X45773Y298966D01*
X46407Y298018D01*
X46491Y297814D01*
X43814Y297814D01*
G37*
%LPD*%
%LPC*%
G36*
X94614Y297814D02*
X94614Y297814D01*
X94614Y300491D01*
X94818Y300407D01*
X95766Y299773D01*
X96573Y298966D01*
X97207Y298018D01*
X97291Y297814D01*
X94614Y297814D01*
G37*
%LPD*%
%LPC*%
G36*
X43814Y120014D02*
X43814Y120014D01*
X43814Y122691D01*
X44018Y122607D01*
X44966Y121973D01*
X45773Y121166D01*
X46407Y120218D01*
X46491Y120014D01*
X43814Y120014D01*
G37*
%LPD*%
%LPC*%
G36*
X43814Y292736D02*
X43814Y292736D01*
X46491Y292736D01*
X46407Y292532D01*
X45773Y291584D01*
X44966Y290777D01*
X44018Y290143D01*
X43814Y290059D01*
X43814Y292736D01*
G37*
%LPD*%
%LPC*%
G36*
X36059Y247014D02*
X36059Y247014D01*
X36143Y247218D01*
X36777Y248166D01*
X37584Y248973D01*
X38532Y249607D01*
X38736Y249691D01*
X38736Y247014D01*
X36059Y247014D01*
G37*
%LPD*%
%LPC*%
G36*
X43814Y165736D02*
X43814Y165736D01*
X46491Y165736D01*
X46407Y165532D01*
X45773Y164584D01*
X44966Y163777D01*
X44018Y163143D01*
X43814Y163059D01*
X43814Y165736D01*
G37*
%LPD*%
%LPC*%
G36*
X86859Y297814D02*
X86859Y297814D01*
X86943Y298018D01*
X87577Y298966D01*
X88384Y299773D01*
X89332Y300407D01*
X89536Y300491D01*
X89536Y297814D01*
X86859Y297814D01*
G37*
%LPD*%
%LPC*%
G36*
X36059Y297814D02*
X36059Y297814D01*
X36143Y298018D01*
X36777Y298966D01*
X37584Y299773D01*
X38532Y300407D01*
X38736Y300491D01*
X38736Y297814D01*
X36059Y297814D01*
G37*
%LPD*%
%LPC*%
G36*
X94614Y343536D02*
X94614Y343536D01*
X97291Y343536D01*
X97207Y343332D01*
X96573Y342384D01*
X95766Y341577D01*
X94818Y340943D01*
X94614Y340859D01*
X94614Y343536D01*
G37*
%LPD*%
%LPC*%
G36*
X36059Y120014D02*
X36059Y120014D01*
X36143Y120218D01*
X36777Y121166D01*
X37584Y121973D01*
X38532Y122607D01*
X38736Y122691D01*
X38736Y120014D01*
X36059Y120014D01*
G37*
%LPD*%
%LPC*%
G36*
X86859Y120014D02*
X86859Y120014D01*
X86943Y120218D01*
X87577Y121166D01*
X88384Y121973D01*
X89332Y122607D01*
X89536Y122691D01*
X89536Y120014D01*
X86859Y120014D01*
G37*
%LPD*%
%LPC*%
G36*
X43814Y343536D02*
X43814Y343536D01*
X46491Y343536D01*
X46407Y343332D01*
X45773Y342384D01*
X44966Y341577D01*
X44018Y340943D01*
X43814Y340859D01*
X43814Y343536D01*
G37*
%LPD*%
%LPC*%
G36*
X43814Y241936D02*
X43814Y241936D01*
X46491Y241936D01*
X46407Y241732D01*
X45773Y240784D01*
X44966Y239977D01*
X44018Y239343D01*
X43814Y239259D01*
X43814Y241936D01*
G37*
%LPD*%
%LPC*%
G36*
X86859Y348614D02*
X86859Y348614D01*
X86943Y348818D01*
X87577Y349766D01*
X88384Y350573D01*
X89332Y351207D01*
X89536Y351291D01*
X89536Y348614D01*
X86859Y348614D01*
G37*
%LPD*%
%LPC*%
G36*
X94614Y114936D02*
X94614Y114936D01*
X97291Y114936D01*
X97207Y114732D01*
X96573Y113784D01*
X95766Y112977D01*
X94818Y112343D01*
X94614Y112259D01*
X94614Y114936D01*
G37*
%LPD*%
%LPC*%
G36*
X43814Y114936D02*
X43814Y114936D01*
X46491Y114936D01*
X46407Y114732D01*
X45773Y113784D01*
X44966Y112977D01*
X44018Y112343D01*
X43814Y112259D01*
X43814Y114936D01*
G37*
%LPD*%
%LPC*%
G36*
X36059Y348614D02*
X36059Y348614D01*
X36143Y348818D01*
X36777Y349766D01*
X37584Y350573D01*
X38532Y351207D01*
X38736Y351291D01*
X38736Y348614D01*
X36059Y348614D01*
G37*
%LPD*%
%LPC*%
G36*
X36059Y69214D02*
X36059Y69214D01*
X36143Y69418D01*
X36777Y70366D01*
X37584Y71173D01*
X38532Y71807D01*
X38736Y71891D01*
X38736Y69214D01*
X36059Y69214D01*
G37*
%LPD*%
%LPC*%
G36*
X86859Y69214D02*
X86859Y69214D01*
X86943Y69418D01*
X87577Y70366D01*
X88384Y71173D01*
X89332Y71807D01*
X89536Y71891D01*
X89536Y69214D01*
X86859Y69214D01*
G37*
%LPD*%
%LPC*%
G36*
X94614Y292736D02*
X94614Y292736D01*
X97291Y292736D01*
X97207Y292532D01*
X96573Y291584D01*
X95766Y290777D01*
X94818Y290143D01*
X94614Y290059D01*
X94614Y292736D01*
G37*
%LPD*%
%LPC*%
G36*
X36059Y170814D02*
X36059Y170814D01*
X36143Y171018D01*
X36777Y171966D01*
X37584Y172773D01*
X38532Y173407D01*
X38736Y173491D01*
X38736Y170814D01*
X36059Y170814D01*
G37*
%LPD*%
%LPC*%
G36*
X94614Y64136D02*
X94614Y64136D01*
X97291Y64136D01*
X97207Y63932D01*
X96573Y62984D01*
X95766Y62177D01*
X94818Y61543D01*
X94614Y61459D01*
X94614Y64136D01*
G37*
%LPD*%
%LPC*%
G36*
X43814Y64136D02*
X43814Y64136D01*
X46491Y64136D01*
X46407Y63932D01*
X45773Y62984D01*
X44966Y62177D01*
X44018Y61543D01*
X43814Y61459D01*
X43814Y64136D01*
G37*
%LPD*%
%LPC*%
G36*
X38532Y239343D02*
X38532Y239343D01*
X37584Y239977D01*
X36777Y240784D01*
X36143Y241732D01*
X36059Y241936D01*
X38736Y241936D01*
X38736Y239259D01*
X38532Y239343D01*
G37*
%LPD*%
%LPC*%
G36*
X38532Y112343D02*
X38532Y112343D01*
X37584Y112977D01*
X36777Y113784D01*
X36143Y114732D01*
X36059Y114936D01*
X38736Y114936D01*
X38736Y112259D01*
X38532Y112343D01*
G37*
%LPD*%
%LPC*%
G36*
X89332Y112343D02*
X89332Y112343D01*
X88384Y112977D01*
X87577Y113784D01*
X86943Y114732D01*
X86859Y114936D01*
X89536Y114936D01*
X89536Y112259D01*
X89332Y112343D01*
G37*
%LPD*%
%LPC*%
G36*
X38532Y290143D02*
X38532Y290143D01*
X37584Y290777D01*
X36777Y291584D01*
X36143Y292532D01*
X36059Y292736D01*
X38736Y292736D01*
X38736Y290059D01*
X38532Y290143D01*
G37*
%LPD*%
%LPC*%
G36*
X89332Y340943D02*
X89332Y340943D01*
X88384Y341577D01*
X87577Y342384D01*
X86943Y343332D01*
X86859Y343536D01*
X89536Y343536D01*
X89536Y340859D01*
X89332Y340943D01*
G37*
%LPD*%
%LPC*%
G36*
X38532Y163143D02*
X38532Y163143D01*
X37584Y163777D01*
X36777Y164584D01*
X36143Y165532D01*
X36059Y165736D01*
X38736Y165736D01*
X38736Y163059D01*
X38532Y163143D01*
G37*
%LPD*%
%LPC*%
G36*
X89332Y290143D02*
X89332Y290143D01*
X88384Y290777D01*
X87577Y291584D01*
X86943Y292532D01*
X86859Y292736D01*
X89536Y292736D01*
X89536Y290059D01*
X89332Y290143D01*
G37*
%LPD*%
%LPC*%
G36*
X89332Y61543D02*
X89332Y61543D01*
X88384Y62177D01*
X87577Y62984D01*
X86943Y63932D01*
X86859Y64136D01*
X89536Y64136D01*
X89536Y61459D01*
X89332Y61543D01*
G37*
%LPD*%
%LPC*%
G36*
X38532Y340943D02*
X38532Y340943D01*
X37584Y341577D01*
X36777Y342384D01*
X36143Y343332D01*
X36059Y343536D01*
X38736Y343536D01*
X38736Y340859D01*
X38532Y340943D01*
G37*
%LPD*%
%LPC*%
G36*
X38532Y61543D02*
X38532Y61543D01*
X37584Y62177D01*
X36777Y62984D01*
X36143Y63932D01*
X36059Y64136D01*
X38736Y64136D01*
X38736Y61459D01*
X38532Y61543D01*
G37*
%LPD*%
D10*
X171625Y101675D03*
X165125Y101675D03*
X158625Y101675D03*
X152125Y101675D03*
X171625Y57675D03*
X165125Y57675D03*
X158625Y57675D03*
X152125Y57675D03*
X190325Y311075D03*
X196825Y311075D03*
X203325Y311075D03*
X209825Y311075D03*
X190325Y355075D03*
X196825Y355075D03*
X203325Y355075D03*
X209825Y355075D03*
X152225Y311075D03*
X158725Y311075D03*
X165225Y311075D03*
X171725Y311075D03*
X152225Y355075D03*
X158725Y355075D03*
X165225Y355075D03*
X171725Y355075D03*
X209725Y101675D03*
X203225Y101675D03*
X196725Y101675D03*
X190225Y101675D03*
X209725Y57675D03*
X203225Y57675D03*
X196725Y57675D03*
X190225Y57675D03*
D11*
X200075Y286675D03*
X187375Y286675D03*
X174675Y286675D03*
X161975Y286675D03*
D12*
X190975Y242175D03*
X170975Y242175D03*
D11*
X161875Y126075D03*
X174575Y126075D03*
X187275Y126075D03*
X199975Y126075D03*
D12*
X170975Y170575D03*
X190975Y170575D03*
D13*
X236855Y193675D02*
X252095Y193675D01*
X252095Y219075D02*
X236855Y219075D01*
X106045Y193675D02*
X90805Y193675D01*
X90805Y219075D02*
X106045Y219075D01*
X61595Y193675D02*
X46355Y193675D01*
X46355Y219075D02*
X61595Y219075D01*
D14*
X257175Y346075D03*
X142875Y117475D03*
X142875Y66675D03*
X142875Y244475D03*
X142875Y295275D03*
X257175Y295275D03*
X257175Y117475D03*
X257175Y244475D03*
X257175Y168275D03*
X257175Y66675D03*
X142875Y168275D03*
X142875Y206375D03*
D15*
X165100Y57675D02*
X165125Y57675D01*
D16*
X165100Y57675D02*
X165100Y44450D01*
D14*
X165100Y44450D03*
D15*
X171625Y101600D02*
X171625Y101675D01*
D16*
X171625Y101600D02*
X180975Y101600D01*
D14*
X180975Y101600D03*
D15*
X158750Y355075D02*
X158725Y355075D01*
D16*
X158750Y355075D02*
X158750Y368300D01*
D14*
X158750Y368300D03*
X142875Y311150D03*
D16*
X152225Y311150D01*
D15*
X152225Y311075D01*
X190325Y311075D02*
X190325Y311150D01*
D16*
X180975Y311150D01*
D14*
X180975Y311150D03*
D16*
X196825Y355075D02*
X196825Y368300D01*
D15*
X196850Y368300D01*
D14*
X196850Y368300D03*
X219075Y101600D03*
D16*
X209725Y101600D01*
D15*
X209725Y101675D01*
X203225Y57675D02*
X203200Y57675D01*
D16*
X203200Y44450D01*
D14*
X203200Y44450D03*
D17*
X190975Y219075D02*
X190975Y242175D01*
X190975Y219075D02*
X190975Y170575D01*
D18*
X190975Y219075D02*
X244475Y219075D01*
D16*
X209725Y73025D02*
X209725Y57675D01*
D15*
X209725Y73025D02*
X209550Y73025D01*
D14*
X209550Y73025D03*
X190500Y339725D03*
D16*
X190325Y339900D02*
X190325Y355075D01*
X190325Y339900D02*
X190500Y339725D01*
X199975Y126075D02*
X199975Y113627D01*
X203225Y110377D02*
X203225Y101675D01*
X203225Y110377D02*
X199975Y113627D01*
X196725Y76075D02*
X196725Y57675D01*
X203225Y82575D02*
X203225Y101675D01*
X203225Y82575D02*
X196725Y76075D01*
X158625Y76075D02*
X158625Y57675D01*
X165125Y82575D02*
X165125Y101675D01*
X165125Y82575D02*
X158625Y76075D01*
X165125Y101675D02*
X165125Y111150D01*
X174625Y120650D01*
X174625Y126025D01*
D15*
X174575Y126075D01*
D16*
X158725Y301625D02*
X158725Y311075D01*
X161975Y298375D02*
X161975Y286675D01*
X161975Y298375D02*
X158725Y301625D01*
X158725Y311075D02*
X158725Y330175D01*
X165225Y336675D02*
X165225Y355075D01*
X165225Y336675D02*
X158725Y330175D01*
X187375Y292150D02*
X187375Y286675D01*
X187375Y292150D02*
X196850Y301625D01*
X196850Y311050D01*
D15*
X196825Y311075D01*
D16*
X196825Y330175D01*
X203325Y336675D02*
X203325Y355075D01*
X203325Y336675D02*
X196825Y330175D01*
D18*
X170975Y219075D02*
X98425Y219075D01*
X170975Y219075D02*
X170975Y242175D01*
D16*
X200075Y286675D02*
X200075Y292150D01*
X209825Y301900D02*
X209825Y311075D01*
X209825Y301900D02*
X200075Y292150D01*
X170975Y273050D02*
X170975Y242175D01*
X200075Y273050D02*
X200075Y286675D01*
X200075Y273050D02*
X170975Y273050D01*
D15*
X152225Y355075D02*
X152225Y355600D01*
D16*
X146050Y355600D01*
D14*
X146050Y355600D03*
X170975Y273050D03*
D18*
X98425Y219075D02*
X53975Y219075D01*
X98425Y193675D02*
X170975Y193675D01*
X170975Y170575D01*
D16*
X190225Y111400D02*
X190225Y101675D01*
X187275Y114350D02*
X187275Y126075D01*
X187275Y114350D02*
X190225Y111400D01*
X171625Y70025D02*
X171625Y57675D01*
X171625Y70025D02*
X190225Y88625D01*
D15*
X190443Y101457D02*
X190225Y101675D01*
D16*
X170975Y139700D02*
X170975Y170575D01*
X170975Y139700D02*
X187325Y139700D01*
X187325Y126075D01*
D15*
X187275Y126075D01*
D18*
X98425Y193675D02*
X53975Y193675D01*
D16*
X190225Y101675D02*
X190225Y88625D01*
D14*
X92075Y346075D03*
X41275Y346075D03*
X41275Y295275D03*
X92075Y117475D03*
X92075Y295275D03*
X41275Y117475D03*
X92075Y66675D03*
X41275Y66675D03*
X41275Y244475D03*
X41275Y168275D03*
M02*
