G04 EAGLE Gerber X2 export*
%TF.Part,Single*%
%TF.FileFunction,Copper,L1,Top,Mixed*%
%TF.FilePolarity,Positive*%
%TF.GenerationSoftware,Autodesk,EAGLE,8.6.1*%
%TF.CreationDate,2018-02-11T16:27:46Z*%
G75*
%MOMM*%
%FSLAX34Y34*%
%LPD*%
%AMOC8*
5,1,8,0,0,1.08239X$1,22.5*%
G01*
%ADD10R,0.450000X1.450000*%
%ADD11R,0.400000X0.700000*%
%ADD12R,0.580000X2.500000*%
%ADD13C,1.524000*%
%ADD14C,0.650000*%
%ADD15C,0.406400*%
%ADD16C,0.450000*%
%ADD17C,1.473200*%
%ADD18C,0.812800*%

G36*
X158816Y562871D02*
X158816Y562871D01*
X158909Y562871D01*
X161929Y563109D01*
X162001Y563122D01*
X162075Y563125D01*
X162240Y563164D01*
X162325Y563180D01*
X162356Y563192D01*
X162397Y563202D01*
X168142Y565068D01*
X168282Y565130D01*
X168424Y565184D01*
X168471Y565213D01*
X168510Y565230D01*
X168581Y565279D01*
X168708Y565357D01*
X173594Y568907D01*
X173708Y569008D01*
X173827Y569104D01*
X173863Y569146D01*
X173895Y569174D01*
X173946Y569243D01*
X174043Y569356D01*
X177593Y574242D01*
X177670Y574374D01*
X177754Y574502D01*
X177775Y574553D01*
X177797Y574590D01*
X177824Y574671D01*
X177882Y574808D01*
X179748Y580553D01*
X179764Y580624D01*
X179788Y580693D01*
X179801Y580773D01*
X179803Y580780D01*
X179804Y580791D01*
X179815Y580861D01*
X179834Y580946D01*
X179835Y580979D01*
X179841Y581021D01*
X180079Y584041D01*
X180078Y584107D01*
X180085Y584200D01*
X180085Y889000D01*
X180079Y889066D01*
X180079Y889159D01*
X179841Y892179D01*
X179828Y892251D01*
X179825Y892325D01*
X179786Y892490D01*
X179770Y892575D01*
X179758Y892606D01*
X179748Y892647D01*
X177882Y898392D01*
X177820Y898531D01*
X177766Y898674D01*
X177737Y898721D01*
X177720Y898760D01*
X177671Y898831D01*
X177593Y898958D01*
X174043Y903844D01*
X173942Y903958D01*
X173846Y904077D01*
X173804Y904113D01*
X173776Y904145D01*
X173707Y904196D01*
X173594Y904293D01*
X168708Y907843D01*
X168576Y907920D01*
X168448Y908004D01*
X168397Y908025D01*
X168360Y908047D01*
X168279Y908074D01*
X168142Y908132D01*
X162397Y909998D01*
X162326Y910014D01*
X162257Y910038D01*
X162089Y910065D01*
X162004Y910084D01*
X161971Y910085D01*
X161929Y910091D01*
X158909Y910329D01*
X158843Y910328D01*
X158750Y910335D01*
X38100Y910335D01*
X38082Y910333D01*
X38064Y910335D01*
X37882Y910314D01*
X37699Y910295D01*
X37682Y910290D01*
X37665Y910288D01*
X37490Y910231D01*
X37314Y910177D01*
X37299Y910169D01*
X37282Y910163D01*
X37122Y910073D01*
X36960Y909985D01*
X36947Y909974D01*
X36931Y909965D01*
X36792Y909845D01*
X36651Y909728D01*
X36640Y909714D01*
X36627Y909702D01*
X36514Y909557D01*
X36399Y909414D01*
X36391Y909398D01*
X36380Y909384D01*
X36298Y909219D01*
X36213Y909057D01*
X36208Y909040D01*
X36200Y909024D01*
X36153Y908845D01*
X36102Y908670D01*
X36100Y908652D01*
X36096Y908635D01*
X36069Y908304D01*
X36069Y757396D01*
X36071Y757378D01*
X36069Y757360D01*
X36090Y757178D01*
X36109Y756995D01*
X36114Y756978D01*
X36116Y756961D01*
X36173Y756786D01*
X36227Y756610D01*
X36235Y756595D01*
X36241Y756578D01*
X36331Y756418D01*
X36419Y756256D01*
X36430Y756243D01*
X36439Y756227D01*
X36559Y756088D01*
X36676Y755947D01*
X36690Y755936D01*
X36702Y755922D01*
X36847Y755810D01*
X36990Y755695D01*
X37006Y755687D01*
X37020Y755676D01*
X37185Y755594D01*
X37347Y755509D01*
X37364Y755504D01*
X37381Y755496D01*
X37559Y755449D01*
X37734Y755398D01*
X37752Y755396D01*
X37769Y755392D01*
X38100Y755365D01*
X60368Y755365D01*
X60386Y755367D01*
X60404Y755365D01*
X60586Y755386D01*
X60769Y755405D01*
X60786Y755410D01*
X60803Y755412D01*
X60978Y755469D01*
X61154Y755523D01*
X61169Y755531D01*
X61186Y755537D01*
X61346Y755627D01*
X61508Y755715D01*
X61521Y755726D01*
X61537Y755735D01*
X61676Y755855D01*
X61817Y755972D01*
X61828Y755986D01*
X61842Y755998D01*
X61954Y756143D01*
X62069Y756286D01*
X62077Y756302D01*
X62088Y756316D01*
X62170Y756481D01*
X62255Y756643D01*
X62260Y756660D01*
X62268Y756676D01*
X62315Y756855D01*
X62366Y757030D01*
X62368Y757048D01*
X62372Y757065D01*
X62399Y757396D01*
X62399Y758229D01*
X63571Y759401D01*
X65368Y759401D01*
X65386Y759403D01*
X65404Y759401D01*
X65586Y759422D01*
X65769Y759441D01*
X65786Y759446D01*
X65803Y759448D01*
X65978Y759505D01*
X66154Y759559D01*
X66169Y759567D01*
X66186Y759573D01*
X66346Y759663D01*
X66508Y759751D01*
X66521Y759762D01*
X66537Y759771D01*
X66676Y759891D01*
X66817Y760008D01*
X66828Y760022D01*
X66842Y760034D01*
X66954Y760179D01*
X67069Y760322D01*
X67077Y760338D01*
X67088Y760352D01*
X67170Y760517D01*
X67255Y760679D01*
X67260Y760696D01*
X67268Y760712D01*
X67315Y760891D01*
X67366Y761066D01*
X67368Y761084D01*
X67372Y761101D01*
X67399Y761432D01*
X67399Y778368D01*
X67397Y778386D01*
X67399Y778404D01*
X67378Y778586D01*
X67359Y778769D01*
X67354Y778786D01*
X67352Y778803D01*
X67295Y778978D01*
X67241Y779154D01*
X67233Y779169D01*
X67227Y779186D01*
X67137Y779346D01*
X67049Y779508D01*
X67038Y779521D01*
X67029Y779537D01*
X66909Y779676D01*
X66792Y779817D01*
X66778Y779828D01*
X66766Y779842D01*
X66621Y779954D01*
X66478Y780069D01*
X66462Y780077D01*
X66448Y780088D01*
X66283Y780170D01*
X66121Y780255D01*
X66104Y780260D01*
X66088Y780268D01*
X65909Y780315D01*
X65734Y780366D01*
X65716Y780368D01*
X65699Y780372D01*
X65368Y780399D01*
X62571Y780399D01*
X61399Y781571D01*
X61399Y788229D01*
X62571Y789401D01*
X65368Y789401D01*
X65386Y789403D01*
X65404Y789401D01*
X65586Y789422D01*
X65769Y789441D01*
X65786Y789446D01*
X65803Y789448D01*
X65978Y789505D01*
X66154Y789559D01*
X66169Y789567D01*
X66186Y789573D01*
X66346Y789663D01*
X66508Y789751D01*
X66521Y789762D01*
X66537Y789771D01*
X66676Y789891D01*
X66817Y790008D01*
X66828Y790022D01*
X66842Y790034D01*
X66954Y790179D01*
X67069Y790322D01*
X67077Y790338D01*
X67088Y790352D01*
X67170Y790517D01*
X67255Y790679D01*
X67260Y790696D01*
X67268Y790712D01*
X67315Y790891D01*
X67366Y791066D01*
X67368Y791084D01*
X67372Y791101D01*
X67399Y791432D01*
X67399Y794229D01*
X68571Y795401D01*
X72618Y795401D01*
X72636Y795403D01*
X72654Y795401D01*
X72836Y795422D01*
X73019Y795441D01*
X73036Y795446D01*
X73053Y795448D01*
X73228Y795505D01*
X73404Y795559D01*
X73419Y795567D01*
X73436Y795573D01*
X73596Y795663D01*
X73758Y795751D01*
X73771Y795762D01*
X73787Y795771D01*
X73926Y795891D01*
X74067Y796008D01*
X74078Y796022D01*
X74092Y796034D01*
X74204Y796179D01*
X74319Y796322D01*
X74327Y796338D01*
X74338Y796352D01*
X74420Y796517D01*
X74505Y796679D01*
X74510Y796696D01*
X74518Y796712D01*
X74565Y796891D01*
X74616Y797066D01*
X74618Y797084D01*
X74622Y797101D01*
X74649Y797432D01*
X74649Y799412D01*
X74646Y799443D01*
X74648Y799475D01*
X74626Y799644D01*
X74609Y799813D01*
X74600Y799843D01*
X74596Y799874D01*
X74495Y800190D01*
X73649Y802231D01*
X73649Y804319D01*
X74449Y806249D01*
X75926Y807726D01*
X77894Y808541D01*
X77905Y808548D01*
X77918Y808552D01*
X78083Y808643D01*
X78248Y808732D01*
X78259Y808740D01*
X78271Y808747D01*
X78414Y808868D01*
X78559Y808988D01*
X78567Y808999D01*
X78578Y809007D01*
X78694Y809155D01*
X78812Y809301D01*
X78819Y809313D01*
X78827Y809323D01*
X78912Y809490D01*
X79000Y809657D01*
X79003Y809670D01*
X79009Y809682D01*
X79060Y809863D01*
X79113Y810044D01*
X79114Y810057D01*
X79117Y810070D01*
X79131Y810258D01*
X79147Y810445D01*
X79146Y810458D01*
X79147Y810472D01*
X79123Y810658D01*
X79102Y810845D01*
X79098Y810858D01*
X79096Y810871D01*
X79037Y811048D01*
X78979Y811228D01*
X78972Y811240D01*
X78968Y811253D01*
X78875Y811415D01*
X78783Y811580D01*
X78774Y811590D01*
X78767Y811602D01*
X78572Y811832D01*
X78232Y812419D01*
X78059Y813065D01*
X78059Y815279D01*
X78059Y815283D01*
X78059Y815288D01*
X78039Y815482D01*
X78019Y815679D01*
X78018Y815684D01*
X78018Y815688D01*
X77959Y815876D01*
X77901Y816064D01*
X77899Y816068D01*
X77898Y816073D01*
X77802Y816247D01*
X77709Y816418D01*
X77707Y816422D01*
X77704Y816426D01*
X77576Y816578D01*
X77452Y816728D01*
X77448Y816730D01*
X77445Y816734D01*
X77289Y816858D01*
X77138Y816980D01*
X77134Y816982D01*
X77130Y816985D01*
X76951Y817077D01*
X76781Y817165D01*
X76776Y817167D01*
X76772Y817169D01*
X76582Y817223D01*
X76394Y817277D01*
X76389Y817277D01*
X76385Y817278D01*
X76192Y817293D01*
X75992Y817310D01*
X75988Y817309D01*
X75983Y817310D01*
X75789Y817286D01*
X75593Y817263D01*
X75588Y817261D01*
X75584Y817261D01*
X75397Y817199D01*
X75210Y817138D01*
X75206Y817136D01*
X75202Y817134D01*
X75031Y817037D01*
X74859Y816940D01*
X74856Y816937D01*
X74852Y816935D01*
X74703Y816805D01*
X74555Y816677D01*
X74552Y816673D01*
X74548Y816670D01*
X74427Y816513D01*
X74308Y816359D01*
X74306Y816355D01*
X74303Y816351D01*
X74151Y816056D01*
X74055Y815824D01*
X74046Y815794D01*
X74032Y815766D01*
X73988Y815602D01*
X73939Y815439D01*
X73936Y815408D01*
X73928Y815378D01*
X73901Y815047D01*
X73901Y812571D01*
X72729Y811399D01*
X67071Y811399D01*
X65899Y812571D01*
X65899Y815047D01*
X65896Y815078D01*
X65898Y815109D01*
X65876Y815278D01*
X65859Y815448D01*
X65850Y815477D01*
X65846Y815508D01*
X65745Y815824D01*
X65649Y816054D01*
X65649Y825998D01*
X65647Y826024D01*
X65649Y826051D01*
X65627Y826225D01*
X65609Y826399D01*
X65602Y826424D01*
X65598Y826451D01*
X65543Y826616D01*
X65491Y826783D01*
X65478Y826807D01*
X65470Y826832D01*
X65383Y826984D01*
X65299Y827137D01*
X65282Y827158D01*
X65269Y827181D01*
X65054Y827434D01*
X64528Y827961D01*
X63046Y829442D01*
X62486Y830795D01*
X62475Y830815D01*
X62468Y830836D01*
X62380Y830993D01*
X62296Y831150D01*
X62282Y831167D01*
X62271Y831187D01*
X62153Y831323D01*
X62039Y831461D01*
X62022Y831475D01*
X62007Y831492D01*
X61866Y831601D01*
X61727Y831714D01*
X61707Y831725D01*
X61689Y831738D01*
X61529Y831818D01*
X61370Y831901D01*
X61349Y831908D01*
X61329Y831918D01*
X61156Y831964D01*
X60984Y832014D01*
X60962Y832016D01*
X60940Y832022D01*
X60609Y832049D01*
X57189Y832049D01*
X57177Y832048D01*
X57166Y832049D01*
X56977Y832028D01*
X56788Y832009D01*
X56777Y832006D01*
X56766Y832005D01*
X56584Y831947D01*
X56403Y831891D01*
X56393Y831886D01*
X56383Y831883D01*
X56216Y831790D01*
X56049Y831699D01*
X56040Y831692D01*
X56031Y831687D01*
X55885Y831563D01*
X55740Y831442D01*
X55733Y831433D01*
X55724Y831426D01*
X55607Y831276D01*
X55487Y831128D01*
X55482Y831118D01*
X55475Y831109D01*
X55389Y830939D01*
X55302Y830771D01*
X55299Y830760D01*
X55294Y830750D01*
X55243Y830566D01*
X55191Y830384D01*
X55190Y830373D01*
X55187Y830362D01*
X55173Y830171D01*
X55158Y829982D01*
X55159Y829971D01*
X55158Y829960D01*
X55183Y829770D01*
X55205Y829583D01*
X55208Y829572D01*
X55209Y829561D01*
X55270Y829381D01*
X55329Y829200D01*
X55335Y829190D01*
X55338Y829180D01*
X55500Y828889D01*
X55932Y828243D01*
X56226Y827531D01*
X52831Y827531D01*
X52831Y830926D01*
X53091Y830819D01*
X53104Y830815D01*
X53115Y830809D01*
X53296Y830757D01*
X53476Y830703D01*
X53489Y830701D01*
X53502Y830698D01*
X53691Y830682D01*
X53877Y830664D01*
X53890Y830666D01*
X53904Y830665D01*
X54090Y830687D01*
X54277Y830706D01*
X54290Y830710D01*
X54303Y830712D01*
X54483Y830770D01*
X54662Y830826D01*
X54673Y830832D01*
X54686Y830836D01*
X54851Y830929D01*
X55015Y831019D01*
X55025Y831028D01*
X55037Y831034D01*
X55179Y831157D01*
X55323Y831278D01*
X55331Y831289D01*
X55342Y831298D01*
X55456Y831445D01*
X55574Y831593D01*
X55580Y831605D01*
X55588Y831616D01*
X55672Y831784D01*
X55758Y831951D01*
X55762Y831964D01*
X55768Y831976D01*
X55817Y832159D01*
X55868Y832339D01*
X55869Y832352D01*
X55872Y832365D01*
X55899Y832696D01*
X55899Y834764D01*
X55898Y834777D01*
X55899Y834791D01*
X55878Y834977D01*
X55859Y835164D01*
X55855Y835177D01*
X55854Y835191D01*
X55796Y835370D01*
X55741Y835549D01*
X55735Y835561D01*
X55731Y835574D01*
X55639Y835739D01*
X55549Y835903D01*
X55541Y835914D01*
X55534Y835925D01*
X55412Y836069D01*
X55292Y836213D01*
X55281Y836221D01*
X55273Y836231D01*
X55124Y836348D01*
X54978Y836465D01*
X54966Y836471D01*
X54956Y836479D01*
X54786Y836564D01*
X54621Y836651D01*
X54608Y836654D01*
X54596Y836660D01*
X54413Y836710D01*
X54234Y836762D01*
X54220Y836763D01*
X54207Y836767D01*
X54019Y836779D01*
X53832Y836795D01*
X53819Y836793D01*
X53806Y836794D01*
X53618Y836770D01*
X53433Y836748D01*
X53420Y836744D01*
X53407Y836742D01*
X53091Y836640D01*
X51844Y836124D01*
X49756Y836124D01*
X47826Y836924D01*
X46349Y838401D01*
X45549Y840331D01*
X45549Y842419D01*
X46349Y844349D01*
X47826Y845826D01*
X49756Y846626D01*
X51844Y846626D01*
X53091Y846110D01*
X53104Y846106D01*
X53115Y846099D01*
X53295Y846048D01*
X53476Y845993D01*
X53489Y845992D01*
X53502Y845988D01*
X53690Y845973D01*
X53877Y845955D01*
X53890Y845956D01*
X53904Y845955D01*
X54090Y845977D01*
X54277Y845997D01*
X54290Y846001D01*
X54303Y846002D01*
X54482Y846060D01*
X54662Y846116D01*
X54673Y846123D01*
X54686Y846127D01*
X54850Y846219D01*
X55015Y846310D01*
X55025Y846318D01*
X55037Y846325D01*
X55179Y846447D01*
X55323Y846569D01*
X55331Y846579D01*
X55342Y846588D01*
X55456Y846736D01*
X55574Y846884D01*
X55580Y846896D01*
X55588Y846906D01*
X55672Y847074D01*
X55758Y847242D01*
X55762Y847255D01*
X55768Y847267D01*
X55817Y847449D01*
X55868Y847629D01*
X55869Y847642D01*
X55872Y847655D01*
X55899Y847986D01*
X55899Y849379D01*
X57071Y850551D01*
X60368Y850551D01*
X60386Y850553D01*
X60404Y850551D01*
X60586Y850572D01*
X60769Y850591D01*
X60786Y850596D01*
X60803Y850598D01*
X60978Y850655D01*
X61154Y850709D01*
X61169Y850717D01*
X61186Y850723D01*
X61346Y850813D01*
X61508Y850901D01*
X61521Y850912D01*
X61537Y850921D01*
X61676Y851041D01*
X61817Y851158D01*
X61828Y851172D01*
X61842Y851184D01*
X61954Y851329D01*
X62069Y851472D01*
X62077Y851488D01*
X62088Y851502D01*
X62170Y851667D01*
X62255Y851829D01*
X62260Y851846D01*
X62268Y851862D01*
X62315Y852041D01*
X62366Y852216D01*
X62368Y852234D01*
X62372Y852251D01*
X62399Y852582D01*
X62399Y861246D01*
X63046Y862808D01*
X68304Y868066D01*
X68321Y868086D01*
X68342Y868104D01*
X68449Y868242D01*
X68559Y868377D01*
X68572Y868401D01*
X68588Y868422D01*
X68666Y868579D01*
X68748Y868733D01*
X68756Y868758D01*
X68768Y868783D01*
X68813Y868952D01*
X68863Y869119D01*
X68865Y869145D01*
X68872Y869171D01*
X68899Y869502D01*
X68899Y874018D01*
X68897Y874036D01*
X68899Y874054D01*
X68878Y874236D01*
X68859Y874419D01*
X68854Y874436D01*
X68852Y874453D01*
X68795Y874628D01*
X68741Y874804D01*
X68733Y874819D01*
X68727Y874836D01*
X68637Y874996D01*
X68549Y875158D01*
X68538Y875171D01*
X68529Y875187D01*
X68409Y875326D01*
X68292Y875467D01*
X68278Y875478D01*
X68266Y875492D01*
X68121Y875604D01*
X67978Y875719D01*
X67962Y875727D01*
X67948Y875738D01*
X67783Y875820D01*
X67621Y875905D01*
X67604Y875910D01*
X67588Y875918D01*
X67409Y875965D01*
X67234Y876016D01*
X67216Y876018D01*
X67199Y876022D01*
X66868Y876049D01*
X57071Y876049D01*
X55899Y877221D01*
X55899Y878543D01*
X55897Y878561D01*
X55899Y878579D01*
X55878Y878761D01*
X55859Y878944D01*
X55854Y878961D01*
X55852Y878978D01*
X55795Y879153D01*
X55741Y879329D01*
X55733Y879344D01*
X55727Y879361D01*
X55637Y879521D01*
X55549Y879683D01*
X55538Y879696D01*
X55529Y879712D01*
X55409Y879851D01*
X55292Y879992D01*
X55278Y880003D01*
X55266Y880017D01*
X55121Y880129D01*
X54978Y880244D01*
X54962Y880252D01*
X54948Y880263D01*
X54783Y880345D01*
X54621Y880430D01*
X54604Y880435D01*
X54588Y880443D01*
X54409Y880490D01*
X54234Y880541D01*
X54216Y880543D01*
X54199Y880547D01*
X53868Y880574D01*
X52931Y880574D01*
X51001Y881374D01*
X49524Y882851D01*
X48724Y884781D01*
X48724Y886869D01*
X49524Y888799D01*
X51001Y890276D01*
X52931Y891076D01*
X53868Y891076D01*
X53886Y891078D01*
X53904Y891076D01*
X54086Y891097D01*
X54269Y891116D01*
X54286Y891121D01*
X54303Y891123D01*
X54478Y891180D01*
X54654Y891234D01*
X54669Y891242D01*
X54686Y891248D01*
X54846Y891338D01*
X55008Y891426D01*
X55021Y891437D01*
X55037Y891446D01*
X55176Y891566D01*
X55317Y891683D01*
X55328Y891697D01*
X55342Y891709D01*
X55454Y891854D01*
X55569Y891997D01*
X55577Y892013D01*
X55588Y892027D01*
X55670Y892192D01*
X55755Y892354D01*
X55760Y892371D01*
X55768Y892387D01*
X55815Y892566D01*
X55866Y892741D01*
X55868Y892759D01*
X55872Y892776D01*
X55899Y893107D01*
X55899Y893379D01*
X57071Y894551D01*
X59598Y894551D01*
X59611Y894552D01*
X59625Y894551D01*
X59811Y894572D01*
X59998Y894591D01*
X60011Y894595D01*
X60025Y894596D01*
X60204Y894654D01*
X60383Y894709D01*
X60395Y894715D01*
X60408Y894719D01*
X60573Y894811D01*
X60737Y894901D01*
X60748Y894909D01*
X60759Y894916D01*
X60902Y895038D01*
X61047Y895158D01*
X61055Y895169D01*
X61065Y895177D01*
X61181Y895325D01*
X61299Y895472D01*
X61305Y895484D01*
X61313Y895494D01*
X61398Y895663D01*
X61485Y895829D01*
X61488Y895842D01*
X61494Y895854D01*
X61544Y896035D01*
X61596Y896216D01*
X61597Y896230D01*
X61601Y896243D01*
X61613Y896431D01*
X61629Y896618D01*
X61627Y896631D01*
X61628Y896644D01*
X61604Y896832D01*
X61582Y897017D01*
X61578Y897030D01*
X61576Y897043D01*
X61474Y897359D01*
X61424Y897481D01*
X61424Y899569D01*
X62224Y901499D01*
X63701Y902976D01*
X65631Y903776D01*
X67719Y903776D01*
X69649Y902976D01*
X71126Y901499D01*
X71926Y899569D01*
X71926Y897481D01*
X71876Y897359D01*
X71872Y897346D01*
X71865Y897335D01*
X71814Y897155D01*
X71759Y896974D01*
X71758Y896961D01*
X71754Y896948D01*
X71739Y896760D01*
X71721Y896573D01*
X71722Y896560D01*
X71721Y896546D01*
X71743Y896360D01*
X71763Y896173D01*
X71767Y896160D01*
X71768Y896147D01*
X71826Y895968D01*
X71882Y895788D01*
X71889Y895777D01*
X71893Y895764D01*
X71986Y895599D01*
X72076Y895435D01*
X72084Y895425D01*
X72091Y895413D01*
X72214Y895271D01*
X72335Y895127D01*
X72345Y895119D01*
X72354Y895108D01*
X72502Y894993D01*
X72650Y894876D01*
X72662Y894870D01*
X72672Y894862D01*
X72841Y894778D01*
X73008Y894692D01*
X73021Y894688D01*
X73033Y894682D01*
X73215Y894633D01*
X73395Y894582D01*
X73408Y894581D01*
X73421Y894578D01*
X73752Y894551D01*
X82729Y894551D01*
X83901Y893379D01*
X83901Y877221D01*
X82729Y876049D01*
X79432Y876049D01*
X79414Y876047D01*
X79396Y876049D01*
X79214Y876028D01*
X79031Y876009D01*
X79014Y876004D01*
X78997Y876002D01*
X78822Y875945D01*
X78646Y875891D01*
X78631Y875883D01*
X78614Y875877D01*
X78454Y875787D01*
X78292Y875699D01*
X78279Y875688D01*
X78263Y875679D01*
X78124Y875559D01*
X77983Y875442D01*
X77972Y875428D01*
X77958Y875416D01*
X77846Y875271D01*
X77731Y875128D01*
X77723Y875112D01*
X77712Y875098D01*
X77630Y874933D01*
X77545Y874771D01*
X77540Y874754D01*
X77532Y874738D01*
X77485Y874559D01*
X77434Y874384D01*
X77432Y874366D01*
X77428Y874349D01*
X77401Y874018D01*
X77401Y866054D01*
X76754Y864492D01*
X71496Y859234D01*
X71479Y859214D01*
X71458Y859196D01*
X71351Y859058D01*
X71241Y858923D01*
X71228Y858899D01*
X71212Y858878D01*
X71134Y858721D01*
X71052Y858567D01*
X71044Y858542D01*
X71032Y858517D01*
X70987Y858348D01*
X70937Y858181D01*
X70935Y858155D01*
X70928Y858129D01*
X70901Y857798D01*
X70901Y852582D01*
X70903Y852564D01*
X70901Y852546D01*
X70922Y852364D01*
X70941Y852181D01*
X70946Y852164D01*
X70948Y852147D01*
X71005Y851972D01*
X71059Y851796D01*
X71067Y851781D01*
X71073Y851764D01*
X71163Y851604D01*
X71251Y851442D01*
X71262Y851429D01*
X71271Y851413D01*
X71391Y851274D01*
X71508Y851133D01*
X71522Y851122D01*
X71534Y851108D01*
X71679Y850996D01*
X71822Y850881D01*
X71838Y850873D01*
X71852Y850862D01*
X72017Y850780D01*
X72179Y850695D01*
X72196Y850690D01*
X72212Y850682D01*
X72391Y850635D01*
X72566Y850584D01*
X72584Y850582D01*
X72601Y850578D01*
X72932Y850551D01*
X75240Y850551D01*
X75402Y850567D01*
X75566Y850577D01*
X75603Y850587D01*
X75640Y850591D01*
X75797Y850639D01*
X75955Y850681D01*
X75993Y850699D01*
X76025Y850709D01*
X76102Y850750D01*
X76255Y850823D01*
X76419Y850918D01*
X77065Y851091D01*
X77619Y851091D01*
X77619Y841300D01*
X77619Y831509D01*
X77066Y831509D01*
X76708Y831605D01*
X76627Y831618D01*
X76548Y831641D01*
X76428Y831651D01*
X76310Y831670D01*
X76228Y831667D01*
X76146Y831674D01*
X76028Y831660D01*
X75908Y831656D01*
X75828Y831637D01*
X75747Y831627D01*
X75633Y831590D01*
X75516Y831562D01*
X75442Y831528D01*
X75364Y831502D01*
X75260Y831443D01*
X75151Y831393D01*
X75085Y831345D01*
X75013Y831304D01*
X74923Y831226D01*
X74826Y831156D01*
X74771Y831095D01*
X74708Y831041D01*
X74635Y830947D01*
X74554Y830858D01*
X74512Y830788D01*
X74462Y830723D01*
X74408Y830616D01*
X74347Y830514D01*
X74319Y830436D01*
X74282Y830363D01*
X74251Y830247D01*
X74211Y830134D01*
X74199Y830053D01*
X74178Y829974D01*
X74165Y829822D01*
X74153Y829736D01*
X74155Y829696D01*
X74151Y829643D01*
X74151Y821576D01*
X74164Y821440D01*
X74169Y821302D01*
X74184Y821240D01*
X74191Y821176D01*
X74231Y821045D01*
X74263Y820911D01*
X74290Y820852D01*
X74309Y820791D01*
X74374Y820670D01*
X74432Y820545D01*
X74470Y820494D01*
X74501Y820437D01*
X74589Y820331D01*
X74670Y820220D01*
X74717Y820177D01*
X74758Y820128D01*
X74865Y820041D01*
X74967Y819949D01*
X75022Y819916D01*
X75072Y819875D01*
X75194Y819812D01*
X75312Y819741D01*
X75372Y819719D01*
X75429Y819690D01*
X75561Y819652D01*
X75691Y819605D01*
X75754Y819596D01*
X75816Y819578D01*
X75953Y819567D01*
X76089Y819547D01*
X76153Y819551D01*
X76218Y819546D01*
X76354Y819562D01*
X76491Y819569D01*
X76553Y819585D01*
X76617Y819592D01*
X76748Y819635D01*
X76881Y819669D01*
X76939Y819697D01*
X77000Y819717D01*
X77120Y819785D01*
X77244Y819845D01*
X77295Y819883D01*
X77351Y819915D01*
X77455Y820005D01*
X77564Y820088D01*
X77607Y820136D01*
X77655Y820178D01*
X77740Y820287D01*
X77831Y820390D01*
X77863Y820446D01*
X77902Y820496D01*
X77963Y820619D01*
X78032Y820738D01*
X78057Y820808D01*
X78082Y820857D01*
X78102Y820934D01*
X78144Y821051D01*
X78232Y821381D01*
X78567Y821960D01*
X79040Y822433D01*
X79619Y822768D01*
X80265Y822941D01*
X80569Y822941D01*
X80569Y816900D01*
X80570Y816883D01*
X80569Y816865D01*
X80590Y816682D01*
X80608Y816500D01*
X80614Y816483D01*
X80616Y816465D01*
X80673Y816290D01*
X80727Y816115D01*
X80735Y816099D01*
X80741Y816082D01*
X80831Y815922D01*
X80918Y815761D01*
X80930Y815747D01*
X80939Y815732D01*
X81059Y815592D01*
X81176Y815452D01*
X81190Y815440D01*
X81202Y815427D01*
X81347Y815314D01*
X81490Y815199D01*
X81506Y815191D01*
X81520Y815180D01*
X81685Y815098D01*
X81847Y815014D01*
X81864Y815009D01*
X81880Y815001D01*
X82058Y814953D01*
X82234Y814902D01*
X82252Y814901D01*
X82269Y814896D01*
X82600Y814869D01*
X82618Y814871D01*
X82635Y814869D01*
X82636Y814869D01*
X82818Y814891D01*
X83001Y814909D01*
X83018Y814914D01*
X83036Y814916D01*
X83210Y814973D01*
X83386Y815027D01*
X83401Y815036D01*
X83418Y815041D01*
X83579Y815132D01*
X83740Y815219D01*
X83753Y815230D01*
X83769Y815239D01*
X83908Y815359D01*
X84049Y815477D01*
X84060Y815491D01*
X84074Y815502D01*
X84186Y815647D01*
X84301Y815790D01*
X84310Y815806D01*
X84320Y815820D01*
X84402Y815985D01*
X84487Y816148D01*
X84492Y816165D01*
X84500Y816181D01*
X84548Y816359D01*
X84598Y816535D01*
X84600Y816552D01*
X84604Y816570D01*
X84631Y816900D01*
X84631Y822941D01*
X84935Y822941D01*
X85581Y822768D01*
X86160Y822433D01*
X86633Y821960D01*
X86968Y821381D01*
X87056Y821051D01*
X87104Y820922D01*
X87145Y820791D01*
X87175Y820734D01*
X87198Y820674D01*
X87271Y820558D01*
X87337Y820437D01*
X87378Y820388D01*
X87412Y820333D01*
X87507Y820233D01*
X87594Y820128D01*
X87644Y820087D01*
X87689Y820041D01*
X87801Y819961D01*
X87908Y819875D01*
X87965Y819846D01*
X88018Y819809D01*
X88144Y819753D01*
X88265Y819690D01*
X88327Y819672D01*
X88386Y819646D01*
X88520Y819616D01*
X88652Y819578D01*
X88717Y819573D01*
X88779Y819559D01*
X88916Y819557D01*
X89054Y819546D01*
X89118Y819553D01*
X89182Y819552D01*
X89317Y819576D01*
X89453Y819592D01*
X89515Y819612D01*
X89578Y819624D01*
X89705Y819675D01*
X89836Y819717D01*
X89892Y819749D01*
X89952Y819773D01*
X90067Y819848D01*
X90187Y819915D01*
X90236Y819957D01*
X90289Y819992D01*
X90387Y820088D01*
X90492Y820178D01*
X90531Y820229D01*
X90577Y820274D01*
X90654Y820388D01*
X90738Y820496D01*
X90767Y820554D01*
X90803Y820607D01*
X90856Y820734D01*
X90918Y820857D01*
X90934Y820919D01*
X90959Y820978D01*
X90986Y821113D01*
X91022Y821246D01*
X91028Y821319D01*
X91039Y821373D01*
X91039Y821453D01*
X91049Y821576D01*
X91049Y823221D01*
X91696Y824783D01*
X95631Y828717D01*
X95642Y828731D01*
X95656Y828743D01*
X95770Y828887D01*
X95886Y829029D01*
X95894Y829044D01*
X95905Y829058D01*
X95988Y829222D01*
X96074Y829384D01*
X96080Y829401D01*
X96088Y829417D01*
X96137Y829594D01*
X96189Y829770D01*
X96191Y829788D01*
X96196Y829805D01*
X96209Y829988D01*
X96226Y830171D01*
X96224Y830189D01*
X96225Y830207D01*
X96202Y830389D01*
X96182Y830572D01*
X96177Y830589D01*
X96175Y830606D01*
X96116Y830780D01*
X96061Y830955D01*
X96052Y830971D01*
X96046Y830988D01*
X95955Y831147D01*
X95866Y831308D01*
X95854Y831321D01*
X95845Y831337D01*
X95631Y831590D01*
X93999Y833221D01*
X93999Y834764D01*
X93998Y834777D01*
X93999Y834791D01*
X93978Y834977D01*
X93959Y835165D01*
X93955Y835177D01*
X93954Y835191D01*
X93896Y835369D01*
X93841Y835549D01*
X93835Y835561D01*
X93831Y835574D01*
X93739Y835738D01*
X93649Y835903D01*
X93641Y835914D01*
X93634Y835925D01*
X93512Y836069D01*
X93392Y836213D01*
X93381Y836221D01*
X93373Y836231D01*
X93224Y836348D01*
X93078Y836465D01*
X93066Y836471D01*
X93056Y836480D01*
X92886Y836564D01*
X92721Y836651D01*
X92708Y836654D01*
X92696Y836660D01*
X92514Y836710D01*
X92334Y836762D01*
X92320Y836763D01*
X92307Y836767D01*
X92121Y836779D01*
X91932Y836795D01*
X91919Y836793D01*
X91906Y836794D01*
X91720Y836770D01*
X91533Y836748D01*
X91520Y836744D01*
X91507Y836742D01*
X91191Y836641D01*
X89944Y836124D01*
X87856Y836124D01*
X87249Y836375D01*
X87236Y836379D01*
X87225Y836385D01*
X87044Y836437D01*
X86864Y836492D01*
X86851Y836493D01*
X86838Y836497D01*
X86649Y836512D01*
X86463Y836530D01*
X86450Y836529D01*
X86436Y836530D01*
X86250Y836508D01*
X86063Y836488D01*
X86050Y836484D01*
X86037Y836483D01*
X85859Y836425D01*
X85678Y836369D01*
X85667Y836362D01*
X85654Y836358D01*
X85490Y836265D01*
X85325Y836175D01*
X85315Y836167D01*
X85303Y836160D01*
X85161Y836037D01*
X85017Y835916D01*
X85009Y835906D01*
X84998Y835897D01*
X84884Y835749D01*
X84766Y835601D01*
X84760Y835589D01*
X84752Y835579D01*
X84668Y835411D01*
X84582Y835243D01*
X84578Y835230D01*
X84572Y835218D01*
X84523Y835036D01*
X84472Y834856D01*
X84471Y834843D01*
X84468Y834829D01*
X84441Y834499D01*
X84441Y833715D01*
X84268Y833069D01*
X83933Y832490D01*
X83460Y832017D01*
X82881Y831682D01*
X82235Y831509D01*
X81681Y831509D01*
X81681Y841300D01*
X81681Y851091D01*
X82235Y851091D01*
X82881Y850918D01*
X83460Y850583D01*
X83933Y850110D01*
X84268Y849531D01*
X84441Y848885D01*
X84441Y848251D01*
X84442Y848238D01*
X84441Y848225D01*
X84462Y848038D01*
X84481Y847851D01*
X84485Y847838D01*
X84486Y847824D01*
X84543Y847646D01*
X84599Y847466D01*
X84605Y847454D01*
X84609Y847441D01*
X84701Y847277D01*
X84791Y847112D01*
X84799Y847101D01*
X84806Y847090D01*
X84929Y846946D01*
X85048Y846802D01*
X85059Y846794D01*
X85067Y846784D01*
X85216Y846667D01*
X85362Y846550D01*
X85374Y846544D01*
X85384Y846536D01*
X85554Y846451D01*
X85719Y846365D01*
X85732Y846361D01*
X85744Y846355D01*
X85926Y846305D01*
X86106Y846253D01*
X86120Y846252D01*
X86133Y846249D01*
X86319Y846236D01*
X86508Y846220D01*
X86521Y846222D01*
X86534Y846221D01*
X86721Y846245D01*
X86907Y846267D01*
X86920Y846271D01*
X86933Y846273D01*
X87249Y846375D01*
X87856Y846626D01*
X89944Y846626D01*
X91191Y846109D01*
X91204Y846106D01*
X91215Y846099D01*
X91396Y846048D01*
X91576Y845993D01*
X91589Y845992D01*
X91602Y845988D01*
X91791Y845973D01*
X91977Y845955D01*
X91990Y845956D01*
X92004Y845955D01*
X92190Y845977D01*
X92377Y845997D01*
X92390Y846001D01*
X92403Y846002D01*
X92581Y846060D01*
X92762Y846116D01*
X92773Y846123D01*
X92786Y846127D01*
X92950Y846219D01*
X93115Y846310D01*
X93125Y846318D01*
X93137Y846325D01*
X93279Y846448D01*
X93423Y846569D01*
X93431Y846579D01*
X93442Y846588D01*
X93556Y846736D01*
X93674Y846884D01*
X93680Y846896D01*
X93688Y846906D01*
X93772Y847074D01*
X93858Y847242D01*
X93862Y847255D01*
X93868Y847267D01*
X93917Y847449D01*
X93968Y847629D01*
X93969Y847642D01*
X93972Y847655D01*
X93999Y847986D01*
X93999Y849379D01*
X95171Y850551D01*
X98468Y850551D01*
X98486Y850553D01*
X98504Y850551D01*
X98686Y850572D01*
X98869Y850591D01*
X98886Y850596D01*
X98903Y850598D01*
X99078Y850655D01*
X99254Y850709D01*
X99269Y850717D01*
X99286Y850723D01*
X99446Y850813D01*
X99608Y850901D01*
X99621Y850912D01*
X99637Y850921D01*
X99776Y851041D01*
X99917Y851158D01*
X99928Y851172D01*
X99942Y851184D01*
X100054Y851329D01*
X100169Y851472D01*
X100177Y851488D01*
X100188Y851502D01*
X100270Y851667D01*
X100355Y851829D01*
X100360Y851846D01*
X100368Y851862D01*
X100415Y852041D01*
X100466Y852216D01*
X100468Y852234D01*
X100472Y852251D01*
X100499Y852582D01*
X100499Y861245D01*
X100767Y861891D01*
X100770Y861904D01*
X100777Y861915D01*
X100828Y862096D01*
X100883Y862276D01*
X100884Y862289D01*
X100888Y862302D01*
X100903Y862491D01*
X100921Y862677D01*
X100920Y862690D01*
X100921Y862704D01*
X100899Y862890D01*
X100879Y863077D01*
X100875Y863090D01*
X100874Y863103D01*
X100816Y863281D01*
X100760Y863462D01*
X100753Y863473D01*
X100749Y863486D01*
X100657Y863650D01*
X100566Y863815D01*
X100558Y863825D01*
X100551Y863837D01*
X100428Y863979D01*
X100307Y864123D01*
X100297Y864131D01*
X100288Y864142D01*
X100139Y864257D01*
X99992Y864374D01*
X99981Y864380D01*
X99970Y864388D01*
X99801Y864472D01*
X99634Y864558D01*
X99621Y864562D01*
X99609Y864568D01*
X99427Y864617D01*
X99247Y864668D01*
X99234Y864669D01*
X99221Y864672D01*
X98890Y864699D01*
X97381Y864699D01*
X95451Y865499D01*
X93974Y866976D01*
X93174Y868906D01*
X93174Y870994D01*
X93845Y872613D01*
X93854Y872643D01*
X93868Y872671D01*
X93912Y872835D01*
X93961Y872998D01*
X93964Y873029D01*
X93972Y873059D01*
X93999Y873390D01*
X93999Y893379D01*
X95171Y894551D01*
X97698Y894551D01*
X97711Y894552D01*
X97725Y894551D01*
X97912Y894572D01*
X98099Y894591D01*
X98111Y894595D01*
X98125Y894596D01*
X98304Y894654D01*
X98483Y894709D01*
X98495Y894715D01*
X98508Y894719D01*
X98672Y894811D01*
X98837Y894901D01*
X98848Y894909D01*
X98860Y894916D01*
X99003Y895038D01*
X99147Y895158D01*
X99155Y895169D01*
X99165Y895178D01*
X99282Y895326D01*
X99399Y895472D01*
X99405Y895484D01*
X99414Y895495D01*
X99498Y895664D01*
X99585Y895829D01*
X99588Y895842D01*
X99594Y895854D01*
X99644Y896036D01*
X99696Y896216D01*
X99697Y896230D01*
X99701Y896243D01*
X99713Y896429D01*
X99729Y896618D01*
X99727Y896631D01*
X99728Y896644D01*
X99704Y896831D01*
X99682Y897017D01*
X99678Y897030D01*
X99676Y897044D01*
X99574Y897359D01*
X99524Y897481D01*
X99524Y899569D01*
X100324Y901499D01*
X101801Y902976D01*
X103731Y903776D01*
X105819Y903776D01*
X107749Y902976D01*
X109226Y901499D01*
X110026Y899569D01*
X110026Y897481D01*
X109976Y897359D01*
X109972Y897346D01*
X109965Y897335D01*
X109914Y897155D01*
X109859Y896974D01*
X109858Y896961D01*
X109854Y896948D01*
X109839Y896760D01*
X109821Y896573D01*
X109822Y896560D01*
X109821Y896546D01*
X109843Y896359D01*
X109863Y896173D01*
X109867Y896160D01*
X109868Y896147D01*
X109926Y895968D01*
X109982Y895788D01*
X109989Y895777D01*
X109993Y895764D01*
X110086Y895599D01*
X110176Y895435D01*
X110184Y895425D01*
X110191Y895413D01*
X110314Y895271D01*
X110435Y895127D01*
X110445Y895119D01*
X110454Y895108D01*
X110602Y894993D01*
X110750Y894876D01*
X110761Y894870D01*
X110772Y894862D01*
X110941Y894778D01*
X111108Y894692D01*
X111121Y894688D01*
X111133Y894682D01*
X111315Y894633D01*
X111495Y894582D01*
X111508Y894581D01*
X111521Y894578D01*
X111852Y894551D01*
X120829Y894551D01*
X122001Y893379D01*
X122001Y877221D01*
X120829Y876049D01*
X117532Y876049D01*
X117514Y876047D01*
X117496Y876049D01*
X117314Y876028D01*
X117131Y876009D01*
X117114Y876004D01*
X117097Y876002D01*
X116922Y875945D01*
X116746Y875891D01*
X116731Y875883D01*
X116714Y875877D01*
X116554Y875787D01*
X116392Y875699D01*
X116379Y875688D01*
X116363Y875679D01*
X116224Y875559D01*
X116083Y875442D01*
X116072Y875428D01*
X116058Y875416D01*
X115946Y875271D01*
X115831Y875128D01*
X115823Y875112D01*
X115812Y875098D01*
X115730Y874933D01*
X115645Y874771D01*
X115640Y874754D01*
X115632Y874738D01*
X115585Y874559D01*
X115534Y874384D01*
X115532Y874366D01*
X115528Y874349D01*
X115501Y874018D01*
X115501Y866054D01*
X114854Y864492D01*
X109596Y859234D01*
X109579Y859214D01*
X109558Y859196D01*
X109451Y859058D01*
X109341Y858923D01*
X109328Y858899D01*
X109312Y858878D01*
X109234Y858721D01*
X109152Y858567D01*
X109144Y858542D01*
X109132Y858517D01*
X109087Y858348D01*
X109037Y858181D01*
X109035Y858155D01*
X109028Y858129D01*
X109001Y857798D01*
X109001Y852582D01*
X109003Y852564D01*
X109001Y852546D01*
X109022Y852364D01*
X109041Y852181D01*
X109046Y852164D01*
X109048Y852147D01*
X109105Y851972D01*
X109159Y851796D01*
X109167Y851781D01*
X109173Y851764D01*
X109263Y851604D01*
X109351Y851442D01*
X109362Y851429D01*
X109371Y851413D01*
X109491Y851274D01*
X109608Y851133D01*
X109622Y851122D01*
X109634Y851108D01*
X109779Y850996D01*
X109922Y850881D01*
X109938Y850873D01*
X109952Y850862D01*
X110117Y850780D01*
X110279Y850695D01*
X110296Y850690D01*
X110312Y850682D01*
X110491Y850635D01*
X110666Y850584D01*
X110684Y850582D01*
X110701Y850578D01*
X111032Y850551D01*
X120829Y850551D01*
X122001Y849379D01*
X122001Y831279D01*
X121354Y829717D01*
X112846Y821209D01*
X112829Y821189D01*
X112808Y821171D01*
X112701Y821033D01*
X112591Y820898D01*
X112578Y820874D01*
X112562Y820853D01*
X112484Y820696D01*
X112402Y820542D01*
X112394Y820517D01*
X112382Y820492D01*
X112337Y820323D01*
X112287Y820156D01*
X112285Y820130D01*
X112278Y820104D01*
X112251Y819773D01*
X112251Y802429D01*
X111604Y800867D01*
X110408Y799671D01*
X109363Y799239D01*
X109351Y799232D01*
X109338Y799228D01*
X109174Y799137D01*
X109008Y799048D01*
X108998Y799040D01*
X108986Y799033D01*
X108843Y798912D01*
X108698Y798792D01*
X108689Y798782D01*
X108679Y798773D01*
X108562Y798625D01*
X108444Y798479D01*
X108438Y798467D01*
X108429Y798457D01*
X108344Y798290D01*
X108257Y798123D01*
X108253Y798110D01*
X108247Y798098D01*
X108196Y797917D01*
X108144Y797736D01*
X108143Y797723D01*
X108139Y797710D01*
X108125Y797521D01*
X108109Y797335D01*
X108111Y797322D01*
X108110Y797309D01*
X108133Y797121D01*
X108154Y796935D01*
X108158Y796922D01*
X108160Y796909D01*
X108220Y796731D01*
X108277Y796552D01*
X108284Y796540D01*
X108288Y796527D01*
X108382Y796365D01*
X108474Y796200D01*
X108483Y796190D01*
X108489Y796179D01*
X108704Y795926D01*
X110401Y794229D01*
X110401Y791432D01*
X110403Y791414D01*
X110401Y791396D01*
X110422Y791214D01*
X110441Y791031D01*
X110446Y791014D01*
X110448Y790997D01*
X110505Y790822D01*
X110559Y790646D01*
X110567Y790631D01*
X110573Y790614D01*
X110663Y790454D01*
X110751Y790292D01*
X110762Y790279D01*
X110771Y790263D01*
X110891Y790124D01*
X111008Y789983D01*
X111022Y789972D01*
X111034Y789958D01*
X111179Y789846D01*
X111322Y789731D01*
X111338Y789723D01*
X111352Y789712D01*
X111517Y789630D01*
X111679Y789545D01*
X111696Y789540D01*
X111712Y789532D01*
X111891Y789485D01*
X112066Y789434D01*
X112084Y789432D01*
X112101Y789428D01*
X112432Y789401D01*
X115229Y789401D01*
X116401Y788229D01*
X116401Y781571D01*
X115229Y780399D01*
X112432Y780399D01*
X112414Y780397D01*
X112396Y780399D01*
X112214Y780378D01*
X112031Y780359D01*
X112014Y780354D01*
X111997Y780352D01*
X111822Y780295D01*
X111646Y780241D01*
X111631Y780233D01*
X111614Y780227D01*
X111454Y780137D01*
X111292Y780049D01*
X111279Y780038D01*
X111263Y780029D01*
X111124Y779909D01*
X110983Y779792D01*
X110972Y779778D01*
X110958Y779766D01*
X110846Y779621D01*
X110731Y779478D01*
X110723Y779462D01*
X110712Y779448D01*
X110630Y779283D01*
X110545Y779121D01*
X110540Y779104D01*
X110532Y779088D01*
X110485Y778909D01*
X110434Y778734D01*
X110432Y778716D01*
X110428Y778699D01*
X110401Y778368D01*
X110401Y761432D01*
X110403Y761414D01*
X110401Y761396D01*
X110422Y761214D01*
X110441Y761031D01*
X110446Y761014D01*
X110448Y760997D01*
X110505Y760822D01*
X110559Y760646D01*
X110567Y760631D01*
X110573Y760614D01*
X110663Y760454D01*
X110751Y760292D01*
X110762Y760279D01*
X110771Y760263D01*
X110891Y760124D01*
X111008Y759983D01*
X111022Y759972D01*
X111034Y759958D01*
X111179Y759846D01*
X111322Y759731D01*
X111338Y759723D01*
X111352Y759712D01*
X111517Y759630D01*
X111679Y759545D01*
X111696Y759540D01*
X111712Y759532D01*
X111891Y759485D01*
X112066Y759434D01*
X112084Y759432D01*
X112101Y759428D01*
X112432Y759401D01*
X114229Y759401D01*
X115401Y758229D01*
X115401Y757396D01*
X115403Y757378D01*
X115401Y757360D01*
X115422Y757178D01*
X115441Y756995D01*
X115446Y756978D01*
X115448Y756961D01*
X115505Y756786D01*
X115559Y756610D01*
X115567Y756595D01*
X115573Y756578D01*
X115663Y756418D01*
X115751Y756256D01*
X115762Y756243D01*
X115771Y756227D01*
X115891Y756088D01*
X116008Y755947D01*
X116022Y755936D01*
X116034Y755922D01*
X116179Y755810D01*
X116322Y755695D01*
X116338Y755687D01*
X116352Y755676D01*
X116517Y755594D01*
X116679Y755509D01*
X116696Y755504D01*
X116712Y755496D01*
X116891Y755449D01*
X117066Y755398D01*
X117084Y755396D01*
X117101Y755392D01*
X117432Y755365D01*
X136398Y755365D01*
X136424Y755367D01*
X136451Y755365D01*
X136625Y755387D01*
X136798Y755405D01*
X136824Y755412D01*
X136850Y755416D01*
X137016Y755471D01*
X137183Y755523D01*
X137207Y755536D01*
X137232Y755544D01*
X137384Y755631D01*
X137537Y755715D01*
X137558Y755732D01*
X137581Y755745D01*
X137834Y755960D01*
X139330Y757456D01*
X142866Y758921D01*
X161934Y758921D01*
X165470Y757456D01*
X168176Y754750D01*
X169641Y751214D01*
X169641Y747386D01*
X168176Y743850D01*
X165470Y741144D01*
X161934Y739679D01*
X142866Y739679D01*
X139330Y741144D01*
X137834Y742640D01*
X137813Y742657D01*
X137796Y742678D01*
X137658Y742785D01*
X137522Y742895D01*
X137499Y742908D01*
X137478Y742924D01*
X137321Y743002D01*
X137167Y743084D01*
X137141Y743092D01*
X137117Y743104D01*
X136948Y743149D01*
X136781Y743199D01*
X136754Y743201D01*
X136728Y743208D01*
X136398Y743235D01*
X110298Y743235D01*
X110280Y743233D01*
X110262Y743235D01*
X110080Y743214D01*
X109897Y743195D01*
X109880Y743190D01*
X109863Y743188D01*
X109688Y743131D01*
X109512Y743077D01*
X109497Y743069D01*
X109480Y743063D01*
X109320Y742973D01*
X109158Y742885D01*
X109145Y742874D01*
X109129Y742865D01*
X108990Y742745D01*
X108849Y742628D01*
X108838Y742614D01*
X108824Y742602D01*
X108712Y742457D01*
X108597Y742314D01*
X108589Y742298D01*
X108578Y742284D01*
X108496Y742119D01*
X108411Y741957D01*
X108406Y741940D01*
X108398Y741924D01*
X108351Y741745D01*
X108300Y741570D01*
X108298Y741552D01*
X108294Y741535D01*
X108267Y741204D01*
X108267Y723832D01*
X108269Y723814D01*
X108267Y723796D01*
X108288Y723614D01*
X108307Y723431D01*
X108312Y723414D01*
X108314Y723397D01*
X108371Y723222D01*
X108425Y723046D01*
X108433Y723031D01*
X108439Y723014D01*
X108529Y722854D01*
X108617Y722692D01*
X108628Y722679D01*
X108637Y722663D01*
X108757Y722524D01*
X108874Y722383D01*
X108888Y722372D01*
X108900Y722358D01*
X109045Y722246D01*
X109188Y722131D01*
X109204Y722123D01*
X109218Y722112D01*
X109383Y722030D01*
X109545Y721945D01*
X109562Y721940D01*
X109578Y721932D01*
X109757Y721885D01*
X109932Y721834D01*
X109950Y721832D01*
X109967Y721828D01*
X110298Y721801D01*
X114229Y721801D01*
X115401Y720629D01*
X115401Y714971D01*
X114229Y713799D01*
X112432Y713799D01*
X112414Y713797D01*
X112396Y713799D01*
X112214Y713778D01*
X112031Y713759D01*
X112014Y713754D01*
X111997Y713752D01*
X111822Y713695D01*
X111646Y713641D01*
X111631Y713633D01*
X111614Y713627D01*
X111454Y713537D01*
X111292Y713449D01*
X111279Y713438D01*
X111263Y713429D01*
X111124Y713309D01*
X110983Y713192D01*
X110972Y713178D01*
X110958Y713166D01*
X110846Y713021D01*
X110731Y712878D01*
X110723Y712862D01*
X110712Y712848D01*
X110630Y712683D01*
X110545Y712521D01*
X110540Y712504D01*
X110532Y712488D01*
X110485Y712309D01*
X110434Y712134D01*
X110432Y712116D01*
X110428Y712099D01*
X110401Y711768D01*
X110401Y694832D01*
X110403Y694814D01*
X110401Y694796D01*
X110422Y694614D01*
X110441Y694431D01*
X110446Y694414D01*
X110448Y694397D01*
X110505Y694222D01*
X110559Y694046D01*
X110567Y694031D01*
X110573Y694014D01*
X110663Y693854D01*
X110751Y693692D01*
X110762Y693679D01*
X110771Y693663D01*
X110891Y693524D01*
X111008Y693383D01*
X111022Y693372D01*
X111034Y693358D01*
X111179Y693246D01*
X111322Y693131D01*
X111338Y693123D01*
X111352Y693112D01*
X111517Y693030D01*
X111679Y692945D01*
X111696Y692940D01*
X111712Y692932D01*
X111891Y692885D01*
X112066Y692834D01*
X112084Y692832D01*
X112101Y692828D01*
X112432Y692801D01*
X115229Y692801D01*
X116401Y691629D01*
X116401Y684971D01*
X115229Y683799D01*
X112432Y683799D01*
X112414Y683797D01*
X112396Y683799D01*
X112214Y683778D01*
X112031Y683759D01*
X112014Y683754D01*
X111997Y683752D01*
X111822Y683695D01*
X111646Y683641D01*
X111631Y683633D01*
X111614Y683627D01*
X111454Y683537D01*
X111292Y683449D01*
X111279Y683438D01*
X111263Y683429D01*
X111124Y683309D01*
X110983Y683192D01*
X110972Y683178D01*
X110958Y683166D01*
X110846Y683021D01*
X110731Y682878D01*
X110723Y682862D01*
X110712Y682848D01*
X110630Y682683D01*
X110545Y682521D01*
X110540Y682504D01*
X110532Y682488D01*
X110485Y682309D01*
X110434Y682134D01*
X110432Y682116D01*
X110428Y682099D01*
X110401Y681768D01*
X110401Y678971D01*
X109229Y677799D01*
X97559Y677799D01*
X97555Y677799D01*
X97550Y677799D01*
X97357Y677779D01*
X97159Y677759D01*
X97154Y677758D01*
X97150Y677758D01*
X96964Y677700D01*
X96774Y677641D01*
X96770Y677639D01*
X96766Y677638D01*
X96594Y677544D01*
X96420Y677449D01*
X96416Y677447D01*
X96412Y677444D01*
X96261Y677317D01*
X96110Y677192D01*
X96108Y677188D01*
X96104Y677185D01*
X95981Y677031D01*
X95858Y676878D01*
X95856Y676874D01*
X95853Y676871D01*
X95762Y676694D01*
X95673Y676521D01*
X95671Y676516D01*
X95669Y676512D01*
X95616Y676325D01*
X95561Y676134D01*
X95561Y676129D01*
X95560Y676125D01*
X95545Y675932D01*
X95528Y675732D01*
X95529Y675728D01*
X95529Y675724D01*
X95552Y675530D01*
X95575Y675333D01*
X95577Y675328D01*
X95577Y675324D01*
X95638Y675139D01*
X95700Y674950D01*
X95702Y674946D01*
X95704Y674942D01*
X95802Y674770D01*
X95898Y674599D01*
X95901Y674596D01*
X95903Y674592D01*
X96035Y674441D01*
X96161Y674295D01*
X96165Y674292D01*
X96168Y674288D01*
X96324Y674168D01*
X96479Y674048D01*
X96483Y674046D01*
X96487Y674043D01*
X96782Y673891D01*
X97658Y673529D01*
X98854Y672333D01*
X99501Y670771D01*
X99501Y655361D01*
X99489Y655322D01*
X99486Y655291D01*
X99478Y655260D01*
X99451Y654930D01*
X99451Y647177D01*
X99453Y647151D01*
X99451Y647124D01*
X99473Y646950D01*
X99491Y646776D01*
X99498Y646751D01*
X99502Y646725D01*
X99557Y646559D01*
X99609Y646392D01*
X99622Y646368D01*
X99630Y646343D01*
X99717Y646191D01*
X99801Y646038D01*
X99818Y646017D01*
X99831Y645994D01*
X100046Y645741D01*
X100182Y645605D01*
X100189Y645599D01*
X100194Y645592D01*
X100344Y645472D01*
X100493Y645350D01*
X100501Y645346D01*
X100508Y645340D01*
X100678Y645252D01*
X100849Y645161D01*
X100857Y645158D01*
X100865Y645154D01*
X101050Y645101D01*
X101235Y645046D01*
X101244Y645045D01*
X101252Y645043D01*
X101444Y645027D01*
X101636Y645010D01*
X101645Y645011D01*
X101654Y645010D01*
X101844Y645032D01*
X102036Y645053D01*
X102044Y645056D01*
X102053Y645057D01*
X102237Y645117D01*
X102420Y645175D01*
X102428Y645179D01*
X102436Y645182D01*
X102605Y645277D01*
X102772Y645369D01*
X102779Y645375D01*
X102787Y645380D01*
X102933Y645506D01*
X103079Y645630D01*
X103085Y645637D01*
X103092Y645643D01*
X103209Y645795D01*
X103329Y645946D01*
X103333Y645954D01*
X103338Y645961D01*
X103424Y646134D01*
X103511Y646305D01*
X103514Y646313D01*
X103518Y646322D01*
X103568Y646509D01*
X103619Y646693D01*
X103620Y646701D01*
X103622Y646710D01*
X103649Y647041D01*
X103649Y657146D01*
X103745Y657376D01*
X103754Y657406D01*
X103768Y657434D01*
X103812Y657598D01*
X103861Y657761D01*
X103864Y657792D01*
X103872Y657822D01*
X103899Y658153D01*
X103899Y660629D01*
X105071Y661801D01*
X110729Y661801D01*
X111901Y660629D01*
X111901Y658153D01*
X111904Y658122D01*
X111902Y658091D01*
X111924Y657922D01*
X111941Y657753D01*
X111950Y657723D01*
X111954Y657692D01*
X112055Y657376D01*
X112151Y657146D01*
X112151Y646454D01*
X112153Y646428D01*
X112151Y646401D01*
X112173Y646227D01*
X112191Y646054D01*
X112198Y646028D01*
X112202Y646001D01*
X112257Y645836D01*
X112309Y645669D01*
X112322Y645645D01*
X112330Y645620D01*
X112417Y645468D01*
X112501Y645315D01*
X112518Y645294D01*
X112531Y645271D01*
X112746Y645018D01*
X114754Y643010D01*
X115004Y642405D01*
X115015Y642385D01*
X115022Y642364D01*
X115110Y642207D01*
X115195Y642050D01*
X115209Y642033D01*
X115220Y642013D01*
X115337Y641877D01*
X115451Y641739D01*
X115468Y641725D01*
X115483Y641708D01*
X115624Y641599D01*
X115764Y641486D01*
X115783Y641475D01*
X115801Y641462D01*
X115962Y641382D01*
X116120Y641299D01*
X116141Y641292D01*
X116161Y641282D01*
X116335Y641236D01*
X116506Y641186D01*
X116529Y641184D01*
X116550Y641178D01*
X116881Y641151D01*
X120729Y641151D01*
X121901Y639979D01*
X121901Y638436D01*
X121902Y638423D01*
X121901Y638409D01*
X121922Y638223D01*
X121941Y638036D01*
X121945Y638023D01*
X121946Y638009D01*
X122004Y637830D01*
X122059Y637651D01*
X122065Y637639D01*
X122069Y637626D01*
X122161Y637461D01*
X122251Y637297D01*
X122259Y637286D01*
X122266Y637275D01*
X122388Y637131D01*
X122508Y636987D01*
X122519Y636979D01*
X122527Y636969D01*
X122676Y636852D01*
X122822Y636735D01*
X122834Y636729D01*
X122844Y636721D01*
X123014Y636636D01*
X123179Y636549D01*
X123192Y636546D01*
X123204Y636540D01*
X123387Y636490D01*
X123566Y636438D01*
X123580Y636437D01*
X123593Y636433D01*
X123781Y636421D01*
X123968Y636405D01*
X123981Y636407D01*
X123994Y636406D01*
X124182Y636430D01*
X124367Y636452D01*
X124380Y636456D01*
X124393Y636458D01*
X124709Y636560D01*
X125956Y637076D01*
X128044Y637076D01*
X129974Y636276D01*
X131451Y634799D01*
X132251Y632869D01*
X132251Y630781D01*
X131451Y628851D01*
X129974Y627374D01*
X128044Y626574D01*
X125956Y626574D01*
X124709Y627090D01*
X124696Y627094D01*
X124685Y627101D01*
X124505Y627152D01*
X124324Y627207D01*
X124311Y627208D01*
X124298Y627212D01*
X124110Y627227D01*
X123923Y627245D01*
X123910Y627244D01*
X123896Y627245D01*
X123710Y627223D01*
X123523Y627203D01*
X123510Y627199D01*
X123497Y627198D01*
X123318Y627140D01*
X123138Y627084D01*
X123127Y627077D01*
X123114Y627073D01*
X122950Y626981D01*
X122785Y626890D01*
X122775Y626882D01*
X122763Y626875D01*
X122621Y626753D01*
X122477Y626631D01*
X122469Y626621D01*
X122458Y626612D01*
X122344Y626464D01*
X122226Y626316D01*
X122220Y626304D01*
X122212Y626294D01*
X122128Y626126D01*
X122042Y625958D01*
X122038Y625945D01*
X122032Y625933D01*
X121983Y625751D01*
X121932Y625571D01*
X121931Y625558D01*
X121928Y625545D01*
X121901Y625214D01*
X121901Y623821D01*
X120729Y622649D01*
X117432Y622649D01*
X117414Y622647D01*
X117396Y622649D01*
X117214Y622628D01*
X117031Y622609D01*
X117014Y622604D01*
X116997Y622602D01*
X116822Y622545D01*
X116646Y622491D01*
X116631Y622483D01*
X116614Y622477D01*
X116454Y622387D01*
X116292Y622299D01*
X116279Y622288D01*
X116263Y622279D01*
X116124Y622159D01*
X115983Y622042D01*
X115972Y622028D01*
X115958Y622016D01*
X115846Y621871D01*
X115731Y621728D01*
X115723Y621712D01*
X115712Y621698D01*
X115630Y621533D01*
X115545Y621371D01*
X115540Y621354D01*
X115532Y621338D01*
X115485Y621159D01*
X115434Y620984D01*
X115432Y620966D01*
X115428Y620949D01*
X115401Y620618D01*
X115401Y611955D01*
X115133Y611309D01*
X115130Y611296D01*
X115123Y611285D01*
X115072Y611104D01*
X115017Y610924D01*
X115016Y610911D01*
X115012Y610898D01*
X114997Y610709D01*
X114979Y610523D01*
X114980Y610510D01*
X114979Y610496D01*
X115001Y610310D01*
X115021Y610123D01*
X115025Y610110D01*
X115026Y610097D01*
X115084Y609919D01*
X115140Y609738D01*
X115147Y609727D01*
X115151Y609714D01*
X115243Y609550D01*
X115334Y609385D01*
X115342Y609375D01*
X115349Y609363D01*
X115472Y609221D01*
X115593Y609077D01*
X115603Y609069D01*
X115612Y609058D01*
X115761Y608943D01*
X115908Y608826D01*
X115919Y608820D01*
X115930Y608812D01*
X116099Y608728D01*
X116266Y608642D01*
X116279Y608638D01*
X116291Y608632D01*
X116473Y608583D01*
X116653Y608532D01*
X116666Y608531D01*
X116679Y608528D01*
X117010Y608501D01*
X118519Y608501D01*
X120449Y607701D01*
X121926Y606224D01*
X122726Y604294D01*
X122726Y602206D01*
X122055Y600587D01*
X122046Y600557D01*
X122032Y600529D01*
X121988Y600365D01*
X121939Y600202D01*
X121936Y600171D01*
X121928Y600141D01*
X121901Y599810D01*
X121901Y579821D01*
X120729Y578649D01*
X118202Y578649D01*
X118189Y578648D01*
X118175Y578649D01*
X117988Y578628D01*
X117801Y578609D01*
X117789Y578605D01*
X117775Y578604D01*
X117596Y578546D01*
X117417Y578491D01*
X117405Y578485D01*
X117392Y578481D01*
X117228Y578389D01*
X117063Y578299D01*
X117052Y578291D01*
X117040Y578284D01*
X116897Y578162D01*
X116753Y578042D01*
X116745Y578031D01*
X116735Y578022D01*
X116618Y577874D01*
X116501Y577728D01*
X116495Y577716D01*
X116486Y577705D01*
X116402Y577536D01*
X116315Y577371D01*
X116312Y577358D01*
X116306Y577346D01*
X116256Y577164D01*
X116204Y576984D01*
X116203Y576970D01*
X116199Y576957D01*
X116187Y576771D01*
X116171Y576582D01*
X116173Y576569D01*
X116172Y576556D01*
X116196Y576369D01*
X116218Y576183D01*
X116222Y576170D01*
X116224Y576156D01*
X116326Y575841D01*
X116376Y575719D01*
X116376Y573631D01*
X115576Y571701D01*
X114099Y570224D01*
X112169Y569424D01*
X110081Y569424D01*
X108151Y570224D01*
X106674Y571701D01*
X105874Y573631D01*
X105874Y575719D01*
X105924Y575841D01*
X105928Y575854D01*
X105935Y575865D01*
X105986Y576045D01*
X106041Y576226D01*
X106042Y576239D01*
X106046Y576252D01*
X106061Y576440D01*
X106079Y576627D01*
X106078Y576640D01*
X106079Y576654D01*
X106057Y576841D01*
X106037Y577027D01*
X106033Y577040D01*
X106032Y577053D01*
X105974Y577232D01*
X105918Y577412D01*
X105911Y577423D01*
X105907Y577436D01*
X105814Y577601D01*
X105724Y577765D01*
X105716Y577775D01*
X105709Y577787D01*
X105586Y577929D01*
X105465Y578073D01*
X105455Y578081D01*
X105446Y578092D01*
X105298Y578207D01*
X105150Y578324D01*
X105139Y578330D01*
X105128Y578338D01*
X104959Y578422D01*
X104792Y578508D01*
X104779Y578512D01*
X104767Y578518D01*
X104585Y578567D01*
X104405Y578618D01*
X104392Y578619D01*
X104379Y578622D01*
X104048Y578649D01*
X95071Y578649D01*
X93899Y579821D01*
X93899Y595979D01*
X95071Y597151D01*
X98368Y597151D01*
X98386Y597153D01*
X98404Y597151D01*
X98586Y597172D01*
X98769Y597191D01*
X98786Y597196D01*
X98803Y597198D01*
X98978Y597255D01*
X99154Y597309D01*
X99169Y597317D01*
X99186Y597323D01*
X99346Y597413D01*
X99508Y597501D01*
X99521Y597512D01*
X99537Y597521D01*
X99676Y597641D01*
X99817Y597758D01*
X99828Y597772D01*
X99842Y597784D01*
X99954Y597929D01*
X100069Y598072D01*
X100077Y598088D01*
X100088Y598102D01*
X100170Y598267D01*
X100255Y598429D01*
X100260Y598446D01*
X100268Y598462D01*
X100315Y598641D01*
X100366Y598816D01*
X100368Y598834D01*
X100372Y598851D01*
X100399Y599182D01*
X100399Y607146D01*
X101046Y608708D01*
X106304Y613966D01*
X106321Y613986D01*
X106342Y614004D01*
X106449Y614142D01*
X106559Y614277D01*
X106572Y614301D01*
X106588Y614322D01*
X106666Y614479D01*
X106748Y614633D01*
X106756Y614658D01*
X106768Y614683D01*
X106813Y614852D01*
X106863Y615019D01*
X106865Y615045D01*
X106872Y615071D01*
X106899Y615402D01*
X106899Y620618D01*
X106897Y620636D01*
X106899Y620654D01*
X106878Y620836D01*
X106859Y621019D01*
X106854Y621036D01*
X106852Y621053D01*
X106795Y621228D01*
X106741Y621404D01*
X106733Y621419D01*
X106727Y621436D01*
X106637Y621596D01*
X106549Y621758D01*
X106538Y621771D01*
X106529Y621787D01*
X106409Y621926D01*
X106292Y622067D01*
X106278Y622078D01*
X106266Y622092D01*
X106121Y622204D01*
X105978Y622319D01*
X105962Y622327D01*
X105948Y622338D01*
X105783Y622420D01*
X105621Y622505D01*
X105604Y622510D01*
X105588Y622518D01*
X105409Y622565D01*
X105234Y622616D01*
X105216Y622618D01*
X105199Y622622D01*
X104868Y622649D01*
X104432Y622649D01*
X104414Y622647D01*
X104396Y622649D01*
X104214Y622628D01*
X104031Y622609D01*
X104014Y622604D01*
X103997Y622602D01*
X103822Y622545D01*
X103646Y622491D01*
X103631Y622483D01*
X103614Y622477D01*
X103454Y622387D01*
X103292Y622299D01*
X103279Y622288D01*
X103263Y622279D01*
X103124Y622159D01*
X102983Y622042D01*
X102972Y622028D01*
X102958Y622016D01*
X102846Y621871D01*
X102731Y621728D01*
X102723Y621712D01*
X102712Y621698D01*
X102630Y621533D01*
X102545Y621371D01*
X102540Y621354D01*
X102532Y621338D01*
X102485Y621159D01*
X102434Y620984D01*
X102432Y620966D01*
X102428Y620949D01*
X102401Y620618D01*
X102401Y618004D01*
X101754Y616442D01*
X84396Y599084D01*
X84379Y599064D01*
X84358Y599046D01*
X84251Y598908D01*
X84141Y598773D01*
X84128Y598749D01*
X84112Y598728D01*
X84034Y598571D01*
X83952Y598417D01*
X83944Y598392D01*
X83932Y598367D01*
X83887Y598198D01*
X83837Y598031D01*
X83835Y598005D01*
X83828Y597979D01*
X83801Y597648D01*
X83801Y579821D01*
X82629Y578649D01*
X80102Y578649D01*
X80089Y578648D01*
X80075Y578649D01*
X79888Y578628D01*
X79701Y578609D01*
X79689Y578605D01*
X79675Y578604D01*
X79496Y578546D01*
X79317Y578491D01*
X79305Y578485D01*
X79292Y578481D01*
X79128Y578389D01*
X78963Y578299D01*
X78952Y578291D01*
X78940Y578284D01*
X78797Y578162D01*
X78653Y578042D01*
X78645Y578031D01*
X78635Y578022D01*
X78518Y577874D01*
X78401Y577728D01*
X78395Y577716D01*
X78386Y577705D01*
X78302Y577536D01*
X78215Y577371D01*
X78212Y577358D01*
X78206Y577346D01*
X78156Y577164D01*
X78104Y576984D01*
X78103Y576970D01*
X78099Y576957D01*
X78087Y576771D01*
X78071Y576582D01*
X78073Y576569D01*
X78072Y576556D01*
X78096Y576369D01*
X78118Y576183D01*
X78122Y576170D01*
X78124Y576156D01*
X78226Y575841D01*
X78276Y575719D01*
X78276Y573631D01*
X77476Y571701D01*
X75999Y570224D01*
X74069Y569424D01*
X71981Y569424D01*
X70051Y570224D01*
X68574Y571701D01*
X67774Y573631D01*
X67774Y575719D01*
X67824Y575841D01*
X67828Y575854D01*
X67835Y575865D01*
X67886Y576045D01*
X67941Y576226D01*
X67942Y576239D01*
X67946Y576252D01*
X67961Y576440D01*
X67979Y576627D01*
X67978Y576640D01*
X67979Y576654D01*
X67957Y576841D01*
X67937Y577027D01*
X67933Y577040D01*
X67932Y577053D01*
X67874Y577232D01*
X67818Y577412D01*
X67811Y577423D01*
X67807Y577436D01*
X67714Y577601D01*
X67624Y577765D01*
X67616Y577775D01*
X67609Y577787D01*
X67486Y577929D01*
X67365Y578073D01*
X67355Y578081D01*
X67346Y578092D01*
X67198Y578207D01*
X67050Y578324D01*
X67039Y578330D01*
X67028Y578338D01*
X66859Y578422D01*
X66692Y578508D01*
X66679Y578512D01*
X66667Y578518D01*
X66485Y578567D01*
X66305Y578618D01*
X66292Y578619D01*
X66279Y578622D01*
X65948Y578649D01*
X56971Y578649D01*
X55799Y579821D01*
X55799Y589663D01*
X55798Y589676D01*
X55799Y589690D01*
X55778Y589876D01*
X55759Y590064D01*
X55755Y590076D01*
X55754Y590090D01*
X55696Y590269D01*
X55641Y590448D01*
X55635Y590460D01*
X55631Y590473D01*
X55539Y590637D01*
X55449Y590803D01*
X55441Y590813D01*
X55434Y590825D01*
X55311Y590968D01*
X55192Y591112D01*
X55181Y591120D01*
X55173Y591130D01*
X55024Y591247D01*
X54878Y591364D01*
X54866Y591370D01*
X54856Y591379D01*
X54686Y591464D01*
X54521Y591550D01*
X54508Y591553D01*
X54496Y591559D01*
X54314Y591609D01*
X54134Y591661D01*
X54120Y591662D01*
X54107Y591666D01*
X53921Y591678D01*
X53732Y591694D01*
X53719Y591692D01*
X53706Y591693D01*
X53520Y591669D01*
X53333Y591647D01*
X53320Y591643D01*
X53307Y591641D01*
X52991Y591540D01*
X52831Y591474D01*
X52831Y596900D01*
X52831Y602326D01*
X53543Y602032D01*
X54491Y601398D01*
X55298Y600591D01*
X55932Y599643D01*
X56445Y598405D01*
X56455Y598385D01*
X56462Y598364D01*
X56550Y598208D01*
X56635Y598050D01*
X56649Y598033D01*
X56660Y598013D01*
X56777Y597878D01*
X56891Y597739D01*
X56909Y597725D01*
X56923Y597708D01*
X57065Y597599D01*
X57204Y597486D01*
X57224Y597475D01*
X57241Y597462D01*
X57402Y597382D01*
X57560Y597299D01*
X57582Y597292D01*
X57602Y597282D01*
X57775Y597236D01*
X57947Y597186D01*
X57969Y597184D01*
X57991Y597178D01*
X58321Y597151D01*
X60268Y597151D01*
X60286Y597153D01*
X60304Y597151D01*
X60486Y597172D01*
X60669Y597191D01*
X60686Y597196D01*
X60703Y597198D01*
X60878Y597255D01*
X61054Y597309D01*
X61069Y597317D01*
X61086Y597323D01*
X61246Y597413D01*
X61408Y597501D01*
X61421Y597512D01*
X61437Y597521D01*
X61576Y597641D01*
X61717Y597758D01*
X61728Y597772D01*
X61742Y597784D01*
X61854Y597929D01*
X61969Y598072D01*
X61977Y598088D01*
X61988Y598102D01*
X62070Y598267D01*
X62155Y598429D01*
X62160Y598446D01*
X62168Y598462D01*
X62215Y598641D01*
X62266Y598816D01*
X62268Y598834D01*
X62272Y598851D01*
X62299Y599182D01*
X62299Y607146D01*
X62946Y608708D01*
X68204Y613966D01*
X68221Y613986D01*
X68242Y614004D01*
X68349Y614142D01*
X68459Y614277D01*
X68472Y614301D01*
X68488Y614322D01*
X68566Y614479D01*
X68648Y614633D01*
X68656Y614658D01*
X68668Y614683D01*
X68713Y614852D01*
X68763Y615019D01*
X68765Y615045D01*
X68772Y615071D01*
X68799Y615402D01*
X68799Y620618D01*
X68797Y620636D01*
X68799Y620654D01*
X68778Y620836D01*
X68759Y621019D01*
X68754Y621036D01*
X68752Y621053D01*
X68695Y621228D01*
X68641Y621404D01*
X68633Y621419D01*
X68627Y621436D01*
X68537Y621596D01*
X68449Y621758D01*
X68438Y621771D01*
X68429Y621787D01*
X68309Y621926D01*
X68192Y622067D01*
X68178Y622078D01*
X68166Y622092D01*
X68021Y622204D01*
X67878Y622319D01*
X67862Y622327D01*
X67848Y622338D01*
X67683Y622420D01*
X67521Y622505D01*
X67504Y622510D01*
X67488Y622518D01*
X67309Y622565D01*
X67134Y622616D01*
X67116Y622618D01*
X67099Y622622D01*
X66768Y622649D01*
X64460Y622649D01*
X64298Y622633D01*
X64134Y622623D01*
X64097Y622613D01*
X64060Y622609D01*
X63903Y622561D01*
X63745Y622519D01*
X63707Y622501D01*
X63675Y622491D01*
X63598Y622450D01*
X63445Y622377D01*
X63281Y622282D01*
X62635Y622109D01*
X62081Y622109D01*
X62081Y631900D01*
X62081Y641691D01*
X62635Y641691D01*
X63281Y641518D01*
X63445Y641423D01*
X63594Y641355D01*
X63741Y641282D01*
X63777Y641273D01*
X63812Y641257D01*
X63971Y641220D01*
X64130Y641178D01*
X64172Y641174D01*
X64204Y641167D01*
X64291Y641165D01*
X64460Y641151D01*
X66999Y641151D01*
X67021Y641153D01*
X67043Y641151D01*
X67221Y641173D01*
X67400Y641191D01*
X67421Y641197D01*
X67443Y641200D01*
X67613Y641256D01*
X67784Y641309D01*
X67804Y641319D01*
X67825Y641326D01*
X67981Y641415D01*
X68138Y641501D01*
X68156Y641515D01*
X68175Y641526D01*
X68311Y641644D01*
X68448Y641758D01*
X68462Y641776D01*
X68479Y641790D01*
X68588Y641932D01*
X68700Y642072D01*
X68710Y642092D01*
X68724Y642110D01*
X68876Y642405D01*
X69446Y643783D01*
X72455Y646792D01*
X72461Y646799D01*
X72468Y646804D01*
X72588Y646954D01*
X72710Y647103D01*
X72715Y647111D01*
X72720Y647118D01*
X72809Y647288D01*
X72899Y647459D01*
X72902Y647468D01*
X72906Y647475D01*
X72959Y647660D01*
X73014Y647845D01*
X73015Y647854D01*
X73017Y647862D01*
X73033Y648053D01*
X73050Y648246D01*
X73049Y648255D01*
X73050Y648264D01*
X73028Y648452D01*
X73007Y648646D01*
X73004Y648655D01*
X73003Y648663D01*
X72944Y648845D01*
X72885Y649030D01*
X72881Y649038D01*
X72878Y649046D01*
X72783Y649215D01*
X72690Y649382D01*
X72685Y649389D01*
X72680Y649397D01*
X72554Y649543D01*
X72430Y649689D01*
X72423Y649695D01*
X72417Y649702D01*
X72266Y649819D01*
X72114Y649939D01*
X72106Y649943D01*
X72099Y649948D01*
X71927Y650034D01*
X71831Y650082D01*
X71831Y656300D01*
X71831Y662341D01*
X72135Y662341D01*
X72781Y662168D01*
X73360Y661833D01*
X73833Y661360D01*
X74168Y660781D01*
X74341Y660135D01*
X74341Y657751D01*
X74341Y657746D01*
X74341Y657742D01*
X74361Y657547D01*
X74381Y657350D01*
X74382Y657346D01*
X74382Y657341D01*
X74441Y657153D01*
X74499Y656965D01*
X74501Y656961D01*
X74502Y656957D01*
X74598Y656781D01*
X74691Y656611D01*
X74693Y656608D01*
X74696Y656604D01*
X74824Y656451D01*
X74948Y656302D01*
X74952Y656299D01*
X74955Y656295D01*
X75110Y656172D01*
X75262Y656049D01*
X75266Y656047D01*
X75270Y656045D01*
X75449Y655952D01*
X75619Y655864D01*
X75624Y655863D01*
X75628Y655861D01*
X75821Y655806D01*
X76006Y655752D01*
X76011Y655752D01*
X76015Y655751D01*
X76211Y655736D01*
X76408Y655720D01*
X76412Y655720D01*
X76416Y655720D01*
X76610Y655743D01*
X76807Y655767D01*
X76812Y655768D01*
X76816Y655768D01*
X77001Y655830D01*
X77190Y655891D01*
X77194Y655894D01*
X77198Y655895D01*
X77367Y655991D01*
X77541Y656089D01*
X77544Y656092D01*
X77548Y656094D01*
X77697Y656224D01*
X77845Y656352D01*
X77848Y656356D01*
X77852Y656359D01*
X77973Y656516D01*
X78092Y656671D01*
X78094Y656675D01*
X78097Y656678D01*
X78249Y656973D01*
X78313Y657128D01*
X78322Y657158D01*
X78336Y657186D01*
X78380Y657350D01*
X78429Y657513D01*
X78432Y657544D01*
X78440Y657574D01*
X78467Y657905D01*
X78467Y658495D01*
X78472Y658513D01*
X78499Y658844D01*
X78499Y660629D01*
X80077Y662207D01*
X80083Y662214D01*
X80090Y662219D01*
X80209Y662368D01*
X80332Y662518D01*
X80337Y662526D01*
X80342Y662533D01*
X80431Y662703D01*
X80521Y662874D01*
X80524Y662883D01*
X80528Y662890D01*
X80581Y663075D01*
X80636Y663260D01*
X80637Y663269D01*
X80639Y663277D01*
X80654Y663466D01*
X80672Y663661D01*
X80671Y663670D01*
X80672Y663679D01*
X80650Y663868D01*
X80629Y664061D01*
X80626Y664070D01*
X80625Y664078D01*
X80566Y664260D01*
X80507Y664445D01*
X80503Y664453D01*
X80500Y664461D01*
X80405Y664630D01*
X80312Y664797D01*
X80307Y664804D01*
X80302Y664812D01*
X80176Y664958D01*
X80052Y665104D01*
X80045Y665110D01*
X80039Y665117D01*
X79888Y665234D01*
X79736Y665354D01*
X79728Y665358D01*
X79721Y665363D01*
X79549Y665449D01*
X79377Y665536D01*
X79368Y665539D01*
X79360Y665543D01*
X79174Y665593D01*
X78989Y665644D01*
X78980Y665645D01*
X78972Y665647D01*
X78641Y665674D01*
X78054Y665674D01*
X76492Y666321D01*
X75296Y667517D01*
X74649Y669079D01*
X74649Y675768D01*
X74647Y675786D01*
X74649Y675804D01*
X74628Y675986D01*
X74609Y676169D01*
X74604Y676186D01*
X74602Y676203D01*
X74545Y676378D01*
X74491Y676554D01*
X74483Y676569D01*
X74477Y676586D01*
X74387Y676746D01*
X74299Y676908D01*
X74288Y676921D01*
X74279Y676937D01*
X74159Y677076D01*
X74042Y677217D01*
X74028Y677228D01*
X74016Y677242D01*
X73871Y677354D01*
X73728Y677469D01*
X73712Y677477D01*
X73698Y677488D01*
X73533Y677570D01*
X73371Y677655D01*
X73354Y677660D01*
X73338Y677668D01*
X73159Y677715D01*
X72984Y677766D01*
X72966Y677768D01*
X72949Y677772D01*
X72618Y677799D01*
X68571Y677799D01*
X67399Y678971D01*
X67399Y681768D01*
X67397Y681786D01*
X67399Y681804D01*
X67378Y681986D01*
X67359Y682169D01*
X67354Y682186D01*
X67352Y682203D01*
X67295Y682378D01*
X67241Y682554D01*
X67233Y682569D01*
X67227Y682586D01*
X67137Y682746D01*
X67049Y682908D01*
X67038Y682921D01*
X67029Y682937D01*
X66909Y683076D01*
X66792Y683217D01*
X66778Y683228D01*
X66766Y683242D01*
X66621Y683354D01*
X66478Y683469D01*
X66462Y683477D01*
X66448Y683488D01*
X66283Y683570D01*
X66121Y683655D01*
X66104Y683660D01*
X66088Y683668D01*
X65909Y683715D01*
X65734Y683766D01*
X65716Y683768D01*
X65699Y683772D01*
X65368Y683799D01*
X62571Y683799D01*
X61399Y684971D01*
X61399Y691629D01*
X62571Y692801D01*
X65368Y692801D01*
X65386Y692803D01*
X65404Y692801D01*
X65586Y692822D01*
X65769Y692841D01*
X65786Y692846D01*
X65803Y692848D01*
X65978Y692905D01*
X66154Y692959D01*
X66169Y692967D01*
X66186Y692973D01*
X66346Y693063D01*
X66508Y693151D01*
X66521Y693162D01*
X66537Y693171D01*
X66676Y693291D01*
X66817Y693408D01*
X66828Y693422D01*
X66842Y693434D01*
X66954Y693579D01*
X67069Y693722D01*
X67077Y693738D01*
X67088Y693752D01*
X67170Y693917D01*
X67255Y694079D01*
X67260Y694096D01*
X67268Y694112D01*
X67315Y694291D01*
X67366Y694466D01*
X67368Y694484D01*
X67372Y694501D01*
X67399Y694832D01*
X67399Y711768D01*
X67397Y711786D01*
X67399Y711804D01*
X67378Y711986D01*
X67359Y712169D01*
X67354Y712186D01*
X67352Y712203D01*
X67295Y712378D01*
X67241Y712554D01*
X67233Y712569D01*
X67227Y712586D01*
X67137Y712746D01*
X67049Y712908D01*
X67038Y712921D01*
X67029Y712937D01*
X66909Y713076D01*
X66792Y713217D01*
X66778Y713228D01*
X66766Y713242D01*
X66621Y713354D01*
X66478Y713469D01*
X66462Y713477D01*
X66448Y713488D01*
X66283Y713570D01*
X66121Y713655D01*
X66104Y713660D01*
X66088Y713668D01*
X65909Y713715D01*
X65734Y713766D01*
X65716Y713768D01*
X65699Y713772D01*
X65368Y713799D01*
X63571Y713799D01*
X62399Y714971D01*
X62399Y715804D01*
X62397Y715822D01*
X62399Y715840D01*
X62378Y716022D01*
X62359Y716205D01*
X62354Y716222D01*
X62352Y716239D01*
X62295Y716414D01*
X62241Y716590D01*
X62233Y716605D01*
X62227Y716622D01*
X62137Y716782D01*
X62049Y716944D01*
X62038Y716957D01*
X62029Y716973D01*
X61909Y717112D01*
X61792Y717253D01*
X61778Y717264D01*
X61766Y717278D01*
X61621Y717390D01*
X61478Y717505D01*
X61462Y717513D01*
X61448Y717524D01*
X61283Y717606D01*
X61121Y717691D01*
X61104Y717696D01*
X61088Y717704D01*
X60909Y717751D01*
X60734Y717802D01*
X60716Y717804D01*
X60699Y717808D01*
X60368Y717835D01*
X38100Y717835D01*
X38082Y717833D01*
X38064Y717835D01*
X37882Y717814D01*
X37699Y717795D01*
X37682Y717790D01*
X37665Y717788D01*
X37490Y717731D01*
X37314Y717677D01*
X37299Y717669D01*
X37282Y717663D01*
X37122Y717573D01*
X36960Y717485D01*
X36947Y717474D01*
X36931Y717465D01*
X36792Y717345D01*
X36651Y717228D01*
X36640Y717214D01*
X36627Y717202D01*
X36514Y717057D01*
X36399Y716914D01*
X36391Y716898D01*
X36380Y716884D01*
X36298Y716719D01*
X36213Y716557D01*
X36208Y716540D01*
X36200Y716524D01*
X36153Y716345D01*
X36102Y716170D01*
X36100Y716152D01*
X36096Y716135D01*
X36069Y715804D01*
X36069Y564896D01*
X36071Y564878D01*
X36069Y564860D01*
X36090Y564678D01*
X36109Y564495D01*
X36114Y564478D01*
X36116Y564461D01*
X36173Y564286D01*
X36227Y564110D01*
X36235Y564095D01*
X36241Y564078D01*
X36331Y563918D01*
X36419Y563756D01*
X36430Y563743D01*
X36439Y563727D01*
X36559Y563588D01*
X36676Y563447D01*
X36690Y563436D01*
X36702Y563422D01*
X36847Y563310D01*
X36990Y563195D01*
X37006Y563187D01*
X37020Y563176D01*
X37185Y563094D01*
X37347Y563009D01*
X37364Y563004D01*
X37381Y562996D01*
X37559Y562949D01*
X37734Y562898D01*
X37752Y562896D01*
X37769Y562892D01*
X38100Y562865D01*
X158750Y562865D01*
X158816Y562871D01*
G37*
G36*
X19085Y562868D02*
X19085Y562868D01*
X19119Y562866D01*
X19308Y562888D01*
X19499Y562905D01*
X19532Y562914D01*
X19566Y562918D01*
X19749Y562973D01*
X19933Y563023D01*
X19964Y563038D01*
X19997Y563048D01*
X20168Y563135D01*
X20340Y563217D01*
X20368Y563237D01*
X20399Y563252D01*
X20551Y563368D01*
X20706Y563479D01*
X20730Y563504D01*
X20757Y563524D01*
X20886Y563664D01*
X21020Y563801D01*
X21039Y563830D01*
X21063Y563856D01*
X21165Y564017D01*
X21272Y564174D01*
X21286Y564206D01*
X21304Y564235D01*
X21377Y564412D01*
X21454Y564586D01*
X21462Y564620D01*
X21475Y564652D01*
X21515Y564839D01*
X21561Y565024D01*
X21563Y565058D01*
X21570Y565092D01*
X21589Y565404D01*
X21589Y712842D01*
X21582Y712925D01*
X21584Y713007D01*
X21562Y713148D01*
X21549Y713291D01*
X21528Y713371D01*
X21515Y713452D01*
X21469Y713587D01*
X21431Y713725D01*
X21396Y713799D01*
X21369Y713878D01*
X21299Y714003D01*
X21237Y714132D01*
X21190Y714199D01*
X21149Y714271D01*
X21059Y714382D01*
X20975Y714498D01*
X20916Y714555D01*
X20864Y714619D01*
X20755Y714712D01*
X20653Y714812D01*
X20584Y714858D01*
X20522Y714912D01*
X20398Y714984D01*
X20280Y715064D01*
X20204Y715097D01*
X20133Y715139D01*
X19999Y715188D01*
X19868Y715246D01*
X19788Y715266D01*
X19710Y715294D01*
X19569Y715319D01*
X19430Y715353D01*
X19348Y715358D01*
X19267Y715372D01*
X19124Y715372D01*
X18981Y715381D01*
X18899Y715371D01*
X18817Y715371D01*
X18676Y715345D01*
X18534Y715329D01*
X18455Y715305D01*
X18374Y715290D01*
X18141Y715210D01*
X18103Y715198D01*
X18093Y715193D01*
X18078Y715188D01*
X15884Y714279D01*
X-3184Y714279D01*
X-6720Y715744D01*
X-8067Y717092D01*
X-8194Y717197D01*
X-8314Y717309D01*
X-8366Y717341D01*
X-8413Y717380D01*
X-8555Y717462D01*
X-8694Y717550D01*
X-8751Y717574D01*
X-8804Y717604D01*
X-8958Y717659D01*
X-9111Y717721D01*
X-9170Y717734D01*
X-9228Y717755D01*
X-9390Y717781D01*
X-9551Y717816D01*
X-9628Y717821D01*
X-9672Y717828D01*
X-9733Y717827D01*
X-9863Y717835D01*
X-21887Y717835D01*
X-22051Y717821D01*
X-22215Y717814D01*
X-22275Y717801D01*
X-22336Y717795D01*
X-22495Y717752D01*
X-22655Y717716D01*
X-22711Y717693D01*
X-22770Y717677D01*
X-22918Y717606D01*
X-23070Y717543D01*
X-23122Y717510D01*
X-23177Y717483D01*
X-23310Y717388D01*
X-23449Y717298D01*
X-23506Y717247D01*
X-23543Y717221D01*
X-23585Y717178D01*
X-23683Y717092D01*
X-25030Y715744D01*
X-28566Y714279D01*
X-47634Y714279D01*
X-51170Y715744D01*
X-53876Y718450D01*
X-55341Y721986D01*
X-55341Y725814D01*
X-53876Y729350D01*
X-51170Y732056D01*
X-47634Y733521D01*
X-28566Y733521D01*
X-25030Y732056D01*
X-23683Y730708D01*
X-23556Y730603D01*
X-23436Y730491D01*
X-23384Y730459D01*
X-23337Y730420D01*
X-23195Y730338D01*
X-23056Y730250D01*
X-22999Y730226D01*
X-22946Y730196D01*
X-22792Y730141D01*
X-22639Y730079D01*
X-22580Y730066D01*
X-22522Y730045D01*
X-22360Y730019D01*
X-22199Y729984D01*
X-22122Y729979D01*
X-22078Y729972D01*
X-22017Y729973D01*
X-21887Y729965D01*
X-9863Y729965D01*
X-9699Y729979D01*
X-9535Y729986D01*
X-9475Y729999D01*
X-9414Y730005D01*
X-9255Y730048D01*
X-9095Y730084D01*
X-9039Y730107D01*
X-8980Y730123D01*
X-8832Y730194D01*
X-8680Y730257D01*
X-8628Y730290D01*
X-8573Y730317D01*
X-8440Y730412D01*
X-8301Y730502D01*
X-8244Y730553D01*
X-8207Y730579D01*
X-8165Y730622D01*
X-8067Y730708D01*
X-6720Y732056D01*
X-3184Y733521D01*
X15884Y733521D01*
X18078Y732612D01*
X18157Y732587D01*
X18232Y732554D01*
X18371Y732520D01*
X18508Y732477D01*
X18590Y732467D01*
X18670Y732447D01*
X18812Y732438D01*
X18955Y732420D01*
X19037Y732424D01*
X19119Y732419D01*
X19261Y732436D01*
X19404Y732443D01*
X19484Y732462D01*
X19566Y732471D01*
X19704Y732513D01*
X19843Y732545D01*
X19918Y732578D01*
X19997Y732602D01*
X20125Y732667D01*
X20256Y732723D01*
X20325Y732769D01*
X20399Y732806D01*
X20513Y732893D01*
X20632Y732971D01*
X20692Y733028D01*
X20757Y733078D01*
X20854Y733183D01*
X20958Y733282D01*
X21007Y733349D01*
X21063Y733409D01*
X21139Y733530D01*
X21224Y733645D01*
X21260Y733720D01*
X21304Y733789D01*
X21359Y733921D01*
X21422Y734050D01*
X21444Y734129D01*
X21475Y734206D01*
X21505Y734346D01*
X21545Y734483D01*
X21553Y734565D01*
X21570Y734646D01*
X21585Y734892D01*
X21589Y734931D01*
X21588Y734942D01*
X21589Y734958D01*
X21589Y738242D01*
X21582Y738325D01*
X21584Y738407D01*
X21562Y738548D01*
X21549Y738691D01*
X21528Y738771D01*
X21515Y738852D01*
X21469Y738987D01*
X21431Y739125D01*
X21396Y739199D01*
X21369Y739278D01*
X21299Y739403D01*
X21237Y739532D01*
X21190Y739599D01*
X21149Y739671D01*
X21059Y739782D01*
X20975Y739898D01*
X20916Y739955D01*
X20864Y740019D01*
X20755Y740112D01*
X20653Y740212D01*
X20584Y740258D01*
X20522Y740312D01*
X20398Y740384D01*
X20280Y740464D01*
X20204Y740497D01*
X20133Y740539D01*
X19999Y740588D01*
X19868Y740646D01*
X19788Y740666D01*
X19710Y740694D01*
X19569Y740719D01*
X19430Y740753D01*
X19348Y740758D01*
X19267Y740772D01*
X19124Y740772D01*
X18981Y740781D01*
X18899Y740771D01*
X18817Y740771D01*
X18676Y740745D01*
X18534Y740729D01*
X18455Y740705D01*
X18374Y740690D01*
X18141Y740610D01*
X18103Y740598D01*
X18093Y740593D01*
X18078Y740588D01*
X15884Y739679D01*
X-3184Y739679D01*
X-6720Y741144D01*
X-8067Y742492D01*
X-8193Y742597D01*
X-8314Y742709D01*
X-8366Y742741D01*
X-8413Y742780D01*
X-8555Y742862D01*
X-8694Y742950D01*
X-8751Y742974D01*
X-8804Y743004D01*
X-8959Y743059D01*
X-9111Y743121D01*
X-9170Y743134D01*
X-9228Y743155D01*
X-9390Y743181D01*
X-9551Y743216D01*
X-9628Y743221D01*
X-9672Y743228D01*
X-9733Y743227D01*
X-9863Y743235D01*
X-21887Y743235D01*
X-22051Y743221D01*
X-22215Y743214D01*
X-22275Y743201D01*
X-22336Y743195D01*
X-22494Y743152D01*
X-22655Y743116D01*
X-22711Y743093D01*
X-22770Y743077D01*
X-22919Y743006D01*
X-23070Y742943D01*
X-23122Y742910D01*
X-23177Y742883D01*
X-23310Y742788D01*
X-23449Y742698D01*
X-23506Y742647D01*
X-23543Y742621D01*
X-23585Y742578D01*
X-23683Y742492D01*
X-25030Y741144D01*
X-28566Y739679D01*
X-47634Y739679D01*
X-51170Y741144D01*
X-53876Y743850D01*
X-55341Y747386D01*
X-55341Y751214D01*
X-53876Y754750D01*
X-51170Y757456D01*
X-47634Y758921D01*
X-28566Y758921D01*
X-25030Y757456D01*
X-23683Y756108D01*
X-23557Y756003D01*
X-23436Y755891D01*
X-23384Y755859D01*
X-23337Y755820D01*
X-23195Y755738D01*
X-23056Y755650D01*
X-22999Y755626D01*
X-22946Y755596D01*
X-22791Y755541D01*
X-22639Y755479D01*
X-22580Y755466D01*
X-22522Y755445D01*
X-22360Y755419D01*
X-22199Y755384D01*
X-22122Y755379D01*
X-22078Y755372D01*
X-22017Y755373D01*
X-21887Y755365D01*
X-9863Y755365D01*
X-9699Y755379D01*
X-9535Y755386D01*
X-9475Y755399D01*
X-9414Y755405D01*
X-9256Y755448D01*
X-9095Y755484D01*
X-9039Y755507D01*
X-8980Y755523D01*
X-8831Y755594D01*
X-8680Y755657D01*
X-8628Y755690D01*
X-8573Y755717D01*
X-8440Y755812D01*
X-8301Y755902D01*
X-8244Y755953D01*
X-8207Y755979D01*
X-8165Y756022D01*
X-8067Y756108D01*
X-6720Y757456D01*
X-3184Y758921D01*
X15884Y758921D01*
X18078Y758012D01*
X18157Y757987D01*
X18232Y757954D01*
X18371Y757920D01*
X18508Y757877D01*
X18590Y757867D01*
X18670Y757847D01*
X18812Y757838D01*
X18955Y757820D01*
X19037Y757824D01*
X19119Y757819D01*
X19261Y757836D01*
X19404Y757843D01*
X19484Y757862D01*
X19566Y757871D01*
X19704Y757913D01*
X19843Y757945D01*
X19918Y757978D01*
X19997Y758002D01*
X20125Y758067D01*
X20256Y758123D01*
X20325Y758169D01*
X20399Y758206D01*
X20513Y758293D01*
X20632Y758371D01*
X20692Y758428D01*
X20757Y758478D01*
X20854Y758583D01*
X20958Y758682D01*
X21007Y758749D01*
X21063Y758809D01*
X21139Y758930D01*
X21224Y759045D01*
X21260Y759120D01*
X21304Y759189D01*
X21359Y759321D01*
X21422Y759450D01*
X21444Y759529D01*
X21475Y759606D01*
X21505Y759746D01*
X21545Y759883D01*
X21553Y759965D01*
X21570Y760046D01*
X21585Y760292D01*
X21589Y760331D01*
X21588Y760342D01*
X21589Y760358D01*
X21589Y907796D01*
X21586Y907831D01*
X21588Y907865D01*
X21566Y908054D01*
X21549Y908245D01*
X21540Y908278D01*
X21536Y908312D01*
X21481Y908495D01*
X21431Y908679D01*
X21416Y908710D01*
X21406Y908743D01*
X21319Y908914D01*
X21237Y909086D01*
X21217Y909114D01*
X21202Y909145D01*
X21086Y909297D01*
X20975Y909452D01*
X20950Y909476D01*
X20930Y909503D01*
X20790Y909632D01*
X20653Y909766D01*
X20624Y909785D01*
X20598Y909809D01*
X20437Y909911D01*
X20280Y910018D01*
X20248Y910032D01*
X20219Y910050D01*
X20042Y910123D01*
X19868Y910200D01*
X19834Y910208D01*
X19802Y910221D01*
X19615Y910261D01*
X19430Y910307D01*
X19396Y910309D01*
X19362Y910316D01*
X19050Y910335D01*
X-44450Y910335D01*
X-44512Y910330D01*
X-44649Y910327D01*
X-47590Y910096D01*
X-47730Y910072D01*
X-47872Y910058D01*
X-47978Y910030D01*
X-48034Y910021D01*
X-48082Y910003D01*
X-48175Y909980D01*
X-53768Y908162D01*
X-53784Y908156D01*
X-53800Y908152D01*
X-53990Y908068D01*
X-54182Y907986D01*
X-54196Y907976D01*
X-54212Y907969D01*
X-54476Y907802D01*
X-59233Y904345D01*
X-59246Y904334D01*
X-59261Y904325D01*
X-59415Y904186D01*
X-59573Y904049D01*
X-59583Y904036D01*
X-59596Y904024D01*
X-59795Y903783D01*
X-63252Y899026D01*
X-63261Y899011D01*
X-63272Y898998D01*
X-63375Y898819D01*
X-63483Y898639D01*
X-63489Y898623D01*
X-63498Y898609D01*
X-63612Y898318D01*
X-65430Y892725D01*
X-65461Y892586D01*
X-65502Y892449D01*
X-65518Y892341D01*
X-65530Y892286D01*
X-65533Y892234D01*
X-65546Y892140D01*
X-65777Y889199D01*
X-65777Y889137D01*
X-65785Y889000D01*
X-65785Y584200D01*
X-65780Y584138D01*
X-65777Y584001D01*
X-65546Y581060D01*
X-65522Y580920D01*
X-65508Y580778D01*
X-65480Y580672D01*
X-65471Y580616D01*
X-65453Y580568D01*
X-65430Y580475D01*
X-63612Y574882D01*
X-63606Y574866D01*
X-63602Y574850D01*
X-63518Y574660D01*
X-63436Y574468D01*
X-63426Y574454D01*
X-63419Y574438D01*
X-63252Y574174D01*
X-59795Y569417D01*
X-59784Y569404D01*
X-59775Y569389D01*
X-59636Y569235D01*
X-59499Y569077D01*
X-59486Y569067D01*
X-59474Y569054D01*
X-59233Y568855D01*
X-54476Y565398D01*
X-54461Y565389D01*
X-54448Y565378D01*
X-54269Y565275D01*
X-54089Y565167D01*
X-54073Y565161D01*
X-54059Y565152D01*
X-53768Y565038D01*
X-48175Y563220D01*
X-48036Y563188D01*
X-47899Y563148D01*
X-47791Y563132D01*
X-47736Y563120D01*
X-47684Y563117D01*
X-47590Y563104D01*
X-44649Y562873D01*
X-44587Y562873D01*
X-44450Y562865D01*
X19050Y562865D01*
X19085Y562868D01*
G37*
G36*
X86405Y679799D02*
X86405Y679799D01*
X86405Y679800D01*
X86405Y719800D01*
X86401Y719805D01*
X86400Y719805D01*
X64400Y719805D01*
X64395Y719801D01*
X64395Y719800D01*
X64395Y715800D01*
X64399Y715795D01*
X64400Y715795D01*
X69395Y715795D01*
X69395Y690805D01*
X63400Y690805D01*
X63395Y690801D01*
X63395Y690800D01*
X63395Y685800D01*
X63399Y685795D01*
X63400Y685795D01*
X69395Y685795D01*
X69395Y679800D01*
X69399Y679795D01*
X69400Y679795D01*
X86400Y679795D01*
X86405Y679799D01*
G37*
G36*
X86405Y753399D02*
X86405Y753399D01*
X86405Y753400D01*
X86405Y793400D01*
X86401Y793405D01*
X86400Y793405D01*
X69400Y793405D01*
X69395Y793401D01*
X69395Y793400D01*
X69395Y787405D01*
X63400Y787405D01*
X63395Y787401D01*
X63395Y787400D01*
X63395Y782400D01*
X63399Y782395D01*
X63400Y782395D01*
X69395Y782395D01*
X69395Y757405D01*
X64400Y757405D01*
X64395Y757401D01*
X64395Y757400D01*
X64395Y753400D01*
X64399Y753395D01*
X64400Y753395D01*
X86400Y753395D01*
X86405Y753399D01*
G37*
G36*
X108405Y679799D02*
X108405Y679799D01*
X108405Y679800D01*
X108405Y685795D01*
X114400Y685795D01*
X114405Y685799D01*
X114405Y685800D01*
X114405Y690800D01*
X114401Y690805D01*
X114400Y690805D01*
X108405Y690805D01*
X108405Y715795D01*
X113400Y715795D01*
X113405Y715799D01*
X113405Y715800D01*
X113405Y719800D01*
X113401Y719805D01*
X113400Y719805D01*
X91400Y719805D01*
X91395Y719801D01*
X91395Y719800D01*
X91395Y679800D01*
X91399Y679795D01*
X91400Y679795D01*
X108400Y679795D01*
X108405Y679799D01*
G37*
G36*
X113405Y753399D02*
X113405Y753399D01*
X113405Y753400D01*
X113405Y757400D01*
X113401Y757405D01*
X113400Y757405D01*
X108405Y757405D01*
X108405Y782395D01*
X114400Y782395D01*
X114405Y782399D01*
X114405Y782400D01*
X114405Y787400D01*
X114401Y787405D01*
X114400Y787405D01*
X108405Y787405D01*
X108405Y793400D01*
X108401Y793405D01*
X108400Y793405D01*
X91400Y793405D01*
X91395Y793401D01*
X91395Y793400D01*
X91395Y753400D01*
X91399Y753395D01*
X91400Y753395D01*
X113400Y753395D01*
X113405Y753399D01*
G37*
G36*
X87520Y721803D02*
X87520Y721803D01*
X87538Y721801D01*
X87720Y721822D01*
X87903Y721841D01*
X87920Y721846D01*
X87937Y721848D01*
X88112Y721905D01*
X88288Y721959D01*
X88303Y721967D01*
X88320Y721973D01*
X88480Y722063D01*
X88642Y722151D01*
X88655Y722162D01*
X88671Y722171D01*
X88810Y722291D01*
X88951Y722408D01*
X88962Y722422D01*
X88976Y722434D01*
X89088Y722579D01*
X89203Y722722D01*
X89211Y722738D01*
X89222Y722752D01*
X89304Y722917D01*
X89389Y723079D01*
X89394Y723096D01*
X89402Y723112D01*
X89449Y723291D01*
X89500Y723466D01*
X89502Y723484D01*
X89506Y723501D01*
X89533Y723832D01*
X89533Y749368D01*
X89531Y749386D01*
X89533Y749404D01*
X89512Y749586D01*
X89493Y749769D01*
X89488Y749786D01*
X89486Y749803D01*
X89429Y749978D01*
X89375Y750154D01*
X89367Y750169D01*
X89361Y750186D01*
X89271Y750346D01*
X89183Y750508D01*
X89172Y750521D01*
X89163Y750537D01*
X89043Y750676D01*
X88926Y750817D01*
X88912Y750828D01*
X88900Y750842D01*
X88755Y750954D01*
X88612Y751069D01*
X88596Y751077D01*
X88582Y751088D01*
X88417Y751170D01*
X88255Y751255D01*
X88238Y751260D01*
X88222Y751268D01*
X88043Y751315D01*
X87868Y751366D01*
X87850Y751368D01*
X87833Y751372D01*
X87502Y751399D01*
X86996Y751399D01*
X86978Y751397D01*
X86960Y751399D01*
X86778Y751378D01*
X86595Y751359D01*
X86578Y751354D01*
X86561Y751352D01*
X86386Y751295D01*
X86210Y751241D01*
X86195Y751233D01*
X86178Y751227D01*
X86018Y751137D01*
X85856Y751049D01*
X85843Y751038D01*
X85827Y751029D01*
X85687Y750909D01*
X85547Y750792D01*
X85536Y750778D01*
X85522Y750766D01*
X85410Y750621D01*
X85295Y750478D01*
X85287Y750462D01*
X85276Y750448D01*
X85194Y750283D01*
X85109Y750121D01*
X85104Y750104D01*
X85096Y750088D01*
X85049Y749909D01*
X84998Y749734D01*
X84996Y749716D01*
X84992Y749699D01*
X84965Y749368D01*
X84965Y748094D01*
X84041Y745865D01*
X82335Y744159D01*
X80106Y743235D01*
X57131Y743235D01*
X57120Y743234D01*
X57109Y743235D01*
X56919Y743214D01*
X56730Y743195D01*
X56720Y743192D01*
X56709Y743191D01*
X56527Y743133D01*
X56346Y743077D01*
X56336Y743072D01*
X56325Y743069D01*
X56158Y742976D01*
X55992Y742885D01*
X55983Y742878D01*
X55973Y742873D01*
X55828Y742749D01*
X55682Y742628D01*
X55675Y742619D01*
X55667Y742612D01*
X55549Y742462D01*
X55430Y742314D01*
X55425Y742304D01*
X55418Y742295D01*
X55332Y742125D01*
X55244Y741957D01*
X55241Y741946D01*
X55236Y741936D01*
X55186Y741752D01*
X55133Y741570D01*
X55132Y741559D01*
X55129Y741548D01*
X55116Y741358D01*
X55100Y741168D01*
X55101Y741157D01*
X55101Y741146D01*
X55125Y740956D01*
X55147Y740769D01*
X55151Y740758D01*
X55152Y740747D01*
X55213Y740567D01*
X55272Y740386D01*
X55277Y740376D01*
X55281Y740366D01*
X55442Y740075D01*
X55932Y739343D01*
X56226Y738631D01*
X50800Y738631D01*
X45374Y738631D01*
X45668Y739343D01*
X46158Y740075D01*
X46163Y740085D01*
X46170Y740094D01*
X46257Y740262D01*
X46347Y740431D01*
X46350Y740442D01*
X46356Y740451D01*
X46408Y740633D01*
X46463Y740816D01*
X46464Y740828D01*
X46467Y740838D01*
X46482Y741027D01*
X46500Y741217D01*
X46499Y741228D01*
X46500Y741240D01*
X46478Y741428D01*
X46458Y741618D01*
X46454Y741628D01*
X46453Y741639D01*
X46394Y741820D01*
X46337Y742002D01*
X46332Y742012D01*
X46328Y742022D01*
X46235Y742188D01*
X46143Y742355D01*
X46136Y742363D01*
X46130Y742373D01*
X46006Y742517D01*
X45883Y742662D01*
X45874Y742669D01*
X45867Y742678D01*
X45717Y742794D01*
X45568Y742912D01*
X45558Y742917D01*
X45549Y742924D01*
X45379Y743009D01*
X45209Y743096D01*
X45198Y743099D01*
X45188Y743104D01*
X45004Y743153D01*
X44822Y743204D01*
X44810Y743205D01*
X44800Y743208D01*
X44469Y743235D01*
X38100Y743235D01*
X38082Y743233D01*
X38064Y743235D01*
X37882Y743214D01*
X37699Y743195D01*
X37682Y743190D01*
X37665Y743188D01*
X37490Y743131D01*
X37314Y743077D01*
X37299Y743069D01*
X37282Y743063D01*
X37122Y742973D01*
X36960Y742885D01*
X36947Y742874D01*
X36931Y742865D01*
X36792Y742745D01*
X36651Y742628D01*
X36640Y742614D01*
X36627Y742602D01*
X36514Y742457D01*
X36399Y742314D01*
X36391Y742298D01*
X36380Y742284D01*
X36298Y742119D01*
X36213Y741957D01*
X36208Y741940D01*
X36200Y741924D01*
X36153Y741745D01*
X36102Y741570D01*
X36100Y741552D01*
X36096Y741535D01*
X36069Y741204D01*
X36069Y731996D01*
X36071Y731978D01*
X36069Y731960D01*
X36090Y731778D01*
X36109Y731595D01*
X36114Y731578D01*
X36116Y731561D01*
X36173Y731386D01*
X36227Y731210D01*
X36235Y731195D01*
X36241Y731178D01*
X36331Y731018D01*
X36419Y730856D01*
X36430Y730843D01*
X36439Y730827D01*
X36559Y730688D01*
X36676Y730547D01*
X36690Y730536D01*
X36702Y730522D01*
X36847Y730410D01*
X36990Y730295D01*
X37006Y730287D01*
X37020Y730276D01*
X37185Y730194D01*
X37347Y730109D01*
X37364Y730104D01*
X37381Y730096D01*
X37559Y730049D01*
X37734Y729998D01*
X37752Y729996D01*
X37769Y729992D01*
X38100Y729965D01*
X44469Y729965D01*
X44480Y729966D01*
X44491Y729965D01*
X44681Y729986D01*
X44870Y730005D01*
X44880Y730008D01*
X44891Y730009D01*
X45073Y730067D01*
X45254Y730123D01*
X45264Y730128D01*
X45275Y730131D01*
X45442Y730224D01*
X45608Y730315D01*
X45617Y730322D01*
X45627Y730327D01*
X45772Y730451D01*
X45918Y730572D01*
X45925Y730581D01*
X45933Y730588D01*
X46051Y730738D01*
X46170Y730886D01*
X46175Y730896D01*
X46182Y730905D01*
X46268Y731075D01*
X46356Y731243D01*
X46359Y731254D01*
X46364Y731264D01*
X46414Y731448D01*
X46467Y731630D01*
X46468Y731641D01*
X46471Y731652D01*
X46484Y731840D01*
X46500Y732032D01*
X46499Y732043D01*
X46499Y732054D01*
X46475Y732243D01*
X46453Y732431D01*
X46449Y732442D01*
X46448Y732453D01*
X46387Y732633D01*
X46328Y732814D01*
X46323Y732824D01*
X46319Y732834D01*
X46158Y733125D01*
X45668Y733857D01*
X45374Y734569D01*
X50800Y734569D01*
X56226Y734569D01*
X55932Y733857D01*
X55442Y733125D01*
X55437Y733115D01*
X55430Y733106D01*
X55343Y732938D01*
X55253Y732769D01*
X55250Y732758D01*
X55244Y732749D01*
X55192Y732566D01*
X55137Y732384D01*
X55136Y732372D01*
X55133Y732362D01*
X55118Y732173D01*
X55100Y731983D01*
X55101Y731972D01*
X55100Y731960D01*
X55122Y731772D01*
X55142Y731582D01*
X55146Y731572D01*
X55147Y731561D01*
X55206Y731380D01*
X55263Y731198D01*
X55268Y731188D01*
X55272Y731178D01*
X55365Y731012D01*
X55457Y730845D01*
X55464Y730837D01*
X55470Y730827D01*
X55594Y730683D01*
X55717Y730538D01*
X55726Y730531D01*
X55733Y730522D01*
X55883Y730406D01*
X56032Y730288D01*
X56042Y730283D01*
X56051Y730276D01*
X56221Y730191D01*
X56391Y730104D01*
X56402Y730101D01*
X56412Y730096D01*
X56596Y730047D01*
X56778Y729996D01*
X56790Y729995D01*
X56800Y729992D01*
X57131Y729965D01*
X80106Y729965D01*
X82335Y729041D01*
X84041Y727335D01*
X84965Y725106D01*
X84965Y723832D01*
X84967Y723814D01*
X84965Y723796D01*
X84986Y723614D01*
X85005Y723431D01*
X85010Y723414D01*
X85012Y723397D01*
X85069Y723222D01*
X85123Y723046D01*
X85131Y723031D01*
X85137Y723014D01*
X85227Y722854D01*
X85315Y722692D01*
X85326Y722679D01*
X85335Y722663D01*
X85455Y722524D01*
X85572Y722383D01*
X85586Y722372D01*
X85598Y722358D01*
X85743Y722246D01*
X85886Y722131D01*
X85902Y722123D01*
X85916Y722112D01*
X86081Y722030D01*
X86243Y721945D01*
X86260Y721940D01*
X86276Y721932D01*
X86455Y721885D01*
X86630Y721834D01*
X86648Y721832D01*
X86665Y721828D01*
X86996Y721801D01*
X87502Y721801D01*
X87520Y721803D01*
G37*
%LPC*%
G36*
X154939Y726439D02*
X154939Y726439D01*
X154939Y734061D01*
X160820Y734061D01*
X162399Y733811D01*
X163920Y733316D01*
X165345Y732590D01*
X166639Y731650D01*
X167770Y730519D01*
X168710Y729225D01*
X169436Y727800D01*
X169879Y726439D01*
X154939Y726439D01*
G37*
%LPD*%
%LPC*%
G36*
X134921Y726439D02*
X134921Y726439D01*
X135364Y727800D01*
X136090Y729225D01*
X137030Y730519D01*
X138161Y731650D01*
X139455Y732590D01*
X140880Y733316D01*
X142401Y733811D01*
X143980Y734061D01*
X149861Y734061D01*
X149861Y726439D01*
X134921Y726439D01*
G37*
%LPD*%
%LPC*%
G36*
X154939Y713739D02*
X154939Y713739D01*
X154939Y721361D01*
X169879Y721361D01*
X169436Y720000D01*
X168710Y718575D01*
X167770Y717281D01*
X166639Y716150D01*
X165345Y715210D01*
X163920Y714484D01*
X162399Y713989D01*
X160820Y713739D01*
X154939Y713739D01*
G37*
%LPD*%
%LPC*%
G36*
X143980Y713739D02*
X143980Y713739D01*
X142401Y713989D01*
X140880Y714484D01*
X139455Y715210D01*
X138161Y716150D01*
X137030Y717281D01*
X136090Y718575D01*
X135364Y720000D01*
X134921Y721361D01*
X149861Y721361D01*
X149861Y713739D01*
X143980Y713739D01*
G37*
%LPD*%
%LPC*%
G36*
X55259Y633931D02*
X55259Y633931D01*
X55259Y639484D01*
X55337Y639774D01*
X55350Y639851D01*
X55371Y639926D01*
X55382Y640049D01*
X55402Y640172D01*
X55399Y640249D01*
X55406Y640327D01*
X55392Y640450D01*
X55388Y640574D01*
X55370Y640650D01*
X55361Y640727D01*
X55323Y640845D01*
X55294Y640966D01*
X55261Y641036D01*
X55238Y641110D01*
X55177Y641218D01*
X55125Y641331D01*
X55079Y641394D01*
X55041Y641462D01*
X54961Y641556D01*
X54887Y641656D01*
X54830Y641708D01*
X54779Y641768D01*
X54682Y641844D01*
X54590Y641928D01*
X54524Y641968D01*
X54462Y642016D01*
X54352Y642071D01*
X54245Y642135D01*
X54172Y642162D01*
X54103Y642197D01*
X53983Y642229D01*
X53866Y642271D01*
X53789Y642282D01*
X53714Y642303D01*
X53591Y642311D01*
X53468Y642329D01*
X53390Y642325D01*
X53313Y642330D01*
X53190Y642314D01*
X53066Y642308D01*
X52990Y642288D01*
X52913Y642278D01*
X52831Y642252D01*
X52831Y645669D01*
X56226Y645669D01*
X55932Y644957D01*
X55861Y644851D01*
X55855Y644841D01*
X55848Y644832D01*
X55761Y644664D01*
X55671Y644495D01*
X55668Y644484D01*
X55663Y644475D01*
X55610Y644292D01*
X55555Y644110D01*
X55554Y644099D01*
X55551Y644088D01*
X55536Y643898D01*
X55518Y643709D01*
X55519Y643698D01*
X55518Y643686D01*
X55541Y643498D01*
X55561Y643308D01*
X55564Y643298D01*
X55565Y643287D01*
X55625Y643105D01*
X55681Y642924D01*
X55687Y642915D01*
X55690Y642904D01*
X55784Y642738D01*
X55875Y642572D01*
X55883Y642563D01*
X55888Y642553D01*
X56013Y642409D01*
X56135Y642264D01*
X56144Y642257D01*
X56151Y642248D01*
X56301Y642132D01*
X56451Y642014D01*
X56461Y642009D01*
X56469Y642002D01*
X56640Y641917D01*
X56809Y641830D01*
X56820Y641827D01*
X56830Y641822D01*
X57015Y641773D01*
X57197Y641722D01*
X57208Y641721D01*
X57219Y641718D01*
X57549Y641691D01*
X58019Y641691D01*
X58019Y633931D01*
X55259Y633931D01*
G37*
%LPD*%
%LPC*%
G36*
X57465Y622109D02*
X57465Y622109D01*
X56819Y622282D01*
X56240Y622617D01*
X55767Y623090D01*
X55432Y623669D01*
X55259Y624315D01*
X55259Y629869D01*
X58019Y629869D01*
X58019Y622109D01*
X57465Y622109D01*
G37*
%LPD*%
%LPC*%
G36*
X65259Y658331D02*
X65259Y658331D01*
X65259Y660135D01*
X65432Y660781D01*
X65767Y661360D01*
X66240Y661833D01*
X66819Y662168D01*
X67465Y662341D01*
X67769Y662341D01*
X67769Y658331D01*
X65259Y658331D01*
G37*
%LPD*%
%LPC*%
G36*
X67465Y650259D02*
X67465Y650259D01*
X66819Y650432D01*
X66240Y650767D01*
X65767Y651240D01*
X65432Y651819D01*
X65259Y652465D01*
X65259Y654269D01*
X67769Y654269D01*
X67769Y650259D01*
X67465Y650259D01*
G37*
%LPD*%
%LPC*%
G36*
X167131Y878331D02*
X167131Y878331D01*
X167131Y881726D01*
X167843Y881432D01*
X168791Y880798D01*
X169598Y879991D01*
X170232Y879043D01*
X170526Y878331D01*
X167131Y878331D01*
G37*
%LPD*%
%LPC*%
G36*
X167131Y598931D02*
X167131Y598931D01*
X167131Y602326D01*
X167843Y602032D01*
X168791Y601398D01*
X169598Y600591D01*
X170232Y599643D01*
X170526Y598931D01*
X167131Y598931D01*
G37*
%LPD*%
%LPC*%
G36*
X52831Y700531D02*
X52831Y700531D01*
X52831Y703926D01*
X53543Y703632D01*
X54491Y702998D01*
X55298Y702191D01*
X55932Y701243D01*
X56226Y700531D01*
X52831Y700531D01*
G37*
%LPD*%
%LPC*%
G36*
X167131Y649731D02*
X167131Y649731D01*
X167131Y653126D01*
X167843Y652832D01*
X168791Y652198D01*
X169598Y651391D01*
X170232Y650443D01*
X170526Y649731D01*
X167131Y649731D01*
G37*
%LPD*%
%LPC*%
G36*
X52831Y649731D02*
X52831Y649731D01*
X52831Y653126D01*
X53543Y652832D01*
X54491Y652198D01*
X55298Y651391D01*
X55932Y650443D01*
X56226Y649731D01*
X52831Y649731D01*
G37*
%LPD*%
%LPC*%
G36*
X167131Y827531D02*
X167131Y827531D01*
X167131Y830926D01*
X167843Y830632D01*
X168791Y829998D01*
X169598Y829191D01*
X170232Y828243D01*
X170526Y827531D01*
X167131Y827531D01*
G37*
%LPD*%
%LPC*%
G36*
X52831Y776731D02*
X52831Y776731D01*
X52831Y780126D01*
X53543Y779832D01*
X54491Y779198D01*
X55298Y778391D01*
X55932Y777443D01*
X56226Y776731D01*
X52831Y776731D01*
G37*
%LPD*%
%LPC*%
G36*
X167131Y776731D02*
X167131Y776731D01*
X167131Y780126D01*
X167843Y779832D01*
X168791Y779198D01*
X169598Y778391D01*
X170232Y777443D01*
X170526Y776731D01*
X167131Y776731D01*
G37*
%LPD*%
%LPC*%
G36*
X167131Y700531D02*
X167131Y700531D01*
X167131Y703926D01*
X167843Y703632D01*
X168791Y702998D01*
X169598Y702191D01*
X170232Y701243D01*
X170526Y700531D01*
X167131Y700531D01*
G37*
%LPD*%
%LPC*%
G36*
X159674Y878331D02*
X159674Y878331D01*
X159968Y879043D01*
X160602Y879991D01*
X161409Y880798D01*
X162357Y881432D01*
X163069Y881726D01*
X163069Y878331D01*
X159674Y878331D01*
G37*
%LPD*%
%LPC*%
G36*
X45374Y598931D02*
X45374Y598931D01*
X45668Y599643D01*
X46302Y600591D01*
X47109Y601398D01*
X48057Y602032D01*
X48769Y602326D01*
X48769Y598931D01*
X45374Y598931D01*
G37*
%LPD*%
%LPC*%
G36*
X45374Y649731D02*
X45374Y649731D01*
X45668Y650443D01*
X46302Y651391D01*
X47109Y652198D01*
X48057Y652832D01*
X48769Y653126D01*
X48769Y649731D01*
X45374Y649731D01*
G37*
%LPD*%
%LPC*%
G36*
X159674Y649731D02*
X159674Y649731D01*
X159968Y650443D01*
X160602Y651391D01*
X161409Y652198D01*
X162357Y652832D01*
X163069Y653126D01*
X163069Y649731D01*
X159674Y649731D01*
G37*
%LPD*%
%LPC*%
G36*
X159674Y776731D02*
X159674Y776731D01*
X159968Y777443D01*
X160602Y778391D01*
X161409Y779198D01*
X162357Y779832D01*
X163069Y780126D01*
X163069Y776731D01*
X159674Y776731D01*
G37*
%LPD*%
%LPC*%
G36*
X159674Y827531D02*
X159674Y827531D01*
X159968Y828243D01*
X160602Y829191D01*
X161409Y829998D01*
X162357Y830632D01*
X163069Y830926D01*
X163069Y827531D01*
X159674Y827531D01*
G37*
%LPD*%
%LPC*%
G36*
X45374Y827531D02*
X45374Y827531D01*
X45668Y828243D01*
X46302Y829191D01*
X47109Y829998D01*
X48057Y830632D01*
X48769Y830926D01*
X48769Y827531D01*
X45374Y827531D01*
G37*
%LPD*%
%LPC*%
G36*
X45374Y776731D02*
X45374Y776731D01*
X45668Y777443D01*
X46302Y778391D01*
X47109Y779198D01*
X48057Y779832D01*
X48769Y780126D01*
X48769Y776731D01*
X45374Y776731D01*
G37*
%LPD*%
%LPC*%
G36*
X45374Y700531D02*
X45374Y700531D01*
X45668Y701243D01*
X46302Y702191D01*
X47109Y702998D01*
X48057Y703632D01*
X48769Y703926D01*
X48769Y700531D01*
X45374Y700531D01*
G37*
%LPD*%
%LPC*%
G36*
X159674Y700531D02*
X159674Y700531D01*
X159968Y701243D01*
X160602Y702191D01*
X161409Y702998D01*
X162357Y703632D01*
X163069Y703926D01*
X163069Y700531D01*
X159674Y700531D01*
G37*
%LPD*%
%LPC*%
G36*
X159674Y598931D02*
X159674Y598931D01*
X159968Y599643D01*
X160602Y600591D01*
X161409Y601398D01*
X162357Y602032D01*
X163069Y602326D01*
X163069Y598931D01*
X159674Y598931D01*
G37*
%LPD*%
%LPC*%
G36*
X167131Y645669D02*
X167131Y645669D01*
X170526Y645669D01*
X170232Y644957D01*
X169598Y644009D01*
X168791Y643202D01*
X167843Y642568D01*
X167131Y642274D01*
X167131Y645669D01*
G37*
%LPD*%
%LPC*%
G36*
X167131Y823469D02*
X167131Y823469D01*
X170526Y823469D01*
X170232Y822757D01*
X169598Y821809D01*
X168791Y821002D01*
X167843Y820368D01*
X167131Y820074D01*
X167131Y823469D01*
G37*
%LPD*%
%LPC*%
G36*
X52831Y772669D02*
X52831Y772669D01*
X56226Y772669D01*
X55932Y771957D01*
X55298Y771009D01*
X54491Y770202D01*
X53543Y769568D01*
X52831Y769274D01*
X52831Y772669D01*
G37*
%LPD*%
%LPC*%
G36*
X167131Y696469D02*
X167131Y696469D01*
X170526Y696469D01*
X170232Y695757D01*
X169598Y694809D01*
X168791Y694002D01*
X167843Y693368D01*
X167131Y693074D01*
X167131Y696469D01*
G37*
%LPD*%
%LPC*%
G36*
X52831Y823469D02*
X52831Y823469D01*
X56226Y823469D01*
X55932Y822757D01*
X55298Y821809D01*
X54491Y821002D01*
X53543Y820368D01*
X52831Y820074D01*
X52831Y823469D01*
G37*
%LPD*%
%LPC*%
G36*
X167131Y772669D02*
X167131Y772669D01*
X170526Y772669D01*
X170232Y771957D01*
X169598Y771009D01*
X168791Y770202D01*
X167843Y769568D01*
X167131Y769274D01*
X167131Y772669D01*
G37*
%LPD*%
%LPC*%
G36*
X52831Y696469D02*
X52831Y696469D01*
X56226Y696469D01*
X55932Y695757D01*
X55298Y694809D01*
X54491Y694002D01*
X53543Y693368D01*
X52831Y693074D01*
X52831Y696469D01*
G37*
%LPD*%
%LPC*%
G36*
X167131Y874269D02*
X167131Y874269D01*
X170526Y874269D01*
X170232Y873557D01*
X169598Y872609D01*
X168791Y871802D01*
X167843Y871168D01*
X167131Y870874D01*
X167131Y874269D01*
G37*
%LPD*%
%LPC*%
G36*
X167131Y594869D02*
X167131Y594869D01*
X170526Y594869D01*
X170232Y594157D01*
X169598Y593209D01*
X168791Y592402D01*
X167843Y591768D01*
X167131Y591474D01*
X167131Y594869D01*
G37*
%LPD*%
%LPC*%
G36*
X162357Y820368D02*
X162357Y820368D01*
X161409Y821002D01*
X160602Y821809D01*
X159968Y822757D01*
X159674Y823469D01*
X163069Y823469D01*
X163069Y820074D01*
X162357Y820368D01*
G37*
%LPD*%
%LPC*%
G36*
X162357Y769568D02*
X162357Y769568D01*
X161409Y770202D01*
X160602Y771009D01*
X159968Y771957D01*
X159674Y772669D01*
X163069Y772669D01*
X163069Y769274D01*
X162357Y769568D01*
G37*
%LPD*%
%LPC*%
G36*
X48057Y769568D02*
X48057Y769568D01*
X47109Y770202D01*
X46302Y771009D01*
X45668Y771957D01*
X45374Y772669D01*
X48769Y772669D01*
X48769Y769274D01*
X48057Y769568D01*
G37*
%LPD*%
%LPC*%
G36*
X162357Y693368D02*
X162357Y693368D01*
X161409Y694002D01*
X160602Y694809D01*
X159968Y695757D01*
X159674Y696469D01*
X163069Y696469D01*
X163069Y693074D01*
X162357Y693368D01*
G37*
%LPD*%
%LPC*%
G36*
X48057Y693368D02*
X48057Y693368D01*
X47109Y694002D01*
X46302Y694809D01*
X45668Y695757D01*
X45374Y696469D01*
X48769Y696469D01*
X48769Y693074D01*
X48057Y693368D01*
G37*
%LPD*%
%LPC*%
G36*
X48057Y642568D02*
X48057Y642568D01*
X47109Y643202D01*
X46302Y644009D01*
X45668Y644957D01*
X45374Y645669D01*
X48769Y645669D01*
X48769Y642274D01*
X48057Y642568D01*
G37*
%LPD*%
%LPC*%
G36*
X162357Y871168D02*
X162357Y871168D01*
X161409Y871802D01*
X160602Y872609D01*
X159968Y873557D01*
X159674Y874269D01*
X163069Y874269D01*
X163069Y870874D01*
X162357Y871168D01*
G37*
%LPD*%
%LPC*%
G36*
X162357Y642568D02*
X162357Y642568D01*
X161409Y643202D01*
X160602Y644009D01*
X159968Y644957D01*
X159674Y645669D01*
X163069Y645669D01*
X163069Y642274D01*
X162357Y642568D01*
G37*
%LPD*%
%LPC*%
G36*
X48057Y591768D02*
X48057Y591768D01*
X47109Y592402D01*
X46302Y593209D01*
X45668Y594157D01*
X45374Y594869D01*
X48769Y594869D01*
X48769Y591474D01*
X48057Y591768D01*
G37*
%LPD*%
%LPC*%
G36*
X48057Y820368D02*
X48057Y820368D01*
X47109Y821002D01*
X46302Y821809D01*
X45668Y822757D01*
X45374Y823469D01*
X48769Y823469D01*
X48769Y820074D01*
X48057Y820368D01*
G37*
%LPD*%
%LPC*%
G36*
X162357Y591768D02*
X162357Y591768D01*
X161409Y592402D01*
X160602Y593209D01*
X159968Y594157D01*
X159674Y594869D01*
X163069Y594869D01*
X163069Y591474D01*
X162357Y591768D01*
G37*
%LPD*%
%LPC*%
G36*
X-5216Y878839D02*
X-5216Y878839D01*
X-5132Y879043D01*
X-4498Y879991D01*
X-3691Y880798D01*
X-2743Y881432D01*
X-2539Y881516D01*
X-2539Y878839D01*
X-5216Y878839D01*
G37*
%LPD*%
%LPC*%
G36*
X2539Y878839D02*
X2539Y878839D01*
X2539Y881516D01*
X2743Y881432D01*
X3691Y880798D01*
X4498Y879991D01*
X5132Y879043D01*
X5216Y878839D01*
X2539Y878839D01*
G37*
%LPD*%
%LPC*%
G36*
X-5216Y599439D02*
X-5216Y599439D01*
X-5132Y599643D01*
X-4498Y600591D01*
X-3691Y601398D01*
X-2743Y602032D01*
X-2539Y602116D01*
X-2539Y599439D01*
X-5216Y599439D01*
G37*
%LPD*%
%LPC*%
G36*
X-56016Y777239D02*
X-56016Y777239D01*
X-55932Y777443D01*
X-55298Y778391D01*
X-54491Y779198D01*
X-53543Y779832D01*
X-53339Y779916D01*
X-53339Y777239D01*
X-56016Y777239D01*
G37*
%LPD*%
%LPC*%
G36*
X2539Y650239D02*
X2539Y650239D01*
X2539Y652916D01*
X2743Y652832D01*
X3691Y652198D01*
X4498Y651391D01*
X5132Y650443D01*
X5216Y650239D01*
X2539Y650239D01*
G37*
%LPD*%
%LPC*%
G36*
X-56016Y599439D02*
X-56016Y599439D01*
X-55932Y599643D01*
X-55298Y600591D01*
X-54491Y601398D01*
X-53543Y602032D01*
X-53339Y602116D01*
X-53339Y599439D01*
X-56016Y599439D01*
G37*
%LPD*%
%LPC*%
G36*
X-56016Y650239D02*
X-56016Y650239D01*
X-55932Y650443D01*
X-55298Y651391D01*
X-54491Y652198D01*
X-53543Y652832D01*
X-53339Y652916D01*
X-53339Y650239D01*
X-56016Y650239D01*
G37*
%LPD*%
%LPC*%
G36*
X-56016Y828039D02*
X-56016Y828039D01*
X-55932Y828243D01*
X-55298Y829191D01*
X-54491Y829998D01*
X-53543Y830632D01*
X-53339Y830716D01*
X-53339Y828039D01*
X-56016Y828039D01*
G37*
%LPD*%
%LPC*%
G36*
X2539Y828039D02*
X2539Y828039D01*
X2539Y830716D01*
X2743Y830632D01*
X3691Y829998D01*
X4498Y829191D01*
X5132Y828243D01*
X5216Y828039D01*
X2539Y828039D01*
G37*
%LPD*%
%LPC*%
G36*
X-5216Y828039D02*
X-5216Y828039D01*
X-5132Y828243D01*
X-4498Y829191D01*
X-3691Y829998D01*
X-2743Y830632D01*
X-2539Y830716D01*
X-2539Y828039D01*
X-5216Y828039D01*
G37*
%LPD*%
%LPC*%
G36*
X-5216Y650239D02*
X-5216Y650239D01*
X-5132Y650443D01*
X-4498Y651391D01*
X-3691Y652198D01*
X-2743Y652832D01*
X-2539Y652916D01*
X-2539Y650239D01*
X-5216Y650239D01*
G37*
%LPD*%
%LPC*%
G36*
X2539Y599439D02*
X2539Y599439D01*
X2539Y602116D01*
X2743Y602032D01*
X3691Y601398D01*
X4498Y600591D01*
X5132Y599643D01*
X5216Y599439D01*
X2539Y599439D01*
G37*
%LPD*%
%LPC*%
G36*
X-56016Y878839D02*
X-56016Y878839D01*
X-55932Y879043D01*
X-55298Y879991D01*
X-54491Y880798D01*
X-53543Y881432D01*
X-53339Y881516D01*
X-53339Y878839D01*
X-56016Y878839D01*
G37*
%LPD*%
%LPC*%
G36*
X-56016Y701039D02*
X-56016Y701039D01*
X-55932Y701243D01*
X-55298Y702191D01*
X-54491Y702998D01*
X-53543Y703632D01*
X-53339Y703716D01*
X-53339Y701039D01*
X-56016Y701039D01*
G37*
%LPD*%
%LPC*%
G36*
X-53543Y871168D02*
X-53543Y871168D01*
X-54491Y871802D01*
X-55298Y872609D01*
X-55932Y873557D01*
X-56016Y873761D01*
X-53339Y873761D01*
X-53339Y871084D01*
X-53543Y871168D01*
G37*
%LPD*%
%LPC*%
G36*
X-53543Y693368D02*
X-53543Y693368D01*
X-54491Y694002D01*
X-55298Y694809D01*
X-55932Y695757D01*
X-56016Y695961D01*
X-53339Y695961D01*
X-53339Y693284D01*
X-53543Y693368D01*
G37*
%LPD*%
%LPC*%
G36*
X-48261Y828039D02*
X-48261Y828039D01*
X-48261Y830716D01*
X-48057Y830632D01*
X-47109Y829998D01*
X-46302Y829191D01*
X-45668Y828243D01*
X-45584Y828039D01*
X-48261Y828039D01*
G37*
%LPD*%
%LPC*%
G36*
X-2743Y871168D02*
X-2743Y871168D01*
X-3691Y871802D01*
X-4498Y872609D01*
X-5132Y873557D01*
X-5216Y873761D01*
X-2539Y873761D01*
X-2539Y871084D01*
X-2743Y871168D01*
G37*
%LPD*%
%LPC*%
G36*
X2539Y873761D02*
X2539Y873761D01*
X5216Y873761D01*
X5132Y873557D01*
X4498Y872609D01*
X3691Y871802D01*
X2743Y871168D01*
X2539Y871084D01*
X2539Y873761D01*
G37*
%LPD*%
%LPC*%
G36*
X-48261Y650239D02*
X-48261Y650239D01*
X-48261Y652916D01*
X-48057Y652832D01*
X-47109Y652198D01*
X-46302Y651391D01*
X-45668Y650443D01*
X-45584Y650239D01*
X-48261Y650239D01*
G37*
%LPD*%
%LPC*%
G36*
X-48261Y701039D02*
X-48261Y701039D01*
X-48261Y703716D01*
X-48057Y703632D01*
X-47109Y702998D01*
X-46302Y702191D01*
X-45668Y701243D01*
X-45584Y701039D01*
X-48261Y701039D01*
G37*
%LPD*%
%LPC*%
G36*
X2539Y645161D02*
X2539Y645161D01*
X5216Y645161D01*
X5132Y644957D01*
X4498Y644009D01*
X3691Y643202D01*
X2743Y642568D01*
X2539Y642484D01*
X2539Y645161D01*
G37*
%LPD*%
%LPC*%
G36*
X-2743Y642568D02*
X-2743Y642568D01*
X-3691Y643202D01*
X-4498Y644009D01*
X-5132Y644957D01*
X-5216Y645161D01*
X-2539Y645161D01*
X-2539Y642484D01*
X-2743Y642568D01*
G37*
%LPD*%
%LPC*%
G36*
X-53543Y642568D02*
X-53543Y642568D01*
X-54491Y643202D01*
X-55298Y644009D01*
X-55932Y644957D01*
X-56016Y645161D01*
X-53339Y645161D01*
X-53339Y642484D01*
X-53543Y642568D01*
G37*
%LPD*%
%LPC*%
G36*
X-48261Y878839D02*
X-48261Y878839D01*
X-48261Y881516D01*
X-48057Y881432D01*
X-47109Y880798D01*
X-46302Y879991D01*
X-45668Y879043D01*
X-45584Y878839D01*
X-48261Y878839D01*
G37*
%LPD*%
%LPC*%
G36*
X-48261Y777239D02*
X-48261Y777239D01*
X-48261Y779916D01*
X-48057Y779832D01*
X-47109Y779198D01*
X-46302Y778391D01*
X-45668Y777443D01*
X-45584Y777239D01*
X-48261Y777239D01*
G37*
%LPD*%
%LPC*%
G36*
X-2743Y820368D02*
X-2743Y820368D01*
X-3691Y821002D01*
X-4498Y821809D01*
X-5132Y822757D01*
X-5216Y822961D01*
X-2539Y822961D01*
X-2539Y820284D01*
X-2743Y820368D01*
G37*
%LPD*%
%LPC*%
G36*
X-48261Y599439D02*
X-48261Y599439D01*
X-48261Y602116D01*
X-48057Y602032D01*
X-47109Y601398D01*
X-46302Y600591D01*
X-45668Y599643D01*
X-45584Y599439D01*
X-48261Y599439D01*
G37*
%LPD*%
%LPC*%
G36*
X-53543Y820368D02*
X-53543Y820368D01*
X-54491Y821002D01*
X-55298Y821809D01*
X-55932Y822757D01*
X-56016Y822961D01*
X-53339Y822961D01*
X-53339Y820284D01*
X-53543Y820368D01*
G37*
%LPD*%
%LPC*%
G36*
X2539Y822961D02*
X2539Y822961D01*
X5216Y822961D01*
X5132Y822757D01*
X4498Y821809D01*
X3691Y821002D01*
X2743Y820368D01*
X2539Y820284D01*
X2539Y822961D01*
G37*
%LPD*%
%LPC*%
G36*
X-53543Y769568D02*
X-53543Y769568D01*
X-54491Y770202D01*
X-55298Y771009D01*
X-55932Y771957D01*
X-56016Y772161D01*
X-53339Y772161D01*
X-53339Y769484D01*
X-53543Y769568D01*
G37*
%LPD*%
%LPC*%
G36*
X2539Y594361D02*
X2539Y594361D01*
X5216Y594361D01*
X5132Y594157D01*
X4498Y593209D01*
X3691Y592402D01*
X2743Y591768D01*
X2539Y591684D01*
X2539Y594361D01*
G37*
%LPD*%
%LPC*%
G36*
X-2743Y591768D02*
X-2743Y591768D01*
X-3691Y592402D01*
X-4498Y593209D01*
X-5132Y594157D01*
X-5216Y594361D01*
X-2539Y594361D01*
X-2539Y591684D01*
X-2743Y591768D01*
G37*
%LPD*%
%LPC*%
G36*
X-53543Y591768D02*
X-53543Y591768D01*
X-54491Y592402D01*
X-55298Y593209D01*
X-55932Y594157D01*
X-56016Y594361D01*
X-53339Y594361D01*
X-53339Y591684D01*
X-53543Y591768D01*
G37*
%LPD*%
%LPC*%
G36*
X-48261Y645161D02*
X-48261Y645161D01*
X-45584Y645161D01*
X-45668Y644957D01*
X-46302Y644009D01*
X-47109Y643202D01*
X-48057Y642568D01*
X-48261Y642484D01*
X-48261Y645161D01*
G37*
%LPD*%
%LPC*%
G36*
X-48261Y873761D02*
X-48261Y873761D01*
X-45584Y873761D01*
X-45668Y873557D01*
X-46302Y872609D01*
X-47109Y871802D01*
X-48057Y871168D01*
X-48261Y871084D01*
X-48261Y873761D01*
G37*
%LPD*%
%LPC*%
G36*
X-48261Y695961D02*
X-48261Y695961D01*
X-45584Y695961D01*
X-45668Y695757D01*
X-46302Y694809D01*
X-47109Y694002D01*
X-48057Y693368D01*
X-48261Y693284D01*
X-48261Y695961D01*
G37*
%LPD*%
%LPC*%
G36*
X-48261Y822961D02*
X-48261Y822961D01*
X-45584Y822961D01*
X-45668Y822757D01*
X-46302Y821809D01*
X-47109Y821002D01*
X-48057Y820368D01*
X-48261Y820284D01*
X-48261Y822961D01*
G37*
%LPD*%
%LPC*%
G36*
X-48261Y594361D02*
X-48261Y594361D01*
X-45584Y594361D01*
X-45668Y594157D01*
X-46302Y593209D01*
X-47109Y592402D01*
X-48057Y591768D01*
X-48261Y591684D01*
X-48261Y594361D01*
G37*
%LPD*%
%LPC*%
G36*
X-48261Y772161D02*
X-48261Y772161D01*
X-45584Y772161D01*
X-45668Y771957D01*
X-46302Y771009D01*
X-47109Y770202D01*
X-48057Y769568D01*
X-48261Y769484D01*
X-48261Y772161D01*
G37*
%LPD*%
D10*
X79550Y631900D03*
X73050Y631900D03*
X66550Y631900D03*
X60050Y631900D03*
X79550Y587900D03*
X73050Y587900D03*
X66550Y587900D03*
X60050Y587900D03*
X98250Y841300D03*
X104750Y841300D03*
X111250Y841300D03*
X117750Y841300D03*
X98250Y885300D03*
X104750Y885300D03*
X111250Y885300D03*
X117750Y885300D03*
X60150Y841300D03*
X66650Y841300D03*
X73150Y841300D03*
X79650Y841300D03*
X60150Y885300D03*
X66650Y885300D03*
X73150Y885300D03*
X79650Y885300D03*
X117650Y631900D03*
X111150Y631900D03*
X104650Y631900D03*
X98150Y631900D03*
X117650Y587900D03*
X111150Y587900D03*
X104650Y587900D03*
X98150Y587900D03*
D11*
X108000Y816900D03*
X95300Y816900D03*
X82600Y816900D03*
X69900Y816900D03*
D12*
X98900Y772400D03*
X78900Y772400D03*
D11*
X69800Y656300D03*
X82500Y656300D03*
X95200Y656300D03*
X107900Y656300D03*
D12*
X78900Y700800D03*
X98900Y700800D03*
D13*
X144780Y723900D02*
X160020Y723900D01*
X160020Y749300D02*
X144780Y749300D01*
X13970Y723900D02*
X-1270Y723900D01*
X-1270Y749300D02*
X13970Y749300D01*
X-30480Y723900D02*
X-45720Y723900D01*
X-45720Y749300D02*
X-30480Y749300D01*
D14*
X165100Y876300D03*
X50800Y647700D03*
X50800Y596900D03*
X50800Y774700D03*
X50800Y825500D03*
X165100Y825500D03*
X165100Y647700D03*
X165100Y774700D03*
X165100Y698500D03*
X165100Y596900D03*
X50800Y698500D03*
X50800Y736600D03*
D15*
X73025Y587900D02*
X73050Y587900D01*
D16*
X73025Y587900D02*
X73025Y574675D01*
D14*
X73025Y574675D03*
D15*
X79550Y631825D02*
X79550Y631900D01*
D16*
X79550Y631825D02*
X88900Y631825D01*
D14*
X88900Y631825D03*
D15*
X66675Y885300D02*
X66650Y885300D01*
D16*
X66675Y885300D02*
X66675Y898525D01*
D14*
X66675Y898525D03*
X50800Y841375D03*
D16*
X60150Y841375D01*
D15*
X60150Y841300D01*
X98250Y841300D02*
X98250Y841375D01*
D16*
X88900Y841375D01*
D14*
X88900Y841375D03*
D16*
X104750Y885300D02*
X104750Y898525D01*
D15*
X104775Y898525D01*
D14*
X104775Y898525D03*
X127000Y631825D03*
D16*
X117650Y631825D01*
D15*
X117650Y631900D01*
X111150Y587900D02*
X111125Y587900D01*
D16*
X111125Y574675D01*
D14*
X111125Y574675D03*
D17*
X98900Y749300D02*
X98900Y772400D01*
X98900Y749300D02*
X98900Y700800D01*
D18*
X98900Y749300D02*
X152400Y749300D01*
D16*
X117650Y603250D02*
X117650Y587900D01*
D15*
X117650Y603250D02*
X117475Y603250D01*
D14*
X117475Y603250D03*
X98425Y869950D03*
D16*
X98250Y870125D02*
X98250Y885300D01*
X98250Y870125D02*
X98425Y869950D01*
X107900Y656300D02*
X107900Y643852D01*
X111150Y640602D02*
X111150Y631900D01*
X111150Y640602D02*
X107900Y643852D01*
X104650Y606300D02*
X104650Y587900D01*
X111150Y612800D02*
X111150Y631900D01*
X111150Y612800D02*
X104650Y606300D01*
X66550Y606300D02*
X66550Y587900D01*
X73050Y612800D02*
X73050Y631900D01*
X73050Y612800D02*
X66550Y606300D01*
X73050Y631900D02*
X73050Y641375D01*
X82550Y650875D01*
X82550Y656250D01*
D15*
X82500Y656300D01*
D16*
X66650Y831850D02*
X66650Y841300D01*
X69900Y828600D02*
X69900Y816900D01*
X69900Y828600D02*
X66650Y831850D01*
X66650Y841300D02*
X66650Y860400D01*
X73150Y866900D02*
X73150Y885300D01*
X73150Y866900D02*
X66650Y860400D01*
X95300Y822375D02*
X95300Y816900D01*
X95300Y822375D02*
X104775Y831850D01*
X104775Y841275D01*
D15*
X104750Y841300D01*
D16*
X104750Y860400D01*
X111250Y866900D02*
X111250Y885300D01*
X111250Y866900D02*
X104750Y860400D01*
D18*
X78900Y749300D02*
X6350Y749300D01*
X78900Y749300D02*
X78900Y772400D01*
D16*
X108000Y816900D02*
X108000Y822375D01*
X117750Y832125D02*
X117750Y841300D01*
X117750Y832125D02*
X108000Y822375D01*
X78900Y803275D02*
X78900Y772400D01*
X108000Y803275D02*
X108000Y816900D01*
X108000Y803275D02*
X78900Y803275D01*
D15*
X60150Y885300D02*
X60150Y885825D01*
D16*
X53975Y885825D01*
D14*
X53975Y885825D03*
X78900Y803275D03*
D18*
X6350Y749300D02*
X-38100Y749300D01*
X6350Y723900D02*
X78900Y723900D01*
X78900Y700800D01*
D16*
X98150Y641625D02*
X98150Y631900D01*
X95200Y644575D02*
X95200Y656300D01*
X95200Y644575D02*
X98150Y641625D01*
X79550Y600250D02*
X79550Y587900D01*
X79550Y600250D02*
X98150Y618850D01*
D15*
X98368Y631682D02*
X98150Y631900D01*
D16*
X78900Y669925D02*
X78900Y700800D01*
X78900Y669925D02*
X95250Y669925D01*
X95250Y656300D01*
D15*
X95200Y656300D01*
D18*
X6350Y723900D02*
X-38100Y723900D01*
D16*
X98150Y631900D02*
X98150Y618850D01*
D14*
X0Y876300D03*
X-50800Y876300D03*
X-50800Y825500D03*
X0Y647700D03*
X0Y825500D03*
X-50800Y647700D03*
X0Y596900D03*
X-50800Y596900D03*
X-50800Y774700D03*
X-50800Y698500D03*
M02*
