G04 EAGLE Gerber X2 export*
%TF.Part,Single*%
%TF.FileFunction,Copper,L2,Bot,Mixed*%
%TF.FilePolarity,Positive*%
%TF.GenerationSoftware,Autodesk,EAGLE,9.0.0*%
%TF.CreationDate,2018-04-26T05:51:29Z*%
G75*
%MOMM*%
%FSLAX34Y34*%
%LPD*%
%AMOC8*
5,1,8,0,0,1.08239X$1,22.5*%
G01*
%ADD10R,1.500000X1.300000*%
%ADD11R,1.600000X2.800000*%
%ADD12C,1.524000*%
%ADD13C,0.806400*%
%ADD14C,0.450000*%
%ADD15C,0.812800*%
%ADD16C,0.756400*%

G36*
X148189Y19697D02*
X148189Y19697D01*
X148260Y19699D01*
X148309Y19717D01*
X148361Y19725D01*
X148424Y19759D01*
X148491Y19784D01*
X148532Y19816D01*
X148578Y19841D01*
X148628Y19893D01*
X148684Y19937D01*
X148712Y19981D01*
X148748Y20019D01*
X148778Y20084D01*
X148817Y20144D01*
X148829Y20195D01*
X148851Y20242D01*
X148859Y20313D01*
X148877Y20383D01*
X148873Y20435D01*
X148878Y20486D01*
X148863Y20557D01*
X148857Y20628D01*
X148837Y20676D01*
X148826Y20727D01*
X148789Y20788D01*
X148761Y20854D01*
X148716Y20910D01*
X148700Y20938D01*
X148682Y20953D01*
X148656Y20985D01*
X147789Y21852D01*
X146943Y23895D01*
X146943Y26105D01*
X147789Y28148D01*
X149352Y29711D01*
X151395Y30557D01*
X153605Y30557D01*
X155648Y29711D01*
X156361Y28998D01*
X156435Y28945D01*
X156504Y28885D01*
X156534Y28873D01*
X156560Y28854D01*
X156647Y28827D01*
X156732Y28793D01*
X156773Y28789D01*
X156796Y28782D01*
X156828Y28783D01*
X156899Y28775D01*
X170089Y28775D01*
X170109Y28778D01*
X170128Y28776D01*
X170230Y28798D01*
X170332Y28814D01*
X170349Y28824D01*
X170369Y28828D01*
X170458Y28881D01*
X170549Y28930D01*
X170563Y28944D01*
X170580Y28954D01*
X170647Y29033D01*
X170719Y29108D01*
X170727Y29126D01*
X170740Y29141D01*
X170779Y29237D01*
X170822Y29331D01*
X170824Y29351D01*
X170832Y29369D01*
X170850Y29536D01*
X170850Y42039D01*
X170847Y42059D01*
X170849Y42078D01*
X170827Y42180D01*
X170811Y42282D01*
X170801Y42299D01*
X170797Y42319D01*
X170744Y42408D01*
X170695Y42499D01*
X170681Y42513D01*
X170671Y42530D01*
X170592Y42597D01*
X170517Y42669D01*
X170499Y42677D01*
X170484Y42690D01*
X170388Y42729D01*
X170294Y42772D01*
X170274Y42774D01*
X170256Y42782D01*
X170089Y42800D01*
X166493Y42800D01*
X165600Y43693D01*
X165600Y57957D01*
X166493Y58850D01*
X182757Y58850D01*
X183650Y57957D01*
X183650Y43693D01*
X182757Y42800D01*
X179161Y42800D01*
X179141Y42797D01*
X179122Y42799D01*
X179020Y42777D01*
X178918Y42761D01*
X178901Y42751D01*
X178881Y42747D01*
X178792Y42694D01*
X178701Y42645D01*
X178687Y42631D01*
X178670Y42621D01*
X178603Y42542D01*
X178531Y42467D01*
X178523Y42449D01*
X178510Y42434D01*
X178471Y42338D01*
X178428Y42244D01*
X178426Y42224D01*
X178418Y42206D01*
X178400Y42039D01*
X178400Y23436D01*
X176189Y21225D01*
X156899Y21225D01*
X156809Y21211D01*
X156719Y21204D01*
X156689Y21191D01*
X156656Y21186D01*
X156576Y21143D01*
X156492Y21107D01*
X156460Y21081D01*
X156439Y21070D01*
X156424Y21054D01*
X156422Y21053D01*
X156413Y21044D01*
X156361Y21003D01*
X156344Y20986D01*
X156302Y20927D01*
X156252Y20875D01*
X156231Y20828D01*
X156200Y20786D01*
X156179Y20717D01*
X156149Y20652D01*
X156143Y20601D01*
X156128Y20551D01*
X156130Y20479D01*
X156122Y20408D01*
X156133Y20357D01*
X156134Y20305D01*
X156159Y20238D01*
X156174Y20167D01*
X156201Y20123D01*
X156218Y20074D01*
X156263Y20018D01*
X156300Y19956D01*
X156339Y19922D01*
X156372Y19882D01*
X156432Y19843D01*
X156487Y19796D01*
X156535Y19777D01*
X156579Y19749D01*
X156648Y19731D01*
X156715Y19704D01*
X156786Y19696D01*
X156817Y19689D01*
X156841Y19690D01*
X156882Y19686D01*
X185618Y19686D01*
X185689Y19697D01*
X185760Y19699D01*
X185809Y19717D01*
X185861Y19725D01*
X185924Y19759D01*
X185991Y19784D01*
X186032Y19816D01*
X186078Y19841D01*
X186128Y19893D01*
X186184Y19937D01*
X186212Y19981D01*
X186248Y20019D01*
X186278Y20084D01*
X186317Y20144D01*
X186329Y20195D01*
X186351Y20242D01*
X186359Y20313D01*
X186377Y20383D01*
X186373Y20435D01*
X186378Y20486D01*
X186363Y20557D01*
X186357Y20628D01*
X186337Y20676D01*
X186326Y20727D01*
X186289Y20788D01*
X186261Y20854D01*
X186216Y20910D01*
X186200Y20938D01*
X186182Y20953D01*
X186156Y20985D01*
X185289Y21852D01*
X184443Y23895D01*
X184443Y26105D01*
X185289Y28148D01*
X186852Y29711D01*
X188895Y30557D01*
X191105Y30557D01*
X193148Y29711D01*
X193861Y28998D01*
X193935Y28945D01*
X194004Y28885D01*
X194034Y28873D01*
X194060Y28854D01*
X194147Y28827D01*
X194232Y28793D01*
X194273Y28789D01*
X194296Y28782D01*
X194328Y28783D01*
X194399Y28775D01*
X208189Y28775D01*
X208209Y28778D01*
X208228Y28776D01*
X208330Y28798D01*
X208432Y28814D01*
X208449Y28824D01*
X208469Y28828D01*
X208558Y28881D01*
X208649Y28930D01*
X208663Y28944D01*
X208680Y28954D01*
X208747Y29033D01*
X208819Y29108D01*
X208827Y29126D01*
X208840Y29141D01*
X208879Y29237D01*
X208922Y29331D01*
X208924Y29351D01*
X208932Y29369D01*
X208950Y29536D01*
X208950Y42039D01*
X208947Y42059D01*
X208949Y42078D01*
X208927Y42180D01*
X208911Y42282D01*
X208901Y42299D01*
X208897Y42319D01*
X208844Y42408D01*
X208795Y42499D01*
X208781Y42513D01*
X208771Y42530D01*
X208692Y42597D01*
X208617Y42669D01*
X208599Y42677D01*
X208584Y42690D01*
X208488Y42729D01*
X208394Y42772D01*
X208374Y42774D01*
X208356Y42782D01*
X208189Y42800D01*
X204593Y42800D01*
X203700Y43693D01*
X203700Y57957D01*
X204593Y58850D01*
X220857Y58850D01*
X221750Y57957D01*
X221750Y43693D01*
X220857Y42800D01*
X217261Y42800D01*
X217241Y42797D01*
X217222Y42799D01*
X217120Y42777D01*
X217018Y42761D01*
X217001Y42751D01*
X216981Y42747D01*
X216892Y42694D01*
X216801Y42645D01*
X216787Y42631D01*
X216770Y42621D01*
X216703Y42542D01*
X216631Y42467D01*
X216623Y42449D01*
X216610Y42434D01*
X216571Y42338D01*
X216528Y42244D01*
X216526Y42224D01*
X216518Y42206D01*
X216500Y42039D01*
X216500Y23436D01*
X214289Y21225D01*
X194399Y21225D01*
X194309Y21211D01*
X194219Y21204D01*
X194189Y21191D01*
X194156Y21186D01*
X194076Y21143D01*
X193992Y21107D01*
X193960Y21081D01*
X193939Y21070D01*
X193924Y21054D01*
X193922Y21053D01*
X193913Y21044D01*
X193861Y21003D01*
X193844Y20986D01*
X193802Y20927D01*
X193752Y20875D01*
X193731Y20828D01*
X193700Y20786D01*
X193679Y20717D01*
X193649Y20652D01*
X193643Y20601D01*
X193628Y20551D01*
X193630Y20479D01*
X193622Y20408D01*
X193633Y20357D01*
X193634Y20305D01*
X193659Y20238D01*
X193674Y20167D01*
X193701Y20123D01*
X193718Y20074D01*
X193763Y20018D01*
X193800Y19956D01*
X193839Y19922D01*
X193872Y19882D01*
X193932Y19843D01*
X193987Y19796D01*
X194035Y19777D01*
X194079Y19749D01*
X194148Y19731D01*
X194215Y19704D01*
X194286Y19696D01*
X194317Y19689D01*
X194341Y19690D01*
X194382Y19686D01*
X238125Y19686D01*
X238143Y19689D01*
X238175Y19687D01*
X240065Y19811D01*
X240088Y19817D01*
X240212Y19836D01*
X243863Y20814D01*
X243877Y20820D01*
X243892Y20822D01*
X244046Y20890D01*
X247319Y22780D01*
X247331Y22790D01*
X247346Y22796D01*
X247477Y22901D01*
X250149Y25573D01*
X250159Y25586D01*
X250171Y25596D01*
X250270Y25731D01*
X252160Y29004D01*
X252166Y29019D01*
X252175Y29031D01*
X252228Y29167D01*
X252234Y29180D01*
X252234Y29183D01*
X252236Y29187D01*
X253214Y32838D01*
X253217Y32862D01*
X253239Y32985D01*
X253363Y34875D01*
X253361Y34894D01*
X253364Y34925D01*
X253364Y339725D01*
X253361Y339743D01*
X253363Y339775D01*
X253239Y341665D01*
X253233Y341688D01*
X253214Y341812D01*
X252236Y345463D01*
X252230Y345477D01*
X252228Y345492D01*
X252160Y345646D01*
X250270Y348919D01*
X250260Y348931D01*
X250254Y348946D01*
X250198Y349016D01*
X250186Y349037D01*
X250173Y349048D01*
X250149Y349077D01*
X247477Y351749D01*
X247464Y351759D01*
X247454Y351771D01*
X247319Y351870D01*
X244046Y353760D01*
X244031Y353766D01*
X244019Y353775D01*
X243863Y353836D01*
X240212Y354814D01*
X240188Y354817D01*
X240065Y354839D01*
X238175Y354963D01*
X238156Y354961D01*
X238125Y354964D01*
X188232Y354964D01*
X188161Y354953D01*
X188090Y354951D01*
X188041Y354933D01*
X187989Y354925D01*
X187926Y354891D01*
X187858Y354866D01*
X187818Y354834D01*
X187772Y354809D01*
X187723Y354758D01*
X187666Y354713D01*
X187638Y354669D01*
X187602Y354631D01*
X187572Y354566D01*
X187533Y354506D01*
X187521Y354455D01*
X187499Y354408D01*
X187491Y354337D01*
X187473Y354267D01*
X187477Y354215D01*
X187472Y354164D01*
X187487Y354093D01*
X187493Y354022D01*
X187513Y353974D01*
X187524Y353923D01*
X187561Y353862D01*
X187589Y353796D01*
X187634Y353740D01*
X187650Y353712D01*
X187668Y353697D01*
X187694Y353665D01*
X188211Y353148D01*
X189057Y351105D01*
X189057Y348895D01*
X188211Y346852D01*
X186648Y345289D01*
X184605Y344443D01*
X182395Y344443D01*
X180352Y345289D01*
X179639Y346002D01*
X179565Y346055D01*
X179496Y346115D01*
X179466Y346127D01*
X179440Y346146D01*
X179353Y346173D01*
X179268Y346207D01*
X179227Y346211D01*
X179204Y346218D01*
X179172Y346217D01*
X179101Y346225D01*
X166461Y346225D01*
X166441Y346222D01*
X166422Y346224D01*
X166320Y346202D01*
X166218Y346186D01*
X166201Y346176D01*
X166181Y346172D01*
X166092Y346119D01*
X166001Y346070D01*
X165987Y346056D01*
X165970Y346046D01*
X165903Y345967D01*
X165831Y345892D01*
X165823Y345874D01*
X165810Y345859D01*
X165771Y345763D01*
X165728Y345669D01*
X165726Y345649D01*
X165718Y345631D01*
X165700Y345464D01*
X165700Y332611D01*
X165703Y332591D01*
X165701Y332572D01*
X165723Y332470D01*
X165739Y332368D01*
X165749Y332351D01*
X165753Y332331D01*
X165806Y332242D01*
X165855Y332151D01*
X165869Y332137D01*
X165879Y332120D01*
X165958Y332053D01*
X166033Y331981D01*
X166051Y331973D01*
X166066Y331960D01*
X166162Y331921D01*
X166256Y331878D01*
X166276Y331876D01*
X166294Y331868D01*
X166461Y331850D01*
X170057Y331850D01*
X170950Y330957D01*
X170950Y325034D01*
X170965Y324938D01*
X170975Y324841D01*
X170985Y324817D01*
X170989Y324791D01*
X171035Y324705D01*
X171075Y324616D01*
X171092Y324597D01*
X171105Y324574D01*
X171175Y324507D01*
X171241Y324435D01*
X171264Y324422D01*
X171283Y324404D01*
X171371Y324363D01*
X171457Y324316D01*
X171482Y324312D01*
X171506Y324301D01*
X171603Y324290D01*
X171699Y324273D01*
X171725Y324276D01*
X171750Y324274D01*
X171845Y324294D01*
X171942Y324308D01*
X171965Y324320D01*
X171991Y324326D01*
X172075Y324376D01*
X172161Y324420D01*
X172179Y324439D01*
X172202Y324452D01*
X172265Y324526D01*
X172333Y324595D01*
X172349Y324624D01*
X172362Y324639D01*
X172374Y324670D01*
X172414Y324742D01*
X172789Y325648D01*
X174352Y327211D01*
X176395Y328057D01*
X178605Y328057D01*
X180648Y327211D01*
X181361Y326498D01*
X181435Y326445D01*
X181504Y326385D01*
X181534Y326373D01*
X181560Y326354D01*
X181647Y326327D01*
X181732Y326293D01*
X181773Y326289D01*
X181796Y326282D01*
X181828Y326283D01*
X181899Y326275D01*
X196564Y326275D01*
X198775Y324064D01*
X198775Y204561D01*
X198778Y204541D01*
X198776Y204522D01*
X198798Y204420D01*
X198814Y204318D01*
X198824Y204301D01*
X198828Y204281D01*
X198881Y204192D01*
X198930Y204101D01*
X198944Y204087D01*
X198954Y204070D01*
X199033Y204003D01*
X199108Y203931D01*
X199126Y203923D01*
X199141Y203910D01*
X199237Y203871D01*
X199331Y203828D01*
X199351Y203826D01*
X199369Y203818D01*
X199536Y203800D01*
X215312Y203800D01*
X215426Y203819D01*
X215543Y203836D01*
X215548Y203838D01*
X215554Y203839D01*
X215657Y203894D01*
X215762Y203947D01*
X215766Y203952D01*
X215772Y203955D01*
X215852Y204039D01*
X215934Y204123D01*
X215938Y204129D01*
X215941Y204133D01*
X215949Y204150D01*
X216015Y204270D01*
X216402Y205205D01*
X218975Y207778D01*
X222336Y209170D01*
X241214Y209170D01*
X244575Y207778D01*
X247148Y205205D01*
X248540Y201844D01*
X248540Y198206D01*
X247148Y194845D01*
X244575Y192272D01*
X241214Y190880D01*
X222336Y190880D01*
X218975Y192272D01*
X216402Y194845D01*
X216015Y195780D01*
X215953Y195880D01*
X215893Y195980D01*
X215889Y195984D01*
X215885Y195989D01*
X215795Y196064D01*
X215707Y196140D01*
X215701Y196142D01*
X215696Y196146D01*
X215588Y196188D01*
X215478Y196232D01*
X215471Y196233D01*
X215466Y196234D01*
X215448Y196235D01*
X215312Y196250D01*
X199536Y196250D01*
X199516Y196247D01*
X199497Y196249D01*
X199395Y196227D01*
X199293Y196211D01*
X199276Y196201D01*
X199256Y196197D01*
X199167Y196144D01*
X199076Y196095D01*
X199062Y196081D01*
X199045Y196071D01*
X198978Y195992D01*
X198906Y195917D01*
X198898Y195899D01*
X198885Y195884D01*
X198846Y195788D01*
X198803Y195694D01*
X198801Y195674D01*
X198793Y195656D01*
X198775Y195489D01*
X198775Y56899D01*
X198789Y56809D01*
X198797Y56718D01*
X198809Y56688D01*
X198814Y56656D01*
X198857Y56576D01*
X198893Y56492D01*
X198919Y56460D01*
X198930Y56439D01*
X198953Y56417D01*
X198998Y56361D01*
X199711Y55648D01*
X200557Y53605D01*
X200557Y51395D01*
X199711Y49352D01*
X198148Y47789D01*
X196105Y46943D01*
X193895Y46943D01*
X191852Y47789D01*
X190289Y49352D01*
X189443Y51395D01*
X189443Y53605D01*
X190289Y55648D01*
X191002Y56361D01*
X191055Y56435D01*
X191115Y56504D01*
X191127Y56534D01*
X191146Y56560D01*
X191173Y56647D01*
X191207Y56732D01*
X191211Y56773D01*
X191218Y56796D01*
X191217Y56828D01*
X191225Y56899D01*
X191225Y317964D01*
X191222Y317984D01*
X191224Y318003D01*
X191202Y318105D01*
X191186Y318207D01*
X191176Y318224D01*
X191172Y318244D01*
X191119Y318333D01*
X191070Y318424D01*
X191056Y318438D01*
X191046Y318455D01*
X190967Y318522D01*
X190892Y318594D01*
X190874Y318602D01*
X190859Y318615D01*
X190763Y318654D01*
X190669Y318697D01*
X190649Y318699D01*
X190631Y318707D01*
X190464Y318725D01*
X181899Y318725D01*
X181809Y318711D01*
X181718Y318703D01*
X181688Y318691D01*
X181656Y318686D01*
X181576Y318643D01*
X181492Y318607D01*
X181460Y318581D01*
X181439Y318570D01*
X181417Y318547D01*
X181361Y318502D01*
X180648Y317789D01*
X178605Y316943D01*
X176395Y316943D01*
X174352Y317789D01*
X172789Y319352D01*
X172414Y320258D01*
X172363Y320341D01*
X172317Y320426D01*
X172298Y320444D01*
X172285Y320467D01*
X172210Y320529D01*
X172139Y320596D01*
X172115Y320607D01*
X172095Y320623D01*
X172004Y320658D01*
X171916Y320699D01*
X171890Y320702D01*
X171866Y320712D01*
X171768Y320716D01*
X171672Y320726D01*
X171646Y320721D01*
X171620Y320722D01*
X171526Y320695D01*
X171431Y320674D01*
X171409Y320661D01*
X171384Y320654D01*
X171304Y320598D01*
X171220Y320548D01*
X171203Y320528D01*
X171182Y320513D01*
X171123Y320435D01*
X171060Y320361D01*
X171050Y320337D01*
X171035Y320316D01*
X171005Y320223D01*
X170968Y320133D01*
X170965Y320101D01*
X170959Y320082D01*
X170959Y320049D01*
X170950Y319966D01*
X170950Y316693D01*
X170057Y315800D01*
X153793Y315800D01*
X152900Y316693D01*
X152900Y330957D01*
X153793Y331850D01*
X157389Y331850D01*
X157409Y331853D01*
X157428Y331851D01*
X157530Y331873D01*
X157632Y331889D01*
X157649Y331899D01*
X157669Y331903D01*
X157758Y331956D01*
X157849Y332005D01*
X157863Y332019D01*
X157880Y332029D01*
X157947Y332108D01*
X158019Y332183D01*
X158027Y332201D01*
X158040Y332216D01*
X158079Y332312D01*
X158122Y332406D01*
X158124Y332426D01*
X158132Y332444D01*
X158150Y332611D01*
X158150Y351564D01*
X160251Y353665D01*
X160293Y353723D01*
X160343Y353775D01*
X160365Y353822D01*
X160395Y353864D01*
X160416Y353933D01*
X160446Y353998D01*
X160452Y354050D01*
X160467Y354100D01*
X160465Y354171D01*
X160473Y354242D01*
X160462Y354293D01*
X160461Y354345D01*
X160436Y354413D01*
X160421Y354483D01*
X160394Y354528D01*
X160377Y354576D01*
X160332Y354632D01*
X160295Y354694D01*
X160255Y354728D01*
X160223Y354768D01*
X160163Y354807D01*
X160108Y354854D01*
X160060Y354873D01*
X160016Y354901D01*
X159946Y354919D01*
X159880Y354946D01*
X159809Y354954D01*
X159777Y354962D01*
X159754Y354960D01*
X159713Y354964D01*
X150732Y354964D01*
X150661Y354953D01*
X150590Y354951D01*
X150541Y354933D01*
X150489Y354925D01*
X150426Y354891D01*
X150358Y354866D01*
X150318Y354834D01*
X150272Y354809D01*
X150223Y354758D01*
X150166Y354713D01*
X150138Y354669D01*
X150102Y354631D01*
X150072Y354566D01*
X150033Y354506D01*
X150021Y354455D01*
X149999Y354408D01*
X149991Y354337D01*
X149973Y354267D01*
X149977Y354215D01*
X149972Y354164D01*
X149987Y354093D01*
X149993Y354022D01*
X150013Y353974D01*
X150024Y353923D01*
X150061Y353862D01*
X150089Y353796D01*
X150134Y353740D01*
X150150Y353712D01*
X150168Y353697D01*
X150194Y353665D01*
X150711Y353148D01*
X151557Y351105D01*
X151557Y348895D01*
X150711Y346852D01*
X149148Y345289D01*
X147105Y344443D01*
X144895Y344443D01*
X142852Y345289D01*
X142139Y346002D01*
X142065Y346055D01*
X141996Y346115D01*
X141966Y346127D01*
X141940Y346146D01*
X141853Y346173D01*
X141768Y346207D01*
X141727Y346211D01*
X141704Y346218D01*
X141672Y346217D01*
X141601Y346225D01*
X128361Y346225D01*
X128341Y346222D01*
X128322Y346224D01*
X128220Y346202D01*
X128118Y346186D01*
X128101Y346176D01*
X128081Y346172D01*
X127992Y346119D01*
X127901Y346070D01*
X127887Y346056D01*
X127870Y346046D01*
X127803Y345967D01*
X127731Y345892D01*
X127723Y345874D01*
X127710Y345859D01*
X127671Y345763D01*
X127628Y345669D01*
X127626Y345649D01*
X127618Y345631D01*
X127600Y345464D01*
X127600Y332611D01*
X127603Y332591D01*
X127601Y332572D01*
X127623Y332470D01*
X127639Y332368D01*
X127649Y332351D01*
X127653Y332331D01*
X127706Y332242D01*
X127755Y332151D01*
X127769Y332137D01*
X127779Y332120D01*
X127858Y332053D01*
X127933Y331981D01*
X127951Y331973D01*
X127966Y331960D01*
X128062Y331921D01*
X128156Y331878D01*
X128176Y331876D01*
X128194Y331868D01*
X128361Y331850D01*
X131957Y331850D01*
X132850Y330957D01*
X132850Y316693D01*
X131957Y315800D01*
X115693Y315800D01*
X114838Y316655D01*
X114780Y316697D01*
X114728Y316747D01*
X114681Y316769D01*
X114639Y316799D01*
X114570Y316820D01*
X114505Y316850D01*
X114453Y316856D01*
X114403Y316871D01*
X114332Y316869D01*
X114261Y316877D01*
X114210Y316866D01*
X114158Y316865D01*
X114090Y316840D01*
X114020Y316825D01*
X113976Y316798D01*
X113927Y316781D01*
X113871Y316736D01*
X113809Y316699D01*
X113775Y316659D01*
X113735Y316627D01*
X113696Y316567D01*
X113649Y316512D01*
X113630Y316464D01*
X113602Y316420D01*
X113584Y316350D01*
X113557Y316284D01*
X113549Y316213D01*
X113541Y316181D01*
X113543Y316158D01*
X113539Y316117D01*
X113539Y312533D01*
X113550Y312462D01*
X113552Y312390D01*
X113570Y312341D01*
X113579Y312290D01*
X113612Y312227D01*
X113637Y312159D01*
X113669Y312119D01*
X113694Y312073D01*
X113746Y312023D01*
X113790Y311967D01*
X113834Y311939D01*
X113872Y311903D01*
X113937Y311873D01*
X113997Y311834D01*
X114048Y311822D01*
X114095Y311800D01*
X114166Y311792D01*
X114236Y311774D01*
X114288Y311778D01*
X114339Y311773D01*
X114410Y311788D01*
X114481Y311793D01*
X114529Y311814D01*
X114580Y311825D01*
X114641Y311862D01*
X114707Y311890D01*
X114763Y311935D01*
X114791Y311951D01*
X114806Y311969D01*
X114838Y311995D01*
X115693Y312850D01*
X131957Y312850D01*
X132850Y311957D01*
X132850Y297693D01*
X131957Y296800D01*
X128361Y296800D01*
X128341Y296797D01*
X128322Y296799D01*
X128220Y296777D01*
X128118Y296761D01*
X128101Y296751D01*
X128081Y296747D01*
X127992Y296694D01*
X127901Y296645D01*
X127887Y296631D01*
X127870Y296621D01*
X127803Y296542D01*
X127731Y296467D01*
X127723Y296449D01*
X127710Y296434D01*
X127671Y296338D01*
X127628Y296244D01*
X127626Y296224D01*
X127618Y296206D01*
X127600Y296039D01*
X127600Y294054D01*
X127614Y293964D01*
X127622Y293873D01*
X127634Y293843D01*
X127639Y293811D01*
X127682Y293730D01*
X127718Y293647D01*
X127744Y293614D01*
X127755Y293594D01*
X127778Y293572D01*
X127823Y293516D01*
X128809Y292530D01*
X128883Y292477D01*
X128952Y292417D01*
X128982Y292405D01*
X129008Y292386D01*
X129095Y292359D01*
X129180Y292325D01*
X129221Y292321D01*
X129243Y292314D01*
X129276Y292315D01*
X129347Y292307D01*
X131198Y292307D01*
X134307Y289198D01*
X134307Y284802D01*
X131198Y281693D01*
X126802Y281693D01*
X123693Y284802D01*
X123693Y286653D01*
X123679Y286743D01*
X123671Y286834D01*
X123659Y286864D01*
X123654Y286896D01*
X123611Y286977D01*
X123575Y287060D01*
X123549Y287093D01*
X123538Y287113D01*
X123515Y287135D01*
X123470Y287191D01*
X120050Y290611D01*
X120050Y296039D01*
X120048Y296051D01*
X120049Y296059D01*
X120048Y296066D01*
X120049Y296078D01*
X120027Y296180D01*
X120011Y296282D01*
X120001Y296299D01*
X119997Y296319D01*
X119944Y296408D01*
X119895Y296499D01*
X119881Y296513D01*
X119871Y296530D01*
X119792Y296597D01*
X119717Y296669D01*
X119699Y296677D01*
X119684Y296690D01*
X119588Y296729D01*
X119494Y296772D01*
X119474Y296774D01*
X119456Y296782D01*
X119289Y296800D01*
X115693Y296800D01*
X114838Y297655D01*
X114780Y297697D01*
X114728Y297747D01*
X114681Y297769D01*
X114639Y297799D01*
X114570Y297820D01*
X114505Y297850D01*
X114453Y297856D01*
X114403Y297871D01*
X114332Y297869D01*
X114261Y297877D01*
X114210Y297866D01*
X114158Y297865D01*
X114090Y297840D01*
X114020Y297825D01*
X113976Y297798D01*
X113927Y297781D01*
X113871Y297736D01*
X113809Y297699D01*
X113775Y297659D01*
X113735Y297627D01*
X113696Y297567D01*
X113649Y297512D01*
X113630Y297464D01*
X113602Y297420D01*
X113584Y297350D01*
X113557Y297284D01*
X113549Y297213D01*
X113541Y297181D01*
X113543Y297158D01*
X113539Y297117D01*
X113539Y20447D01*
X113542Y20427D01*
X113540Y20408D01*
X113562Y20306D01*
X113579Y20204D01*
X113588Y20187D01*
X113592Y20167D01*
X113645Y20078D01*
X113694Y19987D01*
X113708Y19973D01*
X113718Y19956D01*
X113797Y19889D01*
X113872Y19817D01*
X113890Y19809D01*
X113905Y19796D01*
X114001Y19757D01*
X114095Y19714D01*
X114115Y19712D01*
X114133Y19704D01*
X114300Y19686D01*
X148118Y19686D01*
X148189Y19697D01*
G37*
G36*
X101620Y19689D02*
X101620Y19689D01*
X101639Y19687D01*
X101741Y19709D01*
X101843Y19725D01*
X101860Y19735D01*
X101880Y19739D01*
X101969Y19792D01*
X102060Y19841D01*
X102074Y19855D01*
X102091Y19865D01*
X102158Y19944D01*
X102230Y20019D01*
X102238Y20037D01*
X102251Y20052D01*
X102290Y20148D01*
X102333Y20242D01*
X102335Y20262D01*
X102343Y20280D01*
X102361Y20447D01*
X102361Y168871D01*
X102350Y168942D01*
X102348Y169013D01*
X102330Y169062D01*
X102322Y169114D01*
X102288Y169177D01*
X102263Y169244D01*
X102231Y169285D01*
X102206Y169331D01*
X102155Y169380D01*
X102110Y169436D01*
X102066Y169464D01*
X102028Y169500D01*
X101963Y169531D01*
X101903Y169569D01*
X101852Y169582D01*
X101805Y169604D01*
X101734Y169612D01*
X101664Y169629D01*
X101612Y169625D01*
X101561Y169631D01*
X101490Y169616D01*
X101419Y169610D01*
X101371Y169590D01*
X101320Y169579D01*
X101259Y169542D01*
X101193Y169514D01*
X101137Y169469D01*
X101109Y169453D01*
X101094Y169435D01*
X101062Y169409D01*
X98525Y166872D01*
X95164Y165480D01*
X92075Y165480D01*
X92055Y165477D01*
X92036Y165479D01*
X91934Y165457D01*
X91832Y165441D01*
X91815Y165431D01*
X91795Y165427D01*
X91706Y165374D01*
X91615Y165325D01*
X91601Y165311D01*
X91584Y165301D01*
X91517Y165222D01*
X91445Y165147D01*
X91437Y165129D01*
X91424Y165114D01*
X91385Y165018D01*
X91342Y164924D01*
X91340Y164904D01*
X91332Y164886D01*
X91314Y164719D01*
X91314Y152811D01*
X91317Y152791D01*
X91315Y152772D01*
X91337Y152670D01*
X91353Y152568D01*
X91363Y152551D01*
X91367Y152531D01*
X91420Y152442D01*
X91469Y152351D01*
X91483Y152337D01*
X91493Y152320D01*
X91572Y152253D01*
X91647Y152181D01*
X91665Y152173D01*
X91680Y152160D01*
X91776Y152121D01*
X91870Y152078D01*
X91890Y152076D01*
X91908Y152068D01*
X92075Y152050D01*
X94307Y152050D01*
X95200Y151157D01*
X95200Y121893D01*
X94307Y121000D01*
X77043Y121000D01*
X76150Y121893D01*
X76150Y151157D01*
X77043Y152050D01*
X79375Y152050D01*
X79395Y152053D01*
X79414Y152051D01*
X79516Y152073D01*
X79618Y152089D01*
X79635Y152099D01*
X79655Y152103D01*
X79744Y152156D01*
X79835Y152205D01*
X79849Y152219D01*
X79866Y152229D01*
X79933Y152308D01*
X80005Y152383D01*
X80013Y152401D01*
X80026Y152416D01*
X80065Y152512D01*
X80108Y152606D01*
X80110Y152626D01*
X80118Y152644D01*
X80136Y152811D01*
X80136Y164719D01*
X80133Y164739D01*
X80135Y164758D01*
X80113Y164860D01*
X80097Y164962D01*
X80087Y164979D01*
X80083Y164999D01*
X80030Y165088D01*
X79981Y165179D01*
X79967Y165193D01*
X79957Y165210D01*
X79878Y165277D01*
X79803Y165349D01*
X79785Y165357D01*
X79770Y165370D01*
X79674Y165409D01*
X79580Y165452D01*
X79560Y165454D01*
X79542Y165462D01*
X79375Y165480D01*
X76286Y165480D01*
X72925Y166872D01*
X70352Y169445D01*
X68960Y172806D01*
X68960Y176444D01*
X70352Y179805D01*
X72925Y182378D01*
X76286Y183770D01*
X95164Y183770D01*
X98525Y182378D01*
X101062Y179841D01*
X101120Y179799D01*
X101172Y179750D01*
X101219Y179728D01*
X101261Y179697D01*
X101330Y179676D01*
X101395Y179646D01*
X101447Y179640D01*
X101497Y179625D01*
X101568Y179627D01*
X101639Y179619D01*
X101690Y179630D01*
X101742Y179631D01*
X101810Y179656D01*
X101880Y179671D01*
X101924Y179698D01*
X101973Y179716D01*
X102029Y179761D01*
X102091Y179797D01*
X102125Y179837D01*
X102165Y179870D01*
X102204Y179930D01*
X102251Y179984D01*
X102270Y180033D01*
X102298Y180076D01*
X102316Y180146D01*
X102343Y180212D01*
X102351Y180284D01*
X102359Y180315D01*
X102357Y180338D01*
X102361Y180379D01*
X102361Y194271D01*
X102350Y194342D01*
X102348Y194413D01*
X102330Y194462D01*
X102322Y194514D01*
X102288Y194577D01*
X102263Y194644D01*
X102231Y194685D01*
X102206Y194731D01*
X102155Y194780D01*
X102110Y194836D01*
X102066Y194864D01*
X102028Y194900D01*
X101963Y194931D01*
X101903Y194969D01*
X101852Y194982D01*
X101805Y195004D01*
X101734Y195012D01*
X101664Y195029D01*
X101612Y195025D01*
X101561Y195031D01*
X101490Y195016D01*
X101419Y195010D01*
X101371Y194990D01*
X101320Y194979D01*
X101259Y194942D01*
X101193Y194914D01*
X101137Y194869D01*
X101109Y194853D01*
X101094Y194835D01*
X101062Y194809D01*
X98525Y192272D01*
X95164Y190880D01*
X76286Y190880D01*
X72925Y192272D01*
X70352Y194845D01*
X68960Y198206D01*
X68960Y201844D01*
X70352Y205205D01*
X72925Y207778D01*
X76286Y209170D01*
X79375Y209170D01*
X79395Y209173D01*
X79414Y209171D01*
X79516Y209193D01*
X79618Y209209D01*
X79635Y209219D01*
X79655Y209223D01*
X79744Y209276D01*
X79835Y209325D01*
X79849Y209339D01*
X79866Y209349D01*
X79933Y209428D01*
X80005Y209503D01*
X80013Y209521D01*
X80026Y209536D01*
X80065Y209632D01*
X80108Y209726D01*
X80110Y209746D01*
X80118Y209764D01*
X80136Y209931D01*
X80136Y221839D01*
X80133Y221859D01*
X80135Y221878D01*
X80113Y221980D01*
X80097Y222082D01*
X80087Y222099D01*
X80083Y222119D01*
X80030Y222208D01*
X79981Y222299D01*
X79967Y222313D01*
X79957Y222330D01*
X79878Y222397D01*
X79803Y222469D01*
X79785Y222477D01*
X79770Y222490D01*
X79674Y222529D01*
X79580Y222572D01*
X79560Y222574D01*
X79542Y222582D01*
X79375Y222600D01*
X77043Y222600D01*
X76150Y223493D01*
X76150Y252757D01*
X77043Y253650D01*
X94307Y253650D01*
X95200Y252757D01*
X95200Y223493D01*
X94307Y222600D01*
X92075Y222600D01*
X92055Y222597D01*
X92036Y222599D01*
X91934Y222577D01*
X91832Y222561D01*
X91815Y222551D01*
X91795Y222547D01*
X91706Y222494D01*
X91615Y222445D01*
X91601Y222431D01*
X91584Y222421D01*
X91517Y222342D01*
X91445Y222267D01*
X91437Y222249D01*
X91424Y222234D01*
X91385Y222138D01*
X91342Y222044D01*
X91340Y222024D01*
X91332Y222006D01*
X91314Y221839D01*
X91314Y209931D01*
X91317Y209911D01*
X91315Y209892D01*
X91337Y209790D01*
X91353Y209688D01*
X91363Y209671D01*
X91367Y209651D01*
X91420Y209562D01*
X91469Y209471D01*
X91483Y209457D01*
X91493Y209440D01*
X91572Y209373D01*
X91647Y209301D01*
X91665Y209293D01*
X91680Y209280D01*
X91776Y209241D01*
X91870Y209198D01*
X91890Y209196D01*
X91908Y209188D01*
X92075Y209170D01*
X95164Y209170D01*
X98525Y207778D01*
X101062Y205241D01*
X101120Y205199D01*
X101172Y205150D01*
X101219Y205128D01*
X101261Y205097D01*
X101330Y205076D01*
X101395Y205046D01*
X101447Y205040D01*
X101497Y205025D01*
X101568Y205027D01*
X101639Y205019D01*
X101690Y205030D01*
X101742Y205031D01*
X101810Y205056D01*
X101880Y205071D01*
X101924Y205098D01*
X101973Y205116D01*
X102029Y205161D01*
X102091Y205197D01*
X102125Y205237D01*
X102165Y205270D01*
X102204Y205330D01*
X102251Y205384D01*
X102270Y205433D01*
X102298Y205476D01*
X102316Y205546D01*
X102343Y205612D01*
X102351Y205684D01*
X102359Y205715D01*
X102357Y205738D01*
X102361Y205779D01*
X102361Y354203D01*
X102358Y354223D01*
X102360Y354242D01*
X102338Y354344D01*
X102322Y354446D01*
X102312Y354463D01*
X102308Y354483D01*
X102255Y354572D01*
X102206Y354663D01*
X102192Y354677D01*
X102182Y354694D01*
X102103Y354761D01*
X102028Y354833D01*
X102010Y354841D01*
X101995Y354854D01*
X101899Y354893D01*
X101805Y354936D01*
X101785Y354938D01*
X101767Y354946D01*
X101600Y354964D01*
X34925Y354964D01*
X34907Y354961D01*
X34875Y354963D01*
X32985Y354839D01*
X32962Y354833D01*
X32838Y354814D01*
X29187Y353836D01*
X29173Y353830D01*
X29158Y353828D01*
X29004Y353760D01*
X25731Y351870D01*
X25719Y351860D01*
X25704Y351854D01*
X25573Y351749D01*
X22901Y349077D01*
X22891Y349064D01*
X22879Y349054D01*
X22831Y348989D01*
X22816Y348974D01*
X22811Y348962D01*
X22780Y348919D01*
X20890Y345646D01*
X20884Y345631D01*
X20875Y345619D01*
X20814Y345463D01*
X19836Y341812D01*
X19833Y341788D01*
X19811Y341665D01*
X19687Y339775D01*
X19689Y339756D01*
X19686Y339725D01*
X19686Y34925D01*
X19689Y34907D01*
X19687Y34875D01*
X19811Y32985D01*
X19817Y32962D01*
X19836Y32838D01*
X20814Y29187D01*
X20820Y29173D01*
X20822Y29158D01*
X20890Y29004D01*
X22780Y25731D01*
X22790Y25719D01*
X22796Y25704D01*
X22901Y25573D01*
X25573Y22901D01*
X25586Y22891D01*
X25596Y22879D01*
X25731Y22780D01*
X29004Y20890D01*
X29019Y20884D01*
X29031Y20875D01*
X29187Y20814D01*
X32838Y19836D01*
X32862Y19833D01*
X32985Y19811D01*
X34875Y19687D01*
X34894Y19689D01*
X34925Y19686D01*
X101600Y19686D01*
X101620Y19689D01*
G37*
%LPC*%
G36*
X31836Y190880D02*
X31836Y190880D01*
X28475Y192272D01*
X25902Y194845D01*
X24510Y198206D01*
X24510Y201844D01*
X25902Y205205D01*
X28475Y207778D01*
X31836Y209170D01*
X50714Y209170D01*
X54075Y207778D01*
X56648Y205205D01*
X58040Y201844D01*
X58040Y198206D01*
X56648Y194845D01*
X54075Y192272D01*
X50714Y190880D01*
X31836Y190880D01*
G37*
%LPD*%
%LPC*%
G36*
X31836Y165480D02*
X31836Y165480D01*
X28475Y166872D01*
X25902Y169445D01*
X24510Y172806D01*
X24510Y176444D01*
X25902Y179805D01*
X28475Y182378D01*
X31836Y183770D01*
X50714Y183770D01*
X54075Y182378D01*
X56648Y179805D01*
X58040Y176444D01*
X58040Y172806D01*
X56648Y169445D01*
X54075Y166872D01*
X50714Y165480D01*
X31836Y165480D01*
G37*
%LPD*%
%LPC*%
G36*
X166493Y61800D02*
X166493Y61800D01*
X165600Y62693D01*
X165600Y76764D01*
X165581Y76878D01*
X165564Y76995D01*
X165562Y77000D01*
X165561Y77006D01*
X165506Y77109D01*
X165453Y77214D01*
X165448Y77218D01*
X165445Y77224D01*
X165361Y77304D01*
X165277Y77386D01*
X165271Y77390D01*
X165267Y77393D01*
X165250Y77401D01*
X165130Y77467D01*
X164352Y77789D01*
X162789Y79352D01*
X161943Y81395D01*
X161943Y83605D01*
X162789Y85648D01*
X164352Y87211D01*
X166395Y88057D01*
X168605Y88057D01*
X170648Y87211D01*
X171361Y86498D01*
X171435Y86445D01*
X171504Y86385D01*
X171534Y86373D01*
X171560Y86354D01*
X171647Y86327D01*
X171732Y86293D01*
X171773Y86289D01*
X171796Y86282D01*
X171828Y86283D01*
X171899Y86275D01*
X176189Y86275D01*
X178400Y84064D01*
X178400Y78611D01*
X178403Y78591D01*
X178401Y78572D01*
X178423Y78470D01*
X178439Y78368D01*
X178449Y78351D01*
X178453Y78331D01*
X178506Y78242D01*
X178555Y78151D01*
X178569Y78137D01*
X178579Y78120D01*
X178658Y78053D01*
X178733Y77981D01*
X178751Y77973D01*
X178766Y77960D01*
X178862Y77921D01*
X178956Y77878D01*
X178976Y77876D01*
X178994Y77868D01*
X179161Y77850D01*
X182757Y77850D01*
X183650Y76957D01*
X183650Y62693D01*
X182757Y61800D01*
X166493Y61800D01*
G37*
%LPD*%
%LPC*%
G36*
X204593Y61800D02*
X204593Y61800D01*
X203700Y62693D01*
X203700Y76957D01*
X203904Y77161D01*
X203916Y77177D01*
X203932Y77189D01*
X203988Y77277D01*
X204048Y77360D01*
X204054Y77379D01*
X204065Y77396D01*
X204090Y77497D01*
X204120Y77595D01*
X204120Y77615D01*
X204125Y77635D01*
X204117Y77738D01*
X204114Y77841D01*
X204107Y77860D01*
X204105Y77880D01*
X204065Y77975D01*
X204029Y78072D01*
X204017Y78088D01*
X204009Y78106D01*
X203904Y78237D01*
X202789Y79352D01*
X201943Y81395D01*
X201943Y83605D01*
X202789Y85648D01*
X204352Y87211D01*
X206395Y88057D01*
X208605Y88057D01*
X210648Y87211D01*
X211361Y86498D01*
X211435Y86445D01*
X211504Y86385D01*
X211534Y86373D01*
X211560Y86354D01*
X211647Y86327D01*
X211732Y86293D01*
X211773Y86289D01*
X211796Y86282D01*
X211828Y86283D01*
X211899Y86275D01*
X214289Y86275D01*
X216500Y84064D01*
X216500Y78611D01*
X216503Y78591D01*
X216501Y78572D01*
X216523Y78470D01*
X216539Y78368D01*
X216549Y78351D01*
X216553Y78331D01*
X216606Y78242D01*
X216655Y78151D01*
X216669Y78137D01*
X216679Y78120D01*
X216758Y78053D01*
X216833Y77981D01*
X216851Y77973D01*
X216866Y77960D01*
X216962Y77921D01*
X217056Y77878D01*
X217076Y77876D01*
X217094Y77868D01*
X217261Y77850D01*
X220857Y77850D01*
X221750Y76957D01*
X221750Y62693D01*
X220857Y61800D01*
X204593Y61800D01*
G37*
%LPD*%
%LPC*%
G36*
X166395Y286943D02*
X166395Y286943D01*
X164352Y287789D01*
X163639Y288502D01*
X163565Y288555D01*
X163496Y288615D01*
X163466Y288627D01*
X163440Y288646D01*
X163353Y288673D01*
X163268Y288707D01*
X163227Y288711D01*
X163204Y288718D01*
X163172Y288717D01*
X163101Y288725D01*
X160361Y288725D01*
X158150Y290936D01*
X158150Y296039D01*
X158148Y296051D01*
X158149Y296059D01*
X158148Y296066D01*
X158149Y296078D01*
X158127Y296180D01*
X158111Y296282D01*
X158101Y296299D01*
X158097Y296319D01*
X158044Y296408D01*
X157995Y296499D01*
X157981Y296513D01*
X157971Y296530D01*
X157892Y296597D01*
X157817Y296669D01*
X157799Y296677D01*
X157784Y296690D01*
X157688Y296729D01*
X157594Y296772D01*
X157574Y296774D01*
X157556Y296782D01*
X157389Y296800D01*
X153793Y296800D01*
X152900Y297693D01*
X152900Y311957D01*
X153793Y312850D01*
X170057Y312850D01*
X170950Y311957D01*
X170950Y297632D01*
X170946Y297621D01*
X170935Y297604D01*
X170910Y297503D01*
X170880Y297405D01*
X170880Y297385D01*
X170875Y297365D01*
X170883Y297262D01*
X170886Y297159D01*
X170893Y297140D01*
X170895Y297120D01*
X170935Y297025D01*
X170970Y296928D01*
X170983Y296912D01*
X170991Y296894D01*
X171096Y296763D01*
X172211Y295648D01*
X173057Y293605D01*
X173057Y291395D01*
X172211Y289352D01*
X170648Y287789D01*
X168605Y286943D01*
X166395Y286943D01*
G37*
%LPD*%
%LPC*%
G36*
X49198Y239648D02*
X49198Y239648D01*
X49198Y254666D01*
X56009Y254666D01*
X56656Y254493D01*
X57235Y254158D01*
X57708Y253685D01*
X58043Y253106D01*
X58216Y252459D01*
X58216Y239648D01*
X49198Y239648D01*
G37*
%LPD*%
%LPC*%
G36*
X49198Y138048D02*
X49198Y138048D01*
X49198Y153066D01*
X56009Y153066D01*
X56656Y152893D01*
X57235Y152558D01*
X57708Y152085D01*
X58043Y151506D01*
X58216Y150859D01*
X58216Y138048D01*
X49198Y138048D01*
G37*
%LPD*%
%LPC*%
G36*
X49198Y221584D02*
X49198Y221584D01*
X49198Y236602D01*
X58216Y236602D01*
X58216Y223791D01*
X58043Y223144D01*
X57708Y222565D01*
X57235Y222092D01*
X56656Y221757D01*
X56009Y221584D01*
X49198Y221584D01*
G37*
%LPD*%
%LPC*%
G36*
X49198Y119984D02*
X49198Y119984D01*
X49198Y135002D01*
X58216Y135002D01*
X58216Y122191D01*
X58043Y121544D01*
X57708Y120965D01*
X57235Y120492D01*
X56656Y120157D01*
X56009Y119984D01*
X49198Y119984D01*
G37*
%LPD*%
%LPC*%
G36*
X37134Y239648D02*
X37134Y239648D01*
X37134Y252459D01*
X37307Y253106D01*
X37642Y253685D01*
X38115Y254158D01*
X38694Y254493D01*
X39341Y254666D01*
X46152Y254666D01*
X46152Y239648D01*
X37134Y239648D01*
G37*
%LPD*%
%LPC*%
G36*
X37134Y138048D02*
X37134Y138048D01*
X37134Y150859D01*
X37307Y151506D01*
X37642Y152085D01*
X38115Y152558D01*
X38694Y152893D01*
X39341Y153066D01*
X46152Y153066D01*
X46152Y138048D01*
X37134Y138048D01*
G37*
%LPD*%
%LPC*%
G36*
X39341Y221584D02*
X39341Y221584D01*
X38694Y221757D01*
X38115Y222092D01*
X37642Y222565D01*
X37307Y223144D01*
X37134Y223791D01*
X37134Y236602D01*
X46152Y236602D01*
X46152Y221584D01*
X39341Y221584D01*
G37*
%LPD*%
%LPC*%
G36*
X39341Y119984D02*
X39341Y119984D01*
X38694Y120157D01*
X38115Y120492D01*
X37642Y120965D01*
X37307Y121544D01*
X37134Y122191D01*
X37134Y135002D01*
X46152Y135002D01*
X46152Y119984D01*
X39341Y119984D01*
G37*
%LPD*%
%LPC*%
G36*
X233298Y176148D02*
X233298Y176148D01*
X233298Y184786D01*
X240195Y184786D01*
X241774Y184536D01*
X243295Y184041D01*
X244720Y183315D01*
X246014Y182375D01*
X247145Y181244D01*
X248085Y179950D01*
X248811Y178525D01*
X249306Y177004D01*
X249441Y176148D01*
X233298Y176148D01*
G37*
%LPD*%
%LPC*%
G36*
X214109Y176148D02*
X214109Y176148D01*
X214244Y177004D01*
X214739Y178525D01*
X215465Y179950D01*
X216405Y181244D01*
X217536Y182375D01*
X218830Y183315D01*
X220255Y184041D01*
X221776Y184536D01*
X223355Y184786D01*
X230252Y184786D01*
X230252Y176148D01*
X214109Y176148D01*
G37*
%LPD*%
%LPC*%
G36*
X233298Y164464D02*
X233298Y164464D01*
X233298Y173102D01*
X249441Y173102D01*
X249306Y172246D01*
X248811Y170725D01*
X248085Y169300D01*
X247145Y168006D01*
X246014Y166875D01*
X244720Y165935D01*
X243295Y165209D01*
X241774Y164714D01*
X240195Y164464D01*
X233298Y164464D01*
G37*
%LPD*%
%LPC*%
G36*
X223355Y164464D02*
X223355Y164464D01*
X221776Y164714D01*
X220255Y165209D01*
X218830Y165935D01*
X217536Y166875D01*
X216405Y168006D01*
X215465Y169300D01*
X214739Y170725D01*
X214244Y172246D01*
X214109Y173102D01*
X230252Y173102D01*
X230252Y164464D01*
X223355Y164464D01*
G37*
%LPD*%
%LPC*%
G36*
X231774Y174624D02*
X231774Y174624D01*
X231774Y174626D01*
X231776Y174626D01*
X231776Y174624D01*
X231774Y174624D01*
G37*
%LPD*%
%LPC*%
G36*
X47674Y238124D02*
X47674Y238124D01*
X47674Y238126D01*
X47676Y238126D01*
X47676Y238124D01*
X47674Y238124D01*
G37*
%LPD*%
%LPC*%
G36*
X47674Y136524D02*
X47674Y136524D01*
X47674Y136526D01*
X47676Y136526D01*
X47676Y136524D01*
X47674Y136524D01*
G37*
%LPD*%
D10*
X174625Y69825D03*
X174625Y50825D03*
X212725Y69825D03*
X212725Y50825D03*
X161925Y304825D03*
X161925Y323825D03*
X123825Y304825D03*
X123825Y323825D03*
D11*
X47675Y238125D03*
X85675Y238125D03*
X47675Y136525D03*
X85675Y136525D03*
D12*
X224155Y174625D02*
X239395Y174625D01*
X239395Y200025D02*
X224155Y200025D01*
X93345Y174625D02*
X78105Y174625D01*
X78105Y200025D02*
X93345Y200025D01*
X48895Y174625D02*
X33655Y174625D01*
X33655Y200025D02*
X48895Y200025D01*
D13*
X244475Y327025D03*
X130175Y98425D03*
X130175Y47625D03*
X130175Y225425D03*
X130175Y276225D03*
X244475Y276225D03*
X244475Y98425D03*
X244475Y225425D03*
X244475Y149225D03*
X244475Y47625D03*
X130175Y149225D03*
X130175Y187325D03*
X141475Y321025D03*
X177500Y322500D03*
X195000Y52500D03*
D14*
X195000Y200025D02*
X231775Y200025D01*
X195000Y200025D02*
X195000Y52500D01*
X195000Y322500D02*
X177500Y322500D01*
X195000Y322500D02*
X195000Y200025D01*
D15*
X85725Y200025D02*
X85725Y238075D01*
X85675Y238125D01*
X85725Y174625D02*
X85725Y136575D01*
X85675Y136525D01*
D13*
X79375Y327025D03*
X28575Y327025D03*
X28575Y276225D03*
X79375Y98425D03*
X79375Y276225D03*
X28575Y98425D03*
X79375Y47625D03*
X28575Y47625D03*
X28575Y225425D03*
X28575Y149225D03*
X152500Y25000D03*
D14*
X174625Y25000D01*
X174625Y50825D01*
D13*
X167500Y82500D03*
D14*
X174625Y82500D02*
X174625Y69825D01*
X174625Y82500D02*
X167500Y82500D01*
D13*
X190000Y25000D03*
D14*
X212725Y25000D01*
X212725Y50825D01*
D13*
X207500Y82500D03*
D14*
X212725Y82500D02*
X212725Y69825D01*
X212725Y82500D02*
X207500Y82500D01*
D13*
X183500Y350000D03*
D14*
X161925Y350000D02*
X161925Y323825D01*
X161925Y350000D02*
X183500Y350000D01*
D13*
X167500Y292500D03*
D14*
X161925Y292500D02*
X161925Y304825D01*
X161925Y292500D02*
X167500Y292500D01*
D13*
X146000Y350000D03*
D14*
X123825Y350000D02*
X123825Y323825D01*
X123825Y350000D02*
X146000Y350000D01*
X123825Y304825D02*
X123825Y292175D01*
X129000Y287000D01*
D16*
X129000Y287000D03*
M02*
