G04 EAGLE Gerber X2 export*
%TF.Part,Single*%
%TF.FileFunction,Other,Silk bottom*%
%TF.FilePolarity,Positive*%
%TF.GenerationSoftware,Autodesk,EAGLE,9.0.0*%
%TF.CreationDate,2018-05-03T06:09:00Z*%
G75*
%MOMM*%
%FSLAX35Y35*%
%LPD*%
%AMOC8*
5,1,8,0,0,1.08239X$1,22.5*%
G01*
%ADD10C,0.000000*%
%ADD11C,0.812800*%
%ADD12C,0.076200*%
%ADD13C,0.127000*%
%ADD14R,1.000000X4.000000*%


D10*
X349250Y3651250D02*
X2381250Y3651250D01*
X2635250Y3397250D02*
X2635250Y349250D01*
X2381250Y95250D02*
X349250Y95250D01*
X95250Y349250D02*
X95250Y3397250D01*
X95324Y3403388D01*
X95547Y3409522D01*
X95917Y3415648D01*
X96436Y3421765D01*
X97102Y3427866D01*
X97915Y3433950D01*
X98876Y3440013D01*
X99982Y3446050D01*
X101234Y3452059D01*
X102631Y3458036D01*
X104172Y3463978D01*
X105856Y3469880D01*
X107682Y3475740D01*
X109649Y3481555D01*
X111756Y3487320D01*
X114002Y3493032D01*
X116385Y3498689D01*
X118904Y3504286D01*
X121558Y3509821D01*
X124344Y3515290D01*
X127262Y3520690D01*
X130310Y3526018D01*
X133485Y3531271D01*
X136787Y3536445D01*
X140212Y3541538D01*
X143760Y3546547D01*
X147427Y3551469D01*
X151213Y3556301D01*
X155114Y3561040D01*
X159128Y3565683D01*
X163254Y3570228D01*
X167488Y3574672D01*
X171828Y3579012D01*
X176272Y3583246D01*
X180817Y3587372D01*
X185460Y3591386D01*
X190199Y3595287D01*
X195031Y3599073D01*
X199953Y3602740D01*
X204962Y3606288D01*
X210055Y3609713D01*
X215229Y3613015D01*
X220482Y3616190D01*
X225810Y3619238D01*
X231210Y3622156D01*
X236679Y3624942D01*
X242214Y3627596D01*
X247811Y3630115D01*
X253468Y3632498D01*
X259180Y3634744D01*
X264945Y3636851D01*
X270760Y3638818D01*
X276620Y3640644D01*
X282522Y3642328D01*
X288464Y3643869D01*
X294441Y3645266D01*
X300450Y3646518D01*
X306487Y3647624D01*
X312550Y3648585D01*
X318634Y3649398D01*
X324735Y3650064D01*
X330852Y3650583D01*
X336978Y3650953D01*
X343112Y3651176D01*
X349250Y3651250D01*
X2381250Y3651250D02*
X2387388Y3651176D01*
X2393522Y3650953D01*
X2399648Y3650583D01*
X2405765Y3650064D01*
X2411866Y3649398D01*
X2417950Y3648585D01*
X2424013Y3647624D01*
X2430050Y3646518D01*
X2436059Y3645266D01*
X2442036Y3643869D01*
X2447978Y3642328D01*
X2453880Y3640644D01*
X2459740Y3638818D01*
X2465555Y3636851D01*
X2471320Y3634744D01*
X2477032Y3632498D01*
X2482689Y3630115D01*
X2488286Y3627596D01*
X2493821Y3624942D01*
X2499290Y3622156D01*
X2504690Y3619238D01*
X2510018Y3616190D01*
X2515271Y3613015D01*
X2520445Y3609713D01*
X2525538Y3606288D01*
X2530547Y3602740D01*
X2535469Y3599073D01*
X2540301Y3595287D01*
X2545040Y3591386D01*
X2549683Y3587372D01*
X2554228Y3583246D01*
X2558672Y3579012D01*
X2563012Y3574672D01*
X2567246Y3570228D01*
X2571372Y3565683D01*
X2575386Y3561040D01*
X2579287Y3556301D01*
X2583073Y3551469D01*
X2586740Y3546547D01*
X2590288Y3541538D01*
X2593713Y3536445D01*
X2597015Y3531271D01*
X2600190Y3526018D01*
X2603238Y3520690D01*
X2606156Y3515290D01*
X2608942Y3509821D01*
X2611596Y3504286D01*
X2614115Y3498689D01*
X2616498Y3493032D01*
X2618744Y3487320D01*
X2620851Y3481555D01*
X2622818Y3475740D01*
X2624644Y3469880D01*
X2626328Y3463978D01*
X2627869Y3458036D01*
X2629266Y3452059D01*
X2630518Y3446050D01*
X2631624Y3440013D01*
X2632585Y3433950D01*
X2633398Y3427866D01*
X2634064Y3421765D01*
X2634583Y3415648D01*
X2634953Y3409522D01*
X2635176Y3403388D01*
X2635250Y3397250D01*
X95250Y349250D02*
X95324Y343112D01*
X95547Y336978D01*
X95917Y330852D01*
X96436Y324735D01*
X97102Y318634D01*
X97915Y312550D01*
X98876Y306487D01*
X99982Y300450D01*
X101234Y294441D01*
X102631Y288464D01*
X104172Y282522D01*
X105856Y276620D01*
X107682Y270760D01*
X109649Y264945D01*
X111756Y259180D01*
X114002Y253468D01*
X116385Y247811D01*
X118904Y242214D01*
X121558Y236679D01*
X124344Y231210D01*
X127262Y225810D01*
X130310Y220482D01*
X133485Y215229D01*
X136787Y210055D01*
X140212Y204962D01*
X143760Y199953D01*
X147427Y195031D01*
X151213Y190199D01*
X155114Y185460D01*
X159128Y180817D01*
X163254Y176272D01*
X167488Y171828D01*
X171828Y167488D01*
X176272Y163254D01*
X180817Y159128D01*
X185460Y155114D01*
X190199Y151213D01*
X195031Y147427D01*
X199953Y143760D01*
X204962Y140212D01*
X210055Y136787D01*
X215229Y133485D01*
X220482Y130310D01*
X225810Y127262D01*
X231210Y124344D01*
X236679Y121558D01*
X242214Y118904D01*
X247811Y116385D01*
X253468Y114002D01*
X259180Y111756D01*
X264945Y109649D01*
X270760Y107682D01*
X276620Y105856D01*
X282522Y104172D01*
X288464Y102631D01*
X294441Y101234D01*
X300450Y99982D01*
X306487Y98876D01*
X312550Y97915D01*
X318634Y97102D01*
X324735Y96436D01*
X330852Y95917D01*
X336978Y95547D01*
X343112Y95324D01*
X349250Y95250D01*
X2381250Y95250D02*
X2387388Y95324D01*
X2393522Y95547D01*
X2399648Y95917D01*
X2405765Y96436D01*
X2411866Y97102D01*
X2417950Y97915D01*
X2424013Y98876D01*
X2430050Y99982D01*
X2436059Y101234D01*
X2442036Y102631D01*
X2447978Y104172D01*
X2453880Y105856D01*
X2459740Y107682D01*
X2465555Y109649D01*
X2471320Y111756D01*
X2477032Y114002D01*
X2482689Y116385D01*
X2488286Y118904D01*
X2493821Y121558D01*
X2499290Y124344D01*
X2504690Y127262D01*
X2510018Y130310D01*
X2515271Y133485D01*
X2520445Y136787D01*
X2525538Y140212D01*
X2530547Y143760D01*
X2535469Y147427D01*
X2540301Y151213D01*
X2545040Y155114D01*
X2549683Y159128D01*
X2554228Y163254D01*
X2558672Y167488D01*
X2563012Y171828D01*
X2567246Y176272D01*
X2571372Y180817D01*
X2575386Y185460D01*
X2579287Y190199D01*
X2583073Y195031D01*
X2586740Y199953D01*
X2590288Y204962D01*
X2593713Y210055D01*
X2597015Y215229D01*
X2600190Y220482D01*
X2603238Y225810D01*
X2606156Y231210D01*
X2608942Y236679D01*
X2611596Y242214D01*
X2614115Y247811D01*
X2616498Y253468D01*
X2618744Y259180D01*
X2620851Y264945D01*
X2622818Y270760D01*
X2624644Y276620D01*
X2626328Y282522D01*
X2627869Y288464D01*
X2629266Y294441D01*
X2630518Y300450D01*
X2631624Y306487D01*
X2632585Y312550D01*
X2633398Y318634D01*
X2634064Y324735D01*
X2634583Y330852D01*
X2634953Y336978D01*
X2635176Y343112D01*
X2635250Y349250D01*
D11*
X1079500Y3365754D02*
X1079500Y3556000D01*
X1079500Y3203194D02*
X1079500Y3012948D01*
X1079500Y2850388D02*
X1079500Y2660142D01*
X1079500Y2497582D02*
X1079500Y2307336D01*
X1079500Y2144776D02*
X1079500Y1954530D01*
X1079500Y1791970D02*
X1079500Y1601724D01*
X1079500Y1439164D02*
X1079500Y1248918D01*
X1079500Y1086358D02*
X1079500Y896112D01*
X1079500Y733552D02*
X1079500Y543306D01*
X1079500Y380746D02*
X1079500Y190500D01*
D12*
X1700060Y242990D02*
X1700060Y263519D01*
X1700060Y242990D02*
X1700066Y242494D01*
X1700084Y241998D01*
X1700114Y241503D01*
X1700156Y241009D01*
X1700210Y240516D01*
X1700275Y240024D01*
X1700353Y239534D01*
X1700442Y239046D01*
X1700544Y238560D01*
X1700657Y238077D01*
X1700781Y237597D01*
X1700917Y237120D01*
X1701065Y236646D01*
X1701224Y236176D01*
X1701394Y235710D01*
X1701576Y235249D01*
X1701768Y234791D01*
X1701972Y234339D01*
X1702186Y233892D01*
X1702411Y233450D01*
X1702647Y233013D01*
X1702894Y232583D01*
X1703150Y232158D01*
X1703417Y231740D01*
X1703694Y231328D01*
X1703981Y230923D01*
X1704277Y230526D01*
X1704583Y230135D01*
X1704898Y229752D01*
X1705223Y229377D01*
X1705556Y229009D01*
X1705898Y228650D01*
X1706249Y228299D01*
X1706608Y227957D01*
X1706976Y227624D01*
X1707351Y227299D01*
X1707734Y226984D01*
X1708125Y226678D01*
X1708522Y226382D01*
X1708927Y226095D01*
X1709339Y225818D01*
X1709757Y225551D01*
X1710182Y225295D01*
X1710612Y225048D01*
X1711049Y224812D01*
X1711491Y224587D01*
X1711938Y224373D01*
X1712390Y224169D01*
X1712848Y223977D01*
X1713309Y223795D01*
X1713775Y223625D01*
X1714245Y223466D01*
X1714719Y223318D01*
X1715196Y223182D01*
X1715676Y223058D01*
X1716159Y222945D01*
X1716645Y222843D01*
X1717133Y222754D01*
X1717623Y222676D01*
X1718115Y222611D01*
X1718608Y222557D01*
X1719102Y222515D01*
X1719597Y222485D01*
X1720093Y222467D01*
X1720589Y222461D01*
X1720589Y222462D02*
X1771911Y222462D01*
X1772415Y222468D01*
X1772918Y222487D01*
X1773421Y222518D01*
X1773923Y222561D01*
X1774424Y222616D01*
X1774923Y222684D01*
X1775421Y222764D01*
X1775916Y222856D01*
X1776409Y222961D01*
X1776899Y223077D01*
X1777386Y223206D01*
X1777870Y223346D01*
X1778351Y223498D01*
X1778827Y223662D01*
X1779299Y223838D01*
X1779767Y224025D01*
X1780230Y224223D01*
X1780688Y224433D01*
X1781141Y224654D01*
X1781588Y224886D01*
X1782030Y225129D01*
X1782465Y225383D01*
X1782894Y225647D01*
X1783316Y225922D01*
X1783732Y226207D01*
X1784140Y226502D01*
X1784541Y226807D01*
X1784934Y227122D01*
X1785320Y227446D01*
X1785697Y227780D01*
X1786066Y228123D01*
X1786427Y228475D01*
X1786779Y228835D01*
X1787122Y229204D01*
X1787456Y229582D01*
X1787780Y229967D01*
X1788095Y230361D01*
X1788400Y230762D01*
X1788695Y231170D01*
X1788980Y231586D01*
X1789255Y232008D01*
X1789519Y232437D01*
X1789773Y232872D01*
X1790016Y233314D01*
X1790248Y233761D01*
X1790469Y234214D01*
X1790679Y234672D01*
X1790877Y235135D01*
X1791064Y235602D01*
X1791240Y236075D01*
X1791404Y236551D01*
X1791556Y237032D01*
X1791696Y237515D01*
X1791825Y238003D01*
X1791941Y238493D01*
X1792045Y238986D01*
X1792138Y239481D01*
X1792218Y239978D01*
X1792286Y240478D01*
X1792341Y240979D01*
X1792384Y241480D01*
X1792415Y241983D01*
X1792434Y242487D01*
X1792440Y242991D01*
X1792440Y242990D02*
X1792440Y263519D01*
X1771911Y297716D02*
X1792440Y323377D01*
X1700060Y323377D01*
X1700060Y297716D02*
X1700060Y349038D01*
X2081060Y263519D02*
X2081060Y242990D01*
X2081066Y242494D01*
X2081084Y241998D01*
X2081114Y241503D01*
X2081156Y241009D01*
X2081210Y240516D01*
X2081275Y240024D01*
X2081353Y239534D01*
X2081442Y239046D01*
X2081544Y238560D01*
X2081657Y238077D01*
X2081781Y237597D01*
X2081917Y237120D01*
X2082065Y236646D01*
X2082224Y236176D01*
X2082394Y235710D01*
X2082576Y235249D01*
X2082768Y234791D01*
X2082972Y234339D01*
X2083186Y233892D01*
X2083411Y233450D01*
X2083647Y233013D01*
X2083894Y232583D01*
X2084150Y232158D01*
X2084417Y231740D01*
X2084694Y231328D01*
X2084981Y230923D01*
X2085277Y230526D01*
X2085583Y230135D01*
X2085898Y229752D01*
X2086223Y229377D01*
X2086556Y229009D01*
X2086898Y228650D01*
X2087249Y228299D01*
X2087608Y227957D01*
X2087976Y227624D01*
X2088351Y227299D01*
X2088734Y226984D01*
X2089125Y226678D01*
X2089522Y226382D01*
X2089927Y226095D01*
X2090339Y225818D01*
X2090757Y225551D01*
X2091182Y225295D01*
X2091612Y225048D01*
X2092049Y224812D01*
X2092491Y224587D01*
X2092938Y224373D01*
X2093390Y224169D01*
X2093848Y223977D01*
X2094309Y223795D01*
X2094775Y223625D01*
X2095245Y223466D01*
X2095719Y223318D01*
X2096196Y223182D01*
X2096676Y223058D01*
X2097159Y222945D01*
X2097645Y222843D01*
X2098133Y222754D01*
X2098623Y222676D01*
X2099115Y222611D01*
X2099608Y222557D01*
X2100102Y222515D01*
X2100597Y222485D01*
X2101093Y222467D01*
X2101589Y222461D01*
X2101589Y222462D02*
X2152911Y222462D01*
X2153415Y222468D01*
X2153918Y222487D01*
X2154421Y222518D01*
X2154923Y222561D01*
X2155424Y222616D01*
X2155923Y222684D01*
X2156421Y222764D01*
X2156916Y222856D01*
X2157409Y222961D01*
X2157899Y223077D01*
X2158386Y223206D01*
X2158870Y223346D01*
X2159351Y223498D01*
X2159827Y223662D01*
X2160299Y223838D01*
X2160767Y224025D01*
X2161230Y224223D01*
X2161688Y224433D01*
X2162141Y224654D01*
X2162588Y224886D01*
X2163030Y225129D01*
X2163465Y225383D01*
X2163894Y225647D01*
X2164316Y225922D01*
X2164732Y226207D01*
X2165140Y226502D01*
X2165541Y226807D01*
X2165934Y227122D01*
X2166320Y227446D01*
X2166697Y227780D01*
X2167066Y228123D01*
X2167427Y228475D01*
X2167779Y228835D01*
X2168122Y229204D01*
X2168456Y229582D01*
X2168780Y229967D01*
X2169095Y230361D01*
X2169400Y230762D01*
X2169695Y231170D01*
X2169980Y231586D01*
X2170255Y232008D01*
X2170519Y232437D01*
X2170773Y232872D01*
X2171016Y233314D01*
X2171248Y233761D01*
X2171469Y234214D01*
X2171679Y234672D01*
X2171877Y235135D01*
X2172064Y235602D01*
X2172240Y236075D01*
X2172404Y236551D01*
X2172556Y237032D01*
X2172696Y237515D01*
X2172825Y238003D01*
X2172941Y238493D01*
X2173045Y238986D01*
X2173138Y239481D01*
X2173218Y239978D01*
X2173286Y240478D01*
X2173341Y240979D01*
X2173384Y241480D01*
X2173415Y241983D01*
X2173434Y242487D01*
X2173440Y242991D01*
X2173440Y242990D02*
X2173440Y263519D01*
X2173440Y325943D02*
X2173433Y326510D01*
X2173412Y327077D01*
X2173377Y327642D01*
X2173329Y328207D01*
X2173266Y328770D01*
X2173190Y329332D01*
X2173100Y329892D01*
X2172996Y330449D01*
X2172879Y331003D01*
X2172748Y331555D01*
X2172603Y332103D01*
X2172445Y332647D01*
X2172274Y333188D01*
X2172090Y333724D01*
X2171892Y334255D01*
X2171682Y334781D01*
X2171459Y335302D01*
X2171223Y335818D01*
X2170974Y336327D01*
X2170713Y336830D01*
X2170440Y337327D01*
X2170154Y337816D01*
X2169857Y338299D01*
X2169548Y338774D01*
X2169227Y339241D01*
X2168895Y339701D01*
X2168552Y340152D01*
X2168198Y340594D01*
X2167833Y341028D01*
X2167457Y341453D01*
X2167071Y341868D01*
X2166676Y342274D01*
X2166270Y342670D01*
X2165855Y343055D01*
X2165430Y343431D01*
X2164996Y343796D01*
X2164554Y344150D01*
X2164103Y344493D01*
X2163643Y344825D01*
X2163176Y345146D01*
X2162701Y345455D01*
X2162218Y345752D01*
X2161728Y346038D01*
X2161232Y346311D01*
X2160729Y346572D01*
X2160219Y346821D01*
X2159704Y347057D01*
X2159183Y347280D01*
X2158657Y347490D01*
X2158125Y347688D01*
X2157589Y347872D01*
X2157049Y348044D01*
X2156505Y348201D01*
X2155957Y348346D01*
X2155405Y348477D01*
X2154851Y348594D01*
X2154293Y348698D01*
X2153734Y348788D01*
X2153172Y348864D01*
X2152609Y348927D01*
X2152044Y348975D01*
X2151478Y349010D01*
X2150912Y349031D01*
X2150345Y349038D01*
X2173440Y325943D02*
X2173431Y325226D01*
X2173405Y324509D01*
X2173362Y323792D01*
X2173301Y323078D01*
X2173223Y322364D01*
X2173128Y321653D01*
X2173016Y320944D01*
X2172886Y320239D01*
X2172740Y319536D01*
X2172577Y318837D01*
X2172396Y318143D01*
X2172199Y317453D01*
X2171986Y316768D01*
X2171756Y316088D01*
X2171509Y315414D01*
X2171246Y314747D01*
X2170968Y314085D01*
X2170673Y313431D01*
X2170362Y312784D01*
X2170036Y312145D01*
X2169695Y311514D01*
X2169339Y310891D01*
X2168967Y310277D01*
X2168581Y309673D01*
X2168180Y309077D01*
X2167765Y308492D01*
X2167336Y307917D01*
X2166893Y307352D01*
X2166437Y306798D01*
X2165967Y306256D01*
X2165485Y305725D01*
X2164990Y305206D01*
X2164482Y304699D01*
X2163962Y304204D01*
X2163430Y303722D01*
X2162887Y303253D01*
X2162333Y302797D01*
X2161768Y302355D01*
X2161192Y301927D01*
X2160606Y301513D01*
X2160011Y301113D01*
X2159405Y300727D01*
X2158791Y300356D01*
X2158168Y300001D01*
X2157536Y299660D01*
X2156897Y299335D01*
X2156249Y299025D01*
X2155595Y298731D01*
X2154933Y298453D01*
X2154265Y298191D01*
X2153591Y297946D01*
X2152911Y297716D01*
X2132382Y341340D02*
X2132808Y341775D01*
X2133243Y342200D01*
X2133689Y342614D01*
X2134145Y343018D01*
X2134611Y343409D01*
X2135086Y343790D01*
X2135571Y344158D01*
X2136064Y344515D01*
X2136566Y344859D01*
X2137076Y345191D01*
X2137595Y345510D01*
X2138121Y345817D01*
X2138654Y346110D01*
X2139194Y346390D01*
X2139741Y346657D01*
X2140295Y346911D01*
X2140854Y347150D01*
X2141419Y347376D01*
X2141990Y347589D01*
X2142565Y347786D01*
X2143146Y347970D01*
X2143730Y348140D01*
X2144319Y348295D01*
X2144911Y348436D01*
X2145507Y348562D01*
X2146105Y348673D01*
X2146706Y348770D01*
X2147309Y348852D01*
X2147914Y348919D01*
X2148521Y348971D01*
X2149128Y349008D01*
X2149736Y349031D01*
X2150345Y349038D01*
X2132382Y341340D02*
X2081060Y297716D01*
X2081060Y349038D01*
X1573060Y3417990D02*
X1573060Y3438519D01*
X1573060Y3417990D02*
X1573066Y3417494D01*
X1573084Y3416998D01*
X1573114Y3416503D01*
X1573156Y3416009D01*
X1573210Y3415516D01*
X1573275Y3415024D01*
X1573353Y3414534D01*
X1573442Y3414046D01*
X1573544Y3413560D01*
X1573657Y3413077D01*
X1573781Y3412597D01*
X1573917Y3412120D01*
X1574065Y3411646D01*
X1574224Y3411176D01*
X1574394Y3410710D01*
X1574576Y3410249D01*
X1574768Y3409791D01*
X1574972Y3409339D01*
X1575186Y3408892D01*
X1575411Y3408450D01*
X1575647Y3408013D01*
X1575894Y3407583D01*
X1576150Y3407158D01*
X1576417Y3406740D01*
X1576694Y3406328D01*
X1576981Y3405923D01*
X1577277Y3405526D01*
X1577583Y3405135D01*
X1577898Y3404752D01*
X1578223Y3404377D01*
X1578556Y3404009D01*
X1578898Y3403650D01*
X1579249Y3403299D01*
X1579608Y3402957D01*
X1579976Y3402624D01*
X1580351Y3402299D01*
X1580734Y3401984D01*
X1581125Y3401678D01*
X1581522Y3401382D01*
X1581927Y3401095D01*
X1582339Y3400818D01*
X1582757Y3400551D01*
X1583182Y3400295D01*
X1583612Y3400048D01*
X1584049Y3399812D01*
X1584491Y3399587D01*
X1584938Y3399373D01*
X1585390Y3399169D01*
X1585848Y3398977D01*
X1586309Y3398795D01*
X1586775Y3398625D01*
X1587245Y3398466D01*
X1587719Y3398318D01*
X1588196Y3398182D01*
X1588676Y3398058D01*
X1589159Y3397945D01*
X1589645Y3397843D01*
X1590133Y3397754D01*
X1590623Y3397676D01*
X1591115Y3397611D01*
X1591608Y3397557D01*
X1592102Y3397515D01*
X1592597Y3397485D01*
X1593093Y3397467D01*
X1593589Y3397461D01*
X1593589Y3397462D02*
X1644911Y3397462D01*
X1645415Y3397468D01*
X1645918Y3397487D01*
X1646421Y3397518D01*
X1646923Y3397561D01*
X1647424Y3397616D01*
X1647923Y3397684D01*
X1648421Y3397764D01*
X1648916Y3397856D01*
X1649409Y3397961D01*
X1649899Y3398077D01*
X1650386Y3398206D01*
X1650870Y3398346D01*
X1651351Y3398498D01*
X1651827Y3398662D01*
X1652299Y3398838D01*
X1652767Y3399025D01*
X1653230Y3399223D01*
X1653688Y3399433D01*
X1654141Y3399654D01*
X1654588Y3399886D01*
X1655030Y3400129D01*
X1655465Y3400383D01*
X1655894Y3400647D01*
X1656316Y3400922D01*
X1656732Y3401207D01*
X1657140Y3401502D01*
X1657541Y3401807D01*
X1657934Y3402122D01*
X1658320Y3402446D01*
X1658697Y3402780D01*
X1659066Y3403123D01*
X1659427Y3403475D01*
X1659779Y3403835D01*
X1660122Y3404204D01*
X1660456Y3404582D01*
X1660780Y3404967D01*
X1661095Y3405361D01*
X1661400Y3405762D01*
X1661695Y3406170D01*
X1661980Y3406586D01*
X1662255Y3407008D01*
X1662519Y3407437D01*
X1662773Y3407872D01*
X1663016Y3408314D01*
X1663248Y3408761D01*
X1663469Y3409214D01*
X1663679Y3409672D01*
X1663877Y3410135D01*
X1664064Y3410602D01*
X1664240Y3411075D01*
X1664404Y3411551D01*
X1664556Y3412032D01*
X1664696Y3412515D01*
X1664825Y3413003D01*
X1664941Y3413493D01*
X1665045Y3413986D01*
X1665138Y3414481D01*
X1665218Y3414978D01*
X1665286Y3415478D01*
X1665341Y3415979D01*
X1665384Y3416480D01*
X1665415Y3416983D01*
X1665434Y3417487D01*
X1665440Y3417991D01*
X1665440Y3417990D02*
X1665440Y3438519D01*
X1573060Y3472716D02*
X1573060Y3498377D01*
X1573068Y3499002D01*
X1573090Y3499626D01*
X1573128Y3500250D01*
X1573182Y3500873D01*
X1573250Y3501494D01*
X1573333Y3502113D01*
X1573432Y3502730D01*
X1573545Y3503345D01*
X1573674Y3503956D01*
X1573817Y3504565D01*
X1573975Y3505169D01*
X1574148Y3505770D01*
X1574335Y3506366D01*
X1574537Y3506958D01*
X1574753Y3507544D01*
X1574984Y3508125D01*
X1575228Y3508700D01*
X1575486Y3509269D01*
X1575758Y3509832D01*
X1576044Y3510387D01*
X1576343Y3510936D01*
X1576656Y3511477D01*
X1576981Y3512011D01*
X1577320Y3512536D01*
X1577671Y3513053D01*
X1578035Y3513561D01*
X1578410Y3514060D01*
X1578798Y3514550D01*
X1579198Y3515031D01*
X1579609Y3515501D01*
X1580032Y3515961D01*
X1580466Y3516411D01*
X1580910Y3516850D01*
X1581365Y3517279D01*
X1581831Y3517696D01*
X1582306Y3518101D01*
X1582792Y3518495D01*
X1583286Y3518877D01*
X1583790Y3519247D01*
X1584303Y3519604D01*
X1584824Y3519949D01*
X1585353Y3520281D01*
X1585891Y3520600D01*
X1586435Y3520906D01*
X1586988Y3521198D01*
X1587547Y3521477D01*
X1588113Y3521743D01*
X1588685Y3521994D01*
X1589263Y3522231D01*
X1589847Y3522455D01*
X1590436Y3522664D01*
X1591029Y3522858D01*
X1591628Y3523038D01*
X1592230Y3523204D01*
X1592837Y3523354D01*
X1593447Y3523490D01*
X1594060Y3523611D01*
X1594676Y3523717D01*
X1595294Y3523808D01*
X1595914Y3523884D01*
X1596536Y3523945D01*
X1597160Y3523990D01*
X1597784Y3524021D01*
X1598409Y3524036D01*
X1599033Y3524036D01*
X1599658Y3524021D01*
X1600282Y3523990D01*
X1600906Y3523945D01*
X1601528Y3523884D01*
X1602148Y3523808D01*
X1602766Y3523717D01*
X1603382Y3523611D01*
X1603995Y3523490D01*
X1604605Y3523354D01*
X1605212Y3523204D01*
X1605814Y3523038D01*
X1606413Y3522858D01*
X1607006Y3522664D01*
X1607595Y3522455D01*
X1608179Y3522231D01*
X1608757Y3521994D01*
X1609329Y3521743D01*
X1609895Y3521477D01*
X1610454Y3521198D01*
X1611007Y3520906D01*
X1611552Y3520600D01*
X1612089Y3520281D01*
X1612618Y3519949D01*
X1613139Y3519604D01*
X1613652Y3519247D01*
X1614156Y3518877D01*
X1614650Y3518495D01*
X1615136Y3518101D01*
X1615611Y3517696D01*
X1616077Y3517279D01*
X1616532Y3516850D01*
X1616976Y3516411D01*
X1617410Y3515961D01*
X1617833Y3515501D01*
X1618244Y3515031D01*
X1618644Y3514550D01*
X1619032Y3514060D01*
X1619407Y3513561D01*
X1619771Y3513053D01*
X1620122Y3512536D01*
X1620461Y3512011D01*
X1620786Y3511477D01*
X1621099Y3510936D01*
X1621398Y3510387D01*
X1621684Y3509832D01*
X1621956Y3509269D01*
X1622214Y3508700D01*
X1622458Y3508125D01*
X1622689Y3507544D01*
X1622905Y3506958D01*
X1623107Y3506366D01*
X1623294Y3505770D01*
X1623467Y3505169D01*
X1623625Y3504565D01*
X1623768Y3503956D01*
X1623897Y3503345D01*
X1624010Y3502730D01*
X1624109Y3502113D01*
X1624192Y3501494D01*
X1624260Y3500873D01*
X1624314Y3500250D01*
X1624352Y3499626D01*
X1624374Y3499002D01*
X1624382Y3498377D01*
X1665440Y3503509D02*
X1665440Y3472716D01*
X1665440Y3503509D02*
X1665434Y3504009D01*
X1665416Y3504509D01*
X1665385Y3505008D01*
X1665343Y3505506D01*
X1665288Y3506003D01*
X1665221Y3506498D01*
X1665142Y3506992D01*
X1665052Y3507483D01*
X1664949Y3507973D01*
X1664834Y3508459D01*
X1664708Y3508943D01*
X1664570Y3509423D01*
X1664420Y3509900D01*
X1664258Y3510374D01*
X1664085Y3510843D01*
X1663901Y3511307D01*
X1663706Y3511767D01*
X1663499Y3512223D01*
X1663281Y3512673D01*
X1663053Y3513117D01*
X1662813Y3513556D01*
X1662563Y3513989D01*
X1662303Y3514416D01*
X1662032Y3514836D01*
X1661751Y3515250D01*
X1661460Y3515656D01*
X1661160Y3516056D01*
X1660849Y3516448D01*
X1660529Y3516832D01*
X1660200Y3517208D01*
X1659862Y3517577D01*
X1659515Y3517937D01*
X1659160Y3518288D01*
X1658796Y3518630D01*
X1658423Y3518964D01*
X1658043Y3519289D01*
X1657655Y3519604D01*
X1657259Y3519909D01*
X1656856Y3520205D01*
X1656446Y3520491D01*
X1656029Y3520767D01*
X1655605Y3521032D01*
X1655176Y3521288D01*
X1654740Y3521532D01*
X1654298Y3521766D01*
X1653850Y3521989D01*
X1653398Y3522202D01*
X1652940Y3522403D01*
X1652478Y3522593D01*
X1652011Y3522771D01*
X1651539Y3522938D01*
X1651064Y3523094D01*
X1650586Y3523238D01*
X1650103Y3523370D01*
X1649618Y3523491D01*
X1649130Y3523600D01*
X1648640Y3523697D01*
X1648147Y3523781D01*
X1647653Y3523854D01*
X1647156Y3523915D01*
X1646659Y3523963D01*
X1646160Y3524000D01*
X1645661Y3524024D01*
X1645161Y3524036D01*
X1644661Y3524036D01*
X1644161Y3524024D01*
X1643662Y3524000D01*
X1643163Y3523963D01*
X1642666Y3523915D01*
X1642169Y3523854D01*
X1641675Y3523781D01*
X1641182Y3523697D01*
X1640692Y3523600D01*
X1640204Y3523491D01*
X1639719Y3523370D01*
X1639236Y3523238D01*
X1638758Y3523094D01*
X1638283Y3522938D01*
X1637811Y3522771D01*
X1637344Y3522593D01*
X1636882Y3522403D01*
X1636424Y3522202D01*
X1635972Y3521989D01*
X1635524Y3521766D01*
X1635082Y3521532D01*
X1634647Y3521288D01*
X1634217Y3521032D01*
X1633793Y3520767D01*
X1633376Y3520491D01*
X1632966Y3520205D01*
X1632563Y3519909D01*
X1632167Y3519604D01*
X1631779Y3519289D01*
X1631399Y3518964D01*
X1631026Y3518630D01*
X1630662Y3518288D01*
X1630307Y3517937D01*
X1629960Y3517577D01*
X1629622Y3517208D01*
X1629293Y3516832D01*
X1628973Y3516448D01*
X1628662Y3516056D01*
X1628362Y3515656D01*
X1628071Y3515250D01*
X1627790Y3514836D01*
X1627519Y3514416D01*
X1627259Y3513989D01*
X1627009Y3513556D01*
X1626769Y3513117D01*
X1626541Y3512673D01*
X1626323Y3512223D01*
X1626116Y3511767D01*
X1625921Y3511307D01*
X1625737Y3510843D01*
X1625564Y3510374D01*
X1625402Y3509900D01*
X1625252Y3509423D01*
X1625114Y3508943D01*
X1624988Y3508459D01*
X1624873Y3507973D01*
X1624770Y3507483D01*
X1624680Y3506992D01*
X1624601Y3506498D01*
X1624534Y3506003D01*
X1624479Y3505506D01*
X1624437Y3505008D01*
X1624406Y3504509D01*
X1624388Y3504009D01*
X1624382Y3503509D01*
X1624382Y3482981D01*
X1192060Y3438519D02*
X1192060Y3417990D01*
X1192066Y3417494D01*
X1192084Y3416998D01*
X1192114Y3416503D01*
X1192156Y3416009D01*
X1192210Y3415516D01*
X1192275Y3415024D01*
X1192353Y3414534D01*
X1192442Y3414046D01*
X1192544Y3413560D01*
X1192657Y3413077D01*
X1192781Y3412597D01*
X1192917Y3412120D01*
X1193065Y3411646D01*
X1193224Y3411176D01*
X1193394Y3410710D01*
X1193576Y3410249D01*
X1193768Y3409791D01*
X1193972Y3409339D01*
X1194186Y3408892D01*
X1194411Y3408450D01*
X1194647Y3408013D01*
X1194894Y3407583D01*
X1195150Y3407158D01*
X1195417Y3406740D01*
X1195694Y3406328D01*
X1195981Y3405923D01*
X1196277Y3405526D01*
X1196583Y3405135D01*
X1196898Y3404752D01*
X1197223Y3404377D01*
X1197556Y3404009D01*
X1197898Y3403650D01*
X1198249Y3403299D01*
X1198608Y3402957D01*
X1198976Y3402624D01*
X1199351Y3402299D01*
X1199734Y3401984D01*
X1200125Y3401678D01*
X1200522Y3401382D01*
X1200927Y3401095D01*
X1201339Y3400818D01*
X1201757Y3400551D01*
X1202182Y3400295D01*
X1202612Y3400048D01*
X1203049Y3399812D01*
X1203491Y3399587D01*
X1203938Y3399373D01*
X1204390Y3399169D01*
X1204848Y3398977D01*
X1205309Y3398795D01*
X1205775Y3398625D01*
X1206245Y3398466D01*
X1206719Y3398318D01*
X1207196Y3398182D01*
X1207676Y3398058D01*
X1208159Y3397945D01*
X1208645Y3397843D01*
X1209133Y3397754D01*
X1209623Y3397676D01*
X1210115Y3397611D01*
X1210608Y3397557D01*
X1211102Y3397515D01*
X1211597Y3397485D01*
X1212093Y3397467D01*
X1212589Y3397461D01*
X1212589Y3397462D02*
X1263911Y3397462D01*
X1264415Y3397468D01*
X1264918Y3397487D01*
X1265421Y3397518D01*
X1265923Y3397561D01*
X1266424Y3397616D01*
X1266923Y3397684D01*
X1267421Y3397764D01*
X1267916Y3397856D01*
X1268409Y3397961D01*
X1268899Y3398077D01*
X1269386Y3398206D01*
X1269870Y3398346D01*
X1270351Y3398498D01*
X1270827Y3398662D01*
X1271299Y3398838D01*
X1271767Y3399025D01*
X1272230Y3399223D01*
X1272688Y3399433D01*
X1273141Y3399654D01*
X1273588Y3399886D01*
X1274030Y3400129D01*
X1274465Y3400383D01*
X1274894Y3400647D01*
X1275316Y3400922D01*
X1275732Y3401207D01*
X1276140Y3401502D01*
X1276541Y3401807D01*
X1276934Y3402122D01*
X1277320Y3402446D01*
X1277697Y3402780D01*
X1278066Y3403123D01*
X1278427Y3403475D01*
X1278779Y3403835D01*
X1279122Y3404204D01*
X1279456Y3404582D01*
X1279780Y3404967D01*
X1280095Y3405361D01*
X1280400Y3405762D01*
X1280695Y3406170D01*
X1280980Y3406586D01*
X1281255Y3407008D01*
X1281519Y3407437D01*
X1281773Y3407872D01*
X1282016Y3408314D01*
X1282248Y3408761D01*
X1282469Y3409214D01*
X1282679Y3409672D01*
X1282877Y3410135D01*
X1283064Y3410602D01*
X1283240Y3411075D01*
X1283404Y3411551D01*
X1283556Y3412032D01*
X1283696Y3412515D01*
X1283825Y3413003D01*
X1283941Y3413493D01*
X1284045Y3413986D01*
X1284138Y3414481D01*
X1284218Y3414978D01*
X1284286Y3415478D01*
X1284341Y3415979D01*
X1284384Y3416480D01*
X1284415Y3416983D01*
X1284434Y3417487D01*
X1284440Y3417991D01*
X1284440Y3417990D02*
X1284440Y3438519D01*
X1284440Y3493245D02*
X1212589Y3472716D01*
X1212589Y3524038D01*
X1233118Y3508642D02*
X1192060Y3508642D01*
D13*
X966750Y2181250D02*
X366750Y2181250D01*
X366750Y2581250D01*
X966750Y2581250D01*
X966750Y2181250D01*
D14*
X616750Y2381250D03*
D12*
X331940Y2309089D02*
X239560Y2309089D01*
X331940Y2309089D02*
X331940Y2334750D01*
X331933Y2335370D01*
X331910Y2335990D01*
X331873Y2336609D01*
X331820Y2337227D01*
X331753Y2337843D01*
X331671Y2338458D01*
X331574Y2339070D01*
X331462Y2339680D01*
X331335Y2340287D01*
X331194Y2340891D01*
X331039Y2341491D01*
X330869Y2342088D01*
X330684Y2342680D01*
X330485Y2343267D01*
X330272Y2343850D01*
X330046Y2344427D01*
X329805Y2344998D01*
X329550Y2345564D01*
X329282Y2346123D01*
X329001Y2346675D01*
X328706Y2347221D01*
X328398Y2347759D01*
X328077Y2348290D01*
X327744Y2348813D01*
X327398Y2349327D01*
X327039Y2349833D01*
X326669Y2350330D01*
X326286Y2350819D01*
X325892Y2351297D01*
X325487Y2351766D01*
X325070Y2352226D01*
X324642Y2352675D01*
X324204Y2353113D01*
X323755Y2353541D01*
X323295Y2353958D01*
X322826Y2354363D01*
X322348Y2354757D01*
X321859Y2355140D01*
X321362Y2355510D01*
X320856Y2355869D01*
X320342Y2356215D01*
X319819Y2356548D01*
X319288Y2356869D01*
X318750Y2357177D01*
X318204Y2357472D01*
X317652Y2357753D01*
X317093Y2358021D01*
X316527Y2358276D01*
X315956Y2358517D01*
X315379Y2358743D01*
X314796Y2358956D01*
X314209Y2359155D01*
X313617Y2359340D01*
X313020Y2359510D01*
X312420Y2359665D01*
X311816Y2359806D01*
X311209Y2359933D01*
X310599Y2360045D01*
X309987Y2360142D01*
X309372Y2360224D01*
X308756Y2360291D01*
X308138Y2360344D01*
X307519Y2360381D01*
X306899Y2360404D01*
X306279Y2360411D01*
X265221Y2360411D01*
X264601Y2360404D01*
X263981Y2360381D01*
X263362Y2360344D01*
X262744Y2360291D01*
X262128Y2360224D01*
X261513Y2360142D01*
X260901Y2360045D01*
X260291Y2359933D01*
X259684Y2359806D01*
X259080Y2359665D01*
X258480Y2359510D01*
X257883Y2359340D01*
X257291Y2359155D01*
X256704Y2358956D01*
X256121Y2358743D01*
X255544Y2358517D01*
X254973Y2358276D01*
X254407Y2358021D01*
X253848Y2357753D01*
X253296Y2357472D01*
X252750Y2357177D01*
X252212Y2356869D01*
X251681Y2356548D01*
X251158Y2356215D01*
X250644Y2355869D01*
X250138Y2355510D01*
X249641Y2355140D01*
X249152Y2354757D01*
X248674Y2354363D01*
X248205Y2353958D01*
X247745Y2353541D01*
X247296Y2353113D01*
X246858Y2352675D01*
X246430Y2352226D01*
X246013Y2351766D01*
X245608Y2351297D01*
X245214Y2350819D01*
X244831Y2350330D01*
X244461Y2349833D01*
X244102Y2349327D01*
X243756Y2348813D01*
X243423Y2348290D01*
X243102Y2347759D01*
X242794Y2347221D01*
X242499Y2346675D01*
X242218Y2346123D01*
X241950Y2345564D01*
X241695Y2344998D01*
X241454Y2344427D01*
X241228Y2343850D01*
X241015Y2343267D01*
X240816Y2342680D01*
X240631Y2342088D01*
X240461Y2341491D01*
X240306Y2340891D01*
X240165Y2340287D01*
X240038Y2339680D01*
X239926Y2339070D01*
X239829Y2338458D01*
X239747Y2337843D01*
X239680Y2337227D01*
X239627Y2336609D01*
X239590Y2335990D01*
X239567Y2335370D01*
X239560Y2334750D01*
X239560Y2309089D01*
X311411Y2402089D02*
X331940Y2427750D01*
X239560Y2427750D01*
X239560Y2402089D02*
X239560Y2453411D01*
D13*
X366750Y1165250D02*
X966750Y1165250D01*
X366750Y1165250D02*
X366750Y1565250D01*
X966750Y1565250D01*
X966750Y1165250D01*
D14*
X616750Y1365250D03*
D12*
X331940Y1293089D02*
X239560Y1293089D01*
X331940Y1293089D02*
X331940Y1318750D01*
X331933Y1319370D01*
X331910Y1319990D01*
X331873Y1320609D01*
X331820Y1321227D01*
X331753Y1321843D01*
X331671Y1322458D01*
X331574Y1323070D01*
X331462Y1323680D01*
X331335Y1324287D01*
X331194Y1324891D01*
X331039Y1325491D01*
X330869Y1326088D01*
X330684Y1326680D01*
X330485Y1327267D01*
X330272Y1327850D01*
X330046Y1328427D01*
X329805Y1328998D01*
X329550Y1329564D01*
X329282Y1330123D01*
X329001Y1330675D01*
X328706Y1331221D01*
X328398Y1331759D01*
X328077Y1332290D01*
X327744Y1332813D01*
X327398Y1333327D01*
X327039Y1333833D01*
X326669Y1334330D01*
X326286Y1334819D01*
X325892Y1335297D01*
X325487Y1335766D01*
X325070Y1336226D01*
X324642Y1336675D01*
X324204Y1337113D01*
X323755Y1337541D01*
X323295Y1337958D01*
X322826Y1338363D01*
X322348Y1338757D01*
X321859Y1339140D01*
X321362Y1339510D01*
X320856Y1339869D01*
X320342Y1340215D01*
X319819Y1340548D01*
X319288Y1340869D01*
X318750Y1341177D01*
X318204Y1341472D01*
X317652Y1341753D01*
X317093Y1342021D01*
X316527Y1342276D01*
X315956Y1342517D01*
X315379Y1342743D01*
X314796Y1342956D01*
X314209Y1343155D01*
X313617Y1343340D01*
X313020Y1343510D01*
X312420Y1343665D01*
X311816Y1343806D01*
X311209Y1343933D01*
X310599Y1344045D01*
X309987Y1344142D01*
X309372Y1344224D01*
X308756Y1344291D01*
X308138Y1344344D01*
X307519Y1344381D01*
X306899Y1344404D01*
X306279Y1344411D01*
X265221Y1344411D01*
X264601Y1344404D01*
X263981Y1344381D01*
X263362Y1344344D01*
X262744Y1344291D01*
X262128Y1344224D01*
X261513Y1344142D01*
X260901Y1344045D01*
X260291Y1343933D01*
X259684Y1343806D01*
X259080Y1343665D01*
X258480Y1343510D01*
X257883Y1343340D01*
X257291Y1343155D01*
X256704Y1342956D01*
X256121Y1342743D01*
X255544Y1342517D01*
X254973Y1342276D01*
X254407Y1342021D01*
X253848Y1341753D01*
X253296Y1341472D01*
X252750Y1341177D01*
X252212Y1340869D01*
X251681Y1340548D01*
X251158Y1340215D01*
X250644Y1339869D01*
X250138Y1339510D01*
X249641Y1339140D01*
X249152Y1338757D01*
X248674Y1338363D01*
X248205Y1337958D01*
X247745Y1337541D01*
X247296Y1337113D01*
X246858Y1336675D01*
X246430Y1336226D01*
X246013Y1335766D01*
X245608Y1335297D01*
X245214Y1334819D01*
X244831Y1334330D01*
X244461Y1333833D01*
X244102Y1333327D01*
X243756Y1332813D01*
X243423Y1332290D01*
X243102Y1331759D01*
X242794Y1331221D01*
X242499Y1330675D01*
X242218Y1330123D01*
X241950Y1329564D01*
X241695Y1328998D01*
X241454Y1328427D01*
X241228Y1327850D01*
X241015Y1327267D01*
X240816Y1326680D01*
X240631Y1326088D01*
X240461Y1325491D01*
X240306Y1324891D01*
X240165Y1324287D01*
X240038Y1323680D01*
X239926Y1323070D01*
X239829Y1322458D01*
X239747Y1321843D01*
X239680Y1321227D01*
X239627Y1320609D01*
X239590Y1319990D01*
X239567Y1319370D01*
X239560Y1318750D01*
X239560Y1293089D01*
X331940Y1414316D02*
X331933Y1414883D01*
X331912Y1415450D01*
X331877Y1416015D01*
X331829Y1416580D01*
X331766Y1417143D01*
X331690Y1417705D01*
X331600Y1418265D01*
X331496Y1418822D01*
X331379Y1419376D01*
X331248Y1419928D01*
X331103Y1420476D01*
X330945Y1421020D01*
X330774Y1421561D01*
X330590Y1422097D01*
X330392Y1422628D01*
X330182Y1423154D01*
X329959Y1423675D01*
X329723Y1424191D01*
X329474Y1424700D01*
X329213Y1425203D01*
X328940Y1425700D01*
X328654Y1426189D01*
X328357Y1426672D01*
X328048Y1427147D01*
X327727Y1427614D01*
X327395Y1428074D01*
X327052Y1428525D01*
X326698Y1428967D01*
X326333Y1429401D01*
X325957Y1429826D01*
X325571Y1430241D01*
X325176Y1430647D01*
X324770Y1431043D01*
X324355Y1431428D01*
X323930Y1431804D01*
X323496Y1432169D01*
X323054Y1432523D01*
X322603Y1432866D01*
X322143Y1433198D01*
X321676Y1433519D01*
X321201Y1433828D01*
X320718Y1434125D01*
X320228Y1434411D01*
X319732Y1434684D01*
X319229Y1434945D01*
X318719Y1435194D01*
X318204Y1435430D01*
X317683Y1435653D01*
X317157Y1435863D01*
X316625Y1436061D01*
X316089Y1436245D01*
X315549Y1436417D01*
X315005Y1436574D01*
X314457Y1436719D01*
X313905Y1436850D01*
X313351Y1436967D01*
X312793Y1437071D01*
X312234Y1437161D01*
X311672Y1437237D01*
X311109Y1437300D01*
X310544Y1437348D01*
X309978Y1437383D01*
X309412Y1437404D01*
X308845Y1437411D01*
X331940Y1414316D02*
X331931Y1413599D01*
X331905Y1412882D01*
X331862Y1412165D01*
X331801Y1411451D01*
X331723Y1410737D01*
X331628Y1410026D01*
X331516Y1409317D01*
X331386Y1408612D01*
X331240Y1407909D01*
X331077Y1407210D01*
X330896Y1406516D01*
X330699Y1405826D01*
X330486Y1405141D01*
X330256Y1404461D01*
X330009Y1403787D01*
X329746Y1403120D01*
X329468Y1402458D01*
X329173Y1401804D01*
X328862Y1401157D01*
X328536Y1400518D01*
X328195Y1399887D01*
X327839Y1399264D01*
X327467Y1398650D01*
X327081Y1398046D01*
X326680Y1397450D01*
X326265Y1396865D01*
X325836Y1396290D01*
X325393Y1395725D01*
X324937Y1395171D01*
X324467Y1394629D01*
X323985Y1394098D01*
X323490Y1393579D01*
X322982Y1393072D01*
X322462Y1392577D01*
X321930Y1392095D01*
X321387Y1391626D01*
X320833Y1391170D01*
X320268Y1390728D01*
X319692Y1390300D01*
X319106Y1389886D01*
X318511Y1389486D01*
X317905Y1389100D01*
X317291Y1388729D01*
X316668Y1388374D01*
X316036Y1388033D01*
X315397Y1387708D01*
X314749Y1387398D01*
X314095Y1387104D01*
X313433Y1386826D01*
X312765Y1386564D01*
X312091Y1386319D01*
X311411Y1386089D01*
X290882Y1429713D02*
X291308Y1430148D01*
X291743Y1430573D01*
X292189Y1430987D01*
X292645Y1431391D01*
X293111Y1431782D01*
X293586Y1432163D01*
X294071Y1432531D01*
X294564Y1432888D01*
X295066Y1433232D01*
X295576Y1433564D01*
X296095Y1433883D01*
X296621Y1434190D01*
X297154Y1434483D01*
X297694Y1434763D01*
X298241Y1435030D01*
X298795Y1435284D01*
X299354Y1435523D01*
X299919Y1435749D01*
X300490Y1435962D01*
X301065Y1436159D01*
X301646Y1436343D01*
X302230Y1436513D01*
X302819Y1436668D01*
X303411Y1436809D01*
X304007Y1436935D01*
X304605Y1437046D01*
X305206Y1437143D01*
X305809Y1437225D01*
X306414Y1437292D01*
X307021Y1437344D01*
X307628Y1437381D01*
X308236Y1437404D01*
X308845Y1437411D01*
X290882Y1429713D02*
X239560Y1386089D01*
X239560Y1437411D01*
M02*
