G04 EAGLE Gerber X2 export*
G75*
%MOMM*%
%FSLAX35Y35*%
%LPD*%
%AMOC8*
5,1,8,0,0,1.08239X$1,22.5*%
G01*
%ADD10C,0.000000*%
%ADD11C,0.076200*%
%ADD12C,0.812800*%
%ADD13C,0.152400*%
%ADD14C,0.127000*%
%ADD15C,0.300000*%
%ADD16C,0.100000*%


D10*
X349250Y3651250D02*
X2381250Y3651250D01*
X2635250Y3397250D02*
X2635250Y349250D01*
X2381250Y95250D02*
X349250Y95250D01*
X95250Y349250D02*
X95250Y3397250D01*
X95324Y3403388D01*
X95547Y3409522D01*
X95917Y3415648D01*
X96436Y3421765D01*
X97102Y3427866D01*
X97915Y3433950D01*
X98876Y3440013D01*
X99982Y3446050D01*
X101234Y3452059D01*
X102631Y3458036D01*
X104172Y3463978D01*
X105856Y3469880D01*
X107682Y3475740D01*
X109649Y3481555D01*
X111756Y3487320D01*
X114002Y3493032D01*
X116385Y3498689D01*
X118904Y3504286D01*
X121558Y3509821D01*
X124344Y3515290D01*
X127262Y3520690D01*
X130310Y3526018D01*
X133485Y3531271D01*
X136787Y3536445D01*
X140212Y3541538D01*
X143760Y3546547D01*
X147427Y3551469D01*
X151213Y3556301D01*
X155114Y3561040D01*
X159128Y3565683D01*
X163254Y3570228D01*
X167488Y3574672D01*
X171828Y3579012D01*
X176272Y3583246D01*
X180817Y3587372D01*
X185460Y3591386D01*
X190199Y3595287D01*
X195031Y3599073D01*
X199953Y3602740D01*
X204962Y3606288D01*
X210055Y3609713D01*
X215229Y3613015D01*
X220482Y3616190D01*
X225810Y3619238D01*
X231210Y3622156D01*
X236679Y3624942D01*
X242214Y3627596D01*
X247811Y3630115D01*
X253468Y3632498D01*
X259180Y3634744D01*
X264945Y3636851D01*
X270760Y3638818D01*
X276620Y3640644D01*
X282522Y3642328D01*
X288464Y3643869D01*
X294441Y3645266D01*
X300450Y3646518D01*
X306487Y3647624D01*
X312550Y3648585D01*
X318634Y3649398D01*
X324735Y3650064D01*
X330852Y3650583D01*
X336978Y3650953D01*
X343112Y3651176D01*
X349250Y3651250D01*
X2381250Y3651250D02*
X2387388Y3651176D01*
X2393522Y3650953D01*
X2399648Y3650583D01*
X2405765Y3650064D01*
X2411866Y3649398D01*
X2417950Y3648585D01*
X2424013Y3647624D01*
X2430050Y3646518D01*
X2436059Y3645266D01*
X2442036Y3643869D01*
X2447978Y3642328D01*
X2453880Y3640644D01*
X2459740Y3638818D01*
X2465555Y3636851D01*
X2471320Y3634744D01*
X2477032Y3632498D01*
X2482689Y3630115D01*
X2488286Y3627596D01*
X2493821Y3624942D01*
X2499290Y3622156D01*
X2504690Y3619238D01*
X2510018Y3616190D01*
X2515271Y3613015D01*
X2520445Y3609713D01*
X2525538Y3606288D01*
X2530547Y3602740D01*
X2535469Y3599073D01*
X2540301Y3595287D01*
X2545040Y3591386D01*
X2549683Y3587372D01*
X2554228Y3583246D01*
X2558672Y3579012D01*
X2563012Y3574672D01*
X2567246Y3570228D01*
X2571372Y3565683D01*
X2575386Y3561040D01*
X2579287Y3556301D01*
X2583073Y3551469D01*
X2586740Y3546547D01*
X2590288Y3541538D01*
X2593713Y3536445D01*
X2597015Y3531271D01*
X2600190Y3526018D01*
X2603238Y3520690D01*
X2606156Y3515290D01*
X2608942Y3509821D01*
X2611596Y3504286D01*
X2614115Y3498689D01*
X2616498Y3493032D01*
X2618744Y3487320D01*
X2620851Y3481555D01*
X2622818Y3475740D01*
X2624644Y3469880D01*
X2626328Y3463978D01*
X2627869Y3458036D01*
X2629266Y3452059D01*
X2630518Y3446050D01*
X2631624Y3440013D01*
X2632585Y3433950D01*
X2633398Y3427866D01*
X2634064Y3421765D01*
X2634583Y3415648D01*
X2634953Y3409522D01*
X2635176Y3403388D01*
X2635250Y3397250D01*
X95250Y349250D02*
X95324Y343112D01*
X95547Y336978D01*
X95917Y330852D01*
X96436Y324735D01*
X97102Y318634D01*
X97915Y312550D01*
X98876Y306487D01*
X99982Y300450D01*
X101234Y294441D01*
X102631Y288464D01*
X104172Y282522D01*
X105856Y276620D01*
X107682Y270760D01*
X109649Y264945D01*
X111756Y259180D01*
X114002Y253468D01*
X116385Y247811D01*
X118904Y242214D01*
X121558Y236679D01*
X124344Y231210D01*
X127262Y225810D01*
X130310Y220482D01*
X133485Y215229D01*
X136787Y210055D01*
X140212Y204962D01*
X143760Y199953D01*
X147427Y195031D01*
X151213Y190199D01*
X155114Y185460D01*
X159128Y180817D01*
X163254Y176272D01*
X167488Y171828D01*
X171828Y167488D01*
X176272Y163254D01*
X180817Y159128D01*
X185460Y155114D01*
X190199Y151213D01*
X195031Y147427D01*
X199953Y143760D01*
X204962Y140212D01*
X210055Y136787D01*
X215229Y133485D01*
X220482Y130310D01*
X225810Y127262D01*
X231210Y124344D01*
X236679Y121558D01*
X242214Y118904D01*
X247811Y116385D01*
X253468Y114002D01*
X259180Y111756D01*
X264945Y109649D01*
X270760Y107682D01*
X276620Y105856D01*
X282522Y104172D01*
X288464Y102631D01*
X294441Y101234D01*
X300450Y99982D01*
X306487Y98876D01*
X312550Y97915D01*
X318634Y97102D01*
X324735Y96436D01*
X330852Y95917D01*
X336978Y95547D01*
X343112Y95324D01*
X349250Y95250D01*
X2381250Y95250D02*
X2387388Y95324D01*
X2393522Y95547D01*
X2399648Y95917D01*
X2405765Y96436D01*
X2411866Y97102D01*
X2417950Y97915D01*
X2424013Y98876D01*
X2430050Y99982D01*
X2436059Y101234D01*
X2442036Y102631D01*
X2447978Y104172D01*
X2453880Y105856D01*
X2459740Y107682D01*
X2465555Y109649D01*
X2471320Y111756D01*
X2477032Y114002D01*
X2482689Y116385D01*
X2488286Y118904D01*
X2493821Y121558D01*
X2499290Y124344D01*
X2504690Y127262D01*
X2510018Y130310D01*
X2515271Y133485D01*
X2520445Y136787D01*
X2525538Y140212D01*
X2530547Y143760D01*
X2535469Y147427D01*
X2540301Y151213D01*
X2545040Y155114D01*
X2549683Y159128D01*
X2554228Y163254D01*
X2558672Y167488D01*
X2563012Y171828D01*
X2567246Y176272D01*
X2571372Y180817D01*
X2575386Y185460D01*
X2579287Y190199D01*
X2583073Y195031D01*
X2586740Y199953D01*
X2590288Y204962D01*
X2593713Y210055D01*
X2597015Y215229D01*
X2600190Y220482D01*
X2603238Y225810D01*
X2606156Y231210D01*
X2608942Y236679D01*
X2611596Y242214D01*
X2614115Y247811D01*
X2616498Y253468D01*
X2618744Y259180D01*
X2620851Y264945D01*
X2622818Y270760D01*
X2624644Y276620D01*
X2626328Y282522D01*
X2627869Y288464D01*
X2629266Y294441D01*
X2630518Y300450D01*
X2631624Y306487D01*
X2632585Y312550D01*
X2633398Y318634D01*
X2634064Y324735D01*
X2634583Y330852D01*
X2634953Y336978D01*
X2635176Y343112D01*
X2635250Y349250D01*
D11*
X681190Y1609090D02*
X588810Y1609090D01*
X588810Y1634751D01*
X588817Y1635371D01*
X588840Y1635991D01*
X588877Y1636610D01*
X588930Y1637228D01*
X588997Y1637844D01*
X589079Y1638459D01*
X589176Y1639071D01*
X589288Y1639681D01*
X589415Y1640288D01*
X589556Y1640892D01*
X589711Y1641492D01*
X589881Y1642089D01*
X590066Y1642681D01*
X590265Y1643268D01*
X590478Y1643851D01*
X590704Y1644428D01*
X590945Y1644999D01*
X591200Y1645565D01*
X591468Y1646124D01*
X591749Y1646676D01*
X592044Y1647222D01*
X592352Y1647760D01*
X592673Y1648291D01*
X593006Y1648814D01*
X593352Y1649328D01*
X593711Y1649834D01*
X594081Y1650331D01*
X594464Y1650820D01*
X594858Y1651298D01*
X595263Y1651767D01*
X595680Y1652227D01*
X596108Y1652676D01*
X596546Y1653114D01*
X596995Y1653542D01*
X597455Y1653959D01*
X597924Y1654364D01*
X598402Y1654758D01*
X598891Y1655141D01*
X599388Y1655511D01*
X599894Y1655870D01*
X600408Y1656216D01*
X600931Y1656549D01*
X601462Y1656870D01*
X602000Y1657178D01*
X602546Y1657473D01*
X603098Y1657754D01*
X603657Y1658022D01*
X604223Y1658277D01*
X604794Y1658518D01*
X605371Y1658744D01*
X605954Y1658957D01*
X606541Y1659156D01*
X607133Y1659341D01*
X607730Y1659511D01*
X608330Y1659666D01*
X608934Y1659807D01*
X609541Y1659934D01*
X610151Y1660046D01*
X610763Y1660143D01*
X611378Y1660225D01*
X611994Y1660292D01*
X612612Y1660345D01*
X613231Y1660382D01*
X613851Y1660405D01*
X614471Y1660412D01*
X655529Y1660412D01*
X656149Y1660405D01*
X656769Y1660382D01*
X657388Y1660345D01*
X658006Y1660292D01*
X658622Y1660225D01*
X659237Y1660143D01*
X659849Y1660046D01*
X660459Y1659934D01*
X661066Y1659807D01*
X661670Y1659666D01*
X662270Y1659511D01*
X662867Y1659341D01*
X663459Y1659156D01*
X664046Y1658957D01*
X664629Y1658744D01*
X665206Y1658518D01*
X665777Y1658277D01*
X666343Y1658022D01*
X666902Y1657754D01*
X667454Y1657473D01*
X668000Y1657178D01*
X668538Y1656870D01*
X669069Y1656549D01*
X669592Y1656216D01*
X670106Y1655870D01*
X670612Y1655511D01*
X671110Y1655141D01*
X671598Y1654758D01*
X672076Y1654364D01*
X672545Y1653958D01*
X673005Y1653542D01*
X673454Y1653114D01*
X673892Y1652675D01*
X674320Y1652226D01*
X674737Y1651767D01*
X675142Y1651298D01*
X675536Y1650819D01*
X675919Y1650331D01*
X676289Y1649834D01*
X676648Y1649328D01*
X676994Y1648813D01*
X677327Y1648291D01*
X677648Y1647760D01*
X677956Y1647222D01*
X678251Y1646676D01*
X678532Y1646124D01*
X678800Y1645564D01*
X679055Y1644999D01*
X679296Y1644427D01*
X679523Y1643850D01*
X679735Y1643268D01*
X679934Y1642680D01*
X680119Y1642088D01*
X680289Y1641492D01*
X680444Y1640892D01*
X680586Y1640288D01*
X680712Y1639681D01*
X680824Y1639071D01*
X680921Y1638458D01*
X681003Y1637844D01*
X681070Y1637227D01*
X681123Y1636609D01*
X681160Y1635990D01*
X681183Y1635371D01*
X681190Y1634751D01*
X681190Y1609090D01*
X588810Y1696957D02*
X632434Y1727750D01*
X588810Y1758544D01*
X632434Y1727750D02*
X681190Y1727750D01*
X681190Y1795089D02*
X588810Y1795089D01*
X681190Y1846411D01*
X588810Y1846411D01*
X588810Y1913750D02*
X681190Y1882957D01*
X681190Y1944543D02*
X588810Y1913750D01*
X658095Y1936845D02*
X658095Y1890655D01*
X681190Y1981956D02*
X588810Y1981956D01*
X640133Y2012749D01*
X588810Y2043543D01*
X681190Y2043543D01*
X655529Y2086088D02*
X614471Y2086088D01*
X613846Y2086096D01*
X613222Y2086118D01*
X612598Y2086156D01*
X611975Y2086210D01*
X611354Y2086278D01*
X610735Y2086361D01*
X610118Y2086460D01*
X609503Y2086573D01*
X608892Y2086702D01*
X608283Y2086845D01*
X607679Y2087003D01*
X607078Y2087176D01*
X606482Y2087363D01*
X605890Y2087565D01*
X605304Y2087781D01*
X604723Y2088012D01*
X604148Y2088256D01*
X603579Y2088514D01*
X603016Y2088786D01*
X602461Y2089072D01*
X601912Y2089371D01*
X601371Y2089684D01*
X600837Y2090009D01*
X600312Y2090348D01*
X599795Y2090699D01*
X599287Y2091063D01*
X598788Y2091438D01*
X598298Y2091826D01*
X597817Y2092226D01*
X597347Y2092637D01*
X596887Y2093060D01*
X596437Y2093494D01*
X595998Y2093938D01*
X595569Y2094393D01*
X595152Y2094859D01*
X594747Y2095334D01*
X594353Y2095820D01*
X593971Y2096314D01*
X593601Y2096818D01*
X593244Y2097331D01*
X592899Y2097852D01*
X592567Y2098381D01*
X592248Y2098919D01*
X591942Y2099463D01*
X591650Y2100016D01*
X591371Y2100575D01*
X591105Y2101141D01*
X590854Y2101713D01*
X590617Y2102291D01*
X590393Y2102875D01*
X590184Y2103464D01*
X589990Y2104057D01*
X589810Y2104656D01*
X589644Y2105258D01*
X589494Y2105865D01*
X589358Y2106475D01*
X589237Y2107088D01*
X589131Y2107704D01*
X589040Y2108322D01*
X588964Y2108942D01*
X588903Y2109564D01*
X588858Y2110188D01*
X588827Y2110812D01*
X588812Y2111437D01*
X588812Y2112061D01*
X588827Y2112686D01*
X588858Y2113310D01*
X588903Y2113934D01*
X588964Y2114556D01*
X589040Y2115176D01*
X589131Y2115794D01*
X589237Y2116410D01*
X589358Y2117023D01*
X589494Y2117633D01*
X589644Y2118240D01*
X589810Y2118842D01*
X589990Y2119441D01*
X590184Y2120034D01*
X590393Y2120623D01*
X590617Y2121207D01*
X590854Y2121785D01*
X591105Y2122357D01*
X591371Y2122923D01*
X591650Y2123482D01*
X591942Y2124035D01*
X592248Y2124580D01*
X592567Y2125117D01*
X592899Y2125646D01*
X593244Y2126167D01*
X593601Y2126680D01*
X593971Y2127184D01*
X594353Y2127678D01*
X594747Y2128164D01*
X595152Y2128639D01*
X595569Y2129105D01*
X595998Y2129560D01*
X596437Y2130004D01*
X596887Y2130438D01*
X597347Y2130861D01*
X597817Y2131272D01*
X598298Y2131672D01*
X598788Y2132060D01*
X599287Y2132435D01*
X599795Y2132799D01*
X600312Y2133150D01*
X600837Y2133489D01*
X601371Y2133814D01*
X601912Y2134127D01*
X602461Y2134426D01*
X603016Y2134712D01*
X603579Y2134984D01*
X604148Y2135242D01*
X604723Y2135486D01*
X605304Y2135717D01*
X605890Y2135933D01*
X606482Y2136135D01*
X607078Y2136322D01*
X607679Y2136495D01*
X608283Y2136653D01*
X608892Y2136796D01*
X609503Y2136925D01*
X610118Y2137038D01*
X610735Y2137137D01*
X611354Y2137220D01*
X611975Y2137288D01*
X612598Y2137342D01*
X613222Y2137380D01*
X613846Y2137402D01*
X614471Y2137410D01*
X655529Y2137410D01*
X656154Y2137402D01*
X656778Y2137380D01*
X657402Y2137342D01*
X658025Y2137288D01*
X658646Y2137220D01*
X659265Y2137137D01*
X659882Y2137038D01*
X660497Y2136925D01*
X661108Y2136796D01*
X661717Y2136653D01*
X662321Y2136495D01*
X662922Y2136322D01*
X663518Y2136135D01*
X664110Y2135933D01*
X664696Y2135717D01*
X665277Y2135486D01*
X665852Y2135242D01*
X666421Y2134984D01*
X666984Y2134712D01*
X667539Y2134426D01*
X668088Y2134127D01*
X668629Y2133814D01*
X669163Y2133489D01*
X669688Y2133150D01*
X670205Y2132799D01*
X670713Y2132435D01*
X671212Y2132060D01*
X671702Y2131672D01*
X672183Y2131272D01*
X672653Y2130861D01*
X673113Y2130438D01*
X673563Y2130004D01*
X674002Y2129560D01*
X674431Y2129105D01*
X674848Y2128639D01*
X675253Y2128164D01*
X675647Y2127678D01*
X676029Y2127184D01*
X676399Y2126680D01*
X676756Y2126167D01*
X677101Y2125646D01*
X677433Y2125117D01*
X677752Y2124580D01*
X678058Y2124035D01*
X678350Y2123482D01*
X678629Y2122923D01*
X678895Y2122357D01*
X679146Y2121785D01*
X679383Y2121207D01*
X679607Y2120623D01*
X679816Y2120034D01*
X680010Y2119441D01*
X680190Y2118842D01*
X680356Y2118240D01*
X680506Y2117633D01*
X680642Y2117023D01*
X680763Y2116410D01*
X680869Y2115794D01*
X680960Y2115176D01*
X681036Y2114556D01*
X681097Y2113934D01*
X681142Y2113310D01*
X681173Y2112686D01*
X681188Y2112061D01*
X681188Y2111437D01*
X681173Y2110812D01*
X681142Y2110188D01*
X681097Y2109564D01*
X681036Y2108942D01*
X680960Y2108322D01*
X680869Y2107704D01*
X680763Y2107088D01*
X680642Y2106475D01*
X680506Y2105865D01*
X680356Y2105258D01*
X680190Y2104656D01*
X680010Y2104057D01*
X679816Y2103464D01*
X679607Y2102875D01*
X679383Y2102291D01*
X679146Y2101713D01*
X678895Y2101141D01*
X678629Y2100575D01*
X678350Y2100016D01*
X678058Y2099463D01*
X677752Y2098919D01*
X677433Y2098381D01*
X677101Y2097852D01*
X676756Y2097331D01*
X676399Y2096818D01*
X676029Y2096314D01*
X675647Y2095820D01*
X675253Y2095334D01*
X674848Y2094859D01*
X674431Y2094393D01*
X674002Y2093938D01*
X673563Y2093494D01*
X673113Y2093060D01*
X672653Y2092637D01*
X672183Y2092226D01*
X671702Y2091826D01*
X671212Y2091438D01*
X670713Y2091063D01*
X670205Y2090699D01*
X669688Y2090348D01*
X669163Y2090009D01*
X668629Y2089684D01*
X668088Y2089371D01*
X667539Y2089072D01*
X666984Y2088786D01*
X666421Y2088514D01*
X665852Y2088256D01*
X665277Y2088012D01*
X664696Y2087781D01*
X664110Y2087565D01*
X663518Y2087363D01*
X662922Y2087176D01*
X662321Y2087003D01*
X661717Y2086845D01*
X661108Y2086702D01*
X660497Y2086573D01*
X659882Y2086460D01*
X659265Y2086361D01*
X658646Y2086278D01*
X658025Y2086210D01*
X657402Y2086156D01*
X656778Y2086118D01*
X656154Y2086096D01*
X655529Y2086088D01*
X2049310Y1733510D02*
X2141690Y1764303D01*
X2049310Y1795097D01*
X2100633Y1827775D02*
X2121161Y1827775D01*
X2100633Y1827774D02*
X2100133Y1827780D01*
X2099633Y1827798D01*
X2099134Y1827829D01*
X2098636Y1827871D01*
X2098139Y1827926D01*
X2097644Y1827993D01*
X2097150Y1828072D01*
X2096659Y1828162D01*
X2096169Y1828265D01*
X2095683Y1828380D01*
X2095199Y1828506D01*
X2094719Y1828644D01*
X2094242Y1828794D01*
X2093768Y1828956D01*
X2093299Y1829129D01*
X2092835Y1829313D01*
X2092375Y1829508D01*
X2091919Y1829715D01*
X2091469Y1829933D01*
X2091025Y1830161D01*
X2090586Y1830401D01*
X2090153Y1830651D01*
X2089726Y1830911D01*
X2089306Y1831182D01*
X2088892Y1831463D01*
X2088486Y1831754D01*
X2088086Y1832054D01*
X2087694Y1832365D01*
X2087310Y1832685D01*
X2086934Y1833014D01*
X2086565Y1833352D01*
X2086205Y1833699D01*
X2085854Y1834054D01*
X2085512Y1834418D01*
X2085178Y1834791D01*
X2084853Y1835171D01*
X2084538Y1835559D01*
X2084233Y1835955D01*
X2083937Y1836358D01*
X2083651Y1836768D01*
X2083375Y1837185D01*
X2083110Y1837609D01*
X2082854Y1838039D01*
X2082610Y1838474D01*
X2082376Y1838916D01*
X2082153Y1839364D01*
X2081940Y1839816D01*
X2081739Y1840274D01*
X2081549Y1840736D01*
X2081371Y1841203D01*
X2081204Y1841675D01*
X2081048Y1842150D01*
X2080904Y1842628D01*
X2080772Y1843111D01*
X2080651Y1843596D01*
X2080542Y1844084D01*
X2080445Y1844574D01*
X2080361Y1845067D01*
X2080288Y1845561D01*
X2080227Y1846058D01*
X2080179Y1846555D01*
X2080142Y1847054D01*
X2080118Y1847553D01*
X2080106Y1848053D01*
X2080106Y1848553D01*
X2080118Y1849053D01*
X2080142Y1849552D01*
X2080179Y1850051D01*
X2080227Y1850548D01*
X2080288Y1851045D01*
X2080361Y1851539D01*
X2080445Y1852032D01*
X2080542Y1852522D01*
X2080651Y1853010D01*
X2080772Y1853495D01*
X2080904Y1853978D01*
X2081048Y1854456D01*
X2081204Y1854931D01*
X2081371Y1855403D01*
X2081549Y1855870D01*
X2081739Y1856332D01*
X2081940Y1856790D01*
X2082153Y1857242D01*
X2082376Y1857690D01*
X2082610Y1858132D01*
X2082854Y1858568D01*
X2083110Y1858997D01*
X2083375Y1859421D01*
X2083651Y1859838D01*
X2083937Y1860248D01*
X2084233Y1860651D01*
X2084538Y1861047D01*
X2084853Y1861435D01*
X2085178Y1861815D01*
X2085512Y1862188D01*
X2085854Y1862552D01*
X2086205Y1862907D01*
X2086565Y1863254D01*
X2086934Y1863592D01*
X2087310Y1863921D01*
X2087694Y1864241D01*
X2088086Y1864552D01*
X2088486Y1864852D01*
X2088892Y1865143D01*
X2089306Y1865424D01*
X2089726Y1865695D01*
X2090153Y1865955D01*
X2090586Y1866205D01*
X2091025Y1866445D01*
X2091469Y1866673D01*
X2091919Y1866891D01*
X2092375Y1867098D01*
X2092835Y1867293D01*
X2093299Y1867477D01*
X2093768Y1867650D01*
X2094242Y1867812D01*
X2094719Y1867962D01*
X2095199Y1868100D01*
X2095683Y1868226D01*
X2096169Y1868341D01*
X2096659Y1868444D01*
X2097150Y1868534D01*
X2097644Y1868613D01*
X2098139Y1868680D01*
X2098636Y1868735D01*
X2099134Y1868777D01*
X2099633Y1868808D01*
X2100133Y1868826D01*
X2100633Y1868832D01*
X2121161Y1868832D01*
X2121661Y1868826D01*
X2122161Y1868808D01*
X2122660Y1868777D01*
X2123158Y1868735D01*
X2123655Y1868680D01*
X2124150Y1868613D01*
X2124644Y1868534D01*
X2125135Y1868444D01*
X2125625Y1868341D01*
X2126111Y1868226D01*
X2126595Y1868100D01*
X2127075Y1867962D01*
X2127552Y1867812D01*
X2128026Y1867650D01*
X2128495Y1867477D01*
X2128959Y1867293D01*
X2129419Y1867098D01*
X2129875Y1866891D01*
X2130325Y1866673D01*
X2130769Y1866445D01*
X2131208Y1866205D01*
X2131641Y1865955D01*
X2132068Y1865695D01*
X2132488Y1865424D01*
X2132902Y1865143D01*
X2133308Y1864852D01*
X2133708Y1864552D01*
X2134100Y1864241D01*
X2134484Y1863921D01*
X2134860Y1863592D01*
X2135229Y1863254D01*
X2135589Y1862907D01*
X2135940Y1862552D01*
X2136282Y1862188D01*
X2136616Y1861815D01*
X2136941Y1861435D01*
X2137256Y1861047D01*
X2137561Y1860651D01*
X2137857Y1860248D01*
X2138143Y1859838D01*
X2138419Y1859421D01*
X2138684Y1858997D01*
X2138940Y1858568D01*
X2139184Y1858132D01*
X2139418Y1857690D01*
X2139641Y1857242D01*
X2139854Y1856790D01*
X2140055Y1856332D01*
X2140245Y1855870D01*
X2140423Y1855403D01*
X2140590Y1854931D01*
X2140746Y1854456D01*
X2140890Y1853978D01*
X2141022Y1853495D01*
X2141143Y1853010D01*
X2141252Y1852522D01*
X2141349Y1852032D01*
X2141433Y1851539D01*
X2141506Y1851045D01*
X2141567Y1850548D01*
X2141615Y1850051D01*
X2141652Y1849552D01*
X2141676Y1849053D01*
X2141688Y1848553D01*
X2141688Y1848053D01*
X2141676Y1847553D01*
X2141652Y1847054D01*
X2141615Y1846555D01*
X2141567Y1846058D01*
X2141506Y1845561D01*
X2141433Y1845067D01*
X2141349Y1844574D01*
X2141252Y1844084D01*
X2141143Y1843596D01*
X2141022Y1843111D01*
X2140890Y1842628D01*
X2140746Y1842150D01*
X2140590Y1841675D01*
X2140423Y1841203D01*
X2140245Y1840736D01*
X2140055Y1840274D01*
X2139854Y1839816D01*
X2139641Y1839364D01*
X2139418Y1838916D01*
X2139184Y1838474D01*
X2138940Y1838039D01*
X2138684Y1837609D01*
X2138419Y1837185D01*
X2138143Y1836768D01*
X2137857Y1836358D01*
X2137561Y1835955D01*
X2137256Y1835559D01*
X2136941Y1835171D01*
X2136616Y1834791D01*
X2136282Y1834418D01*
X2135940Y1834054D01*
X2135589Y1833699D01*
X2135229Y1833352D01*
X2134860Y1833014D01*
X2134484Y1832685D01*
X2134100Y1832365D01*
X2133708Y1832054D01*
X2133308Y1831754D01*
X2132902Y1831463D01*
X2132488Y1831182D01*
X2132068Y1830911D01*
X2131641Y1830651D01*
X2131208Y1830401D01*
X2130769Y1830161D01*
X2130325Y1829933D01*
X2129875Y1829715D01*
X2129419Y1829508D01*
X2128959Y1829313D01*
X2128495Y1829129D01*
X2128026Y1828956D01*
X2127552Y1828794D01*
X2127075Y1828644D01*
X2126595Y1828506D01*
X2126111Y1828380D01*
X2125625Y1828265D01*
X2125135Y1828162D01*
X2124644Y1828072D01*
X2124150Y1827993D01*
X2123655Y1827926D01*
X2123158Y1827871D01*
X2122660Y1827829D01*
X2122161Y1827798D01*
X2121661Y1827780D01*
X2121161Y1827774D01*
X2126293Y1908775D02*
X2080103Y1908775D01*
X2126293Y1908775D02*
X2126665Y1908779D01*
X2127037Y1908793D01*
X2127408Y1908815D01*
X2127779Y1908847D01*
X2128149Y1908887D01*
X2128518Y1908937D01*
X2128885Y1908995D01*
X2129251Y1909062D01*
X2129615Y1909138D01*
X2129978Y1909222D01*
X2130338Y1909316D01*
X2130695Y1909418D01*
X2131051Y1909529D01*
X2131403Y1909648D01*
X2131753Y1909776D01*
X2132099Y1909912D01*
X2132442Y1910056D01*
X2132781Y1910209D01*
X2133116Y1910370D01*
X2133448Y1910539D01*
X2133775Y1910715D01*
X2134098Y1910900D01*
X2134417Y1911093D01*
X2134730Y1911293D01*
X2135039Y1911500D01*
X2135343Y1911715D01*
X2135641Y1911938D01*
X2135934Y1912167D01*
X2136221Y1912404D01*
X2136503Y1912647D01*
X2136778Y1912897D01*
X2137047Y1913154D01*
X2137310Y1913417D01*
X2137567Y1913686D01*
X2137817Y1913962D01*
X2138061Y1914243D01*
X2138297Y1914530D01*
X2138526Y1914823D01*
X2138749Y1915122D01*
X2138964Y1915425D01*
X2139171Y1915734D01*
X2139372Y1916048D01*
X2139564Y1916366D01*
X2139749Y1916689D01*
X2139926Y1917016D01*
X2140094Y1917348D01*
X2140255Y1917683D01*
X2140408Y1918023D01*
X2140552Y1918365D01*
X2140689Y1918712D01*
X2140816Y1919061D01*
X2140936Y1919414D01*
X2141046Y1919769D01*
X2141148Y1920127D01*
X2141242Y1920487D01*
X2141326Y1920849D01*
X2141402Y1921213D01*
X2141469Y1921579D01*
X2141527Y1921947D01*
X2141577Y1922316D01*
X2141617Y1922685D01*
X2141649Y1923056D01*
X2141671Y1923427D01*
X2141685Y1923799D01*
X2141689Y1924171D01*
X2141690Y1924171D02*
X2141690Y1949832D01*
X2080103Y1949832D01*
X2080103Y1982197D02*
X2080103Y2012990D01*
X2049310Y1992461D02*
X2126293Y1992461D01*
X2126665Y1992465D01*
X2127037Y1992479D01*
X2127408Y1992501D01*
X2127779Y1992533D01*
X2128149Y1992573D01*
X2128518Y1992623D01*
X2128885Y1992681D01*
X2129251Y1992748D01*
X2129615Y1992824D01*
X2129978Y1992908D01*
X2130338Y1993002D01*
X2130695Y1993104D01*
X2131051Y1993215D01*
X2131403Y1993334D01*
X2131753Y1993462D01*
X2132099Y1993598D01*
X2132442Y1993742D01*
X2132781Y1993895D01*
X2133116Y1994056D01*
X2133448Y1994225D01*
X2133775Y1994401D01*
X2134098Y1994586D01*
X2134417Y1994779D01*
X2134730Y1994979D01*
X2135039Y1995186D01*
X2135343Y1995401D01*
X2135641Y1995624D01*
X2135934Y1995853D01*
X2136221Y1996090D01*
X2136503Y1996333D01*
X2136778Y1996583D01*
X2137047Y1996840D01*
X2137310Y1997103D01*
X2137567Y1997372D01*
X2137817Y1997648D01*
X2138061Y1997929D01*
X2138297Y1998216D01*
X2138526Y1998509D01*
X2138749Y1998808D01*
X2138964Y1999111D01*
X2139171Y1999420D01*
X2139372Y1999734D01*
X2139564Y2000052D01*
X2139749Y2000375D01*
X2139926Y2000702D01*
X2140094Y2001034D01*
X2140255Y2001369D01*
X2140408Y2001709D01*
X2140552Y2002051D01*
X2140689Y2002398D01*
X2140816Y2002747D01*
X2140936Y2003100D01*
X2141046Y2003455D01*
X2141148Y2003813D01*
X2141242Y2004173D01*
X2141326Y2004535D01*
X2141402Y2004899D01*
X2141469Y2005265D01*
X2141527Y2005633D01*
X2141577Y2006002D01*
X2141617Y2006371D01*
X2141649Y2006742D01*
X2141671Y2007113D01*
X2141685Y2007485D01*
X2141689Y2007857D01*
X2141690Y2007858D02*
X2141690Y2012990D01*
X499440Y623677D02*
X407060Y623677D01*
X499440Y623677D02*
X499440Y664734D01*
X499440Y702370D02*
X407060Y702370D01*
X458383Y733163D01*
X407060Y763957D01*
X499440Y763957D01*
X417325Y806502D02*
X407060Y806502D01*
X407060Y857824D01*
X499440Y832163D01*
X478911Y896502D02*
X407060Y917031D01*
X478911Y896502D02*
X478911Y947824D01*
X458383Y932427D02*
X499440Y932427D01*
X448118Y986502D02*
X448118Y1017295D01*
X448124Y1017791D01*
X448142Y1018287D01*
X448172Y1018782D01*
X448214Y1019276D01*
X448268Y1019770D01*
X448333Y1020261D01*
X448411Y1020751D01*
X448500Y1021239D01*
X448602Y1021725D01*
X448715Y1022208D01*
X448839Y1022688D01*
X448975Y1023165D01*
X449123Y1023639D01*
X449282Y1024109D01*
X449452Y1024575D01*
X449634Y1025036D01*
X449826Y1025494D01*
X450030Y1025946D01*
X450244Y1026393D01*
X450470Y1026835D01*
X450705Y1027272D01*
X450952Y1027702D01*
X451208Y1028127D01*
X451475Y1028545D01*
X451752Y1028957D01*
X452039Y1029362D01*
X452335Y1029760D01*
X452641Y1030150D01*
X452956Y1030533D01*
X453281Y1030908D01*
X453614Y1031276D01*
X453957Y1031635D01*
X454307Y1031986D01*
X454667Y1032328D01*
X455034Y1032661D01*
X455409Y1032986D01*
X455792Y1033301D01*
X456183Y1033607D01*
X456581Y1033903D01*
X456985Y1034190D01*
X457397Y1034467D01*
X457815Y1034734D01*
X458240Y1034990D01*
X458670Y1035237D01*
X459107Y1035473D01*
X459549Y1035698D01*
X459996Y1035912D01*
X460449Y1036116D01*
X460906Y1036309D01*
X461368Y1036490D01*
X461833Y1036660D01*
X462303Y1036819D01*
X462777Y1036967D01*
X463254Y1037103D01*
X463734Y1037228D01*
X464217Y1037340D01*
X464703Y1037442D01*
X465191Y1037531D01*
X465681Y1037609D01*
X466173Y1037674D01*
X466666Y1037728D01*
X467160Y1037770D01*
X467655Y1037800D01*
X468151Y1037818D01*
X468647Y1037824D01*
X473779Y1037824D01*
X474404Y1037816D01*
X475028Y1037794D01*
X475652Y1037756D01*
X476275Y1037702D01*
X476896Y1037634D01*
X477515Y1037551D01*
X478132Y1037452D01*
X478747Y1037339D01*
X479358Y1037210D01*
X479967Y1037067D01*
X480571Y1036909D01*
X481172Y1036736D01*
X481768Y1036549D01*
X482360Y1036347D01*
X482946Y1036131D01*
X483527Y1035900D01*
X484102Y1035656D01*
X484671Y1035398D01*
X485234Y1035126D01*
X485789Y1034840D01*
X486338Y1034541D01*
X486879Y1034228D01*
X487413Y1033903D01*
X487938Y1033564D01*
X488455Y1033213D01*
X488963Y1032849D01*
X489462Y1032474D01*
X489952Y1032086D01*
X490433Y1031686D01*
X490903Y1031275D01*
X491363Y1030852D01*
X491813Y1030418D01*
X492252Y1029974D01*
X492681Y1029519D01*
X493098Y1029053D01*
X493503Y1028578D01*
X493897Y1028092D01*
X494279Y1027598D01*
X494649Y1027094D01*
X495006Y1026581D01*
X495351Y1026060D01*
X495683Y1025531D01*
X496002Y1024994D01*
X496308Y1024449D01*
X496600Y1023896D01*
X496879Y1023337D01*
X497145Y1022771D01*
X497396Y1022199D01*
X497633Y1021621D01*
X497857Y1021037D01*
X498066Y1020448D01*
X498260Y1019855D01*
X498440Y1019256D01*
X498606Y1018654D01*
X498756Y1018047D01*
X498892Y1017437D01*
X499013Y1016824D01*
X499119Y1016208D01*
X499210Y1015590D01*
X499286Y1014970D01*
X499347Y1014348D01*
X499392Y1013724D01*
X499423Y1013100D01*
X499438Y1012475D01*
X499438Y1011851D01*
X499423Y1011226D01*
X499392Y1010602D01*
X499347Y1009978D01*
X499286Y1009356D01*
X499210Y1008736D01*
X499119Y1008118D01*
X499013Y1007502D01*
X498892Y1006889D01*
X498756Y1006279D01*
X498606Y1005672D01*
X498440Y1005070D01*
X498260Y1004471D01*
X498066Y1003878D01*
X497857Y1003289D01*
X497633Y1002705D01*
X497396Y1002127D01*
X497145Y1001555D01*
X496879Y1000989D01*
X496600Y1000430D01*
X496308Y999877D01*
X496002Y999333D01*
X495683Y998795D01*
X495351Y998266D01*
X495006Y997745D01*
X494649Y997232D01*
X494279Y996728D01*
X493897Y996234D01*
X493503Y995748D01*
X493098Y995273D01*
X492681Y994807D01*
X492252Y994352D01*
X491813Y993908D01*
X491363Y993474D01*
X490903Y993051D01*
X490433Y992640D01*
X489952Y992240D01*
X489462Y991852D01*
X488963Y991477D01*
X488455Y991113D01*
X487938Y990762D01*
X487413Y990423D01*
X486879Y990098D01*
X486338Y989785D01*
X485789Y989486D01*
X485234Y989200D01*
X484671Y988928D01*
X484102Y988670D01*
X483527Y988426D01*
X482946Y988195D01*
X482360Y987979D01*
X481768Y987777D01*
X481172Y987590D01*
X480571Y987417D01*
X479967Y987259D01*
X479358Y987116D01*
X478747Y986987D01*
X478132Y986874D01*
X477515Y986775D01*
X476896Y986692D01*
X476275Y986624D01*
X475652Y986570D01*
X475028Y986532D01*
X474404Y986510D01*
X473779Y986502D01*
X448118Y986502D01*
X447110Y986514D01*
X446103Y986551D01*
X445098Y986613D01*
X444094Y986700D01*
X443092Y986811D01*
X442094Y986946D01*
X441099Y987106D01*
X440108Y987291D01*
X439122Y987500D01*
X438142Y987732D01*
X437167Y987989D01*
X436200Y988270D01*
X435239Y988574D01*
X434286Y988902D01*
X433342Y989253D01*
X432406Y989627D01*
X431480Y990024D01*
X430564Y990444D01*
X429658Y990886D01*
X428764Y991350D01*
X427881Y991836D01*
X427010Y992343D01*
X426152Y992872D01*
X425308Y993421D01*
X424477Y993991D01*
X423660Y994582D01*
X422858Y995192D01*
X422071Y995822D01*
X421300Y996470D01*
X420545Y997138D01*
X419807Y997824D01*
X419086Y998527D01*
X418382Y999249D01*
X417696Y999987D01*
X417029Y1000742D01*
X416380Y1001513D01*
X415750Y1002300D01*
X415140Y1003101D01*
X414550Y1003918D01*
X413980Y1004749D01*
X413430Y1005594D01*
X412902Y1006452D01*
X412394Y1007322D01*
X411908Y1008205D01*
X411444Y1009099D01*
X411002Y1010005D01*
X410583Y1010921D01*
X410186Y1011847D01*
X409811Y1012783D01*
X409460Y1013728D01*
X409132Y1014680D01*
X408828Y1015641D01*
X408547Y1016609D01*
X408291Y1017583D01*
X408058Y1018564D01*
X407849Y1019549D01*
X407665Y1020540D01*
X407504Y1021535D01*
X407369Y1022533D01*
X407258Y1023535D01*
X407171Y1024539D01*
X407109Y1025545D01*
X407072Y1026552D01*
X407060Y1027559D01*
X407060Y1076501D02*
X417325Y1076501D01*
X407060Y1076501D02*
X407060Y1127823D01*
X499440Y1102162D01*
X453250Y1166501D02*
X451433Y1166523D01*
X449617Y1166588D01*
X447802Y1166696D01*
X445991Y1166848D01*
X444184Y1167043D01*
X442383Y1167281D01*
X440587Y1167562D01*
X438799Y1167885D01*
X437019Y1168251D01*
X435248Y1168660D01*
X433487Y1169111D01*
X431738Y1169604D01*
X430001Y1170138D01*
X428277Y1170714D01*
X426567Y1171330D01*
X424873Y1171987D01*
X423195Y1172685D01*
X421534Y1173422D01*
X419891Y1174199D01*
X419890Y1174199D02*
X419455Y1174355D01*
X419024Y1174520D01*
X418597Y1174696D01*
X418175Y1174883D01*
X417757Y1175079D01*
X417344Y1175286D01*
X416936Y1175503D01*
X416533Y1175729D01*
X416136Y1175966D01*
X415745Y1176211D01*
X415361Y1176467D01*
X414982Y1176731D01*
X414610Y1177005D01*
X414245Y1177288D01*
X413886Y1177579D01*
X413535Y1177879D01*
X413192Y1178188D01*
X412856Y1178505D01*
X412527Y1178830D01*
X412207Y1179163D01*
X411895Y1179503D01*
X411591Y1179851D01*
X411296Y1180206D01*
X411010Y1180569D01*
X410732Y1180938D01*
X410464Y1181314D01*
X410205Y1181696D01*
X409955Y1182084D01*
X409714Y1182479D01*
X409484Y1182879D01*
X409263Y1183285D01*
X409052Y1183695D01*
X408851Y1184111D01*
X408660Y1184532D01*
X408480Y1184957D01*
X408310Y1185387D01*
X408150Y1185820D01*
X408001Y1186257D01*
X407863Y1186698D01*
X407736Y1187142D01*
X407619Y1187589D01*
X407513Y1188038D01*
X407418Y1188490D01*
X407335Y1188944D01*
X407262Y1189401D01*
X407200Y1189858D01*
X407150Y1190317D01*
X407111Y1190778D01*
X407082Y1191239D01*
X407066Y1191700D01*
X407060Y1192162D01*
X407066Y1192624D01*
X407082Y1193085D01*
X407111Y1193546D01*
X407150Y1194007D01*
X407200Y1194466D01*
X407262Y1194923D01*
X407335Y1195380D01*
X407418Y1195834D01*
X407513Y1196286D01*
X407619Y1196735D01*
X407736Y1197182D01*
X407863Y1197626D01*
X408001Y1198067D01*
X408150Y1198504D01*
X408310Y1198938D01*
X408480Y1199367D01*
X408660Y1199792D01*
X408851Y1200213D01*
X409052Y1200629D01*
X409263Y1201040D01*
X409484Y1201445D01*
X409715Y1201845D01*
X409955Y1202240D01*
X410205Y1202628D01*
X410464Y1203010D01*
X410732Y1203386D01*
X411010Y1203756D01*
X411296Y1204118D01*
X411592Y1204473D01*
X411895Y1204821D01*
X412207Y1205162D01*
X412528Y1205494D01*
X412856Y1205819D01*
X413192Y1206136D01*
X413536Y1206445D01*
X413887Y1206745D01*
X414245Y1207036D01*
X414610Y1207319D01*
X414982Y1207593D01*
X415361Y1207857D01*
X415746Y1208113D01*
X416137Y1208359D01*
X416534Y1208595D01*
X416936Y1208821D01*
X417344Y1209038D01*
X417757Y1209245D01*
X418175Y1209441D01*
X418597Y1209628D01*
X419024Y1209804D01*
X419456Y1209970D01*
X419891Y1210125D01*
X421534Y1210901D01*
X423195Y1211639D01*
X424873Y1212336D01*
X426567Y1212994D01*
X428277Y1213610D01*
X430001Y1214186D01*
X431738Y1214720D01*
X433487Y1215213D01*
X435248Y1215664D01*
X437019Y1216072D01*
X438799Y1216439D01*
X440587Y1216762D01*
X442383Y1217043D01*
X444184Y1217281D01*
X445991Y1217476D01*
X447802Y1217628D01*
X449616Y1217736D01*
X451433Y1217801D01*
X453250Y1217823D01*
X453250Y1166501D02*
X455067Y1166523D01*
X456884Y1166588D01*
X458698Y1166696D01*
X460509Y1166848D01*
X462316Y1167043D01*
X464117Y1167281D01*
X465913Y1167562D01*
X467701Y1167885D01*
X469481Y1168251D01*
X471252Y1168660D01*
X473013Y1169111D01*
X474762Y1169604D01*
X476499Y1170138D01*
X478223Y1170714D01*
X479933Y1171330D01*
X481627Y1171987D01*
X483305Y1172685D01*
X484967Y1173422D01*
X486610Y1174199D01*
X487045Y1174354D01*
X487476Y1174519D01*
X487903Y1174696D01*
X488325Y1174882D01*
X488743Y1175079D01*
X489156Y1175285D01*
X489564Y1175502D01*
X489967Y1175729D01*
X490363Y1175965D01*
X490754Y1176211D01*
X491139Y1176466D01*
X491518Y1176731D01*
X491890Y1177005D01*
X492255Y1177287D01*
X492613Y1177579D01*
X492965Y1177879D01*
X493308Y1178188D01*
X493644Y1178504D01*
X493973Y1178829D01*
X494293Y1179162D01*
X494605Y1179503D01*
X494909Y1179851D01*
X495204Y1180206D01*
X495490Y1180568D01*
X495768Y1180937D01*
X496036Y1181313D01*
X496295Y1181696D01*
X496545Y1182084D01*
X496786Y1182478D01*
X497016Y1182879D01*
X497237Y1183284D01*
X497448Y1183695D01*
X497649Y1184111D01*
X497840Y1184532D01*
X498020Y1184957D01*
X498190Y1185386D01*
X498350Y1185820D01*
X498499Y1186257D01*
X498637Y1186698D01*
X498764Y1187142D01*
X498881Y1187589D01*
X498987Y1188038D01*
X499082Y1188490D01*
X499165Y1188944D01*
X499238Y1189400D01*
X499300Y1189858D01*
X499350Y1190317D01*
X499389Y1190778D01*
X499418Y1191239D01*
X499434Y1191700D01*
X499440Y1192162D01*
X486610Y1210125D02*
X484967Y1210902D01*
X483306Y1211640D01*
X481628Y1212337D01*
X479933Y1212995D01*
X478223Y1213611D01*
X476500Y1214187D01*
X474763Y1214721D01*
X473013Y1215214D01*
X471253Y1215665D01*
X469482Y1216073D01*
X467702Y1216440D01*
X465913Y1216763D01*
X464118Y1217044D01*
X462316Y1217282D01*
X460509Y1217477D01*
X458698Y1217629D01*
X456884Y1217737D01*
X455067Y1217802D01*
X453250Y1217824D01*
X486610Y1210124D02*
X487045Y1209969D01*
X487476Y1209804D01*
X487903Y1209628D01*
X488326Y1209441D01*
X488744Y1209245D01*
X489157Y1209038D01*
X489564Y1208821D01*
X489967Y1208595D01*
X490364Y1208358D01*
X490755Y1208112D01*
X491140Y1207857D01*
X491518Y1207592D01*
X491890Y1207319D01*
X492255Y1207036D01*
X492614Y1206745D01*
X492965Y1206444D01*
X493308Y1206136D01*
X493644Y1205819D01*
X493973Y1205494D01*
X494293Y1205161D01*
X494605Y1204821D01*
X494909Y1204473D01*
X495204Y1204118D01*
X495490Y1203755D01*
X495768Y1203386D01*
X496036Y1203010D01*
X496295Y1202628D01*
X496545Y1202240D01*
X496786Y1201845D01*
X497016Y1201445D01*
X497237Y1201039D01*
X497448Y1200629D01*
X497649Y1200213D01*
X497840Y1199792D01*
X498020Y1199367D01*
X498190Y1198937D01*
X498350Y1198504D01*
X498499Y1198067D01*
X498637Y1197626D01*
X498764Y1197182D01*
X498881Y1196735D01*
X498987Y1196286D01*
X499082Y1195834D01*
X499165Y1195380D01*
X499238Y1194923D01*
X499300Y1194466D01*
X499350Y1194007D01*
X499389Y1193546D01*
X499418Y1193085D01*
X499434Y1192624D01*
X499440Y1192162D01*
X478911Y1171633D02*
X427589Y1212691D01*
X587853Y577269D02*
X649440Y577269D01*
X562193Y574703D02*
X557060Y574703D01*
X557060Y579836D01*
X562193Y579836D01*
X562193Y574703D01*
X557060Y654345D02*
X649440Y654345D01*
X649440Y628684D01*
X649435Y628306D01*
X649421Y627929D01*
X649398Y627551D01*
X649366Y627175D01*
X649324Y626799D01*
X649273Y626425D01*
X649213Y626052D01*
X649144Y625680D01*
X649066Y625311D01*
X648979Y624943D01*
X648882Y624577D01*
X648777Y624215D01*
X648663Y623854D01*
X648540Y623497D01*
X648408Y623143D01*
X648268Y622792D01*
X648119Y622445D01*
X647962Y622101D01*
X647796Y621761D01*
X647622Y621426D01*
X647440Y621095D01*
X647250Y620768D01*
X647051Y620447D01*
X646845Y620130D01*
X646631Y619818D01*
X646410Y619512D01*
X646181Y619211D01*
X645945Y618916D01*
X645702Y618627D01*
X645452Y618344D01*
X645194Y618067D01*
X644930Y617797D01*
X644660Y617533D01*
X644383Y617276D01*
X644100Y617025D01*
X643811Y616782D01*
X643516Y616546D01*
X643215Y616317D01*
X642909Y616096D01*
X642597Y615882D01*
X642281Y615676D01*
X641959Y615478D01*
X641632Y615287D01*
X641301Y615105D01*
X640966Y614931D01*
X640626Y614765D01*
X640283Y614608D01*
X639935Y614459D01*
X639585Y614319D01*
X639230Y614187D01*
X638873Y614064D01*
X638513Y613950D01*
X638150Y613845D01*
X637784Y613748D01*
X637417Y613661D01*
X637047Y613583D01*
X636676Y613514D01*
X636302Y613454D01*
X635928Y613403D01*
X635552Y613361D01*
X635176Y613329D01*
X634799Y613306D01*
X634421Y613292D01*
X634043Y613287D01*
X634043Y613288D02*
X603250Y613288D01*
X603250Y613287D02*
X602878Y613291D01*
X602506Y613305D01*
X602135Y613327D01*
X601764Y613359D01*
X601394Y613399D01*
X601025Y613449D01*
X600658Y613507D01*
X600292Y613574D01*
X599928Y613650D01*
X599565Y613734D01*
X599205Y613828D01*
X598847Y613930D01*
X598492Y614041D01*
X598140Y614160D01*
X597790Y614288D01*
X597444Y614424D01*
X597101Y614568D01*
X596762Y614721D01*
X596426Y614882D01*
X596095Y615051D01*
X595767Y615228D01*
X595444Y615412D01*
X595126Y615605D01*
X594812Y615805D01*
X594504Y616013D01*
X594200Y616228D01*
X593902Y616450D01*
X593609Y616679D01*
X593321Y616916D01*
X593040Y617159D01*
X592764Y617409D01*
X592495Y617666D01*
X592232Y617929D01*
X591975Y618198D01*
X591725Y618474D01*
X591482Y618755D01*
X591245Y619043D01*
X591016Y619336D01*
X590794Y619634D01*
X590579Y619938D01*
X590371Y620246D01*
X590171Y620560D01*
X589978Y620878D01*
X589794Y621201D01*
X589617Y621529D01*
X589448Y621860D01*
X589287Y622196D01*
X589134Y622535D01*
X588990Y622878D01*
X588854Y623224D01*
X588726Y623574D01*
X588607Y623926D01*
X588496Y624281D01*
X588394Y624639D01*
X588300Y624999D01*
X588216Y625362D01*
X588140Y625726D01*
X588073Y626092D01*
X588015Y626459D01*
X587965Y626828D01*
X587925Y627198D01*
X587893Y627569D01*
X587871Y627940D01*
X587857Y628312D01*
X587853Y628684D01*
X587853Y654345D01*
X649440Y710137D02*
X649440Y735798D01*
X649440Y710137D02*
X649435Y709759D01*
X649421Y709382D01*
X649398Y709004D01*
X649366Y708628D01*
X649324Y708252D01*
X649273Y707878D01*
X649213Y707505D01*
X649144Y707133D01*
X649066Y706764D01*
X648979Y706396D01*
X648882Y706030D01*
X648777Y705668D01*
X648663Y705307D01*
X648540Y704950D01*
X648408Y704596D01*
X648268Y704245D01*
X648119Y703898D01*
X647962Y703554D01*
X647796Y703214D01*
X647622Y702879D01*
X647440Y702548D01*
X647250Y702221D01*
X647051Y701900D01*
X646845Y701583D01*
X646631Y701271D01*
X646410Y700965D01*
X646181Y700664D01*
X645945Y700369D01*
X645702Y700080D01*
X645452Y699797D01*
X645194Y699520D01*
X644930Y699250D01*
X644660Y698986D01*
X644383Y698729D01*
X644100Y698478D01*
X643811Y698235D01*
X643516Y697999D01*
X643215Y697770D01*
X642909Y697549D01*
X642597Y697335D01*
X642281Y697129D01*
X641959Y696931D01*
X641632Y696740D01*
X641301Y696558D01*
X640966Y696384D01*
X640626Y696218D01*
X640283Y696061D01*
X639935Y695912D01*
X639585Y695772D01*
X639230Y695640D01*
X638873Y695517D01*
X638513Y695403D01*
X638150Y695298D01*
X637784Y695201D01*
X637417Y695114D01*
X637047Y695036D01*
X636676Y694967D01*
X636302Y694907D01*
X635928Y694856D01*
X635552Y694814D01*
X635176Y694782D01*
X634799Y694759D01*
X634421Y694745D01*
X634043Y694740D01*
X608383Y694740D01*
X607883Y694746D01*
X607383Y694764D01*
X606884Y694795D01*
X606386Y694837D01*
X605889Y694892D01*
X605394Y694959D01*
X604900Y695038D01*
X604409Y695128D01*
X603919Y695231D01*
X603433Y695346D01*
X602949Y695472D01*
X602469Y695610D01*
X601992Y695760D01*
X601518Y695922D01*
X601049Y696095D01*
X600585Y696279D01*
X600125Y696474D01*
X599669Y696681D01*
X599219Y696899D01*
X598775Y697127D01*
X598336Y697367D01*
X597903Y697617D01*
X597476Y697877D01*
X597056Y698148D01*
X596642Y698429D01*
X596236Y698720D01*
X595836Y699020D01*
X595444Y699331D01*
X595060Y699651D01*
X594684Y699980D01*
X594315Y700318D01*
X593955Y700665D01*
X593604Y701020D01*
X593262Y701384D01*
X592928Y701757D01*
X592603Y702137D01*
X592288Y702525D01*
X591983Y702921D01*
X591687Y703324D01*
X591401Y703734D01*
X591125Y704151D01*
X590860Y704575D01*
X590604Y705004D01*
X590360Y705440D01*
X590126Y705882D01*
X589903Y706330D01*
X589690Y706782D01*
X589489Y707240D01*
X589299Y707702D01*
X589121Y708169D01*
X588954Y708641D01*
X588798Y709116D01*
X588654Y709594D01*
X588522Y710077D01*
X588401Y710562D01*
X588292Y711050D01*
X588195Y711540D01*
X588111Y712033D01*
X588038Y712527D01*
X587977Y713024D01*
X587929Y713521D01*
X587892Y714020D01*
X587868Y714519D01*
X587856Y715019D01*
X587856Y715519D01*
X587868Y716019D01*
X587892Y716518D01*
X587929Y717017D01*
X587977Y717514D01*
X588038Y718011D01*
X588111Y718505D01*
X588195Y718998D01*
X588292Y719488D01*
X588401Y719976D01*
X588522Y720461D01*
X588654Y720944D01*
X588798Y721422D01*
X588954Y721897D01*
X589121Y722369D01*
X589299Y722836D01*
X589489Y723298D01*
X589690Y723756D01*
X589903Y724208D01*
X590126Y724656D01*
X590360Y725098D01*
X590604Y725534D01*
X590860Y725963D01*
X591125Y726387D01*
X591401Y726804D01*
X591687Y727214D01*
X591983Y727617D01*
X592288Y728013D01*
X592603Y728401D01*
X592928Y728781D01*
X593262Y729154D01*
X593604Y729518D01*
X593955Y729873D01*
X594315Y730220D01*
X594684Y730558D01*
X595060Y730887D01*
X595444Y731207D01*
X595836Y731518D01*
X596236Y731818D01*
X596642Y732109D01*
X597056Y732390D01*
X597476Y732661D01*
X597903Y732921D01*
X598336Y733171D01*
X598775Y733411D01*
X599219Y733639D01*
X599669Y733857D01*
X600125Y734064D01*
X600585Y734259D01*
X601049Y734443D01*
X601518Y734616D01*
X601992Y734778D01*
X602469Y734928D01*
X602949Y735066D01*
X603433Y735192D01*
X603919Y735307D01*
X604409Y735410D01*
X604900Y735500D01*
X605394Y735579D01*
X605889Y735646D01*
X606386Y735701D01*
X606884Y735743D01*
X607383Y735774D01*
X607883Y735792D01*
X608383Y735798D01*
X618647Y735798D01*
X618647Y694740D01*
X613515Y790250D02*
X613515Y813345D01*
X613514Y790250D02*
X613519Y789813D01*
X613535Y789375D01*
X613562Y788939D01*
X613599Y788503D01*
X613647Y788068D01*
X613705Y787635D01*
X613774Y787203D01*
X613854Y786772D01*
X613944Y786344D01*
X614044Y785919D01*
X614155Y785495D01*
X614276Y785075D01*
X614407Y784658D01*
X614548Y784244D01*
X614699Y783833D01*
X614861Y783426D01*
X615032Y783024D01*
X615212Y782625D01*
X615403Y782232D01*
X615603Y781843D01*
X615812Y781459D01*
X616031Y781080D01*
X616259Y780706D01*
X616496Y780339D01*
X616742Y779977D01*
X616996Y779621D01*
X617259Y779271D01*
X617531Y778929D01*
X617811Y778592D01*
X618099Y778263D01*
X618395Y777941D01*
X618698Y777626D01*
X619009Y777318D01*
X619328Y777019D01*
X619654Y776727D01*
X619987Y776443D01*
X620326Y776167D01*
X620672Y775900D01*
X621025Y775641D01*
X621384Y775391D01*
X621749Y775149D01*
X622119Y774917D01*
X622496Y774694D01*
X622877Y774479D01*
X623264Y774275D01*
X623655Y774079D01*
X624051Y773894D01*
X624452Y773718D01*
X624856Y773552D01*
X625265Y773395D01*
X625677Y773249D01*
X626093Y773113D01*
X626512Y772987D01*
X626934Y772871D01*
X627358Y772766D01*
X627785Y772670D01*
X628214Y772586D01*
X628645Y772512D01*
X629078Y772448D01*
X629512Y772395D01*
X629948Y772352D01*
X630384Y772320D01*
X630821Y772299D01*
X631258Y772288D01*
X631696Y772288D01*
X632133Y772299D01*
X632570Y772320D01*
X633006Y772352D01*
X633442Y772395D01*
X633876Y772448D01*
X634309Y772512D01*
X634740Y772586D01*
X635169Y772670D01*
X635596Y772766D01*
X636020Y772871D01*
X636442Y772987D01*
X636861Y773113D01*
X637277Y773249D01*
X637689Y773395D01*
X638098Y773552D01*
X638502Y773718D01*
X638903Y773894D01*
X639299Y774079D01*
X639690Y774275D01*
X640077Y774479D01*
X640459Y774694D01*
X640835Y774917D01*
X641205Y775149D01*
X641570Y775391D01*
X641929Y775641D01*
X642282Y775900D01*
X642628Y776167D01*
X642967Y776443D01*
X643300Y776727D01*
X643626Y777019D01*
X643945Y777318D01*
X644256Y777626D01*
X644559Y777941D01*
X644855Y778263D01*
X645143Y778592D01*
X645423Y778929D01*
X645695Y779271D01*
X645958Y779621D01*
X646212Y779977D01*
X646458Y780339D01*
X646695Y780706D01*
X646923Y781080D01*
X647142Y781459D01*
X647351Y781843D01*
X647551Y782232D01*
X647742Y782625D01*
X647922Y783024D01*
X648093Y783426D01*
X648255Y783833D01*
X648406Y784244D01*
X648547Y784658D01*
X648678Y785075D01*
X648799Y785495D01*
X648910Y785919D01*
X649010Y786344D01*
X649100Y786772D01*
X649180Y787203D01*
X649249Y787635D01*
X649307Y788068D01*
X649355Y788503D01*
X649392Y788939D01*
X649419Y789375D01*
X649435Y789813D01*
X649440Y790250D01*
X649440Y813345D01*
X603250Y813345D01*
X602872Y813340D01*
X602495Y813326D01*
X602117Y813303D01*
X601741Y813271D01*
X601365Y813229D01*
X600991Y813178D01*
X600618Y813118D01*
X600246Y813049D01*
X599877Y812971D01*
X599509Y812884D01*
X599143Y812787D01*
X598781Y812682D01*
X598420Y812568D01*
X598063Y812445D01*
X597709Y812313D01*
X597358Y812173D01*
X597011Y812024D01*
X596667Y811867D01*
X596327Y811701D01*
X595992Y811527D01*
X595661Y811345D01*
X595334Y811155D01*
X595013Y810956D01*
X594696Y810750D01*
X594384Y810536D01*
X594078Y810315D01*
X593777Y810086D01*
X593482Y809850D01*
X593193Y809607D01*
X592910Y809357D01*
X592633Y809099D01*
X592363Y808835D01*
X592099Y808565D01*
X591842Y808288D01*
X591591Y808005D01*
X591348Y807716D01*
X591112Y807421D01*
X590883Y807120D01*
X590662Y806814D01*
X590448Y806502D01*
X590242Y806186D01*
X590044Y805864D01*
X589853Y805537D01*
X589671Y805206D01*
X589497Y804871D01*
X589331Y804531D01*
X589174Y804188D01*
X589025Y803840D01*
X588885Y803490D01*
X588753Y803135D01*
X588630Y802778D01*
X588516Y802418D01*
X588411Y802055D01*
X588314Y801689D01*
X588227Y801322D01*
X588149Y800952D01*
X588080Y800581D01*
X588020Y800207D01*
X587969Y799833D01*
X587927Y799457D01*
X587895Y799081D01*
X587872Y798704D01*
X587858Y798326D01*
X587853Y797948D01*
X587853Y777420D01*
X557060Y854961D02*
X634043Y854961D01*
X634415Y854965D01*
X634787Y854979D01*
X635158Y855001D01*
X635529Y855033D01*
X635899Y855073D01*
X636268Y855123D01*
X636635Y855181D01*
X637001Y855248D01*
X637365Y855324D01*
X637728Y855408D01*
X638088Y855502D01*
X638445Y855604D01*
X638801Y855715D01*
X639153Y855834D01*
X639503Y855962D01*
X639849Y856098D01*
X640192Y856242D01*
X640531Y856395D01*
X640866Y856556D01*
X641198Y856725D01*
X641525Y856901D01*
X641848Y857086D01*
X642167Y857279D01*
X642480Y857479D01*
X642789Y857686D01*
X643093Y857901D01*
X643391Y858124D01*
X643684Y858353D01*
X643971Y858590D01*
X644253Y858833D01*
X644528Y859083D01*
X644797Y859340D01*
X645060Y859603D01*
X645317Y859872D01*
X645567Y860148D01*
X645811Y860429D01*
X646047Y860716D01*
X646276Y861009D01*
X646499Y861308D01*
X646714Y861611D01*
X646921Y861920D01*
X647122Y862234D01*
X647314Y862552D01*
X647499Y862875D01*
X647676Y863202D01*
X647844Y863534D01*
X648005Y863869D01*
X648158Y864209D01*
X648302Y864551D01*
X648439Y864898D01*
X648566Y865247D01*
X648686Y865600D01*
X648796Y865955D01*
X648898Y866313D01*
X648992Y866673D01*
X649076Y867035D01*
X649152Y867399D01*
X649219Y867765D01*
X649277Y868133D01*
X649327Y868502D01*
X649367Y868871D01*
X649399Y869242D01*
X649421Y869613D01*
X649435Y869985D01*
X649439Y870357D01*
X649440Y990344D02*
X557060Y990344D01*
X649440Y990344D02*
X649440Y964683D01*
X649435Y964305D01*
X649421Y963928D01*
X649398Y963550D01*
X649366Y963174D01*
X649324Y962798D01*
X649273Y962424D01*
X649213Y962051D01*
X649144Y961679D01*
X649066Y961310D01*
X648979Y960942D01*
X648882Y960576D01*
X648777Y960214D01*
X648663Y959853D01*
X648540Y959496D01*
X648408Y959142D01*
X648268Y958791D01*
X648119Y958444D01*
X647962Y958100D01*
X647796Y957760D01*
X647622Y957425D01*
X647440Y957094D01*
X647250Y956767D01*
X647051Y956446D01*
X646845Y956129D01*
X646631Y955817D01*
X646410Y955511D01*
X646181Y955210D01*
X645945Y954915D01*
X645702Y954626D01*
X645452Y954343D01*
X645194Y954066D01*
X644930Y953796D01*
X644660Y953532D01*
X644383Y953275D01*
X644100Y953024D01*
X643811Y952781D01*
X643516Y952545D01*
X643215Y952316D01*
X642909Y952095D01*
X642597Y951881D01*
X642281Y951675D01*
X641959Y951477D01*
X641632Y951286D01*
X641301Y951104D01*
X640966Y950930D01*
X640626Y950764D01*
X640283Y950607D01*
X639935Y950458D01*
X639585Y950318D01*
X639230Y950186D01*
X638873Y950063D01*
X638513Y949949D01*
X638150Y949844D01*
X637784Y949747D01*
X637417Y949660D01*
X637047Y949582D01*
X636676Y949513D01*
X636302Y949453D01*
X635928Y949402D01*
X635552Y949360D01*
X635176Y949328D01*
X634799Y949305D01*
X634421Y949291D01*
X634043Y949286D01*
X634043Y949287D02*
X603250Y949287D01*
X603250Y949286D02*
X602878Y949290D01*
X602506Y949304D01*
X602135Y949326D01*
X601764Y949358D01*
X601394Y949398D01*
X601025Y949448D01*
X600658Y949506D01*
X600292Y949573D01*
X599928Y949649D01*
X599565Y949733D01*
X599205Y949827D01*
X598847Y949929D01*
X598492Y950040D01*
X598140Y950159D01*
X597790Y950287D01*
X597444Y950423D01*
X597101Y950567D01*
X596762Y950720D01*
X596426Y950881D01*
X596095Y951050D01*
X595767Y951227D01*
X595444Y951411D01*
X595126Y951604D01*
X594812Y951804D01*
X594504Y952012D01*
X594200Y952227D01*
X593902Y952449D01*
X593609Y952678D01*
X593321Y952915D01*
X593040Y953158D01*
X592764Y953408D01*
X592495Y953665D01*
X592232Y953928D01*
X591975Y954197D01*
X591725Y954473D01*
X591482Y954754D01*
X591245Y955042D01*
X591016Y955335D01*
X590794Y955633D01*
X590579Y955937D01*
X590371Y956245D01*
X590171Y956559D01*
X589978Y956877D01*
X589794Y957200D01*
X589617Y957528D01*
X589448Y957859D01*
X589287Y958195D01*
X589134Y958534D01*
X588990Y958877D01*
X588854Y959223D01*
X588726Y959573D01*
X588607Y959925D01*
X588496Y960280D01*
X588394Y960638D01*
X588300Y960998D01*
X588216Y961361D01*
X588140Y961725D01*
X588073Y962091D01*
X588015Y962458D01*
X587965Y962827D01*
X587925Y963197D01*
X587893Y963568D01*
X587871Y963939D01*
X587857Y964311D01*
X587853Y964683D01*
X587853Y990344D01*
X587853Y1030268D02*
X649440Y1030268D01*
X562193Y1027702D02*
X557060Y1027702D01*
X557060Y1032834D01*
X562193Y1032834D01*
X562193Y1027702D01*
X608383Y1066739D02*
X628911Y1066739D01*
X608383Y1066739D02*
X607883Y1066745D01*
X607383Y1066763D01*
X606884Y1066794D01*
X606386Y1066836D01*
X605889Y1066891D01*
X605394Y1066958D01*
X604900Y1067037D01*
X604409Y1067127D01*
X603919Y1067230D01*
X603433Y1067345D01*
X602949Y1067471D01*
X602469Y1067609D01*
X601992Y1067759D01*
X601518Y1067921D01*
X601049Y1068094D01*
X600585Y1068278D01*
X600125Y1068473D01*
X599669Y1068680D01*
X599219Y1068898D01*
X598775Y1069126D01*
X598336Y1069366D01*
X597903Y1069616D01*
X597476Y1069876D01*
X597056Y1070147D01*
X596642Y1070428D01*
X596236Y1070719D01*
X595836Y1071019D01*
X595444Y1071330D01*
X595060Y1071650D01*
X594684Y1071979D01*
X594315Y1072317D01*
X593955Y1072664D01*
X593604Y1073019D01*
X593262Y1073383D01*
X592928Y1073756D01*
X592603Y1074136D01*
X592288Y1074524D01*
X591983Y1074920D01*
X591687Y1075323D01*
X591401Y1075733D01*
X591125Y1076150D01*
X590860Y1076574D01*
X590604Y1077004D01*
X590360Y1077439D01*
X590126Y1077881D01*
X589903Y1078329D01*
X589690Y1078781D01*
X589489Y1079239D01*
X589299Y1079701D01*
X589121Y1080168D01*
X588954Y1080640D01*
X588798Y1081115D01*
X588654Y1081593D01*
X588522Y1082076D01*
X588401Y1082561D01*
X588292Y1083049D01*
X588195Y1083539D01*
X588111Y1084032D01*
X588038Y1084526D01*
X587977Y1085023D01*
X587929Y1085520D01*
X587892Y1086019D01*
X587868Y1086518D01*
X587856Y1087018D01*
X587856Y1087518D01*
X587868Y1088018D01*
X587892Y1088517D01*
X587929Y1089016D01*
X587977Y1089513D01*
X588038Y1090010D01*
X588111Y1090504D01*
X588195Y1090997D01*
X588292Y1091487D01*
X588401Y1091975D01*
X588522Y1092460D01*
X588654Y1092943D01*
X588798Y1093421D01*
X588954Y1093896D01*
X589121Y1094368D01*
X589299Y1094835D01*
X589489Y1095297D01*
X589690Y1095755D01*
X589903Y1096207D01*
X590126Y1096655D01*
X590360Y1097097D01*
X590604Y1097533D01*
X590860Y1097962D01*
X591125Y1098386D01*
X591401Y1098803D01*
X591687Y1099213D01*
X591983Y1099616D01*
X592288Y1100012D01*
X592603Y1100400D01*
X592928Y1100780D01*
X593262Y1101153D01*
X593604Y1101517D01*
X593955Y1101872D01*
X594315Y1102219D01*
X594684Y1102557D01*
X595060Y1102886D01*
X595444Y1103206D01*
X595836Y1103517D01*
X596236Y1103817D01*
X596642Y1104108D01*
X597056Y1104389D01*
X597476Y1104660D01*
X597903Y1104920D01*
X598336Y1105170D01*
X598775Y1105410D01*
X599219Y1105638D01*
X599669Y1105856D01*
X600125Y1106063D01*
X600585Y1106258D01*
X601049Y1106442D01*
X601518Y1106615D01*
X601992Y1106777D01*
X602469Y1106927D01*
X602949Y1107065D01*
X603433Y1107191D01*
X603919Y1107306D01*
X604409Y1107409D01*
X604900Y1107499D01*
X605394Y1107578D01*
X605889Y1107645D01*
X606386Y1107700D01*
X606884Y1107742D01*
X607383Y1107773D01*
X607883Y1107791D01*
X608383Y1107797D01*
X628911Y1107797D01*
X629411Y1107791D01*
X629911Y1107773D01*
X630410Y1107742D01*
X630908Y1107700D01*
X631405Y1107645D01*
X631900Y1107578D01*
X632394Y1107499D01*
X632885Y1107409D01*
X633375Y1107306D01*
X633861Y1107191D01*
X634345Y1107065D01*
X634825Y1106927D01*
X635302Y1106777D01*
X635776Y1106615D01*
X636245Y1106442D01*
X636709Y1106258D01*
X637169Y1106063D01*
X637625Y1105856D01*
X638075Y1105638D01*
X638519Y1105410D01*
X638958Y1105170D01*
X639391Y1104920D01*
X639818Y1104660D01*
X640238Y1104389D01*
X640652Y1104108D01*
X641058Y1103817D01*
X641458Y1103517D01*
X641850Y1103206D01*
X642234Y1102886D01*
X642610Y1102557D01*
X642979Y1102219D01*
X643339Y1101872D01*
X643690Y1101517D01*
X644032Y1101153D01*
X644366Y1100780D01*
X644691Y1100400D01*
X645006Y1100012D01*
X645311Y1099616D01*
X645607Y1099213D01*
X645893Y1098803D01*
X646169Y1098386D01*
X646434Y1097962D01*
X646690Y1097533D01*
X646934Y1097097D01*
X647168Y1096655D01*
X647391Y1096207D01*
X647604Y1095755D01*
X647805Y1095297D01*
X647995Y1094835D01*
X648173Y1094368D01*
X648340Y1093896D01*
X648496Y1093421D01*
X648640Y1092943D01*
X648772Y1092460D01*
X648893Y1091975D01*
X649002Y1091487D01*
X649099Y1090997D01*
X649183Y1090504D01*
X649256Y1090010D01*
X649317Y1089513D01*
X649365Y1089016D01*
X649402Y1088517D01*
X649426Y1088018D01*
X649438Y1087518D01*
X649438Y1087018D01*
X649426Y1086518D01*
X649402Y1086019D01*
X649365Y1085520D01*
X649317Y1085023D01*
X649256Y1084526D01*
X649183Y1084032D01*
X649099Y1083539D01*
X649002Y1083049D01*
X648893Y1082561D01*
X648772Y1082076D01*
X648640Y1081593D01*
X648496Y1081115D01*
X648340Y1080640D01*
X648173Y1080168D01*
X647995Y1079701D01*
X647805Y1079239D01*
X647604Y1078781D01*
X647391Y1078329D01*
X647168Y1077881D01*
X646934Y1077439D01*
X646690Y1077004D01*
X646434Y1076574D01*
X646169Y1076150D01*
X645893Y1075733D01*
X645607Y1075323D01*
X645311Y1074920D01*
X645006Y1074524D01*
X644691Y1074136D01*
X644366Y1073756D01*
X644032Y1073383D01*
X643690Y1073019D01*
X643339Y1072664D01*
X642979Y1072317D01*
X642610Y1071979D01*
X642234Y1071650D01*
X641850Y1071330D01*
X641458Y1071019D01*
X641058Y1070719D01*
X640652Y1070428D01*
X640238Y1070147D01*
X639818Y1069876D01*
X639391Y1069616D01*
X638958Y1069366D01*
X638519Y1069126D01*
X638075Y1068898D01*
X637625Y1068680D01*
X637169Y1068473D01*
X636709Y1068278D01*
X636245Y1068094D01*
X635776Y1067921D01*
X635302Y1067759D01*
X634825Y1067609D01*
X634345Y1067471D01*
X633861Y1067345D01*
X633375Y1067230D01*
X632885Y1067127D01*
X632394Y1067037D01*
X631900Y1066958D01*
X631405Y1066891D01*
X630908Y1066836D01*
X630410Y1066794D01*
X629911Y1066763D01*
X629411Y1066745D01*
X628911Y1066739D01*
X649440Y1185344D02*
X557060Y1185344D01*
X649440Y1185344D02*
X649440Y1159683D01*
X649435Y1159305D01*
X649421Y1158928D01*
X649398Y1158550D01*
X649366Y1158174D01*
X649324Y1157798D01*
X649273Y1157424D01*
X649213Y1157051D01*
X649144Y1156679D01*
X649066Y1156310D01*
X648979Y1155942D01*
X648882Y1155576D01*
X648777Y1155214D01*
X648663Y1154853D01*
X648540Y1154496D01*
X648408Y1154142D01*
X648268Y1153791D01*
X648119Y1153444D01*
X647962Y1153100D01*
X647796Y1152760D01*
X647622Y1152425D01*
X647440Y1152094D01*
X647250Y1151767D01*
X647051Y1151446D01*
X646845Y1151129D01*
X646631Y1150817D01*
X646410Y1150511D01*
X646181Y1150210D01*
X645945Y1149915D01*
X645702Y1149626D01*
X645452Y1149343D01*
X645194Y1149066D01*
X644930Y1148796D01*
X644660Y1148532D01*
X644383Y1148275D01*
X644100Y1148024D01*
X643811Y1147781D01*
X643516Y1147545D01*
X643215Y1147316D01*
X642909Y1147095D01*
X642597Y1146881D01*
X642281Y1146675D01*
X641959Y1146477D01*
X641632Y1146286D01*
X641301Y1146104D01*
X640966Y1145930D01*
X640626Y1145764D01*
X640283Y1145607D01*
X639935Y1145458D01*
X639585Y1145318D01*
X639230Y1145186D01*
X638873Y1145063D01*
X638513Y1144949D01*
X638150Y1144844D01*
X637784Y1144747D01*
X637417Y1144660D01*
X637047Y1144582D01*
X636676Y1144513D01*
X636302Y1144453D01*
X635928Y1144402D01*
X635552Y1144360D01*
X635176Y1144328D01*
X634799Y1144305D01*
X634421Y1144291D01*
X634043Y1144286D01*
X603250Y1144286D01*
X602878Y1144290D01*
X602506Y1144304D01*
X602135Y1144326D01*
X601764Y1144358D01*
X601394Y1144398D01*
X601025Y1144448D01*
X600658Y1144506D01*
X600292Y1144573D01*
X599928Y1144649D01*
X599565Y1144733D01*
X599205Y1144827D01*
X598847Y1144929D01*
X598492Y1145040D01*
X598140Y1145159D01*
X597790Y1145287D01*
X597444Y1145423D01*
X597101Y1145567D01*
X596762Y1145720D01*
X596426Y1145881D01*
X596095Y1146050D01*
X595767Y1146227D01*
X595444Y1146411D01*
X595126Y1146604D01*
X594812Y1146804D01*
X594504Y1147012D01*
X594200Y1147227D01*
X593902Y1147449D01*
X593609Y1147678D01*
X593321Y1147915D01*
X593040Y1148158D01*
X592764Y1148408D01*
X592495Y1148665D01*
X592232Y1148928D01*
X591975Y1149197D01*
X591725Y1149473D01*
X591482Y1149754D01*
X591245Y1150042D01*
X591016Y1150335D01*
X590794Y1150633D01*
X590579Y1150937D01*
X590371Y1151245D01*
X590171Y1151559D01*
X589978Y1151877D01*
X589794Y1152200D01*
X589617Y1152528D01*
X589448Y1152859D01*
X589287Y1153195D01*
X589134Y1153534D01*
X588990Y1153877D01*
X588854Y1154223D01*
X588726Y1154573D01*
X588607Y1154925D01*
X588496Y1155280D01*
X588394Y1155638D01*
X588300Y1155998D01*
X588216Y1156361D01*
X588140Y1156725D01*
X588073Y1157091D01*
X588015Y1157458D01*
X587965Y1157827D01*
X587925Y1158197D01*
X587893Y1158568D01*
X587871Y1158939D01*
X587857Y1159311D01*
X587853Y1159683D01*
X587853Y1185344D01*
X649440Y1241135D02*
X649440Y1266796D01*
X649440Y1241135D02*
X649435Y1240757D01*
X649421Y1240380D01*
X649398Y1240002D01*
X649366Y1239626D01*
X649324Y1239250D01*
X649273Y1238876D01*
X649213Y1238503D01*
X649144Y1238131D01*
X649066Y1237762D01*
X648979Y1237394D01*
X648882Y1237028D01*
X648777Y1236666D01*
X648663Y1236305D01*
X648540Y1235948D01*
X648408Y1235594D01*
X648268Y1235243D01*
X648119Y1234896D01*
X647962Y1234552D01*
X647796Y1234212D01*
X647622Y1233877D01*
X647440Y1233546D01*
X647250Y1233219D01*
X647051Y1232898D01*
X646845Y1232581D01*
X646631Y1232269D01*
X646410Y1231963D01*
X646181Y1231662D01*
X645945Y1231367D01*
X645702Y1231078D01*
X645452Y1230795D01*
X645194Y1230518D01*
X644930Y1230248D01*
X644660Y1229984D01*
X644383Y1229727D01*
X644100Y1229476D01*
X643811Y1229233D01*
X643516Y1228997D01*
X643215Y1228768D01*
X642909Y1228547D01*
X642597Y1228333D01*
X642281Y1228127D01*
X641959Y1227929D01*
X641632Y1227738D01*
X641301Y1227556D01*
X640966Y1227382D01*
X640626Y1227216D01*
X640283Y1227059D01*
X639935Y1226910D01*
X639585Y1226770D01*
X639230Y1226638D01*
X638873Y1226515D01*
X638513Y1226401D01*
X638150Y1226296D01*
X637784Y1226199D01*
X637417Y1226112D01*
X637047Y1226034D01*
X636676Y1225965D01*
X636302Y1225905D01*
X635928Y1225854D01*
X635552Y1225812D01*
X635176Y1225780D01*
X634799Y1225757D01*
X634421Y1225743D01*
X634043Y1225738D01*
X634043Y1225739D02*
X608383Y1225739D01*
X607883Y1225745D01*
X607383Y1225763D01*
X606884Y1225794D01*
X606386Y1225836D01*
X605889Y1225891D01*
X605394Y1225958D01*
X604900Y1226037D01*
X604409Y1226127D01*
X603919Y1226230D01*
X603433Y1226345D01*
X602949Y1226471D01*
X602469Y1226609D01*
X601992Y1226759D01*
X601518Y1226921D01*
X601049Y1227094D01*
X600585Y1227278D01*
X600125Y1227473D01*
X599669Y1227680D01*
X599219Y1227898D01*
X598775Y1228126D01*
X598336Y1228366D01*
X597903Y1228616D01*
X597476Y1228876D01*
X597056Y1229147D01*
X596642Y1229428D01*
X596236Y1229719D01*
X595836Y1230019D01*
X595444Y1230330D01*
X595060Y1230650D01*
X594684Y1230979D01*
X594315Y1231317D01*
X593955Y1231664D01*
X593604Y1232019D01*
X593262Y1232383D01*
X592928Y1232756D01*
X592603Y1233136D01*
X592288Y1233524D01*
X591983Y1233920D01*
X591687Y1234323D01*
X591401Y1234733D01*
X591125Y1235150D01*
X590860Y1235574D01*
X590604Y1236004D01*
X590360Y1236439D01*
X590126Y1236881D01*
X589903Y1237329D01*
X589690Y1237781D01*
X589489Y1238239D01*
X589299Y1238701D01*
X589121Y1239168D01*
X588954Y1239640D01*
X588798Y1240115D01*
X588654Y1240593D01*
X588522Y1241076D01*
X588401Y1241561D01*
X588292Y1242049D01*
X588195Y1242539D01*
X588111Y1243032D01*
X588038Y1243526D01*
X587977Y1244023D01*
X587929Y1244520D01*
X587892Y1245019D01*
X587868Y1245518D01*
X587856Y1246018D01*
X587856Y1246518D01*
X587868Y1247018D01*
X587892Y1247517D01*
X587929Y1248016D01*
X587977Y1248513D01*
X588038Y1249010D01*
X588111Y1249504D01*
X588195Y1249997D01*
X588292Y1250487D01*
X588401Y1250975D01*
X588522Y1251460D01*
X588654Y1251943D01*
X588798Y1252421D01*
X588954Y1252896D01*
X589121Y1253368D01*
X589299Y1253835D01*
X589489Y1254297D01*
X589690Y1254755D01*
X589903Y1255207D01*
X590126Y1255655D01*
X590360Y1256097D01*
X590604Y1256533D01*
X590860Y1256962D01*
X591125Y1257386D01*
X591401Y1257803D01*
X591687Y1258213D01*
X591983Y1258616D01*
X592288Y1259012D01*
X592603Y1259400D01*
X592928Y1259780D01*
X593262Y1260153D01*
X593604Y1260517D01*
X593955Y1260872D01*
X594315Y1261219D01*
X594684Y1261557D01*
X595060Y1261886D01*
X595444Y1262206D01*
X595836Y1262517D01*
X596236Y1262817D01*
X596642Y1263108D01*
X597056Y1263389D01*
X597476Y1263660D01*
X597903Y1263920D01*
X598336Y1264170D01*
X598775Y1264410D01*
X599219Y1264638D01*
X599669Y1264856D01*
X600125Y1265063D01*
X600585Y1265258D01*
X601049Y1265442D01*
X601518Y1265615D01*
X601992Y1265777D01*
X602469Y1265927D01*
X602949Y1266065D01*
X603433Y1266191D01*
X603919Y1266306D01*
X604409Y1266409D01*
X604900Y1266499D01*
X605394Y1266578D01*
X605889Y1266645D01*
X606386Y1266700D01*
X606884Y1266742D01*
X607383Y1266773D01*
X607883Y1266791D01*
X608383Y1266797D01*
X608383Y1266796D02*
X618647Y1266796D01*
X618647Y1225739D01*
X722457Y303712D02*
X799440Y303712D01*
X722457Y303712D02*
X722079Y303717D01*
X721702Y303731D01*
X721324Y303754D01*
X720948Y303786D01*
X720572Y303828D01*
X720198Y303879D01*
X719825Y303939D01*
X719453Y304008D01*
X719084Y304086D01*
X718716Y304173D01*
X718350Y304270D01*
X717988Y304375D01*
X717627Y304489D01*
X717270Y304612D01*
X716916Y304744D01*
X716565Y304884D01*
X716218Y305033D01*
X715874Y305190D01*
X715534Y305356D01*
X715199Y305530D01*
X714868Y305712D01*
X714541Y305902D01*
X714220Y306101D01*
X713903Y306307D01*
X713591Y306521D01*
X713285Y306742D01*
X712984Y306971D01*
X712689Y307207D01*
X712400Y307450D01*
X712117Y307700D01*
X711840Y307958D01*
X711570Y308222D01*
X711306Y308492D01*
X711049Y308769D01*
X710798Y309052D01*
X710555Y309341D01*
X710319Y309636D01*
X710090Y309937D01*
X709869Y310243D01*
X709655Y310555D01*
X709449Y310871D01*
X709251Y311193D01*
X709060Y311520D01*
X708878Y311851D01*
X708704Y312186D01*
X708538Y312526D01*
X708381Y312869D01*
X708232Y313217D01*
X708092Y313567D01*
X707960Y313922D01*
X707837Y314279D01*
X707723Y314639D01*
X707618Y315002D01*
X707521Y315368D01*
X707434Y315735D01*
X707356Y316105D01*
X707287Y316476D01*
X707227Y316850D01*
X707176Y317224D01*
X707134Y317600D01*
X707102Y317976D01*
X707079Y318353D01*
X707065Y318731D01*
X707060Y319109D01*
X707060Y319108D02*
X707060Y324241D01*
X737853Y324241D02*
X737853Y293448D01*
X737853Y352753D02*
X784043Y352753D01*
X784415Y352757D01*
X784787Y352771D01*
X785158Y352793D01*
X785529Y352825D01*
X785899Y352865D01*
X786268Y352915D01*
X786635Y352973D01*
X787001Y353040D01*
X787365Y353116D01*
X787728Y353200D01*
X788088Y353294D01*
X788445Y353396D01*
X788801Y353507D01*
X789153Y353626D01*
X789503Y353754D01*
X789849Y353890D01*
X790192Y354034D01*
X790531Y354187D01*
X790866Y354348D01*
X791198Y354517D01*
X791525Y354693D01*
X791848Y354878D01*
X792167Y355071D01*
X792480Y355271D01*
X792789Y355478D01*
X793093Y355693D01*
X793391Y355916D01*
X793684Y356145D01*
X793971Y356382D01*
X794253Y356625D01*
X794528Y356875D01*
X794797Y357132D01*
X795060Y357395D01*
X795317Y357664D01*
X795567Y357940D01*
X795811Y358221D01*
X796047Y358508D01*
X796276Y358801D01*
X796499Y359100D01*
X796714Y359403D01*
X796921Y359712D01*
X797122Y360026D01*
X797314Y360344D01*
X797499Y360667D01*
X797676Y360994D01*
X797844Y361326D01*
X798005Y361661D01*
X798158Y362001D01*
X798302Y362343D01*
X798439Y362690D01*
X798566Y363039D01*
X798686Y363392D01*
X798796Y363747D01*
X798898Y364105D01*
X798992Y364465D01*
X799076Y364827D01*
X799152Y365191D01*
X799219Y365557D01*
X799277Y365925D01*
X799327Y366294D01*
X799367Y366663D01*
X799399Y367034D01*
X799421Y367405D01*
X799435Y367777D01*
X799439Y368149D01*
X799440Y368150D02*
X799440Y393811D01*
X737853Y393811D01*
X707060Y434974D02*
X784043Y434974D01*
X784415Y434978D01*
X784787Y434992D01*
X785158Y435014D01*
X785529Y435046D01*
X785899Y435086D01*
X786268Y435136D01*
X786635Y435194D01*
X787001Y435261D01*
X787365Y435337D01*
X787728Y435421D01*
X788088Y435515D01*
X788445Y435617D01*
X788801Y435728D01*
X789153Y435847D01*
X789503Y435975D01*
X789849Y436111D01*
X790192Y436255D01*
X790531Y436408D01*
X790866Y436569D01*
X791198Y436738D01*
X791525Y436914D01*
X791848Y437099D01*
X792167Y437292D01*
X792480Y437492D01*
X792789Y437699D01*
X793093Y437914D01*
X793391Y438137D01*
X793684Y438366D01*
X793971Y438603D01*
X794253Y438846D01*
X794528Y439096D01*
X794797Y439353D01*
X795060Y439616D01*
X795317Y439885D01*
X795567Y440161D01*
X795811Y440442D01*
X796047Y440729D01*
X796276Y441022D01*
X796499Y441321D01*
X796714Y441624D01*
X796921Y441933D01*
X797122Y442247D01*
X797314Y442565D01*
X797499Y442888D01*
X797676Y443215D01*
X797844Y443547D01*
X798005Y443882D01*
X798158Y444222D01*
X798302Y444564D01*
X798439Y444911D01*
X798566Y445260D01*
X798686Y445613D01*
X798796Y445968D01*
X798898Y446326D01*
X798992Y446686D01*
X799076Y447048D01*
X799152Y447412D01*
X799219Y447778D01*
X799277Y448146D01*
X799327Y448515D01*
X799367Y448884D01*
X799399Y449255D01*
X799421Y449626D01*
X799435Y449998D01*
X799439Y450370D01*
X784043Y482974D02*
X707060Y482974D01*
X784043Y482974D02*
X784415Y482978D01*
X784787Y482992D01*
X785158Y483014D01*
X785529Y483046D01*
X785899Y483086D01*
X786268Y483136D01*
X786635Y483194D01*
X787001Y483261D01*
X787365Y483337D01*
X787728Y483421D01*
X788088Y483515D01*
X788445Y483617D01*
X788801Y483728D01*
X789153Y483847D01*
X789503Y483975D01*
X789849Y484111D01*
X790192Y484255D01*
X790531Y484408D01*
X790866Y484569D01*
X791198Y484738D01*
X791525Y484914D01*
X791848Y485099D01*
X792167Y485292D01*
X792480Y485492D01*
X792789Y485699D01*
X793093Y485914D01*
X793391Y486137D01*
X793684Y486366D01*
X793971Y486603D01*
X794253Y486846D01*
X794528Y487096D01*
X794797Y487353D01*
X795060Y487616D01*
X795317Y487885D01*
X795567Y488161D01*
X795811Y488442D01*
X796047Y488729D01*
X796276Y489022D01*
X796499Y489321D01*
X796714Y489624D01*
X796921Y489933D01*
X797122Y490247D01*
X797314Y490565D01*
X797499Y490888D01*
X797676Y491215D01*
X797844Y491547D01*
X798005Y491882D01*
X798158Y492222D01*
X798302Y492564D01*
X798439Y492911D01*
X798566Y493260D01*
X798686Y493613D01*
X798796Y493968D01*
X798898Y494326D01*
X798992Y494686D01*
X799076Y495048D01*
X799152Y495412D01*
X799219Y495778D01*
X799277Y496146D01*
X799327Y496515D01*
X799367Y496884D01*
X799399Y497255D01*
X799421Y497626D01*
X799435Y497998D01*
X799439Y498370D01*
X799440Y581205D02*
X707060Y581205D01*
X799440Y581205D02*
X799440Y606866D01*
X799436Y607238D01*
X799422Y607610D01*
X799400Y607981D01*
X799368Y608352D01*
X799328Y608722D01*
X799278Y609091D01*
X799220Y609458D01*
X799153Y609824D01*
X799077Y610188D01*
X798993Y610551D01*
X798899Y610911D01*
X798797Y611269D01*
X798686Y611624D01*
X798567Y611976D01*
X798439Y612326D01*
X798303Y612672D01*
X798159Y613015D01*
X798006Y613354D01*
X797845Y613690D01*
X797676Y614021D01*
X797499Y614349D01*
X797315Y614672D01*
X797122Y614990D01*
X796922Y615304D01*
X796714Y615612D01*
X796499Y615916D01*
X796277Y616214D01*
X796048Y616507D01*
X795811Y616795D01*
X795568Y617076D01*
X795318Y617352D01*
X795061Y617621D01*
X794798Y617884D01*
X794529Y618141D01*
X794253Y618391D01*
X793972Y618634D01*
X793684Y618871D01*
X793391Y619100D01*
X793093Y619322D01*
X792789Y619537D01*
X792481Y619745D01*
X792167Y619945D01*
X791849Y620138D01*
X791526Y620322D01*
X791198Y620499D01*
X790867Y620668D01*
X790531Y620829D01*
X790192Y620982D01*
X789849Y621126D01*
X789503Y621262D01*
X789153Y621390D01*
X788801Y621509D01*
X788446Y621620D01*
X788088Y621722D01*
X787728Y621816D01*
X787365Y621900D01*
X787001Y621976D01*
X786635Y622043D01*
X786268Y622101D01*
X785899Y622151D01*
X785529Y622191D01*
X785158Y622223D01*
X784787Y622245D01*
X784415Y622259D01*
X784043Y622263D01*
X753250Y622263D01*
X752872Y622258D01*
X752495Y622244D01*
X752117Y622221D01*
X751741Y622189D01*
X751365Y622147D01*
X750991Y622096D01*
X750618Y622036D01*
X750246Y621967D01*
X749877Y621889D01*
X749509Y621802D01*
X749143Y621705D01*
X748781Y621600D01*
X748420Y621486D01*
X748063Y621363D01*
X747709Y621231D01*
X747358Y621091D01*
X747011Y620942D01*
X746667Y620785D01*
X746327Y620619D01*
X745992Y620445D01*
X745661Y620263D01*
X745334Y620073D01*
X745013Y619874D01*
X744696Y619668D01*
X744384Y619454D01*
X744078Y619233D01*
X743777Y619004D01*
X743482Y618768D01*
X743193Y618525D01*
X742910Y618275D01*
X742633Y618017D01*
X742363Y617753D01*
X742099Y617483D01*
X741842Y617206D01*
X741591Y616923D01*
X741348Y616634D01*
X741112Y616339D01*
X740883Y616038D01*
X740662Y615732D01*
X740448Y615420D01*
X740242Y615104D01*
X740044Y614782D01*
X739853Y614455D01*
X739671Y614124D01*
X739497Y613789D01*
X739331Y613449D01*
X739174Y613106D01*
X739025Y612758D01*
X738885Y612408D01*
X738753Y612053D01*
X738630Y611696D01*
X738516Y611336D01*
X738411Y610973D01*
X738314Y610607D01*
X738227Y610240D01*
X738149Y609870D01*
X738080Y609499D01*
X738020Y609125D01*
X737969Y608751D01*
X737927Y608375D01*
X737895Y607999D01*
X737872Y607622D01*
X737858Y607244D01*
X737853Y606866D01*
X737853Y581205D01*
X737853Y662263D02*
X799440Y662263D01*
X737853Y662263D02*
X737853Y693056D01*
X748118Y693056D01*
X737853Y721280D02*
X799440Y721280D01*
X712193Y718714D02*
X707060Y718714D01*
X707060Y723847D01*
X712193Y723847D01*
X712193Y718714D01*
X707060Y798356D02*
X799440Y798356D01*
X799440Y772695D01*
X799435Y772317D01*
X799421Y771940D01*
X799398Y771562D01*
X799366Y771186D01*
X799324Y770810D01*
X799273Y770436D01*
X799213Y770063D01*
X799144Y769691D01*
X799066Y769322D01*
X798979Y768954D01*
X798882Y768588D01*
X798777Y768226D01*
X798663Y767865D01*
X798540Y767508D01*
X798408Y767154D01*
X798268Y766803D01*
X798119Y766456D01*
X797962Y766112D01*
X797796Y765772D01*
X797622Y765437D01*
X797440Y765106D01*
X797250Y764779D01*
X797051Y764458D01*
X796845Y764141D01*
X796631Y763829D01*
X796410Y763523D01*
X796181Y763222D01*
X795945Y762927D01*
X795702Y762638D01*
X795452Y762355D01*
X795194Y762078D01*
X794930Y761808D01*
X794660Y761544D01*
X794383Y761287D01*
X794100Y761036D01*
X793811Y760793D01*
X793516Y760557D01*
X793215Y760328D01*
X792909Y760107D01*
X792597Y759893D01*
X792281Y759687D01*
X791959Y759489D01*
X791632Y759298D01*
X791301Y759116D01*
X790966Y758942D01*
X790626Y758776D01*
X790283Y758619D01*
X789935Y758470D01*
X789585Y758330D01*
X789230Y758198D01*
X788873Y758075D01*
X788513Y757961D01*
X788150Y757856D01*
X787784Y757759D01*
X787417Y757672D01*
X787047Y757594D01*
X786676Y757525D01*
X786302Y757465D01*
X785928Y757414D01*
X785552Y757372D01*
X785176Y757340D01*
X784799Y757317D01*
X784421Y757303D01*
X784043Y757298D01*
X784043Y757299D02*
X753250Y757299D01*
X753250Y757298D02*
X752878Y757302D01*
X752506Y757316D01*
X752135Y757338D01*
X751764Y757370D01*
X751394Y757410D01*
X751025Y757460D01*
X750658Y757518D01*
X750292Y757585D01*
X749928Y757661D01*
X749565Y757745D01*
X749205Y757839D01*
X748847Y757941D01*
X748492Y758052D01*
X748140Y758171D01*
X747790Y758299D01*
X747444Y758435D01*
X747101Y758579D01*
X746762Y758732D01*
X746426Y758893D01*
X746095Y759062D01*
X745767Y759239D01*
X745444Y759423D01*
X745126Y759616D01*
X744812Y759816D01*
X744504Y760024D01*
X744200Y760239D01*
X743902Y760461D01*
X743609Y760690D01*
X743321Y760927D01*
X743040Y761170D01*
X742764Y761420D01*
X742495Y761677D01*
X742232Y761940D01*
X741975Y762209D01*
X741725Y762485D01*
X741482Y762766D01*
X741245Y763054D01*
X741016Y763347D01*
X740794Y763645D01*
X740579Y763949D01*
X740371Y764257D01*
X740171Y764571D01*
X739978Y764889D01*
X739794Y765212D01*
X739617Y765540D01*
X739448Y765871D01*
X739287Y766207D01*
X739134Y766546D01*
X738990Y766889D01*
X738854Y767235D01*
X738726Y767585D01*
X738607Y767937D01*
X738496Y768292D01*
X738394Y768650D01*
X738300Y769010D01*
X738216Y769373D01*
X738140Y769737D01*
X738073Y770103D01*
X738015Y770470D01*
X737965Y770839D01*
X737925Y771209D01*
X737893Y771580D01*
X737871Y771951D01*
X737857Y772323D01*
X737853Y772695D01*
X737853Y798356D01*
X799440Y853695D02*
X799440Y879356D01*
X799440Y853695D02*
X799435Y853317D01*
X799421Y852940D01*
X799398Y852562D01*
X799366Y852186D01*
X799324Y851810D01*
X799273Y851436D01*
X799213Y851063D01*
X799144Y850691D01*
X799066Y850322D01*
X798979Y849954D01*
X798882Y849588D01*
X798777Y849226D01*
X798663Y848865D01*
X798540Y848508D01*
X798408Y848154D01*
X798268Y847803D01*
X798119Y847456D01*
X797962Y847112D01*
X797796Y846772D01*
X797622Y846437D01*
X797440Y846106D01*
X797250Y845779D01*
X797051Y845458D01*
X796845Y845141D01*
X796631Y844829D01*
X796410Y844523D01*
X796181Y844222D01*
X795945Y843927D01*
X795702Y843638D01*
X795452Y843355D01*
X795194Y843078D01*
X794930Y842808D01*
X794660Y842544D01*
X794383Y842287D01*
X794100Y842036D01*
X793811Y841793D01*
X793516Y841557D01*
X793215Y841328D01*
X792909Y841107D01*
X792597Y840893D01*
X792281Y840687D01*
X791959Y840489D01*
X791632Y840298D01*
X791301Y840116D01*
X790966Y839942D01*
X790626Y839776D01*
X790283Y839619D01*
X789935Y839470D01*
X789585Y839330D01*
X789230Y839198D01*
X788873Y839075D01*
X788513Y838961D01*
X788150Y838856D01*
X787784Y838759D01*
X787417Y838672D01*
X787047Y838594D01*
X786676Y838525D01*
X786302Y838465D01*
X785928Y838414D01*
X785552Y838372D01*
X785176Y838340D01*
X784799Y838317D01*
X784421Y838303D01*
X784043Y838298D01*
X753250Y838298D01*
X752878Y838302D01*
X752506Y838316D01*
X752135Y838338D01*
X751764Y838370D01*
X751394Y838410D01*
X751025Y838460D01*
X750658Y838518D01*
X750292Y838585D01*
X749928Y838661D01*
X749565Y838745D01*
X749205Y838839D01*
X748847Y838941D01*
X748492Y839052D01*
X748140Y839171D01*
X747790Y839299D01*
X747444Y839435D01*
X747101Y839579D01*
X746762Y839732D01*
X746426Y839893D01*
X746095Y840062D01*
X745767Y840239D01*
X745444Y840423D01*
X745126Y840616D01*
X744812Y840816D01*
X744504Y841024D01*
X744200Y841239D01*
X743902Y841461D01*
X743609Y841690D01*
X743321Y841927D01*
X743040Y842170D01*
X742764Y842420D01*
X742495Y842677D01*
X742232Y842940D01*
X741975Y843209D01*
X741725Y843485D01*
X741482Y843766D01*
X741245Y844054D01*
X741016Y844347D01*
X740794Y844645D01*
X740579Y844949D01*
X740371Y845257D01*
X740171Y845571D01*
X739978Y845889D01*
X739794Y846212D01*
X739617Y846540D01*
X739448Y846871D01*
X739287Y847207D01*
X739134Y847546D01*
X738990Y847889D01*
X738854Y848235D01*
X738726Y848585D01*
X738607Y848937D01*
X738496Y849292D01*
X738394Y849650D01*
X738300Y850010D01*
X738216Y850373D01*
X738140Y850737D01*
X738073Y851103D01*
X738015Y851470D01*
X737965Y851839D01*
X737925Y852209D01*
X737893Y852580D01*
X737871Y852951D01*
X737857Y853323D01*
X737853Y853695D01*
X737853Y879356D01*
X814837Y879356D01*
X815209Y879352D01*
X815581Y879338D01*
X815952Y879316D01*
X816323Y879284D01*
X816693Y879244D01*
X817062Y879194D01*
X817429Y879136D01*
X817795Y879069D01*
X818159Y878993D01*
X818522Y878909D01*
X818882Y878815D01*
X819240Y878713D01*
X819595Y878602D01*
X819947Y878483D01*
X820297Y878355D01*
X820643Y878219D01*
X820986Y878075D01*
X821325Y877922D01*
X821661Y877761D01*
X821992Y877592D01*
X822320Y877415D01*
X822643Y877231D01*
X822961Y877038D01*
X823275Y876838D01*
X823583Y876630D01*
X823887Y876415D01*
X824185Y876193D01*
X824478Y875964D01*
X824766Y875727D01*
X825047Y875484D01*
X825323Y875234D01*
X825592Y874977D01*
X825855Y874714D01*
X826112Y874445D01*
X826362Y874169D01*
X826605Y873888D01*
X826842Y873600D01*
X827071Y873307D01*
X827293Y873009D01*
X827508Y872705D01*
X827716Y872397D01*
X827916Y872083D01*
X828109Y871765D01*
X828293Y871442D01*
X828470Y871114D01*
X828639Y870783D01*
X828800Y870447D01*
X828953Y870108D01*
X829097Y869765D01*
X829233Y869419D01*
X829361Y869069D01*
X829480Y868717D01*
X829591Y868362D01*
X829693Y868004D01*
X829787Y867644D01*
X829871Y867281D01*
X829947Y866917D01*
X830014Y866551D01*
X830072Y866184D01*
X830122Y865815D01*
X830162Y865445D01*
X830194Y865074D01*
X830216Y864703D01*
X830230Y864331D01*
X830234Y863959D01*
X830233Y863959D02*
X830233Y843431D01*
X799440Y935148D02*
X799440Y960808D01*
X799440Y935148D02*
X799435Y934770D01*
X799421Y934393D01*
X799398Y934015D01*
X799366Y933639D01*
X799324Y933263D01*
X799273Y932889D01*
X799213Y932516D01*
X799144Y932144D01*
X799066Y931775D01*
X798979Y931407D01*
X798882Y931041D01*
X798777Y930679D01*
X798663Y930318D01*
X798540Y929961D01*
X798408Y929607D01*
X798268Y929256D01*
X798119Y928909D01*
X797962Y928565D01*
X797796Y928225D01*
X797622Y927890D01*
X797440Y927559D01*
X797250Y927232D01*
X797051Y926911D01*
X796845Y926594D01*
X796631Y926282D01*
X796410Y925976D01*
X796181Y925675D01*
X795945Y925380D01*
X795702Y925091D01*
X795452Y924808D01*
X795194Y924531D01*
X794930Y924261D01*
X794660Y923997D01*
X794383Y923740D01*
X794100Y923489D01*
X793811Y923246D01*
X793516Y923010D01*
X793215Y922781D01*
X792909Y922560D01*
X792597Y922346D01*
X792281Y922140D01*
X791959Y921942D01*
X791632Y921751D01*
X791301Y921569D01*
X790966Y921395D01*
X790626Y921229D01*
X790283Y921072D01*
X789935Y920923D01*
X789585Y920783D01*
X789230Y920651D01*
X788873Y920528D01*
X788513Y920414D01*
X788150Y920309D01*
X787784Y920212D01*
X787417Y920125D01*
X787047Y920047D01*
X786676Y919978D01*
X786302Y919918D01*
X785928Y919867D01*
X785552Y919825D01*
X785176Y919793D01*
X784799Y919770D01*
X784421Y919756D01*
X784043Y919751D01*
X758383Y919751D01*
X757883Y919757D01*
X757383Y919775D01*
X756884Y919806D01*
X756386Y919848D01*
X755889Y919903D01*
X755394Y919970D01*
X754900Y920049D01*
X754409Y920139D01*
X753919Y920242D01*
X753433Y920357D01*
X752949Y920483D01*
X752469Y920621D01*
X751992Y920771D01*
X751518Y920933D01*
X751049Y921106D01*
X750585Y921290D01*
X750125Y921485D01*
X749669Y921692D01*
X749219Y921910D01*
X748775Y922138D01*
X748336Y922378D01*
X747903Y922628D01*
X747476Y922888D01*
X747056Y923159D01*
X746642Y923440D01*
X746236Y923731D01*
X745836Y924031D01*
X745444Y924342D01*
X745060Y924662D01*
X744684Y924991D01*
X744315Y925329D01*
X743955Y925676D01*
X743604Y926031D01*
X743262Y926395D01*
X742928Y926768D01*
X742603Y927148D01*
X742288Y927536D01*
X741983Y927932D01*
X741687Y928335D01*
X741401Y928745D01*
X741125Y929162D01*
X740860Y929586D01*
X740604Y930015D01*
X740360Y930451D01*
X740126Y930893D01*
X739903Y931341D01*
X739690Y931793D01*
X739489Y932251D01*
X739299Y932713D01*
X739121Y933180D01*
X738954Y933652D01*
X738798Y934127D01*
X738654Y934605D01*
X738522Y935088D01*
X738401Y935573D01*
X738292Y936061D01*
X738195Y936551D01*
X738111Y937044D01*
X738038Y937538D01*
X737977Y938035D01*
X737929Y938532D01*
X737892Y939031D01*
X737868Y939530D01*
X737856Y940030D01*
X737856Y940530D01*
X737868Y941030D01*
X737892Y941529D01*
X737929Y942028D01*
X737977Y942525D01*
X738038Y943022D01*
X738111Y943516D01*
X738195Y944009D01*
X738292Y944499D01*
X738401Y944987D01*
X738522Y945472D01*
X738654Y945955D01*
X738798Y946433D01*
X738954Y946908D01*
X739121Y947380D01*
X739299Y947847D01*
X739489Y948309D01*
X739690Y948767D01*
X739903Y949219D01*
X740126Y949667D01*
X740360Y950109D01*
X740604Y950545D01*
X740860Y950974D01*
X741125Y951398D01*
X741401Y951815D01*
X741687Y952225D01*
X741983Y952628D01*
X742288Y953024D01*
X742603Y953412D01*
X742928Y953792D01*
X743262Y954165D01*
X743604Y954529D01*
X743955Y954884D01*
X744315Y955231D01*
X744684Y955569D01*
X745060Y955898D01*
X745444Y956218D01*
X745836Y956529D01*
X746236Y956829D01*
X746642Y957120D01*
X747056Y957401D01*
X747476Y957672D01*
X747903Y957932D01*
X748336Y958182D01*
X748775Y958422D01*
X749219Y958650D01*
X749669Y958868D01*
X750125Y959075D01*
X750585Y959270D01*
X751049Y959454D01*
X751518Y959627D01*
X751992Y959789D01*
X752469Y959939D01*
X752949Y960077D01*
X753433Y960203D01*
X753919Y960318D01*
X754409Y960421D01*
X754900Y960511D01*
X755394Y960590D01*
X755889Y960657D01*
X756386Y960712D01*
X756884Y960754D01*
X757383Y960785D01*
X757883Y960803D01*
X758383Y960809D01*
X758383Y960808D02*
X768647Y960808D01*
X768647Y919751D01*
X799440Y1049261D02*
X737853Y1049261D01*
X737853Y1080054D01*
X748118Y1080054D01*
X799440Y1124147D02*
X799440Y1149808D01*
X799440Y1124147D02*
X799435Y1123769D01*
X799421Y1123392D01*
X799398Y1123014D01*
X799366Y1122638D01*
X799324Y1122262D01*
X799273Y1121888D01*
X799213Y1121515D01*
X799144Y1121143D01*
X799066Y1120774D01*
X798979Y1120406D01*
X798882Y1120040D01*
X798777Y1119678D01*
X798663Y1119317D01*
X798540Y1118960D01*
X798408Y1118606D01*
X798268Y1118255D01*
X798119Y1117908D01*
X797962Y1117564D01*
X797796Y1117224D01*
X797622Y1116889D01*
X797440Y1116558D01*
X797250Y1116231D01*
X797051Y1115910D01*
X796845Y1115593D01*
X796631Y1115281D01*
X796410Y1114975D01*
X796181Y1114674D01*
X795945Y1114379D01*
X795702Y1114090D01*
X795452Y1113807D01*
X795194Y1113530D01*
X794930Y1113260D01*
X794660Y1112996D01*
X794383Y1112739D01*
X794100Y1112488D01*
X793811Y1112245D01*
X793516Y1112009D01*
X793215Y1111780D01*
X792909Y1111559D01*
X792597Y1111345D01*
X792281Y1111139D01*
X791959Y1110941D01*
X791632Y1110750D01*
X791301Y1110568D01*
X790966Y1110394D01*
X790626Y1110228D01*
X790283Y1110071D01*
X789935Y1109922D01*
X789585Y1109782D01*
X789230Y1109650D01*
X788873Y1109527D01*
X788513Y1109413D01*
X788150Y1109308D01*
X787784Y1109211D01*
X787417Y1109124D01*
X787047Y1109046D01*
X786676Y1108977D01*
X786302Y1108917D01*
X785928Y1108866D01*
X785552Y1108824D01*
X785176Y1108792D01*
X784799Y1108769D01*
X784421Y1108755D01*
X784043Y1108750D01*
X784043Y1108751D02*
X758383Y1108751D01*
X758383Y1108750D02*
X757883Y1108756D01*
X757383Y1108774D01*
X756884Y1108805D01*
X756386Y1108847D01*
X755889Y1108902D01*
X755394Y1108969D01*
X754900Y1109048D01*
X754409Y1109138D01*
X753919Y1109241D01*
X753433Y1109356D01*
X752949Y1109482D01*
X752469Y1109620D01*
X751992Y1109770D01*
X751518Y1109932D01*
X751049Y1110105D01*
X750585Y1110289D01*
X750125Y1110484D01*
X749669Y1110691D01*
X749219Y1110909D01*
X748775Y1111137D01*
X748336Y1111377D01*
X747903Y1111627D01*
X747476Y1111887D01*
X747056Y1112158D01*
X746642Y1112439D01*
X746236Y1112730D01*
X745836Y1113030D01*
X745444Y1113341D01*
X745060Y1113661D01*
X744684Y1113990D01*
X744315Y1114328D01*
X743955Y1114675D01*
X743604Y1115030D01*
X743262Y1115394D01*
X742928Y1115767D01*
X742603Y1116147D01*
X742288Y1116535D01*
X741983Y1116931D01*
X741687Y1117334D01*
X741401Y1117744D01*
X741125Y1118161D01*
X740860Y1118585D01*
X740604Y1119015D01*
X740360Y1119450D01*
X740126Y1119892D01*
X739903Y1120340D01*
X739690Y1120792D01*
X739489Y1121250D01*
X739299Y1121712D01*
X739121Y1122179D01*
X738954Y1122651D01*
X738798Y1123126D01*
X738654Y1123604D01*
X738522Y1124087D01*
X738401Y1124572D01*
X738292Y1125060D01*
X738195Y1125550D01*
X738111Y1126043D01*
X738038Y1126537D01*
X737977Y1127034D01*
X737929Y1127531D01*
X737892Y1128030D01*
X737868Y1128529D01*
X737856Y1129029D01*
X737856Y1129529D01*
X737868Y1130029D01*
X737892Y1130528D01*
X737929Y1131027D01*
X737977Y1131524D01*
X738038Y1132021D01*
X738111Y1132515D01*
X738195Y1133008D01*
X738292Y1133498D01*
X738401Y1133986D01*
X738522Y1134471D01*
X738654Y1134954D01*
X738798Y1135432D01*
X738954Y1135907D01*
X739121Y1136379D01*
X739299Y1136846D01*
X739489Y1137308D01*
X739690Y1137766D01*
X739903Y1138218D01*
X740126Y1138666D01*
X740360Y1139108D01*
X740604Y1139544D01*
X740860Y1139973D01*
X741125Y1140397D01*
X741401Y1140814D01*
X741687Y1141224D01*
X741983Y1141627D01*
X742288Y1142023D01*
X742603Y1142411D01*
X742928Y1142791D01*
X743262Y1143164D01*
X743604Y1143528D01*
X743955Y1143883D01*
X744315Y1144230D01*
X744684Y1144568D01*
X745060Y1144897D01*
X745444Y1145217D01*
X745836Y1145528D01*
X746236Y1145828D01*
X746642Y1146119D01*
X747056Y1146400D01*
X747476Y1146671D01*
X747903Y1146931D01*
X748336Y1147181D01*
X748775Y1147421D01*
X749219Y1147649D01*
X749669Y1147867D01*
X750125Y1148074D01*
X750585Y1148269D01*
X751049Y1148453D01*
X751518Y1148626D01*
X751992Y1148788D01*
X752469Y1148938D01*
X752949Y1149076D01*
X753433Y1149202D01*
X753919Y1149317D01*
X754409Y1149420D01*
X754900Y1149510D01*
X755394Y1149589D01*
X755889Y1149656D01*
X756386Y1149711D01*
X756884Y1149753D01*
X757383Y1149784D01*
X757883Y1149802D01*
X758383Y1149808D01*
X768647Y1149808D01*
X768647Y1108751D01*
X799440Y1202249D02*
X799440Y1222778D01*
X799440Y1202249D02*
X799435Y1201871D01*
X799421Y1201494D01*
X799398Y1201116D01*
X799366Y1200740D01*
X799324Y1200364D01*
X799273Y1199990D01*
X799213Y1199617D01*
X799144Y1199245D01*
X799066Y1198876D01*
X798979Y1198508D01*
X798882Y1198142D01*
X798777Y1197780D01*
X798663Y1197419D01*
X798540Y1197062D01*
X798408Y1196708D01*
X798268Y1196357D01*
X798119Y1196010D01*
X797962Y1195666D01*
X797796Y1195326D01*
X797622Y1194991D01*
X797440Y1194660D01*
X797250Y1194333D01*
X797051Y1194012D01*
X796845Y1193695D01*
X796631Y1193383D01*
X796410Y1193077D01*
X796181Y1192776D01*
X795945Y1192481D01*
X795702Y1192192D01*
X795452Y1191909D01*
X795194Y1191632D01*
X794930Y1191362D01*
X794660Y1191098D01*
X794383Y1190841D01*
X794100Y1190590D01*
X793811Y1190347D01*
X793516Y1190111D01*
X793215Y1189882D01*
X792909Y1189661D01*
X792597Y1189447D01*
X792281Y1189241D01*
X791959Y1189043D01*
X791632Y1188852D01*
X791301Y1188670D01*
X790966Y1188496D01*
X790626Y1188330D01*
X790283Y1188173D01*
X789935Y1188024D01*
X789585Y1187884D01*
X789230Y1187752D01*
X788873Y1187629D01*
X788513Y1187515D01*
X788150Y1187410D01*
X787784Y1187313D01*
X787417Y1187226D01*
X787047Y1187148D01*
X786676Y1187079D01*
X786302Y1187019D01*
X785928Y1186968D01*
X785552Y1186926D01*
X785176Y1186894D01*
X784799Y1186871D01*
X784421Y1186857D01*
X784043Y1186852D01*
X784043Y1186853D02*
X753250Y1186853D01*
X753250Y1186852D02*
X752878Y1186856D01*
X752506Y1186870D01*
X752135Y1186892D01*
X751764Y1186924D01*
X751394Y1186964D01*
X751025Y1187014D01*
X750658Y1187072D01*
X750292Y1187139D01*
X749928Y1187215D01*
X749565Y1187299D01*
X749205Y1187393D01*
X748847Y1187495D01*
X748492Y1187606D01*
X748140Y1187725D01*
X747790Y1187853D01*
X747444Y1187989D01*
X747101Y1188133D01*
X746762Y1188286D01*
X746426Y1188447D01*
X746095Y1188616D01*
X745767Y1188793D01*
X745444Y1188977D01*
X745126Y1189170D01*
X744812Y1189370D01*
X744504Y1189578D01*
X744200Y1189793D01*
X743902Y1190015D01*
X743609Y1190244D01*
X743321Y1190481D01*
X743040Y1190724D01*
X742764Y1190974D01*
X742495Y1191231D01*
X742232Y1191494D01*
X741975Y1191763D01*
X741725Y1192039D01*
X741482Y1192320D01*
X741245Y1192608D01*
X741016Y1192901D01*
X740794Y1193199D01*
X740579Y1193503D01*
X740371Y1193811D01*
X740171Y1194125D01*
X739978Y1194443D01*
X739794Y1194766D01*
X739617Y1195094D01*
X739448Y1195425D01*
X739287Y1195761D01*
X739134Y1196100D01*
X738990Y1196443D01*
X738854Y1196789D01*
X738726Y1197139D01*
X738607Y1197491D01*
X738496Y1197846D01*
X738394Y1198204D01*
X738300Y1198564D01*
X738216Y1198927D01*
X738140Y1199291D01*
X738073Y1199657D01*
X738015Y1200024D01*
X737965Y1200393D01*
X737925Y1200763D01*
X737893Y1201134D01*
X737871Y1201505D01*
X737857Y1201877D01*
X737853Y1202249D01*
X737853Y1222778D01*
X737853Y1248172D02*
X737853Y1278965D01*
X707060Y1258437D02*
X784043Y1258437D01*
X784415Y1258441D01*
X784787Y1258455D01*
X785158Y1258477D01*
X785529Y1258509D01*
X785899Y1258549D01*
X786268Y1258599D01*
X786635Y1258657D01*
X787001Y1258724D01*
X787365Y1258800D01*
X787728Y1258884D01*
X788088Y1258978D01*
X788445Y1259080D01*
X788801Y1259191D01*
X789153Y1259310D01*
X789503Y1259438D01*
X789849Y1259574D01*
X790192Y1259718D01*
X790531Y1259871D01*
X790866Y1260032D01*
X791198Y1260201D01*
X791525Y1260377D01*
X791848Y1260562D01*
X792167Y1260755D01*
X792480Y1260955D01*
X792789Y1261162D01*
X793093Y1261377D01*
X793391Y1261600D01*
X793684Y1261829D01*
X793971Y1262066D01*
X794253Y1262309D01*
X794528Y1262559D01*
X794797Y1262816D01*
X795060Y1263079D01*
X795317Y1263348D01*
X795567Y1263624D01*
X795811Y1263905D01*
X796047Y1264192D01*
X796276Y1264485D01*
X796499Y1264784D01*
X796714Y1265087D01*
X796921Y1265396D01*
X797122Y1265710D01*
X797314Y1266028D01*
X797499Y1266351D01*
X797676Y1266678D01*
X797844Y1267010D01*
X798005Y1267345D01*
X798158Y1267685D01*
X798302Y1268027D01*
X798439Y1268374D01*
X798566Y1268723D01*
X798686Y1269076D01*
X798796Y1269431D01*
X798898Y1269789D01*
X798992Y1270149D01*
X799076Y1270511D01*
X799152Y1270875D01*
X799219Y1271241D01*
X799277Y1271609D01*
X799327Y1271978D01*
X799367Y1272347D01*
X799399Y1272718D01*
X799421Y1273089D01*
X799435Y1273461D01*
X799439Y1273833D01*
X799440Y1273833D02*
X799440Y1278965D01*
X799440Y1312278D02*
X737853Y1312278D01*
X712193Y1309713D02*
X707060Y1309713D01*
X707060Y1314845D01*
X712193Y1314845D01*
X712193Y1309713D01*
X722457Y1353708D02*
X799440Y1353708D01*
X722457Y1353708D02*
X722079Y1353713D01*
X721702Y1353727D01*
X721324Y1353750D01*
X720948Y1353782D01*
X720572Y1353824D01*
X720198Y1353875D01*
X719825Y1353935D01*
X719453Y1354004D01*
X719084Y1354082D01*
X718716Y1354169D01*
X718350Y1354266D01*
X717988Y1354371D01*
X717627Y1354485D01*
X717270Y1354608D01*
X716916Y1354740D01*
X716565Y1354880D01*
X716218Y1355029D01*
X715874Y1355186D01*
X715534Y1355352D01*
X715199Y1355526D01*
X714868Y1355708D01*
X714541Y1355898D01*
X714220Y1356097D01*
X713903Y1356303D01*
X713591Y1356517D01*
X713285Y1356738D01*
X712984Y1356967D01*
X712689Y1357203D01*
X712400Y1357446D01*
X712117Y1357696D01*
X711840Y1357954D01*
X711570Y1358218D01*
X711306Y1358488D01*
X711049Y1358765D01*
X710798Y1359048D01*
X710555Y1359337D01*
X710319Y1359632D01*
X710090Y1359933D01*
X709869Y1360239D01*
X709655Y1360551D01*
X709449Y1360867D01*
X709251Y1361189D01*
X709060Y1361516D01*
X708878Y1361847D01*
X708704Y1362182D01*
X708538Y1362522D01*
X708381Y1362865D01*
X708232Y1363213D01*
X708092Y1363563D01*
X707960Y1363918D01*
X707837Y1364275D01*
X707723Y1364635D01*
X707618Y1364998D01*
X707521Y1365364D01*
X707434Y1365731D01*
X707356Y1366101D01*
X707287Y1366472D01*
X707227Y1366846D01*
X707176Y1367220D01*
X707134Y1367596D01*
X707102Y1367972D01*
X707079Y1368349D01*
X707065Y1368727D01*
X707060Y1369105D01*
X707060Y1374237D01*
X737853Y1374237D02*
X737853Y1343444D01*
X737853Y1399278D02*
X799440Y1399278D01*
X712193Y1396712D02*
X707060Y1396712D01*
X707060Y1401844D01*
X712193Y1401844D01*
X712193Y1396712D01*
X799440Y1451146D02*
X799440Y1476807D01*
X799440Y1451146D02*
X799435Y1450768D01*
X799421Y1450391D01*
X799398Y1450013D01*
X799366Y1449637D01*
X799324Y1449261D01*
X799273Y1448887D01*
X799213Y1448514D01*
X799144Y1448142D01*
X799066Y1447773D01*
X798979Y1447405D01*
X798882Y1447039D01*
X798777Y1446677D01*
X798663Y1446316D01*
X798540Y1445959D01*
X798408Y1445605D01*
X798268Y1445254D01*
X798119Y1444907D01*
X797962Y1444563D01*
X797796Y1444223D01*
X797622Y1443888D01*
X797440Y1443557D01*
X797250Y1443230D01*
X797051Y1442909D01*
X796845Y1442592D01*
X796631Y1442280D01*
X796410Y1441974D01*
X796181Y1441673D01*
X795945Y1441378D01*
X795702Y1441089D01*
X795452Y1440806D01*
X795194Y1440529D01*
X794930Y1440259D01*
X794660Y1439995D01*
X794383Y1439738D01*
X794100Y1439487D01*
X793811Y1439244D01*
X793516Y1439008D01*
X793215Y1438779D01*
X792909Y1438558D01*
X792597Y1438344D01*
X792281Y1438138D01*
X791959Y1437940D01*
X791632Y1437749D01*
X791301Y1437567D01*
X790966Y1437393D01*
X790626Y1437227D01*
X790283Y1437070D01*
X789935Y1436921D01*
X789585Y1436781D01*
X789230Y1436649D01*
X788873Y1436526D01*
X788513Y1436412D01*
X788150Y1436307D01*
X787784Y1436210D01*
X787417Y1436123D01*
X787047Y1436045D01*
X786676Y1435976D01*
X786302Y1435916D01*
X785928Y1435865D01*
X785552Y1435823D01*
X785176Y1435791D01*
X784799Y1435768D01*
X784421Y1435754D01*
X784043Y1435749D01*
X758383Y1435749D01*
X757883Y1435755D01*
X757383Y1435773D01*
X756884Y1435804D01*
X756386Y1435846D01*
X755889Y1435901D01*
X755394Y1435968D01*
X754900Y1436047D01*
X754409Y1436137D01*
X753919Y1436240D01*
X753433Y1436355D01*
X752949Y1436481D01*
X752469Y1436619D01*
X751992Y1436769D01*
X751518Y1436931D01*
X751049Y1437104D01*
X750585Y1437288D01*
X750125Y1437483D01*
X749669Y1437690D01*
X749219Y1437908D01*
X748775Y1438136D01*
X748336Y1438376D01*
X747903Y1438626D01*
X747476Y1438886D01*
X747056Y1439157D01*
X746642Y1439438D01*
X746236Y1439729D01*
X745836Y1440029D01*
X745444Y1440340D01*
X745060Y1440660D01*
X744684Y1440989D01*
X744315Y1441327D01*
X743955Y1441674D01*
X743604Y1442029D01*
X743262Y1442393D01*
X742928Y1442766D01*
X742603Y1443146D01*
X742288Y1443534D01*
X741983Y1443930D01*
X741687Y1444333D01*
X741401Y1444743D01*
X741125Y1445160D01*
X740860Y1445584D01*
X740604Y1446014D01*
X740360Y1446449D01*
X740126Y1446891D01*
X739903Y1447339D01*
X739690Y1447791D01*
X739489Y1448249D01*
X739299Y1448711D01*
X739121Y1449178D01*
X738954Y1449650D01*
X738798Y1450125D01*
X738654Y1450603D01*
X738522Y1451086D01*
X738401Y1451571D01*
X738292Y1452059D01*
X738195Y1452549D01*
X738111Y1453042D01*
X738038Y1453536D01*
X737977Y1454033D01*
X737929Y1454530D01*
X737892Y1455029D01*
X737868Y1455528D01*
X737856Y1456028D01*
X737856Y1456528D01*
X737868Y1457028D01*
X737892Y1457527D01*
X737929Y1458026D01*
X737977Y1458523D01*
X738038Y1459020D01*
X738111Y1459514D01*
X738195Y1460007D01*
X738292Y1460497D01*
X738401Y1460985D01*
X738522Y1461470D01*
X738654Y1461953D01*
X738798Y1462431D01*
X738954Y1462906D01*
X739121Y1463378D01*
X739299Y1463845D01*
X739489Y1464307D01*
X739690Y1464765D01*
X739903Y1465217D01*
X740126Y1465665D01*
X740360Y1466107D01*
X740604Y1466543D01*
X740860Y1466972D01*
X741125Y1467396D01*
X741401Y1467813D01*
X741687Y1468223D01*
X741983Y1468626D01*
X742288Y1469022D01*
X742603Y1469410D01*
X742928Y1469790D01*
X743262Y1470163D01*
X743604Y1470527D01*
X743955Y1470882D01*
X744315Y1471229D01*
X744684Y1471567D01*
X745060Y1471896D01*
X745444Y1472216D01*
X745836Y1472527D01*
X746236Y1472827D01*
X746642Y1473118D01*
X747056Y1473399D01*
X747476Y1473670D01*
X747903Y1473930D01*
X748336Y1474180D01*
X748775Y1474420D01*
X749219Y1474648D01*
X749669Y1474866D01*
X750125Y1475073D01*
X750585Y1475268D01*
X751049Y1475452D01*
X751518Y1475625D01*
X751992Y1475787D01*
X752469Y1475937D01*
X752949Y1476075D01*
X753433Y1476201D01*
X753919Y1476316D01*
X754409Y1476419D01*
X754900Y1476509D01*
X755394Y1476588D01*
X755889Y1476655D01*
X756386Y1476710D01*
X756884Y1476752D01*
X757383Y1476783D01*
X757883Y1476801D01*
X758383Y1476807D01*
X768647Y1476807D01*
X768647Y1435749D01*
X799440Y1517259D02*
X737853Y1517259D01*
X737853Y1548053D01*
X748118Y1548053D01*
X619603Y2934655D02*
X681190Y2955184D01*
X619603Y2975713D01*
X676058Y3006618D02*
X681190Y3006618D01*
X676058Y3006618D02*
X676058Y3011750D01*
X681190Y3011750D01*
X681190Y3006618D01*
X611905Y3097845D02*
X611338Y3097838D01*
X610772Y3097817D01*
X610206Y3097782D01*
X609641Y3097734D01*
X609078Y3097671D01*
X608516Y3097595D01*
X607957Y3097505D01*
X607399Y3097401D01*
X606845Y3097284D01*
X606293Y3097153D01*
X605745Y3097008D01*
X605201Y3096851D01*
X604660Y3096679D01*
X604124Y3096495D01*
X603593Y3096297D01*
X603067Y3096087D01*
X602546Y3095864D01*
X602030Y3095628D01*
X601521Y3095379D01*
X601018Y3095118D01*
X600521Y3094845D01*
X600031Y3094559D01*
X599549Y3094262D01*
X599074Y3093953D01*
X598606Y3093632D01*
X598147Y3093300D01*
X597696Y3092957D01*
X597253Y3092603D01*
X596820Y3092238D01*
X596395Y3091862D01*
X595980Y3091476D01*
X595574Y3091081D01*
X595178Y3090675D01*
X594792Y3090260D01*
X594417Y3089835D01*
X594052Y3089401D01*
X593698Y3088959D01*
X593354Y3088508D01*
X593022Y3088048D01*
X592702Y3087581D01*
X592392Y3087106D01*
X592095Y3086623D01*
X591810Y3086133D01*
X591536Y3085637D01*
X591275Y3085134D01*
X591027Y3084624D01*
X590791Y3084109D01*
X590567Y3083588D01*
X590357Y3083062D01*
X590159Y3082530D01*
X589975Y3081994D01*
X589804Y3081454D01*
X589646Y3080909D01*
X589501Y3080361D01*
X589370Y3079810D01*
X589253Y3079255D01*
X589149Y3078698D01*
X589059Y3078138D01*
X588983Y3077577D01*
X588920Y3077013D01*
X588872Y3076449D01*
X588837Y3075883D01*
X588816Y3075316D01*
X588809Y3074750D01*
X588810Y3074750D02*
X588819Y3074032D01*
X588845Y3073315D01*
X588888Y3072599D01*
X588949Y3071884D01*
X589027Y3071171D01*
X589122Y3070460D01*
X589234Y3069751D01*
X589363Y3069045D01*
X589510Y3068343D01*
X589673Y3067644D01*
X589854Y3066949D01*
X590051Y3066259D01*
X590264Y3065574D01*
X590494Y3064895D01*
X590741Y3064221D01*
X591003Y3063553D01*
X591282Y3062892D01*
X591577Y3062238D01*
X591887Y3061591D01*
X592213Y3060952D01*
X592555Y3060320D01*
X592911Y3059698D01*
X593283Y3059084D01*
X593669Y3058479D01*
X594070Y3057884D01*
X594485Y3057298D01*
X594914Y3056723D01*
X595356Y3056159D01*
X595813Y3055605D01*
X596282Y3055062D01*
X596765Y3054531D01*
X597260Y3054012D01*
X597768Y3053505D01*
X598288Y3053010D01*
X598819Y3052529D01*
X599363Y3052060D01*
X599917Y3051604D01*
X600482Y3051162D01*
X601058Y3050733D01*
X601644Y3050319D01*
X602239Y3049919D01*
X602844Y3049534D01*
X603459Y3049163D01*
X604082Y3048807D01*
X604714Y3048467D01*
X605353Y3048141D01*
X606001Y3047832D01*
X606655Y3047538D01*
X607317Y3047260D01*
X607985Y3046998D01*
X608659Y3046752D01*
X609339Y3046523D01*
X629868Y3090147D02*
X629442Y3090582D01*
X629007Y3091007D01*
X628561Y3091421D01*
X628105Y3091825D01*
X627639Y3092216D01*
X627164Y3092597D01*
X626679Y3092965D01*
X626186Y3093322D01*
X625684Y3093666D01*
X625174Y3093998D01*
X624655Y3094317D01*
X624129Y3094624D01*
X623596Y3094917D01*
X623056Y3095197D01*
X622509Y3095464D01*
X621955Y3095718D01*
X621396Y3095957D01*
X620831Y3096183D01*
X620260Y3096396D01*
X619685Y3096593D01*
X619104Y3096777D01*
X618520Y3096947D01*
X617931Y3097102D01*
X617339Y3097243D01*
X616743Y3097369D01*
X616145Y3097480D01*
X615544Y3097577D01*
X614941Y3097659D01*
X614336Y3097726D01*
X613729Y3097778D01*
X613122Y3097815D01*
X612514Y3097838D01*
X611905Y3097845D01*
X629868Y3090146D02*
X681190Y3046523D01*
X681190Y3097845D01*
X522440Y2871779D02*
X522440Y2846118D01*
X522435Y2845740D01*
X522421Y2845363D01*
X522398Y2844985D01*
X522366Y2844609D01*
X522324Y2844233D01*
X522273Y2843859D01*
X522213Y2843486D01*
X522144Y2843114D01*
X522066Y2842745D01*
X521979Y2842377D01*
X521882Y2842011D01*
X521777Y2841649D01*
X521663Y2841288D01*
X521540Y2840931D01*
X521408Y2840577D01*
X521268Y2840226D01*
X521119Y2839879D01*
X520962Y2839535D01*
X520796Y2839195D01*
X520622Y2838860D01*
X520440Y2838529D01*
X520250Y2838202D01*
X520051Y2837881D01*
X519845Y2837564D01*
X519631Y2837252D01*
X519410Y2836946D01*
X519181Y2836645D01*
X518945Y2836350D01*
X518702Y2836061D01*
X518452Y2835778D01*
X518194Y2835501D01*
X517930Y2835231D01*
X517660Y2834967D01*
X517383Y2834710D01*
X517100Y2834459D01*
X516811Y2834216D01*
X516516Y2833980D01*
X516215Y2833751D01*
X515909Y2833530D01*
X515597Y2833316D01*
X515281Y2833110D01*
X514959Y2832912D01*
X514632Y2832721D01*
X514301Y2832539D01*
X513966Y2832365D01*
X513626Y2832199D01*
X513283Y2832042D01*
X512935Y2831893D01*
X512585Y2831753D01*
X512230Y2831621D01*
X511873Y2831498D01*
X511513Y2831384D01*
X511150Y2831279D01*
X510784Y2831182D01*
X510417Y2831095D01*
X510047Y2831017D01*
X509676Y2830948D01*
X509302Y2830888D01*
X508928Y2830837D01*
X508552Y2830795D01*
X508176Y2830763D01*
X507799Y2830740D01*
X507421Y2830726D01*
X507043Y2830721D01*
X507043Y2830722D02*
X481383Y2830722D01*
X481383Y2830721D02*
X480883Y2830727D01*
X480383Y2830745D01*
X479884Y2830776D01*
X479386Y2830818D01*
X478889Y2830873D01*
X478394Y2830940D01*
X477900Y2831019D01*
X477409Y2831109D01*
X476919Y2831212D01*
X476433Y2831327D01*
X475949Y2831453D01*
X475469Y2831591D01*
X474992Y2831741D01*
X474518Y2831903D01*
X474049Y2832076D01*
X473585Y2832260D01*
X473125Y2832455D01*
X472669Y2832662D01*
X472219Y2832880D01*
X471775Y2833108D01*
X471336Y2833348D01*
X470903Y2833598D01*
X470476Y2833858D01*
X470056Y2834129D01*
X469642Y2834410D01*
X469236Y2834701D01*
X468836Y2835001D01*
X468444Y2835312D01*
X468060Y2835632D01*
X467684Y2835961D01*
X467315Y2836299D01*
X466955Y2836646D01*
X466604Y2837001D01*
X466262Y2837365D01*
X465928Y2837738D01*
X465603Y2838118D01*
X465288Y2838506D01*
X464983Y2838902D01*
X464687Y2839305D01*
X464401Y2839715D01*
X464125Y2840132D01*
X463860Y2840556D01*
X463604Y2840986D01*
X463360Y2841421D01*
X463126Y2841863D01*
X462903Y2842311D01*
X462690Y2842763D01*
X462489Y2843221D01*
X462299Y2843683D01*
X462121Y2844150D01*
X461954Y2844622D01*
X461798Y2845097D01*
X461654Y2845575D01*
X461522Y2846058D01*
X461401Y2846543D01*
X461292Y2847031D01*
X461195Y2847521D01*
X461111Y2848014D01*
X461038Y2848508D01*
X460977Y2849005D01*
X460929Y2849502D01*
X460892Y2850001D01*
X460868Y2850500D01*
X460856Y2851000D01*
X460856Y2851500D01*
X460868Y2852000D01*
X460892Y2852499D01*
X460929Y2852998D01*
X460977Y2853495D01*
X461038Y2853992D01*
X461111Y2854486D01*
X461195Y2854979D01*
X461292Y2855469D01*
X461401Y2855957D01*
X461522Y2856442D01*
X461654Y2856925D01*
X461798Y2857403D01*
X461954Y2857878D01*
X462121Y2858350D01*
X462299Y2858817D01*
X462489Y2859279D01*
X462690Y2859737D01*
X462903Y2860189D01*
X463126Y2860637D01*
X463360Y2861079D01*
X463604Y2861515D01*
X463860Y2861944D01*
X464125Y2862368D01*
X464401Y2862785D01*
X464687Y2863195D01*
X464983Y2863598D01*
X465288Y2863994D01*
X465603Y2864382D01*
X465928Y2864762D01*
X466262Y2865135D01*
X466604Y2865499D01*
X466955Y2865854D01*
X467315Y2866201D01*
X467684Y2866539D01*
X468060Y2866868D01*
X468444Y2867188D01*
X468836Y2867499D01*
X469236Y2867799D01*
X469642Y2868090D01*
X470056Y2868371D01*
X470476Y2868642D01*
X470903Y2868902D01*
X471336Y2869152D01*
X471775Y2869392D01*
X472219Y2869620D01*
X472669Y2869838D01*
X473125Y2870045D01*
X473585Y2870240D01*
X474049Y2870424D01*
X474518Y2870597D01*
X474992Y2870759D01*
X475469Y2870909D01*
X475949Y2871047D01*
X476433Y2871173D01*
X476919Y2871288D01*
X477409Y2871391D01*
X477900Y2871481D01*
X478394Y2871560D01*
X478889Y2871627D01*
X479386Y2871682D01*
X479884Y2871724D01*
X480383Y2871755D01*
X480883Y2871773D01*
X481383Y2871779D01*
X491647Y2871779D01*
X491647Y2830722D01*
X460853Y2906732D02*
X537837Y2906732D01*
X538209Y2906728D01*
X538581Y2906714D01*
X538952Y2906692D01*
X539323Y2906660D01*
X539693Y2906620D01*
X540062Y2906570D01*
X540429Y2906512D01*
X540795Y2906445D01*
X541159Y2906369D01*
X541522Y2906285D01*
X541882Y2906191D01*
X542240Y2906089D01*
X542595Y2905978D01*
X542947Y2905859D01*
X543297Y2905731D01*
X543643Y2905595D01*
X543986Y2905451D01*
X544325Y2905298D01*
X544661Y2905137D01*
X544992Y2904968D01*
X545320Y2904791D01*
X545643Y2904607D01*
X545961Y2904414D01*
X546275Y2904214D01*
X546583Y2904006D01*
X546887Y2903791D01*
X547185Y2903569D01*
X547478Y2903340D01*
X547766Y2903103D01*
X548047Y2902860D01*
X548323Y2902610D01*
X548592Y2902353D01*
X548855Y2902090D01*
X549112Y2901821D01*
X549362Y2901545D01*
X549605Y2901264D01*
X549842Y2900976D01*
X550071Y2900683D01*
X550293Y2900385D01*
X550508Y2900081D01*
X550716Y2899773D01*
X550916Y2899459D01*
X551109Y2899141D01*
X551293Y2898818D01*
X551470Y2898490D01*
X551639Y2898159D01*
X551800Y2897823D01*
X551953Y2897484D01*
X552097Y2897141D01*
X552233Y2896795D01*
X552361Y2896445D01*
X552480Y2896093D01*
X552591Y2895738D01*
X552693Y2895380D01*
X552787Y2895020D01*
X552871Y2894657D01*
X552947Y2894293D01*
X553014Y2893927D01*
X553072Y2893560D01*
X553122Y2893191D01*
X553162Y2892821D01*
X553194Y2892450D01*
X553216Y2892079D01*
X553230Y2891707D01*
X553234Y2891335D01*
X553233Y2891335D02*
X553233Y2886203D01*
X435193Y2904165D02*
X430060Y2904165D01*
X430060Y2909298D01*
X435193Y2909298D01*
X435193Y2904165D01*
X481383Y2944722D02*
X501911Y2944722D01*
X481383Y2944721D02*
X480883Y2944727D01*
X480383Y2944745D01*
X479884Y2944776D01*
X479386Y2944818D01*
X478889Y2944873D01*
X478394Y2944940D01*
X477900Y2945019D01*
X477409Y2945109D01*
X476919Y2945212D01*
X476433Y2945327D01*
X475949Y2945453D01*
X475469Y2945591D01*
X474992Y2945741D01*
X474518Y2945903D01*
X474049Y2946076D01*
X473585Y2946260D01*
X473125Y2946455D01*
X472669Y2946662D01*
X472219Y2946880D01*
X471775Y2947108D01*
X471336Y2947348D01*
X470903Y2947598D01*
X470476Y2947858D01*
X470056Y2948129D01*
X469642Y2948410D01*
X469236Y2948701D01*
X468836Y2949001D01*
X468444Y2949312D01*
X468060Y2949632D01*
X467684Y2949961D01*
X467315Y2950299D01*
X466955Y2950646D01*
X466604Y2951001D01*
X466262Y2951365D01*
X465928Y2951738D01*
X465603Y2952118D01*
X465288Y2952506D01*
X464983Y2952902D01*
X464687Y2953305D01*
X464401Y2953715D01*
X464125Y2954132D01*
X463860Y2954556D01*
X463604Y2954986D01*
X463360Y2955421D01*
X463126Y2955863D01*
X462903Y2956311D01*
X462690Y2956763D01*
X462489Y2957221D01*
X462299Y2957683D01*
X462121Y2958150D01*
X461954Y2958622D01*
X461798Y2959097D01*
X461654Y2959575D01*
X461522Y2960058D01*
X461401Y2960543D01*
X461292Y2961031D01*
X461195Y2961521D01*
X461111Y2962014D01*
X461038Y2962508D01*
X460977Y2963005D01*
X460929Y2963502D01*
X460892Y2964001D01*
X460868Y2964500D01*
X460856Y2965000D01*
X460856Y2965500D01*
X460868Y2966000D01*
X460892Y2966499D01*
X460929Y2966998D01*
X460977Y2967495D01*
X461038Y2967992D01*
X461111Y2968486D01*
X461195Y2968979D01*
X461292Y2969469D01*
X461401Y2969957D01*
X461522Y2970442D01*
X461654Y2970925D01*
X461798Y2971403D01*
X461954Y2971878D01*
X462121Y2972350D01*
X462299Y2972817D01*
X462489Y2973279D01*
X462690Y2973737D01*
X462903Y2974189D01*
X463126Y2974637D01*
X463360Y2975079D01*
X463604Y2975515D01*
X463860Y2975944D01*
X464125Y2976368D01*
X464401Y2976785D01*
X464687Y2977195D01*
X464983Y2977598D01*
X465288Y2977994D01*
X465603Y2978382D01*
X465928Y2978762D01*
X466262Y2979135D01*
X466604Y2979499D01*
X466955Y2979854D01*
X467315Y2980201D01*
X467684Y2980539D01*
X468060Y2980868D01*
X468444Y2981188D01*
X468836Y2981499D01*
X469236Y2981799D01*
X469642Y2982090D01*
X470056Y2982371D01*
X470476Y2982642D01*
X470903Y2982902D01*
X471336Y2983152D01*
X471775Y2983392D01*
X472219Y2983620D01*
X472669Y2983838D01*
X473125Y2984045D01*
X473585Y2984240D01*
X474049Y2984424D01*
X474518Y2984597D01*
X474992Y2984759D01*
X475469Y2984909D01*
X475949Y2985047D01*
X476433Y2985173D01*
X476919Y2985288D01*
X477409Y2985391D01*
X477900Y2985481D01*
X478394Y2985560D01*
X478889Y2985627D01*
X479386Y2985682D01*
X479884Y2985724D01*
X480383Y2985755D01*
X480883Y2985773D01*
X481383Y2985779D01*
X501911Y2985779D01*
X502411Y2985773D01*
X502911Y2985755D01*
X503410Y2985724D01*
X503908Y2985682D01*
X504405Y2985627D01*
X504900Y2985560D01*
X505394Y2985481D01*
X505885Y2985391D01*
X506375Y2985288D01*
X506861Y2985173D01*
X507345Y2985047D01*
X507825Y2984909D01*
X508302Y2984759D01*
X508776Y2984597D01*
X509245Y2984424D01*
X509709Y2984240D01*
X510169Y2984045D01*
X510625Y2983838D01*
X511075Y2983620D01*
X511519Y2983392D01*
X511958Y2983152D01*
X512391Y2982902D01*
X512818Y2982642D01*
X513238Y2982371D01*
X513652Y2982090D01*
X514058Y2981799D01*
X514458Y2981499D01*
X514850Y2981188D01*
X515234Y2980868D01*
X515610Y2980539D01*
X515979Y2980201D01*
X516339Y2979854D01*
X516690Y2979499D01*
X517032Y2979135D01*
X517366Y2978762D01*
X517691Y2978382D01*
X518006Y2977994D01*
X518311Y2977598D01*
X518607Y2977195D01*
X518893Y2976785D01*
X519169Y2976368D01*
X519434Y2975944D01*
X519690Y2975515D01*
X519934Y2975079D01*
X520168Y2974637D01*
X520391Y2974189D01*
X520604Y2973737D01*
X520805Y2973279D01*
X520995Y2972817D01*
X521173Y2972350D01*
X521340Y2971878D01*
X521496Y2971403D01*
X521640Y2970925D01*
X521772Y2970442D01*
X521893Y2969957D01*
X522002Y2969469D01*
X522099Y2968979D01*
X522183Y2968486D01*
X522256Y2967992D01*
X522317Y2967495D01*
X522365Y2966998D01*
X522402Y2966499D01*
X522426Y2966000D01*
X522438Y2965500D01*
X522438Y2965000D01*
X522426Y2964500D01*
X522402Y2964001D01*
X522365Y2963502D01*
X522317Y2963005D01*
X522256Y2962508D01*
X522183Y2962014D01*
X522099Y2961521D01*
X522002Y2961031D01*
X521893Y2960543D01*
X521772Y2960058D01*
X521640Y2959575D01*
X521496Y2959097D01*
X521340Y2958622D01*
X521173Y2958150D01*
X520995Y2957683D01*
X520805Y2957221D01*
X520604Y2956763D01*
X520391Y2956311D01*
X520168Y2955863D01*
X519934Y2955421D01*
X519690Y2954986D01*
X519434Y2954556D01*
X519169Y2954132D01*
X518893Y2953715D01*
X518607Y2953305D01*
X518311Y2952902D01*
X518006Y2952506D01*
X517691Y2952118D01*
X517366Y2951738D01*
X517032Y2951365D01*
X516690Y2951001D01*
X516339Y2950646D01*
X515979Y2950299D01*
X515610Y2949961D01*
X515234Y2949632D01*
X514850Y2949312D01*
X514458Y2949001D01*
X514058Y2948701D01*
X513652Y2948410D01*
X513238Y2948129D01*
X512818Y2947858D01*
X512391Y2947598D01*
X511958Y2947348D01*
X511519Y2947108D01*
X511075Y2946880D01*
X510625Y2946662D01*
X510169Y2946455D01*
X509709Y2946260D01*
X509245Y2946076D01*
X508776Y2945903D01*
X508302Y2945741D01*
X507825Y2945591D01*
X507345Y2945453D01*
X506861Y2945327D01*
X506375Y2945212D01*
X505885Y2945109D01*
X505394Y2945019D01*
X504900Y2944940D01*
X504405Y2944873D01*
X503908Y2944818D01*
X503410Y2944776D01*
X502911Y2944745D01*
X502411Y2944727D01*
X501911Y2944721D01*
X460853Y3019722D02*
X522440Y3040250D01*
X460853Y3060779D01*
X460853Y3098232D02*
X522440Y3098232D01*
X460853Y3098232D02*
X460853Y3129025D01*
X471118Y3129025D01*
X430060Y3160721D02*
X522440Y3160721D01*
X460853Y3160721D02*
X460853Y3186382D01*
X460854Y3186382D02*
X460858Y3186754D01*
X460872Y3187126D01*
X460894Y3187497D01*
X460926Y3187868D01*
X460966Y3188238D01*
X461016Y3188607D01*
X461074Y3188974D01*
X461141Y3189340D01*
X461217Y3189704D01*
X461301Y3190067D01*
X461395Y3190427D01*
X461497Y3190784D01*
X461608Y3191140D01*
X461727Y3191492D01*
X461855Y3191842D01*
X461991Y3192188D01*
X462135Y3192531D01*
X462288Y3192870D01*
X462449Y3193205D01*
X462618Y3193537D01*
X462794Y3193864D01*
X462979Y3194187D01*
X463172Y3194506D01*
X463372Y3194819D01*
X463579Y3195128D01*
X463794Y3195432D01*
X464017Y3195730D01*
X464246Y3196023D01*
X464483Y3196310D01*
X464726Y3196592D01*
X464976Y3196867D01*
X465233Y3197136D01*
X465496Y3197399D01*
X465765Y3197656D01*
X466041Y3197906D01*
X466322Y3198150D01*
X466609Y3198386D01*
X466902Y3198615D01*
X467201Y3198838D01*
X467504Y3199053D01*
X467813Y3199260D01*
X468127Y3199461D01*
X468445Y3199653D01*
X468768Y3199838D01*
X469095Y3200015D01*
X469427Y3200183D01*
X469762Y3200344D01*
X470102Y3200497D01*
X470444Y3200641D01*
X470791Y3200778D01*
X471140Y3200905D01*
X471493Y3201025D01*
X471848Y3201135D01*
X472206Y3201237D01*
X472566Y3201331D01*
X472928Y3201415D01*
X473292Y3201491D01*
X473658Y3201558D01*
X474026Y3201616D01*
X474395Y3201666D01*
X474764Y3201706D01*
X475135Y3201738D01*
X475506Y3201760D01*
X475878Y3201774D01*
X476250Y3201778D01*
X476250Y3201779D02*
X522440Y3201779D01*
D12*
X1079500Y3365754D02*
X1079500Y3556000D01*
X1079500Y3203194D02*
X1079500Y3012948D01*
X1079500Y2850388D02*
X1079500Y2660142D01*
X1079500Y2497582D02*
X1079500Y2307336D01*
X1079500Y2144776D02*
X1079500Y1954530D01*
X1079500Y1791970D02*
X1079500Y1601724D01*
X1079500Y1439164D02*
X1079500Y1248918D01*
X1079500Y1086358D02*
X1079500Y896112D01*
X1079500Y733552D02*
X1079500Y543306D01*
X1079500Y380746D02*
X1079500Y190500D01*
D13*
X2224413Y2265471D02*
X2347587Y2265471D01*
X2286000Y2203884D02*
X2286000Y2327058D01*
X2224413Y1503471D02*
X2347587Y1503471D01*
D14*
X1642250Y753250D02*
X1642250Y453250D01*
X1342250Y453250D02*
X1342250Y753250D01*
D15*
X1682250Y803250D02*
X1682253Y803495D01*
X1682262Y803741D01*
X1682277Y803986D01*
X1682298Y804230D01*
X1682325Y804474D01*
X1682358Y804717D01*
X1682397Y804960D01*
X1682442Y805201D01*
X1682493Y805441D01*
X1682550Y805680D01*
X1682612Y805917D01*
X1682681Y806153D01*
X1682755Y806387D01*
X1682835Y806619D01*
X1682920Y806849D01*
X1683011Y807077D01*
X1683108Y807302D01*
X1683210Y807526D01*
X1683318Y807746D01*
X1683431Y807964D01*
X1683549Y808179D01*
X1683673Y808391D01*
X1683801Y808600D01*
X1683935Y808806D01*
X1684074Y809008D01*
X1684218Y809207D01*
X1684367Y809402D01*
X1684520Y809594D01*
X1684678Y809782D01*
X1684840Y809966D01*
X1685008Y810145D01*
X1685179Y810321D01*
X1685355Y810492D01*
X1685534Y810660D01*
X1685718Y810822D01*
X1685906Y810980D01*
X1686098Y811133D01*
X1686293Y811282D01*
X1686492Y811426D01*
X1686694Y811565D01*
X1686900Y811699D01*
X1687109Y811827D01*
X1687321Y811951D01*
X1687536Y812069D01*
X1687754Y812182D01*
X1687974Y812290D01*
X1688198Y812392D01*
X1688423Y812489D01*
X1688651Y812580D01*
X1688881Y812665D01*
X1689113Y812745D01*
X1689347Y812819D01*
X1689583Y812888D01*
X1689820Y812950D01*
X1690059Y813007D01*
X1690299Y813058D01*
X1690540Y813103D01*
X1690783Y813142D01*
X1691026Y813175D01*
X1691270Y813202D01*
X1691514Y813223D01*
X1691759Y813238D01*
X1692005Y813247D01*
X1692250Y813250D01*
X1692495Y813247D01*
X1692741Y813238D01*
X1692986Y813223D01*
X1693230Y813202D01*
X1693474Y813175D01*
X1693717Y813142D01*
X1693960Y813103D01*
X1694201Y813058D01*
X1694441Y813007D01*
X1694680Y812950D01*
X1694917Y812888D01*
X1695153Y812819D01*
X1695387Y812745D01*
X1695619Y812665D01*
X1695849Y812580D01*
X1696077Y812489D01*
X1696302Y812392D01*
X1696526Y812290D01*
X1696746Y812182D01*
X1696964Y812069D01*
X1697179Y811951D01*
X1697391Y811827D01*
X1697600Y811699D01*
X1697806Y811565D01*
X1698008Y811426D01*
X1698207Y811282D01*
X1698402Y811133D01*
X1698594Y810980D01*
X1698782Y810822D01*
X1698966Y810660D01*
X1699145Y810492D01*
X1699321Y810321D01*
X1699492Y810145D01*
X1699660Y809966D01*
X1699822Y809782D01*
X1699980Y809594D01*
X1700133Y809402D01*
X1700282Y809207D01*
X1700426Y809008D01*
X1700565Y808806D01*
X1700699Y808600D01*
X1700827Y808391D01*
X1700951Y808179D01*
X1701069Y807964D01*
X1701182Y807746D01*
X1701290Y807526D01*
X1701392Y807302D01*
X1701489Y807077D01*
X1701580Y806849D01*
X1701665Y806619D01*
X1701745Y806387D01*
X1701819Y806153D01*
X1701888Y805917D01*
X1701950Y805680D01*
X1702007Y805441D01*
X1702058Y805201D01*
X1702103Y804960D01*
X1702142Y804717D01*
X1702175Y804474D01*
X1702202Y804230D01*
X1702223Y803986D01*
X1702238Y803741D01*
X1702247Y803495D01*
X1702250Y803250D01*
X1702247Y803005D01*
X1702238Y802759D01*
X1702223Y802514D01*
X1702202Y802270D01*
X1702175Y802026D01*
X1702142Y801783D01*
X1702103Y801540D01*
X1702058Y801299D01*
X1702007Y801059D01*
X1701950Y800820D01*
X1701888Y800583D01*
X1701819Y800347D01*
X1701745Y800113D01*
X1701665Y799881D01*
X1701580Y799651D01*
X1701489Y799423D01*
X1701392Y799198D01*
X1701290Y798974D01*
X1701182Y798754D01*
X1701069Y798536D01*
X1700951Y798321D01*
X1700827Y798109D01*
X1700699Y797900D01*
X1700565Y797694D01*
X1700426Y797492D01*
X1700282Y797293D01*
X1700133Y797098D01*
X1699980Y796906D01*
X1699822Y796718D01*
X1699660Y796534D01*
X1699492Y796355D01*
X1699321Y796179D01*
X1699145Y796008D01*
X1698966Y795840D01*
X1698782Y795678D01*
X1698594Y795520D01*
X1698402Y795367D01*
X1698207Y795218D01*
X1698008Y795074D01*
X1697806Y794935D01*
X1697600Y794801D01*
X1697391Y794673D01*
X1697179Y794549D01*
X1696964Y794431D01*
X1696746Y794318D01*
X1696526Y794210D01*
X1696302Y794108D01*
X1696077Y794011D01*
X1695849Y793920D01*
X1695619Y793835D01*
X1695387Y793755D01*
X1695153Y793681D01*
X1694917Y793612D01*
X1694680Y793550D01*
X1694441Y793493D01*
X1694201Y793442D01*
X1693960Y793397D01*
X1693717Y793358D01*
X1693474Y793325D01*
X1693230Y793298D01*
X1692986Y793277D01*
X1692741Y793262D01*
X1692495Y793253D01*
X1692250Y793250D01*
X1692005Y793253D01*
X1691759Y793262D01*
X1691514Y793277D01*
X1691270Y793298D01*
X1691026Y793325D01*
X1690783Y793358D01*
X1690540Y793397D01*
X1690299Y793442D01*
X1690059Y793493D01*
X1689820Y793550D01*
X1689583Y793612D01*
X1689347Y793681D01*
X1689113Y793755D01*
X1688881Y793835D01*
X1688651Y793920D01*
X1688423Y794011D01*
X1688198Y794108D01*
X1687974Y794210D01*
X1687754Y794318D01*
X1687536Y794431D01*
X1687321Y794549D01*
X1687109Y794673D01*
X1686900Y794801D01*
X1686694Y794935D01*
X1686492Y795074D01*
X1686293Y795218D01*
X1686098Y795367D01*
X1685906Y795520D01*
X1685718Y795678D01*
X1685534Y795840D01*
X1685355Y796008D01*
X1685179Y796179D01*
X1685008Y796355D01*
X1684840Y796534D01*
X1684678Y796718D01*
X1684520Y796906D01*
X1684367Y797098D01*
X1684218Y797293D01*
X1684074Y797492D01*
X1683935Y797694D01*
X1683801Y797900D01*
X1683673Y798109D01*
X1683549Y798321D01*
X1683431Y798536D01*
X1683318Y798754D01*
X1683210Y798974D01*
X1683108Y799198D01*
X1683011Y799423D01*
X1682920Y799651D01*
X1682835Y799881D01*
X1682755Y800113D01*
X1682681Y800347D01*
X1682612Y800583D01*
X1682550Y800820D01*
X1682493Y801059D01*
X1682442Y801299D01*
X1682397Y801540D01*
X1682358Y801783D01*
X1682325Y802026D01*
X1682298Y802270D01*
X1682277Y802514D01*
X1682262Y802759D01*
X1682253Y803005D01*
X1682250Y803250D01*
D11*
X1301940Y522052D02*
X1209560Y522052D01*
X1301940Y511788D02*
X1301940Y532316D01*
X1209560Y532316D02*
X1209560Y511788D01*
X1301940Y588664D02*
X1301940Y609193D01*
X1301940Y588664D02*
X1301934Y588168D01*
X1301916Y587672D01*
X1301886Y587177D01*
X1301844Y586683D01*
X1301790Y586190D01*
X1301725Y585698D01*
X1301647Y585208D01*
X1301558Y584720D01*
X1301456Y584234D01*
X1301343Y583751D01*
X1301219Y583271D01*
X1301083Y582794D01*
X1300935Y582320D01*
X1300776Y581850D01*
X1300606Y581384D01*
X1300424Y580923D01*
X1300232Y580465D01*
X1300028Y580013D01*
X1299814Y579566D01*
X1299589Y579124D01*
X1299353Y578687D01*
X1299106Y578257D01*
X1298850Y577832D01*
X1298583Y577414D01*
X1298306Y577002D01*
X1298019Y576597D01*
X1297723Y576200D01*
X1297417Y575809D01*
X1297102Y575426D01*
X1296777Y575051D01*
X1296444Y574683D01*
X1296102Y574324D01*
X1295751Y573973D01*
X1295392Y573631D01*
X1295024Y573298D01*
X1294649Y572973D01*
X1294266Y572658D01*
X1293875Y572352D01*
X1293478Y572056D01*
X1293073Y571769D01*
X1292661Y571492D01*
X1292243Y571225D01*
X1291818Y570969D01*
X1291388Y570722D01*
X1290951Y570486D01*
X1290509Y570261D01*
X1290062Y570047D01*
X1289610Y569843D01*
X1289152Y569651D01*
X1288691Y569469D01*
X1288225Y569299D01*
X1287755Y569140D01*
X1287281Y568992D01*
X1286804Y568856D01*
X1286324Y568732D01*
X1285841Y568619D01*
X1285355Y568517D01*
X1284867Y568428D01*
X1284377Y568350D01*
X1283885Y568285D01*
X1283392Y568231D01*
X1282898Y568189D01*
X1282403Y568159D01*
X1281907Y568141D01*
X1281411Y568135D01*
X1281411Y568136D02*
X1230089Y568136D01*
X1229585Y568142D01*
X1229082Y568161D01*
X1228579Y568192D01*
X1228077Y568235D01*
X1227576Y568290D01*
X1227077Y568358D01*
X1226579Y568438D01*
X1226084Y568530D01*
X1225591Y568635D01*
X1225101Y568751D01*
X1224614Y568880D01*
X1224130Y569020D01*
X1223650Y569172D01*
X1223173Y569336D01*
X1222701Y569512D01*
X1222233Y569699D01*
X1221770Y569897D01*
X1221312Y570107D01*
X1220859Y570328D01*
X1220412Y570560D01*
X1219970Y570803D01*
X1219535Y571057D01*
X1219106Y571321D01*
X1218684Y571596D01*
X1218268Y571881D01*
X1217860Y572176D01*
X1217459Y572481D01*
X1217066Y572796D01*
X1216680Y573120D01*
X1216303Y573454D01*
X1215934Y573797D01*
X1215573Y574149D01*
X1215221Y574509D01*
X1214878Y574878D01*
X1214544Y575256D01*
X1214220Y575641D01*
X1213905Y576035D01*
X1213600Y576436D01*
X1213305Y576844D01*
X1213020Y577259D01*
X1212745Y577682D01*
X1212481Y578111D01*
X1212227Y578546D01*
X1211984Y578987D01*
X1211752Y579435D01*
X1211531Y579887D01*
X1211321Y580345D01*
X1211123Y580808D01*
X1210936Y581276D01*
X1210760Y581749D01*
X1210596Y582225D01*
X1210444Y582705D01*
X1210304Y583189D01*
X1210175Y583676D01*
X1210059Y584167D01*
X1209955Y584659D01*
X1209862Y585155D01*
X1209782Y585652D01*
X1209714Y586151D01*
X1209659Y586652D01*
X1209616Y587154D01*
X1209585Y587657D01*
X1209566Y588161D01*
X1209560Y588664D01*
X1209560Y609193D01*
X1230089Y643390D02*
X1209560Y669051D01*
X1301940Y669051D01*
X1301940Y643390D02*
X1301940Y694713D01*
D14*
X1723250Y2993250D02*
X1723250Y3293250D01*
X2023250Y3293250D02*
X2023250Y2993250D01*
D15*
X1663250Y2943250D02*
X1663253Y2943495D01*
X1663262Y2943741D01*
X1663277Y2943986D01*
X1663298Y2944230D01*
X1663325Y2944474D01*
X1663358Y2944717D01*
X1663397Y2944960D01*
X1663442Y2945201D01*
X1663493Y2945441D01*
X1663550Y2945680D01*
X1663612Y2945917D01*
X1663681Y2946153D01*
X1663755Y2946387D01*
X1663835Y2946619D01*
X1663920Y2946849D01*
X1664011Y2947077D01*
X1664108Y2947302D01*
X1664210Y2947526D01*
X1664318Y2947746D01*
X1664431Y2947964D01*
X1664549Y2948179D01*
X1664673Y2948391D01*
X1664801Y2948600D01*
X1664935Y2948806D01*
X1665074Y2949008D01*
X1665218Y2949207D01*
X1665367Y2949402D01*
X1665520Y2949594D01*
X1665678Y2949782D01*
X1665840Y2949966D01*
X1666008Y2950145D01*
X1666179Y2950321D01*
X1666355Y2950492D01*
X1666534Y2950660D01*
X1666718Y2950822D01*
X1666906Y2950980D01*
X1667098Y2951133D01*
X1667293Y2951282D01*
X1667492Y2951426D01*
X1667694Y2951565D01*
X1667900Y2951699D01*
X1668109Y2951827D01*
X1668321Y2951951D01*
X1668536Y2952069D01*
X1668754Y2952182D01*
X1668974Y2952290D01*
X1669198Y2952392D01*
X1669423Y2952489D01*
X1669651Y2952580D01*
X1669881Y2952665D01*
X1670113Y2952745D01*
X1670347Y2952819D01*
X1670583Y2952888D01*
X1670820Y2952950D01*
X1671059Y2953007D01*
X1671299Y2953058D01*
X1671540Y2953103D01*
X1671783Y2953142D01*
X1672026Y2953175D01*
X1672270Y2953202D01*
X1672514Y2953223D01*
X1672759Y2953238D01*
X1673005Y2953247D01*
X1673250Y2953250D01*
X1673495Y2953247D01*
X1673741Y2953238D01*
X1673986Y2953223D01*
X1674230Y2953202D01*
X1674474Y2953175D01*
X1674717Y2953142D01*
X1674960Y2953103D01*
X1675201Y2953058D01*
X1675441Y2953007D01*
X1675680Y2952950D01*
X1675917Y2952888D01*
X1676153Y2952819D01*
X1676387Y2952745D01*
X1676619Y2952665D01*
X1676849Y2952580D01*
X1677077Y2952489D01*
X1677302Y2952392D01*
X1677526Y2952290D01*
X1677746Y2952182D01*
X1677964Y2952069D01*
X1678179Y2951951D01*
X1678391Y2951827D01*
X1678600Y2951699D01*
X1678806Y2951565D01*
X1679008Y2951426D01*
X1679207Y2951282D01*
X1679402Y2951133D01*
X1679594Y2950980D01*
X1679782Y2950822D01*
X1679966Y2950660D01*
X1680145Y2950492D01*
X1680321Y2950321D01*
X1680492Y2950145D01*
X1680660Y2949966D01*
X1680822Y2949782D01*
X1680980Y2949594D01*
X1681133Y2949402D01*
X1681282Y2949207D01*
X1681426Y2949008D01*
X1681565Y2948806D01*
X1681699Y2948600D01*
X1681827Y2948391D01*
X1681951Y2948179D01*
X1682069Y2947964D01*
X1682182Y2947746D01*
X1682290Y2947526D01*
X1682392Y2947302D01*
X1682489Y2947077D01*
X1682580Y2946849D01*
X1682665Y2946619D01*
X1682745Y2946387D01*
X1682819Y2946153D01*
X1682888Y2945917D01*
X1682950Y2945680D01*
X1683007Y2945441D01*
X1683058Y2945201D01*
X1683103Y2944960D01*
X1683142Y2944717D01*
X1683175Y2944474D01*
X1683202Y2944230D01*
X1683223Y2943986D01*
X1683238Y2943741D01*
X1683247Y2943495D01*
X1683250Y2943250D01*
X1683247Y2943005D01*
X1683238Y2942759D01*
X1683223Y2942514D01*
X1683202Y2942270D01*
X1683175Y2942026D01*
X1683142Y2941783D01*
X1683103Y2941540D01*
X1683058Y2941299D01*
X1683007Y2941059D01*
X1682950Y2940820D01*
X1682888Y2940583D01*
X1682819Y2940347D01*
X1682745Y2940113D01*
X1682665Y2939881D01*
X1682580Y2939651D01*
X1682489Y2939423D01*
X1682392Y2939198D01*
X1682290Y2938974D01*
X1682182Y2938754D01*
X1682069Y2938536D01*
X1681951Y2938321D01*
X1681827Y2938109D01*
X1681699Y2937900D01*
X1681565Y2937694D01*
X1681426Y2937492D01*
X1681282Y2937293D01*
X1681133Y2937098D01*
X1680980Y2936906D01*
X1680822Y2936718D01*
X1680660Y2936534D01*
X1680492Y2936355D01*
X1680321Y2936179D01*
X1680145Y2936008D01*
X1679966Y2935840D01*
X1679782Y2935678D01*
X1679594Y2935520D01*
X1679402Y2935367D01*
X1679207Y2935218D01*
X1679008Y2935074D01*
X1678806Y2934935D01*
X1678600Y2934801D01*
X1678391Y2934673D01*
X1678179Y2934549D01*
X1677964Y2934431D01*
X1677746Y2934318D01*
X1677526Y2934210D01*
X1677302Y2934108D01*
X1677077Y2934011D01*
X1676849Y2933920D01*
X1676619Y2933835D01*
X1676387Y2933755D01*
X1676153Y2933681D01*
X1675917Y2933612D01*
X1675680Y2933550D01*
X1675441Y2933493D01*
X1675201Y2933442D01*
X1674960Y2933397D01*
X1674717Y2933358D01*
X1674474Y2933325D01*
X1674230Y2933298D01*
X1673986Y2933277D01*
X1673741Y2933262D01*
X1673495Y2933253D01*
X1673250Y2933250D01*
X1673005Y2933253D01*
X1672759Y2933262D01*
X1672514Y2933277D01*
X1672270Y2933298D01*
X1672026Y2933325D01*
X1671783Y2933358D01*
X1671540Y2933397D01*
X1671299Y2933442D01*
X1671059Y2933493D01*
X1670820Y2933550D01*
X1670583Y2933612D01*
X1670347Y2933681D01*
X1670113Y2933755D01*
X1669881Y2933835D01*
X1669651Y2933920D01*
X1669423Y2934011D01*
X1669198Y2934108D01*
X1668974Y2934210D01*
X1668754Y2934318D01*
X1668536Y2934431D01*
X1668321Y2934549D01*
X1668109Y2934673D01*
X1667900Y2934801D01*
X1667694Y2934935D01*
X1667492Y2935074D01*
X1667293Y2935218D01*
X1667098Y2935367D01*
X1666906Y2935520D01*
X1666718Y2935678D01*
X1666534Y2935840D01*
X1666355Y2936008D01*
X1666179Y2936179D01*
X1666008Y2936355D01*
X1665840Y2936534D01*
X1665678Y2936718D01*
X1665520Y2936906D01*
X1665367Y2937098D01*
X1665218Y2937293D01*
X1665074Y2937492D01*
X1664935Y2937694D01*
X1664801Y2937900D01*
X1664673Y2938109D01*
X1664549Y2938321D01*
X1664431Y2938536D01*
X1664318Y2938754D01*
X1664210Y2938974D01*
X1664108Y2939198D01*
X1664011Y2939423D01*
X1663920Y2939651D01*
X1663835Y2939881D01*
X1663755Y2940113D01*
X1663681Y2940347D01*
X1663612Y2940583D01*
X1663550Y2940820D01*
X1663493Y2941059D01*
X1663442Y2941299D01*
X1663397Y2941540D01*
X1663358Y2941783D01*
X1663325Y2942026D01*
X1663298Y2942270D01*
X1663277Y2942514D01*
X1663262Y2942759D01*
X1663253Y2943005D01*
X1663250Y2943250D01*
D11*
X2063560Y3017052D02*
X2155940Y3017052D01*
X2155940Y3006788D02*
X2155940Y3027316D01*
X2063560Y3027316D02*
X2063560Y3006788D01*
X2155940Y3083664D02*
X2155940Y3104193D01*
X2155940Y3083664D02*
X2155934Y3083168D01*
X2155916Y3082672D01*
X2155886Y3082177D01*
X2155844Y3081683D01*
X2155790Y3081190D01*
X2155725Y3080698D01*
X2155647Y3080208D01*
X2155558Y3079720D01*
X2155456Y3079234D01*
X2155343Y3078751D01*
X2155219Y3078271D01*
X2155083Y3077794D01*
X2154935Y3077320D01*
X2154776Y3076850D01*
X2154606Y3076384D01*
X2154424Y3075923D01*
X2154232Y3075465D01*
X2154028Y3075013D01*
X2153814Y3074566D01*
X2153589Y3074124D01*
X2153353Y3073687D01*
X2153106Y3073257D01*
X2152850Y3072832D01*
X2152583Y3072414D01*
X2152306Y3072002D01*
X2152019Y3071597D01*
X2151723Y3071200D01*
X2151417Y3070809D01*
X2151102Y3070426D01*
X2150777Y3070051D01*
X2150444Y3069683D01*
X2150102Y3069324D01*
X2149751Y3068973D01*
X2149392Y3068631D01*
X2149024Y3068298D01*
X2148649Y3067973D01*
X2148266Y3067658D01*
X2147875Y3067352D01*
X2147478Y3067056D01*
X2147073Y3066769D01*
X2146661Y3066492D01*
X2146243Y3066225D01*
X2145818Y3065969D01*
X2145388Y3065722D01*
X2144951Y3065486D01*
X2144509Y3065261D01*
X2144062Y3065047D01*
X2143610Y3064843D01*
X2143152Y3064651D01*
X2142691Y3064469D01*
X2142225Y3064299D01*
X2141755Y3064140D01*
X2141281Y3063992D01*
X2140804Y3063856D01*
X2140324Y3063732D01*
X2139841Y3063619D01*
X2139355Y3063517D01*
X2138867Y3063428D01*
X2138377Y3063350D01*
X2137885Y3063285D01*
X2137392Y3063231D01*
X2136898Y3063189D01*
X2136403Y3063159D01*
X2135907Y3063141D01*
X2135411Y3063135D01*
X2135411Y3063136D02*
X2084089Y3063136D01*
X2083585Y3063142D01*
X2083082Y3063161D01*
X2082579Y3063192D01*
X2082077Y3063235D01*
X2081576Y3063290D01*
X2081077Y3063358D01*
X2080579Y3063438D01*
X2080084Y3063530D01*
X2079591Y3063635D01*
X2079101Y3063751D01*
X2078614Y3063880D01*
X2078130Y3064020D01*
X2077650Y3064172D01*
X2077173Y3064336D01*
X2076701Y3064512D01*
X2076233Y3064699D01*
X2075770Y3064897D01*
X2075312Y3065107D01*
X2074859Y3065328D01*
X2074412Y3065560D01*
X2073970Y3065803D01*
X2073535Y3066057D01*
X2073106Y3066321D01*
X2072684Y3066596D01*
X2072268Y3066881D01*
X2071860Y3067176D01*
X2071459Y3067481D01*
X2071066Y3067796D01*
X2070680Y3068120D01*
X2070303Y3068454D01*
X2069934Y3068797D01*
X2069573Y3069149D01*
X2069221Y3069509D01*
X2068878Y3069878D01*
X2068544Y3070256D01*
X2068220Y3070641D01*
X2067905Y3071035D01*
X2067600Y3071436D01*
X2067305Y3071844D01*
X2067020Y3072259D01*
X2066745Y3072682D01*
X2066481Y3073111D01*
X2066227Y3073546D01*
X2065984Y3073987D01*
X2065752Y3074435D01*
X2065531Y3074887D01*
X2065321Y3075345D01*
X2065123Y3075808D01*
X2064936Y3076276D01*
X2064760Y3076749D01*
X2064596Y3077225D01*
X2064444Y3077705D01*
X2064304Y3078189D01*
X2064175Y3078676D01*
X2064059Y3079167D01*
X2063955Y3079659D01*
X2063862Y3080155D01*
X2063782Y3080652D01*
X2063714Y3081151D01*
X2063659Y3081652D01*
X2063616Y3082154D01*
X2063585Y3082657D01*
X2063566Y3083161D01*
X2063560Y3083664D01*
X2063560Y3104193D01*
X2084089Y3138390D02*
X2063560Y3164051D01*
X2155940Y3164051D01*
X2155940Y3138390D02*
X2155940Y3189713D01*
X2084089Y3228390D02*
X2063560Y3254051D01*
X2155940Y3254051D01*
X2155940Y3228390D02*
X2155940Y3279712D01*
D14*
X1342250Y3293250D02*
X1342250Y2993250D01*
X1642250Y2993250D02*
X1642250Y3293250D01*
D15*
X1282250Y2943250D02*
X1282253Y2943495D01*
X1282262Y2943741D01*
X1282277Y2943986D01*
X1282298Y2944230D01*
X1282325Y2944474D01*
X1282358Y2944717D01*
X1282397Y2944960D01*
X1282442Y2945201D01*
X1282493Y2945441D01*
X1282550Y2945680D01*
X1282612Y2945917D01*
X1282681Y2946153D01*
X1282755Y2946387D01*
X1282835Y2946619D01*
X1282920Y2946849D01*
X1283011Y2947077D01*
X1283108Y2947302D01*
X1283210Y2947526D01*
X1283318Y2947746D01*
X1283431Y2947964D01*
X1283549Y2948179D01*
X1283673Y2948391D01*
X1283801Y2948600D01*
X1283935Y2948806D01*
X1284074Y2949008D01*
X1284218Y2949207D01*
X1284367Y2949402D01*
X1284520Y2949594D01*
X1284678Y2949782D01*
X1284840Y2949966D01*
X1285008Y2950145D01*
X1285179Y2950321D01*
X1285355Y2950492D01*
X1285534Y2950660D01*
X1285718Y2950822D01*
X1285906Y2950980D01*
X1286098Y2951133D01*
X1286293Y2951282D01*
X1286492Y2951426D01*
X1286694Y2951565D01*
X1286900Y2951699D01*
X1287109Y2951827D01*
X1287321Y2951951D01*
X1287536Y2952069D01*
X1287754Y2952182D01*
X1287974Y2952290D01*
X1288198Y2952392D01*
X1288423Y2952489D01*
X1288651Y2952580D01*
X1288881Y2952665D01*
X1289113Y2952745D01*
X1289347Y2952819D01*
X1289583Y2952888D01*
X1289820Y2952950D01*
X1290059Y2953007D01*
X1290299Y2953058D01*
X1290540Y2953103D01*
X1290783Y2953142D01*
X1291026Y2953175D01*
X1291270Y2953202D01*
X1291514Y2953223D01*
X1291759Y2953238D01*
X1292005Y2953247D01*
X1292250Y2953250D01*
X1292495Y2953247D01*
X1292741Y2953238D01*
X1292986Y2953223D01*
X1293230Y2953202D01*
X1293474Y2953175D01*
X1293717Y2953142D01*
X1293960Y2953103D01*
X1294201Y2953058D01*
X1294441Y2953007D01*
X1294680Y2952950D01*
X1294917Y2952888D01*
X1295153Y2952819D01*
X1295387Y2952745D01*
X1295619Y2952665D01*
X1295849Y2952580D01*
X1296077Y2952489D01*
X1296302Y2952392D01*
X1296526Y2952290D01*
X1296746Y2952182D01*
X1296964Y2952069D01*
X1297179Y2951951D01*
X1297391Y2951827D01*
X1297600Y2951699D01*
X1297806Y2951565D01*
X1298008Y2951426D01*
X1298207Y2951282D01*
X1298402Y2951133D01*
X1298594Y2950980D01*
X1298782Y2950822D01*
X1298966Y2950660D01*
X1299145Y2950492D01*
X1299321Y2950321D01*
X1299492Y2950145D01*
X1299660Y2949966D01*
X1299822Y2949782D01*
X1299980Y2949594D01*
X1300133Y2949402D01*
X1300282Y2949207D01*
X1300426Y2949008D01*
X1300565Y2948806D01*
X1300699Y2948600D01*
X1300827Y2948391D01*
X1300951Y2948179D01*
X1301069Y2947964D01*
X1301182Y2947746D01*
X1301290Y2947526D01*
X1301392Y2947302D01*
X1301489Y2947077D01*
X1301580Y2946849D01*
X1301665Y2946619D01*
X1301745Y2946387D01*
X1301819Y2946153D01*
X1301888Y2945917D01*
X1301950Y2945680D01*
X1302007Y2945441D01*
X1302058Y2945201D01*
X1302103Y2944960D01*
X1302142Y2944717D01*
X1302175Y2944474D01*
X1302202Y2944230D01*
X1302223Y2943986D01*
X1302238Y2943741D01*
X1302247Y2943495D01*
X1302250Y2943250D01*
X1302247Y2943005D01*
X1302238Y2942759D01*
X1302223Y2942514D01*
X1302202Y2942270D01*
X1302175Y2942026D01*
X1302142Y2941783D01*
X1302103Y2941540D01*
X1302058Y2941299D01*
X1302007Y2941059D01*
X1301950Y2940820D01*
X1301888Y2940583D01*
X1301819Y2940347D01*
X1301745Y2940113D01*
X1301665Y2939881D01*
X1301580Y2939651D01*
X1301489Y2939423D01*
X1301392Y2939198D01*
X1301290Y2938974D01*
X1301182Y2938754D01*
X1301069Y2938536D01*
X1300951Y2938321D01*
X1300827Y2938109D01*
X1300699Y2937900D01*
X1300565Y2937694D01*
X1300426Y2937492D01*
X1300282Y2937293D01*
X1300133Y2937098D01*
X1299980Y2936906D01*
X1299822Y2936718D01*
X1299660Y2936534D01*
X1299492Y2936355D01*
X1299321Y2936179D01*
X1299145Y2936008D01*
X1298966Y2935840D01*
X1298782Y2935678D01*
X1298594Y2935520D01*
X1298402Y2935367D01*
X1298207Y2935218D01*
X1298008Y2935074D01*
X1297806Y2934935D01*
X1297600Y2934801D01*
X1297391Y2934673D01*
X1297179Y2934549D01*
X1296964Y2934431D01*
X1296746Y2934318D01*
X1296526Y2934210D01*
X1296302Y2934108D01*
X1296077Y2934011D01*
X1295849Y2933920D01*
X1295619Y2933835D01*
X1295387Y2933755D01*
X1295153Y2933681D01*
X1294917Y2933612D01*
X1294680Y2933550D01*
X1294441Y2933493D01*
X1294201Y2933442D01*
X1293960Y2933397D01*
X1293717Y2933358D01*
X1293474Y2933325D01*
X1293230Y2933298D01*
X1292986Y2933277D01*
X1292741Y2933262D01*
X1292495Y2933253D01*
X1292250Y2933250D01*
X1292005Y2933253D01*
X1291759Y2933262D01*
X1291514Y2933277D01*
X1291270Y2933298D01*
X1291026Y2933325D01*
X1290783Y2933358D01*
X1290540Y2933397D01*
X1290299Y2933442D01*
X1290059Y2933493D01*
X1289820Y2933550D01*
X1289583Y2933612D01*
X1289347Y2933681D01*
X1289113Y2933755D01*
X1288881Y2933835D01*
X1288651Y2933920D01*
X1288423Y2934011D01*
X1288198Y2934108D01*
X1287974Y2934210D01*
X1287754Y2934318D01*
X1287536Y2934431D01*
X1287321Y2934549D01*
X1287109Y2934673D01*
X1286900Y2934801D01*
X1286694Y2934935D01*
X1286492Y2935074D01*
X1286293Y2935218D01*
X1286098Y2935367D01*
X1285906Y2935520D01*
X1285718Y2935678D01*
X1285534Y2935840D01*
X1285355Y2936008D01*
X1285179Y2936179D01*
X1285008Y2936355D01*
X1284840Y2936534D01*
X1284678Y2936718D01*
X1284520Y2936906D01*
X1284367Y2937098D01*
X1284218Y2937293D01*
X1284074Y2937492D01*
X1283935Y2937694D01*
X1283801Y2937900D01*
X1283673Y2938109D01*
X1283549Y2938321D01*
X1283431Y2938536D01*
X1283318Y2938754D01*
X1283210Y2938974D01*
X1283108Y2939198D01*
X1283011Y2939423D01*
X1282920Y2939651D01*
X1282835Y2939881D01*
X1282755Y2940113D01*
X1282681Y2940347D01*
X1282612Y2940583D01*
X1282550Y2940820D01*
X1282493Y2941059D01*
X1282442Y2941299D01*
X1282397Y2941540D01*
X1282358Y2941783D01*
X1282325Y2942026D01*
X1282298Y2942270D01*
X1282277Y2942514D01*
X1282262Y2942759D01*
X1282253Y2943005D01*
X1282250Y2943250D01*
D11*
X1301940Y3062052D02*
X1209560Y3062052D01*
X1301940Y3051788D02*
X1301940Y3072316D01*
X1209560Y3072316D02*
X1209560Y3051788D01*
X1301940Y3128664D02*
X1301940Y3149193D01*
X1301940Y3128664D02*
X1301934Y3128168D01*
X1301916Y3127672D01*
X1301886Y3127177D01*
X1301844Y3126683D01*
X1301790Y3126190D01*
X1301725Y3125698D01*
X1301647Y3125208D01*
X1301558Y3124720D01*
X1301456Y3124234D01*
X1301343Y3123751D01*
X1301219Y3123271D01*
X1301083Y3122794D01*
X1300935Y3122320D01*
X1300776Y3121850D01*
X1300606Y3121384D01*
X1300424Y3120923D01*
X1300232Y3120465D01*
X1300028Y3120013D01*
X1299814Y3119566D01*
X1299589Y3119124D01*
X1299353Y3118687D01*
X1299106Y3118257D01*
X1298850Y3117832D01*
X1298583Y3117414D01*
X1298306Y3117002D01*
X1298019Y3116597D01*
X1297723Y3116200D01*
X1297417Y3115809D01*
X1297102Y3115426D01*
X1296777Y3115051D01*
X1296444Y3114683D01*
X1296102Y3114324D01*
X1295751Y3113973D01*
X1295392Y3113631D01*
X1295024Y3113298D01*
X1294649Y3112973D01*
X1294266Y3112658D01*
X1293875Y3112352D01*
X1293478Y3112056D01*
X1293073Y3111769D01*
X1292661Y3111492D01*
X1292243Y3111225D01*
X1291818Y3110969D01*
X1291388Y3110722D01*
X1290951Y3110486D01*
X1290509Y3110261D01*
X1290062Y3110047D01*
X1289610Y3109843D01*
X1289152Y3109651D01*
X1288691Y3109469D01*
X1288225Y3109299D01*
X1287755Y3109140D01*
X1287281Y3108992D01*
X1286804Y3108856D01*
X1286324Y3108732D01*
X1285841Y3108619D01*
X1285355Y3108517D01*
X1284867Y3108428D01*
X1284377Y3108350D01*
X1283885Y3108285D01*
X1283392Y3108231D01*
X1282898Y3108189D01*
X1282403Y3108159D01*
X1281907Y3108141D01*
X1281411Y3108135D01*
X1281411Y3108136D02*
X1230089Y3108136D01*
X1229585Y3108142D01*
X1229082Y3108161D01*
X1228579Y3108192D01*
X1228077Y3108235D01*
X1227576Y3108290D01*
X1227077Y3108358D01*
X1226579Y3108438D01*
X1226084Y3108530D01*
X1225591Y3108635D01*
X1225101Y3108751D01*
X1224614Y3108880D01*
X1224130Y3109020D01*
X1223650Y3109172D01*
X1223173Y3109336D01*
X1222701Y3109512D01*
X1222233Y3109699D01*
X1221770Y3109897D01*
X1221312Y3110107D01*
X1220859Y3110328D01*
X1220412Y3110560D01*
X1219970Y3110803D01*
X1219535Y3111057D01*
X1219106Y3111321D01*
X1218684Y3111596D01*
X1218268Y3111881D01*
X1217860Y3112176D01*
X1217459Y3112481D01*
X1217066Y3112796D01*
X1216680Y3113120D01*
X1216303Y3113454D01*
X1215934Y3113797D01*
X1215573Y3114149D01*
X1215221Y3114509D01*
X1214878Y3114878D01*
X1214544Y3115256D01*
X1214220Y3115641D01*
X1213905Y3116035D01*
X1213600Y3116436D01*
X1213305Y3116844D01*
X1213020Y3117259D01*
X1212745Y3117682D01*
X1212481Y3118111D01*
X1212227Y3118546D01*
X1211984Y3118987D01*
X1211752Y3119435D01*
X1211531Y3119887D01*
X1211321Y3120345D01*
X1211123Y3120808D01*
X1210936Y3121276D01*
X1210760Y3121749D01*
X1210596Y3122225D01*
X1210444Y3122705D01*
X1210304Y3123189D01*
X1210175Y3123676D01*
X1210059Y3124167D01*
X1209955Y3124659D01*
X1209862Y3125155D01*
X1209782Y3125652D01*
X1209714Y3126151D01*
X1209659Y3126652D01*
X1209616Y3127154D01*
X1209585Y3127657D01*
X1209566Y3128161D01*
X1209560Y3128664D01*
X1209560Y3149193D01*
X1209559Y3211618D02*
X1209566Y3212184D01*
X1209587Y3212751D01*
X1209622Y3213317D01*
X1209670Y3213881D01*
X1209733Y3214445D01*
X1209809Y3215006D01*
X1209899Y3215566D01*
X1210003Y3216123D01*
X1210120Y3216678D01*
X1210251Y3217229D01*
X1210396Y3217777D01*
X1210554Y3218322D01*
X1210725Y3218862D01*
X1210909Y3219398D01*
X1211107Y3219930D01*
X1211317Y3220456D01*
X1211541Y3220977D01*
X1211777Y3221492D01*
X1212025Y3222002D01*
X1212286Y3222505D01*
X1212560Y3223001D01*
X1212845Y3223491D01*
X1213142Y3223974D01*
X1213452Y3224449D01*
X1213772Y3224916D01*
X1214104Y3225376D01*
X1214448Y3225827D01*
X1214802Y3226269D01*
X1215167Y3226703D01*
X1215542Y3227128D01*
X1215928Y3227543D01*
X1216324Y3227949D01*
X1216730Y3228344D01*
X1217145Y3228730D01*
X1217570Y3229106D01*
X1218003Y3229471D01*
X1218446Y3229825D01*
X1218897Y3230168D01*
X1219356Y3230500D01*
X1219824Y3230821D01*
X1220299Y3231130D01*
X1220781Y3231427D01*
X1221271Y3231713D01*
X1221768Y3231986D01*
X1222271Y3232247D01*
X1222780Y3232496D01*
X1223296Y3232732D01*
X1223817Y3232955D01*
X1224343Y3233165D01*
X1224874Y3233363D01*
X1225410Y3233547D01*
X1225951Y3233719D01*
X1226495Y3233876D01*
X1227043Y3234021D01*
X1227595Y3234152D01*
X1228149Y3234269D01*
X1228707Y3234373D01*
X1229266Y3234463D01*
X1229828Y3234539D01*
X1230391Y3234602D01*
X1230956Y3234650D01*
X1231522Y3234685D01*
X1232088Y3234706D01*
X1232655Y3234713D01*
X1209560Y3211618D02*
X1209569Y3210900D01*
X1209595Y3210183D01*
X1209638Y3209467D01*
X1209699Y3208752D01*
X1209777Y3208039D01*
X1209872Y3207328D01*
X1209984Y3206619D01*
X1210113Y3205913D01*
X1210260Y3205211D01*
X1210423Y3204512D01*
X1210604Y3203817D01*
X1210801Y3203127D01*
X1211014Y3202442D01*
X1211244Y3201763D01*
X1211491Y3201089D01*
X1211753Y3200421D01*
X1212032Y3199760D01*
X1212327Y3199106D01*
X1212637Y3198459D01*
X1212963Y3197820D01*
X1213305Y3197188D01*
X1213661Y3196566D01*
X1214033Y3195952D01*
X1214419Y3195347D01*
X1214820Y3194752D01*
X1215235Y3194166D01*
X1215664Y3193591D01*
X1216106Y3193027D01*
X1216563Y3192473D01*
X1217032Y3191930D01*
X1217515Y3191399D01*
X1218010Y3190880D01*
X1218518Y3190373D01*
X1219038Y3189878D01*
X1219569Y3189397D01*
X1220113Y3188928D01*
X1220667Y3188472D01*
X1221232Y3188030D01*
X1221808Y3187601D01*
X1222394Y3187187D01*
X1222989Y3186787D01*
X1223594Y3186402D01*
X1224209Y3186031D01*
X1224832Y3185675D01*
X1225464Y3185335D01*
X1226103Y3185009D01*
X1226751Y3184700D01*
X1227405Y3184406D01*
X1228067Y3184128D01*
X1228735Y3183866D01*
X1229409Y3183620D01*
X1230089Y3183391D01*
X1250618Y3227015D02*
X1250192Y3227450D01*
X1249757Y3227875D01*
X1249311Y3228289D01*
X1248855Y3228693D01*
X1248389Y3229084D01*
X1247914Y3229465D01*
X1247429Y3229833D01*
X1246936Y3230190D01*
X1246434Y3230534D01*
X1245924Y3230866D01*
X1245405Y3231185D01*
X1244879Y3231492D01*
X1244346Y3231785D01*
X1243806Y3232065D01*
X1243259Y3232332D01*
X1242705Y3232586D01*
X1242146Y3232825D01*
X1241581Y3233051D01*
X1241010Y3233264D01*
X1240435Y3233461D01*
X1239854Y3233645D01*
X1239270Y3233815D01*
X1238681Y3233970D01*
X1238089Y3234111D01*
X1237493Y3234237D01*
X1236895Y3234348D01*
X1236294Y3234445D01*
X1235691Y3234527D01*
X1235086Y3234594D01*
X1234479Y3234646D01*
X1233872Y3234683D01*
X1233264Y3234706D01*
X1232655Y3234713D01*
X1250618Y3227014D02*
X1301940Y3183390D01*
X1301940Y3234713D01*
D14*
X2023250Y753250D02*
X2023250Y453250D01*
X1723250Y453250D02*
X1723250Y753250D01*
D15*
X2063250Y803250D02*
X2063253Y803495D01*
X2063262Y803741D01*
X2063277Y803986D01*
X2063298Y804230D01*
X2063325Y804474D01*
X2063358Y804717D01*
X2063397Y804960D01*
X2063442Y805201D01*
X2063493Y805441D01*
X2063550Y805680D01*
X2063612Y805917D01*
X2063681Y806153D01*
X2063755Y806387D01*
X2063835Y806619D01*
X2063920Y806849D01*
X2064011Y807077D01*
X2064108Y807302D01*
X2064210Y807526D01*
X2064318Y807746D01*
X2064431Y807964D01*
X2064549Y808179D01*
X2064673Y808391D01*
X2064801Y808600D01*
X2064935Y808806D01*
X2065074Y809008D01*
X2065218Y809207D01*
X2065367Y809402D01*
X2065520Y809594D01*
X2065678Y809782D01*
X2065840Y809966D01*
X2066008Y810145D01*
X2066179Y810321D01*
X2066355Y810492D01*
X2066534Y810660D01*
X2066718Y810822D01*
X2066906Y810980D01*
X2067098Y811133D01*
X2067293Y811282D01*
X2067492Y811426D01*
X2067694Y811565D01*
X2067900Y811699D01*
X2068109Y811827D01*
X2068321Y811951D01*
X2068536Y812069D01*
X2068754Y812182D01*
X2068974Y812290D01*
X2069198Y812392D01*
X2069423Y812489D01*
X2069651Y812580D01*
X2069881Y812665D01*
X2070113Y812745D01*
X2070347Y812819D01*
X2070583Y812888D01*
X2070820Y812950D01*
X2071059Y813007D01*
X2071299Y813058D01*
X2071540Y813103D01*
X2071783Y813142D01*
X2072026Y813175D01*
X2072270Y813202D01*
X2072514Y813223D01*
X2072759Y813238D01*
X2073005Y813247D01*
X2073250Y813250D01*
X2073495Y813247D01*
X2073741Y813238D01*
X2073986Y813223D01*
X2074230Y813202D01*
X2074474Y813175D01*
X2074717Y813142D01*
X2074960Y813103D01*
X2075201Y813058D01*
X2075441Y813007D01*
X2075680Y812950D01*
X2075917Y812888D01*
X2076153Y812819D01*
X2076387Y812745D01*
X2076619Y812665D01*
X2076849Y812580D01*
X2077077Y812489D01*
X2077302Y812392D01*
X2077526Y812290D01*
X2077746Y812182D01*
X2077964Y812069D01*
X2078179Y811951D01*
X2078391Y811827D01*
X2078600Y811699D01*
X2078806Y811565D01*
X2079008Y811426D01*
X2079207Y811282D01*
X2079402Y811133D01*
X2079594Y810980D01*
X2079782Y810822D01*
X2079966Y810660D01*
X2080145Y810492D01*
X2080321Y810321D01*
X2080492Y810145D01*
X2080660Y809966D01*
X2080822Y809782D01*
X2080980Y809594D01*
X2081133Y809402D01*
X2081282Y809207D01*
X2081426Y809008D01*
X2081565Y808806D01*
X2081699Y808600D01*
X2081827Y808391D01*
X2081951Y808179D01*
X2082069Y807964D01*
X2082182Y807746D01*
X2082290Y807526D01*
X2082392Y807302D01*
X2082489Y807077D01*
X2082580Y806849D01*
X2082665Y806619D01*
X2082745Y806387D01*
X2082819Y806153D01*
X2082888Y805917D01*
X2082950Y805680D01*
X2083007Y805441D01*
X2083058Y805201D01*
X2083103Y804960D01*
X2083142Y804717D01*
X2083175Y804474D01*
X2083202Y804230D01*
X2083223Y803986D01*
X2083238Y803741D01*
X2083247Y803495D01*
X2083250Y803250D01*
X2083247Y803005D01*
X2083238Y802759D01*
X2083223Y802514D01*
X2083202Y802270D01*
X2083175Y802026D01*
X2083142Y801783D01*
X2083103Y801540D01*
X2083058Y801299D01*
X2083007Y801059D01*
X2082950Y800820D01*
X2082888Y800583D01*
X2082819Y800347D01*
X2082745Y800113D01*
X2082665Y799881D01*
X2082580Y799651D01*
X2082489Y799423D01*
X2082392Y799198D01*
X2082290Y798974D01*
X2082182Y798754D01*
X2082069Y798536D01*
X2081951Y798321D01*
X2081827Y798109D01*
X2081699Y797900D01*
X2081565Y797694D01*
X2081426Y797492D01*
X2081282Y797293D01*
X2081133Y797098D01*
X2080980Y796906D01*
X2080822Y796718D01*
X2080660Y796534D01*
X2080492Y796355D01*
X2080321Y796179D01*
X2080145Y796008D01*
X2079966Y795840D01*
X2079782Y795678D01*
X2079594Y795520D01*
X2079402Y795367D01*
X2079207Y795218D01*
X2079008Y795074D01*
X2078806Y794935D01*
X2078600Y794801D01*
X2078391Y794673D01*
X2078179Y794549D01*
X2077964Y794431D01*
X2077746Y794318D01*
X2077526Y794210D01*
X2077302Y794108D01*
X2077077Y794011D01*
X2076849Y793920D01*
X2076619Y793835D01*
X2076387Y793755D01*
X2076153Y793681D01*
X2075917Y793612D01*
X2075680Y793550D01*
X2075441Y793493D01*
X2075201Y793442D01*
X2074960Y793397D01*
X2074717Y793358D01*
X2074474Y793325D01*
X2074230Y793298D01*
X2073986Y793277D01*
X2073741Y793262D01*
X2073495Y793253D01*
X2073250Y793250D01*
X2073005Y793253D01*
X2072759Y793262D01*
X2072514Y793277D01*
X2072270Y793298D01*
X2072026Y793325D01*
X2071783Y793358D01*
X2071540Y793397D01*
X2071299Y793442D01*
X2071059Y793493D01*
X2070820Y793550D01*
X2070583Y793612D01*
X2070347Y793681D01*
X2070113Y793755D01*
X2069881Y793835D01*
X2069651Y793920D01*
X2069423Y794011D01*
X2069198Y794108D01*
X2068974Y794210D01*
X2068754Y794318D01*
X2068536Y794431D01*
X2068321Y794549D01*
X2068109Y794673D01*
X2067900Y794801D01*
X2067694Y794935D01*
X2067492Y795074D01*
X2067293Y795218D01*
X2067098Y795367D01*
X2066906Y795520D01*
X2066718Y795678D01*
X2066534Y795840D01*
X2066355Y796008D01*
X2066179Y796179D01*
X2066008Y796355D01*
X2065840Y796534D01*
X2065678Y796718D01*
X2065520Y796906D01*
X2065367Y797098D01*
X2065218Y797293D01*
X2065074Y797492D01*
X2064935Y797694D01*
X2064801Y797900D01*
X2064673Y798109D01*
X2064549Y798321D01*
X2064431Y798536D01*
X2064318Y798754D01*
X2064210Y798974D01*
X2064108Y799198D01*
X2064011Y799423D01*
X2063920Y799651D01*
X2063835Y799881D01*
X2063755Y800113D01*
X2063681Y800347D01*
X2063612Y800583D01*
X2063550Y800820D01*
X2063493Y801059D01*
X2063442Y801299D01*
X2063397Y801540D01*
X2063358Y801783D01*
X2063325Y802026D01*
X2063298Y802270D01*
X2063277Y802514D01*
X2063262Y802759D01*
X2063253Y803005D01*
X2063250Y803250D01*
D11*
X2063560Y522052D02*
X2155940Y522052D01*
X2155940Y511788D02*
X2155940Y532316D01*
X2063560Y532316D02*
X2063560Y511788D01*
X2155940Y588664D02*
X2155940Y609193D01*
X2155940Y588664D02*
X2155934Y588168D01*
X2155916Y587672D01*
X2155886Y587177D01*
X2155844Y586683D01*
X2155790Y586190D01*
X2155725Y585698D01*
X2155647Y585208D01*
X2155558Y584720D01*
X2155456Y584234D01*
X2155343Y583751D01*
X2155219Y583271D01*
X2155083Y582794D01*
X2154935Y582320D01*
X2154776Y581850D01*
X2154606Y581384D01*
X2154424Y580923D01*
X2154232Y580465D01*
X2154028Y580013D01*
X2153814Y579566D01*
X2153589Y579124D01*
X2153353Y578687D01*
X2153106Y578257D01*
X2152850Y577832D01*
X2152583Y577414D01*
X2152306Y577002D01*
X2152019Y576597D01*
X2151723Y576200D01*
X2151417Y575809D01*
X2151102Y575426D01*
X2150777Y575051D01*
X2150444Y574683D01*
X2150102Y574324D01*
X2149751Y573973D01*
X2149392Y573631D01*
X2149024Y573298D01*
X2148649Y572973D01*
X2148266Y572658D01*
X2147875Y572352D01*
X2147478Y572056D01*
X2147073Y571769D01*
X2146661Y571492D01*
X2146243Y571225D01*
X2145818Y570969D01*
X2145388Y570722D01*
X2144951Y570486D01*
X2144509Y570261D01*
X2144062Y570047D01*
X2143610Y569843D01*
X2143152Y569651D01*
X2142691Y569469D01*
X2142225Y569299D01*
X2141755Y569140D01*
X2141281Y568992D01*
X2140804Y568856D01*
X2140324Y568732D01*
X2139841Y568619D01*
X2139355Y568517D01*
X2138867Y568428D01*
X2138377Y568350D01*
X2137885Y568285D01*
X2137392Y568231D01*
X2136898Y568189D01*
X2136403Y568159D01*
X2135907Y568141D01*
X2135411Y568135D01*
X2135411Y568136D02*
X2084089Y568136D01*
X2083585Y568142D01*
X2083082Y568161D01*
X2082579Y568192D01*
X2082077Y568235D01*
X2081576Y568290D01*
X2081077Y568358D01*
X2080579Y568438D01*
X2080084Y568530D01*
X2079591Y568635D01*
X2079101Y568751D01*
X2078614Y568880D01*
X2078130Y569020D01*
X2077650Y569172D01*
X2077173Y569336D01*
X2076701Y569512D01*
X2076233Y569699D01*
X2075770Y569897D01*
X2075312Y570107D01*
X2074859Y570328D01*
X2074412Y570560D01*
X2073970Y570803D01*
X2073535Y571057D01*
X2073106Y571321D01*
X2072684Y571596D01*
X2072268Y571881D01*
X2071860Y572176D01*
X2071459Y572481D01*
X2071066Y572796D01*
X2070680Y573120D01*
X2070303Y573454D01*
X2069934Y573797D01*
X2069573Y574149D01*
X2069221Y574509D01*
X2068878Y574878D01*
X2068544Y575256D01*
X2068220Y575641D01*
X2067905Y576035D01*
X2067600Y576436D01*
X2067305Y576844D01*
X2067020Y577259D01*
X2066745Y577682D01*
X2066481Y578111D01*
X2066227Y578546D01*
X2065984Y578987D01*
X2065752Y579435D01*
X2065531Y579887D01*
X2065321Y580345D01*
X2065123Y580808D01*
X2064936Y581276D01*
X2064760Y581749D01*
X2064596Y582225D01*
X2064444Y582705D01*
X2064304Y583189D01*
X2064175Y583676D01*
X2064059Y584167D01*
X2063955Y584659D01*
X2063862Y585155D01*
X2063782Y585652D01*
X2063714Y586151D01*
X2063659Y586652D01*
X2063616Y587154D01*
X2063585Y587657D01*
X2063566Y588161D01*
X2063560Y588664D01*
X2063560Y609193D01*
X2155940Y643390D02*
X2155940Y669051D01*
X2155932Y669676D01*
X2155910Y670300D01*
X2155872Y670924D01*
X2155818Y671547D01*
X2155750Y672168D01*
X2155667Y672787D01*
X2155568Y673404D01*
X2155455Y674019D01*
X2155326Y674630D01*
X2155183Y675239D01*
X2155025Y675843D01*
X2154852Y676444D01*
X2154665Y677040D01*
X2154463Y677632D01*
X2154247Y678218D01*
X2154016Y678799D01*
X2153772Y679374D01*
X2153514Y679943D01*
X2153242Y680506D01*
X2152956Y681061D01*
X2152657Y681610D01*
X2152344Y682151D01*
X2152019Y682685D01*
X2151680Y683210D01*
X2151329Y683727D01*
X2150965Y684235D01*
X2150590Y684734D01*
X2150202Y685224D01*
X2149802Y685705D01*
X2149391Y686175D01*
X2148968Y686635D01*
X2148534Y687085D01*
X2148090Y687524D01*
X2147635Y687953D01*
X2147169Y688370D01*
X2146694Y688775D01*
X2146208Y689169D01*
X2145714Y689551D01*
X2145210Y689921D01*
X2144697Y690278D01*
X2144176Y690623D01*
X2143647Y690955D01*
X2143110Y691274D01*
X2142565Y691580D01*
X2142012Y691872D01*
X2141453Y692151D01*
X2140887Y692417D01*
X2140315Y692668D01*
X2139737Y692905D01*
X2139153Y693129D01*
X2138564Y693338D01*
X2137971Y693532D01*
X2137372Y693712D01*
X2136770Y693878D01*
X2136163Y694028D01*
X2135553Y694164D01*
X2134940Y694285D01*
X2134324Y694391D01*
X2133706Y694482D01*
X2133086Y694558D01*
X2132464Y694619D01*
X2131840Y694664D01*
X2131216Y694695D01*
X2130591Y694710D01*
X2129967Y694710D01*
X2129342Y694695D01*
X2128718Y694664D01*
X2128094Y694619D01*
X2127472Y694558D01*
X2126852Y694482D01*
X2126234Y694391D01*
X2125618Y694285D01*
X2125005Y694164D01*
X2124395Y694028D01*
X2123788Y693878D01*
X2123186Y693712D01*
X2122587Y693532D01*
X2121994Y693338D01*
X2121405Y693129D01*
X2120821Y692905D01*
X2120243Y692668D01*
X2119671Y692417D01*
X2119105Y692151D01*
X2118546Y691872D01*
X2117993Y691580D01*
X2117449Y691274D01*
X2116911Y690955D01*
X2116382Y690623D01*
X2115861Y690278D01*
X2115348Y689921D01*
X2114844Y689551D01*
X2114350Y689169D01*
X2113864Y688775D01*
X2113389Y688370D01*
X2112923Y687953D01*
X2112468Y687524D01*
X2112024Y687085D01*
X2111590Y686635D01*
X2111167Y686175D01*
X2110756Y685705D01*
X2110356Y685224D01*
X2109968Y684734D01*
X2109593Y684235D01*
X2109229Y683727D01*
X2108878Y683210D01*
X2108539Y682685D01*
X2108214Y682151D01*
X2107901Y681610D01*
X2107602Y681061D01*
X2107316Y680506D01*
X2107044Y679943D01*
X2106786Y679374D01*
X2106542Y678799D01*
X2106311Y678218D01*
X2106095Y677632D01*
X2105893Y677040D01*
X2105706Y676444D01*
X2105533Y675843D01*
X2105375Y675239D01*
X2105232Y674630D01*
X2105103Y674019D01*
X2104990Y673404D01*
X2104891Y672787D01*
X2104808Y672168D01*
X2104740Y671547D01*
X2104686Y670924D01*
X2104648Y670300D01*
X2104626Y669676D01*
X2104618Y669051D01*
X2063560Y674183D02*
X2063560Y643390D01*
X2063560Y674183D02*
X2063566Y674683D01*
X2063584Y675183D01*
X2063615Y675682D01*
X2063657Y676180D01*
X2063712Y676677D01*
X2063779Y677172D01*
X2063858Y677666D01*
X2063948Y678157D01*
X2064051Y678647D01*
X2064166Y679133D01*
X2064292Y679617D01*
X2064430Y680097D01*
X2064580Y680574D01*
X2064742Y681048D01*
X2064915Y681517D01*
X2065099Y681981D01*
X2065294Y682441D01*
X2065501Y682897D01*
X2065719Y683347D01*
X2065947Y683791D01*
X2066187Y684230D01*
X2066437Y684663D01*
X2066697Y685090D01*
X2066968Y685510D01*
X2067249Y685924D01*
X2067540Y686330D01*
X2067840Y686730D01*
X2068151Y687122D01*
X2068471Y687506D01*
X2068800Y687882D01*
X2069138Y688251D01*
X2069485Y688611D01*
X2069840Y688962D01*
X2070204Y689304D01*
X2070577Y689638D01*
X2070957Y689963D01*
X2071345Y690278D01*
X2071741Y690583D01*
X2072144Y690879D01*
X2072554Y691165D01*
X2072971Y691441D01*
X2073395Y691706D01*
X2073825Y691962D01*
X2074260Y692206D01*
X2074702Y692440D01*
X2075150Y692663D01*
X2075602Y692876D01*
X2076060Y693077D01*
X2076522Y693267D01*
X2076989Y693445D01*
X2077461Y693612D01*
X2077936Y693768D01*
X2078414Y693912D01*
X2078897Y694044D01*
X2079382Y694165D01*
X2079870Y694274D01*
X2080360Y694371D01*
X2080853Y694455D01*
X2081347Y694528D01*
X2081844Y694589D01*
X2082341Y694637D01*
X2082840Y694674D01*
X2083339Y694698D01*
X2083839Y694710D01*
X2084339Y694710D01*
X2084839Y694698D01*
X2085338Y694674D01*
X2085837Y694637D01*
X2086334Y694589D01*
X2086831Y694528D01*
X2087325Y694455D01*
X2087818Y694371D01*
X2088308Y694274D01*
X2088796Y694165D01*
X2089281Y694044D01*
X2089764Y693912D01*
X2090242Y693768D01*
X2090717Y693612D01*
X2091189Y693445D01*
X2091656Y693267D01*
X2092118Y693077D01*
X2092576Y692876D01*
X2093028Y692663D01*
X2093476Y692440D01*
X2093918Y692206D01*
X2094354Y691962D01*
X2094783Y691706D01*
X2095207Y691441D01*
X2095624Y691165D01*
X2096034Y690879D01*
X2096437Y690583D01*
X2096833Y690278D01*
X2097221Y689963D01*
X2097601Y689638D01*
X2097974Y689304D01*
X2098338Y688962D01*
X2098693Y688611D01*
X2099040Y688251D01*
X2099378Y687882D01*
X2099707Y687506D01*
X2100027Y687122D01*
X2100338Y686730D01*
X2100638Y686330D01*
X2100929Y685924D01*
X2101210Y685510D01*
X2101481Y685090D01*
X2101741Y684663D01*
X2101991Y684230D01*
X2102231Y683791D01*
X2102459Y683347D01*
X2102677Y682897D01*
X2102884Y682441D01*
X2103079Y681981D01*
X2103263Y681517D01*
X2103436Y681048D01*
X2103598Y680574D01*
X2103748Y680097D01*
X2103886Y679617D01*
X2104012Y679133D01*
X2104127Y678647D01*
X2104230Y678157D01*
X2104320Y677666D01*
X2104399Y677172D01*
X2104466Y676677D01*
X2104521Y676180D01*
X2104563Y675682D01*
X2104594Y675183D01*
X2104612Y674683D01*
X2104618Y674183D01*
X2104618Y653655D01*
D16*
X2022750Y1991250D02*
X1342750Y1991250D01*
X1342750Y2771250D01*
X2022750Y2771250D01*
X2022750Y1991250D01*
D11*
X1276440Y2300052D02*
X1184060Y2300052D01*
X1276440Y2289788D02*
X1276440Y2310316D01*
X1184060Y2310316D02*
X1184060Y2289788D01*
X1276440Y2366664D02*
X1276440Y2387193D01*
X1276440Y2366664D02*
X1276434Y2366168D01*
X1276416Y2365672D01*
X1276386Y2365177D01*
X1276344Y2364683D01*
X1276290Y2364190D01*
X1276225Y2363698D01*
X1276147Y2363208D01*
X1276058Y2362720D01*
X1275956Y2362234D01*
X1275843Y2361751D01*
X1275719Y2361271D01*
X1275583Y2360794D01*
X1275435Y2360320D01*
X1275276Y2359850D01*
X1275106Y2359384D01*
X1274924Y2358923D01*
X1274732Y2358465D01*
X1274528Y2358013D01*
X1274314Y2357566D01*
X1274089Y2357124D01*
X1273853Y2356687D01*
X1273606Y2356257D01*
X1273350Y2355832D01*
X1273083Y2355414D01*
X1272806Y2355002D01*
X1272519Y2354597D01*
X1272223Y2354200D01*
X1271917Y2353809D01*
X1271602Y2353426D01*
X1271277Y2353051D01*
X1270944Y2352683D01*
X1270602Y2352324D01*
X1270251Y2351973D01*
X1269892Y2351631D01*
X1269524Y2351298D01*
X1269149Y2350973D01*
X1268766Y2350658D01*
X1268375Y2350352D01*
X1267978Y2350056D01*
X1267573Y2349769D01*
X1267161Y2349492D01*
X1266743Y2349225D01*
X1266318Y2348969D01*
X1265888Y2348722D01*
X1265451Y2348486D01*
X1265009Y2348261D01*
X1264562Y2348047D01*
X1264110Y2347843D01*
X1263652Y2347651D01*
X1263191Y2347469D01*
X1262725Y2347299D01*
X1262255Y2347140D01*
X1261781Y2346992D01*
X1261304Y2346856D01*
X1260824Y2346732D01*
X1260341Y2346619D01*
X1259855Y2346517D01*
X1259367Y2346428D01*
X1258877Y2346350D01*
X1258385Y2346285D01*
X1257892Y2346231D01*
X1257398Y2346189D01*
X1256903Y2346159D01*
X1256407Y2346141D01*
X1255911Y2346135D01*
X1255911Y2346136D02*
X1204589Y2346136D01*
X1204085Y2346142D01*
X1203582Y2346161D01*
X1203079Y2346192D01*
X1202577Y2346235D01*
X1202076Y2346290D01*
X1201577Y2346358D01*
X1201079Y2346438D01*
X1200584Y2346530D01*
X1200091Y2346635D01*
X1199601Y2346751D01*
X1199114Y2346880D01*
X1198630Y2347020D01*
X1198150Y2347172D01*
X1197673Y2347336D01*
X1197201Y2347512D01*
X1196733Y2347699D01*
X1196270Y2347897D01*
X1195812Y2348107D01*
X1195359Y2348328D01*
X1194912Y2348560D01*
X1194470Y2348803D01*
X1194035Y2349057D01*
X1193606Y2349321D01*
X1193184Y2349596D01*
X1192768Y2349881D01*
X1192360Y2350176D01*
X1191959Y2350481D01*
X1191566Y2350796D01*
X1191180Y2351120D01*
X1190803Y2351454D01*
X1190434Y2351797D01*
X1190073Y2352149D01*
X1189721Y2352509D01*
X1189378Y2352878D01*
X1189044Y2353256D01*
X1188720Y2353641D01*
X1188405Y2354035D01*
X1188100Y2354436D01*
X1187805Y2354844D01*
X1187520Y2355259D01*
X1187245Y2355682D01*
X1186981Y2356111D01*
X1186727Y2356546D01*
X1186484Y2356987D01*
X1186252Y2357435D01*
X1186031Y2357887D01*
X1185821Y2358345D01*
X1185623Y2358808D01*
X1185436Y2359276D01*
X1185260Y2359749D01*
X1185096Y2360225D01*
X1184944Y2360705D01*
X1184804Y2361189D01*
X1184675Y2361676D01*
X1184559Y2362167D01*
X1184455Y2362659D01*
X1184362Y2363155D01*
X1184282Y2363652D01*
X1184214Y2364151D01*
X1184159Y2364652D01*
X1184116Y2365154D01*
X1184085Y2365657D01*
X1184066Y2366161D01*
X1184060Y2366664D01*
X1184060Y2387193D01*
X1184060Y2441919D02*
X1255911Y2421390D01*
X1255911Y2472713D01*
X1235383Y2457316D02*
X1276440Y2457316D01*
D16*
X1342750Y1755250D02*
X2022750Y1755250D01*
X2022750Y975250D01*
X1342750Y975250D01*
X1342750Y1755250D01*
D11*
X1292440Y1284052D02*
X1200060Y1284052D01*
X1292440Y1273788D02*
X1292440Y1294316D01*
X1200060Y1294316D02*
X1200060Y1273788D01*
X1292440Y1350664D02*
X1292440Y1371193D01*
X1292440Y1350664D02*
X1292434Y1350168D01*
X1292416Y1349672D01*
X1292386Y1349177D01*
X1292344Y1348683D01*
X1292290Y1348190D01*
X1292225Y1347698D01*
X1292147Y1347208D01*
X1292058Y1346720D01*
X1291956Y1346234D01*
X1291843Y1345751D01*
X1291719Y1345271D01*
X1291583Y1344794D01*
X1291435Y1344320D01*
X1291276Y1343850D01*
X1291106Y1343384D01*
X1290924Y1342923D01*
X1290732Y1342465D01*
X1290528Y1342013D01*
X1290314Y1341566D01*
X1290089Y1341124D01*
X1289853Y1340687D01*
X1289606Y1340257D01*
X1289350Y1339832D01*
X1289083Y1339414D01*
X1288806Y1339002D01*
X1288519Y1338597D01*
X1288223Y1338200D01*
X1287917Y1337809D01*
X1287602Y1337426D01*
X1287277Y1337051D01*
X1286944Y1336683D01*
X1286602Y1336324D01*
X1286251Y1335973D01*
X1285892Y1335631D01*
X1285524Y1335298D01*
X1285149Y1334973D01*
X1284766Y1334658D01*
X1284375Y1334352D01*
X1283978Y1334056D01*
X1283573Y1333769D01*
X1283161Y1333492D01*
X1282743Y1333225D01*
X1282318Y1332969D01*
X1281888Y1332722D01*
X1281451Y1332486D01*
X1281009Y1332261D01*
X1280562Y1332047D01*
X1280110Y1331843D01*
X1279652Y1331651D01*
X1279191Y1331469D01*
X1278725Y1331299D01*
X1278255Y1331140D01*
X1277781Y1330992D01*
X1277304Y1330856D01*
X1276824Y1330732D01*
X1276341Y1330619D01*
X1275855Y1330517D01*
X1275367Y1330428D01*
X1274877Y1330350D01*
X1274385Y1330285D01*
X1273892Y1330231D01*
X1273398Y1330189D01*
X1272903Y1330159D01*
X1272407Y1330141D01*
X1271911Y1330135D01*
X1271911Y1330136D02*
X1220589Y1330136D01*
X1220085Y1330142D01*
X1219582Y1330161D01*
X1219079Y1330192D01*
X1218577Y1330235D01*
X1218076Y1330290D01*
X1217577Y1330358D01*
X1217079Y1330438D01*
X1216584Y1330530D01*
X1216091Y1330635D01*
X1215601Y1330751D01*
X1215114Y1330880D01*
X1214630Y1331020D01*
X1214150Y1331172D01*
X1213673Y1331336D01*
X1213201Y1331512D01*
X1212733Y1331699D01*
X1212270Y1331897D01*
X1211812Y1332107D01*
X1211359Y1332328D01*
X1210912Y1332560D01*
X1210470Y1332803D01*
X1210035Y1333057D01*
X1209606Y1333321D01*
X1209184Y1333596D01*
X1208768Y1333881D01*
X1208360Y1334176D01*
X1207959Y1334481D01*
X1207566Y1334796D01*
X1207180Y1335120D01*
X1206803Y1335454D01*
X1206434Y1335797D01*
X1206073Y1336149D01*
X1205721Y1336509D01*
X1205378Y1336878D01*
X1205044Y1337256D01*
X1204720Y1337641D01*
X1204405Y1338035D01*
X1204100Y1338436D01*
X1203805Y1338844D01*
X1203520Y1339259D01*
X1203245Y1339682D01*
X1202981Y1340111D01*
X1202727Y1340546D01*
X1202484Y1340987D01*
X1202252Y1341435D01*
X1202031Y1341887D01*
X1201821Y1342345D01*
X1201623Y1342808D01*
X1201436Y1343276D01*
X1201260Y1343749D01*
X1201096Y1344225D01*
X1200944Y1344705D01*
X1200804Y1345189D01*
X1200675Y1345676D01*
X1200559Y1346167D01*
X1200455Y1346659D01*
X1200362Y1347155D01*
X1200282Y1347652D01*
X1200214Y1348151D01*
X1200159Y1348652D01*
X1200116Y1349154D01*
X1200085Y1349657D01*
X1200066Y1350161D01*
X1200060Y1350664D01*
X1200060Y1371193D01*
X1292440Y1405390D02*
X1292440Y1436183D01*
X1292434Y1436679D01*
X1292416Y1437175D01*
X1292386Y1437670D01*
X1292344Y1438164D01*
X1292290Y1438657D01*
X1292225Y1439149D01*
X1292147Y1439639D01*
X1292058Y1440127D01*
X1291956Y1440613D01*
X1291843Y1441096D01*
X1291719Y1441576D01*
X1291583Y1442053D01*
X1291435Y1442527D01*
X1291276Y1442997D01*
X1291106Y1443463D01*
X1290924Y1443924D01*
X1290732Y1444382D01*
X1290528Y1444834D01*
X1290314Y1445281D01*
X1290089Y1445723D01*
X1289853Y1446160D01*
X1289606Y1446590D01*
X1289350Y1447015D01*
X1289083Y1447433D01*
X1288806Y1447845D01*
X1288519Y1448250D01*
X1288223Y1448647D01*
X1287917Y1449038D01*
X1287602Y1449421D01*
X1287277Y1449796D01*
X1286944Y1450164D01*
X1286602Y1450523D01*
X1286251Y1450874D01*
X1285892Y1451216D01*
X1285524Y1451549D01*
X1285149Y1451874D01*
X1284766Y1452189D01*
X1284375Y1452495D01*
X1283978Y1452791D01*
X1283573Y1453078D01*
X1283161Y1453355D01*
X1282743Y1453622D01*
X1282318Y1453878D01*
X1281888Y1454125D01*
X1281451Y1454361D01*
X1281009Y1454586D01*
X1280562Y1454800D01*
X1280110Y1455004D01*
X1279652Y1455196D01*
X1279191Y1455378D01*
X1278725Y1455548D01*
X1278255Y1455707D01*
X1277781Y1455855D01*
X1277304Y1455991D01*
X1276824Y1456115D01*
X1276341Y1456228D01*
X1275855Y1456330D01*
X1275367Y1456419D01*
X1274877Y1456497D01*
X1274385Y1456562D01*
X1273892Y1456616D01*
X1273398Y1456658D01*
X1272903Y1456688D01*
X1272407Y1456706D01*
X1271911Y1456712D01*
X1271911Y1456713D02*
X1261647Y1456713D01*
X1261647Y1456712D02*
X1261143Y1456706D01*
X1260640Y1456687D01*
X1260137Y1456656D01*
X1259635Y1456613D01*
X1259134Y1456558D01*
X1258635Y1456490D01*
X1258137Y1456410D01*
X1257642Y1456318D01*
X1257149Y1456213D01*
X1256659Y1456097D01*
X1256172Y1455968D01*
X1255688Y1455828D01*
X1255207Y1455676D01*
X1254731Y1455512D01*
X1254259Y1455336D01*
X1253791Y1455149D01*
X1253328Y1454951D01*
X1252870Y1454741D01*
X1252417Y1454520D01*
X1251970Y1454288D01*
X1251528Y1454045D01*
X1251093Y1453791D01*
X1250664Y1453527D01*
X1250242Y1453252D01*
X1249826Y1452967D01*
X1249418Y1452672D01*
X1249017Y1452367D01*
X1248624Y1452052D01*
X1248238Y1451728D01*
X1247861Y1451394D01*
X1247492Y1451051D01*
X1247131Y1450699D01*
X1246779Y1450339D01*
X1246436Y1449970D01*
X1246102Y1449592D01*
X1245778Y1449207D01*
X1245463Y1448813D01*
X1245158Y1448412D01*
X1244863Y1448004D01*
X1244578Y1447588D01*
X1244303Y1447166D01*
X1244039Y1446737D01*
X1243785Y1446302D01*
X1243542Y1445860D01*
X1243310Y1445413D01*
X1243089Y1444960D01*
X1242879Y1444502D01*
X1242681Y1444039D01*
X1242494Y1443572D01*
X1242318Y1443099D01*
X1242154Y1442623D01*
X1242002Y1442142D01*
X1241862Y1441659D01*
X1241733Y1441171D01*
X1241617Y1440681D01*
X1241513Y1440188D01*
X1241420Y1439693D01*
X1241340Y1439196D01*
X1241272Y1438696D01*
X1241217Y1438195D01*
X1241174Y1437694D01*
X1241143Y1437191D01*
X1241124Y1436687D01*
X1241118Y1436183D01*
X1241118Y1405390D01*
X1200060Y1405390D01*
X1200060Y1456713D01*
D13*
X2190750Y1682750D02*
X2190750Y1809750D01*
X2254250Y1873250D01*
X2381250Y1873250D01*
X2444750Y1809750D01*
X2381250Y1619250D02*
X2254250Y1619250D01*
X2190750Y1682750D01*
X2381250Y1619250D02*
X2444750Y1682750D01*
X2444750Y1809750D01*
X2254250Y1873250D02*
X2190750Y1936750D01*
X2190750Y2063750D01*
X2254250Y2127250D01*
X2381250Y2127250D01*
X2444750Y2063750D01*
X2444750Y1936750D01*
X2381250Y1873250D01*
X730250Y1809750D02*
X730250Y1682750D01*
X730250Y1809750D02*
X793750Y1873250D01*
X920750Y1873250D01*
X984250Y1809750D01*
X920750Y1619250D02*
X793750Y1619250D01*
X730250Y1682750D01*
X920750Y1619250D02*
X984250Y1682750D01*
X984250Y1809750D01*
X793750Y1873250D02*
X730250Y1936750D01*
X730250Y2063750D01*
X793750Y2127250D01*
X920750Y2127250D01*
X984250Y2063750D01*
X984250Y1936750D01*
X920750Y1873250D01*
X285750Y1809750D02*
X285750Y1682750D01*
X285750Y1809750D02*
X349250Y1873250D01*
X476250Y1873250D01*
X539750Y1809750D01*
X476250Y1619250D02*
X349250Y1619250D01*
X285750Y1682750D01*
X476250Y1619250D02*
X539750Y1682750D01*
X539750Y1809750D01*
X349250Y1873250D02*
X285750Y1936750D01*
X285750Y2063750D01*
X349250Y2127250D01*
X476250Y2127250D01*
X539750Y2063750D01*
X539750Y1936750D01*
X476250Y1873250D01*
M02*
