M48
;GenerationSoftware,Autodesk,EAGLE,9.0.0*%
;CreationDate,2018-05-03T17:35:26Z*%
FMAT,2
ICI,OFF
METRIC,TZ,000.00000
T2C0.40000
T1C1.01600
%
G90
M71
T1
X412750Y2000250
X2317750Y1746250
X2317750Y2000250
X857250Y1746250
X857250Y2000250
X412750Y1746250
T2
X2444750Y984250
X2444750Y2254250
X2444750Y1492250
X2444750Y476250
X1301750Y1492250
X1301750Y1873250
X1414750Y3210250
X1775000Y3225000
X1950000Y525000
X793750Y3270250
X285750Y3270250
X285750Y2762250
X793750Y984250
X2444750Y3270250
X285750Y984250
X793750Y476250
X285750Y476250
X285750Y2254250
X285750Y1492250
X1525000Y250000
X1675000Y825000
X1900000Y250000
X2075000Y825000
X1835000Y3500000
X1675000Y2925000
X1460000Y3500000
X1290000Y2870000
X1301750Y984250
X1301750Y476250
X1301750Y2254250
X1301750Y2762250
X2444750Y2762250
X793750Y2762250
M30