G04 EAGLE Gerber X2 export*
%TF.Part,Single*%
%TF.FileFunction,Other,Solder Mask top*%
%TF.FilePolarity,Positive*%
%TF.GenerationSoftware,Autodesk,EAGLE,9.0.0*%
%TF.CreationDate,2018-05-03T06:09:00Z*%
G75*
%MOMM*%
%FSLAX35Y35*%
%LPD*%
%AMOC8*
5,1,8,0,0,1.08239X$1,22.5*%
G01*
%ADD10C,0.000000*%
%ADD11R,0.653200X1.653200*%
%ADD12R,0.603200X0.903200*%
%ADD13R,0.783200X2.703200*%
%ADD14C,1.727200*%
%ADD15C,1.009600*%


D10*
X349250Y3651250D02*
X2381250Y3651250D01*
X2635250Y3397250D02*
X2635250Y349250D01*
X2381250Y95250D02*
X349250Y95250D01*
X95250Y349250D02*
X95250Y3397250D01*
X95324Y3403388D01*
X95547Y3409522D01*
X95917Y3415648D01*
X96436Y3421765D01*
X97102Y3427866D01*
X97915Y3433950D01*
X98876Y3440013D01*
X99982Y3446050D01*
X101234Y3452059D01*
X102631Y3458036D01*
X104172Y3463978D01*
X105856Y3469880D01*
X107682Y3475740D01*
X109649Y3481555D01*
X111756Y3487320D01*
X114002Y3493032D01*
X116385Y3498689D01*
X118904Y3504286D01*
X121558Y3509821D01*
X124344Y3515290D01*
X127262Y3520690D01*
X130310Y3526018D01*
X133485Y3531271D01*
X136787Y3536445D01*
X140212Y3541538D01*
X143760Y3546547D01*
X147427Y3551469D01*
X151213Y3556301D01*
X155114Y3561040D01*
X159128Y3565683D01*
X163254Y3570228D01*
X167488Y3574672D01*
X171828Y3579012D01*
X176272Y3583246D01*
X180817Y3587372D01*
X185460Y3591386D01*
X190199Y3595287D01*
X195031Y3599073D01*
X199953Y3602740D01*
X204962Y3606288D01*
X210055Y3609713D01*
X215229Y3613015D01*
X220482Y3616190D01*
X225810Y3619238D01*
X231210Y3622156D01*
X236679Y3624942D01*
X242214Y3627596D01*
X247811Y3630115D01*
X253468Y3632498D01*
X259180Y3634744D01*
X264945Y3636851D01*
X270760Y3638818D01*
X276620Y3640644D01*
X282522Y3642328D01*
X288464Y3643869D01*
X294441Y3645266D01*
X300450Y3646518D01*
X306487Y3647624D01*
X312550Y3648585D01*
X318634Y3649398D01*
X324735Y3650064D01*
X330852Y3650583D01*
X336978Y3650953D01*
X343112Y3651176D01*
X349250Y3651250D01*
X2381250Y3651250D02*
X2387388Y3651176D01*
X2393522Y3650953D01*
X2399648Y3650583D01*
X2405765Y3650064D01*
X2411866Y3649398D01*
X2417950Y3648585D01*
X2424013Y3647624D01*
X2430050Y3646518D01*
X2436059Y3645266D01*
X2442036Y3643869D01*
X2447978Y3642328D01*
X2453880Y3640644D01*
X2459740Y3638818D01*
X2465555Y3636851D01*
X2471320Y3634744D01*
X2477032Y3632498D01*
X2482689Y3630115D01*
X2488286Y3627596D01*
X2493821Y3624942D01*
X2499290Y3622156D01*
X2504690Y3619238D01*
X2510018Y3616190D01*
X2515271Y3613015D01*
X2520445Y3609713D01*
X2525538Y3606288D01*
X2530547Y3602740D01*
X2535469Y3599073D01*
X2540301Y3595287D01*
X2545040Y3591386D01*
X2549683Y3587372D01*
X2554228Y3583246D01*
X2558672Y3579012D01*
X2563012Y3574672D01*
X2567246Y3570228D01*
X2571372Y3565683D01*
X2575386Y3561040D01*
X2579287Y3556301D01*
X2583073Y3551469D01*
X2586740Y3546547D01*
X2590288Y3541538D01*
X2593713Y3536445D01*
X2597015Y3531271D01*
X2600190Y3526018D01*
X2603238Y3520690D01*
X2606156Y3515290D01*
X2608942Y3509821D01*
X2611596Y3504286D01*
X2614115Y3498689D01*
X2616498Y3493032D01*
X2618744Y3487320D01*
X2620851Y3481555D01*
X2622818Y3475740D01*
X2624644Y3469880D01*
X2626328Y3463978D01*
X2627869Y3458036D01*
X2629266Y3452059D01*
X2630518Y3446050D01*
X2631624Y3440013D01*
X2632585Y3433950D01*
X2633398Y3427866D01*
X2634064Y3421765D01*
X2634583Y3415648D01*
X2634953Y3409522D01*
X2635176Y3403388D01*
X2635250Y3397250D01*
X95250Y349250D02*
X95324Y343112D01*
X95547Y336978D01*
X95917Y330852D01*
X96436Y324735D01*
X97102Y318634D01*
X97915Y312550D01*
X98876Y306487D01*
X99982Y300450D01*
X101234Y294441D01*
X102631Y288464D01*
X104172Y282522D01*
X105856Y276620D01*
X107682Y270760D01*
X109649Y264945D01*
X111756Y259180D01*
X114002Y253468D01*
X116385Y247811D01*
X118904Y242214D01*
X121558Y236679D01*
X124344Y231210D01*
X127262Y225810D01*
X130310Y220482D01*
X133485Y215229D01*
X136787Y210055D01*
X140212Y204962D01*
X143760Y199953D01*
X147427Y195031D01*
X151213Y190199D01*
X155114Y185460D01*
X159128Y180817D01*
X163254Y176272D01*
X167488Y171828D01*
X171828Y167488D01*
X176272Y163254D01*
X180817Y159128D01*
X185460Y155114D01*
X190199Y151213D01*
X195031Y147427D01*
X199953Y143760D01*
X204962Y140212D01*
X210055Y136787D01*
X215229Y133485D01*
X220482Y130310D01*
X225810Y127262D01*
X231210Y124344D01*
X236679Y121558D01*
X242214Y118904D01*
X247811Y116385D01*
X253468Y114002D01*
X259180Y111756D01*
X264945Y109649D01*
X270760Y107682D01*
X276620Y105856D01*
X282522Y104172D01*
X288464Y102631D01*
X294441Y101234D01*
X300450Y99982D01*
X306487Y98876D01*
X312550Y97915D01*
X318634Y97102D01*
X324735Y96436D01*
X330852Y95917D01*
X336978Y95547D01*
X343112Y95324D01*
X349250Y95250D01*
X2381250Y95250D02*
X2387388Y95324D01*
X2393522Y95547D01*
X2399648Y95917D01*
X2405765Y96436D01*
X2411866Y97102D01*
X2417950Y97915D01*
X2424013Y98876D01*
X2430050Y99982D01*
X2436059Y101234D01*
X2442036Y102631D01*
X2447978Y104172D01*
X2453880Y105856D01*
X2459740Y107682D01*
X2465555Y109649D01*
X2471320Y111756D01*
X2477032Y114002D01*
X2482689Y116385D01*
X2488286Y118904D01*
X2493821Y121558D01*
X2499290Y124344D01*
X2504690Y127262D01*
X2510018Y130310D01*
X2515271Y133485D01*
X2520445Y136787D01*
X2525538Y140212D01*
X2530547Y143760D01*
X2535469Y147427D01*
X2540301Y151213D01*
X2545040Y155114D01*
X2549683Y159128D01*
X2554228Y163254D01*
X2558672Y167488D01*
X2563012Y171828D01*
X2567246Y176272D01*
X2571372Y180817D01*
X2575386Y185460D01*
X2579287Y190199D01*
X2583073Y195031D01*
X2586740Y199953D01*
X2590288Y204962D01*
X2593713Y210055D01*
X2597015Y215229D01*
X2600190Y220482D01*
X2603238Y225810D01*
X2606156Y231210D01*
X2608942Y236679D01*
X2611596Y242214D01*
X2614115Y247811D01*
X2616498Y253468D01*
X2618744Y259180D01*
X2620851Y264945D01*
X2622818Y270760D01*
X2624644Y276620D01*
X2626328Y282522D01*
X2627869Y288464D01*
X2629266Y294441D01*
X2630518Y300450D01*
X2631624Y306487D01*
X2632585Y312550D01*
X2633398Y318634D01*
X2634064Y324735D01*
X2634583Y330852D01*
X2634953Y336978D01*
X2635176Y343112D01*
X2635250Y349250D01*
D11*
X1589250Y826250D03*
X1524250Y826250D03*
X1459250Y826250D03*
X1394250Y826250D03*
X1589250Y386250D03*
X1524250Y386250D03*
X1459250Y386250D03*
X1394250Y386250D03*
X1776250Y2920250D03*
X1841250Y2920250D03*
X1906250Y2920250D03*
X1971250Y2920250D03*
X1776250Y3360250D03*
X1841250Y3360250D03*
X1906250Y3360250D03*
X1971250Y3360250D03*
X1395250Y2920250D03*
X1460250Y2920250D03*
X1525250Y2920250D03*
X1590250Y2920250D03*
X1395250Y3360250D03*
X1460250Y3360250D03*
X1525250Y3360250D03*
X1590250Y3360250D03*
X1970250Y826250D03*
X1905250Y826250D03*
X1840250Y826250D03*
X1775250Y826250D03*
X1970250Y386250D03*
X1905250Y386250D03*
X1840250Y386250D03*
X1775250Y386250D03*
D12*
X1873750Y2676250D03*
X1746750Y2676250D03*
X1619750Y2676250D03*
X1492750Y2676250D03*
D13*
X1782750Y2231250D03*
X1582750Y2231250D03*
D12*
X1491750Y1070250D03*
X1618750Y1070250D03*
X1745750Y1070250D03*
X1872750Y1070250D03*
D13*
X1582750Y1515250D03*
X1782750Y1515250D03*
D14*
X2241550Y1746250D02*
X2393950Y1746250D01*
X2393950Y2000250D02*
X2241550Y2000250D01*
X933450Y1746250D02*
X781050Y1746250D01*
X781050Y2000250D02*
X933450Y2000250D01*
X488950Y1746250D02*
X336550Y1746250D01*
X336550Y2000250D02*
X488950Y2000250D01*
D15*
X2444750Y3270250D03*
X1301750Y984250D03*
X1301750Y476250D03*
X1301750Y2254250D03*
X1301750Y2762250D03*
X2444750Y2762250D03*
X2444750Y984250D03*
X2444750Y2254250D03*
X2444750Y1492250D03*
X2444750Y476250D03*
X1301750Y1492250D03*
X1301750Y1873250D03*
X1414750Y3210250D03*
X1775000Y3225000D03*
X1950000Y525000D03*
X793750Y3270250D03*
X285750Y3270250D03*
X285750Y2762250D03*
X793750Y984250D03*
X793750Y2762250D03*
X285750Y984250D03*
X793750Y476250D03*
X285750Y476250D03*
X285750Y2254250D03*
X285750Y1492250D03*
X1525000Y250000D03*
X1675000Y825000D03*
X1900000Y250000D03*
X2075000Y825000D03*
X1835000Y3500000D03*
X1675000Y2925000D03*
X1460000Y3500000D03*
X1290000Y2870000D03*
M02*
