M48
;GenerationSoftware,Autodesk,EAGLE,8.6.1*%
;CreationDate,2018-02-11T16:27:45Z*%
FMAT,2
ICI,OFF
METRIC,TZ,000.000
T2C0.350
T1C1.016
%
G90
M71
T1
X-3810Y74930
X15240Y72390
X15240Y74930
X635Y72390
X635Y74930
X-3810Y72390
T2
X16510Y64770
X16510Y77470
X16510Y69850
X16510Y59690
X5080Y69850
X5080Y73660
X7302Y57467
X8890Y63182
X6667Y89852
X5080Y84138
X8890Y84138
X10478Y89852
X12700Y63182
X11112Y57467
X16510Y87630
X9843Y86995
X5398Y88582
X7890Y80328
X0Y87630
X-5080Y87630
X-5080Y82550
X0Y64770
X0Y82550
X-5080Y64770
X0Y59690
X-5080Y59690
X-5080Y77470
X-5080Y69850
X5080Y64770
X5080Y59690
X5080Y77470
X5080Y82550
X16510Y82550
X11747Y60325
M30