M48
;GenerationSoftware,Autodesk,EAGLE,9.0.0*%
;CreationDate,2018-04-26T05:51:28Z*%
FMAT,2
ICI,OFF
METRIC,TZ,000.000
T3C0.350
T2C0.400
T1C1.016
%
G90
M71
T1
X4128Y20003
X23177Y17463
X23177Y20003
X8573Y17463
X8573Y20003
X4128Y17463
T2
X24447Y9843
X24447Y22542
X24447Y14922
X24447Y4763
X13017Y14922
X13017Y18733
X14147Y32102
X17750Y32250
X19500Y5250
X7937Y32702
X2857Y32702
X2857Y27622
X7937Y9843
X24447Y32702
X2857Y9843
X7937Y4763
X2857Y4763
X2857Y22542
X2857Y14922
X15250Y2500
X16750Y8250
X19000Y2500
X20750Y8250
X18350Y35000
X16750Y29250
X14600Y35000
X13017Y9843
X13017Y4763
X13017Y22542
X13017Y27622
X24447Y27622
X7937Y27622
T3
X12900Y28700
M30