M48
;GenerationSoftware,Autodesk,EAGLE,8.6.1*%
;CreationDate,2018-02-11T16:56:17Z*%
FMAT,2
ICI,OFF
METRIC,TZ,000.000
T2C0.350
T1C1.016
%
G90
M71
T1
X5398Y21907
X24447Y19368
X24447Y21907
X9843Y19368
X9843Y21907
X5398Y19368
T2
X25717Y11747
X25717Y24447
X25717Y16828
X25717Y6667
X14287Y16828
X14287Y20638
X16510Y4445
X18098Y10160
X15875Y36830
X14287Y31115
X18098Y31115
X19685Y36830
X21907Y10160
X20320Y4445
X25717Y34608
X19050Y33973
X14605Y35560
X17098Y27305
X9208Y34608
X4128Y34608
X4128Y29527
X9208Y11747
X9208Y29527
X4128Y11747
X9208Y6667
X4128Y6667
X4128Y24447
X4128Y16828
X14287Y11747
X14287Y6667
X14287Y24447
X14287Y29527
X25717Y29527
X20955Y7302
M30