G04 EAGLE Gerber X2 export*
%TF.Part,Single*%
%TF.FileFunction,Legend,Bot,1*%
%TF.FilePolarity,Positive*%
%TF.GenerationSoftware,Autodesk,EAGLE,9.0.0*%
%TF.CreationDate,2018-04-26T05:51:29Z*%
G75*
%MOMM*%
%FSLAX34Y34*%
%LPD*%
%AMOC8*
5,1,8,0,0,1.08239X$1,22.5*%
G01*
%ADD10C,0.812800*%
%ADD11C,0.076200*%
%ADD12C,0.127000*%
%ADD13R,1.000000X4.000000*%


D10*
X107950Y355600D02*
X107950Y336575D01*
X107950Y320319D02*
X107950Y301295D01*
X107950Y285039D02*
X107950Y266014D01*
X107950Y249758D02*
X107950Y230734D01*
X107950Y214478D02*
X107950Y195453D01*
X107950Y179197D02*
X107950Y160172D01*
X107950Y143916D02*
X107950Y124892D01*
X107950Y108636D02*
X107950Y89611D01*
X107950Y73355D02*
X107950Y54331D01*
X107950Y38075D02*
X107950Y19050D01*
D11*
X170006Y24299D02*
X170006Y26352D01*
X170006Y24299D02*
X170008Y24209D01*
X170014Y24120D01*
X170024Y24031D01*
X170037Y23943D01*
X170055Y23855D01*
X170076Y23768D01*
X170101Y23682D01*
X170130Y23597D01*
X170162Y23513D01*
X170198Y23431D01*
X170238Y23351D01*
X170281Y23273D01*
X170328Y23196D01*
X170377Y23121D01*
X170430Y23049D01*
X170486Y22979D01*
X170545Y22912D01*
X170607Y22847D01*
X170672Y22785D01*
X170739Y22726D01*
X170809Y22670D01*
X170881Y22617D01*
X170956Y22568D01*
X171033Y22521D01*
X171111Y22478D01*
X171191Y22438D01*
X171273Y22402D01*
X171357Y22370D01*
X171442Y22341D01*
X171528Y22316D01*
X171615Y22295D01*
X171703Y22277D01*
X171791Y22264D01*
X171880Y22254D01*
X171969Y22248D01*
X172059Y22246D01*
X177191Y22246D01*
X177281Y22248D01*
X177370Y22254D01*
X177459Y22264D01*
X177547Y22277D01*
X177635Y22295D01*
X177722Y22316D01*
X177808Y22341D01*
X177893Y22370D01*
X177977Y22402D01*
X178059Y22438D01*
X178139Y22478D01*
X178217Y22521D01*
X178294Y22568D01*
X178369Y22617D01*
X178441Y22670D01*
X178511Y22726D01*
X178578Y22785D01*
X178643Y22847D01*
X178705Y22912D01*
X178764Y22979D01*
X178820Y23049D01*
X178873Y23121D01*
X178922Y23196D01*
X178969Y23272D01*
X179012Y23351D01*
X179052Y23431D01*
X179088Y23513D01*
X179120Y23597D01*
X179149Y23682D01*
X179174Y23768D01*
X179195Y23855D01*
X179213Y23942D01*
X179226Y24031D01*
X179236Y24120D01*
X179242Y24209D01*
X179244Y24299D01*
X179244Y26352D01*
X177191Y29772D02*
X179244Y32338D01*
X170006Y32338D01*
X170006Y29772D02*
X170006Y34904D01*
X208106Y26352D02*
X208106Y24299D01*
X208108Y24209D01*
X208114Y24120D01*
X208124Y24031D01*
X208137Y23943D01*
X208155Y23855D01*
X208176Y23768D01*
X208201Y23682D01*
X208230Y23597D01*
X208262Y23513D01*
X208298Y23431D01*
X208338Y23351D01*
X208381Y23273D01*
X208428Y23196D01*
X208477Y23121D01*
X208530Y23049D01*
X208586Y22979D01*
X208645Y22912D01*
X208707Y22847D01*
X208772Y22785D01*
X208839Y22726D01*
X208909Y22670D01*
X208981Y22617D01*
X209056Y22568D01*
X209133Y22521D01*
X209211Y22478D01*
X209291Y22438D01*
X209373Y22402D01*
X209457Y22370D01*
X209542Y22341D01*
X209628Y22316D01*
X209715Y22295D01*
X209803Y22277D01*
X209891Y22264D01*
X209980Y22254D01*
X210069Y22248D01*
X210159Y22246D01*
X215291Y22246D01*
X215381Y22248D01*
X215470Y22254D01*
X215559Y22264D01*
X215647Y22277D01*
X215735Y22295D01*
X215822Y22316D01*
X215908Y22341D01*
X215993Y22370D01*
X216077Y22402D01*
X216159Y22438D01*
X216239Y22478D01*
X216317Y22521D01*
X216394Y22568D01*
X216469Y22617D01*
X216541Y22670D01*
X216611Y22726D01*
X216678Y22785D01*
X216743Y22847D01*
X216805Y22912D01*
X216864Y22979D01*
X216920Y23049D01*
X216973Y23121D01*
X217022Y23196D01*
X217069Y23272D01*
X217112Y23351D01*
X217152Y23431D01*
X217188Y23513D01*
X217220Y23597D01*
X217249Y23682D01*
X217274Y23768D01*
X217295Y23855D01*
X217313Y23942D01*
X217326Y24031D01*
X217336Y24120D01*
X217342Y24209D01*
X217344Y24299D01*
X217344Y26352D01*
X217344Y32594D02*
X217342Y32689D01*
X217336Y32785D01*
X217326Y32880D01*
X217312Y32974D01*
X217295Y33068D01*
X217273Y33161D01*
X217248Y33253D01*
X217219Y33344D01*
X217186Y33434D01*
X217149Y33522D01*
X217109Y33609D01*
X217066Y33693D01*
X217018Y33776D01*
X216968Y33857D01*
X216914Y33936D01*
X216857Y34013D01*
X216797Y34087D01*
X216734Y34159D01*
X216667Y34227D01*
X216599Y34294D01*
X216527Y34357D01*
X216453Y34417D01*
X216376Y34474D01*
X216297Y34528D01*
X216216Y34578D01*
X216133Y34626D01*
X216049Y34669D01*
X215962Y34709D01*
X215874Y34746D01*
X215784Y34779D01*
X215693Y34808D01*
X215601Y34833D01*
X215508Y34855D01*
X215414Y34872D01*
X215320Y34886D01*
X215225Y34896D01*
X215129Y34902D01*
X215034Y34904D01*
X217344Y32594D02*
X217342Y32487D01*
X217336Y32381D01*
X217327Y32275D01*
X217313Y32169D01*
X217296Y32064D01*
X217275Y31959D01*
X217251Y31856D01*
X217222Y31753D01*
X217190Y31651D01*
X217155Y31551D01*
X217115Y31452D01*
X217072Y31354D01*
X217026Y31258D01*
X216976Y31164D01*
X216923Y31071D01*
X216867Y30981D01*
X216807Y30892D01*
X216745Y30806D01*
X216679Y30722D01*
X216610Y30641D01*
X216539Y30562D01*
X216464Y30485D01*
X216387Y30412D01*
X216307Y30341D01*
X216225Y30273D01*
X216141Y30208D01*
X216054Y30146D01*
X215965Y30088D01*
X215874Y30032D01*
X215781Y29980D01*
X215686Y29931D01*
X215589Y29886D01*
X215491Y29844D01*
X215392Y29806D01*
X215291Y29771D01*
X213237Y34134D02*
X213305Y34202D01*
X213375Y34267D01*
X213447Y34330D01*
X213522Y34390D01*
X213599Y34447D01*
X213678Y34500D01*
X213759Y34551D01*
X213842Y34599D01*
X213926Y34643D01*
X214013Y34684D01*
X214101Y34722D01*
X214190Y34756D01*
X214281Y34787D01*
X214372Y34814D01*
X214465Y34838D01*
X214559Y34858D01*
X214653Y34875D01*
X214748Y34887D01*
X214843Y34897D01*
X214938Y34902D01*
X215034Y34904D01*
X213238Y34134D02*
X208106Y29772D01*
X208106Y34904D01*
X157306Y341799D02*
X157306Y343852D01*
X157306Y341799D02*
X157308Y341709D01*
X157314Y341620D01*
X157324Y341531D01*
X157337Y341443D01*
X157355Y341355D01*
X157376Y341268D01*
X157401Y341182D01*
X157430Y341097D01*
X157462Y341013D01*
X157498Y340931D01*
X157538Y340851D01*
X157581Y340773D01*
X157628Y340696D01*
X157677Y340621D01*
X157730Y340549D01*
X157786Y340479D01*
X157845Y340412D01*
X157907Y340347D01*
X157972Y340285D01*
X158039Y340226D01*
X158109Y340170D01*
X158181Y340117D01*
X158256Y340068D01*
X158333Y340021D01*
X158411Y339978D01*
X158491Y339938D01*
X158573Y339902D01*
X158657Y339870D01*
X158742Y339841D01*
X158828Y339816D01*
X158915Y339795D01*
X159003Y339777D01*
X159091Y339764D01*
X159180Y339754D01*
X159269Y339748D01*
X159359Y339746D01*
X164491Y339746D01*
X164581Y339748D01*
X164670Y339754D01*
X164759Y339764D01*
X164847Y339777D01*
X164935Y339795D01*
X165022Y339816D01*
X165108Y339841D01*
X165193Y339870D01*
X165277Y339902D01*
X165359Y339938D01*
X165439Y339978D01*
X165517Y340021D01*
X165594Y340068D01*
X165669Y340117D01*
X165741Y340170D01*
X165811Y340226D01*
X165878Y340285D01*
X165943Y340347D01*
X166005Y340412D01*
X166064Y340479D01*
X166120Y340549D01*
X166173Y340621D01*
X166222Y340696D01*
X166269Y340772D01*
X166312Y340851D01*
X166352Y340931D01*
X166388Y341013D01*
X166420Y341097D01*
X166449Y341182D01*
X166474Y341268D01*
X166495Y341355D01*
X166513Y341442D01*
X166526Y341531D01*
X166536Y341620D01*
X166542Y341709D01*
X166544Y341799D01*
X166544Y343852D01*
X157306Y347272D02*
X157306Y349838D01*
X157308Y349937D01*
X157314Y350037D01*
X157323Y350136D01*
X157337Y350234D01*
X157354Y350332D01*
X157375Y350430D01*
X157400Y350526D01*
X157429Y350621D01*
X157461Y350716D01*
X157497Y350808D01*
X157536Y350900D01*
X157579Y350990D01*
X157625Y351078D01*
X157675Y351164D01*
X157728Y351248D01*
X157784Y351330D01*
X157844Y351410D01*
X157906Y351487D01*
X157972Y351562D01*
X158040Y351635D01*
X158111Y351704D01*
X158185Y351771D01*
X158261Y351835D01*
X158340Y351896D01*
X158421Y351954D01*
X158504Y352009D01*
X158589Y352060D01*
X158676Y352108D01*
X158765Y352153D01*
X158856Y352194D01*
X158948Y352232D01*
X159041Y352266D01*
X159136Y352296D01*
X159232Y352323D01*
X159329Y352346D01*
X159426Y352365D01*
X159525Y352380D01*
X159624Y352392D01*
X159723Y352400D01*
X159822Y352404D01*
X159922Y352404D01*
X160021Y352400D01*
X160120Y352392D01*
X160219Y352380D01*
X160318Y352365D01*
X160415Y352346D01*
X160512Y352323D01*
X160608Y352296D01*
X160703Y352266D01*
X160796Y352232D01*
X160888Y352194D01*
X160979Y352153D01*
X161068Y352108D01*
X161155Y352060D01*
X161240Y352009D01*
X161323Y351954D01*
X161404Y351896D01*
X161483Y351835D01*
X161559Y351771D01*
X161633Y351704D01*
X161704Y351635D01*
X161772Y351562D01*
X161838Y351487D01*
X161900Y351410D01*
X161960Y351330D01*
X162016Y351248D01*
X162069Y351164D01*
X162119Y351078D01*
X162165Y350990D01*
X162208Y350900D01*
X162247Y350808D01*
X162283Y350716D01*
X162315Y350621D01*
X162344Y350526D01*
X162369Y350430D01*
X162390Y350332D01*
X162407Y350234D01*
X162421Y350136D01*
X162430Y350037D01*
X162436Y349937D01*
X162438Y349838D01*
X166544Y350351D02*
X166544Y347272D01*
X166544Y350351D02*
X166542Y350441D01*
X166536Y350530D01*
X166526Y350619D01*
X166513Y350707D01*
X166495Y350795D01*
X166474Y350882D01*
X166449Y350968D01*
X166420Y351053D01*
X166388Y351137D01*
X166352Y351219D01*
X166312Y351299D01*
X166269Y351378D01*
X166222Y351454D01*
X166173Y351529D01*
X166120Y351601D01*
X166064Y351671D01*
X166005Y351738D01*
X165943Y351803D01*
X165878Y351865D01*
X165811Y351924D01*
X165741Y351980D01*
X165669Y352033D01*
X165594Y352082D01*
X165518Y352129D01*
X165439Y352172D01*
X165359Y352212D01*
X165277Y352248D01*
X165193Y352280D01*
X165108Y352309D01*
X165022Y352334D01*
X164935Y352355D01*
X164847Y352373D01*
X164759Y352386D01*
X164670Y352396D01*
X164581Y352402D01*
X164491Y352404D01*
X164401Y352402D01*
X164312Y352396D01*
X164223Y352386D01*
X164135Y352373D01*
X164047Y352355D01*
X163960Y352334D01*
X163874Y352309D01*
X163789Y352280D01*
X163705Y352248D01*
X163623Y352212D01*
X163543Y352172D01*
X163465Y352129D01*
X163388Y352082D01*
X163313Y352033D01*
X163241Y351980D01*
X163171Y351924D01*
X163104Y351865D01*
X163039Y351803D01*
X162977Y351738D01*
X162918Y351671D01*
X162862Y351601D01*
X162809Y351529D01*
X162760Y351454D01*
X162713Y351378D01*
X162670Y351299D01*
X162630Y351219D01*
X162594Y351137D01*
X162562Y351053D01*
X162533Y350968D01*
X162508Y350882D01*
X162487Y350795D01*
X162469Y350707D01*
X162456Y350619D01*
X162446Y350530D01*
X162440Y350441D01*
X162438Y350351D01*
X162438Y348298D01*
X119206Y343852D02*
X119206Y341799D01*
X119208Y341709D01*
X119214Y341620D01*
X119224Y341531D01*
X119237Y341443D01*
X119255Y341355D01*
X119276Y341268D01*
X119301Y341182D01*
X119330Y341097D01*
X119362Y341013D01*
X119398Y340931D01*
X119438Y340851D01*
X119481Y340773D01*
X119528Y340696D01*
X119577Y340621D01*
X119630Y340549D01*
X119686Y340479D01*
X119745Y340412D01*
X119807Y340347D01*
X119872Y340285D01*
X119939Y340226D01*
X120009Y340170D01*
X120081Y340117D01*
X120156Y340068D01*
X120233Y340021D01*
X120311Y339978D01*
X120391Y339938D01*
X120473Y339902D01*
X120557Y339870D01*
X120642Y339841D01*
X120728Y339816D01*
X120815Y339795D01*
X120903Y339777D01*
X120991Y339764D01*
X121080Y339754D01*
X121169Y339748D01*
X121259Y339746D01*
X126391Y339746D01*
X126481Y339748D01*
X126570Y339754D01*
X126659Y339764D01*
X126747Y339777D01*
X126835Y339795D01*
X126922Y339816D01*
X127008Y339841D01*
X127093Y339870D01*
X127177Y339902D01*
X127259Y339938D01*
X127339Y339978D01*
X127417Y340021D01*
X127494Y340068D01*
X127569Y340117D01*
X127641Y340170D01*
X127711Y340226D01*
X127778Y340285D01*
X127843Y340347D01*
X127905Y340412D01*
X127964Y340479D01*
X128020Y340549D01*
X128073Y340621D01*
X128122Y340696D01*
X128169Y340772D01*
X128212Y340851D01*
X128252Y340931D01*
X128288Y341013D01*
X128320Y341097D01*
X128349Y341182D01*
X128374Y341268D01*
X128395Y341355D01*
X128413Y341442D01*
X128426Y341531D01*
X128436Y341620D01*
X128442Y341709D01*
X128444Y341799D01*
X128444Y343852D01*
X128444Y349325D02*
X121259Y347272D01*
X121259Y352404D01*
X123312Y350864D02*
X119206Y350864D01*
D12*
X96675Y218125D02*
X36675Y218125D01*
X36675Y258125D01*
X96675Y258125D01*
X96675Y218125D01*
D13*
X61675Y238125D03*
D11*
X33194Y230909D02*
X23956Y230909D01*
X33194Y230909D02*
X33194Y233475D01*
X33192Y233573D01*
X33186Y233671D01*
X33177Y233769D01*
X33164Y233867D01*
X33147Y233964D01*
X33127Y234060D01*
X33102Y234155D01*
X33074Y234249D01*
X33043Y234342D01*
X33008Y234434D01*
X32969Y234525D01*
X32928Y234614D01*
X32882Y234701D01*
X32834Y234786D01*
X32782Y234870D01*
X32727Y234951D01*
X32669Y235031D01*
X32608Y235108D01*
X32544Y235182D01*
X32477Y235254D01*
X32407Y235324D01*
X32335Y235391D01*
X32261Y235455D01*
X32184Y235516D01*
X32104Y235574D01*
X32023Y235629D01*
X31939Y235681D01*
X31854Y235729D01*
X31767Y235775D01*
X31678Y235816D01*
X31587Y235855D01*
X31495Y235890D01*
X31402Y235921D01*
X31308Y235949D01*
X31213Y235974D01*
X31117Y235994D01*
X31020Y236011D01*
X30922Y236024D01*
X30824Y236033D01*
X30726Y236039D01*
X30628Y236041D01*
X26522Y236041D01*
X26424Y236039D01*
X26326Y236033D01*
X26228Y236024D01*
X26130Y236011D01*
X26033Y235994D01*
X25937Y235974D01*
X25842Y235949D01*
X25748Y235921D01*
X25655Y235890D01*
X25563Y235855D01*
X25472Y235816D01*
X25383Y235775D01*
X25296Y235729D01*
X25211Y235681D01*
X25127Y235629D01*
X25046Y235574D01*
X24966Y235516D01*
X24889Y235455D01*
X24815Y235391D01*
X24743Y235324D01*
X24673Y235254D01*
X24606Y235182D01*
X24542Y235108D01*
X24481Y235031D01*
X24423Y234951D01*
X24368Y234870D01*
X24316Y234786D01*
X24268Y234701D01*
X24222Y234614D01*
X24181Y234525D01*
X24142Y234434D01*
X24107Y234342D01*
X24076Y234249D01*
X24048Y234155D01*
X24023Y234060D01*
X24003Y233964D01*
X23986Y233867D01*
X23973Y233769D01*
X23964Y233671D01*
X23958Y233573D01*
X23956Y233475D01*
X23956Y230909D01*
X31141Y240209D02*
X33194Y242775D01*
X23956Y242775D01*
X23956Y240209D02*
X23956Y245341D01*
D12*
X36675Y116525D02*
X96675Y116525D01*
X36675Y116525D02*
X36675Y156525D01*
X96675Y156525D01*
X96675Y116525D01*
D13*
X61675Y136525D03*
D11*
X33194Y129309D02*
X23956Y129309D01*
X33194Y129309D02*
X33194Y131875D01*
X33192Y131973D01*
X33186Y132071D01*
X33177Y132169D01*
X33164Y132267D01*
X33147Y132364D01*
X33127Y132460D01*
X33102Y132555D01*
X33074Y132649D01*
X33043Y132742D01*
X33008Y132834D01*
X32969Y132925D01*
X32928Y133014D01*
X32882Y133101D01*
X32834Y133186D01*
X32782Y133270D01*
X32727Y133351D01*
X32669Y133431D01*
X32608Y133508D01*
X32544Y133582D01*
X32477Y133654D01*
X32407Y133724D01*
X32335Y133791D01*
X32261Y133855D01*
X32184Y133916D01*
X32104Y133974D01*
X32023Y134029D01*
X31939Y134081D01*
X31854Y134129D01*
X31767Y134175D01*
X31678Y134216D01*
X31587Y134255D01*
X31495Y134290D01*
X31402Y134321D01*
X31308Y134349D01*
X31213Y134374D01*
X31117Y134394D01*
X31020Y134411D01*
X30922Y134424D01*
X30824Y134433D01*
X30726Y134439D01*
X30628Y134441D01*
X26522Y134441D01*
X26424Y134439D01*
X26326Y134433D01*
X26228Y134424D01*
X26130Y134411D01*
X26033Y134394D01*
X25937Y134374D01*
X25842Y134349D01*
X25748Y134321D01*
X25655Y134290D01*
X25563Y134255D01*
X25472Y134216D01*
X25383Y134175D01*
X25296Y134129D01*
X25211Y134081D01*
X25127Y134029D01*
X25046Y133974D01*
X24966Y133916D01*
X24889Y133855D01*
X24815Y133791D01*
X24743Y133724D01*
X24673Y133654D01*
X24606Y133582D01*
X24542Y133508D01*
X24481Y133431D01*
X24423Y133351D01*
X24368Y133270D01*
X24316Y133186D01*
X24268Y133101D01*
X24222Y133014D01*
X24181Y132925D01*
X24142Y132834D01*
X24107Y132742D01*
X24076Y132649D01*
X24048Y132555D01*
X24023Y132460D01*
X24003Y132364D01*
X23986Y132267D01*
X23973Y132169D01*
X23964Y132071D01*
X23958Y131973D01*
X23956Y131875D01*
X23956Y129309D01*
X33194Y141432D02*
X33192Y141527D01*
X33186Y141623D01*
X33176Y141718D01*
X33162Y141812D01*
X33145Y141906D01*
X33123Y141999D01*
X33098Y142091D01*
X33069Y142182D01*
X33036Y142272D01*
X32999Y142360D01*
X32959Y142447D01*
X32916Y142531D01*
X32868Y142614D01*
X32818Y142695D01*
X32764Y142774D01*
X32707Y142851D01*
X32647Y142925D01*
X32584Y142997D01*
X32517Y143065D01*
X32449Y143132D01*
X32377Y143195D01*
X32303Y143255D01*
X32226Y143312D01*
X32147Y143366D01*
X32066Y143416D01*
X31983Y143464D01*
X31899Y143507D01*
X31812Y143547D01*
X31724Y143584D01*
X31634Y143617D01*
X31543Y143646D01*
X31451Y143671D01*
X31358Y143693D01*
X31264Y143710D01*
X31170Y143724D01*
X31075Y143734D01*
X30979Y143740D01*
X30884Y143742D01*
X33194Y141432D02*
X33192Y141325D01*
X33186Y141219D01*
X33177Y141113D01*
X33163Y141007D01*
X33146Y140902D01*
X33125Y140797D01*
X33101Y140694D01*
X33072Y140591D01*
X33040Y140489D01*
X33005Y140389D01*
X32965Y140290D01*
X32922Y140192D01*
X32876Y140096D01*
X32826Y140002D01*
X32773Y139909D01*
X32717Y139819D01*
X32657Y139730D01*
X32595Y139644D01*
X32529Y139560D01*
X32460Y139479D01*
X32389Y139400D01*
X32314Y139323D01*
X32237Y139250D01*
X32157Y139179D01*
X32075Y139111D01*
X31991Y139046D01*
X31904Y138984D01*
X31815Y138926D01*
X31724Y138870D01*
X31631Y138818D01*
X31536Y138769D01*
X31439Y138724D01*
X31341Y138682D01*
X31242Y138644D01*
X31141Y138609D01*
X29087Y142972D02*
X29155Y143040D01*
X29225Y143105D01*
X29297Y143168D01*
X29372Y143228D01*
X29449Y143285D01*
X29528Y143338D01*
X29609Y143389D01*
X29692Y143437D01*
X29776Y143481D01*
X29863Y143522D01*
X29951Y143560D01*
X30040Y143594D01*
X30131Y143625D01*
X30222Y143652D01*
X30315Y143676D01*
X30409Y143696D01*
X30503Y143713D01*
X30598Y143725D01*
X30693Y143735D01*
X30788Y143740D01*
X30884Y143742D01*
X29088Y142971D02*
X23956Y138609D01*
X23956Y143741D01*
M02*
