G04 EAGLE Gerber X2 export*
%TF.Part,Single*%
%TF.FileFunction,Paste,Top*%
%TF.FilePolarity,Positive*%
%TF.GenerationSoftware,Autodesk,EAGLE,8.6.1*%
%TF.CreationDate,2018-02-11T16:27:46Z*%
G75*
%MOMM*%
%FSLAX34Y34*%
%LPD*%
%AMOC8*
5,1,8,0,0,1.08239X$1,22.5*%
G01*
%ADD10R,0.450000X1.450000*%
%ADD11R,0.400000X0.700000*%
%ADD12R,0.580000X2.500000*%


D10*
X79550Y631900D03*
X73050Y631900D03*
X66550Y631900D03*
X60050Y631900D03*
X79550Y587900D03*
X73050Y587900D03*
X66550Y587900D03*
X60050Y587900D03*
X98250Y841300D03*
X104750Y841300D03*
X111250Y841300D03*
X117750Y841300D03*
X98250Y885300D03*
X104750Y885300D03*
X111250Y885300D03*
X117750Y885300D03*
X60150Y841300D03*
X66650Y841300D03*
X73150Y841300D03*
X79650Y841300D03*
X60150Y885300D03*
X66650Y885300D03*
X73150Y885300D03*
X79650Y885300D03*
X117650Y631900D03*
X111150Y631900D03*
X104650Y631900D03*
X98150Y631900D03*
X117650Y587900D03*
X111150Y587900D03*
X104650Y587900D03*
X98150Y587900D03*
D11*
X108000Y816900D03*
X95300Y816900D03*
X82600Y816900D03*
X69900Y816900D03*
D12*
X98900Y772400D03*
X78900Y772400D03*
D11*
X69800Y656300D03*
X82500Y656300D03*
X95200Y656300D03*
X107900Y656300D03*
D12*
X78900Y700800D03*
X98900Y700800D03*
M02*
