G04 EAGLE Gerber X2 export*
%TF.Part,Single*%
%TF.FileFunction,Soldermask,Top,1*%
%TF.FilePolarity,Negative*%
%TF.GenerationSoftware,Autodesk,EAGLE,8.6.1*%
%TF.CreationDate,2018-02-11T16:27:46Z*%
G75*
%MOMM*%
%FSLAX34Y34*%
%LPD*%
%AMOC8*
5,1,8,0,0,1.08239X$1,22.5*%
G01*
%ADD10R,0.653200X1.653200*%
%ADD11R,0.603200X0.903200*%
%ADD12R,0.783200X2.703200*%
%ADD13C,1.727200*%


D10*
X79550Y631900D03*
X73050Y631900D03*
X66550Y631900D03*
X60050Y631900D03*
X79550Y587900D03*
X73050Y587900D03*
X66550Y587900D03*
X60050Y587900D03*
X98250Y841300D03*
X104750Y841300D03*
X111250Y841300D03*
X117750Y841300D03*
X98250Y885300D03*
X104750Y885300D03*
X111250Y885300D03*
X117750Y885300D03*
X60150Y841300D03*
X66650Y841300D03*
X73150Y841300D03*
X79650Y841300D03*
X60150Y885300D03*
X66650Y885300D03*
X73150Y885300D03*
X79650Y885300D03*
X117650Y631900D03*
X111150Y631900D03*
X104650Y631900D03*
X98150Y631900D03*
X117650Y587900D03*
X111150Y587900D03*
X104650Y587900D03*
X98150Y587900D03*
D11*
X108000Y816900D03*
X95300Y816900D03*
X82600Y816900D03*
X69900Y816900D03*
D12*
X98900Y772400D03*
X78900Y772400D03*
D11*
X69800Y656300D03*
X82500Y656300D03*
X95200Y656300D03*
X107900Y656300D03*
D12*
X78900Y700800D03*
X98900Y700800D03*
D13*
X144780Y723900D02*
X160020Y723900D01*
X160020Y749300D02*
X144780Y749300D01*
X13970Y723900D02*
X-1270Y723900D01*
X-1270Y749300D02*
X13970Y749300D01*
X-30480Y723900D02*
X-45720Y723900D01*
X-45720Y749300D02*
X-30480Y749300D01*
M02*
