G04 EAGLE Gerber X2 export*
%TF.Part,Single*%
%TF.FileFunction,Paste,Top*%
%TF.FilePolarity,Positive*%
%TF.GenerationSoftware,Autodesk,EAGLE,9.0.0*%
%TF.CreationDate,2018-04-26T05:51:29Z*%
G75*
%MOMM*%
%FSLAX34Y34*%
%LPD*%
%AMOC8*
5,1,8,0,0,1.08239X$1,22.5*%
G01*
%ADD10R,0.450000X1.450000*%
%ADD11R,0.400000X0.700000*%
%ADD12R,0.580000X2.500000*%


D10*
X158925Y82625D03*
X152425Y82625D03*
X145925Y82625D03*
X139425Y82625D03*
X158925Y38625D03*
X152425Y38625D03*
X145925Y38625D03*
X139425Y38625D03*
X177625Y292025D03*
X184125Y292025D03*
X190625Y292025D03*
X197125Y292025D03*
X177625Y336025D03*
X184125Y336025D03*
X190625Y336025D03*
X197125Y336025D03*
X139525Y292025D03*
X146025Y292025D03*
X152525Y292025D03*
X159025Y292025D03*
X139525Y336025D03*
X146025Y336025D03*
X152525Y336025D03*
X159025Y336025D03*
X197025Y82625D03*
X190525Y82625D03*
X184025Y82625D03*
X177525Y82625D03*
X197025Y38625D03*
X190525Y38625D03*
X184025Y38625D03*
X177525Y38625D03*
D11*
X187375Y267625D03*
X174675Y267625D03*
X161975Y267625D03*
X149275Y267625D03*
D12*
X178275Y223125D03*
X158275Y223125D03*
D11*
X149175Y107025D03*
X161875Y107025D03*
X174575Y107025D03*
X187275Y107025D03*
D12*
X158275Y151525D03*
X178275Y151525D03*
M02*
