G04 EAGLE Gerber X2 export*
%TF.Part,Single*%
%TF.FileFunction,Soldermask,Top,1*%
%TF.FilePolarity,Negative*%
%TF.GenerationSoftware,Autodesk,EAGLE,8.6.1*%
%TF.CreationDate,2018-02-11T16:56:18Z*%
G75*
%MOMM*%
%FSLAX34Y34*%
%LPD*%
%AMOC8*
5,1,8,0,0,1.08239X$1,22.5*%
G01*
%ADD10R,0.653200X1.653200*%
%ADD11R,0.603200X0.903200*%
%ADD12R,0.783200X2.703200*%
%ADD13C,1.727200*%


D10*
X171625Y101675D03*
X165125Y101675D03*
X158625Y101675D03*
X152125Y101675D03*
X171625Y57675D03*
X165125Y57675D03*
X158625Y57675D03*
X152125Y57675D03*
X190325Y311075D03*
X196825Y311075D03*
X203325Y311075D03*
X209825Y311075D03*
X190325Y355075D03*
X196825Y355075D03*
X203325Y355075D03*
X209825Y355075D03*
X152225Y311075D03*
X158725Y311075D03*
X165225Y311075D03*
X171725Y311075D03*
X152225Y355075D03*
X158725Y355075D03*
X165225Y355075D03*
X171725Y355075D03*
X209725Y101675D03*
X203225Y101675D03*
X196725Y101675D03*
X190225Y101675D03*
X209725Y57675D03*
X203225Y57675D03*
X196725Y57675D03*
X190225Y57675D03*
D11*
X200075Y286675D03*
X187375Y286675D03*
X174675Y286675D03*
X161975Y286675D03*
D12*
X190975Y242175D03*
X170975Y242175D03*
D11*
X161875Y126075D03*
X174575Y126075D03*
X187275Y126075D03*
X199975Y126075D03*
D12*
X170975Y170575D03*
X190975Y170575D03*
D13*
X236855Y193675D02*
X252095Y193675D01*
X252095Y219075D02*
X236855Y219075D01*
X106045Y193675D02*
X90805Y193675D01*
X90805Y219075D02*
X106045Y219075D01*
X61595Y193675D02*
X46355Y193675D01*
X46355Y219075D02*
X61595Y219075D01*
M02*
