G04 EAGLE Gerber RS-274X export*
G75*
%MOMM*%
%FSLAX35Y35*%
%LPD*%
%INsolder_paste_bottom*%
%IPPOS*%
%AMOC8*
5,1,8,0,0,1.08239X$1,22.5*%
G01*
%ADD10C,0.000000*%


D10*
X-750000Y700000D02*
X750000Y700000D01*
X762082Y699854D01*
X774157Y699416D01*
X786217Y698687D01*
X798257Y697666D01*
X810268Y696354D01*
X822245Y694753D01*
X834179Y692863D01*
X846063Y690685D01*
X857892Y688221D01*
X869658Y685471D01*
X881354Y682438D01*
X892973Y679123D01*
X904508Y675528D01*
X915954Y671656D01*
X927302Y667508D01*
X938547Y663087D01*
X949682Y658396D01*
X960701Y653437D01*
X971596Y648213D01*
X982362Y642728D01*
X992992Y636984D01*
X1003480Y630985D01*
X1013820Y624734D01*
X1024006Y618235D01*
X1034032Y611492D01*
X1043893Y604508D01*
X1053581Y597289D01*
X1063093Y589837D01*
X1072421Y582158D01*
X1081561Y574255D01*
X1090508Y566134D01*
X1099256Y557799D01*
X1107799Y549256D01*
X1116134Y540508D01*
X1124255Y531561D01*
X1132158Y522421D01*
X1139837Y513093D01*
X1147289Y503581D01*
X1154508Y493893D01*
X1161492Y484032D01*
X1168235Y474006D01*
X1174734Y463820D01*
X1180985Y453480D01*
X1186984Y442992D01*
X1192728Y432362D01*
X1198213Y421596D01*
X1203437Y410701D01*
X1208396Y399682D01*
X1213087Y388547D01*
X1217508Y377302D01*
X1221656Y365954D01*
X1225528Y354508D01*
X1229123Y342973D01*
X1232438Y331354D01*
X1235471Y319658D01*
X1238221Y307892D01*
X1240685Y296063D01*
X1242863Y284179D01*
X1244753Y272245D01*
X1246354Y260268D01*
X1247666Y248257D01*
X1248687Y236217D01*
X1249416Y224157D01*
X1249854Y212082D01*
X1250000Y200000D01*
X1250000Y-300000D01*
X1249854Y-312082D01*
X1249416Y-324157D01*
X1248687Y-336217D01*
X1247666Y-348257D01*
X1246354Y-360268D01*
X1244753Y-372245D01*
X1242863Y-384179D01*
X1240685Y-396063D01*
X1238221Y-407892D01*
X1235471Y-419658D01*
X1232438Y-431354D01*
X1229123Y-442973D01*
X1225528Y-454508D01*
X1221656Y-465954D01*
X1217508Y-477302D01*
X1213087Y-488547D01*
X1208396Y-499682D01*
X1203437Y-510701D01*
X1198213Y-521596D01*
X1192728Y-532362D01*
X1186984Y-542992D01*
X1180985Y-553480D01*
X1174734Y-563820D01*
X1168235Y-574006D01*
X1161492Y-584032D01*
X1154508Y-593893D01*
X1147289Y-603581D01*
X1139837Y-613093D01*
X1132158Y-622421D01*
X1124255Y-631561D01*
X1116134Y-640508D01*
X1107799Y-649256D01*
X1099256Y-657799D01*
X1090508Y-666134D01*
X1081561Y-674255D01*
X1072421Y-682158D01*
X1063093Y-689837D01*
X1053581Y-697289D01*
X1043893Y-704508D01*
X1034032Y-711492D01*
X1024006Y-718235D01*
X1013820Y-724734D01*
X1003480Y-730985D01*
X992992Y-736984D01*
X982362Y-742728D01*
X971596Y-748213D01*
X960701Y-753437D01*
X949682Y-758396D01*
X938547Y-763087D01*
X927302Y-767508D01*
X915954Y-771656D01*
X904508Y-775528D01*
X892973Y-779123D01*
X881354Y-782438D01*
X869658Y-785471D01*
X857892Y-788221D01*
X846063Y-790685D01*
X834179Y-792863D01*
X822245Y-794753D01*
X810268Y-796354D01*
X798257Y-797666D01*
X786217Y-798687D01*
X774157Y-799416D01*
X762082Y-799854D01*
X750000Y-800000D01*
X-750000Y-800000D01*
X-762082Y-799854D01*
X-774157Y-799416D01*
X-786217Y-798687D01*
X-798257Y-797666D01*
X-810268Y-796354D01*
X-822245Y-794753D01*
X-834179Y-792863D01*
X-846063Y-790685D01*
X-857892Y-788221D01*
X-869658Y-785471D01*
X-881354Y-782438D01*
X-892973Y-779123D01*
X-904508Y-775528D01*
X-915954Y-771656D01*
X-927302Y-767508D01*
X-938547Y-763087D01*
X-949682Y-758396D01*
X-960701Y-753437D01*
X-971596Y-748213D01*
X-982362Y-742728D01*
X-992992Y-736984D01*
X-1003480Y-730985D01*
X-1013820Y-724734D01*
X-1024006Y-718235D01*
X-1034032Y-711492D01*
X-1043893Y-704508D01*
X-1053581Y-697289D01*
X-1063093Y-689837D01*
X-1072421Y-682158D01*
X-1081561Y-674255D01*
X-1090508Y-666134D01*
X-1099256Y-657799D01*
X-1107799Y-649256D01*
X-1116134Y-640508D01*
X-1124255Y-631561D01*
X-1132158Y-622421D01*
X-1139837Y-613093D01*
X-1147289Y-603581D01*
X-1154508Y-593893D01*
X-1161492Y-584032D01*
X-1168235Y-574006D01*
X-1174734Y-563820D01*
X-1180985Y-553480D01*
X-1186984Y-542992D01*
X-1192728Y-532362D01*
X-1198213Y-521596D01*
X-1203437Y-510701D01*
X-1208396Y-499682D01*
X-1213087Y-488547D01*
X-1217508Y-477302D01*
X-1221656Y-465954D01*
X-1225528Y-454508D01*
X-1229123Y-442973D01*
X-1232438Y-431354D01*
X-1235471Y-419658D01*
X-1238221Y-407892D01*
X-1240685Y-396063D01*
X-1242863Y-384179D01*
X-1244753Y-372245D01*
X-1246354Y-360268D01*
X-1247666Y-348257D01*
X-1248687Y-336217D01*
X-1249416Y-324157D01*
X-1249854Y-312082D01*
X-1250000Y-300000D01*
X-1250000Y200000D01*
X-1249854Y212082D01*
X-1249416Y224157D01*
X-1248687Y236217D01*
X-1247666Y248257D01*
X-1246354Y260268D01*
X-1244753Y272245D01*
X-1242863Y284179D01*
X-1240685Y296063D01*
X-1238221Y307892D01*
X-1235471Y319658D01*
X-1232438Y331354D01*
X-1229123Y342973D01*
X-1225528Y354508D01*
X-1221656Y365954D01*
X-1217508Y377302D01*
X-1213087Y388547D01*
X-1208396Y399682D01*
X-1203437Y410701D01*
X-1198213Y421596D01*
X-1192728Y432362D01*
X-1186984Y442992D01*
X-1180985Y453480D01*
X-1174734Y463820D01*
X-1168235Y474006D01*
X-1161492Y484032D01*
X-1154508Y493893D01*
X-1147289Y503581D01*
X-1139837Y513093D01*
X-1132158Y522421D01*
X-1124255Y531561D01*
X-1116134Y540508D01*
X-1107799Y549256D01*
X-1099256Y557799D01*
X-1090508Y566134D01*
X-1081561Y574255D01*
X-1072421Y582158D01*
X-1063093Y589837D01*
X-1053581Y597289D01*
X-1043893Y604508D01*
X-1034032Y611492D01*
X-1024006Y618235D01*
X-1013820Y624734D01*
X-1003480Y630985D01*
X-992992Y636984D01*
X-982362Y642728D01*
X-971596Y648213D01*
X-960701Y653437D01*
X-949682Y658396D01*
X-938547Y663087D01*
X-927302Y667508D01*
X-915954Y671656D01*
X-904508Y675528D01*
X-892973Y679123D01*
X-881354Y682438D01*
X-869658Y685471D01*
X-857892Y688221D01*
X-846063Y690685D01*
X-834179Y692863D01*
X-822245Y694753D01*
X-810268Y696354D01*
X-798257Y697666D01*
X-786217Y698687D01*
X-774157Y699416D01*
X-762082Y699854D01*
X-750000Y700000D01*
M02*
