G04 EAGLE Gerber X2 export*
%TF.Part,Single*%
%TF.FileFunction,Copper,L2,Bot,Mixed*%
%TF.FilePolarity,Positive*%
%TF.GenerationSoftware,Autodesk,EAGLE,9.0.0*%
%TF.CreationDate,2018-05-02T08:01:06Z*%
G75*
%MOMM*%
%FSLAX34Y34*%
%LPD*%
%AMOC8*
5,1,8,0,0,1.08239X$1,22.5*%
G01*
%ADD10R,0.700000X0.900000*%
%ADD11R,2.000000X0.400000*%
%ADD12R,1.500000X1.300000*%
%ADD13C,1.500000*%
%ADD14C,1.981200*%
%ADD15C,2.540000*%
%ADD16R,1.400000X1.000000*%
%ADD17C,1.524000*%
%ADD18C,0.650000*%
%ADD19C,0.254000*%
%ADD20C,0.508000*%

G36*
X225982Y5397D02*
X225982Y5397D01*
X226101Y5404D01*
X226139Y5417D01*
X226179Y5422D01*
X226290Y5465D01*
X226404Y5502D01*
X226437Y5524D01*
X226475Y5539D01*
X226571Y5609D01*
X226672Y5673D01*
X226700Y5702D01*
X226732Y5725D01*
X226808Y5817D01*
X226890Y5904D01*
X226909Y5940D01*
X226935Y5970D01*
X226986Y6078D01*
X227043Y6183D01*
X227053Y6222D01*
X227070Y6258D01*
X227093Y6375D01*
X227123Y6491D01*
X227123Y6531D01*
X227130Y6570D01*
X227123Y6690D01*
X227123Y6809D01*
X227113Y6848D01*
X227110Y6888D01*
X227074Y7001D01*
X227044Y7117D01*
X227025Y7152D01*
X227012Y7190D01*
X226948Y7291D01*
X226891Y7396D01*
X226864Y7425D01*
X226842Y7459D01*
X226755Y7541D01*
X226674Y7628D01*
X226640Y7650D01*
X226611Y7677D01*
X226506Y7735D01*
X226405Y7799D01*
X226350Y7821D01*
X226332Y7831D01*
X226312Y7836D01*
X226256Y7858D01*
X224700Y8364D01*
X223275Y9090D01*
X221981Y10030D01*
X220850Y11161D01*
X219910Y12455D01*
X219184Y13880D01*
X218689Y15401D01*
X218439Y16980D01*
X218439Y22861D01*
X227330Y22861D01*
X227448Y22876D01*
X227567Y22883D01*
X227605Y22896D01*
X227645Y22901D01*
X227756Y22944D01*
X227869Y22981D01*
X227903Y23003D01*
X227941Y23018D01*
X228037Y23088D01*
X228138Y23151D01*
X228166Y23181D01*
X228198Y23204D01*
X228274Y23296D01*
X228356Y23383D01*
X228375Y23418D01*
X228401Y23449D01*
X228452Y23557D01*
X228509Y23661D01*
X228520Y23701D01*
X228537Y23737D01*
X228559Y23854D01*
X228589Y23969D01*
X228593Y24030D01*
X228597Y24050D01*
X228595Y24070D01*
X228599Y24130D01*
X228599Y25401D01*
X228601Y25401D01*
X228601Y24130D01*
X228616Y24012D01*
X228623Y23893D01*
X228636Y23855D01*
X228641Y23814D01*
X228685Y23704D01*
X228721Y23591D01*
X228743Y23556D01*
X228758Y23519D01*
X228828Y23423D01*
X228891Y23322D01*
X228921Y23294D01*
X228945Y23261D01*
X229036Y23186D01*
X229123Y23104D01*
X229158Y23084D01*
X229190Y23059D01*
X229297Y23008D01*
X229402Y22950D01*
X229441Y22940D01*
X229477Y22923D01*
X229594Y22901D01*
X229709Y22871D01*
X229770Y22867D01*
X229790Y22863D01*
X229810Y22865D01*
X229870Y22861D01*
X238761Y22861D01*
X238761Y16980D01*
X238511Y15401D01*
X238016Y13880D01*
X237290Y12455D01*
X236350Y11161D01*
X235219Y10030D01*
X233925Y9090D01*
X232500Y8364D01*
X230944Y7858D01*
X230836Y7807D01*
X230725Y7763D01*
X230693Y7740D01*
X230657Y7723D01*
X230565Y7647D01*
X230468Y7577D01*
X230442Y7546D01*
X230411Y7520D01*
X230341Y7423D01*
X230265Y7332D01*
X230248Y7295D01*
X230224Y7263D01*
X230180Y7151D01*
X230130Y7044D01*
X230122Y7005D01*
X230107Y6967D01*
X230092Y6848D01*
X230070Y6731D01*
X230072Y6692D01*
X230067Y6652D01*
X230082Y6533D01*
X230090Y6414D01*
X230102Y6376D01*
X230107Y6336D01*
X230151Y6225D01*
X230188Y6112D01*
X230209Y6078D01*
X230224Y6040D01*
X230294Y5944D01*
X230358Y5843D01*
X230387Y5815D01*
X230411Y5783D01*
X230502Y5707D01*
X230589Y5625D01*
X230625Y5606D01*
X230655Y5580D01*
X230763Y5529D01*
X230868Y5471D01*
X230907Y5461D01*
X230943Y5444D01*
X231060Y5422D01*
X231176Y5392D01*
X231235Y5388D01*
X231255Y5384D01*
X231276Y5386D01*
X231337Y5382D01*
X241300Y5382D01*
X241321Y5384D01*
X241383Y5384D01*
X245488Y5654D01*
X245531Y5662D01*
X245576Y5662D01*
X245733Y5694D01*
X253664Y7819D01*
X253743Y7851D01*
X253825Y7874D01*
X253948Y7935D01*
X253958Y7939D01*
X253962Y7942D01*
X253970Y7946D01*
X261080Y12051D01*
X261148Y12102D01*
X261222Y12146D01*
X261325Y12237D01*
X261333Y12243D01*
X261336Y12246D01*
X261342Y12252D01*
X267148Y18058D01*
X267200Y18125D01*
X267260Y18186D01*
X267336Y18300D01*
X267343Y18309D01*
X267344Y18313D01*
X267349Y18320D01*
X271454Y25430D01*
X271487Y25509D01*
X271530Y25584D01*
X271553Y25653D01*
X271562Y25672D01*
X271565Y25690D01*
X271573Y25714D01*
X271578Y25724D01*
X271578Y25728D01*
X271581Y25736D01*
X273706Y33667D01*
X273712Y33710D01*
X273726Y33752D01*
X273746Y33912D01*
X274016Y38017D01*
X274014Y38038D01*
X274018Y38100D01*
X274018Y146050D01*
X274016Y146071D01*
X274016Y146133D01*
X273746Y150238D01*
X273738Y150281D01*
X273738Y150326D01*
X273706Y150483D01*
X271581Y158414D01*
X271549Y158493D01*
X271526Y158575D01*
X271465Y158698D01*
X271461Y158708D01*
X271458Y158712D01*
X271454Y158720D01*
X267349Y165830D01*
X267298Y165898D01*
X267254Y165972D01*
X267163Y166075D01*
X267157Y166083D01*
X267154Y166086D01*
X267148Y166092D01*
X261342Y171898D01*
X261275Y171950D01*
X261214Y172010D01*
X261100Y172086D01*
X261091Y172093D01*
X261087Y172094D01*
X261080Y172099D01*
X253970Y176204D01*
X253891Y176237D01*
X253816Y176280D01*
X253687Y176323D01*
X253676Y176328D01*
X253672Y176328D01*
X253664Y176331D01*
X245733Y178456D01*
X245690Y178462D01*
X245648Y178476D01*
X245488Y178496D01*
X241383Y178766D01*
X241362Y178764D01*
X241300Y178768D01*
X38100Y178768D01*
X38079Y178766D01*
X38017Y178766D01*
X33912Y178496D01*
X33869Y178488D01*
X33824Y178488D01*
X33667Y178456D01*
X25736Y176331D01*
X25657Y176299D01*
X25575Y176276D01*
X25452Y176215D01*
X25442Y176211D01*
X25438Y176208D01*
X25430Y176204D01*
X18320Y172099D01*
X18252Y172048D01*
X18178Y172004D01*
X18075Y171913D01*
X18067Y171907D01*
X18064Y171904D01*
X18058Y171898D01*
X12252Y166092D01*
X12200Y166025D01*
X12140Y165964D01*
X12064Y165850D01*
X12057Y165841D01*
X12056Y165837D01*
X12051Y165830D01*
X7946Y158720D01*
X7913Y158641D01*
X7870Y158566D01*
X7827Y158437D01*
X7822Y158426D01*
X7822Y158422D01*
X7819Y158414D01*
X5694Y150483D01*
X5688Y150440D01*
X5674Y150398D01*
X5654Y150238D01*
X5648Y150157D01*
X5384Y146133D01*
X5386Y146112D01*
X5382Y146050D01*
X5382Y38100D01*
X5384Y38079D01*
X5384Y38017D01*
X5654Y33912D01*
X5662Y33869D01*
X5662Y33824D01*
X5694Y33667D01*
X7819Y25736D01*
X7851Y25657D01*
X7874Y25575D01*
X7935Y25452D01*
X7939Y25442D01*
X7942Y25438D01*
X7946Y25430D01*
X12051Y18320D01*
X12102Y18252D01*
X12146Y18178D01*
X12237Y18075D01*
X12243Y18067D01*
X12246Y18064D01*
X12252Y18058D01*
X18058Y12252D01*
X18125Y12200D01*
X18186Y12140D01*
X18300Y12064D01*
X18309Y12057D01*
X18313Y12056D01*
X18320Y12051D01*
X25430Y7946D01*
X25509Y7913D01*
X25584Y7870D01*
X25713Y7827D01*
X25724Y7822D01*
X25728Y7822D01*
X25736Y7819D01*
X33667Y5694D01*
X33710Y5688D01*
X33752Y5674D01*
X33912Y5654D01*
X38017Y5384D01*
X38038Y5386D01*
X38100Y5382D01*
X225863Y5382D01*
X225982Y5397D01*
G37*
%LPC*%
G36*
X175886Y8159D02*
X175886Y8159D01*
X172350Y9624D01*
X169644Y12330D01*
X168179Y15866D01*
X168179Y34934D01*
X169644Y38470D01*
X172350Y41176D01*
X173493Y41649D01*
X173536Y41674D01*
X173583Y41691D01*
X173674Y41753D01*
X173769Y41807D01*
X173805Y41842D01*
X173846Y41869D01*
X173919Y41952D01*
X173998Y42028D01*
X174024Y42071D01*
X174057Y42108D01*
X174107Y42206D01*
X174164Y42299D01*
X174179Y42347D01*
X174201Y42391D01*
X174225Y42498D01*
X174258Y42603D01*
X174260Y42653D01*
X174271Y42701D01*
X174268Y42811D01*
X174273Y42921D01*
X174263Y42970D01*
X174261Y43019D01*
X174231Y43125D01*
X174209Y43232D01*
X174187Y43277D01*
X174173Y43325D01*
X174117Y43419D01*
X174069Y43518D01*
X174036Y43556D01*
X174011Y43599D01*
X173905Y43720D01*
X164117Y53508D01*
X161829Y55795D01*
X161829Y63149D01*
X161821Y63218D01*
X161822Y63288D01*
X161801Y63375D01*
X161789Y63464D01*
X161764Y63529D01*
X161747Y63597D01*
X161705Y63676D01*
X161672Y63760D01*
X161631Y63816D01*
X161599Y63878D01*
X161538Y63945D01*
X161486Y64017D01*
X161432Y64062D01*
X161385Y64113D01*
X161310Y64163D01*
X161241Y64220D01*
X161177Y64250D01*
X161119Y64288D01*
X161034Y64317D01*
X160953Y64356D01*
X160884Y64369D01*
X160818Y64391D01*
X160729Y64399D01*
X160641Y64415D01*
X160571Y64411D01*
X160501Y64417D01*
X160413Y64401D01*
X160323Y64396D01*
X160257Y64374D01*
X160188Y64362D01*
X160106Y64325D01*
X160021Y64298D01*
X159962Y64260D01*
X159898Y64232D01*
X159828Y64176D01*
X159752Y64127D01*
X159704Y64077D01*
X159650Y64033D01*
X159595Y63961D01*
X159534Y63896D01*
X159500Y63835D01*
X159458Y63779D01*
X159387Y63634D01*
X158513Y61523D01*
X154377Y57387D01*
X148974Y55149D01*
X143126Y55149D01*
X137723Y57387D01*
X133587Y61523D01*
X131349Y66926D01*
X131349Y72774D01*
X133587Y78177D01*
X137723Y82313D01*
X141263Y83779D01*
X141306Y83804D01*
X141353Y83821D01*
X141444Y83882D01*
X141539Y83937D01*
X141575Y83971D01*
X141616Y83999D01*
X141689Y84081D01*
X141768Y84158D01*
X141794Y84201D01*
X141827Y84238D01*
X141877Y84335D01*
X141934Y84429D01*
X141949Y84477D01*
X141971Y84521D01*
X141995Y84628D01*
X142028Y84733D01*
X142030Y84783D01*
X142041Y84831D01*
X142038Y84941D01*
X142043Y85051D01*
X142033Y85099D01*
X142031Y85149D01*
X142001Y85255D01*
X141979Y85362D01*
X141957Y85407D01*
X141943Y85455D01*
X141887Y85549D01*
X141839Y85648D01*
X141807Y85686D01*
X141781Y85729D01*
X141675Y85849D01*
X141599Y85926D01*
X140799Y87856D01*
X140799Y89944D01*
X141599Y91874D01*
X143076Y93351D01*
X145006Y94151D01*
X147094Y94151D01*
X149024Y93351D01*
X150501Y91874D01*
X151301Y89944D01*
X151301Y87856D01*
X150501Y85926D01*
X150425Y85849D01*
X150395Y85810D01*
X150358Y85777D01*
X150297Y85685D01*
X150230Y85598D01*
X150210Y85553D01*
X150183Y85511D01*
X150147Y85407D01*
X150104Y85306D01*
X150096Y85257D01*
X150080Y85210D01*
X150071Y85100D01*
X150054Y84992D01*
X150059Y84943D01*
X150055Y84893D01*
X150073Y84785D01*
X150084Y84676D01*
X150100Y84629D01*
X150109Y84580D01*
X150154Y84480D01*
X150191Y84376D01*
X150219Y84335D01*
X150240Y84290D01*
X150308Y84204D01*
X150370Y84113D01*
X150407Y84080D01*
X150438Y84041D01*
X150526Y83975D01*
X150608Y83903D01*
X150652Y83880D01*
X150692Y83850D01*
X150837Y83779D01*
X154377Y82313D01*
X158513Y78177D01*
X159387Y76066D01*
X159422Y76005D01*
X159448Y75940D01*
X159500Y75867D01*
X159545Y75789D01*
X159593Y75739D01*
X159634Y75683D01*
X159704Y75625D01*
X159766Y75561D01*
X159826Y75524D01*
X159879Y75480D01*
X159961Y75442D01*
X160037Y75395D01*
X160104Y75374D01*
X160167Y75344D01*
X160255Y75327D01*
X160341Y75301D01*
X160411Y75298D01*
X160480Y75285D01*
X160569Y75290D01*
X160659Y75286D01*
X160727Y75300D01*
X160797Y75304D01*
X160882Y75332D01*
X160970Y75350D01*
X161033Y75381D01*
X161099Y75402D01*
X161175Y75450D01*
X161256Y75490D01*
X161309Y75535D01*
X161368Y75573D01*
X161430Y75638D01*
X161498Y75696D01*
X161538Y75753D01*
X161586Y75804D01*
X161629Y75883D01*
X161681Y75956D01*
X161706Y76022D01*
X161740Y76083D01*
X161762Y76169D01*
X161794Y76254D01*
X161802Y76323D01*
X161819Y76391D01*
X161829Y76551D01*
X161829Y118769D01*
X161817Y118868D01*
X161814Y118967D01*
X161797Y119025D01*
X161789Y119085D01*
X161753Y119177D01*
X161725Y119272D01*
X161695Y119324D01*
X161672Y119381D01*
X161614Y119461D01*
X161564Y119546D01*
X161498Y119622D01*
X161486Y119638D01*
X161476Y119646D01*
X161458Y119667D01*
X159422Y121703D01*
X159344Y121763D01*
X159272Y121831D01*
X159219Y121860D01*
X159171Y121897D01*
X159080Y121937D01*
X158993Y121985D01*
X158935Y122000D01*
X158879Y122024D01*
X158781Y122039D01*
X158685Y122064D01*
X158585Y122070D01*
X158565Y122074D01*
X158552Y122072D01*
X158524Y122074D01*
X158131Y122074D01*
X156201Y122874D01*
X154724Y124351D01*
X153990Y126121D01*
X153976Y126146D01*
X153967Y126174D01*
X153897Y126284D01*
X153833Y126397D01*
X153812Y126418D01*
X153797Y126443D01*
X153702Y126532D01*
X153612Y126625D01*
X153586Y126641D01*
X153565Y126661D01*
X153451Y126724D01*
X153341Y126792D01*
X153312Y126800D01*
X153286Y126815D01*
X153161Y126847D01*
X153037Y126885D01*
X153007Y126887D01*
X152979Y126894D01*
X152818Y126904D01*
X146620Y126904D01*
X146502Y126889D01*
X146383Y126882D01*
X146345Y126869D01*
X146304Y126864D01*
X146194Y126821D01*
X146081Y126784D01*
X146046Y126762D01*
X146009Y126747D01*
X145913Y126678D01*
X145812Y126614D01*
X145784Y126584D01*
X145751Y126561D01*
X145675Y126469D01*
X145594Y126382D01*
X145574Y126347D01*
X145549Y126316D01*
X145498Y126208D01*
X145440Y126104D01*
X145430Y126064D01*
X145413Y126028D01*
X145391Y125911D01*
X145361Y125796D01*
X145357Y125736D01*
X145353Y125716D01*
X145355Y125695D01*
X145351Y125635D01*
X145351Y124745D01*
X145340Y124721D01*
X145288Y124622D01*
X145277Y124576D01*
X145259Y124533D01*
X145241Y124421D01*
X145215Y124312D01*
X145216Y124265D01*
X145209Y124218D01*
X145219Y124106D01*
X145222Y123994D01*
X145234Y123949D01*
X145239Y123902D01*
X145277Y123796D01*
X145307Y123688D01*
X145339Y123623D01*
X145346Y123603D01*
X145356Y123587D01*
X145378Y123543D01*
X145718Y122956D01*
X145891Y122309D01*
X145891Y119224D01*
X140330Y119224D01*
X140212Y119209D01*
X140093Y119202D01*
X140055Y119189D01*
X140015Y119184D01*
X139904Y119141D01*
X139791Y119104D01*
X139757Y119082D01*
X139719Y119067D01*
X139623Y118998D01*
X139522Y118934D01*
X139494Y118904D01*
X139462Y118881D01*
X139386Y118789D01*
X139304Y118702D01*
X139285Y118667D01*
X139259Y118636D01*
X139208Y118528D01*
X139151Y118424D01*
X139141Y118384D01*
X139123Y118348D01*
X139101Y118231D01*
X139095Y118229D01*
X139054Y118224D01*
X138944Y118180D01*
X138831Y118144D01*
X138796Y118122D01*
X138759Y118107D01*
X138662Y118037D01*
X138562Y117974D01*
X138534Y117944D01*
X138501Y117920D01*
X138425Y117829D01*
X138344Y117742D01*
X138324Y117707D01*
X138299Y117675D01*
X138248Y117568D01*
X138190Y117463D01*
X138180Y117424D01*
X138163Y117388D01*
X138141Y117271D01*
X138111Y117155D01*
X138107Y117095D01*
X138103Y117075D01*
X138105Y117055D01*
X138101Y116995D01*
X138101Y110434D01*
X136016Y110434D01*
X135369Y110607D01*
X134790Y110942D01*
X134317Y111415D01*
X134157Y111693D01*
X134081Y111793D01*
X134010Y111897D01*
X133985Y111919D01*
X133964Y111946D01*
X133866Y112024D01*
X133772Y112107D01*
X133742Y112123D01*
X133715Y112143D01*
X133600Y112195D01*
X133488Y112252D01*
X133455Y112259D01*
X133425Y112273D01*
X133301Y112294D01*
X133178Y112321D01*
X133144Y112320D01*
X133111Y112326D01*
X132986Y112316D01*
X132860Y112312D01*
X132828Y112302D01*
X132794Y112300D01*
X132676Y112258D01*
X132555Y112223D01*
X132526Y112206D01*
X132494Y112195D01*
X132389Y112126D01*
X132281Y112062D01*
X132244Y112030D01*
X132229Y112019D01*
X132214Y112003D01*
X132160Y111955D01*
X131179Y110974D01*
X122521Y110974D01*
X121349Y112146D01*
X121349Y112935D01*
X121334Y113053D01*
X121327Y113172D01*
X121314Y113210D01*
X121309Y113251D01*
X121266Y113361D01*
X121229Y113474D01*
X121207Y113509D01*
X121192Y113546D01*
X121123Y113642D01*
X121059Y113743D01*
X121029Y113771D01*
X121006Y113804D01*
X120914Y113880D01*
X120827Y113961D01*
X120792Y113981D01*
X120761Y114006D01*
X120653Y114057D01*
X120549Y114115D01*
X120509Y114125D01*
X120473Y114142D01*
X120356Y114164D01*
X120241Y114194D01*
X120181Y114198D01*
X120161Y114202D01*
X120140Y114200D01*
X120080Y114204D01*
X114737Y114204D01*
X114707Y114201D01*
X114677Y114203D01*
X114550Y114181D01*
X114421Y114164D01*
X114394Y114153D01*
X114364Y114148D01*
X114246Y114095D01*
X114126Y114047D01*
X114102Y114030D01*
X114074Y114017D01*
X113973Y113937D01*
X113868Y113861D01*
X113849Y113837D01*
X113826Y113819D01*
X113785Y113765D01*
X112174Y112154D01*
X111495Y111872D01*
X111452Y111848D01*
X111405Y111831D01*
X111314Y111769D01*
X111218Y111715D01*
X111183Y111680D01*
X111142Y111652D01*
X111069Y111570D01*
X110990Y111493D01*
X110964Y111451D01*
X110931Y111414D01*
X110881Y111316D01*
X110824Y111222D01*
X110809Y111175D01*
X110787Y111130D01*
X110762Y111023D01*
X110730Y110918D01*
X110728Y110869D01*
X110717Y110820D01*
X110720Y110710D01*
X110715Y110601D01*
X110725Y110552D01*
X110727Y110502D01*
X110757Y110397D01*
X110779Y110289D01*
X110801Y110244D01*
X110815Y110197D01*
X110871Y110102D01*
X110919Y110003D01*
X110951Y109966D01*
X110976Y109923D01*
X111083Y109802D01*
X118821Y102064D01*
X118821Y99586D01*
X118833Y99487D01*
X118836Y99388D01*
X118853Y99330D01*
X118861Y99270D01*
X118897Y99178D01*
X118925Y99083D01*
X118955Y99031D01*
X118978Y98974D01*
X119036Y98894D01*
X119086Y98809D01*
X119152Y98734D01*
X119164Y98717D01*
X119174Y98709D01*
X119192Y98688D01*
X120001Y97879D01*
X120801Y95949D01*
X120801Y93861D01*
X120001Y91931D01*
X118524Y90454D01*
X116594Y89654D01*
X114506Y89654D01*
X112576Y90454D01*
X111099Y91931D01*
X110299Y93861D01*
X110299Y95949D01*
X111099Y97879D01*
X111529Y98310D01*
X111602Y98404D01*
X111681Y98493D01*
X111699Y98529D01*
X111724Y98561D01*
X111771Y98670D01*
X111825Y98776D01*
X111834Y98816D01*
X111850Y98853D01*
X111869Y98971D01*
X111895Y99087D01*
X111894Y99127D01*
X111900Y99167D01*
X111889Y99286D01*
X111885Y99404D01*
X111874Y99443D01*
X111870Y99484D01*
X111830Y99596D01*
X111797Y99710D01*
X111776Y99745D01*
X111763Y99783D01*
X111696Y99881D01*
X111635Y99984D01*
X111596Y100029D01*
X111584Y100046D01*
X111569Y100059D01*
X111529Y100105D01*
X107187Y104446D01*
X107078Y104531D01*
X106971Y104620D01*
X106952Y104629D01*
X106936Y104641D01*
X106808Y104697D01*
X106683Y104756D01*
X106663Y104760D01*
X106644Y104768D01*
X106506Y104790D01*
X106370Y104816D01*
X106350Y104814D01*
X106330Y104817D01*
X106191Y104804D01*
X106053Y104796D01*
X106034Y104790D01*
X106014Y104788D01*
X105882Y104740D01*
X105751Y104698D01*
X105733Y104687D01*
X105714Y104680D01*
X105599Y104602D01*
X105482Y104528D01*
X105468Y104513D01*
X105451Y104501D01*
X105359Y104397D01*
X105264Y104296D01*
X105254Y104278D01*
X105241Y104263D01*
X105177Y104139D01*
X105110Y104017D01*
X105105Y103998D01*
X105096Y103980D01*
X105066Y103844D01*
X105031Y103710D01*
X105029Y103681D01*
X105026Y103669D01*
X105027Y103649D01*
X105021Y103549D01*
X105021Y90320D01*
X105036Y90202D01*
X105043Y90083D01*
X105056Y90045D01*
X105061Y90004D01*
X105104Y89894D01*
X105141Y89781D01*
X105163Y89746D01*
X105178Y89709D01*
X105247Y89613D01*
X105311Y89512D01*
X105341Y89484D01*
X105364Y89451D01*
X105456Y89375D01*
X105543Y89294D01*
X105578Y89274D01*
X105609Y89249D01*
X105717Y89198D01*
X105821Y89140D01*
X105861Y89130D01*
X105897Y89113D01*
X106014Y89091D01*
X106047Y89082D01*
X107251Y87879D01*
X107251Y77221D01*
X106079Y76049D01*
X97421Y76049D01*
X96148Y77323D01*
X96053Y77396D01*
X95964Y77475D01*
X95928Y77493D01*
X95896Y77518D01*
X95787Y77565D01*
X95681Y77619D01*
X95642Y77628D01*
X95604Y77644D01*
X95487Y77663D01*
X95371Y77689D01*
X95330Y77688D01*
X95290Y77694D01*
X95172Y77683D01*
X95053Y77679D01*
X95014Y77668D01*
X94974Y77664D01*
X94861Y77624D01*
X94747Y77591D01*
X94713Y77570D01*
X94674Y77557D01*
X94576Y77490D01*
X94473Y77429D01*
X94428Y77390D01*
X94411Y77378D01*
X94398Y77363D01*
X94353Y77323D01*
X93079Y76049D01*
X84421Y76049D01*
X83249Y77221D01*
X83249Y82899D01*
X83237Y82998D01*
X83234Y83097D01*
X83217Y83155D01*
X83209Y83215D01*
X83173Y83307D01*
X83145Y83402D01*
X83115Y83454D01*
X83092Y83511D01*
X83034Y83591D01*
X82984Y83676D01*
X82954Y83710D01*
X82954Y90144D01*
X82942Y90243D01*
X82939Y90342D01*
X82922Y90400D01*
X82914Y90460D01*
X82878Y90552D01*
X82850Y90647D01*
X82820Y90699D01*
X82797Y90756D01*
X82739Y90836D01*
X82689Y90921D01*
X82623Y90996D01*
X82611Y91013D01*
X82601Y91021D01*
X82583Y91042D01*
X81774Y91851D01*
X80974Y93781D01*
X80974Y95869D01*
X81774Y97799D01*
X83251Y99276D01*
X85181Y100076D01*
X87269Y100076D01*
X89199Y99276D01*
X90676Y97799D01*
X91476Y95869D01*
X91476Y93781D01*
X90676Y91851D01*
X90043Y91217D01*
X89958Y91108D01*
X89869Y91001D01*
X89861Y90982D01*
X89848Y90966D01*
X89793Y90838D01*
X89734Y90713D01*
X89730Y90693D01*
X89722Y90674D01*
X89700Y90536D01*
X89674Y90400D01*
X89675Y90380D01*
X89672Y90360D01*
X89685Y90221D01*
X89694Y90083D01*
X89700Y90064D01*
X89702Y90044D01*
X89749Y89913D01*
X89792Y89781D01*
X89803Y89763D01*
X89809Y89744D01*
X89887Y89630D01*
X89962Y89512D01*
X89977Y89498D01*
X89988Y89481D01*
X90092Y89389D01*
X90193Y89294D01*
X90211Y89284D01*
X90226Y89271D01*
X90350Y89208D01*
X90472Y89140D01*
X90492Y89135D01*
X90510Y89126D01*
X90646Y89096D01*
X90780Y89061D01*
X90808Y89059D01*
X90820Y89056D01*
X90840Y89057D01*
X90941Y89051D01*
X93079Y89051D01*
X94353Y87777D01*
X94447Y87704D01*
X94536Y87625D01*
X94572Y87607D01*
X94604Y87582D01*
X94713Y87535D01*
X94819Y87481D01*
X94858Y87472D01*
X94896Y87456D01*
X95013Y87437D01*
X95129Y87411D01*
X95170Y87412D01*
X95210Y87406D01*
X95328Y87417D01*
X95447Y87421D01*
X95486Y87432D01*
X95526Y87436D01*
X95638Y87476D01*
X95753Y87509D01*
X95788Y87530D01*
X95826Y87543D01*
X95924Y87610D01*
X96027Y87671D01*
X96072Y87710D01*
X96089Y87722D01*
X96102Y87737D01*
X96148Y87777D01*
X97443Y89073D01*
X97447Y89073D01*
X97485Y89086D01*
X97526Y89091D01*
X97636Y89134D01*
X97749Y89171D01*
X97784Y89193D01*
X97821Y89208D01*
X97917Y89277D01*
X98018Y89341D01*
X98046Y89371D01*
X98079Y89394D01*
X98155Y89486D01*
X98236Y89573D01*
X98256Y89608D01*
X98281Y89639D01*
X98332Y89747D01*
X98390Y89851D01*
X98400Y89891D01*
X98417Y89927D01*
X98439Y90044D01*
X98469Y90159D01*
X98473Y90219D01*
X98477Y90239D01*
X98475Y90260D01*
X98479Y90320D01*
X98479Y101430D01*
X98464Y101548D01*
X98457Y101667D01*
X98444Y101705D01*
X98439Y101746D01*
X98396Y101856D01*
X98359Y101969D01*
X98337Y102004D01*
X98322Y102041D01*
X98253Y102137D01*
X98189Y102238D01*
X98159Y102266D01*
X98136Y102299D01*
X98044Y102375D01*
X97957Y102456D01*
X97922Y102476D01*
X97891Y102501D01*
X97783Y102552D01*
X97679Y102610D01*
X97639Y102620D01*
X97603Y102637D01*
X97486Y102659D01*
X97462Y102665D01*
X95451Y103499D01*
X93974Y104976D01*
X93699Y105638D01*
X93675Y105681D01*
X93658Y105728D01*
X93596Y105819D01*
X93542Y105914D01*
X93507Y105950D01*
X93479Y105991D01*
X93397Y106064D01*
X93321Y106143D01*
X93278Y106169D01*
X93241Y106201D01*
X93143Y106251D01*
X93049Y106309D01*
X93002Y106323D01*
X92958Y106346D01*
X92851Y106370D01*
X92745Y106402D01*
X92696Y106405D01*
X92647Y106416D01*
X92538Y106412D01*
X92428Y106418D01*
X92379Y106408D01*
X92329Y106406D01*
X92224Y106376D01*
X92116Y106353D01*
X92072Y106331D01*
X92024Y106318D01*
X91929Y106262D01*
X91831Y106214D01*
X91793Y106181D01*
X91750Y106156D01*
X91629Y106050D01*
X90204Y104624D01*
X81546Y104624D01*
X80565Y105605D01*
X80466Y105683D01*
X80371Y105765D01*
X80340Y105780D01*
X80314Y105800D01*
X80199Y105850D01*
X80086Y105906D01*
X80053Y105913D01*
X80022Y105927D01*
X79898Y105946D01*
X79775Y105973D01*
X79741Y105971D01*
X79708Y105977D01*
X79582Y105965D01*
X79457Y105960D01*
X79425Y105950D01*
X79391Y105947D01*
X79273Y105904D01*
X79153Y105868D01*
X79124Y105851D01*
X79092Y105839D01*
X78988Y105769D01*
X78880Y105704D01*
X78857Y105680D01*
X78829Y105661D01*
X78746Y105566D01*
X78658Y105477D01*
X78631Y105436D01*
X78618Y105422D01*
X78608Y105403D01*
X78568Y105343D01*
X78408Y105065D01*
X77935Y104592D01*
X77356Y104257D01*
X76709Y104084D01*
X74624Y104084D01*
X74624Y110645D01*
X74609Y110763D01*
X74602Y110882D01*
X74589Y110920D01*
X74584Y110960D01*
X74541Y111071D01*
X74525Y111119D01*
X74535Y111137D01*
X74545Y111176D01*
X74562Y111212D01*
X74584Y111329D01*
X74614Y111445D01*
X74618Y111505D01*
X74622Y111525D01*
X74620Y111545D01*
X74624Y111605D01*
X74624Y118166D01*
X76709Y118166D01*
X77356Y117993D01*
X77935Y117658D01*
X78408Y117185D01*
X78568Y116907D01*
X78644Y116807D01*
X78715Y116703D01*
X78740Y116681D01*
X78761Y116654D01*
X78859Y116576D01*
X78953Y116493D01*
X78983Y116477D01*
X79010Y116457D01*
X79125Y116405D01*
X79237Y116348D01*
X79270Y116341D01*
X79300Y116327D01*
X79424Y116306D01*
X79547Y116279D01*
X79581Y116280D01*
X79614Y116274D01*
X79739Y116284D01*
X79865Y116288D01*
X79897Y116298D01*
X79931Y116300D01*
X80049Y116342D01*
X80170Y116377D01*
X80199Y116394D01*
X80231Y116405D01*
X80336Y116474D01*
X80444Y116538D01*
X80481Y116570D01*
X80496Y116581D01*
X80511Y116597D01*
X80565Y116645D01*
X81546Y117626D01*
X90204Y117626D01*
X91376Y116454D01*
X91376Y115665D01*
X91391Y115547D01*
X91398Y115428D01*
X91411Y115390D01*
X91416Y115349D01*
X91459Y115239D01*
X91496Y115126D01*
X91518Y115091D01*
X91533Y115054D01*
X91602Y114958D01*
X91666Y114857D01*
X91696Y114829D01*
X91719Y114796D01*
X91811Y114720D01*
X91898Y114639D01*
X91933Y114619D01*
X91964Y114594D01*
X92072Y114543D01*
X92176Y114485D01*
X92216Y114475D01*
X92252Y114458D01*
X92369Y114436D01*
X92484Y114406D01*
X92544Y114402D01*
X92564Y114398D01*
X92585Y114400D01*
X92645Y114396D01*
X94174Y114396D01*
X94311Y114413D01*
X94450Y114426D01*
X94469Y114433D01*
X94489Y114436D01*
X94618Y114487D01*
X94749Y114534D01*
X94766Y114545D01*
X94785Y114553D01*
X94898Y114634D01*
X95013Y114712D01*
X95026Y114728D01*
X95042Y114739D01*
X95131Y114847D01*
X95223Y114951D01*
X95232Y114969D01*
X95245Y114984D01*
X95304Y115110D01*
X95368Y115234D01*
X95372Y115254D01*
X95381Y115272D01*
X95407Y115408D01*
X95437Y115544D01*
X95437Y115565D01*
X95441Y115584D01*
X95432Y115723D01*
X95428Y115862D01*
X95422Y115882D01*
X95421Y115902D01*
X95378Y116034D01*
X95339Y116168D01*
X95329Y116185D01*
X95323Y116204D01*
X95248Y116322D01*
X95178Y116442D01*
X95159Y116463D01*
X95153Y116473D01*
X95138Y116487D01*
X95071Y116562D01*
X92479Y119155D01*
X92479Y121319D01*
X92467Y121418D01*
X92464Y121517D01*
X92447Y121575D01*
X92439Y121635D01*
X92403Y121727D01*
X92375Y121822D01*
X92345Y121874D01*
X92322Y121931D01*
X92264Y122011D01*
X92214Y122096D01*
X92148Y122171D01*
X92136Y122188D01*
X92126Y122196D01*
X92108Y122217D01*
X91299Y123026D01*
X90499Y124956D01*
X90499Y127044D01*
X91299Y128974D01*
X92776Y130451D01*
X94706Y131251D01*
X96794Y131251D01*
X98724Y130451D01*
X100201Y128974D01*
X101001Y127044D01*
X101001Y124956D01*
X100201Y123026D01*
X99928Y122752D01*
X99855Y122658D01*
X99776Y122569D01*
X99758Y122533D01*
X99733Y122501D01*
X99686Y122392D01*
X99631Y122286D01*
X99623Y122246D01*
X99606Y122209D01*
X99588Y122091D01*
X99562Y121975D01*
X99563Y121935D01*
X99557Y121895D01*
X99568Y121776D01*
X99571Y121657D01*
X99583Y121619D01*
X99586Y121578D01*
X99627Y121466D01*
X99660Y121352D01*
X99680Y121317D01*
X99694Y121279D01*
X99761Y121181D01*
X99821Y121078D01*
X99861Y121033D01*
X99873Y121016D01*
X99888Y121003D01*
X99928Y120957D01*
X102397Y118488D01*
X102436Y118457D01*
X102470Y118421D01*
X102561Y118360D01*
X102648Y118293D01*
X102694Y118273D01*
X102735Y118246D01*
X102839Y118210D01*
X102940Y118167D01*
X102989Y118159D01*
X103036Y118143D01*
X103145Y118134D01*
X103254Y118117D01*
X103304Y118121D01*
X103353Y118117D01*
X103461Y118136D01*
X103571Y118147D01*
X103618Y118163D01*
X103667Y118172D01*
X103767Y118217D01*
X103870Y118254D01*
X103911Y118282D01*
X103957Y118302D01*
X104042Y118371D01*
X104133Y118433D01*
X104166Y118470D01*
X104205Y118501D01*
X104271Y118589D01*
X104344Y118671D01*
X104366Y118715D01*
X104396Y118755D01*
X104467Y118900D01*
X104749Y119579D01*
X106226Y121056D01*
X108156Y121856D01*
X110244Y121856D01*
X112206Y121043D01*
X112264Y120989D01*
X112317Y120960D01*
X112364Y120923D01*
X112455Y120883D01*
X112542Y120835D01*
X112601Y120820D01*
X112656Y120796D01*
X112754Y120781D01*
X112850Y120756D01*
X112950Y120750D01*
X112970Y120746D01*
X112983Y120748D01*
X113011Y120746D01*
X120080Y120746D01*
X120198Y120761D01*
X120317Y120768D01*
X120355Y120781D01*
X120396Y120786D01*
X120506Y120829D01*
X120619Y120866D01*
X120654Y120888D01*
X120691Y120903D01*
X120787Y120972D01*
X120888Y121036D01*
X120916Y121066D01*
X120949Y121089D01*
X121025Y121181D01*
X121106Y121268D01*
X121126Y121303D01*
X121151Y121334D01*
X121202Y121442D01*
X121260Y121546D01*
X121270Y121586D01*
X121287Y121622D01*
X121309Y121739D01*
X121339Y121854D01*
X121343Y121914D01*
X121347Y121934D01*
X121345Y121955D01*
X121349Y122015D01*
X121349Y122804D01*
X121473Y122927D01*
X121546Y123022D01*
X121625Y123111D01*
X121643Y123147D01*
X121668Y123179D01*
X121715Y123288D01*
X121769Y123394D01*
X121778Y123433D01*
X121794Y123471D01*
X121813Y123588D01*
X121839Y123704D01*
X121838Y123745D01*
X121844Y123785D01*
X121833Y123903D01*
X121829Y124022D01*
X121818Y124061D01*
X121814Y124101D01*
X121774Y124213D01*
X121741Y124328D01*
X121720Y124363D01*
X121707Y124401D01*
X121640Y124499D01*
X121579Y124602D01*
X121540Y124647D01*
X121528Y124664D01*
X121513Y124677D01*
X121473Y124722D01*
X121349Y124846D01*
X121349Y135504D01*
X122521Y136676D01*
X131179Y136676D01*
X132452Y135402D01*
X132547Y135329D01*
X132636Y135250D01*
X132672Y135232D01*
X132704Y135207D01*
X132813Y135160D01*
X132919Y135106D01*
X132958Y135097D01*
X132996Y135081D01*
X133113Y135062D01*
X133229Y135036D01*
X133270Y135037D01*
X133310Y135031D01*
X133428Y135042D01*
X133547Y135046D01*
X133586Y135057D01*
X133626Y135061D01*
X133739Y135101D01*
X133853Y135134D01*
X133887Y135155D01*
X133926Y135168D01*
X134024Y135235D01*
X134127Y135296D01*
X134172Y135335D01*
X134189Y135347D01*
X134202Y135362D01*
X134247Y135402D01*
X135521Y136676D01*
X144179Y136676D01*
X145351Y135504D01*
X145351Y134715D01*
X145366Y134597D01*
X145373Y134478D01*
X145386Y134440D01*
X145391Y134399D01*
X145434Y134289D01*
X145471Y134176D01*
X145493Y134141D01*
X145508Y134104D01*
X145577Y134008D01*
X145641Y133907D01*
X145671Y133879D01*
X145694Y133846D01*
X145786Y133770D01*
X145873Y133689D01*
X145908Y133669D01*
X145939Y133644D01*
X146047Y133593D01*
X146151Y133535D01*
X146191Y133525D01*
X146227Y133508D01*
X146344Y133486D01*
X146459Y133456D01*
X146519Y133452D01*
X146539Y133448D01*
X146560Y133450D01*
X146620Y133446D01*
X156930Y133446D01*
X157428Y132947D01*
X157506Y132887D01*
X157578Y132819D01*
X157631Y132790D01*
X157679Y132753D01*
X157770Y132713D01*
X157857Y132665D01*
X157915Y132650D01*
X157971Y132626D01*
X158069Y132611D01*
X158165Y132586D01*
X158265Y132580D01*
X158285Y132576D01*
X158298Y132578D01*
X158326Y132576D01*
X160219Y132576D01*
X162149Y131776D01*
X163626Y130299D01*
X164426Y128369D01*
X164426Y126476D01*
X164438Y126377D01*
X164441Y126278D01*
X164458Y126220D01*
X164466Y126160D01*
X164502Y126068D01*
X164530Y125973D01*
X164560Y125921D01*
X164583Y125864D01*
X164641Y125784D01*
X164691Y125699D01*
X164757Y125623D01*
X164769Y125607D01*
X164779Y125599D01*
X164797Y125578D01*
X168371Y122005D01*
X168371Y59031D01*
X168383Y58932D01*
X168386Y58833D01*
X168403Y58775D01*
X168411Y58715D01*
X168447Y58623D01*
X168475Y58528D01*
X168505Y58476D01*
X168528Y58419D01*
X168586Y58339D01*
X168636Y58254D01*
X168702Y58178D01*
X168714Y58162D01*
X168724Y58154D01*
X168742Y58133D01*
X181071Y45805D01*
X181071Y42927D01*
X181074Y42897D01*
X181072Y42868D01*
X181094Y42740D01*
X181111Y42611D01*
X181121Y42584D01*
X181126Y42555D01*
X181180Y42436D01*
X181228Y42315D01*
X181245Y42292D01*
X181257Y42265D01*
X181338Y42163D01*
X181414Y42058D01*
X181437Y42039D01*
X181456Y42016D01*
X181559Y41938D01*
X181659Y41855D01*
X181686Y41843D01*
X181710Y41825D01*
X181854Y41754D01*
X183250Y41176D01*
X185143Y39283D01*
X185252Y39198D01*
X185359Y39109D01*
X185378Y39101D01*
X185394Y39088D01*
X185522Y39033D01*
X185647Y38974D01*
X185667Y38970D01*
X185686Y38962D01*
X185824Y38940D01*
X185960Y38914D01*
X185980Y38915D01*
X186000Y38912D01*
X186139Y38925D01*
X186277Y38934D01*
X186296Y38940D01*
X186316Y38942D01*
X186448Y38989D01*
X186579Y39032D01*
X186597Y39043D01*
X186616Y39049D01*
X186731Y39128D01*
X186848Y39202D01*
X186862Y39217D01*
X186879Y39228D01*
X186971Y39332D01*
X187066Y39434D01*
X187076Y39451D01*
X187089Y39466D01*
X187153Y39591D01*
X187220Y39712D01*
X187225Y39732D01*
X187234Y39750D01*
X187264Y39886D01*
X187299Y40020D01*
X187301Y40048D01*
X187304Y40060D01*
X187303Y40081D01*
X187309Y40181D01*
X187309Y51420D01*
X187294Y51538D01*
X187287Y51657D01*
X187274Y51695D01*
X187269Y51736D01*
X187226Y51846D01*
X187189Y51959D01*
X187167Y51994D01*
X187152Y52031D01*
X187083Y52127D01*
X187019Y52228D01*
X186989Y52256D01*
X186966Y52289D01*
X186874Y52365D01*
X186787Y52446D01*
X186752Y52466D01*
X186721Y52491D01*
X186613Y52542D01*
X186509Y52600D01*
X186469Y52610D01*
X186433Y52627D01*
X186316Y52649D01*
X186201Y52679D01*
X186141Y52683D01*
X186121Y52687D01*
X186100Y52685D01*
X186040Y52689D01*
X182751Y52689D01*
X181579Y53861D01*
X181579Y65519D01*
X182751Y66691D01*
X186040Y66691D01*
X186158Y66706D01*
X186277Y66713D01*
X186315Y66726D01*
X186356Y66731D01*
X186466Y66774D01*
X186579Y66811D01*
X186614Y66833D01*
X186651Y66848D01*
X186747Y66917D01*
X186848Y66981D01*
X186876Y67011D01*
X186909Y67034D01*
X186985Y67126D01*
X187066Y67213D01*
X187086Y67248D01*
X187111Y67279D01*
X187162Y67387D01*
X187220Y67491D01*
X187230Y67531D01*
X187247Y67567D01*
X187269Y67684D01*
X187299Y67799D01*
X187303Y67859D01*
X187307Y67879D01*
X187305Y67900D01*
X187309Y67960D01*
X187309Y71740D01*
X187294Y71858D01*
X187287Y71977D01*
X187274Y72015D01*
X187269Y72056D01*
X187226Y72166D01*
X187189Y72279D01*
X187167Y72314D01*
X187152Y72351D01*
X187083Y72447D01*
X187019Y72548D01*
X186989Y72576D01*
X186966Y72609D01*
X186874Y72685D01*
X186787Y72766D01*
X186752Y72786D01*
X186721Y72811D01*
X186613Y72862D01*
X186509Y72920D01*
X186469Y72930D01*
X186433Y72947D01*
X186316Y72969D01*
X186201Y72999D01*
X186141Y73003D01*
X186121Y73007D01*
X186100Y73005D01*
X186040Y73009D01*
X182751Y73009D01*
X181579Y74181D01*
X181579Y85839D01*
X182751Y87011D01*
X198409Y87011D01*
X199581Y85839D01*
X199581Y74181D01*
X198409Y73009D01*
X195120Y73009D01*
X195002Y72994D01*
X194883Y72987D01*
X194845Y72974D01*
X194804Y72969D01*
X194694Y72926D01*
X194581Y72889D01*
X194546Y72867D01*
X194509Y72852D01*
X194413Y72783D01*
X194312Y72719D01*
X194284Y72689D01*
X194251Y72666D01*
X194175Y72574D01*
X194094Y72487D01*
X194074Y72452D01*
X194049Y72421D01*
X193998Y72313D01*
X193940Y72209D01*
X193930Y72169D01*
X193913Y72133D01*
X193891Y72016D01*
X193861Y71901D01*
X193857Y71841D01*
X193853Y71821D01*
X193855Y71800D01*
X193851Y71740D01*
X193851Y67960D01*
X193866Y67842D01*
X193873Y67723D01*
X193886Y67685D01*
X193891Y67644D01*
X193934Y67534D01*
X193971Y67421D01*
X193993Y67386D01*
X194008Y67349D01*
X194077Y67253D01*
X194141Y67152D01*
X194171Y67124D01*
X194194Y67091D01*
X194286Y67015D01*
X194373Y66934D01*
X194408Y66914D01*
X194439Y66889D01*
X194547Y66838D01*
X194651Y66780D01*
X194691Y66770D01*
X194727Y66753D01*
X194844Y66731D01*
X194959Y66701D01*
X195019Y66697D01*
X195039Y66693D01*
X195060Y66695D01*
X195120Y66691D01*
X198409Y66691D01*
X199581Y65519D01*
X199581Y53861D01*
X198409Y52689D01*
X195120Y52689D01*
X195002Y52674D01*
X194883Y52667D01*
X194845Y52654D01*
X194804Y52649D01*
X194694Y52606D01*
X194581Y52569D01*
X194546Y52547D01*
X194509Y52532D01*
X194413Y52463D01*
X194312Y52399D01*
X194284Y52369D01*
X194251Y52346D01*
X194175Y52254D01*
X194094Y52167D01*
X194074Y52132D01*
X194049Y52101D01*
X193998Y51993D01*
X193940Y51889D01*
X193930Y51849D01*
X193913Y51813D01*
X193891Y51696D01*
X193861Y51581D01*
X193857Y51521D01*
X193853Y51501D01*
X193855Y51480D01*
X193851Y51420D01*
X193851Y40341D01*
X193868Y40203D01*
X193881Y40064D01*
X193888Y40045D01*
X193891Y40025D01*
X193942Y39896D01*
X193989Y39765D01*
X194000Y39748D01*
X194008Y39729D01*
X194089Y39617D01*
X194167Y39502D01*
X194183Y39489D01*
X194194Y39472D01*
X194302Y39383D01*
X194406Y39291D01*
X194424Y39282D01*
X194439Y39269D01*
X194565Y39210D01*
X194689Y39147D01*
X194709Y39142D01*
X194727Y39134D01*
X194864Y39108D01*
X194999Y39077D01*
X195020Y39078D01*
X195039Y39074D01*
X195178Y39083D01*
X195317Y39087D01*
X195337Y39093D01*
X195357Y39094D01*
X195489Y39137D01*
X195623Y39175D01*
X195640Y39186D01*
X195659Y39192D01*
X195777Y39266D01*
X195897Y39337D01*
X195918Y39355D01*
X195928Y39362D01*
X195942Y39377D01*
X196017Y39443D01*
X197750Y41176D01*
X201286Y42641D01*
X205114Y42641D01*
X208650Y41176D01*
X211356Y38470D01*
X212821Y34934D01*
X212821Y15866D01*
X211356Y12330D01*
X208650Y9624D01*
X205114Y8159D01*
X201286Y8159D01*
X197750Y9624D01*
X195044Y12330D01*
X193579Y15866D01*
X193579Y29869D01*
X193567Y29968D01*
X193564Y30067D01*
X193547Y30125D01*
X193539Y30185D01*
X193503Y30277D01*
X193475Y30372D01*
X193445Y30424D01*
X193422Y30481D01*
X193364Y30561D01*
X193314Y30646D01*
X193248Y30722D01*
X193236Y30738D01*
X193226Y30746D01*
X193208Y30767D01*
X189597Y34378D01*
X189589Y34386D01*
X189479Y34471D01*
X189371Y34561D01*
X189353Y34569D01*
X189338Y34581D01*
X189209Y34637D01*
X189083Y34696D01*
X189064Y34700D01*
X189046Y34708D01*
X188908Y34730D01*
X188770Y34756D01*
X188751Y34755D01*
X188732Y34758D01*
X188593Y34745D01*
X188453Y34736D01*
X188435Y34731D01*
X188416Y34729D01*
X188284Y34682D01*
X188151Y34638D01*
X188134Y34628D01*
X188116Y34622D01*
X188000Y34543D01*
X187882Y34468D01*
X187869Y34454D01*
X187853Y34444D01*
X187760Y34339D01*
X187664Y34237D01*
X187655Y34220D01*
X187642Y34205D01*
X187578Y34081D01*
X187510Y33958D01*
X187506Y33939D01*
X187497Y33922D01*
X187466Y33786D01*
X187431Y33650D01*
X187429Y33624D01*
X187427Y33612D01*
X187427Y33592D01*
X187421Y33490D01*
X187421Y15866D01*
X185956Y12330D01*
X183250Y9624D01*
X179714Y8159D01*
X175886Y8159D01*
G37*
%LPD*%
%LPC*%
G36*
X238260Y92099D02*
X238260Y92099D01*
X234768Y93546D01*
X232096Y96218D01*
X232072Y96276D01*
X232057Y96301D01*
X232048Y96329D01*
X231979Y96439D01*
X231914Y96552D01*
X231894Y96573D01*
X231878Y96598D01*
X231784Y96687D01*
X231693Y96780D01*
X231668Y96796D01*
X231646Y96816D01*
X231533Y96879D01*
X231422Y96947D01*
X231394Y96955D01*
X231368Y96970D01*
X231242Y97002D01*
X231118Y97040D01*
X231088Y97042D01*
X231060Y97049D01*
X230899Y97059D01*
X200114Y97059D01*
X200016Y97047D01*
X199917Y97044D01*
X199859Y97027D01*
X199799Y97019D01*
X199707Y96983D01*
X199612Y96955D01*
X199560Y96925D01*
X199503Y96902D01*
X199423Y96844D01*
X199338Y96794D01*
X199262Y96728D01*
X199246Y96716D01*
X199238Y96706D01*
X199217Y96688D01*
X198829Y96299D01*
X182171Y96299D01*
X180999Y97471D01*
X180999Y112129D01*
X182273Y113402D01*
X182346Y113497D01*
X182425Y113586D01*
X182443Y113622D01*
X182468Y113654D01*
X182515Y113763D01*
X182569Y113869D01*
X182578Y113908D01*
X182594Y113946D01*
X182613Y114063D01*
X182639Y114179D01*
X182638Y114220D01*
X182644Y114260D01*
X182633Y114378D01*
X182629Y114497D01*
X182618Y114536D01*
X182614Y114576D01*
X182574Y114689D01*
X182541Y114803D01*
X182520Y114837D01*
X182507Y114876D01*
X182440Y114974D01*
X182379Y115077D01*
X182340Y115122D01*
X182328Y115139D01*
X182313Y115152D01*
X182273Y115197D01*
X180999Y116471D01*
X180999Y131129D01*
X182171Y132301D01*
X198829Y132301D01*
X199217Y131912D01*
X199295Y131852D01*
X199367Y131784D01*
X199420Y131755D01*
X199468Y131718D01*
X199559Y131678D01*
X199646Y131630D01*
X199704Y131615D01*
X199760Y131591D01*
X199858Y131576D01*
X199954Y131551D01*
X200054Y131545D01*
X200074Y131541D01*
X200086Y131543D01*
X200114Y131541D01*
X230899Y131541D01*
X230929Y131544D01*
X230958Y131542D01*
X231086Y131564D01*
X231215Y131581D01*
X231242Y131591D01*
X231271Y131597D01*
X231390Y131650D01*
X231510Y131698D01*
X231534Y131715D01*
X231561Y131727D01*
X231663Y131808D01*
X231768Y131884D01*
X231787Y131907D01*
X231810Y131926D01*
X231888Y132030D01*
X231971Y132129D01*
X231983Y132156D01*
X232001Y132180D01*
X232072Y132324D01*
X232096Y132382D01*
X234768Y135054D01*
X238260Y136501D01*
X257040Y136501D01*
X260532Y135054D01*
X263204Y132382D01*
X264651Y128890D01*
X264651Y125110D01*
X263204Y121618D01*
X260532Y118946D01*
X257040Y117499D01*
X238260Y117499D01*
X234768Y118946D01*
X232096Y121618D01*
X232072Y121676D01*
X232057Y121701D01*
X232048Y121729D01*
X231979Y121839D01*
X231914Y121952D01*
X231894Y121973D01*
X231878Y121998D01*
X231784Y122087D01*
X231693Y122180D01*
X231668Y122196D01*
X231646Y122216D01*
X231533Y122279D01*
X231422Y122347D01*
X231394Y122355D01*
X231368Y122370D01*
X231242Y122402D01*
X231118Y122440D01*
X231088Y122442D01*
X231060Y122449D01*
X230899Y122459D01*
X201270Y122459D01*
X201152Y122444D01*
X201033Y122437D01*
X200995Y122424D01*
X200954Y122419D01*
X200844Y122376D01*
X200731Y122339D01*
X200696Y122317D01*
X200659Y122302D01*
X200563Y122233D01*
X200462Y122169D01*
X200434Y122139D01*
X200401Y122116D01*
X200325Y122024D01*
X200244Y121937D01*
X200224Y121902D01*
X200199Y121871D01*
X200148Y121763D01*
X200090Y121659D01*
X200080Y121619D01*
X200063Y121583D01*
X200041Y121466D01*
X200011Y121351D01*
X200007Y121291D01*
X200003Y121271D01*
X200005Y121250D01*
X200001Y121190D01*
X200001Y116471D01*
X198727Y115197D01*
X198654Y115103D01*
X198575Y115014D01*
X198557Y114978D01*
X198532Y114946D01*
X198485Y114837D01*
X198431Y114731D01*
X198422Y114692D01*
X198406Y114654D01*
X198387Y114537D01*
X198361Y114421D01*
X198362Y114380D01*
X198356Y114340D01*
X198367Y114222D01*
X198371Y114103D01*
X198382Y114064D01*
X198386Y114024D01*
X198426Y113912D01*
X198459Y113797D01*
X198480Y113762D01*
X198493Y113724D01*
X198560Y113626D01*
X198621Y113523D01*
X198660Y113478D01*
X198672Y113461D01*
X198687Y113448D01*
X198727Y113402D01*
X200001Y112129D01*
X200001Y107410D01*
X200016Y107292D01*
X200023Y107173D01*
X200036Y107135D01*
X200041Y107094D01*
X200084Y106984D01*
X200121Y106871D01*
X200143Y106836D01*
X200158Y106799D01*
X200227Y106703D01*
X200291Y106602D01*
X200321Y106574D01*
X200344Y106541D01*
X200436Y106465D01*
X200523Y106384D01*
X200558Y106364D01*
X200589Y106339D01*
X200697Y106288D01*
X200801Y106230D01*
X200841Y106220D01*
X200877Y106203D01*
X200994Y106181D01*
X201109Y106151D01*
X201169Y106147D01*
X201189Y106143D01*
X201210Y106145D01*
X201270Y106141D01*
X230899Y106141D01*
X230929Y106144D01*
X230958Y106142D01*
X231086Y106164D01*
X231215Y106181D01*
X231242Y106191D01*
X231271Y106197D01*
X231390Y106250D01*
X231510Y106298D01*
X231534Y106315D01*
X231561Y106327D01*
X231663Y106408D01*
X231768Y106484D01*
X231787Y106507D01*
X231810Y106526D01*
X231888Y106630D01*
X231971Y106729D01*
X231983Y106756D01*
X232001Y106780D01*
X232072Y106924D01*
X232096Y106982D01*
X234768Y109654D01*
X238260Y111101D01*
X257040Y111101D01*
X260532Y109654D01*
X263204Y106982D01*
X264651Y103490D01*
X264651Y99710D01*
X263204Y96218D01*
X260532Y93546D01*
X257040Y92099D01*
X238260Y92099D01*
G37*
%LPD*%
%LPC*%
G36*
X12031Y112269D02*
X12031Y112269D01*
X10859Y113441D01*
X10859Y119099D01*
X12031Y120271D01*
X31496Y120271D01*
X31546Y120277D01*
X31595Y120275D01*
X31703Y120297D01*
X31812Y120311D01*
X31858Y120329D01*
X31907Y120339D01*
X32005Y120387D01*
X32107Y120428D01*
X32148Y120457D01*
X32192Y120479D01*
X32276Y120550D01*
X32365Y120614D01*
X32396Y120653D01*
X32434Y120685D01*
X32497Y120775D01*
X32568Y120859D01*
X32589Y120904D01*
X32617Y120945D01*
X32656Y121048D01*
X32703Y121147D01*
X32712Y121196D01*
X32730Y121242D01*
X32742Y121352D01*
X32763Y121459D01*
X32760Y121509D01*
X32765Y121558D01*
X32750Y121667D01*
X32743Y121777D01*
X32728Y121824D01*
X32721Y121873D01*
X32669Y122026D01*
X32404Y122665D01*
X32402Y122697D01*
X32389Y122735D01*
X32384Y122776D01*
X32341Y122886D01*
X32304Y122999D01*
X32282Y123034D01*
X32267Y123071D01*
X32198Y123167D01*
X32134Y123268D01*
X32104Y123296D01*
X32081Y123329D01*
X31989Y123405D01*
X31902Y123486D01*
X31867Y123506D01*
X31836Y123531D01*
X31728Y123582D01*
X31624Y123640D01*
X31584Y123650D01*
X31548Y123667D01*
X31431Y123689D01*
X31316Y123719D01*
X31256Y123723D01*
X31236Y123727D01*
X31215Y123725D01*
X31155Y123729D01*
X24129Y123729D01*
X24129Y128270D01*
X24129Y132811D01*
X31580Y132811D01*
X31698Y132826D01*
X31817Y132833D01*
X31855Y132846D01*
X31896Y132851D01*
X32006Y132894D01*
X32119Y132931D01*
X32154Y132953D01*
X32191Y132968D01*
X32288Y133038D01*
X32388Y133101D01*
X32416Y133131D01*
X32449Y133154D01*
X32525Y133246D01*
X32606Y133333D01*
X32626Y133368D01*
X32651Y133399D01*
X32702Y133507D01*
X32760Y133611D01*
X32770Y133650D01*
X32787Y133687D01*
X32809Y133804D01*
X32839Y133919D01*
X32843Y133979D01*
X32847Y133999D01*
X32845Y134020D01*
X32849Y134080D01*
X32849Y134394D01*
X32899Y134514D01*
X32912Y134562D01*
X32933Y134607D01*
X32954Y134715D01*
X32983Y134821D01*
X32984Y134871D01*
X32993Y134920D01*
X32986Y135029D01*
X32988Y135139D01*
X32976Y135187D01*
X32973Y135237D01*
X32939Y135341D01*
X32914Y135448D01*
X32891Y135492D01*
X32875Y135539D01*
X32816Y135632D01*
X32765Y135729D01*
X32732Y135766D01*
X32705Y135808D01*
X32625Y135884D01*
X32551Y135965D01*
X32510Y135992D01*
X32473Y136026D01*
X32377Y136079D01*
X32285Y136139D01*
X32238Y136156D01*
X32195Y136180D01*
X32089Y136207D01*
X31985Y136243D01*
X31935Y136247D01*
X31887Y136259D01*
X31726Y136269D01*
X12031Y136269D01*
X10859Y137441D01*
X10859Y143099D01*
X12031Y144271D01*
X33689Y144271D01*
X34047Y143912D01*
X34125Y143852D01*
X34197Y143784D01*
X34250Y143755D01*
X34298Y143718D01*
X34389Y143678D01*
X34476Y143630D01*
X34534Y143615D01*
X34590Y143591D01*
X34688Y143576D01*
X34784Y143551D01*
X34884Y143545D01*
X34904Y143541D01*
X34916Y143543D01*
X34944Y143541D01*
X39455Y143541D01*
X41371Y141625D01*
X41371Y138031D01*
X41383Y137932D01*
X41386Y137833D01*
X41403Y137775D01*
X41411Y137715D01*
X41447Y137623D01*
X41475Y137528D01*
X41505Y137476D01*
X41528Y137419D01*
X41586Y137339D01*
X41636Y137254D01*
X41702Y137179D01*
X41714Y137162D01*
X41724Y137154D01*
X41742Y137133D01*
X42551Y136324D01*
X43351Y134394D01*
X43351Y132306D01*
X42551Y130376D01*
X41366Y129190D01*
X41293Y129096D01*
X41214Y129007D01*
X41196Y128971D01*
X41171Y128939D01*
X41124Y128829D01*
X41069Y128724D01*
X41061Y128684D01*
X41045Y128647D01*
X41026Y128529D01*
X41000Y128413D01*
X41001Y128373D01*
X40995Y128333D01*
X41006Y128214D01*
X41009Y128095D01*
X41021Y128057D01*
X41025Y128016D01*
X41065Y127904D01*
X41098Y127790D01*
X41118Y127755D01*
X41132Y127717D01*
X41199Y127619D01*
X41259Y127516D01*
X41299Y127471D01*
X41311Y127454D01*
X41326Y127440D01*
X41366Y127395D01*
X42126Y126635D01*
X42926Y124705D01*
X42926Y122616D01*
X42126Y120686D01*
X41317Y119877D01*
X41257Y119799D01*
X41189Y119727D01*
X41160Y119674D01*
X41123Y119626D01*
X41083Y119535D01*
X41035Y119448D01*
X41020Y119390D01*
X40996Y119334D01*
X40981Y119236D01*
X40956Y119140D01*
X40950Y119040D01*
X40946Y119020D01*
X40948Y119008D01*
X40946Y118980D01*
X40946Y114915D01*
X39030Y112999D01*
X34944Y112999D01*
X34846Y112987D01*
X34747Y112984D01*
X34689Y112967D01*
X34629Y112959D01*
X34537Y112923D01*
X34442Y112895D01*
X34390Y112865D01*
X34333Y112842D01*
X34253Y112784D01*
X34168Y112734D01*
X34092Y112668D01*
X34076Y112656D01*
X34068Y112646D01*
X34047Y112628D01*
X33689Y112269D01*
X12031Y112269D01*
G37*
%LPD*%
%LPC*%
G36*
X150486Y8159D02*
X150486Y8159D01*
X146950Y9624D01*
X144244Y12330D01*
X142779Y15866D01*
X142779Y34934D01*
X144244Y38470D01*
X146950Y41176D01*
X150486Y42641D01*
X154314Y42641D01*
X157850Y41176D01*
X160556Y38470D01*
X162021Y34934D01*
X162021Y15866D01*
X160556Y12330D01*
X157850Y9624D01*
X154314Y8159D01*
X150486Y8159D01*
G37*
%LPD*%
%LPC*%
G36*
X125086Y8159D02*
X125086Y8159D01*
X121550Y9624D01*
X118844Y12330D01*
X117379Y15866D01*
X117379Y34934D01*
X118844Y38470D01*
X121550Y41176D01*
X125086Y42641D01*
X128914Y42641D01*
X132450Y41176D01*
X135156Y38470D01*
X136621Y34934D01*
X136621Y15866D01*
X135156Y12330D01*
X132450Y9624D01*
X128914Y8159D01*
X125086Y8159D01*
G37*
%LPD*%
%LPC*%
G36*
X99686Y8159D02*
X99686Y8159D01*
X96150Y9624D01*
X93444Y12330D01*
X91979Y15866D01*
X91979Y34934D01*
X93444Y38470D01*
X96150Y41176D01*
X99686Y42641D01*
X103514Y42641D01*
X107050Y41176D01*
X109756Y38470D01*
X111221Y34934D01*
X111221Y15866D01*
X109756Y12330D01*
X107050Y9624D01*
X103514Y8159D01*
X99686Y8159D01*
G37*
%LPD*%
%LPC*%
G36*
X74286Y8159D02*
X74286Y8159D01*
X70750Y9624D01*
X68044Y12330D01*
X66579Y15866D01*
X66579Y34934D01*
X68044Y38470D01*
X70750Y41176D01*
X74286Y42641D01*
X78114Y42641D01*
X81650Y41176D01*
X84356Y38470D01*
X85821Y34934D01*
X85821Y15866D01*
X84356Y12330D01*
X81650Y9624D01*
X78114Y8159D01*
X74286Y8159D01*
G37*
%LPD*%
%LPC*%
G36*
X48886Y8159D02*
X48886Y8159D01*
X45350Y9624D01*
X42644Y12330D01*
X41179Y15866D01*
X41179Y34934D01*
X42644Y38470D01*
X45350Y41176D01*
X48886Y42641D01*
X52714Y42641D01*
X56250Y41176D01*
X58956Y38470D01*
X60421Y34934D01*
X60421Y15866D01*
X58956Y12330D01*
X56250Y9624D01*
X52714Y8159D01*
X48886Y8159D01*
G37*
%LPD*%
%LPC*%
G36*
X199389Y154939D02*
X199389Y154939D01*
X199389Y164847D01*
X207736Y164847D01*
X209671Y164540D01*
X211534Y163935D01*
X213280Y163045D01*
X214864Y161894D01*
X216250Y160508D01*
X217401Y158924D01*
X218291Y157178D01*
X218896Y155315D01*
X218956Y154939D01*
X199389Y154939D01*
G37*
%LPD*%
%LPC*%
G36*
X174744Y154939D02*
X174744Y154939D01*
X174804Y155315D01*
X175409Y157178D01*
X176299Y158924D01*
X177450Y160508D01*
X178836Y161894D01*
X180420Y163045D01*
X182166Y163935D01*
X184029Y164540D01*
X185964Y164847D01*
X194311Y164847D01*
X194311Y154939D01*
X174744Y154939D01*
G37*
%LPD*%
%LPC*%
G36*
X199389Y139953D02*
X199389Y139953D01*
X199389Y149861D01*
X218956Y149861D01*
X218896Y149485D01*
X218291Y147622D01*
X217401Y145876D01*
X216250Y144292D01*
X214864Y142906D01*
X213280Y141755D01*
X211534Y140865D01*
X209671Y140260D01*
X207736Y139953D01*
X199389Y139953D01*
G37*
%LPD*%
%LPC*%
G36*
X185964Y139953D02*
X185964Y139953D01*
X184029Y140260D01*
X182166Y140865D01*
X180420Y141755D01*
X178836Y142906D01*
X177450Y144292D01*
X176299Y145876D01*
X175409Y147622D01*
X174804Y149485D01*
X174744Y149861D01*
X194311Y149861D01*
X194311Y139953D01*
X185964Y139953D01*
G37*
%LPD*%
%LPC*%
G36*
X231139Y27939D02*
X231139Y27939D01*
X231139Y42879D01*
X232500Y42436D01*
X233925Y41710D01*
X235219Y40770D01*
X236350Y39639D01*
X237290Y38345D01*
X238016Y36920D01*
X238511Y35399D01*
X238761Y33820D01*
X238761Y27939D01*
X231139Y27939D01*
G37*
%LPD*%
%LPC*%
G36*
X218439Y27939D02*
X218439Y27939D01*
X218439Y33820D01*
X218689Y35399D01*
X219184Y36920D01*
X219910Y38345D01*
X220850Y39639D01*
X221981Y40770D01*
X223275Y41710D01*
X224700Y42436D01*
X226061Y42879D01*
X226061Y27939D01*
X218439Y27939D01*
G37*
%LPD*%
%LPC*%
G36*
X10319Y129539D02*
X10319Y129539D01*
X10319Y130604D01*
X10492Y131251D01*
X10827Y131830D01*
X11300Y132303D01*
X11879Y132638D01*
X12526Y132811D01*
X21591Y132811D01*
X21591Y129539D01*
X10319Y129539D01*
G37*
%LPD*%
%LPC*%
G36*
X12526Y123729D02*
X12526Y123729D01*
X11879Y123902D01*
X11300Y124237D01*
X10827Y124710D01*
X10492Y125289D01*
X10319Y125936D01*
X10319Y127001D01*
X21591Y127001D01*
X21591Y123729D01*
X12526Y123729D01*
G37*
%LPD*%
%LPC*%
G36*
X217209Y72349D02*
X217209Y72349D01*
X217209Y77391D01*
X222044Y77391D01*
X222691Y77218D01*
X223270Y76883D01*
X223743Y76410D01*
X224078Y75831D01*
X224251Y75184D01*
X224251Y72349D01*
X217209Y72349D01*
G37*
%LPD*%
%LPC*%
G36*
X205169Y72349D02*
X205169Y72349D01*
X205169Y75184D01*
X205342Y75831D01*
X205677Y76410D01*
X206150Y76883D01*
X206729Y77218D01*
X207376Y77391D01*
X212211Y77391D01*
X212211Y72349D01*
X205169Y72349D01*
G37*
%LPD*%
%LPC*%
G36*
X217209Y62309D02*
X217209Y62309D01*
X217209Y67351D01*
X224251Y67351D01*
X224251Y64516D01*
X224078Y63869D01*
X223743Y63290D01*
X223270Y62817D01*
X222691Y62482D01*
X222044Y62309D01*
X217209Y62309D01*
G37*
%LPD*%
%LPC*%
G36*
X207376Y62309D02*
X207376Y62309D01*
X206729Y62482D01*
X206150Y62817D01*
X205677Y63290D01*
X205342Y63869D01*
X205169Y64516D01*
X205169Y67351D01*
X212211Y67351D01*
X212211Y62309D01*
X207376Y62309D01*
G37*
%LPD*%
%LPC*%
G36*
X66834Y112874D02*
X66834Y112874D01*
X66834Y115959D01*
X67007Y116606D01*
X67342Y117185D01*
X67815Y117658D01*
X68394Y117993D01*
X69041Y118166D01*
X71126Y118166D01*
X71126Y112874D01*
X66834Y112874D01*
G37*
%LPD*%
%LPC*%
G36*
X141599Y110434D02*
X141599Y110434D01*
X141599Y115726D01*
X145891Y115726D01*
X145891Y112641D01*
X145718Y111994D01*
X145383Y111415D01*
X144910Y110942D01*
X144331Y110607D01*
X143684Y110434D01*
X141599Y110434D01*
G37*
%LPD*%
%LPC*%
G36*
X69041Y104084D02*
X69041Y104084D01*
X68394Y104257D01*
X67815Y104592D01*
X67342Y105065D01*
X67007Y105644D01*
X66834Y106291D01*
X66834Y109376D01*
X71126Y109376D01*
X71126Y104084D01*
X69041Y104084D01*
G37*
%LPD*%
%LPC*%
G36*
X196849Y152399D02*
X196849Y152399D01*
X196849Y152401D01*
X196851Y152401D01*
X196851Y152399D01*
X196849Y152399D01*
G37*
%LPD*%
D10*
X85875Y111125D03*
X72875Y111125D03*
X126850Y117475D03*
X139850Y117475D03*
D11*
X22860Y116270D03*
X22860Y128270D03*
X22860Y140270D03*
D10*
X101750Y82550D03*
X88750Y82550D03*
X126850Y130175D03*
X139850Y130175D03*
D12*
X190500Y104800D03*
X190500Y123800D03*
D13*
X240150Y101600D02*
X255150Y101600D01*
X255150Y127000D02*
X240150Y127000D01*
D14*
X206756Y152400D02*
X186944Y152400D01*
D15*
X146050Y69850D03*
D16*
X190580Y59690D03*
X190580Y80010D03*
X214710Y69850D03*
D17*
X228600Y33020D02*
X228600Y17780D01*
X203200Y17780D02*
X203200Y33020D01*
X177800Y33020D02*
X177800Y17780D01*
X152400Y17780D02*
X152400Y33020D01*
X127000Y33020D02*
X127000Y17780D01*
X101600Y17780D02*
X101600Y33020D01*
X76200Y33020D02*
X76200Y17780D01*
X50800Y17780D02*
X50800Y33020D01*
D18*
X95750Y126000D03*
X115550Y94905D03*
D19*
X115550Y100709D01*
X95750Y120509D02*
X95750Y126000D01*
X95750Y120509D02*
X115550Y100709D01*
D20*
X193700Y127000D02*
X247650Y127000D01*
X193700Y127000D02*
X190500Y123800D01*
X193700Y101600D02*
X247650Y101600D01*
X193700Y101600D02*
X190500Y104800D01*
D18*
X109200Y116605D03*
X98425Y107950D03*
D19*
X190580Y80010D02*
X190580Y59690D01*
X190580Y38020D02*
X203200Y25400D01*
X190580Y38020D02*
X190580Y59690D01*
X101750Y82550D02*
X101750Y104625D01*
X98425Y107950D01*
X95250Y111125D02*
X85875Y111125D01*
X95250Y111125D02*
X98425Y107950D01*
X110070Y117475D02*
X126850Y117475D01*
X110070Y117475D02*
X109200Y116605D01*
X126850Y117475D02*
X126850Y130175D01*
D18*
X37675Y123660D03*
D19*
X37675Y116270D02*
X22860Y116270D01*
X37675Y116270D02*
X37675Y123660D01*
D18*
X38100Y133350D03*
D19*
X38100Y140270D02*
X22860Y140270D01*
X38100Y140270D02*
X38100Y133350D01*
D18*
X159175Y127325D03*
D19*
X158800Y126950D01*
X177800Y44450D02*
X177800Y25400D01*
X177800Y44450D02*
X165100Y57150D01*
X165100Y120650D01*
X158800Y126950D01*
X155575Y130175D02*
X139850Y130175D01*
X155575Y130175D02*
X158800Y126950D01*
D18*
X86225Y94825D03*
D19*
X86225Y85075D02*
X88750Y82550D01*
X86225Y85075D02*
X86225Y94825D01*
D18*
X146050Y88900D03*
D19*
X146050Y69850D01*
M02*
