M48
;GenerationSoftware,Autodesk,EAGLE,9.0.0*%
;CreationDate,2018-05-02T08:01:06Z*%
FMAT,2
ICI,OFF
METRIC,TZ,000.000
T4C0.350
T3C1.000
T2C1.016
T1C1.321
%
G90
M71
T1
X19685Y15240
T2
X22860Y2540
X20320Y2540
X17780Y2540
X15240Y2540
X12700Y2540
X10160Y2540
X7620Y2540
X5080Y2540
T3
X24765Y10160
X24765Y12700
T4
X9575Y12600
X11555Y9491
X10920Y11660
X9843Y10795
X3767Y12366
X3810Y13335
X15917Y12732
X8623Y9483
X14605Y8890
M30