G04 EAGLE Gerber X2 export*
G75*
%MOMM*%
%FSLAX35Y35*%
%LPD*%
%AMOC8*
5,1,8,0,0,1.08239X$1,22.5*%
G01*
%ADD10C,0.076200*%
%ADD11R,0.903200X1.103200*%
%ADD12R,2.203200X0.603200*%
%ADD13R,1.703200X1.503200*%
%ADD14C,1.703200*%
%ADD15C,2.184400*%
%ADD16C,2.743200*%
%ADD17R,1.603200X1.203200*%
%ADD18C,1.727200*%


D10*
X2413000Y1841500D02*
X381000Y1841500D01*
X0Y1460500D02*
X0Y381000D01*
X381000Y0D02*
X2413000Y0D01*
X2794000Y381000D02*
X2794000Y1460500D01*
X381000Y1841500D02*
X371794Y1841389D01*
X362593Y1841055D01*
X353402Y1840499D01*
X344228Y1839721D01*
X335076Y1838722D01*
X325950Y1837502D01*
X316856Y1836062D01*
X307800Y1834402D01*
X298786Y1832524D01*
X289821Y1830429D01*
X280908Y1828118D01*
X272055Y1825592D01*
X263265Y1822853D01*
X254543Y1819902D01*
X245896Y1816741D01*
X237327Y1813373D01*
X228842Y1809798D01*
X220446Y1806019D01*
X212144Y1802039D01*
X203940Y1797859D01*
X195840Y1793482D01*
X187848Y1788910D01*
X179969Y1784147D01*
X172207Y1779195D01*
X164567Y1774057D01*
X157054Y1768735D01*
X149671Y1763234D01*
X142423Y1757556D01*
X135315Y1751704D01*
X128350Y1745683D01*
X121533Y1739494D01*
X114867Y1733143D01*
X108357Y1726633D01*
X102006Y1719967D01*
X95817Y1713150D01*
X89796Y1706185D01*
X83944Y1699077D01*
X78266Y1691829D01*
X72765Y1684446D01*
X67443Y1676933D01*
X62305Y1669293D01*
X57353Y1661531D01*
X52590Y1653652D01*
X48018Y1645660D01*
X43641Y1637560D01*
X39461Y1629356D01*
X35481Y1621054D01*
X31702Y1612658D01*
X28127Y1604173D01*
X24759Y1595604D01*
X21598Y1586957D01*
X18647Y1578235D01*
X15908Y1569445D01*
X13382Y1560592D01*
X11071Y1551679D01*
X8976Y1542714D01*
X7098Y1533700D01*
X5438Y1524644D01*
X3998Y1515550D01*
X2778Y1506424D01*
X1779Y1497272D01*
X1001Y1488098D01*
X445Y1478907D01*
X111Y1469706D01*
X0Y1460500D01*
X2413000Y1841500D02*
X2422206Y1841389D01*
X2431407Y1841055D01*
X2440598Y1840499D01*
X2449772Y1839721D01*
X2458924Y1838722D01*
X2468050Y1837502D01*
X2477144Y1836062D01*
X2486200Y1834402D01*
X2495214Y1832524D01*
X2504179Y1830429D01*
X2513092Y1828118D01*
X2521945Y1825592D01*
X2530735Y1822853D01*
X2539457Y1819902D01*
X2548104Y1816741D01*
X2556673Y1813373D01*
X2565158Y1809798D01*
X2573554Y1806019D01*
X2581856Y1802039D01*
X2590060Y1797859D01*
X2598160Y1793482D01*
X2606152Y1788910D01*
X2614031Y1784147D01*
X2621793Y1779195D01*
X2629433Y1774057D01*
X2636946Y1768735D01*
X2644329Y1763234D01*
X2651577Y1757556D01*
X2658685Y1751704D01*
X2665650Y1745683D01*
X2672467Y1739494D01*
X2679133Y1733143D01*
X2685643Y1726633D01*
X2691994Y1719967D01*
X2698183Y1713150D01*
X2704204Y1706185D01*
X2710056Y1699077D01*
X2715734Y1691829D01*
X2721235Y1684446D01*
X2726557Y1676933D01*
X2731695Y1669293D01*
X2736647Y1661531D01*
X2741410Y1653652D01*
X2745982Y1645660D01*
X2750359Y1637560D01*
X2754539Y1629356D01*
X2758519Y1621054D01*
X2762298Y1612658D01*
X2765873Y1604173D01*
X2769241Y1595604D01*
X2772402Y1586957D01*
X2775353Y1578235D01*
X2778092Y1569445D01*
X2780618Y1560592D01*
X2782929Y1551679D01*
X2785024Y1542714D01*
X2786902Y1533700D01*
X2788562Y1524644D01*
X2790002Y1515550D01*
X2791222Y1506424D01*
X2792221Y1497272D01*
X2792999Y1488098D01*
X2793555Y1478907D01*
X2793889Y1469706D01*
X2794000Y1460500D01*
X381000Y0D02*
X371794Y111D01*
X362593Y445D01*
X353402Y1001D01*
X344228Y1779D01*
X335076Y2778D01*
X325950Y3998D01*
X316856Y5438D01*
X307800Y7098D01*
X298786Y8976D01*
X289821Y11071D01*
X280908Y13382D01*
X272055Y15908D01*
X263265Y18647D01*
X254543Y21598D01*
X245896Y24759D01*
X237327Y28127D01*
X228842Y31702D01*
X220446Y35481D01*
X212144Y39461D01*
X203940Y43641D01*
X195840Y48018D01*
X187848Y52590D01*
X179969Y57353D01*
X172207Y62305D01*
X164567Y67443D01*
X157054Y72765D01*
X149671Y78266D01*
X142423Y83944D01*
X135315Y89796D01*
X128350Y95817D01*
X121533Y102006D01*
X114867Y108357D01*
X108357Y114867D01*
X102006Y121533D01*
X95817Y128350D01*
X89796Y135315D01*
X83944Y142423D01*
X78266Y149671D01*
X72765Y157054D01*
X67443Y164567D01*
X62305Y172207D01*
X57353Y179969D01*
X52590Y187848D01*
X48018Y195840D01*
X43641Y203940D01*
X39461Y212144D01*
X35481Y220446D01*
X31702Y228842D01*
X28127Y237327D01*
X24759Y245896D01*
X21598Y254543D01*
X18647Y263265D01*
X15908Y272055D01*
X13382Y280908D01*
X11071Y289821D01*
X8976Y298786D01*
X7098Y307800D01*
X5438Y316856D01*
X3998Y325950D01*
X2778Y335076D01*
X1779Y344228D01*
X1001Y353402D01*
X445Y362593D01*
X111Y371794D01*
X0Y381000D01*
X2413000Y0D02*
X2422206Y111D01*
X2431407Y445D01*
X2440598Y1001D01*
X2449772Y1779D01*
X2458924Y2778D01*
X2468050Y3998D01*
X2477144Y5438D01*
X2486200Y7098D01*
X2495214Y8976D01*
X2504179Y11071D01*
X2513092Y13382D01*
X2521945Y15908D01*
X2530735Y18647D01*
X2539457Y21598D01*
X2548104Y24759D01*
X2556673Y28127D01*
X2565158Y31702D01*
X2573554Y35481D01*
X2581856Y39461D01*
X2590060Y43641D01*
X2598160Y48018D01*
X2606152Y52590D01*
X2614031Y57353D01*
X2621793Y62305D01*
X2629433Y67443D01*
X2636946Y72765D01*
X2644329Y78266D01*
X2651577Y83944D01*
X2658685Y89796D01*
X2665650Y95817D01*
X2672467Y102006D01*
X2679133Y108357D01*
X2685643Y114867D01*
X2691994Y121533D01*
X2698183Y128350D01*
X2704204Y135315D01*
X2710056Y142423D01*
X2715734Y149671D01*
X2721235Y157054D01*
X2726557Y164567D01*
X2731695Y172207D01*
X2736647Y179969D01*
X2741410Y187848D01*
X2745982Y195840D01*
X2750359Y203940D01*
X2754539Y212144D01*
X2758519Y220446D01*
X2762298Y228842D01*
X2765873Y237327D01*
X2769241Y245896D01*
X2772402Y254543D01*
X2775353Y263265D01*
X2778092Y272055D01*
X2780618Y280908D01*
X2782929Y289821D01*
X2785024Y298786D01*
X2786902Y307800D01*
X2788562Y316856D01*
X2790002Y325950D01*
X2791222Y335076D01*
X2792221Y344228D01*
X2792999Y353402D01*
X2793555Y362593D01*
X2793889Y371794D01*
X2794000Y381000D01*
D11*
X858750Y1111250D03*
X728750Y1111250D03*
X1268500Y1174750D03*
X1398500Y1174750D03*
D12*
X228600Y1162700D03*
X228600Y1282700D03*
X228600Y1402700D03*
D11*
X1017500Y825500D03*
X887500Y825500D03*
X1268500Y1301750D03*
X1398500Y1301750D03*
D13*
X1905000Y1048000D03*
X1905000Y1238000D03*
D14*
X2401500Y1016000D02*
X2551500Y1016000D01*
X2551500Y1270000D02*
X2401500Y1270000D01*
D15*
X2067560Y1524000D02*
X1869440Y1524000D01*
D16*
X1460500Y698500D03*
D17*
X1905800Y596900D03*
X1905800Y800100D03*
X2147100Y698500D03*
D18*
X2286000Y330200D02*
X2286000Y177800D01*
X2032000Y177800D02*
X2032000Y330200D01*
X1778000Y330200D02*
X1778000Y177800D01*
X1524000Y177800D02*
X1524000Y330200D01*
X1270000Y330200D02*
X1270000Y177800D01*
X1016000Y177800D02*
X1016000Y330200D01*
X762000Y330200D02*
X762000Y177800D01*
X508000Y177800D02*
X508000Y330200D01*
M02*
