G04 EAGLE Gerber X2 export*
G75*
%MOMM*%
%FSLAX35Y35*%
%LPD*%
%AMOC8*
5,1,8,0,0,1.08239X$1,22.5*%
G01*
%ADD10C,0.076200*%
%ADD11C,0.101600*%
%ADD12C,0.300000*%
%ADD13C,0.254000*%
%ADD14C,0.152400*%


D10*
X2359769Y1446060D02*
X2339241Y1446060D01*
X2338745Y1446066D01*
X2338249Y1446084D01*
X2337754Y1446114D01*
X2337260Y1446156D01*
X2336767Y1446210D01*
X2336275Y1446275D01*
X2335785Y1446353D01*
X2335297Y1446442D01*
X2334811Y1446544D01*
X2334328Y1446657D01*
X2333848Y1446781D01*
X2333371Y1446917D01*
X2332897Y1447065D01*
X2332427Y1447224D01*
X2331961Y1447394D01*
X2331500Y1447576D01*
X2331042Y1447768D01*
X2330590Y1447972D01*
X2330143Y1448186D01*
X2329701Y1448411D01*
X2329264Y1448647D01*
X2328834Y1448894D01*
X2328409Y1449150D01*
X2327991Y1449417D01*
X2327579Y1449694D01*
X2327174Y1449981D01*
X2326777Y1450277D01*
X2326386Y1450583D01*
X2326003Y1450898D01*
X2325628Y1451223D01*
X2325260Y1451556D01*
X2324901Y1451898D01*
X2324550Y1452249D01*
X2324208Y1452608D01*
X2323875Y1452976D01*
X2323550Y1453351D01*
X2323235Y1453734D01*
X2322929Y1454125D01*
X2322633Y1454522D01*
X2322346Y1454927D01*
X2322069Y1455339D01*
X2321802Y1455757D01*
X2321546Y1456182D01*
X2321299Y1456612D01*
X2321063Y1457049D01*
X2320838Y1457491D01*
X2320624Y1457938D01*
X2320420Y1458390D01*
X2320228Y1458848D01*
X2320046Y1459309D01*
X2319876Y1459775D01*
X2319717Y1460245D01*
X2319569Y1460719D01*
X2319433Y1461196D01*
X2319309Y1461676D01*
X2319196Y1462159D01*
X2319094Y1462645D01*
X2319005Y1463133D01*
X2318927Y1463623D01*
X2318862Y1464115D01*
X2318808Y1464608D01*
X2318766Y1465102D01*
X2318736Y1465597D01*
X2318718Y1466093D01*
X2318712Y1466589D01*
X2318712Y1517911D01*
X2318718Y1518415D01*
X2318737Y1518918D01*
X2318768Y1519421D01*
X2318811Y1519923D01*
X2318866Y1520424D01*
X2318934Y1520923D01*
X2319014Y1521421D01*
X2319106Y1521916D01*
X2319211Y1522409D01*
X2319327Y1522899D01*
X2319456Y1523386D01*
X2319596Y1523870D01*
X2319748Y1524351D01*
X2319912Y1524827D01*
X2320088Y1525299D01*
X2320275Y1525767D01*
X2320473Y1526230D01*
X2320683Y1526688D01*
X2320904Y1527141D01*
X2321136Y1527588D01*
X2321379Y1528030D01*
X2321633Y1528465D01*
X2321897Y1528894D01*
X2322172Y1529316D01*
X2322457Y1529732D01*
X2322752Y1530140D01*
X2323057Y1530541D01*
X2323372Y1530934D01*
X2323696Y1531320D01*
X2324030Y1531697D01*
X2324373Y1532066D01*
X2324725Y1532427D01*
X2325085Y1532779D01*
X2325454Y1533122D01*
X2325832Y1533456D01*
X2326217Y1533780D01*
X2326611Y1534095D01*
X2327012Y1534400D01*
X2327420Y1534695D01*
X2327836Y1534980D01*
X2328258Y1535255D01*
X2328687Y1535519D01*
X2329122Y1535773D01*
X2329564Y1536016D01*
X2330011Y1536248D01*
X2330464Y1536469D01*
X2330922Y1536679D01*
X2331385Y1536877D01*
X2331852Y1537064D01*
X2332325Y1537240D01*
X2332801Y1537404D01*
X2333282Y1537556D01*
X2333765Y1537696D01*
X2334253Y1537825D01*
X2334743Y1537941D01*
X2335236Y1538045D01*
X2335731Y1538138D01*
X2336228Y1538218D01*
X2336728Y1538286D01*
X2337229Y1538341D01*
X2337730Y1538384D01*
X2338233Y1538415D01*
X2338737Y1538434D01*
X2339241Y1538440D01*
X2359769Y1538440D01*
X2419628Y1538440D02*
X2388834Y1446060D01*
X2450421Y1446060D02*
X2419628Y1538440D01*
X2442723Y1469155D02*
X2396533Y1469155D01*
X2486966Y1446060D02*
X2486966Y1538440D01*
X2538288Y1446060D01*
X2538288Y1538440D01*
X2582966Y1538440D02*
X2582966Y1446060D01*
X2582966Y1497382D02*
X2634288Y1497382D01*
X2634288Y1538440D02*
X2634288Y1446060D01*
X2364815Y747560D02*
X2344286Y747560D01*
X2343790Y747566D01*
X2343294Y747584D01*
X2342799Y747614D01*
X2342305Y747656D01*
X2341812Y747710D01*
X2341320Y747775D01*
X2340830Y747853D01*
X2340342Y747942D01*
X2339856Y748044D01*
X2339373Y748157D01*
X2338893Y748281D01*
X2338416Y748417D01*
X2337942Y748565D01*
X2337472Y748724D01*
X2337006Y748894D01*
X2336545Y749076D01*
X2336087Y749268D01*
X2335635Y749472D01*
X2335188Y749686D01*
X2334746Y749911D01*
X2334309Y750147D01*
X2333879Y750394D01*
X2333454Y750650D01*
X2333036Y750917D01*
X2332624Y751194D01*
X2332219Y751481D01*
X2331822Y751777D01*
X2331431Y752083D01*
X2331048Y752398D01*
X2330673Y752723D01*
X2330305Y753056D01*
X2329946Y753398D01*
X2329595Y753749D01*
X2329253Y754108D01*
X2328920Y754476D01*
X2328595Y754851D01*
X2328280Y755234D01*
X2327974Y755625D01*
X2327678Y756022D01*
X2327391Y756427D01*
X2327114Y756839D01*
X2326847Y757257D01*
X2326591Y757682D01*
X2326344Y758112D01*
X2326108Y758549D01*
X2325883Y758991D01*
X2325669Y759438D01*
X2325465Y759890D01*
X2325273Y760348D01*
X2325091Y760809D01*
X2324921Y761275D01*
X2324762Y761745D01*
X2324614Y762219D01*
X2324478Y762696D01*
X2324354Y763176D01*
X2324241Y763659D01*
X2324139Y764145D01*
X2324050Y764633D01*
X2323972Y765123D01*
X2323907Y765615D01*
X2323853Y766108D01*
X2323811Y766602D01*
X2323781Y767097D01*
X2323763Y767593D01*
X2323757Y768089D01*
X2323757Y819411D01*
X2323763Y819915D01*
X2323782Y820418D01*
X2323813Y820921D01*
X2323856Y821423D01*
X2323911Y821924D01*
X2323979Y822423D01*
X2324059Y822921D01*
X2324151Y823416D01*
X2324256Y823909D01*
X2324372Y824399D01*
X2324501Y824886D01*
X2324641Y825370D01*
X2324793Y825851D01*
X2324957Y826327D01*
X2325133Y826799D01*
X2325320Y827267D01*
X2325518Y827730D01*
X2325728Y828188D01*
X2325949Y828641D01*
X2326181Y829088D01*
X2326424Y829530D01*
X2326678Y829965D01*
X2326942Y830394D01*
X2327217Y830816D01*
X2327502Y831232D01*
X2327797Y831640D01*
X2328102Y832041D01*
X2328417Y832434D01*
X2328741Y832820D01*
X2329075Y833197D01*
X2329418Y833566D01*
X2329770Y833927D01*
X2330130Y834279D01*
X2330499Y834622D01*
X2330877Y834956D01*
X2331262Y835280D01*
X2331656Y835595D01*
X2332057Y835900D01*
X2332465Y836195D01*
X2332881Y836480D01*
X2333303Y836755D01*
X2333732Y837019D01*
X2334167Y837273D01*
X2334609Y837516D01*
X2335056Y837748D01*
X2335509Y837969D01*
X2335967Y838179D01*
X2336430Y838377D01*
X2336897Y838564D01*
X2337370Y838740D01*
X2337846Y838904D01*
X2338327Y839056D01*
X2338810Y839196D01*
X2339298Y839325D01*
X2339788Y839441D01*
X2340281Y839545D01*
X2340776Y839638D01*
X2341273Y839718D01*
X2341773Y839786D01*
X2342274Y839841D01*
X2342775Y839884D01*
X2343278Y839915D01*
X2343782Y839934D01*
X2344286Y839940D01*
X2364815Y839940D01*
X2424673Y839940D02*
X2393880Y747560D01*
X2455466Y747560D02*
X2424673Y839940D01*
X2447768Y770655D02*
X2401578Y770655D01*
X2492012Y747560D02*
X2492012Y839940D01*
X2543334Y747560D01*
X2543334Y839940D01*
X2588185Y839940D02*
X2588185Y747560D01*
X2629243Y747560D01*
X193440Y270275D02*
X101060Y270275D01*
X152383Y301068D01*
X101060Y331861D01*
X193440Y331861D01*
X193440Y394680D02*
X193440Y415209D01*
X193440Y394680D02*
X193434Y394184D01*
X193416Y393688D01*
X193386Y393193D01*
X193344Y392699D01*
X193290Y392206D01*
X193225Y391714D01*
X193147Y391224D01*
X193058Y390736D01*
X192956Y390250D01*
X192843Y389767D01*
X192719Y389287D01*
X192583Y388810D01*
X192435Y388336D01*
X192276Y387866D01*
X192106Y387400D01*
X191924Y386939D01*
X191732Y386481D01*
X191528Y386029D01*
X191314Y385582D01*
X191089Y385140D01*
X190853Y384703D01*
X190606Y384273D01*
X190350Y383848D01*
X190083Y383430D01*
X189806Y383018D01*
X189519Y382613D01*
X189223Y382216D01*
X188917Y381825D01*
X188602Y381442D01*
X188277Y381067D01*
X187944Y380699D01*
X187602Y380340D01*
X187251Y379989D01*
X186892Y379647D01*
X186524Y379314D01*
X186149Y378989D01*
X185766Y378674D01*
X185375Y378368D01*
X184978Y378072D01*
X184573Y377785D01*
X184161Y377508D01*
X183743Y377241D01*
X183318Y376985D01*
X182888Y376738D01*
X182451Y376502D01*
X182009Y376277D01*
X181562Y376063D01*
X181110Y375859D01*
X180652Y375667D01*
X180191Y375485D01*
X179725Y375315D01*
X179255Y375156D01*
X178781Y375008D01*
X178304Y374872D01*
X177824Y374748D01*
X177341Y374635D01*
X176855Y374533D01*
X176367Y374444D01*
X175877Y374366D01*
X175385Y374301D01*
X174892Y374247D01*
X174398Y374205D01*
X173903Y374175D01*
X173407Y374157D01*
X172911Y374151D01*
X172911Y374152D02*
X121589Y374152D01*
X121085Y374158D01*
X120582Y374177D01*
X120079Y374208D01*
X119577Y374251D01*
X119076Y374306D01*
X118577Y374374D01*
X118079Y374454D01*
X117584Y374546D01*
X117091Y374651D01*
X116601Y374767D01*
X116114Y374896D01*
X115630Y375036D01*
X115150Y375188D01*
X114673Y375352D01*
X114201Y375528D01*
X113733Y375715D01*
X113270Y375913D01*
X112812Y376123D01*
X112359Y376344D01*
X111912Y376576D01*
X111470Y376819D01*
X111035Y377073D01*
X110606Y377337D01*
X110184Y377612D01*
X109768Y377897D01*
X109360Y378192D01*
X108959Y378497D01*
X108566Y378812D01*
X108180Y379136D01*
X107803Y379470D01*
X107434Y379813D01*
X107073Y380165D01*
X106721Y380525D01*
X106378Y380894D01*
X106044Y381272D01*
X105720Y381657D01*
X105405Y382051D01*
X105100Y382452D01*
X104805Y382860D01*
X104520Y383275D01*
X104245Y383698D01*
X103981Y384127D01*
X103727Y384562D01*
X103484Y385003D01*
X103252Y385451D01*
X103031Y385903D01*
X102821Y386361D01*
X102623Y386824D01*
X102436Y387292D01*
X102260Y387765D01*
X102096Y388241D01*
X101944Y388721D01*
X101804Y389205D01*
X101675Y389692D01*
X101559Y390183D01*
X101455Y390675D01*
X101362Y391171D01*
X101282Y391668D01*
X101214Y392167D01*
X101159Y392668D01*
X101116Y393170D01*
X101085Y393673D01*
X101066Y394177D01*
X101060Y394680D01*
X101060Y415209D01*
X101060Y453708D02*
X193440Y453708D01*
X101060Y453708D02*
X101060Y479369D01*
X101068Y479994D01*
X101090Y480618D01*
X101128Y481242D01*
X101182Y481865D01*
X101250Y482486D01*
X101333Y483105D01*
X101432Y483722D01*
X101545Y484337D01*
X101674Y484948D01*
X101817Y485557D01*
X101975Y486161D01*
X102148Y486762D01*
X102335Y487358D01*
X102537Y487950D01*
X102753Y488536D01*
X102984Y489117D01*
X103228Y489692D01*
X103486Y490261D01*
X103758Y490824D01*
X104044Y491379D01*
X104343Y491928D01*
X104656Y492469D01*
X104981Y493003D01*
X105320Y493528D01*
X105671Y494045D01*
X106035Y494553D01*
X106410Y495052D01*
X106798Y495542D01*
X107198Y496023D01*
X107609Y496493D01*
X108032Y496953D01*
X108466Y497403D01*
X108910Y497842D01*
X109365Y498271D01*
X109831Y498688D01*
X110306Y499093D01*
X110792Y499487D01*
X111286Y499869D01*
X111790Y500239D01*
X112303Y500596D01*
X112824Y500941D01*
X113353Y501273D01*
X113891Y501592D01*
X114435Y501898D01*
X114988Y502190D01*
X115547Y502469D01*
X116113Y502735D01*
X116685Y502986D01*
X117263Y503223D01*
X117847Y503447D01*
X118436Y503656D01*
X119029Y503850D01*
X119628Y504030D01*
X120230Y504196D01*
X120837Y504346D01*
X121447Y504482D01*
X122060Y504603D01*
X122676Y504709D01*
X123294Y504800D01*
X123914Y504876D01*
X124536Y504937D01*
X125160Y504982D01*
X125784Y505013D01*
X126409Y505028D01*
X127033Y505028D01*
X127658Y505013D01*
X128282Y504982D01*
X128906Y504937D01*
X129528Y504876D01*
X130148Y504800D01*
X130766Y504709D01*
X131382Y504603D01*
X131995Y504482D01*
X132605Y504346D01*
X133212Y504196D01*
X133814Y504030D01*
X134413Y503850D01*
X135006Y503656D01*
X135595Y503447D01*
X136179Y503223D01*
X136757Y502986D01*
X137329Y502735D01*
X137895Y502469D01*
X138454Y502190D01*
X139007Y501898D01*
X139552Y501592D01*
X140089Y501273D01*
X140618Y500941D01*
X141139Y500596D01*
X141652Y500239D01*
X142156Y499869D01*
X142650Y499487D01*
X143136Y499093D01*
X143611Y498688D01*
X144077Y498271D01*
X144532Y497842D01*
X144976Y497403D01*
X145410Y496953D01*
X145833Y496493D01*
X146244Y496023D01*
X146644Y495542D01*
X147032Y495052D01*
X147407Y494553D01*
X147771Y494045D01*
X148122Y493528D01*
X148461Y493003D01*
X148786Y492469D01*
X149099Y491928D01*
X149398Y491379D01*
X149684Y490824D01*
X149956Y490261D01*
X150214Y489692D01*
X150458Y489117D01*
X150689Y488536D01*
X150905Y487950D01*
X151107Y487358D01*
X151294Y486762D01*
X151467Y486161D01*
X151625Y485557D01*
X151768Y484948D01*
X151897Y484337D01*
X152010Y483722D01*
X152109Y483105D01*
X152192Y482486D01*
X152260Y481865D01*
X152314Y481242D01*
X152352Y480618D01*
X152374Y479994D01*
X152382Y479369D01*
X152383Y479369D02*
X152383Y453708D01*
X101059Y567634D02*
X101066Y568200D01*
X101087Y568767D01*
X101122Y569333D01*
X101170Y569897D01*
X101233Y570461D01*
X101309Y571022D01*
X101399Y571582D01*
X101503Y572139D01*
X101620Y572694D01*
X101751Y573245D01*
X101896Y573793D01*
X102054Y574338D01*
X102225Y574878D01*
X102409Y575414D01*
X102607Y575946D01*
X102817Y576472D01*
X103041Y576993D01*
X103277Y577508D01*
X103525Y578018D01*
X103786Y578521D01*
X104060Y579017D01*
X104345Y579507D01*
X104642Y579990D01*
X104952Y580465D01*
X105272Y580932D01*
X105604Y581392D01*
X105948Y581843D01*
X106302Y582285D01*
X106667Y582719D01*
X107042Y583144D01*
X107428Y583559D01*
X107824Y583965D01*
X108230Y584360D01*
X108645Y584746D01*
X109070Y585122D01*
X109503Y585487D01*
X109946Y585841D01*
X110397Y586184D01*
X110856Y586516D01*
X111324Y586837D01*
X111799Y587146D01*
X112281Y587443D01*
X112771Y587729D01*
X113268Y588002D01*
X113771Y588263D01*
X114280Y588512D01*
X114796Y588748D01*
X115317Y588971D01*
X115843Y589181D01*
X116374Y589379D01*
X116910Y589563D01*
X117451Y589735D01*
X117995Y589892D01*
X118543Y590037D01*
X119095Y590168D01*
X119649Y590285D01*
X120207Y590389D01*
X120766Y590479D01*
X121328Y590555D01*
X121891Y590618D01*
X122456Y590666D01*
X123022Y590701D01*
X123588Y590722D01*
X124155Y590729D01*
X101060Y567633D02*
X101069Y566915D01*
X101095Y566198D01*
X101138Y565482D01*
X101199Y564767D01*
X101277Y564054D01*
X101372Y563343D01*
X101484Y562634D01*
X101613Y561928D01*
X101760Y561226D01*
X101923Y560527D01*
X102104Y559832D01*
X102301Y559142D01*
X102514Y558457D01*
X102744Y557778D01*
X102991Y557104D01*
X103253Y556436D01*
X103532Y555775D01*
X103827Y555121D01*
X104137Y554474D01*
X104463Y553835D01*
X104805Y553203D01*
X105161Y552581D01*
X105533Y551967D01*
X105919Y551362D01*
X106320Y550767D01*
X106735Y550181D01*
X107164Y549606D01*
X107606Y549042D01*
X108063Y548488D01*
X108532Y547945D01*
X109015Y547414D01*
X109510Y546895D01*
X110018Y546388D01*
X110538Y545893D01*
X111069Y545412D01*
X111613Y544943D01*
X112167Y544487D01*
X112732Y544045D01*
X113308Y543616D01*
X113894Y543202D01*
X114489Y542802D01*
X115094Y542417D01*
X115709Y542046D01*
X116332Y541690D01*
X116964Y541350D01*
X117603Y541024D01*
X118251Y540715D01*
X118905Y540421D01*
X119567Y540143D01*
X120235Y539881D01*
X120909Y539635D01*
X121589Y539406D01*
X142118Y583030D02*
X141692Y583465D01*
X141257Y583890D01*
X140811Y584304D01*
X140355Y584708D01*
X139889Y585099D01*
X139414Y585480D01*
X138929Y585848D01*
X138436Y586205D01*
X137934Y586549D01*
X137424Y586881D01*
X136905Y587200D01*
X136379Y587507D01*
X135846Y587800D01*
X135306Y588080D01*
X134759Y588347D01*
X134205Y588601D01*
X133646Y588840D01*
X133081Y589066D01*
X132510Y589279D01*
X131935Y589476D01*
X131354Y589660D01*
X130770Y589830D01*
X130181Y589985D01*
X129589Y590126D01*
X128993Y590252D01*
X128395Y590363D01*
X127794Y590460D01*
X127191Y590542D01*
X126586Y590609D01*
X125979Y590661D01*
X125372Y590698D01*
X124764Y590721D01*
X124155Y590728D01*
X142118Y583030D02*
X193440Y539406D01*
X193440Y590728D01*
X193440Y629406D02*
X193440Y660199D01*
X193434Y660695D01*
X193416Y661191D01*
X193386Y661686D01*
X193344Y662180D01*
X193290Y662673D01*
X193225Y663165D01*
X193147Y663655D01*
X193058Y664143D01*
X192956Y664629D01*
X192843Y665112D01*
X192719Y665592D01*
X192583Y666069D01*
X192435Y666543D01*
X192276Y667013D01*
X192106Y667479D01*
X191924Y667940D01*
X191732Y668398D01*
X191528Y668850D01*
X191314Y669297D01*
X191089Y669739D01*
X190853Y670176D01*
X190606Y670606D01*
X190350Y671031D01*
X190083Y671449D01*
X189806Y671861D01*
X189519Y672266D01*
X189223Y672663D01*
X188917Y673054D01*
X188602Y673437D01*
X188277Y673812D01*
X187944Y674180D01*
X187602Y674539D01*
X187251Y674890D01*
X186892Y675232D01*
X186524Y675565D01*
X186149Y675890D01*
X185766Y676205D01*
X185375Y676511D01*
X184978Y676807D01*
X184573Y677094D01*
X184161Y677371D01*
X183743Y677638D01*
X183318Y677894D01*
X182888Y678141D01*
X182451Y678377D01*
X182009Y678602D01*
X181562Y678816D01*
X181110Y679020D01*
X180652Y679212D01*
X180191Y679394D01*
X179725Y679564D01*
X179255Y679723D01*
X178781Y679871D01*
X178304Y680007D01*
X177824Y680131D01*
X177341Y680244D01*
X176855Y680346D01*
X176367Y680435D01*
X175877Y680513D01*
X175385Y680578D01*
X174892Y680632D01*
X174398Y680674D01*
X173903Y680704D01*
X173407Y680722D01*
X172911Y680728D01*
X162647Y680728D01*
X162647Y680727D02*
X162143Y680721D01*
X161640Y680702D01*
X161137Y680671D01*
X160635Y680628D01*
X160134Y680573D01*
X159635Y680505D01*
X159137Y680425D01*
X158642Y680333D01*
X158149Y680228D01*
X157659Y680112D01*
X157172Y679983D01*
X156688Y679843D01*
X156207Y679691D01*
X155731Y679527D01*
X155259Y679351D01*
X154791Y679164D01*
X154328Y678966D01*
X153870Y678756D01*
X153417Y678535D01*
X152970Y678303D01*
X152528Y678060D01*
X152093Y677806D01*
X151664Y677542D01*
X151242Y677267D01*
X150826Y676982D01*
X150418Y676687D01*
X150017Y676382D01*
X149624Y676067D01*
X149238Y675743D01*
X148861Y675409D01*
X148492Y675066D01*
X148131Y674714D01*
X147779Y674354D01*
X147436Y673985D01*
X147102Y673607D01*
X146778Y673222D01*
X146463Y672828D01*
X146158Y672427D01*
X145863Y672019D01*
X145578Y671603D01*
X145303Y671181D01*
X145039Y670752D01*
X144785Y670317D01*
X144542Y669875D01*
X144310Y669428D01*
X144089Y668975D01*
X143879Y668517D01*
X143681Y668054D01*
X143494Y667587D01*
X143318Y667114D01*
X143154Y666638D01*
X143002Y666157D01*
X142862Y665674D01*
X142733Y665186D01*
X142617Y664696D01*
X142513Y664203D01*
X142420Y663708D01*
X142340Y663211D01*
X142272Y662711D01*
X142217Y662210D01*
X142174Y661709D01*
X142143Y661206D01*
X142124Y660702D01*
X142118Y660198D01*
X142118Y660199D02*
X142118Y629406D01*
X101060Y629406D01*
X101060Y680728D01*
X121589Y719405D02*
X101060Y745066D01*
X193440Y745066D01*
X193440Y719405D02*
X193440Y770728D01*
X193440Y809405D02*
X193440Y840198D01*
X193434Y840694D01*
X193416Y841190D01*
X193386Y841685D01*
X193344Y842179D01*
X193290Y842672D01*
X193225Y843164D01*
X193147Y843654D01*
X193058Y844142D01*
X192956Y844628D01*
X192843Y845111D01*
X192719Y845591D01*
X192583Y846068D01*
X192435Y846542D01*
X192276Y847012D01*
X192106Y847478D01*
X191924Y847939D01*
X191732Y848397D01*
X191528Y848849D01*
X191314Y849296D01*
X191089Y849738D01*
X190853Y850175D01*
X190606Y850605D01*
X190350Y851030D01*
X190083Y851448D01*
X189806Y851860D01*
X189519Y852265D01*
X189223Y852662D01*
X188917Y853053D01*
X188602Y853436D01*
X188277Y853811D01*
X187944Y854179D01*
X187602Y854538D01*
X187251Y854889D01*
X186892Y855231D01*
X186524Y855564D01*
X186149Y855889D01*
X185766Y856204D01*
X185375Y856510D01*
X184978Y856806D01*
X184573Y857093D01*
X184161Y857370D01*
X183743Y857637D01*
X183318Y857893D01*
X182888Y858140D01*
X182451Y858376D01*
X182009Y858601D01*
X181562Y858815D01*
X181110Y859019D01*
X180652Y859211D01*
X180191Y859393D01*
X179725Y859563D01*
X179255Y859722D01*
X178781Y859870D01*
X178304Y860006D01*
X177824Y860130D01*
X177341Y860243D01*
X176855Y860345D01*
X176367Y860434D01*
X175877Y860512D01*
X175385Y860577D01*
X174892Y860631D01*
X174398Y860673D01*
X173903Y860703D01*
X173407Y860721D01*
X172911Y860727D01*
X162647Y860727D01*
X162143Y860721D01*
X161640Y860702D01*
X161137Y860671D01*
X160635Y860628D01*
X160134Y860573D01*
X159635Y860505D01*
X159137Y860425D01*
X158642Y860333D01*
X158149Y860228D01*
X157659Y860112D01*
X157172Y859983D01*
X156688Y859843D01*
X156207Y859691D01*
X155731Y859527D01*
X155259Y859351D01*
X154791Y859164D01*
X154328Y858966D01*
X153870Y858756D01*
X153417Y858535D01*
X152970Y858303D01*
X152528Y858060D01*
X152093Y857806D01*
X151664Y857542D01*
X151242Y857267D01*
X150826Y856982D01*
X150418Y856687D01*
X150017Y856382D01*
X149624Y856067D01*
X149238Y855743D01*
X148861Y855409D01*
X148492Y855066D01*
X148131Y854714D01*
X147779Y854354D01*
X147436Y853985D01*
X147102Y853607D01*
X146778Y853222D01*
X146463Y852828D01*
X146158Y852427D01*
X145863Y852019D01*
X145578Y851603D01*
X145303Y851181D01*
X145039Y850752D01*
X144785Y850317D01*
X144542Y849875D01*
X144310Y849428D01*
X144089Y848975D01*
X143879Y848517D01*
X143681Y848054D01*
X143494Y847587D01*
X143318Y847114D01*
X143154Y846638D01*
X143002Y846157D01*
X142862Y845674D01*
X142733Y845186D01*
X142617Y844696D01*
X142513Y844203D01*
X142420Y843708D01*
X142340Y843211D01*
X142272Y842711D01*
X142217Y842210D01*
X142174Y841709D01*
X142143Y841206D01*
X142124Y840702D01*
X142118Y840198D01*
X142118Y809405D01*
X101060Y809405D01*
X101060Y860727D01*
X90796Y984595D02*
X203704Y943537D01*
X101059Y1095632D02*
X101066Y1096198D01*
X101087Y1096765D01*
X101122Y1097331D01*
X101170Y1097895D01*
X101233Y1098459D01*
X101309Y1099020D01*
X101399Y1099580D01*
X101503Y1100137D01*
X101620Y1100692D01*
X101751Y1101243D01*
X101896Y1101791D01*
X102054Y1102336D01*
X102225Y1102876D01*
X102409Y1103412D01*
X102607Y1103944D01*
X102817Y1104470D01*
X103041Y1104991D01*
X103277Y1105506D01*
X103525Y1106016D01*
X103786Y1106519D01*
X104060Y1107015D01*
X104345Y1107505D01*
X104642Y1107988D01*
X104952Y1108463D01*
X105272Y1108930D01*
X105604Y1109390D01*
X105948Y1109841D01*
X106302Y1110283D01*
X106667Y1110717D01*
X107042Y1111142D01*
X107428Y1111557D01*
X107824Y1111963D01*
X108230Y1112358D01*
X108645Y1112744D01*
X109070Y1113120D01*
X109503Y1113485D01*
X109946Y1113839D01*
X110397Y1114182D01*
X110856Y1114514D01*
X111324Y1114835D01*
X111799Y1115144D01*
X112281Y1115441D01*
X112771Y1115727D01*
X113268Y1116000D01*
X113771Y1116261D01*
X114280Y1116510D01*
X114796Y1116746D01*
X115317Y1116969D01*
X115843Y1117179D01*
X116374Y1117377D01*
X116910Y1117561D01*
X117451Y1117733D01*
X117995Y1117890D01*
X118543Y1118035D01*
X119095Y1118166D01*
X119649Y1118283D01*
X120207Y1118387D01*
X120766Y1118477D01*
X121328Y1118553D01*
X121891Y1118616D01*
X122456Y1118664D01*
X123022Y1118699D01*
X123588Y1118720D01*
X124155Y1118727D01*
X101060Y1095632D02*
X101069Y1094914D01*
X101095Y1094197D01*
X101138Y1093481D01*
X101199Y1092766D01*
X101277Y1092053D01*
X101372Y1091342D01*
X101484Y1090633D01*
X101613Y1089927D01*
X101760Y1089225D01*
X101923Y1088526D01*
X102104Y1087831D01*
X102301Y1087141D01*
X102514Y1086456D01*
X102744Y1085777D01*
X102991Y1085103D01*
X103253Y1084435D01*
X103532Y1083774D01*
X103827Y1083120D01*
X104137Y1082473D01*
X104463Y1081834D01*
X104805Y1081202D01*
X105161Y1080580D01*
X105533Y1079966D01*
X105919Y1079361D01*
X106320Y1078766D01*
X106735Y1078180D01*
X107164Y1077605D01*
X107606Y1077041D01*
X108063Y1076487D01*
X108532Y1075944D01*
X109015Y1075413D01*
X109510Y1074894D01*
X110018Y1074387D01*
X110538Y1073892D01*
X111069Y1073411D01*
X111613Y1072942D01*
X112167Y1072486D01*
X112732Y1072044D01*
X113308Y1071615D01*
X113894Y1071201D01*
X114489Y1070801D01*
X115094Y1070416D01*
X115709Y1070045D01*
X116332Y1069689D01*
X116964Y1069349D01*
X117603Y1069023D01*
X118251Y1068714D01*
X118905Y1068420D01*
X119567Y1068142D01*
X120235Y1067880D01*
X120909Y1067634D01*
X121589Y1067405D01*
X142118Y1111029D02*
X141692Y1111464D01*
X141257Y1111889D01*
X140811Y1112303D01*
X140355Y1112707D01*
X139889Y1113098D01*
X139414Y1113479D01*
X138929Y1113847D01*
X138436Y1114204D01*
X137934Y1114548D01*
X137424Y1114880D01*
X136905Y1115199D01*
X136379Y1115506D01*
X135846Y1115799D01*
X135306Y1116079D01*
X134759Y1116346D01*
X134205Y1116600D01*
X133646Y1116839D01*
X133081Y1117065D01*
X132510Y1117278D01*
X131935Y1117475D01*
X131354Y1117659D01*
X130770Y1117829D01*
X130181Y1117984D01*
X129589Y1118125D01*
X128993Y1118251D01*
X128395Y1118362D01*
X127794Y1118459D01*
X127191Y1118541D01*
X126586Y1118608D01*
X125979Y1118660D01*
X125372Y1118697D01*
X124764Y1118720D01*
X124155Y1118727D01*
X142118Y1111028D02*
X193440Y1067405D01*
X193440Y1118727D01*
X193440Y1157404D02*
X193440Y1188198D01*
X193434Y1188694D01*
X193416Y1189190D01*
X193386Y1189685D01*
X193344Y1190179D01*
X193290Y1190672D01*
X193225Y1191164D01*
X193147Y1191654D01*
X193058Y1192142D01*
X192956Y1192628D01*
X192843Y1193111D01*
X192719Y1193591D01*
X192583Y1194068D01*
X192435Y1194542D01*
X192276Y1195012D01*
X192106Y1195478D01*
X191924Y1195939D01*
X191732Y1196397D01*
X191528Y1196849D01*
X191314Y1197296D01*
X191089Y1197738D01*
X190853Y1198175D01*
X190606Y1198605D01*
X190350Y1199030D01*
X190083Y1199448D01*
X189806Y1199860D01*
X189519Y1200265D01*
X189223Y1200662D01*
X188917Y1201053D01*
X188602Y1201436D01*
X188277Y1201811D01*
X187944Y1202179D01*
X187602Y1202538D01*
X187251Y1202889D01*
X186892Y1203231D01*
X186524Y1203564D01*
X186149Y1203889D01*
X185766Y1204204D01*
X185375Y1204510D01*
X184978Y1204806D01*
X184573Y1205093D01*
X184161Y1205370D01*
X183743Y1205637D01*
X183318Y1205893D01*
X182888Y1206140D01*
X182451Y1206376D01*
X182009Y1206601D01*
X181562Y1206815D01*
X181110Y1207019D01*
X180652Y1207211D01*
X180191Y1207393D01*
X179725Y1207563D01*
X179255Y1207722D01*
X178781Y1207870D01*
X178304Y1208006D01*
X177824Y1208130D01*
X177341Y1208243D01*
X176855Y1208345D01*
X176367Y1208434D01*
X175877Y1208512D01*
X175385Y1208577D01*
X174892Y1208631D01*
X174398Y1208673D01*
X173903Y1208703D01*
X173407Y1208721D01*
X172911Y1208727D01*
X162647Y1208727D01*
X162647Y1208726D02*
X162143Y1208720D01*
X161640Y1208701D01*
X161137Y1208670D01*
X160635Y1208627D01*
X160134Y1208572D01*
X159635Y1208504D01*
X159137Y1208424D01*
X158642Y1208332D01*
X158149Y1208227D01*
X157659Y1208111D01*
X157172Y1207982D01*
X156688Y1207842D01*
X156207Y1207690D01*
X155731Y1207526D01*
X155259Y1207350D01*
X154791Y1207163D01*
X154328Y1206965D01*
X153870Y1206755D01*
X153417Y1206534D01*
X152970Y1206302D01*
X152528Y1206059D01*
X152093Y1205805D01*
X151664Y1205541D01*
X151242Y1205266D01*
X150826Y1204981D01*
X150418Y1204686D01*
X150017Y1204381D01*
X149624Y1204066D01*
X149238Y1203742D01*
X148861Y1203408D01*
X148492Y1203065D01*
X148131Y1202713D01*
X147779Y1202353D01*
X147436Y1201984D01*
X147102Y1201606D01*
X146778Y1201221D01*
X146463Y1200827D01*
X146158Y1200426D01*
X145863Y1200018D01*
X145578Y1199602D01*
X145303Y1199180D01*
X145039Y1198751D01*
X144785Y1198316D01*
X144542Y1197874D01*
X144310Y1197427D01*
X144089Y1196974D01*
X143879Y1196516D01*
X143681Y1196053D01*
X143494Y1195586D01*
X143318Y1195113D01*
X143154Y1194637D01*
X143002Y1194156D01*
X142862Y1193673D01*
X142733Y1193185D01*
X142617Y1192695D01*
X142513Y1192202D01*
X142420Y1191707D01*
X142340Y1191210D01*
X142272Y1190710D01*
X142217Y1190209D01*
X142174Y1189708D01*
X142143Y1189205D01*
X142124Y1188701D01*
X142118Y1188197D01*
X142118Y1188198D02*
X142118Y1157404D01*
X101060Y1157404D01*
X101060Y1208727D01*
X142118Y1247404D02*
X142118Y1278197D01*
X142124Y1278693D01*
X142142Y1279189D01*
X142172Y1279684D01*
X142214Y1280178D01*
X142268Y1280672D01*
X142333Y1281163D01*
X142411Y1281653D01*
X142500Y1282141D01*
X142602Y1282627D01*
X142715Y1283110D01*
X142839Y1283590D01*
X142975Y1284067D01*
X143123Y1284541D01*
X143282Y1285011D01*
X143452Y1285477D01*
X143634Y1285938D01*
X143826Y1286396D01*
X144030Y1286848D01*
X144244Y1287295D01*
X144470Y1287737D01*
X144705Y1288174D01*
X144952Y1288604D01*
X145208Y1289029D01*
X145475Y1289447D01*
X145752Y1289859D01*
X146039Y1290264D01*
X146335Y1290662D01*
X146641Y1291052D01*
X146956Y1291435D01*
X147281Y1291810D01*
X147614Y1292178D01*
X147957Y1292537D01*
X148307Y1292888D01*
X148667Y1293230D01*
X149034Y1293563D01*
X149409Y1293888D01*
X149792Y1294203D01*
X150183Y1294509D01*
X150581Y1294805D01*
X150985Y1295092D01*
X151397Y1295369D01*
X151815Y1295636D01*
X152240Y1295892D01*
X152670Y1296139D01*
X153107Y1296375D01*
X153549Y1296600D01*
X153996Y1296814D01*
X154449Y1297018D01*
X154906Y1297211D01*
X155368Y1297392D01*
X155833Y1297562D01*
X156303Y1297721D01*
X156777Y1297869D01*
X157254Y1298005D01*
X157734Y1298130D01*
X158217Y1298242D01*
X158703Y1298344D01*
X159191Y1298433D01*
X159681Y1298511D01*
X160173Y1298576D01*
X160666Y1298630D01*
X161160Y1298672D01*
X161655Y1298702D01*
X162151Y1298720D01*
X162647Y1298726D01*
X167779Y1298726D01*
X168404Y1298718D01*
X169028Y1298696D01*
X169652Y1298658D01*
X170275Y1298604D01*
X170896Y1298536D01*
X171515Y1298453D01*
X172132Y1298354D01*
X172747Y1298241D01*
X173358Y1298112D01*
X173967Y1297969D01*
X174571Y1297811D01*
X175172Y1297638D01*
X175768Y1297451D01*
X176360Y1297249D01*
X176946Y1297033D01*
X177527Y1296802D01*
X178102Y1296558D01*
X178671Y1296300D01*
X179234Y1296028D01*
X179789Y1295742D01*
X180338Y1295443D01*
X180879Y1295130D01*
X181413Y1294805D01*
X181938Y1294466D01*
X182455Y1294115D01*
X182963Y1293751D01*
X183462Y1293376D01*
X183952Y1292988D01*
X184433Y1292588D01*
X184903Y1292177D01*
X185363Y1291754D01*
X185813Y1291320D01*
X186252Y1290876D01*
X186681Y1290421D01*
X187098Y1289955D01*
X187503Y1289480D01*
X187897Y1288994D01*
X188279Y1288500D01*
X188649Y1287996D01*
X189006Y1287483D01*
X189351Y1286962D01*
X189683Y1286433D01*
X190002Y1285896D01*
X190308Y1285351D01*
X190600Y1284798D01*
X190879Y1284239D01*
X191145Y1283673D01*
X191396Y1283101D01*
X191633Y1282523D01*
X191857Y1281939D01*
X192066Y1281350D01*
X192260Y1280757D01*
X192440Y1280158D01*
X192606Y1279556D01*
X192756Y1278949D01*
X192892Y1278339D01*
X193013Y1277726D01*
X193119Y1277110D01*
X193210Y1276492D01*
X193286Y1275872D01*
X193347Y1275250D01*
X193392Y1274626D01*
X193423Y1274002D01*
X193438Y1273377D01*
X193438Y1272753D01*
X193423Y1272128D01*
X193392Y1271504D01*
X193347Y1270880D01*
X193286Y1270258D01*
X193210Y1269638D01*
X193119Y1269020D01*
X193013Y1268404D01*
X192892Y1267791D01*
X192756Y1267181D01*
X192606Y1266574D01*
X192440Y1265972D01*
X192260Y1265373D01*
X192066Y1264780D01*
X191857Y1264191D01*
X191633Y1263607D01*
X191396Y1263029D01*
X191145Y1262457D01*
X190879Y1261891D01*
X190600Y1261332D01*
X190308Y1260779D01*
X190002Y1260235D01*
X189683Y1259697D01*
X189351Y1259168D01*
X189006Y1258647D01*
X188649Y1258134D01*
X188279Y1257630D01*
X187897Y1257136D01*
X187503Y1256650D01*
X187098Y1256175D01*
X186681Y1255709D01*
X186252Y1255254D01*
X185813Y1254810D01*
X185363Y1254376D01*
X184903Y1253953D01*
X184433Y1253542D01*
X183952Y1253142D01*
X183462Y1252754D01*
X182963Y1252379D01*
X182455Y1252015D01*
X181938Y1251664D01*
X181413Y1251325D01*
X180879Y1251000D01*
X180338Y1250687D01*
X179789Y1250388D01*
X179234Y1250102D01*
X178671Y1249830D01*
X178102Y1249572D01*
X177527Y1249328D01*
X176946Y1249097D01*
X176360Y1248881D01*
X175768Y1248679D01*
X175172Y1248492D01*
X174571Y1248319D01*
X173967Y1248161D01*
X173358Y1248018D01*
X172747Y1247889D01*
X172132Y1247776D01*
X171515Y1247677D01*
X170896Y1247594D01*
X170275Y1247526D01*
X169652Y1247472D01*
X169028Y1247434D01*
X168404Y1247412D01*
X167779Y1247404D01*
X142118Y1247404D01*
X141110Y1247416D01*
X140103Y1247453D01*
X139098Y1247515D01*
X138094Y1247602D01*
X137092Y1247713D01*
X136094Y1247848D01*
X135099Y1248008D01*
X134108Y1248193D01*
X133122Y1248402D01*
X132142Y1248634D01*
X131167Y1248891D01*
X130200Y1249172D01*
X129239Y1249476D01*
X128286Y1249804D01*
X127342Y1250155D01*
X126406Y1250529D01*
X125480Y1250926D01*
X124564Y1251346D01*
X123658Y1251788D01*
X122764Y1252252D01*
X121881Y1252738D01*
X121010Y1253245D01*
X120152Y1253774D01*
X119308Y1254323D01*
X118477Y1254893D01*
X117660Y1255484D01*
X116858Y1256094D01*
X116071Y1256724D01*
X115300Y1257372D01*
X114545Y1258040D01*
X113807Y1258726D01*
X113086Y1259429D01*
X112382Y1260151D01*
X111696Y1260889D01*
X111029Y1261644D01*
X110380Y1262415D01*
X109750Y1263202D01*
X109140Y1264003D01*
X108550Y1264820D01*
X107980Y1265651D01*
X107430Y1266496D01*
X106902Y1267354D01*
X106394Y1268224D01*
X105908Y1269107D01*
X105444Y1270001D01*
X105002Y1270907D01*
X104583Y1271823D01*
X104186Y1272749D01*
X103811Y1273685D01*
X103460Y1274630D01*
X103132Y1275582D01*
X102828Y1276543D01*
X102547Y1277511D01*
X102291Y1278485D01*
X102058Y1279466D01*
X101849Y1280451D01*
X101665Y1281442D01*
X101504Y1282437D01*
X101369Y1283435D01*
X101258Y1284437D01*
X101171Y1285441D01*
X101109Y1286447D01*
X101072Y1287454D01*
X101060Y1288461D01*
X121589Y1337404D02*
X101060Y1363065D01*
X193440Y1363065D01*
X193440Y1337404D02*
X193440Y1388726D01*
X131853Y1471536D02*
X193440Y1492065D01*
X131853Y1512593D01*
X188308Y1543498D02*
X193440Y1543498D01*
X188308Y1543498D02*
X188308Y1548631D01*
X193440Y1548631D01*
X193440Y1543498D01*
X121589Y1583403D02*
X101060Y1609064D01*
X193440Y1609064D01*
X193440Y1583403D02*
X193440Y1634725D01*
X343440Y808029D02*
X343440Y782368D01*
X343435Y781990D01*
X343421Y781613D01*
X343398Y781235D01*
X343366Y780859D01*
X343324Y780483D01*
X343273Y780109D01*
X343213Y779736D01*
X343144Y779364D01*
X343066Y778995D01*
X342979Y778627D01*
X342882Y778261D01*
X342777Y777899D01*
X342663Y777538D01*
X342540Y777181D01*
X342408Y776827D01*
X342268Y776476D01*
X342119Y776129D01*
X341962Y775785D01*
X341796Y775445D01*
X341622Y775110D01*
X341440Y774779D01*
X341250Y774452D01*
X341051Y774131D01*
X340845Y773814D01*
X340631Y773502D01*
X340410Y773196D01*
X340181Y772895D01*
X339945Y772600D01*
X339702Y772311D01*
X339452Y772028D01*
X339194Y771751D01*
X338930Y771481D01*
X338660Y771217D01*
X338383Y770960D01*
X338100Y770709D01*
X337811Y770466D01*
X337516Y770230D01*
X337215Y770001D01*
X336909Y769780D01*
X336597Y769566D01*
X336281Y769360D01*
X335959Y769162D01*
X335632Y768971D01*
X335301Y768789D01*
X334966Y768615D01*
X334626Y768449D01*
X334283Y768292D01*
X333935Y768143D01*
X333585Y768003D01*
X333230Y767871D01*
X332873Y767748D01*
X332513Y767634D01*
X332150Y767529D01*
X331784Y767432D01*
X331417Y767345D01*
X331047Y767267D01*
X330676Y767198D01*
X330302Y767138D01*
X329928Y767087D01*
X329552Y767045D01*
X329176Y767013D01*
X328799Y766990D01*
X328421Y766976D01*
X328043Y766971D01*
X302383Y766971D01*
X301883Y766977D01*
X301383Y766995D01*
X300884Y767026D01*
X300386Y767068D01*
X299889Y767123D01*
X299394Y767190D01*
X298900Y767269D01*
X298409Y767359D01*
X297919Y767462D01*
X297433Y767577D01*
X296949Y767703D01*
X296469Y767841D01*
X295992Y767991D01*
X295518Y768153D01*
X295049Y768326D01*
X294585Y768510D01*
X294125Y768705D01*
X293669Y768912D01*
X293219Y769130D01*
X292775Y769358D01*
X292336Y769598D01*
X291903Y769848D01*
X291476Y770108D01*
X291056Y770379D01*
X290642Y770660D01*
X290236Y770951D01*
X289836Y771251D01*
X289444Y771562D01*
X289060Y771882D01*
X288684Y772211D01*
X288315Y772549D01*
X287955Y772896D01*
X287604Y773251D01*
X287262Y773615D01*
X286928Y773988D01*
X286603Y774368D01*
X286288Y774756D01*
X285983Y775152D01*
X285687Y775555D01*
X285401Y775965D01*
X285125Y776382D01*
X284860Y776806D01*
X284604Y777235D01*
X284360Y777671D01*
X284126Y778113D01*
X283903Y778561D01*
X283690Y779013D01*
X283489Y779471D01*
X283299Y779933D01*
X283121Y780400D01*
X282954Y780872D01*
X282798Y781347D01*
X282654Y781825D01*
X282522Y782308D01*
X282401Y782793D01*
X282292Y783281D01*
X282195Y783771D01*
X282111Y784264D01*
X282038Y784758D01*
X281977Y785255D01*
X281929Y785752D01*
X281892Y786251D01*
X281868Y786750D01*
X281856Y787250D01*
X281856Y787750D01*
X281868Y788250D01*
X281892Y788749D01*
X281929Y789248D01*
X281977Y789745D01*
X282038Y790242D01*
X282111Y790736D01*
X282195Y791229D01*
X282292Y791719D01*
X282401Y792207D01*
X282522Y792692D01*
X282654Y793175D01*
X282798Y793653D01*
X282954Y794128D01*
X283121Y794600D01*
X283299Y795067D01*
X283489Y795529D01*
X283690Y795987D01*
X283903Y796439D01*
X284126Y796887D01*
X284360Y797329D01*
X284604Y797765D01*
X284860Y798194D01*
X285125Y798618D01*
X285401Y799035D01*
X285687Y799445D01*
X285983Y799848D01*
X286288Y800244D01*
X286603Y800632D01*
X286928Y801012D01*
X287262Y801385D01*
X287604Y801749D01*
X287955Y802104D01*
X288315Y802451D01*
X288684Y802789D01*
X289060Y803118D01*
X289444Y803438D01*
X289836Y803749D01*
X290236Y804049D01*
X290642Y804340D01*
X291056Y804621D01*
X291476Y804892D01*
X291903Y805152D01*
X292336Y805402D01*
X292775Y805642D01*
X293219Y805870D01*
X293669Y806088D01*
X294125Y806295D01*
X294585Y806490D01*
X295049Y806674D01*
X295518Y806847D01*
X295992Y807009D01*
X296469Y807159D01*
X296949Y807297D01*
X297433Y807423D01*
X297919Y807538D01*
X298409Y807641D01*
X298900Y807731D01*
X299394Y807810D01*
X299889Y807877D01*
X300386Y807932D01*
X300884Y807974D01*
X301383Y808005D01*
X301883Y808023D01*
X302383Y808029D01*
X312647Y808029D01*
X312647Y766971D01*
X281853Y842981D02*
X358837Y842981D01*
X358837Y842982D02*
X359209Y842978D01*
X359581Y842964D01*
X359952Y842942D01*
X360323Y842910D01*
X360693Y842870D01*
X361062Y842820D01*
X361429Y842762D01*
X361795Y842695D01*
X362159Y842619D01*
X362522Y842535D01*
X362882Y842441D01*
X363240Y842339D01*
X363595Y842228D01*
X363947Y842109D01*
X364297Y841981D01*
X364643Y841845D01*
X364986Y841701D01*
X365325Y841548D01*
X365661Y841387D01*
X365992Y841218D01*
X366320Y841041D01*
X366643Y840857D01*
X366961Y840664D01*
X367275Y840464D01*
X367583Y840256D01*
X367887Y840041D01*
X368185Y839819D01*
X368478Y839590D01*
X368766Y839353D01*
X369047Y839110D01*
X369323Y838860D01*
X369592Y838603D01*
X369855Y838340D01*
X370112Y838071D01*
X370362Y837795D01*
X370605Y837514D01*
X370842Y837226D01*
X371071Y836933D01*
X371293Y836635D01*
X371508Y836331D01*
X371716Y836023D01*
X371916Y835709D01*
X372109Y835391D01*
X372293Y835068D01*
X372470Y834740D01*
X372639Y834409D01*
X372800Y834073D01*
X372953Y833734D01*
X373097Y833391D01*
X373233Y833045D01*
X373361Y832695D01*
X373480Y832343D01*
X373591Y831988D01*
X373693Y831630D01*
X373787Y831270D01*
X373871Y830907D01*
X373947Y830543D01*
X374014Y830177D01*
X374072Y829810D01*
X374122Y829441D01*
X374162Y829071D01*
X374194Y828700D01*
X374216Y828329D01*
X374230Y827957D01*
X374234Y827585D01*
X374233Y827585D02*
X374233Y822453D01*
X256193Y840415D02*
X251060Y840415D01*
X251060Y845548D01*
X256193Y845548D01*
X256193Y840415D01*
X302383Y880971D02*
X322911Y880971D01*
X302383Y880971D02*
X301883Y880977D01*
X301383Y880995D01*
X300884Y881026D01*
X300386Y881068D01*
X299889Y881123D01*
X299394Y881190D01*
X298900Y881269D01*
X298409Y881359D01*
X297919Y881462D01*
X297433Y881577D01*
X296949Y881703D01*
X296469Y881841D01*
X295992Y881991D01*
X295518Y882153D01*
X295049Y882326D01*
X294585Y882510D01*
X294125Y882705D01*
X293669Y882912D01*
X293219Y883130D01*
X292775Y883358D01*
X292336Y883598D01*
X291903Y883848D01*
X291476Y884108D01*
X291056Y884379D01*
X290642Y884660D01*
X290236Y884951D01*
X289836Y885251D01*
X289444Y885562D01*
X289060Y885882D01*
X288684Y886211D01*
X288315Y886549D01*
X287955Y886896D01*
X287604Y887251D01*
X287262Y887615D01*
X286928Y887988D01*
X286603Y888368D01*
X286288Y888756D01*
X285983Y889152D01*
X285687Y889555D01*
X285401Y889965D01*
X285125Y890382D01*
X284860Y890806D01*
X284604Y891235D01*
X284360Y891671D01*
X284126Y892113D01*
X283903Y892561D01*
X283690Y893013D01*
X283489Y893471D01*
X283299Y893933D01*
X283121Y894400D01*
X282954Y894872D01*
X282798Y895347D01*
X282654Y895825D01*
X282522Y896308D01*
X282401Y896793D01*
X282292Y897281D01*
X282195Y897771D01*
X282111Y898264D01*
X282038Y898758D01*
X281977Y899255D01*
X281929Y899752D01*
X281892Y900251D01*
X281868Y900750D01*
X281856Y901250D01*
X281856Y901750D01*
X281868Y902250D01*
X281892Y902749D01*
X281929Y903248D01*
X281977Y903745D01*
X282038Y904242D01*
X282111Y904736D01*
X282195Y905229D01*
X282292Y905719D01*
X282401Y906207D01*
X282522Y906692D01*
X282654Y907175D01*
X282798Y907653D01*
X282954Y908128D01*
X283121Y908600D01*
X283299Y909067D01*
X283489Y909529D01*
X283690Y909987D01*
X283903Y910439D01*
X284126Y910887D01*
X284360Y911329D01*
X284604Y911765D01*
X284860Y912194D01*
X285125Y912618D01*
X285401Y913035D01*
X285687Y913445D01*
X285983Y913848D01*
X286288Y914244D01*
X286603Y914632D01*
X286928Y915012D01*
X287262Y915385D01*
X287604Y915749D01*
X287955Y916104D01*
X288315Y916451D01*
X288684Y916789D01*
X289060Y917118D01*
X289444Y917438D01*
X289836Y917749D01*
X290236Y918049D01*
X290642Y918340D01*
X291056Y918621D01*
X291476Y918892D01*
X291903Y919152D01*
X292336Y919402D01*
X292775Y919642D01*
X293219Y919870D01*
X293669Y920088D01*
X294125Y920295D01*
X294585Y920490D01*
X295049Y920674D01*
X295518Y920847D01*
X295992Y921009D01*
X296469Y921159D01*
X296949Y921297D01*
X297433Y921423D01*
X297919Y921538D01*
X298409Y921641D01*
X298900Y921731D01*
X299394Y921810D01*
X299889Y921877D01*
X300386Y921932D01*
X300884Y921974D01*
X301383Y922005D01*
X301883Y922023D01*
X302383Y922029D01*
X322911Y922029D01*
X323411Y922023D01*
X323911Y922005D01*
X324410Y921974D01*
X324908Y921932D01*
X325405Y921877D01*
X325900Y921810D01*
X326394Y921731D01*
X326885Y921641D01*
X327375Y921538D01*
X327861Y921423D01*
X328345Y921297D01*
X328825Y921159D01*
X329302Y921009D01*
X329776Y920847D01*
X330245Y920674D01*
X330709Y920490D01*
X331169Y920295D01*
X331625Y920088D01*
X332075Y919870D01*
X332519Y919642D01*
X332958Y919402D01*
X333391Y919152D01*
X333818Y918892D01*
X334238Y918621D01*
X334652Y918340D01*
X335058Y918049D01*
X335458Y917749D01*
X335850Y917438D01*
X336234Y917118D01*
X336610Y916789D01*
X336979Y916451D01*
X337339Y916104D01*
X337690Y915749D01*
X338032Y915385D01*
X338366Y915012D01*
X338691Y914632D01*
X339006Y914244D01*
X339311Y913848D01*
X339607Y913445D01*
X339893Y913035D01*
X340169Y912618D01*
X340434Y912194D01*
X340690Y911765D01*
X340934Y911329D01*
X341168Y910887D01*
X341391Y910439D01*
X341604Y909987D01*
X341805Y909529D01*
X341995Y909067D01*
X342173Y908600D01*
X342340Y908128D01*
X342496Y907653D01*
X342640Y907175D01*
X342772Y906692D01*
X342893Y906207D01*
X343002Y905719D01*
X343099Y905229D01*
X343183Y904736D01*
X343256Y904242D01*
X343317Y903745D01*
X343365Y903248D01*
X343402Y902749D01*
X343426Y902250D01*
X343438Y901750D01*
X343438Y901250D01*
X343426Y900750D01*
X343402Y900251D01*
X343365Y899752D01*
X343317Y899255D01*
X343256Y898758D01*
X343183Y898264D01*
X343099Y897771D01*
X343002Y897281D01*
X342893Y896793D01*
X342772Y896308D01*
X342640Y895825D01*
X342496Y895347D01*
X342340Y894872D01*
X342173Y894400D01*
X341995Y893933D01*
X341805Y893471D01*
X341604Y893013D01*
X341391Y892561D01*
X341168Y892113D01*
X340934Y891671D01*
X340690Y891236D01*
X340434Y890806D01*
X340169Y890382D01*
X339893Y889965D01*
X339607Y889555D01*
X339311Y889152D01*
X339006Y888756D01*
X338691Y888368D01*
X338366Y887988D01*
X338032Y887615D01*
X337690Y887251D01*
X337339Y886896D01*
X336979Y886549D01*
X336610Y886211D01*
X336234Y885882D01*
X335850Y885562D01*
X335458Y885251D01*
X335058Y884951D01*
X334652Y884660D01*
X334238Y884379D01*
X333818Y884108D01*
X333391Y883848D01*
X332958Y883598D01*
X332519Y883358D01*
X332075Y883130D01*
X331625Y882912D01*
X331169Y882705D01*
X330709Y882510D01*
X330245Y882326D01*
X329776Y882153D01*
X329302Y881991D01*
X328825Y881841D01*
X328345Y881703D01*
X327861Y881577D01*
X327375Y881462D01*
X326885Y881359D01*
X326394Y881269D01*
X325900Y881190D01*
X325405Y881123D01*
X324908Y881068D01*
X324410Y881026D01*
X323911Y880995D01*
X323411Y880977D01*
X322911Y880971D01*
X281853Y955971D02*
X343440Y976500D01*
X281853Y997029D01*
X281853Y1034482D02*
X343440Y1034482D01*
X281853Y1034482D02*
X281853Y1065275D01*
X292118Y1065275D01*
X251060Y1096971D02*
X343440Y1096971D01*
X281853Y1096971D02*
X281853Y1122632D01*
X281854Y1122632D02*
X281858Y1123004D01*
X281872Y1123376D01*
X281894Y1123747D01*
X281926Y1124118D01*
X281966Y1124488D01*
X282016Y1124857D01*
X282074Y1125224D01*
X282141Y1125590D01*
X282217Y1125954D01*
X282301Y1126317D01*
X282395Y1126677D01*
X282497Y1127034D01*
X282608Y1127390D01*
X282727Y1127742D01*
X282855Y1128092D01*
X282991Y1128438D01*
X283135Y1128781D01*
X283288Y1129120D01*
X283449Y1129455D01*
X283618Y1129787D01*
X283794Y1130114D01*
X283979Y1130437D01*
X284172Y1130756D01*
X284372Y1131069D01*
X284579Y1131378D01*
X284794Y1131682D01*
X285017Y1131980D01*
X285246Y1132273D01*
X285483Y1132560D01*
X285726Y1132842D01*
X285976Y1133117D01*
X286233Y1133386D01*
X286496Y1133649D01*
X286765Y1133906D01*
X287041Y1134156D01*
X287322Y1134400D01*
X287609Y1134636D01*
X287902Y1134865D01*
X288201Y1135088D01*
X288504Y1135303D01*
X288813Y1135510D01*
X289127Y1135711D01*
X289445Y1135903D01*
X289768Y1136088D01*
X290095Y1136265D01*
X290427Y1136433D01*
X290762Y1136594D01*
X291102Y1136747D01*
X291444Y1136891D01*
X291791Y1137028D01*
X292140Y1137155D01*
X292493Y1137275D01*
X292848Y1137385D01*
X293206Y1137487D01*
X293566Y1137581D01*
X293928Y1137665D01*
X294292Y1137741D01*
X294658Y1137808D01*
X295026Y1137866D01*
X295395Y1137916D01*
X295764Y1137956D01*
X296135Y1137988D01*
X296506Y1138010D01*
X296878Y1138024D01*
X297250Y1138028D01*
X343440Y1138028D01*
X381000Y1841500D02*
X2413000Y1841500D01*
X0Y1460500D02*
X0Y381000D01*
X381000Y0D02*
X2413000Y0D01*
X2794000Y381000D02*
X2794000Y1460500D01*
X381000Y1841500D02*
X371794Y1841389D01*
X362593Y1841055D01*
X353402Y1840499D01*
X344228Y1839721D01*
X335076Y1838722D01*
X325950Y1837502D01*
X316856Y1836062D01*
X307800Y1834402D01*
X298786Y1832524D01*
X289821Y1830429D01*
X280908Y1828118D01*
X272055Y1825592D01*
X263265Y1822853D01*
X254543Y1819902D01*
X245896Y1816741D01*
X237327Y1813373D01*
X228842Y1809798D01*
X220446Y1806019D01*
X212144Y1802039D01*
X203940Y1797859D01*
X195840Y1793482D01*
X187848Y1788910D01*
X179969Y1784147D01*
X172207Y1779195D01*
X164567Y1774057D01*
X157054Y1768735D01*
X149671Y1763234D01*
X142423Y1757556D01*
X135315Y1751704D01*
X128350Y1745683D01*
X121533Y1739494D01*
X114867Y1733143D01*
X108357Y1726633D01*
X102006Y1719967D01*
X95817Y1713150D01*
X89796Y1706185D01*
X83944Y1699077D01*
X78266Y1691829D01*
X72765Y1684446D01*
X67443Y1676933D01*
X62305Y1669293D01*
X57353Y1661531D01*
X52590Y1653652D01*
X48018Y1645660D01*
X43641Y1637560D01*
X39461Y1629356D01*
X35481Y1621054D01*
X31702Y1612658D01*
X28127Y1604173D01*
X24759Y1595604D01*
X21598Y1586957D01*
X18647Y1578235D01*
X15908Y1569445D01*
X13382Y1560592D01*
X11071Y1551679D01*
X8976Y1542714D01*
X7098Y1533700D01*
X5438Y1524644D01*
X3998Y1515550D01*
X2778Y1506424D01*
X1779Y1497272D01*
X1001Y1488098D01*
X445Y1478907D01*
X111Y1469706D01*
X0Y1460500D01*
X2413000Y1841500D02*
X2422206Y1841389D01*
X2431407Y1841055D01*
X2440598Y1840499D01*
X2449772Y1839721D01*
X2458924Y1838722D01*
X2468050Y1837502D01*
X2477144Y1836062D01*
X2486200Y1834402D01*
X2495214Y1832524D01*
X2504179Y1830429D01*
X2513092Y1828118D01*
X2521945Y1825592D01*
X2530735Y1822853D01*
X2539457Y1819902D01*
X2548104Y1816741D01*
X2556673Y1813373D01*
X2565158Y1809798D01*
X2573554Y1806019D01*
X2581856Y1802039D01*
X2590060Y1797859D01*
X2598160Y1793482D01*
X2606152Y1788910D01*
X2614031Y1784147D01*
X2621793Y1779195D01*
X2629433Y1774057D01*
X2636946Y1768735D01*
X2644329Y1763234D01*
X2651577Y1757556D01*
X2658685Y1751704D01*
X2665650Y1745683D01*
X2672467Y1739494D01*
X2679133Y1733143D01*
X2685643Y1726633D01*
X2691994Y1719967D01*
X2698183Y1713150D01*
X2704204Y1706185D01*
X2710056Y1699077D01*
X2715734Y1691829D01*
X2721235Y1684446D01*
X2726557Y1676933D01*
X2731695Y1669293D01*
X2736647Y1661531D01*
X2741410Y1653652D01*
X2745982Y1645660D01*
X2750359Y1637560D01*
X2754539Y1629356D01*
X2758519Y1621054D01*
X2762298Y1612658D01*
X2765873Y1604173D01*
X2769241Y1595604D01*
X2772402Y1586957D01*
X2775353Y1578235D01*
X2778092Y1569445D01*
X2780618Y1560592D01*
X2782929Y1551679D01*
X2785024Y1542714D01*
X2786902Y1533700D01*
X2788562Y1524644D01*
X2790002Y1515550D01*
X2791222Y1506424D01*
X2792221Y1497272D01*
X2792999Y1488098D01*
X2793555Y1478907D01*
X2793889Y1469706D01*
X2794000Y1460500D01*
X381000Y0D02*
X371794Y111D01*
X362593Y445D01*
X353402Y1001D01*
X344228Y1779D01*
X335076Y2778D01*
X325950Y3998D01*
X316856Y5438D01*
X307800Y7098D01*
X298786Y8976D01*
X289821Y11071D01*
X280908Y13382D01*
X272055Y15908D01*
X263265Y18647D01*
X254543Y21598D01*
X245896Y24759D01*
X237327Y28127D01*
X228842Y31702D01*
X220446Y35481D01*
X212144Y39461D01*
X203940Y43641D01*
X195840Y48018D01*
X187848Y52590D01*
X179969Y57353D01*
X172207Y62305D01*
X164567Y67443D01*
X157054Y72765D01*
X149671Y78266D01*
X142423Y83944D01*
X135315Y89796D01*
X128350Y95817D01*
X121533Y102006D01*
X114867Y108357D01*
X108357Y114867D01*
X102006Y121533D01*
X95817Y128350D01*
X89796Y135315D01*
X83944Y142423D01*
X78266Y149671D01*
X72765Y157054D01*
X67443Y164567D01*
X62305Y172207D01*
X57353Y179969D01*
X52590Y187848D01*
X48018Y195840D01*
X43641Y203940D01*
X39461Y212144D01*
X35481Y220446D01*
X31702Y228842D01*
X28127Y237327D01*
X24759Y245896D01*
X21598Y254543D01*
X18647Y263265D01*
X15908Y272055D01*
X13382Y280908D01*
X11071Y289821D01*
X8976Y298786D01*
X7098Y307800D01*
X5438Y316856D01*
X3998Y325950D01*
X2778Y335076D01*
X1779Y344228D01*
X1001Y353402D01*
X445Y362593D01*
X111Y371794D01*
X0Y381000D01*
X2413000Y0D02*
X2422206Y111D01*
X2431407Y445D01*
X2440598Y1001D01*
X2449772Y1779D01*
X2458924Y2778D01*
X2468050Y3998D01*
X2477144Y5438D01*
X2486200Y7098D01*
X2495214Y8976D01*
X2504179Y11071D01*
X2513092Y13382D01*
X2521945Y15908D01*
X2530735Y18647D01*
X2539457Y21598D01*
X2548104Y24759D01*
X2556673Y28127D01*
X2565158Y31702D01*
X2573554Y35481D01*
X2581856Y39461D01*
X2590060Y43641D01*
X2598160Y48018D01*
X2606152Y52590D01*
X2614031Y57353D01*
X2621793Y62305D01*
X2629433Y67443D01*
X2636946Y72765D01*
X2644329Y78266D01*
X2651577Y83944D01*
X2658685Y89796D01*
X2665650Y95817D01*
X2672467Y102006D01*
X2679133Y108357D01*
X2685643Y114867D01*
X2691994Y121533D01*
X2698183Y128350D01*
X2704204Y135315D01*
X2710056Y142423D01*
X2715734Y149671D01*
X2721235Y157054D01*
X2726557Y164567D01*
X2731695Y172207D01*
X2736647Y179969D01*
X2741410Y187848D01*
X2745982Y195840D01*
X2750359Y203940D01*
X2754539Y212144D01*
X2758519Y220446D01*
X2762298Y228842D01*
X2765873Y237327D01*
X2769241Y245896D01*
X2772402Y254543D01*
X2775353Y263265D01*
X2778092Y272055D01*
X2780618Y280908D01*
X2782929Y289821D01*
X2785024Y298786D01*
X2786902Y307800D01*
X2788562Y316856D01*
X2790002Y325950D01*
X2791222Y335076D01*
X2792221Y344228D01*
X2792999Y353402D01*
X2793555Y362593D01*
X2793889Y371794D01*
X2794000Y381000D01*
X554190Y458574D02*
X461810Y458574D01*
X554190Y448310D02*
X554190Y468839D01*
X461810Y468839D02*
X461810Y448310D01*
X461810Y507913D02*
X554190Y507913D01*
X554190Y559235D02*
X461810Y507913D01*
X461810Y559235D02*
X554190Y559235D01*
X554190Y620574D02*
X461810Y620574D01*
X461810Y594913D02*
X461810Y646235D01*
X787661Y499632D02*
X788157Y499626D01*
X788653Y499608D01*
X789148Y499578D01*
X789642Y499536D01*
X790135Y499482D01*
X790627Y499417D01*
X791117Y499339D01*
X791605Y499250D01*
X792091Y499148D01*
X792574Y499035D01*
X793054Y498911D01*
X793531Y498775D01*
X794005Y498627D01*
X794475Y498468D01*
X794941Y498298D01*
X795402Y498116D01*
X795860Y497924D01*
X796312Y497720D01*
X796759Y497506D01*
X797201Y497281D01*
X797638Y497045D01*
X798068Y496798D01*
X798493Y496542D01*
X798911Y496275D01*
X799323Y495998D01*
X799728Y495711D01*
X800125Y495415D01*
X800516Y495109D01*
X800899Y494794D01*
X801274Y494469D01*
X801642Y494136D01*
X802001Y493794D01*
X802352Y493443D01*
X802694Y493084D01*
X803027Y492716D01*
X803352Y492341D01*
X803667Y491958D01*
X803973Y491567D01*
X804269Y491170D01*
X804556Y490765D01*
X804833Y490353D01*
X805100Y489935D01*
X805356Y489510D01*
X805603Y489080D01*
X805839Y488643D01*
X806064Y488201D01*
X806278Y487754D01*
X806482Y487302D01*
X806674Y486844D01*
X806856Y486383D01*
X807026Y485917D01*
X807185Y485447D01*
X807333Y484973D01*
X807469Y484496D01*
X807593Y484016D01*
X807706Y483533D01*
X807808Y483047D01*
X807897Y482559D01*
X807975Y482069D01*
X808040Y481577D01*
X808094Y481084D01*
X808136Y480590D01*
X808166Y480095D01*
X808184Y479599D01*
X808190Y479103D01*
X808191Y479103D02*
X808179Y478065D01*
X808141Y477029D01*
X808079Y475993D01*
X807993Y474959D01*
X807881Y473927D01*
X807745Y472899D01*
X807584Y471873D01*
X807399Y470852D01*
X807189Y469836D01*
X806956Y468825D01*
X806698Y467820D01*
X806416Y466822D01*
X806110Y465830D01*
X805781Y464846D01*
X805428Y463870D01*
X805052Y462903D01*
X804653Y461946D01*
X804231Y460998D01*
X803786Y460060D01*
X803320Y459133D01*
X802831Y458218D01*
X802320Y457315D01*
X801788Y456424D01*
X801235Y455546D01*
X800661Y454681D01*
X800067Y453831D01*
X799452Y452995D01*
X798817Y452174D01*
X798163Y451369D01*
X797490Y450579D01*
X796799Y449805D01*
X796089Y449049D01*
X795361Y448309D01*
X736339Y450876D02*
X735843Y450882D01*
X735347Y450900D01*
X734852Y450930D01*
X734358Y450972D01*
X733865Y451026D01*
X733373Y451091D01*
X732883Y451169D01*
X732395Y451258D01*
X731909Y451360D01*
X731426Y451473D01*
X730946Y451597D01*
X730469Y451733D01*
X729995Y451881D01*
X729525Y452040D01*
X729059Y452210D01*
X728598Y452392D01*
X728140Y452584D01*
X727688Y452788D01*
X727241Y453002D01*
X726799Y453227D01*
X726362Y453463D01*
X725932Y453710D01*
X725507Y453966D01*
X725089Y454233D01*
X724677Y454510D01*
X724272Y454797D01*
X723875Y455093D01*
X723484Y455399D01*
X723101Y455714D01*
X722726Y456039D01*
X722358Y456372D01*
X721999Y456714D01*
X721648Y457065D01*
X721306Y457424D01*
X720973Y457792D01*
X720648Y458167D01*
X720333Y458550D01*
X720027Y458941D01*
X719731Y459338D01*
X719444Y459743D01*
X719167Y460155D01*
X718900Y460573D01*
X718644Y460998D01*
X718397Y461428D01*
X718161Y461865D01*
X717936Y462307D01*
X717722Y462754D01*
X717518Y463206D01*
X717326Y463664D01*
X717144Y464125D01*
X716974Y464591D01*
X716815Y465061D01*
X716667Y465535D01*
X716531Y466012D01*
X716407Y466492D01*
X716294Y466975D01*
X716192Y467461D01*
X716103Y467949D01*
X716025Y468439D01*
X715960Y468931D01*
X715906Y469424D01*
X715864Y469918D01*
X715834Y470413D01*
X715816Y470909D01*
X715810Y471405D01*
X715821Y472322D01*
X715854Y473239D01*
X715908Y474155D01*
X715985Y475069D01*
X716083Y475981D01*
X716203Y476891D01*
X716344Y477797D01*
X716508Y478700D01*
X716692Y479598D01*
X716898Y480492D01*
X717125Y481381D01*
X717374Y482264D01*
X717643Y483141D01*
X717933Y484011D01*
X718244Y484874D01*
X718575Y485730D01*
X718926Y486577D01*
X719298Y487416D01*
X719690Y488246D01*
X720101Y489066D01*
X720531Y489876D01*
X720981Y490675D01*
X721450Y491464D01*
X721937Y492241D01*
X722443Y493006D01*
X722967Y493759D01*
X723508Y494500D01*
X754301Y461140D02*
X754041Y460710D01*
X753769Y460286D01*
X753488Y459868D01*
X753197Y459457D01*
X752896Y459054D01*
X752585Y458658D01*
X752265Y458269D01*
X751935Y457889D01*
X751597Y457516D01*
X751249Y457152D01*
X750893Y456796D01*
X750528Y456449D01*
X750155Y456111D01*
X749774Y455782D01*
X749385Y455462D01*
X748989Y455152D01*
X748585Y454852D01*
X748174Y454561D01*
X747756Y454280D01*
X747332Y454009D01*
X746901Y453749D01*
X746464Y453499D01*
X746021Y453260D01*
X745572Y453032D01*
X745118Y452814D01*
X744659Y452608D01*
X744195Y452413D01*
X743726Y452229D01*
X743254Y452056D01*
X742777Y451895D01*
X742296Y451745D01*
X741812Y451607D01*
X741325Y451481D01*
X740834Y451366D01*
X740341Y451264D01*
X739846Y451173D01*
X739349Y451094D01*
X738850Y451028D01*
X738350Y450973D01*
X737848Y450931D01*
X737345Y450900D01*
X736842Y450882D01*
X736339Y450876D01*
X769698Y489367D02*
X769959Y489798D01*
X770230Y490222D01*
X770511Y490640D01*
X770802Y491050D01*
X771104Y491454D01*
X771414Y491850D01*
X771735Y492238D01*
X772064Y492619D01*
X772403Y492991D01*
X772750Y493356D01*
X773107Y493711D01*
X773471Y494059D01*
X773844Y494397D01*
X774225Y494726D01*
X774614Y495045D01*
X775011Y495356D01*
X775414Y495656D01*
X775825Y495947D01*
X776243Y496228D01*
X776668Y496498D01*
X777099Y496759D01*
X777536Y497008D01*
X777979Y497248D01*
X778428Y497476D01*
X778882Y497693D01*
X779341Y497900D01*
X779805Y498095D01*
X780273Y498279D01*
X780746Y498452D01*
X781223Y498613D01*
X781704Y498763D01*
X782188Y498901D01*
X782675Y499027D01*
X783166Y499142D01*
X783658Y499244D01*
X784154Y499335D01*
X784651Y499414D01*
X785150Y499480D01*
X785650Y499535D01*
X786152Y499577D01*
X786654Y499608D01*
X787158Y499626D01*
X787661Y499632D01*
X769698Y489368D02*
X754302Y461140D01*
X808190Y555583D02*
X808190Y576112D01*
X808190Y555583D02*
X808184Y555087D01*
X808166Y554591D01*
X808136Y554096D01*
X808094Y553602D01*
X808040Y553109D01*
X807975Y552617D01*
X807897Y552127D01*
X807808Y551639D01*
X807706Y551153D01*
X807593Y550670D01*
X807469Y550190D01*
X807333Y549713D01*
X807185Y549239D01*
X807026Y548769D01*
X806856Y548303D01*
X806674Y547842D01*
X806482Y547384D01*
X806278Y546932D01*
X806064Y546485D01*
X805839Y546043D01*
X805603Y545606D01*
X805356Y545176D01*
X805100Y544751D01*
X804833Y544333D01*
X804556Y543921D01*
X804269Y543516D01*
X803973Y543119D01*
X803667Y542728D01*
X803352Y542345D01*
X803027Y541970D01*
X802694Y541602D01*
X802352Y541243D01*
X802001Y540892D01*
X801642Y540550D01*
X801274Y540217D01*
X800899Y539892D01*
X800516Y539577D01*
X800125Y539271D01*
X799728Y538975D01*
X799323Y538688D01*
X798911Y538411D01*
X798493Y538144D01*
X798068Y537888D01*
X797638Y537641D01*
X797201Y537405D01*
X796759Y537180D01*
X796312Y536966D01*
X795860Y536762D01*
X795402Y536570D01*
X794941Y536388D01*
X794475Y536218D01*
X794005Y536059D01*
X793531Y535911D01*
X793054Y535775D01*
X792574Y535651D01*
X792091Y535538D01*
X791605Y535436D01*
X791117Y535347D01*
X790627Y535269D01*
X790135Y535204D01*
X789642Y535150D01*
X789148Y535108D01*
X788653Y535078D01*
X788157Y535060D01*
X787661Y535054D01*
X787661Y535055D02*
X736339Y535055D01*
X735835Y535061D01*
X735332Y535080D01*
X734829Y535111D01*
X734327Y535154D01*
X733826Y535209D01*
X733327Y535277D01*
X732829Y535357D01*
X732334Y535449D01*
X731841Y535554D01*
X731351Y535670D01*
X730864Y535799D01*
X730380Y535939D01*
X729900Y536091D01*
X729423Y536255D01*
X728951Y536431D01*
X728483Y536618D01*
X728020Y536816D01*
X727562Y537026D01*
X727109Y537247D01*
X726662Y537479D01*
X726220Y537722D01*
X725785Y537976D01*
X725356Y538240D01*
X724934Y538515D01*
X724518Y538800D01*
X724110Y539095D01*
X723709Y539400D01*
X723316Y539715D01*
X722930Y540039D01*
X722553Y540373D01*
X722184Y540716D01*
X721823Y541068D01*
X721471Y541428D01*
X721128Y541797D01*
X720794Y542175D01*
X720470Y542560D01*
X720155Y542954D01*
X719850Y543355D01*
X719555Y543763D01*
X719270Y544178D01*
X718995Y544601D01*
X718731Y545030D01*
X718477Y545465D01*
X718234Y545906D01*
X718002Y546354D01*
X717781Y546806D01*
X717571Y547264D01*
X717373Y547727D01*
X717186Y548195D01*
X717010Y548668D01*
X716846Y549144D01*
X716694Y549624D01*
X716554Y550108D01*
X716425Y550595D01*
X716309Y551086D01*
X716205Y551578D01*
X716112Y552074D01*
X716032Y552571D01*
X715964Y553070D01*
X715909Y553571D01*
X715866Y554073D01*
X715835Y554576D01*
X715816Y555080D01*
X715810Y555583D01*
X715810Y576112D01*
X715810Y614611D02*
X808190Y614611D01*
X772265Y614611D02*
X715810Y665933D01*
X751736Y635140D02*
X808190Y665933D01*
X1223810Y448310D02*
X1316190Y448310D01*
X1275133Y479103D02*
X1223810Y448310D01*
X1275133Y479103D02*
X1223810Y509897D01*
X1316190Y509897D01*
X1316190Y560103D02*
X1223810Y560103D01*
X1316190Y549839D02*
X1316190Y570368D01*
X1223810Y570368D02*
X1223810Y549839D01*
X1316190Y634235D02*
X1316184Y634731D01*
X1316166Y635227D01*
X1316136Y635722D01*
X1316094Y636216D01*
X1316040Y636709D01*
X1315975Y637201D01*
X1315897Y637691D01*
X1315808Y638179D01*
X1315706Y638665D01*
X1315593Y639148D01*
X1315469Y639628D01*
X1315333Y640105D01*
X1315185Y640579D01*
X1315026Y641049D01*
X1314856Y641515D01*
X1314674Y641976D01*
X1314482Y642434D01*
X1314278Y642886D01*
X1314064Y643333D01*
X1313839Y643775D01*
X1313603Y644212D01*
X1313356Y644642D01*
X1313100Y645067D01*
X1312833Y645485D01*
X1312556Y645897D01*
X1312269Y646302D01*
X1311973Y646699D01*
X1311667Y647090D01*
X1311352Y647473D01*
X1311027Y647848D01*
X1310694Y648216D01*
X1310352Y648575D01*
X1310001Y648926D01*
X1309642Y649268D01*
X1309274Y649601D01*
X1308899Y649926D01*
X1308516Y650241D01*
X1308125Y650547D01*
X1307728Y650843D01*
X1307323Y651130D01*
X1306911Y651407D01*
X1306493Y651674D01*
X1306068Y651930D01*
X1305638Y652177D01*
X1305201Y652413D01*
X1304759Y652638D01*
X1304312Y652852D01*
X1303860Y653056D01*
X1303402Y653248D01*
X1302941Y653430D01*
X1302475Y653600D01*
X1302005Y653759D01*
X1301531Y653907D01*
X1301054Y654043D01*
X1300574Y654167D01*
X1300091Y654280D01*
X1299605Y654382D01*
X1299117Y654471D01*
X1298627Y654549D01*
X1298135Y654614D01*
X1297642Y654668D01*
X1297148Y654710D01*
X1296653Y654740D01*
X1296157Y654758D01*
X1295661Y654764D01*
X1316191Y634235D02*
X1316179Y633197D01*
X1316141Y632161D01*
X1316079Y631125D01*
X1315993Y630091D01*
X1315881Y629059D01*
X1315745Y628031D01*
X1315584Y627005D01*
X1315399Y625984D01*
X1315189Y624968D01*
X1314956Y623957D01*
X1314698Y622952D01*
X1314416Y621954D01*
X1314110Y620962D01*
X1313781Y619978D01*
X1313428Y619002D01*
X1313052Y618035D01*
X1312653Y617078D01*
X1312231Y616130D01*
X1311786Y615192D01*
X1311320Y614265D01*
X1310831Y613350D01*
X1310320Y612447D01*
X1309788Y611556D01*
X1309235Y610678D01*
X1308661Y609813D01*
X1308067Y608963D01*
X1307452Y608127D01*
X1306817Y607306D01*
X1306163Y606501D01*
X1305490Y605711D01*
X1304799Y604937D01*
X1304089Y604181D01*
X1303361Y603441D01*
X1244339Y606008D02*
X1243843Y606014D01*
X1243347Y606032D01*
X1242852Y606062D01*
X1242358Y606104D01*
X1241865Y606158D01*
X1241373Y606223D01*
X1240883Y606301D01*
X1240395Y606390D01*
X1239909Y606492D01*
X1239426Y606605D01*
X1238946Y606729D01*
X1238469Y606865D01*
X1237995Y607013D01*
X1237525Y607172D01*
X1237059Y607342D01*
X1236598Y607524D01*
X1236140Y607716D01*
X1235688Y607920D01*
X1235241Y608134D01*
X1234799Y608359D01*
X1234362Y608595D01*
X1233932Y608842D01*
X1233507Y609098D01*
X1233089Y609365D01*
X1232677Y609642D01*
X1232272Y609929D01*
X1231875Y610225D01*
X1231484Y610531D01*
X1231101Y610846D01*
X1230726Y611171D01*
X1230358Y611504D01*
X1229999Y611846D01*
X1229648Y612197D01*
X1229306Y612556D01*
X1228973Y612924D01*
X1228648Y613299D01*
X1228333Y613682D01*
X1228027Y614073D01*
X1227731Y614470D01*
X1227444Y614875D01*
X1227167Y615287D01*
X1226900Y615705D01*
X1226644Y616130D01*
X1226397Y616560D01*
X1226161Y616997D01*
X1225936Y617439D01*
X1225722Y617886D01*
X1225518Y618338D01*
X1225326Y618796D01*
X1225144Y619257D01*
X1224974Y619723D01*
X1224815Y620193D01*
X1224667Y620667D01*
X1224531Y621144D01*
X1224407Y621624D01*
X1224294Y622107D01*
X1224192Y622593D01*
X1224103Y623081D01*
X1224025Y623571D01*
X1223960Y624063D01*
X1223906Y624556D01*
X1223864Y625050D01*
X1223834Y625545D01*
X1223816Y626041D01*
X1223810Y626537D01*
X1223821Y627454D01*
X1223854Y628371D01*
X1223908Y629287D01*
X1223985Y630201D01*
X1224083Y631113D01*
X1224203Y632023D01*
X1224344Y632929D01*
X1224508Y633832D01*
X1224692Y634730D01*
X1224898Y635624D01*
X1225125Y636513D01*
X1225374Y637396D01*
X1225643Y638273D01*
X1225933Y639143D01*
X1226244Y640006D01*
X1226575Y640862D01*
X1226926Y641709D01*
X1227298Y642548D01*
X1227690Y643378D01*
X1228101Y644198D01*
X1228531Y645008D01*
X1228981Y645807D01*
X1229450Y646596D01*
X1229937Y647373D01*
X1230443Y648138D01*
X1230967Y648891D01*
X1231508Y649632D01*
X1262301Y616272D02*
X1262041Y615842D01*
X1261769Y615418D01*
X1261488Y615000D01*
X1261197Y614589D01*
X1260896Y614186D01*
X1260585Y613790D01*
X1260265Y613401D01*
X1259935Y613021D01*
X1259597Y612648D01*
X1259249Y612284D01*
X1258893Y611928D01*
X1258528Y611581D01*
X1258155Y611243D01*
X1257774Y610914D01*
X1257385Y610594D01*
X1256989Y610284D01*
X1256585Y609984D01*
X1256174Y609693D01*
X1255756Y609412D01*
X1255332Y609141D01*
X1254901Y608881D01*
X1254464Y608631D01*
X1254021Y608392D01*
X1253572Y608164D01*
X1253118Y607946D01*
X1252659Y607740D01*
X1252195Y607545D01*
X1251726Y607361D01*
X1251254Y607188D01*
X1250777Y607027D01*
X1250296Y606877D01*
X1249812Y606739D01*
X1249325Y606613D01*
X1248834Y606498D01*
X1248341Y606396D01*
X1247846Y606305D01*
X1247349Y606226D01*
X1246850Y606160D01*
X1246350Y606105D01*
X1245848Y606063D01*
X1245345Y606032D01*
X1244842Y606014D01*
X1244339Y606008D01*
X1277698Y644499D02*
X1277959Y644930D01*
X1278230Y645354D01*
X1278511Y645772D01*
X1278802Y646182D01*
X1279104Y646586D01*
X1279414Y646982D01*
X1279735Y647370D01*
X1280064Y647751D01*
X1280403Y648123D01*
X1280750Y648488D01*
X1281107Y648843D01*
X1281471Y649191D01*
X1281844Y649529D01*
X1282225Y649858D01*
X1282614Y650177D01*
X1283011Y650488D01*
X1283414Y650788D01*
X1283825Y651079D01*
X1284243Y651360D01*
X1284668Y651630D01*
X1285099Y651891D01*
X1285536Y652140D01*
X1285979Y652380D01*
X1286428Y652608D01*
X1286882Y652825D01*
X1287341Y653032D01*
X1287805Y653227D01*
X1288273Y653411D01*
X1288746Y653584D01*
X1289223Y653745D01*
X1289704Y653895D01*
X1290188Y654033D01*
X1290675Y654159D01*
X1291166Y654274D01*
X1291658Y654376D01*
X1292154Y654467D01*
X1292651Y654546D01*
X1293150Y654612D01*
X1293650Y654667D01*
X1294152Y654709D01*
X1294654Y654740D01*
X1295158Y654758D01*
X1295661Y654764D01*
X1277698Y644499D02*
X1262302Y616272D01*
X1249471Y690442D02*
X1290529Y690442D01*
X1249471Y690442D02*
X1248846Y690450D01*
X1248222Y690472D01*
X1247598Y690510D01*
X1246975Y690564D01*
X1246354Y690632D01*
X1245735Y690715D01*
X1245118Y690814D01*
X1244503Y690927D01*
X1243892Y691056D01*
X1243283Y691199D01*
X1242679Y691357D01*
X1242078Y691530D01*
X1241482Y691717D01*
X1240890Y691919D01*
X1240304Y692135D01*
X1239723Y692366D01*
X1239148Y692610D01*
X1238579Y692868D01*
X1238016Y693140D01*
X1237461Y693426D01*
X1236912Y693725D01*
X1236371Y694038D01*
X1235837Y694363D01*
X1235312Y694702D01*
X1234795Y695053D01*
X1234287Y695417D01*
X1233788Y695792D01*
X1233298Y696180D01*
X1232817Y696580D01*
X1232347Y696991D01*
X1231887Y697414D01*
X1231437Y697848D01*
X1230998Y698292D01*
X1230569Y698747D01*
X1230152Y699213D01*
X1229747Y699688D01*
X1229353Y700174D01*
X1228971Y700668D01*
X1228601Y701172D01*
X1228244Y701685D01*
X1227899Y702206D01*
X1227567Y702735D01*
X1227248Y703272D01*
X1226942Y703817D01*
X1226650Y704370D01*
X1226371Y704929D01*
X1226105Y705495D01*
X1225854Y706067D01*
X1225617Y706645D01*
X1225393Y707229D01*
X1225184Y707818D01*
X1224990Y708411D01*
X1224810Y709010D01*
X1224644Y709612D01*
X1224494Y710219D01*
X1224358Y710829D01*
X1224237Y711442D01*
X1224131Y712058D01*
X1224040Y712676D01*
X1223964Y713296D01*
X1223903Y713918D01*
X1223858Y714542D01*
X1223827Y715166D01*
X1223812Y715791D01*
X1223812Y716415D01*
X1223827Y717040D01*
X1223858Y717664D01*
X1223903Y718288D01*
X1223964Y718910D01*
X1224040Y719530D01*
X1224131Y720148D01*
X1224237Y720764D01*
X1224358Y721377D01*
X1224494Y721987D01*
X1224644Y722594D01*
X1224810Y723196D01*
X1224990Y723795D01*
X1225184Y724388D01*
X1225393Y724977D01*
X1225617Y725561D01*
X1225854Y726139D01*
X1226105Y726711D01*
X1226371Y727277D01*
X1226650Y727836D01*
X1226942Y728389D01*
X1227248Y728934D01*
X1227567Y729471D01*
X1227899Y730000D01*
X1228244Y730521D01*
X1228601Y731034D01*
X1228971Y731538D01*
X1229353Y732032D01*
X1229747Y732518D01*
X1230152Y732993D01*
X1230569Y733459D01*
X1230998Y733914D01*
X1231437Y734358D01*
X1231887Y734792D01*
X1232347Y735215D01*
X1232817Y735626D01*
X1233298Y736026D01*
X1233788Y736414D01*
X1234287Y736789D01*
X1234795Y737153D01*
X1235312Y737504D01*
X1235837Y737843D01*
X1236371Y738168D01*
X1236912Y738481D01*
X1237461Y738780D01*
X1238016Y739066D01*
X1238579Y739338D01*
X1239148Y739596D01*
X1239723Y739840D01*
X1240304Y740071D01*
X1240890Y740287D01*
X1241482Y740489D01*
X1242078Y740676D01*
X1242679Y740849D01*
X1243283Y741007D01*
X1243892Y741150D01*
X1244503Y741279D01*
X1245118Y741392D01*
X1245735Y741491D01*
X1246354Y741574D01*
X1246975Y741642D01*
X1247598Y741696D01*
X1248222Y741734D01*
X1248846Y741756D01*
X1249471Y741764D01*
X1290529Y741764D01*
X1291154Y741756D01*
X1291778Y741734D01*
X1292402Y741696D01*
X1293025Y741642D01*
X1293646Y741574D01*
X1294265Y741491D01*
X1294882Y741392D01*
X1295497Y741279D01*
X1296108Y741150D01*
X1296717Y741007D01*
X1297321Y740849D01*
X1297922Y740676D01*
X1298518Y740489D01*
X1299110Y740287D01*
X1299696Y740071D01*
X1300277Y739840D01*
X1300852Y739596D01*
X1301421Y739338D01*
X1301984Y739066D01*
X1302539Y738780D01*
X1303088Y738481D01*
X1303629Y738168D01*
X1304163Y737843D01*
X1304688Y737504D01*
X1305205Y737153D01*
X1305713Y736789D01*
X1306212Y736414D01*
X1306702Y736026D01*
X1307183Y735626D01*
X1307653Y735215D01*
X1308113Y734792D01*
X1308563Y734358D01*
X1309002Y733914D01*
X1309431Y733459D01*
X1309848Y732993D01*
X1310253Y732518D01*
X1310647Y732032D01*
X1311029Y731538D01*
X1311399Y731034D01*
X1311756Y730521D01*
X1312101Y730000D01*
X1312433Y729471D01*
X1312752Y728934D01*
X1313058Y728389D01*
X1313350Y727836D01*
X1313629Y727277D01*
X1313895Y726711D01*
X1314146Y726139D01*
X1314383Y725561D01*
X1314607Y724977D01*
X1314816Y724388D01*
X1315010Y723795D01*
X1315190Y723196D01*
X1315356Y722594D01*
X1315506Y721987D01*
X1315642Y721377D01*
X1315763Y720764D01*
X1315869Y720148D01*
X1315960Y719530D01*
X1316036Y718910D01*
X1316097Y718288D01*
X1316142Y717664D01*
X1316173Y717040D01*
X1316188Y716415D01*
X1316188Y715791D01*
X1316173Y715166D01*
X1316142Y714542D01*
X1316097Y713918D01*
X1316036Y713296D01*
X1315960Y712676D01*
X1315869Y712058D01*
X1315763Y711442D01*
X1315642Y710829D01*
X1315506Y710219D01*
X1315356Y709612D01*
X1315190Y709010D01*
X1315010Y708411D01*
X1314816Y707818D01*
X1314607Y707229D01*
X1314383Y706645D01*
X1314146Y706067D01*
X1313895Y705495D01*
X1313629Y704929D01*
X1313350Y704370D01*
X1313058Y703817D01*
X1312752Y703273D01*
X1312433Y702735D01*
X1312101Y702206D01*
X1311756Y701685D01*
X1311399Y701172D01*
X1311029Y700668D01*
X1310647Y700174D01*
X1310253Y699688D01*
X1309848Y699213D01*
X1309431Y698747D01*
X1309002Y698292D01*
X1308563Y697848D01*
X1308113Y697414D01*
X1307653Y696991D01*
X1307183Y696580D01*
X1306702Y696180D01*
X1306212Y695792D01*
X1305713Y695417D01*
X1305205Y695053D01*
X1304688Y694702D01*
X1304163Y694363D01*
X1303629Y694038D01*
X1303088Y693725D01*
X1302539Y693426D01*
X1301984Y693140D01*
X1301421Y692868D01*
X1300852Y692610D01*
X1300277Y692366D01*
X1299696Y692135D01*
X1299110Y691919D01*
X1298518Y691717D01*
X1297922Y691530D01*
X1297321Y691357D01*
X1296717Y691199D01*
X1296108Y691056D01*
X1295497Y690927D01*
X1294882Y690814D01*
X1294265Y690715D01*
X1293646Y690632D01*
X1293025Y690564D01*
X1292402Y690510D01*
X1291778Y690472D01*
X1291154Y690450D01*
X1290529Y690442D01*
X1062190Y448310D02*
X969810Y448310D01*
X1021133Y479103D01*
X969810Y509897D01*
X1062190Y509897D01*
X1036529Y552442D02*
X995471Y552442D01*
X994846Y552450D01*
X994222Y552472D01*
X993598Y552510D01*
X992975Y552564D01*
X992354Y552632D01*
X991735Y552715D01*
X991118Y552814D01*
X990503Y552927D01*
X989892Y553056D01*
X989283Y553199D01*
X988679Y553357D01*
X988078Y553530D01*
X987482Y553717D01*
X986890Y553919D01*
X986304Y554135D01*
X985723Y554366D01*
X985148Y554610D01*
X984579Y554868D01*
X984016Y555140D01*
X983461Y555426D01*
X982912Y555725D01*
X982371Y556038D01*
X981837Y556363D01*
X981312Y556702D01*
X980795Y557053D01*
X980287Y557417D01*
X979788Y557792D01*
X979298Y558180D01*
X978817Y558580D01*
X978347Y558991D01*
X977887Y559414D01*
X977437Y559848D01*
X976998Y560292D01*
X976569Y560747D01*
X976152Y561213D01*
X975747Y561688D01*
X975353Y562174D01*
X974971Y562668D01*
X974601Y563172D01*
X974244Y563685D01*
X973899Y564206D01*
X973567Y564735D01*
X973248Y565272D01*
X972942Y565817D01*
X972650Y566370D01*
X972371Y566929D01*
X972105Y567495D01*
X971854Y568067D01*
X971617Y568645D01*
X971393Y569229D01*
X971184Y569818D01*
X970990Y570411D01*
X970810Y571010D01*
X970644Y571612D01*
X970494Y572219D01*
X970358Y572829D01*
X970237Y573442D01*
X970131Y574058D01*
X970040Y574676D01*
X969964Y575296D01*
X969903Y575918D01*
X969858Y576542D01*
X969827Y577166D01*
X969812Y577791D01*
X969812Y578415D01*
X969827Y579040D01*
X969858Y579664D01*
X969903Y580288D01*
X969964Y580910D01*
X970040Y581530D01*
X970131Y582148D01*
X970237Y582764D01*
X970358Y583377D01*
X970494Y583987D01*
X970644Y584594D01*
X970810Y585196D01*
X970990Y585795D01*
X971184Y586388D01*
X971393Y586977D01*
X971617Y587561D01*
X971854Y588139D01*
X972105Y588711D01*
X972371Y589277D01*
X972650Y589836D01*
X972942Y590389D01*
X973248Y590934D01*
X973567Y591471D01*
X973899Y592000D01*
X974244Y592521D01*
X974601Y593034D01*
X974971Y593538D01*
X975353Y594032D01*
X975747Y594518D01*
X976152Y594993D01*
X976569Y595459D01*
X976998Y595914D01*
X977437Y596358D01*
X977887Y596792D01*
X978347Y597215D01*
X978817Y597626D01*
X979298Y598026D01*
X979788Y598414D01*
X980287Y598789D01*
X980795Y599153D01*
X981312Y599504D01*
X981837Y599843D01*
X982371Y600168D01*
X982912Y600481D01*
X983461Y600780D01*
X984016Y601066D01*
X984579Y601338D01*
X985148Y601596D01*
X985723Y601840D01*
X986304Y602071D01*
X986890Y602287D01*
X987482Y602489D01*
X988078Y602676D01*
X988679Y602849D01*
X989283Y603007D01*
X989892Y603150D01*
X990503Y603279D01*
X991118Y603392D01*
X991735Y603491D01*
X992354Y603574D01*
X992975Y603642D01*
X993598Y603696D01*
X994222Y603734D01*
X994846Y603756D01*
X995471Y603764D01*
X1036529Y603764D01*
X1037154Y603756D01*
X1037778Y603734D01*
X1038402Y603696D01*
X1039025Y603642D01*
X1039646Y603574D01*
X1040265Y603491D01*
X1040882Y603392D01*
X1041497Y603279D01*
X1042108Y603150D01*
X1042717Y603007D01*
X1043321Y602849D01*
X1043922Y602676D01*
X1044518Y602489D01*
X1045110Y602287D01*
X1045696Y602071D01*
X1046277Y601840D01*
X1046852Y601596D01*
X1047421Y601338D01*
X1047984Y601066D01*
X1048539Y600780D01*
X1049088Y600481D01*
X1049629Y600168D01*
X1050163Y599843D01*
X1050688Y599504D01*
X1051205Y599153D01*
X1051713Y598789D01*
X1052212Y598414D01*
X1052702Y598026D01*
X1053183Y597626D01*
X1053653Y597215D01*
X1054113Y596792D01*
X1054563Y596358D01*
X1055002Y595914D01*
X1055431Y595459D01*
X1055848Y594993D01*
X1056253Y594518D01*
X1056647Y594032D01*
X1057029Y593538D01*
X1057399Y593034D01*
X1057756Y592521D01*
X1058101Y592000D01*
X1058433Y591471D01*
X1058752Y590934D01*
X1059058Y590389D01*
X1059350Y589836D01*
X1059629Y589277D01*
X1059895Y588711D01*
X1060146Y588139D01*
X1060383Y587561D01*
X1060607Y586977D01*
X1060816Y586388D01*
X1061010Y585795D01*
X1061190Y585196D01*
X1061356Y584594D01*
X1061506Y583987D01*
X1061642Y583377D01*
X1061763Y582764D01*
X1061869Y582148D01*
X1061960Y581530D01*
X1062036Y580910D01*
X1062097Y580288D01*
X1062142Y579664D01*
X1062173Y579040D01*
X1062188Y578415D01*
X1062188Y577791D01*
X1062173Y577166D01*
X1062142Y576542D01*
X1062097Y575918D01*
X1062036Y575296D01*
X1061960Y574676D01*
X1061869Y574058D01*
X1061763Y573442D01*
X1061642Y572829D01*
X1061506Y572219D01*
X1061356Y571612D01*
X1061190Y571010D01*
X1061010Y570411D01*
X1060816Y569818D01*
X1060607Y569229D01*
X1060383Y568645D01*
X1060146Y568067D01*
X1059895Y567495D01*
X1059629Y566929D01*
X1059350Y566370D01*
X1059058Y565817D01*
X1058752Y565273D01*
X1058433Y564735D01*
X1058101Y564206D01*
X1057756Y563685D01*
X1057399Y563172D01*
X1057029Y562668D01*
X1056647Y562174D01*
X1056253Y561688D01*
X1055848Y561213D01*
X1055431Y560747D01*
X1055002Y560292D01*
X1054563Y559848D01*
X1054113Y559414D01*
X1053653Y558991D01*
X1053183Y558580D01*
X1052702Y558180D01*
X1052212Y557792D01*
X1051713Y557417D01*
X1051205Y557053D01*
X1050688Y556702D01*
X1050163Y556363D01*
X1049629Y556038D01*
X1049088Y555725D01*
X1048539Y555426D01*
X1047984Y555140D01*
X1047421Y554868D01*
X1046852Y554610D01*
X1046277Y554366D01*
X1045696Y554135D01*
X1045110Y553919D01*
X1044518Y553717D01*
X1043922Y553530D01*
X1043321Y553357D01*
X1042717Y553199D01*
X1042108Y553056D01*
X1041497Y552927D01*
X1040882Y552814D01*
X1040265Y552715D01*
X1039646Y552632D01*
X1039025Y552564D01*
X1038402Y552510D01*
X1037778Y552472D01*
X1037154Y552450D01*
X1036529Y552442D01*
X1062190Y670235D02*
X1062184Y670731D01*
X1062166Y671227D01*
X1062136Y671722D01*
X1062094Y672216D01*
X1062040Y672709D01*
X1061975Y673201D01*
X1061897Y673691D01*
X1061808Y674179D01*
X1061706Y674665D01*
X1061593Y675148D01*
X1061469Y675628D01*
X1061333Y676105D01*
X1061185Y676579D01*
X1061026Y677049D01*
X1060856Y677515D01*
X1060674Y677976D01*
X1060482Y678434D01*
X1060278Y678886D01*
X1060064Y679333D01*
X1059839Y679775D01*
X1059603Y680212D01*
X1059356Y680642D01*
X1059100Y681067D01*
X1058833Y681485D01*
X1058556Y681897D01*
X1058269Y682302D01*
X1057973Y682699D01*
X1057667Y683090D01*
X1057352Y683473D01*
X1057027Y683848D01*
X1056694Y684216D01*
X1056352Y684575D01*
X1056001Y684926D01*
X1055642Y685268D01*
X1055274Y685601D01*
X1054899Y685926D01*
X1054516Y686241D01*
X1054125Y686547D01*
X1053728Y686843D01*
X1053323Y687130D01*
X1052911Y687407D01*
X1052493Y687674D01*
X1052068Y687930D01*
X1051638Y688177D01*
X1051201Y688413D01*
X1050759Y688638D01*
X1050312Y688852D01*
X1049860Y689056D01*
X1049402Y689248D01*
X1048941Y689430D01*
X1048475Y689600D01*
X1048005Y689759D01*
X1047531Y689907D01*
X1047054Y690043D01*
X1046574Y690167D01*
X1046091Y690280D01*
X1045605Y690382D01*
X1045117Y690471D01*
X1044627Y690549D01*
X1044135Y690614D01*
X1043642Y690668D01*
X1043148Y690710D01*
X1042653Y690740D01*
X1042157Y690758D01*
X1041661Y690764D01*
X1062191Y670235D02*
X1062179Y669197D01*
X1062141Y668161D01*
X1062079Y667125D01*
X1061993Y666091D01*
X1061881Y665059D01*
X1061745Y664031D01*
X1061584Y663005D01*
X1061399Y661984D01*
X1061189Y660968D01*
X1060956Y659957D01*
X1060698Y658952D01*
X1060416Y657954D01*
X1060110Y656962D01*
X1059781Y655978D01*
X1059428Y655002D01*
X1059052Y654035D01*
X1058653Y653078D01*
X1058231Y652130D01*
X1057786Y651192D01*
X1057320Y650265D01*
X1056831Y649350D01*
X1056320Y648447D01*
X1055788Y647556D01*
X1055235Y646678D01*
X1054661Y645813D01*
X1054067Y644963D01*
X1053452Y644127D01*
X1052817Y643306D01*
X1052163Y642501D01*
X1051490Y641711D01*
X1050799Y640937D01*
X1050089Y640181D01*
X1049361Y639441D01*
X990339Y642008D02*
X989843Y642014D01*
X989347Y642032D01*
X988852Y642062D01*
X988358Y642104D01*
X987865Y642158D01*
X987373Y642223D01*
X986883Y642301D01*
X986395Y642390D01*
X985909Y642492D01*
X985426Y642605D01*
X984946Y642729D01*
X984469Y642865D01*
X983995Y643013D01*
X983525Y643172D01*
X983059Y643342D01*
X982598Y643524D01*
X982140Y643716D01*
X981688Y643920D01*
X981241Y644134D01*
X980799Y644359D01*
X980362Y644595D01*
X979932Y644842D01*
X979507Y645098D01*
X979089Y645365D01*
X978677Y645642D01*
X978272Y645929D01*
X977875Y646225D01*
X977484Y646531D01*
X977101Y646846D01*
X976726Y647171D01*
X976358Y647504D01*
X975999Y647846D01*
X975648Y648197D01*
X975306Y648556D01*
X974973Y648924D01*
X974648Y649299D01*
X974333Y649682D01*
X974027Y650073D01*
X973731Y650470D01*
X973444Y650875D01*
X973167Y651287D01*
X972900Y651705D01*
X972644Y652130D01*
X972397Y652560D01*
X972161Y652997D01*
X971936Y653439D01*
X971722Y653886D01*
X971518Y654338D01*
X971326Y654796D01*
X971144Y655257D01*
X970974Y655723D01*
X970815Y656193D01*
X970667Y656667D01*
X970531Y657144D01*
X970407Y657624D01*
X970294Y658107D01*
X970192Y658593D01*
X970103Y659081D01*
X970025Y659571D01*
X969960Y660063D01*
X969906Y660556D01*
X969864Y661050D01*
X969834Y661545D01*
X969816Y662041D01*
X969810Y662537D01*
X969821Y663454D01*
X969854Y664371D01*
X969908Y665287D01*
X969985Y666201D01*
X970083Y667113D01*
X970203Y668023D01*
X970344Y668929D01*
X970508Y669832D01*
X970692Y670730D01*
X970898Y671624D01*
X971125Y672513D01*
X971374Y673396D01*
X971643Y674273D01*
X971933Y675143D01*
X972244Y676006D01*
X972575Y676862D01*
X972926Y677709D01*
X973298Y678548D01*
X973690Y679378D01*
X974101Y680198D01*
X974531Y681008D01*
X974981Y681807D01*
X975450Y682596D01*
X975937Y683373D01*
X976443Y684138D01*
X976967Y684891D01*
X977508Y685632D01*
X1008301Y652272D02*
X1008041Y651842D01*
X1007769Y651418D01*
X1007488Y651000D01*
X1007197Y650589D01*
X1006896Y650186D01*
X1006585Y649790D01*
X1006265Y649401D01*
X1005935Y649021D01*
X1005597Y648648D01*
X1005249Y648284D01*
X1004893Y647928D01*
X1004528Y647581D01*
X1004155Y647243D01*
X1003774Y646914D01*
X1003385Y646594D01*
X1002989Y646284D01*
X1002585Y645984D01*
X1002174Y645693D01*
X1001756Y645412D01*
X1001332Y645141D01*
X1000901Y644881D01*
X1000464Y644631D01*
X1000021Y644392D01*
X999572Y644164D01*
X999118Y643946D01*
X998659Y643740D01*
X998195Y643545D01*
X997726Y643361D01*
X997254Y643188D01*
X996777Y643027D01*
X996296Y642877D01*
X995812Y642739D01*
X995325Y642613D01*
X994834Y642498D01*
X994341Y642396D01*
X993846Y642305D01*
X993349Y642226D01*
X992850Y642160D01*
X992350Y642105D01*
X991848Y642063D01*
X991345Y642032D01*
X990842Y642014D01*
X990339Y642008D01*
X1023698Y680499D02*
X1023959Y680930D01*
X1024230Y681354D01*
X1024511Y681772D01*
X1024802Y682182D01*
X1025104Y682586D01*
X1025414Y682982D01*
X1025735Y683370D01*
X1026064Y683751D01*
X1026403Y684123D01*
X1026750Y684488D01*
X1027107Y684843D01*
X1027471Y685191D01*
X1027844Y685529D01*
X1028225Y685858D01*
X1028614Y686177D01*
X1029011Y686488D01*
X1029414Y686788D01*
X1029825Y687079D01*
X1030243Y687360D01*
X1030668Y687630D01*
X1031099Y687891D01*
X1031536Y688140D01*
X1031979Y688380D01*
X1032428Y688608D01*
X1032882Y688825D01*
X1033341Y689032D01*
X1033805Y689227D01*
X1034273Y689411D01*
X1034746Y689584D01*
X1035223Y689745D01*
X1035704Y689895D01*
X1036188Y690033D01*
X1036675Y690159D01*
X1037166Y690274D01*
X1037658Y690376D01*
X1038154Y690467D01*
X1038651Y690546D01*
X1039150Y690612D01*
X1039650Y690667D01*
X1040152Y690709D01*
X1040654Y690740D01*
X1041158Y690758D01*
X1041661Y690764D01*
X1023698Y680499D02*
X1008302Y652272D01*
X969810Y734103D02*
X1062190Y734103D01*
X1062190Y744367D02*
X1062190Y723838D01*
X969810Y723838D02*
X969810Y744367D01*
X1549661Y499632D02*
X1550157Y499626D01*
X1550653Y499608D01*
X1551148Y499578D01*
X1551642Y499536D01*
X1552135Y499482D01*
X1552627Y499417D01*
X1553117Y499339D01*
X1553605Y499250D01*
X1554091Y499148D01*
X1554574Y499035D01*
X1555054Y498911D01*
X1555531Y498775D01*
X1556005Y498627D01*
X1556475Y498468D01*
X1556941Y498298D01*
X1557402Y498116D01*
X1557860Y497924D01*
X1558312Y497720D01*
X1558759Y497506D01*
X1559201Y497281D01*
X1559638Y497045D01*
X1560068Y496798D01*
X1560493Y496542D01*
X1560911Y496275D01*
X1561323Y495998D01*
X1561728Y495711D01*
X1562125Y495415D01*
X1562516Y495109D01*
X1562899Y494794D01*
X1563274Y494469D01*
X1563642Y494136D01*
X1564001Y493794D01*
X1564352Y493443D01*
X1564694Y493084D01*
X1565027Y492716D01*
X1565352Y492341D01*
X1565667Y491958D01*
X1565973Y491567D01*
X1566269Y491170D01*
X1566556Y490765D01*
X1566833Y490353D01*
X1567100Y489935D01*
X1567356Y489510D01*
X1567603Y489080D01*
X1567839Y488643D01*
X1568064Y488201D01*
X1568278Y487754D01*
X1568482Y487302D01*
X1568674Y486844D01*
X1568856Y486383D01*
X1569026Y485917D01*
X1569185Y485447D01*
X1569333Y484973D01*
X1569469Y484496D01*
X1569593Y484016D01*
X1569706Y483533D01*
X1569808Y483047D01*
X1569897Y482559D01*
X1569975Y482069D01*
X1570040Y481577D01*
X1570094Y481084D01*
X1570136Y480590D01*
X1570166Y480095D01*
X1570184Y479599D01*
X1570190Y479103D01*
X1570191Y479103D02*
X1570179Y478065D01*
X1570141Y477029D01*
X1570079Y475993D01*
X1569993Y474959D01*
X1569881Y473927D01*
X1569745Y472899D01*
X1569584Y471873D01*
X1569399Y470852D01*
X1569189Y469836D01*
X1568956Y468825D01*
X1568698Y467820D01*
X1568416Y466822D01*
X1568110Y465830D01*
X1567781Y464846D01*
X1567428Y463870D01*
X1567052Y462903D01*
X1566653Y461946D01*
X1566231Y460998D01*
X1565786Y460060D01*
X1565320Y459133D01*
X1564831Y458218D01*
X1564320Y457315D01*
X1563788Y456424D01*
X1563235Y455546D01*
X1562661Y454681D01*
X1562067Y453831D01*
X1561452Y452995D01*
X1560817Y452174D01*
X1560163Y451369D01*
X1559490Y450579D01*
X1558799Y449805D01*
X1558089Y449049D01*
X1557361Y448309D01*
X1498339Y450876D02*
X1497843Y450882D01*
X1497347Y450900D01*
X1496852Y450930D01*
X1496358Y450972D01*
X1495865Y451026D01*
X1495373Y451091D01*
X1494883Y451169D01*
X1494395Y451258D01*
X1493909Y451360D01*
X1493426Y451473D01*
X1492946Y451597D01*
X1492469Y451733D01*
X1491995Y451881D01*
X1491525Y452040D01*
X1491059Y452210D01*
X1490598Y452392D01*
X1490140Y452584D01*
X1489688Y452788D01*
X1489241Y453002D01*
X1488799Y453227D01*
X1488362Y453463D01*
X1487932Y453710D01*
X1487507Y453966D01*
X1487089Y454233D01*
X1486677Y454510D01*
X1486272Y454797D01*
X1485875Y455093D01*
X1485484Y455399D01*
X1485101Y455714D01*
X1484726Y456039D01*
X1484358Y456372D01*
X1483999Y456714D01*
X1483648Y457065D01*
X1483306Y457424D01*
X1482973Y457792D01*
X1482648Y458167D01*
X1482333Y458550D01*
X1482027Y458941D01*
X1481731Y459338D01*
X1481444Y459743D01*
X1481167Y460155D01*
X1480900Y460573D01*
X1480644Y460998D01*
X1480397Y461428D01*
X1480161Y461865D01*
X1479936Y462307D01*
X1479722Y462754D01*
X1479518Y463206D01*
X1479326Y463664D01*
X1479144Y464125D01*
X1478974Y464591D01*
X1478815Y465061D01*
X1478667Y465535D01*
X1478531Y466012D01*
X1478407Y466492D01*
X1478294Y466975D01*
X1478192Y467461D01*
X1478103Y467949D01*
X1478025Y468439D01*
X1477960Y468931D01*
X1477906Y469424D01*
X1477864Y469918D01*
X1477834Y470413D01*
X1477816Y470909D01*
X1477810Y471405D01*
X1477821Y472322D01*
X1477854Y473239D01*
X1477908Y474155D01*
X1477985Y475069D01*
X1478083Y475981D01*
X1478203Y476891D01*
X1478344Y477797D01*
X1478508Y478700D01*
X1478692Y479598D01*
X1478898Y480492D01*
X1479125Y481381D01*
X1479374Y482264D01*
X1479643Y483141D01*
X1479933Y484011D01*
X1480244Y484874D01*
X1480575Y485730D01*
X1480926Y486577D01*
X1481298Y487416D01*
X1481690Y488246D01*
X1482101Y489066D01*
X1482531Y489876D01*
X1482981Y490675D01*
X1483450Y491464D01*
X1483937Y492241D01*
X1484443Y493006D01*
X1484967Y493759D01*
X1485508Y494500D01*
X1516301Y461140D02*
X1516041Y460710D01*
X1515769Y460286D01*
X1515488Y459868D01*
X1515197Y459457D01*
X1514896Y459054D01*
X1514585Y458658D01*
X1514265Y458269D01*
X1513935Y457889D01*
X1513597Y457516D01*
X1513249Y457152D01*
X1512893Y456796D01*
X1512528Y456449D01*
X1512155Y456111D01*
X1511774Y455782D01*
X1511385Y455462D01*
X1510989Y455152D01*
X1510585Y454852D01*
X1510174Y454561D01*
X1509756Y454280D01*
X1509332Y454009D01*
X1508901Y453749D01*
X1508464Y453499D01*
X1508021Y453260D01*
X1507572Y453032D01*
X1507118Y452814D01*
X1506659Y452608D01*
X1506195Y452413D01*
X1505726Y452229D01*
X1505254Y452056D01*
X1504777Y451895D01*
X1504296Y451745D01*
X1503812Y451607D01*
X1503325Y451481D01*
X1502834Y451366D01*
X1502341Y451264D01*
X1501846Y451173D01*
X1501349Y451094D01*
X1500850Y451028D01*
X1500350Y450973D01*
X1499848Y450931D01*
X1499345Y450900D01*
X1498842Y450882D01*
X1498339Y450876D01*
X1531698Y489367D02*
X1531959Y489798D01*
X1532230Y490222D01*
X1532511Y490640D01*
X1532802Y491050D01*
X1533104Y491454D01*
X1533414Y491850D01*
X1533735Y492238D01*
X1534064Y492619D01*
X1534403Y492991D01*
X1534750Y493356D01*
X1535107Y493711D01*
X1535471Y494059D01*
X1535844Y494397D01*
X1536225Y494726D01*
X1536614Y495045D01*
X1537011Y495356D01*
X1537414Y495656D01*
X1537825Y495947D01*
X1538243Y496228D01*
X1538668Y496498D01*
X1539099Y496759D01*
X1539536Y497008D01*
X1539979Y497248D01*
X1540428Y497476D01*
X1540882Y497693D01*
X1541341Y497900D01*
X1541805Y498095D01*
X1542273Y498279D01*
X1542746Y498452D01*
X1543223Y498613D01*
X1543704Y498763D01*
X1544188Y498901D01*
X1544675Y499027D01*
X1545166Y499142D01*
X1545658Y499244D01*
X1546154Y499335D01*
X1546651Y499414D01*
X1547150Y499480D01*
X1547650Y499535D01*
X1548152Y499577D01*
X1548654Y499608D01*
X1549158Y499626D01*
X1549661Y499632D01*
X1531698Y489368D02*
X1516302Y461140D01*
X1570190Y563103D02*
X1570184Y563599D01*
X1570166Y564095D01*
X1570136Y564590D01*
X1570094Y565084D01*
X1570040Y565577D01*
X1569975Y566069D01*
X1569897Y566559D01*
X1569808Y567047D01*
X1569706Y567533D01*
X1569593Y568016D01*
X1569469Y568496D01*
X1569333Y568973D01*
X1569185Y569447D01*
X1569026Y569917D01*
X1568856Y570383D01*
X1568674Y570844D01*
X1568482Y571302D01*
X1568278Y571754D01*
X1568064Y572201D01*
X1567839Y572643D01*
X1567603Y573080D01*
X1567356Y573510D01*
X1567100Y573935D01*
X1566833Y574353D01*
X1566556Y574765D01*
X1566269Y575170D01*
X1565973Y575567D01*
X1565667Y575958D01*
X1565352Y576341D01*
X1565027Y576716D01*
X1564694Y577084D01*
X1564352Y577443D01*
X1564001Y577794D01*
X1563642Y578136D01*
X1563274Y578469D01*
X1562899Y578794D01*
X1562516Y579109D01*
X1562125Y579415D01*
X1561728Y579711D01*
X1561323Y579998D01*
X1560911Y580275D01*
X1560493Y580542D01*
X1560068Y580798D01*
X1559638Y581045D01*
X1559201Y581281D01*
X1558759Y581506D01*
X1558312Y581720D01*
X1557860Y581924D01*
X1557402Y582116D01*
X1556941Y582298D01*
X1556475Y582468D01*
X1556005Y582627D01*
X1555531Y582775D01*
X1555054Y582911D01*
X1554574Y583035D01*
X1554091Y583148D01*
X1553605Y583250D01*
X1553117Y583339D01*
X1552627Y583417D01*
X1552135Y583482D01*
X1551642Y583536D01*
X1551148Y583578D01*
X1550653Y583608D01*
X1550157Y583626D01*
X1549661Y583632D01*
X1570191Y563103D02*
X1570179Y562065D01*
X1570141Y561029D01*
X1570079Y559993D01*
X1569993Y558959D01*
X1569881Y557927D01*
X1569745Y556899D01*
X1569584Y555873D01*
X1569399Y554852D01*
X1569189Y553836D01*
X1568956Y552825D01*
X1568698Y551820D01*
X1568416Y550822D01*
X1568110Y549830D01*
X1567781Y548846D01*
X1567428Y547870D01*
X1567052Y546903D01*
X1566653Y545946D01*
X1566231Y544998D01*
X1565786Y544060D01*
X1565320Y543133D01*
X1564831Y542218D01*
X1564320Y541315D01*
X1563788Y540424D01*
X1563235Y539546D01*
X1562661Y538681D01*
X1562067Y537831D01*
X1561452Y536995D01*
X1560817Y536174D01*
X1560163Y535369D01*
X1559490Y534579D01*
X1558799Y533805D01*
X1558089Y533049D01*
X1557361Y532309D01*
X1498339Y534876D02*
X1497843Y534882D01*
X1497347Y534900D01*
X1496852Y534930D01*
X1496358Y534972D01*
X1495865Y535026D01*
X1495373Y535091D01*
X1494883Y535169D01*
X1494395Y535258D01*
X1493909Y535360D01*
X1493426Y535473D01*
X1492946Y535597D01*
X1492469Y535733D01*
X1491995Y535881D01*
X1491525Y536040D01*
X1491059Y536210D01*
X1490598Y536392D01*
X1490140Y536584D01*
X1489688Y536788D01*
X1489241Y537002D01*
X1488799Y537227D01*
X1488362Y537463D01*
X1487932Y537710D01*
X1487507Y537966D01*
X1487089Y538233D01*
X1486677Y538510D01*
X1486272Y538797D01*
X1485875Y539093D01*
X1485484Y539399D01*
X1485101Y539714D01*
X1484726Y540039D01*
X1484358Y540372D01*
X1483999Y540714D01*
X1483648Y541065D01*
X1483306Y541424D01*
X1482973Y541792D01*
X1482648Y542167D01*
X1482333Y542550D01*
X1482027Y542941D01*
X1481731Y543338D01*
X1481444Y543743D01*
X1481167Y544155D01*
X1480900Y544573D01*
X1480644Y544998D01*
X1480397Y545428D01*
X1480161Y545865D01*
X1479936Y546307D01*
X1479722Y546754D01*
X1479518Y547206D01*
X1479326Y547664D01*
X1479144Y548125D01*
X1478974Y548591D01*
X1478815Y549061D01*
X1478667Y549535D01*
X1478531Y550012D01*
X1478407Y550492D01*
X1478294Y550975D01*
X1478192Y551461D01*
X1478103Y551949D01*
X1478025Y552439D01*
X1477960Y552931D01*
X1477906Y553424D01*
X1477864Y553918D01*
X1477834Y554413D01*
X1477816Y554909D01*
X1477810Y555405D01*
X1477821Y556322D01*
X1477854Y557239D01*
X1477908Y558155D01*
X1477985Y559069D01*
X1478083Y559981D01*
X1478203Y560891D01*
X1478344Y561797D01*
X1478508Y562700D01*
X1478692Y563598D01*
X1478898Y564492D01*
X1479125Y565381D01*
X1479374Y566264D01*
X1479643Y567141D01*
X1479933Y568011D01*
X1480244Y568874D01*
X1480575Y569730D01*
X1480926Y570577D01*
X1481298Y571416D01*
X1481690Y572246D01*
X1482101Y573066D01*
X1482531Y573876D01*
X1482981Y574675D01*
X1483450Y575464D01*
X1483937Y576241D01*
X1484443Y577006D01*
X1484967Y577759D01*
X1485508Y578500D01*
X1516301Y545140D02*
X1516041Y544710D01*
X1515769Y544286D01*
X1515488Y543868D01*
X1515197Y543457D01*
X1514896Y543054D01*
X1514585Y542658D01*
X1514265Y542269D01*
X1513935Y541889D01*
X1513597Y541516D01*
X1513249Y541152D01*
X1512893Y540796D01*
X1512528Y540449D01*
X1512155Y540111D01*
X1511774Y539782D01*
X1511385Y539462D01*
X1510989Y539152D01*
X1510585Y538852D01*
X1510174Y538561D01*
X1509756Y538280D01*
X1509332Y538009D01*
X1508901Y537749D01*
X1508464Y537499D01*
X1508021Y537260D01*
X1507572Y537032D01*
X1507118Y536814D01*
X1506659Y536608D01*
X1506195Y536413D01*
X1505726Y536229D01*
X1505254Y536056D01*
X1504777Y535895D01*
X1504296Y535745D01*
X1503812Y535607D01*
X1503325Y535481D01*
X1502834Y535366D01*
X1502341Y535264D01*
X1501846Y535173D01*
X1501349Y535094D01*
X1500850Y535028D01*
X1500350Y534973D01*
X1499848Y534931D01*
X1499345Y534900D01*
X1498842Y534882D01*
X1498339Y534876D01*
X1531698Y573367D02*
X1531959Y573798D01*
X1532230Y574222D01*
X1532511Y574640D01*
X1532802Y575050D01*
X1533104Y575454D01*
X1533414Y575850D01*
X1533735Y576238D01*
X1534064Y576619D01*
X1534403Y576991D01*
X1534750Y577356D01*
X1535107Y577711D01*
X1535471Y578059D01*
X1535844Y578397D01*
X1536225Y578726D01*
X1536614Y579045D01*
X1537011Y579356D01*
X1537414Y579656D01*
X1537825Y579947D01*
X1538243Y580228D01*
X1538668Y580498D01*
X1539099Y580759D01*
X1539536Y581008D01*
X1539979Y581248D01*
X1540428Y581476D01*
X1540882Y581693D01*
X1541341Y581900D01*
X1541805Y582095D01*
X1542273Y582279D01*
X1542746Y582452D01*
X1543223Y582613D01*
X1543704Y582763D01*
X1544188Y582901D01*
X1544675Y583027D01*
X1545166Y583142D01*
X1545658Y583244D01*
X1546154Y583335D01*
X1546651Y583414D01*
X1547150Y583480D01*
X1547650Y583535D01*
X1548152Y583577D01*
X1548654Y583608D01*
X1549158Y583626D01*
X1549661Y583632D01*
X1531698Y573367D02*
X1516302Y545140D01*
X1803661Y499632D02*
X1804157Y499626D01*
X1804653Y499608D01*
X1805148Y499578D01*
X1805642Y499536D01*
X1806135Y499482D01*
X1806627Y499417D01*
X1807117Y499339D01*
X1807605Y499250D01*
X1808091Y499148D01*
X1808574Y499035D01*
X1809054Y498911D01*
X1809531Y498775D01*
X1810005Y498627D01*
X1810475Y498468D01*
X1810941Y498298D01*
X1811402Y498116D01*
X1811860Y497924D01*
X1812312Y497720D01*
X1812759Y497506D01*
X1813201Y497281D01*
X1813638Y497045D01*
X1814068Y496798D01*
X1814493Y496542D01*
X1814911Y496275D01*
X1815323Y495998D01*
X1815728Y495711D01*
X1816125Y495415D01*
X1816516Y495109D01*
X1816899Y494794D01*
X1817274Y494469D01*
X1817642Y494136D01*
X1818001Y493794D01*
X1818352Y493443D01*
X1818694Y493084D01*
X1819027Y492716D01*
X1819352Y492341D01*
X1819667Y491958D01*
X1819973Y491567D01*
X1820269Y491170D01*
X1820556Y490765D01*
X1820833Y490353D01*
X1821100Y489935D01*
X1821356Y489510D01*
X1821603Y489080D01*
X1821839Y488643D01*
X1822064Y488201D01*
X1822278Y487754D01*
X1822482Y487302D01*
X1822674Y486844D01*
X1822856Y486383D01*
X1823026Y485917D01*
X1823185Y485447D01*
X1823333Y484973D01*
X1823469Y484496D01*
X1823593Y484016D01*
X1823706Y483533D01*
X1823808Y483047D01*
X1823897Y482559D01*
X1823975Y482069D01*
X1824040Y481577D01*
X1824094Y481084D01*
X1824136Y480590D01*
X1824166Y480095D01*
X1824184Y479599D01*
X1824190Y479103D01*
X1824191Y479103D02*
X1824179Y478065D01*
X1824141Y477029D01*
X1824079Y475993D01*
X1823993Y474959D01*
X1823881Y473927D01*
X1823745Y472899D01*
X1823584Y471873D01*
X1823399Y470852D01*
X1823189Y469836D01*
X1822956Y468825D01*
X1822698Y467820D01*
X1822416Y466822D01*
X1822110Y465830D01*
X1821781Y464846D01*
X1821428Y463870D01*
X1821052Y462903D01*
X1820653Y461946D01*
X1820231Y460998D01*
X1819786Y460060D01*
X1819320Y459133D01*
X1818831Y458218D01*
X1818320Y457315D01*
X1817788Y456424D01*
X1817235Y455546D01*
X1816661Y454681D01*
X1816067Y453831D01*
X1815452Y452995D01*
X1814817Y452174D01*
X1814163Y451369D01*
X1813490Y450579D01*
X1812799Y449805D01*
X1812089Y449049D01*
X1811361Y448309D01*
X1752339Y450876D02*
X1751843Y450882D01*
X1751347Y450900D01*
X1750852Y450930D01*
X1750358Y450972D01*
X1749865Y451026D01*
X1749373Y451091D01*
X1748883Y451169D01*
X1748395Y451258D01*
X1747909Y451360D01*
X1747426Y451473D01*
X1746946Y451597D01*
X1746469Y451733D01*
X1745995Y451881D01*
X1745525Y452040D01*
X1745059Y452210D01*
X1744598Y452392D01*
X1744140Y452584D01*
X1743688Y452788D01*
X1743241Y453002D01*
X1742799Y453227D01*
X1742362Y453463D01*
X1741932Y453710D01*
X1741507Y453966D01*
X1741089Y454233D01*
X1740677Y454510D01*
X1740272Y454797D01*
X1739875Y455093D01*
X1739484Y455399D01*
X1739101Y455714D01*
X1738726Y456039D01*
X1738358Y456372D01*
X1737999Y456714D01*
X1737648Y457065D01*
X1737306Y457424D01*
X1736973Y457792D01*
X1736648Y458167D01*
X1736333Y458550D01*
X1736027Y458941D01*
X1735731Y459338D01*
X1735444Y459743D01*
X1735167Y460155D01*
X1734900Y460573D01*
X1734644Y460998D01*
X1734397Y461428D01*
X1734161Y461865D01*
X1733936Y462307D01*
X1733722Y462754D01*
X1733518Y463206D01*
X1733326Y463664D01*
X1733144Y464125D01*
X1732974Y464591D01*
X1732815Y465061D01*
X1732667Y465535D01*
X1732531Y466012D01*
X1732407Y466492D01*
X1732294Y466975D01*
X1732192Y467461D01*
X1732103Y467949D01*
X1732025Y468439D01*
X1731960Y468931D01*
X1731906Y469424D01*
X1731864Y469918D01*
X1731834Y470413D01*
X1731816Y470909D01*
X1731810Y471405D01*
X1731821Y472322D01*
X1731854Y473239D01*
X1731908Y474155D01*
X1731985Y475069D01*
X1732083Y475981D01*
X1732203Y476891D01*
X1732344Y477797D01*
X1732508Y478700D01*
X1732692Y479598D01*
X1732898Y480492D01*
X1733125Y481381D01*
X1733374Y482264D01*
X1733643Y483141D01*
X1733933Y484011D01*
X1734244Y484874D01*
X1734575Y485730D01*
X1734926Y486577D01*
X1735298Y487416D01*
X1735690Y488246D01*
X1736101Y489066D01*
X1736531Y489876D01*
X1736981Y490675D01*
X1737450Y491464D01*
X1737937Y492241D01*
X1738443Y493006D01*
X1738967Y493759D01*
X1739508Y494500D01*
X1770301Y461140D02*
X1770041Y460710D01*
X1769769Y460286D01*
X1769488Y459868D01*
X1769197Y459457D01*
X1768896Y459054D01*
X1768585Y458658D01*
X1768265Y458269D01*
X1767935Y457889D01*
X1767597Y457516D01*
X1767249Y457152D01*
X1766893Y456796D01*
X1766528Y456449D01*
X1766155Y456111D01*
X1765774Y455782D01*
X1765385Y455462D01*
X1764989Y455152D01*
X1764585Y454852D01*
X1764174Y454561D01*
X1763756Y454280D01*
X1763332Y454009D01*
X1762901Y453749D01*
X1762464Y453499D01*
X1762021Y453260D01*
X1761572Y453032D01*
X1761118Y452814D01*
X1760659Y452608D01*
X1760195Y452413D01*
X1759726Y452229D01*
X1759254Y452056D01*
X1758777Y451895D01*
X1758296Y451745D01*
X1757812Y451607D01*
X1757325Y451481D01*
X1756834Y451366D01*
X1756341Y451264D01*
X1755846Y451173D01*
X1755349Y451094D01*
X1754850Y451028D01*
X1754350Y450973D01*
X1753848Y450931D01*
X1753345Y450900D01*
X1752842Y450882D01*
X1752339Y450876D01*
X1785698Y489367D02*
X1785959Y489798D01*
X1786230Y490222D01*
X1786511Y490640D01*
X1786802Y491050D01*
X1787104Y491454D01*
X1787414Y491850D01*
X1787735Y492238D01*
X1788064Y492619D01*
X1788403Y492991D01*
X1788750Y493356D01*
X1789107Y493711D01*
X1789471Y494059D01*
X1789844Y494397D01*
X1790225Y494726D01*
X1790614Y495045D01*
X1791011Y495356D01*
X1791414Y495656D01*
X1791825Y495947D01*
X1792243Y496228D01*
X1792668Y496498D01*
X1793099Y496759D01*
X1793536Y497008D01*
X1793979Y497248D01*
X1794428Y497476D01*
X1794882Y497693D01*
X1795341Y497900D01*
X1795805Y498095D01*
X1796273Y498279D01*
X1796746Y498452D01*
X1797223Y498613D01*
X1797704Y498763D01*
X1798188Y498901D01*
X1798675Y499027D01*
X1799166Y499142D01*
X1799658Y499244D01*
X1800154Y499335D01*
X1800651Y499414D01*
X1801150Y499480D01*
X1801650Y499535D01*
X1802152Y499577D01*
X1802654Y499608D01*
X1803158Y499626D01*
X1803661Y499632D01*
X1785698Y489368D02*
X1770302Y461140D01*
X1731810Y554971D02*
X1824190Y554971D01*
X1731810Y529310D02*
X1731810Y580632D01*
X1731810Y616309D02*
X1824190Y616309D01*
X1731810Y616309D02*
X1731810Y641970D01*
X1731817Y642590D01*
X1731840Y643210D01*
X1731877Y643829D01*
X1731930Y644447D01*
X1731997Y645063D01*
X1732079Y645678D01*
X1732176Y646290D01*
X1732288Y646900D01*
X1732415Y647507D01*
X1732556Y648111D01*
X1732711Y648711D01*
X1732881Y649308D01*
X1733066Y649900D01*
X1733265Y650487D01*
X1733478Y651070D01*
X1733704Y651647D01*
X1733945Y652218D01*
X1734200Y652784D01*
X1734468Y653343D01*
X1734749Y653895D01*
X1735044Y654441D01*
X1735352Y654979D01*
X1735673Y655510D01*
X1736006Y656033D01*
X1736352Y656547D01*
X1736711Y657053D01*
X1737081Y657550D01*
X1737464Y658039D01*
X1737858Y658517D01*
X1738263Y658986D01*
X1738680Y659446D01*
X1739108Y659895D01*
X1739546Y660333D01*
X1739995Y660761D01*
X1740455Y661178D01*
X1740924Y661583D01*
X1741402Y661977D01*
X1741891Y662360D01*
X1742388Y662730D01*
X1742894Y663089D01*
X1743408Y663435D01*
X1743931Y663768D01*
X1744462Y664089D01*
X1745000Y664397D01*
X1745546Y664692D01*
X1746098Y664973D01*
X1746657Y665241D01*
X1747223Y665496D01*
X1747794Y665737D01*
X1748371Y665963D01*
X1748954Y666176D01*
X1749541Y666375D01*
X1750133Y666560D01*
X1750730Y666730D01*
X1751330Y666885D01*
X1751934Y667026D01*
X1752541Y667153D01*
X1753151Y667265D01*
X1753763Y667362D01*
X1754378Y667444D01*
X1754994Y667511D01*
X1755612Y667564D01*
X1756231Y667601D01*
X1756851Y667624D01*
X1757471Y667631D01*
X1757471Y667632D02*
X1798529Y667632D01*
X1799149Y667625D01*
X1799769Y667602D01*
X1800388Y667565D01*
X1801006Y667512D01*
X1801622Y667445D01*
X1802237Y667363D01*
X1802849Y667266D01*
X1803459Y667154D01*
X1804066Y667027D01*
X1804670Y666886D01*
X1805270Y666731D01*
X1805867Y666561D01*
X1806459Y666376D01*
X1807046Y666177D01*
X1807629Y665964D01*
X1808206Y665738D01*
X1808777Y665497D01*
X1809343Y665242D01*
X1809902Y664974D01*
X1810454Y664693D01*
X1811000Y664398D01*
X1811538Y664090D01*
X1812069Y663769D01*
X1812592Y663436D01*
X1813106Y663090D01*
X1813612Y662731D01*
X1814110Y662361D01*
X1814598Y661978D01*
X1815076Y661584D01*
X1815545Y661178D01*
X1816005Y660762D01*
X1816454Y660334D01*
X1816892Y659895D01*
X1817320Y659446D01*
X1817737Y658987D01*
X1818142Y658518D01*
X1818536Y658039D01*
X1818919Y657551D01*
X1819289Y657054D01*
X1819648Y656548D01*
X1819994Y656033D01*
X1820327Y655511D01*
X1820648Y654980D01*
X1820956Y654442D01*
X1821251Y653896D01*
X1821532Y653344D01*
X1821800Y652784D01*
X1822055Y652219D01*
X1822296Y651647D01*
X1822523Y651070D01*
X1822735Y650488D01*
X1822934Y649900D01*
X1823119Y649308D01*
X1823289Y648712D01*
X1823444Y648112D01*
X1823586Y647508D01*
X1823712Y646901D01*
X1823824Y646291D01*
X1823921Y645678D01*
X1824003Y645064D01*
X1824070Y644447D01*
X1824123Y643829D01*
X1824160Y643210D01*
X1824183Y642591D01*
X1824190Y641971D01*
X1824190Y641970D02*
X1824190Y616309D01*
X1772868Y713611D02*
X1772868Y739272D01*
X1772876Y739897D01*
X1772898Y740521D01*
X1772936Y741145D01*
X1772990Y741768D01*
X1773058Y742389D01*
X1773141Y743008D01*
X1773240Y743625D01*
X1773353Y744240D01*
X1773482Y744851D01*
X1773625Y745460D01*
X1773783Y746064D01*
X1773956Y746665D01*
X1774143Y747261D01*
X1774345Y747853D01*
X1774561Y748439D01*
X1774792Y749020D01*
X1775036Y749595D01*
X1775294Y750164D01*
X1775566Y750727D01*
X1775852Y751282D01*
X1776151Y751831D01*
X1776464Y752372D01*
X1776789Y752906D01*
X1777128Y753431D01*
X1777479Y753948D01*
X1777843Y754456D01*
X1778218Y754955D01*
X1778606Y755445D01*
X1779006Y755926D01*
X1779417Y756396D01*
X1779840Y756856D01*
X1780274Y757306D01*
X1780718Y757745D01*
X1781173Y758174D01*
X1781639Y758591D01*
X1782114Y758996D01*
X1782600Y759390D01*
X1783094Y759772D01*
X1783598Y760142D01*
X1784111Y760499D01*
X1784632Y760844D01*
X1785161Y761176D01*
X1785699Y761495D01*
X1786243Y761801D01*
X1786796Y762093D01*
X1787355Y762372D01*
X1787921Y762638D01*
X1788493Y762889D01*
X1789071Y763126D01*
X1789655Y763350D01*
X1790244Y763559D01*
X1790837Y763753D01*
X1791436Y763933D01*
X1792038Y764099D01*
X1792645Y764249D01*
X1793255Y764385D01*
X1793868Y764506D01*
X1794484Y764612D01*
X1795102Y764703D01*
X1795722Y764779D01*
X1796344Y764840D01*
X1796968Y764885D01*
X1797592Y764916D01*
X1798217Y764931D01*
X1798841Y764931D01*
X1799466Y764916D01*
X1800090Y764885D01*
X1800714Y764840D01*
X1801336Y764779D01*
X1801956Y764703D01*
X1802574Y764612D01*
X1803190Y764506D01*
X1803803Y764385D01*
X1804413Y764249D01*
X1805020Y764099D01*
X1805622Y763933D01*
X1806221Y763753D01*
X1806814Y763559D01*
X1807403Y763350D01*
X1807987Y763126D01*
X1808565Y762889D01*
X1809137Y762638D01*
X1809703Y762372D01*
X1810262Y762093D01*
X1810815Y761801D01*
X1811360Y761495D01*
X1811897Y761176D01*
X1812426Y760844D01*
X1812947Y760499D01*
X1813460Y760142D01*
X1813964Y759772D01*
X1814458Y759390D01*
X1814944Y758996D01*
X1815419Y758591D01*
X1815885Y758174D01*
X1816340Y757745D01*
X1816784Y757306D01*
X1817218Y756856D01*
X1817641Y756396D01*
X1818052Y755926D01*
X1818452Y755445D01*
X1818840Y754955D01*
X1819215Y754456D01*
X1819579Y753948D01*
X1819930Y753431D01*
X1820269Y752906D01*
X1820594Y752372D01*
X1820907Y751831D01*
X1821206Y751282D01*
X1821492Y750727D01*
X1821764Y750164D01*
X1822022Y749595D01*
X1822266Y749020D01*
X1822497Y748439D01*
X1822713Y747853D01*
X1822915Y747261D01*
X1823102Y746665D01*
X1823275Y746064D01*
X1823433Y745460D01*
X1823576Y744851D01*
X1823705Y744240D01*
X1823818Y743625D01*
X1823917Y743008D01*
X1824000Y742389D01*
X1824068Y741768D01*
X1824122Y741145D01*
X1824160Y740521D01*
X1824182Y739897D01*
X1824190Y739272D01*
X1824190Y713611D01*
X1731810Y713611D01*
X1731810Y739272D01*
X1731816Y739772D01*
X1731834Y740272D01*
X1731865Y740771D01*
X1731907Y741269D01*
X1731962Y741766D01*
X1732029Y742261D01*
X1732108Y742755D01*
X1732198Y743246D01*
X1732301Y743736D01*
X1732416Y744222D01*
X1732542Y744706D01*
X1732680Y745186D01*
X1732830Y745663D01*
X1732992Y746137D01*
X1733165Y746606D01*
X1733349Y747070D01*
X1733544Y747530D01*
X1733751Y747986D01*
X1733969Y748436D01*
X1734197Y748880D01*
X1734437Y749319D01*
X1734687Y749752D01*
X1734947Y750179D01*
X1735218Y750599D01*
X1735499Y751013D01*
X1735790Y751419D01*
X1736090Y751819D01*
X1736401Y752211D01*
X1736721Y752595D01*
X1737050Y752971D01*
X1737388Y753340D01*
X1737735Y753700D01*
X1738090Y754051D01*
X1738454Y754393D01*
X1738827Y754727D01*
X1739207Y755052D01*
X1739595Y755367D01*
X1739991Y755672D01*
X1740394Y755968D01*
X1740804Y756254D01*
X1741221Y756530D01*
X1741645Y756795D01*
X1742075Y757051D01*
X1742510Y757295D01*
X1742952Y757529D01*
X1743400Y757752D01*
X1743852Y757965D01*
X1744310Y758166D01*
X1744772Y758356D01*
X1745239Y758534D01*
X1745711Y758701D01*
X1746186Y758857D01*
X1746664Y759001D01*
X1747147Y759133D01*
X1747632Y759254D01*
X1748120Y759363D01*
X1748610Y759460D01*
X1749103Y759544D01*
X1749597Y759617D01*
X1750094Y759678D01*
X1750591Y759726D01*
X1751090Y759763D01*
X1751589Y759787D01*
X1752089Y759799D01*
X1752589Y759799D01*
X1753089Y759787D01*
X1753588Y759763D01*
X1754087Y759726D01*
X1754584Y759678D01*
X1755081Y759617D01*
X1755575Y759544D01*
X1756068Y759460D01*
X1756558Y759363D01*
X1757046Y759254D01*
X1757531Y759133D01*
X1758014Y759001D01*
X1758492Y758857D01*
X1758967Y758701D01*
X1759439Y758534D01*
X1759906Y758356D01*
X1760368Y758166D01*
X1760826Y757965D01*
X1761278Y757752D01*
X1761726Y757529D01*
X1762168Y757295D01*
X1762604Y757051D01*
X1763033Y756795D01*
X1763457Y756530D01*
X1763874Y756254D01*
X1764284Y755968D01*
X1764687Y755672D01*
X1765083Y755367D01*
X1765471Y755052D01*
X1765851Y754727D01*
X1766224Y754393D01*
X1766588Y754051D01*
X1766943Y753700D01*
X1767290Y753340D01*
X1767628Y752971D01*
X1767957Y752595D01*
X1768277Y752211D01*
X1768588Y751819D01*
X1768888Y751419D01*
X1769179Y751013D01*
X1769460Y750599D01*
X1769731Y750179D01*
X1769991Y749752D01*
X1770241Y749319D01*
X1770481Y748880D01*
X1770709Y748436D01*
X1770927Y747986D01*
X1771134Y747530D01*
X1771329Y747070D01*
X1771513Y746606D01*
X1771686Y746137D01*
X1771848Y745663D01*
X1771998Y745186D01*
X1772136Y744706D01*
X1772262Y744222D01*
X1772377Y743736D01*
X1772480Y743246D01*
X1772570Y742755D01*
X1772649Y742261D01*
X1772716Y741766D01*
X1772771Y741269D01*
X1772813Y740771D01*
X1772844Y740272D01*
X1772862Y739772D01*
X1772868Y739272D01*
X1731810Y794177D02*
X1775434Y824970D01*
X1731810Y855763D01*
X1775434Y824970D02*
X1824190Y824970D01*
X2078190Y479103D02*
X2078190Y448310D01*
X2078190Y479103D02*
X2078184Y479599D01*
X2078166Y480095D01*
X2078136Y480590D01*
X2078094Y481084D01*
X2078040Y481577D01*
X2077975Y482069D01*
X2077897Y482559D01*
X2077808Y483047D01*
X2077706Y483533D01*
X2077593Y484016D01*
X2077469Y484496D01*
X2077333Y484973D01*
X2077185Y485447D01*
X2077026Y485917D01*
X2076856Y486383D01*
X2076674Y486844D01*
X2076482Y487302D01*
X2076278Y487754D01*
X2076064Y488201D01*
X2075839Y488643D01*
X2075603Y489080D01*
X2075356Y489510D01*
X2075100Y489935D01*
X2074833Y490353D01*
X2074556Y490765D01*
X2074269Y491170D01*
X2073973Y491567D01*
X2073667Y491958D01*
X2073352Y492341D01*
X2073027Y492716D01*
X2072694Y493084D01*
X2072352Y493443D01*
X2072001Y493794D01*
X2071642Y494136D01*
X2071274Y494469D01*
X2070899Y494794D01*
X2070516Y495109D01*
X2070125Y495415D01*
X2069728Y495711D01*
X2069323Y495998D01*
X2068911Y496275D01*
X2068493Y496542D01*
X2068068Y496798D01*
X2067638Y497045D01*
X2067201Y497281D01*
X2066759Y497506D01*
X2066312Y497720D01*
X2065860Y497924D01*
X2065402Y498116D01*
X2064941Y498298D01*
X2064475Y498468D01*
X2064005Y498627D01*
X2063531Y498775D01*
X2063054Y498911D01*
X2062574Y499035D01*
X2062091Y499148D01*
X2061605Y499250D01*
X2061117Y499339D01*
X2060627Y499417D01*
X2060135Y499482D01*
X2059642Y499536D01*
X2059148Y499578D01*
X2058653Y499608D01*
X2058157Y499626D01*
X2057661Y499632D01*
X2047397Y499632D01*
X2046893Y499626D01*
X2046390Y499607D01*
X2045887Y499576D01*
X2045385Y499533D01*
X2044884Y499478D01*
X2044385Y499410D01*
X2043887Y499330D01*
X2043392Y499238D01*
X2042899Y499133D01*
X2042409Y499017D01*
X2041922Y498888D01*
X2041438Y498748D01*
X2040957Y498596D01*
X2040481Y498432D01*
X2040009Y498256D01*
X2039541Y498069D01*
X2039078Y497871D01*
X2038620Y497661D01*
X2038167Y497440D01*
X2037720Y497208D01*
X2037278Y496965D01*
X2036843Y496711D01*
X2036414Y496447D01*
X2035992Y496172D01*
X2035576Y495887D01*
X2035168Y495592D01*
X2034767Y495287D01*
X2034374Y494972D01*
X2033988Y494648D01*
X2033611Y494314D01*
X2033242Y493971D01*
X2032881Y493619D01*
X2032529Y493259D01*
X2032186Y492890D01*
X2031852Y492512D01*
X2031528Y492127D01*
X2031213Y491733D01*
X2030908Y491332D01*
X2030613Y490924D01*
X2030328Y490508D01*
X2030053Y490086D01*
X2029789Y489657D01*
X2029535Y489222D01*
X2029292Y488780D01*
X2029060Y488333D01*
X2028839Y487880D01*
X2028629Y487422D01*
X2028431Y486959D01*
X2028244Y486492D01*
X2028068Y486019D01*
X2027904Y485543D01*
X2027752Y485062D01*
X2027612Y484579D01*
X2027483Y484091D01*
X2027367Y483601D01*
X2027263Y483108D01*
X2027170Y482613D01*
X2027090Y482116D01*
X2027022Y481616D01*
X2026967Y481115D01*
X2026924Y480614D01*
X2026893Y480111D01*
X2026874Y479607D01*
X2026868Y479103D01*
X2026868Y448310D01*
X1985810Y448310D01*
X1985810Y499632D01*
X1985810Y533178D02*
X2078190Y563971D01*
X1985810Y594764D01*
X1998641Y636008D02*
X2000284Y635231D01*
X2001945Y634494D01*
X2003623Y633796D01*
X2005317Y633139D01*
X2007027Y632523D01*
X2008751Y631947D01*
X2010488Y631413D01*
X2012237Y630920D01*
X2013998Y630469D01*
X2015769Y630060D01*
X2017549Y629694D01*
X2019337Y629371D01*
X2021133Y629090D01*
X2022934Y628852D01*
X2024741Y628657D01*
X2026552Y628505D01*
X2028367Y628397D01*
X2030183Y628332D01*
X2032000Y628310D01*
X1998640Y636007D02*
X1998205Y636163D01*
X1997774Y636328D01*
X1997347Y636504D01*
X1996925Y636691D01*
X1996507Y636887D01*
X1996094Y637094D01*
X1995686Y637311D01*
X1995283Y637537D01*
X1994886Y637774D01*
X1994495Y638019D01*
X1994111Y638275D01*
X1993732Y638539D01*
X1993360Y638813D01*
X1992995Y639096D01*
X1992636Y639387D01*
X1992285Y639687D01*
X1991942Y639996D01*
X1991606Y640313D01*
X1991277Y640638D01*
X1990957Y640971D01*
X1990645Y641311D01*
X1990341Y641659D01*
X1990046Y642014D01*
X1989760Y642377D01*
X1989482Y642746D01*
X1989214Y643122D01*
X1988955Y643504D01*
X1988705Y643892D01*
X1988464Y644287D01*
X1988234Y644687D01*
X1988013Y645093D01*
X1987802Y645503D01*
X1987601Y645919D01*
X1987410Y646340D01*
X1987230Y646765D01*
X1987060Y647195D01*
X1986900Y647628D01*
X1986751Y648065D01*
X1986613Y648506D01*
X1986486Y648950D01*
X1986369Y649397D01*
X1986263Y649846D01*
X1986168Y650298D01*
X1986085Y650752D01*
X1986012Y651209D01*
X1985950Y651666D01*
X1985900Y652125D01*
X1985861Y652586D01*
X1985832Y653047D01*
X1985816Y653508D01*
X1985810Y653970D01*
X1985816Y654432D01*
X1985832Y654893D01*
X1985861Y655354D01*
X1985900Y655815D01*
X1985950Y656274D01*
X1986012Y656731D01*
X1986085Y657188D01*
X1986168Y657642D01*
X1986263Y658094D01*
X1986369Y658543D01*
X1986486Y658990D01*
X1986613Y659434D01*
X1986751Y659875D01*
X1986900Y660312D01*
X1987060Y660746D01*
X1987230Y661175D01*
X1987410Y661600D01*
X1987601Y662021D01*
X1987802Y662437D01*
X1988013Y662848D01*
X1988234Y663253D01*
X1988465Y663653D01*
X1988705Y664048D01*
X1988955Y664436D01*
X1989214Y664818D01*
X1989482Y665194D01*
X1989760Y665564D01*
X1990046Y665926D01*
X1990342Y666281D01*
X1990645Y666629D01*
X1990957Y666970D01*
X1991278Y667302D01*
X1991606Y667627D01*
X1991942Y667944D01*
X1992286Y668253D01*
X1992637Y668553D01*
X1992995Y668844D01*
X1993360Y669127D01*
X1993732Y669401D01*
X1994111Y669665D01*
X1994496Y669921D01*
X1994887Y670167D01*
X1995284Y670403D01*
X1995686Y670629D01*
X1996094Y670846D01*
X1996507Y671053D01*
X1996925Y671249D01*
X1997347Y671436D01*
X1997774Y671612D01*
X1998206Y671778D01*
X1998641Y671933D01*
X1998641Y671934D02*
X2000284Y672710D01*
X2001945Y673448D01*
X2003623Y674145D01*
X2005317Y674803D01*
X2007027Y675419D01*
X2008751Y675995D01*
X2010488Y676529D01*
X2012237Y677022D01*
X2013998Y677473D01*
X2015769Y677881D01*
X2017549Y678248D01*
X2019337Y678571D01*
X2021133Y678852D01*
X2022934Y679090D01*
X2024741Y679285D01*
X2026552Y679437D01*
X2028366Y679545D01*
X2030183Y679610D01*
X2032000Y679632D01*
X2032000Y628310D02*
X2033817Y628332D01*
X2035634Y628397D01*
X2037448Y628505D01*
X2039259Y628657D01*
X2041066Y628852D01*
X2042867Y629090D01*
X2044663Y629371D01*
X2046451Y629694D01*
X2048231Y630060D01*
X2050002Y630469D01*
X2051763Y630920D01*
X2053512Y631413D01*
X2055249Y631947D01*
X2056973Y632523D01*
X2058683Y633139D01*
X2060377Y633796D01*
X2062055Y634494D01*
X2063717Y635231D01*
X2065360Y636008D01*
X2065360Y636007D02*
X2065795Y636162D01*
X2066226Y636327D01*
X2066653Y636504D01*
X2067075Y636690D01*
X2067493Y636887D01*
X2067906Y637093D01*
X2068314Y637310D01*
X2068717Y637537D01*
X2069113Y637773D01*
X2069504Y638019D01*
X2069889Y638274D01*
X2070268Y638539D01*
X2070640Y638813D01*
X2071005Y639095D01*
X2071363Y639387D01*
X2071715Y639687D01*
X2072058Y639996D01*
X2072394Y640312D01*
X2072723Y640637D01*
X2073043Y640970D01*
X2073355Y641311D01*
X2073659Y641659D01*
X2073954Y642014D01*
X2074240Y642376D01*
X2074518Y642745D01*
X2074786Y643121D01*
X2075045Y643504D01*
X2075295Y643892D01*
X2075536Y644286D01*
X2075766Y644687D01*
X2075987Y645092D01*
X2076198Y645503D01*
X2076399Y645919D01*
X2076590Y646340D01*
X2076770Y646765D01*
X2076940Y647194D01*
X2077100Y647628D01*
X2077249Y648065D01*
X2077387Y648506D01*
X2077514Y648950D01*
X2077631Y649397D01*
X2077737Y649846D01*
X2077832Y650298D01*
X2077915Y650752D01*
X2077988Y651208D01*
X2078050Y651666D01*
X2078100Y652125D01*
X2078139Y652586D01*
X2078168Y653047D01*
X2078184Y653508D01*
X2078190Y653970D01*
X2065360Y671933D02*
X2063717Y672710D01*
X2062056Y673448D01*
X2060378Y674145D01*
X2058683Y674803D01*
X2056973Y675419D01*
X2055250Y675995D01*
X2053513Y676529D01*
X2051763Y677022D01*
X2050003Y677473D01*
X2048232Y677881D01*
X2046452Y678248D01*
X2044663Y678571D01*
X2042868Y678852D01*
X2041066Y679090D01*
X2039259Y679285D01*
X2037448Y679437D01*
X2035634Y679545D01*
X2033817Y679610D01*
X2032000Y679632D01*
X2065360Y671932D02*
X2065795Y671777D01*
X2066226Y671612D01*
X2066653Y671436D01*
X2067076Y671249D01*
X2067494Y671053D01*
X2067907Y670846D01*
X2068314Y670629D01*
X2068717Y670403D01*
X2069114Y670166D01*
X2069505Y669920D01*
X2069890Y669665D01*
X2070268Y669400D01*
X2070640Y669127D01*
X2071005Y668844D01*
X2071364Y668553D01*
X2071715Y668252D01*
X2072058Y667944D01*
X2072394Y667627D01*
X2072723Y667302D01*
X2073043Y666969D01*
X2073355Y666629D01*
X2073659Y666281D01*
X2073954Y665926D01*
X2074240Y665563D01*
X2074518Y665194D01*
X2074786Y664818D01*
X2075045Y664436D01*
X2075295Y664048D01*
X2075536Y663653D01*
X2075766Y663253D01*
X2075987Y662847D01*
X2076198Y662437D01*
X2076399Y662021D01*
X2076590Y661600D01*
X2076770Y661175D01*
X2076940Y660745D01*
X2077100Y660312D01*
X2077249Y659875D01*
X2077387Y659434D01*
X2077514Y658990D01*
X2077631Y658543D01*
X2077737Y658094D01*
X2077832Y657642D01*
X2077915Y657188D01*
X2077988Y656731D01*
X2078050Y656274D01*
X2078100Y655815D01*
X2078139Y655354D01*
X2078168Y654893D01*
X2078184Y654432D01*
X2078190Y653970D01*
X2057661Y633442D02*
X2006339Y674499D01*
X2280868Y499632D02*
X2280868Y484235D01*
X2280868Y499632D02*
X2332190Y499632D01*
X2332190Y468839D01*
X2332184Y468343D01*
X2332166Y467847D01*
X2332136Y467352D01*
X2332094Y466858D01*
X2332040Y466365D01*
X2331975Y465873D01*
X2331897Y465383D01*
X2331808Y464895D01*
X2331706Y464409D01*
X2331593Y463926D01*
X2331469Y463446D01*
X2331333Y462969D01*
X2331185Y462495D01*
X2331026Y462025D01*
X2330856Y461559D01*
X2330674Y461098D01*
X2330482Y460640D01*
X2330278Y460188D01*
X2330064Y459741D01*
X2329839Y459299D01*
X2329603Y458862D01*
X2329356Y458432D01*
X2329100Y458007D01*
X2328833Y457589D01*
X2328556Y457177D01*
X2328269Y456772D01*
X2327973Y456375D01*
X2327667Y455984D01*
X2327352Y455601D01*
X2327027Y455226D01*
X2326694Y454858D01*
X2326352Y454499D01*
X2326001Y454148D01*
X2325642Y453806D01*
X2325274Y453473D01*
X2324899Y453148D01*
X2324516Y452833D01*
X2324125Y452527D01*
X2323728Y452231D01*
X2323323Y451944D01*
X2322911Y451667D01*
X2322493Y451400D01*
X2322068Y451144D01*
X2321638Y450897D01*
X2321201Y450661D01*
X2320759Y450436D01*
X2320312Y450222D01*
X2319860Y450018D01*
X2319402Y449826D01*
X2318941Y449644D01*
X2318475Y449474D01*
X2318005Y449315D01*
X2317531Y449167D01*
X2317054Y449031D01*
X2316574Y448907D01*
X2316091Y448794D01*
X2315605Y448692D01*
X2315117Y448603D01*
X2314627Y448525D01*
X2314135Y448460D01*
X2313642Y448406D01*
X2313148Y448364D01*
X2312653Y448334D01*
X2312157Y448316D01*
X2311661Y448310D01*
X2260339Y448310D01*
X2259835Y448316D01*
X2259332Y448335D01*
X2258829Y448366D01*
X2258327Y448409D01*
X2257826Y448464D01*
X2257327Y448532D01*
X2256829Y448612D01*
X2256334Y448704D01*
X2255841Y448809D01*
X2255351Y448925D01*
X2254864Y449054D01*
X2254380Y449194D01*
X2253900Y449346D01*
X2253423Y449510D01*
X2252951Y449686D01*
X2252483Y449873D01*
X2252020Y450071D01*
X2251562Y450281D01*
X2251109Y450502D01*
X2250662Y450734D01*
X2250220Y450977D01*
X2249785Y451231D01*
X2249356Y451495D01*
X2248934Y451770D01*
X2248518Y452055D01*
X2248110Y452350D01*
X2247709Y452655D01*
X2247316Y452970D01*
X2246930Y453294D01*
X2246553Y453628D01*
X2246184Y453971D01*
X2245823Y454323D01*
X2245471Y454683D01*
X2245128Y455052D01*
X2244794Y455430D01*
X2244470Y455815D01*
X2244155Y456209D01*
X2243850Y456610D01*
X2243555Y457018D01*
X2243270Y457433D01*
X2242995Y457856D01*
X2242731Y458285D01*
X2242477Y458720D01*
X2242234Y459161D01*
X2242002Y459609D01*
X2241781Y460061D01*
X2241571Y460519D01*
X2241373Y460982D01*
X2241186Y461450D01*
X2241010Y461923D01*
X2240846Y462399D01*
X2240694Y462879D01*
X2240554Y463363D01*
X2240425Y463850D01*
X2240309Y464341D01*
X2240205Y464833D01*
X2240112Y465329D01*
X2240032Y465826D01*
X2239964Y466325D01*
X2239909Y466826D01*
X2239866Y467328D01*
X2239835Y467831D01*
X2239816Y468335D01*
X2239810Y468838D01*
X2239810Y468839D02*
X2239810Y499632D01*
X2239810Y544310D02*
X2332190Y544310D01*
X2332190Y595632D02*
X2239810Y544310D01*
X2239810Y595632D02*
X2332190Y595632D01*
X2332190Y640309D02*
X2239810Y640309D01*
X2239810Y665970D01*
X2239817Y666590D01*
X2239840Y667210D01*
X2239877Y667829D01*
X2239930Y668447D01*
X2239997Y669063D01*
X2240079Y669678D01*
X2240176Y670290D01*
X2240288Y670900D01*
X2240415Y671507D01*
X2240556Y672111D01*
X2240711Y672711D01*
X2240881Y673308D01*
X2241066Y673900D01*
X2241265Y674487D01*
X2241478Y675070D01*
X2241704Y675647D01*
X2241945Y676218D01*
X2242200Y676784D01*
X2242468Y677343D01*
X2242749Y677895D01*
X2243044Y678441D01*
X2243352Y678979D01*
X2243673Y679510D01*
X2244006Y680033D01*
X2244352Y680547D01*
X2244711Y681053D01*
X2245081Y681550D01*
X2245464Y682039D01*
X2245858Y682517D01*
X2246263Y682986D01*
X2246680Y683446D01*
X2247108Y683895D01*
X2247546Y684333D01*
X2247995Y684761D01*
X2248455Y685178D01*
X2248924Y685583D01*
X2249402Y685977D01*
X2249891Y686360D01*
X2250388Y686730D01*
X2250894Y687089D01*
X2251408Y687435D01*
X2251931Y687768D01*
X2252462Y688089D01*
X2253000Y688397D01*
X2253546Y688692D01*
X2254098Y688973D01*
X2254657Y689241D01*
X2255223Y689496D01*
X2255794Y689737D01*
X2256371Y689963D01*
X2256954Y690176D01*
X2257541Y690375D01*
X2258133Y690560D01*
X2258730Y690730D01*
X2259330Y690885D01*
X2259934Y691026D01*
X2260541Y691153D01*
X2261151Y691265D01*
X2261763Y691362D01*
X2262378Y691444D01*
X2262994Y691511D01*
X2263612Y691564D01*
X2264231Y691601D01*
X2264851Y691624D01*
X2265471Y691631D01*
X2265471Y691632D02*
X2306529Y691632D01*
X2307149Y691625D01*
X2307769Y691602D01*
X2308388Y691565D01*
X2309006Y691512D01*
X2309622Y691445D01*
X2310237Y691363D01*
X2310849Y691266D01*
X2311459Y691154D01*
X2312066Y691027D01*
X2312670Y690886D01*
X2313270Y690731D01*
X2313867Y690561D01*
X2314459Y690376D01*
X2315046Y690177D01*
X2315629Y689964D01*
X2316206Y689738D01*
X2316777Y689497D01*
X2317343Y689242D01*
X2317902Y688974D01*
X2318454Y688693D01*
X2319000Y688398D01*
X2319538Y688090D01*
X2320069Y687769D01*
X2320592Y687436D01*
X2321106Y687090D01*
X2321612Y686731D01*
X2322110Y686361D01*
X2322598Y685978D01*
X2323076Y685584D01*
X2323545Y685178D01*
X2324005Y684762D01*
X2324454Y684334D01*
X2324892Y683895D01*
X2325320Y683446D01*
X2325737Y682987D01*
X2326142Y682518D01*
X2326536Y682039D01*
X2326919Y681551D01*
X2327289Y681054D01*
X2327648Y680548D01*
X2327994Y680033D01*
X2328327Y679511D01*
X2328648Y678980D01*
X2328956Y678442D01*
X2329251Y677896D01*
X2329532Y677344D01*
X2329800Y676784D01*
X2330055Y676219D01*
X2330296Y675647D01*
X2330523Y675070D01*
X2330735Y674488D01*
X2330934Y673900D01*
X2331119Y673308D01*
X2331289Y672712D01*
X2331444Y672112D01*
X2331586Y671508D01*
X2331712Y670901D01*
X2331824Y670291D01*
X2331921Y669678D01*
X2332003Y669064D01*
X2332070Y668447D01*
X2332123Y667829D01*
X2332160Y667210D01*
X2332183Y666591D01*
X2332190Y665971D01*
X2332190Y665970D02*
X2332190Y640309D01*
X1898161Y1719632D02*
X1882764Y1719632D01*
X1898161Y1719632D02*
X1898161Y1668310D01*
X1867368Y1668310D01*
X1866872Y1668316D01*
X1866376Y1668334D01*
X1865881Y1668364D01*
X1865387Y1668406D01*
X1864894Y1668460D01*
X1864402Y1668525D01*
X1863912Y1668603D01*
X1863424Y1668692D01*
X1862938Y1668794D01*
X1862455Y1668907D01*
X1861975Y1669031D01*
X1861498Y1669167D01*
X1861024Y1669315D01*
X1860554Y1669474D01*
X1860088Y1669644D01*
X1859627Y1669826D01*
X1859169Y1670018D01*
X1858717Y1670222D01*
X1858270Y1670436D01*
X1857828Y1670661D01*
X1857391Y1670897D01*
X1856961Y1671144D01*
X1856536Y1671400D01*
X1856118Y1671667D01*
X1855706Y1671944D01*
X1855301Y1672231D01*
X1854904Y1672527D01*
X1854513Y1672833D01*
X1854130Y1673148D01*
X1853755Y1673473D01*
X1853387Y1673806D01*
X1853028Y1674148D01*
X1852677Y1674499D01*
X1852335Y1674858D01*
X1852002Y1675226D01*
X1851677Y1675601D01*
X1851362Y1675984D01*
X1851056Y1676375D01*
X1850760Y1676772D01*
X1850473Y1677177D01*
X1850196Y1677589D01*
X1849929Y1678007D01*
X1849673Y1678432D01*
X1849426Y1678862D01*
X1849190Y1679299D01*
X1848965Y1679741D01*
X1848751Y1680188D01*
X1848547Y1680640D01*
X1848355Y1681098D01*
X1848173Y1681559D01*
X1848003Y1682025D01*
X1847844Y1682495D01*
X1847696Y1682969D01*
X1847560Y1683446D01*
X1847436Y1683926D01*
X1847323Y1684409D01*
X1847221Y1684895D01*
X1847132Y1685383D01*
X1847054Y1685873D01*
X1846989Y1686365D01*
X1846935Y1686858D01*
X1846893Y1687352D01*
X1846863Y1687847D01*
X1846845Y1688343D01*
X1846839Y1688839D01*
X1846839Y1740161D01*
X1846845Y1740665D01*
X1846864Y1741168D01*
X1846895Y1741671D01*
X1846938Y1742173D01*
X1846993Y1742674D01*
X1847061Y1743173D01*
X1847141Y1743671D01*
X1847233Y1744166D01*
X1847338Y1744659D01*
X1847454Y1745149D01*
X1847583Y1745636D01*
X1847723Y1746120D01*
X1847875Y1746601D01*
X1848039Y1747077D01*
X1848215Y1747549D01*
X1848402Y1748017D01*
X1848600Y1748480D01*
X1848810Y1748938D01*
X1849031Y1749391D01*
X1849263Y1749838D01*
X1849506Y1750280D01*
X1849760Y1750715D01*
X1850024Y1751144D01*
X1850299Y1751566D01*
X1850584Y1751982D01*
X1850879Y1752390D01*
X1851184Y1752791D01*
X1851499Y1753184D01*
X1851823Y1753570D01*
X1852157Y1753947D01*
X1852500Y1754316D01*
X1852852Y1754677D01*
X1853212Y1755029D01*
X1853581Y1755372D01*
X1853959Y1755706D01*
X1854344Y1756030D01*
X1854738Y1756345D01*
X1855139Y1756650D01*
X1855547Y1756945D01*
X1855963Y1757230D01*
X1856385Y1757505D01*
X1856814Y1757769D01*
X1857249Y1758023D01*
X1857691Y1758266D01*
X1858138Y1758498D01*
X1858591Y1758719D01*
X1859049Y1758929D01*
X1859512Y1759127D01*
X1859979Y1759314D01*
X1860452Y1759490D01*
X1860928Y1759654D01*
X1861409Y1759806D01*
X1861892Y1759946D01*
X1862380Y1760075D01*
X1862870Y1760191D01*
X1863363Y1760295D01*
X1863858Y1760388D01*
X1864355Y1760468D01*
X1864855Y1760536D01*
X1865356Y1760591D01*
X1865857Y1760634D01*
X1866360Y1760665D01*
X1866864Y1760684D01*
X1867368Y1760690D01*
X1898161Y1760690D01*
X1942839Y1760690D02*
X1942839Y1668310D01*
X1994161Y1668310D02*
X1942839Y1760690D01*
X1994161Y1760690D02*
X1994161Y1668310D01*
X2038838Y1668310D02*
X2038838Y1760690D01*
X2064499Y1760690D01*
X2065119Y1760683D01*
X2065739Y1760660D01*
X2066358Y1760623D01*
X2066976Y1760570D01*
X2067592Y1760503D01*
X2068207Y1760421D01*
X2068819Y1760324D01*
X2069429Y1760212D01*
X2070036Y1760085D01*
X2070640Y1759944D01*
X2071240Y1759789D01*
X2071837Y1759619D01*
X2072429Y1759434D01*
X2073016Y1759235D01*
X2073599Y1759022D01*
X2074176Y1758796D01*
X2074747Y1758555D01*
X2075313Y1758300D01*
X2075872Y1758032D01*
X2076424Y1757751D01*
X2076970Y1757456D01*
X2077508Y1757148D01*
X2078039Y1756827D01*
X2078562Y1756494D01*
X2079076Y1756148D01*
X2079582Y1755789D01*
X2080079Y1755419D01*
X2080568Y1755036D01*
X2081046Y1754642D01*
X2081515Y1754237D01*
X2081975Y1753820D01*
X2082424Y1753392D01*
X2082862Y1752954D01*
X2083290Y1752505D01*
X2083707Y1752045D01*
X2084112Y1751576D01*
X2084506Y1751098D01*
X2084889Y1750609D01*
X2085259Y1750112D01*
X2085618Y1749606D01*
X2085964Y1749092D01*
X2086297Y1748569D01*
X2086618Y1748038D01*
X2086926Y1747500D01*
X2087221Y1746954D01*
X2087502Y1746402D01*
X2087770Y1745843D01*
X2088025Y1745277D01*
X2088266Y1744706D01*
X2088492Y1744129D01*
X2088705Y1743546D01*
X2088904Y1742959D01*
X2089089Y1742367D01*
X2089259Y1741770D01*
X2089414Y1741170D01*
X2089555Y1740566D01*
X2089682Y1739959D01*
X2089794Y1739349D01*
X2089891Y1738737D01*
X2089973Y1738122D01*
X2090040Y1737506D01*
X2090093Y1736888D01*
X2090130Y1736269D01*
X2090153Y1735649D01*
X2090160Y1735029D01*
X2090161Y1735029D02*
X2090161Y1693971D01*
X2090154Y1693351D01*
X2090131Y1692731D01*
X2090094Y1692112D01*
X2090041Y1691494D01*
X2089974Y1690878D01*
X2089892Y1690263D01*
X2089795Y1689651D01*
X2089683Y1689041D01*
X2089556Y1688434D01*
X2089415Y1687830D01*
X2089260Y1687230D01*
X2089090Y1686633D01*
X2088905Y1686041D01*
X2088706Y1685454D01*
X2088493Y1684871D01*
X2088267Y1684294D01*
X2088026Y1683723D01*
X2087771Y1683157D01*
X2087503Y1682598D01*
X2087222Y1682046D01*
X2086927Y1681500D01*
X2086619Y1680962D01*
X2086298Y1680431D01*
X2085965Y1679908D01*
X2085619Y1679394D01*
X2085260Y1678888D01*
X2084890Y1678390D01*
X2084507Y1677902D01*
X2084113Y1677424D01*
X2083707Y1676955D01*
X2083291Y1676495D01*
X2082863Y1676046D01*
X2082424Y1675608D01*
X2081975Y1675180D01*
X2081516Y1674763D01*
X2081047Y1674358D01*
X2080568Y1673964D01*
X2080080Y1673581D01*
X2079583Y1673211D01*
X2079077Y1672852D01*
X2078562Y1672506D01*
X2078040Y1672173D01*
X2077509Y1671852D01*
X2076971Y1671544D01*
X2076425Y1671249D01*
X2075873Y1670968D01*
X2075313Y1670700D01*
X2074748Y1670445D01*
X2074176Y1670204D01*
X2073599Y1669977D01*
X2073017Y1669765D01*
X2072429Y1669566D01*
X2071837Y1669381D01*
X2071241Y1669211D01*
X2070641Y1669056D01*
X2070037Y1668914D01*
X2069430Y1668788D01*
X2068820Y1668676D01*
X2068207Y1668579D01*
X2067593Y1668497D01*
X2066976Y1668430D01*
X2066358Y1668377D01*
X2065739Y1668340D01*
X2065120Y1668317D01*
X2064500Y1668310D01*
X2064499Y1668310D02*
X2038838Y1668310D01*
D11*
X866750Y1343000D02*
X866750Y1293000D01*
X866750Y1343000D02*
X816750Y1343000D01*
X466750Y1343000D02*
X466750Y1293000D01*
X466750Y1343000D02*
X516750Y1343000D01*
X466750Y993000D02*
X466750Y943000D01*
X516750Y943000D01*
X866750Y943000D02*
X866750Y993000D01*
X866750Y943000D02*
X816750Y943000D01*
D12*
X906750Y1393000D02*
X906753Y1393245D01*
X906762Y1393491D01*
X906777Y1393736D01*
X906798Y1393980D01*
X906825Y1394224D01*
X906858Y1394467D01*
X906897Y1394710D01*
X906942Y1394951D01*
X906993Y1395191D01*
X907050Y1395430D01*
X907112Y1395667D01*
X907181Y1395903D01*
X907255Y1396137D01*
X907335Y1396369D01*
X907420Y1396599D01*
X907511Y1396827D01*
X907608Y1397052D01*
X907710Y1397276D01*
X907818Y1397496D01*
X907931Y1397714D01*
X908049Y1397929D01*
X908173Y1398141D01*
X908301Y1398350D01*
X908435Y1398556D01*
X908574Y1398758D01*
X908718Y1398957D01*
X908867Y1399152D01*
X909020Y1399344D01*
X909178Y1399532D01*
X909340Y1399716D01*
X909508Y1399895D01*
X909679Y1400071D01*
X909855Y1400242D01*
X910034Y1400410D01*
X910218Y1400572D01*
X910406Y1400730D01*
X910598Y1400883D01*
X910793Y1401032D01*
X910992Y1401176D01*
X911194Y1401315D01*
X911400Y1401449D01*
X911609Y1401577D01*
X911821Y1401701D01*
X912036Y1401819D01*
X912254Y1401932D01*
X912474Y1402040D01*
X912698Y1402142D01*
X912923Y1402239D01*
X913151Y1402330D01*
X913381Y1402415D01*
X913613Y1402495D01*
X913847Y1402569D01*
X914083Y1402638D01*
X914320Y1402700D01*
X914559Y1402757D01*
X914799Y1402808D01*
X915040Y1402853D01*
X915283Y1402892D01*
X915526Y1402925D01*
X915770Y1402952D01*
X916014Y1402973D01*
X916259Y1402988D01*
X916505Y1402997D01*
X916750Y1403000D01*
X916995Y1402997D01*
X917241Y1402988D01*
X917486Y1402973D01*
X917730Y1402952D01*
X917974Y1402925D01*
X918217Y1402892D01*
X918460Y1402853D01*
X918701Y1402808D01*
X918941Y1402757D01*
X919180Y1402700D01*
X919417Y1402638D01*
X919653Y1402569D01*
X919887Y1402495D01*
X920119Y1402415D01*
X920349Y1402330D01*
X920577Y1402239D01*
X920802Y1402142D01*
X921026Y1402040D01*
X921246Y1401932D01*
X921464Y1401819D01*
X921679Y1401701D01*
X921891Y1401577D01*
X922100Y1401449D01*
X922306Y1401315D01*
X922508Y1401176D01*
X922707Y1401032D01*
X922902Y1400883D01*
X923094Y1400730D01*
X923282Y1400572D01*
X923466Y1400410D01*
X923645Y1400242D01*
X923821Y1400071D01*
X923992Y1399895D01*
X924160Y1399716D01*
X924322Y1399532D01*
X924480Y1399344D01*
X924633Y1399152D01*
X924782Y1398957D01*
X924926Y1398758D01*
X925065Y1398556D01*
X925199Y1398350D01*
X925327Y1398141D01*
X925451Y1397929D01*
X925569Y1397714D01*
X925682Y1397496D01*
X925790Y1397276D01*
X925892Y1397052D01*
X925989Y1396827D01*
X926080Y1396599D01*
X926165Y1396369D01*
X926245Y1396137D01*
X926319Y1395903D01*
X926388Y1395667D01*
X926450Y1395430D01*
X926507Y1395191D01*
X926558Y1394951D01*
X926603Y1394710D01*
X926642Y1394467D01*
X926675Y1394224D01*
X926702Y1393980D01*
X926723Y1393736D01*
X926738Y1393491D01*
X926747Y1393245D01*
X926750Y1393000D01*
X926747Y1392755D01*
X926738Y1392509D01*
X926723Y1392264D01*
X926702Y1392020D01*
X926675Y1391776D01*
X926642Y1391533D01*
X926603Y1391290D01*
X926558Y1391049D01*
X926507Y1390809D01*
X926450Y1390570D01*
X926388Y1390333D01*
X926319Y1390097D01*
X926245Y1389863D01*
X926165Y1389631D01*
X926080Y1389401D01*
X925989Y1389173D01*
X925892Y1388948D01*
X925790Y1388724D01*
X925682Y1388504D01*
X925569Y1388286D01*
X925451Y1388071D01*
X925327Y1387859D01*
X925199Y1387650D01*
X925065Y1387444D01*
X924926Y1387242D01*
X924782Y1387043D01*
X924633Y1386848D01*
X924480Y1386656D01*
X924322Y1386468D01*
X924160Y1386284D01*
X923992Y1386105D01*
X923821Y1385929D01*
X923645Y1385758D01*
X923466Y1385590D01*
X923282Y1385428D01*
X923094Y1385270D01*
X922902Y1385117D01*
X922707Y1384968D01*
X922508Y1384824D01*
X922306Y1384685D01*
X922100Y1384551D01*
X921891Y1384423D01*
X921679Y1384299D01*
X921464Y1384181D01*
X921246Y1384068D01*
X921026Y1383960D01*
X920802Y1383858D01*
X920577Y1383761D01*
X920349Y1383670D01*
X920119Y1383585D01*
X919887Y1383505D01*
X919653Y1383431D01*
X919417Y1383362D01*
X919180Y1383300D01*
X918941Y1383243D01*
X918701Y1383192D01*
X918460Y1383147D01*
X918217Y1383108D01*
X917974Y1383075D01*
X917730Y1383048D01*
X917486Y1383027D01*
X917241Y1383012D01*
X916995Y1383003D01*
X916750Y1383000D01*
X916505Y1383003D01*
X916259Y1383012D01*
X916014Y1383027D01*
X915770Y1383048D01*
X915526Y1383075D01*
X915283Y1383108D01*
X915040Y1383147D01*
X914799Y1383192D01*
X914559Y1383243D01*
X914320Y1383300D01*
X914083Y1383362D01*
X913847Y1383431D01*
X913613Y1383505D01*
X913381Y1383585D01*
X913151Y1383670D01*
X912923Y1383761D01*
X912698Y1383858D01*
X912474Y1383960D01*
X912254Y1384068D01*
X912036Y1384181D01*
X911821Y1384299D01*
X911609Y1384423D01*
X911400Y1384551D01*
X911194Y1384685D01*
X910992Y1384824D01*
X910793Y1384968D01*
X910598Y1385117D01*
X910406Y1385270D01*
X910218Y1385428D01*
X910034Y1385590D01*
X909855Y1385758D01*
X909679Y1385929D01*
X909508Y1386105D01*
X909340Y1386284D01*
X909178Y1386468D01*
X909020Y1386656D01*
X908867Y1386848D01*
X908718Y1387043D01*
X908574Y1387242D01*
X908435Y1387444D01*
X908301Y1387650D01*
X908173Y1387859D01*
X908049Y1388071D01*
X907931Y1388286D01*
X907818Y1388504D01*
X907710Y1388724D01*
X907608Y1388948D01*
X907511Y1389173D01*
X907420Y1389401D01*
X907335Y1389631D01*
X907255Y1389863D01*
X907181Y1390097D01*
X907112Y1390333D01*
X907050Y1390570D01*
X906993Y1390809D01*
X906942Y1391049D01*
X906897Y1391290D01*
X906858Y1391533D01*
X906825Y1391776D01*
X906798Y1392020D01*
X906777Y1392264D01*
X906762Y1392509D01*
X906753Y1392755D01*
X906750Y1393000D01*
D10*
X585552Y1415060D02*
X585552Y1507440D01*
X575288Y1415060D02*
X595816Y1415060D01*
X595816Y1507440D02*
X575288Y1507440D01*
X652164Y1415060D02*
X672693Y1415060D01*
X652164Y1415060D02*
X651668Y1415066D01*
X651172Y1415084D01*
X650677Y1415114D01*
X650183Y1415156D01*
X649690Y1415210D01*
X649198Y1415275D01*
X648708Y1415353D01*
X648220Y1415442D01*
X647734Y1415544D01*
X647251Y1415657D01*
X646771Y1415781D01*
X646294Y1415917D01*
X645820Y1416065D01*
X645350Y1416224D01*
X644884Y1416394D01*
X644423Y1416576D01*
X643965Y1416768D01*
X643513Y1416972D01*
X643066Y1417186D01*
X642624Y1417411D01*
X642187Y1417647D01*
X641757Y1417894D01*
X641332Y1418150D01*
X640914Y1418417D01*
X640502Y1418694D01*
X640097Y1418981D01*
X639700Y1419277D01*
X639309Y1419583D01*
X638926Y1419898D01*
X638551Y1420223D01*
X638183Y1420556D01*
X637824Y1420898D01*
X637473Y1421249D01*
X637131Y1421608D01*
X636798Y1421976D01*
X636473Y1422351D01*
X636158Y1422734D01*
X635852Y1423125D01*
X635556Y1423522D01*
X635269Y1423927D01*
X634992Y1424339D01*
X634725Y1424757D01*
X634469Y1425182D01*
X634222Y1425612D01*
X633986Y1426049D01*
X633761Y1426491D01*
X633547Y1426938D01*
X633343Y1427390D01*
X633151Y1427848D01*
X632969Y1428309D01*
X632799Y1428775D01*
X632640Y1429245D01*
X632492Y1429719D01*
X632356Y1430196D01*
X632232Y1430676D01*
X632119Y1431159D01*
X632017Y1431645D01*
X631928Y1432133D01*
X631850Y1432623D01*
X631785Y1433115D01*
X631731Y1433608D01*
X631689Y1434102D01*
X631659Y1434597D01*
X631641Y1435093D01*
X631635Y1435589D01*
X631636Y1435589D02*
X631636Y1486911D01*
X631642Y1487415D01*
X631661Y1487918D01*
X631692Y1488421D01*
X631735Y1488923D01*
X631790Y1489424D01*
X631858Y1489923D01*
X631938Y1490421D01*
X632030Y1490916D01*
X632135Y1491409D01*
X632251Y1491899D01*
X632380Y1492386D01*
X632520Y1492870D01*
X632672Y1493351D01*
X632836Y1493827D01*
X633012Y1494299D01*
X633199Y1494767D01*
X633397Y1495230D01*
X633607Y1495688D01*
X633828Y1496141D01*
X634060Y1496588D01*
X634303Y1497030D01*
X634557Y1497465D01*
X634821Y1497894D01*
X635096Y1498316D01*
X635381Y1498732D01*
X635676Y1499140D01*
X635981Y1499541D01*
X636296Y1499934D01*
X636620Y1500320D01*
X636954Y1500697D01*
X637297Y1501066D01*
X637649Y1501427D01*
X638009Y1501779D01*
X638378Y1502122D01*
X638756Y1502456D01*
X639141Y1502780D01*
X639535Y1503095D01*
X639936Y1503400D01*
X640344Y1503695D01*
X640760Y1503980D01*
X641182Y1504255D01*
X641611Y1504519D01*
X642046Y1504773D01*
X642488Y1505016D01*
X642935Y1505248D01*
X643388Y1505469D01*
X643846Y1505679D01*
X644309Y1505877D01*
X644776Y1506064D01*
X645249Y1506240D01*
X645725Y1506404D01*
X646206Y1506556D01*
X646689Y1506696D01*
X647177Y1506825D01*
X647667Y1506941D01*
X648160Y1507045D01*
X648655Y1507138D01*
X649152Y1507218D01*
X649652Y1507286D01*
X650153Y1507341D01*
X650654Y1507384D01*
X651157Y1507415D01*
X651661Y1507434D01*
X652165Y1507440D01*
X652164Y1507440D02*
X672693Y1507440D01*
X706890Y1486911D02*
X732551Y1507440D01*
X732551Y1415060D01*
X706890Y1415060D02*
X758213Y1415060D01*
D11*
X1483500Y1018000D02*
X1483500Y993000D01*
X1483500Y1268000D02*
X1483500Y1293000D01*
X1183500Y1293000D02*
X1183500Y1268000D01*
X1183500Y1018000D02*
X1183500Y993000D01*
X1483500Y993000D01*
X1483500Y1293000D02*
X1183500Y1293000D01*
D12*
X1148500Y1318000D02*
X1148503Y1318245D01*
X1148512Y1318491D01*
X1148527Y1318736D01*
X1148548Y1318980D01*
X1148575Y1319224D01*
X1148608Y1319467D01*
X1148647Y1319710D01*
X1148692Y1319951D01*
X1148743Y1320191D01*
X1148800Y1320430D01*
X1148862Y1320667D01*
X1148931Y1320903D01*
X1149005Y1321137D01*
X1149085Y1321369D01*
X1149170Y1321599D01*
X1149261Y1321827D01*
X1149358Y1322052D01*
X1149460Y1322276D01*
X1149568Y1322496D01*
X1149681Y1322714D01*
X1149799Y1322929D01*
X1149923Y1323141D01*
X1150051Y1323350D01*
X1150185Y1323556D01*
X1150324Y1323758D01*
X1150468Y1323957D01*
X1150617Y1324152D01*
X1150770Y1324344D01*
X1150928Y1324532D01*
X1151090Y1324716D01*
X1151258Y1324895D01*
X1151429Y1325071D01*
X1151605Y1325242D01*
X1151784Y1325410D01*
X1151968Y1325572D01*
X1152156Y1325730D01*
X1152348Y1325883D01*
X1152543Y1326032D01*
X1152742Y1326176D01*
X1152944Y1326315D01*
X1153150Y1326449D01*
X1153359Y1326577D01*
X1153571Y1326701D01*
X1153786Y1326819D01*
X1154004Y1326932D01*
X1154224Y1327040D01*
X1154448Y1327142D01*
X1154673Y1327239D01*
X1154901Y1327330D01*
X1155131Y1327415D01*
X1155363Y1327495D01*
X1155597Y1327569D01*
X1155833Y1327638D01*
X1156070Y1327700D01*
X1156309Y1327757D01*
X1156549Y1327808D01*
X1156790Y1327853D01*
X1157033Y1327892D01*
X1157276Y1327925D01*
X1157520Y1327952D01*
X1157764Y1327973D01*
X1158009Y1327988D01*
X1158255Y1327997D01*
X1158500Y1328000D01*
X1158745Y1327997D01*
X1158991Y1327988D01*
X1159236Y1327973D01*
X1159480Y1327952D01*
X1159724Y1327925D01*
X1159967Y1327892D01*
X1160210Y1327853D01*
X1160451Y1327808D01*
X1160691Y1327757D01*
X1160930Y1327700D01*
X1161167Y1327638D01*
X1161403Y1327569D01*
X1161637Y1327495D01*
X1161869Y1327415D01*
X1162099Y1327330D01*
X1162327Y1327239D01*
X1162552Y1327142D01*
X1162776Y1327040D01*
X1162996Y1326932D01*
X1163214Y1326819D01*
X1163429Y1326701D01*
X1163641Y1326577D01*
X1163850Y1326449D01*
X1164056Y1326315D01*
X1164258Y1326176D01*
X1164457Y1326032D01*
X1164652Y1325883D01*
X1164844Y1325730D01*
X1165032Y1325572D01*
X1165216Y1325410D01*
X1165395Y1325242D01*
X1165571Y1325071D01*
X1165742Y1324895D01*
X1165910Y1324716D01*
X1166072Y1324532D01*
X1166230Y1324344D01*
X1166383Y1324152D01*
X1166532Y1323957D01*
X1166676Y1323758D01*
X1166815Y1323556D01*
X1166949Y1323350D01*
X1167077Y1323141D01*
X1167201Y1322929D01*
X1167319Y1322714D01*
X1167432Y1322496D01*
X1167540Y1322276D01*
X1167642Y1322052D01*
X1167739Y1321827D01*
X1167830Y1321599D01*
X1167915Y1321369D01*
X1167995Y1321137D01*
X1168069Y1320903D01*
X1168138Y1320667D01*
X1168200Y1320430D01*
X1168257Y1320191D01*
X1168308Y1319951D01*
X1168353Y1319710D01*
X1168392Y1319467D01*
X1168425Y1319224D01*
X1168452Y1318980D01*
X1168473Y1318736D01*
X1168488Y1318491D01*
X1168497Y1318245D01*
X1168500Y1318000D01*
X1168497Y1317755D01*
X1168488Y1317509D01*
X1168473Y1317264D01*
X1168452Y1317020D01*
X1168425Y1316776D01*
X1168392Y1316533D01*
X1168353Y1316290D01*
X1168308Y1316049D01*
X1168257Y1315809D01*
X1168200Y1315570D01*
X1168138Y1315333D01*
X1168069Y1315097D01*
X1167995Y1314863D01*
X1167915Y1314631D01*
X1167830Y1314401D01*
X1167739Y1314173D01*
X1167642Y1313948D01*
X1167540Y1313724D01*
X1167432Y1313504D01*
X1167319Y1313286D01*
X1167201Y1313071D01*
X1167077Y1312859D01*
X1166949Y1312650D01*
X1166815Y1312444D01*
X1166676Y1312242D01*
X1166532Y1312043D01*
X1166383Y1311848D01*
X1166230Y1311656D01*
X1166072Y1311468D01*
X1165910Y1311284D01*
X1165742Y1311105D01*
X1165571Y1310929D01*
X1165395Y1310758D01*
X1165216Y1310590D01*
X1165032Y1310428D01*
X1164844Y1310270D01*
X1164652Y1310117D01*
X1164457Y1309968D01*
X1164258Y1309824D01*
X1164056Y1309685D01*
X1163850Y1309551D01*
X1163641Y1309423D01*
X1163429Y1309299D01*
X1163214Y1309181D01*
X1162996Y1309068D01*
X1162776Y1308960D01*
X1162552Y1308858D01*
X1162327Y1308761D01*
X1162099Y1308670D01*
X1161869Y1308585D01*
X1161637Y1308505D01*
X1161403Y1308431D01*
X1161167Y1308362D01*
X1160930Y1308300D01*
X1160691Y1308243D01*
X1160451Y1308192D01*
X1160210Y1308147D01*
X1159967Y1308108D01*
X1159724Y1308075D01*
X1159480Y1308048D01*
X1159236Y1308027D01*
X1158991Y1308012D01*
X1158745Y1308003D01*
X1158500Y1308000D01*
X1158255Y1308003D01*
X1158009Y1308012D01*
X1157764Y1308027D01*
X1157520Y1308048D01*
X1157276Y1308075D01*
X1157033Y1308108D01*
X1156790Y1308147D01*
X1156549Y1308192D01*
X1156309Y1308243D01*
X1156070Y1308300D01*
X1155833Y1308362D01*
X1155597Y1308431D01*
X1155363Y1308505D01*
X1155131Y1308585D01*
X1154901Y1308670D01*
X1154673Y1308761D01*
X1154448Y1308858D01*
X1154224Y1308960D01*
X1154004Y1309068D01*
X1153786Y1309181D01*
X1153571Y1309299D01*
X1153359Y1309423D01*
X1153150Y1309551D01*
X1152944Y1309685D01*
X1152742Y1309824D01*
X1152543Y1309968D01*
X1152348Y1310117D01*
X1152156Y1310270D01*
X1151968Y1310428D01*
X1151784Y1310590D01*
X1151605Y1310758D01*
X1151429Y1310929D01*
X1151258Y1311105D01*
X1151090Y1311284D01*
X1150928Y1311468D01*
X1150770Y1311656D01*
X1150617Y1311848D01*
X1150468Y1312043D01*
X1150324Y1312242D01*
X1150185Y1312444D01*
X1150051Y1312650D01*
X1149923Y1312859D01*
X1149799Y1313071D01*
X1149681Y1313286D01*
X1149568Y1313504D01*
X1149460Y1313724D01*
X1149358Y1313948D01*
X1149261Y1314173D01*
X1149170Y1314401D01*
X1149085Y1314631D01*
X1149005Y1314863D01*
X1148931Y1315097D01*
X1148862Y1315333D01*
X1148800Y1315570D01*
X1148743Y1315809D01*
X1148692Y1316049D01*
X1148647Y1316290D01*
X1148608Y1316533D01*
X1148575Y1316776D01*
X1148548Y1317020D01*
X1148527Y1317264D01*
X1148512Y1317509D01*
X1148503Y1317755D01*
X1148500Y1318000D01*
D10*
X1252302Y1350810D02*
X1252302Y1443190D01*
X1242038Y1350810D02*
X1262566Y1350810D01*
X1262566Y1443190D02*
X1242038Y1443190D01*
X1318914Y1350810D02*
X1339443Y1350810D01*
X1318914Y1350810D02*
X1318418Y1350816D01*
X1317922Y1350834D01*
X1317427Y1350864D01*
X1316933Y1350906D01*
X1316440Y1350960D01*
X1315948Y1351025D01*
X1315458Y1351103D01*
X1314970Y1351192D01*
X1314484Y1351294D01*
X1314001Y1351407D01*
X1313521Y1351531D01*
X1313044Y1351667D01*
X1312570Y1351815D01*
X1312100Y1351974D01*
X1311634Y1352144D01*
X1311173Y1352326D01*
X1310715Y1352518D01*
X1310263Y1352722D01*
X1309816Y1352936D01*
X1309374Y1353161D01*
X1308937Y1353397D01*
X1308507Y1353644D01*
X1308082Y1353900D01*
X1307664Y1354167D01*
X1307252Y1354444D01*
X1306847Y1354731D01*
X1306450Y1355027D01*
X1306059Y1355333D01*
X1305676Y1355648D01*
X1305301Y1355973D01*
X1304933Y1356306D01*
X1304574Y1356648D01*
X1304223Y1356999D01*
X1303881Y1357358D01*
X1303548Y1357726D01*
X1303223Y1358101D01*
X1302908Y1358484D01*
X1302602Y1358875D01*
X1302306Y1359272D01*
X1302019Y1359677D01*
X1301742Y1360089D01*
X1301475Y1360507D01*
X1301219Y1360932D01*
X1300972Y1361362D01*
X1300736Y1361799D01*
X1300511Y1362241D01*
X1300297Y1362688D01*
X1300093Y1363140D01*
X1299901Y1363598D01*
X1299719Y1364059D01*
X1299549Y1364525D01*
X1299390Y1364995D01*
X1299242Y1365469D01*
X1299106Y1365946D01*
X1298982Y1366426D01*
X1298869Y1366909D01*
X1298767Y1367395D01*
X1298678Y1367883D01*
X1298600Y1368373D01*
X1298535Y1368865D01*
X1298481Y1369358D01*
X1298439Y1369852D01*
X1298409Y1370347D01*
X1298391Y1370843D01*
X1298385Y1371339D01*
X1298386Y1371339D02*
X1298386Y1422661D01*
X1298392Y1423165D01*
X1298411Y1423668D01*
X1298442Y1424171D01*
X1298485Y1424673D01*
X1298540Y1425174D01*
X1298608Y1425673D01*
X1298688Y1426171D01*
X1298780Y1426666D01*
X1298885Y1427159D01*
X1299001Y1427649D01*
X1299130Y1428136D01*
X1299270Y1428620D01*
X1299422Y1429101D01*
X1299586Y1429577D01*
X1299762Y1430049D01*
X1299949Y1430517D01*
X1300147Y1430980D01*
X1300357Y1431438D01*
X1300578Y1431891D01*
X1300810Y1432338D01*
X1301053Y1432780D01*
X1301307Y1433215D01*
X1301571Y1433644D01*
X1301846Y1434066D01*
X1302131Y1434482D01*
X1302426Y1434890D01*
X1302731Y1435291D01*
X1303046Y1435684D01*
X1303370Y1436070D01*
X1303704Y1436447D01*
X1304047Y1436816D01*
X1304399Y1437177D01*
X1304759Y1437529D01*
X1305128Y1437872D01*
X1305506Y1438206D01*
X1305891Y1438530D01*
X1306285Y1438845D01*
X1306686Y1439150D01*
X1307094Y1439445D01*
X1307510Y1439730D01*
X1307932Y1440005D01*
X1308361Y1440269D01*
X1308796Y1440523D01*
X1309238Y1440766D01*
X1309685Y1440998D01*
X1310138Y1441219D01*
X1310596Y1441429D01*
X1311059Y1441627D01*
X1311526Y1441814D01*
X1311999Y1441990D01*
X1312475Y1442154D01*
X1312956Y1442306D01*
X1313439Y1442446D01*
X1313927Y1442575D01*
X1314417Y1442691D01*
X1314910Y1442795D01*
X1315405Y1442888D01*
X1315902Y1442968D01*
X1316402Y1443036D01*
X1316903Y1443091D01*
X1317404Y1443134D01*
X1317907Y1443165D01*
X1318411Y1443184D01*
X1318915Y1443190D01*
X1318914Y1443190D02*
X1339443Y1443190D01*
X1394169Y1443190D02*
X1373640Y1371339D01*
X1424963Y1371339D01*
X1409566Y1391868D02*
X1409566Y1350810D01*
D13*
X2159000Y1397000D02*
X2159000Y889000D01*
X2159000Y1397000D02*
X2349500Y1397000D01*
X2794000Y1397000D01*
X2794000Y889000D01*
X2349500Y889000D01*
X2159000Y889000D01*
X2349500Y889000D02*
X2349500Y1397000D01*
D14*
X825500Y127000D02*
X698500Y127000D01*
X635000Y190500D01*
X635000Y317500D01*
X698500Y381000D01*
X1079500Y127000D02*
X1143000Y190500D01*
X1079500Y127000D02*
X952500Y127000D01*
X889000Y190500D01*
X889000Y317500D01*
X952500Y381000D01*
X1079500Y381000D01*
X1143000Y317500D01*
X889000Y190500D02*
X825500Y127000D01*
X889000Y317500D02*
X825500Y381000D01*
X698500Y381000D01*
X1460500Y127000D02*
X1587500Y127000D01*
X1460500Y127000D02*
X1397000Y190500D01*
X1397000Y317500D01*
X1460500Y381000D01*
X1397000Y190500D02*
X1333500Y127000D01*
X1206500Y127000D01*
X1143000Y190500D01*
X1143000Y317500D01*
X1206500Y381000D01*
X1333500Y381000D01*
X1397000Y317500D01*
X1841500Y127000D02*
X1905000Y190500D01*
X1841500Y127000D02*
X1714500Y127000D01*
X1651000Y190500D01*
X1651000Y317500D01*
X1714500Y381000D01*
X1841500Y381000D01*
X1905000Y317500D01*
X1651000Y190500D02*
X1587500Y127000D01*
X1651000Y317500D02*
X1587500Y381000D01*
X1460500Y381000D01*
X2222500Y127000D02*
X2349500Y127000D01*
X2222500Y127000D02*
X2159000Y190500D01*
X2159000Y317500D01*
X2222500Y381000D01*
X2159000Y190500D02*
X2095500Y127000D01*
X1968500Y127000D01*
X1905000Y190500D01*
X1905000Y317500D01*
X1968500Y381000D01*
X2095500Y381000D01*
X2159000Y317500D01*
X2413000Y317500D02*
X2413000Y190500D01*
X2349500Y127000D01*
X2413000Y317500D02*
X2349500Y381000D01*
X2222500Y381000D01*
X571500Y127000D02*
X444500Y127000D01*
X381000Y190500D01*
X381000Y317500D01*
X444500Y381000D01*
X635000Y190500D02*
X571500Y127000D01*
X635000Y317500D02*
X571500Y381000D01*
X444500Y381000D01*
M02*
