G04 EAGLE Gerber X2 export*
%TF.Part,Single*%
%TF.FileFunction,Other,Silk bottom*%
%TF.FilePolarity,Positive*%
%TF.GenerationSoftware,Autodesk,EAGLE,9.0.0*%
%TF.CreationDate,2018-05-03T06:16:30Z*%
G75*
%MOMM*%
%FSLAX35Y35*%
%LPD*%
%AMOC8*
5,1,8,0,0,1.08239X$1,22.5*%
G01*
%ADD10C,0.076200*%
%ADD11C,0.127000*%
%ADD12C,0.101600*%


D10*
X2413000Y1841500D02*
X381000Y1841500D01*
X0Y1460500D02*
X0Y381000D01*
X381000Y0D02*
X2413000Y0D01*
X2794000Y381000D02*
X2794000Y1460500D01*
X381000Y1841500D02*
X371794Y1841389D01*
X362593Y1841055D01*
X353402Y1840499D01*
X344228Y1839721D01*
X335076Y1838722D01*
X325950Y1837502D01*
X316856Y1836062D01*
X307800Y1834402D01*
X298786Y1832524D01*
X289821Y1830429D01*
X280908Y1828118D01*
X272055Y1825592D01*
X263265Y1822853D01*
X254543Y1819902D01*
X245896Y1816741D01*
X237327Y1813373D01*
X228842Y1809798D01*
X220446Y1806019D01*
X212144Y1802039D01*
X203940Y1797859D01*
X195840Y1793482D01*
X187848Y1788910D01*
X179969Y1784147D01*
X172207Y1779195D01*
X164567Y1774057D01*
X157054Y1768735D01*
X149671Y1763234D01*
X142423Y1757556D01*
X135315Y1751704D01*
X128350Y1745683D01*
X121533Y1739494D01*
X114867Y1733143D01*
X108357Y1726633D01*
X102006Y1719967D01*
X95817Y1713150D01*
X89796Y1706185D01*
X83944Y1699077D01*
X78266Y1691829D01*
X72765Y1684446D01*
X67443Y1676933D01*
X62305Y1669293D01*
X57353Y1661531D01*
X52590Y1653652D01*
X48018Y1645660D01*
X43641Y1637560D01*
X39461Y1629356D01*
X35481Y1621054D01*
X31702Y1612658D01*
X28127Y1604173D01*
X24759Y1595604D01*
X21598Y1586957D01*
X18647Y1578235D01*
X15908Y1569445D01*
X13382Y1560592D01*
X11071Y1551679D01*
X8976Y1542714D01*
X7098Y1533700D01*
X5438Y1524644D01*
X3998Y1515550D01*
X2778Y1506424D01*
X1779Y1497272D01*
X1001Y1488098D01*
X445Y1478907D01*
X111Y1469706D01*
X0Y1460500D01*
X2413000Y1841500D02*
X2422206Y1841389D01*
X2431407Y1841055D01*
X2440598Y1840499D01*
X2449772Y1839721D01*
X2458924Y1838722D01*
X2468050Y1837502D01*
X2477144Y1836062D01*
X2486200Y1834402D01*
X2495214Y1832524D01*
X2504179Y1830429D01*
X2513092Y1828118D01*
X2521945Y1825592D01*
X2530735Y1822853D01*
X2539457Y1819902D01*
X2548104Y1816741D01*
X2556673Y1813373D01*
X2565158Y1809798D01*
X2573554Y1806019D01*
X2581856Y1802039D01*
X2590060Y1797859D01*
X2598160Y1793482D01*
X2606152Y1788910D01*
X2614031Y1784147D01*
X2621793Y1779195D01*
X2629433Y1774057D01*
X2636946Y1768735D01*
X2644329Y1763234D01*
X2651577Y1757556D01*
X2658685Y1751704D01*
X2665650Y1745683D01*
X2672467Y1739494D01*
X2679133Y1733143D01*
X2685643Y1726633D01*
X2691994Y1719967D01*
X2698183Y1713150D01*
X2704204Y1706185D01*
X2710056Y1699077D01*
X2715734Y1691829D01*
X2721235Y1684446D01*
X2726557Y1676933D01*
X2731695Y1669293D01*
X2736647Y1661531D01*
X2741410Y1653652D01*
X2745982Y1645660D01*
X2750359Y1637560D01*
X2754539Y1629356D01*
X2758519Y1621054D01*
X2762298Y1612658D01*
X2765873Y1604173D01*
X2769241Y1595604D01*
X2772402Y1586957D01*
X2775353Y1578235D01*
X2778092Y1569445D01*
X2780618Y1560592D01*
X2782929Y1551679D01*
X2785024Y1542714D01*
X2786902Y1533700D01*
X2788562Y1524644D01*
X2790002Y1515550D01*
X2791222Y1506424D01*
X2792221Y1497272D01*
X2792999Y1488098D01*
X2793555Y1478907D01*
X2793889Y1469706D01*
X2794000Y1460500D01*
X381000Y0D02*
X371794Y111D01*
X362593Y445D01*
X353402Y1001D01*
X344228Y1779D01*
X335076Y2778D01*
X325950Y3998D01*
X316856Y5438D01*
X307800Y7098D01*
X298786Y8976D01*
X289821Y11071D01*
X280908Y13382D01*
X272055Y15908D01*
X263265Y18647D01*
X254543Y21598D01*
X245896Y24759D01*
X237327Y28127D01*
X228842Y31702D01*
X220446Y35481D01*
X212144Y39461D01*
X203940Y43641D01*
X195840Y48018D01*
X187848Y52590D01*
X179969Y57353D01*
X172207Y62305D01*
X164567Y67443D01*
X157054Y72765D01*
X149671Y78266D01*
X142423Y83944D01*
X135315Y89796D01*
X128350Y95817D01*
X121533Y102006D01*
X114867Y108357D01*
X108357Y114867D01*
X102006Y121533D01*
X95817Y128350D01*
X89796Y135315D01*
X83944Y142423D01*
X78266Y149671D01*
X72765Y157054D01*
X67443Y164567D01*
X62305Y172207D01*
X57353Y179969D01*
X52590Y187848D01*
X48018Y195840D01*
X43641Y203940D01*
X39461Y212144D01*
X35481Y220446D01*
X31702Y228842D01*
X28127Y237327D01*
X24759Y245896D01*
X21598Y254543D01*
X18647Y263265D01*
X15908Y272055D01*
X13382Y280908D01*
X11071Y289821D01*
X8976Y298786D01*
X7098Y307800D01*
X5438Y316856D01*
X3998Y325950D01*
X2778Y335076D01*
X1779Y344228D01*
X1001Y353402D01*
X445Y362593D01*
X111Y371794D01*
X0Y381000D01*
X2413000Y0D02*
X2422206Y111D01*
X2431407Y445D01*
X2440598Y1001D01*
X2449772Y1779D01*
X2458924Y2778D01*
X2468050Y3998D01*
X2477144Y5438D01*
X2486200Y7098D01*
X2495214Y8976D01*
X2504179Y11071D01*
X2513092Y13382D01*
X2521945Y15908D01*
X2530735Y18647D01*
X2539457Y21598D01*
X2548104Y24759D01*
X2556673Y28127D01*
X2565158Y31702D01*
X2573554Y35481D01*
X2581856Y39461D01*
X2590060Y43641D01*
X2598160Y48018D01*
X2606152Y52590D01*
X2614031Y57353D01*
X2621793Y62305D01*
X2629433Y67443D01*
X2636946Y72765D01*
X2644329Y78266D01*
X2651577Y83944D01*
X2658685Y89796D01*
X2665650Y95817D01*
X2672467Y102006D01*
X2679133Y108357D01*
X2685643Y114867D01*
X2691994Y121533D01*
X2698183Y128350D01*
X2704204Y135315D01*
X2710056Y142423D01*
X2715734Y149671D01*
X2721235Y157054D01*
X2726557Y164567D01*
X2731695Y172207D01*
X2736647Y179969D01*
X2741410Y187848D01*
X2745982Y195840D01*
X2750359Y203940D01*
X2754539Y212144D01*
X2758519Y220446D01*
X2762298Y228842D01*
X2765873Y237327D01*
X2769241Y245896D01*
X2772402Y254543D01*
X2775353Y263265D01*
X2778092Y272055D01*
X2780618Y280908D01*
X2782929Y289821D01*
X2785024Y298786D01*
X2786902Y307800D01*
X2788562Y316856D01*
X2790002Y325950D01*
X2791222Y335076D01*
X2792221Y344228D01*
X2792999Y353402D01*
X2793555Y362593D01*
X2793889Y371794D01*
X2794000Y381000D01*
X836510Y1192060D02*
X815981Y1192060D01*
X836510Y1192060D02*
X837006Y1192066D01*
X837502Y1192084D01*
X837997Y1192114D01*
X838491Y1192156D01*
X838984Y1192210D01*
X839476Y1192275D01*
X839966Y1192353D01*
X840454Y1192442D01*
X840940Y1192544D01*
X841423Y1192657D01*
X841903Y1192781D01*
X842380Y1192917D01*
X842854Y1193065D01*
X843324Y1193224D01*
X843790Y1193394D01*
X844251Y1193576D01*
X844709Y1193768D01*
X845161Y1193972D01*
X845608Y1194186D01*
X846050Y1194411D01*
X846487Y1194647D01*
X846917Y1194894D01*
X847342Y1195150D01*
X847760Y1195417D01*
X848172Y1195694D01*
X848577Y1195981D01*
X848974Y1196277D01*
X849365Y1196583D01*
X849748Y1196898D01*
X850123Y1197223D01*
X850491Y1197556D01*
X850850Y1197898D01*
X851201Y1198249D01*
X851543Y1198608D01*
X851876Y1198976D01*
X852201Y1199351D01*
X852516Y1199734D01*
X852822Y1200125D01*
X853118Y1200522D01*
X853405Y1200927D01*
X853682Y1201339D01*
X853949Y1201757D01*
X854205Y1202182D01*
X854452Y1202612D01*
X854688Y1203049D01*
X854913Y1203491D01*
X855127Y1203938D01*
X855331Y1204390D01*
X855523Y1204848D01*
X855705Y1205309D01*
X855875Y1205775D01*
X856034Y1206245D01*
X856182Y1206719D01*
X856318Y1207196D01*
X856442Y1207676D01*
X856555Y1208159D01*
X856657Y1208645D01*
X856746Y1209133D01*
X856824Y1209623D01*
X856889Y1210115D01*
X856943Y1210608D01*
X856985Y1211102D01*
X857015Y1211597D01*
X857033Y1212093D01*
X857039Y1212589D01*
X857038Y1212589D02*
X857038Y1263911D01*
X857039Y1263911D02*
X857033Y1264407D01*
X857015Y1264903D01*
X856985Y1265398D01*
X856943Y1265892D01*
X856889Y1266385D01*
X856824Y1266877D01*
X856746Y1267367D01*
X856657Y1267855D01*
X856555Y1268341D01*
X856442Y1268824D01*
X856318Y1269304D01*
X856182Y1269781D01*
X856034Y1270255D01*
X855875Y1270725D01*
X855705Y1271191D01*
X855523Y1271652D01*
X855331Y1272110D01*
X855127Y1272562D01*
X854913Y1273009D01*
X854688Y1273451D01*
X854452Y1273888D01*
X854205Y1274318D01*
X853949Y1274743D01*
X853682Y1275161D01*
X853405Y1275573D01*
X853118Y1275978D01*
X852822Y1276375D01*
X852516Y1276766D01*
X852201Y1277149D01*
X851876Y1277524D01*
X851543Y1277892D01*
X851201Y1278251D01*
X850850Y1278602D01*
X850491Y1278944D01*
X850123Y1279277D01*
X849748Y1279602D01*
X849365Y1279917D01*
X848974Y1280223D01*
X848577Y1280519D01*
X848172Y1280806D01*
X847760Y1281083D01*
X847342Y1281350D01*
X846917Y1281606D01*
X846487Y1281853D01*
X846050Y1282089D01*
X845608Y1282314D01*
X845161Y1282528D01*
X844709Y1282732D01*
X844251Y1282924D01*
X843790Y1283106D01*
X843324Y1283276D01*
X842854Y1283435D01*
X842380Y1283583D01*
X841903Y1283719D01*
X841423Y1283843D01*
X840940Y1283956D01*
X840454Y1284058D01*
X839966Y1284147D01*
X839476Y1284225D01*
X838984Y1284290D01*
X838491Y1284344D01*
X837997Y1284386D01*
X837502Y1284416D01*
X837006Y1284434D01*
X836510Y1284440D01*
X815981Y1284440D01*
X781784Y1263911D02*
X756123Y1284440D01*
X756123Y1192060D01*
X781784Y1192060D02*
X730462Y1192060D01*
X1355731Y1001560D02*
X1376260Y1001560D01*
X1376756Y1001566D01*
X1377252Y1001584D01*
X1377747Y1001614D01*
X1378241Y1001656D01*
X1378734Y1001710D01*
X1379226Y1001775D01*
X1379716Y1001853D01*
X1380204Y1001942D01*
X1380690Y1002044D01*
X1381173Y1002157D01*
X1381653Y1002281D01*
X1382130Y1002417D01*
X1382604Y1002565D01*
X1383074Y1002724D01*
X1383540Y1002894D01*
X1384001Y1003076D01*
X1384459Y1003268D01*
X1384911Y1003472D01*
X1385358Y1003686D01*
X1385800Y1003911D01*
X1386237Y1004147D01*
X1386667Y1004394D01*
X1387092Y1004650D01*
X1387510Y1004917D01*
X1387922Y1005194D01*
X1388327Y1005481D01*
X1388724Y1005777D01*
X1389115Y1006083D01*
X1389498Y1006398D01*
X1389873Y1006723D01*
X1390241Y1007056D01*
X1390600Y1007398D01*
X1390951Y1007749D01*
X1391293Y1008108D01*
X1391626Y1008476D01*
X1391951Y1008851D01*
X1392266Y1009234D01*
X1392572Y1009625D01*
X1392868Y1010022D01*
X1393155Y1010427D01*
X1393432Y1010839D01*
X1393699Y1011257D01*
X1393955Y1011682D01*
X1394202Y1012112D01*
X1394438Y1012549D01*
X1394663Y1012991D01*
X1394877Y1013438D01*
X1395081Y1013890D01*
X1395273Y1014348D01*
X1395455Y1014809D01*
X1395625Y1015275D01*
X1395784Y1015745D01*
X1395932Y1016219D01*
X1396068Y1016696D01*
X1396192Y1017176D01*
X1396305Y1017659D01*
X1396407Y1018145D01*
X1396496Y1018633D01*
X1396574Y1019123D01*
X1396639Y1019615D01*
X1396693Y1020108D01*
X1396735Y1020602D01*
X1396765Y1021097D01*
X1396783Y1021593D01*
X1396789Y1022089D01*
X1396788Y1022089D02*
X1396788Y1073411D01*
X1396789Y1073411D02*
X1396783Y1073907D01*
X1396765Y1074403D01*
X1396735Y1074898D01*
X1396693Y1075392D01*
X1396639Y1075885D01*
X1396574Y1076377D01*
X1396496Y1076867D01*
X1396407Y1077355D01*
X1396305Y1077841D01*
X1396192Y1078324D01*
X1396068Y1078804D01*
X1395932Y1079281D01*
X1395784Y1079755D01*
X1395625Y1080225D01*
X1395455Y1080691D01*
X1395273Y1081152D01*
X1395081Y1081610D01*
X1394877Y1082062D01*
X1394663Y1082509D01*
X1394438Y1082951D01*
X1394202Y1083388D01*
X1393955Y1083818D01*
X1393699Y1084243D01*
X1393432Y1084661D01*
X1393155Y1085073D01*
X1392868Y1085478D01*
X1392572Y1085875D01*
X1392266Y1086266D01*
X1391951Y1086649D01*
X1391626Y1087024D01*
X1391293Y1087392D01*
X1390951Y1087751D01*
X1390600Y1088102D01*
X1390241Y1088444D01*
X1389873Y1088777D01*
X1389498Y1089102D01*
X1389115Y1089417D01*
X1388724Y1089723D01*
X1388327Y1090019D01*
X1387922Y1090306D01*
X1387510Y1090583D01*
X1387092Y1090850D01*
X1386667Y1091106D01*
X1386237Y1091353D01*
X1385800Y1091589D01*
X1385358Y1091814D01*
X1384911Y1092028D01*
X1384459Y1092232D01*
X1384001Y1092424D01*
X1383540Y1092606D01*
X1383074Y1092776D01*
X1382604Y1092935D01*
X1382130Y1093083D01*
X1381653Y1093219D01*
X1381173Y1093343D01*
X1380690Y1093456D01*
X1380204Y1093558D01*
X1379716Y1093647D01*
X1379226Y1093725D01*
X1378734Y1093790D01*
X1378241Y1093844D01*
X1377747Y1093886D01*
X1377252Y1093916D01*
X1376756Y1093934D01*
X1376260Y1093940D01*
X1355731Y1093940D01*
X1293307Y1093940D02*
X1292740Y1093933D01*
X1292173Y1093912D01*
X1291608Y1093877D01*
X1291043Y1093829D01*
X1290480Y1093766D01*
X1289918Y1093690D01*
X1289358Y1093600D01*
X1288801Y1093496D01*
X1288247Y1093379D01*
X1287695Y1093248D01*
X1287147Y1093103D01*
X1286603Y1092945D01*
X1286062Y1092774D01*
X1285526Y1092590D01*
X1284995Y1092392D01*
X1284469Y1092182D01*
X1283948Y1091959D01*
X1283432Y1091723D01*
X1282923Y1091474D01*
X1282420Y1091213D01*
X1281923Y1090940D01*
X1281434Y1090654D01*
X1280951Y1090357D01*
X1280476Y1090048D01*
X1280009Y1089727D01*
X1279549Y1089395D01*
X1279098Y1089052D01*
X1278656Y1088698D01*
X1278222Y1088333D01*
X1277797Y1087957D01*
X1277382Y1087571D01*
X1276976Y1087176D01*
X1276580Y1086770D01*
X1276195Y1086355D01*
X1275819Y1085930D01*
X1275454Y1085496D01*
X1275100Y1085054D01*
X1274757Y1084603D01*
X1274425Y1084143D01*
X1274104Y1083676D01*
X1273795Y1083201D01*
X1273498Y1082718D01*
X1273212Y1082228D01*
X1272939Y1081732D01*
X1272678Y1081229D01*
X1272429Y1080719D01*
X1272193Y1080204D01*
X1271970Y1079683D01*
X1271760Y1079157D01*
X1271562Y1078625D01*
X1271378Y1078089D01*
X1271206Y1077549D01*
X1271049Y1077005D01*
X1270904Y1076457D01*
X1270773Y1075905D01*
X1270656Y1075351D01*
X1270552Y1074793D01*
X1270462Y1074234D01*
X1270386Y1073672D01*
X1270323Y1073109D01*
X1270275Y1072544D01*
X1270240Y1071978D01*
X1270219Y1071412D01*
X1270212Y1070845D01*
X1293307Y1093940D02*
X1294024Y1093931D01*
X1294741Y1093905D01*
X1295458Y1093862D01*
X1296173Y1093801D01*
X1296886Y1093723D01*
X1297597Y1093628D01*
X1298306Y1093516D01*
X1299012Y1093386D01*
X1299714Y1093240D01*
X1300413Y1093077D01*
X1301107Y1092896D01*
X1301797Y1092699D01*
X1302482Y1092486D01*
X1303162Y1092256D01*
X1303836Y1092009D01*
X1304503Y1091746D01*
X1305165Y1091468D01*
X1305819Y1091173D01*
X1306466Y1090862D01*
X1307105Y1090536D01*
X1307736Y1090195D01*
X1308359Y1089839D01*
X1308973Y1089467D01*
X1309578Y1089081D01*
X1310173Y1088680D01*
X1310758Y1088265D01*
X1311333Y1087836D01*
X1311898Y1087393D01*
X1312452Y1086937D01*
X1312994Y1086467D01*
X1313525Y1085985D01*
X1314045Y1085489D01*
X1314552Y1084982D01*
X1315046Y1084462D01*
X1315528Y1083930D01*
X1315997Y1083387D01*
X1316453Y1082833D01*
X1316895Y1082268D01*
X1317323Y1081692D01*
X1317738Y1081106D01*
X1318138Y1080510D01*
X1318523Y1079905D01*
X1318894Y1079291D01*
X1319250Y1078668D01*
X1319590Y1078036D01*
X1319915Y1077396D01*
X1320225Y1076749D01*
X1320519Y1076095D01*
X1320797Y1075433D01*
X1321059Y1074765D01*
X1321304Y1074091D01*
X1321534Y1073411D01*
X1277910Y1052882D02*
X1277474Y1053307D01*
X1277049Y1053743D01*
X1276635Y1054189D01*
X1276232Y1054645D01*
X1275840Y1055111D01*
X1275459Y1055586D01*
X1275091Y1056071D01*
X1274734Y1056564D01*
X1274390Y1057066D01*
X1274058Y1057576D01*
X1273739Y1058095D01*
X1273432Y1058620D01*
X1273139Y1059154D01*
X1272859Y1059694D01*
X1272592Y1060241D01*
X1272338Y1060795D01*
X1272099Y1061354D01*
X1271873Y1061919D01*
X1271661Y1062490D01*
X1271463Y1063065D01*
X1271279Y1063646D01*
X1271109Y1064230D01*
X1270954Y1064819D01*
X1270814Y1065411D01*
X1270687Y1066007D01*
X1270576Y1066605D01*
X1270479Y1067206D01*
X1270397Y1067809D01*
X1270330Y1068414D01*
X1270278Y1069021D01*
X1270241Y1069628D01*
X1270218Y1070236D01*
X1270211Y1070845D01*
X1277910Y1052882D02*
X1321534Y1001560D01*
X1270212Y1001560D01*
D11*
X308600Y1462700D02*
X148600Y1462700D01*
X148600Y1102700D02*
X308600Y1102700D01*
D10*
X303448Y1062190D02*
X303448Y969810D01*
X293184Y969810D02*
X313713Y969810D01*
X313713Y1062190D02*
X293184Y1062190D01*
X236836Y969810D02*
X216307Y969810D01*
X236836Y969810D02*
X237332Y969816D01*
X237828Y969834D01*
X238323Y969864D01*
X238817Y969906D01*
X239310Y969960D01*
X239802Y970025D01*
X240292Y970103D01*
X240780Y970192D01*
X241266Y970294D01*
X241749Y970407D01*
X242229Y970531D01*
X242706Y970667D01*
X243180Y970815D01*
X243650Y970974D01*
X244116Y971144D01*
X244577Y971326D01*
X245035Y971518D01*
X245487Y971722D01*
X245934Y971936D01*
X246376Y972161D01*
X246813Y972397D01*
X247243Y972644D01*
X247668Y972900D01*
X248086Y973167D01*
X248498Y973444D01*
X248903Y973731D01*
X249300Y974027D01*
X249691Y974333D01*
X250074Y974648D01*
X250449Y974973D01*
X250817Y975306D01*
X251176Y975648D01*
X251527Y975999D01*
X251869Y976358D01*
X252202Y976726D01*
X252527Y977101D01*
X252842Y977484D01*
X253148Y977875D01*
X253444Y978272D01*
X253731Y978677D01*
X254008Y979089D01*
X254275Y979507D01*
X254531Y979932D01*
X254778Y980362D01*
X255014Y980799D01*
X255239Y981241D01*
X255453Y981688D01*
X255657Y982140D01*
X255849Y982598D01*
X256031Y983059D01*
X256201Y983525D01*
X256360Y983995D01*
X256508Y984469D01*
X256644Y984946D01*
X256768Y985426D01*
X256881Y985909D01*
X256983Y986395D01*
X257072Y986883D01*
X257150Y987373D01*
X257215Y987865D01*
X257269Y988358D01*
X257311Y988852D01*
X257341Y989347D01*
X257359Y989843D01*
X257365Y990339D01*
X257364Y990339D02*
X257364Y1041661D01*
X257365Y1041661D02*
X257359Y1042157D01*
X257341Y1042653D01*
X257311Y1043148D01*
X257269Y1043642D01*
X257215Y1044135D01*
X257150Y1044627D01*
X257072Y1045117D01*
X256983Y1045605D01*
X256881Y1046091D01*
X256768Y1046574D01*
X256644Y1047054D01*
X256508Y1047531D01*
X256360Y1048005D01*
X256201Y1048475D01*
X256031Y1048941D01*
X255849Y1049402D01*
X255657Y1049860D01*
X255453Y1050312D01*
X255239Y1050759D01*
X255014Y1051201D01*
X254778Y1051638D01*
X254531Y1052068D01*
X254275Y1052493D01*
X254008Y1052911D01*
X253731Y1053323D01*
X253444Y1053728D01*
X253148Y1054125D01*
X252842Y1054516D01*
X252527Y1054899D01*
X252202Y1055274D01*
X251869Y1055642D01*
X251527Y1056001D01*
X251176Y1056352D01*
X250817Y1056694D01*
X250449Y1057027D01*
X250074Y1057352D01*
X249691Y1057667D01*
X249300Y1057973D01*
X248903Y1058269D01*
X248498Y1058556D01*
X248086Y1058833D01*
X247668Y1059100D01*
X247243Y1059356D01*
X246813Y1059603D01*
X246376Y1059839D01*
X245934Y1060064D01*
X245487Y1060278D01*
X245035Y1060482D01*
X244577Y1060674D01*
X244116Y1060856D01*
X243650Y1061026D01*
X243180Y1061185D01*
X242706Y1061333D01*
X242229Y1061469D01*
X241749Y1061593D01*
X241266Y1061706D01*
X240780Y1061808D01*
X240292Y1061897D01*
X239802Y1061975D01*
X239310Y1062040D01*
X238817Y1062094D01*
X238323Y1062136D01*
X237828Y1062166D01*
X237332Y1062184D01*
X236836Y1062190D01*
X216307Y1062190D01*
X153883Y1062190D02*
X153316Y1062183D01*
X152749Y1062162D01*
X152184Y1062127D01*
X151619Y1062079D01*
X151056Y1062016D01*
X150494Y1061940D01*
X149934Y1061850D01*
X149377Y1061746D01*
X148823Y1061629D01*
X148271Y1061498D01*
X147723Y1061353D01*
X147179Y1061195D01*
X146638Y1061024D01*
X146102Y1060840D01*
X145571Y1060642D01*
X145045Y1060432D01*
X144524Y1060209D01*
X144008Y1059973D01*
X143499Y1059724D01*
X142996Y1059463D01*
X142499Y1059190D01*
X142010Y1058904D01*
X141527Y1058607D01*
X141052Y1058298D01*
X140585Y1057977D01*
X140125Y1057645D01*
X139674Y1057302D01*
X139232Y1056948D01*
X138798Y1056583D01*
X138373Y1056207D01*
X137958Y1055821D01*
X137552Y1055426D01*
X137156Y1055020D01*
X136771Y1054605D01*
X136395Y1054180D01*
X136030Y1053746D01*
X135676Y1053304D01*
X135333Y1052853D01*
X135001Y1052393D01*
X134680Y1051926D01*
X134371Y1051451D01*
X134074Y1050968D01*
X133788Y1050478D01*
X133515Y1049982D01*
X133254Y1049479D01*
X133005Y1048969D01*
X132769Y1048454D01*
X132546Y1047933D01*
X132336Y1047407D01*
X132138Y1046875D01*
X131954Y1046339D01*
X131782Y1045799D01*
X131625Y1045255D01*
X131480Y1044707D01*
X131349Y1044155D01*
X131232Y1043601D01*
X131128Y1043043D01*
X131038Y1042484D01*
X130962Y1041922D01*
X130899Y1041359D01*
X130851Y1040794D01*
X130816Y1040228D01*
X130795Y1039662D01*
X130788Y1039095D01*
X153883Y1062190D02*
X154600Y1062181D01*
X155317Y1062155D01*
X156034Y1062112D01*
X156749Y1062051D01*
X157462Y1061973D01*
X158173Y1061878D01*
X158882Y1061766D01*
X159588Y1061636D01*
X160290Y1061490D01*
X160989Y1061327D01*
X161683Y1061146D01*
X162373Y1060949D01*
X163058Y1060736D01*
X163738Y1060506D01*
X164412Y1060259D01*
X165079Y1059996D01*
X165741Y1059718D01*
X166395Y1059423D01*
X167042Y1059112D01*
X167681Y1058786D01*
X168312Y1058445D01*
X168935Y1058089D01*
X169549Y1057717D01*
X170154Y1057331D01*
X170749Y1056930D01*
X171334Y1056515D01*
X171909Y1056086D01*
X172474Y1055643D01*
X173028Y1055187D01*
X173570Y1054717D01*
X174101Y1054235D01*
X174621Y1053739D01*
X175128Y1053232D01*
X175622Y1052712D01*
X176104Y1052180D01*
X176573Y1051637D01*
X177029Y1051083D01*
X177471Y1050518D01*
X177899Y1049942D01*
X178314Y1049356D01*
X178714Y1048760D01*
X179099Y1048155D01*
X179470Y1047541D01*
X179826Y1046918D01*
X180166Y1046286D01*
X180491Y1045646D01*
X180801Y1044999D01*
X181095Y1044345D01*
X181373Y1043683D01*
X181635Y1043015D01*
X181880Y1042341D01*
X182110Y1041661D01*
X138486Y1021132D02*
X138050Y1021557D01*
X137625Y1021993D01*
X137211Y1022439D01*
X136808Y1022895D01*
X136416Y1023361D01*
X136035Y1023836D01*
X135667Y1024321D01*
X135310Y1024814D01*
X134966Y1025316D01*
X134634Y1025826D01*
X134315Y1026345D01*
X134008Y1026870D01*
X133715Y1027404D01*
X133435Y1027944D01*
X133168Y1028491D01*
X132914Y1029045D01*
X132675Y1029604D01*
X132449Y1030169D01*
X132237Y1030740D01*
X132039Y1031315D01*
X131855Y1031896D01*
X131685Y1032480D01*
X131530Y1033069D01*
X131390Y1033661D01*
X131263Y1034257D01*
X131152Y1034855D01*
X131055Y1035456D01*
X130973Y1036059D01*
X130906Y1036664D01*
X130854Y1037271D01*
X130817Y1037878D01*
X130794Y1038486D01*
X130787Y1039095D01*
X138486Y1021132D02*
X182110Y969810D01*
X130788Y969810D01*
X1022878Y744690D02*
X1022878Y652310D01*
X1022878Y744690D02*
X997217Y744690D01*
X996592Y744682D01*
X995968Y744660D01*
X995344Y744622D01*
X994721Y744568D01*
X994100Y744500D01*
X993481Y744417D01*
X992864Y744318D01*
X992249Y744205D01*
X991638Y744076D01*
X991029Y743933D01*
X990425Y743775D01*
X989824Y743602D01*
X989228Y743415D01*
X988636Y743213D01*
X988050Y742997D01*
X987469Y742766D01*
X986894Y742522D01*
X986325Y742264D01*
X985762Y741992D01*
X985207Y741706D01*
X984658Y741407D01*
X984117Y741094D01*
X983583Y740769D01*
X983058Y740430D01*
X982541Y740079D01*
X982033Y739715D01*
X981534Y739340D01*
X981044Y738952D01*
X980563Y738552D01*
X980093Y738141D01*
X979633Y737718D01*
X979183Y737284D01*
X978744Y736840D01*
X978315Y736385D01*
X977898Y735919D01*
X977493Y735444D01*
X977099Y734958D01*
X976717Y734464D01*
X976347Y733960D01*
X975990Y733447D01*
X975645Y732926D01*
X975313Y732397D01*
X974994Y731860D01*
X974688Y731315D01*
X974396Y730762D01*
X974117Y730203D01*
X973851Y729637D01*
X973600Y729065D01*
X973363Y728487D01*
X973139Y727903D01*
X972930Y727314D01*
X972736Y726721D01*
X972556Y726122D01*
X972390Y725520D01*
X972240Y724913D01*
X972104Y724303D01*
X971983Y723690D01*
X971877Y723074D01*
X971786Y722456D01*
X971710Y721836D01*
X971649Y721214D01*
X971604Y720590D01*
X971573Y719966D01*
X971558Y719341D01*
X971558Y718717D01*
X971573Y718092D01*
X971604Y717468D01*
X971649Y716844D01*
X971710Y716222D01*
X971786Y715602D01*
X971877Y714984D01*
X971983Y714368D01*
X972104Y713755D01*
X972240Y713145D01*
X972390Y712538D01*
X972556Y711936D01*
X972736Y711337D01*
X972930Y710744D01*
X973139Y710155D01*
X973363Y709571D01*
X973600Y708993D01*
X973851Y708421D01*
X974117Y707855D01*
X974396Y707296D01*
X974688Y706743D01*
X974994Y706198D01*
X975313Y705661D01*
X975645Y705132D01*
X975990Y704611D01*
X976347Y704098D01*
X976717Y703594D01*
X977099Y703100D01*
X977493Y702614D01*
X977898Y702139D01*
X978315Y701673D01*
X978744Y701218D01*
X979183Y700774D01*
X979633Y700340D01*
X980093Y699917D01*
X980563Y699506D01*
X981044Y699106D01*
X981534Y698718D01*
X982033Y698343D01*
X982541Y697979D01*
X983058Y697628D01*
X983583Y697289D01*
X984117Y696964D01*
X984658Y696651D01*
X985207Y696352D01*
X985762Y696066D01*
X986325Y695794D01*
X986894Y695536D01*
X987469Y695292D01*
X988050Y695061D01*
X988636Y694845D01*
X989228Y694643D01*
X989824Y694456D01*
X990425Y694283D01*
X991029Y694125D01*
X991638Y693982D01*
X992249Y693853D01*
X992864Y693740D01*
X993481Y693641D01*
X994100Y693558D01*
X994721Y693490D01*
X995344Y693436D01*
X995968Y693398D01*
X996592Y693376D01*
X997217Y693368D01*
X1022878Y693368D01*
X992085Y693368D02*
X971556Y652310D01*
X933444Y724161D02*
X907783Y744690D01*
X907783Y652310D01*
X933444Y652310D02*
X882122Y652310D01*
X1403878Y1382560D02*
X1403878Y1474940D01*
X1378217Y1474940D01*
X1377592Y1474932D01*
X1376968Y1474910D01*
X1376344Y1474872D01*
X1375721Y1474818D01*
X1375100Y1474750D01*
X1374481Y1474667D01*
X1373864Y1474568D01*
X1373249Y1474455D01*
X1372638Y1474326D01*
X1372029Y1474183D01*
X1371425Y1474025D01*
X1370824Y1473852D01*
X1370228Y1473665D01*
X1369636Y1473463D01*
X1369050Y1473247D01*
X1368469Y1473016D01*
X1367894Y1472772D01*
X1367325Y1472514D01*
X1366762Y1472242D01*
X1366207Y1471956D01*
X1365658Y1471657D01*
X1365117Y1471344D01*
X1364583Y1471019D01*
X1364058Y1470680D01*
X1363541Y1470329D01*
X1363033Y1469965D01*
X1362534Y1469590D01*
X1362044Y1469202D01*
X1361563Y1468802D01*
X1361093Y1468391D01*
X1360633Y1467968D01*
X1360183Y1467534D01*
X1359744Y1467090D01*
X1359315Y1466635D01*
X1358898Y1466169D01*
X1358493Y1465694D01*
X1358099Y1465208D01*
X1357717Y1464714D01*
X1357347Y1464210D01*
X1356990Y1463697D01*
X1356645Y1463176D01*
X1356313Y1462647D01*
X1355994Y1462110D01*
X1355688Y1461565D01*
X1355396Y1461012D01*
X1355117Y1460453D01*
X1354851Y1459887D01*
X1354600Y1459315D01*
X1354363Y1458737D01*
X1354139Y1458153D01*
X1353930Y1457564D01*
X1353736Y1456971D01*
X1353556Y1456372D01*
X1353390Y1455770D01*
X1353240Y1455163D01*
X1353104Y1454553D01*
X1352983Y1453940D01*
X1352877Y1453324D01*
X1352786Y1452706D01*
X1352710Y1452086D01*
X1352649Y1451464D01*
X1352604Y1450840D01*
X1352573Y1450216D01*
X1352558Y1449591D01*
X1352558Y1448967D01*
X1352573Y1448342D01*
X1352604Y1447718D01*
X1352649Y1447094D01*
X1352710Y1446472D01*
X1352786Y1445852D01*
X1352877Y1445234D01*
X1352983Y1444618D01*
X1353104Y1444005D01*
X1353240Y1443395D01*
X1353390Y1442788D01*
X1353556Y1442186D01*
X1353736Y1441587D01*
X1353930Y1440994D01*
X1354139Y1440405D01*
X1354363Y1439821D01*
X1354600Y1439243D01*
X1354851Y1438671D01*
X1355117Y1438105D01*
X1355396Y1437546D01*
X1355688Y1436993D01*
X1355994Y1436448D01*
X1356313Y1435911D01*
X1356645Y1435382D01*
X1356990Y1434861D01*
X1357347Y1434348D01*
X1357717Y1433844D01*
X1358099Y1433350D01*
X1358493Y1432864D01*
X1358898Y1432389D01*
X1359315Y1431923D01*
X1359744Y1431468D01*
X1360183Y1431024D01*
X1360633Y1430590D01*
X1361093Y1430167D01*
X1361563Y1429756D01*
X1362044Y1429356D01*
X1362534Y1428968D01*
X1363033Y1428593D01*
X1363541Y1428229D01*
X1364058Y1427878D01*
X1364583Y1427539D01*
X1365117Y1427214D01*
X1365658Y1426901D01*
X1366207Y1426602D01*
X1366762Y1426316D01*
X1367325Y1426044D01*
X1367894Y1425786D01*
X1368469Y1425542D01*
X1369050Y1425311D01*
X1369636Y1425095D01*
X1370228Y1424893D01*
X1370824Y1424706D01*
X1371425Y1424533D01*
X1372029Y1424375D01*
X1372638Y1424232D01*
X1373249Y1424103D01*
X1373864Y1423990D01*
X1374481Y1423891D01*
X1375100Y1423808D01*
X1375721Y1423740D01*
X1376344Y1423686D01*
X1376968Y1423648D01*
X1377592Y1423626D01*
X1378217Y1423618D01*
X1403878Y1423618D01*
X1373085Y1423618D02*
X1352556Y1382560D01*
X1263123Y1451845D02*
X1263130Y1452412D01*
X1263151Y1452978D01*
X1263186Y1453544D01*
X1263234Y1454109D01*
X1263297Y1454672D01*
X1263373Y1455234D01*
X1263463Y1455793D01*
X1263567Y1456351D01*
X1263684Y1456905D01*
X1263815Y1457457D01*
X1263960Y1458005D01*
X1264117Y1458549D01*
X1264289Y1459089D01*
X1264473Y1459625D01*
X1264671Y1460157D01*
X1264881Y1460683D01*
X1265104Y1461204D01*
X1265340Y1461719D01*
X1265589Y1462229D01*
X1265850Y1462732D01*
X1266123Y1463228D01*
X1266409Y1463718D01*
X1266706Y1464201D01*
X1267015Y1464676D01*
X1267336Y1465143D01*
X1267668Y1465603D01*
X1268011Y1466054D01*
X1268365Y1466496D01*
X1268730Y1466930D01*
X1269106Y1467355D01*
X1269491Y1467770D01*
X1269887Y1468176D01*
X1270293Y1468571D01*
X1270708Y1468957D01*
X1271133Y1469333D01*
X1271567Y1469698D01*
X1272009Y1470052D01*
X1272460Y1470395D01*
X1272920Y1470727D01*
X1273387Y1471048D01*
X1273862Y1471357D01*
X1274345Y1471654D01*
X1274834Y1471940D01*
X1275331Y1472213D01*
X1275834Y1472474D01*
X1276343Y1472723D01*
X1276859Y1472959D01*
X1277380Y1473182D01*
X1277906Y1473392D01*
X1278437Y1473590D01*
X1278973Y1473774D01*
X1279514Y1473945D01*
X1280058Y1474103D01*
X1280606Y1474248D01*
X1281158Y1474379D01*
X1281712Y1474496D01*
X1282269Y1474600D01*
X1282829Y1474690D01*
X1283391Y1474766D01*
X1283954Y1474829D01*
X1284519Y1474877D01*
X1285084Y1474912D01*
X1285651Y1474933D01*
X1286218Y1474940D01*
X1286935Y1474931D01*
X1287652Y1474905D01*
X1288369Y1474862D01*
X1289084Y1474801D01*
X1289797Y1474723D01*
X1290508Y1474628D01*
X1291217Y1474516D01*
X1291923Y1474386D01*
X1292625Y1474240D01*
X1293324Y1474077D01*
X1294018Y1473896D01*
X1294708Y1473699D01*
X1295393Y1473486D01*
X1296073Y1473256D01*
X1296747Y1473009D01*
X1297414Y1472746D01*
X1298076Y1472468D01*
X1298730Y1472173D01*
X1299377Y1471862D01*
X1300016Y1471536D01*
X1300647Y1471195D01*
X1301270Y1470839D01*
X1301884Y1470467D01*
X1302489Y1470081D01*
X1303084Y1469680D01*
X1303669Y1469265D01*
X1304244Y1468836D01*
X1304809Y1468393D01*
X1305363Y1467937D01*
X1305905Y1467467D01*
X1306436Y1466985D01*
X1306956Y1466489D01*
X1307463Y1465982D01*
X1307957Y1465462D01*
X1308439Y1464930D01*
X1308908Y1464387D01*
X1309364Y1463833D01*
X1309806Y1463268D01*
X1310234Y1462692D01*
X1310649Y1462106D01*
X1311049Y1461510D01*
X1311434Y1460905D01*
X1311805Y1460291D01*
X1312161Y1459668D01*
X1312501Y1459036D01*
X1312826Y1458396D01*
X1313136Y1457749D01*
X1313430Y1457095D01*
X1313708Y1456433D01*
X1313970Y1455765D01*
X1314215Y1455091D01*
X1314445Y1454411D01*
X1270821Y1433882D02*
X1270385Y1434307D01*
X1269960Y1434743D01*
X1269546Y1435189D01*
X1269143Y1435645D01*
X1268751Y1436111D01*
X1268370Y1436586D01*
X1268002Y1437071D01*
X1267645Y1437564D01*
X1267301Y1438066D01*
X1266969Y1438576D01*
X1266650Y1439095D01*
X1266343Y1439620D01*
X1266050Y1440154D01*
X1265770Y1440694D01*
X1265503Y1441241D01*
X1265249Y1441795D01*
X1265010Y1442354D01*
X1264784Y1442919D01*
X1264572Y1443490D01*
X1264374Y1444065D01*
X1264190Y1444646D01*
X1264020Y1445230D01*
X1263865Y1445819D01*
X1263725Y1446411D01*
X1263598Y1447007D01*
X1263487Y1447605D01*
X1263390Y1448206D01*
X1263308Y1448809D01*
X1263241Y1449414D01*
X1263189Y1450021D01*
X1263152Y1450628D01*
X1263129Y1451236D01*
X1263122Y1451845D01*
X1270821Y1433882D02*
X1314444Y1382560D01*
X1263122Y1382560D01*
X1668310Y1072622D02*
X1760690Y1072622D01*
X1760690Y1098283D01*
X1760682Y1098908D01*
X1760660Y1099532D01*
X1760622Y1100156D01*
X1760568Y1100779D01*
X1760500Y1101400D01*
X1760417Y1102019D01*
X1760318Y1102636D01*
X1760205Y1103251D01*
X1760076Y1103862D01*
X1759933Y1104471D01*
X1759775Y1105075D01*
X1759602Y1105676D01*
X1759415Y1106272D01*
X1759213Y1106864D01*
X1758997Y1107450D01*
X1758766Y1108031D01*
X1758522Y1108606D01*
X1758264Y1109175D01*
X1757992Y1109738D01*
X1757706Y1110293D01*
X1757407Y1110842D01*
X1757094Y1111383D01*
X1756769Y1111917D01*
X1756430Y1112442D01*
X1756079Y1112959D01*
X1755715Y1113467D01*
X1755340Y1113966D01*
X1754952Y1114456D01*
X1754552Y1114937D01*
X1754141Y1115407D01*
X1753718Y1115867D01*
X1753284Y1116317D01*
X1752840Y1116756D01*
X1752385Y1117185D01*
X1751919Y1117602D01*
X1751444Y1118007D01*
X1750958Y1118401D01*
X1750464Y1118783D01*
X1749960Y1119153D01*
X1749447Y1119510D01*
X1748926Y1119855D01*
X1748397Y1120187D01*
X1747860Y1120506D01*
X1747315Y1120812D01*
X1746762Y1121104D01*
X1746203Y1121383D01*
X1745637Y1121649D01*
X1745065Y1121900D01*
X1744487Y1122137D01*
X1743903Y1122361D01*
X1743314Y1122570D01*
X1742721Y1122764D01*
X1742122Y1122944D01*
X1741520Y1123110D01*
X1740913Y1123260D01*
X1740303Y1123396D01*
X1739690Y1123517D01*
X1739074Y1123623D01*
X1738456Y1123714D01*
X1737836Y1123790D01*
X1737214Y1123851D01*
X1736590Y1123896D01*
X1735966Y1123927D01*
X1735341Y1123942D01*
X1734717Y1123942D01*
X1734092Y1123927D01*
X1733468Y1123896D01*
X1732844Y1123851D01*
X1732222Y1123790D01*
X1731602Y1123714D01*
X1730984Y1123623D01*
X1730368Y1123517D01*
X1729755Y1123396D01*
X1729145Y1123260D01*
X1728538Y1123110D01*
X1727936Y1122944D01*
X1727337Y1122764D01*
X1726744Y1122570D01*
X1726155Y1122361D01*
X1725571Y1122137D01*
X1724993Y1121900D01*
X1724421Y1121649D01*
X1723855Y1121383D01*
X1723296Y1121104D01*
X1722743Y1120812D01*
X1722199Y1120506D01*
X1721661Y1120187D01*
X1721132Y1119855D01*
X1720611Y1119510D01*
X1720098Y1119153D01*
X1719594Y1118783D01*
X1719100Y1118401D01*
X1718614Y1118007D01*
X1718139Y1117602D01*
X1717673Y1117185D01*
X1717218Y1116756D01*
X1716774Y1116317D01*
X1716340Y1115867D01*
X1715917Y1115407D01*
X1715506Y1114937D01*
X1715106Y1114456D01*
X1714718Y1113966D01*
X1714343Y1113467D01*
X1713979Y1112959D01*
X1713628Y1112442D01*
X1713289Y1111917D01*
X1712964Y1111383D01*
X1712651Y1110842D01*
X1712352Y1110293D01*
X1712066Y1109738D01*
X1711794Y1109175D01*
X1711536Y1108606D01*
X1711292Y1108031D01*
X1711061Y1107450D01*
X1710845Y1106864D01*
X1710643Y1106272D01*
X1710456Y1105676D01*
X1710283Y1105075D01*
X1710125Y1104471D01*
X1709982Y1103862D01*
X1709853Y1103251D01*
X1709740Y1102636D01*
X1709641Y1102019D01*
X1709558Y1101400D01*
X1709490Y1100779D01*
X1709436Y1100156D01*
X1709398Y1099532D01*
X1709376Y1098908D01*
X1709368Y1098283D01*
X1709368Y1072622D01*
X1709368Y1103415D02*
X1668310Y1123944D01*
X1668310Y1162056D02*
X1668310Y1187717D01*
X1668318Y1188342D01*
X1668340Y1188966D01*
X1668378Y1189590D01*
X1668432Y1190213D01*
X1668500Y1190834D01*
X1668583Y1191453D01*
X1668682Y1192070D01*
X1668795Y1192685D01*
X1668924Y1193296D01*
X1669067Y1193905D01*
X1669225Y1194509D01*
X1669398Y1195110D01*
X1669585Y1195706D01*
X1669787Y1196298D01*
X1670003Y1196884D01*
X1670234Y1197465D01*
X1670478Y1198040D01*
X1670736Y1198609D01*
X1671008Y1199172D01*
X1671294Y1199727D01*
X1671593Y1200276D01*
X1671906Y1200817D01*
X1672231Y1201351D01*
X1672570Y1201876D01*
X1672921Y1202393D01*
X1673285Y1202901D01*
X1673660Y1203400D01*
X1674048Y1203890D01*
X1674448Y1204371D01*
X1674859Y1204841D01*
X1675282Y1205301D01*
X1675716Y1205751D01*
X1676160Y1206190D01*
X1676615Y1206619D01*
X1677081Y1207036D01*
X1677556Y1207441D01*
X1678042Y1207835D01*
X1678536Y1208217D01*
X1679040Y1208587D01*
X1679553Y1208944D01*
X1680074Y1209289D01*
X1680603Y1209621D01*
X1681141Y1209940D01*
X1681685Y1210246D01*
X1682238Y1210538D01*
X1682797Y1210817D01*
X1683363Y1211083D01*
X1683935Y1211334D01*
X1684513Y1211571D01*
X1685097Y1211795D01*
X1685686Y1212004D01*
X1686279Y1212198D01*
X1686878Y1212378D01*
X1687480Y1212544D01*
X1688087Y1212694D01*
X1688697Y1212830D01*
X1689310Y1212951D01*
X1689926Y1213057D01*
X1690544Y1213148D01*
X1691164Y1213224D01*
X1691786Y1213285D01*
X1692410Y1213330D01*
X1693034Y1213361D01*
X1693659Y1213376D01*
X1694283Y1213376D01*
X1694908Y1213361D01*
X1695532Y1213330D01*
X1696156Y1213285D01*
X1696778Y1213224D01*
X1697398Y1213148D01*
X1698016Y1213057D01*
X1698632Y1212951D01*
X1699245Y1212830D01*
X1699855Y1212694D01*
X1700462Y1212544D01*
X1701064Y1212378D01*
X1701663Y1212198D01*
X1702256Y1212004D01*
X1702845Y1211795D01*
X1703429Y1211571D01*
X1704007Y1211334D01*
X1704579Y1211083D01*
X1705145Y1210817D01*
X1705704Y1210538D01*
X1706257Y1210246D01*
X1706802Y1209940D01*
X1707339Y1209621D01*
X1707868Y1209289D01*
X1708389Y1208944D01*
X1708902Y1208587D01*
X1709406Y1208217D01*
X1709900Y1207835D01*
X1710386Y1207441D01*
X1710861Y1207036D01*
X1711327Y1206619D01*
X1711782Y1206190D01*
X1712226Y1205751D01*
X1712660Y1205301D01*
X1713083Y1204841D01*
X1713494Y1204371D01*
X1713894Y1203890D01*
X1714282Y1203400D01*
X1714657Y1202901D01*
X1715021Y1202393D01*
X1715372Y1201876D01*
X1715711Y1201351D01*
X1716036Y1200817D01*
X1716349Y1200276D01*
X1716648Y1199727D01*
X1716934Y1199172D01*
X1717206Y1198609D01*
X1717464Y1198040D01*
X1717708Y1197465D01*
X1717939Y1196884D01*
X1718155Y1196298D01*
X1718357Y1195706D01*
X1718544Y1195110D01*
X1718717Y1194509D01*
X1718875Y1193905D01*
X1719018Y1193296D01*
X1719147Y1192685D01*
X1719260Y1192070D01*
X1719359Y1191453D01*
X1719442Y1190834D01*
X1719510Y1190213D01*
X1719564Y1189590D01*
X1719602Y1188966D01*
X1719624Y1188342D01*
X1719632Y1187717D01*
X1760690Y1192849D02*
X1760690Y1162056D01*
X1760690Y1192849D02*
X1760684Y1193349D01*
X1760666Y1193849D01*
X1760635Y1194348D01*
X1760593Y1194846D01*
X1760538Y1195343D01*
X1760471Y1195838D01*
X1760392Y1196332D01*
X1760302Y1196823D01*
X1760199Y1197313D01*
X1760084Y1197799D01*
X1759958Y1198283D01*
X1759820Y1198763D01*
X1759670Y1199240D01*
X1759508Y1199714D01*
X1759335Y1200183D01*
X1759151Y1200647D01*
X1758956Y1201107D01*
X1758749Y1201563D01*
X1758531Y1202013D01*
X1758303Y1202457D01*
X1758063Y1202896D01*
X1757813Y1203329D01*
X1757553Y1203756D01*
X1757282Y1204176D01*
X1757001Y1204590D01*
X1756710Y1204996D01*
X1756410Y1205396D01*
X1756099Y1205788D01*
X1755779Y1206172D01*
X1755450Y1206548D01*
X1755112Y1206917D01*
X1754765Y1207277D01*
X1754410Y1207628D01*
X1754046Y1207970D01*
X1753673Y1208304D01*
X1753293Y1208629D01*
X1752905Y1208944D01*
X1752509Y1209249D01*
X1752106Y1209545D01*
X1751696Y1209831D01*
X1751279Y1210107D01*
X1750855Y1210372D01*
X1750426Y1210628D01*
X1749990Y1210872D01*
X1749548Y1211106D01*
X1749100Y1211329D01*
X1748648Y1211542D01*
X1748190Y1211743D01*
X1747728Y1211933D01*
X1747261Y1212111D01*
X1746789Y1212278D01*
X1746314Y1212434D01*
X1745836Y1212578D01*
X1745353Y1212710D01*
X1744868Y1212831D01*
X1744380Y1212940D01*
X1743890Y1213037D01*
X1743397Y1213121D01*
X1742903Y1213194D01*
X1742406Y1213255D01*
X1741909Y1213303D01*
X1741410Y1213340D01*
X1740911Y1213364D01*
X1740411Y1213376D01*
X1739911Y1213376D01*
X1739411Y1213364D01*
X1738912Y1213340D01*
X1738413Y1213303D01*
X1737916Y1213255D01*
X1737419Y1213194D01*
X1736925Y1213121D01*
X1736432Y1213037D01*
X1735942Y1212940D01*
X1735454Y1212831D01*
X1734969Y1212710D01*
X1734486Y1212578D01*
X1734008Y1212434D01*
X1733533Y1212278D01*
X1733061Y1212111D01*
X1732594Y1211933D01*
X1732132Y1211743D01*
X1731674Y1211542D01*
X1731222Y1211329D01*
X1730774Y1211106D01*
X1730332Y1210872D01*
X1729897Y1210628D01*
X1729467Y1210372D01*
X1729043Y1210107D01*
X1728626Y1209831D01*
X1728216Y1209545D01*
X1727813Y1209249D01*
X1727417Y1208944D01*
X1727029Y1208629D01*
X1726649Y1208304D01*
X1726276Y1207970D01*
X1725912Y1207628D01*
X1725557Y1207277D01*
X1725210Y1206917D01*
X1724872Y1206548D01*
X1724543Y1206172D01*
X1724223Y1205788D01*
X1723912Y1205396D01*
X1723612Y1204996D01*
X1723321Y1204590D01*
X1723040Y1204176D01*
X1722769Y1203756D01*
X1722509Y1203329D01*
X1722259Y1202896D01*
X1722019Y1202457D01*
X1721791Y1202013D01*
X1721573Y1201563D01*
X1721366Y1201107D01*
X1721171Y1200647D01*
X1720987Y1200183D01*
X1720814Y1199714D01*
X1720652Y1199240D01*
X1720502Y1198763D01*
X1720364Y1198283D01*
X1720238Y1197799D01*
X1720123Y1197313D01*
X1720020Y1196823D01*
X1719930Y1196332D01*
X1719851Y1195838D01*
X1719784Y1195343D01*
X1719729Y1194846D01*
X1719687Y1194348D01*
X1719656Y1193849D01*
X1719638Y1193349D01*
X1719632Y1192849D01*
X1719632Y1172320D01*
X1586338Y482339D02*
X1586344Y481843D01*
X1586362Y481347D01*
X1586392Y480852D01*
X1586434Y480358D01*
X1586488Y479864D01*
X1586553Y479373D01*
X1586631Y478883D01*
X1586720Y478395D01*
X1586822Y477909D01*
X1586935Y477426D01*
X1587059Y476946D01*
X1587195Y476469D01*
X1587343Y475995D01*
X1587502Y475525D01*
X1587672Y475059D01*
X1587854Y474598D01*
X1588046Y474140D01*
X1588250Y473688D01*
X1588464Y473241D01*
X1588690Y472799D01*
X1588925Y472362D01*
X1589172Y471932D01*
X1589428Y471507D01*
X1589695Y471089D01*
X1589972Y470677D01*
X1590259Y470272D01*
X1590555Y469874D01*
X1590861Y469484D01*
X1591176Y469101D01*
X1591501Y468726D01*
X1591834Y468358D01*
X1592177Y467999D01*
X1592527Y467648D01*
X1592887Y467306D01*
X1593254Y466973D01*
X1593629Y466648D01*
X1594012Y466333D01*
X1594403Y466027D01*
X1594801Y465731D01*
X1595205Y465444D01*
X1595617Y465167D01*
X1596035Y464900D01*
X1596460Y464644D01*
X1596890Y464397D01*
X1597327Y464161D01*
X1597769Y463936D01*
X1598216Y463722D01*
X1598669Y463518D01*
X1599126Y463325D01*
X1599588Y463144D01*
X1600053Y462974D01*
X1600523Y462815D01*
X1600997Y462667D01*
X1601474Y462531D01*
X1601954Y462406D01*
X1602437Y462294D01*
X1602923Y462192D01*
X1603411Y462103D01*
X1603901Y462025D01*
X1604393Y461960D01*
X1604886Y461906D01*
X1605380Y461864D01*
X1605875Y461834D01*
X1606371Y461816D01*
X1606867Y461810D01*
X1606868Y461810D02*
X1607905Y461822D01*
X1608942Y461860D01*
X1609978Y461922D01*
X1611012Y462009D01*
X1612043Y462120D01*
X1613072Y462256D01*
X1614097Y462417D01*
X1615118Y462602D01*
X1616134Y462812D01*
X1617145Y463046D01*
X1618150Y463303D01*
X1619149Y463585D01*
X1620140Y463891D01*
X1621124Y464220D01*
X1622100Y464573D01*
X1623067Y464949D01*
X1624025Y465348D01*
X1624973Y465770D01*
X1625911Y466215D01*
X1626837Y466681D01*
X1627753Y467170D01*
X1628656Y467681D01*
X1629547Y468213D01*
X1630425Y468766D01*
X1631289Y469340D01*
X1632139Y469934D01*
X1632975Y470549D01*
X1633796Y471184D01*
X1634602Y471838D01*
X1635392Y472511D01*
X1636165Y473202D01*
X1636922Y473912D01*
X1637661Y474640D01*
X1635095Y533661D02*
X1635089Y534157D01*
X1635071Y534653D01*
X1635041Y535148D01*
X1634999Y535642D01*
X1634945Y536135D01*
X1634880Y536627D01*
X1634802Y537117D01*
X1634713Y537605D01*
X1634611Y538091D01*
X1634498Y538574D01*
X1634374Y539054D01*
X1634238Y539531D01*
X1634090Y540005D01*
X1633931Y540475D01*
X1633761Y540941D01*
X1633579Y541402D01*
X1633387Y541860D01*
X1633183Y542312D01*
X1632969Y542759D01*
X1632744Y543201D01*
X1632508Y543638D01*
X1632261Y544068D01*
X1632005Y544493D01*
X1631738Y544911D01*
X1631461Y545323D01*
X1631174Y545728D01*
X1630878Y546125D01*
X1630572Y546516D01*
X1630257Y546899D01*
X1629932Y547274D01*
X1629599Y547642D01*
X1629257Y548001D01*
X1628906Y548352D01*
X1628547Y548694D01*
X1628179Y549027D01*
X1627804Y549352D01*
X1627421Y549667D01*
X1627030Y549973D01*
X1626633Y550269D01*
X1626228Y550556D01*
X1625816Y550833D01*
X1625398Y551100D01*
X1624973Y551356D01*
X1624543Y551603D01*
X1624106Y551839D01*
X1623664Y552064D01*
X1623217Y552278D01*
X1622765Y552482D01*
X1622307Y552674D01*
X1621846Y552856D01*
X1621380Y553026D01*
X1620910Y553185D01*
X1620436Y553333D01*
X1619959Y553469D01*
X1619479Y553593D01*
X1618996Y553706D01*
X1618510Y553808D01*
X1618022Y553897D01*
X1617532Y553975D01*
X1617040Y554040D01*
X1616547Y554094D01*
X1616053Y554136D01*
X1615558Y554166D01*
X1615062Y554184D01*
X1614566Y554190D01*
X1613649Y554179D01*
X1612732Y554146D01*
X1611816Y554092D01*
X1610902Y554015D01*
X1609990Y553917D01*
X1609080Y553797D01*
X1608174Y553656D01*
X1607271Y553492D01*
X1606373Y553308D01*
X1605479Y553102D01*
X1604590Y552875D01*
X1603707Y552626D01*
X1602830Y552357D01*
X1601959Y552067D01*
X1601096Y551756D01*
X1600241Y551425D01*
X1599393Y551074D01*
X1598555Y550702D01*
X1597725Y550310D01*
X1596905Y549899D01*
X1596095Y549469D01*
X1595295Y549019D01*
X1594507Y548550D01*
X1593730Y548063D01*
X1592964Y547557D01*
X1592211Y547033D01*
X1591471Y546492D01*
X1624831Y515698D02*
X1625261Y515959D01*
X1625685Y516230D01*
X1626103Y516511D01*
X1626514Y516803D01*
X1626917Y517104D01*
X1627313Y517415D01*
X1627702Y517735D01*
X1628082Y518064D01*
X1628455Y518403D01*
X1628819Y518750D01*
X1629175Y519107D01*
X1629522Y519471D01*
X1629860Y519844D01*
X1630189Y520225D01*
X1630509Y520614D01*
X1630819Y521011D01*
X1631119Y521415D01*
X1631410Y521825D01*
X1631691Y522243D01*
X1631962Y522668D01*
X1632222Y523099D01*
X1632472Y523536D01*
X1632711Y523979D01*
X1632939Y524428D01*
X1633157Y524882D01*
X1633363Y525341D01*
X1633558Y525805D01*
X1633742Y526273D01*
X1633915Y526746D01*
X1634076Y527223D01*
X1634226Y527704D01*
X1634364Y528188D01*
X1634490Y528675D01*
X1634605Y529166D01*
X1634707Y529658D01*
X1634798Y530154D01*
X1634877Y530651D01*
X1634943Y531150D01*
X1634998Y531650D01*
X1635040Y532152D01*
X1635071Y532655D01*
X1635089Y533158D01*
X1635095Y533661D01*
X1596604Y500302D02*
X1596173Y500041D01*
X1595749Y499770D01*
X1595331Y499488D01*
X1594921Y499197D01*
X1594517Y498896D01*
X1594121Y498585D01*
X1593733Y498265D01*
X1593352Y497936D01*
X1592980Y497597D01*
X1592615Y497249D01*
X1592260Y496893D01*
X1591913Y496529D01*
X1591574Y496156D01*
X1591245Y495775D01*
X1590926Y495386D01*
X1590615Y494989D01*
X1590315Y494585D01*
X1590024Y494174D01*
X1589743Y493757D01*
X1589473Y493332D01*
X1589212Y492901D01*
X1588963Y492464D01*
X1588723Y492021D01*
X1588495Y491572D01*
X1588278Y491118D01*
X1588071Y490659D01*
X1587876Y490195D01*
X1587692Y489727D01*
X1587519Y489254D01*
X1587358Y488777D01*
X1587208Y488296D01*
X1587070Y487812D01*
X1586944Y487325D01*
X1586829Y486834D01*
X1586727Y486342D01*
X1586636Y485846D01*
X1586557Y485349D01*
X1586491Y484850D01*
X1586436Y484350D01*
X1586394Y483848D01*
X1586363Y483345D01*
X1586345Y482842D01*
X1586339Y482339D01*
X1596603Y500302D02*
X1624830Y515698D01*
X1546359Y554190D02*
X1546359Y461810D01*
X1546359Y554190D02*
X1520698Y554190D01*
X1520073Y554182D01*
X1519449Y554160D01*
X1518825Y554122D01*
X1518202Y554068D01*
X1517581Y554000D01*
X1516962Y553917D01*
X1516345Y553818D01*
X1515730Y553705D01*
X1515119Y553576D01*
X1514510Y553433D01*
X1513906Y553275D01*
X1513305Y553102D01*
X1512709Y552915D01*
X1512117Y552713D01*
X1511531Y552497D01*
X1510950Y552266D01*
X1510375Y552022D01*
X1509806Y551764D01*
X1509243Y551492D01*
X1508688Y551206D01*
X1508139Y550907D01*
X1507598Y550594D01*
X1507064Y550269D01*
X1506539Y549930D01*
X1506022Y549579D01*
X1505514Y549215D01*
X1505015Y548840D01*
X1504525Y548452D01*
X1504044Y548052D01*
X1503574Y547641D01*
X1503114Y547218D01*
X1502664Y546784D01*
X1502225Y546340D01*
X1501796Y545885D01*
X1501379Y545419D01*
X1500974Y544944D01*
X1500580Y544458D01*
X1500198Y543964D01*
X1499828Y543460D01*
X1499471Y542947D01*
X1499126Y542426D01*
X1498794Y541897D01*
X1498475Y541360D01*
X1498169Y540815D01*
X1497877Y540262D01*
X1497598Y539703D01*
X1497332Y539137D01*
X1497081Y538565D01*
X1496844Y537987D01*
X1496620Y537403D01*
X1496411Y536814D01*
X1496217Y536221D01*
X1496037Y535622D01*
X1495871Y535020D01*
X1495721Y534413D01*
X1495585Y533803D01*
X1495464Y533190D01*
X1495358Y532574D01*
X1495267Y531956D01*
X1495191Y531336D01*
X1495130Y530714D01*
X1495085Y530090D01*
X1495054Y529466D01*
X1495039Y528841D01*
X1495039Y528217D01*
X1495054Y527592D01*
X1495085Y526968D01*
X1495130Y526344D01*
X1495191Y525722D01*
X1495267Y525102D01*
X1495358Y524484D01*
X1495464Y523868D01*
X1495585Y523255D01*
X1495721Y522645D01*
X1495871Y522038D01*
X1496037Y521436D01*
X1496217Y520837D01*
X1496411Y520244D01*
X1496620Y519655D01*
X1496844Y519071D01*
X1497081Y518493D01*
X1497332Y517921D01*
X1497598Y517355D01*
X1497877Y516796D01*
X1498169Y516243D01*
X1498475Y515698D01*
X1498794Y515161D01*
X1499126Y514632D01*
X1499471Y514111D01*
X1499828Y513598D01*
X1500198Y513094D01*
X1500580Y512600D01*
X1500974Y512114D01*
X1501379Y511639D01*
X1501796Y511173D01*
X1502225Y510718D01*
X1502664Y510274D01*
X1503114Y509840D01*
X1503574Y509417D01*
X1504044Y509006D01*
X1504525Y508606D01*
X1505015Y508218D01*
X1505514Y507843D01*
X1506022Y507479D01*
X1506539Y507128D01*
X1507064Y506789D01*
X1507598Y506464D01*
X1508139Y506151D01*
X1508688Y505852D01*
X1509243Y505566D01*
X1509806Y505294D01*
X1510375Y505036D01*
X1510950Y504792D01*
X1511531Y504561D01*
X1512117Y504345D01*
X1512709Y504143D01*
X1513305Y503956D01*
X1513906Y503783D01*
X1514510Y503625D01*
X1515119Y503482D01*
X1515730Y503353D01*
X1516345Y503240D01*
X1516962Y503141D01*
X1517581Y503058D01*
X1518202Y502990D01*
X1518825Y502936D01*
X1519449Y502898D01*
X1520073Y502876D01*
X1520698Y502868D01*
X1546359Y502868D01*
X1457488Y461810D02*
X1457488Y554190D01*
X1457488Y461810D02*
X1416430Y461810D01*
X1375000Y461810D02*
X1375000Y554190D01*
X1385265Y461810D02*
X1364736Y461810D01*
X1364736Y554190D02*
X1385265Y554190D01*
X1309001Y554190D02*
X1309001Y461810D01*
X1334662Y554190D02*
X1283339Y554190D01*
D11*
X1932000Y848500D02*
X1932000Y898500D01*
X2132000Y898500D01*
X2132000Y748500D01*
X2132000Y648500D02*
X2132000Y498500D01*
X1932000Y498500D01*
X1932000Y548500D01*
D12*
X2273580Y595418D02*
X2390420Y595418D01*
X2273580Y582436D02*
X2273580Y608401D01*
X2390420Y608401D02*
X2390420Y582436D01*
X2273580Y680035D02*
X2273580Y706000D01*
X2273580Y680035D02*
X2273588Y679408D01*
X2273610Y678781D01*
X2273648Y678154D01*
X2273701Y677529D01*
X2273769Y676905D01*
X2273852Y676283D01*
X2273951Y675664D01*
X2274064Y675047D01*
X2274192Y674432D01*
X2274334Y673821D01*
X2274492Y673214D01*
X2274664Y672611D01*
X2274851Y672012D01*
X2275052Y671417D01*
X2275267Y670828D01*
X2275497Y670244D01*
X2275740Y669666D01*
X2275998Y669094D01*
X2276269Y668528D01*
X2276554Y667969D01*
X2276852Y667417D01*
X2277164Y666872D01*
X2277488Y666335D01*
X2277826Y665806D01*
X2278176Y665286D01*
X2278539Y664774D01*
X2278914Y664271D01*
X2279301Y663777D01*
X2279699Y663292D01*
X2280110Y662818D01*
X2280531Y662353D01*
X2280964Y661899D01*
X2281408Y661455D01*
X2281862Y661022D01*
X2282327Y660601D01*
X2282801Y660190D01*
X2283286Y659792D01*
X2283780Y659405D01*
X2284283Y659030D01*
X2284795Y658667D01*
X2285315Y658317D01*
X2285844Y657979D01*
X2286381Y657655D01*
X2286926Y657343D01*
X2287478Y657045D01*
X2288037Y656760D01*
X2288603Y656489D01*
X2289175Y656231D01*
X2289753Y655988D01*
X2290337Y655758D01*
X2290926Y655543D01*
X2291521Y655342D01*
X2292120Y655155D01*
X2292723Y654983D01*
X2293330Y654825D01*
X2293941Y654683D01*
X2294556Y654555D01*
X2295173Y654442D01*
X2295792Y654343D01*
X2296414Y654260D01*
X2297038Y654192D01*
X2297663Y654139D01*
X2298290Y654101D01*
X2298917Y654079D01*
X2299544Y654071D01*
X2364455Y654071D01*
X2365092Y654079D01*
X2365729Y654102D01*
X2366365Y654141D01*
X2367000Y654196D01*
X2367633Y654266D01*
X2368265Y654352D01*
X2368894Y654453D01*
X2369520Y654570D01*
X2370144Y654702D01*
X2370764Y654849D01*
X2371380Y655012D01*
X2371992Y655189D01*
X2372600Y655381D01*
X2373202Y655589D01*
X2373800Y655811D01*
X2374391Y656047D01*
X2374977Y656299D01*
X2375556Y656564D01*
X2376129Y656843D01*
X2376695Y657137D01*
X2377253Y657444D01*
X2377804Y657765D01*
X2378346Y658099D01*
X2378880Y658447D01*
X2379406Y658807D01*
X2379922Y659181D01*
X2380429Y659567D01*
X2380927Y659965D01*
X2381415Y660375D01*
X2381892Y660797D01*
X2382359Y661231D01*
X2382815Y661676D01*
X2383260Y662132D01*
X2383694Y662599D01*
X2384116Y663076D01*
X2384526Y663564D01*
X2384924Y664061D01*
X2385310Y664569D01*
X2385683Y665085D01*
X2386044Y665610D01*
X2386392Y666145D01*
X2386726Y666687D01*
X2387047Y667238D01*
X2387354Y667796D01*
X2387647Y668362D01*
X2387927Y668934D01*
X2388192Y669514D01*
X2388443Y670099D01*
X2388680Y670691D01*
X2388902Y671288D01*
X2389109Y671891D01*
X2389302Y672499D01*
X2389479Y673111D01*
X2389642Y673727D01*
X2389789Y674347D01*
X2389921Y674970D01*
X2390038Y675597D01*
X2390139Y676226D01*
X2390225Y676857D01*
X2390295Y677491D01*
X2390350Y678126D01*
X2390389Y678762D01*
X2390412Y679398D01*
X2390420Y680036D01*
X2390420Y680035D02*
X2390420Y706000D01*
X2273580Y749653D02*
X2273580Y782108D01*
X2273590Y782898D01*
X2273618Y783688D01*
X2273667Y784477D01*
X2273734Y785265D01*
X2273820Y786050D01*
X2273926Y786833D01*
X2274050Y787614D01*
X2274194Y788391D01*
X2274356Y789165D01*
X2274538Y789934D01*
X2274738Y790699D01*
X2274956Y791458D01*
X2275193Y792212D01*
X2275448Y792960D01*
X2275722Y793702D01*
X2276013Y794437D01*
X2276322Y795164D01*
X2276649Y795884D01*
X2276993Y796595D01*
X2277354Y797298D01*
X2277733Y797992D01*
X2278128Y798677D01*
X2278540Y799351D01*
X2278968Y800016D01*
X2279412Y800669D01*
X2279872Y801312D01*
X2280347Y801944D01*
X2280838Y802563D01*
X2281343Y803171D01*
X2281863Y803766D01*
X2282398Y804348D01*
X2282947Y804917D01*
X2283509Y805472D01*
X2284084Y806014D01*
X2284673Y806542D01*
X2285274Y807054D01*
X2285888Y807553D01*
X2286514Y808036D01*
X2287151Y808503D01*
X2287799Y808955D01*
X2288458Y809391D01*
X2289128Y809811D01*
X2289808Y810215D01*
X2290497Y810602D01*
X2291195Y810972D01*
X2291902Y811324D01*
X2292618Y811660D01*
X2293342Y811978D01*
X2294073Y812278D01*
X2294811Y812560D01*
X2295556Y812825D01*
X2296307Y813071D01*
X2297064Y813298D01*
X2297826Y813508D01*
X2298593Y813698D01*
X2299365Y813870D01*
X2300140Y814023D01*
X2300919Y814157D01*
X2301701Y814272D01*
X2302485Y814368D01*
X2303272Y814445D01*
X2304060Y814503D01*
X2304850Y814541D01*
X2305640Y814561D01*
X2306430Y814561D01*
X2307220Y814541D01*
X2308010Y814503D01*
X2308798Y814445D01*
X2309585Y814368D01*
X2310369Y814272D01*
X2311151Y814157D01*
X2311930Y814023D01*
X2312705Y813870D01*
X2313477Y813698D01*
X2314244Y813508D01*
X2315006Y813298D01*
X2315763Y813071D01*
X2316514Y812825D01*
X2317259Y812560D01*
X2317997Y812278D01*
X2318728Y811978D01*
X2319452Y811660D01*
X2320168Y811324D01*
X2320875Y810972D01*
X2321573Y810602D01*
X2322263Y810215D01*
X2322942Y809811D01*
X2323612Y809391D01*
X2324271Y808955D01*
X2324919Y808503D01*
X2325556Y808036D01*
X2326182Y807553D01*
X2326796Y807054D01*
X2327397Y806542D01*
X2327986Y806014D01*
X2328561Y805472D01*
X2329123Y804917D01*
X2329672Y804348D01*
X2330207Y803766D01*
X2330727Y803171D01*
X2331232Y802563D01*
X2331723Y801944D01*
X2332198Y801312D01*
X2332658Y800669D01*
X2333102Y800016D01*
X2333530Y799351D01*
X2333942Y798677D01*
X2334337Y797992D01*
X2334716Y797298D01*
X2335077Y796595D01*
X2335421Y795884D01*
X2335748Y795164D01*
X2336057Y794437D01*
X2336348Y793702D01*
X2336622Y792960D01*
X2336877Y792212D01*
X2337114Y791458D01*
X2337332Y790699D01*
X2337532Y789934D01*
X2337714Y789165D01*
X2337876Y788391D01*
X2338020Y787614D01*
X2338144Y786833D01*
X2338250Y786050D01*
X2338336Y785265D01*
X2338403Y784477D01*
X2338452Y783688D01*
X2338480Y782898D01*
X2338490Y782108D01*
X2390420Y788599D02*
X2390420Y749653D01*
X2390420Y788599D02*
X2390412Y789231D01*
X2390389Y789863D01*
X2390351Y790494D01*
X2390297Y791124D01*
X2390228Y791753D01*
X2390143Y792380D01*
X2390044Y793004D01*
X2389929Y793626D01*
X2389799Y794245D01*
X2389654Y794860D01*
X2389494Y795472D01*
X2389319Y796079D01*
X2389130Y796683D01*
X2388925Y797281D01*
X2388707Y797875D01*
X2388474Y798462D01*
X2388226Y799044D01*
X2387965Y799620D01*
X2387690Y800189D01*
X2387400Y800752D01*
X2387098Y801307D01*
X2386782Y801854D01*
X2386452Y802394D01*
X2386110Y802926D01*
X2385754Y803449D01*
X2385387Y803963D01*
X2385006Y804468D01*
X2384614Y804964D01*
X2384209Y805450D01*
X2383793Y805926D01*
X2383365Y806392D01*
X2382926Y806847D01*
X2382477Y807291D01*
X2382016Y807725D01*
X2381545Y808147D01*
X2381064Y808557D01*
X2380573Y808955D01*
X2380073Y809342D01*
X2379563Y809716D01*
X2379044Y810078D01*
X2378517Y810427D01*
X2377981Y810763D01*
X2377438Y811085D01*
X2376886Y811395D01*
X2376327Y811691D01*
X2375761Y811973D01*
X2375189Y812241D01*
X2374610Y812496D01*
X2374025Y812736D01*
X2373435Y812962D01*
X2372839Y813173D01*
X2372238Y813370D01*
X2371632Y813552D01*
X2371022Y813720D01*
X2370409Y813872D01*
X2369792Y814010D01*
X2369171Y814132D01*
X2368548Y814239D01*
X2367922Y814331D01*
X2367295Y814408D01*
X2366666Y814470D01*
X2366035Y814516D01*
X2365403Y814547D01*
X2364771Y814562D01*
X2364139Y814562D01*
X2363507Y814547D01*
X2362875Y814516D01*
X2362244Y814470D01*
X2361615Y814408D01*
X2360988Y814331D01*
X2360362Y814239D01*
X2359739Y814132D01*
X2359118Y814010D01*
X2358501Y813872D01*
X2357888Y813720D01*
X2357278Y813552D01*
X2356672Y813370D01*
X2356071Y813173D01*
X2355475Y812962D01*
X2354885Y812736D01*
X2354300Y812496D01*
X2353721Y812241D01*
X2353149Y811973D01*
X2352583Y811691D01*
X2352024Y811395D01*
X2351473Y811085D01*
X2350929Y810763D01*
X2350393Y810427D01*
X2349866Y810078D01*
X2349347Y809716D01*
X2348837Y809342D01*
X2348337Y808955D01*
X2347846Y808557D01*
X2347365Y808147D01*
X2346894Y807725D01*
X2346433Y807291D01*
X2345984Y806847D01*
X2345545Y806392D01*
X2345117Y805926D01*
X2344701Y805450D01*
X2344296Y804964D01*
X2343904Y804468D01*
X2343523Y803963D01*
X2343156Y803449D01*
X2342800Y802926D01*
X2342458Y802394D01*
X2342128Y801854D01*
X2341812Y801307D01*
X2341510Y800752D01*
X2341220Y800189D01*
X2340945Y799620D01*
X2340684Y799044D01*
X2340436Y798462D01*
X2340203Y797875D01*
X2339985Y797281D01*
X2339780Y796683D01*
X2339591Y796079D01*
X2339416Y795472D01*
X2339256Y794860D01*
X2339111Y794245D01*
X2338981Y793626D01*
X2338866Y793004D01*
X2338767Y792380D01*
X2338682Y791753D01*
X2338613Y791124D01*
X2338559Y790494D01*
X2338521Y789863D01*
X2338498Y789231D01*
X2338490Y788599D01*
X2338491Y788599D02*
X2338491Y762635D01*
M02*
