G04 EAGLE Gerber X2 export*
%TF.Part,Single*%
%TF.FileFunction,Other,Bottom layer*%
%TF.FilePolarity,Positive*%
%TF.GenerationSoftware,Autodesk,EAGLE,9.0.0*%
%TF.CreationDate,2018-05-03T06:16:30Z*%
G75*
%MOMM*%
%FSLAX35Y35*%
%LPD*%
%AMOC8*
5,1,8,0,0,1.08239X$1,22.5*%
G01*
%ADD10C,0.076200*%
%ADD11R,0.700000X0.900000*%
%ADD12R,2.000000X0.400000*%
%ADD13R,1.500000X1.300000*%
%ADD14C,1.500000*%
%ADD15C,1.981200*%
%ADD16C,2.540000*%
%ADD17R,1.400000X1.000000*%
%ADD18C,1.524000*%
%ADD19C,0.650000*%
%ADD20C,0.254000*%
%ADD21C,0.508000*%

G36*
X2259818Y53960D02*
X2259818Y53960D01*
X2261010Y54034D01*
X2261392Y54158D01*
X2261790Y54209D01*
X2262900Y54648D01*
X2264036Y55016D01*
X2264375Y55231D01*
X2264748Y55379D01*
X2265713Y56080D01*
X2266723Y56719D01*
X2266998Y57012D01*
X2267323Y57248D01*
X2268084Y58167D01*
X2268902Y59036D01*
X2269096Y59388D01*
X2269352Y59698D01*
X2269861Y60777D01*
X2270437Y61823D01*
X2270538Y62212D01*
X2270709Y62575D01*
X2270933Y63747D01*
X2271232Y64903D01*
X2271232Y65304D01*
X2271308Y65699D01*
X2271234Y66888D01*
X2271236Y68084D01*
X2271136Y68474D01*
X2271112Y68874D01*
X2270745Y70008D01*
X2270449Y71166D01*
X2270256Y71518D01*
X2270133Y71901D01*
X2269494Y72910D01*
X2268921Y73957D01*
X2268647Y74249D01*
X2268432Y74589D01*
X2267563Y75409D01*
X2266748Y76279D01*
X2266409Y76495D01*
X2266117Y76771D01*
X2265071Y77348D01*
X2264065Y77989D01*
X2263513Y78208D01*
X2263332Y78308D01*
X2263129Y78361D01*
X2262558Y78588D01*
X2246999Y83643D01*
X2232749Y90903D01*
X2219811Y100304D01*
X2208504Y111611D01*
X2199103Y124549D01*
X2191843Y138799D01*
X2186901Y154008D01*
X2184399Y169804D01*
X2184399Y228601D01*
X2273298Y228601D01*
X2274478Y228750D01*
X2275663Y228823D01*
X2276050Y228948D01*
X2276454Y228999D01*
X2277560Y229437D01*
X2278690Y229802D01*
X2279034Y230020D01*
X2279413Y230169D01*
X2280372Y230866D01*
X2281378Y231502D01*
X2281658Y231800D01*
X2281987Y232038D01*
X2282744Y232952D01*
X2283559Y233818D01*
X2283756Y234174D01*
X2284016Y234488D01*
X2284523Y235562D01*
X2285097Y236603D01*
X2285199Y236998D01*
X2285373Y237365D01*
X2285596Y238530D01*
X2285894Y239682D01*
X2285933Y240287D01*
X2285972Y240489D01*
X2285959Y240695D01*
X2285998Y241300D01*
X2285998Y254002D01*
X2286002Y254002D01*
X2286002Y241300D01*
X2286151Y240120D01*
X2286224Y238936D01*
X2286349Y238549D01*
X2286400Y238144D01*
X2286838Y237038D01*
X2287203Y235909D01*
X2287421Y235564D01*
X2287571Y235186D01*
X2288267Y234227D01*
X2288903Y233220D01*
X2289201Y232940D01*
X2289439Y232612D01*
X2290353Y231855D01*
X2291219Y231039D01*
X2291575Y230842D01*
X2291889Y230582D01*
X2292963Y230076D01*
X2294004Y229501D01*
X2294399Y229399D01*
X2294767Y229226D01*
X2295932Y229002D01*
X2297083Y228704D01*
X2297688Y228665D01*
X2297891Y228627D01*
X2298097Y228639D01*
X2298701Y228601D01*
X2387600Y228601D01*
X2387600Y169804D01*
X2385098Y154008D01*
X2380157Y138799D01*
X2372896Y124549D01*
X2363496Y111611D01*
X2352189Y100304D01*
X2339250Y90903D01*
X2325000Y83643D01*
X2309441Y78588D01*
X2308361Y78079D01*
X2307251Y77640D01*
X2306926Y77404D01*
X2306563Y77233D01*
X2305642Y76473D01*
X2304677Y75772D01*
X2304421Y75463D01*
X2304111Y75206D01*
X2303409Y74241D01*
X2302648Y73322D01*
X2302476Y72958D01*
X2302240Y72634D01*
X2301800Y71523D01*
X2301291Y70444D01*
X2301215Y70050D01*
X2301067Y69677D01*
X2300917Y68492D01*
X2300692Y67320D01*
X2300717Y66920D01*
X2300666Y66521D01*
X2300815Y65335D01*
X2300888Y64145D01*
X2301012Y63764D01*
X2301062Y63364D01*
X2301500Y62253D01*
X2301867Y61118D01*
X2302082Y60779D01*
X2302229Y60405D01*
X2302929Y59440D01*
X2303568Y58430D01*
X2303860Y58154D01*
X2304096Y57829D01*
X2305013Y57068D01*
X2305883Y56249D01*
X2306235Y56054D01*
X2306544Y55798D01*
X2307621Y55289D01*
X2308668Y54711D01*
X2309057Y54610D01*
X2309420Y54439D01*
X2310592Y54213D01*
X2311748Y53914D01*
X2312342Y53876D01*
X2312543Y53837D01*
X2312752Y53850D01*
X2313365Y53810D01*
X2413000Y53810D01*
X2413208Y53837D01*
X2413830Y53838D01*
X2454880Y56528D01*
X2455310Y56611D01*
X2455746Y56615D01*
X2457336Y56934D01*
X2536637Y78182D01*
X2537426Y78504D01*
X2538247Y78732D01*
X2539482Y79343D01*
X2539582Y79384D01*
X2539618Y79410D01*
X2539700Y79451D01*
X2610799Y120500D01*
X2611479Y121016D01*
X2612212Y121448D01*
X2613243Y122355D01*
X2613333Y122423D01*
X2613362Y122459D01*
X2613429Y122518D01*
X2671481Y180571D01*
X2672003Y181243D01*
X2672601Y181851D01*
X2673365Y182998D01*
X2673431Y183084D01*
X2673449Y183124D01*
X2673500Y183201D01*
X2714549Y254300D01*
X2714879Y255084D01*
X2715299Y255827D01*
X2715532Y256516D01*
X2715626Y256715D01*
X2715661Y256897D01*
X2715741Y257135D01*
X2715782Y257233D01*
X2715788Y257275D01*
X2715818Y257363D01*
X2737066Y336663D01*
X2737125Y337096D01*
X2737263Y337512D01*
X2737472Y339120D01*
X2737863Y345083D01*
X2737863Y345085D01*
X2737863Y345087D01*
X2740162Y380169D01*
X2740150Y380378D01*
X2740189Y381000D01*
X2740189Y1460500D01*
X2740163Y1460708D01*
X2740162Y1461330D01*
X2737472Y1502380D01*
X2737388Y1502810D01*
X2737385Y1503246D01*
X2737288Y1503728D01*
X2737277Y1503903D01*
X2737213Y1504101D01*
X2737066Y1504836D01*
X2715818Y1584137D01*
X2715496Y1584926D01*
X2715268Y1585747D01*
X2714657Y1586982D01*
X2714616Y1587082D01*
X2714590Y1587118D01*
X2714549Y1587200D01*
X2673500Y1658299D01*
X2672984Y1658979D01*
X2672552Y1659712D01*
X2671645Y1660743D01*
X2671577Y1660833D01*
X2671541Y1660862D01*
X2671481Y1660929D01*
X2613429Y1718981D01*
X2612757Y1719503D01*
X2612148Y1720101D01*
X2611002Y1720865D01*
X2610916Y1720931D01*
X2610876Y1720949D01*
X2610799Y1721000D01*
X2539700Y1762049D01*
X2538913Y1762380D01*
X2538173Y1762799D01*
X2536869Y1763239D01*
X2536767Y1763282D01*
X2536723Y1763288D01*
X2536637Y1763318D01*
X2457336Y1784566D01*
X2456903Y1784625D01*
X2456488Y1784763D01*
X2454880Y1784972D01*
X2413831Y1787662D01*
X2413622Y1787650D01*
X2413000Y1787689D01*
X381000Y1787689D01*
X380792Y1787663D01*
X380169Y1787662D01*
X339120Y1784972D01*
X338690Y1784888D01*
X338253Y1784885D01*
X336664Y1784566D01*
X257363Y1763318D01*
X256574Y1762996D01*
X255753Y1762768D01*
X254518Y1762157D01*
X254418Y1762116D01*
X254382Y1762090D01*
X254300Y1762049D01*
X183201Y1721000D01*
X182521Y1720484D01*
X181788Y1720052D01*
X180757Y1719145D01*
X180667Y1719077D01*
X180638Y1719041D01*
X180571Y1718981D01*
X122518Y1660929D01*
X121997Y1660257D01*
X121399Y1659648D01*
X120635Y1658502D01*
X120568Y1658416D01*
X120551Y1658376D01*
X120500Y1658299D01*
X79451Y1587200D01*
X79120Y1586413D01*
X78701Y1585673D01*
X78261Y1584369D01*
X78218Y1584267D01*
X78211Y1584223D01*
X78182Y1584137D01*
X56934Y1504836D01*
X56874Y1504404D01*
X56737Y1503988D01*
X56528Y1502380D01*
X56526Y1502351D01*
X56526Y1502350D01*
X56526Y1502348D01*
X54029Y1464253D01*
X54029Y1464252D01*
X54029Y1464250D01*
X53838Y1461331D01*
X53850Y1461122D01*
X53810Y1460500D01*
X53810Y381000D01*
X53837Y380792D01*
X53838Y380169D01*
X56528Y339120D01*
X56611Y338690D01*
X56615Y338253D01*
X56934Y336664D01*
X78182Y257363D01*
X78504Y256574D01*
X78732Y255753D01*
X79343Y254518D01*
X79384Y254418D01*
X79410Y254382D01*
X79451Y254300D01*
X120500Y183201D01*
X121016Y182521D01*
X121448Y181788D01*
X122355Y180757D01*
X122423Y180667D01*
X122459Y180638D01*
X122518Y180571D01*
X180571Y122518D01*
X181243Y121997D01*
X181851Y121399D01*
X182998Y120635D01*
X183084Y120568D01*
X183124Y120551D01*
X183201Y120500D01*
X254300Y79451D01*
X255087Y79120D01*
X255827Y78701D01*
X257131Y78261D01*
X257233Y78218D01*
X257277Y78211D01*
X257363Y78182D01*
X336664Y56934D01*
X337096Y56874D01*
X337512Y56737D01*
X339120Y56528D01*
X380169Y53838D01*
X380378Y53850D01*
X381000Y53810D01*
X2258634Y53810D01*
X2259818Y53960D01*
G37*
%LPC*%
G36*
X1758865Y81599D02*
X1758865Y81599D01*
X1723506Y96246D01*
X1696446Y123306D01*
X1681799Y158665D01*
X1681799Y349335D01*
X1696446Y384694D01*
X1723506Y411754D01*
X1734934Y416488D01*
X1735364Y416733D01*
X1735830Y416900D01*
X1736741Y417518D01*
X1737697Y418064D01*
X1738053Y418408D01*
X1738463Y418686D01*
X1739192Y419512D01*
X1739982Y420277D01*
X1740241Y420699D01*
X1740569Y421070D01*
X1741070Y422050D01*
X1741646Y422989D01*
X1741792Y423462D01*
X1742017Y423902D01*
X1742258Y424976D01*
X1742583Y426028D01*
X1742607Y426522D01*
X1742715Y427006D01*
X1742683Y428109D01*
X1742735Y429206D01*
X1742635Y429689D01*
X1742621Y430185D01*
X1742315Y431243D01*
X1742093Y432322D01*
X1741875Y432767D01*
X1741738Y433242D01*
X1741181Y434188D01*
X1740697Y435180D01*
X1740375Y435558D01*
X1740125Y435983D01*
X1739054Y437200D01*
X1641174Y535080D01*
X1618299Y557954D01*
X1618299Y631487D01*
X1618212Y632179D01*
X1618223Y632877D01*
X1618013Y633751D01*
X1617901Y634643D01*
X1617644Y635291D01*
X1617482Y635970D01*
X1617061Y636766D01*
X1616731Y637601D01*
X1616321Y638165D01*
X1615995Y638782D01*
X1615390Y639448D01*
X1614862Y640176D01*
X1614326Y640620D01*
X1613856Y641137D01*
X1613105Y641631D01*
X1612412Y642205D01*
X1611780Y642503D01*
X1611199Y642886D01*
X1610349Y643178D01*
X1609535Y643562D01*
X1608851Y643693D01*
X1608190Y643920D01*
X1607293Y643991D01*
X1606411Y644161D01*
X1605714Y644118D01*
X1605019Y644173D01*
X1604133Y644020D01*
X1603236Y643964D01*
X1602573Y643750D01*
X1601885Y643631D01*
X1601064Y643262D01*
X1600209Y642985D01*
X1599619Y642612D01*
X1598983Y642327D01*
X1598282Y641767D01*
X1597520Y641285D01*
X1597041Y640776D01*
X1596497Y640342D01*
X1595957Y639625D01*
X1595339Y638970D01*
X1595002Y638358D01*
X1594582Y637802D01*
X1593867Y636347D01*
X1585121Y615230D01*
X1543770Y573879D01*
X1489740Y551499D01*
X1431260Y551499D01*
X1377230Y573879D01*
X1335879Y615230D01*
X1313499Y669260D01*
X1313499Y727740D01*
X1335879Y781770D01*
X1377230Y823120D01*
X1412635Y837786D01*
X1413065Y838031D01*
X1413531Y838198D01*
X1414441Y838816D01*
X1415398Y839362D01*
X1415754Y839707D01*
X1416164Y839984D01*
X1416891Y840808D01*
X1417683Y841575D01*
X1417943Y841997D01*
X1418270Y842368D01*
X1418771Y843348D01*
X1419347Y844287D01*
X1419493Y844760D01*
X1419718Y845201D01*
X1419959Y846274D01*
X1420284Y847326D01*
X1420308Y847821D01*
X1420416Y848304D01*
X1420383Y849406D01*
X1420436Y850504D01*
X1420336Y850988D01*
X1420321Y851484D01*
X1420016Y852542D01*
X1419794Y853619D01*
X1419577Y854064D01*
X1419439Y854540D01*
X1418881Y855489D01*
X1418398Y856478D01*
X1418077Y856855D01*
X1417825Y857282D01*
X1416754Y858499D01*
X1415992Y859261D01*
X1407999Y878557D01*
X1407999Y899443D01*
X1415992Y918739D01*
X1430760Y933508D01*
X1450057Y941500D01*
X1470943Y941500D01*
X1490239Y933508D01*
X1505008Y918739D01*
X1513000Y899443D01*
X1513000Y878557D01*
X1505008Y859261D01*
X1504245Y858499D01*
X1503941Y858107D01*
X1503575Y857774D01*
X1502972Y856857D01*
X1502295Y855986D01*
X1502098Y855530D01*
X1501826Y855117D01*
X1501469Y854078D01*
X1501031Y853067D01*
X1500953Y852577D01*
X1500792Y852109D01*
X1500704Y851010D01*
X1500532Y849925D01*
X1500578Y849433D01*
X1500538Y848938D01*
X1500726Y847852D01*
X1500829Y846758D01*
X1500997Y846291D01*
X1501081Y845803D01*
X1501531Y844802D01*
X1501904Y843763D01*
X1502183Y843353D01*
X1502385Y842902D01*
X1503070Y842044D01*
X1503689Y841131D01*
X1504062Y840802D01*
X1504370Y840416D01*
X1505247Y839755D01*
X1506073Y839024D01*
X1506515Y838798D01*
X1506910Y838501D01*
X1508365Y837786D01*
X1543770Y823120D01*
X1585121Y781769D01*
X1593867Y760653D01*
X1594213Y760046D01*
X1594469Y759398D01*
X1594997Y758671D01*
X1595443Y757889D01*
X1595929Y757388D01*
X1596338Y756824D01*
X1597030Y756251D01*
X1597656Y755604D01*
X1598250Y755240D01*
X1598788Y754795D01*
X1599601Y754411D01*
X1600368Y753941D01*
X1601035Y753735D01*
X1601665Y753438D01*
X1602548Y753269D01*
X1603408Y753004D01*
X1604105Y752970D01*
X1604789Y752839D01*
X1605685Y752894D01*
X1606585Y752851D01*
X1607270Y752993D01*
X1607964Y753035D01*
X1608818Y753312D01*
X1609701Y753493D01*
X1610329Y753800D01*
X1610991Y754014D01*
X1611751Y754495D01*
X1612559Y754890D01*
X1613090Y755342D01*
X1613680Y755715D01*
X1614297Y756370D01*
X1614981Y756953D01*
X1615383Y757523D01*
X1615861Y758030D01*
X1616296Y758817D01*
X1616814Y759553D01*
X1617062Y760205D01*
X1617399Y760815D01*
X1617624Y761685D01*
X1617943Y762526D01*
X1618021Y763220D01*
X1618196Y763895D01*
X1618299Y765513D01*
X1618299Y1187694D01*
X1618176Y1188672D01*
X1618147Y1189659D01*
X1617977Y1190246D01*
X1617901Y1190850D01*
X1617539Y1191766D01*
X1617265Y1192716D01*
X1616955Y1193242D01*
X1616731Y1193808D01*
X1616152Y1194606D01*
X1615651Y1195457D01*
X1614984Y1196214D01*
X1614862Y1196383D01*
X1614766Y1196462D01*
X1614580Y1196674D01*
X1594224Y1217030D01*
X1593446Y1217633D01*
X1592727Y1218311D01*
X1592193Y1218606D01*
X1591711Y1218980D01*
X1590807Y1219371D01*
X1589942Y1219849D01*
X1589350Y1220002D01*
X1588792Y1220244D01*
X1587819Y1220398D01*
X1586862Y1220646D01*
X1585854Y1220710D01*
X1585650Y1220743D01*
X1585527Y1220731D01*
X1585244Y1220749D01*
X1581307Y1220749D01*
X1562010Y1228742D01*
X1547242Y1243510D01*
X1539911Y1261210D01*
X1539766Y1261464D01*
X1539676Y1261741D01*
X1538980Y1262842D01*
X1538335Y1263973D01*
X1538133Y1264182D01*
X1537976Y1264430D01*
X1537026Y1265324D01*
X1536122Y1266258D01*
X1535873Y1266411D01*
X1535661Y1266611D01*
X1534521Y1267240D01*
X1533410Y1267922D01*
X1533131Y1268008D01*
X1532876Y1268149D01*
X1531614Y1268475D01*
X1530370Y1268859D01*
X1530079Y1268873D01*
X1529796Y1268946D01*
X1528178Y1269049D01*
X1466200Y1269049D01*
X1465020Y1268900D01*
X1463835Y1268827D01*
X1463448Y1268702D01*
X1463044Y1268651D01*
X1461938Y1268213D01*
X1460808Y1267848D01*
X1460464Y1267630D01*
X1460086Y1267481D01*
X1459126Y1266784D01*
X1458120Y1266148D01*
X1457840Y1265850D01*
X1457511Y1265612D01*
X1456754Y1264698D01*
X1455939Y1263833D01*
X1455742Y1263476D01*
X1455482Y1263162D01*
X1454975Y1262088D01*
X1454401Y1261048D01*
X1454299Y1260653D01*
X1454125Y1260285D01*
X1453902Y1259120D01*
X1453604Y1257968D01*
X1453565Y1257363D01*
X1453526Y1257161D01*
X1453539Y1256955D01*
X1453500Y1256350D01*
X1453500Y1247451D01*
X1453399Y1247218D01*
X1452878Y1246225D01*
X1452769Y1245763D01*
X1452581Y1245328D01*
X1452405Y1244221D01*
X1452147Y1243129D01*
X1452156Y1242655D01*
X1452082Y1242187D01*
X1452186Y1241070D01*
X1452208Y1239949D01*
X1452334Y1239492D01*
X1452379Y1239020D01*
X1452758Y1237963D01*
X1453057Y1236883D01*
X1453379Y1236233D01*
X1453453Y1236026D01*
X1453558Y1235871D01*
X1453777Y1235430D01*
X1457169Y1229554D01*
X1458900Y1223094D01*
X1458900Y1192249D01*
X1403302Y1192249D01*
X1402122Y1192100D01*
X1400938Y1192027D01*
X1400551Y1191902D01*
X1400146Y1191851D01*
X1399040Y1191413D01*
X1397911Y1191048D01*
X1397566Y1190830D01*
X1397188Y1190681D01*
X1396228Y1189984D01*
X1395222Y1189348D01*
X1394942Y1189050D01*
X1394613Y1188812D01*
X1393857Y1187898D01*
X1393041Y1187033D01*
X1392844Y1186676D01*
X1392584Y1186362D01*
X1392078Y1185288D01*
X1391503Y1184248D01*
X1391401Y1183853D01*
X1391228Y1183485D01*
X1391004Y1182320D01*
X1391004Y1182318D01*
X1390948Y1182300D01*
X1390543Y1182249D01*
X1389438Y1181811D01*
X1388308Y1181446D01*
X1387964Y1181228D01*
X1387585Y1181078D01*
X1386626Y1180382D01*
X1385620Y1179746D01*
X1385339Y1179448D01*
X1385011Y1179210D01*
X1384254Y1178296D01*
X1383438Y1177430D01*
X1383242Y1177074D01*
X1382982Y1176760D01*
X1382475Y1175686D01*
X1381901Y1174645D01*
X1381798Y1174250D01*
X1381625Y1173883D01*
X1381402Y1172718D01*
X1381103Y1171566D01*
X1381065Y1170961D01*
X1381026Y1170758D01*
X1381039Y1170553D01*
X1381000Y1169948D01*
X1381000Y1104349D01*
X1360155Y1104349D01*
X1353695Y1106080D01*
X1347903Y1109424D01*
X1343175Y1114153D01*
X1341572Y1116929D01*
X1340815Y1117927D01*
X1340109Y1118968D01*
X1339854Y1119193D01*
X1339649Y1119463D01*
X1338666Y1120243D01*
X1337725Y1121074D01*
X1337423Y1121228D01*
X1337157Y1121440D01*
X1336008Y1121952D01*
X1334892Y1122522D01*
X1334562Y1122597D01*
X1334251Y1122735D01*
X1333014Y1122945D01*
X1331789Y1123221D01*
X1331449Y1123211D01*
X1331115Y1123268D01*
X1329865Y1123164D01*
X1328609Y1123126D01*
X1328283Y1123032D01*
X1327945Y1123004D01*
X1326757Y1122592D01*
X1325553Y1122244D01*
X1325261Y1122072D01*
X1324940Y1121961D01*
X1323894Y1121268D01*
X1322811Y1120630D01*
X1322442Y1120305D01*
X1322288Y1120203D01*
X1322142Y1120041D01*
X1321594Y1119559D01*
X1311784Y1109749D01*
X1225215Y1109749D01*
X1213499Y1121465D01*
X1213499Y1129350D01*
X1213350Y1130530D01*
X1213277Y1131714D01*
X1213152Y1132101D01*
X1213101Y1132506D01*
X1212663Y1133612D01*
X1212298Y1134741D01*
X1212080Y1135086D01*
X1211931Y1135464D01*
X1211234Y1136423D01*
X1210598Y1137430D01*
X1210300Y1137710D01*
X1210062Y1138038D01*
X1209148Y1138795D01*
X1208283Y1139611D01*
X1207926Y1139808D01*
X1207612Y1140068D01*
X1206538Y1140574D01*
X1205498Y1141149D01*
X1205103Y1141251D01*
X1204735Y1141424D01*
X1203570Y1141648D01*
X1202418Y1141946D01*
X1201813Y1141985D01*
X1201611Y1142023D01*
X1201405Y1142011D01*
X1200800Y1142049D01*
X1147370Y1142049D01*
X1147076Y1142012D01*
X1146781Y1142036D01*
X1145503Y1141814D01*
X1144214Y1141651D01*
X1143939Y1141542D01*
X1143647Y1141491D01*
X1142463Y1140958D01*
X1141256Y1140481D01*
X1141016Y1140307D01*
X1140746Y1140185D01*
X1139731Y1139374D01*
X1138682Y1138612D01*
X1138493Y1138384D01*
X1138261Y1138199D01*
X1137850Y1137653D01*
X1121739Y1121542D01*
X1114944Y1118728D01*
X1114514Y1118482D01*
X1114048Y1118315D01*
X1113136Y1117697D01*
X1112180Y1117152D01*
X1111825Y1116808D01*
X1111415Y1116529D01*
X1110686Y1115704D01*
X1109895Y1114938D01*
X1109637Y1114517D01*
X1109309Y1114146D01*
X1108808Y1113166D01*
X1108232Y1112227D01*
X1108086Y1111753D01*
X1107861Y1111313D01*
X1107619Y1110240D01*
X1107295Y1109187D01*
X1107271Y1108693D01*
X1107162Y1108210D01*
X1107195Y1107109D01*
X1107142Y1106009D01*
X1107242Y1105524D01*
X1107257Y1105030D01*
X1107562Y1103972D01*
X1107784Y1102894D01*
X1108001Y1102449D01*
X1108139Y1101973D01*
X1108698Y1101024D01*
X1109181Y1100036D01*
X1109502Y1099659D01*
X1109753Y1099232D01*
X1110824Y1098015D01*
X1188200Y1020638D01*
X1188200Y995857D01*
X1188324Y994879D01*
X1188353Y993892D01*
X1188523Y993305D01*
X1188599Y992701D01*
X1188961Y991785D01*
X1189235Y990835D01*
X1189545Y990309D01*
X1189769Y989743D01*
X1190348Y988944D01*
X1190849Y988094D01*
X1191516Y987337D01*
X1191638Y987168D01*
X1191733Y987089D01*
X1191920Y986877D01*
X1200008Y978789D01*
X1208000Y959493D01*
X1208000Y938607D01*
X1200008Y919310D01*
X1185239Y904542D01*
X1165943Y896549D01*
X1145057Y896549D01*
X1125760Y904542D01*
X1110992Y919310D01*
X1102999Y938607D01*
X1102999Y959493D01*
X1110992Y978789D01*
X1115295Y983092D01*
X1116024Y984032D01*
X1116810Y984921D01*
X1116996Y985283D01*
X1117245Y985605D01*
X1117718Y986696D01*
X1118258Y987753D01*
X1118348Y988151D01*
X1118509Y988524D01*
X1118696Y989696D01*
X1118957Y990857D01*
X1118945Y991265D01*
X1119008Y991666D01*
X1118898Y992847D01*
X1118862Y994037D01*
X1118749Y994428D01*
X1118711Y994833D01*
X1118310Y995950D01*
X1117980Y997093D01*
X1117773Y997445D01*
X1117636Y997827D01*
X1116969Y998811D01*
X1116366Y999834D01*
X1115967Y1000288D01*
X1115851Y1000460D01*
X1115695Y1000598D01*
X1115296Y1001052D01*
X1071880Y1044468D01*
X1070782Y1045320D01*
X1069712Y1046206D01*
X1069527Y1046293D01*
X1069366Y1046418D01*
X1068093Y1046969D01*
X1066834Y1047563D01*
X1066634Y1047601D01*
X1066447Y1047682D01*
X1065077Y1047899D01*
X1063710Y1048162D01*
X1063507Y1048149D01*
X1063305Y1048181D01*
X1061923Y1048051D01*
X1060535Y1047965D01*
X1060341Y1047903D01*
X1060138Y1047883D01*
X1058829Y1047413D01*
X1057508Y1046986D01*
X1057337Y1046878D01*
X1057144Y1046808D01*
X1055996Y1046030D01*
X1054820Y1045286D01*
X1054679Y1045137D01*
X1054512Y1045023D01*
X1053595Y1043986D01*
X1052639Y1042971D01*
X1052540Y1042792D01*
X1052405Y1042639D01*
X1051774Y1041404D01*
X1051101Y1040186D01*
X1051050Y1039988D01*
X1050957Y1039807D01*
X1050652Y1038453D01*
X1050304Y1037106D01*
X1050286Y1036824D01*
X1050258Y1036703D01*
X1050265Y1036494D01*
X1050200Y1035488D01*
X1050200Y903200D01*
X1050349Y902020D01*
X1050423Y900835D01*
X1050548Y900448D01*
X1050599Y900044D01*
X1051036Y898938D01*
X1051402Y897808D01*
X1051619Y897464D01*
X1051769Y897086D01*
X1052465Y896126D01*
X1053102Y895120D01*
X1053399Y894840D01*
X1053638Y894511D01*
X1054551Y893754D01*
X1055417Y892939D01*
X1055773Y892742D01*
X1056088Y892482D01*
X1057162Y891975D01*
X1058202Y891401D01*
X1058597Y891299D01*
X1058965Y891125D01*
X1060130Y890902D01*
X1060472Y890813D01*
X1072500Y878785D01*
X1072500Y772215D01*
X1060785Y760499D01*
X974215Y760499D01*
X961480Y773235D01*
X960542Y773963D01*
X959651Y774750D01*
X959288Y774935D01*
X958967Y775185D01*
X957876Y775657D01*
X956818Y776198D01*
X956421Y776287D01*
X956048Y776449D01*
X954876Y776635D01*
X953715Y776897D01*
X953307Y776884D01*
X952906Y776948D01*
X951724Y776837D01*
X950535Y776802D01*
X950144Y776689D01*
X949738Y776651D01*
X948621Y776249D01*
X947479Y775920D01*
X947127Y775713D01*
X946745Y775576D01*
X945762Y774909D01*
X944738Y774306D01*
X944283Y773906D01*
X944112Y773790D01*
X943975Y773635D01*
X943520Y773235D01*
X930785Y760499D01*
X844215Y760499D01*
X832499Y772215D01*
X832499Y828994D01*
X832376Y829972D01*
X832347Y830959D01*
X832177Y831546D01*
X832101Y832150D01*
X831739Y833066D01*
X831465Y834016D01*
X831155Y834542D01*
X830931Y835108D01*
X830352Y835906D01*
X829851Y836757D01*
X829549Y837099D01*
X829549Y901443D01*
X829426Y902421D01*
X829397Y903408D01*
X829227Y903995D01*
X829151Y904599D01*
X828789Y905515D01*
X828515Y906464D01*
X828205Y906991D01*
X827981Y907557D01*
X827402Y908355D01*
X826901Y909206D01*
X826234Y909963D01*
X826112Y910132D01*
X826016Y910211D01*
X825830Y910423D01*
X817742Y918510D01*
X809749Y937807D01*
X809749Y958693D01*
X817742Y977989D01*
X832510Y992758D01*
X851807Y1000750D01*
X872693Y1000750D01*
X891989Y992758D01*
X906758Y977989D01*
X914750Y958693D01*
X914750Y937807D01*
X906758Y918511D01*
X900426Y912180D01*
X899574Y911082D01*
X898688Y910012D01*
X898601Y909827D01*
X898476Y909666D01*
X897924Y908392D01*
X897332Y907134D01*
X897293Y906934D01*
X897212Y906747D01*
X896994Y905376D01*
X896733Y904010D01*
X896745Y903807D01*
X896713Y903605D01*
X896843Y902218D01*
X896929Y900835D01*
X896991Y900643D01*
X897010Y900438D01*
X897482Y899125D01*
X897908Y897808D01*
X898017Y897636D01*
X898086Y897444D01*
X898865Y896296D01*
X899608Y895120D01*
X899757Y894980D01*
X899871Y894812D01*
X900911Y893893D01*
X901923Y892939D01*
X902102Y892840D01*
X902255Y892705D01*
X903492Y892073D01*
X904708Y891401D01*
X904906Y891350D01*
X905087Y891257D01*
X906443Y890952D01*
X907788Y890604D01*
X908070Y890586D01*
X908191Y890558D01*
X908400Y890565D01*
X909406Y890500D01*
X930785Y890500D01*
X943520Y877765D01*
X944457Y877038D01*
X945349Y876250D01*
X945712Y876064D01*
X946033Y875815D01*
X947125Y875342D01*
X948182Y874802D01*
X948579Y874713D01*
X948953Y874551D01*
X950124Y874364D01*
X951285Y874103D01*
X951693Y874115D01*
X952094Y874052D01*
X953274Y874162D01*
X954465Y874198D01*
X954858Y874311D01*
X955262Y874349D01*
X956379Y874750D01*
X957521Y875080D01*
X957872Y875286D01*
X958256Y875424D01*
X959240Y876092D01*
X960263Y876694D01*
X960717Y877093D01*
X960888Y877210D01*
X961025Y877365D01*
X961480Y877765D01*
X974436Y890721D01*
X974464Y890723D01*
X974851Y890848D01*
X975256Y890899D01*
X976362Y891336D01*
X977491Y891702D01*
X977836Y891919D01*
X978214Y892069D01*
X979173Y892765D01*
X980180Y893402D01*
X980460Y893699D01*
X980788Y893938D01*
X981545Y894851D01*
X982361Y895717D01*
X982558Y896073D01*
X982818Y896388D01*
X983324Y897462D01*
X983899Y898502D01*
X984001Y898897D01*
X984174Y899265D01*
X984398Y900430D01*
X984696Y901582D01*
X984735Y902187D01*
X984773Y902389D01*
X984761Y902595D01*
X984799Y903200D01*
X984799Y1014300D01*
X984650Y1015480D01*
X984577Y1016664D01*
X984452Y1017051D01*
X984401Y1017456D01*
X983963Y1018562D01*
X983598Y1019691D01*
X983380Y1020036D01*
X983231Y1020414D01*
X982534Y1021373D01*
X981898Y1022380D01*
X981600Y1022660D01*
X981362Y1022988D01*
X980448Y1023745D01*
X979583Y1024561D01*
X979226Y1024758D01*
X978912Y1025018D01*
X977838Y1025524D01*
X976798Y1026099D01*
X976403Y1026201D01*
X976035Y1026374D01*
X974870Y1026598D01*
X974621Y1026662D01*
X954510Y1034992D01*
X939742Y1049760D01*
X937000Y1056382D01*
X936754Y1056812D01*
X936587Y1057278D01*
X935969Y1058190D01*
X935424Y1059145D01*
X935080Y1059501D01*
X934802Y1059911D01*
X933976Y1060640D01*
X933211Y1061430D01*
X932789Y1061689D01*
X932418Y1062017D01*
X931438Y1062518D01*
X930499Y1063094D01*
X930025Y1063240D01*
X929585Y1063465D01*
X928513Y1063706D01*
X927459Y1064031D01*
X926965Y1064055D01*
X926482Y1064163D01*
X925382Y1064131D01*
X924282Y1064183D01*
X923797Y1064083D01*
X923302Y1064069D01*
X922243Y1063763D01*
X921166Y1063541D01*
X920723Y1063324D01*
X920246Y1063187D01*
X919296Y1062628D01*
X918308Y1062145D01*
X917931Y1061824D01*
X917504Y1061573D01*
X916287Y1060502D01*
X902035Y1046249D01*
X815465Y1046249D01*
X805656Y1056059D01*
X804663Y1056830D01*
X803714Y1057650D01*
X803411Y1057801D01*
X803142Y1058009D01*
X801990Y1058508D01*
X800866Y1059068D01*
X800534Y1059139D01*
X800223Y1059273D01*
X798987Y1059470D01*
X797756Y1059733D01*
X797416Y1059719D01*
X797081Y1059773D01*
X795831Y1059655D01*
X794577Y1059604D01*
X794253Y1059507D01*
X793914Y1059475D01*
X792730Y1059050D01*
X791530Y1058690D01*
X791240Y1058515D01*
X790920Y1058400D01*
X789882Y1057695D01*
X788806Y1057047D01*
X788568Y1056805D01*
X788288Y1056614D01*
X787457Y1055674D01*
X786576Y1054778D01*
X786304Y1054369D01*
X786181Y1054231D01*
X786081Y1054035D01*
X785678Y1053429D01*
X784075Y1050653D01*
X779346Y1045924D01*
X773554Y1042580D01*
X767094Y1040849D01*
X746249Y1040849D01*
X746249Y1106448D01*
X746100Y1107628D01*
X746027Y1108812D01*
X745902Y1109199D01*
X745851Y1109604D01*
X745413Y1110709D01*
X745258Y1111190D01*
X745349Y1111354D01*
X745451Y1111749D01*
X745624Y1112117D01*
X745848Y1113282D01*
X746146Y1114434D01*
X746185Y1115039D01*
X746223Y1115241D01*
X746211Y1115447D01*
X746249Y1116052D01*
X746249Y1181650D01*
X767094Y1181650D01*
X773554Y1179919D01*
X779346Y1176575D01*
X784075Y1171847D01*
X785678Y1169071D01*
X786435Y1168073D01*
X787141Y1167032D01*
X787396Y1166806D01*
X787601Y1166537D01*
X788584Y1165757D01*
X789525Y1164925D01*
X789827Y1164771D01*
X790093Y1164560D01*
X791242Y1164048D01*
X792358Y1163478D01*
X792688Y1163403D01*
X792998Y1163265D01*
X794236Y1163055D01*
X795461Y1162779D01*
X795801Y1162789D01*
X796135Y1162732D01*
X797384Y1162836D01*
X798641Y1162873D01*
X798967Y1162968D01*
X799305Y1162996D01*
X800493Y1163408D01*
X801697Y1163756D01*
X801989Y1163928D01*
X802310Y1164039D01*
X803356Y1164732D01*
X804438Y1165369D01*
X804808Y1165694D01*
X804962Y1165796D01*
X805108Y1165959D01*
X805656Y1166440D01*
X815465Y1176250D01*
X902035Y1176250D01*
X913750Y1164535D01*
X913750Y1156650D01*
X913899Y1155470D01*
X913973Y1154285D01*
X914098Y1153898D01*
X914149Y1153494D01*
X914586Y1152388D01*
X914952Y1151258D01*
X915169Y1150914D01*
X915319Y1150536D01*
X916015Y1149576D01*
X916652Y1148570D01*
X916949Y1148290D01*
X917188Y1147961D01*
X918101Y1147204D01*
X918967Y1146389D01*
X919323Y1146192D01*
X919638Y1145932D01*
X920712Y1145425D01*
X921752Y1144851D01*
X922147Y1144749D01*
X922515Y1144575D01*
X923680Y1144352D01*
X924832Y1144054D01*
X925437Y1144015D01*
X925639Y1143976D01*
X925845Y1143989D01*
X926450Y1143950D01*
X941738Y1143950D01*
X943119Y1144125D01*
X944500Y1144254D01*
X944692Y1144323D01*
X944894Y1144349D01*
X946183Y1144859D01*
X947494Y1145329D01*
X947663Y1145444D01*
X947852Y1145519D01*
X948972Y1146332D01*
X950127Y1147115D01*
X950262Y1147268D01*
X950427Y1147388D01*
X951312Y1148456D01*
X952233Y1149499D01*
X952325Y1149680D01*
X952456Y1149838D01*
X953049Y1151096D01*
X953681Y1152331D01*
X953725Y1152530D01*
X953813Y1152715D01*
X954074Y1154078D01*
X954379Y1155435D01*
X954373Y1155639D01*
X954412Y1155839D01*
X954326Y1157220D01*
X954285Y1158615D01*
X954228Y1158812D01*
X954215Y1159014D01*
X953789Y1160333D01*
X953403Y1161671D01*
X953299Y1161847D01*
X953236Y1162041D01*
X952491Y1163219D01*
X951789Y1164412D01*
X951603Y1164623D01*
X951536Y1164729D01*
X951383Y1164873D01*
X950718Y1165630D01*
X924799Y1191548D01*
X924799Y1213193D01*
X924676Y1214171D01*
X924647Y1215158D01*
X924477Y1215745D01*
X924401Y1216349D01*
X924039Y1217265D01*
X923765Y1218214D01*
X923455Y1218741D01*
X923231Y1219307D01*
X922652Y1220105D01*
X922151Y1220956D01*
X921484Y1221713D01*
X921362Y1221882D01*
X921266Y1221961D01*
X921080Y1222173D01*
X912992Y1230260D01*
X904999Y1249557D01*
X904999Y1270443D01*
X912992Y1289739D01*
X927760Y1304508D01*
X947057Y1312500D01*
X967943Y1312500D01*
X987239Y1304508D01*
X1002008Y1289739D01*
X1010000Y1270443D01*
X1010000Y1249557D01*
X1002008Y1230261D01*
X999273Y1227526D01*
X998545Y1226588D01*
X997758Y1225697D01*
X997573Y1225335D01*
X997323Y1225013D01*
X996849Y1223919D01*
X996310Y1222864D01*
X996220Y1222468D01*
X996058Y1222094D01*
X995872Y1220918D01*
X995611Y1219761D01*
X995623Y1219353D01*
X995559Y1218952D01*
X995670Y1217771D01*
X995706Y1216581D01*
X995818Y1216190D01*
X995857Y1215785D01*
X996258Y1214667D01*
X996588Y1213525D01*
X996794Y1213173D01*
X996932Y1212791D01*
X997599Y1211807D01*
X998202Y1210783D01*
X998600Y1210330D01*
X998717Y1210158D01*
X998874Y1210020D01*
X999273Y1209566D01*
X1023965Y1184874D01*
X1024355Y1184571D01*
X1024689Y1184204D01*
X1025610Y1183597D01*
X1026478Y1182924D01*
X1026932Y1182728D01*
X1027346Y1182455D01*
X1028390Y1182096D01*
X1029398Y1181660D01*
X1029885Y1181582D01*
X1030354Y1181421D01*
X1031453Y1181333D01*
X1032539Y1181161D01*
X1033032Y1181207D01*
X1033525Y1181168D01*
X1034611Y1181355D01*
X1035706Y1181458D01*
X1036172Y1181625D01*
X1036660Y1181710D01*
X1037664Y1182161D01*
X1038700Y1182533D01*
X1039111Y1182812D01*
X1039561Y1183014D01*
X1040420Y1183699D01*
X1041333Y1184319D01*
X1041661Y1184690D01*
X1042048Y1184998D01*
X1042710Y1185877D01*
X1043439Y1186703D01*
X1043664Y1187143D01*
X1043963Y1187538D01*
X1044678Y1188994D01*
X1047492Y1195789D01*
X1062260Y1210558D01*
X1081557Y1218550D01*
X1102443Y1218550D01*
X1122052Y1210428D01*
X1122624Y1209889D01*
X1123158Y1209594D01*
X1123640Y1209220D01*
X1124544Y1208828D01*
X1125409Y1208351D01*
X1126001Y1208198D01*
X1126559Y1207956D01*
X1127532Y1207802D01*
X1128489Y1207554D01*
X1129497Y1207489D01*
X1129701Y1207457D01*
X1129824Y1207468D01*
X1130107Y1207450D01*
X1200800Y1207450D01*
X1201980Y1207599D01*
X1203164Y1207673D01*
X1203551Y1207798D01*
X1203956Y1207849D01*
X1205062Y1208286D01*
X1206191Y1208652D01*
X1206536Y1208869D01*
X1206914Y1209019D01*
X1207873Y1209715D01*
X1208880Y1210352D01*
X1209160Y1210649D01*
X1209488Y1210888D01*
X1210245Y1211801D01*
X1211061Y1212667D01*
X1211258Y1213023D01*
X1211518Y1213338D01*
X1212024Y1214412D01*
X1212599Y1215452D01*
X1212701Y1215847D01*
X1212874Y1216215D01*
X1213098Y1217380D01*
X1213396Y1218532D01*
X1213435Y1219137D01*
X1213473Y1219339D01*
X1213461Y1219545D01*
X1213499Y1220150D01*
X1213499Y1228034D01*
X1214735Y1229270D01*
X1215462Y1230207D01*
X1216250Y1231099D01*
X1216435Y1231461D01*
X1216685Y1231783D01*
X1217158Y1232875D01*
X1217698Y1233931D01*
X1217787Y1234328D01*
X1217949Y1234702D01*
X1218135Y1235874D01*
X1218397Y1237035D01*
X1218384Y1237443D01*
X1218448Y1237844D01*
X1218337Y1239025D01*
X1218302Y1240214D01*
X1218189Y1240606D01*
X1218151Y1241011D01*
X1217750Y1242128D01*
X1217420Y1243271D01*
X1217213Y1243623D01*
X1217076Y1244005D01*
X1216408Y1244989D01*
X1215806Y1246012D01*
X1215408Y1246465D01*
X1215290Y1246638D01*
X1215134Y1246776D01*
X1214735Y1247229D01*
X1213499Y1248465D01*
X1213499Y1355035D01*
X1225215Y1366750D01*
X1311784Y1366750D01*
X1324520Y1354015D01*
X1325458Y1353287D01*
X1326349Y1352500D01*
X1326711Y1352314D01*
X1327033Y1352065D01*
X1328124Y1351593D01*
X1329181Y1351052D01*
X1329578Y1350963D01*
X1329952Y1350801D01*
X1331123Y1350615D01*
X1332285Y1350353D01*
X1332693Y1350365D01*
X1333094Y1350302D01*
X1334275Y1350413D01*
X1335464Y1350448D01*
X1335856Y1350561D01*
X1336261Y1350599D01*
X1337379Y1351000D01*
X1338521Y1351330D01*
X1338873Y1351537D01*
X1339255Y1351674D01*
X1340238Y1352340D01*
X1341262Y1352944D01*
X1341717Y1353343D01*
X1341888Y1353460D01*
X1342025Y1353615D01*
X1342479Y1354015D01*
X1355215Y1366750D01*
X1441785Y1366750D01*
X1453500Y1355035D01*
X1453500Y1347150D01*
X1453649Y1345970D01*
X1453723Y1344785D01*
X1453848Y1344398D01*
X1453899Y1343994D01*
X1454336Y1342888D01*
X1454702Y1341758D01*
X1454919Y1341414D01*
X1455069Y1341036D01*
X1455765Y1340076D01*
X1456402Y1339070D01*
X1456699Y1338790D01*
X1456938Y1338461D01*
X1457852Y1337704D01*
X1458717Y1336889D01*
X1459073Y1336692D01*
X1459388Y1336432D01*
X1460462Y1335925D01*
X1461502Y1335351D01*
X1461897Y1335249D01*
X1462265Y1335075D01*
X1463430Y1334852D01*
X1464582Y1334554D01*
X1465187Y1334515D01*
X1465389Y1334476D01*
X1465595Y1334489D01*
X1466200Y1334450D01*
X1569295Y1334450D01*
X1574276Y1329470D01*
X1575053Y1328867D01*
X1575773Y1328189D01*
X1576307Y1327894D01*
X1576789Y1327520D01*
X1577693Y1327128D01*
X1578558Y1326651D01*
X1579150Y1326498D01*
X1579708Y1326256D01*
X1580681Y1326102D01*
X1581638Y1325854D01*
X1582646Y1325789D01*
X1582850Y1325757D01*
X1582973Y1325768D01*
X1583255Y1325750D01*
X1602193Y1325750D01*
X1621489Y1317758D01*
X1636258Y1302989D01*
X1644250Y1283693D01*
X1644250Y1264755D01*
X1644374Y1263778D01*
X1644403Y1262791D01*
X1644573Y1262204D01*
X1644649Y1261599D01*
X1645011Y1260684D01*
X1645285Y1259734D01*
X1645595Y1259208D01*
X1645819Y1258641D01*
X1646398Y1257843D01*
X1646899Y1256993D01*
X1647566Y1256235D01*
X1647688Y1256067D01*
X1647783Y1255988D01*
X1647970Y1255776D01*
X1683700Y1220045D01*
X1683700Y590305D01*
X1683824Y589328D01*
X1683853Y588341D01*
X1684023Y587754D01*
X1684099Y587149D01*
X1684461Y586234D01*
X1684735Y585284D01*
X1685045Y584758D01*
X1685269Y584191D01*
X1685848Y583393D01*
X1686349Y582543D01*
X1687016Y581785D01*
X1687138Y581617D01*
X1687233Y581538D01*
X1687420Y581326D01*
X1810700Y458045D01*
X1810700Y429267D01*
X1810737Y428978D01*
X1810713Y428686D01*
X1810936Y427401D01*
X1811099Y426111D01*
X1811206Y425839D01*
X1811256Y425552D01*
X1811789Y424365D01*
X1812269Y423153D01*
X1812441Y422916D01*
X1812560Y422650D01*
X1813373Y421633D01*
X1814138Y420578D01*
X1814363Y420392D01*
X1814545Y420164D01*
X1815583Y419382D01*
X1816588Y418549D01*
X1816853Y418424D01*
X1817085Y418249D01*
X1818540Y417534D01*
X1832493Y411754D01*
X1851420Y392827D01*
X1852518Y391975D01*
X1853588Y391089D01*
X1853773Y391002D01*
X1853933Y390877D01*
X1855208Y390325D01*
X1856465Y389733D01*
X1856665Y389694D01*
X1856853Y389613D01*
X1858223Y389395D01*
X1859589Y389133D01*
X1859793Y389146D01*
X1859994Y389114D01*
X1861381Y389244D01*
X1862764Y389330D01*
X1862957Y389392D01*
X1863162Y389411D01*
X1864474Y389883D01*
X1865791Y390309D01*
X1865963Y390418D01*
X1866155Y390487D01*
X1867301Y391264D01*
X1868480Y392009D01*
X1868620Y392158D01*
X1868788Y392272D01*
X1869702Y393306D01*
X1870661Y394324D01*
X1870760Y394503D01*
X1870895Y394656D01*
X1871526Y395891D01*
X1872199Y397109D01*
X1872250Y397308D01*
X1872343Y397488D01*
X1872648Y398843D01*
X1872996Y400189D01*
X1873014Y400471D01*
X1873041Y400592D01*
X1873035Y400801D01*
X1873099Y401807D01*
X1873099Y514200D01*
X1872950Y515380D01*
X1872877Y516564D01*
X1872752Y516951D01*
X1872701Y517356D01*
X1872263Y518462D01*
X1871898Y519591D01*
X1871680Y519936D01*
X1871531Y520314D01*
X1870834Y521273D01*
X1870198Y522280D01*
X1869900Y522560D01*
X1869662Y522888D01*
X1868748Y523645D01*
X1867883Y524461D01*
X1867526Y524658D01*
X1867212Y524918D01*
X1866138Y525424D01*
X1865098Y525999D01*
X1864703Y526101D01*
X1864335Y526274D01*
X1863170Y526498D01*
X1862018Y526796D01*
X1861413Y526835D01*
X1861211Y526873D01*
X1861005Y526861D01*
X1860400Y526899D01*
X1827515Y526899D01*
X1815799Y538615D01*
X1815799Y655185D01*
X1827515Y666900D01*
X1860400Y666900D01*
X1861580Y667049D01*
X1862764Y667123D01*
X1863151Y667248D01*
X1863556Y667299D01*
X1864662Y667736D01*
X1865791Y668102D01*
X1866136Y668319D01*
X1866514Y668469D01*
X1867473Y669165D01*
X1868480Y669802D01*
X1868760Y670099D01*
X1869088Y670338D01*
X1869845Y671251D01*
X1870661Y672117D01*
X1870858Y672473D01*
X1871118Y672788D01*
X1871624Y673862D01*
X1872199Y674902D01*
X1872301Y675297D01*
X1872474Y675665D01*
X1872698Y676830D01*
X1872996Y677982D01*
X1873035Y678587D01*
X1873073Y678789D01*
X1873061Y678995D01*
X1873099Y679600D01*
X1873099Y717400D01*
X1872950Y718580D01*
X1872877Y719764D01*
X1872752Y720151D01*
X1872701Y720556D01*
X1872263Y721662D01*
X1871898Y722791D01*
X1871680Y723136D01*
X1871531Y723514D01*
X1870834Y724473D01*
X1870198Y725480D01*
X1869900Y725760D01*
X1869662Y726088D01*
X1868748Y726845D01*
X1867883Y727661D01*
X1867526Y727858D01*
X1867212Y728118D01*
X1866138Y728624D01*
X1865098Y729199D01*
X1864703Y729301D01*
X1864335Y729474D01*
X1863170Y729698D01*
X1862018Y729996D01*
X1861413Y730035D01*
X1861211Y730073D01*
X1861005Y730061D01*
X1860400Y730099D01*
X1827515Y730099D01*
X1815799Y741815D01*
X1815799Y858385D01*
X1827515Y870100D01*
X1984085Y870100D01*
X1995800Y858385D01*
X1995800Y741815D01*
X1984085Y730099D01*
X1951200Y730099D01*
X1950020Y729950D01*
X1948835Y729877D01*
X1948448Y729752D01*
X1948044Y729701D01*
X1946938Y729263D01*
X1945808Y728898D01*
X1945464Y728680D01*
X1945086Y728531D01*
X1944126Y727834D01*
X1943120Y727198D01*
X1942840Y726900D01*
X1942511Y726662D01*
X1941754Y725748D01*
X1940939Y724883D01*
X1940742Y724526D01*
X1940482Y724212D01*
X1939975Y723138D01*
X1939401Y722098D01*
X1939299Y721703D01*
X1939125Y721335D01*
X1938902Y720170D01*
X1938604Y719018D01*
X1938565Y718413D01*
X1938526Y718211D01*
X1938539Y718005D01*
X1938500Y717400D01*
X1938500Y679600D01*
X1938649Y678420D01*
X1938723Y677235D01*
X1938848Y676848D01*
X1938899Y676444D01*
X1939336Y675338D01*
X1939702Y674208D01*
X1939919Y673864D01*
X1940069Y673486D01*
X1940765Y672526D01*
X1941402Y671520D01*
X1941699Y671240D01*
X1941938Y670911D01*
X1942851Y670154D01*
X1943717Y669339D01*
X1944073Y669142D01*
X1944388Y668882D01*
X1945462Y668375D01*
X1946502Y667801D01*
X1946897Y667699D01*
X1947265Y667525D01*
X1948430Y667302D01*
X1949582Y667004D01*
X1950187Y666965D01*
X1950389Y666926D01*
X1950595Y666939D01*
X1951200Y666900D01*
X1984085Y666900D01*
X1995800Y655185D01*
X1995800Y538615D01*
X1984085Y526899D01*
X1951200Y526899D01*
X1950020Y526750D01*
X1948835Y526677D01*
X1948448Y526552D01*
X1948044Y526501D01*
X1946938Y526063D01*
X1945808Y525698D01*
X1945464Y525480D01*
X1945086Y525331D01*
X1944126Y524634D01*
X1943120Y523998D01*
X1942840Y523700D01*
X1942511Y523462D01*
X1941754Y522548D01*
X1940939Y521683D01*
X1940742Y521326D01*
X1940482Y521012D01*
X1939975Y519938D01*
X1939401Y518898D01*
X1939299Y518503D01*
X1939125Y518135D01*
X1938902Y516970D01*
X1938604Y515818D01*
X1938565Y515213D01*
X1938526Y515011D01*
X1938539Y514805D01*
X1938500Y514200D01*
X1938500Y403407D01*
X1938675Y402026D01*
X1938804Y400645D01*
X1938873Y400453D01*
X1938899Y400251D01*
X1939409Y398962D01*
X1939879Y397651D01*
X1939994Y397482D01*
X1940069Y397293D01*
X1940882Y396173D01*
X1941665Y395018D01*
X1941818Y394883D01*
X1941938Y394718D01*
X1943006Y393833D01*
X1944049Y392912D01*
X1944230Y392820D01*
X1944388Y392689D01*
X1945646Y392096D01*
X1946881Y391464D01*
X1947080Y391420D01*
X1947265Y391333D01*
X1948628Y391071D01*
X1949985Y390766D01*
X1950189Y390772D01*
X1950389Y390733D01*
X1951770Y390819D01*
X1953165Y390860D01*
X1953362Y390917D01*
X1953564Y390930D01*
X1954883Y391356D01*
X1956221Y391743D01*
X1956397Y391846D01*
X1956591Y391909D01*
X1957767Y392653D01*
X1958963Y393356D01*
X1959174Y393543D01*
X1959279Y393609D01*
X1959423Y393761D01*
X1960180Y394427D01*
X1977507Y411754D01*
X2012865Y426400D01*
X2051135Y426400D01*
X2086494Y411754D01*
X2113554Y384694D01*
X2128200Y349335D01*
X2128200Y158665D01*
X2113554Y123306D01*
X2086494Y96246D01*
X2051135Y81599D01*
X2012865Y81599D01*
X1977506Y96246D01*
X1950446Y123306D01*
X1935799Y158665D01*
X1935799Y298694D01*
X1935676Y299672D01*
X1935647Y300659D01*
X1935477Y301246D01*
X1935401Y301850D01*
X1935039Y302766D01*
X1934765Y303716D01*
X1934455Y304242D01*
X1934231Y304808D01*
X1933652Y305606D01*
X1933151Y306457D01*
X1932484Y307214D01*
X1932362Y307383D01*
X1932266Y307462D01*
X1932080Y307674D01*
X1895991Y343763D01*
X1895989Y343765D01*
X1895894Y343860D01*
X1894790Y344719D01*
X1893712Y345613D01*
X1893536Y345696D01*
X1893384Y345814D01*
X1892101Y346372D01*
X1890834Y346969D01*
X1890645Y347006D01*
X1890467Y347083D01*
X1889083Y347305D01*
X1887710Y347568D01*
X1887518Y347557D01*
X1887326Y347587D01*
X1885930Y347458D01*
X1884535Y347372D01*
X1884352Y347313D01*
X1884158Y347295D01*
X1882837Y346823D01*
X1881508Y346393D01*
X1881345Y346290D01*
X1881163Y346225D01*
X1880007Y345443D01*
X1878820Y344693D01*
X1878687Y344551D01*
X1878527Y344443D01*
X1877603Y343401D01*
X1876639Y342378D01*
X1876545Y342208D01*
X1876417Y342063D01*
X1875778Y340819D01*
X1875101Y339593D01*
X1875053Y339405D01*
X1874964Y339233D01*
X1874655Y337868D01*
X1874304Y336513D01*
X1874287Y336245D01*
X1874261Y336131D01*
X1874266Y335928D01*
X1874200Y334895D01*
X1874200Y158665D01*
X1859554Y123306D01*
X1832494Y96246D01*
X1797135Y81599D01*
X1758865Y81599D01*
G37*
%LPD*%
%LPC*%
G36*
X2382603Y920999D02*
X2382603Y920999D01*
X2347686Y935463D01*
X2320963Y962186D01*
X2320725Y962759D01*
X2320580Y963013D01*
X2320490Y963291D01*
X2319794Y964392D01*
X2319149Y965523D01*
X2318947Y965733D01*
X2318790Y965980D01*
X2317840Y966874D01*
X2316936Y967808D01*
X2316688Y967960D01*
X2316475Y968161D01*
X2315333Y968792D01*
X2314225Y969471D01*
X2313946Y969557D01*
X2313690Y969699D01*
X2312428Y970025D01*
X2311185Y970409D01*
X2310893Y970423D01*
X2310610Y970496D01*
X2308992Y970599D01*
X2001145Y970599D01*
X2000167Y970476D01*
X1999180Y970447D01*
X1998593Y970277D01*
X1997989Y970201D01*
X1997073Y969839D01*
X1996123Y969565D01*
X1995597Y969255D01*
X1995031Y969031D01*
X1994233Y968452D01*
X1993382Y967951D01*
X1992625Y967284D01*
X1992456Y967162D01*
X1992377Y967066D01*
X1992165Y966880D01*
X1988285Y962999D01*
X1821715Y962999D01*
X1809999Y974715D01*
X1809999Y1121284D01*
X1822735Y1134020D01*
X1823463Y1134958D01*
X1824250Y1135849D01*
X1824435Y1136211D01*
X1824685Y1136533D01*
X1825157Y1137624D01*
X1825698Y1138681D01*
X1825787Y1139078D01*
X1825949Y1139452D01*
X1826135Y1140623D01*
X1826397Y1141785D01*
X1826384Y1142193D01*
X1826448Y1142594D01*
X1826337Y1143775D01*
X1826302Y1144964D01*
X1826189Y1145356D01*
X1826151Y1145761D01*
X1825749Y1146879D01*
X1825420Y1148021D01*
X1825213Y1148373D01*
X1825076Y1148755D01*
X1824409Y1149738D01*
X1823806Y1150762D01*
X1823406Y1151217D01*
X1823290Y1151388D01*
X1823135Y1151525D01*
X1822735Y1151979D01*
X1809999Y1164715D01*
X1809999Y1311285D01*
X1821715Y1323000D01*
X1988285Y1323000D01*
X1992165Y1319120D01*
X1992943Y1318517D01*
X1993662Y1317839D01*
X1994197Y1317544D01*
X1994678Y1317170D01*
X1995583Y1316778D01*
X1996447Y1316301D01*
X1997039Y1316148D01*
X1997598Y1315906D01*
X1998570Y1315752D01*
X1999527Y1315504D01*
X2000535Y1315439D01*
X2000739Y1315407D01*
X2000862Y1315418D01*
X2001145Y1315400D01*
X2308992Y1315400D01*
X2309283Y1315437D01*
X2309573Y1315414D01*
X2310856Y1315636D01*
X2312148Y1315799D01*
X2312419Y1315906D01*
X2312708Y1315956D01*
X2313898Y1316491D01*
X2315106Y1316969D01*
X2315342Y1317140D01*
X2315609Y1317260D01*
X2316628Y1318074D01*
X2317681Y1318838D01*
X2317867Y1319063D01*
X2318095Y1319245D01*
X2318878Y1320284D01*
X2319710Y1321288D01*
X2319835Y1321552D01*
X2320010Y1321785D01*
X2320725Y1323240D01*
X2320963Y1323814D01*
X2347686Y1350537D01*
X2382603Y1365000D01*
X2570397Y1365000D01*
X2605314Y1350537D01*
X2632037Y1323814D01*
X2646500Y1288897D01*
X2646500Y1251103D01*
X2632037Y1216186D01*
X2605314Y1189463D01*
X2570397Y1174999D01*
X2382603Y1174999D01*
X2347686Y1189463D01*
X2320963Y1216186D01*
X2320725Y1216759D01*
X2320580Y1217013D01*
X2320490Y1217291D01*
X2319794Y1218392D01*
X2319149Y1219523D01*
X2318947Y1219733D01*
X2318790Y1219980D01*
X2317840Y1220874D01*
X2316936Y1221808D01*
X2316688Y1221960D01*
X2316475Y1222161D01*
X2315333Y1222792D01*
X2314225Y1223471D01*
X2313946Y1223557D01*
X2313690Y1223699D01*
X2312428Y1224025D01*
X2311185Y1224409D01*
X2310893Y1224423D01*
X2310610Y1224496D01*
X2308992Y1224599D01*
X2012700Y1224599D01*
X2011520Y1224450D01*
X2010335Y1224377D01*
X2009948Y1224252D01*
X2009544Y1224201D01*
X2008438Y1223763D01*
X2007308Y1223398D01*
X2006964Y1223180D01*
X2006586Y1223031D01*
X2005626Y1222334D01*
X2004620Y1221698D01*
X2004340Y1221400D01*
X2004011Y1221162D01*
X2003254Y1220248D01*
X2002439Y1219383D01*
X2002242Y1219026D01*
X2001982Y1218712D01*
X2001475Y1217638D01*
X2000901Y1216598D01*
X2000799Y1216203D01*
X2000625Y1215835D01*
X2000401Y1214667D01*
X2000104Y1213518D01*
X2000065Y1212913D01*
X2000026Y1212711D01*
X2000039Y1212505D01*
X2000000Y1211900D01*
X2000000Y1164715D01*
X1987265Y1151979D01*
X1986538Y1151043D01*
X1985750Y1150151D01*
X1985564Y1149788D01*
X1985315Y1149466D01*
X1984842Y1148375D01*
X1984302Y1147318D01*
X1984213Y1146921D01*
X1984051Y1146547D01*
X1983864Y1145375D01*
X1983603Y1144214D01*
X1983615Y1143806D01*
X1983552Y1143405D01*
X1983662Y1142226D01*
X1983698Y1141035D01*
X1983811Y1140642D01*
X1983849Y1140238D01*
X1984250Y1139120D01*
X1984580Y1137978D01*
X1984786Y1137628D01*
X1984924Y1137244D01*
X1985592Y1136260D01*
X1986194Y1135237D01*
X1986593Y1134783D01*
X1986710Y1134611D01*
X1986865Y1134474D01*
X1987265Y1134020D01*
X2000000Y1121284D01*
X2000000Y1074100D01*
X2000149Y1072920D01*
X2000223Y1071735D01*
X2000348Y1071348D01*
X2000399Y1070944D01*
X2000836Y1069838D01*
X2001202Y1068708D01*
X2001419Y1068364D01*
X2001569Y1067986D01*
X2002265Y1067026D01*
X2002902Y1066020D01*
X2003199Y1065740D01*
X2003438Y1065411D01*
X2004351Y1064654D01*
X2005217Y1063839D01*
X2005573Y1063642D01*
X2005888Y1063382D01*
X2006962Y1062875D01*
X2008002Y1062301D01*
X2008397Y1062199D01*
X2008765Y1062025D01*
X2009930Y1061802D01*
X2011082Y1061504D01*
X2011687Y1061465D01*
X2011889Y1061426D01*
X2012095Y1061439D01*
X2012700Y1061400D01*
X2308992Y1061400D01*
X2309283Y1061437D01*
X2309573Y1061414D01*
X2310856Y1061636D01*
X2312148Y1061799D01*
X2312419Y1061906D01*
X2312708Y1061956D01*
X2313898Y1062491D01*
X2315106Y1062969D01*
X2315342Y1063140D01*
X2315609Y1063260D01*
X2316628Y1064074D01*
X2317681Y1064838D01*
X2317867Y1065063D01*
X2318095Y1065245D01*
X2318878Y1066284D01*
X2319710Y1067288D01*
X2319835Y1067552D01*
X2320010Y1067785D01*
X2320725Y1069240D01*
X2320963Y1069814D01*
X2347686Y1096537D01*
X2382603Y1111000D01*
X2570397Y1111000D01*
X2605314Y1096537D01*
X2632037Y1069814D01*
X2646500Y1034897D01*
X2646500Y997103D01*
X2632037Y962186D01*
X2605314Y935463D01*
X2570397Y920999D01*
X2382603Y920999D01*
G37*
%LPD*%
%LPC*%
G36*
X120315Y1122699D02*
X120315Y1122699D01*
X108599Y1134415D01*
X108599Y1190985D01*
X120315Y1202700D01*
X314961Y1202700D01*
X315453Y1202763D01*
X315947Y1202739D01*
X317024Y1202961D01*
X318117Y1203099D01*
X318578Y1203281D01*
X319063Y1203381D01*
X320053Y1203864D01*
X321075Y1204269D01*
X321476Y1204560D01*
X321921Y1204777D01*
X322759Y1205491D01*
X323650Y1206138D01*
X323965Y1206518D01*
X324343Y1206840D01*
X324977Y1207740D01*
X325679Y1208588D01*
X325890Y1209036D01*
X326175Y1209440D01*
X326566Y1210469D01*
X327036Y1211465D01*
X327129Y1211951D01*
X327305Y1212414D01*
X327428Y1213508D01*
X327635Y1214589D01*
X327604Y1215083D01*
X327659Y1215575D01*
X327506Y1216667D01*
X327438Y1217764D01*
X327287Y1218234D01*
X327218Y1218726D01*
X326694Y1220260D01*
X324047Y1226650D01*
X324027Y1226964D01*
X323902Y1227351D01*
X323851Y1227756D01*
X323413Y1228862D01*
X323048Y1229991D01*
X322830Y1230336D01*
X322681Y1230714D01*
X321984Y1231673D01*
X321348Y1232680D01*
X321050Y1232960D01*
X320812Y1233288D01*
X319898Y1234045D01*
X319033Y1234861D01*
X318676Y1235058D01*
X318362Y1235318D01*
X317288Y1235824D01*
X316248Y1236399D01*
X315853Y1236501D01*
X315485Y1236674D01*
X314320Y1236898D01*
X313168Y1237196D01*
X312563Y1237235D01*
X312361Y1237273D01*
X312155Y1237261D01*
X311550Y1237299D01*
X241301Y1237299D01*
X241301Y1282697D01*
X241300Y1282698D01*
X241301Y1282703D01*
X241301Y1328100D01*
X315800Y1328100D01*
X316980Y1328249D01*
X318164Y1328323D01*
X318551Y1328448D01*
X318956Y1328499D01*
X320063Y1328937D01*
X321191Y1329302D01*
X321536Y1329519D01*
X321914Y1329669D01*
X322873Y1330365D01*
X323880Y1331002D01*
X324160Y1331299D01*
X324488Y1331538D01*
X325245Y1332451D01*
X326061Y1333317D01*
X326258Y1333673D01*
X326518Y1333988D01*
X327024Y1335062D01*
X327599Y1336102D01*
X327701Y1336497D01*
X327874Y1336865D01*
X328098Y1338030D01*
X328396Y1339182D01*
X328435Y1339787D01*
X328473Y1339989D01*
X328461Y1340195D01*
X328499Y1340800D01*
X328499Y1343942D01*
X328995Y1345139D01*
X329126Y1345618D01*
X329337Y1346065D01*
X329544Y1347146D01*
X329835Y1348208D01*
X329843Y1348703D01*
X329936Y1349189D01*
X329868Y1350288D01*
X329886Y1351388D01*
X329771Y1351870D01*
X329740Y1352364D01*
X329402Y1353411D01*
X329145Y1354482D01*
X328913Y1354920D01*
X328761Y1355391D01*
X328173Y1356321D01*
X327658Y1357294D01*
X327326Y1357661D01*
X327061Y1358080D01*
X326259Y1358835D01*
X325519Y1359649D01*
X325106Y1359921D01*
X324745Y1360261D01*
X323782Y1360793D01*
X322863Y1361398D01*
X322395Y1361559D01*
X321960Y1361799D01*
X320894Y1362075D01*
X319854Y1362432D01*
X319360Y1362472D01*
X318881Y1362596D01*
X317263Y1362699D01*
X120315Y1362699D01*
X108599Y1374415D01*
X108599Y1430985D01*
X120315Y1442700D01*
X336885Y1442700D01*
X340465Y1439120D01*
X341243Y1438517D01*
X341962Y1437839D01*
X342497Y1437544D01*
X342978Y1437170D01*
X343883Y1436778D01*
X344747Y1436301D01*
X345339Y1436148D01*
X345898Y1435906D01*
X346870Y1435752D01*
X347827Y1435504D01*
X348835Y1435439D01*
X349039Y1435407D01*
X349162Y1435418D01*
X349445Y1435400D01*
X394545Y1435400D01*
X413700Y1416245D01*
X413700Y1380307D01*
X413824Y1379329D01*
X413853Y1378342D01*
X414023Y1377755D01*
X414099Y1377151D01*
X414461Y1376235D01*
X414735Y1375285D01*
X415045Y1374759D01*
X415269Y1374193D01*
X415848Y1373395D01*
X416349Y1372544D01*
X417016Y1371787D01*
X417138Y1371618D01*
X417233Y1371539D01*
X417420Y1371327D01*
X425508Y1363239D01*
X433500Y1343943D01*
X433500Y1323057D01*
X425508Y1303760D01*
X413653Y1291906D01*
X412925Y1290968D01*
X412138Y1290077D01*
X411953Y1289715D01*
X411703Y1289393D01*
X411232Y1288303D01*
X410690Y1287245D01*
X410601Y1286846D01*
X410439Y1286474D01*
X410253Y1285304D01*
X409992Y1284141D01*
X410004Y1283733D01*
X409940Y1283332D01*
X410051Y1282153D01*
X410087Y1280962D01*
X410200Y1280569D01*
X410238Y1280165D01*
X410639Y1279048D01*
X410969Y1277905D01*
X411175Y1277554D01*
X411313Y1277171D01*
X411980Y1276187D01*
X412583Y1275164D01*
X412982Y1274709D01*
X413098Y1274538D01*
X413253Y1274401D01*
X413653Y1273947D01*
X421258Y1266343D01*
X429250Y1247047D01*
X429250Y1226161D01*
X421258Y1206864D01*
X413170Y1198777D01*
X412567Y1197999D01*
X411889Y1197279D01*
X411594Y1196745D01*
X411220Y1196263D01*
X410828Y1195359D01*
X410351Y1194494D01*
X410198Y1193903D01*
X409956Y1193344D01*
X409802Y1192372D01*
X409554Y1191415D01*
X409489Y1190407D01*
X409457Y1190203D01*
X409468Y1190080D01*
X409450Y1189797D01*
X409450Y1149154D01*
X390295Y1129999D01*
X349445Y1129999D01*
X348467Y1129876D01*
X347480Y1129847D01*
X346893Y1129677D01*
X346289Y1129601D01*
X345373Y1129239D01*
X344423Y1128965D01*
X343897Y1128655D01*
X343331Y1128431D01*
X342533Y1127852D01*
X341682Y1127351D01*
X340925Y1126684D01*
X340756Y1126562D01*
X340677Y1126466D01*
X340465Y1126280D01*
X336885Y1122699D01*
X120315Y1122699D01*
G37*
%LPD*%
%LPC*%
G36*
X1504865Y81599D02*
X1504865Y81599D01*
X1469506Y96246D01*
X1442446Y123306D01*
X1427799Y158665D01*
X1427799Y349335D01*
X1442446Y384694D01*
X1469506Y411754D01*
X1504865Y426400D01*
X1543135Y426400D01*
X1578494Y411754D01*
X1605554Y384694D01*
X1620200Y349335D01*
X1620200Y158665D01*
X1605554Y123306D01*
X1578494Y96246D01*
X1543135Y81599D01*
X1504865Y81599D01*
G37*
%LPD*%
%LPC*%
G36*
X1250865Y81599D02*
X1250865Y81599D01*
X1215506Y96246D01*
X1188446Y123306D01*
X1173799Y158665D01*
X1173799Y349335D01*
X1188446Y384694D01*
X1215506Y411754D01*
X1250865Y426400D01*
X1289135Y426400D01*
X1324494Y411754D01*
X1351554Y384694D01*
X1366200Y349335D01*
X1366200Y158665D01*
X1351554Y123306D01*
X1324494Y96246D01*
X1289135Y81599D01*
X1250865Y81599D01*
G37*
%LPD*%
%LPC*%
G36*
X996865Y81599D02*
X996865Y81599D01*
X961506Y96246D01*
X934446Y123306D01*
X919799Y158665D01*
X919799Y349335D01*
X934446Y384694D01*
X961506Y411754D01*
X996865Y426400D01*
X1035135Y426400D01*
X1070494Y411754D01*
X1097554Y384694D01*
X1112200Y349335D01*
X1112200Y158665D01*
X1097554Y123306D01*
X1070494Y96246D01*
X1035135Y81599D01*
X996865Y81599D01*
G37*
%LPD*%
%LPC*%
G36*
X742865Y81599D02*
X742865Y81599D01*
X707506Y96246D01*
X680446Y123306D01*
X665799Y158665D01*
X665799Y349335D01*
X680446Y384694D01*
X707506Y411754D01*
X742865Y426400D01*
X781135Y426400D01*
X816494Y411754D01*
X843554Y384694D01*
X858200Y349335D01*
X858200Y158665D01*
X843554Y123306D01*
X816494Y96246D01*
X781135Y81599D01*
X742865Y81599D01*
G37*
%LPD*%
%LPC*%
G36*
X488865Y81599D02*
X488865Y81599D01*
X453506Y96246D01*
X426446Y123306D01*
X411799Y158665D01*
X411799Y349335D01*
X426446Y384694D01*
X453506Y411754D01*
X488865Y426400D01*
X527135Y426400D01*
X562494Y411754D01*
X589554Y384694D01*
X604200Y349335D01*
X604200Y158665D01*
X589554Y123306D01*
X562494Y96246D01*
X527135Y81599D01*
X488865Y81599D01*
G37*
%LPD*%
%LPC*%
G36*
X1993899Y1549399D02*
X1993899Y1549399D01*
X1993899Y1648460D01*
X2077355Y1648460D01*
X2096705Y1645396D01*
X2115336Y1639342D01*
X2132792Y1630448D01*
X2148641Y1618933D01*
X2162493Y1605081D01*
X2174008Y1589232D01*
X2182902Y1571776D01*
X2188956Y1553145D01*
X2189549Y1549399D01*
X1993899Y1549399D01*
G37*
%LPD*%
%LPC*%
G36*
X1747451Y1549399D02*
X1747451Y1549399D01*
X1748044Y1553145D01*
X1750629Y1561100D01*
X1750629Y1561101D01*
X1750630Y1561103D01*
X1754098Y1571776D01*
X1762992Y1589232D01*
X1774507Y1605081D01*
X1788358Y1618933D01*
X1804208Y1630448D01*
X1821664Y1639342D01*
X1840294Y1645396D01*
X1859645Y1648460D01*
X1943101Y1648460D01*
X1943101Y1549399D01*
X1747451Y1549399D01*
G37*
%LPD*%
%LPC*%
G36*
X1993899Y1399539D02*
X1993899Y1399539D01*
X1993899Y1498601D01*
X2189549Y1498601D01*
X2188956Y1494854D01*
X2182902Y1476224D01*
X2174008Y1458768D01*
X2162493Y1442918D01*
X2148641Y1429067D01*
X2132792Y1417552D01*
X2115336Y1408658D01*
X2096705Y1402604D01*
X2077355Y1399539D01*
X1993899Y1399539D01*
G37*
%LPD*%
%LPC*%
G36*
X1859645Y1399539D02*
X1859645Y1399539D01*
X1840294Y1402604D01*
X1821664Y1408658D01*
X1804208Y1417552D01*
X1788358Y1429067D01*
X1774507Y1442918D01*
X1762992Y1458768D01*
X1754098Y1476224D01*
X1748044Y1494855D01*
X1747451Y1498601D01*
X1943101Y1498601D01*
X1943101Y1399539D01*
X1859645Y1399539D01*
G37*
%LPD*%
%LPC*%
G36*
X2311399Y279399D02*
X2311399Y279399D01*
X2311399Y428776D01*
X2325001Y424357D01*
X2339250Y417096D01*
X2352189Y407696D01*
X2363496Y396389D01*
X2372896Y383450D01*
X2380157Y369201D01*
X2385098Y353992D01*
X2387600Y338196D01*
X2387600Y279399D01*
X2311399Y279399D01*
G37*
%LPD*%
%LPC*%
G36*
X2184399Y279399D02*
X2184399Y279399D01*
X2184399Y338196D01*
X2186901Y353992D01*
X2191244Y367359D01*
X2191245Y367360D01*
X2191245Y367361D01*
X2191843Y369201D01*
X2199103Y383450D01*
X2208504Y396389D01*
X2219811Y407696D01*
X2232749Y417096D01*
X2246999Y424357D01*
X2260601Y428776D01*
X2260601Y279399D01*
X2184399Y279399D01*
G37*
%LPD*%
%LPC*%
G36*
X103199Y1295401D02*
X103199Y1295401D01*
X103199Y1306044D01*
X104930Y1312504D01*
X108274Y1318296D01*
X113003Y1323025D01*
X118795Y1326369D01*
X125255Y1328100D01*
X215899Y1328100D01*
X215899Y1295401D01*
X103199Y1295401D01*
G37*
%LPD*%
%LPC*%
G36*
X125255Y1237299D02*
X125255Y1237299D01*
X118795Y1239030D01*
X113003Y1242374D01*
X108274Y1247103D01*
X104930Y1252895D01*
X103199Y1259355D01*
X103199Y1269999D01*
X215899Y1269999D01*
X215899Y1237299D01*
X125255Y1237299D01*
G37*
%LPD*%
%LPC*%
G36*
X2172099Y723499D02*
X2172099Y723499D01*
X2172099Y773900D01*
X2220444Y773900D01*
X2226904Y772169D01*
X2232696Y768825D01*
X2237425Y764096D01*
X2240769Y758304D01*
X2242500Y751844D01*
X2242500Y723499D01*
X2172099Y723499D01*
G37*
%LPD*%
%LPC*%
G36*
X2051699Y723499D02*
X2051699Y723499D01*
X2051699Y751844D01*
X2053430Y758304D01*
X2056774Y764096D01*
X2061503Y768825D01*
X2067295Y772169D01*
X2073755Y773900D01*
X2122100Y773900D01*
X2122100Y723499D01*
X2051699Y723499D01*
G37*
%LPD*%
%LPC*%
G36*
X2172099Y623099D02*
X2172099Y623099D01*
X2172099Y673500D01*
X2242500Y673500D01*
X2242500Y645155D01*
X2240769Y638695D01*
X2237425Y632903D01*
X2232696Y628174D01*
X2226904Y624830D01*
X2220444Y623099D01*
X2172099Y623099D01*
G37*
%LPD*%
%LPC*%
G36*
X2073755Y623099D02*
X2073755Y623099D01*
X2067295Y624830D01*
X2061503Y628174D01*
X2056774Y632903D01*
X2053430Y638695D01*
X2051699Y645155D01*
X2051699Y673500D01*
X2122100Y673500D01*
X2122100Y623099D01*
X2073755Y623099D01*
G37*
%LPD*%
%LPC*%
G36*
X668349Y1128749D02*
X668349Y1128749D01*
X668349Y1159594D01*
X670080Y1166054D01*
X673424Y1171846D01*
X678153Y1176575D01*
X683945Y1179919D01*
X690405Y1181650D01*
X711250Y1181650D01*
X711250Y1128749D01*
X668349Y1128749D01*
G37*
%LPD*%
%LPC*%
G36*
X1415999Y1104349D02*
X1415999Y1104349D01*
X1415999Y1157250D01*
X1458900Y1157250D01*
X1458900Y1126405D01*
X1457169Y1119945D01*
X1453825Y1114153D01*
X1449096Y1109424D01*
X1443304Y1106080D01*
X1436844Y1104349D01*
X1415999Y1104349D01*
G37*
%LPD*%
%LPC*%
G36*
X690405Y1040849D02*
X690405Y1040849D01*
X683945Y1042580D01*
X678153Y1045924D01*
X673424Y1050653D01*
X670080Y1056445D01*
X668349Y1062905D01*
X668349Y1093750D01*
X711250Y1093750D01*
X711250Y1040849D01*
X690405Y1040849D01*
G37*
%LPD*%
%LPC*%
G36*
X1968498Y1523998D02*
X1968498Y1523998D01*
X1968498Y1524002D01*
X1968502Y1524002D01*
X1968502Y1523998D01*
X1968498Y1523998D01*
G37*
%LPD*%
D10*
X2413000Y1841500D02*
X381000Y1841500D01*
X0Y1460500D02*
X0Y381000D01*
X381000Y0D02*
X2413000Y0D01*
X2794000Y381000D02*
X2794000Y1460500D01*
X381000Y1841500D02*
X371794Y1841389D01*
X362593Y1841055D01*
X353402Y1840499D01*
X344228Y1839721D01*
X335076Y1838722D01*
X325950Y1837502D01*
X316856Y1836062D01*
X307800Y1834402D01*
X298786Y1832524D01*
X289821Y1830429D01*
X280908Y1828118D01*
X272055Y1825592D01*
X263265Y1822853D01*
X254543Y1819902D01*
X245896Y1816741D01*
X237327Y1813373D01*
X228842Y1809798D01*
X220446Y1806019D01*
X212144Y1802039D01*
X203940Y1797859D01*
X195840Y1793482D01*
X187848Y1788910D01*
X179969Y1784147D01*
X172207Y1779195D01*
X164567Y1774057D01*
X157054Y1768735D01*
X149671Y1763234D01*
X142423Y1757556D01*
X135315Y1751704D01*
X128350Y1745683D01*
X121533Y1739494D01*
X114867Y1733143D01*
X108357Y1726633D01*
X102006Y1719967D01*
X95817Y1713150D01*
X89796Y1706185D01*
X83944Y1699077D01*
X78266Y1691829D01*
X72765Y1684446D01*
X67443Y1676933D01*
X62305Y1669293D01*
X57353Y1661531D01*
X52590Y1653652D01*
X48018Y1645660D01*
X43641Y1637560D01*
X39461Y1629356D01*
X35481Y1621054D01*
X31702Y1612658D01*
X28127Y1604173D01*
X24759Y1595604D01*
X21598Y1586957D01*
X18647Y1578235D01*
X15908Y1569445D01*
X13382Y1560592D01*
X11071Y1551679D01*
X8976Y1542714D01*
X7098Y1533700D01*
X5438Y1524644D01*
X3998Y1515550D01*
X2778Y1506424D01*
X1779Y1497272D01*
X1001Y1488098D01*
X445Y1478907D01*
X111Y1469706D01*
X0Y1460500D01*
X2413000Y1841500D02*
X2422206Y1841389D01*
X2431407Y1841055D01*
X2440598Y1840499D01*
X2449772Y1839721D01*
X2458924Y1838722D01*
X2468050Y1837502D01*
X2477144Y1836062D01*
X2486200Y1834402D01*
X2495214Y1832524D01*
X2504179Y1830429D01*
X2513092Y1828118D01*
X2521945Y1825592D01*
X2530735Y1822853D01*
X2539457Y1819902D01*
X2548104Y1816741D01*
X2556673Y1813373D01*
X2565158Y1809798D01*
X2573554Y1806019D01*
X2581856Y1802039D01*
X2590060Y1797859D01*
X2598160Y1793482D01*
X2606152Y1788910D01*
X2614031Y1784147D01*
X2621793Y1779195D01*
X2629433Y1774057D01*
X2636946Y1768735D01*
X2644329Y1763234D01*
X2651577Y1757556D01*
X2658685Y1751704D01*
X2665650Y1745683D01*
X2672467Y1739494D01*
X2679133Y1733143D01*
X2685643Y1726633D01*
X2691994Y1719967D01*
X2698183Y1713150D01*
X2704204Y1706185D01*
X2710056Y1699077D01*
X2715734Y1691829D01*
X2721235Y1684446D01*
X2726557Y1676933D01*
X2731695Y1669293D01*
X2736647Y1661531D01*
X2741410Y1653652D01*
X2745982Y1645660D01*
X2750359Y1637560D01*
X2754539Y1629356D01*
X2758519Y1621054D01*
X2762298Y1612658D01*
X2765873Y1604173D01*
X2769241Y1595604D01*
X2772402Y1586957D01*
X2775353Y1578235D01*
X2778092Y1569445D01*
X2780618Y1560592D01*
X2782929Y1551679D01*
X2785024Y1542714D01*
X2786902Y1533700D01*
X2788562Y1524644D01*
X2790002Y1515550D01*
X2791222Y1506424D01*
X2792221Y1497272D01*
X2792999Y1488098D01*
X2793555Y1478907D01*
X2793889Y1469706D01*
X2794000Y1460500D01*
X381000Y0D02*
X371794Y111D01*
X362593Y445D01*
X353402Y1001D01*
X344228Y1779D01*
X335076Y2778D01*
X325950Y3998D01*
X316856Y5438D01*
X307800Y7098D01*
X298786Y8976D01*
X289821Y11071D01*
X280908Y13382D01*
X272055Y15908D01*
X263265Y18647D01*
X254543Y21598D01*
X245896Y24759D01*
X237327Y28127D01*
X228842Y31702D01*
X220446Y35481D01*
X212144Y39461D01*
X203940Y43641D01*
X195840Y48018D01*
X187848Y52590D01*
X179969Y57353D01*
X172207Y62305D01*
X164567Y67443D01*
X157054Y72765D01*
X149671Y78266D01*
X142423Y83944D01*
X135315Y89796D01*
X128350Y95817D01*
X121533Y102006D01*
X114867Y108357D01*
X108357Y114867D01*
X102006Y121533D01*
X95817Y128350D01*
X89796Y135315D01*
X83944Y142423D01*
X78266Y149671D01*
X72765Y157054D01*
X67443Y164567D01*
X62305Y172207D01*
X57353Y179969D01*
X52590Y187848D01*
X48018Y195840D01*
X43641Y203940D01*
X39461Y212144D01*
X35481Y220446D01*
X31702Y228842D01*
X28127Y237327D01*
X24759Y245896D01*
X21598Y254543D01*
X18647Y263265D01*
X15908Y272055D01*
X13382Y280908D01*
X11071Y289821D01*
X8976Y298786D01*
X7098Y307800D01*
X5438Y316856D01*
X3998Y325950D01*
X2778Y335076D01*
X1779Y344228D01*
X1001Y353402D01*
X445Y362593D01*
X111Y371794D01*
X0Y381000D01*
X2413000Y0D02*
X2422206Y111D01*
X2431407Y445D01*
X2440598Y1001D01*
X2449772Y1779D01*
X2458924Y2778D01*
X2468050Y3998D01*
X2477144Y5438D01*
X2486200Y7098D01*
X2495214Y8976D01*
X2504179Y11071D01*
X2513092Y13382D01*
X2521945Y15908D01*
X2530735Y18647D01*
X2539457Y21598D01*
X2548104Y24759D01*
X2556673Y28127D01*
X2565158Y31702D01*
X2573554Y35481D01*
X2581856Y39461D01*
X2590060Y43641D01*
X2598160Y48018D01*
X2606152Y52590D01*
X2614031Y57353D01*
X2621793Y62305D01*
X2629433Y67443D01*
X2636946Y72765D01*
X2644329Y78266D01*
X2651577Y83944D01*
X2658685Y89796D01*
X2665650Y95817D01*
X2672467Y102006D01*
X2679133Y108357D01*
X2685643Y114867D01*
X2691994Y121533D01*
X2698183Y128350D01*
X2704204Y135315D01*
X2710056Y142423D01*
X2715734Y149671D01*
X2721235Y157054D01*
X2726557Y164567D01*
X2731695Y172207D01*
X2736647Y179969D01*
X2741410Y187848D01*
X2745982Y195840D01*
X2750359Y203940D01*
X2754539Y212144D01*
X2758519Y220446D01*
X2762298Y228842D01*
X2765873Y237327D01*
X2769241Y245896D01*
X2772402Y254543D01*
X2775353Y263265D01*
X2778092Y272055D01*
X2780618Y280908D01*
X2782929Y289821D01*
X2785024Y298786D01*
X2786902Y307800D01*
X2788562Y316856D01*
X2790002Y325950D01*
X2791222Y335076D01*
X2792221Y344228D01*
X2792999Y353402D01*
X2793555Y362593D01*
X2793889Y371794D01*
X2794000Y381000D01*
D11*
X858750Y1111250D03*
X728750Y1111250D03*
X1268500Y1174750D03*
X1398500Y1174750D03*
D12*
X228600Y1162700D03*
X228600Y1282700D03*
X228600Y1402700D03*
D11*
X1017500Y825500D03*
X887500Y825500D03*
X1268500Y1301750D03*
X1398500Y1301750D03*
D13*
X1905000Y1048000D03*
X1905000Y1238000D03*
D14*
X2401500Y1016000D02*
X2551500Y1016000D01*
X2551500Y1270000D02*
X2401500Y1270000D01*
D15*
X2067560Y1524000D02*
X1869440Y1524000D01*
D16*
X1460500Y698500D03*
D17*
X1905800Y596900D03*
X1905800Y800100D03*
X2147100Y698500D03*
D18*
X2286000Y330200D02*
X2286000Y177800D01*
X2032000Y177800D02*
X2032000Y330200D01*
X1778000Y330200D02*
X1778000Y177800D01*
X1524000Y177800D02*
X1524000Y330200D01*
X1270000Y330200D02*
X1270000Y177800D01*
X1016000Y177800D02*
X1016000Y330200D01*
X762000Y330200D02*
X762000Y177800D01*
X508000Y177800D02*
X508000Y330200D01*
D19*
X957500Y1260000D03*
X1155500Y949050D03*
D20*
X1155500Y1007093D01*
X957500Y1205093D02*
X957500Y1260000D01*
X957500Y1205093D02*
X1155500Y1007093D01*
D21*
X1937000Y1270000D02*
X2476500Y1270000D01*
X1937000Y1270000D02*
X1905000Y1238000D01*
X1937000Y1016000D02*
X2476500Y1016000D01*
X1937000Y1016000D02*
X1905000Y1048000D01*
D19*
X1092000Y1166050D03*
X984250Y1079500D03*
D20*
X1905800Y800100D02*
X1905800Y596900D01*
X1905800Y380200D02*
X2032000Y254000D01*
X1905800Y380200D02*
X1905800Y596900D01*
X1017500Y825500D02*
X1017500Y1046250D01*
X984250Y1079500D01*
X952500Y1111250D02*
X858750Y1111250D01*
X952500Y1111250D02*
X984250Y1079500D01*
X1100700Y1174750D02*
X1268500Y1174750D01*
X1100700Y1174750D02*
X1092000Y1166050D01*
X1268500Y1174750D02*
X1268500Y1301750D01*
D19*
X376750Y1236604D03*
D20*
X376750Y1162700D02*
X228600Y1162700D01*
X376750Y1162700D02*
X376750Y1236604D01*
D19*
X381000Y1333500D03*
D20*
X381000Y1402700D02*
X228600Y1402700D01*
X381000Y1402700D02*
X381000Y1333500D01*
D19*
X1591750Y1273250D03*
D20*
X1588000Y1269500D01*
X1778000Y444500D02*
X1778000Y254000D01*
X1778000Y444500D02*
X1651000Y571500D01*
X1651000Y1206500D01*
X1588000Y1269500D01*
X1555750Y1301750D02*
X1398500Y1301750D01*
X1555750Y1301750D02*
X1588000Y1269500D01*
D19*
X862250Y948250D03*
D20*
X862250Y850750D02*
X887500Y825500D01*
X862250Y850750D02*
X862250Y948250D01*
D19*
X1460500Y889000D03*
D20*
X1460500Y698500D01*
M02*
