G04 EAGLE Gerber X2 export*
%TF.Part,Single*%
%TF.FileFunction,Soldermask,Top,1*%
%TF.FilePolarity,Negative*%
%TF.GenerationSoftware,Autodesk,EAGLE,9.0.0*%
%TF.CreationDate,2018-05-02T08:01:06Z*%
G75*
%MOMM*%
%FSLAX34Y34*%
%LPD*%
%AMOC8*
5,1,8,0,0,1.08239X$1,22.5*%
G01*
%ADD10R,2.703200X2.703200*%
%ADD11R,0.953200X0.503200*%
%ADD12R,0.503200X0.953200*%
%ADD13R,1.753200X2.603200*%
%ADD14R,0.853200X0.553200*%
%ADD15C,1.703200*%
%ADD16C,2.184400*%
%ADD17C,1.727200*%


D10*
X66675Y114300D03*
D11*
X86675Y124300D03*
X86675Y119300D03*
X86675Y114300D03*
X86675Y109300D03*
X86675Y104300D03*
X46675Y104300D03*
X46675Y109300D03*
X46675Y114300D03*
X46675Y119300D03*
X46675Y124300D03*
D12*
X56675Y94300D03*
X61675Y94300D03*
X66675Y94300D03*
X71675Y94300D03*
X76675Y94300D03*
X76675Y134300D03*
X71675Y134300D03*
X66675Y134300D03*
X61675Y134300D03*
X56675Y134300D03*
D10*
X66675Y114300D03*
D13*
X133350Y114300D03*
D14*
X117850Y124050D03*
X117850Y117550D03*
X117850Y111050D03*
X117850Y104550D03*
X148850Y124050D03*
X148850Y117550D03*
X148850Y111050D03*
X148850Y104550D03*
D15*
X240150Y101600D02*
X255150Y101600D01*
X255150Y127000D02*
X240150Y127000D01*
D16*
X206756Y152400D02*
X186944Y152400D01*
D17*
X228600Y33020D02*
X228600Y17780D01*
X203200Y17780D02*
X203200Y33020D01*
X177800Y33020D02*
X177800Y17780D01*
X152400Y17780D02*
X152400Y33020D01*
X127000Y33020D02*
X127000Y17780D01*
X101600Y17780D02*
X101600Y33020D01*
X76200Y33020D02*
X76200Y17780D01*
X50800Y17780D02*
X50800Y33020D01*
M02*
