G04 EAGLE Gerber RS-274X export*
G75*
%MOMM*%
%FSLAX35Y35*%
%LPD*%
%INcopper_top*%
%IPPOS*%
%AMOC8*
5,1,8,0,0,1.08239X$1,22.5*%
G01*
%ADD10C,0.000000*%
%ADD11R,0.570000X1.400000*%
%ADD12R,0.650000X1.400000*%
%ADD13C,1.524000*%
%ADD14C,0.500000*%
%ADD15C,0.650000*%

G36*
X1400497Y50063D02*
X1400497Y50063D01*
X1400817Y50027D01*
X1444870Y52915D01*
X1446648Y53260D01*
X1447287Y53314D01*
X1532390Y76117D01*
X1535311Y77312D01*
X1535363Y77351D01*
X1535405Y77366D01*
X1611707Y121418D01*
X1614218Y123329D01*
X1614258Y123378D01*
X1614295Y123405D01*
X1676595Y185704D01*
X1678527Y188200D01*
X1678552Y188259D01*
X1678581Y188293D01*
X1722634Y264595D01*
X1723158Y265845D01*
X1723732Y267091D01*
X1723771Y267306D01*
X1723854Y267505D01*
X1723863Y267568D01*
X1723883Y267609D01*
X1746686Y352712D01*
X1746930Y354508D01*
X1747085Y355130D01*
X1749973Y399182D01*
X1749968Y399259D01*
X1749982Y399335D01*
X1749952Y399735D01*
X1749999Y400000D01*
X1749999Y1000000D01*
X1749936Y1000497D01*
X1749973Y1000817D01*
X1747085Y1044870D01*
X1746739Y1046648D01*
X1746686Y1047287D01*
X1723883Y1132390D01*
X1722688Y1135311D01*
X1722649Y1135363D01*
X1722634Y1135405D01*
X1678581Y1211707D01*
X1676671Y1214218D01*
X1676621Y1214258D01*
X1676595Y1214295D01*
X1614295Y1276595D01*
X1611800Y1278527D01*
X1611741Y1278552D01*
X1611707Y1278581D01*
X1535405Y1322634D01*
X1532495Y1323854D01*
X1532431Y1323863D01*
X1532390Y1323883D01*
X1447288Y1346686D01*
X1445491Y1346930D01*
X1444870Y1347085D01*
X1400818Y1349973D01*
X1400318Y1349942D01*
X1400000Y1349999D01*
X400000Y1349999D01*
X399503Y1349936D01*
X399183Y1349973D01*
X355130Y1347085D01*
X353352Y1346739D01*
X352713Y1346686D01*
X267609Y1323883D01*
X264688Y1322688D01*
X264637Y1322649D01*
X264595Y1322634D01*
X188293Y1278581D01*
X185781Y1276671D01*
X185742Y1276621D01*
X185704Y1276595D01*
X123405Y1214295D01*
X121473Y1211800D01*
X121448Y1211741D01*
X121418Y1211707D01*
X77366Y1135405D01*
X76145Y1132495D01*
X76136Y1132431D01*
X76117Y1132390D01*
X53314Y1047287D01*
X53069Y1045491D01*
X52915Y1044870D01*
X50027Y1000818D01*
X50035Y1000697D01*
X50017Y1000601D01*
X50044Y1000242D01*
X50000Y1000000D01*
X50000Y400000D01*
X50063Y399503D01*
X50027Y399183D01*
X52915Y355130D01*
X53260Y353352D01*
X53314Y352713D01*
X76117Y267609D01*
X77312Y264688D01*
X77351Y264637D01*
X77366Y264595D01*
X121418Y188293D01*
X123329Y185781D01*
X123378Y185742D01*
X123405Y185704D01*
X185704Y123405D01*
X188200Y121473D01*
X188259Y121448D01*
X188293Y121418D01*
X264595Y77366D01*
X267505Y76145D01*
X267568Y76136D01*
X267609Y76117D01*
X352713Y53314D01*
X354509Y53069D01*
X355130Y52915D01*
X399182Y50027D01*
X399681Y50058D01*
X400000Y50000D01*
X1400000Y50000D01*
X1400497Y50063D01*
G37*
%LPC*%
G36*
X1039557Y297499D02*
X1039557Y297499D01*
X1020261Y305492D01*
X1005492Y320261D01*
X997499Y339557D01*
X997499Y360443D01*
X1004048Y376252D01*
X1004107Y376469D01*
X1004212Y376669D01*
X1004310Y377216D01*
X1004878Y379297D01*
X1004893Y380444D01*
X1004999Y381036D01*
X1004999Y481538D01*
X1004861Y482626D01*
X1004808Y483720D01*
X1004663Y484185D01*
X1004601Y484669D01*
X1004194Y485688D01*
X1003869Y486733D01*
X1003654Y487042D01*
X1003431Y487600D01*
X1001565Y490144D01*
X1001499Y490198D01*
X1001499Y634058D01*
X1001321Y635460D01*
X1001178Y636874D01*
X1001122Y637028D01*
X1001101Y637189D01*
X1000577Y638503D01*
X1000085Y639834D01*
X999992Y639968D01*
X999931Y640120D01*
X999093Y641262D01*
X998285Y642427D01*
X998161Y642533D01*
X998065Y642664D01*
X996972Y643557D01*
X995893Y644485D01*
X995746Y644558D01*
X995620Y644660D01*
X994338Y645251D01*
X993061Y645879D01*
X992901Y645913D01*
X992753Y645981D01*
X991361Y646232D01*
X989971Y646520D01*
X989808Y646512D01*
X989648Y646541D01*
X988234Y646435D01*
X986819Y646366D01*
X986663Y646317D01*
X986501Y646305D01*
X985158Y645848D01*
X983806Y645427D01*
X983696Y645351D01*
X983513Y645289D01*
X980875Y643557D01*
X980472Y643112D01*
X980162Y642897D01*
X956161Y618896D01*
X955490Y618030D01*
X954755Y617218D01*
X954528Y616787D01*
X954229Y616401D01*
X953798Y615395D01*
X953288Y614424D01*
X953221Y614052D01*
X952984Y613501D01*
X952504Y610382D01*
X952524Y610189D01*
X952500Y610058D01*
X952500Y490215D01*
X937388Y475103D01*
X937336Y475065D01*
X937275Y474990D01*
X937168Y474883D01*
X937104Y474838D01*
X935915Y473649D01*
X864085Y473649D01*
X862896Y474838D01*
X862809Y474906D01*
X847499Y490215D01*
X847499Y610058D01*
X847361Y611145D01*
X847308Y612238D01*
X847163Y612704D01*
X847101Y613188D01*
X846695Y614206D01*
X846369Y615252D01*
X846154Y615562D01*
X845931Y616119D01*
X844065Y618664D01*
X843915Y618786D01*
X843838Y618896D01*
X825238Y637497D01*
X824114Y638367D01*
X823020Y639260D01*
X822872Y639328D01*
X822743Y639428D01*
X821438Y639989D01*
X820153Y640581D01*
X819993Y640610D01*
X819843Y640674D01*
X818441Y640889D01*
X817048Y641141D01*
X816886Y641128D01*
X816724Y641153D01*
X815307Y641010D01*
X813900Y640905D01*
X813747Y640853D01*
X813584Y640836D01*
X812253Y640344D01*
X810913Y639889D01*
X810777Y639799D01*
X810623Y639743D01*
X809458Y638933D01*
X808275Y638157D01*
X808165Y638036D01*
X808031Y637943D01*
X807105Y636867D01*
X806155Y635819D01*
X806079Y635675D01*
X805973Y635551D01*
X805345Y634276D01*
X804688Y633025D01*
X804664Y632894D01*
X804578Y632720D01*
X803938Y629629D01*
X803968Y629030D01*
X803900Y628658D01*
X803900Y582749D01*
X764249Y582749D01*
X764249Y663900D01*
X768658Y663900D01*
X770059Y664078D01*
X771475Y664221D01*
X771628Y664278D01*
X771789Y664298D01*
X773105Y664823D01*
X774435Y665315D01*
X774568Y665408D01*
X774720Y665468D01*
X775865Y666308D01*
X777027Y667115D01*
X777133Y667238D01*
X777265Y667335D01*
X778160Y668432D01*
X779086Y669507D01*
X779158Y669653D01*
X779261Y669779D01*
X779852Y671063D01*
X780480Y672338D01*
X780513Y672498D01*
X780581Y672646D01*
X780832Y674040D01*
X781120Y675428D01*
X781112Y675591D01*
X781141Y675752D01*
X781035Y677165D01*
X780966Y678581D01*
X780918Y678736D01*
X780905Y678899D01*
X780450Y680238D01*
X780028Y681594D01*
X779951Y681704D01*
X779889Y681886D01*
X778157Y684524D01*
X777712Y684928D01*
X777497Y685238D01*
X773649Y689085D01*
X773649Y769500D01*
X773491Y770748D01*
X773397Y771999D01*
X773292Y772308D01*
X773251Y772631D01*
X772786Y773795D01*
X772381Y774987D01*
X772202Y775259D01*
X772081Y775562D01*
X771338Y776575D01*
X770648Y777625D01*
X770407Y777844D01*
X770215Y778106D01*
X769242Y778900D01*
X768311Y779745D01*
X768022Y779897D01*
X767770Y780102D01*
X766631Y780627D01*
X765517Y781212D01*
X765260Y781258D01*
X764903Y781423D01*
X761798Y781983D01*
X761406Y781953D01*
X761150Y781999D01*
X470038Y781999D01*
X469654Y781950D01*
X469266Y781976D01*
X468092Y781752D01*
X466908Y781601D01*
X466547Y781457D01*
X466166Y781384D01*
X465087Y780874D01*
X463977Y780431D01*
X463664Y780202D01*
X463313Y780036D01*
X462396Y779272D01*
X461432Y778565D01*
X461187Y778264D01*
X460889Y778016D01*
X460537Y777468D01*
X459436Y776120D01*
X458843Y774831D01*
X458490Y774283D01*
X457755Y772507D01*
X430693Y745445D01*
X395336Y730799D01*
X204664Y730799D01*
X169307Y745445D01*
X142245Y772507D01*
X127599Y807864D01*
X127599Y846136D01*
X142245Y881493D01*
X169307Y908555D01*
X194057Y918807D01*
X194979Y919333D01*
X195947Y919785D01*
X196347Y920116D01*
X196797Y920373D01*
X197559Y921115D01*
X198381Y921793D01*
X198686Y922213D01*
X199057Y922575D01*
X199609Y923485D01*
X200235Y924347D01*
X200425Y924830D01*
X200694Y925273D01*
X201001Y926295D01*
X201390Y927284D01*
X201453Y927798D01*
X201603Y928295D01*
X201644Y929359D01*
X201773Y930417D01*
X201705Y930932D01*
X201725Y931449D01*
X201499Y932488D01*
X201359Y933545D01*
X201164Y934026D01*
X201054Y934533D01*
X200575Y935483D01*
X200175Y936470D01*
X199866Y936887D01*
X199632Y937350D01*
X198929Y938150D01*
X198295Y939006D01*
X197892Y939332D01*
X197550Y939721D01*
X196669Y940320D01*
X195841Y940989D01*
X195470Y941135D01*
X194940Y941496D01*
X191969Y942560D01*
X191814Y942574D01*
X191712Y942614D01*
X183109Y944325D01*
X172574Y948688D01*
X163091Y955025D01*
X155025Y963091D01*
X148688Y972574D01*
X144324Y983111D01*
X143452Y987499D01*
X199997Y987499D01*
X200000Y987499D01*
X200003Y987499D01*
X256548Y987499D01*
X255675Y983111D01*
X251311Y972574D01*
X244974Y963091D01*
X236909Y955025D01*
X227426Y948689D01*
X223946Y947248D01*
X223328Y946895D01*
X222668Y946631D01*
X221964Y946115D01*
X221206Y945682D01*
X220696Y945185D01*
X220123Y944764D01*
X219572Y944089D01*
X218946Y943480D01*
X218576Y942870D01*
X218127Y942320D01*
X217762Y941528D01*
X217309Y940781D01*
X217105Y940100D01*
X216807Y939453D01*
X216652Y938594D01*
X216401Y937759D01*
X216373Y937048D01*
X216247Y936348D01*
X216312Y935477D01*
X216278Y934606D01*
X216429Y933910D01*
X216482Y933200D01*
X216763Y932375D01*
X216948Y931522D01*
X217270Y930885D01*
X217498Y930213D01*
X217977Y929485D01*
X218370Y928704D01*
X218840Y928169D01*
X219231Y927575D01*
X219877Y926989D01*
X220453Y926333D01*
X221041Y925933D01*
X221568Y925455D01*
X222342Y925048D01*
X223063Y924559D01*
X223732Y924319D01*
X224363Y923988D01*
X224954Y923881D01*
X226033Y923494D01*
X228183Y923299D01*
X228729Y923200D01*
X395336Y923200D01*
X430693Y908555D01*
X457755Y881493D01*
X458490Y879717D01*
X458683Y879380D01*
X458808Y879013D01*
X459463Y878015D01*
X460056Y876977D01*
X460327Y876699D01*
X460540Y876375D01*
X461425Y875572D01*
X462259Y874717D01*
X462590Y874516D01*
X462878Y874255D01*
X463937Y873699D01*
X464957Y873080D01*
X465328Y872968D01*
X465672Y872788D01*
X466313Y872672D01*
X467979Y872171D01*
X469397Y872116D01*
X470038Y872000D01*
X761150Y872000D01*
X762398Y872159D01*
X763649Y872253D01*
X763958Y872358D01*
X764281Y872399D01*
X765448Y872865D01*
X766637Y873269D01*
X766909Y873448D01*
X767212Y873568D01*
X768225Y874312D01*
X769275Y875001D01*
X769494Y875243D01*
X769756Y875435D01*
X770550Y876408D01*
X771395Y877339D01*
X771547Y877628D01*
X771752Y877880D01*
X772277Y879019D01*
X772862Y880133D01*
X772908Y880389D01*
X773073Y880746D01*
X773633Y883852D01*
X773603Y884243D01*
X773649Y884500D01*
X773649Y935915D01*
X789085Y951350D01*
X842500Y951350D01*
X843748Y951509D01*
X844999Y951603D01*
X845308Y951708D01*
X845631Y951749D01*
X846798Y952215D01*
X847987Y952619D01*
X848259Y952798D01*
X848562Y952918D01*
X849575Y953662D01*
X850625Y954351D01*
X850844Y954593D01*
X851106Y954785D01*
X851900Y955758D01*
X852745Y956689D01*
X852897Y956978D01*
X853102Y957230D01*
X853627Y958369D01*
X854212Y959483D01*
X854258Y959739D01*
X854423Y960096D01*
X854983Y963202D01*
X854953Y963593D01*
X854999Y963850D01*
X854999Y993964D01*
X854971Y994188D01*
X854991Y994412D01*
X854873Y994953D01*
X854601Y997095D01*
X854176Y998161D01*
X854048Y998748D01*
X847499Y1014557D01*
X847499Y1035443D01*
X855492Y1054739D01*
X870261Y1069508D01*
X889557Y1077500D01*
X910443Y1077500D01*
X929739Y1069508D01*
X944508Y1054739D01*
X952500Y1035443D01*
X952500Y1014557D01*
X945952Y998748D01*
X945893Y998530D01*
X945788Y998331D01*
X945689Y997784D01*
X945122Y995703D01*
X945107Y994556D01*
X945000Y993964D01*
X945000Y963850D01*
X945159Y962602D01*
X945253Y961350D01*
X945358Y961042D01*
X945399Y960719D01*
X945865Y959552D01*
X946269Y958363D01*
X946448Y958091D01*
X946568Y957788D01*
X947312Y956774D01*
X948001Y955725D01*
X948243Y955506D01*
X948435Y955243D01*
X949408Y954449D01*
X950339Y953605D01*
X950628Y953453D01*
X950880Y953248D01*
X952019Y952723D01*
X953133Y952138D01*
X953389Y952092D01*
X953746Y951927D01*
X956852Y951367D01*
X957243Y951397D01*
X957500Y951350D01*
X1010915Y951350D01*
X1026350Y935915D01*
X1026350Y695167D01*
X1026529Y693765D01*
X1026672Y692351D01*
X1026728Y692197D01*
X1026749Y692036D01*
X1027273Y690722D01*
X1027765Y689390D01*
X1027858Y689256D01*
X1027918Y689105D01*
X1028756Y687963D01*
X1029565Y686798D01*
X1029688Y686692D01*
X1029785Y686560D01*
X1030879Y685667D01*
X1031957Y684739D01*
X1032104Y684667D01*
X1032230Y684564D01*
X1033512Y683974D01*
X1034788Y683345D01*
X1034948Y683312D01*
X1035096Y683244D01*
X1036489Y682993D01*
X1037878Y682705D01*
X1038042Y682713D01*
X1038202Y682684D01*
X1039616Y682790D01*
X1041031Y682859D01*
X1041186Y682908D01*
X1041349Y682920D01*
X1042692Y683376D01*
X1044044Y683798D01*
X1044153Y683874D01*
X1044337Y683936D01*
X1046975Y685668D01*
X1047378Y686113D01*
X1047688Y686328D01*
X1233360Y872000D01*
X1329961Y872000D01*
X1330346Y872049D01*
X1330733Y872024D01*
X1331908Y872248D01*
X1333092Y872399D01*
X1333453Y872543D01*
X1333833Y872615D01*
X1334913Y873126D01*
X1336023Y873568D01*
X1336336Y873798D01*
X1336687Y873964D01*
X1337604Y874728D01*
X1338568Y875435D01*
X1338813Y875736D01*
X1339111Y875984D01*
X1339463Y876531D01*
X1340563Y877880D01*
X1341157Y879169D01*
X1341509Y879717D01*
X1342245Y881493D01*
X1369307Y908555D01*
X1404664Y923200D01*
X1571271Y923200D01*
X1571977Y923290D01*
X1572688Y923281D01*
X1573536Y923489D01*
X1574401Y923599D01*
X1575062Y923863D01*
X1575753Y924032D01*
X1576522Y924445D01*
X1577332Y924768D01*
X1577906Y925189D01*
X1578533Y925527D01*
X1579173Y926119D01*
X1579877Y926635D01*
X1580327Y927187D01*
X1580849Y927670D01*
X1581321Y928404D01*
X1581873Y929080D01*
X1582171Y929726D01*
X1582555Y930325D01*
X1582828Y931153D01*
X1583193Y931946D01*
X1583319Y932647D01*
X1583542Y933323D01*
X1583598Y934194D01*
X1583753Y935052D01*
X1583700Y935760D01*
X1583746Y936472D01*
X1583583Y937330D01*
X1583518Y938199D01*
X1583288Y938873D01*
X1583155Y939572D01*
X1582782Y940361D01*
X1582501Y941187D01*
X1582111Y941781D01*
X1581807Y942425D01*
X1581248Y943095D01*
X1580769Y943825D01*
X1580242Y944303D01*
X1579786Y944849D01*
X1579281Y945174D01*
X1578431Y945945D01*
X1576519Y946948D01*
X1576053Y947248D01*
X1572573Y948689D01*
X1563091Y955025D01*
X1555025Y963091D01*
X1548688Y972574D01*
X1544324Y983111D01*
X1543452Y987499D01*
X1599997Y987499D01*
X1600000Y987499D01*
X1600003Y987499D01*
X1656548Y987499D01*
X1655675Y983111D01*
X1651311Y972574D01*
X1644974Y963091D01*
X1636909Y955025D01*
X1627425Y948688D01*
X1616890Y944325D01*
X1608288Y942614D01*
X1607278Y942276D01*
X1606244Y942023D01*
X1605787Y941777D01*
X1605295Y941612D01*
X1604401Y941032D01*
X1603464Y940528D01*
X1603084Y940176D01*
X1602648Y939893D01*
X1601928Y939106D01*
X1601148Y938385D01*
X1600868Y937949D01*
X1600517Y937566D01*
X1600016Y936623D01*
X1599442Y935730D01*
X1599280Y935238D01*
X1599036Y934779D01*
X1598788Y933744D01*
X1598455Y932732D01*
X1598421Y932214D01*
X1598301Y931710D01*
X1598320Y930647D01*
X1598251Y929583D01*
X1598348Y929073D01*
X1598357Y928555D01*
X1598642Y927530D01*
X1598842Y926483D01*
X1599063Y926013D01*
X1599202Y925514D01*
X1599734Y924594D01*
X1600190Y923629D01*
X1600523Y923230D01*
X1600782Y922782D01*
X1601529Y922023D01*
X1602210Y921205D01*
X1602545Y920990D01*
X1602995Y920533D01*
X1605702Y918909D01*
X1605852Y918865D01*
X1605943Y918807D01*
X1630693Y908555D01*
X1657755Y881493D01*
X1672400Y846136D01*
X1672400Y807864D01*
X1657755Y772507D01*
X1630693Y745445D01*
X1595336Y730799D01*
X1404664Y730799D01*
X1369307Y745445D01*
X1342245Y772507D01*
X1341509Y774283D01*
X1341317Y774620D01*
X1341192Y774987D01*
X1340537Y775984D01*
X1339943Y777023D01*
X1339673Y777301D01*
X1339460Y777625D01*
X1338574Y778428D01*
X1337741Y779283D01*
X1337410Y779484D01*
X1337122Y779745D01*
X1336063Y780301D01*
X1335043Y780920D01*
X1334672Y781031D01*
X1334328Y781212D01*
X1333686Y781328D01*
X1332021Y781828D01*
X1330603Y781884D01*
X1329961Y781999D01*
X1275817Y781999D01*
X1274729Y781861D01*
X1273636Y781808D01*
X1273171Y781663D01*
X1272687Y781601D01*
X1271668Y781195D01*
X1270623Y780869D01*
X1270313Y780654D01*
X1269756Y780431D01*
X1267211Y778565D01*
X1267088Y778415D01*
X1266979Y778338D01*
X1102161Y613521D01*
X1101490Y612655D01*
X1100755Y611843D01*
X1100528Y611412D01*
X1100229Y611026D01*
X1099798Y610020D01*
X1099288Y609049D01*
X1099221Y608677D01*
X1098984Y608126D01*
X1098504Y605007D01*
X1098524Y604814D01*
X1098500Y604683D01*
X1098500Y490169D01*
X1097991Y489511D01*
X1097255Y488699D01*
X1097028Y488267D01*
X1096730Y487882D01*
X1096298Y486876D01*
X1095788Y485905D01*
X1095721Y485533D01*
X1095484Y484982D01*
X1095004Y481863D01*
X1095024Y481669D01*
X1095000Y481538D01*
X1095000Y381036D01*
X1095029Y380812D01*
X1095008Y380588D01*
X1095126Y380047D01*
X1095399Y377905D01*
X1095824Y376839D01*
X1095952Y376252D01*
X1102500Y360443D01*
X1102500Y339557D01*
X1094508Y320261D01*
X1079739Y305492D01*
X1060443Y297499D01*
X1039557Y297499D01*
G37*
%LPD*%
G36*
X925645Y493767D02*
X925645Y493767D01*
X926301Y493785D01*
X926742Y493963D01*
X927209Y494048D01*
X927774Y494381D01*
X928382Y494627D01*
X928733Y494947D01*
X929143Y495188D01*
X929557Y495698D01*
X930041Y496139D01*
X930258Y496561D01*
X930558Y496931D01*
X930769Y497553D01*
X931069Y498135D01*
X931151Y498678D01*
X931279Y499057D01*
X931268Y499456D01*
X931349Y500000D01*
X931349Y622370D01*
X1004490Y695510D01*
X1004730Y695856D01*
X1005041Y696139D01*
X1005365Y696769D01*
X1005772Y697353D01*
X1005877Y697762D01*
X1006069Y698135D01*
X1006203Y699029D01*
X1006332Y699527D01*
X1006310Y699738D01*
X1006349Y700000D01*
X1006349Y925000D01*
X1006233Y925645D01*
X1006215Y926301D01*
X1006037Y926742D01*
X1005953Y927209D01*
X1005619Y927774D01*
X1005373Y928382D01*
X1005053Y928733D01*
X1004812Y929143D01*
X1004302Y929557D01*
X1003861Y930041D01*
X1003439Y930258D01*
X1003069Y930558D01*
X1002447Y930769D01*
X1001865Y931069D01*
X1001322Y931151D01*
X1000943Y931279D01*
X1000544Y931268D01*
X1000000Y931349D01*
X800000Y931349D01*
X799355Y931233D01*
X798699Y931215D01*
X798258Y931037D01*
X797791Y930953D01*
X797226Y930619D01*
X796618Y930373D01*
X796267Y930053D01*
X795857Y929812D01*
X795443Y929302D01*
X794959Y928861D01*
X794742Y928439D01*
X794442Y928069D01*
X794231Y927447D01*
X793931Y926865D01*
X793849Y926322D01*
X793721Y925943D01*
X793733Y925544D01*
X793651Y925000D01*
X793651Y700000D01*
X793725Y699586D01*
X793706Y699166D01*
X793922Y698489D01*
X794048Y697791D01*
X794261Y697429D01*
X794389Y697028D01*
X794928Y696298D01*
X795188Y695857D01*
X795353Y695724D01*
X795510Y695510D01*
X868651Y622370D01*
X868651Y500000D01*
X868767Y499355D01*
X868785Y498699D01*
X868963Y498258D01*
X869048Y497791D01*
X869381Y497226D01*
X869627Y496618D01*
X869947Y496267D01*
X870188Y495857D01*
X870698Y495443D01*
X871139Y494959D01*
X871561Y494742D01*
X871931Y494442D01*
X872553Y494231D01*
X873135Y493931D01*
X873678Y493849D01*
X874057Y493721D01*
X874456Y493733D01*
X875000Y493651D01*
X925000Y493651D01*
X925645Y493767D01*
G37*
%LPC*%
G36*
X1599997Y412501D02*
X1599997Y412501D01*
X1543451Y412501D01*
X1544324Y416889D01*
X1548688Y427425D01*
X1555025Y436909D01*
X1563090Y444974D01*
X1568378Y448507D01*
X1569182Y449206D01*
X1570040Y449835D01*
X1570368Y450237D01*
X1570760Y450578D01*
X1571364Y451457D01*
X1572036Y452280D01*
X1572252Y452750D01*
X1572547Y453178D01*
X1572911Y454179D01*
X1573356Y455147D01*
X1573448Y455657D01*
X1573626Y456144D01*
X1573728Y457205D01*
X1573916Y458252D01*
X1573878Y458769D01*
X1573927Y459286D01*
X1573760Y460339D01*
X1573681Y461399D01*
X1573514Y461889D01*
X1573433Y462403D01*
X1573007Y463381D01*
X1572664Y464387D01*
X1572380Y464819D01*
X1572173Y465296D01*
X1571516Y466136D01*
X1570932Y467025D01*
X1570548Y467373D01*
X1570228Y467782D01*
X1569383Y468429D01*
X1568594Y469145D01*
X1568135Y469386D01*
X1567723Y469702D01*
X1566744Y470117D01*
X1565800Y470612D01*
X1565407Y470683D01*
X1564818Y470933D01*
X1561696Y471397D01*
X1561541Y471380D01*
X1561434Y471399D01*
X1524999Y471399D01*
X1524999Y548001D01*
X1674907Y548001D01*
X1670358Y534001D01*
X1663096Y519748D01*
X1653697Y506812D01*
X1642388Y495503D01*
X1629452Y486104D01*
X1615035Y478759D01*
X1614266Y478235D01*
X1613448Y477795D01*
X1612968Y477351D01*
X1612427Y476983D01*
X1611814Y476284D01*
X1611131Y475652D01*
X1610778Y475101D01*
X1610346Y474609D01*
X1609928Y473779D01*
X1609425Y472997D01*
X1609221Y472375D01*
X1608927Y471791D01*
X1608730Y470883D01*
X1608439Y469999D01*
X1608396Y469346D01*
X1608258Y468707D01*
X1608295Y467778D01*
X1608234Y466850D01*
X1608357Y466207D01*
X1608383Y465553D01*
X1608651Y464663D01*
X1608825Y463750D01*
X1609105Y463158D01*
X1609294Y462532D01*
X1609777Y461737D01*
X1610174Y460897D01*
X1610593Y460394D01*
X1610933Y459835D01*
X1611599Y459187D01*
X1612194Y458472D01*
X1612604Y458208D01*
X1613194Y457634D01*
X1615905Y456087D01*
X1615927Y456073D01*
X1627427Y451310D01*
X1636909Y444974D01*
X1644974Y436909D01*
X1651311Y427425D01*
X1655675Y416889D01*
X1656548Y412501D01*
X1600003Y412501D01*
X1599999Y412500D01*
X1599997Y412501D01*
G37*
%LPD*%
%LPC*%
G36*
X199997Y412501D02*
X199997Y412501D01*
X143451Y412501D01*
X144324Y416889D01*
X148688Y427425D01*
X155025Y436909D01*
X163091Y444974D01*
X172573Y451311D01*
X184073Y456073D01*
X184880Y456535D01*
X185731Y456910D01*
X186246Y457316D01*
X186813Y457640D01*
X187478Y458287D01*
X188209Y458864D01*
X188606Y459386D01*
X189073Y459842D01*
X189555Y460636D01*
X190118Y461378D01*
X190371Y461982D01*
X190710Y462540D01*
X190977Y463430D01*
X191337Y464288D01*
X191430Y464937D01*
X191618Y465563D01*
X191655Y466491D01*
X191788Y467412D01*
X191716Y468063D01*
X191741Y468716D01*
X191544Y469623D01*
X191442Y470549D01*
X191209Y471161D01*
X191070Y471800D01*
X190652Y472629D01*
X190321Y473499D01*
X189943Y474033D01*
X189648Y474617D01*
X189035Y475315D01*
X188498Y476075D01*
X188110Y476369D01*
X187566Y476988D01*
X184981Y478746D01*
X184964Y478759D01*
X184957Y478763D01*
X184956Y478763D01*
X170549Y486103D01*
X157612Y495503D01*
X146303Y506812D01*
X136904Y519748D01*
X129642Y534001D01*
X125093Y548001D01*
X275001Y548001D01*
X275001Y471399D01*
X238566Y471399D01*
X237508Y471265D01*
X236446Y471218D01*
X235950Y471067D01*
X235435Y471001D01*
X234446Y470606D01*
X233428Y470295D01*
X232986Y470023D01*
X232504Y469831D01*
X231646Y469201D01*
X230738Y468645D01*
X230378Y468272D01*
X229960Y467965D01*
X229286Y467140D01*
X228547Y466373D01*
X228291Y465921D01*
X227964Y465520D01*
X227519Y464554D01*
X226994Y463626D01*
X226861Y463125D01*
X226643Y462654D01*
X226454Y461604D01*
X226180Y460577D01*
X226176Y460058D01*
X226083Y459548D01*
X226163Y458486D01*
X226154Y457421D01*
X226280Y456918D01*
X226319Y456401D01*
X226662Y455394D01*
X226920Y454360D01*
X227168Y453903D01*
X227335Y453413D01*
X227919Y452523D01*
X228429Y451588D01*
X228716Y451310D01*
X229068Y450775D01*
X231405Y448655D01*
X231543Y448583D01*
X231622Y448507D01*
X236909Y444974D01*
X244974Y436909D01*
X251311Y427425D01*
X255675Y416889D01*
X256548Y412501D01*
X200003Y412501D01*
X199999Y412500D01*
X199997Y412501D01*
G37*
%LPD*%
%LPC*%
G36*
X1524999Y597999D02*
X1524999Y597999D01*
X1524999Y674600D01*
X1584195Y674600D01*
X1599993Y672098D01*
X1615199Y667158D01*
X1629452Y659896D01*
X1642388Y650497D01*
X1653697Y639188D01*
X1663096Y626252D01*
X1670358Y611999D01*
X1674907Y597999D01*
X1524999Y597999D01*
G37*
%LPD*%
%LPC*%
G36*
X324999Y597999D02*
X324999Y597999D01*
X324999Y674600D01*
X384195Y674600D01*
X399993Y672098D01*
X415199Y667158D01*
X429452Y659896D01*
X442388Y650497D01*
X453697Y639188D01*
X463096Y626252D01*
X470358Y611999D01*
X474907Y597999D01*
X324999Y597999D01*
G37*
%LPD*%
%LPC*%
G36*
X125093Y597999D02*
X125093Y597999D01*
X129642Y611999D01*
X136904Y626252D01*
X146303Y639188D01*
X157612Y650497D01*
X170548Y659896D01*
X184801Y667158D01*
X200007Y672098D01*
X215804Y674600D01*
X275001Y674600D01*
X275001Y597999D01*
X125093Y597999D01*
G37*
%LPD*%
%LPC*%
G36*
X1325093Y597999D02*
X1325093Y597999D01*
X1329642Y611999D01*
X1336904Y626252D01*
X1346303Y639188D01*
X1357612Y650497D01*
X1370548Y659896D01*
X1384801Y667158D01*
X1400007Y672098D01*
X1415804Y674600D01*
X1475001Y674600D01*
X1475001Y597999D01*
X1325093Y597999D01*
G37*
%LPD*%
%LPC*%
G36*
X324999Y471399D02*
X324999Y471399D01*
X324999Y548001D01*
X474907Y548001D01*
X470358Y534001D01*
X463096Y519748D01*
X453697Y506812D01*
X442388Y495503D01*
X429452Y486104D01*
X415199Y478842D01*
X399993Y473901D01*
X384195Y471399D01*
X324999Y471399D01*
G37*
%LPD*%
%LPC*%
G36*
X1415805Y471399D02*
X1415805Y471399D01*
X1400007Y473901D01*
X1384801Y478842D01*
X1370548Y486104D01*
X1357612Y495503D01*
X1346303Y506812D01*
X1336904Y519748D01*
X1329642Y534001D01*
X1325093Y548001D01*
X1475001Y548001D01*
X1475001Y471399D01*
X1415805Y471399D01*
G37*
%LPD*%
%LPC*%
G36*
X764249Y473099D02*
X764249Y473099D01*
X764249Y554250D01*
X803900Y554250D01*
X803900Y495155D01*
X802169Y488696D01*
X798826Y482904D01*
X794096Y478174D01*
X788304Y474830D01*
X781844Y473099D01*
X764249Y473099D01*
G37*
%LPD*%
%LPC*%
G36*
X696099Y582749D02*
X696099Y582749D01*
X696099Y641844D01*
X697830Y648304D01*
X701174Y654096D01*
X705904Y658826D01*
X711696Y662169D01*
X718155Y663900D01*
X735750Y663900D01*
X735750Y582749D01*
X696099Y582749D01*
G37*
%LPD*%
%LPC*%
G36*
X718155Y473099D02*
X718155Y473099D01*
X711696Y474830D01*
X705904Y478174D01*
X701174Y482904D01*
X697830Y488696D01*
X696099Y495155D01*
X696099Y554250D01*
X735750Y554250D01*
X735750Y473099D01*
X718155Y473099D01*
G37*
%LPD*%
%LPC*%
G36*
X912501Y1212501D02*
X912501Y1212501D01*
X912501Y1256548D01*
X916889Y1255675D01*
X927425Y1251311D01*
X936909Y1244974D01*
X944974Y1236909D01*
X951311Y1227425D01*
X955675Y1216889D01*
X956548Y1212501D01*
X912501Y1212501D01*
G37*
%LPD*%
%LPC*%
G36*
X412501Y1212501D02*
X412501Y1212501D01*
X412501Y1256548D01*
X416889Y1255675D01*
X427425Y1251311D01*
X436909Y1244974D01*
X444974Y1236909D01*
X451311Y1227425D01*
X455675Y1216889D01*
X456548Y1212501D01*
X412501Y1212501D01*
G37*
%LPD*%
%LPC*%
G36*
X1412501Y1212501D02*
X1412501Y1212501D01*
X1412501Y1256548D01*
X1416889Y1255675D01*
X1427425Y1251311D01*
X1436909Y1244974D01*
X1444974Y1236909D01*
X1451311Y1227425D01*
X1455675Y1216889D01*
X1456548Y1212501D01*
X1412501Y1212501D01*
G37*
%LPD*%
%LPC*%
G36*
X1612501Y1012501D02*
X1612501Y1012501D01*
X1612501Y1056548D01*
X1616889Y1055675D01*
X1627425Y1051311D01*
X1636909Y1044974D01*
X1644974Y1036909D01*
X1651311Y1027425D01*
X1655675Y1016889D01*
X1656548Y1012501D01*
X1612501Y1012501D01*
G37*
%LPD*%
%LPC*%
G36*
X212501Y1012501D02*
X212501Y1012501D01*
X212501Y1056548D01*
X216889Y1055675D01*
X227425Y1051311D01*
X236909Y1044974D01*
X244974Y1036909D01*
X251311Y1027425D01*
X255675Y1016889D01*
X256548Y1012501D01*
X212501Y1012501D01*
G37*
%LPD*%
%LPC*%
G36*
X912501Y212501D02*
X912501Y212501D01*
X912501Y256548D01*
X916889Y255675D01*
X927425Y251311D01*
X936909Y244974D01*
X944974Y236909D01*
X951311Y227425D01*
X955675Y216889D01*
X956548Y212501D01*
X912501Y212501D01*
G37*
%LPD*%
%LPC*%
G36*
X412501Y212501D02*
X412501Y212501D01*
X412501Y256548D01*
X416889Y255675D01*
X427425Y251311D01*
X436909Y244974D01*
X444974Y236909D01*
X451311Y227425D01*
X455675Y216889D01*
X456548Y212501D01*
X412501Y212501D01*
G37*
%LPD*%
%LPC*%
G36*
X1412501Y212501D02*
X1412501Y212501D01*
X1412501Y256548D01*
X1416889Y255675D01*
X1427425Y251311D01*
X1436909Y244974D01*
X1444974Y236909D01*
X1451311Y227425D01*
X1455675Y216889D01*
X1456548Y212501D01*
X1412501Y212501D01*
G37*
%LPD*%
%LPC*%
G36*
X1543451Y1012501D02*
X1543451Y1012501D01*
X1544324Y1016889D01*
X1548688Y1027425D01*
X1555025Y1036909D01*
X1563091Y1044974D01*
X1572574Y1051311D01*
X1583111Y1055675D01*
X1587499Y1056548D01*
X1587499Y1012501D01*
X1543451Y1012501D01*
G37*
%LPD*%
%LPC*%
G36*
X143451Y1012501D02*
X143451Y1012501D01*
X144324Y1016889D01*
X148688Y1027425D01*
X155025Y1036909D01*
X163091Y1044974D01*
X172574Y1051311D01*
X183111Y1055675D01*
X187499Y1056548D01*
X187499Y1012501D01*
X143451Y1012501D01*
G37*
%LPD*%
%LPC*%
G36*
X1343451Y1212501D02*
X1343451Y1212501D01*
X1344324Y1216889D01*
X1348688Y1227425D01*
X1355025Y1236909D01*
X1363091Y1244974D01*
X1372574Y1251311D01*
X1383111Y1255675D01*
X1387499Y1256548D01*
X1387499Y1212501D01*
X1343451Y1212501D01*
G37*
%LPD*%
%LPC*%
G36*
X343451Y1212501D02*
X343451Y1212501D01*
X344324Y1216889D01*
X348688Y1227425D01*
X355025Y1236909D01*
X363091Y1244974D01*
X372574Y1251311D01*
X383111Y1255675D01*
X387499Y1256548D01*
X387499Y1212501D01*
X343451Y1212501D01*
G37*
%LPD*%
%LPC*%
G36*
X843451Y1212501D02*
X843451Y1212501D01*
X844324Y1216889D01*
X848688Y1227425D01*
X855025Y1236909D01*
X863091Y1244974D01*
X872574Y1251311D01*
X883111Y1255675D01*
X887499Y1256548D01*
X887499Y1212501D01*
X843451Y1212501D01*
G37*
%LPD*%
%LPC*%
G36*
X1612501Y387499D02*
X1612501Y387499D01*
X1656548Y387499D01*
X1655675Y383111D01*
X1651311Y372574D01*
X1644974Y363091D01*
X1636909Y355025D01*
X1627425Y348688D01*
X1616889Y344324D01*
X1612501Y343451D01*
X1612501Y387499D01*
G37*
%LPD*%
%LPC*%
G36*
X212501Y387499D02*
X212501Y387499D01*
X256548Y387499D01*
X255675Y383111D01*
X251311Y372574D01*
X244974Y363091D01*
X236909Y355025D01*
X227425Y348688D01*
X216889Y344324D01*
X212501Y343451D01*
X212501Y387499D01*
G37*
%LPD*%
%LPC*%
G36*
X1343451Y212501D02*
X1343451Y212501D01*
X1344324Y216889D01*
X1348688Y227425D01*
X1355025Y236909D01*
X1363091Y244974D01*
X1372574Y251311D01*
X1383111Y255675D01*
X1387499Y256548D01*
X1387499Y212501D01*
X1343451Y212501D01*
G37*
%LPD*%
%LPC*%
G36*
X1412501Y1187499D02*
X1412501Y1187499D01*
X1456548Y1187499D01*
X1455675Y1183111D01*
X1451311Y1172574D01*
X1444974Y1163091D01*
X1436909Y1155025D01*
X1427425Y1148688D01*
X1416889Y1144324D01*
X1412501Y1143451D01*
X1412501Y1187499D01*
G37*
%LPD*%
%LPC*%
G36*
X912501Y1187499D02*
X912501Y1187499D01*
X956548Y1187499D01*
X955675Y1183111D01*
X951311Y1172574D01*
X944974Y1163091D01*
X936909Y1155025D01*
X927425Y1148688D01*
X916889Y1144324D01*
X912501Y1143451D01*
X912501Y1187499D01*
G37*
%LPD*%
%LPC*%
G36*
X412501Y1187499D02*
X412501Y1187499D01*
X456548Y1187499D01*
X455675Y1183111D01*
X451311Y1172574D01*
X444974Y1163091D01*
X436909Y1155025D01*
X427425Y1148688D01*
X416889Y1144324D01*
X412501Y1143451D01*
X412501Y1187499D01*
G37*
%LPD*%
%LPC*%
G36*
X343451Y212501D02*
X343451Y212501D01*
X344324Y216889D01*
X348688Y227425D01*
X355025Y236909D01*
X363091Y244974D01*
X372574Y251311D01*
X383111Y255675D01*
X387499Y256548D01*
X387499Y212501D01*
X343451Y212501D01*
G37*
%LPD*%
%LPC*%
G36*
X843451Y212501D02*
X843451Y212501D01*
X844324Y216889D01*
X848688Y227425D01*
X855025Y236909D01*
X863091Y244974D01*
X872574Y251311D01*
X883111Y255675D01*
X887499Y256548D01*
X887499Y212501D01*
X843451Y212501D01*
G37*
%LPD*%
%LPC*%
G36*
X1412501Y187499D02*
X1412501Y187499D01*
X1456548Y187499D01*
X1455675Y183111D01*
X1451311Y172574D01*
X1444974Y163091D01*
X1436909Y155025D01*
X1427425Y148688D01*
X1416889Y144324D01*
X1412501Y143451D01*
X1412501Y187499D01*
G37*
%LPD*%
%LPC*%
G36*
X912501Y187499D02*
X912501Y187499D01*
X956548Y187499D01*
X955675Y183111D01*
X951311Y172574D01*
X944974Y163091D01*
X936909Y155025D01*
X927425Y148688D01*
X916889Y144324D01*
X912501Y143451D01*
X912501Y187499D01*
G37*
%LPD*%
%LPC*%
G36*
X412501Y187499D02*
X412501Y187499D01*
X456548Y187499D01*
X455675Y183111D01*
X451311Y172574D01*
X444974Y163091D01*
X436909Y155025D01*
X427425Y148688D01*
X416889Y144324D01*
X412501Y143451D01*
X412501Y187499D01*
G37*
%LPD*%
%LPC*%
G36*
X383111Y1144324D02*
X383111Y1144324D01*
X372574Y1148688D01*
X363091Y1155025D01*
X355025Y1163091D01*
X348688Y1172574D01*
X344324Y1183111D01*
X343452Y1187499D01*
X387499Y1187499D01*
X387499Y1143452D01*
X383111Y1144324D01*
G37*
%LPD*%
%LPC*%
G36*
X1583111Y344324D02*
X1583111Y344324D01*
X1572574Y348688D01*
X1563091Y355025D01*
X1555025Y363091D01*
X1548688Y372574D01*
X1544324Y383111D01*
X1543452Y387499D01*
X1587499Y387499D01*
X1587499Y343452D01*
X1583111Y344324D01*
G37*
%LPD*%
%LPC*%
G36*
X1383111Y1144324D02*
X1383111Y1144324D01*
X1372574Y1148688D01*
X1363091Y1155025D01*
X1355025Y1163091D01*
X1348688Y1172574D01*
X1344324Y1183111D01*
X1343452Y1187499D01*
X1387499Y1187499D01*
X1387499Y1143452D01*
X1383111Y1144324D01*
G37*
%LPD*%
%LPC*%
G36*
X183111Y344324D02*
X183111Y344324D01*
X172574Y348688D01*
X163091Y355025D01*
X155025Y363091D01*
X148688Y372574D01*
X144324Y383111D01*
X143452Y387499D01*
X187499Y387499D01*
X187499Y343452D01*
X183111Y344324D01*
G37*
%LPD*%
%LPC*%
G36*
X1383111Y144324D02*
X1383111Y144324D01*
X1372574Y148688D01*
X1363091Y155025D01*
X1355025Y163091D01*
X1348688Y172574D01*
X1344324Y183111D01*
X1343452Y187499D01*
X1387499Y187499D01*
X1387499Y143452D01*
X1383111Y144324D01*
G37*
%LPD*%
%LPC*%
G36*
X883111Y144324D02*
X883111Y144324D01*
X872574Y148688D01*
X863091Y155025D01*
X855025Y163091D01*
X848688Y172574D01*
X844324Y183111D01*
X843452Y187499D01*
X887499Y187499D01*
X887499Y143452D01*
X883111Y144324D01*
G37*
%LPD*%
%LPC*%
G36*
X883111Y1144324D02*
X883111Y1144324D01*
X872574Y1148688D01*
X863091Y1155025D01*
X855025Y1163091D01*
X848688Y1172574D01*
X844324Y1183111D01*
X843452Y1187499D01*
X887499Y1187499D01*
X887499Y1143452D01*
X883111Y1144324D01*
G37*
%LPD*%
%LPC*%
G36*
X383111Y144324D02*
X383111Y144324D01*
X372574Y148688D01*
X363091Y155025D01*
X355025Y163091D01*
X348688Y172574D01*
X344324Y183111D01*
X343452Y187499D01*
X387499Y187499D01*
X387499Y143452D01*
X383111Y144324D01*
G37*
%LPD*%
%LPC*%
G36*
X299998Y572998D02*
X299998Y572998D01*
X299998Y573002D01*
X300002Y573002D01*
X300002Y572998D01*
X299998Y572998D01*
G37*
%LPD*%
%LPC*%
G36*
X1499998Y572998D02*
X1499998Y572998D01*
X1499998Y573002D01*
X1500002Y573002D01*
X1500002Y572998D01*
X1499998Y572998D01*
G37*
%LPD*%
D10*
X400000Y0D02*
X1400000Y0D01*
X1800000Y400000D02*
X1800000Y1000000D01*
X1400000Y1400000D02*
X400000Y1400000D01*
X0Y1000000D02*
X0Y400000D01*
X1400000Y1400000D02*
X1409665Y1399883D01*
X1419325Y1399533D01*
X1428974Y1398949D01*
X1438606Y1398133D01*
X1448215Y1397084D01*
X1457796Y1395803D01*
X1467343Y1394290D01*
X1476851Y1392548D01*
X1486314Y1390576D01*
X1495726Y1388377D01*
X1505083Y1385950D01*
X1514378Y1383298D01*
X1523607Y1380423D01*
X1532763Y1377325D01*
X1541842Y1374006D01*
X1550838Y1370470D01*
X1559746Y1366717D01*
X1568560Y1362750D01*
X1577277Y1358571D01*
X1585889Y1354182D01*
X1594393Y1349587D01*
X1602784Y1344788D01*
X1611056Y1339787D01*
X1619205Y1334588D01*
X1627226Y1329194D01*
X1635114Y1323607D01*
X1642865Y1317831D01*
X1650474Y1311870D01*
X1657937Y1305726D01*
X1665249Y1299404D01*
X1672406Y1292907D01*
X1679405Y1286240D01*
X1686240Y1279405D01*
X1692907Y1272406D01*
X1699404Y1265249D01*
X1705726Y1257937D01*
X1711870Y1250474D01*
X1717831Y1242865D01*
X1723607Y1235114D01*
X1729194Y1227226D01*
X1734588Y1219205D01*
X1739787Y1211056D01*
X1744788Y1202784D01*
X1749587Y1194393D01*
X1754182Y1185889D01*
X1758571Y1177277D01*
X1762750Y1168560D01*
X1766717Y1159746D01*
X1770470Y1150838D01*
X1774006Y1141842D01*
X1777325Y1132763D01*
X1780423Y1123607D01*
X1783298Y1114378D01*
X1785950Y1105083D01*
X1788377Y1095726D01*
X1790576Y1086314D01*
X1792548Y1076851D01*
X1794290Y1067343D01*
X1795803Y1057796D01*
X1797084Y1048215D01*
X1798133Y1038606D01*
X1798949Y1028974D01*
X1799533Y1019325D01*
X1799883Y1009665D01*
X1800000Y1000000D01*
X400000Y1400000D02*
X390335Y1399883D01*
X380675Y1399533D01*
X371026Y1398949D01*
X361394Y1398133D01*
X351785Y1397084D01*
X342204Y1395803D01*
X332657Y1394290D01*
X323149Y1392548D01*
X313686Y1390576D01*
X304274Y1388377D01*
X294917Y1385950D01*
X285622Y1383298D01*
X276393Y1380423D01*
X267237Y1377325D01*
X258158Y1374006D01*
X249162Y1370470D01*
X240254Y1366717D01*
X231440Y1362750D01*
X222723Y1358571D01*
X214111Y1354182D01*
X205607Y1349587D01*
X197216Y1344788D01*
X188944Y1339787D01*
X180795Y1334588D01*
X172774Y1329194D01*
X164886Y1323607D01*
X157135Y1317831D01*
X149526Y1311870D01*
X142063Y1305726D01*
X134751Y1299404D01*
X127594Y1292907D01*
X120595Y1286240D01*
X113760Y1279405D01*
X107093Y1272406D01*
X100596Y1265249D01*
X94274Y1257937D01*
X88130Y1250474D01*
X82169Y1242865D01*
X76393Y1235114D01*
X70806Y1227226D01*
X65412Y1219205D01*
X60213Y1211056D01*
X55212Y1202784D01*
X50413Y1194393D01*
X45818Y1185889D01*
X41429Y1177277D01*
X37250Y1168560D01*
X33283Y1159746D01*
X29530Y1150838D01*
X25994Y1141842D01*
X22675Y1132763D01*
X19577Y1123607D01*
X16702Y1114378D01*
X14050Y1105083D01*
X11623Y1095726D01*
X9424Y1086314D01*
X7452Y1076851D01*
X5710Y1067343D01*
X4197Y1057796D01*
X2916Y1048215D01*
X1867Y1038606D01*
X1051Y1028974D01*
X467Y1019325D01*
X117Y1009665D01*
X0Y1000000D01*
X0Y400000D02*
X117Y390335D01*
X467Y380675D01*
X1051Y371026D01*
X1867Y361394D01*
X2916Y351785D01*
X4197Y342204D01*
X5710Y332657D01*
X7452Y323149D01*
X9424Y313686D01*
X11623Y304274D01*
X14050Y294917D01*
X16702Y285622D01*
X19577Y276393D01*
X22675Y267237D01*
X25994Y258158D01*
X29530Y249162D01*
X33283Y240254D01*
X37250Y231440D01*
X41429Y222723D01*
X45818Y214111D01*
X50413Y205607D01*
X55212Y197216D01*
X60213Y188944D01*
X65412Y180795D01*
X70806Y172774D01*
X76393Y164886D01*
X82169Y157135D01*
X88130Y149526D01*
X94274Y142063D01*
X100596Y134751D01*
X107093Y127594D01*
X113760Y120595D01*
X120595Y113760D01*
X127594Y107093D01*
X134751Y100596D01*
X142063Y94274D01*
X149526Y88130D01*
X157135Y82169D01*
X164886Y76393D01*
X172774Y70806D01*
X180795Y65412D01*
X188944Y60213D01*
X197216Y55212D01*
X205607Y50413D01*
X214111Y45818D01*
X222723Y41429D01*
X231440Y37250D01*
X240254Y33283D01*
X249162Y29530D01*
X258158Y25994D01*
X267237Y22675D01*
X276393Y19577D01*
X285622Y16702D01*
X294917Y14050D01*
X304274Y11623D01*
X313686Y9424D01*
X323149Y7452D01*
X332657Y5710D01*
X342204Y4197D01*
X351785Y2916D01*
X361394Y1867D01*
X371026Y1051D01*
X380675Y467D01*
X390335Y117D01*
X400000Y0D01*
X1400000Y0D02*
X1409665Y117D01*
X1419325Y467D01*
X1428974Y1051D01*
X1438606Y1867D01*
X1448215Y2916D01*
X1457796Y4197D01*
X1467343Y5710D01*
X1476851Y7452D01*
X1486314Y9424D01*
X1495726Y11623D01*
X1505083Y14050D01*
X1514378Y16702D01*
X1523607Y19577D01*
X1532763Y22675D01*
X1541842Y25994D01*
X1550838Y29530D01*
X1559746Y33283D01*
X1568560Y37250D01*
X1577277Y41429D01*
X1585889Y45818D01*
X1594393Y50413D01*
X1602784Y55212D01*
X1611056Y60213D01*
X1619205Y65412D01*
X1627226Y70806D01*
X1635114Y76393D01*
X1642865Y82169D01*
X1650474Y88130D01*
X1657937Y94274D01*
X1665249Y100596D01*
X1672406Y107093D01*
X1679405Y113760D01*
X1686240Y120595D01*
X1692907Y127594D01*
X1699404Y134751D01*
X1705726Y142063D01*
X1711870Y149526D01*
X1717831Y157135D01*
X1723607Y164886D01*
X1729194Y172774D01*
X1734588Y180795D01*
X1739787Y188944D01*
X1744788Y197216D01*
X1749587Y205607D01*
X1754182Y214111D01*
X1758571Y222723D01*
X1762750Y231440D01*
X1766717Y240254D01*
X1770470Y249162D01*
X1774006Y258158D01*
X1777325Y267237D01*
X1780423Y276393D01*
X1783298Y285622D01*
X1785950Y294917D01*
X1788377Y304274D01*
X1790576Y313686D01*
X1792548Y323149D01*
X1794290Y332657D01*
X1795803Y342204D01*
X1797084Y351785D01*
X1798133Y361394D01*
X1798949Y371026D01*
X1799533Y380675D01*
X1799883Y390335D01*
X1800000Y400000D01*
D11*
X750000Y568500D03*
X1050000Y568500D03*
D12*
X900000Y568500D03*
D13*
X376200Y573000D02*
X223800Y573000D01*
X223800Y827000D02*
X376200Y827000D01*
X1423800Y573000D02*
X1576200Y573000D01*
X1576200Y827000D02*
X1423800Y827000D01*
D14*
X900000Y827000D02*
X300000Y827000D01*
D15*
X900000Y1025000D03*
D14*
X900000Y827000D01*
X900000Y568500D01*
X1050000Y568500D02*
X1050000Y350000D01*
D15*
X1050000Y350000D03*
D14*
X1252000Y827000D02*
X1500000Y827000D01*
X1252000Y827000D02*
X1050000Y625000D01*
X1050000Y568500D01*
D15*
X200000Y400000D03*
X400000Y200000D03*
X900000Y200000D03*
X1400000Y200000D03*
X1600000Y400000D03*
X1600000Y1000000D03*
X1400000Y1200000D03*
X900000Y1200000D03*
X400000Y1200000D03*
X200000Y1000000D03*
M02*
