G04 EAGLE Gerber X2 export*
%TF.Part,Single*%
%TF.FileFunction,Other,Solder Mask top*%
%TF.FilePolarity,Positive*%
%TF.GenerationSoftware,Autodesk,EAGLE,9.0.0*%
%TF.CreationDate,2018-05-03T06:21:48Z*%
G75*
%MOMM*%
%FSLAX35Y35*%
%LPD*%
%AMOC8*
5,1,8,0,0,1.08239X$1,22.5*%
G01*
%ADD10C,0.100000*%
%ADD11C,0.362400*%
%ADD12R,2.203200X1.403200*%
%ADD13C,1.727200*%
%ADD14R,2.209800X1.295400*%
%ADD15R,1.603200X1.203200*%


D10*
X952500Y2286000D02*
X2095500Y2286000D01*
X2476500Y1905000D02*
X2476500Y952500D01*
X2095500Y571500D02*
X952500Y571500D01*
X571500Y952500D02*
X571500Y1905000D01*
X571611Y1914206D01*
X571945Y1923407D01*
X572501Y1932598D01*
X573279Y1941772D01*
X574278Y1950924D01*
X575498Y1960050D01*
X576938Y1969144D01*
X578598Y1978200D01*
X580476Y1987214D01*
X582571Y1996179D01*
X584882Y2005092D01*
X587408Y2013945D01*
X590147Y2022735D01*
X593098Y2031457D01*
X596259Y2040104D01*
X599627Y2048673D01*
X603202Y2057158D01*
X606981Y2065554D01*
X610961Y2073856D01*
X615141Y2082060D01*
X619518Y2090160D01*
X624090Y2098152D01*
X628853Y2106031D01*
X633805Y2113793D01*
X638943Y2121433D01*
X644265Y2128946D01*
X649766Y2136329D01*
X655444Y2143577D01*
X661296Y2150685D01*
X667317Y2157650D01*
X673506Y2164467D01*
X679857Y2171133D01*
X686367Y2177643D01*
X693033Y2183994D01*
X699850Y2190183D01*
X706815Y2196204D01*
X713923Y2202056D01*
X721171Y2207734D01*
X728554Y2213235D01*
X736067Y2218557D01*
X743707Y2223695D01*
X751469Y2228647D01*
X759348Y2233410D01*
X767340Y2237982D01*
X775440Y2242359D01*
X783644Y2246539D01*
X791946Y2250519D01*
X800342Y2254298D01*
X808827Y2257873D01*
X817396Y2261241D01*
X826043Y2264402D01*
X834765Y2267353D01*
X843555Y2270092D01*
X852408Y2272618D01*
X861321Y2274929D01*
X870286Y2277024D01*
X879300Y2278902D01*
X888356Y2280562D01*
X897450Y2282002D01*
X906576Y2283222D01*
X915728Y2284221D01*
X924902Y2284999D01*
X934093Y2285555D01*
X943294Y2285889D01*
X952500Y2286000D01*
X2095500Y2286000D02*
X2104706Y2285889D01*
X2113907Y2285555D01*
X2123098Y2284999D01*
X2132272Y2284221D01*
X2141424Y2283222D01*
X2150550Y2282002D01*
X2159644Y2280562D01*
X2168700Y2278902D01*
X2177714Y2277024D01*
X2186679Y2274929D01*
X2195592Y2272618D01*
X2204445Y2270092D01*
X2213235Y2267353D01*
X2221957Y2264402D01*
X2230604Y2261241D01*
X2239173Y2257873D01*
X2247658Y2254298D01*
X2256054Y2250519D01*
X2264356Y2246539D01*
X2272560Y2242359D01*
X2280660Y2237982D01*
X2288652Y2233410D01*
X2296531Y2228647D01*
X2304293Y2223695D01*
X2311933Y2218557D01*
X2319446Y2213235D01*
X2326829Y2207734D01*
X2334077Y2202056D01*
X2341185Y2196204D01*
X2348150Y2190183D01*
X2354967Y2183994D01*
X2361633Y2177643D01*
X2368143Y2171133D01*
X2374494Y2164467D01*
X2380683Y2157650D01*
X2386704Y2150685D01*
X2392556Y2143577D01*
X2398234Y2136329D01*
X2403735Y2128946D01*
X2409057Y2121433D01*
X2414195Y2113793D01*
X2419147Y2106031D01*
X2423910Y2098152D01*
X2428482Y2090160D01*
X2432859Y2082060D01*
X2437039Y2073856D01*
X2441019Y2065554D01*
X2444798Y2057158D01*
X2448373Y2048673D01*
X2451741Y2040104D01*
X2454902Y2031457D01*
X2457853Y2022735D01*
X2460592Y2013945D01*
X2463118Y2005092D01*
X2465429Y1996179D01*
X2467524Y1987214D01*
X2469402Y1978200D01*
X2471062Y1969144D01*
X2472502Y1960050D01*
X2473722Y1950924D01*
X2474721Y1941772D01*
X2475499Y1932598D01*
X2476055Y1923407D01*
X2476389Y1914206D01*
X2476500Y1905000D01*
X2476500Y952500D02*
X2476389Y943294D01*
X2476055Y934093D01*
X2475499Y924902D01*
X2474721Y915728D01*
X2473722Y906576D01*
X2472502Y897450D01*
X2471062Y888356D01*
X2469402Y879300D01*
X2467524Y870286D01*
X2465429Y861321D01*
X2463118Y852408D01*
X2460592Y843555D01*
X2457853Y834765D01*
X2454902Y826043D01*
X2451741Y817396D01*
X2448373Y808827D01*
X2444798Y800342D01*
X2441019Y791946D01*
X2437039Y783644D01*
X2432859Y775440D01*
X2428482Y767340D01*
X2423910Y759348D01*
X2419147Y751469D01*
X2414195Y743707D01*
X2409057Y736067D01*
X2403735Y728554D01*
X2398234Y721171D01*
X2392556Y713923D01*
X2386704Y706815D01*
X2380683Y699850D01*
X2374494Y693033D01*
X2368143Y686367D01*
X2361633Y679857D01*
X2354967Y673506D01*
X2348150Y667317D01*
X2341185Y661296D01*
X2334077Y655444D01*
X2326829Y649766D01*
X2319446Y644265D01*
X2311933Y638943D01*
X2304293Y633805D01*
X2296531Y628853D01*
X2288652Y624090D01*
X2280660Y619518D01*
X2272560Y615141D01*
X2264356Y610961D01*
X2256054Y606981D01*
X2247658Y603202D01*
X2239173Y599627D01*
X2230604Y596259D01*
X2221957Y593098D01*
X2213235Y590147D01*
X2204445Y587408D01*
X2195592Y584882D01*
X2186679Y582571D01*
X2177714Y580476D01*
X2168700Y578598D01*
X2159644Y576938D01*
X2150550Y575498D01*
X2141424Y574278D01*
X2132272Y573279D01*
X2123098Y572501D01*
X2113907Y571945D01*
X2104706Y571611D01*
X2095500Y571500D01*
X952500Y571500D02*
X943294Y571611D01*
X934093Y571945D01*
X924902Y572501D01*
X915728Y573279D01*
X906576Y574278D01*
X897450Y575498D01*
X888356Y576938D01*
X879300Y578598D01*
X870286Y580476D01*
X861321Y582571D01*
X852408Y584882D01*
X843555Y587408D01*
X834765Y590147D01*
X826043Y593098D01*
X817396Y596259D01*
X808827Y599627D01*
X800342Y603202D01*
X791946Y606981D01*
X783644Y610961D01*
X775440Y615141D01*
X767340Y619518D01*
X759348Y624090D01*
X751469Y628853D01*
X743707Y633805D01*
X736067Y638943D01*
X728554Y644265D01*
X721171Y649766D01*
X713923Y655444D01*
X706815Y661296D01*
X699850Y667317D01*
X693033Y673506D01*
X686367Y679857D01*
X679857Y686367D01*
X673506Y693033D01*
X667317Y699850D01*
X661296Y706815D01*
X655444Y713923D01*
X649766Y721171D01*
X644265Y728554D01*
X638943Y736067D01*
X633805Y743707D01*
X628853Y751469D01*
X624090Y759348D01*
X619518Y767340D01*
X615141Y775440D01*
X610961Y783644D01*
X606981Y791946D01*
X603202Y800342D01*
X599627Y808827D01*
X596259Y817396D01*
X593098Y826043D01*
X590147Y834765D01*
X587408Y843555D01*
X584882Y852408D01*
X582571Y861321D01*
X580476Y870286D01*
X578598Y879300D01*
X576938Y888356D01*
X575498Y897450D01*
X574278Y906576D01*
X573279Y915728D01*
X572501Y924902D01*
X571945Y934093D01*
X571611Y943294D01*
X571500Y952500D01*
D11*
X1617960Y1579040D02*
X1630040Y1579040D01*
X1630040Y1514960D01*
X1617960Y1514960D01*
X1617960Y1579040D01*
X1617960Y1551199D02*
X1630040Y1551199D01*
X1580040Y1579040D02*
X1567960Y1579040D01*
X1580040Y1579040D02*
X1580040Y1514960D01*
X1567960Y1514960D01*
X1567960Y1579040D01*
X1567960Y1551199D02*
X1580040Y1551199D01*
X1530040Y1579040D02*
X1517960Y1579040D01*
X1530040Y1579040D02*
X1530040Y1514960D01*
X1517960Y1514960D01*
X1517960Y1579040D01*
X1517960Y1551199D02*
X1530040Y1551199D01*
X1480040Y1579040D02*
X1467960Y1579040D01*
X1480040Y1579040D02*
X1480040Y1514960D01*
X1467960Y1514960D01*
X1467960Y1579040D01*
X1467960Y1551199D02*
X1480040Y1551199D01*
X1430040Y1579040D02*
X1417960Y1579040D01*
X1430040Y1579040D02*
X1430040Y1514960D01*
X1417960Y1514960D01*
X1417960Y1579040D01*
X1417960Y1551199D02*
X1430040Y1551199D01*
X1430040Y1279040D02*
X1417960Y1279040D01*
X1430040Y1279040D02*
X1430040Y1214960D01*
X1417960Y1214960D01*
X1417960Y1279040D01*
X1417960Y1251199D02*
X1430040Y1251199D01*
X1467960Y1279040D02*
X1480040Y1279040D01*
X1480040Y1214960D01*
X1467960Y1214960D01*
X1467960Y1279040D01*
X1467960Y1251199D02*
X1480040Y1251199D01*
X1517960Y1279040D02*
X1530040Y1279040D01*
X1530040Y1214960D01*
X1517960Y1214960D01*
X1517960Y1279040D01*
X1517960Y1251199D02*
X1530040Y1251199D01*
X1567960Y1279040D02*
X1580040Y1279040D01*
X1580040Y1214960D01*
X1567960Y1214960D01*
X1567960Y1279040D01*
X1567960Y1251199D02*
X1580040Y1251199D01*
X1617960Y1279040D02*
X1630040Y1279040D01*
X1630040Y1214960D01*
X1617960Y1214960D01*
X1617960Y1279040D01*
X1617960Y1251199D02*
X1630040Y1251199D01*
D12*
X1524000Y1397000D03*
D13*
X2082800Y1270000D02*
X2235200Y1270000D01*
X2235200Y1524000D02*
X2082800Y1524000D01*
D14*
X1074420Y889000D03*
X1973580Y889000D03*
D13*
X965200Y1524000D02*
X812800Y1524000D01*
X812800Y1270000D02*
X965200Y1270000D01*
D15*
X953300Y2006600D03*
X953300Y1803400D03*
X1194600Y1905000D03*
M02*
