M48
;GenerationSoftware,Autodesk,EAGLE,9.0.0*%
;CreationDate,2018-05-03T06:21:47Z*%
FMAT,2
ICI,OFF
METRIC,TZ,000.00000
T3C0.30000
T2C0.35000
T1C1.01600
%
G90
M71
T1
X2159000Y1270000
X2159000Y1524000
X889000Y1524000
X889000Y1270000
T2
X1691500Y1247000
X1694500Y1547000
T3
X1397000Y1778000
X1651000Y1778000
X1524000Y889000
X952500Y2159000
X2095500Y2159000
X2349500Y1905000
X2349500Y952500
X2095500Y698500
X952500Y698500
X698500Y920750
X698500Y1905000
X1524000Y2159000
X1524000Y698500
X698500Y1397000
X2349500Y1397000
X1424000Y889000
X1574000Y1397000
X1474000Y1397000
M30