%
M48
M72
T01C0.01181
T02C0.04000
%
T01
X60050Y20578
X70050Y68078
X15050Y78078
X5050Y29328
X15050Y20578
X33613Y28078
X37550Y28078
X37550Y20578
X35581Y48078
X39519Y48078
X42550Y63078
X32550Y63078
X37550Y78078
X60050Y78078
X70050Y48078
X70050Y30578
X5050Y48078
X5050Y68078
T02
X12550Y43078
X12550Y53078
X62550Y43078
X62550Y53078
M30
