G75*
%MOIN*%
%OFA0B0*%
%FSLAX25Y25*%
%IPPOS*%
%LPD*%
%AMOC8*
5,1,8,0,0,1.08239X$1,22.5*
%
%ADD10C,0.00500*%
%ADD11C,0.00394*%
%ADD12C,0.00300*%
%ADD13C,0.00600*%
%ADD14C,0.00200*%
%ADD15R,0.06000X0.06000*%
D10*
X0016113Y0060379D02*
X0023987Y0060379D01*
X0023987Y0066284D01*
X0023987Y0070221D02*
X0023987Y0076127D01*
X0016113Y0076127D01*
X0016113Y0074159D01*
X0027800Y0073456D02*
X0030804Y0073456D01*
X0029302Y0073456D02*
X0029302Y0068050D01*
X0033019Y0068050D02*
X0033019Y0073456D01*
X0034521Y0073456D01*
X0034597Y0073454D01*
X0034673Y0073448D01*
X0034748Y0073439D01*
X0034823Y0073425D01*
X0034897Y0073408D01*
X0034971Y0073387D01*
X0035043Y0073363D01*
X0035113Y0073334D01*
X0035182Y0073303D01*
X0035250Y0073267D01*
X0035316Y0073229D01*
X0035379Y0073187D01*
X0035440Y0073142D01*
X0035499Y0073094D01*
X0035556Y0073043D01*
X0035610Y0072989D01*
X0035661Y0072932D01*
X0035709Y0072873D01*
X0035754Y0072812D01*
X0035796Y0072749D01*
X0035834Y0072683D01*
X0035870Y0072615D01*
X0035901Y0072546D01*
X0035930Y0072476D01*
X0035954Y0072404D01*
X0035975Y0072330D01*
X0035992Y0072256D01*
X0036006Y0072181D01*
X0036015Y0072106D01*
X0036021Y0072030D01*
X0036023Y0071954D01*
X0036021Y0071878D01*
X0036015Y0071802D01*
X0036006Y0071727D01*
X0035992Y0071652D01*
X0035975Y0071578D01*
X0035954Y0071504D01*
X0035930Y0071432D01*
X0035901Y0071362D01*
X0035870Y0071293D01*
X0035834Y0071225D01*
X0035796Y0071159D01*
X0035754Y0071096D01*
X0035709Y0071035D01*
X0035661Y0070976D01*
X0035610Y0070919D01*
X0035556Y0070865D01*
X0035499Y0070814D01*
X0035440Y0070766D01*
X0035379Y0070721D01*
X0035316Y0070679D01*
X0035250Y0070641D01*
X0035182Y0070605D01*
X0035113Y0070574D01*
X0035043Y0070545D01*
X0034971Y0070521D01*
X0034897Y0070500D01*
X0034823Y0070483D01*
X0034748Y0070469D01*
X0034673Y0070460D01*
X0034597Y0070454D01*
X0034521Y0070452D01*
X0034521Y0070453D02*
X0033019Y0070453D01*
X0038650Y0071203D02*
X0040301Y0070303D01*
X0039701Y0068050D02*
X0039601Y0068052D01*
X0039501Y0068058D01*
X0039401Y0068068D01*
X0039302Y0068082D01*
X0039203Y0068099D01*
X0039105Y0068121D01*
X0039009Y0068146D01*
X0038913Y0068176D01*
X0038818Y0068209D01*
X0038725Y0068245D01*
X0038633Y0068286D01*
X0038543Y0068330D01*
X0038455Y0068377D01*
X0038369Y0068428D01*
X0038284Y0068482D01*
X0038202Y0068540D01*
X0038123Y0068600D01*
X0038045Y0068664D01*
X0037971Y0068731D01*
X0037899Y0068801D01*
X0040301Y0070302D02*
X0040358Y0070267D01*
X0040412Y0070228D01*
X0040465Y0070187D01*
X0040515Y0070143D01*
X0040562Y0070096D01*
X0040607Y0070047D01*
X0040649Y0069995D01*
X0040688Y0069941D01*
X0040724Y0069885D01*
X0040757Y0069827D01*
X0040787Y0069768D01*
X0040814Y0069706D01*
X0040837Y0069644D01*
X0040857Y0069580D01*
X0040873Y0069516D01*
X0040886Y0069450D01*
X0040895Y0069384D01*
X0040900Y0069318D01*
X0040902Y0069251D01*
X0040900Y0069184D01*
X0040894Y0069117D01*
X0040885Y0069050D01*
X0040872Y0068984D01*
X0040855Y0068919D01*
X0040835Y0068854D01*
X0040811Y0068791D01*
X0040783Y0068730D01*
X0040752Y0068670D01*
X0040718Y0068612D01*
X0040680Y0068556D01*
X0040640Y0068502D01*
X0040597Y0068451D01*
X0040550Y0068402D01*
X0040501Y0068355D01*
X0040450Y0068312D01*
X0040396Y0068272D01*
X0040340Y0068234D01*
X0040282Y0068200D01*
X0040222Y0068169D01*
X0040161Y0068141D01*
X0040098Y0068117D01*
X0040033Y0068097D01*
X0039968Y0068080D01*
X0039902Y0068067D01*
X0039835Y0068058D01*
X0039768Y0068052D01*
X0039701Y0068050D01*
X0040601Y0073005D02*
X0040528Y0073057D01*
X0040452Y0073107D01*
X0040375Y0073154D01*
X0040295Y0073198D01*
X0040214Y0073238D01*
X0040132Y0073275D01*
X0040047Y0073309D01*
X0039962Y0073339D01*
X0039876Y0073366D01*
X0039788Y0073390D01*
X0039700Y0073410D01*
X0039611Y0073426D01*
X0039521Y0073439D01*
X0039431Y0073448D01*
X0039341Y0073453D01*
X0039250Y0073455D01*
X0039250Y0073456D02*
X0039183Y0073454D01*
X0039116Y0073448D01*
X0039049Y0073439D01*
X0038983Y0073426D01*
X0038918Y0073409D01*
X0038853Y0073389D01*
X0038790Y0073365D01*
X0038729Y0073337D01*
X0038669Y0073306D01*
X0038611Y0073272D01*
X0038555Y0073234D01*
X0038501Y0073194D01*
X0038450Y0073151D01*
X0038401Y0073104D01*
X0038354Y0073055D01*
X0038311Y0073004D01*
X0038271Y0072950D01*
X0038233Y0072894D01*
X0038199Y0072836D01*
X0038168Y0072776D01*
X0038140Y0072715D01*
X0038116Y0072652D01*
X0038096Y0072587D01*
X0038079Y0072522D01*
X0038066Y0072456D01*
X0038057Y0072389D01*
X0038051Y0072322D01*
X0038049Y0072255D01*
X0038051Y0072188D01*
X0038056Y0072122D01*
X0038065Y0072056D01*
X0038078Y0071990D01*
X0038094Y0071926D01*
X0038114Y0071862D01*
X0038137Y0071800D01*
X0038164Y0071738D01*
X0038194Y0071679D01*
X0038227Y0071621D01*
X0038263Y0071565D01*
X0038302Y0071511D01*
X0038344Y0071459D01*
X0038389Y0071410D01*
X0038436Y0071363D01*
X0038486Y0071319D01*
X0038539Y0071278D01*
X0038593Y0071239D01*
X0038650Y0071204D01*
X0043037Y0071053D02*
X0043037Y0069552D01*
X0043036Y0069552D02*
X0043038Y0069476D01*
X0043044Y0069400D01*
X0043053Y0069325D01*
X0043067Y0069250D01*
X0043084Y0069176D01*
X0043105Y0069102D01*
X0043129Y0069030D01*
X0043158Y0068960D01*
X0043189Y0068891D01*
X0043225Y0068823D01*
X0043263Y0068757D01*
X0043305Y0068694D01*
X0043350Y0068633D01*
X0043398Y0068574D01*
X0043449Y0068517D01*
X0043503Y0068463D01*
X0043560Y0068412D01*
X0043619Y0068364D01*
X0043680Y0068319D01*
X0043743Y0068277D01*
X0043809Y0068239D01*
X0043877Y0068203D01*
X0043946Y0068172D01*
X0044016Y0068143D01*
X0044088Y0068119D01*
X0044162Y0068098D01*
X0044236Y0068081D01*
X0044311Y0068067D01*
X0044386Y0068058D01*
X0044462Y0068052D01*
X0044538Y0068050D01*
X0044614Y0068052D01*
X0044690Y0068058D01*
X0044765Y0068067D01*
X0044840Y0068081D01*
X0044914Y0068098D01*
X0044988Y0068119D01*
X0045060Y0068143D01*
X0045130Y0068172D01*
X0045199Y0068203D01*
X0045267Y0068239D01*
X0045333Y0068277D01*
X0045396Y0068319D01*
X0045457Y0068364D01*
X0045516Y0068412D01*
X0045573Y0068463D01*
X0045627Y0068517D01*
X0045678Y0068574D01*
X0045726Y0068633D01*
X0045771Y0068694D01*
X0045813Y0068757D01*
X0045851Y0068823D01*
X0045887Y0068891D01*
X0045918Y0068960D01*
X0045947Y0069030D01*
X0045971Y0069102D01*
X0045992Y0069176D01*
X0046009Y0069250D01*
X0046023Y0069325D01*
X0046032Y0069400D01*
X0046038Y0069476D01*
X0046040Y0069552D01*
X0046040Y0069852D01*
X0046039Y0069852D02*
X0046037Y0069919D01*
X0046031Y0069986D01*
X0046022Y0070053D01*
X0046009Y0070119D01*
X0045992Y0070184D01*
X0045972Y0070249D01*
X0045948Y0070312D01*
X0045920Y0070373D01*
X0045889Y0070433D01*
X0045855Y0070491D01*
X0045817Y0070547D01*
X0045777Y0070601D01*
X0045734Y0070652D01*
X0045687Y0070701D01*
X0045638Y0070748D01*
X0045587Y0070791D01*
X0045533Y0070831D01*
X0045477Y0070869D01*
X0045419Y0070903D01*
X0045359Y0070934D01*
X0045298Y0070962D01*
X0045235Y0070986D01*
X0045170Y0071006D01*
X0045105Y0071023D01*
X0045039Y0071036D01*
X0044972Y0071045D01*
X0044905Y0071051D01*
X0044838Y0071053D01*
X0043037Y0071053D01*
X0043039Y0071150D01*
X0043045Y0071246D01*
X0043055Y0071343D01*
X0043068Y0071438D01*
X0043086Y0071533D01*
X0043107Y0071628D01*
X0043132Y0071721D01*
X0043161Y0071814D01*
X0043193Y0071905D01*
X0043229Y0071995D01*
X0043269Y0072083D01*
X0043312Y0072169D01*
X0043359Y0072254D01*
X0043409Y0072337D01*
X0043462Y0072417D01*
X0043519Y0072496D01*
X0043578Y0072572D01*
X0043641Y0072646D01*
X0043707Y0072717D01*
X0043775Y0072785D01*
X0043846Y0072851D01*
X0043920Y0072914D01*
X0043996Y0072973D01*
X0044075Y0073030D01*
X0044155Y0073083D01*
X0044238Y0073133D01*
X0044323Y0073180D01*
X0044409Y0073223D01*
X0044497Y0073263D01*
X0044587Y0073299D01*
X0044678Y0073331D01*
X0044771Y0073360D01*
X0044864Y0073385D01*
X0044959Y0073406D01*
X0045054Y0073424D01*
X0045149Y0073437D01*
X0045246Y0073447D01*
X0045342Y0073453D01*
X0045439Y0073455D01*
X0048352Y0073456D02*
X0050153Y0073456D01*
X0050222Y0073454D01*
X0050290Y0073448D01*
X0050358Y0073438D01*
X0050425Y0073425D01*
X0050491Y0073407D01*
X0050557Y0073386D01*
X0050621Y0073361D01*
X0050683Y0073333D01*
X0050744Y0073301D01*
X0050802Y0073265D01*
X0050859Y0073227D01*
X0050913Y0073185D01*
X0050965Y0073140D01*
X0051014Y0073092D01*
X0051061Y0073041D01*
X0051104Y0072988D01*
X0051144Y0072933D01*
X0051181Y0072875D01*
X0051215Y0072815D01*
X0051245Y0072754D01*
X0051272Y0072691D01*
X0051295Y0072626D01*
X0051315Y0072560D01*
X0051330Y0072494D01*
X0051342Y0072426D01*
X0051350Y0072358D01*
X0051354Y0072289D01*
X0051354Y0072221D01*
X0051350Y0072152D01*
X0051342Y0072084D01*
X0051330Y0072016D01*
X0051315Y0071950D01*
X0051295Y0071884D01*
X0051272Y0071819D01*
X0051245Y0071756D01*
X0051215Y0071695D01*
X0051181Y0071635D01*
X0051144Y0071577D01*
X0051104Y0071522D01*
X0051061Y0071469D01*
X0051014Y0071418D01*
X0050965Y0071370D01*
X0050913Y0071325D01*
X0050859Y0071283D01*
X0050802Y0071245D01*
X0050744Y0071209D01*
X0050683Y0071177D01*
X0050621Y0071149D01*
X0050557Y0071124D01*
X0050491Y0071103D01*
X0050425Y0071085D01*
X0050358Y0071072D01*
X0050290Y0071062D01*
X0050222Y0071056D01*
X0050153Y0071054D01*
X0050153Y0071053D02*
X0048952Y0071053D01*
X0049853Y0071054D02*
X0049929Y0071052D01*
X0050005Y0071046D01*
X0050080Y0071037D01*
X0050155Y0071023D01*
X0050229Y0071006D01*
X0050303Y0070985D01*
X0050375Y0070961D01*
X0050445Y0070932D01*
X0050514Y0070901D01*
X0050582Y0070865D01*
X0050648Y0070827D01*
X0050711Y0070785D01*
X0050772Y0070740D01*
X0050831Y0070692D01*
X0050888Y0070641D01*
X0050942Y0070587D01*
X0050993Y0070530D01*
X0051041Y0070471D01*
X0051086Y0070410D01*
X0051128Y0070347D01*
X0051166Y0070281D01*
X0051202Y0070213D01*
X0051233Y0070144D01*
X0051262Y0070074D01*
X0051286Y0070002D01*
X0051307Y0069928D01*
X0051324Y0069854D01*
X0051338Y0069779D01*
X0051347Y0069704D01*
X0051353Y0069628D01*
X0051355Y0069552D01*
X0051353Y0069476D01*
X0051347Y0069400D01*
X0051338Y0069325D01*
X0051324Y0069250D01*
X0051307Y0069176D01*
X0051286Y0069102D01*
X0051262Y0069030D01*
X0051233Y0068960D01*
X0051202Y0068891D01*
X0051166Y0068823D01*
X0051128Y0068757D01*
X0051086Y0068694D01*
X0051041Y0068633D01*
X0050993Y0068574D01*
X0050942Y0068517D01*
X0050888Y0068463D01*
X0050831Y0068412D01*
X0050772Y0068364D01*
X0050711Y0068319D01*
X0050648Y0068277D01*
X0050582Y0068239D01*
X0050514Y0068203D01*
X0050445Y0068172D01*
X0050375Y0068143D01*
X0050303Y0068119D01*
X0050229Y0068098D01*
X0050155Y0068081D01*
X0050080Y0068067D01*
X0050005Y0068058D01*
X0049929Y0068052D01*
X0049853Y0068050D01*
X0048352Y0068050D01*
X0056220Y0068801D02*
X0056273Y0068915D01*
X0056324Y0069031D01*
X0056371Y0069148D01*
X0056415Y0069267D01*
X0056455Y0069386D01*
X0056492Y0069507D01*
X0056526Y0069629D01*
X0056556Y0069751D01*
X0056583Y0069875D01*
X0056606Y0069999D01*
X0056625Y0070124D01*
X0056641Y0070249D01*
X0056654Y0070375D01*
X0056663Y0070501D01*
X0056668Y0070627D01*
X0056670Y0070753D01*
X0053666Y0070753D02*
X0053668Y0070879D01*
X0053673Y0071005D01*
X0053682Y0071131D01*
X0053695Y0071257D01*
X0053711Y0071382D01*
X0053730Y0071507D01*
X0053753Y0071631D01*
X0053780Y0071755D01*
X0053810Y0071877D01*
X0053844Y0071999D01*
X0053881Y0072120D01*
X0053921Y0072240D01*
X0053965Y0072358D01*
X0054012Y0072475D01*
X0054063Y0072591D01*
X0054117Y0072705D01*
X0055168Y0073456D02*
X0055234Y0073454D01*
X0055299Y0073448D01*
X0055364Y0073439D01*
X0055428Y0073425D01*
X0055491Y0073408D01*
X0055554Y0073387D01*
X0055614Y0073362D01*
X0055674Y0073334D01*
X0055731Y0073303D01*
X0055787Y0073268D01*
X0055840Y0073230D01*
X0055891Y0073188D01*
X0055940Y0073144D01*
X0055986Y0073097D01*
X0056029Y0073048D01*
X0056069Y0072996D01*
X0056105Y0072941D01*
X0056139Y0072885D01*
X0056169Y0072827D01*
X0056196Y0072767D01*
X0056219Y0072705D01*
X0056369Y0072255D02*
X0053967Y0069251D01*
X0055168Y0068050D02*
X0055234Y0068052D01*
X0055299Y0068058D01*
X0055364Y0068067D01*
X0055428Y0068081D01*
X0055491Y0068098D01*
X0055554Y0068119D01*
X0055614Y0068144D01*
X0055674Y0068172D01*
X0055731Y0068203D01*
X0055787Y0068238D01*
X0055840Y0068276D01*
X0055891Y0068318D01*
X0055940Y0068362D01*
X0055986Y0068409D01*
X0056029Y0068458D01*
X0056069Y0068510D01*
X0056105Y0068565D01*
X0056139Y0068621D01*
X0056169Y0068679D01*
X0056196Y0068739D01*
X0056219Y0068801D01*
X0055168Y0068050D02*
X0055102Y0068052D01*
X0055037Y0068058D01*
X0054972Y0068067D01*
X0054908Y0068081D01*
X0054845Y0068098D01*
X0054782Y0068119D01*
X0054722Y0068144D01*
X0054662Y0068172D01*
X0054605Y0068203D01*
X0054549Y0068238D01*
X0054496Y0068276D01*
X0054445Y0068318D01*
X0054396Y0068362D01*
X0054350Y0068409D01*
X0054307Y0068458D01*
X0054267Y0068510D01*
X0054231Y0068565D01*
X0054197Y0068621D01*
X0054167Y0068679D01*
X0054140Y0068739D01*
X0054117Y0068801D01*
X0056670Y0070753D02*
X0056668Y0070879D01*
X0056663Y0071005D01*
X0056654Y0071131D01*
X0056641Y0071257D01*
X0056625Y0071382D01*
X0056606Y0071507D01*
X0056583Y0071631D01*
X0056556Y0071755D01*
X0056526Y0071877D01*
X0056492Y0071999D01*
X0056455Y0072120D01*
X0056415Y0072240D01*
X0056371Y0072358D01*
X0056324Y0072475D01*
X0056273Y0072591D01*
X0056219Y0072705D01*
X0055168Y0073456D02*
X0055102Y0073454D01*
X0055037Y0073448D01*
X0054972Y0073439D01*
X0054908Y0073425D01*
X0054845Y0073408D01*
X0054782Y0073387D01*
X0054722Y0073362D01*
X0054662Y0073334D01*
X0054605Y0073303D01*
X0054549Y0073268D01*
X0054496Y0073230D01*
X0054445Y0073188D01*
X0054396Y0073144D01*
X0054350Y0073097D01*
X0054307Y0073048D01*
X0054267Y0072996D01*
X0054231Y0072941D01*
X0054197Y0072885D01*
X0054167Y0072827D01*
X0054140Y0072767D01*
X0054117Y0072705D01*
X0053666Y0070753D02*
X0053668Y0070627D01*
X0053673Y0070501D01*
X0053682Y0070375D01*
X0053695Y0070249D01*
X0053711Y0070124D01*
X0053730Y0069999D01*
X0053753Y0069875D01*
X0053780Y0069751D01*
X0053810Y0069629D01*
X0053844Y0069507D01*
X0053881Y0069386D01*
X0053921Y0069266D01*
X0053965Y0069148D01*
X0054012Y0069031D01*
X0054063Y0068915D01*
X0054116Y0068801D01*
X0058982Y0068050D02*
X0060483Y0068050D01*
X0060559Y0068052D01*
X0060635Y0068058D01*
X0060710Y0068067D01*
X0060785Y0068081D01*
X0060859Y0068098D01*
X0060933Y0068119D01*
X0061005Y0068143D01*
X0061075Y0068172D01*
X0061144Y0068203D01*
X0061212Y0068239D01*
X0061278Y0068277D01*
X0061341Y0068319D01*
X0061402Y0068364D01*
X0061461Y0068412D01*
X0061518Y0068463D01*
X0061572Y0068517D01*
X0061623Y0068574D01*
X0061671Y0068633D01*
X0061716Y0068694D01*
X0061758Y0068757D01*
X0061796Y0068823D01*
X0061832Y0068891D01*
X0061863Y0068960D01*
X0061892Y0069030D01*
X0061916Y0069102D01*
X0061937Y0069176D01*
X0061954Y0069250D01*
X0061968Y0069325D01*
X0061977Y0069400D01*
X0061983Y0069476D01*
X0061985Y0069552D01*
X0061983Y0069628D01*
X0061977Y0069704D01*
X0061968Y0069779D01*
X0061954Y0069854D01*
X0061937Y0069928D01*
X0061916Y0070002D01*
X0061892Y0070074D01*
X0061863Y0070144D01*
X0061832Y0070213D01*
X0061796Y0070281D01*
X0061758Y0070347D01*
X0061716Y0070410D01*
X0061671Y0070471D01*
X0061623Y0070530D01*
X0061572Y0070587D01*
X0061518Y0070641D01*
X0061461Y0070692D01*
X0061402Y0070740D01*
X0061341Y0070785D01*
X0061278Y0070827D01*
X0061212Y0070865D01*
X0061144Y0070901D01*
X0061075Y0070932D01*
X0061005Y0070961D01*
X0060933Y0070985D01*
X0060859Y0071006D01*
X0060785Y0071023D01*
X0060710Y0071037D01*
X0060635Y0071046D01*
X0060559Y0071052D01*
X0060483Y0071054D01*
X0060783Y0071053D02*
X0059582Y0071053D01*
X0060783Y0071054D02*
X0060852Y0071056D01*
X0060920Y0071062D01*
X0060988Y0071072D01*
X0061055Y0071085D01*
X0061121Y0071103D01*
X0061187Y0071124D01*
X0061251Y0071149D01*
X0061313Y0071177D01*
X0061374Y0071209D01*
X0061432Y0071245D01*
X0061489Y0071283D01*
X0061543Y0071325D01*
X0061595Y0071370D01*
X0061644Y0071418D01*
X0061691Y0071469D01*
X0061734Y0071522D01*
X0061774Y0071577D01*
X0061811Y0071635D01*
X0061845Y0071695D01*
X0061875Y0071756D01*
X0061902Y0071819D01*
X0061925Y0071884D01*
X0061945Y0071950D01*
X0061960Y0072016D01*
X0061972Y0072084D01*
X0061980Y0072152D01*
X0061984Y0072221D01*
X0061984Y0072289D01*
X0061980Y0072358D01*
X0061972Y0072426D01*
X0061960Y0072494D01*
X0061945Y0072560D01*
X0061925Y0072626D01*
X0061902Y0072691D01*
X0061875Y0072754D01*
X0061845Y0072815D01*
X0061811Y0072875D01*
X0061774Y0072933D01*
X0061734Y0072988D01*
X0061691Y0073041D01*
X0061644Y0073092D01*
X0061595Y0073140D01*
X0061543Y0073185D01*
X0061489Y0073227D01*
X0061432Y0073265D01*
X0061374Y0073301D01*
X0061313Y0073333D01*
X0061251Y0073361D01*
X0061187Y0073386D01*
X0061121Y0073407D01*
X0061055Y0073425D01*
X0060988Y0073438D01*
X0060920Y0073448D01*
X0060852Y0073454D01*
X0060783Y0073456D01*
X0058982Y0073456D01*
X0064297Y0072255D02*
X0065798Y0073456D01*
X0065798Y0068050D01*
X0064297Y0068050D02*
X0067300Y0068050D01*
X0016113Y0062347D02*
X0016113Y0060379D01*
D11*
X0015050Y0018253D02*
X0060050Y0018253D01*
X0060352Y0018257D01*
X0060654Y0018268D01*
X0060955Y0018286D01*
X0061256Y0018311D01*
X0061557Y0018344D01*
X0061856Y0018384D01*
X0062154Y0018431D01*
X0062452Y0018486D01*
X0062747Y0018547D01*
X0063041Y0018616D01*
X0063334Y0018692D01*
X0063624Y0018775D01*
X0063913Y0018865D01*
X0064199Y0018962D01*
X0064483Y0019065D01*
X0064764Y0019176D01*
X0065042Y0019293D01*
X0065318Y0019417D01*
X0065590Y0019548D01*
X0065859Y0019685D01*
X0066125Y0019828D01*
X0066387Y0019978D01*
X0066646Y0020135D01*
X0066900Y0020297D01*
X0067151Y0020466D01*
X0067397Y0020640D01*
X0067640Y0020821D01*
X0067877Y0021007D01*
X0068111Y0021199D01*
X0068339Y0021397D01*
X0068563Y0021600D01*
X0068781Y0021808D01*
X0068995Y0022022D01*
X0069203Y0022240D01*
X0069406Y0022464D01*
X0069604Y0022692D01*
X0069796Y0022926D01*
X0069982Y0023163D01*
X0070163Y0023406D01*
X0070337Y0023652D01*
X0070506Y0023903D01*
X0070668Y0024157D01*
X0070825Y0024416D01*
X0070975Y0024678D01*
X0071118Y0024944D01*
X0071255Y0025213D01*
X0071386Y0025485D01*
X0071510Y0025761D01*
X0071627Y0026039D01*
X0071738Y0026320D01*
X0071841Y0026604D01*
X0071938Y0026890D01*
X0072028Y0027179D01*
X0072111Y0027469D01*
X0072187Y0027762D01*
X0072256Y0028056D01*
X0072317Y0028351D01*
X0072372Y0028649D01*
X0072419Y0028947D01*
X0072459Y0029246D01*
X0072492Y0029547D01*
X0072517Y0029848D01*
X0072535Y0030149D01*
X0072546Y0030451D01*
X0072550Y0030753D01*
X0072550Y0068253D01*
X0072546Y0068555D01*
X0072535Y0068857D01*
X0072517Y0069158D01*
X0072492Y0069459D01*
X0072459Y0069760D01*
X0072419Y0070059D01*
X0072372Y0070357D01*
X0072317Y0070655D01*
X0072256Y0070950D01*
X0072187Y0071244D01*
X0072111Y0071537D01*
X0072028Y0071827D01*
X0071938Y0072116D01*
X0071841Y0072402D01*
X0071738Y0072686D01*
X0071627Y0072967D01*
X0071510Y0073245D01*
X0071386Y0073521D01*
X0071255Y0073793D01*
X0071118Y0074062D01*
X0070975Y0074328D01*
X0070825Y0074590D01*
X0070668Y0074849D01*
X0070506Y0075103D01*
X0070337Y0075354D01*
X0070163Y0075600D01*
X0069982Y0075843D01*
X0069796Y0076080D01*
X0069604Y0076314D01*
X0069406Y0076542D01*
X0069203Y0076766D01*
X0068995Y0076984D01*
X0068781Y0077198D01*
X0068563Y0077406D01*
X0068339Y0077609D01*
X0068111Y0077807D01*
X0067877Y0077999D01*
X0067640Y0078185D01*
X0067397Y0078366D01*
X0067151Y0078540D01*
X0066900Y0078709D01*
X0066646Y0078871D01*
X0066387Y0079028D01*
X0066125Y0079178D01*
X0065859Y0079321D01*
X0065590Y0079458D01*
X0065318Y0079589D01*
X0065042Y0079713D01*
X0064764Y0079830D01*
X0064483Y0079941D01*
X0064199Y0080044D01*
X0063913Y0080141D01*
X0063624Y0080231D01*
X0063334Y0080314D01*
X0063041Y0080390D01*
X0062747Y0080459D01*
X0062452Y0080520D01*
X0062154Y0080575D01*
X0061856Y0080622D01*
X0061557Y0080662D01*
X0061256Y0080695D01*
X0060955Y0080720D01*
X0060654Y0080738D01*
X0060352Y0080749D01*
X0060050Y0080753D01*
X0015050Y0080753D01*
X0014748Y0080749D01*
X0014446Y0080738D01*
X0014145Y0080720D01*
X0013844Y0080695D01*
X0013543Y0080662D01*
X0013244Y0080622D01*
X0012946Y0080575D01*
X0012648Y0080520D01*
X0012353Y0080459D01*
X0012059Y0080390D01*
X0011766Y0080314D01*
X0011476Y0080231D01*
X0011187Y0080141D01*
X0010901Y0080044D01*
X0010617Y0079941D01*
X0010336Y0079830D01*
X0010058Y0079713D01*
X0009782Y0079589D01*
X0009510Y0079458D01*
X0009241Y0079321D01*
X0008975Y0079178D01*
X0008713Y0079028D01*
X0008454Y0078871D01*
X0008200Y0078709D01*
X0007949Y0078540D01*
X0007703Y0078366D01*
X0007460Y0078185D01*
X0007223Y0077999D01*
X0006989Y0077807D01*
X0006761Y0077609D01*
X0006537Y0077406D01*
X0006319Y0077198D01*
X0006105Y0076984D01*
X0005897Y0076766D01*
X0005694Y0076542D01*
X0005496Y0076314D01*
X0005304Y0076080D01*
X0005118Y0075843D01*
X0004937Y0075600D01*
X0004763Y0075354D01*
X0004594Y0075103D01*
X0004432Y0074849D01*
X0004275Y0074590D01*
X0004125Y0074328D01*
X0003982Y0074062D01*
X0003845Y0073793D01*
X0003714Y0073521D01*
X0003590Y0073245D01*
X0003473Y0072967D01*
X0003362Y0072686D01*
X0003259Y0072402D01*
X0003162Y0072116D01*
X0003072Y0071827D01*
X0002989Y0071537D01*
X0002913Y0071244D01*
X0002844Y0070950D01*
X0002783Y0070655D01*
X0002728Y0070357D01*
X0002681Y0070059D01*
X0002641Y0069760D01*
X0002608Y0069459D01*
X0002583Y0069158D01*
X0002565Y0068857D01*
X0002554Y0068555D01*
X0002550Y0068253D01*
X0002550Y0030753D01*
X0002554Y0030451D01*
X0002565Y0030149D01*
X0002583Y0029848D01*
X0002608Y0029547D01*
X0002641Y0029246D01*
X0002681Y0028947D01*
X0002728Y0028649D01*
X0002783Y0028351D01*
X0002844Y0028056D01*
X0002913Y0027762D01*
X0002989Y0027469D01*
X0003072Y0027179D01*
X0003162Y0026890D01*
X0003259Y0026604D01*
X0003362Y0026320D01*
X0003473Y0026039D01*
X0003590Y0025761D01*
X0003714Y0025485D01*
X0003845Y0025213D01*
X0003982Y0024944D01*
X0004125Y0024678D01*
X0004275Y0024416D01*
X0004432Y0024157D01*
X0004594Y0023903D01*
X0004763Y0023652D01*
X0004937Y0023406D01*
X0005118Y0023163D01*
X0005304Y0022926D01*
X0005496Y0022692D01*
X0005694Y0022464D01*
X0005897Y0022240D01*
X0006105Y0022022D01*
X0006319Y0021808D01*
X0006537Y0021600D01*
X0006761Y0021397D01*
X0006989Y0021199D01*
X0007223Y0021007D01*
X0007460Y0020821D01*
X0007703Y0020640D01*
X0007949Y0020466D01*
X0008200Y0020297D01*
X0008454Y0020135D01*
X0008713Y0019978D01*
X0008975Y0019828D01*
X0009241Y0019685D01*
X0009510Y0019548D01*
X0009782Y0019417D01*
X0010058Y0019293D01*
X0010336Y0019176D01*
X0010617Y0019065D01*
X0010901Y0018962D01*
X0011187Y0018865D01*
X0011476Y0018775D01*
X0011766Y0018692D01*
X0012059Y0018616D01*
X0012353Y0018547D01*
X0012648Y0018486D01*
X0012946Y0018431D01*
X0013244Y0018384D01*
X0013543Y0018344D01*
X0013844Y0018311D01*
X0014145Y0018286D01*
X0014446Y0018268D01*
X0014748Y0018257D01*
X0015050Y0018253D01*
D12*
X0007632Y0031472D02*
X0007430Y0031472D01*
X0007632Y0031472D02*
X0007680Y0031474D01*
X0007727Y0031479D01*
X0007773Y0031489D01*
X0007819Y0031502D01*
X0007864Y0031518D01*
X0007907Y0031538D01*
X0007949Y0031561D01*
X0007988Y0031588D01*
X0008026Y0031617D01*
X0008061Y0031649D01*
X0008093Y0031684D01*
X0008122Y0031722D01*
X0008149Y0031761D01*
X0008172Y0031803D01*
X0008192Y0031846D01*
X0008208Y0031891D01*
X0008221Y0031937D01*
X0008231Y0031983D01*
X0008236Y0032030D01*
X0008238Y0032078D01*
X0008238Y0035109D01*
X0008339Y0036119D02*
X0008137Y0036119D01*
X0008137Y0036321D01*
X0008339Y0036321D01*
X0008339Y0036119D01*
X0009734Y0034301D02*
X0009734Y0033493D01*
X0009736Y0033438D01*
X0009742Y0033383D01*
X0009751Y0033329D01*
X0009764Y0033275D01*
X0009781Y0033222D01*
X0009801Y0033171D01*
X0009825Y0033121D01*
X0009852Y0033073D01*
X0009882Y0033027D01*
X0009915Y0032983D01*
X0009951Y0032941D01*
X0009990Y0032902D01*
X0010032Y0032866D01*
X0010076Y0032833D01*
X0010122Y0032803D01*
X0010170Y0032776D01*
X0010220Y0032752D01*
X0010271Y0032732D01*
X0010324Y0032715D01*
X0010378Y0032702D01*
X0010432Y0032693D01*
X0010487Y0032687D01*
X0010542Y0032685D01*
X0010597Y0032687D01*
X0010652Y0032693D01*
X0010706Y0032702D01*
X0010760Y0032715D01*
X0010813Y0032732D01*
X0010864Y0032752D01*
X0010914Y0032776D01*
X0010962Y0032803D01*
X0011008Y0032833D01*
X0011052Y0032866D01*
X0011094Y0032902D01*
X0011133Y0032941D01*
X0011169Y0032983D01*
X0011202Y0033027D01*
X0011232Y0033073D01*
X0011259Y0033121D01*
X0011283Y0033171D01*
X0011303Y0033222D01*
X0011320Y0033275D01*
X0011333Y0033329D01*
X0011342Y0033383D01*
X0011348Y0033438D01*
X0011350Y0033493D01*
X0011350Y0034301D01*
X0011348Y0034356D01*
X0011342Y0034411D01*
X0011333Y0034465D01*
X0011320Y0034519D01*
X0011303Y0034572D01*
X0011283Y0034623D01*
X0011259Y0034673D01*
X0011232Y0034721D01*
X0011202Y0034767D01*
X0011169Y0034811D01*
X0011133Y0034853D01*
X0011094Y0034892D01*
X0011052Y0034928D01*
X0011008Y0034961D01*
X0010962Y0034991D01*
X0010914Y0035018D01*
X0010864Y0035042D01*
X0010813Y0035062D01*
X0010760Y0035079D01*
X0010706Y0035092D01*
X0010652Y0035101D01*
X0010597Y0035107D01*
X0010542Y0035109D01*
X0010487Y0035107D01*
X0010432Y0035101D01*
X0010378Y0035092D01*
X0010324Y0035079D01*
X0010271Y0035062D01*
X0010220Y0035042D01*
X0010170Y0035018D01*
X0010122Y0034991D01*
X0010076Y0034961D01*
X0010032Y0034928D01*
X0009990Y0034892D01*
X0009951Y0034853D01*
X0009915Y0034811D01*
X0009882Y0034767D01*
X0009852Y0034721D01*
X0009825Y0034673D01*
X0009801Y0034623D01*
X0009781Y0034572D01*
X0009764Y0034519D01*
X0009751Y0034465D01*
X0009742Y0034411D01*
X0009736Y0034356D01*
X0009734Y0034301D01*
X0006862Y0034301D02*
X0006862Y0033897D01*
X0005246Y0033897D01*
X0005246Y0034301D02*
X0005246Y0033291D01*
X0005248Y0033243D01*
X0005253Y0033196D01*
X0005263Y0033150D01*
X0005276Y0033104D01*
X0005292Y0033059D01*
X0005312Y0033016D01*
X0005335Y0032974D01*
X0005362Y0032935D01*
X0005391Y0032897D01*
X0005423Y0032862D01*
X0005458Y0032830D01*
X0005496Y0032801D01*
X0005535Y0032774D01*
X0005577Y0032751D01*
X0005620Y0032731D01*
X0005665Y0032715D01*
X0005711Y0032702D01*
X0005757Y0032692D01*
X0005804Y0032687D01*
X0005852Y0032685D01*
X0005852Y0032684D02*
X0006862Y0032684D01*
X0006862Y0034301D02*
X0006860Y0034356D01*
X0006854Y0034411D01*
X0006845Y0034465D01*
X0006832Y0034519D01*
X0006815Y0034572D01*
X0006795Y0034623D01*
X0006771Y0034673D01*
X0006744Y0034721D01*
X0006714Y0034767D01*
X0006681Y0034811D01*
X0006645Y0034853D01*
X0006606Y0034892D01*
X0006564Y0034928D01*
X0006520Y0034961D01*
X0006474Y0034991D01*
X0006426Y0035018D01*
X0006376Y0035042D01*
X0006325Y0035062D01*
X0006272Y0035079D01*
X0006218Y0035092D01*
X0006164Y0035101D01*
X0006109Y0035107D01*
X0006054Y0035109D01*
X0005999Y0035107D01*
X0005944Y0035101D01*
X0005890Y0035092D01*
X0005836Y0035079D01*
X0005783Y0035062D01*
X0005732Y0035042D01*
X0005682Y0035018D01*
X0005634Y0034991D01*
X0005588Y0034961D01*
X0005544Y0034928D01*
X0005502Y0034892D01*
X0005463Y0034853D01*
X0005427Y0034811D01*
X0005394Y0034767D01*
X0005364Y0034721D01*
X0005337Y0034673D01*
X0005313Y0034623D01*
X0005293Y0034572D01*
X0005276Y0034519D01*
X0005263Y0034465D01*
X0005254Y0034411D01*
X0005248Y0034356D01*
X0005246Y0034301D01*
X0012687Y0035109D02*
X0013495Y0032684D01*
X0014303Y0035109D01*
X0015778Y0035109D02*
X0016990Y0035109D01*
X0016990Y0034705D01*
X0018238Y0035109D02*
X0019248Y0035109D01*
X0019296Y0035107D01*
X0019343Y0035102D01*
X0019389Y0035092D01*
X0019435Y0035079D01*
X0019480Y0035063D01*
X0019523Y0035043D01*
X0019565Y0035020D01*
X0019604Y0034993D01*
X0019642Y0034964D01*
X0019677Y0034932D01*
X0019709Y0034897D01*
X0019738Y0034859D01*
X0019765Y0034820D01*
X0019788Y0034778D01*
X0019808Y0034735D01*
X0019824Y0034690D01*
X0019837Y0034644D01*
X0019847Y0034598D01*
X0019852Y0034551D01*
X0019854Y0034503D01*
X0019854Y0032684D01*
X0018238Y0032684D02*
X0018238Y0036321D01*
X0015778Y0035109D02*
X0015778Y0032684D01*
X0020731Y0044248D02*
X0024369Y0045460D01*
X0020731Y0046673D01*
X0020731Y0047891D02*
X0020731Y0048699D01*
X0020731Y0048295D02*
X0024369Y0048295D01*
X0024369Y0047891D02*
X0024369Y0048699D01*
X0024369Y0050237D02*
X0020731Y0050237D01*
X0024369Y0052258D01*
X0020731Y0052258D01*
X0025199Y0060184D02*
X0026007Y0060184D01*
X0025603Y0060184D02*
X0025603Y0063821D01*
X0025199Y0063821D02*
X0026007Y0063821D01*
X0027418Y0063013D02*
X0027418Y0060993D01*
X0027420Y0060938D01*
X0027426Y0060883D01*
X0027435Y0060829D01*
X0027448Y0060775D01*
X0027465Y0060722D01*
X0027485Y0060671D01*
X0027509Y0060621D01*
X0027536Y0060573D01*
X0027566Y0060527D01*
X0027599Y0060483D01*
X0027635Y0060441D01*
X0027674Y0060402D01*
X0027716Y0060366D01*
X0027760Y0060333D01*
X0027806Y0060303D01*
X0027854Y0060276D01*
X0027904Y0060252D01*
X0027955Y0060232D01*
X0028008Y0060215D01*
X0028062Y0060202D01*
X0028116Y0060193D01*
X0028171Y0060187D01*
X0028226Y0060185D01*
X0028226Y0060184D02*
X0029034Y0060184D01*
X0030380Y0060184D02*
X0032401Y0060184D01*
X0031391Y0060184D02*
X0031391Y0063821D01*
X0030380Y0063013D01*
X0029034Y0063821D02*
X0028226Y0063821D01*
X0028171Y0063819D01*
X0028116Y0063813D01*
X0028062Y0063804D01*
X0028008Y0063791D01*
X0027955Y0063774D01*
X0027904Y0063754D01*
X0027854Y0063730D01*
X0027806Y0063703D01*
X0027760Y0063673D01*
X0027716Y0063640D01*
X0027674Y0063604D01*
X0027635Y0063564D01*
X0027599Y0063523D01*
X0027566Y0063479D01*
X0027536Y0063433D01*
X0027509Y0063385D01*
X0027485Y0063335D01*
X0027465Y0063284D01*
X0027448Y0063231D01*
X0027435Y0063177D01*
X0027426Y0063123D01*
X0027420Y0063068D01*
X0027418Y0063013D01*
X0042253Y0059781D02*
X0043428Y0058867D01*
X0043950Y0060303D01*
X0043428Y0058867D01*
X0043950Y0057431D01*
X0043428Y0058867D01*
X0042253Y0057953D01*
X0043428Y0058867D01*
X0044994Y0058867D01*
X0043428Y0058867D01*
X0042253Y0059781D01*
X0050731Y0051998D02*
X0050731Y0050786D01*
X0050731Y0049465D02*
X0054369Y0048253D01*
X0050731Y0047041D01*
X0050731Y0044912D02*
X0050731Y0043699D01*
X0050732Y0044912D02*
X0050734Y0044967D01*
X0050740Y0045022D01*
X0050749Y0045076D01*
X0050762Y0045130D01*
X0050779Y0045183D01*
X0050799Y0045234D01*
X0050823Y0045284D01*
X0050850Y0045332D01*
X0050880Y0045378D01*
X0050913Y0045422D01*
X0050949Y0045464D01*
X0050988Y0045503D01*
X0051030Y0045539D01*
X0051074Y0045572D01*
X0051120Y0045602D01*
X0051168Y0045629D01*
X0051218Y0045653D01*
X0051269Y0045673D01*
X0051322Y0045690D01*
X0051376Y0045703D01*
X0051430Y0045712D01*
X0051485Y0045718D01*
X0051540Y0045720D01*
X0051595Y0045718D01*
X0051650Y0045712D01*
X0051704Y0045703D01*
X0051758Y0045690D01*
X0051811Y0045673D01*
X0051862Y0045653D01*
X0051912Y0045629D01*
X0051960Y0045602D01*
X0052006Y0045572D01*
X0052050Y0045539D01*
X0052092Y0045503D01*
X0052131Y0045464D01*
X0052167Y0045422D01*
X0052200Y0045378D01*
X0052230Y0045332D01*
X0052257Y0045284D01*
X0052281Y0045234D01*
X0052301Y0045183D01*
X0052318Y0045130D01*
X0052331Y0045076D01*
X0052340Y0045022D01*
X0052346Y0044967D01*
X0052348Y0044912D01*
X0052348Y0044104D01*
X0052348Y0044710D02*
X0052350Y0044772D01*
X0052356Y0044834D01*
X0052365Y0044896D01*
X0052379Y0044956D01*
X0052396Y0045016D01*
X0052416Y0045075D01*
X0052440Y0045132D01*
X0052468Y0045188D01*
X0052499Y0045242D01*
X0052534Y0045294D01*
X0052571Y0045343D01*
X0052612Y0045390D01*
X0052655Y0045435D01*
X0052701Y0045477D01*
X0052749Y0045516D01*
X0052800Y0045552D01*
X0052853Y0045585D01*
X0052908Y0045614D01*
X0052964Y0045640D01*
X0053022Y0045663D01*
X0053082Y0045681D01*
X0053142Y0045697D01*
X0053203Y0045708D01*
X0053265Y0045716D01*
X0053327Y0045720D01*
X0053389Y0045720D01*
X0053451Y0045716D01*
X0053513Y0045708D01*
X0053574Y0045697D01*
X0053634Y0045681D01*
X0053694Y0045663D01*
X0053752Y0045640D01*
X0053808Y0045614D01*
X0053863Y0045585D01*
X0053916Y0045552D01*
X0053967Y0045516D01*
X0054015Y0045477D01*
X0054061Y0045435D01*
X0054104Y0045390D01*
X0054145Y0045343D01*
X0054182Y0045294D01*
X0054217Y0045242D01*
X0054248Y0045188D01*
X0054276Y0045132D01*
X0054300Y0045075D01*
X0054320Y0045016D01*
X0054337Y0044956D01*
X0054351Y0044896D01*
X0054360Y0044834D01*
X0054366Y0044772D01*
X0054368Y0044710D01*
X0054369Y0044710D02*
X0054369Y0043699D01*
X0054369Y0050786D02*
X0054369Y0051796D01*
X0054368Y0051796D02*
X0054366Y0051858D01*
X0054360Y0051920D01*
X0054351Y0051982D01*
X0054337Y0052042D01*
X0054320Y0052102D01*
X0054300Y0052161D01*
X0054276Y0052218D01*
X0054248Y0052274D01*
X0054217Y0052328D01*
X0054182Y0052380D01*
X0054145Y0052429D01*
X0054104Y0052476D01*
X0054061Y0052521D01*
X0054015Y0052563D01*
X0053967Y0052602D01*
X0053916Y0052638D01*
X0053863Y0052671D01*
X0053808Y0052700D01*
X0053752Y0052726D01*
X0053694Y0052749D01*
X0053634Y0052767D01*
X0053574Y0052783D01*
X0053513Y0052794D01*
X0053451Y0052802D01*
X0053389Y0052806D01*
X0053327Y0052806D01*
X0053265Y0052802D01*
X0053203Y0052794D01*
X0053142Y0052783D01*
X0053082Y0052767D01*
X0053022Y0052749D01*
X0052964Y0052726D01*
X0052908Y0052700D01*
X0052853Y0052671D01*
X0052800Y0052638D01*
X0052749Y0052602D01*
X0052701Y0052563D01*
X0052655Y0052521D01*
X0052612Y0052476D01*
X0052571Y0052429D01*
X0052534Y0052380D01*
X0052499Y0052328D01*
X0052468Y0052274D01*
X0052440Y0052218D01*
X0052416Y0052161D01*
X0052396Y0052102D01*
X0052379Y0052042D01*
X0052365Y0051982D01*
X0052356Y0051920D01*
X0052350Y0051858D01*
X0052348Y0051796D01*
X0052348Y0051998D02*
X0052348Y0051190D01*
X0052348Y0051998D02*
X0052346Y0052053D01*
X0052340Y0052108D01*
X0052331Y0052162D01*
X0052318Y0052216D01*
X0052301Y0052269D01*
X0052281Y0052320D01*
X0052257Y0052370D01*
X0052230Y0052418D01*
X0052200Y0052464D01*
X0052167Y0052508D01*
X0052131Y0052550D01*
X0052092Y0052589D01*
X0052050Y0052625D01*
X0052006Y0052658D01*
X0051960Y0052688D01*
X0051912Y0052715D01*
X0051862Y0052739D01*
X0051811Y0052759D01*
X0051758Y0052776D01*
X0051704Y0052789D01*
X0051650Y0052798D01*
X0051595Y0052804D01*
X0051540Y0052806D01*
X0051485Y0052804D01*
X0051430Y0052798D01*
X0051376Y0052789D01*
X0051322Y0052776D01*
X0051269Y0052759D01*
X0051218Y0052739D01*
X0051168Y0052715D01*
X0051120Y0052688D01*
X0051074Y0052658D01*
X0051030Y0052625D01*
X0050988Y0052589D01*
X0050949Y0052550D01*
X0050913Y0052508D01*
X0050880Y0052464D01*
X0050850Y0052418D01*
X0050823Y0052370D01*
X0050799Y0052320D01*
X0050779Y0052269D01*
X0050762Y0052216D01*
X0050749Y0052162D01*
X0050740Y0052108D01*
X0050734Y0052053D01*
X0050732Y0051998D01*
X0063742Y0035513D02*
X0064752Y0036321D01*
X0064752Y0032684D01*
X0063742Y0032684D02*
X0065762Y0032684D01*
X0062373Y0032684D02*
X0062171Y0032684D01*
X0062171Y0032887D01*
X0062373Y0032887D01*
X0062373Y0032684D01*
X0060146Y0032684D02*
X0060954Y0035109D01*
X0059338Y0035109D02*
X0060146Y0032684D01*
X0036400Y0028603D02*
X0036400Y0026547D01*
X0036400Y0027575D02*
X0032700Y0027575D01*
X0033522Y0026547D01*
D13*
X0029550Y0025253D02*
X0045550Y0025253D01*
X0045550Y0031253D01*
X0029550Y0031253D01*
X0029550Y0025253D01*
X0024950Y0020753D02*
X0050150Y0020753D01*
X0050150Y0035753D01*
X0024950Y0035753D01*
X0024950Y0020753D01*
X0015050Y0038253D02*
X0010050Y0038253D01*
X0007550Y0040753D01*
X0007550Y0045753D01*
X0010050Y0048253D01*
X0007550Y0050753D01*
X0007550Y0055753D01*
X0010050Y0058253D01*
X0015050Y0058253D01*
X0017550Y0055753D01*
X0017550Y0050753D01*
X0015050Y0048253D01*
X0017550Y0045753D01*
X0017550Y0040753D01*
X0015050Y0038253D01*
X0015050Y0048253D02*
X0010050Y0048253D01*
X0031650Y0052253D02*
X0031650Y0054153D01*
X0031644Y0054159D02*
X0032629Y0054159D01*
X0031650Y0044253D02*
X0031650Y0042353D01*
X0031644Y0042347D02*
X0032629Y0042347D01*
X0042471Y0042347D02*
X0043456Y0042347D01*
X0043450Y0042353D02*
X0043450Y0044253D01*
X0043450Y0052253D02*
X0043450Y0054153D01*
X0043456Y0054159D02*
X0042471Y0054159D01*
X0057550Y0055753D02*
X0057550Y0050753D01*
X0060050Y0048253D01*
X0065050Y0048253D01*
X0067550Y0050753D01*
X0067550Y0055753D01*
X0065050Y0058253D01*
X0060050Y0058253D01*
X0057550Y0055753D01*
X0060050Y0048253D02*
X0057550Y0045753D01*
X0057550Y0040753D01*
X0060050Y0038253D01*
X0065050Y0038253D01*
X0067550Y0040753D01*
X0067550Y0045753D01*
X0065050Y0048253D01*
D14*
X0041170Y0058884D02*
X0039094Y0058884D01*
X0040859Y0060961D01*
X0040236Y0062621D02*
X0040167Y0062619D01*
X0040099Y0062613D01*
X0040031Y0062603D01*
X0039964Y0062590D01*
X0039898Y0062572D01*
X0039832Y0062551D01*
X0039769Y0062526D01*
X0039706Y0062498D01*
X0039646Y0062466D01*
X0039587Y0062430D01*
X0039530Y0062391D01*
X0039476Y0062350D01*
X0039424Y0062305D01*
X0039375Y0062257D01*
X0039329Y0062206D01*
X0039285Y0062153D01*
X0039245Y0062098D01*
X0039208Y0062040D01*
X0039174Y0061980D01*
X0039144Y0061919D01*
X0039117Y0061855D01*
X0039094Y0061791D01*
X0040859Y0060961D02*
X0040903Y0061005D01*
X0040944Y0061052D01*
X0040982Y0061102D01*
X0041016Y0061154D01*
X0041048Y0061208D01*
X0041076Y0061263D01*
X0041101Y0061321D01*
X0041122Y0061380D01*
X0041139Y0061440D01*
X0041153Y0061501D01*
X0041162Y0061562D01*
X0041168Y0061625D01*
X0041170Y0061687D01*
X0041168Y0061746D01*
X0041163Y0061804D01*
X0041153Y0061862D01*
X0041141Y0061919D01*
X0041124Y0061976D01*
X0041104Y0062031D01*
X0041081Y0062085D01*
X0041054Y0062137D01*
X0041025Y0062187D01*
X0040992Y0062236D01*
X0040956Y0062282D01*
X0040917Y0062326D01*
X0040875Y0062368D01*
X0040831Y0062407D01*
X0040785Y0062443D01*
X0040736Y0062476D01*
X0040686Y0062505D01*
X0040634Y0062532D01*
X0040580Y0062555D01*
X0040525Y0062575D01*
X0040468Y0062592D01*
X0040411Y0062604D01*
X0040353Y0062614D01*
X0040295Y0062619D01*
X0040236Y0062621D01*
X0037794Y0062621D02*
X0036963Y0062621D01*
X0036964Y0062621D02*
X0036907Y0062619D01*
X0036851Y0062613D01*
X0036795Y0062604D01*
X0036740Y0062590D01*
X0036686Y0062573D01*
X0036633Y0062552D01*
X0036582Y0062528D01*
X0036533Y0062500D01*
X0036485Y0062469D01*
X0036440Y0062435D01*
X0036397Y0062398D01*
X0036357Y0062358D01*
X0036320Y0062315D01*
X0036286Y0062270D01*
X0036255Y0062222D01*
X0036227Y0062173D01*
X0036203Y0062122D01*
X0036182Y0062069D01*
X0036165Y0062015D01*
X0036151Y0061960D01*
X0036142Y0061904D01*
X0036136Y0061848D01*
X0036134Y0061791D01*
X0036133Y0061791D02*
X0036133Y0059715D01*
X0036135Y0059658D01*
X0036141Y0059602D01*
X0036150Y0059546D01*
X0036164Y0059491D01*
X0036181Y0059437D01*
X0036202Y0059384D01*
X0036226Y0059333D01*
X0036254Y0059284D01*
X0036285Y0059236D01*
X0036319Y0059191D01*
X0036356Y0059148D01*
X0036396Y0059108D01*
X0036439Y0059071D01*
X0036484Y0059037D01*
X0036532Y0059006D01*
X0036581Y0058978D01*
X0036632Y0058954D01*
X0036685Y0058933D01*
X0036739Y0058916D01*
X0036794Y0058902D01*
X0036850Y0058893D01*
X0036906Y0058887D01*
X0036963Y0058885D01*
X0036963Y0058884D02*
X0037794Y0058884D01*
X0034760Y0058884D02*
X0033930Y0058884D01*
X0034345Y0058884D02*
X0034345Y0062621D01*
X0033930Y0062621D02*
X0034760Y0062621D01*
D15*
X0042550Y0028253D03*
M02*
