G75*
%MOIN*%
%OFA0B0*%
%FSLAX25Y25*%
%IPPOS*%
%LPD*%
%AMOC8*
5,1,8,0,0,1.08239X$1,22.5*
%
%ADD10C,0.00394*%
%ADD11C,0.00300*%
%ADD12C,0.00600*%
%ADD13C,0.00500*%
D10*
X0015080Y0018078D02*
X0060080Y0018078D01*
X0060382Y0018082D01*
X0060684Y0018093D01*
X0060985Y0018111D01*
X0061286Y0018136D01*
X0061587Y0018169D01*
X0061886Y0018209D01*
X0062184Y0018256D01*
X0062482Y0018311D01*
X0062777Y0018372D01*
X0063071Y0018441D01*
X0063364Y0018517D01*
X0063654Y0018600D01*
X0063943Y0018690D01*
X0064229Y0018787D01*
X0064513Y0018890D01*
X0064794Y0019001D01*
X0065072Y0019118D01*
X0065348Y0019242D01*
X0065620Y0019373D01*
X0065889Y0019510D01*
X0066155Y0019653D01*
X0066417Y0019803D01*
X0066676Y0019960D01*
X0066930Y0020122D01*
X0067181Y0020291D01*
X0067427Y0020465D01*
X0067670Y0020646D01*
X0067907Y0020832D01*
X0068141Y0021024D01*
X0068369Y0021222D01*
X0068593Y0021425D01*
X0068811Y0021633D01*
X0069025Y0021847D01*
X0069233Y0022065D01*
X0069436Y0022289D01*
X0069634Y0022517D01*
X0069826Y0022751D01*
X0070012Y0022988D01*
X0070193Y0023231D01*
X0070367Y0023477D01*
X0070536Y0023728D01*
X0070698Y0023982D01*
X0070855Y0024241D01*
X0071005Y0024503D01*
X0071148Y0024769D01*
X0071285Y0025038D01*
X0071416Y0025310D01*
X0071540Y0025586D01*
X0071657Y0025864D01*
X0071768Y0026145D01*
X0071871Y0026429D01*
X0071968Y0026715D01*
X0072058Y0027004D01*
X0072141Y0027294D01*
X0072217Y0027587D01*
X0072286Y0027881D01*
X0072347Y0028176D01*
X0072402Y0028474D01*
X0072449Y0028772D01*
X0072489Y0029071D01*
X0072522Y0029372D01*
X0072547Y0029673D01*
X0072565Y0029974D01*
X0072576Y0030276D01*
X0072580Y0030578D01*
X0072580Y0068078D01*
X0072576Y0068380D01*
X0072565Y0068682D01*
X0072547Y0068983D01*
X0072522Y0069284D01*
X0072489Y0069585D01*
X0072449Y0069884D01*
X0072402Y0070182D01*
X0072347Y0070480D01*
X0072286Y0070775D01*
X0072217Y0071069D01*
X0072141Y0071362D01*
X0072058Y0071652D01*
X0071968Y0071941D01*
X0071871Y0072227D01*
X0071768Y0072511D01*
X0071657Y0072792D01*
X0071540Y0073070D01*
X0071416Y0073346D01*
X0071285Y0073618D01*
X0071148Y0073887D01*
X0071005Y0074153D01*
X0070855Y0074415D01*
X0070698Y0074674D01*
X0070536Y0074928D01*
X0070367Y0075179D01*
X0070193Y0075425D01*
X0070012Y0075668D01*
X0069826Y0075905D01*
X0069634Y0076139D01*
X0069436Y0076367D01*
X0069233Y0076591D01*
X0069025Y0076809D01*
X0068811Y0077023D01*
X0068593Y0077231D01*
X0068369Y0077434D01*
X0068141Y0077632D01*
X0067907Y0077824D01*
X0067670Y0078010D01*
X0067427Y0078191D01*
X0067181Y0078365D01*
X0066930Y0078534D01*
X0066676Y0078696D01*
X0066417Y0078853D01*
X0066155Y0079003D01*
X0065889Y0079146D01*
X0065620Y0079283D01*
X0065348Y0079414D01*
X0065072Y0079538D01*
X0064794Y0079655D01*
X0064513Y0079766D01*
X0064229Y0079869D01*
X0063943Y0079966D01*
X0063654Y0080056D01*
X0063364Y0080139D01*
X0063071Y0080215D01*
X0062777Y0080284D01*
X0062482Y0080345D01*
X0062184Y0080400D01*
X0061886Y0080447D01*
X0061587Y0080487D01*
X0061286Y0080520D01*
X0060985Y0080545D01*
X0060684Y0080563D01*
X0060382Y0080574D01*
X0060080Y0080578D01*
X0015080Y0080578D01*
X0014778Y0080574D01*
X0014476Y0080563D01*
X0014175Y0080545D01*
X0013874Y0080520D01*
X0013573Y0080487D01*
X0013274Y0080447D01*
X0012976Y0080400D01*
X0012678Y0080345D01*
X0012383Y0080284D01*
X0012089Y0080215D01*
X0011796Y0080139D01*
X0011506Y0080056D01*
X0011217Y0079966D01*
X0010931Y0079869D01*
X0010647Y0079766D01*
X0010366Y0079655D01*
X0010088Y0079538D01*
X0009812Y0079414D01*
X0009540Y0079283D01*
X0009271Y0079146D01*
X0009005Y0079003D01*
X0008743Y0078853D01*
X0008484Y0078696D01*
X0008230Y0078534D01*
X0007979Y0078365D01*
X0007733Y0078191D01*
X0007490Y0078010D01*
X0007253Y0077824D01*
X0007019Y0077632D01*
X0006791Y0077434D01*
X0006567Y0077231D01*
X0006349Y0077023D01*
X0006135Y0076809D01*
X0005927Y0076591D01*
X0005724Y0076367D01*
X0005526Y0076139D01*
X0005334Y0075905D01*
X0005148Y0075668D01*
X0004967Y0075425D01*
X0004793Y0075179D01*
X0004624Y0074928D01*
X0004462Y0074674D01*
X0004305Y0074415D01*
X0004155Y0074153D01*
X0004012Y0073887D01*
X0003875Y0073618D01*
X0003744Y0073346D01*
X0003620Y0073070D01*
X0003503Y0072792D01*
X0003392Y0072511D01*
X0003289Y0072227D01*
X0003192Y0071941D01*
X0003102Y0071652D01*
X0003019Y0071362D01*
X0002943Y0071069D01*
X0002874Y0070775D01*
X0002813Y0070480D01*
X0002758Y0070182D01*
X0002711Y0069884D01*
X0002671Y0069585D01*
X0002638Y0069284D01*
X0002613Y0068983D01*
X0002595Y0068682D01*
X0002584Y0068380D01*
X0002580Y0068078D01*
X0002580Y0030578D01*
X0002584Y0030276D01*
X0002595Y0029974D01*
X0002613Y0029673D01*
X0002638Y0029372D01*
X0002671Y0029071D01*
X0002711Y0028772D01*
X0002758Y0028474D01*
X0002813Y0028176D01*
X0002874Y0027881D01*
X0002943Y0027587D01*
X0003019Y0027294D01*
X0003102Y0027004D01*
X0003192Y0026715D01*
X0003289Y0026429D01*
X0003392Y0026145D01*
X0003503Y0025864D01*
X0003620Y0025586D01*
X0003744Y0025310D01*
X0003875Y0025038D01*
X0004012Y0024769D01*
X0004155Y0024503D01*
X0004305Y0024241D01*
X0004462Y0023982D01*
X0004624Y0023728D01*
X0004793Y0023477D01*
X0004967Y0023231D01*
X0005148Y0022988D01*
X0005334Y0022751D01*
X0005526Y0022517D01*
X0005724Y0022289D01*
X0005927Y0022065D01*
X0006135Y0021847D01*
X0006349Y0021633D01*
X0006567Y0021425D01*
X0006791Y0021222D01*
X0007019Y0021024D01*
X0007253Y0020832D01*
X0007490Y0020646D01*
X0007733Y0020465D01*
X0007979Y0020291D01*
X0008230Y0020122D01*
X0008484Y0019960D01*
X0008743Y0019803D01*
X0009005Y0019653D01*
X0009271Y0019510D01*
X0009540Y0019373D01*
X0009812Y0019242D01*
X0010088Y0019118D01*
X0010366Y0019001D01*
X0010647Y0018890D01*
X0010931Y0018787D01*
X0011217Y0018690D01*
X0011506Y0018600D01*
X0011796Y0018517D01*
X0012089Y0018441D01*
X0012383Y0018372D01*
X0012678Y0018311D01*
X0012976Y0018256D01*
X0013274Y0018209D01*
X0013573Y0018169D01*
X0013874Y0018136D01*
X0014175Y0018111D01*
X0014476Y0018093D01*
X0014778Y0018082D01*
X0015080Y0018078D01*
D11*
X0024809Y0023759D02*
X0026830Y0023759D01*
X0028330Y0023759D02*
X0029138Y0025376D01*
X0029341Y0025376D02*
X0030351Y0025376D01*
X0029341Y0025376D02*
X0029279Y0025378D01*
X0029217Y0025384D01*
X0029155Y0025393D01*
X0029095Y0025407D01*
X0029035Y0025424D01*
X0028976Y0025444D01*
X0028919Y0025468D01*
X0028863Y0025496D01*
X0028809Y0025527D01*
X0028757Y0025562D01*
X0028708Y0025599D01*
X0028661Y0025640D01*
X0028616Y0025683D01*
X0028574Y0025729D01*
X0028535Y0025777D01*
X0028499Y0025828D01*
X0028466Y0025881D01*
X0028437Y0025936D01*
X0028411Y0025992D01*
X0028388Y0026050D01*
X0028370Y0026110D01*
X0028354Y0026170D01*
X0028343Y0026231D01*
X0028335Y0026293D01*
X0028331Y0026355D01*
X0028331Y0026417D01*
X0028335Y0026479D01*
X0028343Y0026541D01*
X0028354Y0026602D01*
X0028370Y0026662D01*
X0028388Y0026722D01*
X0028411Y0026780D01*
X0028437Y0026836D01*
X0028466Y0026891D01*
X0028499Y0026944D01*
X0028535Y0026995D01*
X0028574Y0027043D01*
X0028616Y0027089D01*
X0028661Y0027132D01*
X0028708Y0027173D01*
X0028757Y0027210D01*
X0028809Y0027245D01*
X0028863Y0027276D01*
X0028919Y0027304D01*
X0028976Y0027328D01*
X0029035Y0027348D01*
X0029095Y0027365D01*
X0029155Y0027379D01*
X0029217Y0027388D01*
X0029279Y0027394D01*
X0029341Y0027396D01*
X0030351Y0027396D01*
X0030351Y0023759D01*
X0026830Y0026588D02*
X0025820Y0027396D01*
X0025820Y0023759D01*
X0045088Y0023759D02*
X0047109Y0023759D01*
X0045391Y0025780D01*
X0045998Y0027396D02*
X0046065Y0027394D01*
X0046131Y0027388D01*
X0046197Y0027379D01*
X0046263Y0027366D01*
X0046327Y0027349D01*
X0046391Y0027328D01*
X0046453Y0027304D01*
X0046514Y0027276D01*
X0046573Y0027245D01*
X0046630Y0027210D01*
X0046685Y0027173D01*
X0046738Y0027132D01*
X0046788Y0027088D01*
X0046836Y0027042D01*
X0046881Y0026992D01*
X0046923Y0026941D01*
X0046963Y0026887D01*
X0046999Y0026830D01*
X0047031Y0026772D01*
X0047061Y0026712D01*
X0047087Y0026651D01*
X0047109Y0026588D01*
X0045391Y0025779D02*
X0045348Y0025823D01*
X0045309Y0025869D01*
X0045272Y0025917D01*
X0045238Y0025968D01*
X0045207Y0026020D01*
X0045179Y0026074D01*
X0045155Y0026130D01*
X0045135Y0026188D01*
X0045118Y0026246D01*
X0045105Y0026305D01*
X0045096Y0026366D01*
X0045090Y0026426D01*
X0045088Y0026487D01*
X0045089Y0026487D02*
X0045091Y0026546D01*
X0045097Y0026606D01*
X0045106Y0026664D01*
X0045120Y0026722D01*
X0045137Y0026779D01*
X0045158Y0026835D01*
X0045183Y0026889D01*
X0045211Y0026941D01*
X0045242Y0026992D01*
X0045277Y0027040D01*
X0045315Y0027086D01*
X0045355Y0027130D01*
X0045399Y0027170D01*
X0045445Y0027208D01*
X0045493Y0027243D01*
X0045543Y0027274D01*
X0045596Y0027302D01*
X0045650Y0027327D01*
X0045706Y0027348D01*
X0045763Y0027365D01*
X0045821Y0027379D01*
X0045879Y0027388D01*
X0045939Y0027394D01*
X0045998Y0027396D01*
X0048455Y0027396D02*
X0049263Y0027396D01*
X0049318Y0027394D01*
X0049373Y0027388D01*
X0049427Y0027379D01*
X0049481Y0027366D01*
X0049534Y0027349D01*
X0049585Y0027329D01*
X0049635Y0027305D01*
X0049683Y0027278D01*
X0049729Y0027248D01*
X0049773Y0027215D01*
X0049815Y0027179D01*
X0049854Y0027140D01*
X0049890Y0027098D01*
X0049923Y0027054D01*
X0049953Y0027008D01*
X0049980Y0026960D01*
X0050004Y0026910D01*
X0050024Y0026859D01*
X0050041Y0026806D01*
X0050054Y0026752D01*
X0050063Y0026698D01*
X0050069Y0026643D01*
X0050071Y0026588D01*
X0050072Y0026588D02*
X0050072Y0024567D01*
X0050071Y0024567D02*
X0050069Y0024512D01*
X0050063Y0024457D01*
X0050054Y0024403D01*
X0050041Y0024349D01*
X0050024Y0024296D01*
X0050004Y0024245D01*
X0049980Y0024195D01*
X0049953Y0024147D01*
X0049923Y0024101D01*
X0049890Y0024057D01*
X0049854Y0024015D01*
X0049815Y0023976D01*
X0049773Y0023940D01*
X0049729Y0023907D01*
X0049683Y0023877D01*
X0049635Y0023850D01*
X0049585Y0023826D01*
X0049534Y0023806D01*
X0049481Y0023789D01*
X0049427Y0023776D01*
X0049373Y0023767D01*
X0049318Y0023761D01*
X0049263Y0023759D01*
X0048455Y0023759D01*
X0043590Y0045586D02*
X0041570Y0045586D01*
X0041515Y0045588D01*
X0041460Y0045594D01*
X0041406Y0045603D01*
X0041352Y0045616D01*
X0041299Y0045633D01*
X0041248Y0045653D01*
X0041198Y0045677D01*
X0041150Y0045704D01*
X0041104Y0045734D01*
X0041060Y0045767D01*
X0041018Y0045803D01*
X0040979Y0045842D01*
X0040943Y0045884D01*
X0040910Y0045928D01*
X0040880Y0045974D01*
X0040853Y0046022D01*
X0040829Y0046072D01*
X0040809Y0046123D01*
X0040792Y0046176D01*
X0040779Y0046230D01*
X0040770Y0046284D01*
X0040764Y0046339D01*
X0040762Y0046394D01*
X0040761Y0046394D02*
X0040761Y0047202D01*
X0040761Y0048549D02*
X0040761Y0049559D01*
X0040762Y0049559D02*
X0040764Y0049621D01*
X0040770Y0049683D01*
X0040779Y0049745D01*
X0040793Y0049805D01*
X0040810Y0049865D01*
X0040830Y0049924D01*
X0040854Y0049981D01*
X0040882Y0050037D01*
X0040913Y0050091D01*
X0040948Y0050143D01*
X0040985Y0050192D01*
X0041026Y0050239D01*
X0041069Y0050284D01*
X0041115Y0050326D01*
X0041163Y0050365D01*
X0041214Y0050401D01*
X0041267Y0050434D01*
X0041322Y0050463D01*
X0041378Y0050489D01*
X0041436Y0050512D01*
X0041496Y0050530D01*
X0041556Y0050546D01*
X0041617Y0050557D01*
X0041679Y0050565D01*
X0041741Y0050569D01*
X0041803Y0050569D01*
X0041865Y0050565D01*
X0041927Y0050557D01*
X0041988Y0050546D01*
X0042048Y0050530D01*
X0042108Y0050512D01*
X0042166Y0050489D01*
X0042222Y0050463D01*
X0042277Y0050434D01*
X0042330Y0050401D01*
X0042381Y0050365D01*
X0042429Y0050326D01*
X0042475Y0050284D01*
X0042518Y0050239D01*
X0042559Y0050192D01*
X0042596Y0050143D01*
X0042631Y0050091D01*
X0042662Y0050037D01*
X0042690Y0049981D01*
X0042714Y0049924D01*
X0042734Y0049865D01*
X0042751Y0049805D01*
X0042765Y0049745D01*
X0042774Y0049683D01*
X0042780Y0049621D01*
X0042782Y0049559D01*
X0042782Y0049761D02*
X0042782Y0048953D01*
X0042782Y0049761D02*
X0042784Y0049816D01*
X0042790Y0049871D01*
X0042799Y0049925D01*
X0042812Y0049979D01*
X0042829Y0050032D01*
X0042849Y0050083D01*
X0042873Y0050133D01*
X0042900Y0050181D01*
X0042930Y0050227D01*
X0042963Y0050271D01*
X0042999Y0050313D01*
X0043038Y0050352D01*
X0043080Y0050388D01*
X0043124Y0050421D01*
X0043170Y0050451D01*
X0043218Y0050478D01*
X0043268Y0050502D01*
X0043319Y0050522D01*
X0043372Y0050539D01*
X0043426Y0050552D01*
X0043480Y0050561D01*
X0043535Y0050567D01*
X0043590Y0050569D01*
X0043645Y0050567D01*
X0043700Y0050561D01*
X0043754Y0050552D01*
X0043808Y0050539D01*
X0043861Y0050522D01*
X0043912Y0050502D01*
X0043962Y0050478D01*
X0044010Y0050451D01*
X0044056Y0050421D01*
X0044100Y0050388D01*
X0044142Y0050352D01*
X0044181Y0050313D01*
X0044217Y0050271D01*
X0044250Y0050227D01*
X0044280Y0050181D01*
X0044307Y0050133D01*
X0044331Y0050083D01*
X0044351Y0050032D01*
X0044368Y0049979D01*
X0044381Y0049925D01*
X0044390Y0049871D01*
X0044396Y0049816D01*
X0044398Y0049761D01*
X0044398Y0048549D01*
X0044398Y0047202D02*
X0044398Y0046394D01*
X0044396Y0046339D01*
X0044390Y0046284D01*
X0044381Y0046230D01*
X0044368Y0046176D01*
X0044351Y0046123D01*
X0044331Y0046072D01*
X0044307Y0046022D01*
X0044280Y0045974D01*
X0044250Y0045928D01*
X0044217Y0045884D01*
X0044181Y0045842D01*
X0044141Y0045803D01*
X0044100Y0045767D01*
X0044056Y0045734D01*
X0044010Y0045704D01*
X0043962Y0045677D01*
X0043912Y0045653D01*
X0043861Y0045633D01*
X0043808Y0045616D01*
X0043754Y0045603D01*
X0043700Y0045594D01*
X0043645Y0045588D01*
X0043590Y0045586D01*
X0034398Y0046394D02*
X0034398Y0047202D01*
X0034398Y0046394D02*
X0034396Y0046339D01*
X0034390Y0046284D01*
X0034381Y0046230D01*
X0034368Y0046176D01*
X0034351Y0046123D01*
X0034331Y0046072D01*
X0034307Y0046022D01*
X0034280Y0045974D01*
X0034250Y0045928D01*
X0034217Y0045884D01*
X0034181Y0045842D01*
X0034141Y0045803D01*
X0034100Y0045767D01*
X0034056Y0045734D01*
X0034010Y0045704D01*
X0033962Y0045677D01*
X0033912Y0045653D01*
X0033861Y0045633D01*
X0033808Y0045616D01*
X0033754Y0045603D01*
X0033700Y0045594D01*
X0033645Y0045588D01*
X0033590Y0045586D01*
X0031570Y0045586D01*
X0031515Y0045588D01*
X0031460Y0045594D01*
X0031406Y0045603D01*
X0031352Y0045616D01*
X0031299Y0045633D01*
X0031248Y0045653D01*
X0031198Y0045677D01*
X0031150Y0045704D01*
X0031104Y0045734D01*
X0031060Y0045767D01*
X0031018Y0045803D01*
X0030979Y0045842D01*
X0030943Y0045884D01*
X0030910Y0045928D01*
X0030880Y0045974D01*
X0030853Y0046022D01*
X0030829Y0046072D01*
X0030809Y0046123D01*
X0030792Y0046176D01*
X0030779Y0046230D01*
X0030770Y0046284D01*
X0030764Y0046339D01*
X0030762Y0046394D01*
X0030761Y0046394D02*
X0030761Y0047202D01*
X0030761Y0048549D02*
X0030761Y0050569D01*
X0030761Y0049559D02*
X0034398Y0049559D01*
X0033590Y0048549D01*
X0039026Y0057509D02*
X0039026Y0059328D01*
X0039028Y0059376D01*
X0039033Y0059423D01*
X0039043Y0059469D01*
X0039056Y0059515D01*
X0039072Y0059560D01*
X0039092Y0059603D01*
X0039115Y0059645D01*
X0039142Y0059684D01*
X0039171Y0059722D01*
X0039203Y0059757D01*
X0039238Y0059789D01*
X0039276Y0059818D01*
X0039315Y0059845D01*
X0039357Y0059868D01*
X0039400Y0059888D01*
X0039445Y0059904D01*
X0039491Y0059917D01*
X0039537Y0059927D01*
X0039584Y0059932D01*
X0039632Y0059934D01*
X0040642Y0059934D01*
X0040642Y0061146D02*
X0040642Y0057509D01*
X0041890Y0059530D02*
X0041890Y0059934D01*
X0043102Y0059934D01*
X0043102Y0057509D01*
X0045385Y0057509D02*
X0044577Y0059934D01*
X0046193Y0059934D02*
X0045385Y0057509D01*
X0047530Y0058317D02*
X0047530Y0059126D01*
X0047532Y0059181D01*
X0047538Y0059236D01*
X0047547Y0059290D01*
X0047560Y0059344D01*
X0047577Y0059397D01*
X0047597Y0059448D01*
X0047621Y0059498D01*
X0047648Y0059546D01*
X0047678Y0059592D01*
X0047711Y0059636D01*
X0047747Y0059678D01*
X0047786Y0059717D01*
X0047828Y0059753D01*
X0047872Y0059786D01*
X0047918Y0059816D01*
X0047966Y0059843D01*
X0048016Y0059867D01*
X0048067Y0059887D01*
X0048120Y0059904D01*
X0048174Y0059917D01*
X0048228Y0059926D01*
X0048283Y0059932D01*
X0048338Y0059934D01*
X0048393Y0059932D01*
X0048448Y0059926D01*
X0048502Y0059917D01*
X0048556Y0059904D01*
X0048609Y0059887D01*
X0048660Y0059867D01*
X0048710Y0059843D01*
X0048758Y0059816D01*
X0048804Y0059786D01*
X0048848Y0059753D01*
X0048890Y0059717D01*
X0048929Y0059678D01*
X0048965Y0059636D01*
X0048998Y0059592D01*
X0049028Y0059546D01*
X0049055Y0059498D01*
X0049079Y0059448D01*
X0049099Y0059397D01*
X0049116Y0059344D01*
X0049129Y0059290D01*
X0049138Y0059236D01*
X0049144Y0059181D01*
X0049146Y0059126D01*
X0049146Y0058317D01*
X0049144Y0058262D01*
X0049138Y0058207D01*
X0049129Y0058153D01*
X0049116Y0058099D01*
X0049099Y0058046D01*
X0049079Y0057995D01*
X0049055Y0057945D01*
X0049028Y0057897D01*
X0048998Y0057851D01*
X0048965Y0057807D01*
X0048929Y0057765D01*
X0048890Y0057726D01*
X0048848Y0057690D01*
X0048804Y0057657D01*
X0048758Y0057627D01*
X0048710Y0057600D01*
X0048660Y0057576D01*
X0048609Y0057556D01*
X0048556Y0057539D01*
X0048502Y0057526D01*
X0048448Y0057517D01*
X0048393Y0057511D01*
X0048338Y0057509D01*
X0048283Y0057511D01*
X0048228Y0057517D01*
X0048174Y0057526D01*
X0048120Y0057539D01*
X0048067Y0057556D01*
X0048016Y0057576D01*
X0047966Y0057600D01*
X0047918Y0057627D01*
X0047872Y0057657D01*
X0047828Y0057690D01*
X0047786Y0057726D01*
X0047747Y0057765D01*
X0047711Y0057807D01*
X0047678Y0057851D01*
X0047648Y0057897D01*
X0047621Y0057945D01*
X0047597Y0057995D01*
X0047577Y0058046D01*
X0047560Y0058099D01*
X0047547Y0058153D01*
X0047538Y0058207D01*
X0047532Y0058262D01*
X0047530Y0058317D01*
X0050642Y0056903D02*
X0050642Y0059934D01*
X0050541Y0060944D02*
X0050743Y0060944D01*
X0050743Y0061146D01*
X0050541Y0061146D01*
X0050541Y0060944D01*
X0052018Y0059126D02*
X0052018Y0058721D01*
X0053634Y0058721D01*
X0053634Y0059126D02*
X0053634Y0058115D01*
X0053632Y0058067D01*
X0053627Y0058020D01*
X0053617Y0057974D01*
X0053604Y0057928D01*
X0053588Y0057883D01*
X0053568Y0057840D01*
X0053545Y0057798D01*
X0053518Y0057759D01*
X0053489Y0057721D01*
X0053457Y0057686D01*
X0053422Y0057654D01*
X0053384Y0057625D01*
X0053345Y0057598D01*
X0053303Y0057575D01*
X0053260Y0057555D01*
X0053215Y0057539D01*
X0053169Y0057526D01*
X0053123Y0057516D01*
X0053076Y0057511D01*
X0053028Y0057509D01*
X0052018Y0057509D01*
X0051248Y0056297D02*
X0051200Y0056299D01*
X0051153Y0056304D01*
X0051107Y0056314D01*
X0051061Y0056327D01*
X0051016Y0056343D01*
X0050973Y0056363D01*
X0050931Y0056386D01*
X0050892Y0056413D01*
X0050854Y0056442D01*
X0050819Y0056474D01*
X0050787Y0056509D01*
X0050758Y0056547D01*
X0050731Y0056586D01*
X0050708Y0056628D01*
X0050688Y0056671D01*
X0050672Y0056716D01*
X0050659Y0056762D01*
X0050649Y0056808D01*
X0050644Y0056855D01*
X0050642Y0056903D01*
X0051248Y0056297D02*
X0051450Y0056297D01*
X0052018Y0059126D02*
X0052020Y0059181D01*
X0052026Y0059236D01*
X0052035Y0059290D01*
X0052048Y0059344D01*
X0052065Y0059397D01*
X0052085Y0059448D01*
X0052109Y0059498D01*
X0052136Y0059546D01*
X0052166Y0059592D01*
X0052199Y0059636D01*
X0052235Y0059678D01*
X0052274Y0059717D01*
X0052316Y0059753D01*
X0052360Y0059786D01*
X0052406Y0059816D01*
X0052454Y0059843D01*
X0052504Y0059867D01*
X0052555Y0059887D01*
X0052608Y0059904D01*
X0052662Y0059917D01*
X0052716Y0059926D01*
X0052771Y0059932D01*
X0052826Y0059934D01*
X0052881Y0059932D01*
X0052936Y0059926D01*
X0052990Y0059917D01*
X0053044Y0059904D01*
X0053097Y0059887D01*
X0053148Y0059867D01*
X0053198Y0059843D01*
X0053246Y0059816D01*
X0053292Y0059786D01*
X0053336Y0059753D01*
X0053378Y0059717D01*
X0053417Y0059678D01*
X0053453Y0059636D01*
X0053486Y0059592D01*
X0053516Y0059546D01*
X0053543Y0059498D01*
X0053567Y0059448D01*
X0053587Y0059397D01*
X0053604Y0059344D01*
X0053617Y0059290D01*
X0053626Y0059236D01*
X0053632Y0059181D01*
X0053634Y0059126D01*
X0054398Y0068094D02*
X0050761Y0068094D01*
X0050761Y0069711D01*
X0050761Y0071040D02*
X0050761Y0073061D01*
X0050761Y0072051D02*
X0054398Y0072051D01*
X0053590Y0071040D01*
X0027042Y0059934D02*
X0026234Y0057509D01*
X0025426Y0059934D01*
X0024209Y0057711D02*
X0024007Y0057711D01*
X0024007Y0057509D01*
X0024209Y0057509D01*
X0024209Y0057711D01*
X0022638Y0057509D02*
X0020618Y0057509D01*
X0022638Y0057509D02*
X0020921Y0059530D01*
X0021527Y0061146D02*
X0021594Y0061144D01*
X0021660Y0061138D01*
X0021726Y0061129D01*
X0021792Y0061116D01*
X0021856Y0061099D01*
X0021920Y0061078D01*
X0021982Y0061054D01*
X0022043Y0061026D01*
X0022102Y0060995D01*
X0022159Y0060960D01*
X0022214Y0060923D01*
X0022267Y0060882D01*
X0022317Y0060838D01*
X0022365Y0060792D01*
X0022410Y0060742D01*
X0022452Y0060691D01*
X0022492Y0060637D01*
X0022528Y0060580D01*
X0022560Y0060522D01*
X0022590Y0060462D01*
X0022616Y0060401D01*
X0022638Y0060338D01*
X0020920Y0059529D02*
X0020877Y0059573D01*
X0020838Y0059619D01*
X0020801Y0059667D01*
X0020767Y0059718D01*
X0020736Y0059770D01*
X0020708Y0059824D01*
X0020684Y0059880D01*
X0020664Y0059938D01*
X0020647Y0059996D01*
X0020634Y0060055D01*
X0020625Y0060116D01*
X0020619Y0060176D01*
X0020617Y0060237D01*
X0020618Y0060237D02*
X0020620Y0060296D01*
X0020626Y0060356D01*
X0020635Y0060414D01*
X0020649Y0060472D01*
X0020666Y0060529D01*
X0020687Y0060585D01*
X0020712Y0060639D01*
X0020740Y0060691D01*
X0020771Y0060742D01*
X0020806Y0060790D01*
X0020844Y0060836D01*
X0020884Y0060880D01*
X0020928Y0060920D01*
X0020974Y0060958D01*
X0021022Y0060993D01*
X0021072Y0061024D01*
X0021125Y0061052D01*
X0021179Y0061077D01*
X0021235Y0061098D01*
X0021292Y0061115D01*
X0021350Y0061129D01*
X0021408Y0061138D01*
X0021468Y0061144D01*
X0021527Y0061146D01*
D12*
X0009002Y0060578D02*
X0004736Y0060578D01*
X0006869Y0062711D02*
X0006869Y0058444D01*
X0006869Y0037711D02*
X0006869Y0033444D01*
X0064736Y0060578D02*
X0069002Y0060578D01*
X0066869Y0062711D02*
X0066869Y0058444D01*
X0066869Y0037711D02*
X0066869Y0033444D01*
D13*
X0049391Y0062704D02*
X0025769Y0062704D01*
X0025769Y0078452D01*
X0049391Y0078452D01*
X0049391Y0062704D01*
M02*
