%
M48
M72
T01C0.01181
T02C0.04000
%
T01
X60050Y20753
X70050Y68253
X15050Y78253
X5050Y29503
X15050Y20753
X33613Y28253
X37550Y28253
X37550Y20753
X35581Y48253
X39519Y48253
X42550Y63253
X32550Y63253
X37550Y78253
X60050Y78253
X70050Y48253
X70050Y30753
X5050Y48253
X5050Y68253
T02
X12550Y43253
X12550Y53253
X62550Y43253
X62550Y53253
M30
