G75*
%MOIN*%
%OFA0B0*%
%FSLAX25Y25*%
%IPPOS*%
%LPD*%
%AMOC8*
5,1,8,0,0,1.08239X$1,22.5*
%
%ADD10C,0.00394*%
%ADD11C,0.00300*%
%ADD12C,0.00600*%
%ADD13C,0.00500*%
D10*
X0016256Y0028933D02*
X0061256Y0028933D01*
X0061618Y0028937D01*
X0061981Y0028951D01*
X0062343Y0028972D01*
X0062704Y0029003D01*
X0063064Y0029042D01*
X0063423Y0029090D01*
X0063781Y0029147D01*
X0064138Y0029212D01*
X0064493Y0029286D01*
X0064846Y0029369D01*
X0065197Y0029460D01*
X0065545Y0029559D01*
X0065891Y0029667D01*
X0066235Y0029783D01*
X0066575Y0029908D01*
X0066912Y0030040D01*
X0067246Y0030181D01*
X0067577Y0030330D01*
X0067904Y0030487D01*
X0068227Y0030651D01*
X0068546Y0030823D01*
X0068860Y0031003D01*
X0069171Y0031191D01*
X0069476Y0031386D01*
X0069777Y0031588D01*
X0070073Y0031798D01*
X0070363Y0032014D01*
X0070649Y0032238D01*
X0070929Y0032468D01*
X0071203Y0032705D01*
X0071471Y0032949D01*
X0071734Y0033199D01*
X0071990Y0033455D01*
X0072240Y0033718D01*
X0072484Y0033986D01*
X0072721Y0034260D01*
X0072951Y0034540D01*
X0073175Y0034826D01*
X0073391Y0035116D01*
X0073601Y0035412D01*
X0073803Y0035713D01*
X0073998Y0036018D01*
X0074186Y0036329D01*
X0074366Y0036643D01*
X0074538Y0036962D01*
X0074702Y0037285D01*
X0074859Y0037612D01*
X0075008Y0037943D01*
X0075149Y0038277D01*
X0075281Y0038614D01*
X0075406Y0038954D01*
X0075522Y0039298D01*
X0075630Y0039644D01*
X0075729Y0039992D01*
X0075820Y0040343D01*
X0075903Y0040696D01*
X0075977Y0041051D01*
X0076042Y0041408D01*
X0076099Y0041766D01*
X0076147Y0042125D01*
X0076186Y0042485D01*
X0076217Y0042846D01*
X0076238Y0043208D01*
X0076252Y0043571D01*
X0076256Y0043933D01*
X0076256Y0081433D01*
X0076252Y0081795D01*
X0076238Y0082158D01*
X0076217Y0082520D01*
X0076186Y0082881D01*
X0076147Y0083241D01*
X0076099Y0083600D01*
X0076042Y0083958D01*
X0075977Y0084315D01*
X0075903Y0084670D01*
X0075820Y0085023D01*
X0075729Y0085374D01*
X0075630Y0085722D01*
X0075522Y0086068D01*
X0075406Y0086412D01*
X0075281Y0086752D01*
X0075149Y0087089D01*
X0075008Y0087423D01*
X0074859Y0087754D01*
X0074702Y0088081D01*
X0074538Y0088404D01*
X0074366Y0088723D01*
X0074186Y0089037D01*
X0073998Y0089348D01*
X0073803Y0089653D01*
X0073601Y0089954D01*
X0073391Y0090250D01*
X0073175Y0090540D01*
X0072951Y0090826D01*
X0072721Y0091106D01*
X0072484Y0091380D01*
X0072240Y0091648D01*
X0071990Y0091911D01*
X0071734Y0092167D01*
X0071471Y0092417D01*
X0071203Y0092661D01*
X0070929Y0092898D01*
X0070649Y0093128D01*
X0070363Y0093352D01*
X0070073Y0093568D01*
X0069777Y0093778D01*
X0069476Y0093980D01*
X0069171Y0094175D01*
X0068860Y0094363D01*
X0068546Y0094543D01*
X0068227Y0094715D01*
X0067904Y0094879D01*
X0067577Y0095036D01*
X0067246Y0095185D01*
X0066912Y0095326D01*
X0066575Y0095458D01*
X0066235Y0095583D01*
X0065891Y0095699D01*
X0065545Y0095807D01*
X0065197Y0095906D01*
X0064846Y0095997D01*
X0064493Y0096080D01*
X0064138Y0096154D01*
X0063781Y0096219D01*
X0063423Y0096276D01*
X0063064Y0096324D01*
X0062704Y0096363D01*
X0062343Y0096394D01*
X0061981Y0096415D01*
X0061618Y0096429D01*
X0061256Y0096433D01*
X0016256Y0096433D01*
X0015894Y0096429D01*
X0015531Y0096415D01*
X0015169Y0096394D01*
X0014808Y0096363D01*
X0014448Y0096324D01*
X0014089Y0096276D01*
X0013731Y0096219D01*
X0013374Y0096154D01*
X0013019Y0096080D01*
X0012666Y0095997D01*
X0012315Y0095906D01*
X0011967Y0095807D01*
X0011621Y0095699D01*
X0011277Y0095583D01*
X0010937Y0095458D01*
X0010600Y0095326D01*
X0010266Y0095185D01*
X0009935Y0095036D01*
X0009608Y0094879D01*
X0009285Y0094715D01*
X0008966Y0094543D01*
X0008652Y0094363D01*
X0008341Y0094175D01*
X0008036Y0093980D01*
X0007735Y0093778D01*
X0007439Y0093568D01*
X0007149Y0093352D01*
X0006863Y0093128D01*
X0006583Y0092898D01*
X0006309Y0092661D01*
X0006041Y0092417D01*
X0005778Y0092167D01*
X0005522Y0091911D01*
X0005272Y0091648D01*
X0005028Y0091380D01*
X0004791Y0091106D01*
X0004561Y0090826D01*
X0004337Y0090540D01*
X0004121Y0090250D01*
X0003911Y0089954D01*
X0003709Y0089653D01*
X0003514Y0089348D01*
X0003326Y0089037D01*
X0003146Y0088723D01*
X0002974Y0088404D01*
X0002810Y0088081D01*
X0002653Y0087754D01*
X0002504Y0087423D01*
X0002363Y0087089D01*
X0002231Y0086752D01*
X0002106Y0086412D01*
X0001990Y0086068D01*
X0001882Y0085722D01*
X0001783Y0085374D01*
X0001692Y0085023D01*
X0001609Y0084670D01*
X0001535Y0084315D01*
X0001470Y0083958D01*
X0001413Y0083600D01*
X0001365Y0083241D01*
X0001326Y0082881D01*
X0001295Y0082520D01*
X0001274Y0082158D01*
X0001260Y0081795D01*
X0001256Y0081433D01*
X0001256Y0043933D01*
X0001260Y0043571D01*
X0001274Y0043208D01*
X0001295Y0042846D01*
X0001326Y0042485D01*
X0001365Y0042125D01*
X0001413Y0041766D01*
X0001470Y0041408D01*
X0001535Y0041051D01*
X0001609Y0040696D01*
X0001692Y0040343D01*
X0001783Y0039992D01*
X0001882Y0039644D01*
X0001990Y0039298D01*
X0002106Y0038954D01*
X0002231Y0038614D01*
X0002363Y0038277D01*
X0002504Y0037943D01*
X0002653Y0037612D01*
X0002810Y0037285D01*
X0002974Y0036962D01*
X0003146Y0036643D01*
X0003326Y0036329D01*
X0003514Y0036018D01*
X0003709Y0035713D01*
X0003911Y0035412D01*
X0004121Y0035116D01*
X0004337Y0034826D01*
X0004561Y0034540D01*
X0004791Y0034260D01*
X0005028Y0033986D01*
X0005272Y0033718D01*
X0005522Y0033455D01*
X0005778Y0033199D01*
X0006041Y0032949D01*
X0006309Y0032705D01*
X0006583Y0032468D01*
X0006863Y0032238D01*
X0007149Y0032014D01*
X0007439Y0031798D01*
X0007735Y0031588D01*
X0008036Y0031386D01*
X0008341Y0031191D01*
X0008652Y0031003D01*
X0008966Y0030823D01*
X0009285Y0030651D01*
X0009608Y0030487D01*
X0009935Y0030330D01*
X0010266Y0030181D01*
X0010600Y0030040D01*
X0010937Y0029908D01*
X0011277Y0029783D01*
X0011621Y0029667D01*
X0011967Y0029559D01*
X0012315Y0029460D01*
X0012666Y0029369D01*
X0013019Y0029286D01*
X0013374Y0029212D01*
X0013731Y0029147D01*
X0014089Y0029090D01*
X0014448Y0029042D01*
X0014808Y0029003D01*
X0015169Y0028972D01*
X0015531Y0028951D01*
X0015894Y0028937D01*
X0016256Y0028933D01*
D11*
X0025985Y0037115D02*
X0028006Y0037115D01*
X0026995Y0037115D02*
X0026995Y0040752D01*
X0028006Y0039943D01*
X0030516Y0040751D02*
X0030454Y0040749D01*
X0030392Y0040743D01*
X0030330Y0040734D01*
X0030270Y0040720D01*
X0030210Y0040703D01*
X0030151Y0040683D01*
X0030094Y0040659D01*
X0030038Y0040631D01*
X0029984Y0040600D01*
X0029932Y0040565D01*
X0029883Y0040528D01*
X0029836Y0040487D01*
X0029791Y0040444D01*
X0029749Y0040398D01*
X0029710Y0040350D01*
X0029674Y0040299D01*
X0029641Y0040246D01*
X0029612Y0040191D01*
X0029586Y0040135D01*
X0029563Y0040077D01*
X0029545Y0040017D01*
X0029529Y0039957D01*
X0029518Y0039896D01*
X0029510Y0039834D01*
X0029506Y0039772D01*
X0029506Y0039710D01*
X0029510Y0039648D01*
X0029518Y0039586D01*
X0029529Y0039525D01*
X0029545Y0039465D01*
X0029563Y0039405D01*
X0029586Y0039347D01*
X0029612Y0039291D01*
X0029641Y0039236D01*
X0029674Y0039183D01*
X0029710Y0039132D01*
X0029749Y0039084D01*
X0029791Y0039038D01*
X0029836Y0038995D01*
X0029883Y0038954D01*
X0029932Y0038917D01*
X0029984Y0038882D01*
X0030038Y0038851D01*
X0030094Y0038823D01*
X0030151Y0038799D01*
X0030210Y0038779D01*
X0030270Y0038762D01*
X0030330Y0038748D01*
X0030392Y0038739D01*
X0030454Y0038733D01*
X0030516Y0038731D01*
X0031527Y0038731D01*
X0030314Y0038731D02*
X0029506Y0037115D01*
X0031527Y0037115D02*
X0031527Y0040752D01*
X0030516Y0040752D01*
X0046567Y0039135D02*
X0048285Y0037115D01*
X0046264Y0037115D01*
X0048284Y0039943D02*
X0048262Y0040006D01*
X0048236Y0040067D01*
X0048206Y0040127D01*
X0048174Y0040185D01*
X0048138Y0040242D01*
X0048098Y0040296D01*
X0048056Y0040347D01*
X0048011Y0040397D01*
X0047963Y0040443D01*
X0047913Y0040487D01*
X0047860Y0040528D01*
X0047805Y0040565D01*
X0047748Y0040600D01*
X0047689Y0040631D01*
X0047628Y0040659D01*
X0047566Y0040683D01*
X0047502Y0040704D01*
X0047438Y0040721D01*
X0047372Y0040734D01*
X0047306Y0040743D01*
X0047240Y0040749D01*
X0047173Y0040751D01*
X0047114Y0040749D01*
X0047054Y0040743D01*
X0046996Y0040734D01*
X0046938Y0040720D01*
X0046881Y0040703D01*
X0046825Y0040682D01*
X0046771Y0040657D01*
X0046718Y0040629D01*
X0046668Y0040598D01*
X0046620Y0040563D01*
X0046574Y0040525D01*
X0046530Y0040485D01*
X0046490Y0040441D01*
X0046452Y0040395D01*
X0046417Y0040347D01*
X0046386Y0040296D01*
X0046358Y0040244D01*
X0046333Y0040190D01*
X0046312Y0040134D01*
X0046295Y0040077D01*
X0046281Y0040019D01*
X0046272Y0039961D01*
X0046266Y0039901D01*
X0046264Y0039842D01*
X0046266Y0039781D01*
X0046272Y0039721D01*
X0046281Y0039660D01*
X0046294Y0039601D01*
X0046311Y0039543D01*
X0046331Y0039485D01*
X0046355Y0039429D01*
X0046383Y0039375D01*
X0046414Y0039323D01*
X0046448Y0039272D01*
X0046485Y0039224D01*
X0046524Y0039178D01*
X0046567Y0039134D01*
X0049631Y0040752D02*
X0050439Y0040752D01*
X0050439Y0040751D02*
X0050494Y0040749D01*
X0050549Y0040743D01*
X0050603Y0040734D01*
X0050657Y0040721D01*
X0050710Y0040704D01*
X0050761Y0040684D01*
X0050811Y0040660D01*
X0050859Y0040633D01*
X0050905Y0040603D01*
X0050949Y0040570D01*
X0050991Y0040534D01*
X0051030Y0040495D01*
X0051066Y0040453D01*
X0051099Y0040409D01*
X0051129Y0040363D01*
X0051156Y0040315D01*
X0051180Y0040265D01*
X0051200Y0040214D01*
X0051217Y0040161D01*
X0051230Y0040107D01*
X0051239Y0040053D01*
X0051245Y0039998D01*
X0051247Y0039943D01*
X0051248Y0039943D02*
X0051248Y0037923D01*
X0051247Y0037923D02*
X0051245Y0037868D01*
X0051239Y0037813D01*
X0051230Y0037759D01*
X0051217Y0037705D01*
X0051200Y0037652D01*
X0051180Y0037601D01*
X0051156Y0037551D01*
X0051129Y0037503D01*
X0051099Y0037457D01*
X0051066Y0037413D01*
X0051030Y0037371D01*
X0050991Y0037332D01*
X0050949Y0037296D01*
X0050905Y0037263D01*
X0050859Y0037233D01*
X0050811Y0037206D01*
X0050761Y0037182D01*
X0050710Y0037162D01*
X0050657Y0037145D01*
X0050603Y0037132D01*
X0050549Y0037123D01*
X0050494Y0037117D01*
X0050439Y0037115D01*
X0049631Y0037115D01*
X0044766Y0058941D02*
X0042746Y0058941D01*
X0042746Y0058942D02*
X0042691Y0058944D01*
X0042636Y0058950D01*
X0042582Y0058959D01*
X0042528Y0058972D01*
X0042475Y0058989D01*
X0042424Y0059009D01*
X0042374Y0059033D01*
X0042326Y0059060D01*
X0042280Y0059090D01*
X0042236Y0059123D01*
X0042194Y0059159D01*
X0042155Y0059198D01*
X0042119Y0059240D01*
X0042086Y0059284D01*
X0042056Y0059330D01*
X0042029Y0059378D01*
X0042005Y0059428D01*
X0041985Y0059479D01*
X0041968Y0059532D01*
X0041955Y0059586D01*
X0041946Y0059640D01*
X0041940Y0059695D01*
X0041938Y0059750D01*
X0041937Y0059750D02*
X0041937Y0060558D01*
X0041937Y0061904D02*
X0041937Y0062914D01*
X0041938Y0062914D02*
X0041940Y0062976D01*
X0041946Y0063038D01*
X0041955Y0063100D01*
X0041969Y0063160D01*
X0041986Y0063220D01*
X0042006Y0063279D01*
X0042030Y0063336D01*
X0042058Y0063392D01*
X0042089Y0063446D01*
X0042124Y0063498D01*
X0042161Y0063547D01*
X0042202Y0063594D01*
X0042245Y0063639D01*
X0042291Y0063681D01*
X0042339Y0063720D01*
X0042390Y0063756D01*
X0042443Y0063789D01*
X0042498Y0063818D01*
X0042554Y0063844D01*
X0042612Y0063867D01*
X0042672Y0063885D01*
X0042732Y0063901D01*
X0042793Y0063912D01*
X0042855Y0063920D01*
X0042917Y0063924D01*
X0042979Y0063924D01*
X0043041Y0063920D01*
X0043103Y0063912D01*
X0043164Y0063901D01*
X0043224Y0063885D01*
X0043284Y0063867D01*
X0043342Y0063844D01*
X0043398Y0063818D01*
X0043453Y0063789D01*
X0043506Y0063756D01*
X0043557Y0063720D01*
X0043605Y0063681D01*
X0043651Y0063639D01*
X0043694Y0063594D01*
X0043735Y0063547D01*
X0043772Y0063498D01*
X0043807Y0063446D01*
X0043838Y0063392D01*
X0043866Y0063336D01*
X0043890Y0063279D01*
X0043910Y0063220D01*
X0043927Y0063160D01*
X0043941Y0063100D01*
X0043950Y0063038D01*
X0043956Y0062976D01*
X0043958Y0062914D01*
X0043958Y0063117D02*
X0043958Y0062308D01*
X0043958Y0063117D02*
X0043960Y0063172D01*
X0043966Y0063227D01*
X0043975Y0063281D01*
X0043988Y0063335D01*
X0044005Y0063388D01*
X0044025Y0063439D01*
X0044049Y0063489D01*
X0044076Y0063537D01*
X0044106Y0063583D01*
X0044139Y0063627D01*
X0044175Y0063669D01*
X0044214Y0063708D01*
X0044256Y0063744D01*
X0044300Y0063777D01*
X0044346Y0063807D01*
X0044394Y0063834D01*
X0044444Y0063858D01*
X0044495Y0063878D01*
X0044548Y0063895D01*
X0044602Y0063908D01*
X0044656Y0063917D01*
X0044711Y0063923D01*
X0044766Y0063925D01*
X0044821Y0063923D01*
X0044876Y0063917D01*
X0044930Y0063908D01*
X0044984Y0063895D01*
X0045037Y0063878D01*
X0045088Y0063858D01*
X0045138Y0063834D01*
X0045186Y0063807D01*
X0045232Y0063777D01*
X0045276Y0063744D01*
X0045318Y0063708D01*
X0045357Y0063669D01*
X0045393Y0063627D01*
X0045426Y0063583D01*
X0045456Y0063537D01*
X0045483Y0063489D01*
X0045507Y0063439D01*
X0045527Y0063388D01*
X0045544Y0063335D01*
X0045557Y0063281D01*
X0045566Y0063227D01*
X0045572Y0063172D01*
X0045574Y0063117D01*
X0045574Y0061904D01*
X0045574Y0060558D02*
X0045574Y0059750D01*
X0045572Y0059695D01*
X0045566Y0059640D01*
X0045557Y0059586D01*
X0045544Y0059532D01*
X0045527Y0059479D01*
X0045507Y0059428D01*
X0045483Y0059378D01*
X0045456Y0059330D01*
X0045426Y0059284D01*
X0045393Y0059240D01*
X0045357Y0059198D01*
X0045317Y0059159D01*
X0045276Y0059123D01*
X0045232Y0059090D01*
X0045186Y0059060D01*
X0045138Y0059033D01*
X0045088Y0059009D01*
X0045037Y0058989D01*
X0044984Y0058972D01*
X0044930Y0058959D01*
X0044876Y0058950D01*
X0044821Y0058944D01*
X0044766Y0058942D01*
X0035574Y0059750D02*
X0035574Y0060558D01*
X0035574Y0059750D02*
X0035572Y0059695D01*
X0035566Y0059640D01*
X0035557Y0059586D01*
X0035544Y0059532D01*
X0035527Y0059479D01*
X0035507Y0059428D01*
X0035483Y0059378D01*
X0035456Y0059330D01*
X0035426Y0059284D01*
X0035393Y0059240D01*
X0035357Y0059198D01*
X0035317Y0059159D01*
X0035276Y0059123D01*
X0035232Y0059090D01*
X0035186Y0059060D01*
X0035138Y0059033D01*
X0035088Y0059009D01*
X0035037Y0058989D01*
X0034984Y0058972D01*
X0034930Y0058959D01*
X0034876Y0058950D01*
X0034821Y0058944D01*
X0034766Y0058942D01*
X0034766Y0058941D02*
X0032746Y0058941D01*
X0032746Y0058942D02*
X0032691Y0058944D01*
X0032636Y0058950D01*
X0032582Y0058959D01*
X0032528Y0058972D01*
X0032475Y0058989D01*
X0032424Y0059009D01*
X0032374Y0059033D01*
X0032326Y0059060D01*
X0032280Y0059090D01*
X0032236Y0059123D01*
X0032194Y0059159D01*
X0032155Y0059198D01*
X0032119Y0059240D01*
X0032086Y0059284D01*
X0032056Y0059330D01*
X0032029Y0059378D01*
X0032005Y0059428D01*
X0031985Y0059479D01*
X0031968Y0059532D01*
X0031955Y0059586D01*
X0031946Y0059640D01*
X0031940Y0059695D01*
X0031938Y0059750D01*
X0031937Y0059750D02*
X0031937Y0060558D01*
X0031937Y0061904D02*
X0031937Y0063925D01*
X0031937Y0062914D02*
X0035574Y0062914D01*
X0034766Y0061904D01*
X0040202Y0070865D02*
X0040202Y0072683D01*
X0040204Y0072731D01*
X0040209Y0072778D01*
X0040219Y0072824D01*
X0040232Y0072870D01*
X0040248Y0072915D01*
X0040268Y0072958D01*
X0040291Y0073000D01*
X0040318Y0073039D01*
X0040347Y0073077D01*
X0040379Y0073112D01*
X0040414Y0073144D01*
X0040452Y0073173D01*
X0040491Y0073200D01*
X0040533Y0073223D01*
X0040576Y0073243D01*
X0040621Y0073259D01*
X0040667Y0073272D01*
X0040713Y0073282D01*
X0040760Y0073287D01*
X0040808Y0073289D01*
X0041818Y0073289D01*
X0041818Y0074502D02*
X0041818Y0070865D01*
X0043066Y0072885D02*
X0043066Y0073289D01*
X0044278Y0073289D01*
X0044278Y0070865D01*
X0046561Y0070865D02*
X0045753Y0073289D01*
X0047369Y0073289D02*
X0046561Y0070865D01*
X0048706Y0071673D02*
X0048706Y0072481D01*
X0048708Y0072536D01*
X0048714Y0072591D01*
X0048723Y0072645D01*
X0048736Y0072699D01*
X0048753Y0072752D01*
X0048773Y0072803D01*
X0048797Y0072853D01*
X0048824Y0072901D01*
X0048854Y0072947D01*
X0048887Y0072991D01*
X0048923Y0073033D01*
X0048962Y0073072D01*
X0049004Y0073108D01*
X0049048Y0073141D01*
X0049094Y0073171D01*
X0049142Y0073198D01*
X0049192Y0073222D01*
X0049243Y0073242D01*
X0049296Y0073259D01*
X0049350Y0073272D01*
X0049404Y0073281D01*
X0049459Y0073287D01*
X0049514Y0073289D01*
X0049569Y0073287D01*
X0049624Y0073281D01*
X0049678Y0073272D01*
X0049732Y0073259D01*
X0049785Y0073242D01*
X0049836Y0073222D01*
X0049886Y0073198D01*
X0049934Y0073171D01*
X0049980Y0073141D01*
X0050024Y0073108D01*
X0050066Y0073072D01*
X0050105Y0073033D01*
X0050141Y0072991D01*
X0050174Y0072947D01*
X0050204Y0072901D01*
X0050231Y0072853D01*
X0050255Y0072803D01*
X0050275Y0072752D01*
X0050292Y0072699D01*
X0050305Y0072645D01*
X0050314Y0072591D01*
X0050320Y0072536D01*
X0050322Y0072481D01*
X0050322Y0071673D01*
X0050320Y0071618D01*
X0050314Y0071563D01*
X0050305Y0071509D01*
X0050292Y0071455D01*
X0050275Y0071402D01*
X0050255Y0071351D01*
X0050231Y0071301D01*
X0050204Y0071253D01*
X0050174Y0071207D01*
X0050141Y0071163D01*
X0050105Y0071121D01*
X0050066Y0071082D01*
X0050024Y0071046D01*
X0049980Y0071013D01*
X0049934Y0070983D01*
X0049886Y0070956D01*
X0049836Y0070932D01*
X0049785Y0070912D01*
X0049732Y0070895D01*
X0049678Y0070882D01*
X0049624Y0070873D01*
X0049569Y0070867D01*
X0049514Y0070865D01*
X0049459Y0070867D01*
X0049404Y0070873D01*
X0049350Y0070882D01*
X0049296Y0070895D01*
X0049243Y0070912D01*
X0049192Y0070932D01*
X0049142Y0070956D01*
X0049094Y0070983D01*
X0049048Y0071013D01*
X0049004Y0071046D01*
X0048962Y0071082D01*
X0048923Y0071121D01*
X0048887Y0071163D01*
X0048854Y0071207D01*
X0048824Y0071253D01*
X0048797Y0071301D01*
X0048773Y0071351D01*
X0048753Y0071402D01*
X0048736Y0071455D01*
X0048723Y0071509D01*
X0048714Y0071563D01*
X0048708Y0071618D01*
X0048706Y0071673D01*
X0051818Y0070258D02*
X0051818Y0073289D01*
X0051717Y0074300D02*
X0051919Y0074300D01*
X0051919Y0074502D01*
X0051717Y0074502D01*
X0051717Y0074300D01*
X0053194Y0072481D02*
X0053194Y0072077D01*
X0054810Y0072077D01*
X0054810Y0072481D02*
X0054810Y0071471D01*
X0054808Y0071423D01*
X0054803Y0071376D01*
X0054793Y0071330D01*
X0054780Y0071284D01*
X0054764Y0071239D01*
X0054744Y0071196D01*
X0054721Y0071154D01*
X0054694Y0071115D01*
X0054665Y0071077D01*
X0054633Y0071042D01*
X0054598Y0071010D01*
X0054560Y0070981D01*
X0054521Y0070954D01*
X0054479Y0070931D01*
X0054436Y0070911D01*
X0054391Y0070895D01*
X0054345Y0070882D01*
X0054299Y0070872D01*
X0054252Y0070867D01*
X0054204Y0070865D01*
X0053194Y0070865D01*
X0052424Y0069652D02*
X0052376Y0069654D01*
X0052329Y0069659D01*
X0052283Y0069669D01*
X0052237Y0069682D01*
X0052192Y0069698D01*
X0052149Y0069718D01*
X0052107Y0069741D01*
X0052068Y0069768D01*
X0052030Y0069797D01*
X0051995Y0069829D01*
X0051963Y0069864D01*
X0051934Y0069902D01*
X0051907Y0069941D01*
X0051884Y0069983D01*
X0051864Y0070026D01*
X0051848Y0070071D01*
X0051835Y0070117D01*
X0051825Y0070163D01*
X0051820Y0070210D01*
X0051818Y0070258D01*
X0052424Y0069652D02*
X0052626Y0069652D01*
X0053194Y0072481D02*
X0053196Y0072536D01*
X0053202Y0072591D01*
X0053211Y0072645D01*
X0053224Y0072699D01*
X0053241Y0072752D01*
X0053261Y0072803D01*
X0053285Y0072853D01*
X0053312Y0072901D01*
X0053342Y0072947D01*
X0053375Y0072991D01*
X0053411Y0073033D01*
X0053450Y0073072D01*
X0053492Y0073108D01*
X0053536Y0073141D01*
X0053582Y0073171D01*
X0053630Y0073198D01*
X0053680Y0073222D01*
X0053731Y0073242D01*
X0053784Y0073259D01*
X0053838Y0073272D01*
X0053892Y0073281D01*
X0053947Y0073287D01*
X0054002Y0073289D01*
X0054057Y0073287D01*
X0054112Y0073281D01*
X0054166Y0073272D01*
X0054220Y0073259D01*
X0054273Y0073242D01*
X0054324Y0073222D01*
X0054374Y0073198D01*
X0054422Y0073171D01*
X0054468Y0073141D01*
X0054512Y0073108D01*
X0054554Y0073072D01*
X0054593Y0073033D01*
X0054629Y0072991D01*
X0054662Y0072947D01*
X0054692Y0072901D01*
X0054719Y0072853D01*
X0054743Y0072803D01*
X0054763Y0072752D01*
X0054780Y0072699D01*
X0054793Y0072645D01*
X0054802Y0072591D01*
X0054808Y0072536D01*
X0054810Y0072481D01*
X0055574Y0081450D02*
X0051937Y0081450D01*
X0051937Y0083066D01*
X0051937Y0084396D02*
X0051937Y0086416D01*
X0051937Y0085406D02*
X0055574Y0085406D01*
X0054766Y0084396D01*
X0028218Y0073289D02*
X0027410Y0070865D01*
X0026602Y0073289D01*
X0025385Y0071067D02*
X0025183Y0071067D01*
X0025183Y0070865D01*
X0025385Y0070865D01*
X0025385Y0071067D01*
X0023814Y0070865D02*
X0021794Y0070865D01*
X0023814Y0070865D02*
X0022097Y0072885D01*
X0022703Y0074501D02*
X0022770Y0074499D01*
X0022836Y0074493D01*
X0022902Y0074484D01*
X0022968Y0074471D01*
X0023032Y0074454D01*
X0023096Y0074433D01*
X0023158Y0074409D01*
X0023219Y0074381D01*
X0023278Y0074350D01*
X0023335Y0074315D01*
X0023390Y0074278D01*
X0023443Y0074237D01*
X0023493Y0074193D01*
X0023541Y0074147D01*
X0023586Y0074097D01*
X0023628Y0074046D01*
X0023668Y0073992D01*
X0023704Y0073935D01*
X0023736Y0073877D01*
X0023766Y0073817D01*
X0023792Y0073756D01*
X0023814Y0073693D01*
X0022096Y0072884D02*
X0022053Y0072928D01*
X0022014Y0072974D01*
X0021977Y0073022D01*
X0021943Y0073073D01*
X0021912Y0073125D01*
X0021884Y0073179D01*
X0021860Y0073235D01*
X0021840Y0073293D01*
X0021823Y0073351D01*
X0021810Y0073410D01*
X0021801Y0073471D01*
X0021795Y0073531D01*
X0021793Y0073592D01*
X0021794Y0073592D02*
X0021796Y0073651D01*
X0021802Y0073711D01*
X0021811Y0073769D01*
X0021825Y0073827D01*
X0021842Y0073884D01*
X0021863Y0073940D01*
X0021888Y0073994D01*
X0021916Y0074046D01*
X0021947Y0074097D01*
X0021982Y0074145D01*
X0022020Y0074191D01*
X0022060Y0074235D01*
X0022104Y0074275D01*
X0022150Y0074313D01*
X0022198Y0074348D01*
X0022248Y0074379D01*
X0022301Y0074407D01*
X0022355Y0074432D01*
X0022411Y0074453D01*
X0022468Y0074470D01*
X0022526Y0074484D01*
X0022584Y0074493D01*
X0022644Y0074499D01*
X0022703Y0074501D01*
D12*
X0010178Y0073933D02*
X0005911Y0073933D01*
X0008045Y0071800D02*
X0008045Y0076066D01*
X0008045Y0051066D02*
X0008045Y0046800D01*
X0065911Y0073933D02*
X0070178Y0073933D01*
X0068045Y0071800D02*
X0068045Y0076066D01*
X0068045Y0051066D02*
X0068045Y0046800D01*
D13*
X0050567Y0076059D02*
X0026945Y0076059D01*
X0026945Y0091807D01*
X0050567Y0091807D01*
X0050567Y0076059D01*
M02*
