G75*
%MOIN*%
%OFA0B0*%
%FSLAX25Y25*%
%IPPOS*%
%LPD*%
%AMOC8*
5,1,8,0,0,1.08239X$1,22.5*
%
%ADD10C,0.00827*%
%ADD11R,0.03346X0.01772*%
%ADD12R,0.07900X0.04300*%
%ADD13R,0.05512X0.03937*%
D10*
X0033475Y0043509D02*
X0033751Y0043509D01*
X0033751Y0041185D01*
X0033475Y0041185D01*
X0033475Y0043509D01*
X0033475Y0042011D02*
X0033751Y0042011D01*
X0033751Y0042837D02*
X0033475Y0042837D01*
X0035443Y0043509D02*
X0035719Y0043509D01*
X0035719Y0041185D01*
X0035443Y0041185D01*
X0035443Y0043509D01*
X0035443Y0042011D02*
X0035719Y0042011D01*
X0035719Y0042837D02*
X0035443Y0042837D01*
X0037412Y0043509D02*
X0037688Y0043509D01*
X0037688Y0041185D01*
X0037412Y0041185D01*
X0037412Y0043509D01*
X0037412Y0042011D02*
X0037688Y0042011D01*
X0037688Y0042837D02*
X0037412Y0042837D01*
X0039381Y0043509D02*
X0039657Y0043509D01*
X0039657Y0041185D01*
X0039381Y0041185D01*
X0039381Y0043509D01*
X0039381Y0042011D02*
X0039657Y0042011D01*
X0039657Y0042837D02*
X0039381Y0042837D01*
X0041349Y0043509D02*
X0041625Y0043509D01*
X0041625Y0041185D01*
X0041349Y0041185D01*
X0041349Y0043509D01*
X0041349Y0042011D02*
X0041625Y0042011D01*
X0041625Y0042837D02*
X0041349Y0042837D01*
X0041349Y0055320D02*
X0041625Y0055320D01*
X0041625Y0052996D01*
X0041349Y0052996D01*
X0041349Y0055320D01*
X0041349Y0053822D02*
X0041625Y0053822D01*
X0041625Y0054648D02*
X0041349Y0054648D01*
X0039657Y0055320D02*
X0039381Y0055320D01*
X0039657Y0055320D02*
X0039657Y0052996D01*
X0039381Y0052996D01*
X0039381Y0055320D01*
X0039381Y0053822D02*
X0039657Y0053822D01*
X0039657Y0054648D02*
X0039381Y0054648D01*
X0037688Y0055320D02*
X0037412Y0055320D01*
X0037688Y0055320D02*
X0037688Y0052996D01*
X0037412Y0052996D01*
X0037412Y0055320D01*
X0037412Y0053822D02*
X0037688Y0053822D01*
X0037688Y0054648D02*
X0037412Y0054648D01*
X0035719Y0055320D02*
X0035443Y0055320D01*
X0035719Y0055320D02*
X0035719Y0052996D01*
X0035443Y0052996D01*
X0035443Y0055320D01*
X0035443Y0053822D02*
X0035719Y0053822D01*
X0035719Y0054648D02*
X0035443Y0054648D01*
X0033751Y0055320D02*
X0033475Y0055320D01*
X0033751Y0055320D02*
X0033751Y0052996D01*
X0033475Y0052996D01*
X0033475Y0055320D01*
X0033475Y0053822D02*
X0033751Y0053822D01*
X0033751Y0054648D02*
X0033475Y0054648D01*
D11*
X0035444Y0049572D03*
X0035444Y0046934D03*
X0039656Y0046934D03*
X0039656Y0046934D03*
X0039656Y0049572D03*
D12*
X0019850Y0028253D03*
X0055250Y0028253D03*
D13*
X0024581Y0068253D03*
X0015081Y0072253D03*
X0015081Y0064253D03*
M02*
