G75*
%MOIN*%
%OFA0B0*%
%FSLAX25Y25*%
%IPPOS*%
%LPD*%
%AMOC8*
5,1,8,0,0,1.08239X$1,22.5*
%
%ADD10C,0.00500*%
%ADD11C,0.00394*%
%ADD12C,0.00300*%
%ADD13C,0.00600*%
%ADD14C,0.00200*%
%ADD15R,0.06000X0.06000*%
D10*
X0016113Y0060204D02*
X0023987Y0060204D01*
X0023987Y0066109D01*
X0023987Y0070046D02*
X0023987Y0075952D01*
X0016113Y0075952D01*
X0016113Y0073983D01*
X0016113Y0062172D02*
X0016113Y0060204D01*
X0027800Y0070780D02*
X0030804Y0070780D01*
X0029302Y0070780D02*
X0029302Y0065375D01*
X0033019Y0065375D02*
X0033019Y0070780D01*
X0034521Y0070780D01*
X0034521Y0070781D02*
X0034597Y0070779D01*
X0034673Y0070773D01*
X0034748Y0070764D01*
X0034823Y0070750D01*
X0034897Y0070733D01*
X0034971Y0070712D01*
X0035043Y0070688D01*
X0035113Y0070659D01*
X0035182Y0070628D01*
X0035250Y0070592D01*
X0035316Y0070554D01*
X0035379Y0070512D01*
X0035440Y0070467D01*
X0035499Y0070419D01*
X0035556Y0070368D01*
X0035610Y0070314D01*
X0035661Y0070257D01*
X0035709Y0070198D01*
X0035754Y0070137D01*
X0035796Y0070074D01*
X0035834Y0070008D01*
X0035870Y0069940D01*
X0035901Y0069871D01*
X0035930Y0069801D01*
X0035954Y0069729D01*
X0035975Y0069655D01*
X0035992Y0069581D01*
X0036006Y0069506D01*
X0036015Y0069431D01*
X0036021Y0069355D01*
X0036023Y0069279D01*
X0036021Y0069203D01*
X0036015Y0069127D01*
X0036006Y0069052D01*
X0035992Y0068977D01*
X0035975Y0068903D01*
X0035954Y0068829D01*
X0035930Y0068757D01*
X0035901Y0068687D01*
X0035870Y0068618D01*
X0035834Y0068550D01*
X0035796Y0068484D01*
X0035754Y0068421D01*
X0035709Y0068360D01*
X0035661Y0068301D01*
X0035610Y0068244D01*
X0035556Y0068190D01*
X0035499Y0068139D01*
X0035440Y0068091D01*
X0035379Y0068046D01*
X0035316Y0068004D01*
X0035250Y0067966D01*
X0035182Y0067930D01*
X0035113Y0067899D01*
X0035043Y0067870D01*
X0034971Y0067846D01*
X0034897Y0067825D01*
X0034823Y0067808D01*
X0034748Y0067794D01*
X0034673Y0067785D01*
X0034597Y0067779D01*
X0034521Y0067777D01*
X0033019Y0067777D01*
X0038650Y0068528D02*
X0040301Y0067627D01*
X0039701Y0065374D02*
X0039601Y0065376D01*
X0039501Y0065382D01*
X0039401Y0065392D01*
X0039302Y0065406D01*
X0039203Y0065423D01*
X0039105Y0065445D01*
X0039009Y0065470D01*
X0038913Y0065500D01*
X0038818Y0065533D01*
X0038725Y0065569D01*
X0038633Y0065610D01*
X0038543Y0065654D01*
X0038455Y0065701D01*
X0038369Y0065752D01*
X0038284Y0065806D01*
X0038202Y0065864D01*
X0038123Y0065924D01*
X0038045Y0065988D01*
X0037971Y0066055D01*
X0037899Y0066125D01*
X0040301Y0067627D02*
X0040358Y0067592D01*
X0040412Y0067553D01*
X0040465Y0067512D01*
X0040515Y0067468D01*
X0040562Y0067421D01*
X0040607Y0067372D01*
X0040649Y0067320D01*
X0040688Y0067266D01*
X0040724Y0067210D01*
X0040757Y0067152D01*
X0040787Y0067093D01*
X0040814Y0067031D01*
X0040837Y0066969D01*
X0040857Y0066905D01*
X0040873Y0066841D01*
X0040886Y0066775D01*
X0040895Y0066709D01*
X0040900Y0066643D01*
X0040902Y0066576D01*
X0040900Y0066509D01*
X0040894Y0066442D01*
X0040885Y0066375D01*
X0040872Y0066309D01*
X0040855Y0066244D01*
X0040835Y0066179D01*
X0040811Y0066116D01*
X0040783Y0066055D01*
X0040752Y0065995D01*
X0040718Y0065937D01*
X0040680Y0065881D01*
X0040640Y0065827D01*
X0040597Y0065776D01*
X0040550Y0065727D01*
X0040501Y0065680D01*
X0040450Y0065637D01*
X0040396Y0065597D01*
X0040340Y0065559D01*
X0040282Y0065525D01*
X0040222Y0065494D01*
X0040161Y0065466D01*
X0040098Y0065442D01*
X0040033Y0065422D01*
X0039968Y0065405D01*
X0039902Y0065392D01*
X0039835Y0065383D01*
X0039768Y0065377D01*
X0039701Y0065375D01*
X0040601Y0070330D02*
X0040528Y0070382D01*
X0040452Y0070432D01*
X0040375Y0070479D01*
X0040295Y0070523D01*
X0040214Y0070563D01*
X0040132Y0070600D01*
X0040047Y0070634D01*
X0039962Y0070664D01*
X0039876Y0070691D01*
X0039788Y0070715D01*
X0039700Y0070735D01*
X0039611Y0070751D01*
X0039521Y0070764D01*
X0039431Y0070773D01*
X0039341Y0070778D01*
X0039250Y0070780D01*
X0039183Y0070778D01*
X0039116Y0070772D01*
X0039049Y0070763D01*
X0038983Y0070750D01*
X0038918Y0070733D01*
X0038853Y0070713D01*
X0038790Y0070689D01*
X0038729Y0070661D01*
X0038669Y0070630D01*
X0038611Y0070596D01*
X0038555Y0070558D01*
X0038501Y0070518D01*
X0038450Y0070475D01*
X0038401Y0070428D01*
X0038354Y0070379D01*
X0038311Y0070328D01*
X0038271Y0070274D01*
X0038233Y0070218D01*
X0038199Y0070160D01*
X0038168Y0070100D01*
X0038140Y0070039D01*
X0038116Y0069976D01*
X0038096Y0069911D01*
X0038079Y0069846D01*
X0038066Y0069780D01*
X0038057Y0069713D01*
X0038051Y0069646D01*
X0038049Y0069579D01*
X0038051Y0069512D01*
X0038056Y0069446D01*
X0038065Y0069380D01*
X0038078Y0069314D01*
X0038094Y0069250D01*
X0038114Y0069186D01*
X0038137Y0069124D01*
X0038164Y0069062D01*
X0038194Y0069003D01*
X0038227Y0068945D01*
X0038263Y0068889D01*
X0038302Y0068835D01*
X0038344Y0068783D01*
X0038389Y0068734D01*
X0038436Y0068687D01*
X0038486Y0068643D01*
X0038539Y0068602D01*
X0038593Y0068563D01*
X0038650Y0068528D01*
X0043037Y0068378D02*
X0043037Y0066876D01*
X0043036Y0066876D02*
X0043038Y0066800D01*
X0043044Y0066724D01*
X0043053Y0066649D01*
X0043067Y0066574D01*
X0043084Y0066500D01*
X0043105Y0066426D01*
X0043129Y0066354D01*
X0043158Y0066284D01*
X0043189Y0066215D01*
X0043225Y0066147D01*
X0043263Y0066081D01*
X0043305Y0066018D01*
X0043350Y0065957D01*
X0043398Y0065898D01*
X0043449Y0065841D01*
X0043503Y0065787D01*
X0043560Y0065736D01*
X0043619Y0065688D01*
X0043680Y0065643D01*
X0043743Y0065601D01*
X0043809Y0065563D01*
X0043877Y0065527D01*
X0043946Y0065496D01*
X0044016Y0065467D01*
X0044088Y0065443D01*
X0044162Y0065422D01*
X0044236Y0065405D01*
X0044311Y0065391D01*
X0044386Y0065382D01*
X0044462Y0065376D01*
X0044538Y0065374D01*
X0044614Y0065376D01*
X0044690Y0065382D01*
X0044765Y0065391D01*
X0044840Y0065405D01*
X0044914Y0065422D01*
X0044988Y0065443D01*
X0045060Y0065467D01*
X0045130Y0065496D01*
X0045199Y0065527D01*
X0045267Y0065563D01*
X0045333Y0065601D01*
X0045396Y0065643D01*
X0045457Y0065688D01*
X0045516Y0065736D01*
X0045573Y0065787D01*
X0045627Y0065841D01*
X0045678Y0065898D01*
X0045726Y0065957D01*
X0045771Y0066018D01*
X0045813Y0066081D01*
X0045851Y0066147D01*
X0045887Y0066215D01*
X0045918Y0066284D01*
X0045947Y0066354D01*
X0045971Y0066426D01*
X0045992Y0066500D01*
X0046009Y0066574D01*
X0046023Y0066649D01*
X0046032Y0066724D01*
X0046038Y0066800D01*
X0046040Y0066876D01*
X0046040Y0067177D01*
X0046039Y0067177D02*
X0046037Y0067244D01*
X0046031Y0067311D01*
X0046022Y0067378D01*
X0046009Y0067444D01*
X0045992Y0067509D01*
X0045972Y0067574D01*
X0045948Y0067637D01*
X0045920Y0067698D01*
X0045889Y0067758D01*
X0045855Y0067816D01*
X0045817Y0067872D01*
X0045777Y0067926D01*
X0045734Y0067977D01*
X0045687Y0068026D01*
X0045638Y0068073D01*
X0045587Y0068116D01*
X0045533Y0068156D01*
X0045477Y0068194D01*
X0045419Y0068228D01*
X0045359Y0068259D01*
X0045298Y0068287D01*
X0045235Y0068311D01*
X0045170Y0068331D01*
X0045105Y0068348D01*
X0045039Y0068361D01*
X0044972Y0068370D01*
X0044905Y0068376D01*
X0044838Y0068378D01*
X0043037Y0068378D01*
X0043039Y0068475D01*
X0043045Y0068571D01*
X0043055Y0068668D01*
X0043068Y0068763D01*
X0043086Y0068858D01*
X0043107Y0068953D01*
X0043132Y0069046D01*
X0043161Y0069139D01*
X0043193Y0069230D01*
X0043229Y0069320D01*
X0043269Y0069408D01*
X0043312Y0069494D01*
X0043359Y0069579D01*
X0043409Y0069662D01*
X0043462Y0069742D01*
X0043519Y0069821D01*
X0043578Y0069897D01*
X0043641Y0069971D01*
X0043707Y0070042D01*
X0043775Y0070110D01*
X0043846Y0070176D01*
X0043920Y0070239D01*
X0043996Y0070298D01*
X0044075Y0070355D01*
X0044155Y0070408D01*
X0044238Y0070458D01*
X0044323Y0070505D01*
X0044409Y0070548D01*
X0044497Y0070588D01*
X0044587Y0070624D01*
X0044678Y0070656D01*
X0044771Y0070685D01*
X0044864Y0070710D01*
X0044959Y0070731D01*
X0045054Y0070749D01*
X0045149Y0070762D01*
X0045246Y0070772D01*
X0045342Y0070778D01*
X0045439Y0070780D01*
X0048352Y0070780D02*
X0050153Y0070780D01*
X0050222Y0070778D01*
X0050290Y0070772D01*
X0050358Y0070762D01*
X0050425Y0070749D01*
X0050491Y0070731D01*
X0050557Y0070710D01*
X0050621Y0070685D01*
X0050683Y0070657D01*
X0050744Y0070625D01*
X0050802Y0070589D01*
X0050859Y0070551D01*
X0050913Y0070509D01*
X0050965Y0070464D01*
X0051014Y0070416D01*
X0051061Y0070365D01*
X0051104Y0070312D01*
X0051144Y0070257D01*
X0051181Y0070199D01*
X0051215Y0070139D01*
X0051245Y0070078D01*
X0051272Y0070015D01*
X0051295Y0069950D01*
X0051315Y0069884D01*
X0051330Y0069818D01*
X0051342Y0069750D01*
X0051350Y0069682D01*
X0051354Y0069613D01*
X0051354Y0069545D01*
X0051350Y0069476D01*
X0051342Y0069408D01*
X0051330Y0069340D01*
X0051315Y0069274D01*
X0051295Y0069208D01*
X0051272Y0069143D01*
X0051245Y0069080D01*
X0051215Y0069019D01*
X0051181Y0068959D01*
X0051144Y0068901D01*
X0051104Y0068846D01*
X0051061Y0068793D01*
X0051014Y0068742D01*
X0050965Y0068694D01*
X0050913Y0068649D01*
X0050859Y0068607D01*
X0050802Y0068569D01*
X0050744Y0068533D01*
X0050683Y0068501D01*
X0050621Y0068473D01*
X0050557Y0068448D01*
X0050491Y0068427D01*
X0050425Y0068409D01*
X0050358Y0068396D01*
X0050290Y0068386D01*
X0050222Y0068380D01*
X0050153Y0068378D01*
X0048952Y0068378D01*
X0049853Y0068378D02*
X0049929Y0068376D01*
X0050005Y0068370D01*
X0050080Y0068361D01*
X0050155Y0068347D01*
X0050229Y0068330D01*
X0050303Y0068309D01*
X0050375Y0068285D01*
X0050445Y0068256D01*
X0050514Y0068225D01*
X0050582Y0068189D01*
X0050648Y0068151D01*
X0050711Y0068109D01*
X0050772Y0068064D01*
X0050831Y0068016D01*
X0050888Y0067965D01*
X0050942Y0067911D01*
X0050993Y0067854D01*
X0051041Y0067795D01*
X0051086Y0067734D01*
X0051128Y0067671D01*
X0051166Y0067605D01*
X0051202Y0067537D01*
X0051233Y0067468D01*
X0051262Y0067398D01*
X0051286Y0067326D01*
X0051307Y0067252D01*
X0051324Y0067178D01*
X0051338Y0067103D01*
X0051347Y0067028D01*
X0051353Y0066952D01*
X0051355Y0066876D01*
X0051353Y0066800D01*
X0051347Y0066724D01*
X0051338Y0066649D01*
X0051324Y0066574D01*
X0051307Y0066500D01*
X0051286Y0066426D01*
X0051262Y0066354D01*
X0051233Y0066284D01*
X0051202Y0066215D01*
X0051166Y0066147D01*
X0051128Y0066081D01*
X0051086Y0066018D01*
X0051041Y0065957D01*
X0050993Y0065898D01*
X0050942Y0065841D01*
X0050888Y0065787D01*
X0050831Y0065736D01*
X0050772Y0065688D01*
X0050711Y0065643D01*
X0050648Y0065601D01*
X0050582Y0065563D01*
X0050514Y0065527D01*
X0050445Y0065496D01*
X0050375Y0065467D01*
X0050303Y0065443D01*
X0050229Y0065422D01*
X0050155Y0065405D01*
X0050080Y0065391D01*
X0050005Y0065382D01*
X0049929Y0065376D01*
X0049853Y0065374D01*
X0049853Y0065375D02*
X0048352Y0065375D01*
X0056220Y0066126D02*
X0056273Y0066240D01*
X0056324Y0066356D01*
X0056371Y0066473D01*
X0056415Y0066592D01*
X0056455Y0066711D01*
X0056492Y0066832D01*
X0056526Y0066954D01*
X0056556Y0067076D01*
X0056583Y0067200D01*
X0056606Y0067324D01*
X0056625Y0067449D01*
X0056641Y0067574D01*
X0056654Y0067700D01*
X0056663Y0067826D01*
X0056668Y0067952D01*
X0056670Y0068078D01*
X0053666Y0068078D02*
X0053668Y0068204D01*
X0053673Y0068330D01*
X0053682Y0068456D01*
X0053695Y0068582D01*
X0053711Y0068707D01*
X0053730Y0068832D01*
X0053753Y0068956D01*
X0053780Y0069080D01*
X0053810Y0069202D01*
X0053844Y0069324D01*
X0053881Y0069445D01*
X0053921Y0069565D01*
X0053965Y0069683D01*
X0054012Y0069800D01*
X0054063Y0069916D01*
X0054117Y0070030D01*
X0055168Y0070780D02*
X0055234Y0070778D01*
X0055299Y0070772D01*
X0055364Y0070763D01*
X0055428Y0070749D01*
X0055491Y0070732D01*
X0055554Y0070711D01*
X0055614Y0070686D01*
X0055674Y0070658D01*
X0055731Y0070627D01*
X0055787Y0070592D01*
X0055840Y0070554D01*
X0055891Y0070512D01*
X0055940Y0070468D01*
X0055986Y0070421D01*
X0056029Y0070372D01*
X0056069Y0070320D01*
X0056105Y0070265D01*
X0056139Y0070209D01*
X0056169Y0070151D01*
X0056196Y0070091D01*
X0056219Y0070029D01*
X0056369Y0069579D02*
X0053967Y0066576D01*
X0055168Y0065375D02*
X0055234Y0065377D01*
X0055299Y0065383D01*
X0055364Y0065392D01*
X0055428Y0065406D01*
X0055491Y0065423D01*
X0055554Y0065444D01*
X0055614Y0065469D01*
X0055674Y0065497D01*
X0055731Y0065528D01*
X0055787Y0065563D01*
X0055840Y0065601D01*
X0055891Y0065643D01*
X0055940Y0065687D01*
X0055986Y0065734D01*
X0056029Y0065783D01*
X0056069Y0065835D01*
X0056105Y0065890D01*
X0056139Y0065946D01*
X0056169Y0066004D01*
X0056196Y0066064D01*
X0056219Y0066126D01*
X0055168Y0065375D02*
X0055102Y0065377D01*
X0055037Y0065383D01*
X0054972Y0065392D01*
X0054908Y0065406D01*
X0054845Y0065423D01*
X0054782Y0065444D01*
X0054722Y0065469D01*
X0054662Y0065497D01*
X0054605Y0065528D01*
X0054549Y0065563D01*
X0054496Y0065601D01*
X0054445Y0065643D01*
X0054396Y0065687D01*
X0054350Y0065734D01*
X0054307Y0065783D01*
X0054267Y0065835D01*
X0054231Y0065890D01*
X0054197Y0065946D01*
X0054167Y0066004D01*
X0054140Y0066064D01*
X0054117Y0066126D01*
X0056670Y0068078D02*
X0056668Y0068204D01*
X0056663Y0068330D01*
X0056654Y0068456D01*
X0056641Y0068582D01*
X0056625Y0068707D01*
X0056606Y0068832D01*
X0056583Y0068956D01*
X0056556Y0069080D01*
X0056526Y0069202D01*
X0056492Y0069324D01*
X0056455Y0069445D01*
X0056415Y0069565D01*
X0056371Y0069683D01*
X0056324Y0069800D01*
X0056273Y0069916D01*
X0056219Y0070030D01*
X0055168Y0070780D02*
X0055102Y0070778D01*
X0055037Y0070772D01*
X0054972Y0070763D01*
X0054908Y0070749D01*
X0054845Y0070732D01*
X0054782Y0070711D01*
X0054722Y0070686D01*
X0054662Y0070658D01*
X0054605Y0070627D01*
X0054549Y0070592D01*
X0054496Y0070554D01*
X0054445Y0070512D01*
X0054396Y0070468D01*
X0054350Y0070421D01*
X0054307Y0070372D01*
X0054267Y0070320D01*
X0054231Y0070265D01*
X0054197Y0070209D01*
X0054167Y0070151D01*
X0054140Y0070091D01*
X0054117Y0070029D01*
X0053666Y0068078D02*
X0053668Y0067952D01*
X0053673Y0067826D01*
X0053682Y0067700D01*
X0053695Y0067574D01*
X0053711Y0067449D01*
X0053730Y0067324D01*
X0053753Y0067200D01*
X0053780Y0067076D01*
X0053810Y0066954D01*
X0053844Y0066832D01*
X0053881Y0066711D01*
X0053921Y0066591D01*
X0053965Y0066473D01*
X0054012Y0066356D01*
X0054063Y0066240D01*
X0054116Y0066126D01*
X0058982Y0065375D02*
X0060483Y0065375D01*
X0060483Y0065374D02*
X0060559Y0065376D01*
X0060635Y0065382D01*
X0060710Y0065391D01*
X0060785Y0065405D01*
X0060859Y0065422D01*
X0060933Y0065443D01*
X0061005Y0065467D01*
X0061075Y0065496D01*
X0061144Y0065527D01*
X0061212Y0065563D01*
X0061278Y0065601D01*
X0061341Y0065643D01*
X0061402Y0065688D01*
X0061461Y0065736D01*
X0061518Y0065787D01*
X0061572Y0065841D01*
X0061623Y0065898D01*
X0061671Y0065957D01*
X0061716Y0066018D01*
X0061758Y0066081D01*
X0061796Y0066147D01*
X0061832Y0066215D01*
X0061863Y0066284D01*
X0061892Y0066354D01*
X0061916Y0066426D01*
X0061937Y0066500D01*
X0061954Y0066574D01*
X0061968Y0066649D01*
X0061977Y0066724D01*
X0061983Y0066800D01*
X0061985Y0066876D01*
X0061983Y0066952D01*
X0061977Y0067028D01*
X0061968Y0067103D01*
X0061954Y0067178D01*
X0061937Y0067252D01*
X0061916Y0067326D01*
X0061892Y0067398D01*
X0061863Y0067468D01*
X0061832Y0067537D01*
X0061796Y0067605D01*
X0061758Y0067671D01*
X0061716Y0067734D01*
X0061671Y0067795D01*
X0061623Y0067854D01*
X0061572Y0067911D01*
X0061518Y0067965D01*
X0061461Y0068016D01*
X0061402Y0068064D01*
X0061341Y0068109D01*
X0061278Y0068151D01*
X0061212Y0068189D01*
X0061144Y0068225D01*
X0061075Y0068256D01*
X0061005Y0068285D01*
X0060933Y0068309D01*
X0060859Y0068330D01*
X0060785Y0068347D01*
X0060710Y0068361D01*
X0060635Y0068370D01*
X0060559Y0068376D01*
X0060483Y0068378D01*
X0060783Y0068378D02*
X0059582Y0068378D01*
X0060783Y0068378D02*
X0060852Y0068380D01*
X0060920Y0068386D01*
X0060988Y0068396D01*
X0061055Y0068409D01*
X0061121Y0068427D01*
X0061187Y0068448D01*
X0061251Y0068473D01*
X0061313Y0068501D01*
X0061374Y0068533D01*
X0061432Y0068569D01*
X0061489Y0068607D01*
X0061543Y0068649D01*
X0061595Y0068694D01*
X0061644Y0068742D01*
X0061691Y0068793D01*
X0061734Y0068846D01*
X0061774Y0068901D01*
X0061811Y0068959D01*
X0061845Y0069019D01*
X0061875Y0069080D01*
X0061902Y0069143D01*
X0061925Y0069208D01*
X0061945Y0069274D01*
X0061960Y0069340D01*
X0061972Y0069408D01*
X0061980Y0069476D01*
X0061984Y0069545D01*
X0061984Y0069613D01*
X0061980Y0069682D01*
X0061972Y0069750D01*
X0061960Y0069818D01*
X0061945Y0069884D01*
X0061925Y0069950D01*
X0061902Y0070015D01*
X0061875Y0070078D01*
X0061845Y0070139D01*
X0061811Y0070199D01*
X0061774Y0070257D01*
X0061734Y0070312D01*
X0061691Y0070365D01*
X0061644Y0070416D01*
X0061595Y0070464D01*
X0061543Y0070509D01*
X0061489Y0070551D01*
X0061432Y0070589D01*
X0061374Y0070625D01*
X0061313Y0070657D01*
X0061251Y0070685D01*
X0061187Y0070710D01*
X0061121Y0070731D01*
X0061055Y0070749D01*
X0060988Y0070762D01*
X0060920Y0070772D01*
X0060852Y0070778D01*
X0060783Y0070780D01*
X0058982Y0070780D01*
X0064297Y0069579D02*
X0065798Y0070780D01*
X0065798Y0065375D01*
X0064297Y0065375D02*
X0067300Y0065375D01*
D11*
X0060050Y0018078D02*
X0015050Y0018078D01*
X0014748Y0018082D01*
X0014446Y0018093D01*
X0014145Y0018111D01*
X0013844Y0018136D01*
X0013543Y0018169D01*
X0013244Y0018209D01*
X0012946Y0018256D01*
X0012648Y0018311D01*
X0012353Y0018372D01*
X0012059Y0018441D01*
X0011766Y0018517D01*
X0011476Y0018600D01*
X0011187Y0018690D01*
X0010901Y0018787D01*
X0010617Y0018890D01*
X0010336Y0019001D01*
X0010058Y0019118D01*
X0009782Y0019242D01*
X0009510Y0019373D01*
X0009241Y0019510D01*
X0008975Y0019653D01*
X0008713Y0019803D01*
X0008454Y0019960D01*
X0008200Y0020122D01*
X0007949Y0020291D01*
X0007703Y0020465D01*
X0007460Y0020646D01*
X0007223Y0020832D01*
X0006989Y0021024D01*
X0006761Y0021222D01*
X0006537Y0021425D01*
X0006319Y0021633D01*
X0006105Y0021847D01*
X0005897Y0022065D01*
X0005694Y0022289D01*
X0005496Y0022517D01*
X0005304Y0022751D01*
X0005118Y0022988D01*
X0004937Y0023231D01*
X0004763Y0023477D01*
X0004594Y0023728D01*
X0004432Y0023982D01*
X0004275Y0024241D01*
X0004125Y0024503D01*
X0003982Y0024769D01*
X0003845Y0025038D01*
X0003714Y0025310D01*
X0003590Y0025586D01*
X0003473Y0025864D01*
X0003362Y0026145D01*
X0003259Y0026429D01*
X0003162Y0026715D01*
X0003072Y0027004D01*
X0002989Y0027294D01*
X0002913Y0027587D01*
X0002844Y0027881D01*
X0002783Y0028176D01*
X0002728Y0028474D01*
X0002681Y0028772D01*
X0002641Y0029071D01*
X0002608Y0029372D01*
X0002583Y0029673D01*
X0002565Y0029974D01*
X0002554Y0030276D01*
X0002550Y0030578D01*
X0002550Y0068078D01*
X0002554Y0068380D01*
X0002565Y0068682D01*
X0002583Y0068983D01*
X0002608Y0069284D01*
X0002641Y0069585D01*
X0002681Y0069884D01*
X0002728Y0070182D01*
X0002783Y0070480D01*
X0002844Y0070775D01*
X0002913Y0071069D01*
X0002989Y0071362D01*
X0003072Y0071652D01*
X0003162Y0071941D01*
X0003259Y0072227D01*
X0003362Y0072511D01*
X0003473Y0072792D01*
X0003590Y0073070D01*
X0003714Y0073346D01*
X0003845Y0073618D01*
X0003982Y0073887D01*
X0004125Y0074153D01*
X0004275Y0074415D01*
X0004432Y0074674D01*
X0004594Y0074928D01*
X0004763Y0075179D01*
X0004937Y0075425D01*
X0005118Y0075668D01*
X0005304Y0075905D01*
X0005496Y0076139D01*
X0005694Y0076367D01*
X0005897Y0076591D01*
X0006105Y0076809D01*
X0006319Y0077023D01*
X0006537Y0077231D01*
X0006761Y0077434D01*
X0006989Y0077632D01*
X0007223Y0077824D01*
X0007460Y0078010D01*
X0007703Y0078191D01*
X0007949Y0078365D01*
X0008200Y0078534D01*
X0008454Y0078696D01*
X0008713Y0078853D01*
X0008975Y0079003D01*
X0009241Y0079146D01*
X0009510Y0079283D01*
X0009782Y0079414D01*
X0010058Y0079538D01*
X0010336Y0079655D01*
X0010617Y0079766D01*
X0010901Y0079869D01*
X0011187Y0079966D01*
X0011476Y0080056D01*
X0011766Y0080139D01*
X0012059Y0080215D01*
X0012353Y0080284D01*
X0012648Y0080345D01*
X0012946Y0080400D01*
X0013244Y0080447D01*
X0013543Y0080487D01*
X0013844Y0080520D01*
X0014145Y0080545D01*
X0014446Y0080563D01*
X0014748Y0080574D01*
X0015050Y0080578D01*
X0060050Y0080578D01*
X0060352Y0080574D01*
X0060654Y0080563D01*
X0060955Y0080545D01*
X0061256Y0080520D01*
X0061557Y0080487D01*
X0061856Y0080447D01*
X0062154Y0080400D01*
X0062452Y0080345D01*
X0062747Y0080284D01*
X0063041Y0080215D01*
X0063334Y0080139D01*
X0063624Y0080056D01*
X0063913Y0079966D01*
X0064199Y0079869D01*
X0064483Y0079766D01*
X0064764Y0079655D01*
X0065042Y0079538D01*
X0065318Y0079414D01*
X0065590Y0079283D01*
X0065859Y0079146D01*
X0066125Y0079003D01*
X0066387Y0078853D01*
X0066646Y0078696D01*
X0066900Y0078534D01*
X0067151Y0078365D01*
X0067397Y0078191D01*
X0067640Y0078010D01*
X0067877Y0077824D01*
X0068111Y0077632D01*
X0068339Y0077434D01*
X0068563Y0077231D01*
X0068781Y0077023D01*
X0068995Y0076809D01*
X0069203Y0076591D01*
X0069406Y0076367D01*
X0069604Y0076139D01*
X0069796Y0075905D01*
X0069982Y0075668D01*
X0070163Y0075425D01*
X0070337Y0075179D01*
X0070506Y0074928D01*
X0070668Y0074674D01*
X0070825Y0074415D01*
X0070975Y0074153D01*
X0071118Y0073887D01*
X0071255Y0073618D01*
X0071386Y0073346D01*
X0071510Y0073070D01*
X0071627Y0072792D01*
X0071738Y0072511D01*
X0071841Y0072227D01*
X0071938Y0071941D01*
X0072028Y0071652D01*
X0072111Y0071362D01*
X0072187Y0071069D01*
X0072256Y0070775D01*
X0072317Y0070480D01*
X0072372Y0070182D01*
X0072419Y0069884D01*
X0072459Y0069585D01*
X0072492Y0069284D01*
X0072517Y0068983D01*
X0072535Y0068682D01*
X0072546Y0068380D01*
X0072550Y0068078D01*
X0072550Y0030578D01*
X0072546Y0030276D01*
X0072535Y0029974D01*
X0072517Y0029673D01*
X0072492Y0029372D01*
X0072459Y0029071D01*
X0072419Y0028772D01*
X0072372Y0028474D01*
X0072317Y0028176D01*
X0072256Y0027881D01*
X0072187Y0027587D01*
X0072111Y0027294D01*
X0072028Y0027004D01*
X0071938Y0026715D01*
X0071841Y0026429D01*
X0071738Y0026145D01*
X0071627Y0025864D01*
X0071510Y0025586D01*
X0071386Y0025310D01*
X0071255Y0025038D01*
X0071118Y0024769D01*
X0070975Y0024503D01*
X0070825Y0024241D01*
X0070668Y0023982D01*
X0070506Y0023728D01*
X0070337Y0023477D01*
X0070163Y0023231D01*
X0069982Y0022988D01*
X0069796Y0022751D01*
X0069604Y0022517D01*
X0069406Y0022289D01*
X0069203Y0022065D01*
X0068995Y0021847D01*
X0068781Y0021633D01*
X0068563Y0021425D01*
X0068339Y0021222D01*
X0068111Y0021024D01*
X0067877Y0020832D01*
X0067640Y0020646D01*
X0067397Y0020465D01*
X0067151Y0020291D01*
X0066900Y0020122D01*
X0066646Y0019960D01*
X0066387Y0019803D01*
X0066125Y0019653D01*
X0065859Y0019510D01*
X0065590Y0019373D01*
X0065318Y0019242D01*
X0065042Y0019118D01*
X0064764Y0019001D01*
X0064483Y0018890D01*
X0064199Y0018787D01*
X0063913Y0018690D01*
X0063624Y0018600D01*
X0063334Y0018517D01*
X0063041Y0018441D01*
X0062747Y0018372D01*
X0062452Y0018311D01*
X0062154Y0018256D01*
X0061856Y0018209D01*
X0061557Y0018169D01*
X0061256Y0018136D01*
X0060955Y0018111D01*
X0060654Y0018093D01*
X0060352Y0018082D01*
X0060050Y0018078D01*
D12*
X0060146Y0032509D02*
X0060954Y0034934D01*
X0059338Y0034934D02*
X0060146Y0032509D01*
X0062171Y0032509D02*
X0062373Y0032509D01*
X0062373Y0032711D01*
X0062171Y0032711D01*
X0062171Y0032509D01*
X0063742Y0032509D02*
X0065762Y0032509D01*
X0064752Y0032509D02*
X0064752Y0036146D01*
X0063742Y0035338D01*
X0054369Y0043524D02*
X0054369Y0044534D01*
X0054368Y0044534D02*
X0054366Y0044596D01*
X0054360Y0044658D01*
X0054351Y0044720D01*
X0054337Y0044780D01*
X0054320Y0044840D01*
X0054300Y0044899D01*
X0054276Y0044956D01*
X0054248Y0045012D01*
X0054217Y0045066D01*
X0054182Y0045118D01*
X0054145Y0045167D01*
X0054104Y0045214D01*
X0054061Y0045259D01*
X0054015Y0045301D01*
X0053967Y0045340D01*
X0053916Y0045376D01*
X0053863Y0045409D01*
X0053808Y0045438D01*
X0053752Y0045464D01*
X0053694Y0045487D01*
X0053634Y0045505D01*
X0053574Y0045521D01*
X0053513Y0045532D01*
X0053451Y0045540D01*
X0053389Y0045544D01*
X0053327Y0045544D01*
X0053265Y0045540D01*
X0053203Y0045532D01*
X0053142Y0045521D01*
X0053082Y0045505D01*
X0053022Y0045487D01*
X0052964Y0045464D01*
X0052908Y0045438D01*
X0052853Y0045409D01*
X0052800Y0045376D01*
X0052749Y0045340D01*
X0052701Y0045301D01*
X0052655Y0045259D01*
X0052612Y0045214D01*
X0052571Y0045167D01*
X0052534Y0045118D01*
X0052499Y0045066D01*
X0052468Y0045012D01*
X0052440Y0044956D01*
X0052416Y0044899D01*
X0052396Y0044840D01*
X0052379Y0044780D01*
X0052365Y0044720D01*
X0052356Y0044658D01*
X0052350Y0044596D01*
X0052348Y0044534D01*
X0052348Y0044736D02*
X0052348Y0043928D01*
X0052348Y0044736D02*
X0052346Y0044791D01*
X0052340Y0044846D01*
X0052331Y0044900D01*
X0052318Y0044954D01*
X0052301Y0045007D01*
X0052281Y0045058D01*
X0052257Y0045108D01*
X0052230Y0045156D01*
X0052200Y0045202D01*
X0052167Y0045246D01*
X0052131Y0045288D01*
X0052092Y0045327D01*
X0052050Y0045363D01*
X0052006Y0045396D01*
X0051960Y0045426D01*
X0051912Y0045453D01*
X0051862Y0045477D01*
X0051811Y0045497D01*
X0051758Y0045514D01*
X0051704Y0045527D01*
X0051650Y0045536D01*
X0051595Y0045542D01*
X0051540Y0045544D01*
X0051485Y0045542D01*
X0051430Y0045536D01*
X0051376Y0045527D01*
X0051322Y0045514D01*
X0051269Y0045497D01*
X0051218Y0045477D01*
X0051168Y0045453D01*
X0051120Y0045426D01*
X0051074Y0045396D01*
X0051030Y0045363D01*
X0050988Y0045327D01*
X0050949Y0045288D01*
X0050913Y0045246D01*
X0050880Y0045202D01*
X0050850Y0045156D01*
X0050823Y0045108D01*
X0050799Y0045058D01*
X0050779Y0045007D01*
X0050762Y0044954D01*
X0050749Y0044900D01*
X0050740Y0044846D01*
X0050734Y0044791D01*
X0050732Y0044736D01*
X0050731Y0044736D02*
X0050731Y0043524D01*
X0050731Y0046865D02*
X0054369Y0048078D01*
X0050731Y0049290D01*
X0050731Y0050611D02*
X0050731Y0051823D01*
X0050732Y0051823D02*
X0050734Y0051878D01*
X0050740Y0051933D01*
X0050749Y0051987D01*
X0050762Y0052041D01*
X0050779Y0052094D01*
X0050799Y0052145D01*
X0050823Y0052195D01*
X0050850Y0052243D01*
X0050880Y0052289D01*
X0050913Y0052333D01*
X0050949Y0052375D01*
X0050988Y0052414D01*
X0051030Y0052450D01*
X0051074Y0052483D01*
X0051120Y0052513D01*
X0051168Y0052540D01*
X0051218Y0052564D01*
X0051269Y0052584D01*
X0051322Y0052601D01*
X0051376Y0052614D01*
X0051430Y0052623D01*
X0051485Y0052629D01*
X0051540Y0052631D01*
X0051595Y0052629D01*
X0051650Y0052623D01*
X0051704Y0052614D01*
X0051758Y0052601D01*
X0051811Y0052584D01*
X0051862Y0052564D01*
X0051912Y0052540D01*
X0051960Y0052513D01*
X0052006Y0052483D01*
X0052050Y0052450D01*
X0052092Y0052414D01*
X0052131Y0052375D01*
X0052167Y0052333D01*
X0052200Y0052289D01*
X0052230Y0052243D01*
X0052257Y0052195D01*
X0052281Y0052145D01*
X0052301Y0052094D01*
X0052318Y0052041D01*
X0052331Y0051987D01*
X0052340Y0051933D01*
X0052346Y0051878D01*
X0052348Y0051823D01*
X0052348Y0051015D01*
X0052348Y0051621D02*
X0052350Y0051683D01*
X0052356Y0051745D01*
X0052365Y0051807D01*
X0052379Y0051867D01*
X0052396Y0051927D01*
X0052416Y0051986D01*
X0052440Y0052043D01*
X0052468Y0052099D01*
X0052499Y0052153D01*
X0052534Y0052205D01*
X0052571Y0052254D01*
X0052612Y0052301D01*
X0052655Y0052346D01*
X0052701Y0052388D01*
X0052749Y0052427D01*
X0052800Y0052463D01*
X0052853Y0052496D01*
X0052908Y0052525D01*
X0052964Y0052551D01*
X0053022Y0052574D01*
X0053082Y0052592D01*
X0053142Y0052608D01*
X0053203Y0052619D01*
X0053265Y0052627D01*
X0053327Y0052631D01*
X0053389Y0052631D01*
X0053451Y0052627D01*
X0053513Y0052619D01*
X0053574Y0052608D01*
X0053634Y0052592D01*
X0053694Y0052574D01*
X0053752Y0052551D01*
X0053808Y0052525D01*
X0053863Y0052496D01*
X0053916Y0052463D01*
X0053967Y0052427D01*
X0054015Y0052388D01*
X0054061Y0052346D01*
X0054104Y0052301D01*
X0054145Y0052254D01*
X0054182Y0052205D01*
X0054217Y0052153D01*
X0054248Y0052099D01*
X0054276Y0052043D01*
X0054300Y0051986D01*
X0054320Y0051927D01*
X0054337Y0051867D01*
X0054351Y0051807D01*
X0054360Y0051745D01*
X0054366Y0051683D01*
X0054368Y0051621D01*
X0054369Y0051621D02*
X0054369Y0050611D01*
X0044994Y0058692D02*
X0043428Y0058692D01*
X0043950Y0060128D01*
X0043428Y0058692D01*
X0043950Y0057255D01*
X0043428Y0058692D01*
X0042253Y0059605D01*
X0043428Y0058692D01*
X0042253Y0057778D01*
X0043428Y0058692D01*
X0044994Y0058692D01*
X0032401Y0060009D02*
X0030380Y0060009D01*
X0031391Y0060009D02*
X0031391Y0063646D01*
X0030380Y0062838D01*
X0029034Y0063646D02*
X0028226Y0063646D01*
X0028171Y0063644D01*
X0028116Y0063638D01*
X0028062Y0063629D01*
X0028008Y0063616D01*
X0027955Y0063599D01*
X0027904Y0063579D01*
X0027854Y0063555D01*
X0027806Y0063528D01*
X0027760Y0063498D01*
X0027716Y0063465D01*
X0027674Y0063429D01*
X0027635Y0063389D01*
X0027599Y0063348D01*
X0027566Y0063304D01*
X0027536Y0063258D01*
X0027509Y0063210D01*
X0027485Y0063160D01*
X0027465Y0063109D01*
X0027448Y0063056D01*
X0027435Y0063002D01*
X0027426Y0062948D01*
X0027420Y0062893D01*
X0027418Y0062838D01*
X0027418Y0060817D01*
X0027420Y0060762D01*
X0027426Y0060707D01*
X0027435Y0060653D01*
X0027448Y0060599D01*
X0027465Y0060546D01*
X0027485Y0060495D01*
X0027509Y0060445D01*
X0027536Y0060397D01*
X0027566Y0060351D01*
X0027599Y0060307D01*
X0027635Y0060265D01*
X0027674Y0060226D01*
X0027716Y0060190D01*
X0027760Y0060157D01*
X0027806Y0060127D01*
X0027854Y0060100D01*
X0027904Y0060076D01*
X0027955Y0060056D01*
X0028008Y0060039D01*
X0028062Y0060026D01*
X0028116Y0060017D01*
X0028171Y0060011D01*
X0028226Y0060009D01*
X0029034Y0060009D01*
X0026007Y0060009D02*
X0025199Y0060009D01*
X0025603Y0060009D02*
X0025603Y0063646D01*
X0025199Y0063646D02*
X0026007Y0063646D01*
X0024369Y0052083D02*
X0020731Y0052083D01*
X0020731Y0050062D02*
X0024369Y0052083D01*
X0024369Y0050062D02*
X0020731Y0050062D01*
X0020731Y0048524D02*
X0020731Y0047715D01*
X0020731Y0048120D02*
X0024369Y0048120D01*
X0024369Y0048524D02*
X0024369Y0047715D01*
X0024369Y0045285D02*
X0020731Y0046497D01*
X0020731Y0044073D02*
X0024369Y0045285D01*
X0018238Y0036146D02*
X0018238Y0032509D01*
X0019854Y0032509D02*
X0019854Y0034328D01*
X0019852Y0034376D01*
X0019847Y0034423D01*
X0019837Y0034469D01*
X0019824Y0034515D01*
X0019808Y0034560D01*
X0019788Y0034603D01*
X0019765Y0034645D01*
X0019738Y0034684D01*
X0019709Y0034722D01*
X0019677Y0034757D01*
X0019642Y0034789D01*
X0019604Y0034818D01*
X0019565Y0034845D01*
X0019523Y0034868D01*
X0019480Y0034888D01*
X0019435Y0034904D01*
X0019389Y0034917D01*
X0019343Y0034927D01*
X0019296Y0034932D01*
X0019248Y0034934D01*
X0018238Y0034934D01*
X0016990Y0034934D02*
X0016990Y0034530D01*
X0016990Y0034934D02*
X0015778Y0034934D01*
X0015778Y0032509D01*
X0013495Y0032509D02*
X0014303Y0034934D01*
X0012687Y0034934D02*
X0013495Y0032509D01*
X0011350Y0033317D02*
X0011350Y0034126D01*
X0011348Y0034181D01*
X0011342Y0034236D01*
X0011333Y0034290D01*
X0011320Y0034344D01*
X0011303Y0034397D01*
X0011283Y0034448D01*
X0011259Y0034498D01*
X0011232Y0034546D01*
X0011202Y0034592D01*
X0011169Y0034636D01*
X0011133Y0034678D01*
X0011094Y0034717D01*
X0011052Y0034753D01*
X0011008Y0034786D01*
X0010962Y0034816D01*
X0010914Y0034843D01*
X0010864Y0034867D01*
X0010813Y0034887D01*
X0010760Y0034904D01*
X0010706Y0034917D01*
X0010652Y0034926D01*
X0010597Y0034932D01*
X0010542Y0034934D01*
X0010487Y0034932D01*
X0010432Y0034926D01*
X0010378Y0034917D01*
X0010324Y0034904D01*
X0010271Y0034887D01*
X0010220Y0034867D01*
X0010170Y0034843D01*
X0010122Y0034816D01*
X0010076Y0034786D01*
X0010032Y0034753D01*
X0009990Y0034717D01*
X0009951Y0034678D01*
X0009915Y0034636D01*
X0009882Y0034592D01*
X0009852Y0034546D01*
X0009825Y0034498D01*
X0009801Y0034448D01*
X0009781Y0034397D01*
X0009764Y0034344D01*
X0009751Y0034290D01*
X0009742Y0034236D01*
X0009736Y0034181D01*
X0009734Y0034126D01*
X0009734Y0033317D01*
X0009736Y0033262D01*
X0009742Y0033207D01*
X0009751Y0033153D01*
X0009764Y0033099D01*
X0009781Y0033046D01*
X0009801Y0032995D01*
X0009825Y0032945D01*
X0009852Y0032897D01*
X0009882Y0032851D01*
X0009915Y0032807D01*
X0009951Y0032765D01*
X0009990Y0032726D01*
X0010032Y0032690D01*
X0010076Y0032657D01*
X0010122Y0032627D01*
X0010170Y0032600D01*
X0010220Y0032576D01*
X0010271Y0032556D01*
X0010324Y0032539D01*
X0010378Y0032526D01*
X0010432Y0032517D01*
X0010487Y0032511D01*
X0010542Y0032509D01*
X0010597Y0032511D01*
X0010652Y0032517D01*
X0010706Y0032526D01*
X0010760Y0032539D01*
X0010813Y0032556D01*
X0010864Y0032576D01*
X0010914Y0032600D01*
X0010962Y0032627D01*
X0011008Y0032657D01*
X0011052Y0032690D01*
X0011094Y0032726D01*
X0011133Y0032765D01*
X0011169Y0032807D01*
X0011202Y0032851D01*
X0011232Y0032897D01*
X0011259Y0032945D01*
X0011283Y0032995D01*
X0011303Y0033046D01*
X0011320Y0033099D01*
X0011333Y0033153D01*
X0011342Y0033207D01*
X0011348Y0033262D01*
X0011350Y0033317D01*
X0008238Y0031903D02*
X0008238Y0034934D01*
X0008339Y0035944D02*
X0008137Y0035944D01*
X0008137Y0036146D01*
X0008339Y0036146D01*
X0008339Y0035944D01*
X0006862Y0034126D02*
X0006862Y0033721D01*
X0005246Y0033721D01*
X0005246Y0034126D02*
X0005246Y0033115D01*
X0005248Y0033067D01*
X0005253Y0033020D01*
X0005263Y0032974D01*
X0005276Y0032928D01*
X0005292Y0032883D01*
X0005312Y0032840D01*
X0005335Y0032798D01*
X0005362Y0032759D01*
X0005391Y0032721D01*
X0005423Y0032686D01*
X0005458Y0032654D01*
X0005496Y0032625D01*
X0005535Y0032598D01*
X0005577Y0032575D01*
X0005620Y0032555D01*
X0005665Y0032539D01*
X0005711Y0032526D01*
X0005757Y0032516D01*
X0005804Y0032511D01*
X0005852Y0032509D01*
X0006862Y0032509D01*
X0007632Y0031297D02*
X0007680Y0031299D01*
X0007727Y0031304D01*
X0007773Y0031314D01*
X0007819Y0031327D01*
X0007864Y0031343D01*
X0007907Y0031363D01*
X0007949Y0031386D01*
X0007988Y0031413D01*
X0008026Y0031442D01*
X0008061Y0031474D01*
X0008093Y0031509D01*
X0008122Y0031547D01*
X0008149Y0031586D01*
X0008172Y0031628D01*
X0008192Y0031671D01*
X0008208Y0031716D01*
X0008221Y0031762D01*
X0008231Y0031808D01*
X0008236Y0031855D01*
X0008238Y0031903D01*
X0007632Y0031297D02*
X0007430Y0031297D01*
X0006862Y0034126D02*
X0006860Y0034181D01*
X0006854Y0034236D01*
X0006845Y0034290D01*
X0006832Y0034344D01*
X0006815Y0034397D01*
X0006795Y0034448D01*
X0006771Y0034498D01*
X0006744Y0034546D01*
X0006714Y0034592D01*
X0006681Y0034636D01*
X0006645Y0034678D01*
X0006606Y0034717D01*
X0006564Y0034753D01*
X0006520Y0034786D01*
X0006474Y0034816D01*
X0006426Y0034843D01*
X0006376Y0034867D01*
X0006325Y0034887D01*
X0006272Y0034904D01*
X0006218Y0034917D01*
X0006164Y0034926D01*
X0006109Y0034932D01*
X0006054Y0034934D01*
X0005999Y0034932D01*
X0005944Y0034926D01*
X0005890Y0034917D01*
X0005836Y0034904D01*
X0005783Y0034887D01*
X0005732Y0034867D01*
X0005682Y0034843D01*
X0005634Y0034816D01*
X0005588Y0034786D01*
X0005544Y0034753D01*
X0005502Y0034717D01*
X0005463Y0034678D01*
X0005427Y0034636D01*
X0005394Y0034592D01*
X0005364Y0034546D01*
X0005337Y0034498D01*
X0005313Y0034448D01*
X0005293Y0034397D01*
X0005276Y0034344D01*
X0005263Y0034290D01*
X0005254Y0034236D01*
X0005248Y0034181D01*
X0005246Y0034126D01*
X0032700Y0027400D02*
X0036400Y0027400D01*
X0036400Y0026372D02*
X0036400Y0028428D01*
X0033522Y0026372D02*
X0032700Y0027400D01*
D13*
X0029550Y0025078D02*
X0045550Y0025078D01*
X0045550Y0031078D01*
X0029550Y0031078D01*
X0029550Y0025078D01*
X0024950Y0020578D02*
X0050150Y0020578D01*
X0050150Y0035578D01*
X0024950Y0035578D01*
X0024950Y0020578D01*
X0015050Y0038078D02*
X0010050Y0038078D01*
X0007550Y0040578D01*
X0007550Y0045578D01*
X0010050Y0048078D01*
X0007550Y0050578D01*
X0007550Y0055578D01*
X0010050Y0058078D01*
X0015050Y0058078D01*
X0017550Y0055578D01*
X0017550Y0050578D01*
X0015050Y0048078D01*
X0017550Y0045578D01*
X0017550Y0040578D01*
X0015050Y0038078D01*
X0015050Y0048078D02*
X0010050Y0048078D01*
X0031650Y0052078D02*
X0031650Y0053978D01*
X0031644Y0053983D02*
X0032629Y0053983D01*
X0031650Y0044078D02*
X0031650Y0042178D01*
X0031644Y0042172D02*
X0032629Y0042172D01*
X0042471Y0042172D02*
X0043456Y0042172D01*
X0043450Y0042178D02*
X0043450Y0044078D01*
X0043450Y0052078D02*
X0043450Y0053978D01*
X0043456Y0053983D02*
X0042471Y0053983D01*
X0057550Y0055578D02*
X0057550Y0050578D01*
X0060050Y0048078D01*
X0065050Y0048078D01*
X0067550Y0050578D01*
X0067550Y0055578D01*
X0065050Y0058078D01*
X0060050Y0058078D01*
X0057550Y0055578D01*
X0060050Y0048078D02*
X0057550Y0045578D01*
X0057550Y0040578D01*
X0060050Y0038078D01*
X0065050Y0038078D01*
X0067550Y0040578D01*
X0067550Y0045578D01*
X0065050Y0048078D01*
D14*
X0041170Y0058709D02*
X0039094Y0058709D01*
X0040859Y0060785D01*
X0040236Y0062446D02*
X0040167Y0062444D01*
X0040099Y0062438D01*
X0040031Y0062428D01*
X0039964Y0062415D01*
X0039898Y0062397D01*
X0039832Y0062376D01*
X0039769Y0062351D01*
X0039706Y0062323D01*
X0039646Y0062291D01*
X0039587Y0062255D01*
X0039530Y0062216D01*
X0039476Y0062175D01*
X0039424Y0062130D01*
X0039375Y0062082D01*
X0039329Y0062031D01*
X0039285Y0061978D01*
X0039245Y0061923D01*
X0039208Y0061865D01*
X0039174Y0061805D01*
X0039144Y0061744D01*
X0039117Y0061680D01*
X0039094Y0061616D01*
X0040859Y0060786D02*
X0040903Y0060830D01*
X0040944Y0060877D01*
X0040982Y0060927D01*
X0041016Y0060979D01*
X0041048Y0061033D01*
X0041076Y0061088D01*
X0041101Y0061146D01*
X0041122Y0061205D01*
X0041139Y0061265D01*
X0041153Y0061326D01*
X0041162Y0061387D01*
X0041168Y0061450D01*
X0041170Y0061512D01*
X0041168Y0061571D01*
X0041163Y0061629D01*
X0041153Y0061687D01*
X0041141Y0061744D01*
X0041124Y0061801D01*
X0041104Y0061856D01*
X0041081Y0061910D01*
X0041054Y0061962D01*
X0041025Y0062012D01*
X0040992Y0062061D01*
X0040956Y0062107D01*
X0040917Y0062151D01*
X0040875Y0062193D01*
X0040831Y0062232D01*
X0040785Y0062268D01*
X0040736Y0062301D01*
X0040686Y0062330D01*
X0040634Y0062357D01*
X0040580Y0062380D01*
X0040525Y0062400D01*
X0040468Y0062417D01*
X0040411Y0062429D01*
X0040353Y0062439D01*
X0040295Y0062444D01*
X0040236Y0062446D01*
X0037794Y0062446D02*
X0036963Y0062446D01*
X0036964Y0062446D02*
X0036907Y0062444D01*
X0036851Y0062438D01*
X0036795Y0062429D01*
X0036740Y0062415D01*
X0036686Y0062398D01*
X0036633Y0062377D01*
X0036582Y0062353D01*
X0036533Y0062325D01*
X0036485Y0062294D01*
X0036440Y0062260D01*
X0036397Y0062223D01*
X0036357Y0062183D01*
X0036320Y0062140D01*
X0036286Y0062095D01*
X0036255Y0062047D01*
X0036227Y0061998D01*
X0036203Y0061947D01*
X0036182Y0061894D01*
X0036165Y0061840D01*
X0036151Y0061785D01*
X0036142Y0061729D01*
X0036136Y0061673D01*
X0036134Y0061616D01*
X0036133Y0061616D02*
X0036133Y0059540D01*
X0036135Y0059483D01*
X0036141Y0059427D01*
X0036150Y0059371D01*
X0036164Y0059316D01*
X0036181Y0059262D01*
X0036202Y0059209D01*
X0036226Y0059158D01*
X0036254Y0059109D01*
X0036285Y0059061D01*
X0036319Y0059016D01*
X0036356Y0058973D01*
X0036396Y0058933D01*
X0036439Y0058896D01*
X0036484Y0058862D01*
X0036532Y0058831D01*
X0036581Y0058803D01*
X0036632Y0058779D01*
X0036685Y0058758D01*
X0036739Y0058741D01*
X0036794Y0058727D01*
X0036850Y0058718D01*
X0036906Y0058712D01*
X0036963Y0058710D01*
X0036963Y0058709D02*
X0037794Y0058709D01*
X0034760Y0058709D02*
X0033930Y0058709D01*
X0034345Y0058709D02*
X0034345Y0062446D01*
X0033930Y0062446D02*
X0034760Y0062446D01*
D15*
X0042550Y0028078D03*
M02*
