%
M48
M72
T01C0.01181
T02C0.01378
T03C0.04000
%
T01
X60080Y20578
X70080Y68078
X15080Y78078
X5080Y29328
X15080Y20578
X33643Y28078
X37580Y28078
X37580Y20578
X35611Y48078
X39548Y48078
X42580Y63078
X32580Y63078
X37580Y78078
X60080Y78078
X70080Y48078
X70080Y30578
X5080Y48078
X5080Y68078
T02
X44174Y42172
X44293Y53983
T03
X12580Y43078
X12580Y53078
X62580Y43078
X62580Y53078
M30
