G75*
%MOIN*%
%OFA0B0*%
%FSLAX25Y25*%
%IPPOS*%
%LPD*%
%AMOC8*
5,1,8,0,0,1.08239X$1,22.5*
%
%ADD10C,0.00394*%
%ADD11R,0.05118X0.05906*%
%ADD12R,0.05906X0.05118*%
%ADD13C,0.02400*%
%ADD14C,0.06000*%
%ADD15R,0.05906X0.10630*%
%ADD16C,0.02362*%
%ADD17C,0.01100*%
D10*
X0002550Y0018253D02*
X0002550Y0080753D01*
X0072550Y0080753D01*
X0072550Y0018253D01*
X0002550Y0018253D01*
X0002550Y0018355D02*
X0072550Y0018355D01*
X0072550Y0018747D02*
X0061328Y0018747D01*
X0061176Y0018646D02*
X0061566Y0018906D01*
X0061897Y0019237D01*
X0062157Y0019627D01*
X0062337Y0020059D01*
X0062428Y0020519D01*
X0062428Y0020655D01*
X0060148Y0020655D01*
X0060148Y0020654D02*
X0060148Y0018375D01*
X0060284Y0018375D01*
X0060744Y0018466D01*
X0061176Y0018646D01*
X0061799Y0019139D02*
X0072550Y0019139D01*
X0072550Y0019531D02*
X0062094Y0019531D01*
X0062280Y0019923D02*
X0072550Y0019923D01*
X0072550Y0020316D02*
X0062388Y0020316D01*
X0062428Y0020851D02*
X0062428Y0020987D01*
X0062337Y0021447D01*
X0062157Y0021879D01*
X0061897Y0022269D01*
X0061566Y0022600D01*
X0061176Y0022860D01*
X0060744Y0023040D01*
X0060284Y0023131D01*
X0060148Y0023131D01*
X0060148Y0020851D01*
X0062428Y0020851D01*
X0062405Y0021100D02*
X0072550Y0021100D01*
X0072550Y0020708D02*
X0060148Y0020708D01*
X0060148Y0020655D02*
X0060148Y0020851D01*
X0059952Y0020851D01*
X0059951Y0020851D02*
X0059951Y0020655D01*
X0057672Y0020655D01*
X0057672Y0020519D01*
X0057763Y0020059D01*
X0057943Y0019627D01*
X0058203Y0019237D01*
X0058534Y0018906D01*
X0058924Y0018646D01*
X0059356Y0018466D01*
X0059816Y0018375D01*
X0059952Y0018375D01*
X0059952Y0020654D01*
X0060148Y0020654D01*
X0059951Y0020708D02*
X0037648Y0020708D01*
X0037648Y0020655D02*
X0037648Y0020851D01*
X0039928Y0020851D01*
X0039928Y0020987D01*
X0039837Y0021447D01*
X0039657Y0021879D01*
X0039397Y0022269D01*
X0039066Y0022600D01*
X0038676Y0022860D01*
X0038244Y0023040D01*
X0037784Y0023131D01*
X0037648Y0023131D01*
X0037648Y0020851D01*
X0037452Y0020851D01*
X0037451Y0020851D02*
X0037451Y0020655D01*
X0035172Y0020655D01*
X0035172Y0020519D01*
X0035263Y0020059D01*
X0035443Y0019627D01*
X0035703Y0019237D01*
X0036034Y0018906D01*
X0036424Y0018646D01*
X0036856Y0018466D01*
X0037316Y0018375D01*
X0037452Y0018375D01*
X0037452Y0020654D01*
X0037648Y0020654D01*
X0037648Y0018375D01*
X0037784Y0018375D01*
X0038244Y0018466D01*
X0038676Y0018646D01*
X0039066Y0018906D01*
X0039397Y0019237D01*
X0039657Y0019627D01*
X0039837Y0020059D01*
X0039928Y0020519D01*
X0039928Y0020655D01*
X0037648Y0020655D01*
X0037451Y0020708D02*
X0015148Y0020708D01*
X0015148Y0020655D02*
X0015148Y0020851D01*
X0017428Y0020851D01*
X0017428Y0020987D01*
X0017337Y0021447D01*
X0017157Y0021879D01*
X0016897Y0022269D01*
X0016566Y0022600D01*
X0016176Y0022860D01*
X0015744Y0023040D01*
X0015284Y0023131D01*
X0015148Y0023131D01*
X0015148Y0020851D01*
X0014952Y0020851D01*
X0014951Y0020851D02*
X0014951Y0020655D01*
X0012672Y0020655D01*
X0012672Y0020519D01*
X0012763Y0020059D01*
X0012943Y0019627D01*
X0013203Y0019237D01*
X0013534Y0018906D01*
X0013924Y0018646D01*
X0014356Y0018466D01*
X0014816Y0018375D01*
X0014952Y0018375D01*
X0014952Y0020654D01*
X0015148Y0020654D01*
X0015148Y0018375D01*
X0015284Y0018375D01*
X0015744Y0018466D01*
X0016176Y0018646D01*
X0016566Y0018906D01*
X0016897Y0019237D01*
X0017157Y0019627D01*
X0017337Y0020059D01*
X0017428Y0020519D01*
X0017428Y0020655D01*
X0015148Y0020655D01*
X0014951Y0020708D02*
X0002550Y0020708D01*
X0002550Y0021100D02*
X0012695Y0021100D01*
X0012672Y0020987D02*
X0012672Y0020851D01*
X0014951Y0020851D01*
X0014952Y0020851D02*
X0014952Y0023131D01*
X0014816Y0023131D01*
X0014356Y0023040D01*
X0013924Y0022860D01*
X0013534Y0022600D01*
X0013203Y0022269D01*
X0012943Y0021879D01*
X0012763Y0021447D01*
X0012672Y0020987D01*
X0012782Y0021492D02*
X0002550Y0021492D01*
X0002550Y0021884D02*
X0012946Y0021884D01*
X0013211Y0022277D02*
X0002550Y0022277D01*
X0002550Y0022669D02*
X0013637Y0022669D01*
X0014465Y0023061D02*
X0002550Y0023061D01*
X0002550Y0023453D02*
X0072550Y0023453D01*
X0072550Y0023061D02*
X0060635Y0023061D01*
X0060148Y0023061D02*
X0059952Y0023061D01*
X0059952Y0023131D02*
X0059816Y0023131D01*
X0059356Y0023040D01*
X0058924Y0022860D01*
X0058534Y0022600D01*
X0058203Y0022269D01*
X0057943Y0021879D01*
X0057763Y0021447D01*
X0057672Y0020987D01*
X0057672Y0020851D01*
X0059951Y0020851D01*
X0059952Y0020851D02*
X0059952Y0023131D01*
X0059952Y0022669D02*
X0060148Y0022669D01*
X0060148Y0022277D02*
X0059952Y0022277D01*
X0059952Y0021884D02*
X0060148Y0021884D01*
X0060148Y0021492D02*
X0059952Y0021492D01*
X0059952Y0021100D02*
X0060148Y0021100D01*
X0060148Y0020316D02*
X0059952Y0020316D01*
X0059952Y0019923D02*
X0060148Y0019923D01*
X0060148Y0019531D02*
X0059952Y0019531D01*
X0059952Y0019139D02*
X0060148Y0019139D01*
X0060148Y0018747D02*
X0059952Y0018747D01*
X0060050Y0018253D02*
X0015050Y0018253D01*
X0014952Y0018747D02*
X0015148Y0018747D01*
X0015148Y0019139D02*
X0014952Y0019139D01*
X0014952Y0019531D02*
X0015148Y0019531D01*
X0015148Y0019923D02*
X0014952Y0019923D01*
X0014952Y0020316D02*
X0015148Y0020316D01*
X0015148Y0021100D02*
X0014952Y0021100D01*
X0014952Y0021492D02*
X0015148Y0021492D01*
X0015148Y0021884D02*
X0014952Y0021884D01*
X0014952Y0022277D02*
X0015148Y0022277D01*
X0015148Y0022669D02*
X0014952Y0022669D01*
X0014952Y0023061D02*
X0015148Y0023061D01*
X0015635Y0023061D02*
X0036965Y0023061D01*
X0036856Y0023040D02*
X0036424Y0022860D01*
X0036034Y0022600D01*
X0035703Y0022269D01*
X0035443Y0021879D01*
X0035263Y0021447D01*
X0035172Y0020987D01*
X0035172Y0020851D01*
X0037451Y0020851D01*
X0037452Y0020851D02*
X0037452Y0023131D01*
X0037316Y0023131D01*
X0036856Y0023040D01*
X0037452Y0023061D02*
X0037648Y0023061D01*
X0037648Y0022669D02*
X0037452Y0022669D01*
X0037452Y0022277D02*
X0037648Y0022277D01*
X0037648Y0021884D02*
X0037452Y0021884D01*
X0037452Y0021492D02*
X0037648Y0021492D01*
X0037648Y0021100D02*
X0037452Y0021100D01*
X0037452Y0020316D02*
X0037648Y0020316D01*
X0037648Y0019923D02*
X0037452Y0019923D01*
X0037452Y0019531D02*
X0037648Y0019531D01*
X0037648Y0019139D02*
X0037452Y0019139D01*
X0037452Y0018747D02*
X0037648Y0018747D01*
X0038828Y0018747D02*
X0058772Y0018747D01*
X0058301Y0019139D02*
X0039299Y0019139D01*
X0039594Y0019531D02*
X0058006Y0019531D01*
X0057820Y0019923D02*
X0039780Y0019923D01*
X0039888Y0020316D02*
X0057712Y0020316D01*
X0057695Y0021100D02*
X0039905Y0021100D01*
X0039818Y0021492D02*
X0057782Y0021492D01*
X0057946Y0021884D02*
X0039654Y0021884D01*
X0039389Y0022277D02*
X0058211Y0022277D01*
X0058637Y0022669D02*
X0038963Y0022669D01*
X0038135Y0023061D02*
X0059465Y0023061D01*
X0061463Y0022669D02*
X0072550Y0022669D01*
X0072550Y0022277D02*
X0061889Y0022277D01*
X0062154Y0021884D02*
X0072550Y0021884D01*
X0072550Y0021492D02*
X0062318Y0021492D01*
X0068534Y0028906D02*
X0068924Y0028646D01*
X0069356Y0028466D01*
X0069816Y0028375D01*
X0069952Y0028375D01*
X0069952Y0030654D01*
X0070148Y0030654D01*
X0070148Y0028375D01*
X0070284Y0028375D01*
X0070744Y0028466D01*
X0071176Y0028646D01*
X0071566Y0028906D01*
X0071897Y0029237D01*
X0072157Y0029627D01*
X0072337Y0030059D01*
X0072428Y0030519D01*
X0072428Y0030655D01*
X0070148Y0030655D01*
X0070148Y0030851D01*
X0072428Y0030851D01*
X0072428Y0030987D01*
X0072337Y0031447D01*
X0072157Y0031879D01*
X0071897Y0032269D01*
X0071566Y0032600D01*
X0071176Y0032860D01*
X0070744Y0033040D01*
X0070284Y0033131D01*
X0070148Y0033131D01*
X0070148Y0030851D01*
X0069952Y0030851D01*
X0069951Y0030851D02*
X0069951Y0030655D01*
X0067672Y0030655D01*
X0067672Y0030519D01*
X0067763Y0030059D01*
X0067943Y0029627D01*
X0068203Y0029237D01*
X0068534Y0028906D01*
X0068496Y0028944D02*
X0039715Y0028944D01*
X0039715Y0029150D02*
X0039084Y0029781D01*
X0039084Y0031719D01*
X0040267Y0031719D01*
X0040267Y0029893D01*
X0040843Y0029316D01*
X0046777Y0029316D01*
X0047353Y0029893D01*
X0047353Y0036613D01*
X0046777Y0037190D01*
X0040843Y0037190D01*
X0040267Y0036613D01*
X0040267Y0034787D01*
X0039084Y0034787D01*
X0039084Y0036388D01*
X0031584Y0043888D01*
X0031584Y0053888D01*
X0030686Y0054787D01*
X0028987Y0054787D01*
X0028987Y0054960D01*
X0028410Y0055536D01*
X0021690Y0055536D01*
X0021113Y0054960D01*
X0021113Y0054787D01*
X0019227Y0054787D01*
X0018928Y0055510D01*
X0017807Y0056631D01*
X0016343Y0057237D01*
X0008757Y0057237D01*
X0007293Y0056631D01*
X0006172Y0055510D01*
X0005566Y0054046D01*
X0002550Y0054046D01*
X0002550Y0054438D02*
X0005728Y0054438D01*
X0005566Y0054046D02*
X0005566Y0052460D01*
X0006172Y0050996D01*
X0007293Y0049875D01*
X0008757Y0049269D01*
X0016343Y0049269D01*
X0017807Y0049875D01*
X0018928Y0050996D01*
X0019227Y0051719D01*
X0021113Y0051719D01*
X0021113Y0049026D01*
X0021690Y0048450D01*
X0028410Y0048450D01*
X0028516Y0048555D01*
X0028515Y0048555D01*
X0028516Y0048555D02*
X0028516Y0048158D01*
X0028465Y0048187D01*
X0028160Y0048269D01*
X0025247Y0048269D01*
X0025247Y0044710D01*
X0024853Y0044710D01*
X0024853Y0048269D01*
X0021940Y0048269D01*
X0021635Y0048187D01*
X0021362Y0048030D01*
X0021140Y0047807D01*
X0020982Y0047534D01*
X0020900Y0047229D01*
X0020900Y0044710D01*
X0024853Y0044710D01*
X0024853Y0044316D01*
X0020900Y0044316D01*
X0020900Y0041796D01*
X0020982Y0041492D01*
X0021140Y0041219D01*
X0021362Y0040996D01*
X0021635Y0040838D01*
X0021940Y0040757D01*
X0024853Y0040757D01*
X0024853Y0044316D01*
X0025247Y0044316D01*
X0025247Y0040757D01*
X0028160Y0040757D01*
X0028465Y0040838D01*
X0028738Y0040996D01*
X0028960Y0041219D01*
X0029118Y0041492D01*
X0029200Y0041796D01*
X0029200Y0041934D01*
X0029414Y0041719D01*
X0033943Y0037190D01*
X0028323Y0037190D01*
X0027747Y0036613D01*
X0027747Y0029893D01*
X0028323Y0029316D01*
X0031614Y0029316D01*
X0031448Y0029150D01*
X0031448Y0027356D01*
X0032716Y0026088D01*
X0034510Y0026088D01*
X0035581Y0027159D01*
X0036653Y0026088D01*
X0038447Y0026088D01*
X0039715Y0027356D01*
X0039715Y0029150D01*
X0039529Y0029337D02*
X0040823Y0029337D01*
X0040430Y0029729D02*
X0039137Y0029729D01*
X0039084Y0030121D02*
X0040267Y0030121D01*
X0040267Y0030513D02*
X0039084Y0030513D01*
X0039084Y0030905D02*
X0040267Y0030905D01*
X0040267Y0031298D02*
X0039084Y0031298D01*
X0039084Y0031690D02*
X0040267Y0031690D01*
X0040267Y0034827D02*
X0039084Y0034827D01*
X0039084Y0035220D02*
X0040267Y0035220D01*
X0040267Y0035612D02*
X0039084Y0035612D01*
X0039084Y0036004D02*
X0040267Y0036004D01*
X0040267Y0036396D02*
X0039076Y0036396D01*
X0038684Y0036789D02*
X0040442Y0036789D01*
X0040834Y0037181D02*
X0038292Y0037181D01*
X0037900Y0037573D02*
X0072550Y0037573D01*
X0072550Y0037965D02*
X0037508Y0037965D01*
X0037115Y0038357D02*
X0072550Y0038357D01*
X0072550Y0038750D02*
X0036723Y0038750D01*
X0036331Y0039142D02*
X0058679Y0039142D01*
X0058567Y0039159D02*
X0057939Y0039364D01*
X0057350Y0039664D01*
X0056816Y0040052D01*
X0056349Y0040519D01*
X0055961Y0041053D01*
X0055661Y0041642D01*
X0055456Y0042270D01*
X0055353Y0042923D01*
X0055353Y0043056D01*
X0062353Y0043056D01*
X0062747Y0043056D01*
X0062747Y0043450D01*
X0062353Y0043450D01*
X0062353Y0047450D01*
X0059220Y0047450D01*
X0058567Y0047346D01*
X0057939Y0047142D01*
X0057350Y0046842D01*
X0056816Y0046454D01*
X0056349Y0045987D01*
X0055961Y0045453D01*
X0055661Y0044864D01*
X0055456Y0044236D01*
X0055353Y0043583D01*
X0055353Y0043450D01*
X0062353Y0043450D01*
X0062353Y0043056D01*
X0062353Y0039056D01*
X0059220Y0039056D01*
X0058567Y0039159D01*
X0057605Y0039534D02*
X0035939Y0039534D01*
X0035547Y0039926D02*
X0056989Y0039926D01*
X0056549Y0040318D02*
X0035154Y0040318D01*
X0034762Y0040711D02*
X0056210Y0040711D01*
X0055935Y0041103D02*
X0053844Y0041103D01*
X0053738Y0040996D02*
X0053960Y0041219D01*
X0054118Y0041492D01*
X0054200Y0041796D01*
X0054200Y0044316D01*
X0050247Y0044316D01*
X0050247Y0044710D01*
X0049853Y0044710D01*
X0049853Y0048269D01*
X0046940Y0048269D01*
X0046635Y0048187D01*
X0046362Y0048030D01*
X0046140Y0047807D01*
X0045982Y0047534D01*
X0045900Y0047229D01*
X0045900Y0044710D01*
X0049853Y0044710D01*
X0049853Y0044316D01*
X0045900Y0044316D01*
X0045900Y0041796D01*
X0045982Y0041492D01*
X0046140Y0041219D01*
X0046362Y0040996D01*
X0046635Y0040838D01*
X0046940Y0040757D01*
X0049853Y0040757D01*
X0049853Y0044316D01*
X0050247Y0044316D01*
X0050247Y0040757D01*
X0053160Y0040757D01*
X0053465Y0040838D01*
X0053738Y0040996D01*
X0054119Y0041495D02*
X0055735Y0041495D01*
X0055581Y0041887D02*
X0054200Y0041887D01*
X0054200Y0042280D02*
X0055455Y0042280D01*
X0055393Y0042672D02*
X0054200Y0042672D01*
X0054200Y0043064D02*
X0062353Y0043064D01*
X0062353Y0043456D02*
X0062747Y0043456D01*
X0062747Y0043450D02*
X0062747Y0047450D01*
X0065880Y0047450D01*
X0066533Y0047346D01*
X0067161Y0047142D01*
X0067750Y0046842D01*
X0068284Y0046454D01*
X0068751Y0045987D01*
X0069139Y0045453D01*
X0069439Y0044864D01*
X0069644Y0044236D01*
X0069747Y0043583D01*
X0069747Y0043450D01*
X0062747Y0043450D01*
X0062747Y0043064D02*
X0072550Y0043064D01*
X0072550Y0043456D02*
X0069747Y0043456D01*
X0069705Y0043848D02*
X0072550Y0043848D01*
X0072550Y0044241D02*
X0069642Y0044241D01*
X0069515Y0044633D02*
X0072550Y0044633D01*
X0072550Y0045025D02*
X0069357Y0045025D01*
X0069158Y0045417D02*
X0072550Y0045417D01*
X0072550Y0045809D02*
X0068880Y0045809D01*
X0068924Y0046146D02*
X0068534Y0046406D01*
X0068203Y0046737D01*
X0067943Y0047127D01*
X0067763Y0047559D01*
X0067672Y0048019D01*
X0067672Y0048155D01*
X0069951Y0048155D01*
X0069951Y0048351D01*
X0067672Y0048351D01*
X0067672Y0048487D01*
X0067763Y0048947D01*
X0067943Y0049379D01*
X0068203Y0049769D01*
X0068534Y0050100D01*
X0068924Y0050360D01*
X0069356Y0050540D01*
X0069816Y0050631D01*
X0069952Y0050631D01*
X0069952Y0048351D01*
X0070148Y0048351D01*
X0072428Y0048351D01*
X0072428Y0048487D01*
X0072337Y0048947D01*
X0072157Y0049379D01*
X0071897Y0049769D01*
X0071566Y0050100D01*
X0071176Y0050360D01*
X0070744Y0050540D01*
X0070284Y0050631D01*
X0070148Y0050631D01*
X0070148Y0048351D01*
X0070148Y0048155D01*
X0070148Y0048154D02*
X0070148Y0045875D01*
X0070284Y0045875D01*
X0070744Y0045966D01*
X0071176Y0046146D01*
X0071566Y0046406D01*
X0071897Y0046737D01*
X0072157Y0047127D01*
X0072337Y0047559D01*
X0072428Y0048019D01*
X0072428Y0048155D01*
X0070148Y0048155D01*
X0070148Y0048154D02*
X0069952Y0048154D01*
X0069952Y0045875D01*
X0069816Y0045875D01*
X0069356Y0045966D01*
X0068924Y0046146D01*
X0068840Y0046202D02*
X0068537Y0046202D01*
X0068346Y0046594D02*
X0068092Y0046594D01*
X0068037Y0046986D02*
X0067468Y0046986D01*
X0067838Y0047378D02*
X0066332Y0047378D01*
X0067721Y0047770D02*
X0053981Y0047770D01*
X0053960Y0047807D02*
X0053738Y0048030D01*
X0053465Y0048187D01*
X0053160Y0048269D01*
X0050247Y0048269D01*
X0050247Y0044710D01*
X0054200Y0044710D01*
X0054200Y0047229D01*
X0054118Y0047534D01*
X0053960Y0047807D01*
X0054160Y0047378D02*
X0058768Y0047378D01*
X0057632Y0046986D02*
X0054200Y0046986D01*
X0054200Y0046594D02*
X0057008Y0046594D01*
X0056563Y0046202D02*
X0054200Y0046202D01*
X0054200Y0045809D02*
X0056220Y0045809D01*
X0055942Y0045417D02*
X0054200Y0045417D01*
X0054200Y0045025D02*
X0055743Y0045025D01*
X0055585Y0044633D02*
X0050247Y0044633D01*
X0050247Y0045025D02*
X0049853Y0045025D01*
X0049853Y0045417D02*
X0050247Y0045417D01*
X0050247Y0045809D02*
X0049853Y0045809D01*
X0049853Y0046202D02*
X0050247Y0046202D01*
X0050247Y0046594D02*
X0049853Y0046594D01*
X0049853Y0046986D02*
X0050247Y0046986D01*
X0050247Y0047378D02*
X0049853Y0047378D01*
X0049853Y0047770D02*
X0050247Y0047770D01*
X0050247Y0048163D02*
X0049853Y0048163D01*
X0046690Y0048450D02*
X0053410Y0048450D01*
X0053987Y0049026D01*
X0053987Y0051719D01*
X0055873Y0051719D01*
X0056172Y0050996D01*
X0057293Y0049875D01*
X0058757Y0049269D01*
X0066343Y0049269D01*
X0067807Y0049875D01*
X0068928Y0050996D01*
X0069534Y0052460D01*
X0069534Y0054046D01*
X0072550Y0054046D01*
X0072550Y0054438D02*
X0069372Y0054438D01*
X0069534Y0054046D02*
X0068928Y0055510D01*
X0067807Y0056631D01*
X0066343Y0057237D01*
X0058757Y0057237D01*
X0057293Y0056631D01*
X0056172Y0055510D01*
X0055873Y0054787D01*
X0053987Y0054787D01*
X0053987Y0054960D01*
X0053410Y0055536D01*
X0046690Y0055536D01*
X0046113Y0054960D01*
X0046113Y0049026D01*
X0046690Y0048450D01*
X0046584Y0048555D02*
X0031584Y0048555D01*
X0031584Y0048947D02*
X0046192Y0048947D01*
X0046113Y0049339D02*
X0031584Y0049339D01*
X0031584Y0049732D02*
X0046113Y0049732D01*
X0046113Y0050124D02*
X0031584Y0050124D01*
X0031584Y0050516D02*
X0046113Y0050516D01*
X0046113Y0050908D02*
X0031584Y0050908D01*
X0031584Y0051300D02*
X0046113Y0051300D01*
X0046113Y0051693D02*
X0031584Y0051693D01*
X0031584Y0052085D02*
X0046113Y0052085D01*
X0046113Y0052477D02*
X0031584Y0052477D01*
X0031584Y0052869D02*
X0046113Y0052869D01*
X0046113Y0053261D02*
X0031584Y0053261D01*
X0031584Y0053654D02*
X0046113Y0053654D01*
X0046113Y0054046D02*
X0031427Y0054046D01*
X0031035Y0054438D02*
X0046113Y0054438D01*
X0046113Y0054830D02*
X0028987Y0054830D01*
X0028724Y0055223D02*
X0046376Y0055223D01*
X0043447Y0061088D02*
X0041653Y0061088D01*
X0040385Y0062356D01*
X0040385Y0064150D01*
X0040728Y0064493D01*
X0039505Y0064493D01*
X0038928Y0065070D01*
X0038928Y0076314D01*
X0038676Y0076146D01*
X0038244Y0075966D01*
X0037784Y0075875D01*
X0037648Y0075875D01*
X0037648Y0078154D01*
X0037452Y0078154D01*
X0037452Y0075875D01*
X0037316Y0075875D01*
X0036856Y0075966D01*
X0036424Y0076146D01*
X0036172Y0076314D01*
X0036172Y0064991D01*
X0035595Y0064414D01*
X0034451Y0064414D01*
X0034715Y0064150D01*
X0034715Y0062356D01*
X0033447Y0061088D01*
X0031653Y0061088D01*
X0030385Y0062356D01*
X0030385Y0064150D01*
X0030649Y0064414D01*
X0028875Y0064414D01*
X0028298Y0064991D01*
X0028298Y0076436D01*
X0028875Y0077013D01*
X0035519Y0077013D01*
X0035443Y0077127D01*
X0035263Y0077559D01*
X0035172Y0078019D01*
X0035172Y0078155D01*
X0037451Y0078155D01*
X0037451Y0078351D01*
X0035172Y0078351D01*
X0035172Y0078487D01*
X0035263Y0078947D01*
X0035443Y0079379D01*
X0035703Y0079769D01*
X0036034Y0080100D01*
X0036424Y0080360D01*
X0036856Y0080540D01*
X0037316Y0080631D01*
X0037452Y0080631D01*
X0037452Y0078351D01*
X0037648Y0078351D01*
X0039928Y0078351D01*
X0039928Y0078487D01*
X0039837Y0078947D01*
X0039657Y0079379D01*
X0039397Y0079769D01*
X0039066Y0080100D01*
X0038676Y0080360D01*
X0038244Y0080540D01*
X0037784Y0080631D01*
X0037648Y0080631D01*
X0037648Y0078351D01*
X0037648Y0078155D01*
X0039928Y0078155D01*
X0039928Y0078019D01*
X0039837Y0077559D01*
X0039657Y0077127D01*
X0039634Y0077092D01*
X0046225Y0077092D01*
X0046802Y0076515D01*
X0046802Y0065070D01*
X0046225Y0064493D01*
X0044399Y0064493D01*
X0044399Y0064466D01*
X0044715Y0064150D01*
X0044715Y0062356D01*
X0043447Y0061088D01*
X0043465Y0061106D02*
X0072550Y0061106D01*
X0072550Y0061498D02*
X0043857Y0061498D01*
X0044249Y0061890D02*
X0072550Y0061890D01*
X0072550Y0062282D02*
X0044642Y0062282D01*
X0044715Y0062675D02*
X0072550Y0062675D01*
X0072550Y0063067D02*
X0044715Y0063067D01*
X0044715Y0063459D02*
X0072550Y0063459D01*
X0072550Y0063851D02*
X0044715Y0063851D01*
X0044622Y0064243D02*
X0072550Y0064243D01*
X0072550Y0064636D02*
X0046368Y0064636D01*
X0046760Y0065028D02*
X0072550Y0065028D01*
X0072550Y0065420D02*
X0046802Y0065420D01*
X0046802Y0065812D02*
X0072550Y0065812D01*
X0072550Y0066204D02*
X0071264Y0066204D01*
X0071176Y0066146D02*
X0071566Y0066406D01*
X0071897Y0066737D01*
X0072157Y0067127D01*
X0072337Y0067559D01*
X0072428Y0068019D01*
X0072428Y0068155D01*
X0070148Y0068155D01*
X0070148Y0068154D02*
X0070148Y0065875D01*
X0070284Y0065875D01*
X0070744Y0065966D01*
X0071176Y0066146D01*
X0071757Y0066597D02*
X0072550Y0066597D01*
X0072550Y0066989D02*
X0072065Y0066989D01*
X0072263Y0067381D02*
X0072550Y0067381D01*
X0072550Y0067773D02*
X0072379Y0067773D01*
X0072550Y0068166D02*
X0070148Y0068166D01*
X0070148Y0068155D02*
X0070148Y0068351D01*
X0072428Y0068351D01*
X0072428Y0068487D01*
X0072337Y0068947D01*
X0072157Y0069379D01*
X0071897Y0069769D01*
X0071566Y0070100D01*
X0071176Y0070360D01*
X0070744Y0070540D01*
X0070284Y0070631D01*
X0070148Y0070631D01*
X0070148Y0068351D01*
X0069952Y0068351D01*
X0069951Y0068351D02*
X0069951Y0068155D01*
X0067672Y0068155D01*
X0067672Y0068019D01*
X0067763Y0067559D01*
X0067943Y0067127D01*
X0068203Y0066737D01*
X0068534Y0066406D01*
X0068924Y0066146D01*
X0069356Y0065966D01*
X0069816Y0065875D01*
X0069952Y0065875D01*
X0069952Y0068154D01*
X0070148Y0068154D01*
X0069951Y0068166D02*
X0046802Y0068166D01*
X0046802Y0068558D02*
X0067686Y0068558D01*
X0067672Y0068487D02*
X0067672Y0068351D01*
X0069951Y0068351D01*
X0069952Y0068351D02*
X0069952Y0070631D01*
X0069816Y0070631D01*
X0069356Y0070540D01*
X0068924Y0070360D01*
X0068534Y0070100D01*
X0068203Y0069769D01*
X0067943Y0069379D01*
X0067763Y0068947D01*
X0067672Y0068487D01*
X0067765Y0068950D02*
X0046802Y0068950D01*
X0046802Y0069342D02*
X0067927Y0069342D01*
X0068180Y0069734D02*
X0046802Y0069734D01*
X0046802Y0070127D02*
X0068574Y0070127D01*
X0069306Y0070519D02*
X0046802Y0070519D01*
X0046802Y0070911D02*
X0072550Y0070911D01*
X0072550Y0071303D02*
X0046802Y0071303D01*
X0046802Y0071695D02*
X0072550Y0071695D01*
X0072550Y0072088D02*
X0046802Y0072088D01*
X0046802Y0072480D02*
X0072550Y0072480D01*
X0072550Y0072872D02*
X0046802Y0072872D01*
X0046802Y0073264D02*
X0072550Y0073264D01*
X0072550Y0073656D02*
X0046802Y0073656D01*
X0046802Y0074049D02*
X0072550Y0074049D01*
X0072550Y0074441D02*
X0046802Y0074441D01*
X0046802Y0074833D02*
X0072550Y0074833D01*
X0072550Y0075225D02*
X0046802Y0075225D01*
X0046802Y0075618D02*
X0072550Y0075618D01*
X0072550Y0076010D02*
X0060848Y0076010D01*
X0060744Y0075966D02*
X0061176Y0076146D01*
X0061566Y0076406D01*
X0061897Y0076737D01*
X0062157Y0077127D01*
X0062337Y0077559D01*
X0062428Y0078019D01*
X0062428Y0078155D01*
X0060148Y0078155D01*
X0060148Y0078154D02*
X0060148Y0075875D01*
X0060284Y0075875D01*
X0060744Y0075966D01*
X0060148Y0076010D02*
X0059952Y0076010D01*
X0059952Y0075875D02*
X0059952Y0078154D01*
X0060148Y0078154D01*
X0060148Y0078155D02*
X0060148Y0078351D01*
X0062428Y0078351D01*
X0062428Y0078487D01*
X0062337Y0078947D01*
X0062157Y0079379D01*
X0061897Y0079769D01*
X0061566Y0080100D01*
X0061176Y0080360D01*
X0060744Y0080540D01*
X0060284Y0080631D01*
X0060148Y0080631D01*
X0060148Y0078351D01*
X0059952Y0078351D01*
X0059951Y0078351D02*
X0059951Y0078155D01*
X0057672Y0078155D01*
X0057672Y0078019D01*
X0057763Y0077559D01*
X0057943Y0077127D01*
X0058203Y0076737D01*
X0058534Y0076406D01*
X0058924Y0076146D01*
X0059356Y0075966D01*
X0059816Y0075875D01*
X0059952Y0075875D01*
X0059952Y0076402D02*
X0060148Y0076402D01*
X0060148Y0076794D02*
X0059952Y0076794D01*
X0059952Y0077186D02*
X0060148Y0077186D01*
X0060148Y0077579D02*
X0059952Y0077579D01*
X0059952Y0077971D02*
X0060148Y0077971D01*
X0060148Y0078363D02*
X0059952Y0078363D01*
X0059952Y0078351D02*
X0059952Y0080631D01*
X0059816Y0080631D01*
X0059356Y0080540D01*
X0058924Y0080360D01*
X0058534Y0080100D01*
X0058203Y0079769D01*
X0057943Y0079379D01*
X0057763Y0078947D01*
X0057672Y0078487D01*
X0057672Y0078351D01*
X0059951Y0078351D01*
X0059952Y0078755D02*
X0060148Y0078755D01*
X0060148Y0079147D02*
X0059952Y0079147D01*
X0059952Y0079540D02*
X0060148Y0079540D01*
X0060148Y0079932D02*
X0059952Y0079932D01*
X0059952Y0080324D02*
X0060148Y0080324D01*
X0060050Y0080753D02*
X0015050Y0080753D01*
X0015148Y0080631D02*
X0015284Y0080631D01*
X0015744Y0080540D01*
X0016176Y0080360D01*
X0016566Y0080100D01*
X0016897Y0079769D01*
X0017157Y0079379D01*
X0017337Y0078947D01*
X0017428Y0078487D01*
X0017428Y0078351D01*
X0015148Y0078351D01*
X0015148Y0078155D01*
X0015148Y0078154D02*
X0015148Y0075875D01*
X0015284Y0075875D01*
X0015744Y0075966D01*
X0016176Y0076146D01*
X0016566Y0076406D01*
X0016897Y0076737D01*
X0017157Y0077127D01*
X0017337Y0077559D01*
X0017428Y0078019D01*
X0017428Y0078155D01*
X0015148Y0078155D01*
X0015148Y0078154D02*
X0014952Y0078154D01*
X0014952Y0075875D01*
X0014816Y0075875D01*
X0014356Y0075966D01*
X0013924Y0076146D01*
X0013534Y0076406D01*
X0013203Y0076737D01*
X0012943Y0077127D01*
X0012763Y0077559D01*
X0012672Y0078019D01*
X0012672Y0078155D01*
X0014951Y0078155D01*
X0014951Y0078351D01*
X0012672Y0078351D01*
X0012672Y0078487D01*
X0012763Y0078947D01*
X0012943Y0079379D01*
X0013203Y0079769D01*
X0013534Y0080100D01*
X0013924Y0080360D01*
X0014356Y0080540D01*
X0014816Y0080631D01*
X0014952Y0080631D01*
X0014952Y0078351D01*
X0015148Y0078351D01*
X0015148Y0080631D01*
X0015148Y0080324D02*
X0014952Y0080324D01*
X0014952Y0079932D02*
X0015148Y0079932D01*
X0015148Y0079540D02*
X0014952Y0079540D01*
X0014952Y0079147D02*
X0015148Y0079147D01*
X0015148Y0078755D02*
X0014952Y0078755D01*
X0014952Y0078363D02*
X0015148Y0078363D01*
X0015148Y0077971D02*
X0014952Y0077971D01*
X0014952Y0077579D02*
X0015148Y0077579D01*
X0015148Y0077186D02*
X0014952Y0077186D01*
X0014952Y0076794D02*
X0015148Y0076794D01*
X0015148Y0076402D02*
X0014952Y0076402D01*
X0014952Y0076010D02*
X0015148Y0076010D01*
X0015848Y0076010D02*
X0028298Y0076010D01*
X0028298Y0076402D02*
X0016560Y0076402D01*
X0016935Y0076794D02*
X0028656Y0076794D01*
X0028298Y0075618D02*
X0002550Y0075618D01*
X0002550Y0076010D02*
X0014252Y0076010D01*
X0013540Y0076402D02*
X0002550Y0076402D01*
X0002550Y0076794D02*
X0013165Y0076794D01*
X0012918Y0077186D02*
X0002550Y0077186D01*
X0002550Y0077579D02*
X0012760Y0077579D01*
X0012682Y0077971D02*
X0002550Y0077971D01*
X0002550Y0078363D02*
X0012672Y0078363D01*
X0012725Y0078755D02*
X0002550Y0078755D01*
X0002550Y0079147D02*
X0012847Y0079147D01*
X0013050Y0079540D02*
X0002550Y0079540D01*
X0002550Y0079932D02*
X0013366Y0079932D01*
X0013869Y0080324D02*
X0002550Y0080324D01*
X0002550Y0080716D02*
X0072550Y0080716D01*
X0072550Y0080324D02*
X0061231Y0080324D01*
X0061734Y0079932D02*
X0072550Y0079932D01*
X0072550Y0079540D02*
X0062050Y0079540D01*
X0062253Y0079147D02*
X0072550Y0079147D01*
X0072550Y0078755D02*
X0062375Y0078755D01*
X0062428Y0078363D02*
X0072550Y0078363D01*
X0072550Y0077971D02*
X0062418Y0077971D01*
X0062340Y0077579D02*
X0072550Y0077579D01*
X0072550Y0077186D02*
X0062182Y0077186D01*
X0061935Y0076794D02*
X0072550Y0076794D01*
X0072550Y0076402D02*
X0061560Y0076402D01*
X0059252Y0076010D02*
X0046802Y0076010D01*
X0046802Y0076402D02*
X0058540Y0076402D01*
X0058165Y0076794D02*
X0046523Y0076794D01*
X0039918Y0077971D02*
X0057682Y0077971D01*
X0057672Y0078363D02*
X0039928Y0078363D01*
X0039875Y0078755D02*
X0057725Y0078755D01*
X0057847Y0079147D02*
X0039753Y0079147D01*
X0039550Y0079540D02*
X0058050Y0079540D01*
X0058366Y0079932D02*
X0039234Y0079932D01*
X0038731Y0080324D02*
X0058869Y0080324D01*
X0057760Y0077579D02*
X0039840Y0077579D01*
X0039682Y0077186D02*
X0057918Y0077186D01*
X0060050Y0080753D02*
X0060352Y0080749D01*
X0060654Y0080738D01*
X0060955Y0080720D01*
X0061256Y0080695D01*
X0061557Y0080662D01*
X0061856Y0080622D01*
X0062154Y0080575D01*
X0062452Y0080520D01*
X0062747Y0080459D01*
X0063041Y0080390D01*
X0063334Y0080314D01*
X0063624Y0080231D01*
X0063913Y0080141D01*
X0064199Y0080044D01*
X0064483Y0079941D01*
X0064764Y0079830D01*
X0065042Y0079713D01*
X0065318Y0079589D01*
X0065590Y0079458D01*
X0065859Y0079321D01*
X0066125Y0079178D01*
X0066387Y0079028D01*
X0066646Y0078871D01*
X0066900Y0078709D01*
X0067151Y0078540D01*
X0067397Y0078366D01*
X0067640Y0078185D01*
X0067877Y0077999D01*
X0068111Y0077807D01*
X0068339Y0077609D01*
X0068563Y0077406D01*
X0068781Y0077198D01*
X0068995Y0076984D01*
X0069203Y0076766D01*
X0069406Y0076542D01*
X0069604Y0076314D01*
X0069796Y0076080D01*
X0069982Y0075843D01*
X0070163Y0075600D01*
X0070337Y0075354D01*
X0070506Y0075103D01*
X0070668Y0074849D01*
X0070825Y0074590D01*
X0070975Y0074328D01*
X0071118Y0074062D01*
X0071255Y0073793D01*
X0071386Y0073521D01*
X0071510Y0073245D01*
X0071627Y0072967D01*
X0071738Y0072686D01*
X0071841Y0072402D01*
X0071938Y0072116D01*
X0072028Y0071827D01*
X0072111Y0071537D01*
X0072187Y0071244D01*
X0072256Y0070950D01*
X0072317Y0070655D01*
X0072372Y0070357D01*
X0072419Y0070059D01*
X0072459Y0069760D01*
X0072492Y0069459D01*
X0072517Y0069158D01*
X0072535Y0068857D01*
X0072546Y0068555D01*
X0072550Y0068253D01*
X0072550Y0030753D01*
X0072550Y0030905D02*
X0072428Y0030905D01*
X0072427Y0030513D02*
X0072550Y0030513D01*
X0072550Y0030121D02*
X0072349Y0030121D01*
X0072200Y0029729D02*
X0072550Y0029729D01*
X0072550Y0029337D02*
X0071963Y0029337D01*
X0071604Y0028944D02*
X0072550Y0028944D01*
X0072550Y0028552D02*
X0070950Y0028552D01*
X0070148Y0028552D02*
X0069952Y0028552D01*
X0069952Y0028944D02*
X0070148Y0028944D01*
X0070148Y0029337D02*
X0069952Y0029337D01*
X0069952Y0029729D02*
X0070148Y0029729D01*
X0070148Y0030121D02*
X0069952Y0030121D01*
X0069952Y0030513D02*
X0070148Y0030513D01*
X0069951Y0030851D02*
X0067672Y0030851D01*
X0067672Y0030987D01*
X0067763Y0031447D01*
X0067943Y0031879D01*
X0068203Y0032269D01*
X0068534Y0032600D01*
X0068924Y0032860D01*
X0069356Y0033040D01*
X0069816Y0033131D01*
X0069952Y0033131D01*
X0069952Y0030851D01*
X0069952Y0030905D02*
X0070148Y0030905D01*
X0070148Y0031298D02*
X0069952Y0031298D01*
X0069952Y0031690D02*
X0070148Y0031690D01*
X0070148Y0032082D02*
X0069952Y0032082D01*
X0069952Y0032474D02*
X0070148Y0032474D01*
X0070148Y0032866D02*
X0069952Y0032866D01*
X0068938Y0032866D02*
X0055046Y0032866D01*
X0055046Y0033056D02*
X0051487Y0033056D01*
X0051487Y0029103D01*
X0054007Y0029103D01*
X0054311Y0029185D01*
X0054584Y0029343D01*
X0054807Y0029565D01*
X0054964Y0029838D01*
X0055046Y0030143D01*
X0055046Y0033056D01*
X0055046Y0033450D02*
X0055046Y0036363D01*
X0054964Y0036668D01*
X0054807Y0036941D01*
X0054584Y0037163D01*
X0054311Y0037321D01*
X0054007Y0037403D01*
X0051487Y0037403D01*
X0051487Y0033450D01*
X0051093Y0033450D01*
X0051093Y0033056D01*
X0047534Y0033056D01*
X0047534Y0030143D01*
X0047616Y0029838D01*
X0047773Y0029565D01*
X0047996Y0029343D01*
X0048269Y0029185D01*
X0048574Y0029103D01*
X0051093Y0029103D01*
X0051093Y0033056D01*
X0051487Y0033056D01*
X0051487Y0033450D01*
X0055046Y0033450D01*
X0055046Y0033651D02*
X0072550Y0033651D01*
X0072550Y0034043D02*
X0055046Y0034043D01*
X0055046Y0034435D02*
X0072550Y0034435D01*
X0072550Y0034827D02*
X0055046Y0034827D01*
X0055046Y0035220D02*
X0072550Y0035220D01*
X0072550Y0035612D02*
X0055046Y0035612D01*
X0055046Y0036004D02*
X0072550Y0036004D01*
X0072550Y0036396D02*
X0055037Y0036396D01*
X0054895Y0036789D02*
X0072550Y0036789D01*
X0072550Y0037181D02*
X0054554Y0037181D01*
X0051487Y0037181D02*
X0051093Y0037181D01*
X0051093Y0037403D02*
X0048574Y0037403D01*
X0048269Y0037321D01*
X0047996Y0037163D01*
X0047773Y0036941D01*
X0047616Y0036668D01*
X0047534Y0036363D01*
X0047534Y0033450D01*
X0051093Y0033450D01*
X0051093Y0037403D01*
X0051093Y0036789D02*
X0051487Y0036789D01*
X0051487Y0036396D02*
X0051093Y0036396D01*
X0051093Y0036004D02*
X0051487Y0036004D01*
X0051487Y0035612D02*
X0051093Y0035612D01*
X0051093Y0035220D02*
X0051487Y0035220D01*
X0051487Y0034827D02*
X0051093Y0034827D01*
X0051093Y0034435D02*
X0051487Y0034435D01*
X0051487Y0034043D02*
X0051093Y0034043D01*
X0051093Y0033651D02*
X0051487Y0033651D01*
X0051487Y0033259D02*
X0072550Y0033259D01*
X0072550Y0032866D02*
X0071162Y0032866D01*
X0071692Y0032474D02*
X0072550Y0032474D01*
X0072550Y0032082D02*
X0072022Y0032082D01*
X0072236Y0031690D02*
X0072550Y0031690D01*
X0072550Y0031298D02*
X0072366Y0031298D01*
X0072550Y0028160D02*
X0039715Y0028160D01*
X0039715Y0028552D02*
X0069150Y0028552D01*
X0068137Y0029337D02*
X0054574Y0029337D01*
X0054901Y0029729D02*
X0067900Y0029729D01*
X0067751Y0030121D02*
X0055040Y0030121D01*
X0055046Y0030513D02*
X0067673Y0030513D01*
X0067672Y0030905D02*
X0055046Y0030905D01*
X0055046Y0031298D02*
X0067734Y0031298D01*
X0067864Y0031690D02*
X0055046Y0031690D01*
X0055046Y0032082D02*
X0068078Y0032082D01*
X0068408Y0032474D02*
X0055046Y0032474D01*
X0051487Y0032474D02*
X0051093Y0032474D01*
X0051093Y0032082D02*
X0051487Y0032082D01*
X0051487Y0031690D02*
X0051093Y0031690D01*
X0051093Y0031298D02*
X0051487Y0031298D01*
X0051487Y0030905D02*
X0051093Y0030905D01*
X0051093Y0030513D02*
X0051487Y0030513D01*
X0051487Y0030121D02*
X0051093Y0030121D01*
X0051093Y0029729D02*
X0051487Y0029729D01*
X0051487Y0029337D02*
X0051093Y0029337D01*
X0048007Y0029337D02*
X0046797Y0029337D01*
X0047189Y0029729D02*
X0047679Y0029729D01*
X0047540Y0030121D02*
X0047353Y0030121D01*
X0047353Y0030513D02*
X0047534Y0030513D01*
X0047534Y0030905D02*
X0047353Y0030905D01*
X0047353Y0031298D02*
X0047534Y0031298D01*
X0047534Y0031690D02*
X0047353Y0031690D01*
X0047353Y0032082D02*
X0047534Y0032082D01*
X0047534Y0032474D02*
X0047353Y0032474D01*
X0047353Y0032866D02*
X0047534Y0032866D01*
X0047353Y0033259D02*
X0051093Y0033259D01*
X0051093Y0032866D02*
X0051487Y0032866D01*
X0047534Y0033651D02*
X0047353Y0033651D01*
X0047353Y0034043D02*
X0047534Y0034043D01*
X0047534Y0034435D02*
X0047353Y0034435D01*
X0047353Y0034827D02*
X0047534Y0034827D01*
X0047534Y0035220D02*
X0047353Y0035220D01*
X0047353Y0035612D02*
X0047534Y0035612D01*
X0047534Y0036004D02*
X0047353Y0036004D01*
X0047353Y0036396D02*
X0047543Y0036396D01*
X0047686Y0036789D02*
X0047178Y0036789D01*
X0046786Y0037181D02*
X0048026Y0037181D01*
X0046256Y0041103D02*
X0034370Y0041103D01*
X0033978Y0041495D02*
X0045981Y0041495D01*
X0045900Y0041887D02*
X0033585Y0041887D01*
X0033193Y0042280D02*
X0045900Y0042280D01*
X0045900Y0042672D02*
X0032801Y0042672D01*
X0032409Y0043064D02*
X0045900Y0043064D01*
X0045900Y0043456D02*
X0032017Y0043456D01*
X0031624Y0043848D02*
X0045900Y0043848D01*
X0045900Y0044241D02*
X0031584Y0044241D01*
X0031584Y0044633D02*
X0049853Y0044633D01*
X0049853Y0044241D02*
X0050247Y0044241D01*
X0050247Y0043848D02*
X0049853Y0043848D01*
X0049853Y0043456D02*
X0050247Y0043456D01*
X0050247Y0043064D02*
X0049853Y0043064D01*
X0049853Y0042672D02*
X0050247Y0042672D01*
X0050247Y0042280D02*
X0049853Y0042280D01*
X0049853Y0041887D02*
X0050247Y0041887D01*
X0050247Y0041495D02*
X0049853Y0041495D01*
X0049853Y0041103D02*
X0050247Y0041103D01*
X0054200Y0043456D02*
X0055353Y0043456D01*
X0055395Y0043848D02*
X0054200Y0043848D01*
X0054200Y0044241D02*
X0055458Y0044241D01*
X0053507Y0048163D02*
X0069951Y0048163D01*
X0070148Y0048163D02*
X0072550Y0048163D01*
X0072550Y0048555D02*
X0072414Y0048555D01*
X0072336Y0048947D02*
X0072550Y0048947D01*
X0072550Y0049339D02*
X0072174Y0049339D01*
X0071922Y0049732D02*
X0072550Y0049732D01*
X0072550Y0050124D02*
X0071530Y0050124D01*
X0070801Y0050516D02*
X0072550Y0050516D01*
X0072550Y0050908D02*
X0068840Y0050908D01*
X0069054Y0051300D02*
X0072550Y0051300D01*
X0072550Y0051693D02*
X0069216Y0051693D01*
X0069379Y0052085D02*
X0072550Y0052085D01*
X0072550Y0052477D02*
X0069534Y0052477D01*
X0069534Y0052869D02*
X0072550Y0052869D01*
X0072550Y0053261D02*
X0069534Y0053261D01*
X0069534Y0053654D02*
X0072550Y0053654D01*
X0072550Y0054830D02*
X0069209Y0054830D01*
X0069047Y0055223D02*
X0072550Y0055223D01*
X0072550Y0055615D02*
X0068823Y0055615D01*
X0068431Y0056007D02*
X0072550Y0056007D01*
X0072550Y0056399D02*
X0068038Y0056399D01*
X0067419Y0056791D02*
X0072550Y0056791D01*
X0072550Y0057184D02*
X0066472Y0057184D01*
X0072550Y0057576D02*
X0002550Y0057576D01*
X0002550Y0057968D02*
X0072550Y0057968D01*
X0072550Y0058360D02*
X0002550Y0058360D01*
X0002550Y0058752D02*
X0072550Y0058752D01*
X0072550Y0059145D02*
X0002550Y0059145D01*
X0002550Y0059537D02*
X0072550Y0059537D01*
X0072550Y0059929D02*
X0002550Y0059929D01*
X0002550Y0060321D02*
X0072550Y0060321D01*
X0072550Y0060713D02*
X0002550Y0060713D01*
X0002550Y0061106D02*
X0031635Y0061106D01*
X0031243Y0061498D02*
X0002550Y0061498D01*
X0002550Y0061890D02*
X0030851Y0061890D01*
X0030458Y0062282D02*
X0002550Y0062282D01*
X0002550Y0062675D02*
X0030385Y0062675D01*
X0030385Y0063067D02*
X0002550Y0063067D01*
X0002550Y0063459D02*
X0030385Y0063459D01*
X0030385Y0063851D02*
X0002550Y0063851D01*
X0002550Y0064243D02*
X0030478Y0064243D01*
X0028653Y0064636D02*
X0002550Y0064636D01*
X0002550Y0065028D02*
X0028298Y0065028D01*
X0028298Y0065420D02*
X0002550Y0065420D01*
X0002550Y0065812D02*
X0028298Y0065812D01*
X0028298Y0066204D02*
X0006264Y0066204D01*
X0006176Y0066146D02*
X0006566Y0066406D01*
X0006897Y0066737D01*
X0007157Y0067127D01*
X0007337Y0067559D01*
X0007428Y0068019D01*
X0007428Y0068155D01*
X0005148Y0068155D01*
X0005148Y0068154D02*
X0005148Y0065875D01*
X0005284Y0065875D01*
X0005744Y0065966D01*
X0006176Y0066146D01*
X0006757Y0066597D02*
X0028298Y0066597D01*
X0028298Y0066989D02*
X0007065Y0066989D01*
X0007263Y0067381D02*
X0028298Y0067381D01*
X0028298Y0067773D02*
X0007379Y0067773D01*
X0007428Y0068351D02*
X0007428Y0068487D01*
X0007337Y0068947D01*
X0007157Y0069379D01*
X0006897Y0069769D01*
X0006566Y0070100D01*
X0006176Y0070360D01*
X0005744Y0070540D01*
X0005284Y0070631D01*
X0005148Y0070631D01*
X0005148Y0068351D01*
X0007428Y0068351D01*
X0007414Y0068558D02*
X0028298Y0068558D01*
X0028298Y0068950D02*
X0007335Y0068950D01*
X0007173Y0069342D02*
X0028298Y0069342D01*
X0028298Y0069734D02*
X0006920Y0069734D01*
X0006526Y0070127D02*
X0028298Y0070127D01*
X0028298Y0070519D02*
X0005794Y0070519D01*
X0005148Y0070519D02*
X0004952Y0070519D01*
X0004952Y0070631D02*
X0004816Y0070631D01*
X0004356Y0070540D01*
X0003924Y0070360D01*
X0003534Y0070100D01*
X0003203Y0069769D01*
X0002943Y0069379D01*
X0002763Y0068947D01*
X0002672Y0068487D01*
X0002672Y0068351D01*
X0004951Y0068351D01*
X0004951Y0068155D01*
X0002672Y0068155D01*
X0002672Y0068019D01*
X0002763Y0067559D01*
X0002943Y0067127D01*
X0003203Y0066737D01*
X0003534Y0066406D01*
X0003924Y0066146D01*
X0004356Y0065966D01*
X0004816Y0065875D01*
X0004952Y0065875D01*
X0004952Y0068154D01*
X0005148Y0068154D01*
X0005148Y0068155D02*
X0005148Y0068351D01*
X0004952Y0068351D01*
X0004952Y0070631D01*
X0004952Y0070127D02*
X0005148Y0070127D01*
X0005148Y0069734D02*
X0004952Y0069734D01*
X0004952Y0069342D02*
X0005148Y0069342D01*
X0005148Y0068950D02*
X0004952Y0068950D01*
X0004952Y0068558D02*
X0005148Y0068558D01*
X0005148Y0068166D02*
X0028298Y0068166D01*
X0028298Y0070911D02*
X0002550Y0070911D01*
X0002550Y0071303D02*
X0028298Y0071303D01*
X0028298Y0071695D02*
X0002550Y0071695D01*
X0002550Y0072088D02*
X0028298Y0072088D01*
X0028298Y0072480D02*
X0002550Y0072480D01*
X0002550Y0072872D02*
X0028298Y0072872D01*
X0028298Y0073264D02*
X0002550Y0073264D01*
X0002550Y0073656D02*
X0028298Y0073656D01*
X0028298Y0074049D02*
X0002550Y0074049D01*
X0002550Y0074441D02*
X0028298Y0074441D01*
X0028298Y0074833D02*
X0002550Y0074833D01*
X0002550Y0075225D02*
X0028298Y0075225D01*
X0035182Y0077971D02*
X0017418Y0077971D01*
X0017428Y0078363D02*
X0035172Y0078363D01*
X0035225Y0078755D02*
X0017375Y0078755D01*
X0017253Y0079147D02*
X0035347Y0079147D01*
X0035550Y0079540D02*
X0017050Y0079540D01*
X0016734Y0079932D02*
X0035866Y0079932D01*
X0036369Y0080324D02*
X0016231Y0080324D01*
X0017340Y0077579D02*
X0035260Y0077579D01*
X0035418Y0077186D02*
X0017182Y0077186D01*
X0015050Y0080753D02*
X0014748Y0080749D01*
X0014446Y0080738D01*
X0014145Y0080720D01*
X0013844Y0080695D01*
X0013543Y0080662D01*
X0013244Y0080622D01*
X0012946Y0080575D01*
X0012648Y0080520D01*
X0012353Y0080459D01*
X0012059Y0080390D01*
X0011766Y0080314D01*
X0011476Y0080231D01*
X0011187Y0080141D01*
X0010901Y0080044D01*
X0010617Y0079941D01*
X0010336Y0079830D01*
X0010058Y0079713D01*
X0009782Y0079589D01*
X0009510Y0079458D01*
X0009241Y0079321D01*
X0008975Y0079178D01*
X0008713Y0079028D01*
X0008454Y0078871D01*
X0008200Y0078709D01*
X0007949Y0078540D01*
X0007703Y0078366D01*
X0007460Y0078185D01*
X0007223Y0077999D01*
X0006989Y0077807D01*
X0006761Y0077609D01*
X0006537Y0077406D01*
X0006319Y0077198D01*
X0006105Y0076984D01*
X0005897Y0076766D01*
X0005694Y0076542D01*
X0005496Y0076314D01*
X0005304Y0076080D01*
X0005118Y0075843D01*
X0004937Y0075600D01*
X0004763Y0075354D01*
X0004594Y0075103D01*
X0004432Y0074849D01*
X0004275Y0074590D01*
X0004125Y0074328D01*
X0003982Y0074062D01*
X0003845Y0073793D01*
X0003714Y0073521D01*
X0003590Y0073245D01*
X0003473Y0072967D01*
X0003362Y0072686D01*
X0003259Y0072402D01*
X0003162Y0072116D01*
X0003072Y0071827D01*
X0002989Y0071537D01*
X0002913Y0071244D01*
X0002844Y0070950D01*
X0002783Y0070655D01*
X0002728Y0070357D01*
X0002681Y0070059D01*
X0002641Y0069760D01*
X0002608Y0069459D01*
X0002583Y0069158D01*
X0002565Y0068857D01*
X0002554Y0068555D01*
X0002550Y0068253D01*
X0002550Y0030753D01*
X0002550Y0030905D02*
X0003127Y0030905D01*
X0003203Y0031019D02*
X0002943Y0030629D01*
X0002763Y0030197D01*
X0002672Y0029737D01*
X0002672Y0029601D01*
X0004951Y0029601D01*
X0004951Y0029405D01*
X0002672Y0029405D01*
X0002672Y0029269D01*
X0002763Y0028809D01*
X0002943Y0028377D01*
X0003203Y0027987D01*
X0003534Y0027656D01*
X0003924Y0027396D01*
X0004356Y0027216D01*
X0004816Y0027125D01*
X0004952Y0027125D01*
X0004952Y0029404D01*
X0005148Y0029404D01*
X0005148Y0027125D01*
X0005284Y0027125D01*
X0005744Y0027216D01*
X0006176Y0027396D01*
X0006566Y0027656D01*
X0006897Y0027987D01*
X0007157Y0028377D01*
X0007337Y0028809D01*
X0007428Y0029269D01*
X0007428Y0029405D01*
X0005148Y0029405D01*
X0005148Y0029601D01*
X0007428Y0029601D01*
X0007428Y0029737D01*
X0007337Y0030197D01*
X0007157Y0030629D01*
X0006897Y0031019D01*
X0006566Y0031350D01*
X0006176Y0031610D01*
X0005744Y0031790D01*
X0005284Y0031881D01*
X0005148Y0031881D01*
X0005148Y0029601D01*
X0004952Y0029601D01*
X0004952Y0031881D01*
X0004816Y0031881D01*
X0004356Y0031790D01*
X0003924Y0031610D01*
X0003534Y0031350D01*
X0003203Y0031019D01*
X0003482Y0031298D02*
X0002550Y0031298D01*
X0002550Y0031690D02*
X0004116Y0031690D01*
X0004952Y0031690D02*
X0005148Y0031690D01*
X0005148Y0031298D02*
X0004952Y0031298D01*
X0004952Y0030905D02*
X0005148Y0030905D01*
X0005148Y0030513D02*
X0004952Y0030513D01*
X0004952Y0030121D02*
X0005148Y0030121D01*
X0005148Y0029729D02*
X0004952Y0029729D01*
X0004952Y0029337D02*
X0005148Y0029337D01*
X0005148Y0028944D02*
X0004952Y0028944D01*
X0004952Y0028552D02*
X0005148Y0028552D01*
X0005148Y0028160D02*
X0004952Y0028160D01*
X0004952Y0027768D02*
X0005148Y0027768D01*
X0005148Y0027375D02*
X0004952Y0027375D01*
X0003972Y0027375D02*
X0002550Y0027375D01*
X0002550Y0026983D02*
X0031820Y0026983D01*
X0031448Y0027375D02*
X0006128Y0027375D01*
X0006678Y0027768D02*
X0031448Y0027768D01*
X0031448Y0028160D02*
X0007012Y0028160D01*
X0007230Y0028552D02*
X0031448Y0028552D01*
X0031448Y0028944D02*
X0007363Y0028944D01*
X0007428Y0029337D02*
X0020526Y0029337D01*
X0020516Y0029343D02*
X0020789Y0029185D01*
X0021093Y0029103D01*
X0023613Y0029103D01*
X0023613Y0033056D01*
X0024007Y0033056D01*
X0024007Y0033450D01*
X0027566Y0033450D01*
X0027566Y0036363D01*
X0027484Y0036668D01*
X0027327Y0036941D01*
X0027104Y0037163D01*
X0026831Y0037321D01*
X0026526Y0037403D01*
X0024007Y0037403D01*
X0024007Y0033450D01*
X0023613Y0033450D01*
X0023613Y0037403D01*
X0021093Y0037403D01*
X0020789Y0037321D01*
X0020516Y0037163D01*
X0020293Y0036941D01*
X0020135Y0036668D01*
X0020054Y0036363D01*
X0020054Y0033450D01*
X0023613Y0033450D01*
X0023613Y0033056D01*
X0020054Y0033056D01*
X0020054Y0030143D01*
X0020135Y0029838D01*
X0020293Y0029565D01*
X0020516Y0029343D01*
X0020199Y0029729D02*
X0007428Y0029729D01*
X0007352Y0030121D02*
X0020060Y0030121D01*
X0020054Y0030513D02*
X0007205Y0030513D01*
X0006973Y0030905D02*
X0020054Y0030905D01*
X0020054Y0031298D02*
X0006618Y0031298D01*
X0005984Y0031690D02*
X0020054Y0031690D01*
X0020054Y0032082D02*
X0002550Y0032082D01*
X0002550Y0032474D02*
X0020054Y0032474D01*
X0020054Y0032866D02*
X0002550Y0032866D01*
X0002550Y0033259D02*
X0023613Y0033259D01*
X0023613Y0033651D02*
X0024007Y0033651D01*
X0024007Y0034043D02*
X0023613Y0034043D01*
X0023613Y0034435D02*
X0024007Y0034435D01*
X0024007Y0034827D02*
X0023613Y0034827D01*
X0023613Y0035220D02*
X0024007Y0035220D01*
X0024007Y0035612D02*
X0023613Y0035612D01*
X0023613Y0036004D02*
X0024007Y0036004D01*
X0024007Y0036396D02*
X0023613Y0036396D01*
X0023613Y0036789D02*
X0024007Y0036789D01*
X0024007Y0037181D02*
X0023613Y0037181D01*
X0020546Y0037181D02*
X0002550Y0037181D01*
X0002550Y0037573D02*
X0033560Y0037573D01*
X0033168Y0037965D02*
X0002550Y0037965D01*
X0002550Y0038357D02*
X0032776Y0038357D01*
X0032384Y0038750D02*
X0002550Y0038750D01*
X0002550Y0039142D02*
X0008679Y0039142D01*
X0008567Y0039159D02*
X0007939Y0039364D01*
X0007350Y0039664D01*
X0006816Y0040052D01*
X0006349Y0040519D01*
X0005961Y0041053D01*
X0005661Y0041642D01*
X0005456Y0042270D01*
X0005353Y0042923D01*
X0005353Y0043056D01*
X0012353Y0043056D01*
X0012747Y0043056D01*
X0012747Y0043450D01*
X0012353Y0043450D01*
X0012353Y0047450D01*
X0009220Y0047450D01*
X0008567Y0047346D01*
X0007939Y0047142D01*
X0007350Y0046842D01*
X0006816Y0046454D01*
X0006349Y0045987D01*
X0005961Y0045453D01*
X0005661Y0044864D01*
X0005456Y0044236D01*
X0005353Y0043583D01*
X0005353Y0043450D01*
X0012353Y0043450D01*
X0012353Y0043056D01*
X0012353Y0039056D01*
X0009220Y0039056D01*
X0008567Y0039159D01*
X0007605Y0039534D02*
X0002550Y0039534D01*
X0002550Y0039926D02*
X0006989Y0039926D01*
X0006549Y0040318D02*
X0002550Y0040318D01*
X0002550Y0040711D02*
X0006210Y0040711D01*
X0005935Y0041103D02*
X0002550Y0041103D01*
X0002550Y0041495D02*
X0005735Y0041495D01*
X0005581Y0041887D02*
X0002550Y0041887D01*
X0002550Y0042280D02*
X0005455Y0042280D01*
X0005393Y0042672D02*
X0002550Y0042672D01*
X0002550Y0043064D02*
X0012353Y0043064D01*
X0012353Y0043456D02*
X0012747Y0043456D01*
X0012747Y0043450D02*
X0012747Y0047450D01*
X0015880Y0047450D01*
X0016533Y0047346D01*
X0017161Y0047142D01*
X0017750Y0046842D01*
X0018284Y0046454D01*
X0018751Y0045987D01*
X0019139Y0045453D01*
X0019439Y0044864D01*
X0019644Y0044236D01*
X0019747Y0043583D01*
X0019747Y0043450D01*
X0012747Y0043450D01*
X0012747Y0043064D02*
X0020900Y0043064D01*
X0020900Y0043456D02*
X0019747Y0043456D01*
X0019705Y0043848D02*
X0020900Y0043848D01*
X0020900Y0044241D02*
X0019642Y0044241D01*
X0019515Y0044633D02*
X0024853Y0044633D01*
X0024853Y0045025D02*
X0025247Y0045025D01*
X0025247Y0045417D02*
X0024853Y0045417D01*
X0024853Y0045809D02*
X0025247Y0045809D01*
X0025247Y0046202D02*
X0024853Y0046202D01*
X0024853Y0046594D02*
X0025247Y0046594D01*
X0025247Y0046986D02*
X0024853Y0046986D01*
X0024853Y0047378D02*
X0025247Y0047378D01*
X0025247Y0047770D02*
X0024853Y0047770D01*
X0024853Y0048163D02*
X0025247Y0048163D01*
X0021593Y0048163D02*
X0005148Y0048163D01*
X0005148Y0048155D02*
X0005148Y0048351D01*
X0007428Y0048351D01*
X0007428Y0048487D01*
X0007337Y0048947D01*
X0007157Y0049379D01*
X0006897Y0049769D01*
X0006566Y0050100D01*
X0006176Y0050360D01*
X0005744Y0050540D01*
X0005284Y0050631D01*
X0005148Y0050631D01*
X0005148Y0048351D01*
X0004952Y0048351D01*
X0004951Y0048351D02*
X0004951Y0048155D01*
X0002672Y0048155D01*
X0002672Y0048019D01*
X0002763Y0047559D01*
X0002943Y0047127D01*
X0003203Y0046737D01*
X0003534Y0046406D01*
X0003924Y0046146D01*
X0004356Y0045966D01*
X0004816Y0045875D01*
X0004952Y0045875D01*
X0004952Y0048154D01*
X0005148Y0048154D01*
X0005148Y0045875D01*
X0005284Y0045875D01*
X0005744Y0045966D01*
X0006176Y0046146D01*
X0006566Y0046406D01*
X0006897Y0046737D01*
X0007157Y0047127D01*
X0007337Y0047559D01*
X0007428Y0048019D01*
X0007428Y0048155D01*
X0005148Y0048155D01*
X0004951Y0048163D02*
X0002550Y0048163D01*
X0002672Y0048351D02*
X0004951Y0048351D01*
X0004952Y0048351D02*
X0004952Y0050631D01*
X0004816Y0050631D01*
X0004356Y0050540D01*
X0003924Y0050360D01*
X0003534Y0050100D01*
X0003203Y0049769D01*
X0002943Y0049379D01*
X0002763Y0048947D01*
X0002672Y0048487D01*
X0002672Y0048351D01*
X0002686Y0048555D02*
X0002550Y0048555D01*
X0002550Y0048947D02*
X0002764Y0048947D01*
X0002926Y0049339D02*
X0002550Y0049339D01*
X0002550Y0049732D02*
X0003178Y0049732D01*
X0003570Y0050124D02*
X0002550Y0050124D01*
X0002550Y0050516D02*
X0004299Y0050516D01*
X0004952Y0050516D02*
X0005148Y0050516D01*
X0005148Y0050124D02*
X0004952Y0050124D01*
X0004952Y0049732D02*
X0005148Y0049732D01*
X0005148Y0049339D02*
X0004952Y0049339D01*
X0004952Y0048947D02*
X0005148Y0048947D01*
X0005148Y0048555D02*
X0004952Y0048555D01*
X0004952Y0047770D02*
X0005148Y0047770D01*
X0005148Y0047378D02*
X0004952Y0047378D01*
X0004952Y0046986D02*
X0005148Y0046986D01*
X0005148Y0046594D02*
X0004952Y0046594D01*
X0004952Y0046202D02*
X0005148Y0046202D01*
X0005942Y0045417D02*
X0002550Y0045417D01*
X0002550Y0045025D02*
X0005743Y0045025D01*
X0005585Y0044633D02*
X0002550Y0044633D01*
X0002550Y0044241D02*
X0005458Y0044241D01*
X0005395Y0043848D02*
X0002550Y0043848D01*
X0002550Y0043456D02*
X0005353Y0043456D01*
X0006220Y0045809D02*
X0002550Y0045809D01*
X0002550Y0046202D02*
X0003840Y0046202D01*
X0003346Y0046594D02*
X0002550Y0046594D01*
X0002550Y0046986D02*
X0003037Y0046986D01*
X0002838Y0047378D02*
X0002550Y0047378D01*
X0002550Y0047770D02*
X0002721Y0047770D01*
X0002550Y0050908D02*
X0006260Y0050908D01*
X0006046Y0051300D02*
X0002550Y0051300D01*
X0002550Y0051693D02*
X0005884Y0051693D01*
X0005721Y0052085D02*
X0002550Y0052085D01*
X0002550Y0052477D02*
X0005566Y0052477D01*
X0005566Y0052869D02*
X0002550Y0052869D01*
X0002550Y0053261D02*
X0005566Y0053261D01*
X0005566Y0053654D02*
X0002550Y0053654D01*
X0002550Y0054830D02*
X0005891Y0054830D01*
X0006053Y0055223D02*
X0002550Y0055223D01*
X0002550Y0055615D02*
X0006277Y0055615D01*
X0006669Y0056007D02*
X0002550Y0056007D01*
X0002550Y0056399D02*
X0007062Y0056399D01*
X0007681Y0056791D02*
X0002550Y0056791D01*
X0002550Y0057184D02*
X0008628Y0057184D01*
X0006652Y0050516D02*
X0005801Y0050516D01*
X0006530Y0050124D02*
X0007045Y0050124D01*
X0006922Y0049732D02*
X0007640Y0049732D01*
X0007174Y0049339D02*
X0008587Y0049339D01*
X0007336Y0048947D02*
X0021192Y0048947D01*
X0021113Y0049339D02*
X0016513Y0049339D01*
X0017460Y0049732D02*
X0021113Y0049732D01*
X0021113Y0050124D02*
X0018055Y0050124D01*
X0018448Y0050516D02*
X0021113Y0050516D01*
X0021113Y0050908D02*
X0018840Y0050908D01*
X0019054Y0051300D02*
X0021113Y0051300D01*
X0021113Y0051693D02*
X0019216Y0051693D01*
X0019209Y0054830D02*
X0021113Y0054830D01*
X0021376Y0055223D02*
X0019047Y0055223D01*
X0018823Y0055615D02*
X0056277Y0055615D01*
X0056053Y0055223D02*
X0053724Y0055223D01*
X0053987Y0054830D02*
X0055891Y0054830D01*
X0056669Y0056007D02*
X0018431Y0056007D01*
X0018038Y0056399D02*
X0057062Y0056399D01*
X0057681Y0056791D02*
X0017419Y0056791D01*
X0016472Y0057184D02*
X0058628Y0057184D01*
X0055884Y0051693D02*
X0053987Y0051693D01*
X0053987Y0051300D02*
X0056046Y0051300D01*
X0056260Y0050908D02*
X0053987Y0050908D01*
X0053987Y0050516D02*
X0056652Y0050516D01*
X0057045Y0050124D02*
X0053987Y0050124D01*
X0053987Y0049732D02*
X0057640Y0049732D01*
X0058587Y0049339D02*
X0053987Y0049339D01*
X0053908Y0048947D02*
X0067764Y0048947D01*
X0067686Y0048555D02*
X0053516Y0048555D01*
X0046593Y0048163D02*
X0031584Y0048163D01*
X0031584Y0047770D02*
X0046119Y0047770D01*
X0045940Y0047378D02*
X0031584Y0047378D01*
X0031584Y0046986D02*
X0045900Y0046986D01*
X0045900Y0046594D02*
X0031584Y0046594D01*
X0031584Y0046202D02*
X0045900Y0046202D01*
X0045900Y0045809D02*
X0031584Y0045809D01*
X0031584Y0045417D02*
X0045900Y0045417D01*
X0045900Y0045025D02*
X0031584Y0045025D01*
X0029246Y0041887D02*
X0029200Y0041887D01*
X0029119Y0041495D02*
X0029638Y0041495D01*
X0030030Y0041103D02*
X0028844Y0041103D01*
X0030423Y0040711D02*
X0018890Y0040711D01*
X0018751Y0040519D02*
X0019139Y0041053D01*
X0019439Y0041642D01*
X0019644Y0042270D01*
X0019747Y0042923D01*
X0019747Y0043056D01*
X0012747Y0043056D01*
X0012747Y0039056D01*
X0015880Y0039056D01*
X0016533Y0039159D01*
X0017161Y0039364D01*
X0017750Y0039664D01*
X0018284Y0040052D01*
X0018751Y0040519D01*
X0018551Y0040318D02*
X0030815Y0040318D01*
X0031207Y0039926D02*
X0018111Y0039926D01*
X0017495Y0039534D02*
X0031599Y0039534D01*
X0031991Y0039142D02*
X0016421Y0039142D01*
X0019165Y0041103D02*
X0021256Y0041103D01*
X0020981Y0041495D02*
X0019365Y0041495D01*
X0019519Y0041887D02*
X0020900Y0041887D01*
X0020900Y0042280D02*
X0019645Y0042280D01*
X0019707Y0042672D02*
X0020900Y0042672D01*
X0020900Y0045025D02*
X0019357Y0045025D01*
X0019158Y0045417D02*
X0020900Y0045417D01*
X0020900Y0045809D02*
X0018880Y0045809D01*
X0018537Y0046202D02*
X0020900Y0046202D01*
X0020900Y0046594D02*
X0018092Y0046594D01*
X0017468Y0046986D02*
X0020900Y0046986D01*
X0020940Y0047378D02*
X0016332Y0047378D01*
X0012747Y0047378D02*
X0012353Y0047378D01*
X0012353Y0046986D02*
X0012747Y0046986D01*
X0012747Y0046594D02*
X0012353Y0046594D01*
X0012353Y0046202D02*
X0012747Y0046202D01*
X0012747Y0045809D02*
X0012353Y0045809D01*
X0012353Y0045417D02*
X0012747Y0045417D01*
X0012747Y0045025D02*
X0012353Y0045025D01*
X0012353Y0044633D02*
X0012747Y0044633D01*
X0012747Y0044241D02*
X0012353Y0044241D01*
X0012353Y0043848D02*
X0012747Y0043848D01*
X0012747Y0042672D02*
X0012353Y0042672D01*
X0012353Y0042280D02*
X0012747Y0042280D01*
X0012747Y0041887D02*
X0012353Y0041887D01*
X0012353Y0041495D02*
X0012747Y0041495D01*
X0012747Y0041103D02*
X0012353Y0041103D01*
X0012353Y0040711D02*
X0012747Y0040711D01*
X0012747Y0040318D02*
X0012353Y0040318D01*
X0012353Y0039926D02*
X0012747Y0039926D01*
X0012747Y0039534D02*
X0012353Y0039534D01*
X0012353Y0039142D02*
X0012747Y0039142D01*
X0006563Y0046202D02*
X0006260Y0046202D01*
X0006754Y0046594D02*
X0007008Y0046594D01*
X0007063Y0046986D02*
X0007632Y0046986D01*
X0007262Y0047378D02*
X0008768Y0047378D01*
X0007379Y0047770D02*
X0021119Y0047770D01*
X0021584Y0048555D02*
X0007414Y0048555D01*
X0002550Y0036789D02*
X0020205Y0036789D01*
X0020063Y0036396D02*
X0002550Y0036396D01*
X0002550Y0036004D02*
X0020054Y0036004D01*
X0020054Y0035612D02*
X0002550Y0035612D01*
X0002550Y0035220D02*
X0020054Y0035220D01*
X0020054Y0034827D02*
X0002550Y0034827D01*
X0002550Y0034435D02*
X0020054Y0034435D01*
X0020054Y0034043D02*
X0002550Y0034043D01*
X0002550Y0033651D02*
X0020054Y0033651D01*
X0023613Y0032866D02*
X0024007Y0032866D01*
X0024007Y0033056D02*
X0024007Y0029103D01*
X0026526Y0029103D01*
X0026831Y0029185D01*
X0027104Y0029343D01*
X0027327Y0029565D01*
X0027484Y0029838D01*
X0027566Y0030143D01*
X0027566Y0033056D01*
X0024007Y0033056D01*
X0024007Y0033259D02*
X0027747Y0033259D01*
X0027747Y0033651D02*
X0027566Y0033651D01*
X0027566Y0034043D02*
X0027747Y0034043D01*
X0027747Y0034435D02*
X0027566Y0034435D01*
X0027566Y0034827D02*
X0027747Y0034827D01*
X0027747Y0035220D02*
X0027566Y0035220D01*
X0027566Y0035612D02*
X0027747Y0035612D01*
X0027747Y0036004D02*
X0027566Y0036004D01*
X0027557Y0036396D02*
X0027747Y0036396D01*
X0027922Y0036789D02*
X0027414Y0036789D01*
X0027074Y0037181D02*
X0028314Y0037181D01*
X0027747Y0032866D02*
X0027566Y0032866D01*
X0027566Y0032474D02*
X0027747Y0032474D01*
X0027747Y0032082D02*
X0027566Y0032082D01*
X0027566Y0031690D02*
X0027747Y0031690D01*
X0027747Y0031298D02*
X0027566Y0031298D01*
X0027566Y0030905D02*
X0027747Y0030905D01*
X0027747Y0030513D02*
X0027566Y0030513D01*
X0027560Y0030121D02*
X0027747Y0030121D01*
X0027911Y0029729D02*
X0027421Y0029729D01*
X0027093Y0029337D02*
X0028303Y0029337D01*
X0024007Y0029337D02*
X0023613Y0029337D01*
X0023613Y0029729D02*
X0024007Y0029729D01*
X0024007Y0030121D02*
X0023613Y0030121D01*
X0023613Y0030513D02*
X0024007Y0030513D01*
X0024007Y0030905D02*
X0023613Y0030905D01*
X0023613Y0031298D02*
X0024007Y0031298D01*
X0024007Y0031690D02*
X0023613Y0031690D01*
X0023613Y0032082D02*
X0024007Y0032082D01*
X0024007Y0032474D02*
X0023613Y0032474D01*
X0024853Y0041103D02*
X0025247Y0041103D01*
X0025247Y0041495D02*
X0024853Y0041495D01*
X0024853Y0041887D02*
X0025247Y0041887D01*
X0025247Y0042280D02*
X0024853Y0042280D01*
X0024853Y0042672D02*
X0025247Y0042672D01*
X0025247Y0043064D02*
X0024853Y0043064D01*
X0024853Y0043456D02*
X0025247Y0043456D01*
X0025247Y0043848D02*
X0024853Y0043848D01*
X0024853Y0044241D02*
X0025247Y0044241D01*
X0028507Y0048163D02*
X0028516Y0048163D01*
X0033465Y0061106D02*
X0041635Y0061106D01*
X0041243Y0061498D02*
X0033857Y0061498D01*
X0034249Y0061890D02*
X0040851Y0061890D01*
X0040458Y0062282D02*
X0034642Y0062282D01*
X0034715Y0062675D02*
X0040385Y0062675D01*
X0040385Y0063067D02*
X0034715Y0063067D01*
X0034715Y0063459D02*
X0040385Y0063459D01*
X0040385Y0063851D02*
X0034715Y0063851D01*
X0034622Y0064243D02*
X0040478Y0064243D01*
X0039362Y0064636D02*
X0035817Y0064636D01*
X0036172Y0065028D02*
X0038970Y0065028D01*
X0038928Y0065420D02*
X0036172Y0065420D01*
X0036172Y0065812D02*
X0038928Y0065812D01*
X0038928Y0066204D02*
X0036172Y0066204D01*
X0036172Y0066597D02*
X0038928Y0066597D01*
X0038928Y0066989D02*
X0036172Y0066989D01*
X0036172Y0067381D02*
X0038928Y0067381D01*
X0038928Y0067773D02*
X0036172Y0067773D01*
X0036172Y0068166D02*
X0038928Y0068166D01*
X0038928Y0068558D02*
X0036172Y0068558D01*
X0036172Y0068950D02*
X0038928Y0068950D01*
X0038928Y0069342D02*
X0036172Y0069342D01*
X0036172Y0069734D02*
X0038928Y0069734D01*
X0038928Y0070127D02*
X0036172Y0070127D01*
X0036172Y0070519D02*
X0038928Y0070519D01*
X0038928Y0070911D02*
X0036172Y0070911D01*
X0036172Y0071303D02*
X0038928Y0071303D01*
X0038928Y0071695D02*
X0036172Y0071695D01*
X0036172Y0072088D02*
X0038928Y0072088D01*
X0038928Y0072480D02*
X0036172Y0072480D01*
X0036172Y0072872D02*
X0038928Y0072872D01*
X0038928Y0073264D02*
X0036172Y0073264D01*
X0036172Y0073656D02*
X0038928Y0073656D01*
X0038928Y0074049D02*
X0036172Y0074049D01*
X0036172Y0074441D02*
X0038928Y0074441D01*
X0038928Y0074833D02*
X0036172Y0074833D01*
X0036172Y0075225D02*
X0038928Y0075225D01*
X0038928Y0075618D02*
X0036172Y0075618D01*
X0036172Y0076010D02*
X0036752Y0076010D01*
X0037452Y0076010D02*
X0037648Y0076010D01*
X0037648Y0076402D02*
X0037452Y0076402D01*
X0037452Y0076794D02*
X0037648Y0076794D01*
X0037648Y0077186D02*
X0037452Y0077186D01*
X0037452Y0077579D02*
X0037648Y0077579D01*
X0037648Y0077971D02*
X0037452Y0077971D01*
X0037452Y0078363D02*
X0037648Y0078363D01*
X0037648Y0078755D02*
X0037452Y0078755D01*
X0037452Y0079147D02*
X0037648Y0079147D01*
X0037648Y0079540D02*
X0037452Y0079540D01*
X0037452Y0079932D02*
X0037648Y0079932D01*
X0037648Y0080324D02*
X0037452Y0080324D01*
X0038348Y0076010D02*
X0038928Y0076010D01*
X0046802Y0067773D02*
X0067721Y0067773D01*
X0067837Y0067381D02*
X0046802Y0067381D01*
X0046802Y0066989D02*
X0068035Y0066989D01*
X0068343Y0066597D02*
X0046802Y0066597D01*
X0046802Y0066204D02*
X0068836Y0066204D01*
X0069952Y0066204D02*
X0070148Y0066204D01*
X0070148Y0066597D02*
X0069952Y0066597D01*
X0069952Y0066989D02*
X0070148Y0066989D01*
X0070148Y0067381D02*
X0069952Y0067381D01*
X0069952Y0067773D02*
X0070148Y0067773D01*
X0070148Y0068558D02*
X0069952Y0068558D01*
X0069952Y0068950D02*
X0070148Y0068950D01*
X0070148Y0069342D02*
X0069952Y0069342D01*
X0069952Y0069734D02*
X0070148Y0069734D01*
X0070148Y0070127D02*
X0069952Y0070127D01*
X0069952Y0070519D02*
X0070148Y0070519D01*
X0070794Y0070519D02*
X0072550Y0070519D01*
X0072550Y0070127D02*
X0071526Y0070127D01*
X0071920Y0069734D02*
X0072550Y0069734D01*
X0072550Y0069342D02*
X0072173Y0069342D01*
X0072335Y0068950D02*
X0072550Y0068950D01*
X0072550Y0068558D02*
X0072414Y0068558D01*
X0070148Y0050516D02*
X0069952Y0050516D01*
X0069952Y0050124D02*
X0070148Y0050124D01*
X0070148Y0049732D02*
X0069952Y0049732D01*
X0069952Y0049339D02*
X0070148Y0049339D01*
X0070148Y0048947D02*
X0069952Y0048947D01*
X0069952Y0048555D02*
X0070148Y0048555D01*
X0070148Y0047770D02*
X0069952Y0047770D01*
X0069952Y0047378D02*
X0070148Y0047378D01*
X0070148Y0046986D02*
X0069952Y0046986D01*
X0069952Y0046594D02*
X0070148Y0046594D01*
X0070148Y0046202D02*
X0069952Y0046202D01*
X0071260Y0046202D02*
X0072550Y0046202D01*
X0072550Y0046594D02*
X0071754Y0046594D01*
X0072063Y0046986D02*
X0072550Y0046986D01*
X0072550Y0047378D02*
X0072262Y0047378D01*
X0072379Y0047770D02*
X0072550Y0047770D01*
X0069299Y0050516D02*
X0068448Y0050516D01*
X0068570Y0050124D02*
X0068055Y0050124D01*
X0068178Y0049732D02*
X0067460Y0049732D01*
X0067926Y0049339D02*
X0066513Y0049339D01*
X0062747Y0047378D02*
X0062353Y0047378D01*
X0062353Y0046986D02*
X0062747Y0046986D01*
X0062747Y0046594D02*
X0062353Y0046594D01*
X0062353Y0046202D02*
X0062747Y0046202D01*
X0062747Y0045809D02*
X0062353Y0045809D01*
X0062353Y0045417D02*
X0062747Y0045417D01*
X0062747Y0045025D02*
X0062353Y0045025D01*
X0062353Y0044633D02*
X0062747Y0044633D01*
X0062747Y0044241D02*
X0062353Y0044241D01*
X0062353Y0043848D02*
X0062747Y0043848D01*
X0062747Y0043056D02*
X0069747Y0043056D01*
X0069747Y0042923D01*
X0069644Y0042270D01*
X0069439Y0041642D01*
X0069139Y0041053D01*
X0068751Y0040519D01*
X0068284Y0040052D01*
X0067750Y0039664D01*
X0067161Y0039364D01*
X0066533Y0039159D01*
X0065880Y0039056D01*
X0062747Y0039056D01*
X0062747Y0043056D01*
X0062747Y0042672D02*
X0062353Y0042672D01*
X0062353Y0042280D02*
X0062747Y0042280D01*
X0062747Y0041887D02*
X0062353Y0041887D01*
X0062353Y0041495D02*
X0062747Y0041495D01*
X0062747Y0041103D02*
X0062353Y0041103D01*
X0062353Y0040711D02*
X0062747Y0040711D01*
X0062747Y0040318D02*
X0062353Y0040318D01*
X0062353Y0039926D02*
X0062747Y0039926D01*
X0062747Y0039534D02*
X0062353Y0039534D01*
X0062353Y0039142D02*
X0062747Y0039142D01*
X0066421Y0039142D02*
X0072550Y0039142D01*
X0072550Y0039534D02*
X0067495Y0039534D01*
X0068111Y0039926D02*
X0072550Y0039926D01*
X0072550Y0040318D02*
X0068551Y0040318D01*
X0068890Y0040711D02*
X0072550Y0040711D01*
X0072550Y0041103D02*
X0069165Y0041103D01*
X0069365Y0041495D02*
X0072550Y0041495D01*
X0072550Y0041887D02*
X0069519Y0041887D01*
X0069645Y0042280D02*
X0072550Y0042280D01*
X0072550Y0042672D02*
X0069707Y0042672D01*
X0072550Y0030753D02*
X0072546Y0030451D01*
X0072535Y0030149D01*
X0072517Y0029848D01*
X0072492Y0029547D01*
X0072459Y0029246D01*
X0072419Y0028947D01*
X0072372Y0028649D01*
X0072317Y0028351D01*
X0072256Y0028056D01*
X0072187Y0027762D01*
X0072111Y0027469D01*
X0072028Y0027179D01*
X0071938Y0026890D01*
X0071841Y0026604D01*
X0071738Y0026320D01*
X0071627Y0026039D01*
X0071510Y0025761D01*
X0071386Y0025485D01*
X0071255Y0025213D01*
X0071118Y0024944D01*
X0070975Y0024678D01*
X0070825Y0024416D01*
X0070668Y0024157D01*
X0070506Y0023903D01*
X0070337Y0023652D01*
X0070163Y0023406D01*
X0069982Y0023163D01*
X0069796Y0022926D01*
X0069604Y0022692D01*
X0069406Y0022464D01*
X0069203Y0022240D01*
X0068995Y0022022D01*
X0068781Y0021808D01*
X0068563Y0021600D01*
X0068339Y0021397D01*
X0068111Y0021199D01*
X0067877Y0021007D01*
X0067640Y0020821D01*
X0067397Y0020640D01*
X0067151Y0020466D01*
X0066900Y0020297D01*
X0066646Y0020135D01*
X0066387Y0019978D01*
X0066125Y0019828D01*
X0065859Y0019685D01*
X0065590Y0019548D01*
X0065318Y0019417D01*
X0065042Y0019293D01*
X0064764Y0019176D01*
X0064483Y0019065D01*
X0064199Y0018962D01*
X0063913Y0018865D01*
X0063624Y0018775D01*
X0063334Y0018692D01*
X0063041Y0018616D01*
X0062747Y0018547D01*
X0062452Y0018486D01*
X0062154Y0018431D01*
X0061856Y0018384D01*
X0061557Y0018344D01*
X0061256Y0018311D01*
X0060955Y0018286D01*
X0060654Y0018268D01*
X0060352Y0018257D01*
X0060050Y0018253D01*
X0072550Y0023846D02*
X0002550Y0023846D01*
X0002550Y0024238D02*
X0072550Y0024238D01*
X0072550Y0024630D02*
X0002550Y0024630D01*
X0002550Y0025022D02*
X0072550Y0025022D01*
X0072550Y0025414D02*
X0002550Y0025414D01*
X0002550Y0025807D02*
X0072550Y0025807D01*
X0072550Y0026199D02*
X0038558Y0026199D01*
X0038950Y0026591D02*
X0072550Y0026591D01*
X0072550Y0026983D02*
X0039343Y0026983D01*
X0039715Y0027375D02*
X0072550Y0027375D01*
X0072550Y0027768D02*
X0039715Y0027768D01*
X0036542Y0026199D02*
X0034621Y0026199D01*
X0035013Y0026591D02*
X0036150Y0026591D01*
X0035757Y0026983D02*
X0035405Y0026983D01*
X0032605Y0026199D02*
X0002550Y0026199D01*
X0002550Y0026591D02*
X0032213Y0026591D01*
X0036137Y0022669D02*
X0016463Y0022669D01*
X0016889Y0022277D02*
X0035711Y0022277D01*
X0035446Y0021884D02*
X0017154Y0021884D01*
X0017318Y0021492D02*
X0035282Y0021492D01*
X0035195Y0021100D02*
X0017405Y0021100D01*
X0017388Y0020316D02*
X0035212Y0020316D01*
X0035320Y0019923D02*
X0017280Y0019923D01*
X0017094Y0019531D02*
X0035506Y0019531D01*
X0035801Y0019139D02*
X0016799Y0019139D01*
X0016328Y0018747D02*
X0036272Y0018747D01*
X0015050Y0018253D02*
X0014748Y0018257D01*
X0014446Y0018268D01*
X0014145Y0018286D01*
X0013844Y0018311D01*
X0013543Y0018344D01*
X0013244Y0018384D01*
X0012946Y0018431D01*
X0012648Y0018486D01*
X0012353Y0018547D01*
X0012059Y0018616D01*
X0011766Y0018692D01*
X0011476Y0018775D01*
X0011187Y0018865D01*
X0010901Y0018962D01*
X0010617Y0019065D01*
X0010336Y0019176D01*
X0010058Y0019293D01*
X0009782Y0019417D01*
X0009510Y0019548D01*
X0009241Y0019685D01*
X0008975Y0019828D01*
X0008713Y0019978D01*
X0008454Y0020135D01*
X0008200Y0020297D01*
X0007949Y0020466D01*
X0007703Y0020640D01*
X0007460Y0020821D01*
X0007223Y0021007D01*
X0006989Y0021199D01*
X0006761Y0021397D01*
X0006537Y0021600D01*
X0006319Y0021808D01*
X0006105Y0022022D01*
X0005897Y0022240D01*
X0005694Y0022464D01*
X0005496Y0022692D01*
X0005304Y0022926D01*
X0005118Y0023163D01*
X0004937Y0023406D01*
X0004763Y0023652D01*
X0004594Y0023903D01*
X0004432Y0024157D01*
X0004275Y0024416D01*
X0004125Y0024678D01*
X0003982Y0024944D01*
X0003845Y0025213D01*
X0003714Y0025485D01*
X0003590Y0025761D01*
X0003473Y0026039D01*
X0003362Y0026320D01*
X0003259Y0026604D01*
X0003162Y0026890D01*
X0003072Y0027179D01*
X0002989Y0027469D01*
X0002913Y0027762D01*
X0002844Y0028056D01*
X0002783Y0028351D01*
X0002728Y0028649D01*
X0002681Y0028947D01*
X0002641Y0029246D01*
X0002608Y0029547D01*
X0002583Y0029848D01*
X0002565Y0030149D01*
X0002554Y0030451D01*
X0002550Y0030753D01*
X0002550Y0030513D02*
X0002895Y0030513D01*
X0002748Y0030121D02*
X0002550Y0030121D01*
X0002550Y0029729D02*
X0002672Y0029729D01*
X0002672Y0029337D02*
X0002550Y0029337D01*
X0002550Y0028944D02*
X0002737Y0028944D01*
X0002870Y0028552D02*
X0002550Y0028552D01*
X0002550Y0028160D02*
X0003087Y0028160D01*
X0003422Y0027768D02*
X0002550Y0027768D01*
X0002550Y0020316D02*
X0012712Y0020316D01*
X0012820Y0019923D02*
X0002550Y0019923D01*
X0002550Y0019531D02*
X0013006Y0019531D01*
X0013301Y0019139D02*
X0002550Y0019139D01*
X0002550Y0018747D02*
X0013772Y0018747D01*
X0005148Y0066204D02*
X0004952Y0066204D01*
X0004952Y0066597D02*
X0005148Y0066597D01*
X0005148Y0066989D02*
X0004952Y0066989D01*
X0004952Y0067381D02*
X0005148Y0067381D01*
X0005148Y0067773D02*
X0004952Y0067773D01*
X0004951Y0068166D02*
X0002550Y0068166D01*
X0002550Y0068558D02*
X0002686Y0068558D01*
X0002765Y0068950D02*
X0002550Y0068950D01*
X0002550Y0069342D02*
X0002927Y0069342D01*
X0003180Y0069734D02*
X0002550Y0069734D01*
X0002550Y0070127D02*
X0003574Y0070127D01*
X0004306Y0070519D02*
X0002550Y0070519D01*
X0002550Y0067773D02*
X0002721Y0067773D01*
X0002837Y0067381D02*
X0002550Y0067381D01*
X0002550Y0066989D02*
X0003035Y0066989D01*
X0003343Y0066597D02*
X0002550Y0066597D01*
X0002550Y0066204D02*
X0003836Y0066204D01*
D11*
X0023810Y0033253D03*
X0031290Y0033253D03*
X0043810Y0033253D03*
X0051290Y0033253D03*
D12*
X0050050Y0044513D03*
X0050050Y0051993D03*
X0025050Y0051993D03*
X0025050Y0044513D03*
D13*
X0035581Y0048253D03*
X0039519Y0048253D03*
D14*
X0059550Y0053253D02*
X0065550Y0053253D01*
X0065550Y0043253D02*
X0059550Y0043253D01*
X0015550Y0043253D02*
X0009550Y0043253D01*
X0009550Y0053253D02*
X0015550Y0053253D01*
D15*
X0032235Y0070714D03*
X0042865Y0070792D03*
D16*
X0042550Y0063253D03*
X0032550Y0063253D03*
X0037550Y0078253D03*
X0060050Y0078253D03*
X0070050Y0068253D03*
X0070050Y0048253D03*
X0070050Y0030753D03*
X0060050Y0020753D03*
X0037550Y0020753D03*
X0037550Y0028253D03*
X0033613Y0028253D03*
X0015050Y0020753D03*
X0005050Y0029503D03*
X0005050Y0048253D03*
X0005050Y0068253D03*
X0015050Y0078253D03*
D17*
X0032235Y0070714D02*
X0032235Y0063253D01*
X0032550Y0063253D01*
X0030050Y0053253D02*
X0024420Y0053253D01*
X0024420Y0052623D01*
X0023790Y0053253D01*
X0012550Y0053253D01*
X0024420Y0052623D02*
X0025050Y0051993D01*
X0026290Y0050753D01*
X0030050Y0053253D02*
X0030050Y0043253D01*
X0037550Y0035753D01*
X0037550Y0033253D01*
X0043810Y0033253D01*
X0037550Y0033253D02*
X0037550Y0028253D01*
X0033613Y0028253D02*
X0033613Y0033253D01*
X0031290Y0033253D01*
X0050050Y0051993D02*
X0051310Y0053253D01*
X0062550Y0053253D01*
X0042865Y0063253D02*
X0042865Y0070792D01*
X0042865Y0063253D02*
X0042550Y0063253D01*
M02*
