G75*
%MOIN*%
%OFA0B0*%
%FSLAX25Y25*%
%IPPOS*%
%LPD*%
%AMOC8*
5,1,8,0,0,1.08239X$1,22.5*
%
%ADD10C,0.00394*%
%ADD11R,0.05918X0.06706*%
%ADD12R,0.06706X0.05918*%
%ADD13C,0.06800*%
%ADD14R,0.06706X0.11430*%
D10*
X0015080Y0018078D02*
X0060080Y0018078D01*
X0060382Y0018082D01*
X0060684Y0018093D01*
X0060985Y0018111D01*
X0061286Y0018136D01*
X0061587Y0018169D01*
X0061886Y0018209D01*
X0062184Y0018256D01*
X0062482Y0018311D01*
X0062777Y0018372D01*
X0063071Y0018441D01*
X0063364Y0018517D01*
X0063654Y0018600D01*
X0063943Y0018690D01*
X0064229Y0018787D01*
X0064513Y0018890D01*
X0064794Y0019001D01*
X0065072Y0019118D01*
X0065348Y0019242D01*
X0065620Y0019373D01*
X0065889Y0019510D01*
X0066155Y0019653D01*
X0066417Y0019803D01*
X0066676Y0019960D01*
X0066930Y0020122D01*
X0067181Y0020291D01*
X0067427Y0020465D01*
X0067670Y0020646D01*
X0067907Y0020832D01*
X0068141Y0021024D01*
X0068369Y0021222D01*
X0068593Y0021425D01*
X0068811Y0021633D01*
X0069025Y0021847D01*
X0069233Y0022065D01*
X0069436Y0022289D01*
X0069634Y0022517D01*
X0069826Y0022751D01*
X0070012Y0022988D01*
X0070193Y0023231D01*
X0070367Y0023477D01*
X0070536Y0023728D01*
X0070698Y0023982D01*
X0070855Y0024241D01*
X0071005Y0024503D01*
X0071148Y0024769D01*
X0071285Y0025038D01*
X0071416Y0025310D01*
X0071540Y0025586D01*
X0071657Y0025864D01*
X0071768Y0026145D01*
X0071871Y0026429D01*
X0071968Y0026715D01*
X0072058Y0027004D01*
X0072141Y0027294D01*
X0072217Y0027587D01*
X0072286Y0027881D01*
X0072347Y0028176D01*
X0072402Y0028474D01*
X0072449Y0028772D01*
X0072489Y0029071D01*
X0072522Y0029372D01*
X0072547Y0029673D01*
X0072565Y0029974D01*
X0072576Y0030276D01*
X0072580Y0030578D01*
X0072580Y0068078D01*
X0072576Y0068380D01*
X0072565Y0068682D01*
X0072547Y0068983D01*
X0072522Y0069284D01*
X0072489Y0069585D01*
X0072449Y0069884D01*
X0072402Y0070182D01*
X0072347Y0070480D01*
X0072286Y0070775D01*
X0072217Y0071069D01*
X0072141Y0071362D01*
X0072058Y0071652D01*
X0071968Y0071941D01*
X0071871Y0072227D01*
X0071768Y0072511D01*
X0071657Y0072792D01*
X0071540Y0073070D01*
X0071416Y0073346D01*
X0071285Y0073618D01*
X0071148Y0073887D01*
X0071005Y0074153D01*
X0070855Y0074415D01*
X0070698Y0074674D01*
X0070536Y0074928D01*
X0070367Y0075179D01*
X0070193Y0075425D01*
X0070012Y0075668D01*
X0069826Y0075905D01*
X0069634Y0076139D01*
X0069436Y0076367D01*
X0069233Y0076591D01*
X0069025Y0076809D01*
X0068811Y0077023D01*
X0068593Y0077231D01*
X0068369Y0077434D01*
X0068141Y0077632D01*
X0067907Y0077824D01*
X0067670Y0078010D01*
X0067427Y0078191D01*
X0067181Y0078365D01*
X0066930Y0078534D01*
X0066676Y0078696D01*
X0066417Y0078853D01*
X0066155Y0079003D01*
X0065889Y0079146D01*
X0065620Y0079283D01*
X0065348Y0079414D01*
X0065072Y0079538D01*
X0064794Y0079655D01*
X0064513Y0079766D01*
X0064229Y0079869D01*
X0063943Y0079966D01*
X0063654Y0080056D01*
X0063364Y0080139D01*
X0063071Y0080215D01*
X0062777Y0080284D01*
X0062482Y0080345D01*
X0062184Y0080400D01*
X0061886Y0080447D01*
X0061587Y0080487D01*
X0061286Y0080520D01*
X0060985Y0080545D01*
X0060684Y0080563D01*
X0060382Y0080574D01*
X0060080Y0080578D01*
X0015080Y0080578D01*
X0014778Y0080574D01*
X0014476Y0080563D01*
X0014175Y0080545D01*
X0013874Y0080520D01*
X0013573Y0080487D01*
X0013274Y0080447D01*
X0012976Y0080400D01*
X0012678Y0080345D01*
X0012383Y0080284D01*
X0012089Y0080215D01*
X0011796Y0080139D01*
X0011506Y0080056D01*
X0011217Y0079966D01*
X0010931Y0079869D01*
X0010647Y0079766D01*
X0010366Y0079655D01*
X0010088Y0079538D01*
X0009812Y0079414D01*
X0009540Y0079283D01*
X0009271Y0079146D01*
X0009005Y0079003D01*
X0008743Y0078853D01*
X0008484Y0078696D01*
X0008230Y0078534D01*
X0007979Y0078365D01*
X0007733Y0078191D01*
X0007490Y0078010D01*
X0007253Y0077824D01*
X0007019Y0077632D01*
X0006791Y0077434D01*
X0006567Y0077231D01*
X0006349Y0077023D01*
X0006135Y0076809D01*
X0005927Y0076591D01*
X0005724Y0076367D01*
X0005526Y0076139D01*
X0005334Y0075905D01*
X0005148Y0075668D01*
X0004967Y0075425D01*
X0004793Y0075179D01*
X0004624Y0074928D01*
X0004462Y0074674D01*
X0004305Y0074415D01*
X0004155Y0074153D01*
X0004012Y0073887D01*
X0003875Y0073618D01*
X0003744Y0073346D01*
X0003620Y0073070D01*
X0003503Y0072792D01*
X0003392Y0072511D01*
X0003289Y0072227D01*
X0003192Y0071941D01*
X0003102Y0071652D01*
X0003019Y0071362D01*
X0002943Y0071069D01*
X0002874Y0070775D01*
X0002813Y0070480D01*
X0002758Y0070182D01*
X0002711Y0069884D01*
X0002671Y0069585D01*
X0002638Y0069284D01*
X0002613Y0068983D01*
X0002595Y0068682D01*
X0002584Y0068380D01*
X0002580Y0068078D01*
X0002580Y0030578D01*
X0002584Y0030276D01*
X0002595Y0029974D01*
X0002613Y0029673D01*
X0002638Y0029372D01*
X0002671Y0029071D01*
X0002711Y0028772D01*
X0002758Y0028474D01*
X0002813Y0028176D01*
X0002874Y0027881D01*
X0002943Y0027587D01*
X0003019Y0027294D01*
X0003102Y0027004D01*
X0003192Y0026715D01*
X0003289Y0026429D01*
X0003392Y0026145D01*
X0003503Y0025864D01*
X0003620Y0025586D01*
X0003744Y0025310D01*
X0003875Y0025038D01*
X0004012Y0024769D01*
X0004155Y0024503D01*
X0004305Y0024241D01*
X0004462Y0023982D01*
X0004624Y0023728D01*
X0004793Y0023477D01*
X0004967Y0023231D01*
X0005148Y0022988D01*
X0005334Y0022751D01*
X0005526Y0022517D01*
X0005724Y0022289D01*
X0005927Y0022065D01*
X0006135Y0021847D01*
X0006349Y0021633D01*
X0006567Y0021425D01*
X0006791Y0021222D01*
X0007019Y0021024D01*
X0007253Y0020832D01*
X0007490Y0020646D01*
X0007733Y0020465D01*
X0007979Y0020291D01*
X0008230Y0020122D01*
X0008484Y0019960D01*
X0008743Y0019803D01*
X0009005Y0019653D01*
X0009271Y0019510D01*
X0009540Y0019373D01*
X0009812Y0019242D01*
X0010088Y0019118D01*
X0010366Y0019001D01*
X0010647Y0018890D01*
X0010931Y0018787D01*
X0011217Y0018690D01*
X0011506Y0018600D01*
X0011796Y0018517D01*
X0012089Y0018441D01*
X0012383Y0018372D01*
X0012678Y0018311D01*
X0012976Y0018256D01*
X0013274Y0018209D01*
X0013573Y0018169D01*
X0013874Y0018136D01*
X0014175Y0018111D01*
X0014476Y0018093D01*
X0014778Y0018082D01*
X0015080Y0018078D01*
D11*
X0023840Y0033078D03*
X0031320Y0033078D03*
X0043840Y0033078D03*
X0051320Y0033078D03*
D12*
X0050080Y0044337D03*
X0050080Y0051818D03*
X0025080Y0051818D03*
X0025080Y0044337D03*
D13*
X0015580Y0043078D02*
X0009580Y0043078D01*
X0009580Y0053078D02*
X0015580Y0053078D01*
X0059580Y0053078D02*
X0065580Y0053078D01*
X0065580Y0043078D02*
X0059580Y0043078D01*
D14*
X0042895Y0070617D03*
X0032265Y0070538D03*
M02*
