G75*
%MOIN*%
%OFA0B0*%
%FSLAX25Y25*%
%IPPOS*%
%LPD*%
%AMOC8*
5,1,8,0,0,1.08239X$1,22.5*
%
%ADD10C,0.00394*%
%ADD11R,0.05118X0.05906*%
%ADD12R,0.05906X0.05118*%
%ADD13C,0.02400*%
%ADD14C,0.06000*%
%ADD15R,0.05906X0.10630*%
%ADD16C,0.02362*%
%ADD17C,0.01100*%
D10*
X0002550Y0018078D02*
X0002550Y0080578D01*
X0072550Y0080578D01*
X0072550Y0018078D01*
X0002550Y0018078D01*
X0002550Y0018179D02*
X0072550Y0018179D01*
X0072550Y0018571D02*
X0061328Y0018571D01*
X0061176Y0018470D02*
X0061566Y0018731D01*
X0061897Y0019062D01*
X0062157Y0019451D01*
X0062337Y0019884D01*
X0062428Y0020343D01*
X0062428Y0020479D01*
X0060148Y0020479D01*
X0060148Y0018200D01*
X0060284Y0018200D01*
X0060744Y0018291D01*
X0061176Y0018470D01*
X0061799Y0018964D02*
X0072550Y0018964D01*
X0072550Y0019356D02*
X0062094Y0019356D01*
X0062280Y0019748D02*
X0072550Y0019748D01*
X0072550Y0020140D02*
X0062388Y0020140D01*
X0062428Y0020676D02*
X0062428Y0020812D01*
X0062337Y0021271D01*
X0062157Y0021704D01*
X0061897Y0022093D01*
X0061566Y0022425D01*
X0061176Y0022685D01*
X0060744Y0022864D01*
X0060284Y0022956D01*
X0060148Y0022956D01*
X0060148Y0020676D01*
X0059952Y0020676D01*
X0059952Y0022956D01*
X0059816Y0022956D01*
X0059356Y0022864D01*
X0058924Y0022685D01*
X0058534Y0022425D01*
X0058203Y0022093D01*
X0057943Y0021704D01*
X0057763Y0021271D01*
X0057672Y0020812D01*
X0057672Y0020676D01*
X0059951Y0020676D01*
X0059951Y0020479D01*
X0057672Y0020479D01*
X0057672Y0020343D01*
X0057763Y0019884D01*
X0057943Y0019451D01*
X0058203Y0019062D01*
X0058534Y0018731D01*
X0058924Y0018470D01*
X0059356Y0018291D01*
X0059816Y0018200D01*
X0059952Y0018200D01*
X0059952Y0020479D01*
X0060148Y0020479D01*
X0060148Y0020676D01*
X0062428Y0020676D01*
X0062405Y0020925D02*
X0072550Y0020925D01*
X0072550Y0021317D02*
X0062318Y0021317D01*
X0062154Y0021709D02*
X0072550Y0021709D01*
X0072550Y0022101D02*
X0061889Y0022101D01*
X0061463Y0022494D02*
X0072550Y0022494D01*
X0072550Y0022886D02*
X0060635Y0022886D01*
X0060148Y0022886D02*
X0059952Y0022886D01*
X0059952Y0022494D02*
X0060148Y0022494D01*
X0060148Y0022101D02*
X0059952Y0022101D01*
X0059952Y0021709D02*
X0060148Y0021709D01*
X0060148Y0021317D02*
X0059952Y0021317D01*
X0059952Y0020925D02*
X0060148Y0020925D01*
X0060148Y0020532D02*
X0072550Y0020532D01*
X0072550Y0023278D02*
X0002550Y0023278D01*
X0002550Y0023670D02*
X0072550Y0023670D01*
X0072550Y0024062D02*
X0002550Y0024062D01*
X0002550Y0024455D02*
X0072550Y0024455D01*
X0072550Y0024847D02*
X0002550Y0024847D01*
X0002550Y0025239D02*
X0072550Y0025239D01*
X0072550Y0025631D02*
X0002550Y0025631D01*
X0002550Y0026023D02*
X0032605Y0026023D01*
X0032716Y0025912D02*
X0034510Y0025912D01*
X0035581Y0026984D01*
X0036653Y0025912D01*
X0038447Y0025912D01*
X0039715Y0027181D01*
X0039715Y0028975D01*
X0039084Y0029606D01*
X0039084Y0031543D01*
X0040267Y0031543D01*
X0040267Y0029717D01*
X0040843Y0029141D01*
X0046777Y0029141D01*
X0047353Y0029717D01*
X0047353Y0036438D01*
X0046777Y0037015D01*
X0040843Y0037015D01*
X0040267Y0036438D01*
X0040267Y0034612D01*
X0039084Y0034612D01*
X0039084Y0036213D01*
X0031584Y0043713D01*
X0031584Y0053713D01*
X0030686Y0054612D01*
X0028987Y0054612D01*
X0028987Y0054785D01*
X0028410Y0055361D01*
X0021690Y0055361D01*
X0021113Y0054785D01*
X0021113Y0054612D01*
X0019227Y0054612D01*
X0018928Y0055335D01*
X0017807Y0056455D01*
X0016343Y0057062D01*
X0008757Y0057062D01*
X0007293Y0056455D01*
X0006172Y0055335D01*
X0005566Y0053870D01*
X0005566Y0052285D01*
X0006172Y0050821D01*
X0007293Y0049700D01*
X0008757Y0049093D01*
X0016343Y0049093D01*
X0017807Y0049700D01*
X0018928Y0050821D01*
X0019227Y0051543D01*
X0021113Y0051543D01*
X0021113Y0048851D01*
X0021690Y0048274D01*
X0028410Y0048274D01*
X0028516Y0048380D01*
X0028516Y0047982D01*
X0028465Y0048012D01*
X0028160Y0048093D01*
X0025247Y0048093D01*
X0025247Y0044534D01*
X0024853Y0044534D01*
X0024853Y0044141D01*
X0020900Y0044141D01*
X0020900Y0041621D01*
X0020982Y0041316D01*
X0021140Y0041044D01*
X0021362Y0040821D01*
X0021635Y0040663D01*
X0021940Y0040582D01*
X0024853Y0040582D01*
X0024853Y0044141D01*
X0025247Y0044141D01*
X0025247Y0040582D01*
X0028160Y0040582D01*
X0028465Y0040663D01*
X0028738Y0040821D01*
X0028960Y0041044D01*
X0029118Y0041316D01*
X0029200Y0041621D01*
X0029200Y0041758D01*
X0029414Y0041543D01*
X0033943Y0037015D01*
X0028323Y0037015D01*
X0027747Y0036438D01*
X0027747Y0029717D01*
X0028323Y0029141D01*
X0031614Y0029141D01*
X0031448Y0028975D01*
X0031448Y0027181D01*
X0032716Y0025912D01*
X0032213Y0026416D02*
X0002550Y0026416D01*
X0002550Y0026808D02*
X0031820Y0026808D01*
X0031448Y0027200D02*
X0006128Y0027200D01*
X0006176Y0027220D02*
X0006566Y0027481D01*
X0006897Y0027812D01*
X0007157Y0028201D01*
X0007337Y0028634D01*
X0007428Y0029093D01*
X0007428Y0029229D01*
X0005148Y0029229D01*
X0005148Y0026950D01*
X0005284Y0026950D01*
X0005744Y0027041D01*
X0006176Y0027220D01*
X0006678Y0027592D02*
X0031448Y0027592D01*
X0031448Y0027985D02*
X0007012Y0027985D01*
X0007230Y0028377D02*
X0031448Y0028377D01*
X0031448Y0028769D02*
X0007363Y0028769D01*
X0007428Y0029161D02*
X0020526Y0029161D01*
X0020516Y0029167D02*
X0020789Y0029010D01*
X0021093Y0028928D01*
X0023613Y0028928D01*
X0023613Y0032881D01*
X0020054Y0032881D01*
X0020054Y0029967D01*
X0020135Y0029663D01*
X0020293Y0029390D01*
X0020516Y0029167D01*
X0020199Y0029553D02*
X0007428Y0029553D01*
X0007428Y0029562D02*
X0007337Y0030021D01*
X0007157Y0030454D01*
X0006897Y0030843D01*
X0006566Y0031175D01*
X0006176Y0031435D01*
X0005744Y0031614D01*
X0005284Y0031706D01*
X0005148Y0031706D01*
X0005148Y0029426D01*
X0004952Y0029426D01*
X0004952Y0031706D01*
X0004816Y0031706D01*
X0004356Y0031614D01*
X0003924Y0031435D01*
X0003534Y0031175D01*
X0003203Y0030843D01*
X0002943Y0030454D01*
X0002763Y0030021D01*
X0002672Y0029562D01*
X0002672Y0029426D01*
X0004951Y0029426D01*
X0004951Y0029229D01*
X0002672Y0029229D01*
X0002672Y0029093D01*
X0002763Y0028634D01*
X0002943Y0028201D01*
X0003203Y0027812D01*
X0003534Y0027481D01*
X0003924Y0027220D01*
X0004356Y0027041D01*
X0004816Y0026950D01*
X0004952Y0026950D01*
X0004952Y0029229D01*
X0005148Y0029229D01*
X0005148Y0029426D01*
X0007428Y0029426D01*
X0007428Y0029562D01*
X0007352Y0029946D02*
X0020060Y0029946D01*
X0020054Y0030338D02*
X0007205Y0030338D01*
X0006973Y0030730D02*
X0020054Y0030730D01*
X0020054Y0031122D02*
X0006618Y0031122D01*
X0005984Y0031514D02*
X0020054Y0031514D01*
X0020054Y0031907D02*
X0002550Y0031907D01*
X0002550Y0032299D02*
X0020054Y0032299D01*
X0020054Y0032691D02*
X0002550Y0032691D01*
X0002550Y0033083D02*
X0023613Y0033083D01*
X0023613Y0033274D02*
X0023613Y0032881D01*
X0024007Y0032881D01*
X0024007Y0033274D01*
X0027566Y0033274D01*
X0027566Y0036188D01*
X0027484Y0036492D01*
X0027327Y0036765D01*
X0027104Y0036988D01*
X0026831Y0037146D01*
X0026526Y0037227D01*
X0024007Y0037227D01*
X0024007Y0033275D01*
X0023613Y0033275D01*
X0023613Y0037227D01*
X0021093Y0037227D01*
X0020789Y0037146D01*
X0020516Y0036988D01*
X0020293Y0036765D01*
X0020135Y0036492D01*
X0020054Y0036188D01*
X0020054Y0033274D01*
X0023613Y0033274D01*
X0023613Y0033475D02*
X0024007Y0033475D01*
X0024007Y0033083D02*
X0027747Y0033083D01*
X0027566Y0032881D02*
X0024007Y0032881D01*
X0024007Y0028928D01*
X0026526Y0028928D01*
X0026831Y0029010D01*
X0027104Y0029167D01*
X0027327Y0029390D01*
X0027484Y0029663D01*
X0027566Y0029967D01*
X0027566Y0032881D01*
X0027566Y0032691D02*
X0027747Y0032691D01*
X0027747Y0032299D02*
X0027566Y0032299D01*
X0027566Y0031907D02*
X0027747Y0031907D01*
X0027747Y0031514D02*
X0027566Y0031514D01*
X0027566Y0031122D02*
X0027747Y0031122D01*
X0027747Y0030730D02*
X0027566Y0030730D01*
X0027566Y0030338D02*
X0027747Y0030338D01*
X0027747Y0029946D02*
X0027560Y0029946D01*
X0027421Y0029553D02*
X0027911Y0029553D01*
X0028303Y0029161D02*
X0027093Y0029161D01*
X0024007Y0029161D02*
X0023613Y0029161D01*
X0023613Y0029553D02*
X0024007Y0029553D01*
X0024007Y0029946D02*
X0023613Y0029946D01*
X0023613Y0030338D02*
X0024007Y0030338D01*
X0024007Y0030730D02*
X0023613Y0030730D01*
X0023613Y0031122D02*
X0024007Y0031122D01*
X0024007Y0031514D02*
X0023613Y0031514D01*
X0023613Y0031907D02*
X0024007Y0031907D01*
X0024007Y0032299D02*
X0023613Y0032299D01*
X0023613Y0032691D02*
X0024007Y0032691D01*
X0024007Y0033868D02*
X0023613Y0033868D01*
X0023613Y0034260D02*
X0024007Y0034260D01*
X0024007Y0034652D02*
X0023613Y0034652D01*
X0023613Y0035044D02*
X0024007Y0035044D01*
X0024007Y0035437D02*
X0023613Y0035437D01*
X0023613Y0035829D02*
X0024007Y0035829D01*
X0024007Y0036221D02*
X0023613Y0036221D01*
X0023613Y0036613D02*
X0024007Y0036613D01*
X0024007Y0037005D02*
X0023613Y0037005D01*
X0020546Y0037005D02*
X0002550Y0037005D01*
X0002550Y0036613D02*
X0020205Y0036613D01*
X0020063Y0036221D02*
X0002550Y0036221D01*
X0002550Y0035829D02*
X0020054Y0035829D01*
X0020054Y0035437D02*
X0002550Y0035437D01*
X0002550Y0035044D02*
X0020054Y0035044D01*
X0020054Y0034652D02*
X0002550Y0034652D01*
X0002550Y0034260D02*
X0020054Y0034260D01*
X0020054Y0033868D02*
X0002550Y0033868D01*
X0002550Y0033475D02*
X0020054Y0033475D01*
X0017161Y0039188D02*
X0016533Y0038984D01*
X0015880Y0038881D01*
X0012747Y0038881D01*
X0012747Y0042881D01*
X0012747Y0043274D01*
X0019747Y0043274D01*
X0019747Y0043408D01*
X0019644Y0044060D01*
X0019439Y0044689D01*
X0019139Y0045277D01*
X0018751Y0045812D01*
X0018284Y0046279D01*
X0017750Y0046667D01*
X0017161Y0046967D01*
X0016533Y0047171D01*
X0015880Y0047274D01*
X0012747Y0047274D01*
X0012747Y0043275D01*
X0012353Y0043275D01*
X0012353Y0047274D01*
X0009220Y0047274D01*
X0008567Y0047171D01*
X0007939Y0046967D01*
X0007350Y0046667D01*
X0006816Y0046279D01*
X0006349Y0045812D01*
X0005961Y0045277D01*
X0005661Y0044689D01*
X0005456Y0044060D01*
X0005353Y0043408D01*
X0005353Y0043274D01*
X0012353Y0043274D01*
X0012353Y0042881D01*
X0005353Y0042881D01*
X0005353Y0042747D01*
X0005456Y0042095D01*
X0005661Y0041467D01*
X0005961Y0040878D01*
X0006349Y0040344D01*
X0006816Y0039876D01*
X0007350Y0039488D01*
X0007939Y0039188D01*
X0008567Y0038984D01*
X0009220Y0038881D01*
X0012353Y0038881D01*
X0012353Y0042881D01*
X0012747Y0042881D01*
X0019747Y0042881D01*
X0019747Y0042747D01*
X0019644Y0042095D01*
X0019439Y0041467D01*
X0019139Y0040878D01*
X0018751Y0040344D01*
X0018284Y0039876D01*
X0017750Y0039488D01*
X0017161Y0039188D01*
X0017495Y0039359D02*
X0031599Y0039359D01*
X0031207Y0039751D02*
X0018111Y0039751D01*
X0018551Y0040143D02*
X0030815Y0040143D01*
X0030423Y0040535D02*
X0018890Y0040535D01*
X0019165Y0040928D02*
X0021256Y0040928D01*
X0020981Y0041320D02*
X0019365Y0041320D01*
X0019519Y0041712D02*
X0020900Y0041712D01*
X0020900Y0042104D02*
X0019645Y0042104D01*
X0019707Y0042496D02*
X0020900Y0042496D01*
X0020900Y0042889D02*
X0012747Y0042889D01*
X0012747Y0043281D02*
X0012353Y0043281D01*
X0012353Y0043673D02*
X0012747Y0043673D01*
X0012747Y0044065D02*
X0012353Y0044065D01*
X0012353Y0044457D02*
X0012747Y0044457D01*
X0012747Y0044850D02*
X0012353Y0044850D01*
X0012353Y0045242D02*
X0012747Y0045242D01*
X0012747Y0045634D02*
X0012353Y0045634D01*
X0012353Y0046026D02*
X0012747Y0046026D01*
X0012747Y0046418D02*
X0012353Y0046418D01*
X0012353Y0046811D02*
X0012747Y0046811D01*
X0012747Y0047203D02*
X0012353Y0047203D01*
X0008768Y0047203D02*
X0007262Y0047203D01*
X0007337Y0047384D02*
X0007157Y0046951D01*
X0006897Y0046562D01*
X0006566Y0046231D01*
X0006176Y0045970D01*
X0005744Y0045791D01*
X0005284Y0045700D01*
X0005148Y0045700D01*
X0005148Y0047979D01*
X0004952Y0047979D01*
X0004952Y0045700D01*
X0004816Y0045700D01*
X0004356Y0045791D01*
X0003924Y0045970D01*
X0003534Y0046231D01*
X0003203Y0046562D01*
X0002943Y0046951D01*
X0002763Y0047384D01*
X0002672Y0047843D01*
X0002672Y0047979D01*
X0004951Y0047979D01*
X0004951Y0048176D01*
X0002672Y0048176D01*
X0002672Y0048312D01*
X0002763Y0048771D01*
X0002943Y0049204D01*
X0003203Y0049593D01*
X0003534Y0049925D01*
X0003924Y0050185D01*
X0004356Y0050364D01*
X0004816Y0050456D01*
X0004952Y0050456D01*
X0004952Y0048176D01*
X0005148Y0048176D01*
X0005148Y0050456D01*
X0005284Y0050456D01*
X0005744Y0050364D01*
X0006176Y0050185D01*
X0006566Y0049925D01*
X0006897Y0049593D01*
X0007157Y0049204D01*
X0007337Y0048771D01*
X0007428Y0048312D01*
X0007428Y0048176D01*
X0005148Y0048176D01*
X0005148Y0047979D01*
X0007428Y0047979D01*
X0007428Y0047843D01*
X0007337Y0047384D01*
X0007379Y0047595D02*
X0021119Y0047595D01*
X0021140Y0047631D02*
X0020982Y0047358D01*
X0020900Y0047054D01*
X0020900Y0044534D01*
X0024853Y0044534D01*
X0024853Y0048093D01*
X0021940Y0048093D01*
X0021635Y0048012D01*
X0021362Y0047854D01*
X0021140Y0047631D01*
X0020940Y0047203D02*
X0016332Y0047203D01*
X0017468Y0046811D02*
X0020900Y0046811D01*
X0020900Y0046418D02*
X0018092Y0046418D01*
X0018537Y0046026D02*
X0020900Y0046026D01*
X0020900Y0045634D02*
X0018880Y0045634D01*
X0019158Y0045242D02*
X0020900Y0045242D01*
X0020900Y0044850D02*
X0019357Y0044850D01*
X0019515Y0044457D02*
X0024853Y0044457D01*
X0024853Y0044065D02*
X0025247Y0044065D01*
X0025247Y0043673D02*
X0024853Y0043673D01*
X0024853Y0043281D02*
X0025247Y0043281D01*
X0025247Y0042889D02*
X0024853Y0042889D01*
X0024853Y0042496D02*
X0025247Y0042496D01*
X0025247Y0042104D02*
X0024853Y0042104D01*
X0024853Y0041712D02*
X0025247Y0041712D01*
X0025247Y0041320D02*
X0024853Y0041320D01*
X0024853Y0040928D02*
X0025247Y0040928D01*
X0025247Y0044850D02*
X0024853Y0044850D01*
X0024853Y0045242D02*
X0025247Y0045242D01*
X0025247Y0045634D02*
X0024853Y0045634D01*
X0024853Y0046026D02*
X0025247Y0046026D01*
X0025247Y0046418D02*
X0024853Y0046418D01*
X0024853Y0046811D02*
X0025247Y0046811D01*
X0025247Y0047203D02*
X0024853Y0047203D01*
X0024853Y0047595D02*
X0025247Y0047595D01*
X0025247Y0047987D02*
X0024853Y0047987D01*
X0021593Y0047987D02*
X0005148Y0047987D01*
X0004951Y0047987D02*
X0002550Y0047987D01*
X0002550Y0047595D02*
X0002721Y0047595D01*
X0002838Y0047203D02*
X0002550Y0047203D01*
X0002550Y0046811D02*
X0003037Y0046811D01*
X0003346Y0046418D02*
X0002550Y0046418D01*
X0002550Y0046026D02*
X0003840Y0046026D01*
X0004952Y0046026D02*
X0005148Y0046026D01*
X0005148Y0046418D02*
X0004952Y0046418D01*
X0004952Y0046811D02*
X0005148Y0046811D01*
X0005148Y0047203D02*
X0004952Y0047203D01*
X0004952Y0047595D02*
X0005148Y0047595D01*
X0005148Y0048380D02*
X0004952Y0048380D01*
X0004952Y0048772D02*
X0005148Y0048772D01*
X0005148Y0049164D02*
X0004952Y0049164D01*
X0004952Y0049556D02*
X0005148Y0049556D01*
X0005148Y0049948D02*
X0004952Y0049948D01*
X0004952Y0050341D02*
X0005148Y0050341D01*
X0005801Y0050341D02*
X0006652Y0050341D01*
X0006530Y0049948D02*
X0007045Y0049948D01*
X0006922Y0049556D02*
X0007640Y0049556D01*
X0007174Y0049164D02*
X0008587Y0049164D01*
X0007336Y0048772D02*
X0021192Y0048772D01*
X0021113Y0049164D02*
X0016513Y0049164D01*
X0017460Y0049556D02*
X0021113Y0049556D01*
X0021113Y0049948D02*
X0018055Y0049948D01*
X0018448Y0050341D02*
X0021113Y0050341D01*
X0021113Y0050733D02*
X0018840Y0050733D01*
X0019054Y0051125D02*
X0021113Y0051125D01*
X0021113Y0051517D02*
X0019216Y0051517D01*
X0021584Y0048380D02*
X0007414Y0048380D01*
X0007632Y0046811D02*
X0007063Y0046811D01*
X0007008Y0046418D02*
X0006754Y0046418D01*
X0006563Y0046026D02*
X0006260Y0046026D01*
X0006220Y0045634D02*
X0002550Y0045634D01*
X0002550Y0045242D02*
X0005942Y0045242D01*
X0005743Y0044850D02*
X0002550Y0044850D01*
X0002550Y0044457D02*
X0005585Y0044457D01*
X0005458Y0044065D02*
X0002550Y0044065D01*
X0002550Y0043673D02*
X0005395Y0043673D01*
X0005353Y0043281D02*
X0002550Y0043281D01*
X0002550Y0042889D02*
X0012353Y0042889D01*
X0012353Y0042496D02*
X0012747Y0042496D01*
X0012747Y0042104D02*
X0012353Y0042104D01*
X0012353Y0041712D02*
X0012747Y0041712D01*
X0012747Y0041320D02*
X0012353Y0041320D01*
X0012353Y0040928D02*
X0012747Y0040928D01*
X0012747Y0040535D02*
X0012353Y0040535D01*
X0012353Y0040143D02*
X0012747Y0040143D01*
X0012747Y0039751D02*
X0012353Y0039751D01*
X0012353Y0039359D02*
X0012747Y0039359D01*
X0012747Y0038966D02*
X0012353Y0038966D01*
X0008679Y0038966D02*
X0002550Y0038966D01*
X0002550Y0038574D02*
X0032384Y0038574D01*
X0032776Y0038182D02*
X0002550Y0038182D01*
X0002550Y0037790D02*
X0033168Y0037790D01*
X0033560Y0037398D02*
X0002550Y0037398D01*
X0002550Y0039359D02*
X0007605Y0039359D01*
X0006989Y0039751D02*
X0002550Y0039751D01*
X0002550Y0040143D02*
X0006549Y0040143D01*
X0006210Y0040535D02*
X0002550Y0040535D01*
X0002550Y0040928D02*
X0005935Y0040928D01*
X0005735Y0041320D02*
X0002550Y0041320D01*
X0002550Y0041712D02*
X0005581Y0041712D01*
X0005455Y0042104D02*
X0002550Y0042104D01*
X0002550Y0042496D02*
X0005393Y0042496D01*
X0002686Y0048380D02*
X0002550Y0048380D01*
X0002550Y0048772D02*
X0002764Y0048772D01*
X0002926Y0049164D02*
X0002550Y0049164D01*
X0002550Y0049556D02*
X0003178Y0049556D01*
X0003570Y0049948D02*
X0002550Y0049948D01*
X0002550Y0050341D02*
X0004299Y0050341D01*
X0002550Y0050733D02*
X0006260Y0050733D01*
X0006046Y0051125D02*
X0002550Y0051125D01*
X0002550Y0051517D02*
X0005884Y0051517D01*
X0005721Y0051909D02*
X0002550Y0051909D01*
X0002550Y0052302D02*
X0005566Y0052302D01*
X0005566Y0052694D02*
X0002550Y0052694D01*
X0002550Y0053086D02*
X0005566Y0053086D01*
X0005566Y0053478D02*
X0002550Y0053478D01*
X0002550Y0053871D02*
X0005566Y0053871D01*
X0005728Y0054263D02*
X0002550Y0054263D01*
X0002550Y0054655D02*
X0005891Y0054655D01*
X0006053Y0055047D02*
X0002550Y0055047D01*
X0002550Y0055439D02*
X0006277Y0055439D01*
X0006669Y0055832D02*
X0002550Y0055832D01*
X0002550Y0056224D02*
X0007062Y0056224D01*
X0007681Y0056616D02*
X0002550Y0056616D01*
X0002550Y0057008D02*
X0008628Y0057008D01*
X0002550Y0057400D02*
X0072550Y0057400D01*
X0072550Y0057008D02*
X0066472Y0057008D01*
X0066343Y0057062D02*
X0058757Y0057062D01*
X0057293Y0056455D01*
X0056172Y0055335D01*
X0055873Y0054612D01*
X0053987Y0054612D01*
X0053987Y0054785D01*
X0053410Y0055361D01*
X0046690Y0055361D01*
X0046113Y0054785D01*
X0046113Y0048851D01*
X0046690Y0048274D01*
X0053410Y0048274D01*
X0053987Y0048851D01*
X0053987Y0051543D01*
X0055873Y0051543D01*
X0056172Y0050821D01*
X0057293Y0049700D01*
X0058757Y0049093D01*
X0066343Y0049093D01*
X0067807Y0049700D01*
X0068928Y0050821D01*
X0069534Y0052285D01*
X0069534Y0053870D01*
X0068928Y0055335D01*
X0067807Y0056455D01*
X0066343Y0057062D01*
X0067419Y0056616D02*
X0072550Y0056616D01*
X0072550Y0056224D02*
X0068038Y0056224D01*
X0068431Y0055832D02*
X0072550Y0055832D01*
X0072550Y0055439D02*
X0068823Y0055439D01*
X0069047Y0055047D02*
X0072550Y0055047D01*
X0072550Y0054655D02*
X0069209Y0054655D01*
X0069372Y0054263D02*
X0072550Y0054263D01*
X0072550Y0053871D02*
X0069534Y0053871D01*
X0069534Y0053478D02*
X0072550Y0053478D01*
X0072550Y0053086D02*
X0069534Y0053086D01*
X0069534Y0052694D02*
X0072550Y0052694D01*
X0072550Y0052302D02*
X0069534Y0052302D01*
X0069379Y0051909D02*
X0072550Y0051909D01*
X0072550Y0051517D02*
X0069216Y0051517D01*
X0069054Y0051125D02*
X0072550Y0051125D01*
X0072550Y0050733D02*
X0068840Y0050733D01*
X0068924Y0050185D02*
X0068534Y0049925D01*
X0068203Y0049593D01*
X0067943Y0049204D01*
X0067763Y0048771D01*
X0067672Y0048312D01*
X0067672Y0048176D01*
X0069951Y0048176D01*
X0069951Y0047979D01*
X0067672Y0047979D01*
X0067672Y0047843D01*
X0067763Y0047384D01*
X0067943Y0046951D01*
X0068203Y0046562D01*
X0068534Y0046231D01*
X0068924Y0045970D01*
X0069356Y0045791D01*
X0069816Y0045700D01*
X0069952Y0045700D01*
X0069952Y0047979D01*
X0070148Y0047979D01*
X0070148Y0045700D01*
X0070284Y0045700D01*
X0070744Y0045791D01*
X0071176Y0045970D01*
X0071566Y0046231D01*
X0071897Y0046562D01*
X0072157Y0046951D01*
X0072337Y0047384D01*
X0072428Y0047843D01*
X0072428Y0047979D01*
X0070148Y0047979D01*
X0070148Y0048176D01*
X0069952Y0048176D01*
X0069952Y0050456D01*
X0069816Y0050456D01*
X0069356Y0050364D01*
X0068924Y0050185D01*
X0069299Y0050341D02*
X0068448Y0050341D01*
X0068570Y0049948D02*
X0068055Y0049948D01*
X0068178Y0049556D02*
X0067460Y0049556D01*
X0067926Y0049164D02*
X0066513Y0049164D01*
X0067764Y0048772D02*
X0053908Y0048772D01*
X0053987Y0049164D02*
X0058587Y0049164D01*
X0057640Y0049556D02*
X0053987Y0049556D01*
X0053987Y0049948D02*
X0057045Y0049948D01*
X0056652Y0050341D02*
X0053987Y0050341D01*
X0053987Y0050733D02*
X0056260Y0050733D01*
X0056046Y0051125D02*
X0053987Y0051125D01*
X0053987Y0051517D02*
X0055884Y0051517D01*
X0055891Y0054655D02*
X0053987Y0054655D01*
X0053724Y0055047D02*
X0056053Y0055047D01*
X0056277Y0055439D02*
X0018823Y0055439D01*
X0019047Y0055047D02*
X0021376Y0055047D01*
X0021113Y0054655D02*
X0019209Y0054655D01*
X0018431Y0055832D02*
X0056669Y0055832D01*
X0057062Y0056224D02*
X0018038Y0056224D01*
X0017419Y0056616D02*
X0057681Y0056616D01*
X0058628Y0057008D02*
X0016472Y0057008D01*
X0006897Y0066562D02*
X0007157Y0066951D01*
X0007337Y0067384D01*
X0007428Y0067843D01*
X0007428Y0067979D01*
X0005148Y0067979D01*
X0005148Y0065700D01*
X0005284Y0065700D01*
X0005744Y0065791D01*
X0006176Y0065970D01*
X0006566Y0066231D01*
X0006897Y0066562D01*
X0006757Y0066421D02*
X0028298Y0066421D01*
X0028298Y0066029D02*
X0006264Y0066029D01*
X0007065Y0066814D02*
X0028298Y0066814D01*
X0028298Y0067206D02*
X0007263Y0067206D01*
X0007379Y0067598D02*
X0028298Y0067598D01*
X0028298Y0067990D02*
X0005148Y0067990D01*
X0005148Y0067979D02*
X0005148Y0068176D01*
X0004952Y0068176D01*
X0004952Y0070456D01*
X0004816Y0070456D01*
X0004356Y0070364D01*
X0003924Y0070185D01*
X0003534Y0069925D01*
X0003203Y0069593D01*
X0002943Y0069204D01*
X0002763Y0068771D01*
X0002672Y0068312D01*
X0002672Y0068176D01*
X0004951Y0068176D01*
X0004951Y0067979D01*
X0002672Y0067979D01*
X0002672Y0067843D01*
X0002763Y0067384D01*
X0002943Y0066951D01*
X0003203Y0066562D01*
X0003534Y0066231D01*
X0003924Y0065970D01*
X0004356Y0065791D01*
X0004816Y0065700D01*
X0004952Y0065700D01*
X0004952Y0067979D01*
X0005148Y0067979D01*
X0004951Y0067990D02*
X0002550Y0067990D01*
X0002550Y0068078D02*
X0002550Y0030578D01*
X0002550Y0030730D02*
X0003127Y0030730D01*
X0002895Y0030338D02*
X0002550Y0030338D01*
X0002550Y0029946D02*
X0002748Y0029946D01*
X0002672Y0029553D02*
X0002550Y0029553D01*
X0002550Y0029161D02*
X0002672Y0029161D01*
X0002737Y0028769D02*
X0002550Y0028769D01*
X0002550Y0028377D02*
X0002870Y0028377D01*
X0003087Y0027985D02*
X0002550Y0027985D01*
X0002550Y0027592D02*
X0003422Y0027592D01*
X0003972Y0027200D02*
X0002550Y0027200D01*
X0004952Y0027200D02*
X0005148Y0027200D01*
X0005148Y0027592D02*
X0004952Y0027592D01*
X0004952Y0027985D02*
X0005148Y0027985D01*
X0005148Y0028377D02*
X0004952Y0028377D01*
X0004952Y0028769D02*
X0005148Y0028769D01*
X0005148Y0029161D02*
X0004952Y0029161D01*
X0004952Y0029553D02*
X0005148Y0029553D01*
X0005148Y0029946D02*
X0004952Y0029946D01*
X0004952Y0030338D02*
X0005148Y0030338D01*
X0005148Y0030730D02*
X0004952Y0030730D01*
X0004952Y0031122D02*
X0005148Y0031122D01*
X0005148Y0031514D02*
X0004952Y0031514D01*
X0004116Y0031514D02*
X0002550Y0031514D01*
X0002550Y0031122D02*
X0003482Y0031122D01*
X0002550Y0022886D02*
X0014465Y0022886D01*
X0014356Y0022864D02*
X0013924Y0022685D01*
X0013534Y0022425D01*
X0013203Y0022093D01*
X0012943Y0021704D01*
X0012763Y0021271D01*
X0012672Y0020812D01*
X0012672Y0020676D01*
X0014951Y0020676D01*
X0014951Y0020479D01*
X0012672Y0020479D01*
X0012672Y0020343D01*
X0012763Y0019884D01*
X0012943Y0019451D01*
X0013203Y0019062D01*
X0013534Y0018731D01*
X0013924Y0018470D01*
X0014356Y0018291D01*
X0014816Y0018200D01*
X0014952Y0018200D01*
X0014952Y0020479D01*
X0015148Y0020479D01*
X0015148Y0018200D01*
X0015284Y0018200D01*
X0015744Y0018291D01*
X0016176Y0018470D01*
X0016566Y0018731D01*
X0016897Y0019062D01*
X0017157Y0019451D01*
X0017337Y0019884D01*
X0017428Y0020343D01*
X0017428Y0020479D01*
X0015148Y0020479D01*
X0015148Y0020676D01*
X0014952Y0020676D01*
X0014952Y0022956D01*
X0014816Y0022956D01*
X0014356Y0022864D01*
X0014952Y0022886D02*
X0015148Y0022886D01*
X0015148Y0022956D02*
X0015284Y0022956D01*
X0015744Y0022864D01*
X0016176Y0022685D01*
X0016566Y0022425D01*
X0016897Y0022093D01*
X0017157Y0021704D01*
X0017337Y0021271D01*
X0017428Y0020812D01*
X0017428Y0020676D01*
X0015148Y0020676D01*
X0015148Y0022956D01*
X0015148Y0022494D02*
X0014952Y0022494D01*
X0014952Y0022101D02*
X0015148Y0022101D01*
X0015148Y0021709D02*
X0014952Y0021709D01*
X0014952Y0021317D02*
X0015148Y0021317D01*
X0015148Y0020925D02*
X0014952Y0020925D01*
X0014951Y0020532D02*
X0002550Y0020532D01*
X0002550Y0020140D02*
X0012712Y0020140D01*
X0012820Y0019748D02*
X0002550Y0019748D01*
X0002550Y0019356D02*
X0013006Y0019356D01*
X0013301Y0018964D02*
X0002550Y0018964D01*
X0002550Y0018571D02*
X0013772Y0018571D01*
X0014952Y0018571D02*
X0015148Y0018571D01*
X0015148Y0018964D02*
X0014952Y0018964D01*
X0014952Y0019356D02*
X0015148Y0019356D01*
X0015148Y0019748D02*
X0014952Y0019748D01*
X0014952Y0020140D02*
X0015148Y0020140D01*
X0015148Y0020532D02*
X0037451Y0020532D01*
X0037451Y0020479D02*
X0035172Y0020479D01*
X0035172Y0020343D01*
X0035263Y0019884D01*
X0035443Y0019451D01*
X0035703Y0019062D01*
X0036034Y0018731D01*
X0036424Y0018470D01*
X0036856Y0018291D01*
X0037316Y0018200D01*
X0037452Y0018200D01*
X0037452Y0020479D01*
X0037648Y0020479D01*
X0037648Y0018200D01*
X0037784Y0018200D01*
X0038244Y0018291D01*
X0038676Y0018470D01*
X0039066Y0018731D01*
X0039397Y0019062D01*
X0039657Y0019451D01*
X0039837Y0019884D01*
X0039928Y0020343D01*
X0039928Y0020479D01*
X0037648Y0020479D01*
X0037648Y0020676D01*
X0037452Y0020676D01*
X0037452Y0022956D01*
X0037316Y0022956D01*
X0036856Y0022864D01*
X0036424Y0022685D01*
X0036034Y0022425D01*
X0035703Y0022093D01*
X0035443Y0021704D01*
X0035263Y0021271D01*
X0035172Y0020812D01*
X0035172Y0020676D01*
X0037451Y0020676D01*
X0037451Y0020479D01*
X0037648Y0020532D02*
X0059951Y0020532D01*
X0059952Y0020140D02*
X0060148Y0020140D01*
X0060148Y0019748D02*
X0059952Y0019748D01*
X0059952Y0019356D02*
X0060148Y0019356D01*
X0060148Y0018964D02*
X0059952Y0018964D01*
X0059952Y0018571D02*
X0060148Y0018571D01*
X0060050Y0018078D02*
X0015050Y0018078D01*
X0016328Y0018571D02*
X0036272Y0018571D01*
X0035801Y0018964D02*
X0016799Y0018964D01*
X0017094Y0019356D02*
X0035506Y0019356D01*
X0035320Y0019748D02*
X0017280Y0019748D01*
X0017388Y0020140D02*
X0035212Y0020140D01*
X0035195Y0020925D02*
X0017405Y0020925D01*
X0017318Y0021317D02*
X0035282Y0021317D01*
X0035446Y0021709D02*
X0017154Y0021709D01*
X0016889Y0022101D02*
X0035711Y0022101D01*
X0036137Y0022494D02*
X0016463Y0022494D01*
X0015635Y0022886D02*
X0036965Y0022886D01*
X0037452Y0022886D02*
X0037648Y0022886D01*
X0037648Y0022956D02*
X0037784Y0022956D01*
X0038244Y0022864D01*
X0038676Y0022685D01*
X0039066Y0022425D01*
X0039397Y0022093D01*
X0039657Y0021704D01*
X0039837Y0021271D01*
X0039928Y0020812D01*
X0039928Y0020676D01*
X0037648Y0020676D01*
X0037648Y0022956D01*
X0037648Y0022494D02*
X0037452Y0022494D01*
X0037452Y0022101D02*
X0037648Y0022101D01*
X0037648Y0021709D02*
X0037452Y0021709D01*
X0037452Y0021317D02*
X0037648Y0021317D01*
X0037648Y0020925D02*
X0037452Y0020925D01*
X0037452Y0020140D02*
X0037648Y0020140D01*
X0037648Y0019748D02*
X0037452Y0019748D01*
X0037452Y0019356D02*
X0037648Y0019356D01*
X0037648Y0018964D02*
X0037452Y0018964D01*
X0037452Y0018571D02*
X0037648Y0018571D01*
X0038828Y0018571D02*
X0058772Y0018571D01*
X0058301Y0018964D02*
X0039299Y0018964D01*
X0039594Y0019356D02*
X0058006Y0019356D01*
X0057820Y0019748D02*
X0039780Y0019748D01*
X0039888Y0020140D02*
X0057712Y0020140D01*
X0057695Y0020925D02*
X0039905Y0020925D01*
X0039818Y0021317D02*
X0057782Y0021317D01*
X0057946Y0021709D02*
X0039654Y0021709D01*
X0039389Y0022101D02*
X0058211Y0022101D01*
X0058637Y0022494D02*
X0038963Y0022494D01*
X0038135Y0022886D02*
X0059465Y0022886D01*
X0054584Y0029167D02*
X0054311Y0029010D01*
X0054007Y0028928D01*
X0051487Y0028928D01*
X0051487Y0032881D01*
X0051487Y0033274D01*
X0055046Y0033274D01*
X0055046Y0036188D01*
X0054964Y0036492D01*
X0054807Y0036765D01*
X0054584Y0036988D01*
X0054311Y0037146D01*
X0054007Y0037227D01*
X0051487Y0037227D01*
X0051487Y0033275D01*
X0051093Y0033275D01*
X0051093Y0037227D01*
X0048574Y0037227D01*
X0048269Y0037146D01*
X0047996Y0036988D01*
X0047773Y0036765D01*
X0047616Y0036492D01*
X0047534Y0036188D01*
X0047534Y0033274D01*
X0051093Y0033274D01*
X0051093Y0032881D01*
X0047534Y0032881D01*
X0047534Y0029967D01*
X0047616Y0029663D01*
X0047773Y0029390D01*
X0047996Y0029167D01*
X0048269Y0029010D01*
X0048574Y0028928D01*
X0051093Y0028928D01*
X0051093Y0032881D01*
X0051487Y0032881D01*
X0055046Y0032881D01*
X0055046Y0029967D01*
X0054964Y0029663D01*
X0054807Y0029390D01*
X0054584Y0029167D01*
X0054574Y0029161D02*
X0068137Y0029161D01*
X0068203Y0029062D02*
X0068534Y0028731D01*
X0068924Y0028470D01*
X0069356Y0028291D01*
X0069816Y0028200D01*
X0069952Y0028200D01*
X0069952Y0030479D01*
X0070148Y0030479D01*
X0070148Y0028200D01*
X0070284Y0028200D01*
X0070744Y0028291D01*
X0071176Y0028470D01*
X0071566Y0028731D01*
X0071897Y0029062D01*
X0072157Y0029451D01*
X0072337Y0029884D01*
X0072428Y0030343D01*
X0072428Y0030479D01*
X0070148Y0030479D01*
X0070148Y0030676D01*
X0069952Y0030676D01*
X0069952Y0032956D01*
X0069816Y0032956D01*
X0069356Y0032864D01*
X0068924Y0032685D01*
X0068534Y0032425D01*
X0068203Y0032093D01*
X0067943Y0031704D01*
X0067763Y0031271D01*
X0067672Y0030812D01*
X0067672Y0030676D01*
X0069951Y0030676D01*
X0069951Y0030479D01*
X0067672Y0030479D01*
X0067672Y0030343D01*
X0067763Y0029884D01*
X0067943Y0029451D01*
X0068203Y0029062D01*
X0068496Y0028769D02*
X0039715Y0028769D01*
X0039715Y0028377D02*
X0069150Y0028377D01*
X0069952Y0028377D02*
X0070148Y0028377D01*
X0070148Y0028769D02*
X0069952Y0028769D01*
X0069952Y0029161D02*
X0070148Y0029161D01*
X0070148Y0029553D02*
X0069952Y0029553D01*
X0069952Y0029946D02*
X0070148Y0029946D01*
X0070148Y0030338D02*
X0069952Y0030338D01*
X0070148Y0030676D02*
X0072428Y0030676D01*
X0072428Y0030812D01*
X0072337Y0031271D01*
X0072157Y0031704D01*
X0071897Y0032093D01*
X0071566Y0032425D01*
X0071176Y0032685D01*
X0070744Y0032864D01*
X0070284Y0032956D01*
X0070148Y0032956D01*
X0070148Y0030676D01*
X0070148Y0030730D02*
X0069952Y0030730D01*
X0069952Y0031122D02*
X0070148Y0031122D01*
X0070148Y0031514D02*
X0069952Y0031514D01*
X0069952Y0031907D02*
X0070148Y0031907D01*
X0070148Y0032299D02*
X0069952Y0032299D01*
X0069952Y0032691D02*
X0070148Y0032691D01*
X0071162Y0032691D02*
X0072550Y0032691D01*
X0072550Y0032299D02*
X0071692Y0032299D01*
X0072022Y0031907D02*
X0072550Y0031907D01*
X0072550Y0031514D02*
X0072236Y0031514D01*
X0072366Y0031122D02*
X0072550Y0031122D01*
X0072550Y0030730D02*
X0072428Y0030730D01*
X0072550Y0030578D02*
X0072550Y0068078D01*
X0072550Y0067990D02*
X0070148Y0067990D01*
X0070148Y0067979D02*
X0070148Y0068176D01*
X0069952Y0068176D01*
X0069952Y0070456D01*
X0069816Y0070456D01*
X0069356Y0070364D01*
X0068924Y0070185D01*
X0068534Y0069925D01*
X0068203Y0069593D01*
X0067943Y0069204D01*
X0067763Y0068771D01*
X0067672Y0068312D01*
X0067672Y0068176D01*
X0069951Y0068176D01*
X0069951Y0067979D01*
X0067672Y0067979D01*
X0067672Y0067843D01*
X0067763Y0067384D01*
X0067943Y0066951D01*
X0068203Y0066562D01*
X0068534Y0066231D01*
X0068924Y0065970D01*
X0069356Y0065791D01*
X0069816Y0065700D01*
X0069952Y0065700D01*
X0069952Y0067979D01*
X0070148Y0067979D01*
X0070148Y0065700D01*
X0070284Y0065700D01*
X0070744Y0065791D01*
X0071176Y0065970D01*
X0071566Y0066231D01*
X0071897Y0066562D01*
X0072157Y0066951D01*
X0072337Y0067384D01*
X0072428Y0067843D01*
X0072428Y0067979D01*
X0070148Y0067979D01*
X0069951Y0067990D02*
X0046802Y0067990D01*
X0046802Y0067598D02*
X0067721Y0067598D01*
X0067837Y0067206D02*
X0046802Y0067206D01*
X0046802Y0066814D02*
X0068035Y0066814D01*
X0068343Y0066421D02*
X0046802Y0066421D01*
X0046802Y0066029D02*
X0068836Y0066029D01*
X0069952Y0066029D02*
X0070148Y0066029D01*
X0070148Y0066421D02*
X0069952Y0066421D01*
X0069952Y0066814D02*
X0070148Y0066814D01*
X0070148Y0067206D02*
X0069952Y0067206D01*
X0069952Y0067598D02*
X0070148Y0067598D01*
X0070148Y0068176D02*
X0072428Y0068176D01*
X0072428Y0068312D01*
X0072337Y0068771D01*
X0072157Y0069204D01*
X0071897Y0069593D01*
X0071566Y0069925D01*
X0071176Y0070185D01*
X0070744Y0070364D01*
X0070284Y0070456D01*
X0070148Y0070456D01*
X0070148Y0068176D01*
X0070148Y0068382D02*
X0069952Y0068382D01*
X0069952Y0068775D02*
X0070148Y0068775D01*
X0070148Y0069167D02*
X0069952Y0069167D01*
X0069952Y0069559D02*
X0070148Y0069559D01*
X0070148Y0069951D02*
X0069952Y0069951D01*
X0069952Y0070343D02*
X0070148Y0070343D01*
X0070794Y0070343D02*
X0072550Y0070343D01*
X0072550Y0069951D02*
X0071526Y0069951D01*
X0071920Y0069559D02*
X0072550Y0069559D01*
X0072550Y0069167D02*
X0072173Y0069167D01*
X0072335Y0068775D02*
X0072550Y0068775D01*
X0072550Y0068382D02*
X0072414Y0068382D01*
X0072379Y0067598D02*
X0072550Y0067598D01*
X0072550Y0067206D02*
X0072263Y0067206D01*
X0072065Y0066814D02*
X0072550Y0066814D01*
X0072550Y0066421D02*
X0071757Y0066421D01*
X0071264Y0066029D02*
X0072550Y0066029D01*
X0072550Y0065637D02*
X0046802Y0065637D01*
X0046802Y0065245D02*
X0072550Y0065245D01*
X0072550Y0064852D02*
X0046760Y0064852D01*
X0046802Y0064894D02*
X0046802Y0076340D01*
X0046225Y0076916D01*
X0039634Y0076916D01*
X0039657Y0076951D01*
X0039837Y0077384D01*
X0039928Y0077843D01*
X0039928Y0077979D01*
X0037648Y0077979D01*
X0037648Y0075700D01*
X0037784Y0075700D01*
X0038244Y0075791D01*
X0038676Y0075970D01*
X0038928Y0076138D01*
X0038928Y0064894D01*
X0039505Y0064318D01*
X0040728Y0064318D01*
X0040385Y0063975D01*
X0040385Y0062181D01*
X0041653Y0060912D01*
X0043447Y0060912D01*
X0044715Y0062181D01*
X0044715Y0063975D01*
X0044399Y0064291D01*
X0044399Y0064318D01*
X0046225Y0064318D01*
X0046802Y0064894D01*
X0046368Y0064460D02*
X0072550Y0064460D01*
X0072550Y0064068D02*
X0044622Y0064068D01*
X0044715Y0063676D02*
X0072550Y0063676D01*
X0072550Y0063284D02*
X0044715Y0063284D01*
X0044715Y0062891D02*
X0072550Y0062891D01*
X0072550Y0062499D02*
X0044715Y0062499D01*
X0044642Y0062107D02*
X0072550Y0062107D01*
X0072550Y0061715D02*
X0044249Y0061715D01*
X0043857Y0061323D02*
X0072550Y0061323D01*
X0072550Y0060930D02*
X0043465Y0060930D01*
X0041635Y0060930D02*
X0033465Y0060930D01*
X0033447Y0060912D02*
X0034715Y0062181D01*
X0034715Y0063975D01*
X0034451Y0064239D01*
X0035595Y0064239D01*
X0036172Y0064816D01*
X0036172Y0076138D01*
X0036424Y0075970D01*
X0036856Y0075791D01*
X0037316Y0075700D01*
X0037452Y0075700D01*
X0037452Y0077979D01*
X0037648Y0077979D01*
X0037648Y0078176D01*
X0037452Y0078176D01*
X0037452Y0080456D01*
X0037316Y0080456D01*
X0036856Y0080364D01*
X0036424Y0080185D01*
X0036034Y0079925D01*
X0035703Y0079593D01*
X0035443Y0079204D01*
X0035263Y0078771D01*
X0035172Y0078312D01*
X0035172Y0078176D01*
X0037451Y0078176D01*
X0037451Y0077979D01*
X0035172Y0077979D01*
X0035172Y0077843D01*
X0035263Y0077384D01*
X0035443Y0076951D01*
X0035519Y0076837D01*
X0028875Y0076837D01*
X0028298Y0076261D01*
X0028298Y0064816D01*
X0028875Y0064239D01*
X0030649Y0064239D01*
X0030385Y0063975D01*
X0030385Y0062181D01*
X0031653Y0060912D01*
X0033447Y0060912D01*
X0033857Y0061323D02*
X0041243Y0061323D01*
X0040851Y0061715D02*
X0034249Y0061715D01*
X0034642Y0062107D02*
X0040458Y0062107D01*
X0040385Y0062499D02*
X0034715Y0062499D01*
X0034715Y0062891D02*
X0040385Y0062891D01*
X0040385Y0063284D02*
X0034715Y0063284D01*
X0034715Y0063676D02*
X0040385Y0063676D01*
X0040478Y0064068D02*
X0034622Y0064068D01*
X0035817Y0064460D02*
X0039362Y0064460D01*
X0038970Y0064852D02*
X0036172Y0064852D01*
X0036172Y0065245D02*
X0038928Y0065245D01*
X0038928Y0065637D02*
X0036172Y0065637D01*
X0036172Y0066029D02*
X0038928Y0066029D01*
X0038928Y0066421D02*
X0036172Y0066421D01*
X0036172Y0066814D02*
X0038928Y0066814D01*
X0038928Y0067206D02*
X0036172Y0067206D01*
X0036172Y0067598D02*
X0038928Y0067598D01*
X0038928Y0067990D02*
X0036172Y0067990D01*
X0036172Y0068382D02*
X0038928Y0068382D01*
X0038928Y0068775D02*
X0036172Y0068775D01*
X0036172Y0069167D02*
X0038928Y0069167D01*
X0038928Y0069559D02*
X0036172Y0069559D01*
X0036172Y0069951D02*
X0038928Y0069951D01*
X0038928Y0070343D02*
X0036172Y0070343D01*
X0036172Y0070736D02*
X0038928Y0070736D01*
X0038928Y0071128D02*
X0036172Y0071128D01*
X0036172Y0071520D02*
X0038928Y0071520D01*
X0038928Y0071912D02*
X0036172Y0071912D01*
X0036172Y0072304D02*
X0038928Y0072304D01*
X0038928Y0072697D02*
X0036172Y0072697D01*
X0036172Y0073089D02*
X0038928Y0073089D01*
X0038928Y0073481D02*
X0036172Y0073481D01*
X0036172Y0073873D02*
X0038928Y0073873D01*
X0038928Y0074266D02*
X0036172Y0074266D01*
X0036172Y0074658D02*
X0038928Y0074658D01*
X0038928Y0075050D02*
X0036172Y0075050D01*
X0036172Y0075442D02*
X0038928Y0075442D01*
X0038928Y0075834D02*
X0038348Y0075834D01*
X0037648Y0075834D02*
X0037452Y0075834D01*
X0037452Y0076227D02*
X0037648Y0076227D01*
X0037648Y0076619D02*
X0037452Y0076619D01*
X0037452Y0077011D02*
X0037648Y0077011D01*
X0037648Y0077403D02*
X0037452Y0077403D01*
X0037452Y0077795D02*
X0037648Y0077795D01*
X0037648Y0078176D02*
X0039928Y0078176D01*
X0039928Y0078312D01*
X0039837Y0078771D01*
X0039657Y0079204D01*
X0039397Y0079593D01*
X0039066Y0079925D01*
X0038676Y0080185D01*
X0038244Y0080364D01*
X0037784Y0080456D01*
X0037648Y0080456D01*
X0037648Y0078176D01*
X0037648Y0078188D02*
X0037452Y0078188D01*
X0037452Y0078580D02*
X0037648Y0078580D01*
X0037648Y0078972D02*
X0037452Y0078972D01*
X0037452Y0079364D02*
X0037648Y0079364D01*
X0037648Y0079757D02*
X0037452Y0079757D01*
X0037452Y0080149D02*
X0037648Y0080149D01*
X0038731Y0080149D02*
X0058869Y0080149D01*
X0058924Y0080185D02*
X0058534Y0079925D01*
X0058203Y0079593D01*
X0057943Y0079204D01*
X0057763Y0078771D01*
X0057672Y0078312D01*
X0057672Y0078176D01*
X0059951Y0078176D01*
X0059951Y0077979D01*
X0057672Y0077979D01*
X0057672Y0077843D01*
X0057763Y0077384D01*
X0057943Y0076951D01*
X0058203Y0076562D01*
X0058534Y0076231D01*
X0058924Y0075970D01*
X0059356Y0075791D01*
X0059816Y0075700D01*
X0059952Y0075700D01*
X0059952Y0077979D01*
X0060148Y0077979D01*
X0060148Y0075700D01*
X0060284Y0075700D01*
X0060744Y0075791D01*
X0061176Y0075970D01*
X0061566Y0076231D01*
X0061897Y0076562D01*
X0062157Y0076951D01*
X0062337Y0077384D01*
X0062428Y0077843D01*
X0062428Y0077979D01*
X0060148Y0077979D01*
X0060148Y0078176D01*
X0059952Y0078176D01*
X0059952Y0080456D01*
X0059816Y0080456D01*
X0059356Y0080364D01*
X0058924Y0080185D01*
X0058366Y0079757D02*
X0039234Y0079757D01*
X0039550Y0079364D02*
X0058050Y0079364D01*
X0057847Y0078972D02*
X0039753Y0078972D01*
X0039875Y0078580D02*
X0057725Y0078580D01*
X0057672Y0078188D02*
X0039928Y0078188D01*
X0039918Y0077795D02*
X0057682Y0077795D01*
X0057760Y0077403D02*
X0039840Y0077403D01*
X0039682Y0077011D02*
X0057918Y0077011D01*
X0058165Y0076619D02*
X0046523Y0076619D01*
X0046802Y0076227D02*
X0058540Y0076227D01*
X0059252Y0075834D02*
X0046802Y0075834D01*
X0046802Y0075442D02*
X0072550Y0075442D01*
X0072550Y0075050D02*
X0046802Y0075050D01*
X0046802Y0074658D02*
X0072550Y0074658D01*
X0072550Y0074266D02*
X0046802Y0074266D01*
X0046802Y0073873D02*
X0072550Y0073873D01*
X0072550Y0073481D02*
X0046802Y0073481D01*
X0046802Y0073089D02*
X0072550Y0073089D01*
X0072550Y0072697D02*
X0046802Y0072697D01*
X0046802Y0072304D02*
X0072550Y0072304D01*
X0072550Y0071912D02*
X0046802Y0071912D01*
X0046802Y0071520D02*
X0072550Y0071520D01*
X0072550Y0071128D02*
X0046802Y0071128D01*
X0046802Y0070736D02*
X0072550Y0070736D01*
X0069306Y0070343D02*
X0046802Y0070343D01*
X0046802Y0069951D02*
X0068574Y0069951D01*
X0068180Y0069559D02*
X0046802Y0069559D01*
X0046802Y0069167D02*
X0067927Y0069167D01*
X0067765Y0068775D02*
X0046802Y0068775D01*
X0046802Y0068382D02*
X0067686Y0068382D01*
X0072550Y0075834D02*
X0060848Y0075834D01*
X0060148Y0075834D02*
X0059952Y0075834D01*
X0059952Y0076227D02*
X0060148Y0076227D01*
X0060148Y0076619D02*
X0059952Y0076619D01*
X0059952Y0077011D02*
X0060148Y0077011D01*
X0060148Y0077403D02*
X0059952Y0077403D01*
X0059952Y0077795D02*
X0060148Y0077795D01*
X0060148Y0078176D02*
X0062428Y0078176D01*
X0062428Y0078312D01*
X0062337Y0078771D01*
X0062157Y0079204D01*
X0061897Y0079593D01*
X0061566Y0079925D01*
X0061176Y0080185D01*
X0060744Y0080364D01*
X0060284Y0080456D01*
X0060148Y0080456D01*
X0060148Y0078176D01*
X0060148Y0078188D02*
X0059952Y0078188D01*
X0059952Y0078580D02*
X0060148Y0078580D01*
X0060148Y0078972D02*
X0059952Y0078972D01*
X0059952Y0079364D02*
X0060148Y0079364D01*
X0060148Y0079757D02*
X0059952Y0079757D01*
X0059952Y0080149D02*
X0060148Y0080149D01*
X0060050Y0080578D02*
X0015050Y0080578D01*
X0015148Y0080456D02*
X0015284Y0080456D01*
X0015744Y0080364D01*
X0016176Y0080185D01*
X0016566Y0079925D01*
X0016897Y0079593D01*
X0017157Y0079204D01*
X0017337Y0078771D01*
X0017428Y0078312D01*
X0017428Y0078176D01*
X0015148Y0078176D01*
X0014952Y0078176D01*
X0014952Y0080456D01*
X0014816Y0080456D01*
X0014356Y0080364D01*
X0013924Y0080185D01*
X0013534Y0079925D01*
X0013203Y0079593D01*
X0012943Y0079204D01*
X0012763Y0078771D01*
X0012672Y0078312D01*
X0012672Y0078176D01*
X0014951Y0078176D01*
X0014951Y0077979D01*
X0012672Y0077979D01*
X0012672Y0077843D01*
X0012763Y0077384D01*
X0012943Y0076951D01*
X0013203Y0076562D01*
X0013534Y0076231D01*
X0013924Y0075970D01*
X0014356Y0075791D01*
X0014816Y0075700D01*
X0014952Y0075700D01*
X0014952Y0077979D01*
X0015148Y0077979D01*
X0015148Y0075700D01*
X0015284Y0075700D01*
X0015744Y0075791D01*
X0016176Y0075970D01*
X0016566Y0076231D01*
X0016897Y0076562D01*
X0017157Y0076951D01*
X0017337Y0077384D01*
X0017428Y0077843D01*
X0017428Y0077979D01*
X0015148Y0077979D01*
X0015148Y0078176D01*
X0015148Y0080456D01*
X0015148Y0080149D02*
X0014952Y0080149D01*
X0014952Y0079757D02*
X0015148Y0079757D01*
X0015148Y0079364D02*
X0014952Y0079364D01*
X0014952Y0078972D02*
X0015148Y0078972D01*
X0015148Y0078580D02*
X0014952Y0078580D01*
X0014952Y0078188D02*
X0015148Y0078188D01*
X0015148Y0077795D02*
X0014952Y0077795D01*
X0014952Y0077403D02*
X0015148Y0077403D01*
X0015148Y0077011D02*
X0014952Y0077011D01*
X0014952Y0076619D02*
X0015148Y0076619D01*
X0015148Y0076227D02*
X0014952Y0076227D01*
X0014952Y0075834D02*
X0015148Y0075834D01*
X0015848Y0075834D02*
X0028298Y0075834D01*
X0028298Y0075442D02*
X0002550Y0075442D01*
X0002550Y0075050D02*
X0028298Y0075050D01*
X0028298Y0074658D02*
X0002550Y0074658D01*
X0002550Y0074266D02*
X0028298Y0074266D01*
X0028298Y0073873D02*
X0002550Y0073873D01*
X0002550Y0073481D02*
X0028298Y0073481D01*
X0028298Y0073089D02*
X0002550Y0073089D01*
X0002550Y0072697D02*
X0028298Y0072697D01*
X0028298Y0072304D02*
X0002550Y0072304D01*
X0002550Y0071912D02*
X0028298Y0071912D01*
X0028298Y0071520D02*
X0002550Y0071520D01*
X0002550Y0071128D02*
X0028298Y0071128D01*
X0028298Y0070736D02*
X0002550Y0070736D01*
X0002550Y0070343D02*
X0004306Y0070343D01*
X0004952Y0070343D02*
X0005148Y0070343D01*
X0005148Y0070456D02*
X0005284Y0070456D01*
X0005744Y0070364D01*
X0006176Y0070185D01*
X0006566Y0069925D01*
X0006897Y0069593D01*
X0007157Y0069204D01*
X0007337Y0068771D01*
X0007428Y0068312D01*
X0007428Y0068176D01*
X0005148Y0068176D01*
X0005148Y0070456D01*
X0005148Y0069951D02*
X0004952Y0069951D01*
X0004952Y0069559D02*
X0005148Y0069559D01*
X0005148Y0069167D02*
X0004952Y0069167D01*
X0004952Y0068775D02*
X0005148Y0068775D01*
X0005148Y0068382D02*
X0004952Y0068382D01*
X0004952Y0067598D02*
X0005148Y0067598D01*
X0005148Y0067206D02*
X0004952Y0067206D01*
X0004952Y0066814D02*
X0005148Y0066814D01*
X0005148Y0066421D02*
X0004952Y0066421D01*
X0004952Y0066029D02*
X0005148Y0066029D01*
X0003836Y0066029D02*
X0002550Y0066029D01*
X0002550Y0065637D02*
X0028298Y0065637D01*
X0028298Y0065245D02*
X0002550Y0065245D01*
X0002550Y0064852D02*
X0028298Y0064852D01*
X0028653Y0064460D02*
X0002550Y0064460D01*
X0002550Y0064068D02*
X0030478Y0064068D01*
X0030385Y0063676D02*
X0002550Y0063676D01*
X0002550Y0063284D02*
X0030385Y0063284D01*
X0030385Y0062891D02*
X0002550Y0062891D01*
X0002550Y0062499D02*
X0030385Y0062499D01*
X0030458Y0062107D02*
X0002550Y0062107D01*
X0002550Y0061715D02*
X0030851Y0061715D01*
X0031243Y0061323D02*
X0002550Y0061323D01*
X0002550Y0060930D02*
X0031635Y0060930D01*
X0028724Y0055047D02*
X0046376Y0055047D01*
X0046113Y0054655D02*
X0028987Y0054655D01*
X0031035Y0054263D02*
X0046113Y0054263D01*
X0046113Y0053871D02*
X0031427Y0053871D01*
X0031584Y0053478D02*
X0046113Y0053478D01*
X0046113Y0053086D02*
X0031584Y0053086D01*
X0031584Y0052694D02*
X0046113Y0052694D01*
X0046113Y0052302D02*
X0031584Y0052302D01*
X0031584Y0051909D02*
X0046113Y0051909D01*
X0046113Y0051517D02*
X0031584Y0051517D01*
X0031584Y0051125D02*
X0046113Y0051125D01*
X0046113Y0050733D02*
X0031584Y0050733D01*
X0031584Y0050341D02*
X0046113Y0050341D01*
X0046113Y0049948D02*
X0031584Y0049948D01*
X0031584Y0049556D02*
X0046113Y0049556D01*
X0046113Y0049164D02*
X0031584Y0049164D01*
X0031584Y0048772D02*
X0046192Y0048772D01*
X0046584Y0048380D02*
X0031584Y0048380D01*
X0031584Y0047987D02*
X0046593Y0047987D01*
X0046635Y0048012D02*
X0046362Y0047854D01*
X0046140Y0047631D01*
X0045982Y0047358D01*
X0045900Y0047054D01*
X0045900Y0044534D01*
X0049853Y0044534D01*
X0049853Y0044141D01*
X0045900Y0044141D01*
X0045900Y0041621D01*
X0045982Y0041316D01*
X0046140Y0041044D01*
X0046362Y0040821D01*
X0046635Y0040663D01*
X0046940Y0040582D01*
X0049853Y0040582D01*
X0049853Y0044141D01*
X0050247Y0044141D01*
X0050247Y0044534D01*
X0054200Y0044534D01*
X0054200Y0047054D01*
X0054118Y0047358D01*
X0053960Y0047631D01*
X0053738Y0047854D01*
X0053465Y0048012D01*
X0053160Y0048093D01*
X0050247Y0048093D01*
X0050247Y0044534D01*
X0049853Y0044534D01*
X0049853Y0048093D01*
X0046940Y0048093D01*
X0046635Y0048012D01*
X0046119Y0047595D02*
X0031584Y0047595D01*
X0031584Y0047203D02*
X0045940Y0047203D01*
X0045900Y0046811D02*
X0031584Y0046811D01*
X0031584Y0046418D02*
X0045900Y0046418D01*
X0045900Y0046026D02*
X0031584Y0046026D01*
X0031584Y0045634D02*
X0045900Y0045634D01*
X0045900Y0045242D02*
X0031584Y0045242D01*
X0031584Y0044850D02*
X0045900Y0044850D01*
X0045900Y0044065D02*
X0031584Y0044065D01*
X0031584Y0044457D02*
X0049853Y0044457D01*
X0049853Y0044065D02*
X0050247Y0044065D01*
X0050247Y0044141D02*
X0050247Y0040582D01*
X0053160Y0040582D01*
X0053465Y0040663D01*
X0053738Y0040821D01*
X0053960Y0041044D01*
X0054118Y0041316D01*
X0054200Y0041621D01*
X0054200Y0044141D01*
X0050247Y0044141D01*
X0050247Y0044457D02*
X0055585Y0044457D01*
X0055661Y0044689D02*
X0055456Y0044060D01*
X0055353Y0043408D01*
X0055353Y0043274D01*
X0062353Y0043274D01*
X0062353Y0042881D01*
X0055353Y0042881D01*
X0055353Y0042747D01*
X0055456Y0042095D01*
X0055661Y0041467D01*
X0055961Y0040878D01*
X0056349Y0040344D01*
X0056816Y0039876D01*
X0057350Y0039488D01*
X0057939Y0039188D01*
X0058567Y0038984D01*
X0059220Y0038881D01*
X0062353Y0038881D01*
X0062353Y0042881D01*
X0062747Y0042881D01*
X0062747Y0043274D01*
X0069747Y0043274D01*
X0069747Y0043408D01*
X0069644Y0044060D01*
X0069439Y0044689D01*
X0069139Y0045277D01*
X0068751Y0045812D01*
X0068284Y0046279D01*
X0067750Y0046667D01*
X0067161Y0046967D01*
X0066533Y0047171D01*
X0065880Y0047274D01*
X0062747Y0047274D01*
X0062747Y0043275D01*
X0062353Y0043275D01*
X0062353Y0047274D01*
X0059220Y0047274D01*
X0058567Y0047171D01*
X0057939Y0046967D01*
X0057350Y0046667D01*
X0056816Y0046279D01*
X0056349Y0045812D01*
X0055961Y0045277D01*
X0055661Y0044689D01*
X0055743Y0044850D02*
X0054200Y0044850D01*
X0054200Y0045242D02*
X0055942Y0045242D01*
X0056220Y0045634D02*
X0054200Y0045634D01*
X0054200Y0046026D02*
X0056563Y0046026D01*
X0057008Y0046418D02*
X0054200Y0046418D01*
X0054200Y0046811D02*
X0057632Y0046811D01*
X0058768Y0047203D02*
X0054160Y0047203D01*
X0053981Y0047595D02*
X0067721Y0047595D01*
X0067838Y0047203D02*
X0066332Y0047203D01*
X0067468Y0046811D02*
X0068037Y0046811D01*
X0068092Y0046418D02*
X0068346Y0046418D01*
X0068537Y0046026D02*
X0068840Y0046026D01*
X0068880Y0045634D02*
X0072550Y0045634D01*
X0072550Y0045242D02*
X0069158Y0045242D01*
X0069357Y0044850D02*
X0072550Y0044850D01*
X0072550Y0044457D02*
X0069515Y0044457D01*
X0069642Y0044065D02*
X0072550Y0044065D01*
X0072550Y0043673D02*
X0069705Y0043673D01*
X0069747Y0043281D02*
X0072550Y0043281D01*
X0072550Y0042889D02*
X0062747Y0042889D01*
X0062747Y0042881D02*
X0069747Y0042881D01*
X0069747Y0042747D01*
X0069644Y0042095D01*
X0069439Y0041467D01*
X0069139Y0040878D01*
X0068751Y0040344D01*
X0068284Y0039876D01*
X0067750Y0039488D01*
X0067161Y0039188D01*
X0066533Y0038984D01*
X0065880Y0038881D01*
X0062747Y0038881D01*
X0062747Y0042881D01*
X0062747Y0042496D02*
X0062353Y0042496D01*
X0062353Y0042104D02*
X0062747Y0042104D01*
X0062747Y0041712D02*
X0062353Y0041712D01*
X0062353Y0041320D02*
X0062747Y0041320D01*
X0062747Y0040928D02*
X0062353Y0040928D01*
X0062353Y0040535D02*
X0062747Y0040535D01*
X0062747Y0040143D02*
X0062353Y0040143D01*
X0062353Y0039751D02*
X0062747Y0039751D01*
X0062747Y0039359D02*
X0062353Y0039359D01*
X0062353Y0038966D02*
X0062747Y0038966D01*
X0066421Y0038966D02*
X0072550Y0038966D01*
X0072550Y0038574D02*
X0036723Y0038574D01*
X0037115Y0038182D02*
X0072550Y0038182D01*
X0072550Y0037790D02*
X0037508Y0037790D01*
X0037900Y0037398D02*
X0072550Y0037398D01*
X0072550Y0037005D02*
X0054554Y0037005D01*
X0054895Y0036613D02*
X0072550Y0036613D01*
X0072550Y0036221D02*
X0055037Y0036221D01*
X0055046Y0035829D02*
X0072550Y0035829D01*
X0072550Y0035437D02*
X0055046Y0035437D01*
X0055046Y0035044D02*
X0072550Y0035044D01*
X0072550Y0034652D02*
X0055046Y0034652D01*
X0055046Y0034260D02*
X0072550Y0034260D01*
X0072550Y0033868D02*
X0055046Y0033868D01*
X0055046Y0033475D02*
X0072550Y0033475D01*
X0072550Y0033083D02*
X0051487Y0033083D01*
X0051487Y0032691D02*
X0051093Y0032691D01*
X0051093Y0032299D02*
X0051487Y0032299D01*
X0051487Y0031907D02*
X0051093Y0031907D01*
X0051093Y0031514D02*
X0051487Y0031514D01*
X0051487Y0031122D02*
X0051093Y0031122D01*
X0051093Y0030730D02*
X0051487Y0030730D01*
X0051487Y0030338D02*
X0051093Y0030338D01*
X0051093Y0029946D02*
X0051487Y0029946D01*
X0051487Y0029553D02*
X0051093Y0029553D01*
X0051093Y0029161D02*
X0051487Y0029161D01*
X0054901Y0029553D02*
X0067900Y0029553D01*
X0067751Y0029946D02*
X0055040Y0029946D01*
X0055046Y0030338D02*
X0067673Y0030338D01*
X0067672Y0030730D02*
X0055046Y0030730D01*
X0055046Y0031122D02*
X0067734Y0031122D01*
X0067864Y0031514D02*
X0055046Y0031514D01*
X0055046Y0031907D02*
X0068078Y0031907D01*
X0068408Y0032299D02*
X0055046Y0032299D01*
X0055046Y0032691D02*
X0068938Y0032691D01*
X0072427Y0030338D02*
X0072550Y0030338D01*
X0072550Y0029946D02*
X0072349Y0029946D01*
X0072200Y0029553D02*
X0072550Y0029553D01*
X0072550Y0029161D02*
X0071963Y0029161D01*
X0071604Y0028769D02*
X0072550Y0028769D01*
X0072550Y0028377D02*
X0070950Y0028377D01*
X0072550Y0027985D02*
X0039715Y0027985D01*
X0039715Y0027592D02*
X0072550Y0027592D01*
X0072550Y0027200D02*
X0039715Y0027200D01*
X0039343Y0026808D02*
X0072550Y0026808D01*
X0072550Y0026416D02*
X0038950Y0026416D01*
X0038558Y0026023D02*
X0072550Y0026023D01*
X0072550Y0030578D02*
X0072546Y0030276D01*
X0072535Y0029974D01*
X0072517Y0029673D01*
X0072492Y0029372D01*
X0072459Y0029071D01*
X0072419Y0028772D01*
X0072372Y0028474D01*
X0072317Y0028176D01*
X0072256Y0027881D01*
X0072187Y0027587D01*
X0072111Y0027294D01*
X0072028Y0027004D01*
X0071938Y0026715D01*
X0071841Y0026429D01*
X0071738Y0026145D01*
X0071627Y0025864D01*
X0071510Y0025586D01*
X0071386Y0025310D01*
X0071255Y0025038D01*
X0071118Y0024769D01*
X0070975Y0024503D01*
X0070825Y0024241D01*
X0070668Y0023982D01*
X0070506Y0023728D01*
X0070337Y0023477D01*
X0070163Y0023231D01*
X0069982Y0022988D01*
X0069796Y0022751D01*
X0069604Y0022517D01*
X0069406Y0022289D01*
X0069203Y0022065D01*
X0068995Y0021847D01*
X0068781Y0021633D01*
X0068563Y0021425D01*
X0068339Y0021222D01*
X0068111Y0021024D01*
X0067877Y0020832D01*
X0067640Y0020646D01*
X0067397Y0020465D01*
X0067151Y0020291D01*
X0066900Y0020122D01*
X0066646Y0019960D01*
X0066387Y0019803D01*
X0066125Y0019653D01*
X0065859Y0019510D01*
X0065590Y0019373D01*
X0065318Y0019242D01*
X0065042Y0019118D01*
X0064764Y0019001D01*
X0064483Y0018890D01*
X0064199Y0018787D01*
X0063913Y0018690D01*
X0063624Y0018600D01*
X0063334Y0018517D01*
X0063041Y0018441D01*
X0062747Y0018372D01*
X0062452Y0018311D01*
X0062154Y0018256D01*
X0061856Y0018209D01*
X0061557Y0018169D01*
X0061256Y0018136D01*
X0060955Y0018111D01*
X0060654Y0018093D01*
X0060352Y0018082D01*
X0060050Y0018078D01*
X0048007Y0029161D02*
X0046797Y0029161D01*
X0047189Y0029553D02*
X0047679Y0029553D01*
X0047540Y0029946D02*
X0047353Y0029946D01*
X0047353Y0030338D02*
X0047534Y0030338D01*
X0047534Y0030730D02*
X0047353Y0030730D01*
X0047353Y0031122D02*
X0047534Y0031122D01*
X0047534Y0031514D02*
X0047353Y0031514D01*
X0047353Y0031907D02*
X0047534Y0031907D01*
X0047534Y0032299D02*
X0047353Y0032299D01*
X0047353Y0032691D02*
X0047534Y0032691D01*
X0047353Y0033083D02*
X0051093Y0033083D01*
X0051093Y0033475D02*
X0051487Y0033475D01*
X0051487Y0033868D02*
X0051093Y0033868D01*
X0051093Y0034260D02*
X0051487Y0034260D01*
X0051487Y0034652D02*
X0051093Y0034652D01*
X0051093Y0035044D02*
X0051487Y0035044D01*
X0051487Y0035437D02*
X0051093Y0035437D01*
X0051093Y0035829D02*
X0051487Y0035829D01*
X0051487Y0036221D02*
X0051093Y0036221D01*
X0051093Y0036613D02*
X0051487Y0036613D01*
X0051487Y0037005D02*
X0051093Y0037005D01*
X0048026Y0037005D02*
X0046786Y0037005D01*
X0047178Y0036613D02*
X0047686Y0036613D01*
X0047543Y0036221D02*
X0047353Y0036221D01*
X0047353Y0035829D02*
X0047534Y0035829D01*
X0047534Y0035437D02*
X0047353Y0035437D01*
X0047353Y0035044D02*
X0047534Y0035044D01*
X0047534Y0034652D02*
X0047353Y0034652D01*
X0047353Y0034260D02*
X0047534Y0034260D01*
X0047534Y0033868D02*
X0047353Y0033868D01*
X0047353Y0033475D02*
X0047534Y0033475D01*
X0046256Y0040928D02*
X0034370Y0040928D01*
X0033978Y0041320D02*
X0045981Y0041320D01*
X0045900Y0041712D02*
X0033585Y0041712D01*
X0033193Y0042104D02*
X0045900Y0042104D01*
X0045900Y0042496D02*
X0032801Y0042496D01*
X0032409Y0042889D02*
X0045900Y0042889D01*
X0045900Y0043281D02*
X0032017Y0043281D01*
X0031624Y0043673D02*
X0045900Y0043673D01*
X0049853Y0043673D02*
X0050247Y0043673D01*
X0050247Y0043281D02*
X0049853Y0043281D01*
X0049853Y0042889D02*
X0050247Y0042889D01*
X0050247Y0042496D02*
X0049853Y0042496D01*
X0049853Y0042104D02*
X0050247Y0042104D01*
X0050247Y0041712D02*
X0049853Y0041712D01*
X0049853Y0041320D02*
X0050247Y0041320D01*
X0050247Y0040928D02*
X0049853Y0040928D01*
X0049853Y0044850D02*
X0050247Y0044850D01*
X0050247Y0045242D02*
X0049853Y0045242D01*
X0049853Y0045634D02*
X0050247Y0045634D01*
X0050247Y0046026D02*
X0049853Y0046026D01*
X0049853Y0046418D02*
X0050247Y0046418D01*
X0050247Y0046811D02*
X0049853Y0046811D01*
X0049853Y0047203D02*
X0050247Y0047203D01*
X0050247Y0047595D02*
X0049853Y0047595D01*
X0049853Y0047987D02*
X0050247Y0047987D01*
X0053507Y0047987D02*
X0069951Y0047987D01*
X0070148Y0047987D02*
X0072550Y0047987D01*
X0072428Y0048176D02*
X0072428Y0048312D01*
X0072337Y0048771D01*
X0072157Y0049204D01*
X0071897Y0049593D01*
X0071566Y0049925D01*
X0071176Y0050185D01*
X0070744Y0050364D01*
X0070284Y0050456D01*
X0070148Y0050456D01*
X0070148Y0048176D01*
X0072428Y0048176D01*
X0072414Y0048380D02*
X0072550Y0048380D01*
X0072550Y0048772D02*
X0072336Y0048772D01*
X0072174Y0049164D02*
X0072550Y0049164D01*
X0072550Y0049556D02*
X0071922Y0049556D01*
X0071530Y0049948D02*
X0072550Y0049948D01*
X0072550Y0050341D02*
X0070801Y0050341D01*
X0070148Y0050341D02*
X0069952Y0050341D01*
X0069952Y0049948D02*
X0070148Y0049948D01*
X0070148Y0049556D02*
X0069952Y0049556D01*
X0069952Y0049164D02*
X0070148Y0049164D01*
X0070148Y0048772D02*
X0069952Y0048772D01*
X0069952Y0048380D02*
X0070148Y0048380D01*
X0070148Y0047595D02*
X0069952Y0047595D01*
X0069952Y0047203D02*
X0070148Y0047203D01*
X0070148Y0046811D02*
X0069952Y0046811D01*
X0069952Y0046418D02*
X0070148Y0046418D01*
X0070148Y0046026D02*
X0069952Y0046026D01*
X0071260Y0046026D02*
X0072550Y0046026D01*
X0072550Y0046418D02*
X0071754Y0046418D01*
X0072063Y0046811D02*
X0072550Y0046811D01*
X0072550Y0047203D02*
X0072262Y0047203D01*
X0072379Y0047595D02*
X0072550Y0047595D01*
X0067686Y0048380D02*
X0053516Y0048380D01*
X0054200Y0044065D02*
X0055458Y0044065D01*
X0055395Y0043673D02*
X0054200Y0043673D01*
X0054200Y0043281D02*
X0055353Y0043281D01*
X0055393Y0042496D02*
X0054200Y0042496D01*
X0054200Y0042104D02*
X0055455Y0042104D01*
X0055581Y0041712D02*
X0054200Y0041712D01*
X0054119Y0041320D02*
X0055735Y0041320D01*
X0055935Y0040928D02*
X0053844Y0040928D01*
X0054200Y0042889D02*
X0062353Y0042889D01*
X0062353Y0043281D02*
X0062747Y0043281D01*
X0062747Y0043673D02*
X0062353Y0043673D01*
X0062353Y0044065D02*
X0062747Y0044065D01*
X0062747Y0044457D02*
X0062353Y0044457D01*
X0062353Y0044850D02*
X0062747Y0044850D01*
X0062747Y0045242D02*
X0062353Y0045242D01*
X0062353Y0045634D02*
X0062747Y0045634D01*
X0062747Y0046026D02*
X0062353Y0046026D01*
X0062353Y0046418D02*
X0062747Y0046418D01*
X0062747Y0046811D02*
X0062353Y0046811D01*
X0062353Y0047203D02*
X0062747Y0047203D01*
X0068551Y0040143D02*
X0072550Y0040143D01*
X0072550Y0039751D02*
X0068111Y0039751D01*
X0067495Y0039359D02*
X0072550Y0039359D01*
X0072550Y0040535D02*
X0068890Y0040535D01*
X0069165Y0040928D02*
X0072550Y0040928D01*
X0072550Y0041320D02*
X0069365Y0041320D01*
X0069519Y0041712D02*
X0072550Y0041712D01*
X0072550Y0042104D02*
X0069645Y0042104D01*
X0069707Y0042496D02*
X0072550Y0042496D01*
X0058679Y0038966D02*
X0036331Y0038966D01*
X0035939Y0039359D02*
X0057605Y0039359D01*
X0056989Y0039751D02*
X0035547Y0039751D01*
X0035154Y0040143D02*
X0056549Y0040143D01*
X0056210Y0040535D02*
X0034762Y0040535D01*
X0031991Y0038966D02*
X0016421Y0038966D01*
X0019747Y0043281D02*
X0020900Y0043281D01*
X0020900Y0043673D02*
X0019705Y0043673D01*
X0019642Y0044065D02*
X0020900Y0044065D01*
X0027074Y0037005D02*
X0028314Y0037005D01*
X0027922Y0036613D02*
X0027414Y0036613D01*
X0027557Y0036221D02*
X0027747Y0036221D01*
X0027747Y0035829D02*
X0027566Y0035829D01*
X0027566Y0035437D02*
X0027747Y0035437D01*
X0027747Y0035044D02*
X0027566Y0035044D01*
X0027566Y0034652D02*
X0027747Y0034652D01*
X0027747Y0034260D02*
X0027566Y0034260D01*
X0027566Y0033868D02*
X0027747Y0033868D01*
X0027747Y0033475D02*
X0027566Y0033475D01*
X0028844Y0040928D02*
X0030030Y0040928D01*
X0029638Y0041320D02*
X0029119Y0041320D01*
X0029200Y0041712D02*
X0029246Y0041712D01*
X0028516Y0047987D02*
X0028507Y0047987D01*
X0028515Y0048380D02*
X0028516Y0048380D01*
X0038292Y0037005D02*
X0040834Y0037005D01*
X0040442Y0036613D02*
X0038684Y0036613D01*
X0039076Y0036221D02*
X0040267Y0036221D01*
X0040267Y0035829D02*
X0039084Y0035829D01*
X0039084Y0035437D02*
X0040267Y0035437D01*
X0040267Y0035044D02*
X0039084Y0035044D01*
X0039084Y0034652D02*
X0040267Y0034652D01*
X0040267Y0031514D02*
X0039084Y0031514D01*
X0039084Y0031122D02*
X0040267Y0031122D01*
X0040267Y0030730D02*
X0039084Y0030730D01*
X0039084Y0030338D02*
X0040267Y0030338D01*
X0040267Y0029946D02*
X0039084Y0029946D01*
X0039137Y0029553D02*
X0040430Y0029553D01*
X0040823Y0029161D02*
X0039529Y0029161D01*
X0036542Y0026023D02*
X0034621Y0026023D01*
X0035013Y0026416D02*
X0036150Y0026416D01*
X0035757Y0026808D02*
X0035405Y0026808D01*
X0015050Y0018078D02*
X0014748Y0018082D01*
X0014446Y0018093D01*
X0014145Y0018111D01*
X0013844Y0018136D01*
X0013543Y0018169D01*
X0013244Y0018209D01*
X0012946Y0018256D01*
X0012648Y0018311D01*
X0012353Y0018372D01*
X0012059Y0018441D01*
X0011766Y0018517D01*
X0011476Y0018600D01*
X0011187Y0018690D01*
X0010901Y0018787D01*
X0010617Y0018890D01*
X0010336Y0019001D01*
X0010058Y0019118D01*
X0009782Y0019242D01*
X0009510Y0019373D01*
X0009241Y0019510D01*
X0008975Y0019653D01*
X0008713Y0019803D01*
X0008454Y0019960D01*
X0008200Y0020122D01*
X0007949Y0020291D01*
X0007703Y0020465D01*
X0007460Y0020646D01*
X0007223Y0020832D01*
X0006989Y0021024D01*
X0006761Y0021222D01*
X0006537Y0021425D01*
X0006319Y0021633D01*
X0006105Y0021847D01*
X0005897Y0022065D01*
X0005694Y0022289D01*
X0005496Y0022517D01*
X0005304Y0022751D01*
X0005118Y0022988D01*
X0004937Y0023231D01*
X0004763Y0023477D01*
X0004594Y0023728D01*
X0004432Y0023982D01*
X0004275Y0024241D01*
X0004125Y0024503D01*
X0003982Y0024769D01*
X0003845Y0025038D01*
X0003714Y0025310D01*
X0003590Y0025586D01*
X0003473Y0025864D01*
X0003362Y0026145D01*
X0003259Y0026429D01*
X0003162Y0026715D01*
X0003072Y0027004D01*
X0002989Y0027294D01*
X0002913Y0027587D01*
X0002844Y0027881D01*
X0002783Y0028176D01*
X0002728Y0028474D01*
X0002681Y0028772D01*
X0002641Y0029071D01*
X0002608Y0029372D01*
X0002583Y0029673D01*
X0002565Y0029974D01*
X0002554Y0030276D01*
X0002550Y0030578D01*
X0002550Y0022494D02*
X0013637Y0022494D01*
X0013211Y0022101D02*
X0002550Y0022101D01*
X0002550Y0021709D02*
X0012946Y0021709D01*
X0012782Y0021317D02*
X0002550Y0021317D01*
X0002550Y0020925D02*
X0012695Y0020925D01*
X0002550Y0057793D02*
X0072550Y0057793D01*
X0072550Y0058185D02*
X0002550Y0058185D01*
X0002550Y0058577D02*
X0072550Y0058577D01*
X0072550Y0058969D02*
X0002550Y0058969D01*
X0002550Y0059361D02*
X0072550Y0059361D01*
X0072550Y0059754D02*
X0002550Y0059754D01*
X0002550Y0060146D02*
X0072550Y0060146D01*
X0072550Y0060538D02*
X0002550Y0060538D01*
X0002550Y0066421D02*
X0003343Y0066421D01*
X0003035Y0066814D02*
X0002550Y0066814D01*
X0002550Y0067206D02*
X0002837Y0067206D01*
X0002721Y0067598D02*
X0002550Y0067598D01*
X0002550Y0068382D02*
X0002686Y0068382D01*
X0002765Y0068775D02*
X0002550Y0068775D01*
X0002550Y0069167D02*
X0002927Y0069167D01*
X0003180Y0069559D02*
X0002550Y0069559D01*
X0002550Y0069951D02*
X0003574Y0069951D01*
X0005794Y0070343D02*
X0028298Y0070343D01*
X0028298Y0069951D02*
X0006526Y0069951D01*
X0006920Y0069559D02*
X0028298Y0069559D01*
X0028298Y0069167D02*
X0007173Y0069167D01*
X0007335Y0068775D02*
X0028298Y0068775D01*
X0028298Y0068382D02*
X0007414Y0068382D01*
X0002550Y0075834D02*
X0014252Y0075834D01*
X0013540Y0076227D02*
X0002550Y0076227D01*
X0002550Y0076619D02*
X0013165Y0076619D01*
X0012918Y0077011D02*
X0002550Y0077011D01*
X0002550Y0077403D02*
X0012760Y0077403D01*
X0012682Y0077795D02*
X0002550Y0077795D01*
X0002550Y0078188D02*
X0012672Y0078188D01*
X0012725Y0078580D02*
X0002550Y0078580D01*
X0002550Y0078972D02*
X0012847Y0078972D01*
X0013050Y0079364D02*
X0002550Y0079364D01*
X0002550Y0079757D02*
X0013366Y0079757D01*
X0013869Y0080149D02*
X0002550Y0080149D01*
X0002550Y0080541D02*
X0072550Y0080541D01*
X0072550Y0080149D02*
X0061231Y0080149D01*
X0061734Y0079757D02*
X0072550Y0079757D01*
X0072550Y0079364D02*
X0062050Y0079364D01*
X0062253Y0078972D02*
X0072550Y0078972D01*
X0072550Y0078580D02*
X0062375Y0078580D01*
X0062428Y0078188D02*
X0072550Y0078188D01*
X0072550Y0077795D02*
X0062418Y0077795D01*
X0062340Y0077403D02*
X0072550Y0077403D01*
X0072550Y0077011D02*
X0062182Y0077011D01*
X0061935Y0076619D02*
X0072550Y0076619D01*
X0072550Y0076227D02*
X0061560Y0076227D01*
X0060050Y0080578D02*
X0060352Y0080574D01*
X0060654Y0080563D01*
X0060955Y0080545D01*
X0061256Y0080520D01*
X0061557Y0080487D01*
X0061856Y0080447D01*
X0062154Y0080400D01*
X0062452Y0080345D01*
X0062747Y0080284D01*
X0063041Y0080215D01*
X0063334Y0080139D01*
X0063624Y0080056D01*
X0063913Y0079966D01*
X0064199Y0079869D01*
X0064483Y0079766D01*
X0064764Y0079655D01*
X0065042Y0079538D01*
X0065318Y0079414D01*
X0065590Y0079283D01*
X0065859Y0079146D01*
X0066125Y0079003D01*
X0066387Y0078853D01*
X0066646Y0078696D01*
X0066900Y0078534D01*
X0067151Y0078365D01*
X0067397Y0078191D01*
X0067640Y0078010D01*
X0067877Y0077824D01*
X0068111Y0077632D01*
X0068339Y0077434D01*
X0068563Y0077231D01*
X0068781Y0077023D01*
X0068995Y0076809D01*
X0069203Y0076591D01*
X0069406Y0076367D01*
X0069604Y0076139D01*
X0069796Y0075905D01*
X0069982Y0075668D01*
X0070163Y0075425D01*
X0070337Y0075179D01*
X0070506Y0074928D01*
X0070668Y0074674D01*
X0070825Y0074415D01*
X0070975Y0074153D01*
X0071118Y0073887D01*
X0071255Y0073618D01*
X0071386Y0073346D01*
X0071510Y0073070D01*
X0071627Y0072792D01*
X0071738Y0072511D01*
X0071841Y0072227D01*
X0071938Y0071941D01*
X0072028Y0071652D01*
X0072111Y0071362D01*
X0072187Y0071069D01*
X0072256Y0070775D01*
X0072317Y0070480D01*
X0072372Y0070182D01*
X0072419Y0069884D01*
X0072459Y0069585D01*
X0072492Y0069284D01*
X0072517Y0068983D01*
X0072535Y0068682D01*
X0072546Y0068380D01*
X0072550Y0068078D01*
X0036752Y0075834D02*
X0036172Y0075834D01*
X0035418Y0077011D02*
X0017182Y0077011D01*
X0017340Y0077403D02*
X0035260Y0077403D01*
X0035182Y0077795D02*
X0017418Y0077795D01*
X0017428Y0078188D02*
X0035172Y0078188D01*
X0035225Y0078580D02*
X0017375Y0078580D01*
X0017253Y0078972D02*
X0035347Y0078972D01*
X0035550Y0079364D02*
X0017050Y0079364D01*
X0016734Y0079757D02*
X0035866Y0079757D01*
X0036369Y0080149D02*
X0016231Y0080149D01*
X0016935Y0076619D02*
X0028656Y0076619D01*
X0028298Y0076227D02*
X0016560Y0076227D01*
X0015050Y0080578D02*
X0014748Y0080574D01*
X0014446Y0080563D01*
X0014145Y0080545D01*
X0013844Y0080520D01*
X0013543Y0080487D01*
X0013244Y0080447D01*
X0012946Y0080400D01*
X0012648Y0080345D01*
X0012353Y0080284D01*
X0012059Y0080215D01*
X0011766Y0080139D01*
X0011476Y0080056D01*
X0011187Y0079966D01*
X0010901Y0079869D01*
X0010617Y0079766D01*
X0010336Y0079655D01*
X0010058Y0079538D01*
X0009782Y0079414D01*
X0009510Y0079283D01*
X0009241Y0079146D01*
X0008975Y0079003D01*
X0008713Y0078853D01*
X0008454Y0078696D01*
X0008200Y0078534D01*
X0007949Y0078365D01*
X0007703Y0078191D01*
X0007460Y0078010D01*
X0007223Y0077824D01*
X0006989Y0077632D01*
X0006761Y0077434D01*
X0006537Y0077231D01*
X0006319Y0077023D01*
X0006105Y0076809D01*
X0005897Y0076591D01*
X0005694Y0076367D01*
X0005496Y0076139D01*
X0005304Y0075905D01*
X0005118Y0075668D01*
X0004937Y0075425D01*
X0004763Y0075179D01*
X0004594Y0074928D01*
X0004432Y0074674D01*
X0004275Y0074415D01*
X0004125Y0074153D01*
X0003982Y0073887D01*
X0003845Y0073618D01*
X0003714Y0073346D01*
X0003590Y0073070D01*
X0003473Y0072792D01*
X0003362Y0072511D01*
X0003259Y0072227D01*
X0003162Y0071941D01*
X0003072Y0071652D01*
X0002989Y0071362D01*
X0002913Y0071069D01*
X0002844Y0070775D01*
X0002783Y0070480D01*
X0002728Y0070182D01*
X0002681Y0069884D01*
X0002641Y0069585D01*
X0002608Y0069284D01*
X0002583Y0068983D01*
X0002565Y0068682D01*
X0002554Y0068380D01*
X0002550Y0068078D01*
D11*
X0023810Y0033078D03*
X0031290Y0033078D03*
X0043810Y0033078D03*
X0051290Y0033078D03*
D12*
X0050050Y0044337D03*
X0050050Y0051818D03*
X0025050Y0051818D03*
X0025050Y0044337D03*
D13*
X0035581Y0048078D03*
X0039519Y0048078D03*
D14*
X0059550Y0053078D02*
X0065550Y0053078D01*
X0065550Y0043078D02*
X0059550Y0043078D01*
X0015550Y0043078D02*
X0009550Y0043078D01*
X0009550Y0053078D02*
X0015550Y0053078D01*
D15*
X0032235Y0070538D03*
X0042865Y0070617D03*
D16*
X0042550Y0063078D03*
X0032550Y0063078D03*
X0037550Y0078078D03*
X0060050Y0078078D03*
X0070050Y0068078D03*
X0070050Y0048078D03*
X0070050Y0030578D03*
X0060050Y0020578D03*
X0037550Y0020578D03*
X0037550Y0028078D03*
X0033613Y0028078D03*
X0015050Y0020578D03*
X0005050Y0029328D03*
X0005050Y0048078D03*
X0005050Y0068078D03*
X0015050Y0078078D03*
D17*
X0032235Y0070538D02*
X0032235Y0063078D01*
X0032550Y0063078D01*
X0030050Y0053078D02*
X0024420Y0053078D01*
X0024420Y0052448D01*
X0023790Y0053078D01*
X0012550Y0053078D01*
X0024420Y0052448D02*
X0025050Y0051818D01*
X0026290Y0050578D01*
X0030050Y0053078D02*
X0030050Y0043078D01*
X0037550Y0035578D01*
X0037550Y0033078D01*
X0043810Y0033078D01*
X0037550Y0033078D02*
X0037550Y0028078D01*
X0033613Y0028078D02*
X0033613Y0033078D01*
X0031290Y0033078D01*
X0050050Y0051818D02*
X0051310Y0053078D01*
X0062550Y0053078D01*
X0042865Y0063078D02*
X0042865Y0070617D01*
X0042865Y0063078D02*
X0042550Y0063078D01*
M02*
