G75*
%MOIN*%
%OFA0B0*%
%FSLAX25Y25*%
%IPPOS*%
%LPD*%
%AMOC8*
5,1,8,0,0,1.08239X$1,22.5*
%
%ADD10C,0.00394*%
%ADD11R,0.05118X0.05906*%
%ADD12R,0.05906X0.05118*%
%ADD13C,0.02400*%
%ADD14C,0.06000*%
%ADD15R,0.05906X0.10630*%
%ADD16C,0.02362*%
%ADD17C,0.01100*%
%ADD18C,0.02559*%
D10*
X0002580Y0018078D02*
X0002580Y0080578D01*
X0072580Y0080578D01*
X0072580Y0018078D01*
X0002580Y0018078D01*
X0002580Y0018179D02*
X0072580Y0018179D01*
X0072580Y0018571D02*
X0061358Y0018571D01*
X0061206Y0018470D02*
X0061596Y0018731D01*
X0061927Y0019062D01*
X0062187Y0019451D01*
X0062367Y0019884D01*
X0062458Y0020343D01*
X0062458Y0020479D01*
X0060178Y0020479D01*
X0060178Y0018200D01*
X0060314Y0018200D01*
X0060774Y0018291D01*
X0061206Y0018470D01*
X0061829Y0018964D02*
X0072580Y0018964D01*
X0072580Y0019356D02*
X0062124Y0019356D01*
X0062310Y0019748D02*
X0072580Y0019748D01*
X0072580Y0020140D02*
X0062418Y0020140D01*
X0062458Y0020676D02*
X0062458Y0020812D01*
X0062367Y0021271D01*
X0062187Y0021704D01*
X0061927Y0022093D01*
X0061596Y0022425D01*
X0061206Y0022685D01*
X0060774Y0022864D01*
X0060314Y0022956D01*
X0060178Y0022956D01*
X0060178Y0020676D01*
X0059982Y0020676D01*
X0059982Y0022956D01*
X0059846Y0022956D01*
X0059386Y0022864D01*
X0058954Y0022685D01*
X0058564Y0022425D01*
X0058233Y0022093D01*
X0057973Y0021704D01*
X0057793Y0021271D01*
X0057702Y0020812D01*
X0057702Y0020676D01*
X0059981Y0020676D01*
X0059981Y0020479D01*
X0057702Y0020479D01*
X0057702Y0020343D01*
X0057793Y0019884D01*
X0057973Y0019451D01*
X0058233Y0019062D01*
X0058564Y0018731D01*
X0058954Y0018470D01*
X0059386Y0018291D01*
X0059846Y0018200D01*
X0059982Y0018200D01*
X0059982Y0020479D01*
X0060178Y0020479D01*
X0060178Y0020676D01*
X0062458Y0020676D01*
X0062435Y0020925D02*
X0072580Y0020925D01*
X0072580Y0021317D02*
X0062348Y0021317D01*
X0062184Y0021709D02*
X0072580Y0021709D01*
X0072580Y0022101D02*
X0061919Y0022101D01*
X0061493Y0022494D02*
X0072580Y0022494D01*
X0072580Y0022886D02*
X0060665Y0022886D01*
X0060178Y0022886D02*
X0059982Y0022886D01*
X0059982Y0022494D02*
X0060178Y0022494D01*
X0060178Y0022101D02*
X0059982Y0022101D01*
X0059982Y0021709D02*
X0060178Y0021709D01*
X0060178Y0021317D02*
X0059982Y0021317D01*
X0059982Y0020925D02*
X0060178Y0020925D01*
X0060178Y0020532D02*
X0072580Y0020532D01*
X0072580Y0023278D02*
X0002580Y0023278D01*
X0002580Y0023670D02*
X0072580Y0023670D01*
X0072580Y0024062D02*
X0002580Y0024062D01*
X0002580Y0024455D02*
X0072580Y0024455D01*
X0072580Y0024847D02*
X0002580Y0024847D01*
X0002580Y0025239D02*
X0072580Y0025239D01*
X0072580Y0025631D02*
X0002580Y0025631D01*
X0002580Y0026023D02*
X0032635Y0026023D01*
X0032746Y0025912D02*
X0034540Y0025912D01*
X0035611Y0026984D01*
X0036683Y0025912D01*
X0038477Y0025912D01*
X0039745Y0027181D01*
X0039745Y0028975D01*
X0039114Y0029606D01*
X0039114Y0031543D01*
X0040297Y0031543D01*
X0040297Y0029717D01*
X0040873Y0029141D01*
X0046807Y0029141D01*
X0047383Y0029717D01*
X0047383Y0036438D01*
X0046807Y0037015D01*
X0040873Y0037015D01*
X0040297Y0036438D01*
X0040297Y0034612D01*
X0039114Y0034612D01*
X0039114Y0036213D01*
X0031614Y0043713D01*
X0031614Y0053713D01*
X0030716Y0054612D01*
X0029017Y0054612D01*
X0029017Y0054785D01*
X0028440Y0055361D01*
X0021720Y0055361D01*
X0021143Y0054785D01*
X0021143Y0054612D01*
X0019257Y0054612D01*
X0018958Y0055335D01*
X0017837Y0056455D01*
X0016373Y0057062D01*
X0008787Y0057062D01*
X0007323Y0056455D01*
X0006202Y0055335D01*
X0005596Y0053870D01*
X0005596Y0052285D01*
X0006202Y0050821D01*
X0007323Y0049700D01*
X0008787Y0049093D01*
X0016373Y0049093D01*
X0017837Y0049700D01*
X0018958Y0050821D01*
X0019257Y0051543D01*
X0021143Y0051543D01*
X0021143Y0048851D01*
X0021720Y0048274D01*
X0028440Y0048274D01*
X0028546Y0048380D01*
X0028546Y0047982D01*
X0028495Y0048012D01*
X0028190Y0048093D01*
X0025277Y0048093D01*
X0025277Y0044534D01*
X0024883Y0044534D01*
X0024883Y0044141D01*
X0020930Y0044141D01*
X0020930Y0041621D01*
X0021012Y0041316D01*
X0021170Y0041044D01*
X0021392Y0040821D01*
X0021665Y0040663D01*
X0021970Y0040582D01*
X0024883Y0040582D01*
X0024883Y0044141D01*
X0025277Y0044141D01*
X0025277Y0040582D01*
X0028190Y0040582D01*
X0028495Y0040663D01*
X0028768Y0040821D01*
X0028990Y0041044D01*
X0029148Y0041316D01*
X0029230Y0041621D01*
X0029230Y0041758D01*
X0029444Y0041543D01*
X0033973Y0037015D01*
X0028353Y0037015D01*
X0027777Y0036438D01*
X0027777Y0029717D01*
X0028353Y0029141D01*
X0031644Y0029141D01*
X0031478Y0028975D01*
X0031478Y0027181D01*
X0032746Y0025912D01*
X0032243Y0026416D02*
X0002580Y0026416D01*
X0002580Y0026808D02*
X0031850Y0026808D01*
X0031478Y0027200D02*
X0006158Y0027200D01*
X0006206Y0027220D02*
X0006596Y0027481D01*
X0006927Y0027812D01*
X0007187Y0028201D01*
X0007367Y0028634D01*
X0007458Y0029093D01*
X0007458Y0029229D01*
X0005178Y0029229D01*
X0005178Y0026950D01*
X0005314Y0026950D01*
X0005774Y0027041D01*
X0006206Y0027220D01*
X0006708Y0027592D02*
X0031478Y0027592D01*
X0031478Y0027985D02*
X0007042Y0027985D01*
X0007260Y0028377D02*
X0031478Y0028377D01*
X0031478Y0028769D02*
X0007393Y0028769D01*
X0007458Y0029161D02*
X0020556Y0029161D01*
X0020546Y0029167D02*
X0020819Y0029010D01*
X0021123Y0028928D01*
X0023643Y0028928D01*
X0023643Y0032881D01*
X0020084Y0032881D01*
X0020084Y0029967D01*
X0020165Y0029663D01*
X0020323Y0029390D01*
X0020546Y0029167D01*
X0020229Y0029553D02*
X0007458Y0029553D01*
X0007458Y0029562D02*
X0007367Y0030021D01*
X0007187Y0030454D01*
X0006927Y0030843D01*
X0006596Y0031175D01*
X0006206Y0031435D01*
X0005774Y0031614D01*
X0005314Y0031706D01*
X0005178Y0031706D01*
X0005178Y0029426D01*
X0004982Y0029426D01*
X0004982Y0031706D01*
X0004846Y0031706D01*
X0004386Y0031614D01*
X0003954Y0031435D01*
X0003564Y0031175D01*
X0003233Y0030843D01*
X0002973Y0030454D01*
X0002793Y0030021D01*
X0002702Y0029562D01*
X0002702Y0029426D01*
X0004981Y0029426D01*
X0004981Y0029229D01*
X0002702Y0029229D01*
X0002702Y0029093D01*
X0002793Y0028634D01*
X0002973Y0028201D01*
X0003233Y0027812D01*
X0003564Y0027481D01*
X0003954Y0027220D01*
X0004386Y0027041D01*
X0004846Y0026950D01*
X0004982Y0026950D01*
X0004982Y0029229D01*
X0005178Y0029229D01*
X0005178Y0029426D01*
X0007458Y0029426D01*
X0007458Y0029562D01*
X0007382Y0029946D02*
X0020090Y0029946D01*
X0020084Y0030338D02*
X0007235Y0030338D01*
X0007003Y0030730D02*
X0020084Y0030730D01*
X0020084Y0031122D02*
X0006648Y0031122D01*
X0006014Y0031514D02*
X0020084Y0031514D01*
X0020084Y0031907D02*
X0002580Y0031907D01*
X0002580Y0032299D02*
X0020084Y0032299D01*
X0020084Y0032691D02*
X0002580Y0032691D01*
X0002580Y0033083D02*
X0023643Y0033083D01*
X0023643Y0033274D02*
X0023643Y0032881D01*
X0024037Y0032881D01*
X0024037Y0033274D01*
X0027596Y0033274D01*
X0027596Y0036188D01*
X0027514Y0036492D01*
X0027357Y0036765D01*
X0027134Y0036988D01*
X0026861Y0037146D01*
X0026556Y0037227D01*
X0024037Y0037227D01*
X0024037Y0033275D01*
X0023643Y0033275D01*
X0023643Y0037227D01*
X0021123Y0037227D01*
X0020819Y0037146D01*
X0020546Y0036988D01*
X0020323Y0036765D01*
X0020165Y0036492D01*
X0020084Y0036188D01*
X0020084Y0033274D01*
X0023643Y0033274D01*
X0023643Y0033475D02*
X0024037Y0033475D01*
X0024037Y0033083D02*
X0027777Y0033083D01*
X0027596Y0032881D02*
X0024037Y0032881D01*
X0024037Y0028928D01*
X0026556Y0028928D01*
X0026861Y0029010D01*
X0027134Y0029167D01*
X0027357Y0029390D01*
X0027514Y0029663D01*
X0027596Y0029967D01*
X0027596Y0032881D01*
X0027596Y0032691D02*
X0027777Y0032691D01*
X0027777Y0032299D02*
X0027596Y0032299D01*
X0027596Y0031907D02*
X0027777Y0031907D01*
X0027777Y0031514D02*
X0027596Y0031514D01*
X0027596Y0031122D02*
X0027777Y0031122D01*
X0027777Y0030730D02*
X0027596Y0030730D01*
X0027596Y0030338D02*
X0027777Y0030338D01*
X0027777Y0029946D02*
X0027590Y0029946D01*
X0027451Y0029553D02*
X0027941Y0029553D01*
X0028333Y0029161D02*
X0027123Y0029161D01*
X0024037Y0029161D02*
X0023643Y0029161D01*
X0023643Y0029553D02*
X0024037Y0029553D01*
X0024037Y0029946D02*
X0023643Y0029946D01*
X0023643Y0030338D02*
X0024037Y0030338D01*
X0024037Y0030730D02*
X0023643Y0030730D01*
X0023643Y0031122D02*
X0024037Y0031122D01*
X0024037Y0031514D02*
X0023643Y0031514D01*
X0023643Y0031907D02*
X0024037Y0031907D01*
X0024037Y0032299D02*
X0023643Y0032299D01*
X0023643Y0032691D02*
X0024037Y0032691D01*
X0024037Y0033868D02*
X0023643Y0033868D01*
X0023643Y0034260D02*
X0024037Y0034260D01*
X0024037Y0034652D02*
X0023643Y0034652D01*
X0023643Y0035044D02*
X0024037Y0035044D01*
X0024037Y0035437D02*
X0023643Y0035437D01*
X0023643Y0035829D02*
X0024037Y0035829D01*
X0024037Y0036221D02*
X0023643Y0036221D01*
X0023643Y0036613D02*
X0024037Y0036613D01*
X0024037Y0037005D02*
X0023643Y0037005D01*
X0020576Y0037005D02*
X0002580Y0037005D01*
X0002580Y0036613D02*
X0020235Y0036613D01*
X0020093Y0036221D02*
X0002580Y0036221D01*
X0002580Y0035829D02*
X0020084Y0035829D01*
X0020084Y0035437D02*
X0002580Y0035437D01*
X0002580Y0035044D02*
X0020084Y0035044D01*
X0020084Y0034652D02*
X0002580Y0034652D01*
X0002580Y0034260D02*
X0020084Y0034260D01*
X0020084Y0033868D02*
X0002580Y0033868D01*
X0002580Y0033475D02*
X0020084Y0033475D01*
X0017191Y0039188D02*
X0016563Y0038984D01*
X0015910Y0038881D01*
X0012777Y0038881D01*
X0012777Y0042881D01*
X0012777Y0043274D01*
X0019777Y0043274D01*
X0019777Y0043408D01*
X0019673Y0044060D01*
X0019469Y0044689D01*
X0019169Y0045277D01*
X0018781Y0045812D01*
X0018314Y0046279D01*
X0017780Y0046667D01*
X0017191Y0046967D01*
X0016563Y0047171D01*
X0015910Y0047274D01*
X0012777Y0047274D01*
X0012777Y0043275D01*
X0012383Y0043275D01*
X0012383Y0047274D01*
X0009250Y0047274D01*
X0008597Y0047171D01*
X0007969Y0046967D01*
X0007380Y0046667D01*
X0006846Y0046279D01*
X0006379Y0045812D01*
X0005991Y0045277D01*
X0005691Y0044689D01*
X0005486Y0044060D01*
X0005383Y0043408D01*
X0005383Y0043274D01*
X0012383Y0043274D01*
X0012383Y0042881D01*
X0005383Y0042881D01*
X0005383Y0042747D01*
X0005486Y0042095D01*
X0005691Y0041467D01*
X0005991Y0040878D01*
X0006379Y0040344D01*
X0006846Y0039876D01*
X0007380Y0039488D01*
X0007969Y0039188D01*
X0008597Y0038984D01*
X0009250Y0038881D01*
X0012383Y0038881D01*
X0012383Y0042881D01*
X0012777Y0042881D01*
X0019777Y0042881D01*
X0019777Y0042747D01*
X0019673Y0042095D01*
X0019469Y0041467D01*
X0019169Y0040878D01*
X0018781Y0040344D01*
X0018314Y0039876D01*
X0017780Y0039488D01*
X0017191Y0039188D01*
X0017525Y0039359D02*
X0031629Y0039359D01*
X0031237Y0039751D02*
X0018141Y0039751D01*
X0018581Y0040143D02*
X0030845Y0040143D01*
X0030453Y0040535D02*
X0018920Y0040535D01*
X0019195Y0040928D02*
X0021286Y0040928D01*
X0021011Y0041320D02*
X0019395Y0041320D01*
X0019549Y0041712D02*
X0020930Y0041712D01*
X0020930Y0042104D02*
X0019675Y0042104D01*
X0019737Y0042496D02*
X0020930Y0042496D01*
X0020930Y0042889D02*
X0012777Y0042889D01*
X0012777Y0043281D02*
X0012383Y0043281D01*
X0012383Y0043673D02*
X0012777Y0043673D01*
X0012777Y0044065D02*
X0012383Y0044065D01*
X0012383Y0044457D02*
X0012777Y0044457D01*
X0012777Y0044850D02*
X0012383Y0044850D01*
X0012383Y0045242D02*
X0012777Y0045242D01*
X0012777Y0045634D02*
X0012383Y0045634D01*
X0012383Y0046026D02*
X0012777Y0046026D01*
X0012777Y0046418D02*
X0012383Y0046418D01*
X0012383Y0046811D02*
X0012777Y0046811D01*
X0012777Y0047203D02*
X0012383Y0047203D01*
X0008798Y0047203D02*
X0007292Y0047203D01*
X0007367Y0047384D02*
X0007187Y0046951D01*
X0006927Y0046562D01*
X0006596Y0046231D01*
X0006206Y0045970D01*
X0005774Y0045791D01*
X0005314Y0045700D01*
X0005178Y0045700D01*
X0005178Y0047979D01*
X0004982Y0047979D01*
X0004982Y0045700D01*
X0004846Y0045700D01*
X0004386Y0045791D01*
X0003954Y0045970D01*
X0003564Y0046231D01*
X0003233Y0046562D01*
X0002973Y0046951D01*
X0002793Y0047384D01*
X0002702Y0047843D01*
X0002702Y0047979D01*
X0004981Y0047979D01*
X0004981Y0048176D01*
X0002702Y0048176D01*
X0002702Y0048312D01*
X0002793Y0048771D01*
X0002973Y0049204D01*
X0003233Y0049593D01*
X0003564Y0049925D01*
X0003954Y0050185D01*
X0004386Y0050364D01*
X0004846Y0050456D01*
X0004982Y0050456D01*
X0004982Y0048176D01*
X0005178Y0048176D01*
X0005178Y0050456D01*
X0005314Y0050456D01*
X0005774Y0050364D01*
X0006206Y0050185D01*
X0006596Y0049925D01*
X0006927Y0049593D01*
X0007187Y0049204D01*
X0007367Y0048771D01*
X0007458Y0048312D01*
X0007458Y0048176D01*
X0005178Y0048176D01*
X0005178Y0047979D01*
X0007458Y0047979D01*
X0007458Y0047843D01*
X0007367Y0047384D01*
X0007409Y0047595D02*
X0021149Y0047595D01*
X0021170Y0047631D02*
X0021012Y0047358D01*
X0020930Y0047054D01*
X0020930Y0044534D01*
X0024883Y0044534D01*
X0024883Y0048093D01*
X0021970Y0048093D01*
X0021665Y0048012D01*
X0021392Y0047854D01*
X0021170Y0047631D01*
X0020970Y0047203D02*
X0016362Y0047203D01*
X0017498Y0046811D02*
X0020930Y0046811D01*
X0020930Y0046418D02*
X0018122Y0046418D01*
X0018567Y0046026D02*
X0020930Y0046026D01*
X0020930Y0045634D02*
X0018910Y0045634D01*
X0019188Y0045242D02*
X0020930Y0045242D01*
X0020930Y0044850D02*
X0019387Y0044850D01*
X0019545Y0044457D02*
X0024883Y0044457D01*
X0024883Y0044065D02*
X0025277Y0044065D01*
X0025277Y0043673D02*
X0024883Y0043673D01*
X0024883Y0043281D02*
X0025277Y0043281D01*
X0025277Y0042889D02*
X0024883Y0042889D01*
X0024883Y0042496D02*
X0025277Y0042496D01*
X0025277Y0042104D02*
X0024883Y0042104D01*
X0024883Y0041712D02*
X0025277Y0041712D01*
X0025277Y0041320D02*
X0024883Y0041320D01*
X0024883Y0040928D02*
X0025277Y0040928D01*
X0028874Y0040928D02*
X0030060Y0040928D01*
X0029668Y0041320D02*
X0029149Y0041320D01*
X0029230Y0041712D02*
X0029276Y0041712D01*
X0031654Y0043673D02*
X0042474Y0043673D01*
X0042640Y0043839D02*
X0041911Y0043110D01*
X0041911Y0041234D01*
X0043237Y0039908D01*
X0045112Y0039908D01*
X0046208Y0041005D01*
X0046392Y0040821D01*
X0046665Y0040663D01*
X0046970Y0040582D01*
X0049883Y0040582D01*
X0049883Y0044141D01*
X0045930Y0044141D01*
X0045930Y0043618D01*
X0045709Y0043839D01*
X0045709Y0052198D01*
X0046143Y0052632D01*
X0046143Y0048851D01*
X0046720Y0048274D01*
X0053440Y0048274D01*
X0054017Y0048851D01*
X0054017Y0051543D01*
X0055903Y0051543D01*
X0056202Y0050821D01*
X0057323Y0049700D01*
X0058787Y0049093D01*
X0066373Y0049093D01*
X0067837Y0049700D01*
X0068958Y0050821D01*
X0069564Y0052285D01*
X0069564Y0053870D01*
X0068958Y0055335D01*
X0067837Y0056455D01*
X0066373Y0057062D01*
X0058787Y0057062D01*
X0057323Y0056455D01*
X0056202Y0055335D01*
X0055903Y0054612D01*
X0054017Y0054612D01*
X0054017Y0054785D01*
X0053440Y0055361D01*
X0046720Y0055361D01*
X0046418Y0055059D01*
X0045230Y0056247D01*
X0043355Y0056247D01*
X0042029Y0054921D01*
X0042029Y0053045D01*
X0042640Y0052434D01*
X0042640Y0043839D01*
X0042640Y0044065D02*
X0031614Y0044065D01*
X0031614Y0044457D02*
X0042640Y0044457D01*
X0042640Y0044850D02*
X0031614Y0044850D01*
X0031614Y0045242D02*
X0042640Y0045242D01*
X0042640Y0045634D02*
X0031614Y0045634D01*
X0031614Y0046026D02*
X0042640Y0046026D01*
X0042640Y0046418D02*
X0031614Y0046418D01*
X0031614Y0046811D02*
X0042640Y0046811D01*
X0042640Y0047203D02*
X0031614Y0047203D01*
X0031614Y0047595D02*
X0042640Y0047595D01*
X0042640Y0047987D02*
X0031614Y0047987D01*
X0031614Y0048380D02*
X0042640Y0048380D01*
X0042640Y0048772D02*
X0031614Y0048772D01*
X0031614Y0049164D02*
X0042640Y0049164D01*
X0042640Y0049556D02*
X0031614Y0049556D01*
X0031614Y0049948D02*
X0042640Y0049948D01*
X0042640Y0050341D02*
X0031614Y0050341D01*
X0031614Y0050733D02*
X0042640Y0050733D01*
X0042640Y0051125D02*
X0031614Y0051125D01*
X0031614Y0051517D02*
X0042640Y0051517D01*
X0042640Y0051909D02*
X0031614Y0051909D01*
X0031614Y0052302D02*
X0042640Y0052302D01*
X0042380Y0052694D02*
X0031614Y0052694D01*
X0031614Y0053086D02*
X0042029Y0053086D01*
X0042029Y0053478D02*
X0031614Y0053478D01*
X0031457Y0053871D02*
X0042029Y0053871D01*
X0042029Y0054263D02*
X0031065Y0054263D01*
X0029017Y0054655D02*
X0042029Y0054655D01*
X0042155Y0055047D02*
X0028754Y0055047D01*
X0031683Y0060912D02*
X0033477Y0060912D01*
X0034745Y0062181D01*
X0034745Y0063975D01*
X0034481Y0064239D01*
X0035625Y0064239D01*
X0036202Y0064816D01*
X0036202Y0076138D01*
X0036454Y0075970D01*
X0036886Y0075791D01*
X0037346Y0075700D01*
X0037482Y0075700D01*
X0037482Y0077979D01*
X0037678Y0077979D01*
X0037678Y0075700D01*
X0037814Y0075700D01*
X0038274Y0075791D01*
X0038706Y0075970D01*
X0038958Y0076138D01*
X0038958Y0064894D01*
X0039534Y0064318D01*
X0040758Y0064318D01*
X0040415Y0063975D01*
X0040415Y0062181D01*
X0041683Y0060912D01*
X0043477Y0060912D01*
X0044745Y0062181D01*
X0044745Y0063975D01*
X0044429Y0064291D01*
X0044429Y0064318D01*
X0046255Y0064318D01*
X0046832Y0064894D01*
X0046832Y0076340D01*
X0046255Y0076916D01*
X0039664Y0076916D01*
X0039687Y0076951D01*
X0039867Y0077384D01*
X0039958Y0077843D01*
X0039958Y0077979D01*
X0037678Y0077979D01*
X0037678Y0078176D01*
X0037482Y0078176D01*
X0037482Y0080456D01*
X0037346Y0080456D01*
X0036886Y0080364D01*
X0036454Y0080185D01*
X0036064Y0079925D01*
X0035733Y0079593D01*
X0035473Y0079204D01*
X0035293Y0078771D01*
X0035202Y0078312D01*
X0035202Y0078176D01*
X0037481Y0078176D01*
X0037481Y0077979D01*
X0035202Y0077979D01*
X0035202Y0077843D01*
X0035293Y0077384D01*
X0035473Y0076951D01*
X0035549Y0076837D01*
X0028905Y0076837D01*
X0028328Y0076261D01*
X0028328Y0064816D01*
X0028905Y0064239D01*
X0030679Y0064239D01*
X0030415Y0063975D01*
X0030415Y0062181D01*
X0031683Y0060912D01*
X0031665Y0060930D02*
X0002580Y0060930D01*
X0002580Y0060538D02*
X0072580Y0060538D01*
X0072580Y0060146D02*
X0002580Y0060146D01*
X0002580Y0059754D02*
X0072580Y0059754D01*
X0072580Y0059361D02*
X0002580Y0059361D01*
X0002580Y0058969D02*
X0072580Y0058969D01*
X0072580Y0058577D02*
X0002580Y0058577D01*
X0002580Y0058185D02*
X0072580Y0058185D01*
X0072580Y0057793D02*
X0002580Y0057793D01*
X0002580Y0057400D02*
X0072580Y0057400D01*
X0072580Y0057008D02*
X0066502Y0057008D01*
X0067449Y0056616D02*
X0072580Y0056616D01*
X0072580Y0056224D02*
X0068068Y0056224D01*
X0068461Y0055832D02*
X0072580Y0055832D01*
X0072580Y0055439D02*
X0068853Y0055439D01*
X0069077Y0055047D02*
X0072580Y0055047D01*
X0072580Y0054655D02*
X0069239Y0054655D01*
X0069402Y0054263D02*
X0072580Y0054263D01*
X0072580Y0053871D02*
X0069564Y0053871D01*
X0069564Y0053478D02*
X0072580Y0053478D01*
X0072580Y0053086D02*
X0069564Y0053086D01*
X0069564Y0052694D02*
X0072580Y0052694D01*
X0072580Y0052302D02*
X0069564Y0052302D01*
X0069409Y0051909D02*
X0072580Y0051909D01*
X0072580Y0051517D02*
X0069246Y0051517D01*
X0069084Y0051125D02*
X0072580Y0051125D01*
X0072580Y0050733D02*
X0068870Y0050733D01*
X0068954Y0050185D02*
X0068564Y0049925D01*
X0068233Y0049593D01*
X0067973Y0049204D01*
X0067793Y0048771D01*
X0067702Y0048312D01*
X0067702Y0048176D01*
X0069981Y0048176D01*
X0069981Y0047979D01*
X0067702Y0047979D01*
X0067702Y0047843D01*
X0067793Y0047384D01*
X0067973Y0046951D01*
X0068233Y0046562D01*
X0068564Y0046231D01*
X0068954Y0045970D01*
X0069386Y0045791D01*
X0069846Y0045700D01*
X0069982Y0045700D01*
X0069982Y0047979D01*
X0070178Y0047979D01*
X0070178Y0045700D01*
X0070314Y0045700D01*
X0070774Y0045791D01*
X0071206Y0045970D01*
X0071596Y0046231D01*
X0071927Y0046562D01*
X0072187Y0046951D01*
X0072367Y0047384D01*
X0072458Y0047843D01*
X0072458Y0047979D01*
X0070178Y0047979D01*
X0070178Y0048176D01*
X0069982Y0048176D01*
X0069982Y0050456D01*
X0069846Y0050456D01*
X0069386Y0050364D01*
X0068954Y0050185D01*
X0069329Y0050341D02*
X0068478Y0050341D01*
X0068600Y0049948D02*
X0068085Y0049948D01*
X0068208Y0049556D02*
X0067490Y0049556D01*
X0067956Y0049164D02*
X0066543Y0049164D01*
X0067794Y0048772D02*
X0053938Y0048772D01*
X0054017Y0049164D02*
X0058617Y0049164D01*
X0057670Y0049556D02*
X0054017Y0049556D01*
X0054017Y0049948D02*
X0057075Y0049948D01*
X0056682Y0050341D02*
X0054017Y0050341D01*
X0054017Y0050733D02*
X0056290Y0050733D01*
X0056076Y0051125D02*
X0054017Y0051125D01*
X0054017Y0051517D02*
X0055914Y0051517D01*
X0055921Y0054655D02*
X0054017Y0054655D01*
X0053754Y0055047D02*
X0056083Y0055047D01*
X0056307Y0055439D02*
X0046038Y0055439D01*
X0045646Y0055832D02*
X0056699Y0055832D01*
X0057092Y0056224D02*
X0045253Y0056224D01*
X0043332Y0056224D02*
X0018068Y0056224D01*
X0018461Y0055832D02*
X0042940Y0055832D01*
X0042547Y0055439D02*
X0018853Y0055439D01*
X0019077Y0055047D02*
X0021406Y0055047D01*
X0021143Y0054655D02*
X0019239Y0054655D01*
X0017449Y0056616D02*
X0057711Y0056616D01*
X0058658Y0057008D02*
X0016502Y0057008D01*
X0019246Y0051517D02*
X0021143Y0051517D01*
X0021143Y0051125D02*
X0019084Y0051125D01*
X0018870Y0050733D02*
X0021143Y0050733D01*
X0021143Y0050341D02*
X0018478Y0050341D01*
X0018085Y0049948D02*
X0021143Y0049948D01*
X0021143Y0049556D02*
X0017490Y0049556D01*
X0016543Y0049164D02*
X0021143Y0049164D01*
X0021222Y0048772D02*
X0007366Y0048772D01*
X0007444Y0048380D02*
X0021614Y0048380D01*
X0021623Y0047987D02*
X0005178Y0047987D01*
X0004981Y0047987D02*
X0002580Y0047987D01*
X0002580Y0047595D02*
X0002751Y0047595D01*
X0002868Y0047203D02*
X0002580Y0047203D01*
X0002580Y0046811D02*
X0003067Y0046811D01*
X0003376Y0046418D02*
X0002580Y0046418D01*
X0002580Y0046026D02*
X0003870Y0046026D01*
X0004982Y0046026D02*
X0005178Y0046026D01*
X0005178Y0046418D02*
X0004982Y0046418D01*
X0004982Y0046811D02*
X0005178Y0046811D01*
X0005178Y0047203D02*
X0004982Y0047203D01*
X0004982Y0047595D02*
X0005178Y0047595D01*
X0005178Y0048380D02*
X0004982Y0048380D01*
X0004982Y0048772D02*
X0005178Y0048772D01*
X0005178Y0049164D02*
X0004982Y0049164D01*
X0004982Y0049556D02*
X0005178Y0049556D01*
X0005178Y0049948D02*
X0004982Y0049948D01*
X0004982Y0050341D02*
X0005178Y0050341D01*
X0005831Y0050341D02*
X0006682Y0050341D01*
X0006560Y0049948D02*
X0007075Y0049948D01*
X0006952Y0049556D02*
X0007670Y0049556D01*
X0007204Y0049164D02*
X0008617Y0049164D01*
X0007662Y0046811D02*
X0007093Y0046811D01*
X0007038Y0046418D02*
X0006784Y0046418D01*
X0006593Y0046026D02*
X0006290Y0046026D01*
X0006250Y0045634D02*
X0002580Y0045634D01*
X0002580Y0045242D02*
X0005972Y0045242D01*
X0005773Y0044850D02*
X0002580Y0044850D01*
X0002580Y0044457D02*
X0005615Y0044457D01*
X0005488Y0044065D02*
X0002580Y0044065D01*
X0002580Y0043673D02*
X0005425Y0043673D01*
X0005383Y0043281D02*
X0002580Y0043281D01*
X0002580Y0042889D02*
X0012383Y0042889D01*
X0012383Y0042496D02*
X0012777Y0042496D01*
X0012777Y0042104D02*
X0012383Y0042104D01*
X0012383Y0041712D02*
X0012777Y0041712D01*
X0012777Y0041320D02*
X0012383Y0041320D01*
X0012383Y0040928D02*
X0012777Y0040928D01*
X0012777Y0040535D02*
X0012383Y0040535D01*
X0012383Y0040143D02*
X0012777Y0040143D01*
X0012777Y0039751D02*
X0012383Y0039751D01*
X0012383Y0039359D02*
X0012777Y0039359D01*
X0012777Y0038966D02*
X0012383Y0038966D01*
X0008709Y0038966D02*
X0002580Y0038966D01*
X0002580Y0038574D02*
X0032414Y0038574D01*
X0032806Y0038182D02*
X0002580Y0038182D01*
X0002580Y0037790D02*
X0033198Y0037790D01*
X0033590Y0037398D02*
X0002580Y0037398D01*
X0002580Y0039359D02*
X0007635Y0039359D01*
X0007019Y0039751D02*
X0002580Y0039751D01*
X0002580Y0040143D02*
X0006579Y0040143D01*
X0006240Y0040535D02*
X0002580Y0040535D01*
X0002580Y0040928D02*
X0005965Y0040928D01*
X0005765Y0041320D02*
X0002580Y0041320D01*
X0002580Y0041712D02*
X0005611Y0041712D01*
X0005485Y0042104D02*
X0002580Y0042104D01*
X0002580Y0042496D02*
X0005423Y0042496D01*
X0002716Y0048380D02*
X0002580Y0048380D01*
X0002580Y0048772D02*
X0002794Y0048772D01*
X0002956Y0049164D02*
X0002580Y0049164D01*
X0002580Y0049556D02*
X0003208Y0049556D01*
X0003600Y0049948D02*
X0002580Y0049948D01*
X0002580Y0050341D02*
X0004329Y0050341D01*
X0002580Y0050733D02*
X0006290Y0050733D01*
X0006076Y0051125D02*
X0002580Y0051125D01*
X0002580Y0051517D02*
X0005914Y0051517D01*
X0005751Y0051909D02*
X0002580Y0051909D01*
X0002580Y0052302D02*
X0005596Y0052302D01*
X0005596Y0052694D02*
X0002580Y0052694D01*
X0002580Y0053086D02*
X0005596Y0053086D01*
X0005596Y0053478D02*
X0002580Y0053478D01*
X0002580Y0053871D02*
X0005596Y0053871D01*
X0005758Y0054263D02*
X0002580Y0054263D01*
X0002580Y0054655D02*
X0005921Y0054655D01*
X0006083Y0055047D02*
X0002580Y0055047D01*
X0002580Y0055439D02*
X0006307Y0055439D01*
X0006699Y0055832D02*
X0002580Y0055832D01*
X0002580Y0056224D02*
X0007092Y0056224D01*
X0007711Y0056616D02*
X0002580Y0056616D01*
X0002580Y0057008D02*
X0008658Y0057008D01*
X0002580Y0061323D02*
X0031273Y0061323D01*
X0030881Y0061715D02*
X0002580Y0061715D01*
X0002580Y0062107D02*
X0030488Y0062107D01*
X0030415Y0062499D02*
X0002580Y0062499D01*
X0002580Y0062891D02*
X0030415Y0062891D01*
X0030415Y0063284D02*
X0002580Y0063284D01*
X0002580Y0063676D02*
X0030415Y0063676D01*
X0030508Y0064068D02*
X0002580Y0064068D01*
X0002580Y0064460D02*
X0028683Y0064460D01*
X0028328Y0064852D02*
X0002580Y0064852D01*
X0002580Y0065245D02*
X0028328Y0065245D01*
X0028328Y0065637D02*
X0002580Y0065637D01*
X0002580Y0066029D02*
X0003866Y0066029D01*
X0003954Y0065970D02*
X0004386Y0065791D01*
X0004846Y0065700D01*
X0004982Y0065700D01*
X0004982Y0067979D01*
X0005178Y0067979D01*
X0005178Y0065700D01*
X0005314Y0065700D01*
X0005774Y0065791D01*
X0006206Y0065970D01*
X0006596Y0066231D01*
X0006927Y0066562D01*
X0007187Y0066951D01*
X0007367Y0067384D01*
X0007458Y0067843D01*
X0007458Y0067979D01*
X0005178Y0067979D01*
X0005178Y0068176D01*
X0004982Y0068176D01*
X0004982Y0070456D01*
X0004846Y0070456D01*
X0004386Y0070364D01*
X0003954Y0070185D01*
X0003564Y0069925D01*
X0003233Y0069593D01*
X0002973Y0069204D01*
X0002793Y0068771D01*
X0002702Y0068312D01*
X0002702Y0068176D01*
X0004981Y0068176D01*
X0004981Y0067979D01*
X0002702Y0067979D01*
X0002702Y0067843D01*
X0002793Y0067384D01*
X0002973Y0066951D01*
X0003233Y0066562D01*
X0003564Y0066231D01*
X0003954Y0065970D01*
X0003373Y0066421D02*
X0002580Y0066421D01*
X0002580Y0066814D02*
X0003065Y0066814D01*
X0002867Y0067206D02*
X0002580Y0067206D01*
X0002580Y0067598D02*
X0002751Y0067598D01*
X0002580Y0067990D02*
X0004981Y0067990D01*
X0005178Y0067990D02*
X0028328Y0067990D01*
X0028328Y0067598D02*
X0007409Y0067598D01*
X0007293Y0067206D02*
X0028328Y0067206D01*
X0028328Y0066814D02*
X0007095Y0066814D01*
X0006787Y0066421D02*
X0028328Y0066421D01*
X0028328Y0066029D02*
X0006294Y0066029D01*
X0005178Y0066029D02*
X0004982Y0066029D01*
X0004982Y0066421D02*
X0005178Y0066421D01*
X0005178Y0066814D02*
X0004982Y0066814D01*
X0004982Y0067206D02*
X0005178Y0067206D01*
X0005178Y0067598D02*
X0004982Y0067598D01*
X0005178Y0068176D02*
X0007458Y0068176D01*
X0007458Y0068312D01*
X0007367Y0068771D01*
X0007187Y0069204D01*
X0006927Y0069593D01*
X0006596Y0069925D01*
X0006206Y0070185D01*
X0005774Y0070364D01*
X0005314Y0070456D01*
X0005178Y0070456D01*
X0005178Y0068176D01*
X0005178Y0068382D02*
X0004982Y0068382D01*
X0004982Y0068775D02*
X0005178Y0068775D01*
X0005178Y0069167D02*
X0004982Y0069167D01*
X0004982Y0069559D02*
X0005178Y0069559D01*
X0005178Y0069951D02*
X0004982Y0069951D01*
X0004982Y0070343D02*
X0005178Y0070343D01*
X0005824Y0070343D02*
X0028328Y0070343D01*
X0028328Y0069951D02*
X0006556Y0069951D01*
X0006950Y0069559D02*
X0028328Y0069559D01*
X0028328Y0069167D02*
X0007203Y0069167D01*
X0007365Y0068775D02*
X0028328Y0068775D01*
X0028328Y0068382D02*
X0007444Y0068382D01*
X0004336Y0070343D02*
X0002580Y0070343D01*
X0002580Y0069951D02*
X0003604Y0069951D01*
X0003210Y0069559D02*
X0002580Y0069559D01*
X0002580Y0069167D02*
X0002957Y0069167D01*
X0002795Y0068775D02*
X0002580Y0068775D01*
X0002580Y0068382D02*
X0002716Y0068382D01*
X0002580Y0068078D02*
X0002580Y0030578D01*
X0002580Y0030730D02*
X0003157Y0030730D01*
X0002925Y0030338D02*
X0002580Y0030338D01*
X0002580Y0029946D02*
X0002778Y0029946D01*
X0002702Y0029553D02*
X0002580Y0029553D01*
X0002580Y0029161D02*
X0002702Y0029161D01*
X0002767Y0028769D02*
X0002580Y0028769D01*
X0002580Y0028377D02*
X0002900Y0028377D01*
X0003117Y0027985D02*
X0002580Y0027985D01*
X0002580Y0027592D02*
X0003452Y0027592D01*
X0004002Y0027200D02*
X0002580Y0027200D01*
X0004982Y0027200D02*
X0005178Y0027200D01*
X0005178Y0027592D02*
X0004982Y0027592D01*
X0004982Y0027985D02*
X0005178Y0027985D01*
X0005178Y0028377D02*
X0004982Y0028377D01*
X0004982Y0028769D02*
X0005178Y0028769D01*
X0005178Y0029161D02*
X0004982Y0029161D01*
X0004982Y0029553D02*
X0005178Y0029553D01*
X0005178Y0029946D02*
X0004982Y0029946D01*
X0004982Y0030338D02*
X0005178Y0030338D01*
X0005178Y0030730D02*
X0004982Y0030730D01*
X0004982Y0031122D02*
X0005178Y0031122D01*
X0005178Y0031514D02*
X0004982Y0031514D01*
X0004145Y0031514D02*
X0002580Y0031514D01*
X0002580Y0031122D02*
X0003512Y0031122D01*
X0002580Y0022886D02*
X0014495Y0022886D01*
X0014386Y0022864D02*
X0013954Y0022685D01*
X0013564Y0022425D01*
X0013233Y0022093D01*
X0012973Y0021704D01*
X0012793Y0021271D01*
X0012702Y0020812D01*
X0012702Y0020676D01*
X0014981Y0020676D01*
X0014981Y0020479D01*
X0012702Y0020479D01*
X0012702Y0020343D01*
X0012793Y0019884D01*
X0012973Y0019451D01*
X0013233Y0019062D01*
X0013564Y0018731D01*
X0013954Y0018470D01*
X0014386Y0018291D01*
X0014846Y0018200D01*
X0014982Y0018200D01*
X0014982Y0020479D01*
X0015178Y0020479D01*
X0015178Y0018200D01*
X0015314Y0018200D01*
X0015774Y0018291D01*
X0016206Y0018470D01*
X0016596Y0018731D01*
X0016927Y0019062D01*
X0017187Y0019451D01*
X0017367Y0019884D01*
X0017458Y0020343D01*
X0017458Y0020479D01*
X0015178Y0020479D01*
X0015178Y0020676D01*
X0014982Y0020676D01*
X0014982Y0022956D01*
X0014846Y0022956D01*
X0014386Y0022864D01*
X0014982Y0022886D02*
X0015178Y0022886D01*
X0015178Y0022956D02*
X0015314Y0022956D01*
X0015774Y0022864D01*
X0016206Y0022685D01*
X0016596Y0022425D01*
X0016927Y0022093D01*
X0017187Y0021704D01*
X0017367Y0021271D01*
X0017458Y0020812D01*
X0017458Y0020676D01*
X0015178Y0020676D01*
X0015178Y0022956D01*
X0015178Y0022494D02*
X0014982Y0022494D01*
X0014982Y0022101D02*
X0015178Y0022101D01*
X0015178Y0021709D02*
X0014982Y0021709D01*
X0014982Y0021317D02*
X0015178Y0021317D01*
X0015178Y0020925D02*
X0014982Y0020925D01*
X0014981Y0020532D02*
X0002580Y0020532D01*
X0002580Y0020140D02*
X0012742Y0020140D01*
X0012850Y0019748D02*
X0002580Y0019748D01*
X0002580Y0019356D02*
X0013036Y0019356D01*
X0013331Y0018964D02*
X0002580Y0018964D01*
X0002580Y0018571D02*
X0013802Y0018571D01*
X0014982Y0018571D02*
X0015178Y0018571D01*
X0015178Y0018964D02*
X0014982Y0018964D01*
X0014982Y0019356D02*
X0015178Y0019356D01*
X0015178Y0019748D02*
X0014982Y0019748D01*
X0014982Y0020140D02*
X0015178Y0020140D01*
X0015178Y0020532D02*
X0037481Y0020532D01*
X0037481Y0020479D02*
X0035202Y0020479D01*
X0035202Y0020343D01*
X0035293Y0019884D01*
X0035473Y0019451D01*
X0035733Y0019062D01*
X0036064Y0018731D01*
X0036454Y0018470D01*
X0036886Y0018291D01*
X0037346Y0018200D01*
X0037482Y0018200D01*
X0037482Y0020479D01*
X0037678Y0020479D01*
X0037678Y0018200D01*
X0037814Y0018200D01*
X0038274Y0018291D01*
X0038706Y0018470D01*
X0039096Y0018731D01*
X0039427Y0019062D01*
X0039687Y0019451D01*
X0039867Y0019884D01*
X0039958Y0020343D01*
X0039958Y0020479D01*
X0037678Y0020479D01*
X0037678Y0020676D01*
X0037482Y0020676D01*
X0037482Y0022956D01*
X0037346Y0022956D01*
X0036886Y0022864D01*
X0036454Y0022685D01*
X0036064Y0022425D01*
X0035733Y0022093D01*
X0035473Y0021704D01*
X0035293Y0021271D01*
X0035202Y0020812D01*
X0035202Y0020676D01*
X0037481Y0020676D01*
X0037481Y0020479D01*
X0037678Y0020532D02*
X0059981Y0020532D01*
X0059982Y0020140D02*
X0060178Y0020140D01*
X0060178Y0019748D02*
X0059982Y0019748D01*
X0059982Y0019356D02*
X0060178Y0019356D01*
X0060178Y0018964D02*
X0059982Y0018964D01*
X0059982Y0018571D02*
X0060178Y0018571D01*
X0060080Y0018078D02*
X0015080Y0018078D01*
X0016358Y0018571D02*
X0036302Y0018571D01*
X0035831Y0018964D02*
X0016829Y0018964D01*
X0017124Y0019356D02*
X0035536Y0019356D01*
X0035350Y0019748D02*
X0017310Y0019748D01*
X0017418Y0020140D02*
X0035242Y0020140D01*
X0035224Y0020925D02*
X0017435Y0020925D01*
X0017348Y0021317D02*
X0035312Y0021317D01*
X0035476Y0021709D02*
X0017184Y0021709D01*
X0016919Y0022101D02*
X0035741Y0022101D01*
X0036167Y0022494D02*
X0016493Y0022494D01*
X0015665Y0022886D02*
X0036995Y0022886D01*
X0037482Y0022886D02*
X0037678Y0022886D01*
X0037678Y0022956D02*
X0037814Y0022956D01*
X0038274Y0022864D01*
X0038706Y0022685D01*
X0039096Y0022425D01*
X0039427Y0022093D01*
X0039687Y0021704D01*
X0039867Y0021271D01*
X0039958Y0020812D01*
X0039958Y0020676D01*
X0037678Y0020676D01*
X0037678Y0022956D01*
X0037678Y0022494D02*
X0037482Y0022494D01*
X0037482Y0022101D02*
X0037678Y0022101D01*
X0037678Y0021709D02*
X0037482Y0021709D01*
X0037482Y0021317D02*
X0037678Y0021317D01*
X0037678Y0020925D02*
X0037482Y0020925D01*
X0037482Y0020140D02*
X0037678Y0020140D01*
X0037678Y0019748D02*
X0037482Y0019748D01*
X0037482Y0019356D02*
X0037678Y0019356D01*
X0037678Y0018964D02*
X0037482Y0018964D01*
X0037482Y0018571D02*
X0037678Y0018571D01*
X0038858Y0018571D02*
X0058802Y0018571D01*
X0058331Y0018964D02*
X0039329Y0018964D01*
X0039624Y0019356D02*
X0058036Y0019356D01*
X0057850Y0019748D02*
X0039810Y0019748D01*
X0039918Y0020140D02*
X0057742Y0020140D01*
X0057724Y0020925D02*
X0039935Y0020925D01*
X0039848Y0021317D02*
X0057812Y0021317D01*
X0057976Y0021709D02*
X0039684Y0021709D01*
X0039419Y0022101D02*
X0058241Y0022101D01*
X0058667Y0022494D02*
X0038993Y0022494D01*
X0038165Y0022886D02*
X0059495Y0022886D01*
X0054614Y0029167D02*
X0054341Y0029010D01*
X0054037Y0028928D01*
X0051517Y0028928D01*
X0051517Y0032881D01*
X0051517Y0033274D01*
X0055076Y0033274D01*
X0055076Y0036188D01*
X0054994Y0036492D01*
X0054837Y0036765D01*
X0054614Y0036988D01*
X0054341Y0037146D01*
X0054037Y0037227D01*
X0051517Y0037227D01*
X0051517Y0033275D01*
X0051123Y0033275D01*
X0051123Y0037227D01*
X0048604Y0037227D01*
X0048299Y0037146D01*
X0048026Y0036988D01*
X0047803Y0036765D01*
X0047646Y0036492D01*
X0047564Y0036188D01*
X0047564Y0033274D01*
X0051123Y0033274D01*
X0051123Y0032881D01*
X0047564Y0032881D01*
X0047564Y0029967D01*
X0047646Y0029663D01*
X0047803Y0029390D01*
X0048026Y0029167D01*
X0048299Y0029010D01*
X0048604Y0028928D01*
X0051123Y0028928D01*
X0051123Y0032881D01*
X0051517Y0032881D01*
X0055076Y0032881D01*
X0055076Y0029967D01*
X0054994Y0029663D01*
X0054837Y0029390D01*
X0054614Y0029167D01*
X0054604Y0029161D02*
X0068167Y0029161D01*
X0068233Y0029062D02*
X0068564Y0028731D01*
X0068954Y0028470D01*
X0069386Y0028291D01*
X0069846Y0028200D01*
X0069982Y0028200D01*
X0069982Y0030479D01*
X0070178Y0030479D01*
X0070178Y0028200D01*
X0070314Y0028200D01*
X0070774Y0028291D01*
X0071206Y0028470D01*
X0071596Y0028731D01*
X0071927Y0029062D01*
X0072187Y0029451D01*
X0072367Y0029884D01*
X0072458Y0030343D01*
X0072458Y0030479D01*
X0070178Y0030479D01*
X0070178Y0030676D01*
X0069982Y0030676D01*
X0069982Y0032956D01*
X0069846Y0032956D01*
X0069386Y0032864D01*
X0068954Y0032685D01*
X0068564Y0032425D01*
X0068233Y0032093D01*
X0067973Y0031704D01*
X0067793Y0031271D01*
X0067702Y0030812D01*
X0067702Y0030676D01*
X0069981Y0030676D01*
X0069981Y0030479D01*
X0067702Y0030479D01*
X0067702Y0030343D01*
X0067793Y0029884D01*
X0067973Y0029451D01*
X0068233Y0029062D01*
X0068526Y0028769D02*
X0039745Y0028769D01*
X0039745Y0028377D02*
X0069180Y0028377D01*
X0069982Y0028377D02*
X0070178Y0028377D01*
X0070178Y0028769D02*
X0069982Y0028769D01*
X0069982Y0029161D02*
X0070178Y0029161D01*
X0070178Y0029553D02*
X0069982Y0029553D01*
X0069982Y0029946D02*
X0070178Y0029946D01*
X0070178Y0030338D02*
X0069982Y0030338D01*
X0070178Y0030676D02*
X0072458Y0030676D01*
X0072458Y0030812D01*
X0072367Y0031271D01*
X0072187Y0031704D01*
X0071927Y0032093D01*
X0071596Y0032425D01*
X0071206Y0032685D01*
X0070774Y0032864D01*
X0070314Y0032956D01*
X0070178Y0032956D01*
X0070178Y0030676D01*
X0070178Y0030730D02*
X0069982Y0030730D01*
X0069982Y0031122D02*
X0070178Y0031122D01*
X0070178Y0031514D02*
X0069982Y0031514D01*
X0069982Y0031907D02*
X0070178Y0031907D01*
X0070178Y0032299D02*
X0069982Y0032299D01*
X0069982Y0032691D02*
X0070178Y0032691D01*
X0071192Y0032691D02*
X0072580Y0032691D01*
X0072580Y0032299D02*
X0071722Y0032299D01*
X0072052Y0031907D02*
X0072580Y0031907D01*
X0072580Y0031514D02*
X0072266Y0031514D01*
X0072396Y0031122D02*
X0072580Y0031122D01*
X0072580Y0030730D02*
X0072458Y0030730D01*
X0072580Y0030578D02*
X0072580Y0068078D01*
X0072580Y0067990D02*
X0070178Y0067990D01*
X0070178Y0067979D02*
X0070178Y0068176D01*
X0069982Y0068176D01*
X0069982Y0070456D01*
X0069846Y0070456D01*
X0069386Y0070364D01*
X0068954Y0070185D01*
X0068564Y0069925D01*
X0068233Y0069593D01*
X0067973Y0069204D01*
X0067793Y0068771D01*
X0067702Y0068312D01*
X0067702Y0068176D01*
X0069981Y0068176D01*
X0069981Y0067979D01*
X0067702Y0067979D01*
X0067702Y0067843D01*
X0067793Y0067384D01*
X0067973Y0066951D01*
X0068233Y0066562D01*
X0068564Y0066231D01*
X0068954Y0065970D01*
X0069386Y0065791D01*
X0069846Y0065700D01*
X0069982Y0065700D01*
X0069982Y0067979D01*
X0070178Y0067979D01*
X0070178Y0065700D01*
X0070314Y0065700D01*
X0070774Y0065791D01*
X0071206Y0065970D01*
X0071596Y0066231D01*
X0071927Y0066562D01*
X0072187Y0066951D01*
X0072367Y0067384D01*
X0072458Y0067843D01*
X0072458Y0067979D01*
X0070178Y0067979D01*
X0069981Y0067990D02*
X0046832Y0067990D01*
X0046832Y0067598D02*
X0067751Y0067598D01*
X0067867Y0067206D02*
X0046832Y0067206D01*
X0046832Y0066814D02*
X0068065Y0066814D01*
X0068373Y0066421D02*
X0046832Y0066421D01*
X0046832Y0066029D02*
X0068866Y0066029D01*
X0069982Y0066029D02*
X0070178Y0066029D01*
X0070178Y0066421D02*
X0069982Y0066421D01*
X0069982Y0066814D02*
X0070178Y0066814D01*
X0070178Y0067206D02*
X0069982Y0067206D01*
X0069982Y0067598D02*
X0070178Y0067598D01*
X0070178Y0068176D02*
X0072458Y0068176D01*
X0072458Y0068312D01*
X0072367Y0068771D01*
X0072187Y0069204D01*
X0071927Y0069593D01*
X0071596Y0069925D01*
X0071206Y0070185D01*
X0070774Y0070364D01*
X0070314Y0070456D01*
X0070178Y0070456D01*
X0070178Y0068176D01*
X0070178Y0068382D02*
X0069982Y0068382D01*
X0069982Y0068775D02*
X0070178Y0068775D01*
X0070178Y0069167D02*
X0069982Y0069167D01*
X0069982Y0069559D02*
X0070178Y0069559D01*
X0070178Y0069951D02*
X0069982Y0069951D01*
X0069982Y0070343D02*
X0070178Y0070343D01*
X0070824Y0070343D02*
X0072580Y0070343D01*
X0072580Y0069951D02*
X0071556Y0069951D01*
X0071950Y0069559D02*
X0072580Y0069559D01*
X0072580Y0069167D02*
X0072203Y0069167D01*
X0072365Y0068775D02*
X0072580Y0068775D01*
X0072580Y0068382D02*
X0072444Y0068382D01*
X0072409Y0067598D02*
X0072580Y0067598D01*
X0072580Y0067206D02*
X0072293Y0067206D01*
X0072095Y0066814D02*
X0072580Y0066814D01*
X0072580Y0066421D02*
X0071787Y0066421D01*
X0071294Y0066029D02*
X0072580Y0066029D01*
X0072580Y0065637D02*
X0046832Y0065637D01*
X0046832Y0065245D02*
X0072580Y0065245D01*
X0072580Y0064852D02*
X0046790Y0064852D01*
X0046398Y0064460D02*
X0072580Y0064460D01*
X0072580Y0064068D02*
X0044652Y0064068D01*
X0044745Y0063676D02*
X0072580Y0063676D01*
X0072580Y0063284D02*
X0044745Y0063284D01*
X0044745Y0062891D02*
X0072580Y0062891D01*
X0072580Y0062499D02*
X0044745Y0062499D01*
X0044672Y0062107D02*
X0072580Y0062107D01*
X0072580Y0061715D02*
X0044279Y0061715D01*
X0043887Y0061323D02*
X0072580Y0061323D01*
X0072580Y0060930D02*
X0043495Y0060930D01*
X0041665Y0060930D02*
X0033495Y0060930D01*
X0033887Y0061323D02*
X0041273Y0061323D01*
X0040881Y0061715D02*
X0034279Y0061715D01*
X0034672Y0062107D02*
X0040488Y0062107D01*
X0040415Y0062499D02*
X0034745Y0062499D01*
X0034745Y0062891D02*
X0040415Y0062891D01*
X0040415Y0063284D02*
X0034745Y0063284D01*
X0034745Y0063676D02*
X0040415Y0063676D01*
X0040508Y0064068D02*
X0034652Y0064068D01*
X0035847Y0064460D02*
X0039392Y0064460D01*
X0039000Y0064852D02*
X0036202Y0064852D01*
X0036202Y0065245D02*
X0038958Y0065245D01*
X0038958Y0065637D02*
X0036202Y0065637D01*
X0036202Y0066029D02*
X0038958Y0066029D01*
X0038958Y0066421D02*
X0036202Y0066421D01*
X0036202Y0066814D02*
X0038958Y0066814D01*
X0038958Y0067206D02*
X0036202Y0067206D01*
X0036202Y0067598D02*
X0038958Y0067598D01*
X0038958Y0067990D02*
X0036202Y0067990D01*
X0036202Y0068382D02*
X0038958Y0068382D01*
X0038958Y0068775D02*
X0036202Y0068775D01*
X0036202Y0069167D02*
X0038958Y0069167D01*
X0038958Y0069559D02*
X0036202Y0069559D01*
X0036202Y0069951D02*
X0038958Y0069951D01*
X0038958Y0070343D02*
X0036202Y0070343D01*
X0036202Y0070736D02*
X0038958Y0070736D01*
X0038958Y0071128D02*
X0036202Y0071128D01*
X0036202Y0071520D02*
X0038958Y0071520D01*
X0038958Y0071912D02*
X0036202Y0071912D01*
X0036202Y0072304D02*
X0038958Y0072304D01*
X0038958Y0072697D02*
X0036202Y0072697D01*
X0036202Y0073089D02*
X0038958Y0073089D01*
X0038958Y0073481D02*
X0036202Y0073481D01*
X0036202Y0073873D02*
X0038958Y0073873D01*
X0038958Y0074266D02*
X0036202Y0074266D01*
X0036202Y0074658D02*
X0038958Y0074658D01*
X0038958Y0075050D02*
X0036202Y0075050D01*
X0036202Y0075442D02*
X0038958Y0075442D01*
X0038958Y0075834D02*
X0038378Y0075834D01*
X0037678Y0075834D02*
X0037482Y0075834D01*
X0037482Y0076227D02*
X0037678Y0076227D01*
X0037678Y0076619D02*
X0037482Y0076619D01*
X0037482Y0077011D02*
X0037678Y0077011D01*
X0037678Y0077403D02*
X0037482Y0077403D01*
X0037482Y0077795D02*
X0037678Y0077795D01*
X0037678Y0078176D02*
X0039958Y0078176D01*
X0039958Y0078312D01*
X0039867Y0078771D01*
X0039687Y0079204D01*
X0039427Y0079593D01*
X0039096Y0079925D01*
X0038706Y0080185D01*
X0038274Y0080364D01*
X0037814Y0080456D01*
X0037678Y0080456D01*
X0037678Y0078176D01*
X0037678Y0078188D02*
X0037482Y0078188D01*
X0037482Y0078580D02*
X0037678Y0078580D01*
X0037678Y0078972D02*
X0037482Y0078972D01*
X0037482Y0079364D02*
X0037678Y0079364D01*
X0037678Y0079757D02*
X0037482Y0079757D01*
X0037482Y0080149D02*
X0037678Y0080149D01*
X0038761Y0080149D02*
X0058899Y0080149D01*
X0058954Y0080185D02*
X0058564Y0079925D01*
X0058233Y0079593D01*
X0057973Y0079204D01*
X0057793Y0078771D01*
X0057702Y0078312D01*
X0057702Y0078176D01*
X0059981Y0078176D01*
X0059981Y0077979D01*
X0057702Y0077979D01*
X0057702Y0077843D01*
X0057793Y0077384D01*
X0057973Y0076951D01*
X0058233Y0076562D01*
X0058564Y0076231D01*
X0058954Y0075970D01*
X0059386Y0075791D01*
X0059846Y0075700D01*
X0059982Y0075700D01*
X0059982Y0077979D01*
X0060178Y0077979D01*
X0060178Y0075700D01*
X0060314Y0075700D01*
X0060774Y0075791D01*
X0061206Y0075970D01*
X0061596Y0076231D01*
X0061927Y0076562D01*
X0062187Y0076951D01*
X0062367Y0077384D01*
X0062458Y0077843D01*
X0062458Y0077979D01*
X0060178Y0077979D01*
X0060178Y0078176D01*
X0059982Y0078176D01*
X0059982Y0080456D01*
X0059846Y0080456D01*
X0059386Y0080364D01*
X0058954Y0080185D01*
X0058396Y0079757D02*
X0039264Y0079757D01*
X0039580Y0079364D02*
X0058080Y0079364D01*
X0057877Y0078972D02*
X0039783Y0078972D01*
X0039905Y0078580D02*
X0057755Y0078580D01*
X0057702Y0078188D02*
X0039958Y0078188D01*
X0039948Y0077795D02*
X0057712Y0077795D01*
X0057790Y0077403D02*
X0039870Y0077403D01*
X0039712Y0077011D02*
X0057948Y0077011D01*
X0058195Y0076619D02*
X0046553Y0076619D01*
X0046832Y0076227D02*
X0058570Y0076227D01*
X0059282Y0075834D02*
X0046832Y0075834D01*
X0046832Y0075442D02*
X0072580Y0075442D01*
X0072580Y0075050D02*
X0046832Y0075050D01*
X0046832Y0074658D02*
X0072580Y0074658D01*
X0072580Y0074266D02*
X0046832Y0074266D01*
X0046832Y0073873D02*
X0072580Y0073873D01*
X0072580Y0073481D02*
X0046832Y0073481D01*
X0046832Y0073089D02*
X0072580Y0073089D01*
X0072580Y0072697D02*
X0046832Y0072697D01*
X0046832Y0072304D02*
X0072580Y0072304D01*
X0072580Y0071912D02*
X0046832Y0071912D01*
X0046832Y0071520D02*
X0072580Y0071520D01*
X0072580Y0071128D02*
X0046832Y0071128D01*
X0046832Y0070736D02*
X0072580Y0070736D01*
X0069336Y0070343D02*
X0046832Y0070343D01*
X0046832Y0069951D02*
X0068604Y0069951D01*
X0068210Y0069559D02*
X0046832Y0069559D01*
X0046832Y0069167D02*
X0067957Y0069167D01*
X0067795Y0068775D02*
X0046832Y0068775D01*
X0046832Y0068382D02*
X0067716Y0068382D01*
X0072580Y0075834D02*
X0060878Y0075834D01*
X0060178Y0075834D02*
X0059982Y0075834D01*
X0059982Y0076227D02*
X0060178Y0076227D01*
X0060178Y0076619D02*
X0059982Y0076619D01*
X0059982Y0077011D02*
X0060178Y0077011D01*
X0060178Y0077403D02*
X0059982Y0077403D01*
X0059982Y0077795D02*
X0060178Y0077795D01*
X0060178Y0078176D02*
X0062458Y0078176D01*
X0062458Y0078312D01*
X0062367Y0078771D01*
X0062187Y0079204D01*
X0061927Y0079593D01*
X0061596Y0079925D01*
X0061206Y0080185D01*
X0060774Y0080364D01*
X0060314Y0080456D01*
X0060178Y0080456D01*
X0060178Y0078176D01*
X0060178Y0078188D02*
X0059982Y0078188D01*
X0059982Y0078580D02*
X0060178Y0078580D01*
X0060178Y0078972D02*
X0059982Y0078972D01*
X0059982Y0079364D02*
X0060178Y0079364D01*
X0060178Y0079757D02*
X0059982Y0079757D01*
X0059982Y0080149D02*
X0060178Y0080149D01*
X0060080Y0080578D02*
X0015080Y0080578D01*
X0015178Y0080456D02*
X0015314Y0080456D01*
X0015774Y0080364D01*
X0016206Y0080185D01*
X0016596Y0079925D01*
X0016927Y0079593D01*
X0017187Y0079204D01*
X0017367Y0078771D01*
X0017458Y0078312D01*
X0017458Y0078176D01*
X0015178Y0078176D01*
X0014982Y0078176D01*
X0014982Y0080456D01*
X0014846Y0080456D01*
X0014386Y0080364D01*
X0013954Y0080185D01*
X0013564Y0079925D01*
X0013233Y0079593D01*
X0012973Y0079204D01*
X0012793Y0078771D01*
X0012702Y0078312D01*
X0012702Y0078176D01*
X0014981Y0078176D01*
X0014981Y0077979D01*
X0012702Y0077979D01*
X0012702Y0077843D01*
X0012793Y0077384D01*
X0012973Y0076951D01*
X0013233Y0076562D01*
X0013564Y0076231D01*
X0013954Y0075970D01*
X0014386Y0075791D01*
X0014846Y0075700D01*
X0014982Y0075700D01*
X0014982Y0077979D01*
X0015178Y0077979D01*
X0015178Y0075700D01*
X0015314Y0075700D01*
X0015774Y0075791D01*
X0016206Y0075970D01*
X0016596Y0076231D01*
X0016927Y0076562D01*
X0017187Y0076951D01*
X0017367Y0077384D01*
X0017458Y0077843D01*
X0017458Y0077979D01*
X0015178Y0077979D01*
X0015178Y0078176D01*
X0015178Y0080456D01*
X0015178Y0080149D02*
X0014982Y0080149D01*
X0014982Y0079757D02*
X0015178Y0079757D01*
X0015178Y0079364D02*
X0014982Y0079364D01*
X0014982Y0078972D02*
X0015178Y0078972D01*
X0015178Y0078580D02*
X0014982Y0078580D01*
X0014982Y0078188D02*
X0015178Y0078188D01*
X0015178Y0077795D02*
X0014982Y0077795D01*
X0014982Y0077403D02*
X0015178Y0077403D01*
X0015178Y0077011D02*
X0014982Y0077011D01*
X0014982Y0076619D02*
X0015178Y0076619D01*
X0015178Y0076227D02*
X0014982Y0076227D01*
X0014982Y0075834D02*
X0015178Y0075834D01*
X0015878Y0075834D02*
X0028328Y0075834D01*
X0028328Y0075442D02*
X0002580Y0075442D01*
X0002580Y0075050D02*
X0028328Y0075050D01*
X0028328Y0074658D02*
X0002580Y0074658D01*
X0002580Y0074266D02*
X0028328Y0074266D01*
X0028328Y0073873D02*
X0002580Y0073873D01*
X0002580Y0073481D02*
X0028328Y0073481D01*
X0028328Y0073089D02*
X0002580Y0073089D01*
X0002580Y0072697D02*
X0028328Y0072697D01*
X0028328Y0072304D02*
X0002580Y0072304D01*
X0002580Y0071912D02*
X0028328Y0071912D01*
X0028328Y0071520D02*
X0002580Y0071520D01*
X0002580Y0071128D02*
X0028328Y0071128D01*
X0028328Y0070736D02*
X0002580Y0070736D01*
X0002580Y0075834D02*
X0014282Y0075834D01*
X0013570Y0076227D02*
X0002580Y0076227D01*
X0002580Y0076619D02*
X0013195Y0076619D01*
X0012948Y0077011D02*
X0002580Y0077011D01*
X0002580Y0077403D02*
X0012790Y0077403D01*
X0012712Y0077795D02*
X0002580Y0077795D01*
X0002580Y0078188D02*
X0012702Y0078188D01*
X0012755Y0078580D02*
X0002580Y0078580D01*
X0002580Y0078972D02*
X0012877Y0078972D01*
X0013080Y0079364D02*
X0002580Y0079364D01*
X0002580Y0079757D02*
X0013396Y0079757D01*
X0013899Y0080149D02*
X0002580Y0080149D01*
X0002580Y0080541D02*
X0072580Y0080541D01*
X0072580Y0080149D02*
X0061261Y0080149D01*
X0061764Y0079757D02*
X0072580Y0079757D01*
X0072580Y0079364D02*
X0062080Y0079364D01*
X0062283Y0078972D02*
X0072580Y0078972D01*
X0072580Y0078580D02*
X0062405Y0078580D01*
X0062458Y0078188D02*
X0072580Y0078188D01*
X0072580Y0077795D02*
X0062448Y0077795D01*
X0062370Y0077403D02*
X0072580Y0077403D01*
X0072580Y0077011D02*
X0062212Y0077011D01*
X0061965Y0076619D02*
X0072580Y0076619D01*
X0072580Y0076227D02*
X0061590Y0076227D01*
X0060080Y0080578D02*
X0060382Y0080574D01*
X0060684Y0080563D01*
X0060985Y0080545D01*
X0061286Y0080520D01*
X0061587Y0080487D01*
X0061886Y0080447D01*
X0062184Y0080400D01*
X0062482Y0080345D01*
X0062777Y0080284D01*
X0063071Y0080215D01*
X0063364Y0080139D01*
X0063654Y0080056D01*
X0063943Y0079966D01*
X0064229Y0079869D01*
X0064513Y0079766D01*
X0064794Y0079655D01*
X0065072Y0079538D01*
X0065348Y0079414D01*
X0065620Y0079283D01*
X0065889Y0079146D01*
X0066155Y0079003D01*
X0066417Y0078853D01*
X0066676Y0078696D01*
X0066930Y0078534D01*
X0067181Y0078365D01*
X0067427Y0078191D01*
X0067670Y0078010D01*
X0067907Y0077824D01*
X0068141Y0077632D01*
X0068369Y0077434D01*
X0068593Y0077231D01*
X0068811Y0077023D01*
X0069025Y0076809D01*
X0069233Y0076591D01*
X0069436Y0076367D01*
X0069634Y0076139D01*
X0069826Y0075905D01*
X0070012Y0075668D01*
X0070193Y0075425D01*
X0070367Y0075179D01*
X0070536Y0074928D01*
X0070698Y0074674D01*
X0070855Y0074415D01*
X0071005Y0074153D01*
X0071148Y0073887D01*
X0071285Y0073618D01*
X0071416Y0073346D01*
X0071540Y0073070D01*
X0071657Y0072792D01*
X0071768Y0072511D01*
X0071871Y0072227D01*
X0071968Y0071941D01*
X0072058Y0071652D01*
X0072141Y0071362D01*
X0072217Y0071069D01*
X0072286Y0070775D01*
X0072347Y0070480D01*
X0072402Y0070182D01*
X0072449Y0069884D01*
X0072489Y0069585D01*
X0072522Y0069284D01*
X0072547Y0068983D01*
X0072565Y0068682D01*
X0072576Y0068380D01*
X0072580Y0068078D01*
X0072580Y0050341D02*
X0070831Y0050341D01*
X0070774Y0050364D02*
X0070314Y0050456D01*
X0070178Y0050456D01*
X0070178Y0048176D01*
X0072458Y0048176D01*
X0072458Y0048312D01*
X0072367Y0048771D01*
X0072187Y0049204D01*
X0071927Y0049593D01*
X0071596Y0049925D01*
X0071206Y0050185D01*
X0070774Y0050364D01*
X0070178Y0050341D02*
X0069982Y0050341D01*
X0069982Y0049948D02*
X0070178Y0049948D01*
X0070178Y0049556D02*
X0069982Y0049556D01*
X0069982Y0049164D02*
X0070178Y0049164D01*
X0070178Y0048772D02*
X0069982Y0048772D01*
X0069982Y0048380D02*
X0070178Y0048380D01*
X0070178Y0047987D02*
X0072580Y0047987D01*
X0072580Y0047595D02*
X0072409Y0047595D01*
X0072292Y0047203D02*
X0072580Y0047203D01*
X0072580Y0046811D02*
X0072093Y0046811D01*
X0071784Y0046418D02*
X0072580Y0046418D01*
X0072580Y0046026D02*
X0071290Y0046026D01*
X0072580Y0045634D02*
X0068910Y0045634D01*
X0068781Y0045812D02*
X0068314Y0046279D01*
X0067780Y0046667D01*
X0067191Y0046967D01*
X0066563Y0047171D01*
X0065910Y0047274D01*
X0062777Y0047274D01*
X0062777Y0043275D01*
X0062383Y0043275D01*
X0062383Y0047274D01*
X0059250Y0047274D01*
X0058597Y0047171D01*
X0057969Y0046967D01*
X0057380Y0046667D01*
X0056846Y0046279D01*
X0056379Y0045812D01*
X0055991Y0045277D01*
X0055691Y0044689D01*
X0055486Y0044060D01*
X0055383Y0043408D01*
X0055383Y0043274D01*
X0062383Y0043274D01*
X0062383Y0042881D01*
X0055383Y0042881D01*
X0055383Y0042747D01*
X0055486Y0042095D01*
X0055691Y0041467D01*
X0055991Y0040878D01*
X0056379Y0040344D01*
X0056846Y0039876D01*
X0057380Y0039488D01*
X0057969Y0039188D01*
X0058597Y0038984D01*
X0059250Y0038881D01*
X0062383Y0038881D01*
X0062383Y0042881D01*
X0062777Y0042881D01*
X0062777Y0043274D01*
X0069777Y0043274D01*
X0069777Y0043408D01*
X0069673Y0044060D01*
X0069469Y0044689D01*
X0069169Y0045277D01*
X0068781Y0045812D01*
X0068870Y0046026D02*
X0068567Y0046026D01*
X0068376Y0046418D02*
X0068122Y0046418D01*
X0068067Y0046811D02*
X0067498Y0046811D01*
X0067868Y0047203D02*
X0066362Y0047203D01*
X0067751Y0047595D02*
X0054011Y0047595D01*
X0053990Y0047631D02*
X0053768Y0047854D01*
X0053495Y0048012D01*
X0053190Y0048093D01*
X0050277Y0048093D01*
X0050277Y0044534D01*
X0054230Y0044534D01*
X0054230Y0047054D01*
X0054148Y0047358D01*
X0053990Y0047631D01*
X0054190Y0047203D02*
X0058798Y0047203D01*
X0057662Y0046811D02*
X0054230Y0046811D01*
X0054230Y0046418D02*
X0057038Y0046418D01*
X0056593Y0046026D02*
X0054230Y0046026D01*
X0054230Y0045634D02*
X0056250Y0045634D01*
X0055972Y0045242D02*
X0054230Y0045242D01*
X0054230Y0044850D02*
X0055773Y0044850D01*
X0055615Y0044457D02*
X0050277Y0044457D01*
X0050277Y0044534D02*
X0050277Y0044141D01*
X0054230Y0044141D01*
X0054230Y0041621D01*
X0054148Y0041316D01*
X0053990Y0041044D01*
X0053768Y0040821D01*
X0053495Y0040663D01*
X0053190Y0040582D01*
X0050277Y0040582D01*
X0050277Y0044141D01*
X0049883Y0044141D01*
X0049883Y0044534D01*
X0045930Y0044534D01*
X0045930Y0047054D01*
X0046012Y0047358D01*
X0046170Y0047631D01*
X0046392Y0047854D01*
X0046665Y0048012D01*
X0046970Y0048093D01*
X0049883Y0048093D01*
X0049883Y0044534D01*
X0050277Y0044534D01*
X0050277Y0044850D02*
X0049883Y0044850D01*
X0049883Y0045242D02*
X0050277Y0045242D01*
X0050277Y0045634D02*
X0049883Y0045634D01*
X0049883Y0046026D02*
X0050277Y0046026D01*
X0050277Y0046418D02*
X0049883Y0046418D01*
X0049883Y0046811D02*
X0050277Y0046811D01*
X0050277Y0047203D02*
X0049883Y0047203D01*
X0049883Y0047595D02*
X0050277Y0047595D01*
X0050277Y0047987D02*
X0049883Y0047987D01*
X0049883Y0044457D02*
X0045709Y0044457D01*
X0045709Y0044065D02*
X0045930Y0044065D01*
X0045930Y0043673D02*
X0045875Y0043673D01*
X0045930Y0044850D02*
X0045709Y0044850D01*
X0045709Y0045242D02*
X0045930Y0045242D01*
X0045930Y0045634D02*
X0045709Y0045634D01*
X0045709Y0046026D02*
X0045930Y0046026D01*
X0045930Y0046418D02*
X0045709Y0046418D01*
X0045709Y0046811D02*
X0045930Y0046811D01*
X0045970Y0047203D02*
X0045709Y0047203D01*
X0045709Y0047595D02*
X0046149Y0047595D01*
X0045709Y0047987D02*
X0046623Y0047987D01*
X0046614Y0048380D02*
X0045709Y0048380D01*
X0045709Y0048772D02*
X0046222Y0048772D01*
X0046143Y0049164D02*
X0045709Y0049164D01*
X0045709Y0049556D02*
X0046143Y0049556D01*
X0046143Y0049948D02*
X0045709Y0049948D01*
X0045709Y0050341D02*
X0046143Y0050341D01*
X0046143Y0050733D02*
X0045709Y0050733D01*
X0045709Y0051125D02*
X0046143Y0051125D01*
X0046143Y0051517D02*
X0045709Y0051517D01*
X0045709Y0051909D02*
X0046143Y0051909D01*
X0046143Y0052302D02*
X0045813Y0052302D01*
X0049883Y0044065D02*
X0050277Y0044065D01*
X0050277Y0043673D02*
X0049883Y0043673D01*
X0049883Y0043281D02*
X0050277Y0043281D01*
X0050277Y0042889D02*
X0049883Y0042889D01*
X0049883Y0042496D02*
X0050277Y0042496D01*
X0050277Y0042104D02*
X0049883Y0042104D01*
X0049883Y0041712D02*
X0050277Y0041712D01*
X0050277Y0041320D02*
X0049883Y0041320D01*
X0049883Y0040928D02*
X0050277Y0040928D01*
X0053874Y0040928D02*
X0055965Y0040928D01*
X0055765Y0041320D02*
X0054149Y0041320D01*
X0054230Y0041712D02*
X0055611Y0041712D01*
X0055485Y0042104D02*
X0054230Y0042104D01*
X0054230Y0042496D02*
X0055423Y0042496D01*
X0055383Y0043281D02*
X0054230Y0043281D01*
X0054230Y0043673D02*
X0055425Y0043673D01*
X0055488Y0044065D02*
X0054230Y0044065D01*
X0054230Y0042889D02*
X0062383Y0042889D01*
X0062383Y0043281D02*
X0062777Y0043281D01*
X0062777Y0043673D02*
X0062383Y0043673D01*
X0062383Y0044065D02*
X0062777Y0044065D01*
X0062777Y0044457D02*
X0062383Y0044457D01*
X0062383Y0044850D02*
X0062777Y0044850D01*
X0062777Y0045242D02*
X0062383Y0045242D01*
X0062383Y0045634D02*
X0062777Y0045634D01*
X0062777Y0046026D02*
X0062383Y0046026D01*
X0062383Y0046418D02*
X0062777Y0046418D01*
X0062777Y0046811D02*
X0062383Y0046811D01*
X0062383Y0047203D02*
X0062777Y0047203D01*
X0062777Y0042889D02*
X0072580Y0042889D01*
X0072580Y0043281D02*
X0069777Y0043281D01*
X0069735Y0043673D02*
X0072580Y0043673D01*
X0072580Y0044065D02*
X0069672Y0044065D01*
X0069545Y0044457D02*
X0072580Y0044457D01*
X0072580Y0044850D02*
X0069387Y0044850D01*
X0069188Y0045242D02*
X0072580Y0045242D01*
X0070178Y0046026D02*
X0069982Y0046026D01*
X0069982Y0046418D02*
X0070178Y0046418D01*
X0070178Y0046811D02*
X0069982Y0046811D01*
X0069982Y0047203D02*
X0070178Y0047203D01*
X0070178Y0047595D02*
X0069982Y0047595D01*
X0069981Y0047987D02*
X0053537Y0047987D01*
X0053545Y0048380D02*
X0067716Y0048380D01*
X0071560Y0049948D02*
X0072580Y0049948D01*
X0072580Y0049556D02*
X0071952Y0049556D01*
X0072204Y0049164D02*
X0072580Y0049164D01*
X0072580Y0048772D02*
X0072366Y0048772D01*
X0072444Y0048380D02*
X0072580Y0048380D01*
X0072580Y0042496D02*
X0069737Y0042496D01*
X0069777Y0042747D02*
X0069777Y0042881D01*
X0062777Y0042881D01*
X0062777Y0038881D01*
X0065910Y0038881D01*
X0066563Y0038984D01*
X0067191Y0039188D01*
X0067780Y0039488D01*
X0068314Y0039876D01*
X0068781Y0040344D01*
X0069169Y0040878D01*
X0069469Y0041467D01*
X0069673Y0042095D01*
X0069777Y0042747D01*
X0069675Y0042104D02*
X0072580Y0042104D01*
X0072580Y0041712D02*
X0069549Y0041712D01*
X0069395Y0041320D02*
X0072580Y0041320D01*
X0072580Y0040928D02*
X0069195Y0040928D01*
X0068920Y0040535D02*
X0072580Y0040535D01*
X0072580Y0040143D02*
X0068581Y0040143D01*
X0068141Y0039751D02*
X0072580Y0039751D01*
X0072580Y0039359D02*
X0067525Y0039359D01*
X0066451Y0038966D02*
X0072580Y0038966D01*
X0072580Y0038574D02*
X0036753Y0038574D01*
X0037145Y0038182D02*
X0072580Y0038182D01*
X0072580Y0037790D02*
X0037538Y0037790D01*
X0037930Y0037398D02*
X0072580Y0037398D01*
X0072580Y0037005D02*
X0054584Y0037005D01*
X0054925Y0036613D02*
X0072580Y0036613D01*
X0072580Y0036221D02*
X0055067Y0036221D01*
X0055076Y0035829D02*
X0072580Y0035829D01*
X0072580Y0035437D02*
X0055076Y0035437D01*
X0055076Y0035044D02*
X0072580Y0035044D01*
X0072580Y0034652D02*
X0055076Y0034652D01*
X0055076Y0034260D02*
X0072580Y0034260D01*
X0072580Y0033868D02*
X0055076Y0033868D01*
X0055076Y0033475D02*
X0072580Y0033475D01*
X0072580Y0033083D02*
X0051517Y0033083D01*
X0051517Y0032691D02*
X0051123Y0032691D01*
X0051123Y0032299D02*
X0051517Y0032299D01*
X0051517Y0031907D02*
X0051123Y0031907D01*
X0051123Y0031514D02*
X0051517Y0031514D01*
X0051517Y0031122D02*
X0051123Y0031122D01*
X0051123Y0030730D02*
X0051517Y0030730D01*
X0051517Y0030338D02*
X0051123Y0030338D01*
X0051123Y0029946D02*
X0051517Y0029946D01*
X0051517Y0029553D02*
X0051123Y0029553D01*
X0051123Y0029161D02*
X0051517Y0029161D01*
X0054931Y0029553D02*
X0067930Y0029553D01*
X0067781Y0029946D02*
X0055070Y0029946D01*
X0055076Y0030338D02*
X0067703Y0030338D01*
X0067702Y0030730D02*
X0055076Y0030730D01*
X0055076Y0031122D02*
X0067764Y0031122D01*
X0067894Y0031514D02*
X0055076Y0031514D01*
X0055076Y0031907D02*
X0068108Y0031907D01*
X0068438Y0032299D02*
X0055076Y0032299D01*
X0055076Y0032691D02*
X0068968Y0032691D01*
X0072457Y0030338D02*
X0072580Y0030338D01*
X0072580Y0029946D02*
X0072379Y0029946D01*
X0072230Y0029553D02*
X0072580Y0029553D01*
X0072580Y0029161D02*
X0071993Y0029161D01*
X0071634Y0028769D02*
X0072580Y0028769D01*
X0072580Y0028377D02*
X0070980Y0028377D01*
X0072580Y0027985D02*
X0039745Y0027985D01*
X0039745Y0027592D02*
X0072580Y0027592D01*
X0072580Y0027200D02*
X0039745Y0027200D01*
X0039373Y0026808D02*
X0072580Y0026808D01*
X0072580Y0026416D02*
X0038980Y0026416D01*
X0038588Y0026023D02*
X0072580Y0026023D01*
X0062777Y0038966D02*
X0062383Y0038966D01*
X0062383Y0039359D02*
X0062777Y0039359D01*
X0062777Y0039751D02*
X0062383Y0039751D01*
X0062383Y0040143D02*
X0062777Y0040143D01*
X0062777Y0040535D02*
X0062383Y0040535D01*
X0062383Y0040928D02*
X0062777Y0040928D01*
X0062777Y0041320D02*
X0062383Y0041320D01*
X0062383Y0041712D02*
X0062777Y0041712D01*
X0062777Y0042104D02*
X0062383Y0042104D01*
X0062383Y0042496D02*
X0062777Y0042496D01*
X0058709Y0038966D02*
X0036361Y0038966D01*
X0035969Y0039359D02*
X0057635Y0039359D01*
X0057019Y0039751D02*
X0035577Y0039751D01*
X0035184Y0040143D02*
X0043002Y0040143D01*
X0042610Y0040535D02*
X0034792Y0040535D01*
X0034400Y0040928D02*
X0042218Y0040928D01*
X0041911Y0041320D02*
X0034008Y0041320D01*
X0033615Y0041712D02*
X0041911Y0041712D01*
X0041911Y0042104D02*
X0033223Y0042104D01*
X0032831Y0042496D02*
X0041911Y0042496D01*
X0041911Y0042889D02*
X0032439Y0042889D01*
X0032047Y0043281D02*
X0042082Y0043281D01*
X0045347Y0040143D02*
X0056579Y0040143D01*
X0056240Y0040535D02*
X0045739Y0040535D01*
X0046131Y0040928D02*
X0046286Y0040928D01*
X0046816Y0037005D02*
X0048056Y0037005D01*
X0047716Y0036613D02*
X0047208Y0036613D01*
X0047383Y0036221D02*
X0047573Y0036221D01*
X0047564Y0035829D02*
X0047383Y0035829D01*
X0047383Y0035437D02*
X0047564Y0035437D01*
X0047564Y0035044D02*
X0047383Y0035044D01*
X0047383Y0034652D02*
X0047564Y0034652D01*
X0047564Y0034260D02*
X0047383Y0034260D01*
X0047383Y0033868D02*
X0047564Y0033868D01*
X0047564Y0033475D02*
X0047383Y0033475D01*
X0047383Y0033083D02*
X0051123Y0033083D01*
X0051123Y0033475D02*
X0051517Y0033475D01*
X0051517Y0033868D02*
X0051123Y0033868D01*
X0051123Y0034260D02*
X0051517Y0034260D01*
X0051517Y0034652D02*
X0051123Y0034652D01*
X0051123Y0035044D02*
X0051517Y0035044D01*
X0051517Y0035437D02*
X0051123Y0035437D01*
X0051123Y0035829D02*
X0051517Y0035829D01*
X0051517Y0036221D02*
X0051123Y0036221D01*
X0051123Y0036613D02*
X0051517Y0036613D01*
X0051517Y0037005D02*
X0051123Y0037005D01*
X0047564Y0032691D02*
X0047383Y0032691D01*
X0047383Y0032299D02*
X0047564Y0032299D01*
X0047564Y0031907D02*
X0047383Y0031907D01*
X0047383Y0031514D02*
X0047564Y0031514D01*
X0047564Y0031122D02*
X0047383Y0031122D01*
X0047383Y0030730D02*
X0047564Y0030730D01*
X0047564Y0030338D02*
X0047383Y0030338D01*
X0047383Y0029946D02*
X0047570Y0029946D01*
X0047709Y0029553D02*
X0047219Y0029553D01*
X0046827Y0029161D02*
X0048037Y0029161D01*
X0040853Y0029161D02*
X0039559Y0029161D01*
X0039167Y0029553D02*
X0040460Y0029553D01*
X0040297Y0029946D02*
X0039114Y0029946D01*
X0039114Y0030338D02*
X0040297Y0030338D01*
X0040297Y0030730D02*
X0039114Y0030730D01*
X0039114Y0031122D02*
X0040297Y0031122D01*
X0040297Y0031514D02*
X0039114Y0031514D01*
X0039114Y0034652D02*
X0040297Y0034652D01*
X0040297Y0035044D02*
X0039114Y0035044D01*
X0039114Y0035437D02*
X0040297Y0035437D01*
X0040297Y0035829D02*
X0039114Y0035829D01*
X0039106Y0036221D02*
X0040297Y0036221D01*
X0040472Y0036613D02*
X0038714Y0036613D01*
X0038322Y0037005D02*
X0040864Y0037005D01*
X0032021Y0038966D02*
X0016451Y0038966D01*
X0019777Y0043281D02*
X0020930Y0043281D01*
X0020930Y0043673D02*
X0019735Y0043673D01*
X0019672Y0044065D02*
X0020930Y0044065D01*
X0024883Y0044850D02*
X0025277Y0044850D01*
X0025277Y0045242D02*
X0024883Y0045242D01*
X0024883Y0045634D02*
X0025277Y0045634D01*
X0025277Y0046026D02*
X0024883Y0046026D01*
X0024883Y0046418D02*
X0025277Y0046418D01*
X0025277Y0046811D02*
X0024883Y0046811D01*
X0024883Y0047203D02*
X0025277Y0047203D01*
X0025277Y0047595D02*
X0024883Y0047595D01*
X0024883Y0047987D02*
X0025277Y0047987D01*
X0028537Y0047987D02*
X0028546Y0047987D01*
X0028545Y0048380D02*
X0028546Y0048380D01*
X0028344Y0037005D02*
X0027104Y0037005D01*
X0027444Y0036613D02*
X0027952Y0036613D01*
X0027777Y0036221D02*
X0027587Y0036221D01*
X0027596Y0035829D02*
X0027777Y0035829D01*
X0027777Y0035437D02*
X0027596Y0035437D01*
X0027596Y0035044D02*
X0027777Y0035044D01*
X0027777Y0034652D02*
X0027596Y0034652D01*
X0027596Y0034260D02*
X0027777Y0034260D01*
X0027777Y0033868D02*
X0027596Y0033868D01*
X0027596Y0033475D02*
X0027777Y0033475D01*
X0035043Y0026416D02*
X0036180Y0026416D01*
X0035787Y0026808D02*
X0035435Y0026808D01*
X0034651Y0026023D02*
X0036572Y0026023D01*
X0015080Y0018078D02*
X0014778Y0018082D01*
X0014476Y0018093D01*
X0014175Y0018111D01*
X0013874Y0018136D01*
X0013573Y0018169D01*
X0013274Y0018209D01*
X0012976Y0018256D01*
X0012678Y0018311D01*
X0012383Y0018372D01*
X0012089Y0018441D01*
X0011796Y0018517D01*
X0011506Y0018600D01*
X0011217Y0018690D01*
X0010931Y0018787D01*
X0010647Y0018890D01*
X0010366Y0019001D01*
X0010088Y0019118D01*
X0009812Y0019242D01*
X0009540Y0019373D01*
X0009271Y0019510D01*
X0009005Y0019653D01*
X0008743Y0019803D01*
X0008484Y0019960D01*
X0008230Y0020122D01*
X0007979Y0020291D01*
X0007733Y0020465D01*
X0007490Y0020646D01*
X0007253Y0020832D01*
X0007019Y0021024D01*
X0006791Y0021222D01*
X0006567Y0021425D01*
X0006349Y0021633D01*
X0006135Y0021847D01*
X0005927Y0022065D01*
X0005724Y0022289D01*
X0005526Y0022517D01*
X0005334Y0022751D01*
X0005148Y0022988D01*
X0004967Y0023231D01*
X0004793Y0023477D01*
X0004624Y0023728D01*
X0004462Y0023982D01*
X0004305Y0024241D01*
X0004155Y0024503D01*
X0004012Y0024769D01*
X0003875Y0025038D01*
X0003744Y0025310D01*
X0003620Y0025586D01*
X0003503Y0025864D01*
X0003392Y0026145D01*
X0003289Y0026429D01*
X0003192Y0026715D01*
X0003102Y0027004D01*
X0003019Y0027294D01*
X0002943Y0027587D01*
X0002874Y0027881D01*
X0002813Y0028176D01*
X0002758Y0028474D01*
X0002711Y0028772D01*
X0002671Y0029071D01*
X0002638Y0029372D01*
X0002613Y0029673D01*
X0002595Y0029974D01*
X0002584Y0030276D01*
X0002580Y0030578D01*
X0002580Y0022494D02*
X0013667Y0022494D01*
X0013241Y0022101D02*
X0002580Y0022101D01*
X0002580Y0021709D02*
X0012976Y0021709D01*
X0012812Y0021317D02*
X0002580Y0021317D01*
X0002580Y0020925D02*
X0012724Y0020925D01*
X0002580Y0068078D02*
X0002584Y0068380D01*
X0002595Y0068682D01*
X0002613Y0068983D01*
X0002638Y0069284D01*
X0002671Y0069585D01*
X0002711Y0069884D01*
X0002758Y0070182D01*
X0002813Y0070480D01*
X0002874Y0070775D01*
X0002943Y0071069D01*
X0003019Y0071362D01*
X0003102Y0071652D01*
X0003192Y0071941D01*
X0003289Y0072227D01*
X0003392Y0072511D01*
X0003503Y0072792D01*
X0003620Y0073070D01*
X0003744Y0073346D01*
X0003875Y0073618D01*
X0004012Y0073887D01*
X0004155Y0074153D01*
X0004305Y0074415D01*
X0004462Y0074674D01*
X0004624Y0074928D01*
X0004793Y0075179D01*
X0004967Y0075425D01*
X0005148Y0075668D01*
X0005334Y0075905D01*
X0005526Y0076139D01*
X0005724Y0076367D01*
X0005927Y0076591D01*
X0006135Y0076809D01*
X0006349Y0077023D01*
X0006567Y0077231D01*
X0006791Y0077434D01*
X0007019Y0077632D01*
X0007253Y0077824D01*
X0007490Y0078010D01*
X0007733Y0078191D01*
X0007979Y0078365D01*
X0008230Y0078534D01*
X0008484Y0078696D01*
X0008743Y0078853D01*
X0009005Y0079003D01*
X0009271Y0079146D01*
X0009540Y0079283D01*
X0009812Y0079414D01*
X0010088Y0079538D01*
X0010366Y0079655D01*
X0010647Y0079766D01*
X0010931Y0079869D01*
X0011217Y0079966D01*
X0011506Y0080056D01*
X0011796Y0080139D01*
X0012089Y0080215D01*
X0012383Y0080284D01*
X0012678Y0080345D01*
X0012976Y0080400D01*
X0013274Y0080447D01*
X0013573Y0080487D01*
X0013874Y0080520D01*
X0014175Y0080545D01*
X0014476Y0080563D01*
X0014778Y0080574D01*
X0015080Y0080578D01*
X0016261Y0080149D02*
X0036399Y0080149D01*
X0035896Y0079757D02*
X0016764Y0079757D01*
X0017080Y0079364D02*
X0035580Y0079364D01*
X0035377Y0078972D02*
X0017283Y0078972D01*
X0017405Y0078580D02*
X0035255Y0078580D01*
X0035202Y0078188D02*
X0017458Y0078188D01*
X0017448Y0077795D02*
X0035212Y0077795D01*
X0035290Y0077403D02*
X0017370Y0077403D01*
X0017212Y0077011D02*
X0035448Y0077011D01*
X0036202Y0075834D02*
X0036782Y0075834D01*
X0028686Y0076619D02*
X0016965Y0076619D01*
X0016590Y0076227D02*
X0028328Y0076227D01*
X0072580Y0030578D02*
X0072576Y0030276D01*
X0072565Y0029974D01*
X0072547Y0029673D01*
X0072522Y0029372D01*
X0072489Y0029071D01*
X0072449Y0028772D01*
X0072402Y0028474D01*
X0072347Y0028176D01*
X0072286Y0027881D01*
X0072217Y0027587D01*
X0072141Y0027294D01*
X0072058Y0027004D01*
X0071968Y0026715D01*
X0071871Y0026429D01*
X0071768Y0026145D01*
X0071657Y0025864D01*
X0071540Y0025586D01*
X0071416Y0025310D01*
X0071285Y0025038D01*
X0071148Y0024769D01*
X0071005Y0024503D01*
X0070855Y0024241D01*
X0070698Y0023982D01*
X0070536Y0023728D01*
X0070367Y0023477D01*
X0070193Y0023231D01*
X0070012Y0022988D01*
X0069826Y0022751D01*
X0069634Y0022517D01*
X0069436Y0022289D01*
X0069233Y0022065D01*
X0069025Y0021847D01*
X0068811Y0021633D01*
X0068593Y0021425D01*
X0068369Y0021222D01*
X0068141Y0021024D01*
X0067907Y0020832D01*
X0067670Y0020646D01*
X0067427Y0020465D01*
X0067181Y0020291D01*
X0066930Y0020122D01*
X0066676Y0019960D01*
X0066417Y0019803D01*
X0066155Y0019653D01*
X0065889Y0019510D01*
X0065620Y0019373D01*
X0065348Y0019242D01*
X0065072Y0019118D01*
X0064794Y0019001D01*
X0064513Y0018890D01*
X0064229Y0018787D01*
X0063943Y0018690D01*
X0063654Y0018600D01*
X0063364Y0018517D01*
X0063071Y0018441D01*
X0062777Y0018372D01*
X0062482Y0018311D01*
X0062184Y0018256D01*
X0061886Y0018209D01*
X0061587Y0018169D01*
X0061286Y0018136D01*
X0060985Y0018111D01*
X0060684Y0018093D01*
X0060382Y0018082D01*
X0060080Y0018078D01*
D11*
X0051320Y0033078D03*
X0043840Y0033078D03*
X0031320Y0033078D03*
X0023840Y0033078D03*
D12*
X0025080Y0044337D03*
X0025080Y0051818D03*
X0050080Y0051818D03*
X0050080Y0044337D03*
D13*
X0039548Y0048078D03*
X0035611Y0048078D03*
D14*
X0015580Y0053078D02*
X0009580Y0053078D01*
X0009580Y0043078D02*
X0015580Y0043078D01*
X0059580Y0043078D02*
X0065580Y0043078D01*
X0065580Y0053078D02*
X0059580Y0053078D01*
D15*
X0042895Y0070617D03*
X0032265Y0070538D03*
D16*
X0032580Y0063078D03*
X0042580Y0063078D03*
X0037580Y0078078D03*
X0060080Y0078078D03*
X0070080Y0068078D03*
X0070080Y0048078D03*
X0070080Y0030578D03*
X0060080Y0020578D03*
X0037580Y0020578D03*
X0037580Y0028078D03*
X0033643Y0028078D03*
X0015080Y0020578D03*
X0005080Y0029328D03*
X0005080Y0048078D03*
X0005080Y0068078D03*
X0015080Y0078078D03*
D17*
X0032265Y0070538D02*
X0032265Y0063078D01*
X0032580Y0063078D01*
X0030080Y0053078D02*
X0024450Y0053078D01*
X0024450Y0052448D01*
X0023820Y0053078D01*
X0012580Y0053078D01*
X0024450Y0052448D02*
X0025080Y0051818D01*
X0026320Y0050578D01*
X0030080Y0053078D02*
X0030080Y0043078D01*
X0037580Y0035578D01*
X0037580Y0033078D01*
X0043840Y0033078D01*
X0037580Y0033078D02*
X0037580Y0028078D01*
X0033643Y0028078D02*
X0033643Y0033078D01*
X0031320Y0033078D01*
X0044174Y0042172D02*
X0044174Y0053865D01*
X0044293Y0053983D01*
X0050080Y0051818D02*
X0051340Y0053078D01*
X0062580Y0053078D01*
X0042895Y0063078D02*
X0042895Y0070617D01*
X0042895Y0063078D02*
X0042580Y0063078D01*
D18*
X0044293Y0053983D03*
X0044174Y0042172D03*
M02*
