G75*
%MOIN*%
%OFA0B0*%
%FSLAX25Y25*%
%IPPOS*%
%LPD*%
%AMOC8*
5,1,8,0,0,1.08239X$1,22.5*
%
%ADD10C,0.00394*%
%ADD11R,0.05118X0.05906*%
%ADD12R,0.05906X0.05118*%
%ADD13R,0.05906X0.10630*%
D10*
X0015050Y0018078D02*
X0060050Y0018078D01*
X0060352Y0018082D01*
X0060654Y0018093D01*
X0060955Y0018111D01*
X0061256Y0018136D01*
X0061557Y0018169D01*
X0061856Y0018209D01*
X0062154Y0018256D01*
X0062452Y0018311D01*
X0062747Y0018372D01*
X0063041Y0018441D01*
X0063334Y0018517D01*
X0063624Y0018600D01*
X0063913Y0018690D01*
X0064199Y0018787D01*
X0064483Y0018890D01*
X0064764Y0019001D01*
X0065042Y0019118D01*
X0065318Y0019242D01*
X0065590Y0019373D01*
X0065859Y0019510D01*
X0066125Y0019653D01*
X0066387Y0019803D01*
X0066646Y0019960D01*
X0066900Y0020122D01*
X0067151Y0020291D01*
X0067397Y0020465D01*
X0067640Y0020646D01*
X0067877Y0020832D01*
X0068111Y0021024D01*
X0068339Y0021222D01*
X0068563Y0021425D01*
X0068781Y0021633D01*
X0068995Y0021847D01*
X0069203Y0022065D01*
X0069406Y0022289D01*
X0069604Y0022517D01*
X0069796Y0022751D01*
X0069982Y0022988D01*
X0070163Y0023231D01*
X0070337Y0023477D01*
X0070506Y0023728D01*
X0070668Y0023982D01*
X0070825Y0024241D01*
X0070975Y0024503D01*
X0071118Y0024769D01*
X0071255Y0025038D01*
X0071386Y0025310D01*
X0071510Y0025586D01*
X0071627Y0025864D01*
X0071738Y0026145D01*
X0071841Y0026429D01*
X0071938Y0026715D01*
X0072028Y0027004D01*
X0072111Y0027294D01*
X0072187Y0027587D01*
X0072256Y0027881D01*
X0072317Y0028176D01*
X0072372Y0028474D01*
X0072419Y0028772D01*
X0072459Y0029071D01*
X0072492Y0029372D01*
X0072517Y0029673D01*
X0072535Y0029974D01*
X0072546Y0030276D01*
X0072550Y0030578D01*
X0072550Y0068078D01*
X0072546Y0068380D01*
X0072535Y0068682D01*
X0072517Y0068983D01*
X0072492Y0069284D01*
X0072459Y0069585D01*
X0072419Y0069884D01*
X0072372Y0070182D01*
X0072317Y0070480D01*
X0072256Y0070775D01*
X0072187Y0071069D01*
X0072111Y0071362D01*
X0072028Y0071652D01*
X0071938Y0071941D01*
X0071841Y0072227D01*
X0071738Y0072511D01*
X0071627Y0072792D01*
X0071510Y0073070D01*
X0071386Y0073346D01*
X0071255Y0073618D01*
X0071118Y0073887D01*
X0070975Y0074153D01*
X0070825Y0074415D01*
X0070668Y0074674D01*
X0070506Y0074928D01*
X0070337Y0075179D01*
X0070163Y0075425D01*
X0069982Y0075668D01*
X0069796Y0075905D01*
X0069604Y0076139D01*
X0069406Y0076367D01*
X0069203Y0076591D01*
X0068995Y0076809D01*
X0068781Y0077023D01*
X0068563Y0077231D01*
X0068339Y0077434D01*
X0068111Y0077632D01*
X0067877Y0077824D01*
X0067640Y0078010D01*
X0067397Y0078191D01*
X0067151Y0078365D01*
X0066900Y0078534D01*
X0066646Y0078696D01*
X0066387Y0078853D01*
X0066125Y0079003D01*
X0065859Y0079146D01*
X0065590Y0079283D01*
X0065318Y0079414D01*
X0065042Y0079538D01*
X0064764Y0079655D01*
X0064483Y0079766D01*
X0064199Y0079869D01*
X0063913Y0079966D01*
X0063624Y0080056D01*
X0063334Y0080139D01*
X0063041Y0080215D01*
X0062747Y0080284D01*
X0062452Y0080345D01*
X0062154Y0080400D01*
X0061856Y0080447D01*
X0061557Y0080487D01*
X0061256Y0080520D01*
X0060955Y0080545D01*
X0060654Y0080563D01*
X0060352Y0080574D01*
X0060050Y0080578D01*
X0015050Y0080578D01*
X0014748Y0080574D01*
X0014446Y0080563D01*
X0014145Y0080545D01*
X0013844Y0080520D01*
X0013543Y0080487D01*
X0013244Y0080447D01*
X0012946Y0080400D01*
X0012648Y0080345D01*
X0012353Y0080284D01*
X0012059Y0080215D01*
X0011766Y0080139D01*
X0011476Y0080056D01*
X0011187Y0079966D01*
X0010901Y0079869D01*
X0010617Y0079766D01*
X0010336Y0079655D01*
X0010058Y0079538D01*
X0009782Y0079414D01*
X0009510Y0079283D01*
X0009241Y0079146D01*
X0008975Y0079003D01*
X0008713Y0078853D01*
X0008454Y0078696D01*
X0008200Y0078534D01*
X0007949Y0078365D01*
X0007703Y0078191D01*
X0007460Y0078010D01*
X0007223Y0077824D01*
X0006989Y0077632D01*
X0006761Y0077434D01*
X0006537Y0077231D01*
X0006319Y0077023D01*
X0006105Y0076809D01*
X0005897Y0076591D01*
X0005694Y0076367D01*
X0005496Y0076139D01*
X0005304Y0075905D01*
X0005118Y0075668D01*
X0004937Y0075425D01*
X0004763Y0075179D01*
X0004594Y0074928D01*
X0004432Y0074674D01*
X0004275Y0074415D01*
X0004125Y0074153D01*
X0003982Y0073887D01*
X0003845Y0073618D01*
X0003714Y0073346D01*
X0003590Y0073070D01*
X0003473Y0072792D01*
X0003362Y0072511D01*
X0003259Y0072227D01*
X0003162Y0071941D01*
X0003072Y0071652D01*
X0002989Y0071362D01*
X0002913Y0071069D01*
X0002844Y0070775D01*
X0002783Y0070480D01*
X0002728Y0070182D01*
X0002681Y0069884D01*
X0002641Y0069585D01*
X0002608Y0069284D01*
X0002583Y0068983D01*
X0002565Y0068682D01*
X0002554Y0068380D01*
X0002550Y0068078D01*
X0002550Y0030578D01*
X0002554Y0030276D01*
X0002565Y0029974D01*
X0002583Y0029673D01*
X0002608Y0029372D01*
X0002641Y0029071D01*
X0002681Y0028772D01*
X0002728Y0028474D01*
X0002783Y0028176D01*
X0002844Y0027881D01*
X0002913Y0027587D01*
X0002989Y0027294D01*
X0003072Y0027004D01*
X0003162Y0026715D01*
X0003259Y0026429D01*
X0003362Y0026145D01*
X0003473Y0025864D01*
X0003590Y0025586D01*
X0003714Y0025310D01*
X0003845Y0025038D01*
X0003982Y0024769D01*
X0004125Y0024503D01*
X0004275Y0024241D01*
X0004432Y0023982D01*
X0004594Y0023728D01*
X0004763Y0023477D01*
X0004937Y0023231D01*
X0005118Y0022988D01*
X0005304Y0022751D01*
X0005496Y0022517D01*
X0005694Y0022289D01*
X0005897Y0022065D01*
X0006105Y0021847D01*
X0006319Y0021633D01*
X0006537Y0021425D01*
X0006761Y0021222D01*
X0006989Y0021024D01*
X0007223Y0020832D01*
X0007460Y0020646D01*
X0007703Y0020465D01*
X0007949Y0020291D01*
X0008200Y0020122D01*
X0008454Y0019960D01*
X0008713Y0019803D01*
X0008975Y0019653D01*
X0009241Y0019510D01*
X0009510Y0019373D01*
X0009782Y0019242D01*
X0010058Y0019118D01*
X0010336Y0019001D01*
X0010617Y0018890D01*
X0010901Y0018787D01*
X0011187Y0018690D01*
X0011476Y0018600D01*
X0011766Y0018517D01*
X0012059Y0018441D01*
X0012353Y0018372D01*
X0012648Y0018311D01*
X0012946Y0018256D01*
X0013244Y0018209D01*
X0013543Y0018169D01*
X0013844Y0018136D01*
X0014145Y0018111D01*
X0014446Y0018093D01*
X0014748Y0018082D01*
X0015050Y0018078D01*
D11*
X0023810Y0033078D03*
X0031290Y0033078D03*
X0043810Y0033078D03*
X0051290Y0033078D03*
D12*
X0050050Y0044337D03*
X0050050Y0051818D03*
X0025050Y0051818D03*
X0025050Y0044337D03*
D13*
X0032235Y0070538D03*
X0042865Y0070617D03*
M02*
