G04 EAGLE Gerber X2 export*
%TF.Part,Single*%
%TF.FileFunction,Other,Top Layer*%
%TF.FilePolarity,Positive*%
%TF.GenerationSoftware,Autodesk,EAGLE,9.0.0*%
%TF.CreationDate,2018-05-03T06:21:48Z*%
G75*
%MOMM*%
%FSLAX35Y35*%
%LPD*%
%AMOC8*
5,1,8,0,0,1.08239X$1,22.5*%
G01*
%ADD10C,0.100000*%
%ADD11C,0.210000*%
%ADD12R,2.000000X1.200000*%
%ADD13C,0.609600*%
%ADD14C,1.524000*%
%ADD15R,2.006600X1.092200*%
%ADD16R,1.400000X1.000000*%
%ADD17C,0.279400*%
%ADD18C,0.600000*%
%ADD19C,0.650000*%
%ADD20C,1.193800*%
%ADD21C,0.304800*%

G36*
X2095645Y617170D02*
X2095645Y617170D01*
X2095827Y617151D01*
X2138947Y619977D01*
X2139334Y620083D01*
X2139914Y620137D01*
X2223217Y642458D01*
X2223628Y642663D01*
X2224423Y642957D01*
X2299110Y686078D01*
X2299454Y686382D01*
X2300145Y686873D01*
X2361127Y747854D01*
X2361380Y748235D01*
X2361922Y748890D01*
X2405043Y823577D01*
X2405188Y824011D01*
X2405542Y824783D01*
X2427863Y908085D01*
X2427888Y908485D01*
X2428023Y909053D01*
X2430849Y952173D01*
X2430829Y952320D01*
X2430859Y952500D01*
X2430859Y1905000D01*
X2430830Y1905145D01*
X2430849Y1905327D01*
X2428023Y1948447D01*
X2427917Y1948834D01*
X2427863Y1949414D01*
X2405542Y2032717D01*
X2405337Y2033128D01*
X2405043Y2033923D01*
X2361922Y2108610D01*
X2361618Y2108954D01*
X2361127Y2109645D01*
X2300145Y2170627D01*
X2300120Y2170644D01*
X2300118Y2170647D01*
X2300094Y2170661D01*
X2299764Y2170880D01*
X2299110Y2171422D01*
X2224423Y2214543D01*
X2223989Y2214688D01*
X2223217Y2215042D01*
X2139914Y2237363D01*
X2139514Y2237388D01*
X2138947Y2237523D01*
X2095827Y2240349D01*
X2095680Y2240329D01*
X2095500Y2240359D01*
X952500Y2240359D01*
X952355Y2240330D01*
X952173Y2240349D01*
X909053Y2237523D01*
X908666Y2237417D01*
X908085Y2237363D01*
X824783Y2215042D01*
X824372Y2214837D01*
X823577Y2214543D01*
X748890Y2171422D01*
X748546Y2171118D01*
X747854Y2170627D01*
X686873Y2109645D01*
X686620Y2109264D01*
X686078Y2108610D01*
X642957Y2033923D01*
X642812Y2033489D01*
X642458Y2032717D01*
X620137Y1949415D01*
X620112Y1949015D01*
X619977Y1948448D01*
X617151Y1905327D01*
X617171Y1905180D01*
X617140Y1905000D01*
X617140Y952500D01*
X617170Y952355D01*
X617151Y952173D01*
X619977Y909053D01*
X620083Y908666D01*
X620137Y908085D01*
X642458Y824783D01*
X642663Y824372D01*
X642957Y823577D01*
X686078Y748890D01*
X686382Y748546D01*
X686873Y747854D01*
X747854Y686873D01*
X748235Y686620D01*
X748890Y686078D01*
X823577Y642957D01*
X823945Y642834D01*
X824275Y642623D01*
X824508Y642583D01*
X824783Y642458D01*
X908085Y620137D01*
X908485Y620112D01*
X909052Y619977D01*
X952173Y617151D01*
X952320Y617171D01*
X952500Y617140D01*
X2095500Y617140D01*
X2095645Y617170D01*
G37*
%LPC*%
G36*
X965805Y814389D02*
X965805Y814389D01*
X954089Y826105D01*
X954089Y951895D01*
X965805Y963610D01*
X1183035Y963610D01*
X1194750Y951895D01*
X1194750Y927970D01*
X1194767Y927890D01*
X1194753Y927810D01*
X1194964Y926916D01*
X1195146Y926020D01*
X1195192Y925953D01*
X1195211Y925873D01*
X1195754Y925133D01*
X1196272Y924378D01*
X1196340Y924335D01*
X1196388Y924269D01*
X1197177Y923799D01*
X1197948Y923306D01*
X1198028Y923293D01*
X1198098Y923251D01*
X1199750Y922970D01*
X1385030Y922970D01*
X1385110Y922987D01*
X1385190Y922973D01*
X1386084Y923184D01*
X1386980Y923366D01*
X1387047Y923412D01*
X1387127Y923431D01*
X1387867Y923974D01*
X1388622Y924492D01*
X1388665Y924560D01*
X1388731Y924608D01*
X1389201Y925397D01*
X1389694Y926168D01*
X1389707Y926248D01*
X1389749Y926318D01*
X1390030Y927970D01*
X1390030Y1202766D01*
X1390003Y1202898D01*
X1390023Y1203032D01*
X1390000Y1203120D01*
X1390000Y1289134D01*
X1408214Y1307348D01*
X1408451Y1307397D01*
X1409024Y1307789D01*
X1409640Y1308108D01*
X1409837Y1308347D01*
X1410093Y1308522D01*
X1410467Y1309107D01*
X1410909Y1309641D01*
X1410998Y1309937D01*
X1411165Y1310198D01*
X1411281Y1310883D01*
X1411480Y1311547D01*
X1411446Y1311854D01*
X1411498Y1312160D01*
X1411338Y1312835D01*
X1411263Y1313525D01*
X1411111Y1313795D01*
X1411040Y1314096D01*
X1410629Y1314657D01*
X1410290Y1315261D01*
X1410022Y1315483D01*
X1409863Y1315701D01*
X1409497Y1315919D01*
X1409000Y1316330D01*
X1408403Y1316675D01*
X1403675Y1321403D01*
X1400330Y1327196D01*
X1398599Y1333656D01*
X1398599Y1387001D01*
X1518999Y1387001D01*
X1519078Y1387017D01*
X1519159Y1387003D01*
X1520052Y1387215D01*
X1520949Y1387397D01*
X1521016Y1387443D01*
X1521095Y1387462D01*
X1521835Y1388004D01*
X1522590Y1388522D01*
X1522634Y1388591D01*
X1522699Y1388639D01*
X1523169Y1389428D01*
X1523662Y1390198D01*
X1523676Y1390278D01*
X1523718Y1390348D01*
X1523998Y1392000D01*
X1523998Y1397002D01*
X1524002Y1397002D01*
X1524002Y1392000D01*
X1524014Y1391940D01*
X1524004Y1391883D01*
X1524008Y1391865D01*
X1524004Y1391840D01*
X1524216Y1390947D01*
X1524398Y1390050D01*
X1524443Y1389983D01*
X1524462Y1389904D01*
X1525005Y1389164D01*
X1525523Y1388409D01*
X1525591Y1388365D01*
X1525639Y1388300D01*
X1526428Y1387830D01*
X1527199Y1387337D01*
X1527279Y1387323D01*
X1527349Y1387282D01*
X1529001Y1387001D01*
X1649400Y1387001D01*
X1649400Y1333656D01*
X1647670Y1327196D01*
X1644325Y1321403D01*
X1639597Y1316675D01*
X1639000Y1316330D01*
X1638480Y1315871D01*
X1637907Y1315478D01*
X1637741Y1315218D01*
X1637508Y1315013D01*
X1637209Y1314387D01*
X1636835Y1313802D01*
X1636783Y1313496D01*
X1636650Y1313218D01*
X1636618Y1312525D01*
X1636502Y1311840D01*
X1636573Y1311538D01*
X1636559Y1311230D01*
X1636800Y1310580D01*
X1636960Y1309904D01*
X1637143Y1309653D01*
X1637251Y1309364D01*
X1637725Y1308861D01*
X1638137Y1308299D01*
X1638404Y1308141D01*
X1638615Y1307916D01*
X1639249Y1307637D01*
X1639847Y1307281D01*
X1639854Y1307280D01*
X1655158Y1291975D01*
X1655226Y1291931D01*
X1655273Y1291864D01*
X1656051Y1291384D01*
X1656817Y1290876D01*
X1656898Y1290861D01*
X1656967Y1290819D01*
X1657872Y1290680D01*
X1658773Y1290512D01*
X1658853Y1290529D01*
X1658933Y1290517D01*
X1659822Y1290742D01*
X1660717Y1290939D01*
X1660783Y1290986D01*
X1660862Y1291006D01*
X1662228Y1291975D01*
X1669753Y1299501D01*
X1713247Y1299501D01*
X1744001Y1268747D01*
X1744001Y1225253D01*
X1713247Y1194500D01*
X1669753Y1194500D01*
X1662228Y1202025D01*
X1662161Y1202070D01*
X1662114Y1202136D01*
X1661336Y1202617D01*
X1660570Y1203124D01*
X1660489Y1203139D01*
X1660420Y1203182D01*
X1659515Y1203321D01*
X1658613Y1203489D01*
X1658534Y1203471D01*
X1658454Y1203484D01*
X1657561Y1203258D01*
X1656670Y1203062D01*
X1656604Y1203015D01*
X1656525Y1202995D01*
X1655158Y1202025D01*
X1640133Y1187000D01*
X1607866Y1187000D01*
X1606353Y1188513D01*
X1606284Y1188558D01*
X1606236Y1188627D01*
X1605457Y1189106D01*
X1604695Y1189611D01*
X1604613Y1189627D01*
X1604542Y1189670D01*
X1603638Y1189808D01*
X1602738Y1189976D01*
X1602657Y1189958D01*
X1602575Y1189971D01*
X1601688Y1189745D01*
X1600795Y1189549D01*
X1600727Y1189501D01*
X1600646Y1189480D01*
X1600113Y1189102D01*
X1591357Y1184046D01*
X1582226Y1181600D01*
X1580999Y1181600D01*
X1580999Y1244998D01*
X1580983Y1245078D01*
X1580997Y1245158D01*
X1580785Y1246052D01*
X1580603Y1246948D01*
X1580558Y1247015D01*
X1580539Y1247094D01*
X1579996Y1247834D01*
X1579478Y1248589D01*
X1579410Y1248633D01*
X1579362Y1248699D01*
X1578573Y1249168D01*
X1577802Y1249662D01*
X1577722Y1249675D01*
X1577652Y1249717D01*
X1576000Y1249998D01*
X1571999Y1249998D01*
X1571920Y1249981D01*
X1571839Y1249995D01*
X1570946Y1249783D01*
X1570049Y1249602D01*
X1569983Y1249556D01*
X1569903Y1249537D01*
X1569163Y1248994D01*
X1568408Y1248476D01*
X1568364Y1248408D01*
X1568299Y1248360D01*
X1567829Y1247571D01*
X1567336Y1246800D01*
X1567323Y1246720D01*
X1567281Y1246650D01*
X1567000Y1244998D01*
X1567000Y1181600D01*
X1565774Y1181600D01*
X1564264Y1182004D01*
X1563532Y1182049D01*
X1562810Y1182172D01*
X1562547Y1182110D01*
X1562278Y1182127D01*
X1561587Y1181883D01*
X1560873Y1181714D01*
X1560656Y1181555D01*
X1560401Y1181465D01*
X1559860Y1180970D01*
X1559269Y1180537D01*
X1559131Y1180305D01*
X1558932Y1180123D01*
X1558627Y1179458D01*
X1558251Y1178827D01*
X1558200Y1178529D01*
X1558102Y1178314D01*
X1558089Y1177873D01*
X1557970Y1177175D01*
X1557970Y927970D01*
X1557987Y927890D01*
X1557973Y927810D01*
X1558184Y926916D01*
X1558366Y926020D01*
X1558412Y925953D01*
X1558431Y925873D01*
X1558974Y925133D01*
X1559492Y924378D01*
X1559560Y924335D01*
X1559608Y924269D01*
X1560397Y923799D01*
X1561168Y923306D01*
X1561248Y923293D01*
X1561318Y923251D01*
X1562970Y922970D01*
X1848250Y922970D01*
X1848330Y922987D01*
X1848410Y922973D01*
X1849303Y923184D01*
X1850200Y923366D01*
X1850267Y923412D01*
X1850346Y923431D01*
X1851086Y923974D01*
X1851841Y924492D01*
X1851885Y924560D01*
X1851951Y924608D01*
X1852420Y925397D01*
X1852913Y926168D01*
X1852927Y926248D01*
X1852969Y926318D01*
X1853249Y927970D01*
X1853249Y951895D01*
X1864965Y963610D01*
X2082195Y963610D01*
X2093910Y951895D01*
X2093910Y826105D01*
X2082195Y814389D01*
X1864965Y814389D01*
X1853249Y826105D01*
X1853249Y850030D01*
X1853233Y850110D01*
X1853247Y850190D01*
X1853035Y851083D01*
X1852853Y851980D01*
X1852808Y852047D01*
X1852789Y852126D01*
X1852246Y852866D01*
X1851728Y853621D01*
X1851660Y853665D01*
X1851612Y853731D01*
X1850823Y854200D01*
X1850052Y854693D01*
X1849972Y854707D01*
X1849902Y854749D01*
X1848250Y855029D01*
X1562812Y855029D01*
X1562693Y855005D01*
X1562572Y855024D01*
X1561720Y854808D01*
X1560862Y854633D01*
X1560761Y854565D01*
X1560643Y854535D01*
X1559277Y853565D01*
X1544711Y838999D01*
X1503289Y838999D01*
X1477535Y864753D01*
X1477468Y864798D01*
X1477420Y864865D01*
X1476642Y865345D01*
X1475876Y865853D01*
X1475796Y865868D01*
X1475727Y865910D01*
X1474822Y866049D01*
X1473920Y866217D01*
X1473841Y866200D01*
X1473760Y866212D01*
X1472868Y865986D01*
X1471977Y865790D01*
X1471911Y865743D01*
X1471832Y865723D01*
X1470465Y864753D01*
X1444711Y838999D01*
X1403289Y838999D01*
X1388723Y853565D01*
X1388623Y853632D01*
X1388550Y853731D01*
X1387794Y854181D01*
X1387065Y854664D01*
X1386945Y854686D01*
X1386840Y854749D01*
X1385188Y855029D01*
X1199750Y855029D01*
X1199670Y855013D01*
X1199590Y855027D01*
X1198696Y854815D01*
X1197800Y854633D01*
X1197733Y854588D01*
X1197653Y854569D01*
X1196913Y854026D01*
X1196158Y853508D01*
X1196115Y853440D01*
X1196049Y853392D01*
X1195579Y852603D01*
X1195086Y851832D01*
X1195073Y851752D01*
X1195031Y851682D01*
X1194750Y850030D01*
X1194750Y826105D01*
X1183035Y814389D01*
X965805Y814389D01*
G37*
%LPD*%
%LPC*%
G36*
X1398599Y1406998D02*
X1398599Y1406998D01*
X1398599Y1460344D01*
X1400330Y1466804D01*
X1403675Y1472597D01*
X1408403Y1477325D01*
X1409000Y1477670D01*
X1409520Y1478129D01*
X1410093Y1478522D01*
X1410259Y1478782D01*
X1410491Y1478987D01*
X1410791Y1479613D01*
X1411165Y1480198D01*
X1411217Y1480503D01*
X1411350Y1480782D01*
X1411382Y1481474D01*
X1411498Y1482160D01*
X1411427Y1482461D01*
X1411441Y1482770D01*
X1411200Y1483420D01*
X1411040Y1484096D01*
X1410857Y1484346D01*
X1410749Y1484636D01*
X1410275Y1485139D01*
X1409863Y1485700D01*
X1409596Y1485859D01*
X1409384Y1486084D01*
X1408751Y1486363D01*
X1408153Y1486718D01*
X1408146Y1486720D01*
X1390000Y1504866D01*
X1390000Y1508030D01*
X1389983Y1508109D01*
X1389997Y1508190D01*
X1389786Y1509083D01*
X1389604Y1509980D01*
X1389558Y1510047D01*
X1389539Y1510126D01*
X1388996Y1510866D01*
X1388478Y1511621D01*
X1388410Y1511665D01*
X1388362Y1511730D01*
X1387573Y1512200D01*
X1386802Y1512693D01*
X1386722Y1512707D01*
X1386652Y1512748D01*
X1385000Y1513029D01*
X1066400Y1513029D01*
X1066320Y1513013D01*
X1066240Y1513027D01*
X1065346Y1512815D01*
X1064450Y1512633D01*
X1064383Y1512587D01*
X1064303Y1512568D01*
X1063563Y1512026D01*
X1062808Y1511508D01*
X1062765Y1511439D01*
X1062699Y1511391D01*
X1062229Y1510602D01*
X1061736Y1509832D01*
X1061723Y1509752D01*
X1061681Y1509682D01*
X1061400Y1508030D01*
X1061400Y1504864D01*
X1046755Y1469507D01*
X1019693Y1442445D01*
X984336Y1427799D01*
X793664Y1427799D01*
X758307Y1442445D01*
X731245Y1469507D01*
X716599Y1504864D01*
X716599Y1543136D01*
X731245Y1578493D01*
X758307Y1605555D01*
X793664Y1620200D01*
X914330Y1620200D01*
X914410Y1620217D01*
X914490Y1620203D01*
X915383Y1620414D01*
X916280Y1620596D01*
X916347Y1620642D01*
X916426Y1620661D01*
X917166Y1621204D01*
X917921Y1621722D01*
X917965Y1621790D01*
X918031Y1621838D01*
X918500Y1622627D01*
X918993Y1623398D01*
X919007Y1623478D01*
X919049Y1623548D01*
X919329Y1625200D01*
X919329Y1728400D01*
X919313Y1728480D01*
X919327Y1728560D01*
X919115Y1729453D01*
X918933Y1730350D01*
X918888Y1730417D01*
X918869Y1730496D01*
X918326Y1731236D01*
X917808Y1731991D01*
X917740Y1732035D01*
X917692Y1732101D01*
X916903Y1732570D01*
X916132Y1733063D01*
X916052Y1733077D01*
X915982Y1733119D01*
X914330Y1733399D01*
X875015Y1733399D01*
X863299Y1745115D01*
X863299Y1861685D01*
X875015Y1873400D01*
X1031585Y1873400D01*
X1043300Y1861685D01*
X1043300Y1745115D01*
X1031585Y1733399D01*
X992270Y1733399D01*
X992190Y1733383D01*
X992110Y1733397D01*
X991216Y1733185D01*
X990320Y1733003D01*
X990253Y1732958D01*
X990173Y1732939D01*
X989433Y1732396D01*
X988678Y1731878D01*
X988635Y1731810D01*
X988569Y1731762D01*
X988099Y1730973D01*
X987606Y1730202D01*
X987593Y1730122D01*
X987551Y1730052D01*
X987270Y1728400D01*
X987270Y1622325D01*
X987291Y1622225D01*
X987274Y1622125D01*
X987488Y1621255D01*
X987666Y1620375D01*
X987724Y1620291D01*
X987748Y1620193D01*
X988284Y1619473D01*
X988792Y1618734D01*
X988877Y1618679D01*
X988938Y1618598D01*
X990357Y1617706D01*
X1019693Y1605555D01*
X1042813Y1582434D01*
X1042914Y1582368D01*
X1042987Y1582269D01*
X1043743Y1581819D01*
X1044472Y1581335D01*
X1044592Y1581313D01*
X1044697Y1581251D01*
X1046348Y1580970D01*
X1385000Y1580970D01*
X1385080Y1580986D01*
X1385160Y1580973D01*
X1386054Y1581184D01*
X1386950Y1581366D01*
X1387017Y1581412D01*
X1387097Y1581431D01*
X1387837Y1581973D01*
X1388592Y1582491D01*
X1388635Y1582560D01*
X1388701Y1582608D01*
X1389171Y1583397D01*
X1389664Y1584168D01*
X1389677Y1584248D01*
X1389719Y1584318D01*
X1390000Y1585969D01*
X1390000Y1589133D01*
X1407866Y1607000D01*
X1435030Y1607000D01*
X1435110Y1607016D01*
X1435190Y1607003D01*
X1436083Y1607214D01*
X1436980Y1607396D01*
X1437047Y1607442D01*
X1437126Y1607461D01*
X1437866Y1608003D01*
X1438621Y1608521D01*
X1438665Y1608590D01*
X1438731Y1608638D01*
X1439200Y1609427D01*
X1439693Y1610198D01*
X1439707Y1610278D01*
X1439749Y1610348D01*
X1440029Y1611999D01*
X1440029Y1684858D01*
X1440005Y1684977D01*
X1440024Y1685098D01*
X1439808Y1685949D01*
X1439633Y1686808D01*
X1439565Y1686908D01*
X1439535Y1687026D01*
X1438565Y1688393D01*
X1400423Y1726535D01*
X1400322Y1726602D01*
X1400249Y1726701D01*
X1399493Y1727151D01*
X1398764Y1727634D01*
X1398644Y1727656D01*
X1398540Y1727719D01*
X1396888Y1727999D01*
X1376289Y1727999D01*
X1346999Y1757289D01*
X1346999Y1798711D01*
X1376289Y1828000D01*
X1417711Y1828000D01*
X1447000Y1798711D01*
X1447000Y1778112D01*
X1447024Y1777993D01*
X1447006Y1777872D01*
X1447222Y1777020D01*
X1447396Y1776162D01*
X1447465Y1776062D01*
X1447495Y1775943D01*
X1448465Y1774577D01*
X1507970Y1715071D01*
X1507970Y1616824D01*
X1508116Y1616106D01*
X1508185Y1615376D01*
X1508313Y1615139D01*
X1508366Y1614874D01*
X1508781Y1614269D01*
X1509128Y1613625D01*
X1509339Y1613456D01*
X1509492Y1613233D01*
X1510110Y1612838D01*
X1510681Y1612380D01*
X1510940Y1612307D01*
X1511168Y1612161D01*
X1511892Y1612038D01*
X1512596Y1611839D01*
X1512896Y1611867D01*
X1513130Y1611828D01*
X1513560Y1611929D01*
X1514264Y1611995D01*
X1515774Y1612400D01*
X1517000Y1612400D01*
X1517000Y1549002D01*
X1517016Y1548922D01*
X1517003Y1548842D01*
X1517214Y1547948D01*
X1517396Y1547052D01*
X1517442Y1546985D01*
X1517445Y1546970D01*
X1517336Y1546799D01*
X1517323Y1546719D01*
X1517281Y1546649D01*
X1517000Y1544998D01*
X1517000Y1481169D01*
X1516983Y1481157D01*
X1516904Y1481138D01*
X1516164Y1480596D01*
X1515409Y1480078D01*
X1515365Y1480009D01*
X1515300Y1479961D01*
X1514830Y1479172D01*
X1514337Y1478402D01*
X1514323Y1478322D01*
X1514282Y1478252D01*
X1514001Y1476600D01*
X1514001Y1406998D01*
X1398599Y1406998D01*
G37*
%LPD*%
%LPC*%
G36*
X1533998Y1406998D02*
X1533998Y1406998D01*
X1533998Y1476600D01*
X1533982Y1476679D01*
X1533996Y1476760D01*
X1533784Y1477653D01*
X1533603Y1478550D01*
X1533557Y1478617D01*
X1533538Y1478696D01*
X1532995Y1479436D01*
X1532477Y1480191D01*
X1532409Y1480235D01*
X1532361Y1480300D01*
X1531572Y1480770D01*
X1530999Y1481136D01*
X1530999Y1544998D01*
X1530983Y1545077D01*
X1530997Y1545158D01*
X1530787Y1546043D01*
X1530603Y1546948D01*
X1530558Y1547014D01*
X1530554Y1547029D01*
X1530663Y1547200D01*
X1530677Y1547280D01*
X1530719Y1547350D01*
X1530999Y1549002D01*
X1530999Y1612400D01*
X1532226Y1612400D01*
X1533736Y1611995D01*
X1534468Y1611950D01*
X1535190Y1611828D01*
X1535453Y1611890D01*
X1535722Y1611873D01*
X1536413Y1612117D01*
X1537126Y1612286D01*
X1537344Y1612445D01*
X1537598Y1612535D01*
X1538140Y1613029D01*
X1538731Y1613463D01*
X1538869Y1613695D01*
X1539068Y1613877D01*
X1539373Y1614541D01*
X1539749Y1615173D01*
X1539799Y1615471D01*
X1539898Y1615685D01*
X1539911Y1616127D01*
X1540029Y1616824D01*
X1540029Y1715071D01*
X1599535Y1774577D01*
X1599602Y1774678D01*
X1599701Y1774750D01*
X1600151Y1775506D01*
X1600634Y1776236D01*
X1600656Y1776355D01*
X1600719Y1776460D01*
X1600999Y1778112D01*
X1600999Y1798711D01*
X1630289Y1828000D01*
X1671711Y1828000D01*
X1701000Y1798711D01*
X1701000Y1757289D01*
X1671711Y1727999D01*
X1651112Y1727999D01*
X1650993Y1727975D01*
X1650872Y1727994D01*
X1650020Y1727778D01*
X1649162Y1727603D01*
X1649062Y1727535D01*
X1648943Y1727505D01*
X1647577Y1726535D01*
X1609435Y1688393D01*
X1609368Y1688292D01*
X1609269Y1688219D01*
X1608819Y1687463D01*
X1608336Y1686734D01*
X1608313Y1686614D01*
X1608251Y1686510D01*
X1607970Y1684858D01*
X1607970Y1611999D01*
X1607985Y1611927D01*
X1607973Y1611856D01*
X1607974Y1611849D01*
X1607973Y1611839D01*
X1608184Y1610946D01*
X1608366Y1610049D01*
X1608412Y1609983D01*
X1608431Y1609903D01*
X1608974Y1609163D01*
X1609492Y1608408D01*
X1609560Y1608364D01*
X1609608Y1608299D01*
X1610397Y1607829D01*
X1611168Y1607336D01*
X1611248Y1607323D01*
X1611318Y1607281D01*
X1612970Y1607000D01*
X1640133Y1607000D01*
X1656658Y1590475D01*
X1656726Y1590430D01*
X1656773Y1590364D01*
X1657553Y1589882D01*
X1658317Y1589376D01*
X1658397Y1589361D01*
X1658466Y1589318D01*
X1659372Y1589179D01*
X1660273Y1589011D01*
X1660352Y1589029D01*
X1660433Y1589016D01*
X1661325Y1589243D01*
X1662217Y1589438D01*
X1662283Y1589485D01*
X1662362Y1589505D01*
X1663728Y1590475D01*
X1672753Y1599500D01*
X1716247Y1599500D01*
X1733312Y1582434D01*
X1733413Y1582368D01*
X1733486Y1582269D01*
X1734242Y1581819D01*
X1734971Y1581335D01*
X1735091Y1581313D01*
X1735195Y1581251D01*
X1736847Y1580970D01*
X2001651Y1580970D01*
X2001770Y1580994D01*
X2001891Y1580976D01*
X2002743Y1581192D01*
X2003601Y1581366D01*
X2003702Y1581435D01*
X2003820Y1581465D01*
X2005186Y1582434D01*
X2028307Y1605555D01*
X2063664Y1620200D01*
X2254336Y1620200D01*
X2289693Y1605555D01*
X2316755Y1578493D01*
X2331400Y1543136D01*
X2331400Y1504864D01*
X2316755Y1469507D01*
X2289693Y1442445D01*
X2254336Y1427799D01*
X2063664Y1427799D01*
X2028307Y1442445D01*
X2001245Y1469507D01*
X1986599Y1504864D01*
X1986599Y1508030D01*
X1986583Y1508109D01*
X1986597Y1508190D01*
X1986385Y1509083D01*
X1986203Y1509980D01*
X1986158Y1510047D01*
X1986139Y1510126D01*
X1985596Y1510866D01*
X1985078Y1511621D01*
X1985010Y1511665D01*
X1984962Y1511730D01*
X1984173Y1512200D01*
X1983402Y1512693D01*
X1983322Y1512707D01*
X1983252Y1512748D01*
X1981600Y1513029D01*
X1736847Y1513029D01*
X1736728Y1513005D01*
X1736608Y1513023D01*
X1735756Y1512808D01*
X1734897Y1512633D01*
X1734797Y1512564D01*
X1734679Y1512534D01*
X1733312Y1511565D01*
X1716247Y1494499D01*
X1672753Y1494499D01*
X1663728Y1503524D01*
X1663661Y1503569D01*
X1663613Y1503635D01*
X1662835Y1504116D01*
X1662069Y1504623D01*
X1661989Y1504638D01*
X1661920Y1504681D01*
X1661015Y1504820D01*
X1660113Y1504988D01*
X1660034Y1504970D01*
X1659953Y1504983D01*
X1659061Y1504757D01*
X1658170Y1504561D01*
X1658104Y1504514D01*
X1658024Y1504494D01*
X1656658Y1503524D01*
X1639786Y1486651D01*
X1639548Y1486603D01*
X1638976Y1486211D01*
X1638360Y1485891D01*
X1638163Y1485653D01*
X1637907Y1485478D01*
X1637533Y1484893D01*
X1637091Y1484359D01*
X1637002Y1484063D01*
X1636835Y1483802D01*
X1636718Y1483117D01*
X1636520Y1482453D01*
X1636553Y1482145D01*
X1636502Y1481840D01*
X1636661Y1481164D01*
X1636737Y1480475D01*
X1636888Y1480205D01*
X1636960Y1479903D01*
X1637371Y1479343D01*
X1637709Y1478738D01*
X1637978Y1478517D01*
X1638137Y1478299D01*
X1638503Y1478081D01*
X1639000Y1477670D01*
X1639597Y1477325D01*
X1644325Y1472597D01*
X1647670Y1466804D01*
X1649400Y1460344D01*
X1649400Y1406998D01*
X1533998Y1406998D01*
G37*
%LPD*%
%LPC*%
G36*
X875015Y1936599D02*
X875015Y1936599D01*
X863299Y1948315D01*
X863299Y2064885D01*
X875015Y2076600D01*
X1031585Y2076600D01*
X1043300Y2064885D01*
X1043300Y1948315D01*
X1031585Y1936599D01*
X875015Y1936599D01*
G37*
%LPD*%
%LPC*%
G36*
X2168999Y1279999D02*
X2168999Y1279999D01*
X2168999Y1371600D01*
X2243196Y1371600D01*
X2258991Y1369099D01*
X2274202Y1364156D01*
X2288450Y1356897D01*
X2301389Y1347496D01*
X2312696Y1336189D01*
X2322097Y1323250D01*
X2329356Y1309002D01*
X2334299Y1293791D01*
X2336483Y1279999D01*
X2168999Y1279999D01*
G37*
%LPD*%
%LPC*%
G36*
X898999Y1279999D02*
X898999Y1279999D01*
X898999Y1371600D01*
X973196Y1371600D01*
X988991Y1369099D01*
X1004202Y1364156D01*
X1018450Y1356897D01*
X1031389Y1347496D01*
X1042696Y1336189D01*
X1052097Y1323250D01*
X1059356Y1309002D01*
X1064299Y1293791D01*
X1066483Y1279999D01*
X898999Y1279999D01*
G37*
%LPD*%
%LPC*%
G36*
X711517Y1279999D02*
X711517Y1279999D01*
X713701Y1293791D01*
X718643Y1309002D01*
X725903Y1323250D01*
X735304Y1336189D01*
X746611Y1347496D01*
X759550Y1356897D01*
X773798Y1364156D01*
X789008Y1369099D01*
X804803Y1371600D01*
X879001Y1371600D01*
X879001Y1279999D01*
X711517Y1279999D01*
G37*
%LPD*%
%LPC*%
G36*
X1981517Y1279999D02*
X1981517Y1279999D01*
X1983701Y1293791D01*
X1988643Y1309002D01*
X1995903Y1323250D01*
X2005304Y1336189D01*
X2016611Y1347496D01*
X2029550Y1356897D01*
X2043798Y1364156D01*
X2059008Y1369099D01*
X2074803Y1371600D01*
X2149001Y1371600D01*
X2149001Y1279999D01*
X1981517Y1279999D01*
G37*
%LPD*%
%LPC*%
G36*
X898999Y1168399D02*
X898999Y1168399D01*
X898999Y1260001D01*
X1066483Y1260001D01*
X1064299Y1246208D01*
X1059356Y1230998D01*
X1052097Y1216750D01*
X1042696Y1203811D01*
X1031389Y1192504D01*
X1018450Y1183103D01*
X1004202Y1175843D01*
X988991Y1170901D01*
X973196Y1168399D01*
X898999Y1168399D01*
G37*
%LPD*%
%LPC*%
G36*
X2168999Y1168399D02*
X2168999Y1168399D01*
X2168999Y1260001D01*
X2336483Y1260001D01*
X2334299Y1246208D01*
X2329356Y1230998D01*
X2322097Y1216750D01*
X2312696Y1203811D01*
X2301389Y1192504D01*
X2288450Y1183103D01*
X2274202Y1175843D01*
X2258991Y1170901D01*
X2243196Y1168399D01*
X2168999Y1168399D01*
G37*
%LPD*%
%LPC*%
G36*
X2074803Y1168399D02*
X2074803Y1168399D01*
X2059008Y1170901D01*
X2043798Y1175843D01*
X2029550Y1183103D01*
X2016611Y1192504D01*
X2005304Y1203811D01*
X1995903Y1216750D01*
X1988643Y1230998D01*
X1983701Y1246208D01*
X1981517Y1260001D01*
X2149001Y1260001D01*
X2149001Y1168399D01*
X2074803Y1168399D01*
G37*
%LPD*%
%LPC*%
G36*
X804803Y1168399D02*
X804803Y1168399D01*
X789008Y1170901D01*
X773798Y1175843D01*
X759550Y1183103D01*
X746611Y1192504D01*
X735304Y1203811D01*
X725903Y1216750D01*
X718643Y1230998D01*
X713701Y1246208D01*
X711517Y1260001D01*
X879001Y1260001D01*
X879001Y1168399D01*
X804803Y1168399D01*
G37*
%LPD*%
%LPC*%
G36*
X1204598Y1914998D02*
X1204598Y1914998D01*
X1204598Y1980400D01*
X1267944Y1980400D01*
X1274404Y1978670D01*
X1280197Y1975325D01*
X1284925Y1970597D01*
X1288270Y1964804D01*
X1290000Y1958344D01*
X1290000Y1914998D01*
X1204598Y1914998D01*
G37*
%LPD*%
%LPC*%
G36*
X1099199Y1914998D02*
X1099199Y1914998D01*
X1099199Y1958344D01*
X1100930Y1964804D01*
X1104275Y1970597D01*
X1109003Y1975325D01*
X1114796Y1978670D01*
X1121256Y1980400D01*
X1184601Y1980400D01*
X1184601Y1914998D01*
X1099199Y1914998D01*
G37*
%LPD*%
%LPC*%
G36*
X1204598Y1829599D02*
X1204598Y1829599D01*
X1204598Y1895001D01*
X1290000Y1895001D01*
X1290000Y1851656D01*
X1288270Y1845196D01*
X1284925Y1839403D01*
X1280197Y1834675D01*
X1274404Y1831330D01*
X1267944Y1829599D01*
X1204598Y1829599D01*
G37*
%LPD*%
%LPC*%
G36*
X1121256Y1829599D02*
X1121256Y1829599D01*
X1114796Y1831330D01*
X1109003Y1834675D01*
X1104275Y1839403D01*
X1100930Y1845196D01*
X1099199Y1851656D01*
X1099199Y1895001D01*
X1184601Y1895001D01*
X1184601Y1829599D01*
X1121256Y1829599D01*
G37*
%LPD*%
%LPC*%
G36*
X959999Y705999D02*
X959999Y705999D01*
X959999Y753494D01*
X968661Y751771D01*
X978742Y747596D01*
X987816Y741532D01*
X995532Y733816D01*
X1001596Y724742D01*
X1005771Y714661D01*
X1007494Y705999D01*
X959999Y705999D01*
G37*
%LPD*%
%LPC*%
G36*
X959999Y2166499D02*
X959999Y2166499D01*
X959999Y2213994D01*
X968661Y2212271D01*
X978742Y2208096D01*
X987816Y2202032D01*
X995532Y2194316D01*
X1001596Y2185242D01*
X1005771Y2175161D01*
X1007494Y2166499D01*
X959999Y2166499D01*
G37*
%LPD*%
%LPC*%
G36*
X705999Y928249D02*
X705999Y928249D01*
X705999Y975744D01*
X714661Y974021D01*
X724742Y969846D01*
X733816Y963782D01*
X741532Y956066D01*
X747596Y946992D01*
X751771Y936911D01*
X753494Y928249D01*
X705999Y928249D01*
G37*
%LPD*%
%LPC*%
G36*
X1531499Y2166499D02*
X1531499Y2166499D01*
X1531499Y2213994D01*
X1540161Y2212271D01*
X1550242Y2208096D01*
X1559316Y2202032D01*
X1567032Y2194316D01*
X1573096Y2185242D01*
X1577271Y2175161D01*
X1578994Y2166499D01*
X1531499Y2166499D01*
G37*
%LPD*%
%LPC*%
G36*
X1531499Y705999D02*
X1531499Y705999D01*
X1531499Y753494D01*
X1540161Y751771D01*
X1550242Y747596D01*
X1559316Y741532D01*
X1567032Y733816D01*
X1573096Y724742D01*
X1577271Y714661D01*
X1578994Y705999D01*
X1531499Y705999D01*
G37*
%LPD*%
%LPC*%
G36*
X2102999Y705999D02*
X2102999Y705999D01*
X2102999Y753494D01*
X2111661Y751771D01*
X2121742Y747596D01*
X2130816Y741532D01*
X2138532Y733816D01*
X2144596Y724742D01*
X2148771Y714661D01*
X2150494Y705999D01*
X2102999Y705999D01*
G37*
%LPD*%
%LPC*%
G36*
X2102999Y2166499D02*
X2102999Y2166499D01*
X2102999Y2213994D01*
X2111661Y2212271D01*
X2121742Y2208096D01*
X2130816Y2202032D01*
X2138532Y2194316D01*
X2144596Y2185242D01*
X2148771Y2175161D01*
X2150494Y2166499D01*
X2102999Y2166499D01*
G37*
%LPD*%
%LPC*%
G36*
X705999Y1912499D02*
X705999Y1912499D01*
X705999Y1959994D01*
X714661Y1958271D01*
X724742Y1954096D01*
X733816Y1948032D01*
X741532Y1940316D01*
X747596Y1931242D01*
X751771Y1921161D01*
X753494Y1912499D01*
X705999Y1912499D01*
G37*
%LPD*%
%LPC*%
G36*
X2356999Y1912499D02*
X2356999Y1912499D01*
X2356999Y1959994D01*
X2365661Y1958271D01*
X2375742Y1954096D01*
X2384816Y1948032D01*
X2392532Y1940316D01*
X2398596Y1931242D01*
X2402771Y1921161D01*
X2404494Y1912499D01*
X2356999Y1912499D01*
G37*
%LPD*%
%LPC*%
G36*
X705999Y1404499D02*
X705999Y1404499D01*
X705999Y1451994D01*
X714661Y1450271D01*
X724742Y1446096D01*
X733816Y1440032D01*
X741532Y1432316D01*
X747596Y1423242D01*
X751771Y1413161D01*
X753494Y1404499D01*
X705999Y1404499D01*
G37*
%LPD*%
%LPC*%
G36*
X2356999Y1404499D02*
X2356999Y1404499D01*
X2356999Y1451994D01*
X2365661Y1450271D01*
X2375742Y1446096D01*
X2384816Y1440032D01*
X2392532Y1432316D01*
X2398596Y1423242D01*
X2402771Y1413161D01*
X2404494Y1404499D01*
X2356999Y1404499D01*
G37*
%LPD*%
%LPC*%
G36*
X2356999Y959999D02*
X2356999Y959999D01*
X2356999Y1007494D01*
X2365661Y1005771D01*
X2375742Y1001596D01*
X2384816Y995532D01*
X2392532Y987816D01*
X2398596Y978742D01*
X2402771Y968661D01*
X2404494Y959999D01*
X2356999Y959999D01*
G37*
%LPD*%
%LPC*%
G36*
X897506Y2166499D02*
X897506Y2166499D01*
X899229Y2175161D01*
X903404Y2185242D01*
X909468Y2194316D01*
X917183Y2202032D01*
X926258Y2208096D01*
X936339Y2212271D01*
X945000Y2213994D01*
X945000Y2166499D01*
X897506Y2166499D01*
G37*
%LPD*%
%LPC*%
G36*
X1469006Y2166499D02*
X1469006Y2166499D01*
X1470729Y2175161D01*
X1474904Y2185242D01*
X1480968Y2194316D01*
X1488683Y2202032D01*
X1497758Y2208096D01*
X1507839Y2212271D01*
X1516500Y2213994D01*
X1516500Y2166499D01*
X1469006Y2166499D01*
G37*
%LPD*%
%LPC*%
G36*
X2040506Y2166499D02*
X2040506Y2166499D01*
X2042229Y2175161D01*
X2046404Y2185242D01*
X2052468Y2194316D01*
X2060183Y2202032D01*
X2069258Y2208096D01*
X2079339Y2212271D01*
X2088000Y2213994D01*
X2088000Y2166499D01*
X2040506Y2166499D01*
G37*
%LPD*%
%LPC*%
G36*
X1531499Y2151500D02*
X1531499Y2151500D01*
X1578994Y2151500D01*
X1577271Y2142839D01*
X1573096Y2132758D01*
X1567032Y2123683D01*
X1559316Y2115968D01*
X1550242Y2109904D01*
X1540161Y2105729D01*
X1531499Y2104006D01*
X1531499Y2151500D01*
G37*
%LPD*%
%LPC*%
G36*
X2356999Y1897500D02*
X2356999Y1897500D01*
X2404494Y1897500D01*
X2402771Y1888839D01*
X2398596Y1878758D01*
X2392532Y1869683D01*
X2384816Y1861968D01*
X2375742Y1855904D01*
X2365661Y1851729D01*
X2356999Y1850006D01*
X2356999Y1897500D01*
G37*
%LPD*%
%LPC*%
G36*
X959999Y2151500D02*
X959999Y2151500D01*
X1007494Y2151500D01*
X1005771Y2142839D01*
X1001596Y2132758D01*
X995532Y2123683D01*
X987816Y2115968D01*
X978742Y2109904D01*
X968661Y2105729D01*
X959999Y2104006D01*
X959999Y2151500D01*
G37*
%LPD*%
%LPC*%
G36*
X2102999Y2151500D02*
X2102999Y2151500D01*
X2150494Y2151500D01*
X2148771Y2142839D01*
X2144596Y2132758D01*
X2138532Y2123683D01*
X2130816Y2115968D01*
X2121742Y2109904D01*
X2111661Y2105729D01*
X2102999Y2104006D01*
X2102999Y2151500D01*
G37*
%LPD*%
%LPC*%
G36*
X897506Y705999D02*
X897506Y705999D01*
X899229Y714661D01*
X903404Y724742D01*
X909468Y733816D01*
X917183Y741532D01*
X926258Y747596D01*
X936339Y751771D01*
X945000Y753494D01*
X945000Y705999D01*
X897506Y705999D01*
G37*
%LPD*%
%LPC*%
G36*
X2356999Y1389500D02*
X2356999Y1389500D01*
X2404494Y1389500D01*
X2402771Y1380839D01*
X2398596Y1370758D01*
X2392532Y1361683D01*
X2384816Y1353968D01*
X2375742Y1347904D01*
X2365661Y1343729D01*
X2356999Y1342006D01*
X2356999Y1389500D01*
G37*
%LPD*%
%LPC*%
G36*
X705999Y1389500D02*
X705999Y1389500D01*
X753494Y1389500D01*
X751771Y1380839D01*
X747596Y1370758D01*
X741532Y1361683D01*
X733816Y1353968D01*
X724742Y1347904D01*
X714661Y1343729D01*
X705999Y1342006D01*
X705999Y1389500D01*
G37*
%LPD*%
%LPC*%
G36*
X705999Y1897500D02*
X705999Y1897500D01*
X753494Y1897500D01*
X751771Y1888839D01*
X747596Y1878758D01*
X741532Y1869683D01*
X733816Y1861968D01*
X724742Y1855904D01*
X714661Y1851729D01*
X705999Y1850006D01*
X705999Y1897500D01*
G37*
%LPD*%
%LPC*%
G36*
X643506Y928249D02*
X643506Y928249D01*
X645229Y936911D01*
X649404Y946992D01*
X655468Y956066D01*
X663183Y963782D01*
X672258Y969846D01*
X682339Y974021D01*
X691000Y975744D01*
X691000Y928249D01*
X643506Y928249D01*
G37*
%LPD*%
%LPC*%
G36*
X2356999Y945000D02*
X2356999Y945000D01*
X2404494Y945000D01*
X2402771Y936339D01*
X2398596Y926258D01*
X2392532Y917183D01*
X2384816Y909468D01*
X2375742Y903404D01*
X2365661Y899229D01*
X2356999Y897506D01*
X2356999Y945000D01*
G37*
%LPD*%
%LPC*%
G36*
X705999Y913250D02*
X705999Y913250D01*
X753494Y913250D01*
X751771Y904589D01*
X747596Y894508D01*
X741532Y885433D01*
X733816Y877718D01*
X724742Y871654D01*
X714661Y867479D01*
X705999Y865756D01*
X705999Y913250D01*
G37*
%LPD*%
%LPC*%
G36*
X643506Y1404499D02*
X643506Y1404499D01*
X645229Y1413161D01*
X649404Y1423242D01*
X655468Y1432316D01*
X663183Y1440032D01*
X672258Y1446096D01*
X682339Y1450271D01*
X691000Y1451994D01*
X691000Y1404499D01*
X643506Y1404499D01*
G37*
%LPD*%
%LPC*%
G36*
X2294506Y959999D02*
X2294506Y959999D01*
X2296229Y968661D01*
X2300404Y978742D01*
X2306468Y987816D01*
X2314183Y995532D01*
X2323258Y1001596D01*
X2333339Y1005771D01*
X2342000Y1007494D01*
X2342000Y959999D01*
X2294506Y959999D01*
G37*
%LPD*%
%LPC*%
G36*
X2294506Y1404499D02*
X2294506Y1404499D01*
X2296229Y1413161D01*
X2300404Y1423242D01*
X2306468Y1432316D01*
X2314183Y1440032D01*
X2323258Y1446096D01*
X2333339Y1450271D01*
X2342000Y1451994D01*
X2342000Y1404499D01*
X2294506Y1404499D01*
G37*
%LPD*%
%LPC*%
G36*
X1469006Y705999D02*
X1469006Y705999D01*
X1470729Y714661D01*
X1474904Y724742D01*
X1480968Y733816D01*
X1488683Y741532D01*
X1497758Y747596D01*
X1507839Y751771D01*
X1516500Y753494D01*
X1516500Y705999D01*
X1469006Y705999D01*
G37*
%LPD*%
%LPC*%
G36*
X2040506Y705999D02*
X2040506Y705999D01*
X2042229Y714661D01*
X2046404Y724742D01*
X2052468Y733816D01*
X2060183Y741532D01*
X2069258Y747596D01*
X2079339Y751771D01*
X2088000Y753494D01*
X2088000Y705999D01*
X2040506Y705999D01*
G37*
%LPD*%
%LPC*%
G36*
X2102999Y691000D02*
X2102999Y691000D01*
X2150494Y691000D01*
X2148771Y682339D01*
X2144596Y672258D01*
X2138532Y663183D01*
X2130816Y655468D01*
X2121742Y649404D01*
X2111661Y645229D01*
X2102999Y643506D01*
X2102999Y691000D01*
G37*
%LPD*%
%LPC*%
G36*
X1531499Y691000D02*
X1531499Y691000D01*
X1578994Y691000D01*
X1577271Y682339D01*
X1573096Y672258D01*
X1567032Y663183D01*
X1559316Y655468D01*
X1550242Y649404D01*
X1540161Y645229D01*
X1531499Y643506D01*
X1531499Y691000D01*
G37*
%LPD*%
%LPC*%
G36*
X959999Y691000D02*
X959999Y691000D01*
X1007494Y691000D01*
X1005771Y682339D01*
X1001596Y672258D01*
X995532Y663183D01*
X987816Y655468D01*
X978742Y649404D01*
X968661Y645229D01*
X959999Y643506D01*
X959999Y691000D01*
G37*
%LPD*%
%LPC*%
G36*
X2294506Y1912499D02*
X2294506Y1912499D01*
X2296229Y1921161D01*
X2300404Y1931242D01*
X2306468Y1940316D01*
X2314183Y1948032D01*
X2323258Y1954096D01*
X2331161Y1957369D01*
X2331162Y1957369D01*
X2333339Y1958271D01*
X2342000Y1959994D01*
X2342000Y1912499D01*
X2294506Y1912499D01*
G37*
%LPD*%
%LPC*%
G36*
X643506Y1912499D02*
X643506Y1912499D01*
X645229Y1921161D01*
X649404Y1931242D01*
X655468Y1940316D01*
X663183Y1948032D01*
X672258Y1954096D01*
X680161Y1957369D01*
X680162Y1957369D01*
X682339Y1958271D01*
X691000Y1959994D01*
X691000Y1912499D01*
X643506Y1912499D01*
G37*
%LPD*%
%LPC*%
G36*
X2333339Y899229D02*
X2333339Y899229D01*
X2323258Y903404D01*
X2314183Y909468D01*
X2306468Y917183D01*
X2300404Y926258D01*
X2296229Y936339D01*
X2294506Y945000D01*
X2342000Y945000D01*
X2342000Y897506D01*
X2333339Y899229D01*
G37*
%LPD*%
%LPC*%
G36*
X2333339Y1343729D02*
X2333339Y1343729D01*
X2323258Y1347904D01*
X2314183Y1353968D01*
X2306468Y1361683D01*
X2300404Y1370758D01*
X2296229Y1380839D01*
X2294506Y1389500D01*
X2342000Y1389500D01*
X2342000Y1342006D01*
X2333339Y1343729D01*
G37*
%LPD*%
%LPC*%
G36*
X682339Y867479D02*
X682339Y867479D01*
X672258Y871654D01*
X663183Y877718D01*
X655468Y885433D01*
X649404Y894508D01*
X645229Y904589D01*
X643506Y913250D01*
X691000Y913250D01*
X691000Y865756D01*
X682339Y867479D01*
G37*
%LPD*%
%LPC*%
G36*
X682339Y1851729D02*
X682339Y1851729D01*
X672258Y1855904D01*
X663183Y1861968D01*
X655468Y1869683D01*
X649404Y1878758D01*
X645229Y1888839D01*
X643506Y1897500D01*
X691000Y1897500D01*
X691000Y1850006D01*
X682339Y1851729D01*
G37*
%LPD*%
%LPC*%
G36*
X2333339Y1851729D02*
X2333339Y1851729D01*
X2323258Y1855904D01*
X2314183Y1861968D01*
X2306468Y1869683D01*
X2300404Y1878758D01*
X2296229Y1888839D01*
X2294506Y1897500D01*
X2342000Y1897500D01*
X2342000Y1850006D01*
X2333339Y1851729D01*
G37*
%LPD*%
%LPC*%
G36*
X682339Y1343729D02*
X682339Y1343729D01*
X672258Y1347904D01*
X663183Y1353968D01*
X655468Y1361683D01*
X649404Y1370758D01*
X645229Y1380839D01*
X643506Y1389500D01*
X691000Y1389500D01*
X691000Y1342006D01*
X682339Y1343729D01*
G37*
%LPD*%
%LPC*%
G36*
X1507839Y2105729D02*
X1507839Y2105729D01*
X1497758Y2109904D01*
X1488683Y2115968D01*
X1480968Y2123683D01*
X1474904Y2132758D01*
X1470729Y2142839D01*
X1469006Y2151500D01*
X1516500Y2151500D01*
X1516500Y2104006D01*
X1507839Y2105729D01*
G37*
%LPD*%
%LPC*%
G36*
X936339Y2105729D02*
X936339Y2105729D01*
X926258Y2109904D01*
X917183Y2115968D01*
X909468Y2123683D01*
X903404Y2132758D01*
X899229Y2142839D01*
X897506Y2151500D01*
X945000Y2151500D01*
X945000Y2104006D01*
X936339Y2105729D01*
G37*
%LPD*%
%LPC*%
G36*
X936339Y645229D02*
X936339Y645229D01*
X926258Y649404D01*
X917183Y655468D01*
X909468Y663183D01*
X903404Y672258D01*
X899229Y682339D01*
X897506Y691000D01*
X945000Y691000D01*
X945000Y643506D01*
X936339Y645229D01*
G37*
%LPD*%
%LPC*%
G36*
X2079339Y2105729D02*
X2079339Y2105729D01*
X2069258Y2109904D01*
X2060183Y2115968D01*
X2052468Y2123683D01*
X2046404Y2132758D01*
X2042229Y2142839D01*
X2040506Y2151500D01*
X2088000Y2151500D01*
X2088000Y2104006D01*
X2079339Y2105729D01*
G37*
%LPD*%
%LPC*%
G36*
X2079339Y645229D02*
X2079339Y645229D01*
X2069258Y649404D01*
X2060183Y655468D01*
X2052468Y663183D01*
X2046404Y672258D01*
X2042229Y682339D01*
X2040506Y691000D01*
X2088000Y691000D01*
X2088000Y643506D01*
X2079339Y645229D01*
G37*
%LPD*%
%LPC*%
G36*
X1507839Y645229D02*
X1507839Y645229D01*
X1497758Y649404D01*
X1488683Y655468D01*
X1480968Y663183D01*
X1474904Y672258D01*
X1470729Y682339D01*
X1469006Y691000D01*
X1516500Y691000D01*
X1516500Y643506D01*
X1507839Y645229D01*
G37*
%LPD*%
%LPC*%
G36*
X888998Y1269998D02*
X888998Y1269998D01*
X888998Y1270002D01*
X889002Y1270002D01*
X889002Y1269998D01*
X888998Y1269998D01*
G37*
%LPD*%
%LPC*%
G36*
X2158998Y1269998D02*
X2158998Y1269998D01*
X2158998Y1270002D01*
X2159002Y1270002D01*
X2159002Y1269998D01*
X2158998Y1269998D01*
G37*
%LPD*%
%LPC*%
G36*
X1194598Y1904998D02*
X1194598Y1904998D01*
X1194598Y1905002D01*
X1194602Y1905002D01*
X1194602Y1904998D01*
X1194598Y1904998D01*
G37*
%LPD*%
D10*
X952500Y2286000D02*
X2095500Y2286000D01*
X2476500Y1905000D02*
X2476500Y952500D01*
X2095500Y571500D02*
X952500Y571500D01*
X571500Y952500D02*
X571500Y1905000D01*
X571611Y1914206D01*
X571945Y1923407D01*
X572501Y1932598D01*
X573279Y1941772D01*
X574278Y1950924D01*
X575498Y1960050D01*
X576938Y1969144D01*
X578598Y1978200D01*
X580476Y1987214D01*
X582571Y1996179D01*
X584882Y2005092D01*
X587408Y2013945D01*
X590147Y2022735D01*
X593098Y2031457D01*
X596259Y2040104D01*
X599627Y2048673D01*
X603202Y2057158D01*
X606981Y2065554D01*
X610961Y2073856D01*
X615141Y2082060D01*
X619518Y2090160D01*
X624090Y2098152D01*
X628853Y2106031D01*
X633805Y2113793D01*
X638943Y2121433D01*
X644265Y2128946D01*
X649766Y2136329D01*
X655444Y2143577D01*
X661296Y2150685D01*
X667317Y2157650D01*
X673506Y2164467D01*
X679857Y2171133D01*
X686367Y2177643D01*
X693033Y2183994D01*
X699850Y2190183D01*
X706815Y2196204D01*
X713923Y2202056D01*
X721171Y2207734D01*
X728554Y2213235D01*
X736067Y2218557D01*
X743707Y2223695D01*
X751469Y2228647D01*
X759348Y2233410D01*
X767340Y2237982D01*
X775440Y2242359D01*
X783644Y2246539D01*
X791946Y2250519D01*
X800342Y2254298D01*
X808827Y2257873D01*
X817396Y2261241D01*
X826043Y2264402D01*
X834765Y2267353D01*
X843555Y2270092D01*
X852408Y2272618D01*
X861321Y2274929D01*
X870286Y2277024D01*
X879300Y2278902D01*
X888356Y2280562D01*
X897450Y2282002D01*
X906576Y2283222D01*
X915728Y2284221D01*
X924902Y2284999D01*
X934093Y2285555D01*
X943294Y2285889D01*
X952500Y2286000D01*
X2095500Y2286000D02*
X2104706Y2285889D01*
X2113907Y2285555D01*
X2123098Y2284999D01*
X2132272Y2284221D01*
X2141424Y2283222D01*
X2150550Y2282002D01*
X2159644Y2280562D01*
X2168700Y2278902D01*
X2177714Y2277024D01*
X2186679Y2274929D01*
X2195592Y2272618D01*
X2204445Y2270092D01*
X2213235Y2267353D01*
X2221957Y2264402D01*
X2230604Y2261241D01*
X2239173Y2257873D01*
X2247658Y2254298D01*
X2256054Y2250519D01*
X2264356Y2246539D01*
X2272560Y2242359D01*
X2280660Y2237982D01*
X2288652Y2233410D01*
X2296531Y2228647D01*
X2304293Y2223695D01*
X2311933Y2218557D01*
X2319446Y2213235D01*
X2326829Y2207734D01*
X2334077Y2202056D01*
X2341185Y2196204D01*
X2348150Y2190183D01*
X2354967Y2183994D01*
X2361633Y2177643D01*
X2368143Y2171133D01*
X2374494Y2164467D01*
X2380683Y2157650D01*
X2386704Y2150685D01*
X2392556Y2143577D01*
X2398234Y2136329D01*
X2403735Y2128946D01*
X2409057Y2121433D01*
X2414195Y2113793D01*
X2419147Y2106031D01*
X2423910Y2098152D01*
X2428482Y2090160D01*
X2432859Y2082060D01*
X2437039Y2073856D01*
X2441019Y2065554D01*
X2444798Y2057158D01*
X2448373Y2048673D01*
X2451741Y2040104D01*
X2454902Y2031457D01*
X2457853Y2022735D01*
X2460592Y2013945D01*
X2463118Y2005092D01*
X2465429Y1996179D01*
X2467524Y1987214D01*
X2469402Y1978200D01*
X2471062Y1969144D01*
X2472502Y1960050D01*
X2473722Y1950924D01*
X2474721Y1941772D01*
X2475499Y1932598D01*
X2476055Y1923407D01*
X2476389Y1914206D01*
X2476500Y1905000D01*
X2476500Y952500D02*
X2476389Y943294D01*
X2476055Y934093D01*
X2475499Y924902D01*
X2474721Y915728D01*
X2473722Y906576D01*
X2472502Y897450D01*
X2471062Y888356D01*
X2469402Y879300D01*
X2467524Y870286D01*
X2465429Y861321D01*
X2463118Y852408D01*
X2460592Y843555D01*
X2457853Y834765D01*
X2454902Y826043D01*
X2451741Y817396D01*
X2448373Y808827D01*
X2444798Y800342D01*
X2441019Y791946D01*
X2437039Y783644D01*
X2432859Y775440D01*
X2428482Y767340D01*
X2423910Y759348D01*
X2419147Y751469D01*
X2414195Y743707D01*
X2409057Y736067D01*
X2403735Y728554D01*
X2398234Y721171D01*
X2392556Y713923D01*
X2386704Y706815D01*
X2380683Y699850D01*
X2374494Y693033D01*
X2368143Y686367D01*
X2361633Y679857D01*
X2354967Y673506D01*
X2348150Y667317D01*
X2341185Y661296D01*
X2334077Y655444D01*
X2326829Y649766D01*
X2319446Y644265D01*
X2311933Y638943D01*
X2304293Y633805D01*
X2296531Y628853D01*
X2288652Y624090D01*
X2280660Y619518D01*
X2272560Y615141D01*
X2264356Y610961D01*
X2256054Y606981D01*
X2247658Y603202D01*
X2239173Y599627D01*
X2230604Y596259D01*
X2221957Y593098D01*
X2213235Y590147D01*
X2204445Y587408D01*
X2195592Y584882D01*
X2186679Y582571D01*
X2177714Y580476D01*
X2168700Y578598D01*
X2159644Y576938D01*
X2150550Y575498D01*
X2141424Y574278D01*
X2132272Y573279D01*
X2123098Y572501D01*
X2113907Y571945D01*
X2104706Y571611D01*
X2095500Y571500D01*
X952500Y571500D02*
X943294Y571611D01*
X934093Y571945D01*
X924902Y572501D01*
X915728Y573279D01*
X906576Y574278D01*
X897450Y575498D01*
X888356Y576938D01*
X879300Y578598D01*
X870286Y580476D01*
X861321Y582571D01*
X852408Y584882D01*
X843555Y587408D01*
X834765Y590147D01*
X826043Y593098D01*
X817396Y596259D01*
X808827Y599627D01*
X800342Y603202D01*
X791946Y606981D01*
X783644Y610961D01*
X775440Y615141D01*
X767340Y619518D01*
X759348Y624090D01*
X751469Y628853D01*
X743707Y633805D01*
X736067Y638943D01*
X728554Y644265D01*
X721171Y649766D01*
X713923Y655444D01*
X706815Y661296D01*
X699850Y667317D01*
X693033Y673506D01*
X686367Y679857D01*
X679857Y686367D01*
X673506Y693033D01*
X667317Y699850D01*
X661296Y706815D01*
X655444Y713923D01*
X649766Y721171D01*
X644265Y728554D01*
X638943Y736067D01*
X633805Y743707D01*
X628853Y751469D01*
X624090Y759348D01*
X619518Y767340D01*
X615141Y775440D01*
X610961Y783644D01*
X606981Y791946D01*
X603202Y800342D01*
X599627Y808827D01*
X596259Y817396D01*
X593098Y826043D01*
X590147Y834765D01*
X587408Y843555D01*
X584882Y852408D01*
X582571Y861321D01*
X580476Y870286D01*
X578598Y879300D01*
X576938Y888356D01*
X575498Y897450D01*
X574278Y906576D01*
X573279Y915728D01*
X572501Y924902D01*
X571945Y934093D01*
X571611Y943294D01*
X571500Y952500D01*
D11*
X1620500Y1576500D02*
X1627500Y1576500D01*
X1627500Y1517500D01*
X1620500Y1517500D01*
X1620500Y1576500D01*
X1620500Y1538499D02*
X1627500Y1538499D01*
X1627500Y1559498D02*
X1620500Y1559498D01*
X1577500Y1576500D02*
X1570500Y1576500D01*
X1577500Y1576500D02*
X1577500Y1517500D01*
X1570500Y1517500D01*
X1570500Y1576500D01*
X1570500Y1538499D02*
X1577500Y1538499D01*
X1577500Y1559498D02*
X1570500Y1559498D01*
X1527500Y1576500D02*
X1520500Y1576500D01*
X1527500Y1576500D02*
X1527500Y1517500D01*
X1520500Y1517500D01*
X1520500Y1576500D01*
X1520500Y1538499D02*
X1527500Y1538499D01*
X1527500Y1559498D02*
X1520500Y1559498D01*
X1477500Y1576500D02*
X1470500Y1576500D01*
X1477500Y1576500D02*
X1477500Y1517500D01*
X1470500Y1517500D01*
X1470500Y1576500D01*
X1470500Y1538499D02*
X1477500Y1538499D01*
X1477500Y1559498D02*
X1470500Y1559498D01*
X1427500Y1576500D02*
X1420500Y1576500D01*
X1427500Y1576500D02*
X1427500Y1517500D01*
X1420500Y1517500D01*
X1420500Y1576500D01*
X1420500Y1538499D02*
X1427500Y1538499D01*
X1427500Y1559498D02*
X1420500Y1559498D01*
X1420500Y1276500D02*
X1427500Y1276500D01*
X1427500Y1217500D01*
X1420500Y1217500D01*
X1420500Y1276500D01*
X1420500Y1238499D02*
X1427500Y1238499D01*
X1427500Y1259498D02*
X1420500Y1259498D01*
X1470500Y1276500D02*
X1477500Y1276500D01*
X1477500Y1217500D01*
X1470500Y1217500D01*
X1470500Y1276500D01*
X1470500Y1238499D02*
X1477500Y1238499D01*
X1477500Y1259498D02*
X1470500Y1259498D01*
X1520500Y1276500D02*
X1527500Y1276500D01*
X1527500Y1217500D01*
X1520500Y1217500D01*
X1520500Y1276500D01*
X1520500Y1238499D02*
X1527500Y1238499D01*
X1527500Y1259498D02*
X1520500Y1259498D01*
X1570500Y1276500D02*
X1577500Y1276500D01*
X1577500Y1217500D01*
X1570500Y1217500D01*
X1570500Y1276500D01*
X1570500Y1238499D02*
X1577500Y1238499D01*
X1577500Y1259498D02*
X1570500Y1259498D01*
X1620500Y1276500D02*
X1627500Y1276500D01*
X1627500Y1217500D01*
X1620500Y1217500D01*
X1620500Y1276500D01*
X1620500Y1238499D02*
X1627500Y1238499D01*
X1627500Y1259498D02*
X1620500Y1259498D01*
D12*
X1524000Y1397000D03*
D13*
X1574000Y1397000D03*
X1474000Y1397000D03*
D14*
X2082800Y1270000D02*
X2235200Y1270000D01*
X2235200Y1524000D02*
X2082800Y1524000D01*
D15*
X1074420Y889000D03*
X1973580Y889000D03*
D14*
X965200Y1524000D02*
X812800Y1524000D01*
X812800Y1270000D02*
X965200Y1270000D01*
D16*
X953300Y2006600D03*
X953300Y1803400D03*
X1194600Y1905000D03*
D17*
X1474000Y1701000D02*
X1474000Y1547000D01*
X1474000Y1701000D02*
X1397000Y1778000D01*
D18*
X1397000Y1778000D03*
D17*
X1574000Y1701000D02*
X1574000Y1547000D01*
X1574000Y1701000D02*
X1651000Y1778000D01*
D18*
X1651000Y1778000D03*
D17*
X1524000Y889000D02*
X1973580Y889000D01*
X1524000Y889000D02*
X1524000Y1247000D01*
D18*
X1524000Y889000D03*
D17*
X1424000Y1547000D02*
X952500Y1547000D01*
X912000Y1547000D01*
X889000Y1524000D01*
X953300Y1547800D02*
X953300Y1803400D01*
X953300Y1547800D02*
X952500Y1547000D01*
X1474000Y939000D02*
X1524000Y889000D01*
X1474000Y939000D02*
X1474000Y1247000D01*
X1694500Y1547000D02*
X2136000Y1547000D01*
X2159000Y1524000D01*
X1694500Y1547000D02*
X1624000Y1547000D01*
X1624000Y1247000D02*
X1691500Y1247000D01*
D19*
X1691500Y1247000D03*
X1694500Y1547000D03*
D18*
X952500Y2159000D03*
X2095500Y2159000D03*
X2349500Y1905000D03*
X2349500Y952500D03*
X2095500Y698500D03*
X952500Y698500D03*
X698500Y920750D03*
X698500Y1905000D03*
X1524000Y2159000D03*
X1524000Y698500D03*
X698500Y1397000D03*
X2349500Y1397000D03*
D20*
X1524000Y1397000D02*
X1333500Y1397000D01*
X1524000Y1397000D02*
X1714500Y1397000D01*
D21*
X1524000Y1547000D02*
X1524000Y1651000D01*
X1524000Y1547000D02*
X1524000Y1460500D01*
X1574000Y1247000D02*
X1574000Y1156500D01*
X1587500Y1143000D01*
D17*
X1424000Y1247000D02*
X1424000Y889000D01*
D18*
X1424000Y889000D03*
D17*
X1074420Y889000D01*
M02*
