G04 EAGLE Gerber RS-274X export*
G75*
%MOMM*%
%FSLAX35Y35*%
%LPD*%
%INsilk_top*%
%IPPOS*%
%AMOC8*
5,1,8,0,0,1.08239X$1,22.5*%
G01*
%ADD10C,0.025400*%
%ADD11C,0.076200*%
%ADD12C,0.300000*%
%ADD13C,0.127000*%
%ADD14C,0.152400*%


D10*
X190500Y0D02*
X825500Y0D01*
X825500Y1460500D02*
X190500Y1460500D01*
X0Y1270000D02*
X0Y190500D01*
X0Y1270000D02*
X56Y1274603D01*
X222Y1279204D01*
X500Y1283799D01*
X889Y1288386D01*
X1389Y1292962D01*
X1999Y1297525D01*
X2719Y1302072D01*
X3549Y1306600D01*
X4488Y1311107D01*
X5536Y1315590D01*
X6691Y1320046D01*
X7954Y1324473D01*
X9324Y1328868D01*
X10799Y1333228D01*
X12379Y1337552D01*
X14064Y1341837D01*
X15851Y1346079D01*
X17740Y1350277D01*
X19731Y1354428D01*
X21821Y1358530D01*
X24009Y1362580D01*
X26295Y1366576D01*
X28676Y1370515D01*
X31152Y1374396D01*
X33722Y1378216D01*
X36382Y1381973D01*
X39133Y1385664D01*
X41972Y1389288D01*
X44898Y1392842D01*
X47909Y1396325D01*
X51003Y1399734D01*
X54178Y1403066D01*
X57434Y1406322D01*
X60766Y1409497D01*
X64175Y1412591D01*
X67658Y1415602D01*
X71212Y1418528D01*
X74836Y1421367D01*
X78527Y1424118D01*
X82284Y1426778D01*
X86104Y1429348D01*
X89985Y1431824D01*
X93924Y1434205D01*
X97920Y1436491D01*
X101970Y1438679D01*
X106072Y1440769D01*
X110223Y1442760D01*
X114421Y1444649D01*
X118663Y1446436D01*
X122948Y1448121D01*
X127272Y1449701D01*
X131632Y1451176D01*
X136027Y1452546D01*
X140454Y1453809D01*
X144910Y1454964D01*
X149393Y1456012D01*
X153900Y1456951D01*
X158428Y1457781D01*
X162975Y1458501D01*
X167538Y1459111D01*
X172114Y1459611D01*
X176701Y1460000D01*
X181296Y1460278D01*
X185897Y1460444D01*
X190500Y1460500D01*
X825500Y1460500D02*
X830103Y1460444D01*
X834704Y1460278D01*
X839299Y1460000D01*
X843886Y1459611D01*
X848462Y1459111D01*
X853025Y1458501D01*
X857572Y1457781D01*
X862100Y1456951D01*
X866607Y1456012D01*
X871090Y1454964D01*
X875546Y1453809D01*
X879973Y1452546D01*
X884368Y1451176D01*
X888728Y1449701D01*
X893052Y1448121D01*
X897337Y1446436D01*
X901579Y1444649D01*
X905777Y1442760D01*
X909928Y1440769D01*
X914030Y1438679D01*
X918080Y1436491D01*
X922076Y1434205D01*
X926015Y1431824D01*
X929896Y1429348D01*
X933716Y1426778D01*
X937473Y1424118D01*
X941164Y1421367D01*
X944788Y1418528D01*
X948342Y1415602D01*
X951825Y1412591D01*
X955234Y1409497D01*
X958566Y1406322D01*
X961822Y1403066D01*
X964997Y1399734D01*
X968091Y1396325D01*
X971102Y1392842D01*
X974028Y1389288D01*
X976867Y1385664D01*
X979618Y1381973D01*
X982278Y1378216D01*
X984848Y1374396D01*
X987324Y1370515D01*
X989705Y1366576D01*
X991991Y1362580D01*
X994179Y1358530D01*
X996269Y1354428D01*
X998260Y1350277D01*
X1000149Y1346079D01*
X1001936Y1341837D01*
X1003621Y1337552D01*
X1005201Y1333228D01*
X1006676Y1328868D01*
X1008046Y1324473D01*
X1009309Y1320046D01*
X1010464Y1315590D01*
X1011512Y1311107D01*
X1012451Y1306600D01*
X1013281Y1302072D01*
X1014001Y1297525D01*
X1014611Y1292962D01*
X1015111Y1288386D01*
X1015500Y1283799D01*
X1015778Y1279204D01*
X1015944Y1274603D01*
X1016000Y1270000D01*
X1016000Y190500D02*
X1015944Y185897D01*
X1015778Y181296D01*
X1015500Y176701D01*
X1015111Y172114D01*
X1014611Y167538D01*
X1014001Y162975D01*
X1013281Y158428D01*
X1012451Y153900D01*
X1011512Y149393D01*
X1010464Y144910D01*
X1009309Y140454D01*
X1008046Y136027D01*
X1006676Y131632D01*
X1005201Y127272D01*
X1003621Y122948D01*
X1001936Y118663D01*
X1000149Y114421D01*
X998260Y110223D01*
X996269Y106072D01*
X994179Y101970D01*
X991991Y97920D01*
X989705Y93924D01*
X987324Y89985D01*
X984848Y86104D01*
X982278Y82284D01*
X979618Y78527D01*
X976867Y74836D01*
X974028Y71212D01*
X971102Y67658D01*
X968091Y64175D01*
X964997Y60766D01*
X961822Y57434D01*
X958566Y54178D01*
X955234Y51003D01*
X951825Y47909D01*
X948342Y44898D01*
X944788Y41972D01*
X941164Y39133D01*
X937473Y36382D01*
X933716Y33722D01*
X929896Y31152D01*
X926015Y28676D01*
X922076Y26295D01*
X918080Y24009D01*
X914030Y21821D01*
X909928Y19731D01*
X905777Y17740D01*
X901579Y15851D01*
X897337Y14064D01*
X893052Y12379D01*
X888728Y10799D01*
X884368Y9324D01*
X879973Y7954D01*
X875546Y6691D01*
X871090Y5536D01*
X866607Y4488D01*
X862100Y3549D01*
X857572Y2719D01*
X853025Y1999D01*
X848462Y1389D01*
X843886Y889D01*
X839299Y500D01*
X834704Y222D01*
X830103Y56D01*
X825500Y0D01*
X190500Y0D02*
X185897Y56D01*
X181296Y222D01*
X176701Y500D01*
X172114Y889D01*
X167538Y1389D01*
X162975Y1999D01*
X158428Y2719D01*
X153900Y3549D01*
X149393Y4488D01*
X144910Y5536D01*
X140454Y6691D01*
X136027Y7954D01*
X131632Y9324D01*
X127272Y10799D01*
X122948Y12379D01*
X118663Y14064D01*
X114421Y15851D01*
X110223Y17740D01*
X106072Y19731D01*
X101970Y21821D01*
X97920Y24009D01*
X93924Y26295D01*
X89985Y28676D01*
X86104Y31152D01*
X82284Y33722D01*
X78527Y36382D01*
X74836Y39133D01*
X71212Y41972D01*
X67658Y44898D01*
X64175Y47909D01*
X60766Y51003D01*
X57434Y54178D01*
X54178Y57434D01*
X51003Y60766D01*
X47909Y64175D01*
X44898Y67658D01*
X41972Y71212D01*
X39133Y74836D01*
X36382Y78527D01*
X33722Y82284D01*
X31152Y86104D01*
X28676Y89985D01*
X26295Y93924D01*
X24009Y97920D01*
X21821Y101970D01*
X19731Y106072D01*
X17740Y110223D01*
X15851Y114421D01*
X14064Y118663D01*
X12379Y122948D01*
X10799Y127272D01*
X9324Y131632D01*
X7954Y136027D01*
X6691Y140454D01*
X5536Y144910D01*
X4488Y149393D01*
X3549Y153900D01*
X2719Y158428D01*
X1999Y162975D01*
X1389Y167538D01*
X889Y172114D01*
X500Y176701D01*
X222Y181296D01*
X56Y185897D01*
X0Y190500D01*
X1016000Y190500D02*
X1016000Y1270000D01*
D11*
X219927Y1284440D02*
X219927Y1192060D01*
X260984Y1192060D01*
X299054Y1192060D02*
X299054Y1284440D01*
X324715Y1284440D01*
X325340Y1284432D01*
X325964Y1284410D01*
X326588Y1284372D01*
X327211Y1284318D01*
X327832Y1284250D01*
X328451Y1284167D01*
X329068Y1284068D01*
X329683Y1283955D01*
X330294Y1283826D01*
X330903Y1283683D01*
X331507Y1283525D01*
X332108Y1283352D01*
X332704Y1283165D01*
X333296Y1282963D01*
X333882Y1282747D01*
X334463Y1282516D01*
X335038Y1282272D01*
X335607Y1282014D01*
X336170Y1281742D01*
X336725Y1281456D01*
X337274Y1281157D01*
X337815Y1280844D01*
X338349Y1280519D01*
X338874Y1280180D01*
X339391Y1279829D01*
X339899Y1279465D01*
X340398Y1279090D01*
X340888Y1278702D01*
X341369Y1278302D01*
X341839Y1277891D01*
X342299Y1277468D01*
X342749Y1277034D01*
X343188Y1276590D01*
X343617Y1276135D01*
X344034Y1275669D01*
X344439Y1275194D01*
X344833Y1274708D01*
X345215Y1274214D01*
X345585Y1273710D01*
X345942Y1273197D01*
X346287Y1272676D01*
X346619Y1272147D01*
X346938Y1271610D01*
X347244Y1271065D01*
X347536Y1270512D01*
X347815Y1269953D01*
X348081Y1269387D01*
X348332Y1268815D01*
X348569Y1268237D01*
X348793Y1267653D01*
X349002Y1267064D01*
X349196Y1266471D01*
X349376Y1265872D01*
X349542Y1265270D01*
X349692Y1264663D01*
X349828Y1264053D01*
X349949Y1263440D01*
X350055Y1262824D01*
X350146Y1262206D01*
X350222Y1261586D01*
X350283Y1260964D01*
X350328Y1260340D01*
X350359Y1259716D01*
X350374Y1259091D01*
X350374Y1258467D01*
X350359Y1257842D01*
X350328Y1257218D01*
X350283Y1256594D01*
X350222Y1255972D01*
X350146Y1255352D01*
X350055Y1254734D01*
X349949Y1254118D01*
X349828Y1253505D01*
X349692Y1252895D01*
X349542Y1252288D01*
X349376Y1251686D01*
X349196Y1251087D01*
X349002Y1250494D01*
X348793Y1249905D01*
X348569Y1249321D01*
X348332Y1248743D01*
X348081Y1248171D01*
X347815Y1247605D01*
X347536Y1247046D01*
X347244Y1246493D01*
X346938Y1245949D01*
X346619Y1245411D01*
X346287Y1244882D01*
X345942Y1244361D01*
X345585Y1243848D01*
X345215Y1243344D01*
X344833Y1242850D01*
X344439Y1242364D01*
X344034Y1241889D01*
X343617Y1241423D01*
X343188Y1240968D01*
X342749Y1240524D01*
X342299Y1240090D01*
X341839Y1239667D01*
X341369Y1239256D01*
X340888Y1238856D01*
X340398Y1238468D01*
X339899Y1238093D01*
X339391Y1237729D01*
X338874Y1237378D01*
X338349Y1237039D01*
X337815Y1236714D01*
X337274Y1236401D01*
X336725Y1236102D01*
X336170Y1235816D01*
X335607Y1235544D01*
X335038Y1235286D01*
X334463Y1235042D01*
X333882Y1234811D01*
X333296Y1234595D01*
X332704Y1234393D01*
X332108Y1234206D01*
X331507Y1234033D01*
X330903Y1233875D01*
X330294Y1233732D01*
X329683Y1233603D01*
X329068Y1233490D01*
X328451Y1233391D01*
X327832Y1233308D01*
X327211Y1233240D01*
X326588Y1233186D01*
X325964Y1233148D01*
X325340Y1233126D01*
X324715Y1233118D01*
X299054Y1233118D01*
X384753Y1192060D02*
X410413Y1192060D01*
X411038Y1192068D01*
X411662Y1192090D01*
X412286Y1192128D01*
X412909Y1192182D01*
X413530Y1192250D01*
X414149Y1192333D01*
X414766Y1192432D01*
X415381Y1192545D01*
X415992Y1192674D01*
X416601Y1192817D01*
X417205Y1192975D01*
X417806Y1193148D01*
X418402Y1193335D01*
X418994Y1193537D01*
X419580Y1193753D01*
X420161Y1193984D01*
X420736Y1194228D01*
X421305Y1194486D01*
X421868Y1194758D01*
X422423Y1195044D01*
X422972Y1195343D01*
X423513Y1195656D01*
X424047Y1195981D01*
X424572Y1196320D01*
X425089Y1196671D01*
X425597Y1197035D01*
X426096Y1197410D01*
X426586Y1197798D01*
X427067Y1198198D01*
X427537Y1198609D01*
X427997Y1199032D01*
X428447Y1199466D01*
X428886Y1199910D01*
X429315Y1200365D01*
X429732Y1200831D01*
X430137Y1201306D01*
X430531Y1201792D01*
X430913Y1202286D01*
X431283Y1202790D01*
X431640Y1203303D01*
X431985Y1203824D01*
X432317Y1204353D01*
X432636Y1204891D01*
X432942Y1205435D01*
X433234Y1205988D01*
X433513Y1206547D01*
X433779Y1207113D01*
X434030Y1207685D01*
X434267Y1208263D01*
X434491Y1208847D01*
X434700Y1209436D01*
X434894Y1210029D01*
X435074Y1210628D01*
X435240Y1211230D01*
X435390Y1211837D01*
X435526Y1212447D01*
X435647Y1213060D01*
X435753Y1213676D01*
X435844Y1214294D01*
X435920Y1214914D01*
X435981Y1215536D01*
X436026Y1216160D01*
X436057Y1216784D01*
X436072Y1217409D01*
X436072Y1218033D01*
X436057Y1218658D01*
X436026Y1219282D01*
X435981Y1219906D01*
X435920Y1220528D01*
X435844Y1221148D01*
X435753Y1221766D01*
X435647Y1222382D01*
X435526Y1222995D01*
X435390Y1223605D01*
X435240Y1224212D01*
X435074Y1224814D01*
X434894Y1225413D01*
X434700Y1226006D01*
X434491Y1226595D01*
X434267Y1227179D01*
X434030Y1227757D01*
X433779Y1228329D01*
X433513Y1228895D01*
X433234Y1229454D01*
X432942Y1230007D01*
X432636Y1230552D01*
X432317Y1231089D01*
X431985Y1231618D01*
X431640Y1232139D01*
X431283Y1232652D01*
X430913Y1233156D01*
X430531Y1233650D01*
X430137Y1234136D01*
X429732Y1234611D01*
X429315Y1235077D01*
X428886Y1235532D01*
X428447Y1235976D01*
X427997Y1236410D01*
X427537Y1236833D01*
X427067Y1237244D01*
X426586Y1237644D01*
X426096Y1238032D01*
X425597Y1238407D01*
X425089Y1238771D01*
X424572Y1239122D01*
X424047Y1239461D01*
X423513Y1239786D01*
X422972Y1240099D01*
X422423Y1240398D01*
X421868Y1240684D01*
X421305Y1240956D01*
X420736Y1241214D01*
X420161Y1241458D01*
X419580Y1241689D01*
X418994Y1241905D01*
X418402Y1242107D01*
X417806Y1242294D01*
X417205Y1242467D01*
X416601Y1242625D01*
X415992Y1242768D01*
X415381Y1242897D01*
X414766Y1243010D01*
X414149Y1243109D01*
X413530Y1243192D01*
X412909Y1243260D01*
X412286Y1243314D01*
X411662Y1243352D01*
X411038Y1243374D01*
X410413Y1243382D01*
X415546Y1284440D02*
X384753Y1284440D01*
X415546Y1284440D02*
X416046Y1284434D01*
X416546Y1284416D01*
X417045Y1284385D01*
X417543Y1284343D01*
X418040Y1284288D01*
X418535Y1284221D01*
X419029Y1284142D01*
X419520Y1284052D01*
X420010Y1283949D01*
X420496Y1283834D01*
X420980Y1283708D01*
X421460Y1283570D01*
X421937Y1283420D01*
X422411Y1283258D01*
X422880Y1283085D01*
X423344Y1282901D01*
X423804Y1282706D01*
X424260Y1282499D01*
X424710Y1282281D01*
X425154Y1282053D01*
X425593Y1281813D01*
X426026Y1281563D01*
X426453Y1281303D01*
X426873Y1281032D01*
X427287Y1280751D01*
X427693Y1280460D01*
X428093Y1280160D01*
X428485Y1279849D01*
X428869Y1279529D01*
X429245Y1279200D01*
X429614Y1278862D01*
X429974Y1278515D01*
X430325Y1278160D01*
X430667Y1277796D01*
X431001Y1277423D01*
X431326Y1277043D01*
X431641Y1276655D01*
X431946Y1276259D01*
X432242Y1275856D01*
X432528Y1275446D01*
X432804Y1275029D01*
X433069Y1274605D01*
X433325Y1274176D01*
X433569Y1273740D01*
X433803Y1273298D01*
X434026Y1272850D01*
X434239Y1272398D01*
X434440Y1271940D01*
X434630Y1271478D01*
X434808Y1271011D01*
X434975Y1270539D01*
X435131Y1270064D01*
X435275Y1269586D01*
X435407Y1269103D01*
X435528Y1268618D01*
X435637Y1268130D01*
X435734Y1267640D01*
X435818Y1267147D01*
X435891Y1266653D01*
X435952Y1266156D01*
X436000Y1265659D01*
X436037Y1265160D01*
X436061Y1264661D01*
X436073Y1264161D01*
X436073Y1263661D01*
X436061Y1263161D01*
X436037Y1262662D01*
X436000Y1262163D01*
X435952Y1261666D01*
X435891Y1261169D01*
X435818Y1260675D01*
X435734Y1260182D01*
X435637Y1259692D01*
X435528Y1259204D01*
X435407Y1258719D01*
X435275Y1258236D01*
X435131Y1257758D01*
X434975Y1257283D01*
X434808Y1256811D01*
X434630Y1256344D01*
X434440Y1255882D01*
X434239Y1255424D01*
X434026Y1254972D01*
X433803Y1254524D01*
X433569Y1254082D01*
X433325Y1253647D01*
X433069Y1253217D01*
X432804Y1252793D01*
X432528Y1252376D01*
X432242Y1251966D01*
X431946Y1251563D01*
X431641Y1251167D01*
X431326Y1250779D01*
X431001Y1250399D01*
X430667Y1250026D01*
X430325Y1249662D01*
X429974Y1249307D01*
X429614Y1248960D01*
X429245Y1248622D01*
X428869Y1248293D01*
X428485Y1247973D01*
X428093Y1247662D01*
X427693Y1247362D01*
X427287Y1247071D01*
X426873Y1246790D01*
X426453Y1246519D01*
X426026Y1246259D01*
X425593Y1246009D01*
X425154Y1245769D01*
X424710Y1245541D01*
X424260Y1245323D01*
X423804Y1245116D01*
X423344Y1244921D01*
X422880Y1244737D01*
X422411Y1244564D01*
X421937Y1244402D01*
X421460Y1244252D01*
X420980Y1244114D01*
X420496Y1243988D01*
X420010Y1243873D01*
X419520Y1243770D01*
X419029Y1243680D01*
X418535Y1243601D01*
X418040Y1243534D01*
X417543Y1243479D01*
X417045Y1243437D01*
X416546Y1243406D01*
X416046Y1243388D01*
X415546Y1243382D01*
X395017Y1243382D01*
X474752Y1217721D02*
X474760Y1218346D01*
X474782Y1218970D01*
X474820Y1219594D01*
X474874Y1220217D01*
X474942Y1220838D01*
X475025Y1221457D01*
X475124Y1222074D01*
X475237Y1222689D01*
X475366Y1223300D01*
X475509Y1223909D01*
X475667Y1224513D01*
X475840Y1225114D01*
X476027Y1225710D01*
X476229Y1226302D01*
X476445Y1226888D01*
X476676Y1227469D01*
X476920Y1228044D01*
X477178Y1228613D01*
X477450Y1229176D01*
X477736Y1229731D01*
X478035Y1230280D01*
X478348Y1230821D01*
X478673Y1231355D01*
X479012Y1231880D01*
X479363Y1232397D01*
X479727Y1232905D01*
X480102Y1233404D01*
X480490Y1233894D01*
X480890Y1234375D01*
X481301Y1234845D01*
X481724Y1235305D01*
X482158Y1235755D01*
X482602Y1236194D01*
X483057Y1236623D01*
X483523Y1237040D01*
X483998Y1237445D01*
X484484Y1237839D01*
X484978Y1238221D01*
X485482Y1238591D01*
X485995Y1238948D01*
X486516Y1239293D01*
X487045Y1239625D01*
X487583Y1239944D01*
X488127Y1240250D01*
X488680Y1240542D01*
X489239Y1240821D01*
X489805Y1241087D01*
X490377Y1241338D01*
X490955Y1241575D01*
X491539Y1241799D01*
X492128Y1242008D01*
X492721Y1242202D01*
X493320Y1242382D01*
X493922Y1242548D01*
X494529Y1242698D01*
X495139Y1242834D01*
X495752Y1242955D01*
X496368Y1243061D01*
X496986Y1243152D01*
X497606Y1243228D01*
X498228Y1243289D01*
X498852Y1243334D01*
X499476Y1243365D01*
X500101Y1243380D01*
X500725Y1243380D01*
X501350Y1243365D01*
X501974Y1243334D01*
X502598Y1243289D01*
X503220Y1243228D01*
X503840Y1243152D01*
X504458Y1243061D01*
X505074Y1242955D01*
X505687Y1242834D01*
X506297Y1242698D01*
X506904Y1242548D01*
X507506Y1242382D01*
X508105Y1242202D01*
X508698Y1242008D01*
X509287Y1241799D01*
X509871Y1241575D01*
X510449Y1241338D01*
X511021Y1241087D01*
X511587Y1240821D01*
X512146Y1240542D01*
X512699Y1240250D01*
X513244Y1239944D01*
X513781Y1239625D01*
X514310Y1239293D01*
X514831Y1238948D01*
X515344Y1238591D01*
X515848Y1238221D01*
X516342Y1237839D01*
X516828Y1237445D01*
X517303Y1237040D01*
X517769Y1236623D01*
X518224Y1236194D01*
X518668Y1235755D01*
X519102Y1235305D01*
X519525Y1234845D01*
X519936Y1234375D01*
X520336Y1233894D01*
X520724Y1233404D01*
X521099Y1232905D01*
X521463Y1232397D01*
X521814Y1231880D01*
X522153Y1231355D01*
X522478Y1230821D01*
X522791Y1230280D01*
X523090Y1229731D01*
X523376Y1229176D01*
X523648Y1228613D01*
X523906Y1228044D01*
X524150Y1227469D01*
X524381Y1226888D01*
X524597Y1226302D01*
X524799Y1225710D01*
X524986Y1225114D01*
X525159Y1224513D01*
X525317Y1223909D01*
X525460Y1223300D01*
X525589Y1222689D01*
X525702Y1222074D01*
X525801Y1221457D01*
X525884Y1220838D01*
X525952Y1220217D01*
X526006Y1219594D01*
X526044Y1218970D01*
X526066Y1218346D01*
X526074Y1217721D01*
X526066Y1217096D01*
X526044Y1216472D01*
X526006Y1215848D01*
X525952Y1215225D01*
X525884Y1214604D01*
X525801Y1213985D01*
X525702Y1213368D01*
X525589Y1212753D01*
X525460Y1212142D01*
X525317Y1211533D01*
X525159Y1210929D01*
X524986Y1210328D01*
X524799Y1209732D01*
X524597Y1209140D01*
X524381Y1208554D01*
X524150Y1207973D01*
X523906Y1207398D01*
X523648Y1206829D01*
X523376Y1206266D01*
X523090Y1205711D01*
X522791Y1205162D01*
X522478Y1204621D01*
X522153Y1204087D01*
X521814Y1203562D01*
X521463Y1203045D01*
X521099Y1202537D01*
X520724Y1202038D01*
X520336Y1201548D01*
X519936Y1201067D01*
X519525Y1200597D01*
X519102Y1200137D01*
X518668Y1199687D01*
X518224Y1199248D01*
X517769Y1198819D01*
X517303Y1198402D01*
X516828Y1197997D01*
X516342Y1197603D01*
X515848Y1197221D01*
X515344Y1196851D01*
X514831Y1196494D01*
X514310Y1196149D01*
X513781Y1195817D01*
X513244Y1195498D01*
X512699Y1195192D01*
X512146Y1194900D01*
X511587Y1194621D01*
X511021Y1194355D01*
X510449Y1194104D01*
X509871Y1193867D01*
X509287Y1193643D01*
X508698Y1193434D01*
X508105Y1193240D01*
X507506Y1193060D01*
X506904Y1192894D01*
X506297Y1192744D01*
X505687Y1192608D01*
X505074Y1192487D01*
X504458Y1192381D01*
X503840Y1192290D01*
X503220Y1192214D01*
X502598Y1192153D01*
X501974Y1192108D01*
X501350Y1192077D01*
X500725Y1192062D01*
X500101Y1192062D01*
X499476Y1192077D01*
X498852Y1192108D01*
X498228Y1192153D01*
X497606Y1192214D01*
X496986Y1192290D01*
X496368Y1192381D01*
X495752Y1192487D01*
X495139Y1192608D01*
X494529Y1192744D01*
X493922Y1192894D01*
X493320Y1193060D01*
X492721Y1193240D01*
X492128Y1193434D01*
X491539Y1193643D01*
X490955Y1193867D01*
X490377Y1194104D01*
X489805Y1194355D01*
X489239Y1194621D01*
X488680Y1194900D01*
X488127Y1195192D01*
X487583Y1195498D01*
X487045Y1195817D01*
X486516Y1196149D01*
X485995Y1196494D01*
X485482Y1196851D01*
X484978Y1197221D01*
X484484Y1197603D01*
X483998Y1197997D01*
X483523Y1198402D01*
X483057Y1198819D01*
X482602Y1199248D01*
X482158Y1199687D01*
X481724Y1200137D01*
X481301Y1200597D01*
X480890Y1201067D01*
X480490Y1201548D01*
X480102Y1202038D01*
X479727Y1202537D01*
X479363Y1203045D01*
X479012Y1203562D01*
X478673Y1204087D01*
X478348Y1204621D01*
X478035Y1205162D01*
X477736Y1205711D01*
X477450Y1206266D01*
X477178Y1206829D01*
X476920Y1207398D01*
X476676Y1207973D01*
X476445Y1208554D01*
X476229Y1209140D01*
X476027Y1209732D01*
X475840Y1210328D01*
X475667Y1210929D01*
X475509Y1211533D01*
X475366Y1212142D01*
X475237Y1212753D01*
X475124Y1213368D01*
X475025Y1213985D01*
X474942Y1214604D01*
X474874Y1215225D01*
X474820Y1215848D01*
X474782Y1216472D01*
X474760Y1217096D01*
X474752Y1217721D01*
X479884Y1263911D02*
X479890Y1264411D01*
X479908Y1264911D01*
X479939Y1265410D01*
X479981Y1265908D01*
X480036Y1266405D01*
X480103Y1266900D01*
X480182Y1267394D01*
X480272Y1267885D01*
X480375Y1268375D01*
X480490Y1268861D01*
X480616Y1269345D01*
X480754Y1269825D01*
X480904Y1270302D01*
X481066Y1270776D01*
X481239Y1271245D01*
X481423Y1271709D01*
X481618Y1272169D01*
X481825Y1272625D01*
X482043Y1273075D01*
X482271Y1273519D01*
X482511Y1273958D01*
X482761Y1274391D01*
X483021Y1274818D01*
X483292Y1275238D01*
X483573Y1275652D01*
X483864Y1276058D01*
X484164Y1276458D01*
X484475Y1276850D01*
X484795Y1277234D01*
X485124Y1277610D01*
X485462Y1277979D01*
X485809Y1278339D01*
X486164Y1278690D01*
X486528Y1279032D01*
X486901Y1279366D01*
X487281Y1279691D01*
X487669Y1280006D01*
X488065Y1280311D01*
X488468Y1280607D01*
X488878Y1280893D01*
X489295Y1281169D01*
X489719Y1281434D01*
X490149Y1281690D01*
X490584Y1281934D01*
X491026Y1282168D01*
X491474Y1282391D01*
X491926Y1282604D01*
X492384Y1282805D01*
X492846Y1282995D01*
X493313Y1283173D01*
X493785Y1283340D01*
X494260Y1283496D01*
X494738Y1283640D01*
X495221Y1283772D01*
X495706Y1283893D01*
X496194Y1284002D01*
X496684Y1284099D01*
X497177Y1284183D01*
X497671Y1284256D01*
X498168Y1284317D01*
X498665Y1284365D01*
X499164Y1284402D01*
X499663Y1284426D01*
X500163Y1284438D01*
X500663Y1284438D01*
X501163Y1284426D01*
X501662Y1284402D01*
X502161Y1284365D01*
X502658Y1284317D01*
X503155Y1284256D01*
X503649Y1284183D01*
X504142Y1284099D01*
X504632Y1284002D01*
X505120Y1283893D01*
X505605Y1283772D01*
X506088Y1283640D01*
X506566Y1283496D01*
X507041Y1283340D01*
X507513Y1283173D01*
X507980Y1282995D01*
X508442Y1282805D01*
X508900Y1282604D01*
X509352Y1282391D01*
X509800Y1282168D01*
X510242Y1281934D01*
X510678Y1281690D01*
X511107Y1281434D01*
X511531Y1281169D01*
X511948Y1280893D01*
X512358Y1280607D01*
X512761Y1280311D01*
X513157Y1280006D01*
X513545Y1279691D01*
X513925Y1279366D01*
X514298Y1279032D01*
X514662Y1278690D01*
X515017Y1278339D01*
X515364Y1277979D01*
X515702Y1277610D01*
X516031Y1277234D01*
X516351Y1276850D01*
X516662Y1276458D01*
X516962Y1276058D01*
X517253Y1275652D01*
X517534Y1275238D01*
X517805Y1274818D01*
X518065Y1274391D01*
X518315Y1273958D01*
X518555Y1273519D01*
X518783Y1273075D01*
X519001Y1272625D01*
X519208Y1272169D01*
X519403Y1271709D01*
X519587Y1271245D01*
X519760Y1270776D01*
X519922Y1270302D01*
X520072Y1269825D01*
X520210Y1269345D01*
X520336Y1268861D01*
X520451Y1268375D01*
X520554Y1267885D01*
X520644Y1267394D01*
X520723Y1266900D01*
X520790Y1266405D01*
X520845Y1265908D01*
X520887Y1265410D01*
X520918Y1264911D01*
X520936Y1264411D01*
X520942Y1263911D01*
X520936Y1263411D01*
X520918Y1262911D01*
X520887Y1262412D01*
X520845Y1261914D01*
X520790Y1261417D01*
X520723Y1260922D01*
X520644Y1260428D01*
X520554Y1259937D01*
X520451Y1259447D01*
X520336Y1258961D01*
X520210Y1258477D01*
X520072Y1257997D01*
X519922Y1257520D01*
X519760Y1257046D01*
X519587Y1256577D01*
X519403Y1256113D01*
X519208Y1255653D01*
X519001Y1255197D01*
X518783Y1254747D01*
X518555Y1254303D01*
X518315Y1253864D01*
X518065Y1253431D01*
X517805Y1253004D01*
X517534Y1252584D01*
X517253Y1252170D01*
X516962Y1251764D01*
X516662Y1251364D01*
X516351Y1250972D01*
X516031Y1250588D01*
X515702Y1250212D01*
X515364Y1249843D01*
X515017Y1249483D01*
X514662Y1249132D01*
X514298Y1248790D01*
X513925Y1248456D01*
X513545Y1248131D01*
X513157Y1247816D01*
X512761Y1247511D01*
X512358Y1247215D01*
X511948Y1246929D01*
X511531Y1246653D01*
X511107Y1246388D01*
X510678Y1246132D01*
X510242Y1245888D01*
X509800Y1245654D01*
X509352Y1245431D01*
X508900Y1245218D01*
X508442Y1245017D01*
X507980Y1244827D01*
X507513Y1244649D01*
X507041Y1244482D01*
X506566Y1244326D01*
X506088Y1244182D01*
X505605Y1244050D01*
X505120Y1243929D01*
X504632Y1243820D01*
X504142Y1243723D01*
X503649Y1243639D01*
X503155Y1243566D01*
X502658Y1243505D01*
X502161Y1243457D01*
X501662Y1243420D01*
X501163Y1243396D01*
X500663Y1243384D01*
X500163Y1243384D01*
X499663Y1243396D01*
X499164Y1243420D01*
X498665Y1243457D01*
X498168Y1243505D01*
X497671Y1243566D01*
X497177Y1243639D01*
X496684Y1243723D01*
X496194Y1243820D01*
X495706Y1243929D01*
X495221Y1244050D01*
X494738Y1244182D01*
X494260Y1244326D01*
X493785Y1244482D01*
X493313Y1244649D01*
X492846Y1244827D01*
X492384Y1245017D01*
X491926Y1245218D01*
X491474Y1245431D01*
X491026Y1245654D01*
X490584Y1245888D01*
X490149Y1246132D01*
X489719Y1246388D01*
X489295Y1246653D01*
X488878Y1246929D01*
X488468Y1247215D01*
X488065Y1247511D01*
X487669Y1247816D01*
X487281Y1248131D01*
X486901Y1248456D01*
X486528Y1248790D01*
X486164Y1249132D01*
X485809Y1249483D01*
X485462Y1249843D01*
X485124Y1250212D01*
X484795Y1250588D01*
X484475Y1250972D01*
X484164Y1251364D01*
X483864Y1251764D01*
X483573Y1252170D01*
X483292Y1252584D01*
X483021Y1253004D01*
X482761Y1253431D01*
X482511Y1253864D01*
X482271Y1254303D01*
X482043Y1254747D01*
X481825Y1255197D01*
X481618Y1255653D01*
X481423Y1256113D01*
X481239Y1256577D01*
X481066Y1257046D01*
X480904Y1257520D01*
X480754Y1257997D01*
X480616Y1258477D01*
X480490Y1258961D01*
X480375Y1259447D01*
X480272Y1259937D01*
X480182Y1260428D01*
X480103Y1260922D01*
X480036Y1261417D01*
X479981Y1261914D01*
X479939Y1262412D01*
X479908Y1262911D01*
X479890Y1263411D01*
X479884Y1263911D01*
X564752Y1243382D02*
X595545Y1243382D01*
X596041Y1243376D01*
X596537Y1243358D01*
X597032Y1243328D01*
X597526Y1243286D01*
X598019Y1243232D01*
X598511Y1243167D01*
X599001Y1243089D01*
X599489Y1243000D01*
X599975Y1242898D01*
X600458Y1242785D01*
X600938Y1242661D01*
X601415Y1242525D01*
X601889Y1242377D01*
X602359Y1242218D01*
X602825Y1242048D01*
X603286Y1241866D01*
X603744Y1241674D01*
X604196Y1241470D01*
X604643Y1241256D01*
X605085Y1241031D01*
X605522Y1240795D01*
X605952Y1240548D01*
X606377Y1240292D01*
X606795Y1240025D01*
X607207Y1239748D01*
X607612Y1239461D01*
X608009Y1239165D01*
X608400Y1238859D01*
X608783Y1238544D01*
X609158Y1238219D01*
X609526Y1237886D01*
X609885Y1237544D01*
X610236Y1237193D01*
X610578Y1236834D01*
X610911Y1236466D01*
X611236Y1236091D01*
X611551Y1235708D01*
X611857Y1235317D01*
X612153Y1234920D01*
X612440Y1234515D01*
X612717Y1234103D01*
X612984Y1233685D01*
X613240Y1233260D01*
X613487Y1232830D01*
X613723Y1232393D01*
X613948Y1231951D01*
X614162Y1231504D01*
X614366Y1231052D01*
X614558Y1230594D01*
X614740Y1230133D01*
X614910Y1229667D01*
X615069Y1229197D01*
X615217Y1228723D01*
X615353Y1228246D01*
X615477Y1227766D01*
X615590Y1227283D01*
X615692Y1226797D01*
X615781Y1226309D01*
X615859Y1225819D01*
X615924Y1225327D01*
X615978Y1224834D01*
X616020Y1224340D01*
X616050Y1223845D01*
X616068Y1223349D01*
X616074Y1222853D01*
X616074Y1217721D01*
X616066Y1217096D01*
X616044Y1216472D01*
X616006Y1215848D01*
X615952Y1215225D01*
X615884Y1214604D01*
X615801Y1213985D01*
X615702Y1213368D01*
X615589Y1212753D01*
X615460Y1212142D01*
X615317Y1211533D01*
X615159Y1210929D01*
X614986Y1210328D01*
X614799Y1209732D01*
X614597Y1209140D01*
X614381Y1208554D01*
X614150Y1207973D01*
X613906Y1207398D01*
X613648Y1206829D01*
X613376Y1206266D01*
X613090Y1205711D01*
X612791Y1205162D01*
X612478Y1204621D01*
X612153Y1204087D01*
X611814Y1203562D01*
X611463Y1203045D01*
X611099Y1202537D01*
X610724Y1202038D01*
X610336Y1201548D01*
X609936Y1201067D01*
X609525Y1200597D01*
X609102Y1200137D01*
X608668Y1199687D01*
X608224Y1199248D01*
X607769Y1198819D01*
X607303Y1198402D01*
X606828Y1197997D01*
X606342Y1197603D01*
X605848Y1197221D01*
X605344Y1196851D01*
X604831Y1196494D01*
X604310Y1196149D01*
X603781Y1195817D01*
X603244Y1195498D01*
X602699Y1195192D01*
X602146Y1194900D01*
X601587Y1194621D01*
X601021Y1194355D01*
X600449Y1194104D01*
X599871Y1193867D01*
X599287Y1193643D01*
X598698Y1193434D01*
X598105Y1193240D01*
X597506Y1193060D01*
X596904Y1192894D01*
X596297Y1192744D01*
X595687Y1192608D01*
X595074Y1192487D01*
X594458Y1192381D01*
X593840Y1192290D01*
X593220Y1192214D01*
X592598Y1192153D01*
X591974Y1192108D01*
X591350Y1192077D01*
X590725Y1192062D01*
X590101Y1192062D01*
X589476Y1192077D01*
X588852Y1192108D01*
X588228Y1192153D01*
X587606Y1192214D01*
X586986Y1192290D01*
X586368Y1192381D01*
X585752Y1192487D01*
X585139Y1192608D01*
X584529Y1192744D01*
X583922Y1192894D01*
X583320Y1193060D01*
X582721Y1193240D01*
X582128Y1193434D01*
X581539Y1193643D01*
X580955Y1193867D01*
X580377Y1194104D01*
X579805Y1194355D01*
X579239Y1194621D01*
X578680Y1194900D01*
X578127Y1195192D01*
X577583Y1195498D01*
X577045Y1195817D01*
X576516Y1196149D01*
X575995Y1196494D01*
X575482Y1196851D01*
X574978Y1197221D01*
X574484Y1197603D01*
X573998Y1197997D01*
X573523Y1198402D01*
X573057Y1198819D01*
X572602Y1199248D01*
X572158Y1199687D01*
X571724Y1200137D01*
X571301Y1200597D01*
X570890Y1201067D01*
X570490Y1201548D01*
X570102Y1202038D01*
X569727Y1202537D01*
X569363Y1203045D01*
X569012Y1203562D01*
X568673Y1204087D01*
X568348Y1204621D01*
X568035Y1205162D01*
X567736Y1205711D01*
X567450Y1206266D01*
X567178Y1206829D01*
X566920Y1207398D01*
X566676Y1207973D01*
X566445Y1208554D01*
X566229Y1209140D01*
X566027Y1209732D01*
X565840Y1210328D01*
X565667Y1210929D01*
X565509Y1211533D01*
X565366Y1212142D01*
X565237Y1212753D01*
X565124Y1213368D01*
X565025Y1213985D01*
X564942Y1214604D01*
X564874Y1215225D01*
X564820Y1215848D01*
X564782Y1216472D01*
X564760Y1217096D01*
X564752Y1217721D01*
X564752Y1243382D01*
X564764Y1244390D01*
X564801Y1245397D01*
X564863Y1246402D01*
X564950Y1247406D01*
X565061Y1248408D01*
X565196Y1249406D01*
X565356Y1250401D01*
X565541Y1251392D01*
X565750Y1252378D01*
X565982Y1253358D01*
X566239Y1254333D01*
X566520Y1255300D01*
X566824Y1256261D01*
X567152Y1257214D01*
X567503Y1258159D01*
X567877Y1259094D01*
X568274Y1260020D01*
X568694Y1260936D01*
X569136Y1261842D01*
X569600Y1262737D01*
X570086Y1263619D01*
X570593Y1264490D01*
X571122Y1265348D01*
X571671Y1266193D01*
X572242Y1267023D01*
X572832Y1267840D01*
X573442Y1268642D01*
X574072Y1269429D01*
X574720Y1270200D01*
X575388Y1270955D01*
X576074Y1271693D01*
X576777Y1272414D01*
X577499Y1273118D01*
X578237Y1273804D01*
X578992Y1274471D01*
X579763Y1275120D01*
X580550Y1275750D01*
X581352Y1276360D01*
X582168Y1276950D01*
X582999Y1277520D01*
X583844Y1278070D01*
X584702Y1278599D01*
X585572Y1279106D01*
X586455Y1279592D01*
X587350Y1280056D01*
X588255Y1280498D01*
X589171Y1280918D01*
X590098Y1281315D01*
X591033Y1281689D01*
X591978Y1282040D01*
X592931Y1282368D01*
X593891Y1282672D01*
X594859Y1282953D01*
X595833Y1283209D01*
X596814Y1283442D01*
X597800Y1283651D01*
X598790Y1283835D01*
X599785Y1283996D01*
X600784Y1284131D01*
X601785Y1284242D01*
X602789Y1284329D01*
X603795Y1284391D01*
X604802Y1284428D01*
X605810Y1284440D01*
X675280Y1233118D02*
X706074Y1233118D01*
X675280Y1233117D02*
X674784Y1233123D01*
X674288Y1233141D01*
X673793Y1233171D01*
X673299Y1233213D01*
X672805Y1233267D01*
X672314Y1233332D01*
X671824Y1233410D01*
X671336Y1233499D01*
X670850Y1233601D01*
X670367Y1233714D01*
X669887Y1233838D01*
X669410Y1233974D01*
X668936Y1234122D01*
X668466Y1234281D01*
X668000Y1234451D01*
X667539Y1234633D01*
X667081Y1234825D01*
X666629Y1235029D01*
X666182Y1235243D01*
X665740Y1235469D01*
X665303Y1235704D01*
X664873Y1235951D01*
X664448Y1236207D01*
X664030Y1236474D01*
X663618Y1236751D01*
X663213Y1237038D01*
X662815Y1237334D01*
X662425Y1237640D01*
X662042Y1237955D01*
X661667Y1238280D01*
X661299Y1238613D01*
X660940Y1238956D01*
X660589Y1239306D01*
X660247Y1239666D01*
X659914Y1240033D01*
X659589Y1240408D01*
X659274Y1240791D01*
X658968Y1241182D01*
X658672Y1241580D01*
X658385Y1241984D01*
X658108Y1242396D01*
X657841Y1242814D01*
X657585Y1243239D01*
X657338Y1243669D01*
X657102Y1244106D01*
X656877Y1244548D01*
X656663Y1244995D01*
X656459Y1245448D01*
X656266Y1245905D01*
X656085Y1246367D01*
X655915Y1246832D01*
X655756Y1247302D01*
X655608Y1247776D01*
X655472Y1248253D01*
X655347Y1248733D01*
X655235Y1249216D01*
X655133Y1249702D01*
X655044Y1250190D01*
X654966Y1250680D01*
X654901Y1251172D01*
X654847Y1251665D01*
X654805Y1252159D01*
X654775Y1252654D01*
X654757Y1253150D01*
X654751Y1253646D01*
X654752Y1253647D02*
X654752Y1258779D01*
X654760Y1259404D01*
X654782Y1260028D01*
X654820Y1260652D01*
X654874Y1261275D01*
X654942Y1261896D01*
X655025Y1262515D01*
X655124Y1263132D01*
X655237Y1263747D01*
X655366Y1264358D01*
X655509Y1264967D01*
X655667Y1265571D01*
X655840Y1266172D01*
X656027Y1266768D01*
X656229Y1267360D01*
X656445Y1267946D01*
X656676Y1268527D01*
X656920Y1269102D01*
X657178Y1269671D01*
X657450Y1270234D01*
X657736Y1270789D01*
X658035Y1271338D01*
X658348Y1271879D01*
X658673Y1272413D01*
X659012Y1272938D01*
X659363Y1273455D01*
X659727Y1273963D01*
X660102Y1274462D01*
X660490Y1274952D01*
X660890Y1275433D01*
X661301Y1275903D01*
X661724Y1276363D01*
X662158Y1276813D01*
X662602Y1277252D01*
X663057Y1277681D01*
X663523Y1278098D01*
X663998Y1278503D01*
X664484Y1278897D01*
X664978Y1279279D01*
X665482Y1279649D01*
X665995Y1280006D01*
X666516Y1280351D01*
X667045Y1280683D01*
X667583Y1281002D01*
X668127Y1281308D01*
X668680Y1281600D01*
X669239Y1281879D01*
X669805Y1282145D01*
X670377Y1282396D01*
X670955Y1282633D01*
X671539Y1282857D01*
X672128Y1283066D01*
X672721Y1283260D01*
X673320Y1283440D01*
X673922Y1283606D01*
X674529Y1283756D01*
X675139Y1283892D01*
X675752Y1284013D01*
X676368Y1284119D01*
X676986Y1284210D01*
X677606Y1284286D01*
X678228Y1284347D01*
X678852Y1284392D01*
X679476Y1284423D01*
X680101Y1284438D01*
X680725Y1284438D01*
X681350Y1284423D01*
X681974Y1284392D01*
X682598Y1284347D01*
X683220Y1284286D01*
X683840Y1284210D01*
X684458Y1284119D01*
X685074Y1284013D01*
X685687Y1283892D01*
X686297Y1283756D01*
X686904Y1283606D01*
X687506Y1283440D01*
X688105Y1283260D01*
X688698Y1283066D01*
X689287Y1282857D01*
X689871Y1282633D01*
X690449Y1282396D01*
X691021Y1282145D01*
X691587Y1281879D01*
X692146Y1281600D01*
X692699Y1281308D01*
X693244Y1281002D01*
X693781Y1280683D01*
X694310Y1280351D01*
X694831Y1280006D01*
X695344Y1279649D01*
X695848Y1279279D01*
X696342Y1278897D01*
X696828Y1278503D01*
X697303Y1278098D01*
X697769Y1277681D01*
X698224Y1277252D01*
X698668Y1276813D01*
X699102Y1276363D01*
X699525Y1275903D01*
X699936Y1275433D01*
X700336Y1274952D01*
X700724Y1274462D01*
X701099Y1273963D01*
X701463Y1273455D01*
X701814Y1272938D01*
X702153Y1272413D01*
X702478Y1271879D01*
X702791Y1271338D01*
X703090Y1270789D01*
X703376Y1270234D01*
X703648Y1269671D01*
X703906Y1269102D01*
X704150Y1268527D01*
X704381Y1267946D01*
X704597Y1267360D01*
X704799Y1266768D01*
X704986Y1266172D01*
X705159Y1265571D01*
X705317Y1264967D01*
X705460Y1264358D01*
X705589Y1263747D01*
X705702Y1263132D01*
X705801Y1262515D01*
X705884Y1261896D01*
X705952Y1261275D01*
X706006Y1260652D01*
X706044Y1260028D01*
X706066Y1259404D01*
X706074Y1258779D01*
X706074Y1233118D01*
X706062Y1232126D01*
X706026Y1231134D01*
X705966Y1230144D01*
X705882Y1229155D01*
X705775Y1228169D01*
X705643Y1227186D01*
X705488Y1226206D01*
X705309Y1225230D01*
X705107Y1224258D01*
X704881Y1223292D01*
X704632Y1222332D01*
X704360Y1221378D01*
X704064Y1220430D01*
X703746Y1219491D01*
X703406Y1218559D01*
X703043Y1217635D01*
X702658Y1216721D01*
X702250Y1215816D01*
X701821Y1214921D01*
X701371Y1214037D01*
X700899Y1213164D01*
X700407Y1212303D01*
X699893Y1211454D01*
X699360Y1210618D01*
X698806Y1209794D01*
X698233Y1208985D01*
X697640Y1208189D01*
X697028Y1207408D01*
X696397Y1206642D01*
X695748Y1205892D01*
X695081Y1205157D01*
X694397Y1204439D01*
X693695Y1203737D01*
X692977Y1203053D01*
X692242Y1202386D01*
X691492Y1201737D01*
X690726Y1201106D01*
X689945Y1200494D01*
X689149Y1199901D01*
X688340Y1199328D01*
X687516Y1198774D01*
X686680Y1198241D01*
X685831Y1197727D01*
X684970Y1197235D01*
X684097Y1196763D01*
X683213Y1196313D01*
X682318Y1195884D01*
X681413Y1195476D01*
X680499Y1195091D01*
X679575Y1194728D01*
X678643Y1194388D01*
X677704Y1194070D01*
X676756Y1193774D01*
X675802Y1193502D01*
X674842Y1193253D01*
X673876Y1193027D01*
X672904Y1192825D01*
X671928Y1192646D01*
X670948Y1192491D01*
X669965Y1192359D01*
X668979Y1192252D01*
X667990Y1192168D01*
X667000Y1192108D01*
X666008Y1192072D01*
X665016Y1192060D01*
X744751Y1192060D02*
X770412Y1192060D01*
X771037Y1192068D01*
X771661Y1192090D01*
X772285Y1192128D01*
X772908Y1192182D01*
X773529Y1192250D01*
X774148Y1192333D01*
X774765Y1192432D01*
X775380Y1192545D01*
X775991Y1192674D01*
X776600Y1192817D01*
X777204Y1192975D01*
X777805Y1193148D01*
X778401Y1193335D01*
X778993Y1193537D01*
X779579Y1193753D01*
X780160Y1193984D01*
X780735Y1194228D01*
X781304Y1194486D01*
X781867Y1194758D01*
X782422Y1195044D01*
X782971Y1195343D01*
X783512Y1195656D01*
X784046Y1195981D01*
X784571Y1196320D01*
X785088Y1196671D01*
X785596Y1197035D01*
X786095Y1197410D01*
X786585Y1197798D01*
X787066Y1198198D01*
X787536Y1198609D01*
X787996Y1199032D01*
X788446Y1199466D01*
X788885Y1199910D01*
X789314Y1200365D01*
X789731Y1200831D01*
X790136Y1201306D01*
X790530Y1201792D01*
X790912Y1202286D01*
X791282Y1202790D01*
X791639Y1203303D01*
X791984Y1203824D01*
X792316Y1204353D01*
X792635Y1204891D01*
X792941Y1205435D01*
X793233Y1205988D01*
X793512Y1206547D01*
X793778Y1207113D01*
X794029Y1207685D01*
X794266Y1208263D01*
X794490Y1208847D01*
X794699Y1209436D01*
X794893Y1210029D01*
X795073Y1210628D01*
X795239Y1211230D01*
X795389Y1211837D01*
X795525Y1212447D01*
X795646Y1213060D01*
X795752Y1213676D01*
X795843Y1214294D01*
X795919Y1214914D01*
X795980Y1215536D01*
X796025Y1216160D01*
X796056Y1216784D01*
X796071Y1217409D01*
X796071Y1218033D01*
X796056Y1218658D01*
X796025Y1219282D01*
X795980Y1219906D01*
X795919Y1220528D01*
X795843Y1221148D01*
X795752Y1221766D01*
X795646Y1222382D01*
X795525Y1222995D01*
X795389Y1223605D01*
X795239Y1224212D01*
X795073Y1224814D01*
X794893Y1225413D01*
X794699Y1226006D01*
X794490Y1226595D01*
X794266Y1227179D01*
X794029Y1227757D01*
X793778Y1228329D01*
X793512Y1228895D01*
X793233Y1229454D01*
X792941Y1230007D01*
X792635Y1230552D01*
X792316Y1231089D01*
X791984Y1231618D01*
X791639Y1232139D01*
X791282Y1232652D01*
X790912Y1233156D01*
X790530Y1233650D01*
X790136Y1234136D01*
X789731Y1234611D01*
X789314Y1235077D01*
X788885Y1235532D01*
X788446Y1235976D01*
X787996Y1236410D01*
X787536Y1236833D01*
X787066Y1237244D01*
X786585Y1237644D01*
X786095Y1238032D01*
X785596Y1238407D01*
X785088Y1238771D01*
X784571Y1239122D01*
X784046Y1239461D01*
X783512Y1239786D01*
X782971Y1240099D01*
X782422Y1240398D01*
X781867Y1240684D01*
X781304Y1240956D01*
X780735Y1241214D01*
X780160Y1241458D01*
X779579Y1241689D01*
X778993Y1241905D01*
X778401Y1242107D01*
X777805Y1242294D01*
X777204Y1242467D01*
X776600Y1242625D01*
X775991Y1242768D01*
X775380Y1242897D01*
X774765Y1243010D01*
X774148Y1243109D01*
X773529Y1243192D01*
X772908Y1243260D01*
X772285Y1243314D01*
X771661Y1243352D01*
X771037Y1243374D01*
X770412Y1243382D01*
X775544Y1284440D02*
X744751Y1284440D01*
X775544Y1284440D02*
X776044Y1284434D01*
X776544Y1284416D01*
X777043Y1284385D01*
X777541Y1284343D01*
X778038Y1284288D01*
X778533Y1284221D01*
X779027Y1284142D01*
X779518Y1284052D01*
X780008Y1283949D01*
X780494Y1283834D01*
X780978Y1283708D01*
X781458Y1283570D01*
X781935Y1283420D01*
X782409Y1283258D01*
X782878Y1283085D01*
X783342Y1282901D01*
X783802Y1282706D01*
X784258Y1282499D01*
X784708Y1282281D01*
X785152Y1282053D01*
X785591Y1281813D01*
X786024Y1281563D01*
X786451Y1281303D01*
X786871Y1281032D01*
X787285Y1280751D01*
X787691Y1280460D01*
X788091Y1280160D01*
X788483Y1279849D01*
X788867Y1279529D01*
X789243Y1279200D01*
X789612Y1278862D01*
X789972Y1278515D01*
X790323Y1278160D01*
X790665Y1277796D01*
X790999Y1277423D01*
X791324Y1277043D01*
X791639Y1276655D01*
X791944Y1276259D01*
X792240Y1275856D01*
X792526Y1275446D01*
X792802Y1275029D01*
X793067Y1274605D01*
X793323Y1274176D01*
X793567Y1273740D01*
X793801Y1273298D01*
X794024Y1272850D01*
X794237Y1272398D01*
X794438Y1271940D01*
X794628Y1271478D01*
X794806Y1271011D01*
X794973Y1270539D01*
X795129Y1270064D01*
X795273Y1269586D01*
X795405Y1269103D01*
X795526Y1268618D01*
X795635Y1268130D01*
X795732Y1267640D01*
X795816Y1267147D01*
X795889Y1266653D01*
X795950Y1266156D01*
X795998Y1265659D01*
X796035Y1265160D01*
X796059Y1264661D01*
X796071Y1264161D01*
X796071Y1263661D01*
X796059Y1263161D01*
X796035Y1262662D01*
X795998Y1262163D01*
X795950Y1261666D01*
X795889Y1261169D01*
X795816Y1260675D01*
X795732Y1260182D01*
X795635Y1259692D01*
X795526Y1259204D01*
X795405Y1258719D01*
X795273Y1258236D01*
X795129Y1257758D01*
X794973Y1257283D01*
X794806Y1256811D01*
X794628Y1256344D01*
X794438Y1255882D01*
X794237Y1255424D01*
X794024Y1254972D01*
X793801Y1254524D01*
X793567Y1254082D01*
X793323Y1253647D01*
X793067Y1253217D01*
X792802Y1252793D01*
X792526Y1252376D01*
X792240Y1251966D01*
X791944Y1251563D01*
X791639Y1251167D01*
X791324Y1250779D01*
X790999Y1250399D01*
X790665Y1250026D01*
X790323Y1249662D01*
X789972Y1249307D01*
X789612Y1248960D01*
X789243Y1248622D01*
X788867Y1248293D01*
X788483Y1247973D01*
X788091Y1247662D01*
X787691Y1247362D01*
X787285Y1247071D01*
X786871Y1246790D01*
X786451Y1246519D01*
X786024Y1246259D01*
X785591Y1246009D01*
X785152Y1245769D01*
X784708Y1245541D01*
X784258Y1245323D01*
X783802Y1245116D01*
X783342Y1244921D01*
X782878Y1244737D01*
X782409Y1244564D01*
X781935Y1244402D01*
X781458Y1244252D01*
X780978Y1244114D01*
X780494Y1243988D01*
X780008Y1243873D01*
X779518Y1243770D01*
X779027Y1243680D01*
X778533Y1243601D01*
X778038Y1243534D01*
X777541Y1243479D01*
X777043Y1243437D01*
X776544Y1243406D01*
X776044Y1243388D01*
X775544Y1243382D01*
X755016Y1243382D01*
X300190Y479103D02*
X207810Y448310D01*
X207810Y509897D02*
X300190Y479103D01*
X300190Y542103D02*
X238603Y542103D01*
X212943Y539537D02*
X207810Y539537D01*
X207810Y544669D01*
X212943Y544669D01*
X212943Y539537D01*
X238603Y581574D02*
X300190Y581574D01*
X238603Y581574D02*
X238603Y607235D01*
X238604Y607235D02*
X238608Y607607D01*
X238622Y607979D01*
X238644Y608350D01*
X238676Y608721D01*
X238716Y609091D01*
X238766Y609460D01*
X238824Y609827D01*
X238891Y610193D01*
X238967Y610557D01*
X239051Y610920D01*
X239145Y611280D01*
X239247Y611637D01*
X239358Y611993D01*
X239477Y612345D01*
X239605Y612695D01*
X239741Y613041D01*
X239885Y613384D01*
X240038Y613723D01*
X240199Y614058D01*
X240368Y614390D01*
X240544Y614717D01*
X240729Y615040D01*
X240922Y615359D01*
X241122Y615672D01*
X241329Y615981D01*
X241544Y616285D01*
X241767Y616583D01*
X241996Y616876D01*
X242233Y617163D01*
X242476Y617445D01*
X242726Y617720D01*
X242983Y617989D01*
X243246Y618252D01*
X243515Y618509D01*
X243791Y618759D01*
X244072Y619003D01*
X244359Y619239D01*
X244652Y619468D01*
X244951Y619691D01*
X245254Y619906D01*
X245563Y620113D01*
X245877Y620314D01*
X246195Y620506D01*
X246518Y620691D01*
X246845Y620868D01*
X247177Y621036D01*
X247512Y621197D01*
X247852Y621350D01*
X248194Y621494D01*
X248541Y621631D01*
X248890Y621758D01*
X249243Y621878D01*
X249598Y621988D01*
X249956Y622090D01*
X250316Y622184D01*
X250678Y622268D01*
X251042Y622344D01*
X251408Y622411D01*
X251776Y622469D01*
X252145Y622519D01*
X252514Y622559D01*
X252885Y622591D01*
X253256Y622613D01*
X253628Y622627D01*
X254000Y622631D01*
X254000Y622632D02*
X300190Y622632D01*
X715810Y448310D02*
X808190Y479103D01*
X715810Y509897D01*
X767133Y542574D02*
X787661Y542574D01*
X767133Y542574D02*
X766633Y542580D01*
X766133Y542598D01*
X765634Y542629D01*
X765136Y542671D01*
X764639Y542726D01*
X764144Y542793D01*
X763650Y542872D01*
X763159Y542962D01*
X762669Y543065D01*
X762183Y543180D01*
X761699Y543306D01*
X761219Y543444D01*
X760742Y543594D01*
X760268Y543756D01*
X759799Y543929D01*
X759335Y544113D01*
X758875Y544308D01*
X758419Y544515D01*
X757969Y544733D01*
X757525Y544961D01*
X757086Y545201D01*
X756653Y545451D01*
X756226Y545711D01*
X755806Y545982D01*
X755392Y546263D01*
X754986Y546554D01*
X754586Y546854D01*
X754194Y547165D01*
X753810Y547485D01*
X753434Y547814D01*
X753065Y548152D01*
X752705Y548499D01*
X752354Y548854D01*
X752012Y549218D01*
X751678Y549591D01*
X751353Y549971D01*
X751038Y550359D01*
X750733Y550755D01*
X750437Y551158D01*
X750151Y551568D01*
X749875Y551985D01*
X749610Y552409D01*
X749354Y552838D01*
X749110Y553274D01*
X748876Y553716D01*
X748653Y554164D01*
X748440Y554616D01*
X748239Y555074D01*
X748049Y555536D01*
X747871Y556003D01*
X747704Y556475D01*
X747548Y556950D01*
X747404Y557428D01*
X747272Y557911D01*
X747151Y558396D01*
X747042Y558884D01*
X746945Y559374D01*
X746861Y559867D01*
X746788Y560361D01*
X746727Y560858D01*
X746679Y561355D01*
X746642Y561854D01*
X746618Y562353D01*
X746606Y562853D01*
X746606Y563353D01*
X746618Y563853D01*
X746642Y564352D01*
X746679Y564851D01*
X746727Y565348D01*
X746788Y565845D01*
X746861Y566339D01*
X746945Y566832D01*
X747042Y567322D01*
X747151Y567810D01*
X747272Y568295D01*
X747404Y568778D01*
X747548Y569256D01*
X747704Y569731D01*
X747871Y570203D01*
X748049Y570670D01*
X748239Y571132D01*
X748440Y571590D01*
X748653Y572042D01*
X748876Y572490D01*
X749110Y572932D01*
X749354Y573368D01*
X749610Y573797D01*
X749875Y574221D01*
X750151Y574638D01*
X750437Y575048D01*
X750733Y575451D01*
X751038Y575847D01*
X751353Y576235D01*
X751678Y576615D01*
X752012Y576988D01*
X752354Y577352D01*
X752705Y577707D01*
X753065Y578054D01*
X753434Y578392D01*
X753810Y578721D01*
X754194Y579041D01*
X754586Y579352D01*
X754986Y579652D01*
X755392Y579943D01*
X755806Y580224D01*
X756226Y580495D01*
X756653Y580755D01*
X757086Y581005D01*
X757525Y581245D01*
X757969Y581473D01*
X758419Y581691D01*
X758875Y581898D01*
X759335Y582093D01*
X759799Y582277D01*
X760268Y582450D01*
X760742Y582612D01*
X761219Y582762D01*
X761699Y582900D01*
X762183Y583026D01*
X762669Y583141D01*
X763159Y583244D01*
X763650Y583334D01*
X764144Y583413D01*
X764639Y583480D01*
X765136Y583535D01*
X765634Y583577D01*
X766133Y583608D01*
X766633Y583626D01*
X767133Y583632D01*
X787661Y583632D01*
X788161Y583626D01*
X788661Y583608D01*
X789160Y583577D01*
X789658Y583535D01*
X790155Y583480D01*
X790650Y583413D01*
X791144Y583334D01*
X791635Y583244D01*
X792125Y583141D01*
X792611Y583026D01*
X793095Y582900D01*
X793575Y582762D01*
X794052Y582612D01*
X794526Y582450D01*
X794995Y582277D01*
X795459Y582093D01*
X795919Y581898D01*
X796375Y581691D01*
X796825Y581473D01*
X797269Y581245D01*
X797708Y581005D01*
X798141Y580755D01*
X798568Y580495D01*
X798988Y580224D01*
X799402Y579943D01*
X799808Y579652D01*
X800208Y579352D01*
X800600Y579041D01*
X800984Y578721D01*
X801360Y578392D01*
X801729Y578054D01*
X802089Y577707D01*
X802440Y577352D01*
X802782Y576988D01*
X803116Y576615D01*
X803441Y576235D01*
X803756Y575847D01*
X804061Y575451D01*
X804357Y575048D01*
X804643Y574638D01*
X804919Y574221D01*
X805184Y573797D01*
X805440Y573368D01*
X805684Y572932D01*
X805918Y572490D01*
X806141Y572042D01*
X806354Y571590D01*
X806555Y571132D01*
X806745Y570670D01*
X806923Y570203D01*
X807090Y569731D01*
X807246Y569256D01*
X807390Y568778D01*
X807522Y568295D01*
X807643Y567810D01*
X807752Y567322D01*
X807849Y566832D01*
X807933Y566339D01*
X808006Y565845D01*
X808067Y565348D01*
X808115Y564851D01*
X808152Y564352D01*
X808176Y563853D01*
X808188Y563353D01*
X808188Y562853D01*
X808176Y562353D01*
X808152Y561854D01*
X808115Y561355D01*
X808067Y560858D01*
X808006Y560361D01*
X807933Y559867D01*
X807849Y559374D01*
X807752Y558884D01*
X807643Y558396D01*
X807522Y557911D01*
X807390Y557428D01*
X807246Y556950D01*
X807090Y556475D01*
X806923Y556003D01*
X806745Y555536D01*
X806555Y555074D01*
X806354Y554616D01*
X806141Y554164D01*
X805918Y553716D01*
X805684Y553274D01*
X805440Y552839D01*
X805184Y552409D01*
X804919Y551985D01*
X804643Y551568D01*
X804357Y551158D01*
X804061Y550755D01*
X803756Y550359D01*
X803441Y549971D01*
X803116Y549591D01*
X802782Y549218D01*
X802440Y548854D01*
X802089Y548499D01*
X801729Y548152D01*
X801360Y547814D01*
X800984Y547485D01*
X800600Y547165D01*
X800208Y546854D01*
X799808Y546554D01*
X799402Y546263D01*
X798988Y545982D01*
X798568Y545711D01*
X798141Y545451D01*
X797708Y545201D01*
X797269Y544961D01*
X796825Y544733D01*
X796375Y544515D01*
X795919Y544308D01*
X795459Y544113D01*
X794995Y543929D01*
X794526Y543756D01*
X794052Y543594D01*
X793575Y543444D01*
X793095Y543306D01*
X792611Y543180D01*
X792125Y543065D01*
X791635Y542962D01*
X791144Y542872D01*
X790650Y542793D01*
X790155Y542726D01*
X789658Y542671D01*
X789160Y542629D01*
X788661Y542598D01*
X788161Y542580D01*
X787661Y542574D01*
X792793Y623574D02*
X746603Y623574D01*
X792793Y623575D02*
X793165Y623579D01*
X793537Y623593D01*
X793908Y623615D01*
X794279Y623647D01*
X794649Y623687D01*
X795018Y623737D01*
X795385Y623795D01*
X795751Y623862D01*
X796115Y623938D01*
X796478Y624022D01*
X796838Y624116D01*
X797195Y624218D01*
X797551Y624329D01*
X797903Y624448D01*
X798253Y624576D01*
X798599Y624712D01*
X798942Y624856D01*
X799281Y625009D01*
X799616Y625170D01*
X799948Y625339D01*
X800275Y625515D01*
X800598Y625700D01*
X800917Y625893D01*
X801230Y626093D01*
X801539Y626300D01*
X801843Y626515D01*
X802141Y626738D01*
X802434Y626967D01*
X802721Y627204D01*
X803003Y627447D01*
X803278Y627697D01*
X803547Y627954D01*
X803810Y628217D01*
X804067Y628486D01*
X804317Y628762D01*
X804561Y629043D01*
X804797Y629330D01*
X805026Y629623D01*
X805249Y629922D01*
X805464Y630225D01*
X805671Y630534D01*
X805872Y630848D01*
X806064Y631166D01*
X806249Y631489D01*
X806426Y631816D01*
X806594Y632148D01*
X806755Y632483D01*
X806908Y632823D01*
X807052Y633165D01*
X807189Y633512D01*
X807316Y633861D01*
X807436Y634214D01*
X807546Y634569D01*
X807648Y634927D01*
X807742Y635287D01*
X807826Y635649D01*
X807902Y636013D01*
X807969Y636379D01*
X808027Y636747D01*
X808077Y637116D01*
X808117Y637485D01*
X808149Y637856D01*
X808171Y638227D01*
X808185Y638599D01*
X808189Y638971D01*
X808190Y638971D02*
X808190Y664632D01*
X746603Y664632D01*
X746603Y696996D02*
X746603Y727789D01*
X715810Y707261D02*
X792793Y707261D01*
X793165Y707265D01*
X793537Y707279D01*
X793908Y707301D01*
X794279Y707333D01*
X794649Y707373D01*
X795018Y707423D01*
X795385Y707481D01*
X795751Y707548D01*
X796115Y707624D01*
X796478Y707708D01*
X796838Y707802D01*
X797195Y707904D01*
X797551Y708015D01*
X797903Y708134D01*
X798253Y708262D01*
X798599Y708398D01*
X798942Y708542D01*
X799281Y708695D01*
X799616Y708856D01*
X799948Y709025D01*
X800275Y709201D01*
X800598Y709386D01*
X800917Y709579D01*
X801230Y709779D01*
X801539Y709986D01*
X801843Y710201D01*
X802141Y710424D01*
X802434Y710653D01*
X802721Y710890D01*
X803003Y711133D01*
X803278Y711383D01*
X803547Y711640D01*
X803810Y711903D01*
X804067Y712172D01*
X804317Y712448D01*
X804561Y712729D01*
X804797Y713016D01*
X805026Y713309D01*
X805249Y713608D01*
X805464Y713911D01*
X805671Y714220D01*
X805872Y714534D01*
X806064Y714852D01*
X806249Y715175D01*
X806426Y715502D01*
X806594Y715834D01*
X806755Y716169D01*
X806908Y716509D01*
X807052Y716851D01*
X807189Y717198D01*
X807316Y717547D01*
X807436Y717900D01*
X807546Y718255D01*
X807648Y718613D01*
X807742Y718973D01*
X807826Y719335D01*
X807902Y719699D01*
X807969Y720065D01*
X808027Y720433D01*
X808077Y720802D01*
X808117Y721171D01*
X808149Y721542D01*
X808171Y721913D01*
X808185Y722285D01*
X808189Y722657D01*
X808190Y722657D02*
X808190Y727789D01*
X502868Y499632D02*
X502868Y484235D01*
X502868Y499632D02*
X554190Y499632D01*
X554190Y468839D01*
X554184Y468343D01*
X554166Y467847D01*
X554136Y467352D01*
X554094Y466858D01*
X554040Y466365D01*
X553975Y465873D01*
X553897Y465383D01*
X553808Y464895D01*
X553706Y464409D01*
X553593Y463926D01*
X553469Y463446D01*
X553333Y462969D01*
X553185Y462495D01*
X553026Y462025D01*
X552856Y461559D01*
X552674Y461098D01*
X552482Y460640D01*
X552278Y460188D01*
X552064Y459741D01*
X551839Y459299D01*
X551603Y458862D01*
X551356Y458432D01*
X551100Y458007D01*
X550833Y457589D01*
X550556Y457177D01*
X550269Y456772D01*
X549973Y456375D01*
X549667Y455984D01*
X549352Y455601D01*
X549027Y455226D01*
X548694Y454858D01*
X548352Y454499D01*
X548001Y454148D01*
X547642Y453806D01*
X547274Y453473D01*
X546899Y453148D01*
X546516Y452833D01*
X546125Y452527D01*
X545728Y452231D01*
X545323Y451944D01*
X544911Y451667D01*
X544493Y451400D01*
X544068Y451144D01*
X543638Y450897D01*
X543201Y450661D01*
X542759Y450436D01*
X542312Y450222D01*
X541860Y450018D01*
X541402Y449826D01*
X540941Y449644D01*
X540475Y449474D01*
X540005Y449315D01*
X539531Y449167D01*
X539054Y449031D01*
X538574Y448907D01*
X538091Y448794D01*
X537605Y448692D01*
X537117Y448603D01*
X536627Y448525D01*
X536135Y448460D01*
X535642Y448406D01*
X535148Y448364D01*
X534653Y448334D01*
X534157Y448316D01*
X533661Y448310D01*
X482339Y448310D01*
X481835Y448316D01*
X481332Y448335D01*
X480829Y448366D01*
X480327Y448409D01*
X479826Y448464D01*
X479327Y448532D01*
X478829Y448612D01*
X478334Y448704D01*
X477841Y448809D01*
X477351Y448925D01*
X476864Y449054D01*
X476380Y449194D01*
X475900Y449346D01*
X475423Y449510D01*
X474951Y449686D01*
X474483Y449873D01*
X474020Y450071D01*
X473562Y450281D01*
X473109Y450502D01*
X472662Y450734D01*
X472220Y450977D01*
X471785Y451231D01*
X471356Y451495D01*
X470934Y451770D01*
X470518Y452055D01*
X470110Y452350D01*
X469709Y452655D01*
X469316Y452970D01*
X468930Y453294D01*
X468553Y453628D01*
X468184Y453971D01*
X467823Y454323D01*
X467471Y454683D01*
X467128Y455052D01*
X466794Y455430D01*
X466470Y455815D01*
X466155Y456209D01*
X465850Y456610D01*
X465555Y457018D01*
X465270Y457433D01*
X464995Y457856D01*
X464731Y458285D01*
X464477Y458720D01*
X464234Y459161D01*
X464002Y459609D01*
X463781Y460061D01*
X463571Y460519D01*
X463373Y460982D01*
X463186Y461450D01*
X463010Y461923D01*
X462846Y462399D01*
X462694Y462879D01*
X462554Y463363D01*
X462425Y463850D01*
X462309Y464341D01*
X462205Y464833D01*
X462112Y465329D01*
X462032Y465826D01*
X461964Y466325D01*
X461909Y466826D01*
X461866Y467328D01*
X461835Y467831D01*
X461816Y468335D01*
X461810Y468838D01*
X461810Y468839D02*
X461810Y499632D01*
X461810Y544310D02*
X554190Y544310D01*
X554190Y595632D02*
X461810Y544310D01*
X461810Y595632D02*
X554190Y595632D01*
X554190Y640309D02*
X461810Y640309D01*
X461810Y665970D01*
X461817Y666590D01*
X461840Y667210D01*
X461877Y667829D01*
X461930Y668447D01*
X461997Y669063D01*
X462079Y669678D01*
X462176Y670290D01*
X462288Y670900D01*
X462415Y671507D01*
X462556Y672111D01*
X462711Y672711D01*
X462881Y673308D01*
X463066Y673900D01*
X463265Y674487D01*
X463478Y675070D01*
X463704Y675647D01*
X463945Y676218D01*
X464200Y676784D01*
X464468Y677343D01*
X464749Y677895D01*
X465044Y678441D01*
X465352Y678979D01*
X465673Y679510D01*
X466006Y680033D01*
X466352Y680547D01*
X466711Y681053D01*
X467081Y681550D01*
X467464Y682039D01*
X467858Y682517D01*
X468263Y682986D01*
X468680Y683446D01*
X469108Y683895D01*
X469546Y684333D01*
X469995Y684761D01*
X470455Y685178D01*
X470924Y685583D01*
X471402Y685977D01*
X471891Y686360D01*
X472388Y686730D01*
X472894Y687089D01*
X473408Y687435D01*
X473931Y687768D01*
X474462Y688089D01*
X475000Y688397D01*
X475546Y688692D01*
X476098Y688973D01*
X476657Y689241D01*
X477223Y689496D01*
X477794Y689737D01*
X478371Y689963D01*
X478954Y690176D01*
X479541Y690375D01*
X480133Y690560D01*
X480730Y690730D01*
X481330Y690885D01*
X481934Y691026D01*
X482541Y691153D01*
X483151Y691265D01*
X483763Y691362D01*
X484378Y691444D01*
X484994Y691511D01*
X485612Y691564D01*
X486231Y691601D01*
X486851Y691624D01*
X487471Y691631D01*
X487471Y691632D02*
X528529Y691632D01*
X529149Y691625D01*
X529769Y691602D01*
X530388Y691565D01*
X531006Y691512D01*
X531622Y691445D01*
X532237Y691363D01*
X532849Y691266D01*
X533459Y691154D01*
X534066Y691027D01*
X534670Y690886D01*
X535270Y690731D01*
X535867Y690561D01*
X536459Y690376D01*
X537046Y690177D01*
X537629Y689964D01*
X538206Y689738D01*
X538777Y689497D01*
X539343Y689242D01*
X539902Y688974D01*
X540454Y688693D01*
X541000Y688398D01*
X541538Y688090D01*
X542069Y687769D01*
X542592Y687436D01*
X543106Y687090D01*
X543612Y686731D01*
X544110Y686361D01*
X544598Y685978D01*
X545076Y685584D01*
X545545Y685178D01*
X546005Y684762D01*
X546454Y684334D01*
X546892Y683895D01*
X547320Y683446D01*
X547737Y682987D01*
X548142Y682518D01*
X548536Y682039D01*
X548919Y681551D01*
X549289Y681054D01*
X549648Y680548D01*
X549994Y680033D01*
X550327Y679511D01*
X550648Y678980D01*
X550956Y678442D01*
X551251Y677896D01*
X551532Y677344D01*
X551800Y676784D01*
X552055Y676219D01*
X552296Y675647D01*
X552523Y675070D01*
X552735Y674488D01*
X552934Y673900D01*
X553119Y673308D01*
X553289Y672712D01*
X553444Y672112D01*
X553586Y671508D01*
X553712Y670901D01*
X553824Y670291D01*
X553921Y669678D01*
X554003Y669064D01*
X554070Y668447D01*
X554123Y667829D01*
X554160Y667210D01*
X554183Y666591D01*
X554190Y665971D01*
X554190Y665970D02*
X554190Y640309D01*
D12*
X298000Y789000D02*
X298003Y789245D01*
X298012Y789491D01*
X298027Y789736D01*
X298048Y789980D01*
X298075Y790224D01*
X298108Y790467D01*
X298147Y790710D01*
X298192Y790951D01*
X298243Y791191D01*
X298300Y791430D01*
X298362Y791667D01*
X298431Y791903D01*
X298505Y792137D01*
X298585Y792369D01*
X298670Y792599D01*
X298761Y792827D01*
X298858Y793052D01*
X298960Y793276D01*
X299068Y793496D01*
X299181Y793714D01*
X299299Y793929D01*
X299423Y794141D01*
X299551Y794350D01*
X299685Y794556D01*
X299824Y794758D01*
X299968Y794957D01*
X300117Y795152D01*
X300270Y795344D01*
X300428Y795532D01*
X300590Y795716D01*
X300758Y795895D01*
X300929Y796071D01*
X301105Y796242D01*
X301284Y796410D01*
X301468Y796572D01*
X301656Y796730D01*
X301848Y796883D01*
X302043Y797032D01*
X302242Y797176D01*
X302444Y797315D01*
X302650Y797449D01*
X302859Y797577D01*
X303071Y797701D01*
X303286Y797819D01*
X303504Y797932D01*
X303724Y798040D01*
X303948Y798142D01*
X304173Y798239D01*
X304401Y798330D01*
X304631Y798415D01*
X304863Y798495D01*
X305097Y798569D01*
X305333Y798638D01*
X305570Y798700D01*
X305809Y798757D01*
X306049Y798808D01*
X306290Y798853D01*
X306533Y798892D01*
X306776Y798925D01*
X307020Y798952D01*
X307264Y798973D01*
X307509Y798988D01*
X307755Y798997D01*
X308000Y799000D01*
X308245Y798997D01*
X308491Y798988D01*
X308736Y798973D01*
X308980Y798952D01*
X309224Y798925D01*
X309467Y798892D01*
X309710Y798853D01*
X309951Y798808D01*
X310191Y798757D01*
X310430Y798700D01*
X310667Y798638D01*
X310903Y798569D01*
X311137Y798495D01*
X311369Y798415D01*
X311599Y798330D01*
X311827Y798239D01*
X312052Y798142D01*
X312276Y798040D01*
X312496Y797932D01*
X312714Y797819D01*
X312929Y797701D01*
X313141Y797577D01*
X313350Y797449D01*
X313556Y797315D01*
X313758Y797176D01*
X313957Y797032D01*
X314152Y796883D01*
X314344Y796730D01*
X314532Y796572D01*
X314716Y796410D01*
X314895Y796242D01*
X315071Y796071D01*
X315242Y795895D01*
X315410Y795716D01*
X315572Y795532D01*
X315730Y795344D01*
X315883Y795152D01*
X316032Y794957D01*
X316176Y794758D01*
X316315Y794556D01*
X316449Y794350D01*
X316577Y794141D01*
X316701Y793929D01*
X316819Y793714D01*
X316932Y793496D01*
X317040Y793276D01*
X317142Y793052D01*
X317239Y792827D01*
X317330Y792599D01*
X317415Y792369D01*
X317495Y792137D01*
X317569Y791903D01*
X317638Y791667D01*
X317700Y791430D01*
X317757Y791191D01*
X317808Y790951D01*
X317853Y790710D01*
X317892Y790467D01*
X317925Y790224D01*
X317952Y789980D01*
X317973Y789736D01*
X317988Y789491D01*
X317997Y789245D01*
X318000Y789000D01*
X317997Y788755D01*
X317988Y788509D01*
X317973Y788264D01*
X317952Y788020D01*
X317925Y787776D01*
X317892Y787533D01*
X317853Y787290D01*
X317808Y787049D01*
X317757Y786809D01*
X317700Y786570D01*
X317638Y786333D01*
X317569Y786097D01*
X317495Y785863D01*
X317415Y785631D01*
X317330Y785401D01*
X317239Y785173D01*
X317142Y784948D01*
X317040Y784724D01*
X316932Y784504D01*
X316819Y784286D01*
X316701Y784071D01*
X316577Y783859D01*
X316449Y783650D01*
X316315Y783444D01*
X316176Y783242D01*
X316032Y783043D01*
X315883Y782848D01*
X315730Y782656D01*
X315572Y782468D01*
X315410Y782284D01*
X315242Y782105D01*
X315071Y781929D01*
X314895Y781758D01*
X314716Y781590D01*
X314532Y781428D01*
X314344Y781270D01*
X314152Y781117D01*
X313957Y780968D01*
X313758Y780824D01*
X313556Y780685D01*
X313350Y780551D01*
X313141Y780423D01*
X312929Y780299D01*
X312714Y780181D01*
X312496Y780068D01*
X312276Y779960D01*
X312052Y779858D01*
X311827Y779761D01*
X311599Y779670D01*
X311369Y779585D01*
X311137Y779505D01*
X310903Y779431D01*
X310667Y779362D01*
X310430Y779300D01*
X310191Y779243D01*
X309951Y779192D01*
X309710Y779147D01*
X309467Y779108D01*
X309224Y779075D01*
X308980Y779048D01*
X308736Y779027D01*
X308491Y779012D01*
X308245Y779003D01*
X308000Y779000D01*
X307755Y779003D01*
X307509Y779012D01*
X307264Y779027D01*
X307020Y779048D01*
X306776Y779075D01*
X306533Y779108D01*
X306290Y779147D01*
X306049Y779192D01*
X305809Y779243D01*
X305570Y779300D01*
X305333Y779362D01*
X305097Y779431D01*
X304863Y779505D01*
X304631Y779585D01*
X304401Y779670D01*
X304173Y779761D01*
X303948Y779858D01*
X303724Y779960D01*
X303504Y780068D01*
X303286Y780181D01*
X303071Y780299D01*
X302859Y780423D01*
X302650Y780551D01*
X302444Y780685D01*
X302242Y780824D01*
X302043Y780968D01*
X301848Y781117D01*
X301656Y781270D01*
X301468Y781428D01*
X301284Y781590D01*
X301105Y781758D01*
X300929Y781929D01*
X300758Y782105D01*
X300590Y782284D01*
X300428Y782468D01*
X300270Y782656D01*
X300117Y782848D01*
X299968Y783043D01*
X299824Y783242D01*
X299685Y783444D01*
X299551Y783650D01*
X299423Y783859D01*
X299299Y784071D01*
X299181Y784286D01*
X299068Y784504D01*
X298960Y784724D01*
X298858Y784948D01*
X298761Y785173D01*
X298670Y785401D01*
X298585Y785631D01*
X298505Y785863D01*
X298431Y786097D01*
X298362Y786333D01*
X298300Y786570D01*
X298243Y786809D01*
X298192Y787049D01*
X298147Y787290D01*
X298108Y787533D01*
X298075Y787776D01*
X298048Y788020D01*
X298027Y788264D01*
X298012Y788509D01*
X298003Y788755D01*
X298000Y789000D01*
D13*
X358000Y739000D02*
X358000Y1039000D01*
X658000Y1039000D02*
X658000Y739000D01*
X358000Y1039000D02*
X308000Y1039000D01*
X658000Y1039000D02*
X708000Y1039000D01*
X708000Y739000D02*
X658000Y739000D01*
X358000Y739000D02*
X308000Y739000D01*
D11*
X240690Y807802D02*
X148310Y807802D01*
X240690Y797538D02*
X240690Y818066D01*
X148310Y818066D02*
X148310Y797538D01*
X240690Y874414D02*
X240690Y894943D01*
X240690Y874414D02*
X240684Y873918D01*
X240666Y873422D01*
X240636Y872927D01*
X240594Y872433D01*
X240540Y871940D01*
X240475Y871448D01*
X240397Y870958D01*
X240308Y870470D01*
X240206Y869984D01*
X240093Y869501D01*
X239969Y869021D01*
X239833Y868544D01*
X239685Y868070D01*
X239526Y867600D01*
X239356Y867134D01*
X239174Y866673D01*
X238982Y866215D01*
X238778Y865763D01*
X238564Y865316D01*
X238339Y864874D01*
X238103Y864437D01*
X237856Y864007D01*
X237600Y863582D01*
X237333Y863164D01*
X237056Y862752D01*
X236769Y862347D01*
X236473Y861950D01*
X236167Y861559D01*
X235852Y861176D01*
X235527Y860801D01*
X235194Y860433D01*
X234852Y860074D01*
X234501Y859723D01*
X234142Y859381D01*
X233774Y859048D01*
X233399Y858723D01*
X233016Y858408D01*
X232625Y858102D01*
X232228Y857806D01*
X231823Y857519D01*
X231411Y857242D01*
X230993Y856975D01*
X230568Y856719D01*
X230138Y856472D01*
X229701Y856236D01*
X229259Y856011D01*
X228812Y855797D01*
X228360Y855593D01*
X227902Y855401D01*
X227441Y855219D01*
X226975Y855049D01*
X226505Y854890D01*
X226031Y854742D01*
X225554Y854606D01*
X225074Y854482D01*
X224591Y854369D01*
X224105Y854267D01*
X223617Y854178D01*
X223127Y854100D01*
X222635Y854035D01*
X222142Y853981D01*
X221648Y853939D01*
X221153Y853909D01*
X220657Y853891D01*
X220161Y853885D01*
X220161Y853886D02*
X168839Y853886D01*
X168335Y853892D01*
X167832Y853911D01*
X167329Y853942D01*
X166827Y853985D01*
X166326Y854040D01*
X165827Y854108D01*
X165329Y854188D01*
X164834Y854280D01*
X164341Y854385D01*
X163851Y854501D01*
X163364Y854630D01*
X162880Y854770D01*
X162400Y854922D01*
X161923Y855086D01*
X161451Y855262D01*
X160983Y855449D01*
X160520Y855647D01*
X160062Y855857D01*
X159609Y856078D01*
X159162Y856310D01*
X158720Y856553D01*
X158285Y856807D01*
X157856Y857071D01*
X157434Y857346D01*
X157018Y857631D01*
X156610Y857926D01*
X156209Y858231D01*
X155816Y858546D01*
X155430Y858870D01*
X155053Y859204D01*
X154684Y859547D01*
X154323Y859899D01*
X153971Y860259D01*
X153628Y860628D01*
X153294Y861006D01*
X152970Y861391D01*
X152655Y861785D01*
X152350Y862186D01*
X152055Y862594D01*
X151770Y863009D01*
X151495Y863432D01*
X151231Y863861D01*
X150977Y864296D01*
X150734Y864737D01*
X150502Y865185D01*
X150281Y865637D01*
X150071Y866095D01*
X149873Y866558D01*
X149686Y867026D01*
X149510Y867499D01*
X149346Y867975D01*
X149194Y868455D01*
X149054Y868939D01*
X148925Y869426D01*
X148809Y869917D01*
X148705Y870409D01*
X148612Y870905D01*
X148532Y871402D01*
X148464Y871901D01*
X148409Y872402D01*
X148366Y872904D01*
X148335Y873407D01*
X148316Y873911D01*
X148310Y874414D01*
X148310Y894943D01*
X168839Y929140D02*
X148310Y954801D01*
X240690Y954801D01*
X240690Y929140D02*
X240690Y980463D01*
D14*
X190500Y381000D02*
X317500Y381000D01*
X381000Y317500D01*
X381000Y190500D01*
X317500Y127000D01*
X381000Y317500D02*
X444500Y381000D01*
X571500Y381000D01*
X635000Y317500D01*
X635000Y190500D01*
X571500Y127000D01*
X444500Y127000D01*
X381000Y190500D01*
X127000Y190500D02*
X127000Y317500D01*
X190500Y381000D01*
X127000Y190500D02*
X190500Y127000D01*
X317500Y127000D01*
X635000Y317500D02*
X698500Y381000D01*
X825500Y381000D01*
X889000Y317500D01*
X889000Y190500D01*
X825500Y127000D01*
X698500Y127000D01*
X635000Y190500D01*
M02*
