G04 EAGLE Gerber X2 export*
G75*
%MOMM*%
%FSLAX35Y35*%
%LPD*%
%AMOC8*
5,1,8,0,0,1.08239X$1,22.5*%
G01*
%ADD10C,0.025400*%
%ADD11R,2.000000X1.600000*%
%ADD12R,0.350000X0.650000*%
%ADD13C,1.524000*%
%ADD14C,0.355600*%
%ADD15C,0.650000*%

G36*
X825719Y51298D02*
X825719Y51298D01*
X826496Y51309D01*
X846290Y52867D01*
X846962Y53006D01*
X847647Y53048D01*
X849218Y53450D01*
X886868Y65683D01*
X887938Y66186D01*
X889038Y66619D01*
X889557Y66948D01*
X889746Y67037D01*
X889904Y67168D01*
X890408Y67487D01*
X922435Y90756D01*
X923299Y91567D01*
X924209Y92317D01*
X924602Y92791D01*
X924754Y92933D01*
X924864Y93106D01*
X925244Y93565D01*
X948513Y125592D01*
X949084Y126630D01*
X949718Y127625D01*
X949945Y128196D01*
X950046Y128379D01*
X950098Y128579D01*
X950317Y129132D01*
X956749Y148929D01*
X956750Y148931D01*
X956750Y148932D01*
X960876Y161629D01*
X960876Y161630D01*
X960877Y161632D01*
X962550Y166782D01*
X962679Y167457D01*
X962902Y168105D01*
X963133Y169710D01*
X964690Y189503D01*
X964680Y189724D01*
X964729Y190499D01*
X964729Y285182D01*
X964642Y285874D01*
X964653Y286573D01*
X964443Y287447D01*
X964331Y288338D01*
X964074Y288987D01*
X963911Y289666D01*
X963492Y290460D01*
X963161Y291296D01*
X962750Y291861D01*
X962424Y292478D01*
X961820Y293143D01*
X961292Y293870D01*
X960754Y294316D01*
X960285Y294833D01*
X959534Y295327D01*
X958842Y295900D01*
X958211Y296197D01*
X957628Y296581D01*
X956776Y296874D01*
X955965Y297256D01*
X955280Y297388D01*
X954619Y297615D01*
X953722Y297686D01*
X952841Y297855D01*
X952144Y297812D01*
X951448Y297868D01*
X950562Y297714D01*
X949666Y297659D01*
X949003Y297445D01*
X948313Y297325D01*
X947493Y296956D01*
X946639Y296680D01*
X946049Y296307D01*
X945412Y296021D01*
X944710Y295460D01*
X943950Y294980D01*
X943472Y294472D01*
X942926Y294036D01*
X942385Y293318D01*
X941769Y292664D01*
X941432Y292054D01*
X941011Y291496D01*
X940319Y290085D01*
X933974Y280590D01*
X925910Y272526D01*
X916427Y266189D01*
X905888Y261824D01*
X901701Y260991D01*
X901701Y317497D01*
X901700Y317499D01*
X901701Y317503D01*
X901701Y374008D01*
X905888Y373175D01*
X916427Y368810D01*
X925910Y362474D01*
X933974Y354410D01*
X940343Y344878D01*
X940643Y344352D01*
X940899Y343704D01*
X941427Y342978D01*
X941872Y342196D01*
X942358Y341694D01*
X942768Y341129D01*
X943461Y340556D01*
X944085Y339911D01*
X944679Y339546D01*
X945218Y339100D01*
X946031Y338717D01*
X946797Y338247D01*
X947464Y338041D01*
X948095Y337743D01*
X948977Y337574D01*
X949836Y337309D01*
X950534Y337276D01*
X951219Y337144D01*
X952115Y337200D01*
X953014Y337157D01*
X953698Y337298D01*
X954394Y337341D01*
X955249Y337617D01*
X956130Y337798D01*
X956757Y338105D01*
X957421Y338320D01*
X958181Y338800D01*
X958988Y339194D01*
X959519Y339646D01*
X960110Y340020D01*
X960727Y340675D01*
X961410Y341257D01*
X961812Y341827D01*
X962291Y342335D01*
X962726Y343123D01*
X963243Y343857D01*
X963491Y344508D01*
X963829Y345120D01*
X964054Y345992D01*
X964373Y346830D01*
X964451Y347523D01*
X964626Y348200D01*
X964729Y349818D01*
X964729Y602682D01*
X964642Y603374D01*
X964653Y604073D01*
X964443Y604947D01*
X964331Y605838D01*
X964074Y606487D01*
X963911Y607166D01*
X963492Y607960D01*
X963161Y608796D01*
X962750Y609361D01*
X962424Y609978D01*
X961820Y610643D01*
X961292Y611370D01*
X960754Y611816D01*
X960285Y612333D01*
X959534Y612827D01*
X958842Y613400D01*
X958211Y613697D01*
X957628Y614081D01*
X956776Y614374D01*
X955965Y614756D01*
X955280Y614888D01*
X954619Y615115D01*
X953722Y615186D01*
X952841Y615355D01*
X952144Y615312D01*
X951448Y615368D01*
X950562Y615214D01*
X949666Y615159D01*
X949003Y614945D01*
X948313Y614825D01*
X947493Y614456D01*
X946639Y614180D01*
X946049Y613807D01*
X945412Y613521D01*
X944710Y612960D01*
X943950Y612480D01*
X943472Y611972D01*
X942926Y611536D01*
X942385Y610818D01*
X941769Y610164D01*
X941432Y609553D01*
X941011Y608996D01*
X940319Y607585D01*
X933974Y598090D01*
X925910Y590026D01*
X916427Y583689D01*
X905888Y579324D01*
X901701Y578491D01*
X901701Y634997D01*
X901700Y634998D01*
X901701Y635003D01*
X901701Y691508D01*
X905888Y690675D01*
X916427Y686310D01*
X925910Y679974D01*
X933974Y671910D01*
X940343Y662378D01*
X940643Y661852D01*
X940899Y661204D01*
X941427Y660478D01*
X941872Y659696D01*
X942358Y659194D01*
X942768Y658629D01*
X943461Y658056D01*
X944085Y657411D01*
X944679Y657046D01*
X945218Y656600D01*
X946031Y656217D01*
X946797Y655747D01*
X947464Y655541D01*
X948095Y655243D01*
X948977Y655074D01*
X949836Y654809D01*
X950534Y654776D01*
X951219Y654644D01*
X952115Y654700D01*
X953014Y654657D01*
X953698Y654798D01*
X954394Y654841D01*
X955249Y655117D01*
X956130Y655298D01*
X956757Y655605D01*
X957421Y655820D01*
X958181Y656300D01*
X958988Y656694D01*
X959519Y657146D01*
X960110Y657520D01*
X960727Y658175D01*
X961410Y658757D01*
X961812Y659327D01*
X962291Y659835D01*
X962726Y660623D01*
X963243Y661357D01*
X963491Y662008D01*
X963829Y662620D01*
X964054Y663492D01*
X964373Y664330D01*
X964451Y665023D01*
X964626Y665700D01*
X964729Y667318D01*
X964729Y920182D01*
X964642Y920876D01*
X964653Y921574D01*
X964443Y922447D01*
X964331Y923338D01*
X964074Y923988D01*
X963911Y924668D01*
X963491Y925462D01*
X963161Y926296D01*
X962750Y926862D01*
X962423Y927479D01*
X961819Y928144D01*
X961292Y928871D01*
X960753Y929317D01*
X960284Y929833D01*
X959536Y930326D01*
X958842Y930900D01*
X958209Y931199D01*
X957626Y931582D01*
X956778Y931873D01*
X955965Y932257D01*
X955278Y932388D01*
X954618Y932615D01*
X953723Y932687D01*
X952841Y932856D01*
X952143Y932813D01*
X951447Y932868D01*
X950561Y932715D01*
X949666Y932659D01*
X949003Y932445D01*
X948312Y932325D01*
X947491Y931956D01*
X946639Y931680D01*
X946049Y931307D01*
X945411Y931020D01*
X944709Y930460D01*
X943950Y929980D01*
X943471Y929471D01*
X942925Y929035D01*
X942385Y928319D01*
X941769Y927665D01*
X941431Y927053D01*
X941011Y926495D01*
X940319Y925086D01*
X933974Y915590D01*
X925910Y907526D01*
X916427Y901189D01*
X905888Y896824D01*
X901701Y895991D01*
X901701Y952497D01*
X901700Y952498D01*
X901701Y952503D01*
X901701Y1009008D01*
X905888Y1008175D01*
X916427Y1003810D01*
X925910Y997474D01*
X933974Y989410D01*
X940344Y979876D01*
X940642Y979353D01*
X940899Y978703D01*
X941427Y977977D01*
X941872Y977197D01*
X942358Y976694D01*
X942768Y976129D01*
X943459Y975557D01*
X944084Y974911D01*
X944680Y974545D01*
X945218Y974100D01*
X946030Y973717D01*
X946795Y973247D01*
X947463Y973041D01*
X948095Y972743D01*
X948977Y972574D01*
X949835Y972309D01*
X950533Y972276D01*
X951219Y972144D01*
X952116Y972199D01*
X953013Y972156D01*
X953698Y972297D01*
X954394Y972340D01*
X955247Y972616D01*
X956128Y972798D01*
X956758Y973105D01*
X957421Y973319D01*
X958179Y973799D01*
X958987Y974193D01*
X959518Y974646D01*
X960110Y975020D01*
X960727Y975674D01*
X961409Y976256D01*
X961811Y976826D01*
X962291Y977335D01*
X962726Y978122D01*
X963243Y978855D01*
X963490Y979507D01*
X963829Y980120D01*
X964054Y980990D01*
X964373Y981829D01*
X964451Y982523D01*
X964626Y983200D01*
X964729Y984818D01*
X964729Y1237682D01*
X964642Y1238376D01*
X964653Y1239074D01*
X964443Y1239947D01*
X964331Y1240838D01*
X964074Y1241488D01*
X963911Y1242168D01*
X963491Y1242962D01*
X963161Y1243796D01*
X962750Y1244362D01*
X962423Y1244979D01*
X961819Y1245644D01*
X961292Y1246371D01*
X960753Y1246817D01*
X960284Y1247333D01*
X959536Y1247826D01*
X958842Y1248400D01*
X958209Y1248699D01*
X957626Y1249082D01*
X956778Y1249373D01*
X955965Y1249757D01*
X955278Y1249888D01*
X954618Y1250115D01*
X953723Y1250187D01*
X952841Y1250356D01*
X952143Y1250313D01*
X951447Y1250368D01*
X950561Y1250215D01*
X949666Y1250159D01*
X949003Y1249945D01*
X948312Y1249825D01*
X947491Y1249456D01*
X946639Y1249180D01*
X946049Y1248807D01*
X945411Y1248520D01*
X944709Y1247960D01*
X943950Y1247480D01*
X943471Y1246971D01*
X942925Y1246535D01*
X942385Y1245819D01*
X941769Y1245165D01*
X941431Y1244553D01*
X941011Y1243995D01*
X940319Y1242586D01*
X933974Y1233090D01*
X925910Y1225026D01*
X916427Y1218689D01*
X905888Y1214324D01*
X901701Y1213491D01*
X901701Y1269997D01*
X901700Y1269998D01*
X901701Y1270003D01*
X901701Y1326508D01*
X905888Y1325675D01*
X916427Y1321310D01*
X925909Y1314975D01*
X932551Y1308332D01*
X932708Y1308210D01*
X932835Y1308057D01*
X933963Y1307237D01*
X935065Y1306382D01*
X935247Y1306303D01*
X935408Y1306186D01*
X936705Y1305672D01*
X937984Y1305118D01*
X938180Y1305087D01*
X938365Y1305013D01*
X939748Y1304838D01*
X941125Y1304619D01*
X941323Y1304637D01*
X941521Y1304612D01*
X942906Y1304786D01*
X944293Y1304916D01*
X944479Y1304983D01*
X944677Y1305008D01*
X945977Y1305521D01*
X947287Y1305991D01*
X947451Y1306103D01*
X947636Y1306176D01*
X948765Y1306994D01*
X949919Y1307777D01*
X950051Y1307926D01*
X950212Y1308042D01*
X951099Y1309112D01*
X952026Y1310160D01*
X952117Y1310338D01*
X952243Y1310490D01*
X952837Y1311746D01*
X953474Y1312993D01*
X953518Y1313188D01*
X953602Y1313367D01*
X953865Y1314730D01*
X954173Y1316096D01*
X954167Y1316296D01*
X954204Y1316490D01*
X954119Y1317880D01*
X954078Y1319276D01*
X954023Y1319467D01*
X954011Y1319665D01*
X953609Y1321236D01*
X950317Y1331368D01*
X949813Y1332438D01*
X949380Y1333538D01*
X949051Y1334058D01*
X948963Y1334246D01*
X948832Y1334404D01*
X948513Y1334908D01*
X925244Y1366935D01*
X925023Y1367170D01*
X924887Y1367386D01*
X924378Y1367865D01*
X923683Y1368709D01*
X923209Y1369102D01*
X923067Y1369254D01*
X922893Y1369364D01*
X922435Y1369744D01*
X890408Y1393013D01*
X889370Y1393584D01*
X888374Y1394218D01*
X887804Y1394445D01*
X887620Y1394546D01*
X887420Y1394598D01*
X886868Y1394817D01*
X849218Y1407050D01*
X848543Y1407179D01*
X847895Y1407402D01*
X846290Y1407633D01*
X826496Y1409190D01*
X826274Y1409180D01*
X825500Y1409229D01*
X794318Y1409229D01*
X793624Y1409142D01*
X792926Y1409153D01*
X792053Y1408943D01*
X791162Y1408831D01*
X790512Y1408574D01*
X789832Y1408411D01*
X789038Y1407991D01*
X788203Y1407661D01*
X787638Y1407250D01*
X787020Y1406923D01*
X786356Y1406319D01*
X785629Y1405792D01*
X785183Y1405253D01*
X784666Y1404784D01*
X784174Y1404035D01*
X783600Y1403342D01*
X783301Y1402709D01*
X782918Y1402126D01*
X782627Y1401278D01*
X782243Y1400465D01*
X782112Y1399778D01*
X781885Y1399118D01*
X781813Y1398223D01*
X781644Y1397341D01*
X781687Y1396643D01*
X781632Y1395947D01*
X781785Y1395061D01*
X781840Y1394166D01*
X782055Y1393503D01*
X782174Y1392812D01*
X782544Y1391991D01*
X782819Y1391139D01*
X783193Y1390549D01*
X783479Y1389911D01*
X784040Y1389209D01*
X784520Y1388450D01*
X785029Y1387971D01*
X785464Y1387425D01*
X786181Y1386885D01*
X786835Y1386269D01*
X787447Y1385931D01*
X788005Y1385511D01*
X789413Y1384819D01*
X798910Y1378474D01*
X806974Y1370410D01*
X813310Y1360927D01*
X817675Y1350388D01*
X818508Y1346201D01*
X762003Y1346201D01*
X762001Y1346200D01*
X761997Y1346201D01*
X705491Y1346201D01*
X706324Y1350388D01*
X710689Y1360927D01*
X717026Y1370410D01*
X725090Y1378474D01*
X734624Y1384844D01*
X735147Y1385142D01*
X735796Y1385399D01*
X736523Y1385927D01*
X737303Y1386372D01*
X737806Y1386858D01*
X738371Y1387268D01*
X738943Y1387959D01*
X739589Y1388584D01*
X739954Y1389180D01*
X740400Y1389718D01*
X740783Y1390530D01*
X741253Y1391295D01*
X741458Y1391963D01*
X741757Y1392595D01*
X741926Y1393477D01*
X742190Y1394335D01*
X742224Y1395033D01*
X742356Y1395719D01*
X742300Y1396616D01*
X742343Y1397513D01*
X742203Y1398198D01*
X742159Y1398894D01*
X741883Y1399747D01*
X741702Y1400628D01*
X741395Y1401258D01*
X741180Y1401921D01*
X740701Y1402679D01*
X740307Y1403487D01*
X739854Y1404018D01*
X739480Y1404610D01*
X738825Y1405227D01*
X738244Y1405909D01*
X737674Y1406311D01*
X737165Y1406791D01*
X736378Y1407226D01*
X735645Y1407743D01*
X734993Y1407990D01*
X734380Y1408329D01*
X733510Y1408554D01*
X732671Y1408873D01*
X731976Y1408951D01*
X731300Y1409126D01*
X729682Y1409229D01*
X540318Y1409229D01*
X539624Y1409142D01*
X538926Y1409153D01*
X538053Y1408943D01*
X537162Y1408831D01*
X536512Y1408574D01*
X535832Y1408411D01*
X535038Y1407991D01*
X534203Y1407661D01*
X533638Y1407250D01*
X533020Y1406923D01*
X532356Y1406319D01*
X531629Y1405792D01*
X531183Y1405253D01*
X530666Y1404784D01*
X530174Y1404035D01*
X529600Y1403342D01*
X529301Y1402709D01*
X528918Y1402126D01*
X528627Y1401278D01*
X528243Y1400465D01*
X528112Y1399778D01*
X527885Y1399118D01*
X527813Y1398223D01*
X527644Y1397341D01*
X527687Y1396643D01*
X527632Y1395947D01*
X527785Y1395061D01*
X527840Y1394166D01*
X528055Y1393503D01*
X528174Y1392812D01*
X528544Y1391991D01*
X528819Y1391139D01*
X529193Y1390549D01*
X529479Y1389911D01*
X530040Y1389209D01*
X530520Y1388450D01*
X531029Y1387971D01*
X531464Y1387425D01*
X532181Y1386885D01*
X532835Y1386269D01*
X533447Y1385931D01*
X534005Y1385511D01*
X535413Y1384819D01*
X544910Y1378474D01*
X552974Y1370410D01*
X559310Y1360927D01*
X563675Y1350388D01*
X564508Y1346201D01*
X508003Y1346201D01*
X508001Y1346200D01*
X507997Y1346201D01*
X451491Y1346201D01*
X452324Y1350388D01*
X456689Y1360927D01*
X463026Y1370410D01*
X471090Y1378474D01*
X480624Y1384844D01*
X481147Y1385142D01*
X481796Y1385399D01*
X482523Y1385927D01*
X483303Y1386372D01*
X483806Y1386858D01*
X484371Y1387268D01*
X484943Y1387959D01*
X485589Y1388584D01*
X485954Y1389180D01*
X486400Y1389718D01*
X486783Y1390530D01*
X487253Y1391295D01*
X487458Y1391963D01*
X487757Y1392595D01*
X487926Y1393477D01*
X488190Y1394335D01*
X488224Y1395033D01*
X488356Y1395719D01*
X488300Y1396616D01*
X488343Y1397513D01*
X488203Y1398198D01*
X488159Y1398894D01*
X487883Y1399747D01*
X487702Y1400628D01*
X487395Y1401258D01*
X487180Y1401921D01*
X486701Y1402679D01*
X486307Y1403487D01*
X485854Y1404018D01*
X485480Y1404610D01*
X484825Y1405227D01*
X484244Y1405909D01*
X483674Y1406311D01*
X483165Y1406791D01*
X482378Y1407226D01*
X481645Y1407743D01*
X480993Y1407990D01*
X480380Y1408329D01*
X479510Y1408554D01*
X478671Y1408873D01*
X477976Y1408951D01*
X477300Y1409126D01*
X475682Y1409229D01*
X286318Y1409229D01*
X285624Y1409142D01*
X284926Y1409153D01*
X284053Y1408943D01*
X283162Y1408831D01*
X282512Y1408574D01*
X281832Y1408411D01*
X281038Y1407991D01*
X280203Y1407661D01*
X279638Y1407250D01*
X279020Y1406923D01*
X278356Y1406319D01*
X277629Y1405792D01*
X277183Y1405253D01*
X276666Y1404784D01*
X276174Y1404035D01*
X275600Y1403342D01*
X275301Y1402709D01*
X274918Y1402126D01*
X274627Y1401278D01*
X274243Y1400465D01*
X274112Y1399778D01*
X273885Y1399118D01*
X273813Y1398223D01*
X273644Y1397341D01*
X273687Y1396643D01*
X273632Y1395947D01*
X273785Y1395061D01*
X273840Y1394166D01*
X274055Y1393503D01*
X274174Y1392812D01*
X274544Y1391991D01*
X274819Y1391139D01*
X275193Y1390549D01*
X275479Y1389911D01*
X276040Y1389209D01*
X276520Y1388450D01*
X277029Y1387971D01*
X277464Y1387425D01*
X278181Y1386885D01*
X278835Y1386269D01*
X279447Y1385931D01*
X280005Y1385511D01*
X281413Y1384819D01*
X290910Y1378474D01*
X298974Y1370410D01*
X305310Y1360927D01*
X309675Y1350388D01*
X310508Y1346201D01*
X254003Y1346201D01*
X254001Y1346200D01*
X253997Y1346201D01*
X197491Y1346201D01*
X198324Y1350388D01*
X202689Y1360927D01*
X209026Y1370410D01*
X217090Y1378474D01*
X226624Y1384844D01*
X227147Y1385142D01*
X227796Y1385399D01*
X228523Y1385927D01*
X229303Y1386372D01*
X229806Y1386858D01*
X230371Y1387268D01*
X230943Y1387959D01*
X231589Y1388584D01*
X231954Y1389180D01*
X232400Y1389718D01*
X232783Y1390530D01*
X233253Y1391295D01*
X233458Y1391963D01*
X233757Y1392595D01*
X233926Y1393477D01*
X234190Y1394335D01*
X234224Y1395033D01*
X234356Y1395719D01*
X234300Y1396616D01*
X234343Y1397513D01*
X234203Y1398198D01*
X234159Y1398894D01*
X233883Y1399747D01*
X233702Y1400628D01*
X233395Y1401258D01*
X233180Y1401921D01*
X232701Y1402679D01*
X232307Y1403487D01*
X231854Y1404018D01*
X231480Y1404610D01*
X230825Y1405227D01*
X230244Y1405909D01*
X229674Y1406311D01*
X229165Y1406791D01*
X228378Y1407226D01*
X227645Y1407743D01*
X226993Y1407990D01*
X226380Y1408329D01*
X225510Y1408554D01*
X224671Y1408873D01*
X223976Y1408951D01*
X223300Y1409126D01*
X221682Y1409229D01*
X190500Y1409229D01*
X190281Y1409202D01*
X189504Y1409190D01*
X169710Y1407633D01*
X169038Y1407493D01*
X168353Y1407452D01*
X166782Y1407050D01*
X129132Y1394817D01*
X128062Y1394313D01*
X126962Y1393880D01*
X126443Y1393552D01*
X126254Y1393463D01*
X126095Y1393332D01*
X125592Y1393013D01*
X93565Y1369744D01*
X92701Y1368933D01*
X92526Y1368788D01*
X92222Y1368568D01*
X92144Y1368474D01*
X91790Y1368183D01*
X91398Y1367709D01*
X91246Y1367567D01*
X91136Y1367393D01*
X90756Y1366935D01*
X67487Y1334908D01*
X66916Y1333869D01*
X66281Y1332874D01*
X66054Y1332303D01*
X65954Y1332120D01*
X65903Y1331921D01*
X65683Y1331368D01*
X62391Y1321236D01*
X62353Y1321041D01*
X62274Y1320858D01*
X62056Y1319481D01*
X61794Y1318112D01*
X61807Y1317913D01*
X61776Y1317717D01*
X61906Y1316330D01*
X61993Y1314937D01*
X62055Y1314747D01*
X62073Y1314550D01*
X62543Y1313241D01*
X62975Y1311911D01*
X63082Y1311742D01*
X63148Y1311556D01*
X63928Y1310406D01*
X64678Y1309224D01*
X64823Y1309087D01*
X64934Y1308923D01*
X65975Y1308003D01*
X66995Y1307044D01*
X67169Y1306948D01*
X67318Y1306817D01*
X68562Y1306181D01*
X69781Y1305509D01*
X69973Y1305460D01*
X70150Y1305369D01*
X71517Y1305061D01*
X72861Y1304714D01*
X73059Y1304714D01*
X73254Y1304670D01*
X74651Y1304712D01*
X76042Y1304710D01*
X76234Y1304759D01*
X76433Y1304765D01*
X77774Y1305152D01*
X79125Y1305497D01*
X79299Y1305592D01*
X79490Y1305647D01*
X80693Y1306355D01*
X81915Y1307024D01*
X82059Y1307160D01*
X82231Y1307261D01*
X83448Y1308332D01*
X90091Y1314975D01*
X99573Y1321310D01*
X110111Y1325675D01*
X114299Y1326508D01*
X114299Y1270003D01*
X114299Y1270001D01*
X114299Y1269997D01*
X114299Y1213491D01*
X110111Y1214324D01*
X99573Y1218689D01*
X90090Y1225026D01*
X82026Y1233090D01*
X75657Y1242621D01*
X75357Y1243148D01*
X75100Y1243797D01*
X74574Y1244521D01*
X74129Y1245303D01*
X73642Y1245806D01*
X73232Y1246371D01*
X72541Y1246943D01*
X71917Y1247588D01*
X71321Y1247954D01*
X70782Y1248400D01*
X69970Y1248783D01*
X69205Y1249253D01*
X68536Y1249459D01*
X67904Y1249757D01*
X67024Y1249926D01*
X66166Y1250191D01*
X65467Y1250224D01*
X64780Y1250356D01*
X63884Y1250301D01*
X62988Y1250344D01*
X62303Y1250203D01*
X61605Y1250160D01*
X60753Y1249884D01*
X59873Y1249703D01*
X59243Y1249396D01*
X58578Y1249181D01*
X57821Y1248701D01*
X57014Y1248308D01*
X56482Y1247855D01*
X55890Y1247480D01*
X55273Y1246826D01*
X54592Y1246245D01*
X54189Y1245675D01*
X53709Y1245165D01*
X53275Y1244379D01*
X52758Y1243646D01*
X52509Y1242992D01*
X52171Y1242380D01*
X51946Y1241512D01*
X51627Y1240673D01*
X51549Y1239977D01*
X51374Y1239300D01*
X51270Y1237683D01*
X51270Y984818D01*
X51358Y984124D01*
X51347Y983426D01*
X51556Y982553D01*
X51669Y981662D01*
X51926Y981012D01*
X52089Y980332D01*
X52509Y979538D01*
X52839Y978703D01*
X53249Y978138D01*
X53576Y977520D01*
X54180Y976856D01*
X54708Y976129D01*
X55246Y975683D01*
X55716Y975166D01*
X56465Y974674D01*
X57158Y974100D01*
X57791Y973801D01*
X58373Y973418D01*
X59222Y973127D01*
X60035Y972743D01*
X60721Y972612D01*
X61382Y972385D01*
X62277Y972313D01*
X63159Y972144D01*
X63857Y972187D01*
X64553Y972132D01*
X65439Y972285D01*
X66334Y972340D01*
X66997Y972555D01*
X67688Y972674D01*
X68508Y973044D01*
X69361Y973319D01*
X69951Y973693D01*
X70589Y973979D01*
X71290Y974540D01*
X72049Y975020D01*
X72529Y975529D01*
X73074Y975964D01*
X73614Y976681D01*
X74231Y977335D01*
X74569Y977947D01*
X74989Y978505D01*
X75681Y979913D01*
X82026Y989410D01*
X90090Y997474D01*
X99573Y1003810D01*
X110111Y1008175D01*
X114299Y1009008D01*
X114299Y952503D01*
X114299Y952501D01*
X114299Y952497D01*
X114299Y895991D01*
X110111Y896824D01*
X99573Y901189D01*
X90090Y907526D01*
X82026Y915590D01*
X75655Y925124D01*
X75358Y925647D01*
X75100Y926296D01*
X74573Y927023D01*
X74128Y927803D01*
X73642Y928306D01*
X73232Y928871D01*
X72541Y929443D01*
X71916Y930089D01*
X71320Y930454D01*
X70782Y930900D01*
X69969Y931283D01*
X69204Y931753D01*
X68537Y931958D01*
X67904Y932257D01*
X67023Y932426D01*
X66165Y932690D01*
X65467Y932724D01*
X64780Y932856D01*
X63884Y932800D01*
X62987Y932843D01*
X62302Y932703D01*
X61605Y932659D01*
X60753Y932383D01*
X59871Y932202D01*
X59242Y931895D01*
X58578Y931680D01*
X57820Y931201D01*
X57013Y930807D01*
X56481Y930354D01*
X55890Y929980D01*
X55273Y929325D01*
X54591Y928744D01*
X54188Y928174D01*
X53709Y927665D01*
X53274Y926878D01*
X52757Y926145D01*
X52509Y925493D01*
X52171Y924880D01*
X51946Y924010D01*
X51627Y923171D01*
X51549Y922476D01*
X51374Y921800D01*
X51270Y920182D01*
X51270Y667318D01*
X51358Y666624D01*
X51347Y665926D01*
X51556Y665053D01*
X51669Y664162D01*
X51926Y663512D01*
X52089Y662832D01*
X52509Y662038D01*
X52839Y661203D01*
X53249Y660638D01*
X53576Y660020D01*
X54180Y659356D01*
X54708Y658629D01*
X55246Y658183D01*
X55716Y657666D01*
X56465Y657174D01*
X57158Y656600D01*
X57791Y656301D01*
X58373Y655918D01*
X59222Y655627D01*
X60035Y655243D01*
X60721Y655112D01*
X61382Y654885D01*
X62277Y654813D01*
X63159Y654644D01*
X63857Y654687D01*
X64553Y654632D01*
X65439Y654785D01*
X66334Y654840D01*
X66997Y655055D01*
X67688Y655174D01*
X68508Y655544D01*
X69361Y655819D01*
X69951Y656193D01*
X70589Y656479D01*
X71290Y657040D01*
X72049Y657520D01*
X72529Y658029D01*
X73074Y658464D01*
X73614Y659181D01*
X74231Y659835D01*
X74568Y660446D01*
X74989Y661005D01*
X75681Y662413D01*
X82026Y671910D01*
X90090Y679974D01*
X99573Y686310D01*
X110111Y690675D01*
X114299Y691508D01*
X114299Y635003D01*
X114299Y635001D01*
X114299Y634997D01*
X114299Y578491D01*
X110111Y579324D01*
X99573Y583689D01*
X90090Y590026D01*
X82026Y598090D01*
X75655Y607624D01*
X75358Y608147D01*
X75100Y608796D01*
X74573Y609523D01*
X74128Y610303D01*
X73642Y610806D01*
X73232Y611371D01*
X72541Y611943D01*
X71916Y612589D01*
X71320Y612954D01*
X70782Y613400D01*
X69969Y613783D01*
X69204Y614253D01*
X68537Y614458D01*
X67904Y614757D01*
X67023Y614926D01*
X66165Y615190D01*
X65467Y615224D01*
X64780Y615356D01*
X63884Y615300D01*
X62987Y615343D01*
X62302Y615203D01*
X61605Y615159D01*
X60753Y614883D01*
X59871Y614702D01*
X59242Y614395D01*
X58578Y614180D01*
X57820Y613701D01*
X57013Y613307D01*
X56481Y612854D01*
X55890Y612480D01*
X55273Y611825D01*
X54591Y611244D01*
X54188Y610674D01*
X53709Y610165D01*
X53274Y609378D01*
X52757Y608645D01*
X52509Y607993D01*
X52171Y607380D01*
X51946Y606510D01*
X51627Y605671D01*
X51549Y604976D01*
X51374Y604300D01*
X51270Y602682D01*
X51270Y349818D01*
X51358Y349124D01*
X51347Y348426D01*
X51556Y347553D01*
X51669Y346662D01*
X51926Y346012D01*
X52089Y345332D01*
X52509Y344538D01*
X52839Y343703D01*
X53249Y343138D01*
X53576Y342520D01*
X54180Y341856D01*
X54708Y341129D01*
X55246Y340683D01*
X55716Y340166D01*
X56465Y339674D01*
X57158Y339100D01*
X57791Y338801D01*
X58373Y338418D01*
X59222Y338127D01*
X60035Y337743D01*
X60721Y337612D01*
X61382Y337385D01*
X62277Y337313D01*
X63159Y337144D01*
X63857Y337187D01*
X64553Y337132D01*
X65439Y337285D01*
X66334Y337340D01*
X66997Y337555D01*
X67688Y337674D01*
X68508Y338044D01*
X69361Y338319D01*
X69951Y338693D01*
X70589Y338979D01*
X71290Y339540D01*
X72049Y340020D01*
X72529Y340529D01*
X73074Y340964D01*
X73614Y341681D01*
X74231Y342335D01*
X74569Y342947D01*
X74989Y343505D01*
X75681Y344913D01*
X82026Y354410D01*
X90090Y362474D01*
X99573Y368810D01*
X110111Y373175D01*
X114299Y374008D01*
X114299Y317503D01*
X114299Y317501D01*
X114299Y317497D01*
X114299Y260991D01*
X110111Y261824D01*
X99573Y266189D01*
X90090Y272526D01*
X82026Y280590D01*
X75655Y290124D01*
X75358Y290647D01*
X75100Y291296D01*
X74573Y292023D01*
X74128Y292803D01*
X73642Y293306D01*
X73232Y293871D01*
X72541Y294443D01*
X71916Y295089D01*
X71320Y295454D01*
X70782Y295900D01*
X69969Y296283D01*
X69204Y296753D01*
X68537Y296958D01*
X67904Y297257D01*
X67023Y297426D01*
X66165Y297690D01*
X65467Y297724D01*
X64780Y297856D01*
X63884Y297800D01*
X62987Y297843D01*
X62302Y297703D01*
X61605Y297659D01*
X60753Y297383D01*
X59871Y297202D01*
X59242Y296895D01*
X58578Y296680D01*
X57820Y296201D01*
X57013Y295807D01*
X56481Y295354D01*
X55890Y294980D01*
X55273Y294325D01*
X54591Y293744D01*
X54188Y293174D01*
X53709Y292665D01*
X53274Y291878D01*
X52757Y291145D01*
X52509Y290493D01*
X52171Y289880D01*
X51946Y289010D01*
X51627Y288171D01*
X51549Y287476D01*
X51374Y286800D01*
X51270Y285182D01*
X51270Y190500D01*
X51298Y190281D01*
X51309Y189504D01*
X52867Y169710D01*
X53006Y169038D01*
X53048Y168353D01*
X53450Y166782D01*
X65683Y129132D01*
X66186Y128062D01*
X66619Y126962D01*
X66948Y126443D01*
X67037Y126254D01*
X67168Y126095D01*
X67487Y125592D01*
X90756Y93565D01*
X91567Y92701D01*
X92317Y91790D01*
X92791Y91398D01*
X92933Y91246D01*
X93106Y91136D01*
X93565Y90756D01*
X125592Y67487D01*
X126630Y66916D01*
X127625Y66281D01*
X128196Y66055D01*
X128379Y65954D01*
X128579Y65902D01*
X129132Y65683D01*
X166782Y53450D01*
X167457Y53321D01*
X168105Y53098D01*
X169710Y52867D01*
X189503Y51309D01*
X189725Y51320D01*
X190500Y51270D01*
X825500Y51270D01*
X825719Y51298D01*
G37*
%LPC*%
G36*
X234865Y157799D02*
X234865Y157799D01*
X199506Y172446D01*
X172446Y199506D01*
X157799Y234865D01*
X157799Y249117D01*
X157694Y249953D01*
X157688Y250795D01*
X157495Y251525D01*
X157401Y252273D01*
X157091Y253056D01*
X156876Y253870D01*
X156508Y254529D01*
X156231Y255231D01*
X155736Y255912D01*
X155326Y256648D01*
X154805Y257195D01*
X154362Y257806D01*
X153713Y258343D01*
X153133Y258953D01*
X152495Y259353D01*
X151912Y259835D01*
X151149Y260195D01*
X150437Y260641D01*
X149718Y260870D01*
X149035Y261192D01*
X148209Y261350D01*
X147406Y261606D01*
X146651Y261649D01*
X145911Y261791D01*
X145070Y261739D01*
X144229Y261787D01*
X142831Y261600D01*
X142736Y261594D01*
X142700Y261583D01*
X142623Y261573D01*
X139701Y260991D01*
X139701Y317497D01*
X139700Y317499D01*
X139701Y317503D01*
X139701Y374008D01*
X143888Y373175D01*
X154427Y368810D01*
X163910Y362474D01*
X171974Y354410D01*
X178310Y344927D01*
X179990Y340871D01*
X180237Y340439D01*
X180404Y339972D01*
X181022Y339062D01*
X181566Y338107D01*
X181912Y337751D01*
X182191Y337339D01*
X183015Y336611D01*
X183779Y335822D01*
X184203Y335563D01*
X184575Y335234D01*
X185553Y334734D01*
X186491Y334159D01*
X186966Y334012D01*
X187408Y333787D01*
X188480Y333546D01*
X189531Y333222D01*
X190027Y333198D01*
X190512Y333089D01*
X191610Y333122D01*
X192708Y333069D01*
X193195Y333169D01*
X193691Y333184D01*
X194747Y333489D01*
X195824Y333711D01*
X196270Y333929D01*
X196748Y334067D01*
X197695Y334626D01*
X198682Y335108D01*
X198923Y335313D01*
X208380Y339230D01*
X208634Y339375D01*
X208911Y339464D01*
X210012Y340161D01*
X211143Y340806D01*
X211352Y341008D01*
X211600Y341165D01*
X212494Y342114D01*
X213428Y343019D01*
X213581Y343268D01*
X213781Y343480D01*
X214410Y344620D01*
X215092Y345730D01*
X215178Y346009D01*
X215319Y346265D01*
X215645Y347526D01*
X216029Y348770D01*
X216043Y349062D01*
X216116Y349345D01*
X216219Y350963D01*
X216219Y1101273D01*
X216096Y1102253D01*
X216066Y1103239D01*
X215898Y1103824D01*
X215821Y1104429D01*
X215458Y1105347D01*
X215184Y1106295D01*
X214875Y1106821D01*
X214651Y1107388D01*
X214071Y1108186D01*
X213570Y1109036D01*
X212904Y1109793D01*
X212782Y1109962D01*
X212686Y1110041D01*
X212499Y1110253D01*
X209492Y1113260D01*
X201499Y1132557D01*
X201499Y1153443D01*
X209492Y1172739D01*
X224260Y1187508D01*
X243557Y1195500D01*
X264443Y1195500D01*
X283739Y1187508D01*
X286747Y1184500D01*
X287525Y1183897D01*
X288244Y1183219D01*
X288778Y1182924D01*
X289260Y1182550D01*
X290164Y1182158D01*
X291029Y1181681D01*
X291621Y1181528D01*
X292179Y1181286D01*
X293152Y1181132D01*
X294109Y1180884D01*
X295117Y1180819D01*
X295321Y1180787D01*
X295444Y1180798D01*
X295727Y1180780D01*
X523649Y1180780D01*
X546720Y1157709D01*
X547657Y1156983D01*
X548549Y1156194D01*
X548912Y1156009D01*
X549233Y1155759D01*
X550323Y1155288D01*
X551382Y1154747D01*
X551779Y1154657D01*
X552153Y1154495D01*
X553324Y1154309D01*
X554485Y1154048D01*
X554893Y1154060D01*
X555294Y1153996D01*
X556474Y1154107D01*
X557665Y1154143D01*
X558058Y1154256D01*
X558462Y1154294D01*
X559579Y1154695D01*
X560721Y1155025D01*
X561071Y1155231D01*
X561456Y1155369D01*
X562442Y1156038D01*
X563463Y1156638D01*
X563916Y1157038D01*
X564088Y1157154D01*
X564226Y1157310D01*
X564680Y1157709D01*
X587751Y1180780D01*
X720273Y1180780D01*
X721251Y1180904D01*
X722238Y1180933D01*
X722825Y1181103D01*
X723429Y1181179D01*
X724345Y1181541D01*
X725294Y1181815D01*
X725821Y1182125D01*
X726387Y1182349D01*
X727185Y1182928D01*
X728036Y1183429D01*
X728793Y1184096D01*
X728962Y1184218D01*
X729041Y1184313D01*
X729253Y1184500D01*
X732260Y1187508D01*
X751557Y1195500D01*
X772443Y1195500D01*
X791739Y1187508D01*
X806508Y1172739D01*
X814500Y1153443D01*
X814500Y1132557D01*
X806508Y1113260D01*
X803500Y1110253D01*
X802897Y1109475D01*
X802219Y1108756D01*
X801924Y1108221D01*
X801550Y1107740D01*
X801158Y1106835D01*
X800681Y1105971D01*
X800528Y1105379D01*
X800286Y1104820D01*
X800132Y1103848D01*
X799884Y1102891D01*
X799819Y1101881D01*
X799787Y1101679D01*
X799798Y1101556D01*
X799780Y1101273D01*
X799780Y350963D01*
X799817Y350672D01*
X799794Y350382D01*
X800015Y349100D01*
X800179Y347807D01*
X800286Y347535D01*
X800336Y347247D01*
X800870Y346059D01*
X801349Y344848D01*
X801521Y344612D01*
X801640Y344346D01*
X802453Y343328D01*
X803218Y342274D01*
X803443Y342088D01*
X803625Y341860D01*
X804664Y341076D01*
X805668Y340245D01*
X805932Y340120D01*
X806165Y339944D01*
X807620Y339230D01*
X817233Y335248D01*
X817807Y334802D01*
X818263Y334605D01*
X818678Y334332D01*
X819719Y333974D01*
X820726Y333538D01*
X821216Y333459D01*
X821687Y333298D01*
X822783Y333210D01*
X823868Y333038D01*
X824363Y333084D01*
X824858Y333044D01*
X825939Y333232D01*
X827035Y333334D01*
X827503Y333502D01*
X827992Y333587D01*
X828993Y334037D01*
X830029Y334408D01*
X830440Y334687D01*
X830893Y334891D01*
X831754Y335578D01*
X832662Y336193D01*
X832990Y336565D01*
X833380Y336875D01*
X834042Y337754D01*
X834769Y338577D01*
X834996Y339019D01*
X835295Y339416D01*
X836009Y340871D01*
X837689Y344927D01*
X844026Y354410D01*
X852090Y362474D01*
X861573Y368810D01*
X872111Y373175D01*
X876299Y374008D01*
X876299Y317503D01*
X876299Y317501D01*
X876299Y317497D01*
X876299Y260991D01*
X873377Y261573D01*
X872537Y261632D01*
X871710Y261791D01*
X870958Y261744D01*
X870204Y261798D01*
X869375Y261646D01*
X868535Y261594D01*
X867818Y261363D01*
X867075Y261227D01*
X866309Y260874D01*
X865508Y260615D01*
X864871Y260212D01*
X864185Y259896D01*
X863532Y259365D01*
X862820Y258915D01*
X862302Y258365D01*
X861717Y257889D01*
X861217Y257213D01*
X860639Y256600D01*
X860273Y255938D01*
X859825Y255332D01*
X859508Y254553D01*
X859101Y253815D01*
X858912Y253083D01*
X858628Y252385D01*
X858515Y251551D01*
X858304Y250735D01*
X858214Y249327D01*
X858201Y249233D01*
X858205Y249195D01*
X858200Y249117D01*
X858200Y234865D01*
X843554Y199506D01*
X816494Y172446D01*
X781135Y157799D01*
X742865Y157799D01*
X707506Y172446D01*
X680446Y199506D01*
X665799Y234865D01*
X665799Y273135D01*
X680446Y308494D01*
X707506Y335554D01*
X716380Y339230D01*
X716634Y339375D01*
X716911Y339464D01*
X718012Y340161D01*
X719143Y340806D01*
X719352Y341008D01*
X719600Y341165D01*
X720494Y342114D01*
X721428Y343019D01*
X721581Y343268D01*
X721781Y343480D01*
X722410Y344620D01*
X723092Y345730D01*
X723178Y346009D01*
X723319Y346265D01*
X723645Y347526D01*
X724029Y348770D01*
X724043Y349062D01*
X724116Y349345D01*
X724219Y350963D01*
X724219Y1092520D01*
X724070Y1093700D01*
X723997Y1094884D01*
X723872Y1095271D01*
X723821Y1095676D01*
X723383Y1096782D01*
X723018Y1097911D01*
X722800Y1098256D01*
X722651Y1098634D01*
X721954Y1099593D01*
X721318Y1100600D01*
X721020Y1100880D01*
X720782Y1101208D01*
X719868Y1101965D01*
X719003Y1102781D01*
X718646Y1102978D01*
X718332Y1103238D01*
X717258Y1103744D01*
X716218Y1104319D01*
X715823Y1104421D01*
X715455Y1104594D01*
X714290Y1104818D01*
X713138Y1105116D01*
X712533Y1105155D01*
X712331Y1105193D01*
X712125Y1105181D01*
X711520Y1105219D01*
X653880Y1105219D01*
X652700Y1105070D01*
X651515Y1104997D01*
X651128Y1104872D01*
X650724Y1104821D01*
X649618Y1104383D01*
X648488Y1104018D01*
X648144Y1103800D01*
X647766Y1103651D01*
X646806Y1102954D01*
X645800Y1102318D01*
X645520Y1102020D01*
X645191Y1101782D01*
X644434Y1100868D01*
X643619Y1100003D01*
X643422Y1099646D01*
X643162Y1099332D01*
X642655Y1098258D01*
X642081Y1097218D01*
X641979Y1096823D01*
X641805Y1096455D01*
X641582Y1095290D01*
X641284Y1094138D01*
X641245Y1093533D01*
X641206Y1093331D01*
X641219Y1093125D01*
X641180Y1092520D01*
X641180Y1013210D01*
X641004Y1012528D01*
X640939Y1011520D01*
X640907Y1011316D01*
X640918Y1011193D01*
X640900Y1010910D01*
X640900Y991315D01*
X636161Y986576D01*
X635515Y985744D01*
X634800Y984968D01*
X634543Y984491D01*
X634211Y984063D01*
X633792Y983096D01*
X633292Y982167D01*
X633162Y981641D01*
X632947Y981143D01*
X632782Y980104D01*
X632528Y979079D01*
X632533Y978536D01*
X632448Y978002D01*
X632546Y976952D01*
X632555Y975898D01*
X632724Y975056D01*
X632745Y974834D01*
X632798Y974685D01*
X632874Y974309D01*
X633400Y972344D01*
X633400Y914398D01*
X577457Y914398D01*
X576621Y914293D01*
X575779Y914287D01*
X575048Y914094D01*
X574301Y914000D01*
X573519Y913691D01*
X572703Y913475D01*
X572043Y913107D01*
X571343Y912830D01*
X570662Y912336D01*
X569925Y911924D01*
X569378Y911403D01*
X568768Y910961D01*
X568231Y910313D01*
X567621Y909732D01*
X567221Y909093D01*
X566739Y908511D01*
X566379Y907748D01*
X565933Y907035D01*
X565704Y906317D01*
X565382Y905634D01*
X565224Y904807D01*
X564968Y904004D01*
X564925Y903251D01*
X564783Y902510D01*
X564833Y901701D01*
X520701Y901701D01*
X520701Y945825D01*
X521394Y945776D01*
X522223Y945928D01*
X523063Y945979D01*
X523781Y946212D01*
X524524Y946347D01*
X525289Y946699D01*
X526090Y946958D01*
X526728Y947362D01*
X527413Y947677D01*
X528066Y948208D01*
X528779Y948659D01*
X529297Y949209D01*
X529882Y949684D01*
X530382Y950361D01*
X530960Y950974D01*
X531325Y951635D01*
X531773Y952241D01*
X532090Y953020D01*
X532498Y953759D01*
X532687Y954491D01*
X532971Y955188D01*
X533083Y956022D01*
X533295Y956839D01*
X533385Y958246D01*
X533398Y958341D01*
X533393Y958378D01*
X533398Y958457D01*
X533398Y966900D01*
X533249Y968080D01*
X533176Y969264D01*
X533051Y969651D01*
X533000Y970056D01*
X532563Y971162D01*
X532197Y972291D01*
X531979Y972636D01*
X531830Y973014D01*
X531133Y973973D01*
X530497Y974980D01*
X530199Y975260D01*
X529961Y975588D01*
X529048Y976345D01*
X528182Y977161D01*
X527825Y977358D01*
X527511Y977618D01*
X526437Y978124D01*
X525397Y978699D01*
X525002Y978801D01*
X524634Y978974D01*
X523469Y979198D01*
X522317Y979496D01*
X521712Y979535D01*
X521510Y979573D01*
X521304Y979561D01*
X520699Y979599D01*
X495300Y979599D01*
X494120Y979450D01*
X492936Y979377D01*
X492549Y979252D01*
X492144Y979201D01*
X491039Y978763D01*
X489909Y978398D01*
X489565Y978180D01*
X489186Y978031D01*
X488227Y977334D01*
X487221Y976698D01*
X486940Y976400D01*
X486612Y976162D01*
X485855Y975248D01*
X485039Y974383D01*
X484843Y974026D01*
X484583Y973712D01*
X484076Y972638D01*
X483502Y971598D01*
X483399Y971203D01*
X483226Y970835D01*
X483003Y969670D01*
X482704Y968518D01*
X482666Y967913D01*
X482627Y967711D01*
X482640Y967505D01*
X482601Y966900D01*
X482601Y958457D01*
X482706Y957621D01*
X482712Y956779D01*
X482905Y956048D01*
X482999Y955301D01*
X483309Y954518D01*
X483524Y953703D01*
X483892Y953044D01*
X484170Y952343D01*
X484664Y951661D01*
X485075Y950926D01*
X485595Y950379D01*
X486038Y949768D01*
X486687Y949231D01*
X487268Y948621D01*
X487906Y948221D01*
X488488Y947739D01*
X489250Y947379D01*
X489964Y946933D01*
X490683Y946704D01*
X491366Y946382D01*
X492192Y946224D01*
X492995Y945968D01*
X493749Y945925D01*
X494490Y945783D01*
X495299Y945833D01*
X495299Y901701D01*
X451174Y901701D01*
X451223Y902394D01*
X451072Y903223D01*
X451020Y904063D01*
X450788Y904781D01*
X450653Y905524D01*
X450300Y906289D01*
X450041Y907090D01*
X449638Y907728D01*
X449323Y908413D01*
X448792Y909066D01*
X448341Y909779D01*
X447791Y910297D01*
X447316Y910882D01*
X446639Y911382D01*
X446026Y911960D01*
X445364Y912325D01*
X444758Y912773D01*
X443979Y913090D01*
X443241Y913498D01*
X442509Y913687D01*
X441811Y913971D01*
X440978Y914083D01*
X440161Y914295D01*
X438753Y914385D01*
X438659Y914398D01*
X438621Y914393D01*
X438543Y914398D01*
X382599Y914398D01*
X382599Y972344D01*
X383126Y974309D01*
X383269Y975352D01*
X383501Y976381D01*
X383484Y976923D01*
X383558Y977460D01*
X383438Y978505D01*
X383406Y979561D01*
X383256Y980082D01*
X383193Y980621D01*
X382816Y981606D01*
X382524Y982618D01*
X382249Y983084D01*
X382055Y983591D01*
X381445Y984450D01*
X380910Y985359D01*
X380340Y986006D01*
X380213Y986185D01*
X380094Y986286D01*
X379839Y986576D01*
X375099Y991315D01*
X375099Y1010910D01*
X374976Y1011888D01*
X374947Y1012875D01*
X374819Y1013316D01*
X374819Y1092520D01*
X374670Y1093700D01*
X374597Y1094884D01*
X374472Y1095271D01*
X374421Y1095676D01*
X373983Y1096782D01*
X373618Y1097911D01*
X373400Y1098256D01*
X373251Y1098634D01*
X372554Y1099593D01*
X371918Y1100600D01*
X371620Y1100880D01*
X371382Y1101208D01*
X370468Y1101965D01*
X369603Y1102781D01*
X369246Y1102978D01*
X368932Y1103238D01*
X367858Y1103744D01*
X366818Y1104319D01*
X366423Y1104421D01*
X366055Y1104594D01*
X364890Y1104818D01*
X363738Y1105116D01*
X363133Y1105155D01*
X362931Y1105193D01*
X362725Y1105181D01*
X362120Y1105219D01*
X304480Y1105219D01*
X303300Y1105070D01*
X302115Y1104997D01*
X301728Y1104872D01*
X301324Y1104821D01*
X300218Y1104383D01*
X299088Y1104018D01*
X298744Y1103800D01*
X298366Y1103651D01*
X297406Y1102954D01*
X296400Y1102318D01*
X296120Y1102020D01*
X295791Y1101782D01*
X295034Y1100868D01*
X294219Y1100003D01*
X294022Y1099646D01*
X293762Y1099332D01*
X293255Y1098258D01*
X292681Y1097218D01*
X292579Y1096823D01*
X292405Y1096455D01*
X292182Y1095290D01*
X291884Y1094138D01*
X291845Y1093533D01*
X291806Y1093331D01*
X291819Y1093125D01*
X291780Y1092520D01*
X291780Y685480D01*
X291929Y684300D01*
X292003Y683115D01*
X292128Y682728D01*
X292179Y682324D01*
X292616Y681218D01*
X292982Y680088D01*
X293199Y679744D01*
X293349Y679366D01*
X294045Y678406D01*
X294682Y677400D01*
X294979Y677120D01*
X295218Y676791D01*
X296131Y676034D01*
X296997Y675219D01*
X297353Y675022D01*
X297668Y674762D01*
X298742Y674255D01*
X299782Y673681D01*
X300177Y673579D01*
X300545Y673405D01*
X301710Y673182D01*
X302862Y672884D01*
X303467Y672845D01*
X303669Y672806D01*
X303875Y672819D01*
X304480Y672780D01*
X339273Y672780D01*
X340253Y672904D01*
X341239Y672933D01*
X341824Y673102D01*
X342429Y673179D01*
X343347Y673542D01*
X344295Y673815D01*
X344821Y674125D01*
X345388Y674349D01*
X346186Y674929D01*
X347036Y675429D01*
X347793Y676095D01*
X347962Y676218D01*
X348041Y676314D01*
X348253Y676500D01*
X351260Y679508D01*
X367380Y686184D01*
X367634Y686329D01*
X367911Y686419D01*
X369012Y687115D01*
X370143Y687760D01*
X370352Y687963D01*
X370600Y688119D01*
X371494Y689069D01*
X372428Y689973D01*
X372581Y690222D01*
X372781Y690434D01*
X373410Y691574D01*
X374092Y692685D01*
X374178Y692964D01*
X374319Y693219D01*
X374645Y694481D01*
X375029Y695725D01*
X375043Y696016D01*
X375116Y696299D01*
X375219Y697917D01*
X375219Y764789D01*
X375396Y765472D01*
X375460Y766480D01*
X375493Y766684D01*
X375481Y766807D01*
X375499Y767089D01*
X375499Y786685D01*
X379923Y791109D01*
X380568Y791940D01*
X381284Y792716D01*
X381541Y793193D01*
X381873Y793622D01*
X382293Y794590D01*
X382792Y795517D01*
X382922Y796043D01*
X383138Y796541D01*
X383303Y797580D01*
X383556Y798605D01*
X383552Y799148D01*
X383637Y799683D01*
X383538Y800731D01*
X383529Y801786D01*
X383360Y802630D01*
X383339Y802850D01*
X383286Y802998D01*
X383210Y803375D01*
X382599Y805655D01*
X382599Y863601D01*
X438543Y863601D01*
X439378Y863706D01*
X440221Y863712D01*
X440951Y863905D01*
X441699Y863999D01*
X442481Y864309D01*
X443297Y864524D01*
X443956Y864892D01*
X444657Y865170D01*
X445338Y865664D01*
X446074Y866075D01*
X446621Y866595D01*
X447232Y867038D01*
X447769Y867687D01*
X448379Y868268D01*
X448779Y868906D01*
X449261Y869488D01*
X449620Y870250D01*
X450067Y870964D01*
X450296Y871683D01*
X450618Y872366D01*
X450776Y873192D01*
X451032Y873995D01*
X451074Y874749D01*
X451217Y875490D01*
X451167Y876299D01*
X495299Y876299D01*
X495299Y832174D01*
X494605Y832223D01*
X493776Y832072D01*
X492936Y832020D01*
X492219Y831788D01*
X491476Y831653D01*
X490710Y831300D01*
X489909Y831041D01*
X489272Y830638D01*
X488586Y830323D01*
X487933Y829791D01*
X487221Y829341D01*
X486703Y828791D01*
X486118Y828316D01*
X485617Y827638D01*
X485039Y827026D01*
X484675Y826366D01*
X484226Y825758D01*
X483909Y824978D01*
X483502Y824241D01*
X483312Y823509D01*
X483029Y822811D01*
X482916Y821978D01*
X482704Y821161D01*
X482614Y819753D01*
X482602Y819659D01*
X482606Y819621D01*
X482601Y819543D01*
X482601Y816500D01*
X482750Y815320D01*
X482823Y814135D01*
X482948Y813748D01*
X482999Y813344D01*
X483437Y812238D01*
X483802Y811108D01*
X484020Y810764D01*
X484170Y810386D01*
X484866Y809426D01*
X485503Y808420D01*
X485801Y808139D01*
X486038Y807811D01*
X486952Y807054D01*
X487818Y806239D01*
X488174Y806042D01*
X488488Y805782D01*
X489563Y805275D01*
X490603Y804701D01*
X490998Y804599D01*
X491366Y804425D01*
X492531Y804202D01*
X493683Y803904D01*
X494287Y803865D01*
X494490Y803826D01*
X494696Y803839D01*
X495299Y803800D01*
X495299Y745903D01*
X495299Y745901D01*
X495299Y745897D01*
X495299Y687999D01*
X487156Y687999D01*
X480695Y689730D01*
X474904Y693074D01*
X472460Y695518D01*
X471575Y696205D01*
X471262Y696500D01*
X471093Y696593D01*
X470292Y697257D01*
X470107Y697344D01*
X469947Y697468D01*
X468673Y698020D01*
X467414Y698613D01*
X467215Y698652D01*
X467028Y698733D01*
X465655Y698951D01*
X464290Y699213D01*
X464087Y699200D01*
X463886Y699232D01*
X462499Y699102D01*
X461115Y699016D01*
X460922Y698954D01*
X460718Y698935D01*
X459404Y698463D01*
X458088Y698037D01*
X457917Y697929D01*
X457725Y697860D01*
X456576Y697081D01*
X455400Y696337D01*
X455259Y696188D01*
X455092Y696074D01*
X454176Y695037D01*
X453219Y694022D01*
X453120Y693843D01*
X452985Y693690D01*
X452354Y692456D01*
X451681Y691237D01*
X451630Y691039D01*
X451537Y690858D01*
X451233Y689506D01*
X450884Y688157D01*
X450866Y687874D01*
X450839Y687754D01*
X450845Y687548D01*
X450816Y687102D01*
X450806Y687050D01*
X450810Y686996D01*
X450780Y686539D01*
X450780Y619350D01*
X428649Y597219D01*
X422727Y597219D01*
X421749Y597096D01*
X420762Y597067D01*
X420175Y596897D01*
X419571Y596821D01*
X418655Y596459D01*
X417705Y596185D01*
X417179Y595875D01*
X416613Y595651D01*
X415815Y595072D01*
X414964Y594571D01*
X414207Y593904D01*
X414038Y593782D01*
X413959Y593686D01*
X413747Y593500D01*
X410739Y590492D01*
X391443Y582499D01*
X370557Y582499D01*
X351260Y590492D01*
X348253Y593499D01*
X347475Y594103D01*
X346756Y594781D01*
X346223Y595076D01*
X345740Y595450D01*
X344835Y595842D01*
X343971Y596319D01*
X343380Y596472D01*
X342821Y596714D01*
X341848Y596868D01*
X340891Y597116D01*
X339884Y597180D01*
X339679Y597213D01*
X339557Y597201D01*
X339273Y597219D01*
X304480Y597219D01*
X303300Y597070D01*
X302115Y596997D01*
X301728Y596872D01*
X301324Y596821D01*
X300218Y596383D01*
X299088Y596018D01*
X298744Y595800D01*
X298366Y595651D01*
X297406Y594954D01*
X296400Y594318D01*
X296120Y594020D01*
X295791Y593782D01*
X295034Y592868D01*
X294219Y592003D01*
X294022Y591646D01*
X293762Y591332D01*
X293255Y590258D01*
X292681Y589218D01*
X292579Y588823D01*
X292405Y588455D01*
X292182Y587290D01*
X291884Y586138D01*
X291845Y585533D01*
X291806Y585331D01*
X291819Y585125D01*
X291780Y584520D01*
X291780Y350963D01*
X291817Y350672D01*
X291794Y350382D01*
X292015Y349100D01*
X292179Y347807D01*
X292286Y347535D01*
X292336Y347247D01*
X292870Y346059D01*
X293349Y344848D01*
X293521Y344612D01*
X293640Y344346D01*
X294453Y343328D01*
X295218Y342274D01*
X295443Y342088D01*
X295625Y341860D01*
X296664Y341076D01*
X297668Y340245D01*
X297932Y340120D01*
X298165Y339944D01*
X299620Y339230D01*
X308493Y335554D01*
X335554Y308494D01*
X350200Y273135D01*
X350200Y234865D01*
X335554Y199506D01*
X308494Y172446D01*
X273135Y157799D01*
X234865Y157799D01*
G37*
%LPD*%
%LPC*%
G36*
X624557Y582499D02*
X624557Y582499D01*
X605260Y590492D01*
X602253Y593500D01*
X601475Y594103D01*
X600756Y594781D01*
X600221Y595076D01*
X599740Y595450D01*
X598835Y595841D01*
X597971Y596319D01*
X597379Y596472D01*
X596820Y596714D01*
X595848Y596868D01*
X594891Y597116D01*
X593883Y597180D01*
X593679Y597213D01*
X593556Y597201D01*
X593273Y597219D01*
X587350Y597219D01*
X565219Y619350D01*
X565219Y686539D01*
X565045Y687919D01*
X565029Y688095D01*
X564997Y688603D01*
X564974Y688675D01*
X564915Y689301D01*
X564847Y689493D01*
X564821Y689695D01*
X564310Y690986D01*
X563840Y692295D01*
X563726Y692464D01*
X563651Y692653D01*
X562836Y693775D01*
X562054Y694928D01*
X561901Y695063D01*
X561782Y695228D01*
X560711Y696114D01*
X559670Y697034D01*
X559490Y697126D01*
X559332Y697257D01*
X558073Y697850D01*
X556838Y698482D01*
X556639Y698527D01*
X556455Y698613D01*
X555093Y698875D01*
X553734Y699180D01*
X553530Y699174D01*
X553331Y699213D01*
X551945Y699127D01*
X550555Y699085D01*
X550359Y699029D01*
X550156Y699016D01*
X548837Y698590D01*
X547498Y698203D01*
X547322Y698100D01*
X547129Y698037D01*
X545955Y697295D01*
X544757Y696589D01*
X544546Y696403D01*
X544440Y696337D01*
X544297Y696185D01*
X543540Y695518D01*
X541095Y693074D01*
X535304Y689730D01*
X528844Y687999D01*
X520701Y687999D01*
X520701Y745897D01*
X520700Y745899D01*
X520701Y745903D01*
X520701Y803801D01*
X521879Y803949D01*
X523063Y804023D01*
X523450Y804148D01*
X523855Y804199D01*
X524961Y804636D01*
X526090Y805002D01*
X526435Y805219D01*
X526813Y805369D01*
X527773Y806065D01*
X528779Y806702D01*
X529059Y806999D01*
X529388Y807238D01*
X530144Y808151D01*
X530960Y809017D01*
X531157Y809373D01*
X531417Y809688D01*
X531923Y810762D01*
X532498Y811802D01*
X532600Y812197D01*
X532773Y812565D01*
X532997Y813730D01*
X533295Y814882D01*
X533334Y815487D01*
X533373Y815689D01*
X533360Y815895D01*
X533398Y816500D01*
X533398Y819543D01*
X533293Y820378D01*
X533287Y821221D01*
X533094Y821951D01*
X533000Y822699D01*
X532691Y823481D01*
X532475Y824297D01*
X532107Y824957D01*
X531830Y825657D01*
X531336Y826338D01*
X530924Y827074D01*
X530403Y827622D01*
X529961Y828232D01*
X529313Y828769D01*
X528732Y829379D01*
X528093Y829779D01*
X527511Y830261D01*
X526748Y830621D01*
X526035Y831067D01*
X525317Y831296D01*
X524634Y831618D01*
X523807Y831776D01*
X523004Y832032D01*
X522251Y832074D01*
X521510Y832217D01*
X520701Y832167D01*
X520701Y876299D01*
X564825Y876299D01*
X564776Y875605D01*
X564928Y874776D01*
X564979Y873936D01*
X565211Y873219D01*
X565347Y872476D01*
X565699Y871710D01*
X565958Y870909D01*
X566361Y870272D01*
X566677Y869586D01*
X567208Y868933D01*
X567659Y868221D01*
X568208Y867703D01*
X568684Y867118D01*
X569361Y866617D01*
X569974Y866039D01*
X570634Y865675D01*
X571241Y865226D01*
X572022Y864909D01*
X572759Y864502D01*
X573491Y864312D01*
X574189Y864029D01*
X575022Y863916D01*
X575839Y863704D01*
X577246Y863614D01*
X577341Y863602D01*
X577378Y863606D01*
X577457Y863601D01*
X633400Y863601D01*
X633400Y805656D01*
X632789Y803376D01*
X632646Y802334D01*
X632414Y801303D01*
X632431Y800761D01*
X632357Y800225D01*
X632478Y799178D01*
X632509Y798123D01*
X632659Y797602D01*
X632722Y797064D01*
X633099Y796080D01*
X633391Y795067D01*
X633666Y794600D01*
X633860Y794094D01*
X634470Y793234D01*
X635005Y792326D01*
X635573Y791680D01*
X635701Y791500D01*
X635822Y791398D01*
X636076Y791108D01*
X640500Y786684D01*
X640500Y767089D01*
X640624Y766112D01*
X640653Y765125D01*
X640780Y764684D01*
X640780Y697917D01*
X640817Y697627D01*
X640794Y697336D01*
X641015Y696055D01*
X641179Y694761D01*
X641286Y694489D01*
X641336Y694202D01*
X641870Y693013D01*
X642349Y691803D01*
X642521Y691566D01*
X642640Y691300D01*
X643453Y690283D01*
X644218Y689228D01*
X644443Y689042D01*
X644625Y688814D01*
X645664Y688030D01*
X646668Y687199D01*
X646932Y687075D01*
X647165Y686899D01*
X648620Y686184D01*
X664739Y679508D01*
X679508Y664739D01*
X687500Y645443D01*
X687500Y624557D01*
X679508Y605260D01*
X664739Y590492D01*
X645443Y582499D01*
X624557Y582499D01*
G37*
%LPD*%
%LPC*%
G36*
X533399Y279399D02*
X533399Y279399D01*
X533399Y352576D01*
X547001Y348157D01*
X561250Y340896D01*
X574189Y331496D01*
X585496Y320189D01*
X594896Y307250D01*
X602157Y293001D01*
X606576Y279399D01*
X533399Y279399D01*
G37*
%LPD*%
%LPC*%
G36*
X533399Y228601D02*
X533399Y228601D01*
X606576Y228601D01*
X602157Y214999D01*
X594896Y200749D01*
X585496Y187811D01*
X574189Y176504D01*
X561250Y167103D01*
X547001Y159843D01*
X533399Y155423D01*
X533399Y228601D01*
G37*
%LPD*%
%LPC*%
G36*
X409423Y279399D02*
X409423Y279399D01*
X412420Y288622D01*
X412421Y288624D01*
X412421Y288625D01*
X413843Y293001D01*
X421103Y307250D01*
X430504Y320189D01*
X441811Y331496D01*
X454749Y340896D01*
X468999Y348157D01*
X482601Y352576D01*
X482601Y279399D01*
X409423Y279399D01*
G37*
%LPD*%
%LPC*%
G36*
X468999Y159843D02*
X468999Y159843D01*
X454749Y167103D01*
X441811Y176504D01*
X430504Y187811D01*
X421103Y200749D01*
X413843Y214999D01*
X409423Y228601D01*
X482601Y228601D01*
X482601Y155423D01*
X468999Y159843D01*
G37*
%LPD*%
%LPC*%
G36*
X139701Y1282701D02*
X139701Y1282701D01*
X139701Y1326508D01*
X143888Y1325675D01*
X154427Y1321310D01*
X163910Y1314974D01*
X171974Y1306910D01*
X178310Y1297427D01*
X182675Y1286888D01*
X183508Y1282701D01*
X139701Y1282701D01*
G37*
%LPD*%
%LPC*%
G36*
X139701Y965201D02*
X139701Y965201D01*
X139701Y1009008D01*
X143888Y1008175D01*
X154427Y1003810D01*
X163910Y997474D01*
X171974Y989410D01*
X178310Y979927D01*
X182675Y969388D01*
X183508Y965201D01*
X139701Y965201D01*
G37*
%LPD*%
%LPC*%
G36*
X139701Y647701D02*
X139701Y647701D01*
X139701Y691508D01*
X143888Y690675D01*
X154427Y686310D01*
X163910Y679974D01*
X171974Y671910D01*
X178310Y662427D01*
X182675Y651888D01*
X183508Y647701D01*
X139701Y647701D01*
G37*
%LPD*%
%LPC*%
G36*
X832491Y1282701D02*
X832491Y1282701D01*
X833324Y1286888D01*
X837689Y1297427D01*
X844026Y1306910D01*
X852090Y1314974D01*
X861573Y1321310D01*
X872111Y1325675D01*
X876299Y1326508D01*
X876299Y1282701D01*
X832491Y1282701D01*
G37*
%LPD*%
%LPC*%
G36*
X266701Y1320799D02*
X266701Y1320799D01*
X310508Y1320799D01*
X309675Y1316611D01*
X305310Y1306073D01*
X298974Y1296590D01*
X290910Y1288526D01*
X281427Y1282189D01*
X270888Y1277824D01*
X266701Y1276991D01*
X266701Y1320799D01*
G37*
%LPD*%
%LPC*%
G36*
X520701Y1320799D02*
X520701Y1320799D01*
X564508Y1320799D01*
X563675Y1316611D01*
X559310Y1306073D01*
X552974Y1296590D01*
X544910Y1288526D01*
X535427Y1282189D01*
X524888Y1277824D01*
X520701Y1276991D01*
X520701Y1320799D01*
G37*
%LPD*%
%LPC*%
G36*
X774701Y1320799D02*
X774701Y1320799D01*
X818508Y1320799D01*
X817675Y1316611D01*
X813310Y1306073D01*
X806974Y1296590D01*
X798910Y1288526D01*
X789427Y1282189D01*
X778888Y1277824D01*
X774701Y1276991D01*
X774701Y1320799D01*
G37*
%LPD*%
%LPC*%
G36*
X139701Y1257299D02*
X139701Y1257299D01*
X183508Y1257299D01*
X182675Y1253111D01*
X178310Y1242573D01*
X171974Y1233090D01*
X163910Y1225026D01*
X154427Y1218689D01*
X143888Y1214324D01*
X139701Y1213491D01*
X139701Y1257299D01*
G37*
%LPD*%
%LPC*%
G36*
X832491Y965201D02*
X832491Y965201D01*
X833324Y969388D01*
X837689Y979927D01*
X844026Y989410D01*
X852090Y997474D01*
X861573Y1003810D01*
X872111Y1008175D01*
X876299Y1009008D01*
X876299Y965201D01*
X832491Y965201D01*
G37*
%LPD*%
%LPC*%
G36*
X139701Y939799D02*
X139701Y939799D01*
X183508Y939799D01*
X182675Y935611D01*
X178310Y925073D01*
X171974Y915590D01*
X163910Y907526D01*
X154427Y901189D01*
X143888Y896824D01*
X139701Y895991D01*
X139701Y939799D01*
G37*
%LPD*%
%LPC*%
G36*
X832491Y647701D02*
X832491Y647701D01*
X833324Y651888D01*
X837689Y662427D01*
X844026Y671910D01*
X852090Y679974D01*
X861573Y686310D01*
X872111Y690675D01*
X876299Y691508D01*
X876299Y647701D01*
X832491Y647701D01*
G37*
%LPD*%
%LPC*%
G36*
X139701Y622299D02*
X139701Y622299D01*
X183508Y622299D01*
X182675Y618111D01*
X178310Y607573D01*
X171974Y598090D01*
X163910Y590026D01*
X154427Y583689D01*
X143888Y579324D01*
X139701Y578491D01*
X139701Y622299D01*
G37*
%LPD*%
%LPC*%
G36*
X237111Y1277824D02*
X237111Y1277824D01*
X226573Y1282189D01*
X217090Y1288526D01*
X209026Y1296590D01*
X202689Y1306073D01*
X198324Y1316611D01*
X197491Y1320799D01*
X241299Y1320799D01*
X241299Y1276991D01*
X237111Y1277824D01*
G37*
%LPD*%
%LPC*%
G36*
X491111Y1277824D02*
X491111Y1277824D01*
X480573Y1282189D01*
X471090Y1288526D01*
X463026Y1296590D01*
X456689Y1306073D01*
X452324Y1316611D01*
X451491Y1320799D01*
X495299Y1320799D01*
X495299Y1276991D01*
X491111Y1277824D01*
G37*
%LPD*%
%LPC*%
G36*
X745111Y1277824D02*
X745111Y1277824D01*
X734573Y1282189D01*
X725090Y1288526D01*
X717026Y1296590D01*
X710689Y1306073D01*
X706324Y1316611D01*
X705491Y1320799D01*
X749299Y1320799D01*
X749299Y1276991D01*
X745111Y1277824D01*
G37*
%LPD*%
%LPC*%
G36*
X872111Y1214324D02*
X872111Y1214324D01*
X861573Y1218689D01*
X852090Y1225026D01*
X844026Y1233090D01*
X837689Y1242573D01*
X833324Y1253111D01*
X832491Y1257299D01*
X876299Y1257299D01*
X876299Y1213491D01*
X872111Y1214324D01*
G37*
%LPD*%
%LPC*%
G36*
X872111Y896824D02*
X872111Y896824D01*
X861573Y901189D01*
X852090Y907526D01*
X844026Y915590D01*
X837689Y925073D01*
X833324Y935611D01*
X832491Y939799D01*
X876299Y939799D01*
X876299Y895991D01*
X872111Y896824D01*
G37*
%LPD*%
%LPC*%
G36*
X872111Y579324D02*
X872111Y579324D01*
X861573Y583689D01*
X852090Y590026D01*
X844026Y598090D01*
X837689Y607573D01*
X833324Y618111D01*
X832491Y622299D01*
X876299Y622299D01*
X876299Y578491D01*
X872111Y579324D01*
G37*
%LPD*%
%LPC*%
G36*
X507998Y253998D02*
X507998Y253998D01*
X507998Y254002D01*
X508002Y254002D01*
X508002Y253998D01*
X507998Y253998D01*
G37*
%LPD*%
%LPC*%
G36*
X507998Y888998D02*
X507998Y888998D01*
X507998Y889002D01*
X508002Y889002D01*
X508002Y888998D01*
X507998Y888998D01*
G37*
%LPD*%
D10*
X190500Y0D02*
X825500Y0D01*
X825500Y1460500D02*
X190500Y1460500D01*
X0Y1270000D02*
X0Y190500D01*
X0Y1270000D02*
X56Y1274603D01*
X222Y1279204D01*
X500Y1283799D01*
X889Y1288386D01*
X1389Y1292962D01*
X1999Y1297525D01*
X2719Y1302072D01*
X3549Y1306600D01*
X4488Y1311107D01*
X5536Y1315590D01*
X6691Y1320046D01*
X7954Y1324473D01*
X9324Y1328868D01*
X10799Y1333228D01*
X12379Y1337552D01*
X14064Y1341837D01*
X15851Y1346079D01*
X17740Y1350277D01*
X19731Y1354428D01*
X21821Y1358530D01*
X24009Y1362580D01*
X26295Y1366576D01*
X28676Y1370515D01*
X31152Y1374396D01*
X33722Y1378216D01*
X36382Y1381973D01*
X39133Y1385664D01*
X41972Y1389288D01*
X44898Y1392842D01*
X47909Y1396325D01*
X51003Y1399734D01*
X54178Y1403066D01*
X57434Y1406322D01*
X60766Y1409497D01*
X64175Y1412591D01*
X67658Y1415602D01*
X71212Y1418528D01*
X74836Y1421367D01*
X78527Y1424118D01*
X82284Y1426778D01*
X86104Y1429348D01*
X89985Y1431824D01*
X93924Y1434205D01*
X97920Y1436491D01*
X101970Y1438679D01*
X106072Y1440769D01*
X110223Y1442760D01*
X114421Y1444649D01*
X118663Y1446436D01*
X122948Y1448121D01*
X127272Y1449701D01*
X131632Y1451176D01*
X136027Y1452546D01*
X140454Y1453809D01*
X144910Y1454964D01*
X149393Y1456012D01*
X153900Y1456951D01*
X158428Y1457781D01*
X162975Y1458501D01*
X167538Y1459111D01*
X172114Y1459611D01*
X176701Y1460000D01*
X181296Y1460278D01*
X185897Y1460444D01*
X190500Y1460500D01*
X825500Y1460500D02*
X830103Y1460444D01*
X834704Y1460278D01*
X839299Y1460000D01*
X843886Y1459611D01*
X848462Y1459111D01*
X853025Y1458501D01*
X857572Y1457781D01*
X862100Y1456951D01*
X866607Y1456012D01*
X871090Y1454964D01*
X875546Y1453809D01*
X879973Y1452546D01*
X884368Y1451176D01*
X888728Y1449701D01*
X893052Y1448121D01*
X897337Y1446436D01*
X901579Y1444649D01*
X905777Y1442760D01*
X909928Y1440769D01*
X914030Y1438679D01*
X918080Y1436491D01*
X922076Y1434205D01*
X926015Y1431824D01*
X929896Y1429348D01*
X933716Y1426778D01*
X937473Y1424118D01*
X941164Y1421367D01*
X944788Y1418528D01*
X948342Y1415602D01*
X951825Y1412591D01*
X955234Y1409497D01*
X958566Y1406322D01*
X961822Y1403066D01*
X964997Y1399734D01*
X968091Y1396325D01*
X971102Y1392842D01*
X974028Y1389288D01*
X976867Y1385664D01*
X979618Y1381973D01*
X982278Y1378216D01*
X984848Y1374396D01*
X987324Y1370515D01*
X989705Y1366576D01*
X991991Y1362580D01*
X994179Y1358530D01*
X996269Y1354428D01*
X998260Y1350277D01*
X1000149Y1346079D01*
X1001936Y1341837D01*
X1003621Y1337552D01*
X1005201Y1333228D01*
X1006676Y1328868D01*
X1008046Y1324473D01*
X1009309Y1320046D01*
X1010464Y1315590D01*
X1011512Y1311107D01*
X1012451Y1306600D01*
X1013281Y1302072D01*
X1014001Y1297525D01*
X1014611Y1292962D01*
X1015111Y1288386D01*
X1015500Y1283799D01*
X1015778Y1279204D01*
X1015944Y1274603D01*
X1016000Y1270000D01*
X1016000Y190500D02*
X1015944Y185897D01*
X1015778Y181296D01*
X1015500Y176701D01*
X1015111Y172114D01*
X1014611Y167538D01*
X1014001Y162975D01*
X1013281Y158428D01*
X1012451Y153900D01*
X1011512Y149393D01*
X1010464Y144910D01*
X1009309Y140454D01*
X1008046Y136027D01*
X1006676Y131632D01*
X1005201Y127272D01*
X1003621Y122948D01*
X1001936Y118663D01*
X1000149Y114421D01*
X998260Y110223D01*
X996269Y106072D01*
X994179Y101970D01*
X991991Y97920D01*
X989705Y93924D01*
X987324Y89985D01*
X984848Y86104D01*
X982278Y82284D01*
X979618Y78527D01*
X976867Y74836D01*
X974028Y71212D01*
X971102Y67658D01*
X968091Y64175D01*
X964997Y60766D01*
X961822Y57434D01*
X958566Y54178D01*
X955234Y51003D01*
X951825Y47909D01*
X948342Y44898D01*
X944788Y41972D01*
X941164Y39133D01*
X937473Y36382D01*
X933716Y33722D01*
X929896Y31152D01*
X926015Y28676D01*
X922076Y26295D01*
X918080Y24009D01*
X914030Y21821D01*
X909928Y19731D01*
X905777Y17740D01*
X901579Y15851D01*
X897337Y14064D01*
X893052Y12379D01*
X888728Y10799D01*
X884368Y9324D01*
X879973Y7954D01*
X875546Y6691D01*
X871090Y5536D01*
X866607Y4488D01*
X862100Y3549D01*
X857572Y2719D01*
X853025Y1999D01*
X848462Y1389D01*
X843886Y889D01*
X839299Y500D01*
X834704Y222D01*
X830103Y56D01*
X825500Y0D01*
X190500Y0D02*
X185897Y56D01*
X181296Y222D01*
X176701Y500D01*
X172114Y889D01*
X167538Y1389D01*
X162975Y1999D01*
X158428Y2719D01*
X153900Y3549D01*
X149393Y4488D01*
X144910Y5536D01*
X140454Y6691D01*
X136027Y7954D01*
X131632Y9324D01*
X127272Y10799D01*
X122948Y12379D01*
X118663Y14064D01*
X114421Y15851D01*
X110223Y17740D01*
X106072Y19731D01*
X101970Y21821D01*
X97920Y24009D01*
X93924Y26295D01*
X89985Y28676D01*
X86104Y31152D01*
X82284Y33722D01*
X78527Y36382D01*
X74836Y39133D01*
X71212Y41972D01*
X67658Y44898D01*
X64175Y47909D01*
X60766Y51003D01*
X57434Y54178D01*
X54178Y57434D01*
X51003Y60766D01*
X47909Y64175D01*
X44898Y67658D01*
X41972Y71212D01*
X39133Y74836D01*
X36382Y78527D01*
X33722Y82284D01*
X31152Y86104D01*
X28676Y89985D01*
X26295Y93924D01*
X24009Y97920D01*
X21821Y101970D01*
X19731Y106072D01*
X17740Y110223D01*
X15851Y114421D01*
X14064Y118663D01*
X12379Y122948D01*
X10799Y127272D01*
X9324Y131632D01*
X7954Y136027D01*
X6691Y140454D01*
X5536Y144910D01*
X4488Y149393D01*
X3549Y153900D01*
X2719Y158428D01*
X1999Y162975D01*
X1389Y167538D01*
X889Y172114D01*
X500Y176701D01*
X222Y181296D01*
X56Y185897D01*
X0Y190500D01*
X1016000Y190500D02*
X1016000Y1270000D01*
D11*
X508000Y889000D03*
D12*
X412600Y1032100D03*
X508000Y1032100D03*
X603400Y1032100D03*
X413000Y745900D03*
X508000Y745900D03*
X603000Y745900D03*
D13*
X254000Y254000D03*
X508000Y254000D03*
X762000Y254000D03*
D14*
X508000Y745900D02*
X508000Y889000D01*
D15*
X508000Y1333500D03*
X254000Y1333500D03*
X762000Y1333500D03*
X889000Y1270000D03*
X127000Y1270000D03*
X127000Y952500D03*
X127000Y635000D03*
X127000Y317500D03*
X889000Y317500D03*
X889000Y635000D03*
X889000Y952500D03*
X508000Y889000D03*
X762000Y1143000D03*
D14*
X603400Y1143000D02*
X603400Y1032100D01*
X603400Y1143000D02*
X762000Y1143000D01*
X762000Y254000D01*
D15*
X254000Y1143000D03*
X381000Y635000D03*
D14*
X413000Y635000D01*
X413000Y745900D01*
X412600Y1143000D02*
X254000Y1143000D01*
X412600Y1143000D02*
X412600Y1032100D01*
X412600Y1143000D02*
X508000Y1143000D01*
X508000Y1032100D01*
X254000Y1143000D02*
X254000Y635000D01*
X254000Y254000D01*
X254000Y635000D02*
X381000Y635000D01*
D15*
X635000Y635000D03*
D14*
X603000Y635000D01*
X603000Y745900D01*
M02*
