G75*
%MOIN*%
%OFA0B0*%
%FSLAX25Y25*%
%IPPOS*%
%LPD*%
%AMOC8*
5,1,8,0,0,1.08239X$1,22.5*
%
%ADD10C,0.00394*%
%ADD11R,0.05906X0.05118*%
%ADD12R,0.08661X0.07087*%
%ADD13C,0.02362*%
%ADD14C,0.06000*%
%ADD15C,0.00984*%
%ADD16C,0.02362*%
%ADD17C,0.02559*%
D10*
X0023000Y0023933D02*
X0053000Y0023933D01*
X0053362Y0023937D01*
X0053725Y0023951D01*
X0054087Y0023972D01*
X0054448Y0024003D01*
X0054808Y0024042D01*
X0055167Y0024090D01*
X0055525Y0024147D01*
X0055882Y0024212D01*
X0056237Y0024286D01*
X0056590Y0024369D01*
X0056941Y0024460D01*
X0057289Y0024559D01*
X0057635Y0024667D01*
X0057979Y0024783D01*
X0058319Y0024908D01*
X0058656Y0025040D01*
X0058990Y0025181D01*
X0059321Y0025330D01*
X0059648Y0025487D01*
X0059971Y0025651D01*
X0060290Y0025823D01*
X0060604Y0026003D01*
X0060915Y0026191D01*
X0061220Y0026386D01*
X0061521Y0026588D01*
X0061817Y0026798D01*
X0062107Y0027014D01*
X0062393Y0027238D01*
X0062673Y0027468D01*
X0062947Y0027705D01*
X0063215Y0027949D01*
X0063478Y0028199D01*
X0063734Y0028455D01*
X0063984Y0028718D01*
X0064228Y0028986D01*
X0064465Y0029260D01*
X0064695Y0029540D01*
X0064919Y0029826D01*
X0065135Y0030116D01*
X0065345Y0030412D01*
X0065547Y0030713D01*
X0065742Y0031018D01*
X0065930Y0031329D01*
X0066110Y0031643D01*
X0066282Y0031962D01*
X0066446Y0032285D01*
X0066603Y0032612D01*
X0066752Y0032943D01*
X0066893Y0033277D01*
X0067025Y0033614D01*
X0067150Y0033954D01*
X0067266Y0034298D01*
X0067374Y0034644D01*
X0067473Y0034992D01*
X0067564Y0035343D01*
X0067647Y0035696D01*
X0067721Y0036051D01*
X0067786Y0036408D01*
X0067843Y0036766D01*
X0067891Y0037125D01*
X0067930Y0037485D01*
X0067961Y0037846D01*
X0067982Y0038208D01*
X0067996Y0038571D01*
X0068000Y0038933D01*
X0068000Y0118933D01*
X0067996Y0119295D01*
X0067982Y0119658D01*
X0067961Y0120020D01*
X0067930Y0120381D01*
X0067891Y0120741D01*
X0067843Y0121100D01*
X0067786Y0121458D01*
X0067721Y0121815D01*
X0067647Y0122170D01*
X0067564Y0122523D01*
X0067473Y0122874D01*
X0067374Y0123222D01*
X0067266Y0123568D01*
X0067150Y0123912D01*
X0067025Y0124252D01*
X0066893Y0124589D01*
X0066752Y0124923D01*
X0066603Y0125254D01*
X0066446Y0125581D01*
X0066282Y0125904D01*
X0066110Y0126223D01*
X0065930Y0126537D01*
X0065742Y0126848D01*
X0065547Y0127153D01*
X0065345Y0127454D01*
X0065135Y0127750D01*
X0064919Y0128040D01*
X0064695Y0128326D01*
X0064465Y0128606D01*
X0064228Y0128880D01*
X0063984Y0129148D01*
X0063734Y0129411D01*
X0063478Y0129667D01*
X0063215Y0129917D01*
X0062947Y0130161D01*
X0062673Y0130398D01*
X0062393Y0130628D01*
X0062107Y0130852D01*
X0061817Y0131068D01*
X0061521Y0131278D01*
X0061220Y0131480D01*
X0060915Y0131675D01*
X0060604Y0131863D01*
X0060290Y0132043D01*
X0059971Y0132215D01*
X0059648Y0132379D01*
X0059321Y0132536D01*
X0058990Y0132685D01*
X0058656Y0132826D01*
X0058319Y0132958D01*
X0057979Y0133083D01*
X0057635Y0133199D01*
X0057289Y0133307D01*
X0056941Y0133406D01*
X0056590Y0133497D01*
X0056237Y0133580D01*
X0055882Y0133654D01*
X0055525Y0133719D01*
X0055167Y0133776D01*
X0054808Y0133824D01*
X0054448Y0133863D01*
X0054087Y0133894D01*
X0053725Y0133915D01*
X0053362Y0133929D01*
X0053000Y0133933D01*
X0023000Y0133933D01*
X0022638Y0133929D01*
X0022275Y0133915D01*
X0021913Y0133894D01*
X0021552Y0133863D01*
X0021192Y0133824D01*
X0020833Y0133776D01*
X0020475Y0133719D01*
X0020118Y0133654D01*
X0019763Y0133580D01*
X0019410Y0133497D01*
X0019059Y0133406D01*
X0018711Y0133307D01*
X0018365Y0133199D01*
X0018021Y0133083D01*
X0017681Y0132958D01*
X0017344Y0132826D01*
X0017010Y0132685D01*
X0016679Y0132536D01*
X0016352Y0132379D01*
X0016029Y0132215D01*
X0015710Y0132043D01*
X0015396Y0131863D01*
X0015085Y0131675D01*
X0014780Y0131480D01*
X0014479Y0131278D01*
X0014183Y0131068D01*
X0013893Y0130852D01*
X0013607Y0130628D01*
X0013327Y0130398D01*
X0013053Y0130161D01*
X0012785Y0129917D01*
X0012522Y0129667D01*
X0012266Y0129411D01*
X0012016Y0129148D01*
X0011772Y0128880D01*
X0011535Y0128606D01*
X0011305Y0128326D01*
X0011081Y0128040D01*
X0010865Y0127750D01*
X0010655Y0127454D01*
X0010453Y0127153D01*
X0010258Y0126848D01*
X0010070Y0126537D01*
X0009890Y0126223D01*
X0009718Y0125904D01*
X0009554Y0125581D01*
X0009397Y0125254D01*
X0009248Y0124923D01*
X0009107Y0124589D01*
X0008975Y0124252D01*
X0008850Y0123912D01*
X0008734Y0123568D01*
X0008626Y0123222D01*
X0008527Y0122874D01*
X0008436Y0122523D01*
X0008353Y0122170D01*
X0008279Y0121815D01*
X0008214Y0121458D01*
X0008157Y0121100D01*
X0008109Y0120741D01*
X0008070Y0120381D01*
X0008039Y0120020D01*
X0008018Y0119658D01*
X0008004Y0119295D01*
X0008000Y0118933D01*
X0008000Y0038933D01*
X0008004Y0038571D01*
X0008018Y0038208D01*
X0008039Y0037846D01*
X0008070Y0037485D01*
X0008109Y0037125D01*
X0008157Y0036766D01*
X0008214Y0036408D01*
X0008279Y0036051D01*
X0008353Y0035696D01*
X0008436Y0035343D01*
X0008527Y0034992D01*
X0008626Y0034644D01*
X0008734Y0034298D01*
X0008850Y0033954D01*
X0008975Y0033614D01*
X0009107Y0033277D01*
X0009248Y0032943D01*
X0009397Y0032612D01*
X0009554Y0032285D01*
X0009718Y0031962D01*
X0009890Y0031643D01*
X0010070Y0031329D01*
X0010258Y0031018D01*
X0010453Y0030713D01*
X0010655Y0030412D01*
X0010865Y0030116D01*
X0011081Y0029826D01*
X0011305Y0029540D01*
X0011535Y0029260D01*
X0011772Y0028986D01*
X0012016Y0028718D01*
X0012266Y0028455D01*
X0012522Y0028199D01*
X0012785Y0027949D01*
X0013053Y0027705D01*
X0013327Y0027468D01*
X0013607Y0027238D01*
X0013893Y0027014D01*
X0014183Y0026798D01*
X0014479Y0026588D01*
X0014780Y0026386D01*
X0015085Y0026191D01*
X0015396Y0026003D01*
X0015710Y0025823D01*
X0016029Y0025651D01*
X0016352Y0025487D01*
X0016679Y0025330D01*
X0017010Y0025181D01*
X0017344Y0025040D01*
X0017681Y0024908D01*
X0018021Y0024783D01*
X0018365Y0024667D01*
X0018711Y0024559D01*
X0019059Y0024460D01*
X0019410Y0024369D01*
X0019763Y0024286D01*
X0020118Y0024212D01*
X0020475Y0024147D01*
X0020833Y0024090D01*
X0021192Y0024042D01*
X0021552Y0024003D01*
X0021913Y0023972D01*
X0022275Y0023951D01*
X0022638Y0023937D01*
X0023000Y0023933D01*
D11*
X0018000Y0055193D03*
X0018000Y0062673D03*
X0038000Y0062673D03*
X0038000Y0055193D03*
X0048000Y0055193D03*
X0048000Y0062673D03*
X0018000Y0095193D03*
X0018000Y0102673D03*
D12*
X0058000Y0072722D03*
X0058000Y0052644D03*
D13*
X0053000Y0078933D03*
X0023000Y0068933D03*
X0023000Y0088933D03*
D14*
X0018000Y0115933D02*
X0018000Y0121933D01*
X0028000Y0121933D02*
X0028000Y0115933D01*
X0038000Y0115933D02*
X0038000Y0121933D01*
X0048000Y0121933D02*
X0048000Y0115933D01*
X0058000Y0115933D02*
X0058000Y0121933D01*
X0058000Y0041933D02*
X0058000Y0035933D01*
X0048000Y0035933D02*
X0048000Y0041933D01*
X0038000Y0041933D02*
X0038000Y0035933D01*
X0028000Y0035933D02*
X0028000Y0041933D01*
X0018000Y0041933D02*
X0018000Y0035933D01*
D15*
X0015486Y0029141D02*
X0018277Y0027530D01*
X0020313Y0026984D01*
X0020228Y0027410D01*
X0020228Y0027683D01*
X0023000Y0027683D01*
X0023000Y0027683D01*
X0025772Y0027683D01*
X0025772Y0027410D01*
X0025665Y0026875D01*
X0025547Y0026591D01*
X0035453Y0026591D01*
X0035335Y0026875D01*
X0035228Y0027410D01*
X0035228Y0027683D01*
X0038000Y0027683D01*
X0038000Y0027683D01*
X0040772Y0027683D01*
X0040772Y0027410D01*
X0040665Y0026875D01*
X0040547Y0026591D01*
X0050453Y0026591D01*
X0050335Y0026875D01*
X0050228Y0027410D01*
X0050228Y0027683D01*
X0053000Y0027683D01*
X0053000Y0027683D01*
X0055772Y0027683D01*
X0055772Y0027410D01*
X0055687Y0026984D01*
X0057723Y0027530D01*
X0060514Y0029141D01*
X0062792Y0031419D01*
X0064403Y0034210D01*
X0064403Y0034210D01*
X0064949Y0036246D01*
X0064523Y0036161D01*
X0064250Y0036161D01*
X0064250Y0038933D01*
X0064250Y0038933D01*
X0064250Y0036161D01*
X0063977Y0036161D01*
X0063442Y0036268D01*
X0062937Y0036477D01*
X0062492Y0036774D01*
X0062492Y0035580D01*
X0062382Y0034881D01*
X0062163Y0034209D01*
X0061842Y0033579D01*
X0061426Y0033007D01*
X0060926Y0032507D01*
X0060354Y0032091D01*
X0059724Y0031770D01*
X0059052Y0031552D01*
X0058492Y0031463D01*
X0058492Y0038441D01*
X0057508Y0038441D01*
X0057508Y0031463D01*
X0056948Y0031552D01*
X0056276Y0031770D01*
X0055646Y0032091D01*
X0055074Y0032507D01*
X0054574Y0033007D01*
X0054158Y0033579D01*
X0053837Y0034209D01*
X0053618Y0034881D01*
X0053508Y0035580D01*
X0053508Y0038441D01*
X0057508Y0038441D01*
X0057508Y0039425D01*
X0053508Y0039425D01*
X0053508Y0042287D01*
X0053618Y0042985D01*
X0053837Y0043657D01*
X0054158Y0044287D01*
X0054574Y0044859D01*
X0055074Y0045359D01*
X0055646Y0045775D01*
X0056276Y0046096D01*
X0056948Y0046315D01*
X0057508Y0046403D01*
X0057508Y0039425D01*
X0058492Y0039425D01*
X0061522Y0039425D01*
X0061478Y0039206D01*
X0061478Y0038933D01*
X0064250Y0038933D01*
X0064250Y0038933D01*
X0061478Y0038933D01*
X0061478Y0038660D01*
X0061522Y0038441D01*
X0058492Y0038441D01*
X0058492Y0039425D01*
X0058492Y0046403D01*
X0059052Y0046315D01*
X0059724Y0046096D01*
X0060354Y0045775D01*
X0060926Y0045359D01*
X0061426Y0044859D01*
X0061842Y0044287D01*
X0062163Y0043657D01*
X0062382Y0042985D01*
X0062492Y0042287D01*
X0062492Y0041092D01*
X0062937Y0041389D01*
X0063442Y0041598D01*
X0063977Y0041705D01*
X0064250Y0041705D01*
X0064250Y0038933D01*
X0064250Y0038933D01*
X0064250Y0041705D01*
X0064523Y0041705D01*
X0065058Y0041598D01*
X0065343Y0041481D01*
X0065343Y0056386D01*
X0065058Y0056268D01*
X0064523Y0056161D01*
X0064250Y0056161D01*
X0064250Y0058933D01*
X0064250Y0058933D01*
X0064250Y0056161D01*
X0063977Y0056161D01*
X0063610Y0056234D01*
X0063610Y0048570D01*
X0062861Y0047821D01*
X0053139Y0047821D01*
X0052390Y0048570D01*
X0052390Y0052732D01*
X0052232Y0052732D01*
X0052232Y0052104D01*
X0051483Y0051354D01*
X0050461Y0051354D01*
X0050461Y0045525D01*
X0051628Y0044357D01*
X0052280Y0042784D01*
X0052280Y0035082D01*
X0051628Y0033509D01*
X0050424Y0032305D01*
X0048851Y0031654D01*
X0047149Y0031654D01*
X0045576Y0032305D01*
X0044372Y0033509D01*
X0043720Y0035082D01*
X0043720Y0042784D01*
X0044372Y0044357D01*
X0045539Y0045525D01*
X0045539Y0051354D01*
X0044517Y0051354D01*
X0043768Y0052104D01*
X0043768Y0058282D01*
X0044305Y0058820D01*
X0044131Y0058920D01*
X0043853Y0059198D01*
X0043657Y0059538D01*
X0043555Y0059918D01*
X0043555Y0062181D01*
X0047508Y0062181D01*
X0047508Y0063165D01*
X0043555Y0063165D01*
X0043555Y0065429D01*
X0043657Y0065808D01*
X0043853Y0066148D01*
X0044131Y0066426D01*
X0044471Y0066623D01*
X0044851Y0066724D01*
X0047508Y0066724D01*
X0047508Y0063165D01*
X0048492Y0063165D01*
X0052445Y0063165D01*
X0052445Y0065429D01*
X0052343Y0065808D01*
X0052147Y0066148D01*
X0051869Y0066426D01*
X0051529Y0066623D01*
X0051149Y0066724D01*
X0048492Y0066724D01*
X0048492Y0063165D01*
X0048492Y0062181D01*
X0052445Y0062181D01*
X0052445Y0059918D01*
X0052343Y0059538D01*
X0052147Y0059198D01*
X0051869Y0058920D01*
X0051695Y0058820D01*
X0052232Y0058282D01*
X0052232Y0057654D01*
X0055940Y0057654D01*
X0056392Y0057467D01*
X0061896Y0057467D01*
X0061794Y0057620D01*
X0061585Y0058125D01*
X0061478Y0058660D01*
X0061478Y0058933D01*
X0064250Y0058933D01*
X0064250Y0058933D01*
X0061478Y0058933D01*
X0061478Y0059206D01*
X0061585Y0059742D01*
X0061794Y0060246D01*
X0062097Y0060700D01*
X0062483Y0061086D01*
X0062937Y0061389D01*
X0063442Y0061598D01*
X0063977Y0061705D01*
X0064250Y0061705D01*
X0064250Y0058933D01*
X0064250Y0058933D01*
X0064250Y0061705D01*
X0064523Y0061705D01*
X0065058Y0061598D01*
X0065343Y0061481D01*
X0065343Y0076386D01*
X0065058Y0076268D01*
X0064523Y0076161D01*
X0064250Y0076161D01*
X0064250Y0078933D01*
X0064250Y0078933D01*
X0064250Y0076161D01*
X0063977Y0076161D01*
X0063823Y0076192D01*
X0063823Y0073215D01*
X0058492Y0073215D01*
X0057508Y0073215D01*
X0057508Y0077758D01*
X0055407Y0077758D01*
X0055570Y0078153D01*
X0055673Y0078670D01*
X0055673Y0078933D01*
X0053000Y0078933D01*
X0053000Y0078933D01*
X0050327Y0078933D01*
X0050327Y0078670D01*
X0050430Y0078153D01*
X0050631Y0077667D01*
X0050924Y0077229D01*
X0051296Y0076857D01*
X0051734Y0076564D01*
X0052177Y0076380D01*
X0052177Y0073215D01*
X0057508Y0073215D01*
X0057508Y0072230D01*
X0058492Y0072230D01*
X0058492Y0067687D01*
X0062527Y0067687D01*
X0062907Y0067789D01*
X0063247Y0067985D01*
X0063525Y0068263D01*
X0063721Y0068603D01*
X0063823Y0068983D01*
X0063823Y0072230D01*
X0058492Y0072230D01*
X0058492Y0073215D01*
X0058492Y0077758D01*
X0061737Y0077758D01*
X0061585Y0078125D01*
X0061478Y0078660D01*
X0061478Y0078933D01*
X0064250Y0078933D01*
X0064250Y0078933D01*
X0061478Y0078933D01*
X0061478Y0079206D01*
X0061585Y0079742D01*
X0061794Y0080246D01*
X0062097Y0080700D01*
X0062483Y0081086D01*
X0062937Y0081389D01*
X0063442Y0081598D01*
X0063977Y0081705D01*
X0064250Y0081705D01*
X0064250Y0078933D01*
X0064250Y0078933D01*
X0064250Y0081705D01*
X0064523Y0081705D01*
X0065058Y0081598D01*
X0065343Y0081481D01*
X0065343Y0096386D01*
X0065058Y0096268D01*
X0064523Y0096161D01*
X0064250Y0096161D01*
X0064250Y0098933D01*
X0064250Y0098933D01*
X0064250Y0096161D01*
X0063977Y0096161D01*
X0063442Y0096268D01*
X0062937Y0096477D01*
X0062483Y0096780D01*
X0062097Y0097166D01*
X0061794Y0097620D01*
X0061585Y0098125D01*
X0061478Y0098660D01*
X0061478Y0098933D01*
X0064250Y0098933D01*
X0064250Y0098933D01*
X0061478Y0098933D01*
X0061478Y0099206D01*
X0061585Y0099742D01*
X0061794Y0100246D01*
X0062097Y0100700D01*
X0062483Y0101086D01*
X0062937Y0101389D01*
X0063442Y0101598D01*
X0063977Y0101705D01*
X0064250Y0101705D01*
X0064250Y0098933D01*
X0064250Y0098933D01*
X0064250Y0101705D01*
X0064523Y0101705D01*
X0065058Y0101598D01*
X0065343Y0101481D01*
X0065343Y0116386D01*
X0065058Y0116268D01*
X0064523Y0116161D01*
X0064250Y0116161D01*
X0064250Y0118933D01*
X0064250Y0118933D01*
X0064250Y0116161D01*
X0063977Y0116161D01*
X0063442Y0116268D01*
X0062937Y0116477D01*
X0062483Y0116780D01*
X0062280Y0116984D01*
X0062280Y0115082D01*
X0061628Y0113509D01*
X0060424Y0112305D01*
X0058851Y0111654D01*
X0057149Y0111654D01*
X0055576Y0112305D01*
X0054372Y0113509D01*
X0053720Y0115082D01*
X0053720Y0122784D01*
X0054372Y0124357D01*
X0055576Y0125561D01*
X0057149Y0126213D01*
X0058851Y0126213D01*
X0060424Y0125561D01*
X0061628Y0124357D01*
X0062280Y0122784D01*
X0062280Y0120882D01*
X0062483Y0121086D01*
X0062937Y0121389D01*
X0063442Y0121598D01*
X0063977Y0121705D01*
X0064250Y0121705D01*
X0064250Y0118933D01*
X0064250Y0118933D01*
X0064250Y0121705D01*
X0064523Y0121705D01*
X0064949Y0121620D01*
X0064403Y0123656D01*
X0062792Y0126447D01*
X0060514Y0128725D01*
X0057723Y0130336D01*
X0055687Y0130882D01*
X0055772Y0130456D01*
X0055772Y0130183D01*
X0053000Y0130183D01*
X0053000Y0127411D01*
X0053273Y0127411D01*
X0053808Y0127518D01*
X0054313Y0127727D01*
X0054767Y0128030D01*
X0055153Y0128416D01*
X0055456Y0128870D01*
X0055665Y0129375D01*
X0055772Y0129910D01*
X0055772Y0130183D01*
X0053000Y0130183D01*
X0053000Y0130183D01*
X0053000Y0127411D01*
X0052727Y0127411D01*
X0052192Y0127518D01*
X0051687Y0127727D01*
X0051233Y0128030D01*
X0050847Y0128416D01*
X0050544Y0128870D01*
X0050335Y0129375D01*
X0050228Y0129910D01*
X0050228Y0130183D01*
X0053000Y0130183D01*
X0053000Y0130183D01*
X0053000Y0130183D01*
X0050228Y0130183D01*
X0050228Y0130456D01*
X0050335Y0130992D01*
X0050453Y0131276D01*
X0040547Y0131276D01*
X0040665Y0130992D01*
X0040772Y0130456D01*
X0040772Y0130183D01*
X0038000Y0130183D01*
X0038000Y0127411D01*
X0038273Y0127411D01*
X0038808Y0127518D01*
X0039313Y0127727D01*
X0039767Y0128030D01*
X0040153Y0128416D01*
X0040456Y0128870D01*
X0040665Y0129375D01*
X0040772Y0129910D01*
X0040772Y0130183D01*
X0038000Y0130183D01*
X0038000Y0130183D01*
X0038000Y0127411D01*
X0037727Y0127411D01*
X0037192Y0127518D01*
X0036687Y0127727D01*
X0036233Y0128030D01*
X0035847Y0128416D01*
X0035544Y0128870D01*
X0035335Y0129375D01*
X0035228Y0129910D01*
X0035228Y0130183D01*
X0038000Y0130183D01*
X0038000Y0130183D01*
X0038000Y0130183D01*
X0035228Y0130183D01*
X0035228Y0130456D01*
X0035335Y0130992D01*
X0035453Y0131276D01*
X0025547Y0131276D01*
X0025665Y0130992D01*
X0025772Y0130456D01*
X0025772Y0130183D01*
X0023000Y0130183D01*
X0023000Y0127411D01*
X0023273Y0127411D01*
X0023808Y0127518D01*
X0024313Y0127727D01*
X0024767Y0128030D01*
X0025153Y0128416D01*
X0025456Y0128870D01*
X0025665Y0129375D01*
X0025772Y0129910D01*
X0025772Y0130183D01*
X0023000Y0130183D01*
X0023000Y0130183D01*
X0023000Y0127411D01*
X0022727Y0127411D01*
X0022192Y0127518D01*
X0021687Y0127727D01*
X0021233Y0128030D01*
X0020847Y0128416D01*
X0020544Y0128870D01*
X0020335Y0129375D01*
X0020228Y0129910D01*
X0020228Y0130183D01*
X0023000Y0130183D01*
X0023000Y0130183D01*
X0023000Y0130183D01*
X0020228Y0130183D01*
X0020228Y0130456D01*
X0020313Y0130882D01*
X0018277Y0130336D01*
X0015486Y0128725D01*
X0013208Y0126447D01*
X0011597Y0123656D01*
X0011051Y0121620D01*
X0011477Y0121705D01*
X0011750Y0121705D01*
X0011750Y0118933D01*
X0011750Y0116161D01*
X0012023Y0116161D01*
X0012558Y0116268D01*
X0013063Y0116477D01*
X0013517Y0116780D01*
X0013720Y0116984D01*
X0013720Y0115082D01*
X0014372Y0113509D01*
X0015576Y0112305D01*
X0016228Y0112035D01*
X0016228Y0106512D01*
X0014517Y0106512D01*
X0013768Y0105762D01*
X0013768Y0100835D01*
X0013517Y0101086D01*
X0013063Y0101389D01*
X0012558Y0101598D01*
X0012023Y0101705D01*
X0011750Y0101705D01*
X0011750Y0098933D01*
X0011750Y0096161D01*
X0012023Y0096161D01*
X0012558Y0096268D01*
X0013063Y0096477D01*
X0013517Y0096780D01*
X0013555Y0096818D01*
X0013555Y0095685D01*
X0017508Y0095685D01*
X0017508Y0094701D01*
X0013555Y0094701D01*
X0013555Y0092437D01*
X0013657Y0092058D01*
X0013853Y0091718D01*
X0014131Y0091440D01*
X0014471Y0091243D01*
X0014851Y0091142D01*
X0017508Y0091142D01*
X0017508Y0094701D01*
X0018492Y0094701D01*
X0018492Y0095685D01*
X0022445Y0095685D01*
X0022445Y0097948D01*
X0022343Y0098328D01*
X0022147Y0098668D01*
X0021869Y0098946D01*
X0021695Y0099047D01*
X0022232Y0099584D01*
X0022232Y0105762D01*
X0021483Y0106512D01*
X0019772Y0106512D01*
X0019772Y0112035D01*
X0020424Y0112305D01*
X0021628Y0113509D01*
X0022280Y0115082D01*
X0022280Y0122784D01*
X0021628Y0124357D01*
X0020424Y0125561D01*
X0018851Y0126213D01*
X0017149Y0126213D01*
X0015576Y0125561D01*
X0014372Y0124357D01*
X0013720Y0122784D01*
X0013720Y0120882D01*
X0013517Y0121086D01*
X0013063Y0121389D01*
X0012558Y0121598D01*
X0012023Y0121705D01*
X0011750Y0121705D01*
X0011750Y0118933D01*
X0011750Y0118933D01*
X0011750Y0116161D01*
X0011477Y0116161D01*
X0010942Y0116268D01*
X0010657Y0116386D01*
X0010657Y0101481D01*
X0010942Y0101598D01*
X0011477Y0101705D01*
X0011750Y0101705D01*
X0011750Y0098933D01*
X0011750Y0098933D01*
X0011750Y0096161D01*
X0011477Y0096161D01*
X0010942Y0096268D01*
X0010657Y0096386D01*
X0010657Y0081481D01*
X0010942Y0081598D01*
X0011477Y0081705D01*
X0011750Y0081705D01*
X0011750Y0078933D01*
X0011750Y0076161D01*
X0012023Y0076161D01*
X0012558Y0076268D01*
X0013063Y0076477D01*
X0013517Y0076780D01*
X0013903Y0077166D01*
X0014206Y0077620D01*
X0014415Y0078125D01*
X0014522Y0078660D01*
X0014522Y0078933D01*
X0011750Y0078933D01*
X0011750Y0078933D01*
X0011750Y0076161D01*
X0011477Y0076161D01*
X0010942Y0076268D01*
X0010657Y0076386D01*
X0010657Y0061481D01*
X0010942Y0061598D01*
X0011477Y0061705D01*
X0011750Y0061705D01*
X0011750Y0058933D01*
X0011750Y0056161D01*
X0011750Y0058933D01*
X0011750Y0058933D01*
X0011750Y0058933D01*
X0011750Y0061705D01*
X0012023Y0061705D01*
X0012558Y0061598D01*
X0013063Y0061389D01*
X0013517Y0061086D01*
X0013555Y0061048D01*
X0013555Y0062181D01*
X0017508Y0062181D01*
X0017508Y0063165D01*
X0013555Y0063165D01*
X0013555Y0065429D01*
X0013657Y0065808D01*
X0013853Y0066148D01*
X0014131Y0066426D01*
X0014471Y0066623D01*
X0014851Y0066724D01*
X0017508Y0066724D01*
X0017508Y0063165D01*
X0018492Y0063165D01*
X0022445Y0063165D01*
X0022445Y0065429D01*
X0022343Y0065808D01*
X0022147Y0066148D01*
X0021869Y0066426D01*
X0021529Y0066623D01*
X0021149Y0066724D01*
X0018492Y0066724D01*
X0018492Y0063165D01*
X0018492Y0062181D01*
X0022445Y0062181D01*
X0022445Y0059918D01*
X0022343Y0059538D01*
X0022147Y0059198D01*
X0021869Y0058920D01*
X0021695Y0058820D01*
X0022232Y0058282D01*
X0022232Y0052104D01*
X0021483Y0051354D01*
X0019772Y0051354D01*
X0019772Y0045831D01*
X0020424Y0045561D01*
X0021628Y0044357D01*
X0022280Y0042784D01*
X0022280Y0035082D01*
X0021628Y0033509D01*
X0020424Y0032305D01*
X0018851Y0031654D01*
X0017149Y0031654D01*
X0015576Y0032305D01*
X0014372Y0033509D01*
X0013720Y0035082D01*
X0013720Y0036984D01*
X0013517Y0036780D01*
X0013063Y0036477D01*
X0012558Y0036268D01*
X0012023Y0036161D01*
X0011750Y0036161D01*
X0011750Y0038933D01*
X0011750Y0038933D01*
X0011750Y0036161D01*
X0011477Y0036161D01*
X0011051Y0036246D01*
X0011597Y0034210D01*
X0013208Y0031419D01*
X0015486Y0029141D01*
X0015847Y0028933D02*
X0020518Y0028933D01*
X0020544Y0028996D02*
X0020335Y0028492D01*
X0020228Y0027956D01*
X0020228Y0027683D01*
X0023000Y0027683D01*
X0023000Y0027683D01*
X0025772Y0027683D01*
X0025772Y0027956D01*
X0025665Y0028492D01*
X0025456Y0028996D01*
X0025153Y0029450D01*
X0024767Y0029836D01*
X0024313Y0030139D01*
X0023808Y0030348D01*
X0023273Y0030455D01*
X0023000Y0030455D01*
X0022727Y0030455D01*
X0022192Y0030348D01*
X0021687Y0030139D01*
X0021233Y0029836D01*
X0020847Y0029450D01*
X0020544Y0028996D01*
X0020228Y0027950D02*
X0017549Y0027950D01*
X0014712Y0029916D02*
X0021353Y0029916D01*
X0023000Y0029916D02*
X0023000Y0029916D01*
X0023000Y0030455D02*
X0023000Y0027683D01*
X0023000Y0027683D01*
X0023000Y0030455D01*
X0023000Y0028933D02*
X0023000Y0028933D01*
X0023000Y0027950D02*
X0023000Y0027950D01*
X0024647Y0029916D02*
X0036353Y0029916D01*
X0036233Y0029836D02*
X0035847Y0029450D01*
X0035544Y0028996D01*
X0035335Y0028492D01*
X0035228Y0027956D01*
X0035228Y0027683D01*
X0038000Y0027683D01*
X0038000Y0027683D01*
X0040772Y0027683D01*
X0040772Y0027956D01*
X0040665Y0028492D01*
X0040456Y0028996D01*
X0040153Y0029450D01*
X0039767Y0029836D01*
X0039313Y0030139D01*
X0038808Y0030348D01*
X0038273Y0030455D01*
X0038000Y0030455D01*
X0037727Y0030455D01*
X0037192Y0030348D01*
X0036687Y0030139D01*
X0036233Y0029836D01*
X0035518Y0028933D02*
X0025482Y0028933D01*
X0025772Y0027950D02*
X0035228Y0027950D01*
X0035316Y0026968D02*
X0025684Y0026968D01*
X0027149Y0031654D02*
X0025576Y0032305D01*
X0024372Y0033509D01*
X0023720Y0035082D01*
X0023720Y0042784D01*
X0024372Y0044357D01*
X0025576Y0045561D01*
X0027149Y0046213D01*
X0028851Y0046213D01*
X0030424Y0045561D01*
X0031628Y0044357D01*
X0032280Y0042784D01*
X0032280Y0035082D01*
X0031628Y0033509D01*
X0030424Y0032305D01*
X0028851Y0031654D01*
X0027149Y0031654D01*
X0026599Y0031881D02*
X0019401Y0031881D01*
X0020983Y0032864D02*
X0025017Y0032864D01*
X0024232Y0033847D02*
X0021768Y0033847D01*
X0022175Y0034830D02*
X0023825Y0034830D01*
X0023720Y0035812D02*
X0022280Y0035812D01*
X0022280Y0036795D02*
X0023720Y0036795D01*
X0023720Y0037778D02*
X0022280Y0037778D01*
X0022280Y0038761D02*
X0023720Y0038761D01*
X0023720Y0039743D02*
X0022280Y0039743D01*
X0022280Y0040726D02*
X0023720Y0040726D01*
X0023720Y0041709D02*
X0022280Y0041709D01*
X0022280Y0042692D02*
X0023720Y0042692D01*
X0024089Y0043675D02*
X0021911Y0043675D01*
X0021328Y0044657D02*
X0024672Y0044657D01*
X0025766Y0045640D02*
X0020234Y0045640D01*
X0019772Y0046623D02*
X0036228Y0046623D01*
X0036228Y0045831D02*
X0035576Y0045561D01*
X0034372Y0044357D01*
X0033720Y0042784D01*
X0033720Y0035082D01*
X0034372Y0033509D01*
X0035576Y0032305D01*
X0037149Y0031654D01*
X0038851Y0031654D01*
X0040424Y0032305D01*
X0041628Y0033509D01*
X0042280Y0035082D01*
X0042280Y0042784D01*
X0041628Y0044357D01*
X0040424Y0045561D01*
X0039772Y0045831D01*
X0039772Y0051354D01*
X0041483Y0051354D01*
X0042232Y0052104D01*
X0042232Y0058282D01*
X0041695Y0058820D01*
X0041869Y0058920D01*
X0042147Y0059198D01*
X0042343Y0059538D01*
X0042445Y0059918D01*
X0042445Y0062181D01*
X0038492Y0062181D01*
X0038492Y0063165D01*
X0042445Y0063165D01*
X0042445Y0065429D01*
X0042343Y0065808D01*
X0042147Y0066148D01*
X0041869Y0066426D01*
X0041529Y0066623D01*
X0041149Y0066724D01*
X0038492Y0066724D01*
X0038492Y0063165D01*
X0037508Y0063165D01*
X0037508Y0062181D01*
X0033555Y0062181D01*
X0033555Y0059918D01*
X0033657Y0059538D01*
X0033853Y0059198D01*
X0034131Y0058920D01*
X0034305Y0058820D01*
X0033768Y0058282D01*
X0033768Y0052104D01*
X0034517Y0051354D01*
X0036228Y0051354D01*
X0036228Y0045831D01*
X0035766Y0045640D02*
X0030234Y0045640D01*
X0031328Y0044657D02*
X0034672Y0044657D01*
X0034089Y0043675D02*
X0031911Y0043675D01*
X0032280Y0042692D02*
X0033720Y0042692D01*
X0033720Y0041709D02*
X0032280Y0041709D01*
X0032280Y0040726D02*
X0033720Y0040726D01*
X0033720Y0039743D02*
X0032280Y0039743D01*
X0032280Y0038761D02*
X0033720Y0038761D01*
X0033720Y0037778D02*
X0032280Y0037778D01*
X0032280Y0036795D02*
X0033720Y0036795D01*
X0033720Y0035812D02*
X0032280Y0035812D01*
X0032175Y0034830D02*
X0033825Y0034830D01*
X0034232Y0033847D02*
X0031768Y0033847D01*
X0030983Y0032864D02*
X0035017Y0032864D01*
X0036599Y0031881D02*
X0029401Y0031881D01*
X0038000Y0030455D02*
X0038000Y0027683D01*
X0038000Y0027683D01*
X0038000Y0030455D01*
X0038000Y0029916D02*
X0038000Y0029916D01*
X0038000Y0028933D02*
X0038000Y0028933D01*
X0038000Y0027950D02*
X0038000Y0027950D01*
X0039647Y0029916D02*
X0051353Y0029916D01*
X0051233Y0029836D02*
X0050847Y0029450D01*
X0050544Y0028996D01*
X0050335Y0028492D01*
X0050228Y0027956D01*
X0050228Y0027683D01*
X0053000Y0027683D01*
X0053000Y0027683D01*
X0055772Y0027683D01*
X0055772Y0027956D01*
X0055665Y0028492D01*
X0055456Y0028996D01*
X0055153Y0029450D01*
X0054767Y0029836D01*
X0054313Y0030139D01*
X0053808Y0030348D01*
X0053273Y0030455D01*
X0053000Y0030455D01*
X0052727Y0030455D01*
X0052192Y0030348D01*
X0051687Y0030139D01*
X0051233Y0029836D01*
X0050518Y0028933D02*
X0040482Y0028933D01*
X0040772Y0027950D02*
X0050228Y0027950D01*
X0050316Y0026968D02*
X0040684Y0026968D01*
X0039401Y0031881D02*
X0046599Y0031881D01*
X0045017Y0032864D02*
X0040983Y0032864D01*
X0041768Y0033847D02*
X0044232Y0033847D01*
X0043825Y0034830D02*
X0042175Y0034830D01*
X0042280Y0035812D02*
X0043720Y0035812D01*
X0043720Y0036795D02*
X0042280Y0036795D01*
X0042280Y0037778D02*
X0043720Y0037778D01*
X0043720Y0038761D02*
X0042280Y0038761D01*
X0042280Y0039743D02*
X0043720Y0039743D01*
X0043720Y0040726D02*
X0042280Y0040726D01*
X0042280Y0041709D02*
X0043720Y0041709D01*
X0043720Y0042692D02*
X0042280Y0042692D01*
X0041911Y0043675D02*
X0044089Y0043675D01*
X0044672Y0044657D02*
X0041328Y0044657D01*
X0040234Y0045640D02*
X0045539Y0045640D01*
X0045539Y0046623D02*
X0039772Y0046623D01*
X0039772Y0047606D02*
X0045539Y0047606D01*
X0045539Y0048588D02*
X0039772Y0048588D01*
X0039772Y0049571D02*
X0045539Y0049571D01*
X0045539Y0050554D02*
X0039772Y0050554D01*
X0041665Y0051537D02*
X0044335Y0051537D01*
X0043768Y0052519D02*
X0042232Y0052519D01*
X0042232Y0053502D02*
X0043768Y0053502D01*
X0043768Y0054485D02*
X0042232Y0054485D01*
X0042232Y0055468D02*
X0043768Y0055468D01*
X0043768Y0056450D02*
X0042232Y0056450D01*
X0042232Y0057433D02*
X0043768Y0057433D01*
X0043902Y0058416D02*
X0042098Y0058416D01*
X0042263Y0059399D02*
X0043737Y0059399D01*
X0043555Y0060381D02*
X0042445Y0060381D01*
X0042445Y0061364D02*
X0043555Y0061364D01*
X0043555Y0063330D02*
X0042445Y0063330D01*
X0042445Y0064313D02*
X0043555Y0064313D01*
X0043555Y0065295D02*
X0042445Y0065295D01*
X0042017Y0066278D02*
X0043983Y0066278D01*
X0047508Y0066278D02*
X0048492Y0066278D01*
X0048492Y0065295D02*
X0047508Y0065295D01*
X0047508Y0064313D02*
X0048492Y0064313D01*
X0048492Y0063330D02*
X0047508Y0063330D01*
X0047508Y0062347D02*
X0038492Y0062347D01*
X0038492Y0063330D02*
X0037508Y0063330D01*
X0037508Y0063165D02*
X0037508Y0066724D01*
X0034851Y0066724D01*
X0034471Y0066623D01*
X0034131Y0066426D01*
X0033853Y0066148D01*
X0033657Y0065808D01*
X0033555Y0065429D01*
X0033555Y0063165D01*
X0037508Y0063165D01*
X0037508Y0062347D02*
X0018492Y0062347D01*
X0018492Y0063330D02*
X0017508Y0063330D01*
X0017508Y0064313D02*
X0018492Y0064313D01*
X0018492Y0065295D02*
X0017508Y0065295D01*
X0017508Y0066278D02*
X0018492Y0066278D01*
X0020631Y0067667D02*
X0020430Y0068153D01*
X0020327Y0068670D01*
X0020327Y0068933D01*
X0023000Y0068933D01*
X0023000Y0066260D01*
X0023263Y0066260D01*
X0023780Y0066363D01*
X0024266Y0066564D01*
X0024704Y0066857D01*
X0025076Y0067229D01*
X0025369Y0067667D01*
X0025570Y0068153D01*
X0025673Y0068670D01*
X0025673Y0068933D01*
X0023000Y0068933D01*
X0023000Y0068933D01*
X0023000Y0066260D01*
X0022737Y0066260D01*
X0022220Y0066363D01*
X0021734Y0066564D01*
X0021296Y0066857D01*
X0020924Y0067229D01*
X0020631Y0067667D01*
X0020902Y0067261D02*
X0010657Y0067261D01*
X0010657Y0068244D02*
X0020412Y0068244D01*
X0020327Y0068933D02*
X0020327Y0069196D01*
X0020430Y0069713D01*
X0020631Y0070199D01*
X0020924Y0070637D01*
X0021296Y0071009D01*
X0021734Y0071302D01*
X0022220Y0071504D01*
X0022737Y0071606D01*
X0023000Y0071606D01*
X0023000Y0068933D01*
X0023000Y0068933D01*
X0023000Y0068933D01*
X0020327Y0068933D01*
X0020333Y0069226D02*
X0010657Y0069226D01*
X0010657Y0070209D02*
X0020638Y0070209D01*
X0021569Y0071192D02*
X0010657Y0071192D01*
X0010657Y0072175D02*
X0052177Y0072175D01*
X0052177Y0072230D02*
X0052177Y0068983D01*
X0052279Y0068603D01*
X0052475Y0068263D01*
X0052753Y0067985D01*
X0053093Y0067789D01*
X0053473Y0067687D01*
X0057508Y0067687D01*
X0057508Y0072230D01*
X0052177Y0072230D01*
X0052177Y0071192D02*
X0024431Y0071192D01*
X0024266Y0071302D02*
X0023780Y0071504D01*
X0023263Y0071606D01*
X0023000Y0071606D01*
X0023000Y0068933D01*
X0025673Y0068933D01*
X0025673Y0069196D01*
X0025570Y0069713D01*
X0025369Y0070199D01*
X0025076Y0070637D01*
X0024704Y0071009D01*
X0024266Y0071302D01*
X0025362Y0070209D02*
X0052177Y0070209D01*
X0052177Y0069226D02*
X0025667Y0069226D01*
X0025588Y0068244D02*
X0052495Y0068244D01*
X0052017Y0066278D02*
X0065343Y0066278D01*
X0065343Y0065295D02*
X0052445Y0065295D01*
X0052445Y0064313D02*
X0065343Y0064313D01*
X0065343Y0063330D02*
X0052445Y0063330D01*
X0052445Y0061364D02*
X0062900Y0061364D01*
X0061884Y0060381D02*
X0052445Y0060381D01*
X0052263Y0059399D02*
X0061517Y0059399D01*
X0061527Y0058416D02*
X0052098Y0058416D01*
X0048492Y0062347D02*
X0065343Y0062347D01*
X0064250Y0061364D02*
X0064250Y0061364D01*
X0064250Y0060381D02*
X0064250Y0060381D01*
X0064250Y0059399D02*
X0064250Y0059399D01*
X0064250Y0058416D02*
X0064250Y0058416D01*
X0064250Y0057433D02*
X0064250Y0057433D01*
X0064250Y0056450D02*
X0064250Y0056450D01*
X0063610Y0055468D02*
X0065343Y0055468D01*
X0065343Y0054485D02*
X0063610Y0054485D01*
X0063610Y0053502D02*
X0065343Y0053502D01*
X0065343Y0052519D02*
X0063610Y0052519D01*
X0063610Y0051537D02*
X0065343Y0051537D01*
X0065343Y0050554D02*
X0063610Y0050554D01*
X0063610Y0049571D02*
X0065343Y0049571D01*
X0065343Y0048588D02*
X0063610Y0048588D01*
X0065343Y0047606D02*
X0050461Y0047606D01*
X0050461Y0048588D02*
X0052390Y0048588D01*
X0052390Y0049571D02*
X0050461Y0049571D01*
X0050461Y0050554D02*
X0052390Y0050554D01*
X0052390Y0051537D02*
X0051665Y0051537D01*
X0052232Y0052519D02*
X0052390Y0052519D01*
X0050461Y0046623D02*
X0065343Y0046623D01*
X0065343Y0045640D02*
X0060540Y0045640D01*
X0061573Y0044657D02*
X0065343Y0044657D01*
X0065343Y0043675D02*
X0062154Y0043675D01*
X0062428Y0042692D02*
X0065343Y0042692D01*
X0065343Y0041709D02*
X0062492Y0041709D01*
X0064250Y0040726D02*
X0064250Y0040726D01*
X0064250Y0039743D02*
X0064250Y0039743D01*
X0064250Y0038761D02*
X0064250Y0038761D01*
X0064250Y0037778D02*
X0064250Y0037778D01*
X0064250Y0036795D02*
X0064250Y0036795D01*
X0064832Y0035812D02*
X0062492Y0035812D01*
X0062365Y0034830D02*
X0064569Y0034830D01*
X0064193Y0033847D02*
X0061979Y0033847D01*
X0061284Y0032864D02*
X0063626Y0032864D01*
X0063059Y0031881D02*
X0059943Y0031881D01*
X0058492Y0031881D02*
X0057508Y0031881D01*
X0057508Y0032864D02*
X0058492Y0032864D01*
X0058492Y0033847D02*
X0057508Y0033847D01*
X0057508Y0034830D02*
X0058492Y0034830D01*
X0058492Y0035812D02*
X0057508Y0035812D01*
X0057508Y0036795D02*
X0058492Y0036795D01*
X0058492Y0037778D02*
X0057508Y0037778D01*
X0057508Y0038761D02*
X0052280Y0038761D01*
X0052280Y0039743D02*
X0053508Y0039743D01*
X0053508Y0040726D02*
X0052280Y0040726D01*
X0052280Y0041709D02*
X0053508Y0041709D01*
X0053572Y0042692D02*
X0052280Y0042692D01*
X0051911Y0043675D02*
X0053846Y0043675D01*
X0054427Y0044657D02*
X0051328Y0044657D01*
X0050461Y0045640D02*
X0055460Y0045640D01*
X0057508Y0045640D02*
X0058492Y0045640D01*
X0058492Y0044657D02*
X0057508Y0044657D01*
X0057508Y0043675D02*
X0058492Y0043675D01*
X0058492Y0042692D02*
X0057508Y0042692D01*
X0057508Y0041709D02*
X0058492Y0041709D01*
X0058492Y0040726D02*
X0057508Y0040726D01*
X0057508Y0039743D02*
X0058492Y0039743D01*
X0058492Y0038761D02*
X0061478Y0038761D01*
X0062271Y0030899D02*
X0013729Y0030899D01*
X0012941Y0031881D02*
X0016599Y0031881D01*
X0015017Y0032864D02*
X0012374Y0032864D01*
X0011807Y0033847D02*
X0014232Y0033847D01*
X0013825Y0034830D02*
X0011431Y0034830D01*
X0011168Y0035812D02*
X0013720Y0035812D01*
X0013720Y0036795D02*
X0013532Y0036795D01*
X0011750Y0036795D02*
X0011750Y0036795D01*
X0011750Y0037778D02*
X0011750Y0037778D01*
X0011750Y0038761D02*
X0011750Y0038761D01*
X0011750Y0038933D02*
X0011750Y0041705D01*
X0011477Y0041705D01*
X0010942Y0041598D01*
X0010657Y0041481D01*
X0010657Y0056386D01*
X0010942Y0056268D01*
X0011477Y0056161D01*
X0011750Y0056161D01*
X0012023Y0056161D01*
X0012558Y0056268D01*
X0013063Y0056477D01*
X0013517Y0056780D01*
X0013768Y0057031D01*
X0013768Y0052104D01*
X0014517Y0051354D01*
X0016228Y0051354D01*
X0016228Y0045831D01*
X0015576Y0045561D01*
X0014372Y0044357D01*
X0013720Y0042784D01*
X0013720Y0040882D01*
X0013517Y0041086D01*
X0013063Y0041389D01*
X0012558Y0041598D01*
X0012023Y0041705D01*
X0011750Y0041705D01*
X0011750Y0038933D01*
X0011750Y0038933D01*
X0011750Y0039743D02*
X0011750Y0039743D01*
X0011750Y0040726D02*
X0011750Y0040726D01*
X0010657Y0041709D02*
X0013720Y0041709D01*
X0013720Y0042692D02*
X0010657Y0042692D01*
X0010657Y0043675D02*
X0014089Y0043675D01*
X0014672Y0044657D02*
X0010657Y0044657D01*
X0010657Y0045640D02*
X0015766Y0045640D01*
X0016228Y0046623D02*
X0010657Y0046623D01*
X0010657Y0047606D02*
X0016228Y0047606D01*
X0016228Y0048588D02*
X0010657Y0048588D01*
X0010657Y0049571D02*
X0016228Y0049571D01*
X0016228Y0050554D02*
X0010657Y0050554D01*
X0010657Y0051537D02*
X0014335Y0051537D01*
X0013768Y0052519D02*
X0010657Y0052519D01*
X0010657Y0053502D02*
X0013768Y0053502D01*
X0013768Y0054485D02*
X0010657Y0054485D01*
X0010657Y0055468D02*
X0013768Y0055468D01*
X0013768Y0056450D02*
X0012999Y0056450D01*
X0011750Y0056450D02*
X0011750Y0056450D01*
X0011750Y0057433D02*
X0011750Y0057433D01*
X0011750Y0058416D02*
X0011750Y0058416D01*
X0011750Y0059399D02*
X0011750Y0059399D01*
X0011750Y0060381D02*
X0011750Y0060381D01*
X0011750Y0061364D02*
X0011750Y0061364D01*
X0013100Y0061364D02*
X0013555Y0061364D01*
X0013555Y0063330D02*
X0010657Y0063330D01*
X0010657Y0064313D02*
X0013555Y0064313D01*
X0013555Y0065295D02*
X0010657Y0065295D01*
X0010657Y0066278D02*
X0013983Y0066278D01*
X0010657Y0062347D02*
X0017508Y0062347D01*
X0022263Y0059399D02*
X0033737Y0059399D01*
X0033902Y0058416D02*
X0022098Y0058416D01*
X0022232Y0057433D02*
X0033768Y0057433D01*
X0033768Y0056450D02*
X0022232Y0056450D01*
X0022232Y0055468D02*
X0033768Y0055468D01*
X0033768Y0054485D02*
X0022232Y0054485D01*
X0022232Y0053502D02*
X0033768Y0053502D01*
X0033768Y0052519D02*
X0022232Y0052519D01*
X0021665Y0051537D02*
X0034335Y0051537D01*
X0036228Y0050554D02*
X0019772Y0050554D01*
X0019772Y0049571D02*
X0036228Y0049571D01*
X0036228Y0048588D02*
X0019772Y0048588D01*
X0019772Y0047606D02*
X0036228Y0047606D01*
X0038000Y0055193D02*
X0038000Y0038933D01*
X0049401Y0031881D02*
X0056057Y0031881D01*
X0054716Y0032864D02*
X0050983Y0032864D01*
X0051768Y0033847D02*
X0054021Y0033847D01*
X0053635Y0034830D02*
X0052175Y0034830D01*
X0052280Y0035812D02*
X0053508Y0035812D01*
X0053508Y0036795D02*
X0052280Y0036795D01*
X0052280Y0037778D02*
X0053508Y0037778D01*
X0053000Y0030455D02*
X0053000Y0027683D01*
X0053000Y0027683D01*
X0053000Y0030455D01*
X0053000Y0029916D02*
X0053000Y0029916D01*
X0053000Y0028933D02*
X0053000Y0028933D01*
X0053000Y0027950D02*
X0053000Y0027950D01*
X0054647Y0029916D02*
X0061288Y0029916D01*
X0060153Y0028933D02*
X0055482Y0028933D01*
X0055772Y0027950D02*
X0058451Y0027950D01*
X0033555Y0060381D02*
X0022445Y0060381D01*
X0022445Y0061364D02*
X0033555Y0061364D01*
X0033555Y0063330D02*
X0022445Y0063330D01*
X0022445Y0064313D02*
X0033555Y0064313D01*
X0033555Y0065295D02*
X0022445Y0065295D01*
X0022645Y0066278D02*
X0022017Y0066278D01*
X0023000Y0066278D02*
X0023000Y0066278D01*
X0023355Y0066278D02*
X0033983Y0066278D01*
X0037508Y0066278D02*
X0038492Y0066278D01*
X0038492Y0065295D02*
X0037508Y0065295D01*
X0037508Y0064313D02*
X0038492Y0064313D01*
X0050327Y0078933D02*
X0053000Y0078933D01*
X0053000Y0078933D01*
X0055673Y0078933D01*
X0055673Y0079196D01*
X0055570Y0079713D01*
X0055369Y0080199D01*
X0055076Y0080637D01*
X0054704Y0081009D01*
X0054266Y0081302D01*
X0053780Y0081504D01*
X0053263Y0081606D01*
X0053000Y0081606D01*
X0052737Y0081606D01*
X0052220Y0081504D01*
X0051734Y0081302D01*
X0051296Y0081009D01*
X0050924Y0080637D01*
X0050631Y0080199D01*
X0050430Y0079713D01*
X0050327Y0079196D01*
X0050327Y0078933D01*
X0050327Y0079054D02*
X0014522Y0079054D01*
X0014522Y0078933D02*
X0014522Y0079206D01*
X0014415Y0079742D01*
X0014206Y0080246D01*
X0013903Y0080700D01*
X0013517Y0081086D01*
X0013063Y0081389D01*
X0012558Y0081598D01*
X0012023Y0081705D01*
X0011750Y0081705D01*
X0011750Y0078933D01*
X0011750Y0078933D01*
X0014522Y0078933D01*
X0014393Y0078071D02*
X0050463Y0078071D01*
X0051064Y0077088D02*
X0013825Y0077088D01*
X0011750Y0077088D02*
X0011750Y0077088D01*
X0011750Y0078071D02*
X0011750Y0078071D01*
X0011750Y0078933D02*
X0011750Y0078933D01*
X0011750Y0079054D02*
X0011750Y0079054D01*
X0011750Y0080037D02*
X0011750Y0080037D01*
X0011750Y0081020D02*
X0011750Y0081020D01*
X0010657Y0082002D02*
X0065343Y0082002D01*
X0065343Y0082985D02*
X0010657Y0082985D01*
X0010657Y0083968D02*
X0065343Y0083968D01*
X0065343Y0084951D02*
X0010657Y0084951D01*
X0010657Y0085933D02*
X0065343Y0085933D01*
X0065343Y0086916D02*
X0024764Y0086916D01*
X0024704Y0086857D02*
X0025076Y0087229D01*
X0025369Y0087667D01*
X0025570Y0088153D01*
X0025673Y0088670D01*
X0025673Y0088933D01*
X0023000Y0088933D01*
X0023000Y0086260D01*
X0023263Y0086260D01*
X0023780Y0086363D01*
X0024266Y0086564D01*
X0024704Y0086857D01*
X0025465Y0087899D02*
X0065343Y0087899D01*
X0065343Y0088882D02*
X0025673Y0088882D01*
X0025673Y0088933D02*
X0025673Y0089196D01*
X0025570Y0089713D01*
X0025369Y0090199D01*
X0025076Y0090637D01*
X0024704Y0091009D01*
X0024266Y0091302D01*
X0023780Y0091504D01*
X0023263Y0091606D01*
X0023000Y0091606D01*
X0022737Y0091606D01*
X0022220Y0091504D01*
X0021734Y0091302D01*
X0021296Y0091009D01*
X0020924Y0090637D01*
X0020631Y0090199D01*
X0020430Y0089713D01*
X0020327Y0089196D01*
X0020327Y0088933D01*
X0020327Y0088670D01*
X0020430Y0088153D01*
X0020631Y0087667D01*
X0020924Y0087229D01*
X0021296Y0086857D01*
X0021734Y0086564D01*
X0022220Y0086363D01*
X0022737Y0086260D01*
X0023000Y0086260D01*
X0023000Y0088933D01*
X0023000Y0088933D01*
X0023000Y0088933D01*
X0020327Y0088933D01*
X0023000Y0088933D01*
X0023000Y0088933D01*
X0025673Y0088933D01*
X0025508Y0089864D02*
X0065343Y0089864D01*
X0065343Y0090847D02*
X0024866Y0090847D01*
X0023000Y0090847D02*
X0023000Y0090847D01*
X0023000Y0091606D02*
X0023000Y0088933D01*
X0023000Y0088933D01*
X0023000Y0091606D01*
X0022343Y0092058D02*
X0022445Y0092437D01*
X0022445Y0094701D01*
X0018492Y0094701D01*
X0018492Y0091142D01*
X0021149Y0091142D01*
X0021529Y0091243D01*
X0021869Y0091440D01*
X0022147Y0091718D01*
X0022343Y0092058D01*
X0022212Y0091830D02*
X0065343Y0091830D01*
X0065343Y0092813D02*
X0022445Y0092813D01*
X0022445Y0093795D02*
X0065343Y0093795D01*
X0065343Y0094778D02*
X0018492Y0094778D01*
X0018492Y0093795D02*
X0017508Y0093795D01*
X0017508Y0092813D02*
X0018492Y0092813D01*
X0018492Y0091830D02*
X0017508Y0091830D01*
X0017508Y0094778D02*
X0010657Y0094778D01*
X0010657Y0093795D02*
X0013555Y0093795D01*
X0013555Y0092813D02*
X0010657Y0092813D01*
X0010657Y0091830D02*
X0013788Y0091830D01*
X0013555Y0095761D02*
X0010657Y0095761D01*
X0011750Y0096744D02*
X0011750Y0096744D01*
X0011750Y0097727D02*
X0011750Y0097727D01*
X0011750Y0098709D02*
X0011750Y0098709D01*
X0011750Y0098933D02*
X0011750Y0098933D01*
X0011750Y0099692D02*
X0011750Y0099692D01*
X0011750Y0100675D02*
X0011750Y0100675D01*
X0011750Y0101658D02*
X0011750Y0101658D01*
X0012260Y0101658D02*
X0013768Y0101658D01*
X0013768Y0102640D02*
X0010657Y0102640D01*
X0010657Y0101658D02*
X0011240Y0101658D01*
X0010657Y0103623D02*
X0013768Y0103623D01*
X0013768Y0104606D02*
X0010657Y0104606D01*
X0010657Y0105589D02*
X0013768Y0105589D01*
X0016228Y0106571D02*
X0010657Y0106571D01*
X0010657Y0107554D02*
X0016228Y0107554D01*
X0016228Y0108537D02*
X0010657Y0108537D01*
X0010657Y0109520D02*
X0016228Y0109520D01*
X0016228Y0110502D02*
X0010657Y0110502D01*
X0010657Y0111485D02*
X0016228Y0111485D01*
X0015413Y0112468D02*
X0010657Y0112468D01*
X0010657Y0113451D02*
X0014430Y0113451D01*
X0013989Y0114433D02*
X0010657Y0114433D01*
X0010657Y0115416D02*
X0013720Y0115416D01*
X0013720Y0116399D02*
X0012875Y0116399D01*
X0011750Y0116399D02*
X0011750Y0116399D01*
X0011750Y0117382D02*
X0011750Y0117382D01*
X0011750Y0118365D02*
X0011750Y0118365D01*
X0011750Y0118933D02*
X0011750Y0118933D01*
X0011750Y0119347D02*
X0011750Y0119347D01*
X0011750Y0120330D02*
X0011750Y0120330D01*
X0011750Y0121313D02*
X0011750Y0121313D01*
X0011232Y0122296D02*
X0013720Y0122296D01*
X0013720Y0121313D02*
X0013177Y0121313D01*
X0013925Y0123278D02*
X0011496Y0123278D01*
X0011946Y0124261D02*
X0014332Y0124261D01*
X0015259Y0125244D02*
X0012514Y0125244D01*
X0013081Y0126227D02*
X0062919Y0126227D01*
X0063486Y0125244D02*
X0060741Y0125244D01*
X0061668Y0124261D02*
X0064054Y0124261D01*
X0064504Y0123278D02*
X0062075Y0123278D01*
X0062280Y0122296D02*
X0064768Y0122296D01*
X0064250Y0121313D02*
X0064250Y0121313D01*
X0064250Y0120330D02*
X0064250Y0120330D01*
X0064250Y0119347D02*
X0064250Y0119347D01*
X0064250Y0118365D02*
X0064250Y0118365D01*
X0064250Y0117382D02*
X0064250Y0117382D01*
X0064250Y0116399D02*
X0064250Y0116399D01*
X0063125Y0116399D02*
X0062280Y0116399D01*
X0062280Y0115416D02*
X0065343Y0115416D01*
X0065343Y0114433D02*
X0062011Y0114433D01*
X0061570Y0113451D02*
X0065343Y0113451D01*
X0065343Y0112468D02*
X0060587Y0112468D01*
X0065343Y0111485D02*
X0019772Y0111485D01*
X0019772Y0110502D02*
X0065343Y0110502D01*
X0065343Y0109520D02*
X0019772Y0109520D01*
X0019772Y0108537D02*
X0065343Y0108537D01*
X0065343Y0107554D02*
X0019772Y0107554D01*
X0019772Y0106571D02*
X0065343Y0106571D01*
X0065343Y0105589D02*
X0022232Y0105589D01*
X0022232Y0104606D02*
X0065343Y0104606D01*
X0065343Y0103623D02*
X0022232Y0103623D01*
X0022232Y0102640D02*
X0065343Y0102640D01*
X0065343Y0101658D02*
X0064760Y0101658D01*
X0064250Y0101658D02*
X0064250Y0101658D01*
X0063740Y0101658D02*
X0022232Y0101658D01*
X0022232Y0100675D02*
X0062080Y0100675D01*
X0061575Y0099692D02*
X0022232Y0099692D01*
X0022106Y0098709D02*
X0061478Y0098709D01*
X0061750Y0097727D02*
X0022445Y0097727D01*
X0022445Y0096744D02*
X0062538Y0096744D01*
X0064250Y0096744D02*
X0064250Y0096744D01*
X0064250Y0097727D02*
X0064250Y0097727D01*
X0064250Y0098709D02*
X0064250Y0098709D01*
X0064250Y0099692D02*
X0064250Y0099692D01*
X0064250Y0100675D02*
X0064250Y0100675D01*
X0065343Y0095761D02*
X0022445Y0095761D01*
X0021134Y0090847D02*
X0010657Y0090847D01*
X0010657Y0089864D02*
X0020492Y0089864D01*
X0020327Y0088882D02*
X0010657Y0088882D01*
X0010657Y0087899D02*
X0020535Y0087899D01*
X0021236Y0086916D02*
X0010657Y0086916D01*
X0013583Y0081020D02*
X0051311Y0081020D01*
X0050564Y0080037D02*
X0014293Y0080037D01*
X0010657Y0076106D02*
X0052177Y0076106D01*
X0052177Y0075123D02*
X0010657Y0075123D01*
X0010657Y0074140D02*
X0052177Y0074140D01*
X0053000Y0078933D02*
X0053000Y0081606D01*
X0053000Y0078933D01*
X0053000Y0078933D01*
X0053000Y0079054D02*
X0053000Y0079054D01*
X0053000Y0080037D02*
X0053000Y0080037D01*
X0053000Y0081020D02*
X0053000Y0081020D01*
X0054689Y0081020D02*
X0062417Y0081020D01*
X0061707Y0080037D02*
X0055436Y0080037D01*
X0055673Y0079054D02*
X0061478Y0079054D01*
X0061607Y0078071D02*
X0055536Y0078071D01*
X0057508Y0077088D02*
X0058492Y0077088D01*
X0058492Y0076106D02*
X0057508Y0076106D01*
X0057508Y0075123D02*
X0058492Y0075123D01*
X0058492Y0074140D02*
X0057508Y0074140D01*
X0057508Y0073157D02*
X0010657Y0073157D01*
X0023000Y0071192D02*
X0023000Y0071192D01*
X0023000Y0070209D02*
X0023000Y0070209D01*
X0023000Y0069226D02*
X0023000Y0069226D01*
X0023000Y0068933D02*
X0023000Y0068933D01*
X0023000Y0068244D02*
X0023000Y0068244D01*
X0023000Y0067261D02*
X0023000Y0067261D01*
X0025098Y0067261D02*
X0065343Y0067261D01*
X0065343Y0068244D02*
X0063505Y0068244D01*
X0063823Y0069226D02*
X0065343Y0069226D01*
X0065343Y0070209D02*
X0063823Y0070209D01*
X0063823Y0071192D02*
X0065343Y0071192D01*
X0065343Y0072175D02*
X0063823Y0072175D01*
X0063823Y0074140D02*
X0065343Y0074140D01*
X0065343Y0073157D02*
X0058492Y0073157D01*
X0058492Y0072175D02*
X0057508Y0072175D01*
X0057508Y0071192D02*
X0058492Y0071192D01*
X0058492Y0070209D02*
X0057508Y0070209D01*
X0057508Y0069226D02*
X0058492Y0069226D01*
X0058492Y0068244D02*
X0057508Y0068244D01*
X0063823Y0075123D02*
X0065343Y0075123D01*
X0065343Y0076106D02*
X0063823Y0076106D01*
X0064250Y0077088D02*
X0064250Y0077088D01*
X0064250Y0078071D02*
X0064250Y0078071D01*
X0064250Y0079054D02*
X0064250Y0079054D01*
X0064250Y0080037D02*
X0064250Y0080037D01*
X0064250Y0081020D02*
X0064250Y0081020D01*
X0050424Y0112305D02*
X0048851Y0111654D01*
X0047149Y0111654D01*
X0045576Y0112305D01*
X0044372Y0113509D01*
X0043720Y0115082D01*
X0043720Y0122784D01*
X0044372Y0124357D01*
X0045576Y0125561D01*
X0047149Y0126213D01*
X0048851Y0126213D01*
X0050424Y0125561D01*
X0051628Y0124357D01*
X0052280Y0122784D01*
X0052280Y0115082D01*
X0051628Y0113509D01*
X0050424Y0112305D01*
X0050587Y0112468D02*
X0055413Y0112468D01*
X0054430Y0113451D02*
X0051570Y0113451D01*
X0052011Y0114433D02*
X0053989Y0114433D01*
X0053720Y0115416D02*
X0052280Y0115416D01*
X0052280Y0116399D02*
X0053720Y0116399D01*
X0053720Y0117382D02*
X0052280Y0117382D01*
X0052280Y0118365D02*
X0053720Y0118365D01*
X0053720Y0119347D02*
X0052280Y0119347D01*
X0052280Y0120330D02*
X0053720Y0120330D01*
X0053720Y0121313D02*
X0052280Y0121313D01*
X0052280Y0122296D02*
X0053720Y0122296D01*
X0053925Y0123278D02*
X0052075Y0123278D01*
X0051668Y0124261D02*
X0054332Y0124261D01*
X0055259Y0125244D02*
X0050741Y0125244D01*
X0051071Y0128192D02*
X0039929Y0128192D01*
X0040582Y0129175D02*
X0050418Y0129175D01*
X0050228Y0130158D02*
X0040772Y0130158D01*
X0040603Y0131140D02*
X0050397Y0131140D01*
X0053000Y0130158D02*
X0053000Y0130158D01*
X0053000Y0129175D02*
X0053000Y0129175D01*
X0053000Y0128192D02*
X0053000Y0128192D01*
X0054929Y0128192D02*
X0061047Y0128192D01*
X0062029Y0127209D02*
X0013971Y0127209D01*
X0014953Y0128192D02*
X0021071Y0128192D01*
X0020418Y0129175D02*
X0016266Y0129175D01*
X0017968Y0130158D02*
X0020228Y0130158D01*
X0023000Y0130158D02*
X0023000Y0130158D01*
X0023000Y0129175D02*
X0023000Y0129175D01*
X0023000Y0128192D02*
X0023000Y0128192D01*
X0024929Y0128192D02*
X0036071Y0128192D01*
X0035418Y0129175D02*
X0025582Y0129175D01*
X0025772Y0130158D02*
X0035228Y0130158D01*
X0035397Y0131140D02*
X0025603Y0131140D01*
X0027149Y0126213D02*
X0025576Y0125561D01*
X0024372Y0124357D01*
X0023720Y0122784D01*
X0023720Y0115082D01*
X0024372Y0113509D01*
X0025576Y0112305D01*
X0027149Y0111654D01*
X0028851Y0111654D01*
X0030424Y0112305D01*
X0031628Y0113509D01*
X0032280Y0115082D01*
X0032280Y0122784D01*
X0031628Y0124357D01*
X0030424Y0125561D01*
X0028851Y0126213D01*
X0027149Y0126213D01*
X0025259Y0125244D02*
X0020741Y0125244D01*
X0021668Y0124261D02*
X0024332Y0124261D01*
X0023925Y0123278D02*
X0022075Y0123278D01*
X0022280Y0122296D02*
X0023720Y0122296D01*
X0023720Y0121313D02*
X0022280Y0121313D01*
X0022280Y0120330D02*
X0023720Y0120330D01*
X0023720Y0119347D02*
X0022280Y0119347D01*
X0022280Y0118365D02*
X0023720Y0118365D01*
X0023720Y0117382D02*
X0022280Y0117382D01*
X0022280Y0116399D02*
X0023720Y0116399D01*
X0023720Y0115416D02*
X0022280Y0115416D01*
X0022011Y0114433D02*
X0023989Y0114433D01*
X0024430Y0113451D02*
X0021570Y0113451D01*
X0020587Y0112468D02*
X0025413Y0112468D01*
X0030587Y0112468D02*
X0035413Y0112468D01*
X0035576Y0112305D02*
X0037149Y0111654D01*
X0038851Y0111654D01*
X0040424Y0112305D01*
X0041628Y0113509D01*
X0042280Y0115082D01*
X0042280Y0122784D01*
X0041628Y0124357D01*
X0040424Y0125561D01*
X0038851Y0126213D01*
X0037149Y0126213D01*
X0035576Y0125561D01*
X0034372Y0124357D01*
X0033720Y0122784D01*
X0033720Y0115082D01*
X0034372Y0113509D01*
X0035576Y0112305D01*
X0034430Y0113451D02*
X0031570Y0113451D01*
X0032011Y0114433D02*
X0033989Y0114433D01*
X0033720Y0115416D02*
X0032280Y0115416D01*
X0032280Y0116399D02*
X0033720Y0116399D01*
X0033720Y0117382D02*
X0032280Y0117382D01*
X0032280Y0118365D02*
X0033720Y0118365D01*
X0033720Y0119347D02*
X0032280Y0119347D01*
X0032280Y0120330D02*
X0033720Y0120330D01*
X0033720Y0121313D02*
X0032280Y0121313D01*
X0032280Y0122296D02*
X0033720Y0122296D01*
X0033925Y0123278D02*
X0032075Y0123278D01*
X0031668Y0124261D02*
X0034332Y0124261D01*
X0035259Y0125244D02*
X0030741Y0125244D01*
X0038000Y0128192D02*
X0038000Y0128192D01*
X0038000Y0129175D02*
X0038000Y0129175D01*
X0038000Y0130158D02*
X0038000Y0130158D01*
X0040741Y0125244D02*
X0045259Y0125244D01*
X0044332Y0124261D02*
X0041668Y0124261D01*
X0042075Y0123278D02*
X0043925Y0123278D01*
X0043720Y0122296D02*
X0042280Y0122296D01*
X0042280Y0121313D02*
X0043720Y0121313D01*
X0043720Y0120330D02*
X0042280Y0120330D01*
X0042280Y0119347D02*
X0043720Y0119347D01*
X0043720Y0118365D02*
X0042280Y0118365D01*
X0042280Y0117382D02*
X0043720Y0117382D01*
X0043720Y0116399D02*
X0042280Y0116399D01*
X0042280Y0115416D02*
X0043720Y0115416D01*
X0043989Y0114433D02*
X0042011Y0114433D01*
X0041570Y0113451D02*
X0044430Y0113451D01*
X0045413Y0112468D02*
X0040587Y0112468D01*
X0055582Y0129175D02*
X0059734Y0129175D01*
X0058032Y0130158D02*
X0055772Y0130158D01*
X0062280Y0121313D02*
X0062823Y0121313D01*
X0023000Y0089864D02*
X0023000Y0089864D01*
X0023000Y0088882D02*
X0023000Y0088882D01*
X0023000Y0087899D02*
X0023000Y0087899D01*
X0023000Y0086916D02*
X0023000Y0086916D01*
X0013555Y0096744D02*
X0013462Y0096744D01*
X0018000Y0102673D02*
X0018000Y0118933D01*
X0018000Y0055193D02*
X0018000Y0038933D01*
D16*
X0048000Y0038933D02*
X0048000Y0055193D01*
X0055451Y0055193D01*
X0058000Y0052644D01*
D17*
X0064250Y0058933D03*
X0064250Y0038933D03*
X0053000Y0027683D03*
X0038000Y0027683D03*
X0023000Y0027683D03*
X0011750Y0038933D03*
X0011750Y0058933D03*
X0011750Y0078933D03*
X0011750Y0098933D03*
X0011750Y0118933D03*
X0023000Y0130183D03*
X0038000Y0130183D03*
X0053000Y0130183D03*
X0064250Y0118933D03*
X0064250Y0098933D03*
X0064250Y0078933D03*
M02*
