G75*
%MOIN*%
%OFA0B0*%
%FSLAX25Y25*%
%IPPOS*%
%LPD*%
%AMOC8*
5,1,8,0,0,1.08239X$1,22.5*
%
%ADD10C,0.00394*%
D10*
X0023000Y0023933D02*
X0053000Y0023933D01*
X0053362Y0023937D01*
X0053725Y0023951D01*
X0054087Y0023972D01*
X0054448Y0024003D01*
X0054808Y0024042D01*
X0055167Y0024090D01*
X0055525Y0024147D01*
X0055882Y0024212D01*
X0056237Y0024286D01*
X0056590Y0024369D01*
X0056941Y0024460D01*
X0057289Y0024559D01*
X0057635Y0024667D01*
X0057979Y0024783D01*
X0058319Y0024908D01*
X0058656Y0025040D01*
X0058990Y0025181D01*
X0059321Y0025330D01*
X0059648Y0025487D01*
X0059971Y0025651D01*
X0060290Y0025823D01*
X0060604Y0026003D01*
X0060915Y0026191D01*
X0061220Y0026386D01*
X0061521Y0026588D01*
X0061817Y0026798D01*
X0062107Y0027014D01*
X0062393Y0027238D01*
X0062673Y0027468D01*
X0062947Y0027705D01*
X0063215Y0027949D01*
X0063478Y0028199D01*
X0063734Y0028455D01*
X0063984Y0028718D01*
X0064228Y0028986D01*
X0064465Y0029260D01*
X0064695Y0029540D01*
X0064919Y0029826D01*
X0065135Y0030116D01*
X0065345Y0030412D01*
X0065547Y0030713D01*
X0065742Y0031018D01*
X0065930Y0031329D01*
X0066110Y0031643D01*
X0066282Y0031962D01*
X0066446Y0032285D01*
X0066603Y0032612D01*
X0066752Y0032943D01*
X0066893Y0033277D01*
X0067025Y0033614D01*
X0067150Y0033954D01*
X0067266Y0034298D01*
X0067374Y0034644D01*
X0067473Y0034992D01*
X0067564Y0035343D01*
X0067647Y0035696D01*
X0067721Y0036051D01*
X0067786Y0036408D01*
X0067843Y0036766D01*
X0067891Y0037125D01*
X0067930Y0037485D01*
X0067961Y0037846D01*
X0067982Y0038208D01*
X0067996Y0038571D01*
X0068000Y0038933D01*
X0068000Y0118933D01*
X0067996Y0119295D01*
X0067982Y0119658D01*
X0067961Y0120020D01*
X0067930Y0120381D01*
X0067891Y0120741D01*
X0067843Y0121100D01*
X0067786Y0121458D01*
X0067721Y0121815D01*
X0067647Y0122170D01*
X0067564Y0122523D01*
X0067473Y0122874D01*
X0067374Y0123222D01*
X0067266Y0123568D01*
X0067150Y0123912D01*
X0067025Y0124252D01*
X0066893Y0124589D01*
X0066752Y0124923D01*
X0066603Y0125254D01*
X0066446Y0125581D01*
X0066282Y0125904D01*
X0066110Y0126223D01*
X0065930Y0126537D01*
X0065742Y0126848D01*
X0065547Y0127153D01*
X0065345Y0127454D01*
X0065135Y0127750D01*
X0064919Y0128040D01*
X0064695Y0128326D01*
X0064465Y0128606D01*
X0064228Y0128880D01*
X0063984Y0129148D01*
X0063734Y0129411D01*
X0063478Y0129667D01*
X0063215Y0129917D01*
X0062947Y0130161D01*
X0062673Y0130398D01*
X0062393Y0130628D01*
X0062107Y0130852D01*
X0061817Y0131068D01*
X0061521Y0131278D01*
X0061220Y0131480D01*
X0060915Y0131675D01*
X0060604Y0131863D01*
X0060290Y0132043D01*
X0059971Y0132215D01*
X0059648Y0132379D01*
X0059321Y0132536D01*
X0058990Y0132685D01*
X0058656Y0132826D01*
X0058319Y0132958D01*
X0057979Y0133083D01*
X0057635Y0133199D01*
X0057289Y0133307D01*
X0056941Y0133406D01*
X0056590Y0133497D01*
X0056237Y0133580D01*
X0055882Y0133654D01*
X0055525Y0133719D01*
X0055167Y0133776D01*
X0054808Y0133824D01*
X0054448Y0133863D01*
X0054087Y0133894D01*
X0053725Y0133915D01*
X0053362Y0133929D01*
X0053000Y0133933D01*
X0023000Y0133933D01*
X0022638Y0133929D01*
X0022275Y0133915D01*
X0021913Y0133894D01*
X0021552Y0133863D01*
X0021192Y0133824D01*
X0020833Y0133776D01*
X0020475Y0133719D01*
X0020118Y0133654D01*
X0019763Y0133580D01*
X0019410Y0133497D01*
X0019059Y0133406D01*
X0018711Y0133307D01*
X0018365Y0133199D01*
X0018021Y0133083D01*
X0017681Y0132958D01*
X0017344Y0132826D01*
X0017010Y0132685D01*
X0016679Y0132536D01*
X0016352Y0132379D01*
X0016029Y0132215D01*
X0015710Y0132043D01*
X0015396Y0131863D01*
X0015085Y0131675D01*
X0014780Y0131480D01*
X0014479Y0131278D01*
X0014183Y0131068D01*
X0013893Y0130852D01*
X0013607Y0130628D01*
X0013327Y0130398D01*
X0013053Y0130161D01*
X0012785Y0129917D01*
X0012522Y0129667D01*
X0012266Y0129411D01*
X0012016Y0129148D01*
X0011772Y0128880D01*
X0011535Y0128606D01*
X0011305Y0128326D01*
X0011081Y0128040D01*
X0010865Y0127750D01*
X0010655Y0127454D01*
X0010453Y0127153D01*
X0010258Y0126848D01*
X0010070Y0126537D01*
X0009890Y0126223D01*
X0009718Y0125904D01*
X0009554Y0125581D01*
X0009397Y0125254D01*
X0009248Y0124923D01*
X0009107Y0124589D01*
X0008975Y0124252D01*
X0008850Y0123912D01*
X0008734Y0123568D01*
X0008626Y0123222D01*
X0008527Y0122874D01*
X0008436Y0122523D01*
X0008353Y0122170D01*
X0008279Y0121815D01*
X0008214Y0121458D01*
X0008157Y0121100D01*
X0008109Y0120741D01*
X0008070Y0120381D01*
X0008039Y0120020D01*
X0008018Y0119658D01*
X0008004Y0119295D01*
X0008000Y0118933D01*
X0008000Y0038933D01*
X0008004Y0038571D01*
X0008018Y0038208D01*
X0008039Y0037846D01*
X0008070Y0037485D01*
X0008109Y0037125D01*
X0008157Y0036766D01*
X0008214Y0036408D01*
X0008279Y0036051D01*
X0008353Y0035696D01*
X0008436Y0035343D01*
X0008527Y0034992D01*
X0008626Y0034644D01*
X0008734Y0034298D01*
X0008850Y0033954D01*
X0008975Y0033614D01*
X0009107Y0033277D01*
X0009248Y0032943D01*
X0009397Y0032612D01*
X0009554Y0032285D01*
X0009718Y0031962D01*
X0009890Y0031643D01*
X0010070Y0031329D01*
X0010258Y0031018D01*
X0010453Y0030713D01*
X0010655Y0030412D01*
X0010865Y0030116D01*
X0011081Y0029826D01*
X0011305Y0029540D01*
X0011535Y0029260D01*
X0011772Y0028986D01*
X0012016Y0028718D01*
X0012266Y0028455D01*
X0012522Y0028199D01*
X0012785Y0027949D01*
X0013053Y0027705D01*
X0013327Y0027468D01*
X0013607Y0027238D01*
X0013893Y0027014D01*
X0014183Y0026798D01*
X0014479Y0026588D01*
X0014780Y0026386D01*
X0015085Y0026191D01*
X0015396Y0026003D01*
X0015710Y0025823D01*
X0016029Y0025651D01*
X0016352Y0025487D01*
X0016679Y0025330D01*
X0017010Y0025181D01*
X0017344Y0025040D01*
X0017681Y0024908D01*
X0018021Y0024783D01*
X0018365Y0024667D01*
X0018711Y0024559D01*
X0019059Y0024460D01*
X0019410Y0024369D01*
X0019763Y0024286D01*
X0020118Y0024212D01*
X0020475Y0024147D01*
X0020833Y0024090D01*
X0021192Y0024042D01*
X0021552Y0024003D01*
X0021913Y0023972D01*
X0022275Y0023951D01*
X0022638Y0023937D01*
X0023000Y0023933D01*
M02*
