G75*
%MOIN*%
%OFA0B0*%
%FSLAX25Y25*%
%IPPOS*%
%LPD*%
%AMOC8*
5,1,8,0,0,1.08239X$1,22.5*
%
%ADD10C,0.00394*%
%ADD11C,0.00300*%
%ADD12C,0.01000*%
%ADD13R,0.08268X0.01181*%
D10*
X0008000Y0016492D02*
X0008000Y0096492D01*
X0008004Y0096854D01*
X0008018Y0097217D01*
X0008039Y0097579D01*
X0008070Y0097940D01*
X0008109Y0098300D01*
X0008157Y0098659D01*
X0008214Y0099017D01*
X0008279Y0099374D01*
X0008353Y0099729D01*
X0008436Y0100082D01*
X0008527Y0100433D01*
X0008626Y0100781D01*
X0008734Y0101127D01*
X0008850Y0101471D01*
X0008975Y0101811D01*
X0009107Y0102148D01*
X0009248Y0102482D01*
X0009397Y0102813D01*
X0009554Y0103140D01*
X0009718Y0103463D01*
X0009890Y0103782D01*
X0010070Y0104096D01*
X0010258Y0104407D01*
X0010453Y0104712D01*
X0010655Y0105013D01*
X0010865Y0105309D01*
X0011081Y0105599D01*
X0011305Y0105885D01*
X0011535Y0106165D01*
X0011772Y0106439D01*
X0012016Y0106707D01*
X0012266Y0106970D01*
X0012522Y0107226D01*
X0012785Y0107476D01*
X0013053Y0107720D01*
X0013327Y0107957D01*
X0013607Y0108187D01*
X0013893Y0108411D01*
X0014183Y0108627D01*
X0014479Y0108837D01*
X0014780Y0109039D01*
X0015085Y0109234D01*
X0015396Y0109422D01*
X0015710Y0109602D01*
X0016029Y0109774D01*
X0016352Y0109938D01*
X0016679Y0110095D01*
X0017010Y0110244D01*
X0017344Y0110385D01*
X0017681Y0110517D01*
X0018021Y0110642D01*
X0018365Y0110758D01*
X0018711Y0110866D01*
X0019059Y0110965D01*
X0019410Y0111056D01*
X0019763Y0111139D01*
X0020118Y0111213D01*
X0020475Y0111278D01*
X0020833Y0111335D01*
X0021192Y0111383D01*
X0021552Y0111422D01*
X0021913Y0111453D01*
X0022275Y0111474D01*
X0022638Y0111488D01*
X0023000Y0111492D01*
X0053000Y0111492D01*
X0053362Y0111488D01*
X0053725Y0111474D01*
X0054087Y0111453D01*
X0054448Y0111422D01*
X0054808Y0111383D01*
X0055167Y0111335D01*
X0055525Y0111278D01*
X0055882Y0111213D01*
X0056237Y0111139D01*
X0056590Y0111056D01*
X0056941Y0110965D01*
X0057289Y0110866D01*
X0057635Y0110758D01*
X0057979Y0110642D01*
X0058319Y0110517D01*
X0058656Y0110385D01*
X0058990Y0110244D01*
X0059321Y0110095D01*
X0059648Y0109938D01*
X0059971Y0109774D01*
X0060290Y0109602D01*
X0060604Y0109422D01*
X0060915Y0109234D01*
X0061220Y0109039D01*
X0061521Y0108837D01*
X0061817Y0108627D01*
X0062107Y0108411D01*
X0062393Y0108187D01*
X0062673Y0107957D01*
X0062947Y0107720D01*
X0063215Y0107476D01*
X0063478Y0107226D01*
X0063734Y0106970D01*
X0063984Y0106707D01*
X0064228Y0106439D01*
X0064465Y0106165D01*
X0064695Y0105885D01*
X0064919Y0105599D01*
X0065135Y0105309D01*
X0065345Y0105013D01*
X0065547Y0104712D01*
X0065742Y0104407D01*
X0065930Y0104096D01*
X0066110Y0103782D01*
X0066282Y0103463D01*
X0066446Y0103140D01*
X0066603Y0102813D01*
X0066752Y0102482D01*
X0066893Y0102148D01*
X0067025Y0101811D01*
X0067150Y0101471D01*
X0067266Y0101127D01*
X0067374Y0100781D01*
X0067473Y0100433D01*
X0067564Y0100082D01*
X0067647Y0099729D01*
X0067721Y0099374D01*
X0067786Y0099017D01*
X0067843Y0098659D01*
X0067891Y0098300D01*
X0067930Y0097940D01*
X0067961Y0097579D01*
X0067982Y0097217D01*
X0067996Y0096854D01*
X0068000Y0096492D01*
X0068000Y0016492D01*
X0067996Y0016130D01*
X0067982Y0015767D01*
X0067961Y0015405D01*
X0067930Y0015044D01*
X0067891Y0014684D01*
X0067843Y0014325D01*
X0067786Y0013967D01*
X0067721Y0013610D01*
X0067647Y0013255D01*
X0067564Y0012902D01*
X0067473Y0012551D01*
X0067374Y0012203D01*
X0067266Y0011857D01*
X0067150Y0011513D01*
X0067025Y0011173D01*
X0066893Y0010836D01*
X0066752Y0010502D01*
X0066603Y0010171D01*
X0066446Y0009844D01*
X0066282Y0009521D01*
X0066110Y0009202D01*
X0065930Y0008888D01*
X0065742Y0008577D01*
X0065547Y0008272D01*
X0065345Y0007971D01*
X0065135Y0007675D01*
X0064919Y0007385D01*
X0064695Y0007099D01*
X0064465Y0006819D01*
X0064228Y0006545D01*
X0063984Y0006277D01*
X0063734Y0006014D01*
X0063478Y0005758D01*
X0063215Y0005508D01*
X0062947Y0005264D01*
X0062673Y0005027D01*
X0062393Y0004797D01*
X0062107Y0004573D01*
X0061817Y0004357D01*
X0061521Y0004147D01*
X0061220Y0003945D01*
X0060915Y0003750D01*
X0060604Y0003562D01*
X0060290Y0003382D01*
X0059971Y0003210D01*
X0059648Y0003046D01*
X0059321Y0002889D01*
X0058990Y0002740D01*
X0058656Y0002599D01*
X0058319Y0002467D01*
X0057979Y0002342D01*
X0057635Y0002226D01*
X0057289Y0002118D01*
X0056941Y0002019D01*
X0056590Y0001928D01*
X0056237Y0001845D01*
X0055882Y0001771D01*
X0055525Y0001706D01*
X0055167Y0001649D01*
X0054808Y0001601D01*
X0054448Y0001562D01*
X0054087Y0001531D01*
X0053725Y0001510D01*
X0053362Y0001496D01*
X0053000Y0001492D01*
X0023000Y0001492D01*
X0022638Y0001496D01*
X0022275Y0001510D01*
X0021913Y0001531D01*
X0021552Y0001562D01*
X0021192Y0001601D01*
X0020833Y0001649D01*
X0020475Y0001706D01*
X0020118Y0001771D01*
X0019763Y0001845D01*
X0019410Y0001928D01*
X0019059Y0002019D01*
X0018711Y0002118D01*
X0018365Y0002226D01*
X0018021Y0002342D01*
X0017681Y0002467D01*
X0017344Y0002599D01*
X0017010Y0002740D01*
X0016679Y0002889D01*
X0016352Y0003046D01*
X0016029Y0003210D01*
X0015710Y0003382D01*
X0015396Y0003562D01*
X0015085Y0003750D01*
X0014780Y0003945D01*
X0014479Y0004147D01*
X0014183Y0004357D01*
X0013893Y0004573D01*
X0013607Y0004797D01*
X0013327Y0005027D01*
X0013053Y0005264D01*
X0012785Y0005508D01*
X0012522Y0005758D01*
X0012266Y0006014D01*
X0012016Y0006277D01*
X0011772Y0006545D01*
X0011535Y0006819D01*
X0011305Y0007099D01*
X0011081Y0007385D01*
X0010865Y0007675D01*
X0010655Y0007971D01*
X0010453Y0008272D01*
X0010258Y0008577D01*
X0010070Y0008888D01*
X0009890Y0009202D01*
X0009718Y0009521D01*
X0009554Y0009844D01*
X0009397Y0010171D01*
X0009248Y0010502D01*
X0009107Y0010836D01*
X0008975Y0011173D01*
X0008850Y0011513D01*
X0008734Y0011857D01*
X0008626Y0012203D01*
X0008527Y0012551D01*
X0008436Y0012902D01*
X0008353Y0013255D01*
X0008279Y0013610D01*
X0008214Y0013967D01*
X0008157Y0014325D01*
X0008109Y0014684D01*
X0008070Y0015044D01*
X0008039Y0015405D01*
X0008018Y0015767D01*
X0008004Y0016130D01*
X0008000Y0016492D01*
D11*
X0016990Y0046500D02*
X0019010Y0046500D01*
X0019010Y0046501D02*
X0019065Y0046503D01*
X0019120Y0046509D01*
X0019174Y0046518D01*
X0019228Y0046531D01*
X0019281Y0046548D01*
X0019332Y0046568D01*
X0019382Y0046592D01*
X0019430Y0046619D01*
X0019476Y0046649D01*
X0019520Y0046682D01*
X0019561Y0046718D01*
X0019601Y0046757D01*
X0019637Y0046799D01*
X0019670Y0046843D01*
X0019700Y0046889D01*
X0019727Y0046937D01*
X0019751Y0046987D01*
X0019771Y0047038D01*
X0019788Y0047091D01*
X0019801Y0047145D01*
X0019810Y0047199D01*
X0019816Y0047254D01*
X0019818Y0047309D01*
X0019819Y0047309D02*
X0019819Y0048117D01*
X0018202Y0051181D02*
X0018245Y0051224D01*
X0018291Y0051263D01*
X0018339Y0051300D01*
X0018390Y0051334D01*
X0018442Y0051365D01*
X0018496Y0051393D01*
X0018552Y0051417D01*
X0018610Y0051437D01*
X0018668Y0051454D01*
X0018727Y0051467D01*
X0018788Y0051476D01*
X0018848Y0051482D01*
X0018909Y0051484D01*
X0018202Y0051181D02*
X0016181Y0049463D01*
X0016181Y0051484D01*
X0019010Y0049464D02*
X0019073Y0049486D01*
X0019134Y0049512D01*
X0019194Y0049542D01*
X0019252Y0049574D01*
X0019309Y0049610D01*
X0019363Y0049650D01*
X0019414Y0049692D01*
X0019464Y0049737D01*
X0019510Y0049785D01*
X0019554Y0049835D01*
X0019595Y0049888D01*
X0019632Y0049943D01*
X0019667Y0050000D01*
X0019698Y0050059D01*
X0019726Y0050120D01*
X0019750Y0050182D01*
X0019771Y0050246D01*
X0019788Y0050310D01*
X0019801Y0050376D01*
X0019810Y0050442D01*
X0019816Y0050508D01*
X0019818Y0050575D01*
X0019816Y0050634D01*
X0019810Y0050694D01*
X0019801Y0050752D01*
X0019787Y0050810D01*
X0019770Y0050867D01*
X0019749Y0050923D01*
X0019724Y0050977D01*
X0019696Y0051030D01*
X0019665Y0051080D01*
X0019630Y0051128D01*
X0019592Y0051174D01*
X0019552Y0051218D01*
X0019508Y0051258D01*
X0019462Y0051296D01*
X0019414Y0051331D01*
X0019363Y0051362D01*
X0019311Y0051390D01*
X0019257Y0051415D01*
X0019201Y0051436D01*
X0019144Y0051453D01*
X0019086Y0051467D01*
X0019028Y0051476D01*
X0018968Y0051482D01*
X0018909Y0051484D01*
X0016181Y0048117D02*
X0016181Y0047309D01*
X0016182Y0047309D02*
X0016184Y0047254D01*
X0016190Y0047199D01*
X0016199Y0047145D01*
X0016212Y0047091D01*
X0016229Y0047038D01*
X0016249Y0046987D01*
X0016273Y0046937D01*
X0016300Y0046889D01*
X0016330Y0046843D01*
X0016363Y0046799D01*
X0016399Y0046757D01*
X0016438Y0046718D01*
X0016480Y0046682D01*
X0016524Y0046649D01*
X0016570Y0046619D01*
X0016618Y0046592D01*
X0016668Y0046568D01*
X0016719Y0046548D01*
X0016772Y0046531D01*
X0016826Y0046518D01*
X0016880Y0046509D01*
X0016935Y0046503D01*
X0016990Y0046501D01*
X0016990Y0061500D02*
X0019010Y0061500D01*
X0019010Y0061501D02*
X0019065Y0061503D01*
X0019120Y0061509D01*
X0019174Y0061518D01*
X0019228Y0061531D01*
X0019281Y0061548D01*
X0019332Y0061568D01*
X0019382Y0061592D01*
X0019430Y0061619D01*
X0019476Y0061649D01*
X0019520Y0061682D01*
X0019561Y0061718D01*
X0019601Y0061757D01*
X0019637Y0061799D01*
X0019670Y0061843D01*
X0019700Y0061889D01*
X0019727Y0061937D01*
X0019751Y0061987D01*
X0019771Y0062038D01*
X0019788Y0062091D01*
X0019801Y0062145D01*
X0019810Y0062199D01*
X0019816Y0062254D01*
X0019818Y0062309D01*
X0019819Y0062309D02*
X0019819Y0063117D01*
X0019819Y0065271D02*
X0016990Y0064463D01*
X0016990Y0066484D01*
X0017798Y0065878D02*
X0016181Y0065878D01*
X0016181Y0063117D02*
X0016181Y0062309D01*
X0016182Y0062309D02*
X0016184Y0062254D01*
X0016190Y0062199D01*
X0016199Y0062145D01*
X0016212Y0062091D01*
X0016229Y0062038D01*
X0016249Y0061987D01*
X0016273Y0061937D01*
X0016300Y0061889D01*
X0016330Y0061843D01*
X0016363Y0061799D01*
X0016399Y0061757D01*
X0016438Y0061718D01*
X0016480Y0061682D01*
X0016524Y0061649D01*
X0016570Y0061619D01*
X0016618Y0061592D01*
X0016668Y0061568D01*
X0016719Y0061548D01*
X0016772Y0061531D01*
X0016826Y0061518D01*
X0016880Y0061509D01*
X0016935Y0061503D01*
X0016990Y0061501D01*
X0036181Y0051484D02*
X0036181Y0049463D01*
X0036181Y0050474D02*
X0039819Y0050474D01*
X0039010Y0049463D01*
X0039819Y0048117D02*
X0039819Y0047309D01*
X0039818Y0047309D02*
X0039816Y0047254D01*
X0039810Y0047199D01*
X0039801Y0047145D01*
X0039788Y0047091D01*
X0039771Y0047038D01*
X0039751Y0046987D01*
X0039727Y0046937D01*
X0039700Y0046889D01*
X0039670Y0046843D01*
X0039637Y0046799D01*
X0039601Y0046757D01*
X0039561Y0046718D01*
X0039520Y0046682D01*
X0039476Y0046649D01*
X0039430Y0046619D01*
X0039382Y0046592D01*
X0039332Y0046568D01*
X0039281Y0046548D01*
X0039228Y0046531D01*
X0039174Y0046518D01*
X0039120Y0046509D01*
X0039065Y0046503D01*
X0039010Y0046501D01*
X0039010Y0046500D02*
X0036990Y0046500D01*
X0036990Y0046501D02*
X0036935Y0046503D01*
X0036880Y0046509D01*
X0036826Y0046518D01*
X0036772Y0046531D01*
X0036719Y0046548D01*
X0036668Y0046568D01*
X0036618Y0046592D01*
X0036570Y0046619D01*
X0036524Y0046649D01*
X0036480Y0046682D01*
X0036438Y0046718D01*
X0036399Y0046757D01*
X0036363Y0046799D01*
X0036330Y0046843D01*
X0036300Y0046889D01*
X0036273Y0046937D01*
X0036249Y0046987D01*
X0036229Y0047038D01*
X0036212Y0047091D01*
X0036199Y0047145D01*
X0036190Y0047199D01*
X0036184Y0047254D01*
X0036182Y0047309D01*
X0036181Y0047309D02*
X0036181Y0048117D01*
X0046181Y0048117D02*
X0046181Y0047309D01*
X0046182Y0047309D02*
X0046184Y0047254D01*
X0046190Y0047199D01*
X0046199Y0047145D01*
X0046212Y0047091D01*
X0046229Y0047038D01*
X0046249Y0046987D01*
X0046273Y0046937D01*
X0046300Y0046889D01*
X0046330Y0046843D01*
X0046363Y0046799D01*
X0046399Y0046757D01*
X0046438Y0046718D01*
X0046480Y0046682D01*
X0046524Y0046649D01*
X0046570Y0046619D01*
X0046618Y0046592D01*
X0046668Y0046568D01*
X0046719Y0046548D01*
X0046772Y0046531D01*
X0046826Y0046518D01*
X0046880Y0046509D01*
X0046935Y0046503D01*
X0046990Y0046501D01*
X0046990Y0046500D02*
X0049010Y0046500D01*
X0049010Y0046501D02*
X0049065Y0046503D01*
X0049120Y0046509D01*
X0049174Y0046518D01*
X0049228Y0046531D01*
X0049281Y0046548D01*
X0049332Y0046568D01*
X0049382Y0046592D01*
X0049430Y0046619D01*
X0049476Y0046649D01*
X0049520Y0046682D01*
X0049561Y0046718D01*
X0049601Y0046757D01*
X0049637Y0046799D01*
X0049670Y0046843D01*
X0049700Y0046889D01*
X0049727Y0046937D01*
X0049751Y0046987D01*
X0049771Y0047038D01*
X0049788Y0047091D01*
X0049801Y0047145D01*
X0049810Y0047199D01*
X0049816Y0047254D01*
X0049818Y0047309D01*
X0049819Y0047309D02*
X0049819Y0048117D01*
X0049819Y0049463D02*
X0049819Y0050676D01*
X0049818Y0050676D02*
X0049816Y0050731D01*
X0049810Y0050786D01*
X0049801Y0050840D01*
X0049788Y0050894D01*
X0049771Y0050947D01*
X0049751Y0050998D01*
X0049727Y0051048D01*
X0049700Y0051096D01*
X0049670Y0051142D01*
X0049637Y0051186D01*
X0049601Y0051228D01*
X0049562Y0051267D01*
X0049520Y0051303D01*
X0049476Y0051336D01*
X0049430Y0051366D01*
X0049382Y0051393D01*
X0049332Y0051417D01*
X0049281Y0051437D01*
X0049228Y0051454D01*
X0049174Y0051467D01*
X0049120Y0051476D01*
X0049065Y0051482D01*
X0049010Y0051484D01*
X0048955Y0051482D01*
X0048900Y0051476D01*
X0048846Y0051467D01*
X0048792Y0051454D01*
X0048739Y0051437D01*
X0048688Y0051417D01*
X0048638Y0051393D01*
X0048590Y0051366D01*
X0048544Y0051336D01*
X0048500Y0051303D01*
X0048458Y0051267D01*
X0048419Y0051228D01*
X0048383Y0051186D01*
X0048350Y0051142D01*
X0048320Y0051096D01*
X0048293Y0051048D01*
X0048269Y0050998D01*
X0048249Y0050947D01*
X0048232Y0050894D01*
X0048219Y0050840D01*
X0048210Y0050786D01*
X0048204Y0050731D01*
X0048202Y0050676D01*
X0048202Y0049867D01*
X0048202Y0050474D02*
X0048200Y0050536D01*
X0048194Y0050598D01*
X0048185Y0050660D01*
X0048171Y0050720D01*
X0048154Y0050780D01*
X0048134Y0050839D01*
X0048110Y0050896D01*
X0048082Y0050952D01*
X0048051Y0051006D01*
X0048016Y0051058D01*
X0047979Y0051107D01*
X0047938Y0051154D01*
X0047895Y0051199D01*
X0047849Y0051241D01*
X0047801Y0051280D01*
X0047750Y0051316D01*
X0047697Y0051349D01*
X0047642Y0051378D01*
X0047586Y0051404D01*
X0047528Y0051427D01*
X0047468Y0051445D01*
X0047408Y0051461D01*
X0047347Y0051472D01*
X0047285Y0051480D01*
X0047223Y0051484D01*
X0047161Y0051484D01*
X0047099Y0051480D01*
X0047037Y0051472D01*
X0046976Y0051461D01*
X0046916Y0051445D01*
X0046856Y0051427D01*
X0046798Y0051404D01*
X0046742Y0051378D01*
X0046687Y0051349D01*
X0046634Y0051316D01*
X0046583Y0051280D01*
X0046535Y0051241D01*
X0046489Y0051199D01*
X0046446Y0051154D01*
X0046405Y0051107D01*
X0046368Y0051058D01*
X0046333Y0051006D01*
X0046302Y0050952D01*
X0046274Y0050896D01*
X0046250Y0050839D01*
X0046230Y0050780D01*
X0046213Y0050720D01*
X0046199Y0050660D01*
X0046190Y0050598D01*
X0046184Y0050536D01*
X0046182Y0050474D01*
X0046181Y0050474D02*
X0046181Y0049463D01*
X0056181Y0058651D02*
X0056181Y0059661D01*
X0056181Y0058651D02*
X0059819Y0058651D01*
X0059819Y0059661D01*
X0059818Y0059661D02*
X0059816Y0059722D01*
X0059811Y0059783D01*
X0059801Y0059843D01*
X0059789Y0059903D01*
X0059772Y0059961D01*
X0059752Y0060019D01*
X0059729Y0060076D01*
X0059702Y0060130D01*
X0059672Y0060184D01*
X0059639Y0060235D01*
X0059603Y0060284D01*
X0059564Y0060331D01*
X0059522Y0060375D01*
X0059478Y0060417D01*
X0059431Y0060456D01*
X0059382Y0060492D01*
X0059331Y0060525D01*
X0059277Y0060555D01*
X0059223Y0060582D01*
X0059166Y0060605D01*
X0059108Y0060625D01*
X0059050Y0060642D01*
X0058990Y0060654D01*
X0058930Y0060664D01*
X0058869Y0060669D01*
X0058808Y0060671D01*
X0058808Y0060672D02*
X0057192Y0060672D01*
X0057192Y0060671D02*
X0057131Y0060669D01*
X0057070Y0060664D01*
X0057010Y0060654D01*
X0056950Y0060642D01*
X0056892Y0060625D01*
X0056834Y0060605D01*
X0056777Y0060582D01*
X0056723Y0060555D01*
X0056669Y0060525D01*
X0056618Y0060492D01*
X0056569Y0060456D01*
X0056522Y0060417D01*
X0056478Y0060375D01*
X0056436Y0060331D01*
X0056397Y0060284D01*
X0056361Y0060235D01*
X0056328Y0060184D01*
X0056298Y0060130D01*
X0056271Y0060076D01*
X0056248Y0060019D01*
X0056228Y0059961D01*
X0056211Y0059903D01*
X0056199Y0059843D01*
X0056189Y0059783D01*
X0056184Y0059722D01*
X0056182Y0059661D01*
X0056181Y0062313D02*
X0056181Y0064333D01*
X0056181Y0063323D02*
X0059819Y0063323D01*
X0059010Y0062313D01*
D12*
X0060756Y0040439D02*
X0055244Y0040439D01*
X0058000Y0035518D01*
X0060756Y0040439D01*
D13*
X0058000Y0035321D03*
M02*
