G75*
%MOIN*%
%OFA0B0*%
%FSLAX25Y25*%
%IPPOS*%
%LPD*%
%AMOC8*
5,1,8,0,0,1.08239X$1,22.5*
%
%ADD10C,0.00394*%
%ADD11C,0.00300*%
%ADD12C,0.00500*%
%ADD13C,0.00600*%
D10*
X0023000Y0023933D02*
X0053000Y0023933D01*
X0053362Y0023937D01*
X0053725Y0023951D01*
X0054087Y0023972D01*
X0054448Y0024003D01*
X0054808Y0024042D01*
X0055167Y0024090D01*
X0055525Y0024147D01*
X0055882Y0024212D01*
X0056237Y0024286D01*
X0056590Y0024369D01*
X0056941Y0024460D01*
X0057289Y0024559D01*
X0057635Y0024667D01*
X0057979Y0024783D01*
X0058319Y0024908D01*
X0058656Y0025040D01*
X0058990Y0025181D01*
X0059321Y0025330D01*
X0059648Y0025487D01*
X0059971Y0025651D01*
X0060290Y0025823D01*
X0060604Y0026003D01*
X0060915Y0026191D01*
X0061220Y0026386D01*
X0061521Y0026588D01*
X0061817Y0026798D01*
X0062107Y0027014D01*
X0062393Y0027238D01*
X0062673Y0027468D01*
X0062947Y0027705D01*
X0063215Y0027949D01*
X0063478Y0028199D01*
X0063734Y0028455D01*
X0063984Y0028718D01*
X0064228Y0028986D01*
X0064465Y0029260D01*
X0064695Y0029540D01*
X0064919Y0029826D01*
X0065135Y0030116D01*
X0065345Y0030412D01*
X0065547Y0030713D01*
X0065742Y0031018D01*
X0065930Y0031329D01*
X0066110Y0031643D01*
X0066282Y0031962D01*
X0066446Y0032285D01*
X0066603Y0032612D01*
X0066752Y0032943D01*
X0066893Y0033277D01*
X0067025Y0033614D01*
X0067150Y0033954D01*
X0067266Y0034298D01*
X0067374Y0034644D01*
X0067473Y0034992D01*
X0067564Y0035343D01*
X0067647Y0035696D01*
X0067721Y0036051D01*
X0067786Y0036408D01*
X0067843Y0036766D01*
X0067891Y0037125D01*
X0067930Y0037485D01*
X0067961Y0037846D01*
X0067982Y0038208D01*
X0067996Y0038571D01*
X0068000Y0038933D01*
X0068000Y0118933D01*
X0067996Y0119295D01*
X0067982Y0119658D01*
X0067961Y0120020D01*
X0067930Y0120381D01*
X0067891Y0120741D01*
X0067843Y0121100D01*
X0067786Y0121458D01*
X0067721Y0121815D01*
X0067647Y0122170D01*
X0067564Y0122523D01*
X0067473Y0122874D01*
X0067374Y0123222D01*
X0067266Y0123568D01*
X0067150Y0123912D01*
X0067025Y0124252D01*
X0066893Y0124589D01*
X0066752Y0124923D01*
X0066603Y0125254D01*
X0066446Y0125581D01*
X0066282Y0125904D01*
X0066110Y0126223D01*
X0065930Y0126537D01*
X0065742Y0126848D01*
X0065547Y0127153D01*
X0065345Y0127454D01*
X0065135Y0127750D01*
X0064919Y0128040D01*
X0064695Y0128326D01*
X0064465Y0128606D01*
X0064228Y0128880D01*
X0063984Y0129148D01*
X0063734Y0129411D01*
X0063478Y0129667D01*
X0063215Y0129917D01*
X0062947Y0130161D01*
X0062673Y0130398D01*
X0062393Y0130628D01*
X0062107Y0130852D01*
X0061817Y0131068D01*
X0061521Y0131278D01*
X0061220Y0131480D01*
X0060915Y0131675D01*
X0060604Y0131863D01*
X0060290Y0132043D01*
X0059971Y0132215D01*
X0059648Y0132379D01*
X0059321Y0132536D01*
X0058990Y0132685D01*
X0058656Y0132826D01*
X0058319Y0132958D01*
X0057979Y0133083D01*
X0057635Y0133199D01*
X0057289Y0133307D01*
X0056941Y0133406D01*
X0056590Y0133497D01*
X0056237Y0133580D01*
X0055882Y0133654D01*
X0055525Y0133719D01*
X0055167Y0133776D01*
X0054808Y0133824D01*
X0054448Y0133863D01*
X0054087Y0133894D01*
X0053725Y0133915D01*
X0053362Y0133929D01*
X0053000Y0133933D01*
X0023000Y0133933D01*
X0022638Y0133929D01*
X0022275Y0133915D01*
X0021913Y0133894D01*
X0021552Y0133863D01*
X0021192Y0133824D01*
X0020833Y0133776D01*
X0020475Y0133719D01*
X0020118Y0133654D01*
X0019763Y0133580D01*
X0019410Y0133497D01*
X0019059Y0133406D01*
X0018711Y0133307D01*
X0018365Y0133199D01*
X0018021Y0133083D01*
X0017681Y0132958D01*
X0017344Y0132826D01*
X0017010Y0132685D01*
X0016679Y0132536D01*
X0016352Y0132379D01*
X0016029Y0132215D01*
X0015710Y0132043D01*
X0015396Y0131863D01*
X0015085Y0131675D01*
X0014780Y0131480D01*
X0014479Y0131278D01*
X0014183Y0131068D01*
X0013893Y0130852D01*
X0013607Y0130628D01*
X0013327Y0130398D01*
X0013053Y0130161D01*
X0012785Y0129917D01*
X0012522Y0129667D01*
X0012266Y0129411D01*
X0012016Y0129148D01*
X0011772Y0128880D01*
X0011535Y0128606D01*
X0011305Y0128326D01*
X0011081Y0128040D01*
X0010865Y0127750D01*
X0010655Y0127454D01*
X0010453Y0127153D01*
X0010258Y0126848D01*
X0010070Y0126537D01*
X0009890Y0126223D01*
X0009718Y0125904D01*
X0009554Y0125581D01*
X0009397Y0125254D01*
X0009248Y0124923D01*
X0009107Y0124589D01*
X0008975Y0124252D01*
X0008850Y0123912D01*
X0008734Y0123568D01*
X0008626Y0123222D01*
X0008527Y0122874D01*
X0008436Y0122523D01*
X0008353Y0122170D01*
X0008279Y0121815D01*
X0008214Y0121458D01*
X0008157Y0121100D01*
X0008109Y0120741D01*
X0008070Y0120381D01*
X0008039Y0120020D01*
X0008018Y0119658D01*
X0008004Y0119295D01*
X0008000Y0118933D01*
X0008000Y0038933D01*
X0008004Y0038571D01*
X0008018Y0038208D01*
X0008039Y0037846D01*
X0008070Y0037485D01*
X0008109Y0037125D01*
X0008157Y0036766D01*
X0008214Y0036408D01*
X0008279Y0036051D01*
X0008353Y0035696D01*
X0008436Y0035343D01*
X0008527Y0034992D01*
X0008626Y0034644D01*
X0008734Y0034298D01*
X0008850Y0033954D01*
X0008975Y0033614D01*
X0009107Y0033277D01*
X0009248Y0032943D01*
X0009397Y0032612D01*
X0009554Y0032285D01*
X0009718Y0031962D01*
X0009890Y0031643D01*
X0010070Y0031329D01*
X0010258Y0031018D01*
X0010453Y0030713D01*
X0010655Y0030412D01*
X0010865Y0030116D01*
X0011081Y0029826D01*
X0011305Y0029540D01*
X0011535Y0029260D01*
X0011772Y0028986D01*
X0012016Y0028718D01*
X0012266Y0028455D01*
X0012522Y0028199D01*
X0012785Y0027949D01*
X0013053Y0027705D01*
X0013327Y0027468D01*
X0013607Y0027238D01*
X0013893Y0027014D01*
X0014183Y0026798D01*
X0014479Y0026588D01*
X0014780Y0026386D01*
X0015085Y0026191D01*
X0015396Y0026003D01*
X0015710Y0025823D01*
X0016029Y0025651D01*
X0016352Y0025487D01*
X0016679Y0025330D01*
X0017010Y0025181D01*
X0017344Y0025040D01*
X0017681Y0024908D01*
X0018021Y0024783D01*
X0018365Y0024667D01*
X0018711Y0024559D01*
X0019059Y0024460D01*
X0019410Y0024369D01*
X0019763Y0024286D01*
X0020118Y0024212D01*
X0020475Y0024147D01*
X0020833Y0024090D01*
X0021192Y0024042D01*
X0021552Y0024003D01*
X0021913Y0023972D01*
X0022275Y0023951D01*
X0022638Y0023937D01*
X0023000Y0023933D01*
D11*
X0023754Y0027115D02*
X0021734Y0027115D01*
X0022744Y0027115D02*
X0022744Y0030752D01*
X0021734Y0029943D01*
X0025446Y0030752D02*
X0025446Y0027115D01*
X0025446Y0028731D02*
X0026457Y0028731D01*
X0026519Y0028733D01*
X0026581Y0028739D01*
X0026643Y0028748D01*
X0026703Y0028762D01*
X0026763Y0028779D01*
X0026822Y0028799D01*
X0026879Y0028823D01*
X0026935Y0028851D01*
X0026989Y0028882D01*
X0027041Y0028917D01*
X0027090Y0028954D01*
X0027137Y0028995D01*
X0027182Y0029038D01*
X0027224Y0029084D01*
X0027263Y0029132D01*
X0027299Y0029183D01*
X0027332Y0029236D01*
X0027361Y0029291D01*
X0027387Y0029347D01*
X0027410Y0029405D01*
X0027428Y0029465D01*
X0027444Y0029525D01*
X0027455Y0029586D01*
X0027463Y0029648D01*
X0027467Y0029710D01*
X0027467Y0029772D01*
X0027463Y0029834D01*
X0027455Y0029896D01*
X0027444Y0029957D01*
X0027428Y0030017D01*
X0027410Y0030077D01*
X0027387Y0030135D01*
X0027361Y0030191D01*
X0027332Y0030246D01*
X0027299Y0030299D01*
X0027263Y0030350D01*
X0027224Y0030398D01*
X0027182Y0030444D01*
X0027137Y0030487D01*
X0027090Y0030528D01*
X0027041Y0030565D01*
X0026989Y0030600D01*
X0026935Y0030631D01*
X0026879Y0030659D01*
X0026822Y0030683D01*
X0026763Y0030703D01*
X0026703Y0030720D01*
X0026643Y0030734D01*
X0026581Y0030743D01*
X0026519Y0030749D01*
X0026457Y0030751D01*
X0026457Y0030752D02*
X0025446Y0030752D01*
X0028990Y0030752D02*
X0028990Y0027115D01*
X0028990Y0028731D02*
X0030000Y0028731D01*
X0030062Y0028733D01*
X0030124Y0028739D01*
X0030186Y0028748D01*
X0030246Y0028762D01*
X0030306Y0028779D01*
X0030365Y0028799D01*
X0030422Y0028823D01*
X0030478Y0028851D01*
X0030532Y0028882D01*
X0030584Y0028917D01*
X0030633Y0028954D01*
X0030680Y0028995D01*
X0030725Y0029038D01*
X0030767Y0029084D01*
X0030806Y0029132D01*
X0030842Y0029183D01*
X0030875Y0029236D01*
X0030904Y0029291D01*
X0030930Y0029347D01*
X0030953Y0029405D01*
X0030971Y0029465D01*
X0030987Y0029525D01*
X0030998Y0029586D01*
X0031006Y0029648D01*
X0031010Y0029710D01*
X0031010Y0029772D01*
X0031006Y0029834D01*
X0030998Y0029896D01*
X0030987Y0029957D01*
X0030971Y0030017D01*
X0030953Y0030077D01*
X0030930Y0030135D01*
X0030904Y0030191D01*
X0030875Y0030246D01*
X0030842Y0030299D01*
X0030806Y0030350D01*
X0030767Y0030398D01*
X0030725Y0030444D01*
X0030680Y0030487D01*
X0030633Y0030528D01*
X0030584Y0030565D01*
X0030532Y0030600D01*
X0030478Y0030631D01*
X0030422Y0030659D01*
X0030365Y0030683D01*
X0030306Y0030703D01*
X0030246Y0030720D01*
X0030186Y0030734D01*
X0030124Y0030743D01*
X0030062Y0030749D01*
X0030000Y0030751D01*
X0030000Y0030752D02*
X0028990Y0030752D01*
X0032751Y0029236D02*
X0033862Y0028630D01*
X0033458Y0027115D02*
X0033379Y0027117D01*
X0033300Y0027122D01*
X0033221Y0027132D01*
X0033143Y0027144D01*
X0033065Y0027161D01*
X0032988Y0027181D01*
X0032913Y0027204D01*
X0032838Y0027231D01*
X0032765Y0027262D01*
X0032693Y0027296D01*
X0032623Y0027333D01*
X0032555Y0027373D01*
X0032489Y0027417D01*
X0032425Y0027463D01*
X0032363Y0027513D01*
X0032303Y0027565D01*
X0032246Y0027620D01*
X0033862Y0028630D02*
X0033907Y0028602D01*
X0033950Y0028570D01*
X0033991Y0028536D01*
X0034029Y0028500D01*
X0034066Y0028461D01*
X0034099Y0028419D01*
X0034130Y0028376D01*
X0034158Y0028330D01*
X0034183Y0028283D01*
X0034205Y0028235D01*
X0034223Y0028185D01*
X0034238Y0028134D01*
X0034250Y0028082D01*
X0034259Y0028029D01*
X0034264Y0027976D01*
X0034266Y0027923D01*
X0034264Y0027868D01*
X0034258Y0027813D01*
X0034249Y0027759D01*
X0034236Y0027705D01*
X0034219Y0027652D01*
X0034199Y0027601D01*
X0034175Y0027551D01*
X0034148Y0027503D01*
X0034118Y0027457D01*
X0034085Y0027413D01*
X0034049Y0027371D01*
X0034010Y0027332D01*
X0033968Y0027296D01*
X0033924Y0027263D01*
X0033878Y0027233D01*
X0033830Y0027206D01*
X0033780Y0027182D01*
X0033729Y0027162D01*
X0033676Y0027145D01*
X0033622Y0027132D01*
X0033568Y0027123D01*
X0033513Y0027117D01*
X0033458Y0027115D01*
X0034064Y0030448D02*
X0034003Y0030491D01*
X0033940Y0030532D01*
X0033875Y0030569D01*
X0033808Y0030603D01*
X0033739Y0030634D01*
X0033670Y0030661D01*
X0033598Y0030685D01*
X0033526Y0030705D01*
X0033453Y0030721D01*
X0033379Y0030734D01*
X0033305Y0030744D01*
X0033230Y0030749D01*
X0033155Y0030751D01*
X0033100Y0030749D01*
X0033045Y0030743D01*
X0032991Y0030734D01*
X0032937Y0030721D01*
X0032884Y0030704D01*
X0032833Y0030684D01*
X0032783Y0030660D01*
X0032735Y0030633D01*
X0032689Y0030603D01*
X0032645Y0030570D01*
X0032604Y0030534D01*
X0032564Y0030495D01*
X0032528Y0030453D01*
X0032495Y0030409D01*
X0032465Y0030363D01*
X0032438Y0030315D01*
X0032414Y0030265D01*
X0032394Y0030214D01*
X0032377Y0030161D01*
X0032364Y0030107D01*
X0032355Y0030053D01*
X0032349Y0029998D01*
X0032347Y0029943D01*
X0032346Y0029943D02*
X0032348Y0029890D01*
X0032353Y0029837D01*
X0032362Y0029784D01*
X0032374Y0029732D01*
X0032389Y0029681D01*
X0032407Y0029631D01*
X0032429Y0029583D01*
X0032454Y0029536D01*
X0032482Y0029490D01*
X0032513Y0029447D01*
X0032546Y0029405D01*
X0032583Y0029366D01*
X0032621Y0029330D01*
X0032662Y0029296D01*
X0032705Y0029264D01*
X0032750Y0029236D01*
X0043446Y0030752D02*
X0044659Y0030752D01*
X0044659Y0030751D02*
X0044714Y0030749D01*
X0044769Y0030743D01*
X0044823Y0030734D01*
X0044877Y0030721D01*
X0044930Y0030704D01*
X0044981Y0030684D01*
X0045031Y0030660D01*
X0045079Y0030633D01*
X0045125Y0030603D01*
X0045169Y0030570D01*
X0045211Y0030534D01*
X0045250Y0030495D01*
X0045286Y0030453D01*
X0045319Y0030409D01*
X0045349Y0030363D01*
X0045376Y0030315D01*
X0045400Y0030265D01*
X0045420Y0030214D01*
X0045437Y0030161D01*
X0045450Y0030107D01*
X0045459Y0030053D01*
X0045465Y0029998D01*
X0045467Y0029943D01*
X0045465Y0029888D01*
X0045459Y0029833D01*
X0045450Y0029779D01*
X0045437Y0029725D01*
X0045420Y0029672D01*
X0045400Y0029621D01*
X0045376Y0029571D01*
X0045349Y0029523D01*
X0045319Y0029477D01*
X0045286Y0029433D01*
X0045250Y0029391D01*
X0045211Y0029352D01*
X0045169Y0029316D01*
X0045125Y0029283D01*
X0045079Y0029253D01*
X0045031Y0029226D01*
X0044981Y0029202D01*
X0044930Y0029182D01*
X0044877Y0029165D01*
X0044823Y0029152D01*
X0044769Y0029143D01*
X0044714Y0029137D01*
X0044659Y0029135D01*
X0043851Y0029135D01*
X0044457Y0029135D02*
X0044519Y0029133D01*
X0044581Y0029127D01*
X0044643Y0029118D01*
X0044703Y0029104D01*
X0044763Y0029087D01*
X0044822Y0029067D01*
X0044879Y0029043D01*
X0044935Y0029015D01*
X0044989Y0028984D01*
X0045041Y0028949D01*
X0045090Y0028912D01*
X0045137Y0028871D01*
X0045182Y0028828D01*
X0045224Y0028782D01*
X0045263Y0028734D01*
X0045299Y0028683D01*
X0045332Y0028630D01*
X0045361Y0028575D01*
X0045387Y0028519D01*
X0045410Y0028461D01*
X0045428Y0028401D01*
X0045444Y0028341D01*
X0045455Y0028280D01*
X0045463Y0028218D01*
X0045467Y0028156D01*
X0045467Y0028094D01*
X0045463Y0028032D01*
X0045455Y0027970D01*
X0045444Y0027909D01*
X0045428Y0027849D01*
X0045410Y0027789D01*
X0045387Y0027731D01*
X0045361Y0027675D01*
X0045332Y0027620D01*
X0045299Y0027567D01*
X0045263Y0027516D01*
X0045224Y0027468D01*
X0045182Y0027422D01*
X0045137Y0027379D01*
X0045090Y0027338D01*
X0045041Y0027301D01*
X0044989Y0027266D01*
X0044935Y0027235D01*
X0044879Y0027207D01*
X0044822Y0027183D01*
X0044763Y0027163D01*
X0044703Y0027146D01*
X0044643Y0027132D01*
X0044581Y0027123D01*
X0044519Y0027117D01*
X0044457Y0027115D01*
X0043446Y0027115D01*
X0048000Y0027115D02*
X0046788Y0030752D01*
X0049212Y0030752D02*
X0048000Y0027115D01*
X0050533Y0027115D02*
X0051543Y0027115D01*
X0051605Y0027117D01*
X0051667Y0027123D01*
X0051729Y0027132D01*
X0051789Y0027146D01*
X0051849Y0027163D01*
X0051908Y0027183D01*
X0051965Y0027207D01*
X0052021Y0027235D01*
X0052075Y0027266D01*
X0052127Y0027301D01*
X0052176Y0027338D01*
X0052223Y0027379D01*
X0052268Y0027422D01*
X0052310Y0027468D01*
X0052349Y0027516D01*
X0052385Y0027567D01*
X0052418Y0027620D01*
X0052447Y0027675D01*
X0052473Y0027731D01*
X0052496Y0027789D01*
X0052514Y0027849D01*
X0052530Y0027909D01*
X0052541Y0027970D01*
X0052549Y0028032D01*
X0052553Y0028094D01*
X0052553Y0028156D01*
X0052549Y0028218D01*
X0052541Y0028280D01*
X0052530Y0028341D01*
X0052514Y0028401D01*
X0052496Y0028461D01*
X0052473Y0028519D01*
X0052447Y0028575D01*
X0052418Y0028630D01*
X0052385Y0028683D01*
X0052349Y0028734D01*
X0052310Y0028782D01*
X0052268Y0028828D01*
X0052223Y0028871D01*
X0052176Y0028912D01*
X0052127Y0028949D01*
X0052075Y0028984D01*
X0052021Y0029015D01*
X0051965Y0029043D01*
X0051908Y0029067D01*
X0051849Y0029087D01*
X0051789Y0029104D01*
X0051729Y0029118D01*
X0051667Y0029127D01*
X0051605Y0029133D01*
X0051543Y0029135D01*
X0051745Y0029135D02*
X0050937Y0029135D01*
X0051745Y0029135D02*
X0051800Y0029137D01*
X0051855Y0029143D01*
X0051909Y0029152D01*
X0051963Y0029165D01*
X0052016Y0029182D01*
X0052067Y0029202D01*
X0052117Y0029226D01*
X0052165Y0029253D01*
X0052211Y0029283D01*
X0052255Y0029316D01*
X0052297Y0029352D01*
X0052336Y0029391D01*
X0052372Y0029433D01*
X0052405Y0029477D01*
X0052435Y0029523D01*
X0052462Y0029571D01*
X0052486Y0029621D01*
X0052506Y0029672D01*
X0052523Y0029725D01*
X0052536Y0029779D01*
X0052545Y0029833D01*
X0052551Y0029888D01*
X0052553Y0029943D01*
X0052551Y0029998D01*
X0052545Y0030053D01*
X0052536Y0030107D01*
X0052523Y0030161D01*
X0052506Y0030214D01*
X0052486Y0030265D01*
X0052462Y0030315D01*
X0052435Y0030363D01*
X0052405Y0030409D01*
X0052372Y0030453D01*
X0052336Y0030495D01*
X0052297Y0030534D01*
X0052255Y0030570D01*
X0052211Y0030603D01*
X0052165Y0030633D01*
X0052117Y0030660D01*
X0052067Y0030684D01*
X0052016Y0030704D01*
X0051963Y0030721D01*
X0051909Y0030734D01*
X0051855Y0030743D01*
X0051800Y0030749D01*
X0051745Y0030751D01*
X0051745Y0030752D02*
X0050533Y0030752D01*
X0054018Y0047115D02*
X0055231Y0047115D01*
X0055231Y0049135D01*
X0054625Y0049135D01*
X0053210Y0049943D02*
X0053212Y0049998D01*
X0053218Y0050053D01*
X0053227Y0050107D01*
X0053240Y0050161D01*
X0053257Y0050214D01*
X0053277Y0050265D01*
X0053301Y0050315D01*
X0053328Y0050363D01*
X0053358Y0050409D01*
X0053391Y0050453D01*
X0053427Y0050494D01*
X0053466Y0050534D01*
X0053508Y0050570D01*
X0053552Y0050603D01*
X0053598Y0050633D01*
X0053646Y0050660D01*
X0053696Y0050684D01*
X0053747Y0050704D01*
X0053800Y0050721D01*
X0053854Y0050734D01*
X0053908Y0050743D01*
X0053963Y0050749D01*
X0054018Y0050751D01*
X0054018Y0050752D02*
X0055231Y0050752D01*
X0056990Y0050752D02*
X0059010Y0047115D01*
X0059010Y0050752D01*
X0060769Y0050752D02*
X0061780Y0050752D01*
X0061780Y0050751D02*
X0061841Y0050749D01*
X0061902Y0050744D01*
X0061962Y0050734D01*
X0062022Y0050722D01*
X0062080Y0050705D01*
X0062138Y0050685D01*
X0062195Y0050662D01*
X0062249Y0050635D01*
X0062303Y0050605D01*
X0062354Y0050572D01*
X0062403Y0050536D01*
X0062450Y0050497D01*
X0062494Y0050455D01*
X0062536Y0050411D01*
X0062575Y0050364D01*
X0062611Y0050315D01*
X0062644Y0050264D01*
X0062674Y0050210D01*
X0062701Y0050156D01*
X0062724Y0050099D01*
X0062744Y0050041D01*
X0062761Y0049983D01*
X0062773Y0049923D01*
X0062783Y0049863D01*
X0062788Y0049802D01*
X0062790Y0049741D01*
X0062790Y0048125D01*
X0062788Y0048064D01*
X0062783Y0048003D01*
X0062773Y0047943D01*
X0062761Y0047883D01*
X0062744Y0047825D01*
X0062724Y0047767D01*
X0062701Y0047710D01*
X0062674Y0047656D01*
X0062644Y0047602D01*
X0062611Y0047551D01*
X0062575Y0047502D01*
X0062536Y0047455D01*
X0062494Y0047411D01*
X0062450Y0047369D01*
X0062403Y0047330D01*
X0062354Y0047294D01*
X0062303Y0047261D01*
X0062249Y0047231D01*
X0062195Y0047204D01*
X0062138Y0047181D01*
X0062080Y0047161D01*
X0062022Y0047144D01*
X0061962Y0047132D01*
X0061902Y0047122D01*
X0061841Y0047117D01*
X0061780Y0047115D01*
X0060769Y0047115D01*
X0060769Y0050752D01*
X0056990Y0050752D02*
X0056990Y0047115D01*
X0054018Y0047115D02*
X0053963Y0047117D01*
X0053908Y0047123D01*
X0053854Y0047132D01*
X0053800Y0047145D01*
X0053747Y0047162D01*
X0053696Y0047182D01*
X0053646Y0047206D01*
X0053598Y0047233D01*
X0053552Y0047263D01*
X0053508Y0047296D01*
X0053466Y0047332D01*
X0053427Y0047371D01*
X0053391Y0047413D01*
X0053358Y0047457D01*
X0053328Y0047503D01*
X0053301Y0047551D01*
X0053277Y0047601D01*
X0053257Y0047652D01*
X0053240Y0047705D01*
X0053227Y0047759D01*
X0053218Y0047813D01*
X0053212Y0047868D01*
X0053210Y0047923D01*
X0053210Y0049943D01*
X0053546Y0054301D02*
X0051930Y0054301D01*
X0051930Y0056321D01*
X0053546Y0055513D02*
X0053546Y0054301D01*
X0053546Y0055513D02*
X0053548Y0055568D01*
X0053554Y0055623D01*
X0053563Y0055677D01*
X0053576Y0055731D01*
X0053593Y0055784D01*
X0053613Y0055835D01*
X0053637Y0055885D01*
X0053664Y0055933D01*
X0053694Y0055979D01*
X0053727Y0056023D01*
X0053763Y0056065D01*
X0053803Y0056104D01*
X0053844Y0056140D01*
X0053888Y0056173D01*
X0053934Y0056203D01*
X0053982Y0056230D01*
X0054032Y0056254D01*
X0054083Y0056274D01*
X0054136Y0056291D01*
X0054190Y0056304D01*
X0054244Y0056313D01*
X0054299Y0056319D01*
X0054354Y0056321D01*
X0054758Y0056321D01*
X0054813Y0056319D01*
X0054868Y0056313D01*
X0054922Y0056304D01*
X0054976Y0056291D01*
X0055029Y0056274D01*
X0055080Y0056254D01*
X0055130Y0056230D01*
X0055178Y0056203D01*
X0055224Y0056173D01*
X0055268Y0056140D01*
X0055310Y0056104D01*
X0055349Y0056065D01*
X0055385Y0056023D01*
X0055418Y0055979D01*
X0055448Y0055933D01*
X0055475Y0055885D01*
X0055499Y0055835D01*
X0055519Y0055784D01*
X0055536Y0055731D01*
X0055549Y0055677D01*
X0055558Y0055623D01*
X0055564Y0055568D01*
X0055566Y0055513D01*
X0055567Y0055513D02*
X0055567Y0054301D01*
X0061990Y0063570D02*
X0061181Y0064580D01*
X0064819Y0064580D01*
X0064819Y0063570D02*
X0064819Y0065590D01*
X0064819Y0060311D02*
X0064819Y0060109D01*
X0064616Y0060109D01*
X0064616Y0060311D01*
X0064819Y0060311D01*
X0064819Y0058084D02*
X0062394Y0057276D01*
X0062394Y0058892D02*
X0064819Y0058084D01*
X0064819Y0071582D02*
X0064819Y0072390D01*
X0064819Y0071986D02*
X0061181Y0071986D01*
X0061181Y0071582D02*
X0061181Y0072390D01*
X0061990Y0073801D02*
X0064010Y0073801D01*
X0064065Y0073803D01*
X0064120Y0073809D01*
X0064174Y0073818D01*
X0064228Y0073831D01*
X0064281Y0073848D01*
X0064332Y0073868D01*
X0064382Y0073892D01*
X0064430Y0073919D01*
X0064476Y0073949D01*
X0064520Y0073982D01*
X0064562Y0074018D01*
X0064601Y0074057D01*
X0064637Y0074099D01*
X0064670Y0074143D01*
X0064700Y0074189D01*
X0064727Y0074237D01*
X0064751Y0074287D01*
X0064771Y0074338D01*
X0064788Y0074391D01*
X0064801Y0074445D01*
X0064810Y0074499D01*
X0064816Y0074554D01*
X0064818Y0074609D01*
X0064819Y0074609D02*
X0064819Y0075417D01*
X0064819Y0076763D02*
X0064819Y0078784D01*
X0064819Y0077774D02*
X0061181Y0077774D01*
X0061990Y0076763D01*
X0061181Y0075417D02*
X0061181Y0074609D01*
X0061182Y0074609D02*
X0061184Y0074554D01*
X0061190Y0074499D01*
X0061199Y0074445D01*
X0061212Y0074391D01*
X0061229Y0074338D01*
X0061249Y0074287D01*
X0061273Y0074237D01*
X0061300Y0074189D01*
X0061330Y0074143D01*
X0061363Y0074099D01*
X0061399Y0074057D01*
X0061439Y0074018D01*
X0061480Y0073982D01*
X0061524Y0073949D01*
X0061570Y0073919D01*
X0061618Y0073892D01*
X0061668Y0073868D01*
X0061719Y0073848D01*
X0061772Y0073831D01*
X0061826Y0073818D01*
X0061880Y0073809D01*
X0061935Y0073803D01*
X0061990Y0073801D01*
X0063202Y0086629D02*
X0064212Y0086629D01*
X0063606Y0086629D02*
X0063606Y0088245D01*
X0063202Y0088245D01*
X0063147Y0088243D01*
X0063092Y0088237D01*
X0063038Y0088228D01*
X0062984Y0088215D01*
X0062931Y0088198D01*
X0062880Y0088178D01*
X0062830Y0088154D01*
X0062782Y0088127D01*
X0062736Y0088097D01*
X0062692Y0088064D01*
X0062650Y0088028D01*
X0062611Y0087989D01*
X0062575Y0087947D01*
X0062542Y0087903D01*
X0062512Y0087857D01*
X0062485Y0087809D01*
X0062461Y0087759D01*
X0062441Y0087708D01*
X0062424Y0087655D01*
X0062411Y0087601D01*
X0062402Y0087547D01*
X0062396Y0087492D01*
X0062394Y0087437D01*
X0062396Y0087382D01*
X0062402Y0087327D01*
X0062411Y0087273D01*
X0062424Y0087219D01*
X0062441Y0087166D01*
X0062461Y0087115D01*
X0062485Y0087065D01*
X0062512Y0087017D01*
X0062542Y0086971D01*
X0062575Y0086927D01*
X0062611Y0086885D01*
X0062650Y0086846D01*
X0062692Y0086810D01*
X0062736Y0086777D01*
X0062782Y0086747D01*
X0062830Y0086720D01*
X0062880Y0086696D01*
X0062931Y0086676D01*
X0062984Y0086659D01*
X0063038Y0086646D01*
X0063092Y0086637D01*
X0063147Y0086631D01*
X0063202Y0086629D01*
X0064212Y0086629D02*
X0064260Y0086631D01*
X0064307Y0086636D01*
X0064353Y0086646D01*
X0064399Y0086659D01*
X0064444Y0086675D01*
X0064487Y0086695D01*
X0064529Y0086718D01*
X0064568Y0086745D01*
X0064606Y0086774D01*
X0064641Y0086806D01*
X0064673Y0086841D01*
X0064702Y0086879D01*
X0064729Y0086918D01*
X0064752Y0086960D01*
X0064772Y0087003D01*
X0064788Y0087048D01*
X0064801Y0087094D01*
X0064811Y0087140D01*
X0064816Y0087187D01*
X0064818Y0087235D01*
X0064819Y0087235D02*
X0064819Y0088245D01*
X0066031Y0089015D02*
X0066029Y0089063D01*
X0066024Y0089110D01*
X0066014Y0089156D01*
X0066001Y0089202D01*
X0065985Y0089247D01*
X0065965Y0089290D01*
X0065942Y0089332D01*
X0065915Y0089371D01*
X0065886Y0089409D01*
X0065854Y0089444D01*
X0065819Y0089476D01*
X0065781Y0089505D01*
X0065742Y0089532D01*
X0065700Y0089555D01*
X0065657Y0089575D01*
X0065612Y0089591D01*
X0065566Y0089604D01*
X0065520Y0089614D01*
X0065473Y0089619D01*
X0065425Y0089621D01*
X0062394Y0089621D01*
X0061384Y0089722D02*
X0061384Y0089520D01*
X0061181Y0089520D01*
X0061181Y0089722D01*
X0061384Y0089722D01*
X0063202Y0091117D02*
X0064010Y0091117D01*
X0064065Y0091119D01*
X0064120Y0091125D01*
X0064174Y0091134D01*
X0064228Y0091147D01*
X0064281Y0091164D01*
X0064332Y0091184D01*
X0064382Y0091208D01*
X0064430Y0091235D01*
X0064476Y0091265D01*
X0064520Y0091298D01*
X0064562Y0091334D01*
X0064601Y0091373D01*
X0064637Y0091415D01*
X0064670Y0091459D01*
X0064700Y0091505D01*
X0064727Y0091553D01*
X0064751Y0091603D01*
X0064771Y0091654D01*
X0064788Y0091707D01*
X0064801Y0091761D01*
X0064810Y0091815D01*
X0064816Y0091870D01*
X0064818Y0091925D01*
X0064816Y0091980D01*
X0064810Y0092035D01*
X0064801Y0092089D01*
X0064788Y0092143D01*
X0064771Y0092196D01*
X0064751Y0092247D01*
X0064727Y0092297D01*
X0064700Y0092345D01*
X0064670Y0092391D01*
X0064637Y0092435D01*
X0064601Y0092477D01*
X0064562Y0092516D01*
X0064520Y0092552D01*
X0064476Y0092585D01*
X0064430Y0092615D01*
X0064382Y0092642D01*
X0064332Y0092666D01*
X0064281Y0092686D01*
X0064228Y0092703D01*
X0064174Y0092716D01*
X0064120Y0092725D01*
X0064065Y0092731D01*
X0064010Y0092733D01*
X0063202Y0092733D01*
X0063147Y0092731D01*
X0063092Y0092725D01*
X0063038Y0092716D01*
X0062984Y0092703D01*
X0062931Y0092686D01*
X0062880Y0092666D01*
X0062830Y0092642D01*
X0062782Y0092615D01*
X0062736Y0092585D01*
X0062692Y0092552D01*
X0062650Y0092516D01*
X0062611Y0092477D01*
X0062575Y0092435D01*
X0062542Y0092391D01*
X0062512Y0092345D01*
X0062485Y0092297D01*
X0062461Y0092247D01*
X0062441Y0092196D01*
X0062424Y0092143D01*
X0062411Y0092089D01*
X0062402Y0092035D01*
X0062396Y0091980D01*
X0062394Y0091925D01*
X0062396Y0091870D01*
X0062402Y0091815D01*
X0062411Y0091761D01*
X0062424Y0091707D01*
X0062441Y0091654D01*
X0062461Y0091603D01*
X0062485Y0091553D01*
X0062512Y0091505D01*
X0062542Y0091459D01*
X0062575Y0091415D01*
X0062611Y0091373D01*
X0062650Y0091334D01*
X0062692Y0091298D01*
X0062736Y0091265D01*
X0062782Y0091235D01*
X0062830Y0091208D01*
X0062880Y0091184D01*
X0062931Y0091164D01*
X0062984Y0091147D01*
X0063038Y0091134D01*
X0063092Y0091125D01*
X0063147Y0091119D01*
X0063202Y0091117D01*
X0062394Y0094070D02*
X0064819Y0094878D01*
X0062394Y0095686D01*
X0062394Y0097161D02*
X0062394Y0098373D01*
X0062798Y0098373D01*
X0062394Y0097161D02*
X0064819Y0097161D01*
X0064819Y0099621D02*
X0061181Y0099621D01*
X0062394Y0099621D02*
X0062394Y0100631D01*
X0062396Y0100679D01*
X0062401Y0100726D01*
X0062411Y0100772D01*
X0062424Y0100818D01*
X0062440Y0100863D01*
X0062460Y0100906D01*
X0062483Y0100948D01*
X0062510Y0100987D01*
X0062539Y0101025D01*
X0062571Y0101060D01*
X0062606Y0101092D01*
X0062644Y0101121D01*
X0062683Y0101148D01*
X0062725Y0101171D01*
X0062768Y0101191D01*
X0062813Y0101207D01*
X0062859Y0101220D01*
X0062905Y0101230D01*
X0062952Y0101235D01*
X0063000Y0101237D01*
X0064819Y0101237D01*
X0064725Y0107115D02*
X0063109Y0107115D01*
X0063109Y0110752D01*
X0064725Y0110752D01*
X0064321Y0109135D02*
X0063109Y0109135D01*
X0061630Y0110752D02*
X0059610Y0108529D01*
X0060418Y0109337D02*
X0061630Y0107115D01*
X0059610Y0107115D02*
X0059610Y0110752D01*
X0056907Y0110752D02*
X0058120Y0107115D01*
X0057816Y0108024D02*
X0055998Y0108024D01*
X0055695Y0107115D02*
X0056907Y0110752D01*
X0054508Y0110752D02*
X0053700Y0107115D01*
X0052891Y0109539D01*
X0052083Y0107115D01*
X0051275Y0110752D01*
X0054354Y0103565D02*
X0054556Y0103565D01*
X0054354Y0103565D02*
X0054299Y0103563D01*
X0054244Y0103557D01*
X0054190Y0103548D01*
X0054136Y0103535D01*
X0054083Y0103518D01*
X0054032Y0103498D01*
X0053982Y0103474D01*
X0053934Y0103447D01*
X0053888Y0103417D01*
X0053844Y0103384D01*
X0053803Y0103348D01*
X0053763Y0103309D01*
X0053727Y0103267D01*
X0053694Y0103223D01*
X0053664Y0103177D01*
X0053637Y0103129D01*
X0053613Y0103079D01*
X0053593Y0103028D01*
X0053576Y0102975D01*
X0053563Y0102921D01*
X0053554Y0102867D01*
X0053548Y0102812D01*
X0053546Y0102757D01*
X0053546Y0101545D01*
X0054556Y0101545D01*
X0054618Y0101547D01*
X0054680Y0101553D01*
X0054742Y0101562D01*
X0054802Y0101576D01*
X0054862Y0101593D01*
X0054921Y0101613D01*
X0054978Y0101637D01*
X0055034Y0101665D01*
X0055088Y0101696D01*
X0055140Y0101731D01*
X0055189Y0101768D01*
X0055236Y0101809D01*
X0055281Y0101852D01*
X0055323Y0101898D01*
X0055362Y0101946D01*
X0055398Y0101997D01*
X0055431Y0102050D01*
X0055460Y0102105D01*
X0055486Y0102161D01*
X0055509Y0102219D01*
X0055527Y0102279D01*
X0055543Y0102339D01*
X0055554Y0102400D01*
X0055562Y0102462D01*
X0055566Y0102524D01*
X0055566Y0102586D01*
X0055562Y0102648D01*
X0055554Y0102710D01*
X0055543Y0102771D01*
X0055527Y0102831D01*
X0055509Y0102891D01*
X0055486Y0102949D01*
X0055460Y0103005D01*
X0055431Y0103060D01*
X0055398Y0103113D01*
X0055362Y0103164D01*
X0055323Y0103212D01*
X0055281Y0103258D01*
X0055236Y0103301D01*
X0055189Y0103342D01*
X0055140Y0103379D01*
X0055088Y0103414D01*
X0055034Y0103445D01*
X0054978Y0103473D01*
X0054921Y0103497D01*
X0054862Y0103517D01*
X0054802Y0103534D01*
X0054742Y0103548D01*
X0054680Y0103557D01*
X0054618Y0103563D01*
X0054556Y0103565D01*
X0053546Y0101545D02*
X0053467Y0101547D01*
X0053388Y0101553D01*
X0053309Y0101562D01*
X0053231Y0101576D01*
X0053153Y0101593D01*
X0053077Y0101615D01*
X0053002Y0101639D01*
X0052928Y0101668D01*
X0052855Y0101700D01*
X0052784Y0101736D01*
X0052715Y0101775D01*
X0052648Y0101817D01*
X0052583Y0101863D01*
X0052521Y0101912D01*
X0052461Y0101964D01*
X0052403Y0102018D01*
X0052349Y0102076D01*
X0052297Y0102136D01*
X0052248Y0102198D01*
X0052202Y0102263D01*
X0052160Y0102330D01*
X0052121Y0102399D01*
X0052085Y0102470D01*
X0052053Y0102543D01*
X0052024Y0102617D01*
X0052000Y0102692D01*
X0051978Y0102768D01*
X0051961Y0102846D01*
X0051947Y0102924D01*
X0051938Y0103003D01*
X0051932Y0103082D01*
X0051930Y0103161D01*
X0042306Y0110752D02*
X0040286Y0110752D01*
X0041296Y0110752D02*
X0041296Y0107115D01*
X0038713Y0108630D02*
X0037602Y0109236D01*
X0038006Y0110751D02*
X0038081Y0110749D01*
X0038156Y0110744D01*
X0038230Y0110734D01*
X0038304Y0110721D01*
X0038377Y0110705D01*
X0038449Y0110685D01*
X0038521Y0110661D01*
X0038590Y0110634D01*
X0038659Y0110603D01*
X0038726Y0110569D01*
X0038791Y0110532D01*
X0038854Y0110491D01*
X0038915Y0110448D01*
X0037602Y0109236D02*
X0037557Y0109264D01*
X0037514Y0109296D01*
X0037473Y0109330D01*
X0037435Y0109366D01*
X0037398Y0109405D01*
X0037365Y0109447D01*
X0037334Y0109490D01*
X0037306Y0109536D01*
X0037281Y0109583D01*
X0037259Y0109631D01*
X0037241Y0109681D01*
X0037226Y0109732D01*
X0037214Y0109784D01*
X0037205Y0109837D01*
X0037200Y0109890D01*
X0037198Y0109943D01*
X0037200Y0109998D01*
X0037206Y0110053D01*
X0037215Y0110107D01*
X0037228Y0110161D01*
X0037245Y0110214D01*
X0037265Y0110265D01*
X0037289Y0110315D01*
X0037316Y0110363D01*
X0037346Y0110409D01*
X0037379Y0110453D01*
X0037415Y0110495D01*
X0037455Y0110534D01*
X0037496Y0110570D01*
X0037540Y0110603D01*
X0037586Y0110633D01*
X0037634Y0110660D01*
X0037684Y0110684D01*
X0037735Y0110704D01*
X0037788Y0110721D01*
X0037842Y0110734D01*
X0037896Y0110743D01*
X0037951Y0110749D01*
X0038006Y0110751D01*
X0037097Y0107620D02*
X0037154Y0107565D01*
X0037214Y0107513D01*
X0037276Y0107463D01*
X0037340Y0107417D01*
X0037406Y0107373D01*
X0037474Y0107333D01*
X0037544Y0107296D01*
X0037616Y0107262D01*
X0037689Y0107231D01*
X0037764Y0107204D01*
X0037839Y0107181D01*
X0037916Y0107161D01*
X0037994Y0107144D01*
X0038072Y0107132D01*
X0038151Y0107122D01*
X0038230Y0107117D01*
X0038309Y0107115D01*
X0038364Y0107117D01*
X0038419Y0107123D01*
X0038473Y0107132D01*
X0038527Y0107145D01*
X0038580Y0107162D01*
X0038631Y0107182D01*
X0038681Y0107206D01*
X0038729Y0107233D01*
X0038775Y0107263D01*
X0038819Y0107296D01*
X0038861Y0107332D01*
X0038900Y0107371D01*
X0038936Y0107413D01*
X0038969Y0107457D01*
X0038999Y0107503D01*
X0039026Y0107551D01*
X0039050Y0107601D01*
X0039070Y0107652D01*
X0039087Y0107705D01*
X0039100Y0107759D01*
X0039109Y0107813D01*
X0039115Y0107868D01*
X0039117Y0107923D01*
X0039115Y0107976D01*
X0039110Y0108029D01*
X0039101Y0108082D01*
X0039089Y0108134D01*
X0039074Y0108185D01*
X0039056Y0108235D01*
X0039034Y0108283D01*
X0039009Y0108330D01*
X0038981Y0108376D01*
X0038950Y0108419D01*
X0038917Y0108461D01*
X0038880Y0108500D01*
X0038842Y0108536D01*
X0038801Y0108570D01*
X0038758Y0108602D01*
X0038713Y0108630D01*
X0035714Y0107115D02*
X0034906Y0108731D01*
X0034704Y0108731D02*
X0033694Y0108731D01*
X0034704Y0108731D02*
X0034766Y0108733D01*
X0034828Y0108739D01*
X0034890Y0108748D01*
X0034950Y0108762D01*
X0035010Y0108779D01*
X0035069Y0108799D01*
X0035126Y0108823D01*
X0035182Y0108851D01*
X0035236Y0108882D01*
X0035288Y0108917D01*
X0035337Y0108954D01*
X0035384Y0108995D01*
X0035429Y0109038D01*
X0035471Y0109084D01*
X0035510Y0109132D01*
X0035546Y0109183D01*
X0035579Y0109236D01*
X0035608Y0109291D01*
X0035634Y0109347D01*
X0035657Y0109405D01*
X0035675Y0109465D01*
X0035691Y0109525D01*
X0035702Y0109586D01*
X0035710Y0109648D01*
X0035714Y0109710D01*
X0035714Y0109772D01*
X0035710Y0109834D01*
X0035702Y0109896D01*
X0035691Y0109957D01*
X0035675Y0110017D01*
X0035657Y0110077D01*
X0035634Y0110135D01*
X0035608Y0110191D01*
X0035579Y0110246D01*
X0035546Y0110299D01*
X0035510Y0110350D01*
X0035471Y0110398D01*
X0035429Y0110444D01*
X0035384Y0110487D01*
X0035337Y0110528D01*
X0035288Y0110565D01*
X0035236Y0110600D01*
X0035182Y0110631D01*
X0035126Y0110659D01*
X0035069Y0110683D01*
X0035010Y0110703D01*
X0034950Y0110720D01*
X0034890Y0110734D01*
X0034828Y0110743D01*
X0034766Y0110749D01*
X0034704Y0110751D01*
X0034704Y0110752D02*
X0033694Y0110752D01*
X0033694Y0107115D01*
X0024071Y0104327D02*
X0024069Y0104382D01*
X0024063Y0104436D01*
X0024053Y0104489D01*
X0024039Y0104542D01*
X0024022Y0104594D01*
X0024000Y0104644D01*
X0023976Y0104693D01*
X0023947Y0104739D01*
X0023915Y0104784D01*
X0023881Y0104826D01*
X0023843Y0104865D01*
X0023802Y0104901D01*
X0023759Y0104935D01*
X0023713Y0104965D01*
X0023666Y0104992D01*
X0023617Y0105015D01*
X0023566Y0105035D01*
X0024071Y0104327D02*
X0024069Y0104272D01*
X0024063Y0104218D01*
X0024053Y0104165D01*
X0024039Y0104112D01*
X0024022Y0104060D01*
X0024000Y0104010D01*
X0023976Y0103961D01*
X0023947Y0103915D01*
X0023915Y0103870D01*
X0023881Y0103828D01*
X0023843Y0103789D01*
X0023802Y0103753D01*
X0023759Y0103719D01*
X0023713Y0103689D01*
X0023666Y0103662D01*
X0023617Y0103639D01*
X0023566Y0103619D01*
X0023262Y0103519D02*
X0021242Y0105135D01*
X0020938Y0105035D02*
X0020887Y0105015D01*
X0020838Y0104992D01*
X0020791Y0104965D01*
X0020745Y0104935D01*
X0020702Y0104901D01*
X0020661Y0104865D01*
X0020623Y0104826D01*
X0020589Y0104784D01*
X0020557Y0104739D01*
X0020528Y0104693D01*
X0020504Y0104644D01*
X0020482Y0104594D01*
X0020465Y0104542D01*
X0020451Y0104489D01*
X0020441Y0104436D01*
X0020435Y0104382D01*
X0020433Y0104327D01*
X0020435Y0104272D01*
X0020441Y0104218D01*
X0020451Y0104165D01*
X0020465Y0104112D01*
X0020482Y0104060D01*
X0020504Y0104010D01*
X0020528Y0103961D01*
X0020557Y0103915D01*
X0020589Y0103870D01*
X0020623Y0103828D01*
X0020661Y0103789D01*
X0020702Y0103753D01*
X0020745Y0103719D01*
X0020791Y0103689D01*
X0020838Y0103662D01*
X0020887Y0103639D01*
X0020938Y0103619D01*
X0020939Y0105034D02*
X0021033Y0105078D01*
X0021130Y0105119D01*
X0021227Y0105156D01*
X0021326Y0105190D01*
X0021426Y0105221D01*
X0021527Y0105248D01*
X0021629Y0105272D01*
X0021732Y0105292D01*
X0021835Y0105308D01*
X0021939Y0105321D01*
X0022043Y0105330D01*
X0022147Y0105335D01*
X0022252Y0105337D01*
X0022252Y0103317D02*
X0022147Y0103319D01*
X0022043Y0103324D01*
X0021939Y0103333D01*
X0021835Y0103346D01*
X0021732Y0103362D01*
X0021629Y0103382D01*
X0021527Y0103406D01*
X0021426Y0103433D01*
X0021326Y0103464D01*
X0021227Y0103498D01*
X0021130Y0103535D01*
X0021034Y0103576D01*
X0020939Y0103620D01*
X0022252Y0105337D02*
X0022357Y0105335D01*
X0022461Y0105330D01*
X0022565Y0105321D01*
X0022669Y0105308D01*
X0022772Y0105292D01*
X0022875Y0105272D01*
X0022977Y0105248D01*
X0023078Y0105221D01*
X0023178Y0105190D01*
X0023277Y0105156D01*
X0023374Y0105119D01*
X0023471Y0105078D01*
X0023565Y0105034D01*
X0023565Y0103620D02*
X0023470Y0103576D01*
X0023374Y0103535D01*
X0023277Y0103498D01*
X0023178Y0103464D01*
X0023078Y0103433D01*
X0022977Y0103406D01*
X0022875Y0103382D01*
X0022772Y0103362D01*
X0022669Y0103346D01*
X0022565Y0103333D01*
X0022461Y0103324D01*
X0022357Y0103319D01*
X0022252Y0103317D01*
X0024070Y0101794D02*
X0024070Y0099773D01*
X0024070Y0100783D02*
X0020433Y0100783D01*
X0021242Y0099773D01*
X0014946Y0097821D02*
X0013330Y0097821D01*
X0014138Y0098428D02*
X0014138Y0096407D01*
X0011309Y0097215D01*
X0011309Y0095054D02*
X0013532Y0093033D01*
X0012724Y0093841D02*
X0014946Y0095054D01*
X0014946Y0093033D02*
X0011309Y0093033D01*
X0011309Y0091189D02*
X0014946Y0091189D01*
X0013330Y0089976D02*
X0011309Y0091189D01*
X0013330Y0089976D02*
X0011309Y0088764D01*
X0014946Y0088764D01*
X0013532Y0087055D02*
X0013532Y0084630D01*
X0014441Y0081356D02*
X0014346Y0081312D01*
X0014250Y0081271D01*
X0014153Y0081234D01*
X0014054Y0081200D01*
X0013954Y0081169D01*
X0013853Y0081142D01*
X0013751Y0081118D01*
X0013648Y0081098D01*
X0013545Y0081082D01*
X0013441Y0081069D01*
X0013337Y0081060D01*
X0013233Y0081055D01*
X0013128Y0081053D01*
X0013128Y0083073D02*
X0013023Y0083071D01*
X0012919Y0083066D01*
X0012815Y0083057D01*
X0012711Y0083044D01*
X0012608Y0083028D01*
X0012505Y0083008D01*
X0012403Y0082984D01*
X0012302Y0082957D01*
X0012202Y0082926D01*
X0012103Y0082892D01*
X0012006Y0082855D01*
X0011909Y0082814D01*
X0011815Y0082770D01*
X0012118Y0082871D02*
X0014138Y0081255D01*
X0014947Y0082063D02*
X0014945Y0082118D01*
X0014939Y0082172D01*
X0014929Y0082225D01*
X0014915Y0082278D01*
X0014898Y0082330D01*
X0014876Y0082380D01*
X0014852Y0082429D01*
X0014823Y0082475D01*
X0014791Y0082520D01*
X0014757Y0082562D01*
X0014719Y0082601D01*
X0014678Y0082637D01*
X0014635Y0082671D01*
X0014589Y0082701D01*
X0014542Y0082728D01*
X0014493Y0082751D01*
X0014442Y0082771D01*
X0014947Y0082063D02*
X0014945Y0082008D01*
X0014939Y0081954D01*
X0014929Y0081901D01*
X0014915Y0081848D01*
X0014898Y0081796D01*
X0014876Y0081746D01*
X0014852Y0081697D01*
X0014823Y0081651D01*
X0014791Y0081606D01*
X0014757Y0081564D01*
X0014719Y0081525D01*
X0014678Y0081489D01*
X0014635Y0081455D01*
X0014589Y0081425D01*
X0014542Y0081398D01*
X0014493Y0081375D01*
X0014442Y0081355D01*
X0014441Y0082770D02*
X0014347Y0082814D01*
X0014250Y0082855D01*
X0014153Y0082892D01*
X0014054Y0082926D01*
X0013954Y0082957D01*
X0013853Y0082984D01*
X0013751Y0083008D01*
X0013648Y0083028D01*
X0013545Y0083044D01*
X0013441Y0083057D01*
X0013337Y0083066D01*
X0013233Y0083071D01*
X0013128Y0083073D01*
X0013128Y0081053D02*
X0013023Y0081055D01*
X0012919Y0081060D01*
X0012815Y0081069D01*
X0012711Y0081082D01*
X0012608Y0081098D01*
X0012505Y0081118D01*
X0012403Y0081142D01*
X0012302Y0081169D01*
X0012202Y0081200D01*
X0012103Y0081234D01*
X0012006Y0081271D01*
X0011910Y0081312D01*
X0011815Y0081356D01*
X0011309Y0082063D02*
X0011311Y0082118D01*
X0011317Y0082172D01*
X0011327Y0082225D01*
X0011341Y0082278D01*
X0011358Y0082330D01*
X0011380Y0082380D01*
X0011404Y0082429D01*
X0011433Y0082475D01*
X0011465Y0082520D01*
X0011499Y0082562D01*
X0011537Y0082601D01*
X0011578Y0082637D01*
X0011621Y0082671D01*
X0011667Y0082701D01*
X0011714Y0082728D01*
X0011763Y0082751D01*
X0011814Y0082771D01*
X0011309Y0082063D02*
X0011311Y0082008D01*
X0011317Y0081954D01*
X0011327Y0081901D01*
X0011341Y0081848D01*
X0011358Y0081796D01*
X0011380Y0081746D01*
X0011404Y0081697D01*
X0011433Y0081651D01*
X0011465Y0081606D01*
X0011499Y0081564D01*
X0011537Y0081525D01*
X0011578Y0081489D01*
X0011621Y0081455D01*
X0011667Y0081425D01*
X0011714Y0081398D01*
X0011763Y0081375D01*
X0011814Y0081355D01*
X0011309Y0078520D02*
X0014946Y0078520D01*
X0014946Y0079530D02*
X0014946Y0077509D01*
X0014138Y0075987D02*
X0013734Y0075987D01*
X0013734Y0075986D02*
X0013679Y0075984D01*
X0013624Y0075978D01*
X0013570Y0075969D01*
X0013516Y0075956D01*
X0013463Y0075939D01*
X0013412Y0075919D01*
X0013362Y0075895D01*
X0013314Y0075868D01*
X0013268Y0075838D01*
X0013224Y0075805D01*
X0013183Y0075769D01*
X0013143Y0075730D01*
X0013107Y0075688D01*
X0013074Y0075644D01*
X0013044Y0075598D01*
X0013017Y0075550D01*
X0012993Y0075500D01*
X0012973Y0075449D01*
X0012956Y0075396D01*
X0012943Y0075342D01*
X0012934Y0075288D01*
X0012928Y0075233D01*
X0012926Y0075178D01*
X0012926Y0073966D01*
X0011309Y0073966D01*
X0011309Y0075987D01*
X0012118Y0077509D02*
X0011309Y0078520D01*
X0014138Y0075986D02*
X0014193Y0075984D01*
X0014248Y0075978D01*
X0014302Y0075969D01*
X0014356Y0075956D01*
X0014409Y0075939D01*
X0014460Y0075919D01*
X0014510Y0075895D01*
X0014558Y0075868D01*
X0014604Y0075838D01*
X0014648Y0075805D01*
X0014690Y0075769D01*
X0014729Y0075730D01*
X0014765Y0075688D01*
X0014798Y0075644D01*
X0014828Y0075598D01*
X0014855Y0075550D01*
X0014879Y0075500D01*
X0014899Y0075449D01*
X0014916Y0075396D01*
X0014929Y0075342D01*
X0014938Y0075288D01*
X0014944Y0075233D01*
X0014946Y0075178D01*
X0014946Y0073966D01*
X0014946Y0072443D02*
X0014946Y0070423D01*
X0014946Y0071433D02*
X0011309Y0071433D01*
X0012118Y0070423D01*
X0012926Y0068782D02*
X0014946Y0068782D01*
X0014946Y0067570D01*
X0014944Y0067515D01*
X0014938Y0067460D01*
X0014929Y0067406D01*
X0014916Y0067352D01*
X0014899Y0067299D01*
X0014879Y0067248D01*
X0014855Y0067198D01*
X0014828Y0067150D01*
X0014798Y0067104D01*
X0014765Y0067060D01*
X0014729Y0067018D01*
X0014690Y0066979D01*
X0014648Y0066943D01*
X0014604Y0066910D01*
X0014558Y0066880D01*
X0014510Y0066853D01*
X0014460Y0066829D01*
X0014409Y0066809D01*
X0014356Y0066792D01*
X0014302Y0066779D01*
X0014248Y0066770D01*
X0014193Y0066764D01*
X0014138Y0066762D01*
X0014138Y0066761D02*
X0012118Y0066761D01*
X0012118Y0066762D02*
X0012063Y0066764D01*
X0012008Y0066770D01*
X0011954Y0066779D01*
X0011900Y0066792D01*
X0011847Y0066809D01*
X0011796Y0066829D01*
X0011746Y0066853D01*
X0011698Y0066880D01*
X0011652Y0066910D01*
X0011608Y0066943D01*
X0011567Y0066979D01*
X0011527Y0067018D01*
X0011491Y0067060D01*
X0011458Y0067104D01*
X0011428Y0067150D01*
X0011401Y0067198D01*
X0011377Y0067248D01*
X0011357Y0067299D01*
X0011340Y0067352D01*
X0011327Y0067406D01*
X0011318Y0067460D01*
X0011312Y0067515D01*
X0011310Y0067570D01*
X0011309Y0067570D02*
X0011309Y0068782D01*
X0012926Y0068782D02*
X0012926Y0068176D01*
X0014946Y0065143D02*
X0013330Y0064335D01*
X0013330Y0064133D02*
X0013330Y0063122D01*
X0013330Y0064133D02*
X0013328Y0064195D01*
X0013322Y0064257D01*
X0013313Y0064319D01*
X0013299Y0064379D01*
X0013282Y0064439D01*
X0013262Y0064498D01*
X0013238Y0064555D01*
X0013210Y0064611D01*
X0013179Y0064665D01*
X0013144Y0064717D01*
X0013107Y0064766D01*
X0013066Y0064813D01*
X0013023Y0064858D01*
X0012977Y0064900D01*
X0012929Y0064939D01*
X0012878Y0064975D01*
X0012825Y0065008D01*
X0012770Y0065037D01*
X0012714Y0065063D01*
X0012656Y0065086D01*
X0012596Y0065104D01*
X0012536Y0065120D01*
X0012475Y0065131D01*
X0012413Y0065139D01*
X0012351Y0065143D01*
X0012289Y0065143D01*
X0012227Y0065139D01*
X0012165Y0065131D01*
X0012104Y0065120D01*
X0012044Y0065104D01*
X0011984Y0065086D01*
X0011926Y0065063D01*
X0011870Y0065037D01*
X0011815Y0065008D01*
X0011762Y0064975D01*
X0011711Y0064939D01*
X0011663Y0064900D01*
X0011617Y0064858D01*
X0011574Y0064813D01*
X0011533Y0064766D01*
X0011496Y0064717D01*
X0011461Y0064665D01*
X0011430Y0064611D01*
X0011402Y0064555D01*
X0011378Y0064498D01*
X0011358Y0064439D01*
X0011341Y0064379D01*
X0011327Y0064319D01*
X0011318Y0064257D01*
X0011312Y0064195D01*
X0011310Y0064133D01*
X0011309Y0064133D02*
X0011309Y0063122D01*
X0014946Y0063122D01*
X0013936Y0061459D02*
X0012320Y0061459D01*
X0012258Y0061457D01*
X0012196Y0061451D01*
X0012134Y0061442D01*
X0012074Y0061428D01*
X0012014Y0061411D01*
X0011955Y0061391D01*
X0011898Y0061367D01*
X0011842Y0061339D01*
X0011788Y0061308D01*
X0011736Y0061273D01*
X0011687Y0061236D01*
X0011640Y0061195D01*
X0011595Y0061152D01*
X0011553Y0061106D01*
X0011514Y0061058D01*
X0011478Y0061007D01*
X0011445Y0060954D01*
X0011416Y0060899D01*
X0011390Y0060843D01*
X0011367Y0060785D01*
X0011349Y0060725D01*
X0011333Y0060665D01*
X0011322Y0060604D01*
X0011314Y0060542D01*
X0011310Y0060480D01*
X0011310Y0060418D01*
X0011314Y0060356D01*
X0011322Y0060294D01*
X0011333Y0060233D01*
X0011349Y0060173D01*
X0011367Y0060113D01*
X0011390Y0060055D01*
X0011416Y0059999D01*
X0011445Y0059944D01*
X0011478Y0059891D01*
X0011514Y0059840D01*
X0011553Y0059792D01*
X0011595Y0059746D01*
X0011640Y0059703D01*
X0011687Y0059662D01*
X0011736Y0059625D01*
X0011788Y0059590D01*
X0011842Y0059559D01*
X0011898Y0059531D01*
X0011955Y0059507D01*
X0012014Y0059487D01*
X0012074Y0059470D01*
X0012134Y0059456D01*
X0012196Y0059447D01*
X0012258Y0059441D01*
X0012320Y0059439D01*
X0013936Y0059439D01*
X0013998Y0059441D01*
X0014060Y0059447D01*
X0014122Y0059456D01*
X0014182Y0059470D01*
X0014242Y0059487D01*
X0014301Y0059507D01*
X0014358Y0059531D01*
X0014414Y0059559D01*
X0014468Y0059590D01*
X0014520Y0059625D01*
X0014569Y0059662D01*
X0014616Y0059703D01*
X0014661Y0059746D01*
X0014703Y0059792D01*
X0014742Y0059840D01*
X0014778Y0059891D01*
X0014811Y0059944D01*
X0014840Y0059999D01*
X0014866Y0060055D01*
X0014889Y0060113D01*
X0014907Y0060173D01*
X0014923Y0060233D01*
X0014934Y0060294D01*
X0014942Y0060356D01*
X0014946Y0060418D01*
X0014946Y0060480D01*
X0014942Y0060542D01*
X0014934Y0060604D01*
X0014923Y0060665D01*
X0014907Y0060725D01*
X0014889Y0060785D01*
X0014866Y0060843D01*
X0014840Y0060899D01*
X0014811Y0060954D01*
X0014778Y0061007D01*
X0014742Y0061058D01*
X0014703Y0061106D01*
X0014661Y0061152D01*
X0014616Y0061195D01*
X0014569Y0061236D01*
X0014520Y0061273D01*
X0014468Y0061308D01*
X0014414Y0061339D01*
X0014358Y0061367D01*
X0014301Y0061391D01*
X0014242Y0061411D01*
X0014182Y0061428D01*
X0014122Y0061442D01*
X0014060Y0061451D01*
X0013998Y0061457D01*
X0013936Y0061459D01*
X0020433Y0055311D02*
X0024070Y0055311D01*
X0024070Y0054301D02*
X0024070Y0056321D01*
X0021242Y0054301D02*
X0020433Y0055311D01*
X0020991Y0050752D02*
X0022001Y0050752D01*
X0020991Y0050752D02*
X0020991Y0047115D01*
X0020991Y0048731D02*
X0022001Y0048731D01*
X0022203Y0048731D02*
X0023012Y0047115D01*
X0022001Y0048731D02*
X0022063Y0048733D01*
X0022125Y0048739D01*
X0022187Y0048748D01*
X0022247Y0048762D01*
X0022307Y0048779D01*
X0022366Y0048799D01*
X0022423Y0048823D01*
X0022479Y0048851D01*
X0022533Y0048882D01*
X0022585Y0048917D01*
X0022634Y0048954D01*
X0022681Y0048995D01*
X0022726Y0049038D01*
X0022768Y0049084D01*
X0022807Y0049132D01*
X0022843Y0049183D01*
X0022876Y0049236D01*
X0022905Y0049291D01*
X0022931Y0049347D01*
X0022954Y0049405D01*
X0022972Y0049465D01*
X0022988Y0049525D01*
X0022999Y0049586D01*
X0023007Y0049648D01*
X0023011Y0049710D01*
X0023011Y0049772D01*
X0023007Y0049834D01*
X0022999Y0049896D01*
X0022988Y0049957D01*
X0022972Y0050017D01*
X0022954Y0050077D01*
X0022931Y0050135D01*
X0022905Y0050191D01*
X0022876Y0050246D01*
X0022843Y0050299D01*
X0022807Y0050350D01*
X0022768Y0050398D01*
X0022726Y0050444D01*
X0022681Y0050487D01*
X0022634Y0050528D01*
X0022585Y0050565D01*
X0022533Y0050600D01*
X0022479Y0050631D01*
X0022423Y0050659D01*
X0022366Y0050683D01*
X0022307Y0050703D01*
X0022247Y0050720D01*
X0022187Y0050734D01*
X0022125Y0050743D01*
X0022063Y0050749D01*
X0022001Y0050751D01*
X0019462Y0050752D02*
X0018653Y0047115D01*
X0017845Y0049539D01*
X0017037Y0047115D01*
X0016229Y0050752D01*
X0013999Y0050752D02*
X0012988Y0050752D01*
X0012988Y0047115D01*
X0012988Y0048731D02*
X0013999Y0048731D01*
X0014061Y0048733D01*
X0014123Y0048739D01*
X0014185Y0048748D01*
X0014245Y0048762D01*
X0014305Y0048779D01*
X0014364Y0048799D01*
X0014421Y0048823D01*
X0014477Y0048851D01*
X0014531Y0048882D01*
X0014583Y0048917D01*
X0014632Y0048954D01*
X0014679Y0048995D01*
X0014724Y0049038D01*
X0014766Y0049084D01*
X0014805Y0049132D01*
X0014841Y0049183D01*
X0014874Y0049236D01*
X0014903Y0049291D01*
X0014929Y0049347D01*
X0014952Y0049405D01*
X0014970Y0049465D01*
X0014986Y0049525D01*
X0014997Y0049586D01*
X0015005Y0049648D01*
X0015009Y0049710D01*
X0015009Y0049772D01*
X0015005Y0049834D01*
X0014997Y0049896D01*
X0014986Y0049957D01*
X0014970Y0050017D01*
X0014952Y0050077D01*
X0014929Y0050135D01*
X0014903Y0050191D01*
X0014874Y0050246D01*
X0014841Y0050299D01*
X0014805Y0050350D01*
X0014766Y0050398D01*
X0014724Y0050444D01*
X0014679Y0050487D01*
X0014632Y0050528D01*
X0014583Y0050565D01*
X0014531Y0050600D01*
X0014477Y0050631D01*
X0014421Y0050659D01*
X0014364Y0050683D01*
X0014305Y0050703D01*
X0014245Y0050720D01*
X0014185Y0050734D01*
X0014123Y0050743D01*
X0014061Y0050749D01*
X0013999Y0050751D01*
X0035235Y0050752D02*
X0037256Y0050752D01*
X0036245Y0050752D02*
X0036245Y0047115D01*
X0038340Y0047115D02*
X0040765Y0050752D01*
X0038340Y0050752D02*
X0040765Y0047115D01*
X0066031Y0088813D02*
X0066031Y0089015D01*
X0047769Y0127115D02*
X0047769Y0130752D01*
X0046759Y0130752D02*
X0048779Y0130752D01*
X0050049Y0129943D02*
X0050051Y0129998D01*
X0050057Y0130053D01*
X0050066Y0130107D01*
X0050079Y0130161D01*
X0050096Y0130214D01*
X0050116Y0130265D01*
X0050140Y0130315D01*
X0050167Y0130363D01*
X0050197Y0130409D01*
X0050230Y0130453D01*
X0050266Y0130495D01*
X0050306Y0130534D01*
X0050347Y0130570D01*
X0050391Y0130603D01*
X0050437Y0130633D01*
X0050485Y0130660D01*
X0050535Y0130684D01*
X0050586Y0130704D01*
X0050639Y0130721D01*
X0050693Y0130734D01*
X0050747Y0130743D01*
X0050802Y0130749D01*
X0050857Y0130751D01*
X0050048Y0129943D02*
X0050050Y0129890D01*
X0050055Y0129837D01*
X0050064Y0129784D01*
X0050076Y0129732D01*
X0050091Y0129681D01*
X0050109Y0129631D01*
X0050131Y0129583D01*
X0050156Y0129536D01*
X0050184Y0129490D01*
X0050215Y0129447D01*
X0050248Y0129405D01*
X0050285Y0129366D01*
X0050323Y0129330D01*
X0050364Y0129296D01*
X0050407Y0129264D01*
X0050452Y0129236D01*
X0050453Y0129236D02*
X0051564Y0128630D01*
X0051160Y0127115D02*
X0051081Y0127117D01*
X0051002Y0127122D01*
X0050923Y0127132D01*
X0050845Y0127144D01*
X0050767Y0127161D01*
X0050690Y0127181D01*
X0050615Y0127204D01*
X0050540Y0127231D01*
X0050467Y0127262D01*
X0050395Y0127296D01*
X0050325Y0127333D01*
X0050257Y0127373D01*
X0050191Y0127417D01*
X0050127Y0127463D01*
X0050065Y0127513D01*
X0050005Y0127565D01*
X0049948Y0127620D01*
X0051564Y0128630D02*
X0051609Y0128602D01*
X0051652Y0128570D01*
X0051693Y0128536D01*
X0051731Y0128500D01*
X0051768Y0128461D01*
X0051801Y0128419D01*
X0051832Y0128376D01*
X0051860Y0128330D01*
X0051885Y0128283D01*
X0051907Y0128235D01*
X0051925Y0128185D01*
X0051940Y0128134D01*
X0051952Y0128082D01*
X0051961Y0128029D01*
X0051966Y0127976D01*
X0051968Y0127923D01*
X0051966Y0127868D01*
X0051960Y0127813D01*
X0051951Y0127759D01*
X0051938Y0127705D01*
X0051921Y0127652D01*
X0051901Y0127601D01*
X0051877Y0127551D01*
X0051850Y0127503D01*
X0051820Y0127457D01*
X0051787Y0127413D01*
X0051751Y0127371D01*
X0051712Y0127332D01*
X0051670Y0127296D01*
X0051626Y0127263D01*
X0051580Y0127233D01*
X0051532Y0127206D01*
X0051482Y0127182D01*
X0051431Y0127162D01*
X0051378Y0127145D01*
X0051324Y0127132D01*
X0051270Y0127123D01*
X0051215Y0127117D01*
X0051160Y0127115D01*
X0051766Y0130448D02*
X0051705Y0130491D01*
X0051642Y0130532D01*
X0051577Y0130569D01*
X0051510Y0130603D01*
X0051441Y0130634D01*
X0051372Y0130661D01*
X0051300Y0130685D01*
X0051228Y0130705D01*
X0051155Y0130721D01*
X0051081Y0130734D01*
X0051007Y0130744D01*
X0050932Y0130749D01*
X0050857Y0130751D01*
X0045648Y0130752D02*
X0044840Y0130752D01*
X0044840Y0130751D02*
X0044785Y0130749D01*
X0044730Y0130743D01*
X0044676Y0130734D01*
X0044622Y0130721D01*
X0044569Y0130704D01*
X0044518Y0130684D01*
X0044468Y0130660D01*
X0044420Y0130633D01*
X0044374Y0130603D01*
X0044330Y0130570D01*
X0044288Y0130534D01*
X0044249Y0130494D01*
X0044213Y0130453D01*
X0044180Y0130409D01*
X0044150Y0130363D01*
X0044123Y0130315D01*
X0044099Y0130265D01*
X0044079Y0130214D01*
X0044062Y0130161D01*
X0044049Y0130107D01*
X0044040Y0130053D01*
X0044034Y0129998D01*
X0044032Y0129943D01*
X0044032Y0127923D01*
X0044034Y0127868D01*
X0044040Y0127813D01*
X0044049Y0127759D01*
X0044062Y0127705D01*
X0044079Y0127652D01*
X0044099Y0127601D01*
X0044123Y0127551D01*
X0044150Y0127503D01*
X0044180Y0127457D01*
X0044213Y0127413D01*
X0044249Y0127371D01*
X0044288Y0127332D01*
X0044330Y0127296D01*
X0044374Y0127263D01*
X0044420Y0127233D01*
X0044468Y0127206D01*
X0044518Y0127182D01*
X0044569Y0127162D01*
X0044622Y0127145D01*
X0044676Y0127132D01*
X0044730Y0127123D01*
X0044785Y0127117D01*
X0044840Y0127115D01*
X0045648Y0127115D01*
X0031843Y0128630D02*
X0030732Y0129236D01*
X0031136Y0130751D02*
X0031211Y0130749D01*
X0031286Y0130744D01*
X0031360Y0130734D01*
X0031434Y0130721D01*
X0031507Y0130705D01*
X0031579Y0130685D01*
X0031651Y0130661D01*
X0031720Y0130634D01*
X0031789Y0130603D01*
X0031856Y0130569D01*
X0031921Y0130532D01*
X0031984Y0130491D01*
X0032045Y0130448D01*
X0030731Y0129236D02*
X0030686Y0129264D01*
X0030643Y0129296D01*
X0030602Y0129330D01*
X0030564Y0129366D01*
X0030527Y0129405D01*
X0030494Y0129447D01*
X0030463Y0129490D01*
X0030435Y0129536D01*
X0030410Y0129583D01*
X0030388Y0129631D01*
X0030370Y0129681D01*
X0030355Y0129732D01*
X0030343Y0129784D01*
X0030334Y0129837D01*
X0030329Y0129890D01*
X0030327Y0129943D01*
X0030328Y0129943D02*
X0030330Y0129998D01*
X0030336Y0130053D01*
X0030345Y0130107D01*
X0030358Y0130161D01*
X0030375Y0130214D01*
X0030395Y0130265D01*
X0030419Y0130315D01*
X0030446Y0130363D01*
X0030476Y0130409D01*
X0030509Y0130453D01*
X0030545Y0130495D01*
X0030585Y0130534D01*
X0030626Y0130570D01*
X0030670Y0130603D01*
X0030716Y0130633D01*
X0030764Y0130660D01*
X0030814Y0130684D01*
X0030865Y0130704D01*
X0030918Y0130721D01*
X0030972Y0130734D01*
X0031026Y0130743D01*
X0031081Y0130749D01*
X0031136Y0130751D01*
X0030227Y0127620D02*
X0030284Y0127565D01*
X0030344Y0127513D01*
X0030406Y0127463D01*
X0030470Y0127417D01*
X0030536Y0127373D01*
X0030604Y0127333D01*
X0030674Y0127296D01*
X0030746Y0127262D01*
X0030819Y0127231D01*
X0030894Y0127204D01*
X0030969Y0127181D01*
X0031046Y0127161D01*
X0031124Y0127144D01*
X0031202Y0127132D01*
X0031281Y0127122D01*
X0031360Y0127117D01*
X0031439Y0127115D01*
X0031494Y0127117D01*
X0031549Y0127123D01*
X0031603Y0127132D01*
X0031657Y0127145D01*
X0031710Y0127162D01*
X0031761Y0127182D01*
X0031811Y0127206D01*
X0031859Y0127233D01*
X0031905Y0127263D01*
X0031949Y0127296D01*
X0031991Y0127332D01*
X0032030Y0127371D01*
X0032066Y0127413D01*
X0032099Y0127457D01*
X0032129Y0127503D01*
X0032156Y0127551D01*
X0032180Y0127601D01*
X0032200Y0127652D01*
X0032217Y0127705D01*
X0032230Y0127759D01*
X0032239Y0127813D01*
X0032245Y0127868D01*
X0032247Y0127923D01*
X0032245Y0127976D01*
X0032240Y0128029D01*
X0032231Y0128082D01*
X0032219Y0128134D01*
X0032204Y0128185D01*
X0032186Y0128235D01*
X0032164Y0128283D01*
X0032139Y0128330D01*
X0032111Y0128376D01*
X0032080Y0128419D01*
X0032047Y0128461D01*
X0032010Y0128500D01*
X0031972Y0128536D01*
X0031931Y0128570D01*
X0031888Y0128602D01*
X0031843Y0128630D01*
X0029058Y0130752D02*
X0027038Y0130752D01*
X0028048Y0130752D02*
X0028048Y0127115D01*
X0025773Y0127115D02*
X0024965Y0128731D01*
X0024763Y0128731D02*
X0023753Y0128731D01*
X0024763Y0128731D02*
X0024825Y0128733D01*
X0024887Y0128739D01*
X0024949Y0128748D01*
X0025009Y0128762D01*
X0025069Y0128779D01*
X0025128Y0128799D01*
X0025185Y0128823D01*
X0025241Y0128851D01*
X0025295Y0128882D01*
X0025347Y0128917D01*
X0025396Y0128954D01*
X0025443Y0128995D01*
X0025488Y0129038D01*
X0025530Y0129084D01*
X0025569Y0129132D01*
X0025605Y0129183D01*
X0025638Y0129236D01*
X0025667Y0129291D01*
X0025693Y0129347D01*
X0025716Y0129405D01*
X0025734Y0129465D01*
X0025750Y0129525D01*
X0025761Y0129586D01*
X0025769Y0129648D01*
X0025773Y0129710D01*
X0025773Y0129772D01*
X0025769Y0129834D01*
X0025761Y0129896D01*
X0025750Y0129957D01*
X0025734Y0130017D01*
X0025716Y0130077D01*
X0025693Y0130135D01*
X0025667Y0130191D01*
X0025638Y0130246D01*
X0025605Y0130299D01*
X0025569Y0130350D01*
X0025530Y0130398D01*
X0025488Y0130444D01*
X0025443Y0130487D01*
X0025396Y0130528D01*
X0025347Y0130565D01*
X0025295Y0130600D01*
X0025241Y0130631D01*
X0025185Y0130659D01*
X0025128Y0130683D01*
X0025069Y0130703D01*
X0025009Y0130720D01*
X0024949Y0130734D01*
X0024887Y0130743D01*
X0024825Y0130749D01*
X0024763Y0130751D01*
X0024763Y0130752D02*
X0023753Y0130752D01*
X0023753Y0127115D01*
X0020872Y0110752D02*
X0018447Y0107115D01*
X0017149Y0107115D02*
X0016341Y0108731D01*
X0016138Y0108731D02*
X0015128Y0108731D01*
X0016138Y0108731D02*
X0016200Y0108733D01*
X0016262Y0108739D01*
X0016324Y0108748D01*
X0016384Y0108762D01*
X0016444Y0108779D01*
X0016503Y0108799D01*
X0016560Y0108823D01*
X0016616Y0108851D01*
X0016670Y0108882D01*
X0016722Y0108917D01*
X0016771Y0108954D01*
X0016818Y0108995D01*
X0016863Y0109038D01*
X0016905Y0109084D01*
X0016944Y0109132D01*
X0016980Y0109183D01*
X0017013Y0109236D01*
X0017042Y0109291D01*
X0017068Y0109347D01*
X0017091Y0109405D01*
X0017109Y0109465D01*
X0017125Y0109525D01*
X0017136Y0109586D01*
X0017144Y0109648D01*
X0017148Y0109710D01*
X0017148Y0109772D01*
X0017144Y0109834D01*
X0017136Y0109896D01*
X0017125Y0109957D01*
X0017109Y0110017D01*
X0017091Y0110077D01*
X0017068Y0110135D01*
X0017042Y0110191D01*
X0017013Y0110246D01*
X0016980Y0110299D01*
X0016944Y0110350D01*
X0016905Y0110398D01*
X0016863Y0110444D01*
X0016818Y0110487D01*
X0016771Y0110528D01*
X0016722Y0110565D01*
X0016670Y0110600D01*
X0016616Y0110631D01*
X0016560Y0110659D01*
X0016503Y0110683D01*
X0016444Y0110703D01*
X0016384Y0110720D01*
X0016324Y0110734D01*
X0016262Y0110743D01*
X0016200Y0110749D01*
X0016138Y0110751D01*
X0016138Y0110752D02*
X0015128Y0110752D01*
X0015128Y0107115D01*
X0018447Y0110752D02*
X0020872Y0107115D01*
D12*
X0018315Y0098618D02*
X0025402Y0098618D01*
X0018315Y0098618D02*
X0018315Y0059248D01*
X0025402Y0059248D01*
X0050598Y0059248D02*
X0057685Y0059248D01*
X0057685Y0098618D01*
X0050598Y0098618D01*
D13*
X0050500Y0113933D02*
X0045500Y0113933D01*
X0043000Y0116433D01*
X0043000Y0121433D01*
X0045500Y0123933D01*
X0050500Y0123933D01*
X0053000Y0121433D01*
X0055500Y0123933D01*
X0060500Y0123933D01*
X0063000Y0121433D01*
X0063000Y0116433D01*
X0060500Y0113933D01*
X0055500Y0113933D01*
X0053000Y0116433D01*
X0050500Y0113933D01*
X0053000Y0116433D02*
X0053000Y0121433D01*
X0043000Y0121433D02*
X0040500Y0123933D01*
X0035500Y0123933D01*
X0033000Y0121433D01*
X0030500Y0123933D01*
X0025500Y0123933D01*
X0023000Y0121433D01*
X0020500Y0123933D01*
X0015500Y0123933D01*
X0013000Y0121433D01*
X0013000Y0116433D01*
X0015500Y0113933D01*
X0020500Y0113933D01*
X0023000Y0116433D01*
X0023000Y0121433D01*
X0023000Y0116433D02*
X0025500Y0113933D01*
X0030500Y0113933D01*
X0033000Y0116433D01*
X0033000Y0121433D01*
X0033000Y0116433D02*
X0035500Y0113933D01*
X0040500Y0113933D01*
X0043000Y0116433D01*
X0040500Y0043933D02*
X0035500Y0043933D01*
X0033000Y0041433D01*
X0033000Y0036433D01*
X0030500Y0033933D01*
X0025500Y0033933D01*
X0023000Y0036433D01*
X0020500Y0033933D01*
X0015500Y0033933D01*
X0013000Y0036433D01*
X0013000Y0041433D01*
X0015500Y0043933D01*
X0020500Y0043933D01*
X0023000Y0041433D01*
X0025500Y0043933D01*
X0030500Y0043933D01*
X0033000Y0041433D01*
X0033000Y0036433D02*
X0035500Y0033933D01*
X0040500Y0033933D01*
X0043000Y0036433D01*
X0045500Y0033933D01*
X0050500Y0033933D01*
X0053000Y0036433D01*
X0055500Y0033933D01*
X0060500Y0033933D01*
X0063000Y0036433D01*
X0063000Y0041433D01*
X0060500Y0043933D01*
X0055500Y0043933D01*
X0053000Y0041433D01*
X0053000Y0036433D01*
X0053000Y0041433D02*
X0050500Y0043933D01*
X0045500Y0043933D01*
X0043000Y0041433D01*
X0043000Y0036433D01*
X0043000Y0041433D02*
X0040500Y0043933D01*
X0023000Y0041433D02*
X0023000Y0036433D01*
M02*
