G75*
%MOIN*%
%OFA0B0*%
%FSLAX25Y25*%
%IPPOS*%
%LPD*%
%AMOC8*
5,1,8,0,0,1.08239X$1,22.5*
%
%ADD10C,0.00394*%
%ADD11R,0.39370X0.25197*%
%ADD12R,0.04200X0.11000*%
%ADD13R,0.40170X0.25997*%
%ADD14C,0.03162*%
%ADD15C,0.06800*%
D10*
X0008000Y0016492D02*
X0008000Y0096492D01*
X0008004Y0096854D01*
X0008018Y0097217D01*
X0008039Y0097579D01*
X0008070Y0097940D01*
X0008109Y0098300D01*
X0008157Y0098659D01*
X0008214Y0099017D01*
X0008279Y0099374D01*
X0008353Y0099729D01*
X0008436Y0100082D01*
X0008527Y0100433D01*
X0008626Y0100781D01*
X0008734Y0101127D01*
X0008850Y0101471D01*
X0008975Y0101811D01*
X0009107Y0102148D01*
X0009248Y0102482D01*
X0009397Y0102813D01*
X0009554Y0103140D01*
X0009718Y0103463D01*
X0009890Y0103782D01*
X0010070Y0104096D01*
X0010258Y0104407D01*
X0010453Y0104712D01*
X0010655Y0105013D01*
X0010865Y0105309D01*
X0011081Y0105599D01*
X0011305Y0105885D01*
X0011535Y0106165D01*
X0011772Y0106439D01*
X0012016Y0106707D01*
X0012266Y0106970D01*
X0012522Y0107226D01*
X0012785Y0107476D01*
X0013053Y0107720D01*
X0013327Y0107957D01*
X0013607Y0108187D01*
X0013893Y0108411D01*
X0014183Y0108627D01*
X0014479Y0108837D01*
X0014780Y0109039D01*
X0015085Y0109234D01*
X0015396Y0109422D01*
X0015710Y0109602D01*
X0016029Y0109774D01*
X0016352Y0109938D01*
X0016679Y0110095D01*
X0017010Y0110244D01*
X0017344Y0110385D01*
X0017681Y0110517D01*
X0018021Y0110642D01*
X0018365Y0110758D01*
X0018711Y0110866D01*
X0019059Y0110965D01*
X0019410Y0111056D01*
X0019763Y0111139D01*
X0020118Y0111213D01*
X0020475Y0111278D01*
X0020833Y0111335D01*
X0021192Y0111383D01*
X0021552Y0111422D01*
X0021913Y0111453D01*
X0022275Y0111474D01*
X0022638Y0111488D01*
X0023000Y0111492D01*
X0053000Y0111492D01*
X0053362Y0111488D01*
X0053725Y0111474D01*
X0054087Y0111453D01*
X0054448Y0111422D01*
X0054808Y0111383D01*
X0055167Y0111335D01*
X0055525Y0111278D01*
X0055882Y0111213D01*
X0056237Y0111139D01*
X0056590Y0111056D01*
X0056941Y0110965D01*
X0057289Y0110866D01*
X0057635Y0110758D01*
X0057979Y0110642D01*
X0058319Y0110517D01*
X0058656Y0110385D01*
X0058990Y0110244D01*
X0059321Y0110095D01*
X0059648Y0109938D01*
X0059971Y0109774D01*
X0060290Y0109602D01*
X0060604Y0109422D01*
X0060915Y0109234D01*
X0061220Y0109039D01*
X0061521Y0108837D01*
X0061817Y0108627D01*
X0062107Y0108411D01*
X0062393Y0108187D01*
X0062673Y0107957D01*
X0062947Y0107720D01*
X0063215Y0107476D01*
X0063478Y0107226D01*
X0063734Y0106970D01*
X0063984Y0106707D01*
X0064228Y0106439D01*
X0064465Y0106165D01*
X0064695Y0105885D01*
X0064919Y0105599D01*
X0065135Y0105309D01*
X0065345Y0105013D01*
X0065547Y0104712D01*
X0065742Y0104407D01*
X0065930Y0104096D01*
X0066110Y0103782D01*
X0066282Y0103463D01*
X0066446Y0103140D01*
X0066603Y0102813D01*
X0066752Y0102482D01*
X0066893Y0102148D01*
X0067025Y0101811D01*
X0067150Y0101471D01*
X0067266Y0101127D01*
X0067374Y0100781D01*
X0067473Y0100433D01*
X0067564Y0100082D01*
X0067647Y0099729D01*
X0067721Y0099374D01*
X0067786Y0099017D01*
X0067843Y0098659D01*
X0067891Y0098300D01*
X0067930Y0097940D01*
X0067961Y0097579D01*
X0067982Y0097217D01*
X0067996Y0096854D01*
X0068000Y0096492D01*
X0068000Y0016492D01*
X0067996Y0016130D01*
X0067982Y0015767D01*
X0067961Y0015405D01*
X0067930Y0015044D01*
X0067891Y0014684D01*
X0067843Y0014325D01*
X0067786Y0013967D01*
X0067721Y0013610D01*
X0067647Y0013255D01*
X0067564Y0012902D01*
X0067473Y0012551D01*
X0067374Y0012203D01*
X0067266Y0011857D01*
X0067150Y0011513D01*
X0067025Y0011173D01*
X0066893Y0010836D01*
X0066752Y0010502D01*
X0066603Y0010171D01*
X0066446Y0009844D01*
X0066282Y0009521D01*
X0066110Y0009202D01*
X0065930Y0008888D01*
X0065742Y0008577D01*
X0065547Y0008272D01*
X0065345Y0007971D01*
X0065135Y0007675D01*
X0064919Y0007385D01*
X0064695Y0007099D01*
X0064465Y0006819D01*
X0064228Y0006545D01*
X0063984Y0006277D01*
X0063734Y0006014D01*
X0063478Y0005758D01*
X0063215Y0005508D01*
X0062947Y0005264D01*
X0062673Y0005027D01*
X0062393Y0004797D01*
X0062107Y0004573D01*
X0061817Y0004357D01*
X0061521Y0004147D01*
X0061220Y0003945D01*
X0060915Y0003750D01*
X0060604Y0003562D01*
X0060290Y0003382D01*
X0059971Y0003210D01*
X0059648Y0003046D01*
X0059321Y0002889D01*
X0058990Y0002740D01*
X0058656Y0002599D01*
X0058319Y0002467D01*
X0057979Y0002342D01*
X0057635Y0002226D01*
X0057289Y0002118D01*
X0056941Y0002019D01*
X0056590Y0001928D01*
X0056237Y0001845D01*
X0055882Y0001771D01*
X0055525Y0001706D01*
X0055167Y0001649D01*
X0054808Y0001601D01*
X0054448Y0001562D01*
X0054087Y0001531D01*
X0053725Y0001510D01*
X0053362Y0001496D01*
X0053000Y0001492D01*
X0023000Y0001492D01*
X0022638Y0001496D01*
X0022275Y0001510D01*
X0021913Y0001531D01*
X0021552Y0001562D01*
X0021192Y0001601D01*
X0020833Y0001649D01*
X0020475Y0001706D01*
X0020118Y0001771D01*
X0019763Y0001845D01*
X0019410Y0001928D01*
X0019059Y0002019D01*
X0018711Y0002118D01*
X0018365Y0002226D01*
X0018021Y0002342D01*
X0017681Y0002467D01*
X0017344Y0002599D01*
X0017010Y0002740D01*
X0016679Y0002889D01*
X0016352Y0003046D01*
X0016029Y0003210D01*
X0015710Y0003382D01*
X0015396Y0003562D01*
X0015085Y0003750D01*
X0014780Y0003945D01*
X0014479Y0004147D01*
X0014183Y0004357D01*
X0013893Y0004573D01*
X0013607Y0004797D01*
X0013327Y0005027D01*
X0013053Y0005264D01*
X0012785Y0005508D01*
X0012522Y0005758D01*
X0012266Y0006014D01*
X0012016Y0006277D01*
X0011772Y0006545D01*
X0011535Y0006819D01*
X0011305Y0007099D01*
X0011081Y0007385D01*
X0010865Y0007675D01*
X0010655Y0007971D01*
X0010453Y0008272D01*
X0010258Y0008577D01*
X0010070Y0008888D01*
X0009890Y0009202D01*
X0009718Y0009521D01*
X0009554Y0009844D01*
X0009397Y0010171D01*
X0009248Y0010502D01*
X0009107Y0010836D01*
X0008975Y0011173D01*
X0008850Y0011513D01*
X0008734Y0011857D01*
X0008626Y0012203D01*
X0008527Y0012551D01*
X0008436Y0012902D01*
X0008353Y0013255D01*
X0008279Y0013610D01*
X0008214Y0013967D01*
X0008157Y0014325D01*
X0008109Y0014684D01*
X0008070Y0015044D01*
X0008039Y0015405D01*
X0008018Y0015767D01*
X0008004Y0016130D01*
X0008000Y0016492D01*
D11*
X0038000Y0056492D03*
D12*
X0038000Y0076840D03*
X0033000Y0076840D03*
X0028000Y0076840D03*
X0043000Y0076840D03*
X0048000Y0076840D03*
X0048000Y0036145D03*
X0043000Y0036145D03*
X0038000Y0036145D03*
X0033000Y0036145D03*
X0028000Y0036145D03*
D13*
X0038000Y0056492D03*
D14*
X0023000Y0046492D03*
X0023000Y0066492D03*
X0053000Y0056492D03*
D15*
X0048000Y0093492D02*
X0048000Y0099492D01*
X0058000Y0099492D02*
X0058000Y0093492D01*
X0038000Y0093492D02*
X0038000Y0099492D01*
X0028000Y0099492D02*
X0028000Y0093492D01*
X0018000Y0093492D02*
X0018000Y0099492D01*
X0018000Y0019492D02*
X0018000Y0013492D01*
X0028000Y0013492D02*
X0028000Y0019492D01*
X0038000Y0019492D02*
X0038000Y0013492D01*
X0048000Y0013492D02*
X0048000Y0019492D01*
X0058000Y0019492D02*
X0058000Y0013492D01*
M02*
