G75*
%MOIN*%
%OFA0B0*%
%FSLAX25Y25*%
%IPPOS*%
%LPD*%
%AMOC8*
5,1,8,0,0,1.08239X$1,22.5*
%
%ADD10C,0.00300*%
%ADD11C,0.00500*%
%ADD12C,0.00600*%
D10*
X0012988Y0024674D02*
X0012988Y0028311D01*
X0013999Y0028311D01*
X0013999Y0028310D02*
X0014061Y0028308D01*
X0014123Y0028302D01*
X0014185Y0028293D01*
X0014245Y0028279D01*
X0014305Y0028262D01*
X0014364Y0028242D01*
X0014421Y0028218D01*
X0014477Y0028190D01*
X0014531Y0028159D01*
X0014583Y0028124D01*
X0014632Y0028087D01*
X0014679Y0028046D01*
X0014724Y0028003D01*
X0014766Y0027957D01*
X0014805Y0027909D01*
X0014841Y0027858D01*
X0014874Y0027805D01*
X0014903Y0027750D01*
X0014929Y0027694D01*
X0014952Y0027636D01*
X0014970Y0027576D01*
X0014986Y0027516D01*
X0014997Y0027455D01*
X0015005Y0027393D01*
X0015009Y0027331D01*
X0015009Y0027269D01*
X0015005Y0027207D01*
X0014997Y0027145D01*
X0014986Y0027084D01*
X0014970Y0027024D01*
X0014952Y0026964D01*
X0014929Y0026906D01*
X0014903Y0026850D01*
X0014874Y0026795D01*
X0014841Y0026742D01*
X0014805Y0026691D01*
X0014766Y0026643D01*
X0014724Y0026597D01*
X0014679Y0026554D01*
X0014632Y0026513D01*
X0014583Y0026476D01*
X0014531Y0026441D01*
X0014477Y0026410D01*
X0014421Y0026382D01*
X0014364Y0026358D01*
X0014305Y0026338D01*
X0014245Y0026321D01*
X0014185Y0026307D01*
X0014123Y0026298D01*
X0014061Y0026292D01*
X0013999Y0026290D01*
X0012988Y0026290D01*
X0016229Y0028311D02*
X0017037Y0024674D01*
X0017845Y0027098D01*
X0018653Y0024674D01*
X0019462Y0028311D01*
X0020991Y0028311D02*
X0022001Y0028311D01*
X0020991Y0028311D02*
X0020991Y0024674D01*
X0020991Y0026290D02*
X0022001Y0026290D01*
X0022203Y0026290D02*
X0023012Y0024674D01*
X0022001Y0026290D02*
X0022063Y0026292D01*
X0022125Y0026298D01*
X0022187Y0026307D01*
X0022247Y0026321D01*
X0022307Y0026338D01*
X0022366Y0026358D01*
X0022423Y0026382D01*
X0022479Y0026410D01*
X0022533Y0026441D01*
X0022585Y0026476D01*
X0022634Y0026513D01*
X0022681Y0026554D01*
X0022726Y0026597D01*
X0022768Y0026643D01*
X0022807Y0026691D01*
X0022843Y0026742D01*
X0022876Y0026795D01*
X0022905Y0026850D01*
X0022931Y0026906D01*
X0022954Y0026964D01*
X0022972Y0027024D01*
X0022988Y0027084D01*
X0022999Y0027145D01*
X0023007Y0027207D01*
X0023011Y0027269D01*
X0023011Y0027331D01*
X0023007Y0027393D01*
X0022999Y0027455D01*
X0022988Y0027516D01*
X0022972Y0027576D01*
X0022954Y0027636D01*
X0022931Y0027694D01*
X0022905Y0027750D01*
X0022876Y0027805D01*
X0022843Y0027858D01*
X0022807Y0027909D01*
X0022768Y0027957D01*
X0022726Y0028003D01*
X0022681Y0028046D01*
X0022634Y0028087D01*
X0022585Y0028124D01*
X0022533Y0028159D01*
X0022479Y0028190D01*
X0022423Y0028218D01*
X0022366Y0028242D01*
X0022307Y0028262D01*
X0022247Y0028279D01*
X0022187Y0028293D01*
X0022125Y0028302D01*
X0022063Y0028308D01*
X0022001Y0028310D01*
X0021242Y0031860D02*
X0020433Y0032870D01*
X0024070Y0032870D01*
X0024070Y0031860D02*
X0024070Y0033880D01*
X0014946Y0040681D02*
X0011309Y0040681D01*
X0011309Y0041692D01*
X0011310Y0041692D02*
X0011312Y0041754D01*
X0011318Y0041816D01*
X0011327Y0041878D01*
X0011341Y0041938D01*
X0011358Y0041998D01*
X0011378Y0042057D01*
X0011402Y0042114D01*
X0011430Y0042170D01*
X0011461Y0042224D01*
X0011496Y0042276D01*
X0011533Y0042325D01*
X0011574Y0042372D01*
X0011617Y0042417D01*
X0011663Y0042459D01*
X0011711Y0042498D01*
X0011762Y0042534D01*
X0011815Y0042567D01*
X0011870Y0042596D01*
X0011926Y0042622D01*
X0011984Y0042645D01*
X0012044Y0042663D01*
X0012104Y0042679D01*
X0012165Y0042690D01*
X0012227Y0042698D01*
X0012289Y0042702D01*
X0012351Y0042702D01*
X0012413Y0042698D01*
X0012475Y0042690D01*
X0012536Y0042679D01*
X0012596Y0042663D01*
X0012656Y0042645D01*
X0012714Y0042622D01*
X0012770Y0042596D01*
X0012825Y0042567D01*
X0012878Y0042534D01*
X0012929Y0042498D01*
X0012977Y0042459D01*
X0013023Y0042417D01*
X0013066Y0042372D01*
X0013107Y0042325D01*
X0013144Y0042276D01*
X0013179Y0042224D01*
X0013210Y0042170D01*
X0013238Y0042114D01*
X0013262Y0042057D01*
X0013282Y0041998D01*
X0013299Y0041938D01*
X0013313Y0041878D01*
X0013322Y0041816D01*
X0013328Y0041754D01*
X0013330Y0041692D01*
X0013330Y0040681D01*
X0013330Y0041894D02*
X0014946Y0042702D01*
X0014138Y0044320D02*
X0012118Y0044320D01*
X0012118Y0044321D02*
X0012063Y0044323D01*
X0012008Y0044329D01*
X0011954Y0044338D01*
X0011900Y0044351D01*
X0011847Y0044368D01*
X0011796Y0044388D01*
X0011746Y0044412D01*
X0011698Y0044439D01*
X0011652Y0044469D01*
X0011608Y0044502D01*
X0011567Y0044538D01*
X0011527Y0044577D01*
X0011491Y0044619D01*
X0011458Y0044663D01*
X0011428Y0044709D01*
X0011401Y0044757D01*
X0011377Y0044807D01*
X0011357Y0044858D01*
X0011340Y0044911D01*
X0011327Y0044965D01*
X0011318Y0045019D01*
X0011312Y0045074D01*
X0011310Y0045129D01*
X0011309Y0045129D02*
X0011309Y0046341D01*
X0012118Y0047982D02*
X0011309Y0048992D01*
X0014946Y0048992D01*
X0014946Y0047982D02*
X0014946Y0050002D01*
X0014946Y0051525D02*
X0014946Y0052737D01*
X0014944Y0052792D01*
X0014938Y0052847D01*
X0014929Y0052901D01*
X0014916Y0052955D01*
X0014899Y0053008D01*
X0014879Y0053059D01*
X0014855Y0053109D01*
X0014828Y0053157D01*
X0014798Y0053203D01*
X0014765Y0053247D01*
X0014729Y0053289D01*
X0014690Y0053328D01*
X0014648Y0053364D01*
X0014604Y0053397D01*
X0014558Y0053427D01*
X0014510Y0053454D01*
X0014460Y0053478D01*
X0014409Y0053498D01*
X0014356Y0053515D01*
X0014302Y0053528D01*
X0014248Y0053537D01*
X0014193Y0053543D01*
X0014138Y0053545D01*
X0014138Y0053546D02*
X0013734Y0053546D01*
X0013734Y0053545D02*
X0013679Y0053543D01*
X0013624Y0053537D01*
X0013570Y0053528D01*
X0013516Y0053515D01*
X0013463Y0053498D01*
X0013412Y0053478D01*
X0013362Y0053454D01*
X0013314Y0053427D01*
X0013268Y0053397D01*
X0013224Y0053364D01*
X0013183Y0053328D01*
X0013143Y0053289D01*
X0013107Y0053247D01*
X0013074Y0053203D01*
X0013044Y0053157D01*
X0013017Y0053109D01*
X0012993Y0053059D01*
X0012973Y0053008D01*
X0012956Y0052955D01*
X0012943Y0052901D01*
X0012934Y0052847D01*
X0012928Y0052792D01*
X0012926Y0052737D01*
X0012926Y0051525D01*
X0011309Y0051525D01*
X0011309Y0053546D01*
X0012118Y0055068D02*
X0011309Y0056079D01*
X0014946Y0056079D01*
X0014946Y0057089D02*
X0014946Y0055068D01*
X0014441Y0060329D02*
X0014347Y0060373D01*
X0014250Y0060414D01*
X0014153Y0060451D01*
X0014054Y0060485D01*
X0013954Y0060516D01*
X0013853Y0060543D01*
X0013751Y0060567D01*
X0013648Y0060587D01*
X0013545Y0060603D01*
X0013441Y0060616D01*
X0013337Y0060625D01*
X0013233Y0060630D01*
X0013128Y0060632D01*
X0013128Y0058612D02*
X0013023Y0058614D01*
X0012919Y0058619D01*
X0012815Y0058628D01*
X0012711Y0058641D01*
X0012608Y0058657D01*
X0012505Y0058677D01*
X0012403Y0058701D01*
X0012302Y0058728D01*
X0012202Y0058759D01*
X0012103Y0058793D01*
X0012006Y0058830D01*
X0011910Y0058871D01*
X0011815Y0058915D01*
X0011309Y0059622D02*
X0011311Y0059677D01*
X0011317Y0059731D01*
X0011327Y0059784D01*
X0011341Y0059837D01*
X0011358Y0059889D01*
X0011380Y0059939D01*
X0011404Y0059988D01*
X0011433Y0060034D01*
X0011465Y0060079D01*
X0011499Y0060121D01*
X0011537Y0060160D01*
X0011578Y0060196D01*
X0011621Y0060230D01*
X0011667Y0060260D01*
X0011714Y0060287D01*
X0011763Y0060310D01*
X0011814Y0060330D01*
X0012118Y0060430D02*
X0014138Y0058814D01*
X0014947Y0059622D02*
X0014945Y0059677D01*
X0014939Y0059731D01*
X0014929Y0059784D01*
X0014915Y0059837D01*
X0014898Y0059889D01*
X0014876Y0059939D01*
X0014852Y0059988D01*
X0014823Y0060034D01*
X0014791Y0060079D01*
X0014757Y0060121D01*
X0014719Y0060160D01*
X0014678Y0060196D01*
X0014635Y0060230D01*
X0014589Y0060260D01*
X0014542Y0060287D01*
X0014493Y0060310D01*
X0014442Y0060330D01*
X0014947Y0059622D02*
X0014945Y0059567D01*
X0014939Y0059513D01*
X0014929Y0059460D01*
X0014915Y0059407D01*
X0014898Y0059355D01*
X0014876Y0059305D01*
X0014852Y0059256D01*
X0014823Y0059210D01*
X0014791Y0059165D01*
X0014757Y0059123D01*
X0014719Y0059084D01*
X0014678Y0059048D01*
X0014635Y0059014D01*
X0014589Y0058984D01*
X0014542Y0058957D01*
X0014493Y0058934D01*
X0014442Y0058914D01*
X0013128Y0060632D02*
X0013023Y0060630D01*
X0012919Y0060625D01*
X0012815Y0060616D01*
X0012711Y0060603D01*
X0012608Y0060587D01*
X0012505Y0060567D01*
X0012403Y0060543D01*
X0012302Y0060516D01*
X0012202Y0060485D01*
X0012103Y0060451D01*
X0012006Y0060414D01*
X0011909Y0060373D01*
X0011815Y0060329D01*
X0011309Y0059622D02*
X0011311Y0059567D01*
X0011317Y0059513D01*
X0011327Y0059460D01*
X0011341Y0059407D01*
X0011358Y0059355D01*
X0011380Y0059305D01*
X0011404Y0059256D01*
X0011433Y0059210D01*
X0011465Y0059165D01*
X0011499Y0059123D01*
X0011537Y0059084D01*
X0011578Y0059048D01*
X0011621Y0059014D01*
X0011667Y0058984D01*
X0011714Y0058957D01*
X0011763Y0058934D01*
X0011814Y0058914D01*
X0013128Y0058612D02*
X0013233Y0058614D01*
X0013337Y0058619D01*
X0013441Y0058628D01*
X0013545Y0058641D01*
X0013648Y0058657D01*
X0013751Y0058677D01*
X0013853Y0058701D01*
X0013954Y0058728D01*
X0014054Y0058759D01*
X0014153Y0058793D01*
X0014250Y0058830D01*
X0014346Y0058871D01*
X0014441Y0058915D01*
X0013532Y0062189D02*
X0013532Y0064614D01*
X0014946Y0066323D02*
X0011309Y0066323D01*
X0013330Y0067535D01*
X0011309Y0068748D01*
X0014946Y0068748D01*
X0014946Y0070592D02*
X0011309Y0070592D01*
X0012724Y0071400D02*
X0014946Y0072613D01*
X0014138Y0073966D02*
X0014138Y0075987D01*
X0013330Y0075380D02*
X0014946Y0075380D01*
X0014138Y0073966D02*
X0011309Y0074774D01*
X0011309Y0072613D02*
X0013532Y0070592D01*
X0021242Y0077332D02*
X0020433Y0078343D01*
X0024070Y0078343D01*
X0024070Y0079353D02*
X0024070Y0077332D01*
X0023565Y0082593D02*
X0023471Y0082637D01*
X0023374Y0082678D01*
X0023277Y0082715D01*
X0023178Y0082749D01*
X0023078Y0082780D01*
X0022977Y0082807D01*
X0022875Y0082831D01*
X0022772Y0082851D01*
X0022669Y0082867D01*
X0022565Y0082880D01*
X0022461Y0082889D01*
X0022357Y0082894D01*
X0022252Y0082896D01*
X0022252Y0080876D02*
X0022147Y0080878D01*
X0022043Y0080883D01*
X0021939Y0080892D01*
X0021835Y0080905D01*
X0021732Y0080921D01*
X0021629Y0080941D01*
X0021527Y0080965D01*
X0021426Y0080992D01*
X0021326Y0081023D01*
X0021227Y0081057D01*
X0021130Y0081094D01*
X0021034Y0081135D01*
X0020939Y0081179D01*
X0020433Y0081886D02*
X0020435Y0081941D01*
X0020441Y0081995D01*
X0020451Y0082048D01*
X0020465Y0082101D01*
X0020482Y0082153D01*
X0020504Y0082203D01*
X0020528Y0082252D01*
X0020557Y0082298D01*
X0020589Y0082343D01*
X0020623Y0082385D01*
X0020661Y0082424D01*
X0020702Y0082460D01*
X0020745Y0082494D01*
X0020791Y0082524D01*
X0020838Y0082551D01*
X0020887Y0082574D01*
X0020938Y0082594D01*
X0021242Y0082694D02*
X0023262Y0081078D01*
X0024071Y0081886D02*
X0024069Y0081941D01*
X0024063Y0081995D01*
X0024053Y0082048D01*
X0024039Y0082101D01*
X0024022Y0082153D01*
X0024000Y0082203D01*
X0023976Y0082252D01*
X0023947Y0082298D01*
X0023915Y0082343D01*
X0023881Y0082385D01*
X0023843Y0082424D01*
X0023802Y0082460D01*
X0023759Y0082494D01*
X0023713Y0082524D01*
X0023666Y0082551D01*
X0023617Y0082574D01*
X0023566Y0082594D01*
X0024071Y0081886D02*
X0024069Y0081831D01*
X0024063Y0081777D01*
X0024053Y0081724D01*
X0024039Y0081671D01*
X0024022Y0081619D01*
X0024000Y0081569D01*
X0023976Y0081520D01*
X0023947Y0081474D01*
X0023915Y0081429D01*
X0023881Y0081387D01*
X0023843Y0081348D01*
X0023802Y0081312D01*
X0023759Y0081278D01*
X0023713Y0081248D01*
X0023666Y0081221D01*
X0023617Y0081198D01*
X0023566Y0081178D01*
X0022252Y0082896D02*
X0022147Y0082894D01*
X0022043Y0082889D01*
X0021939Y0082880D01*
X0021835Y0082867D01*
X0021732Y0082851D01*
X0021629Y0082831D01*
X0021527Y0082807D01*
X0021426Y0082780D01*
X0021326Y0082749D01*
X0021227Y0082715D01*
X0021130Y0082678D01*
X0021033Y0082637D01*
X0020939Y0082593D01*
X0020433Y0081886D02*
X0020435Y0081831D01*
X0020441Y0081777D01*
X0020451Y0081724D01*
X0020465Y0081671D01*
X0020482Y0081619D01*
X0020504Y0081569D01*
X0020528Y0081520D01*
X0020557Y0081474D01*
X0020589Y0081429D01*
X0020623Y0081387D01*
X0020661Y0081348D01*
X0020702Y0081312D01*
X0020745Y0081278D01*
X0020791Y0081248D01*
X0020838Y0081221D01*
X0020887Y0081198D01*
X0020938Y0081178D01*
X0022252Y0080876D02*
X0022357Y0080878D01*
X0022461Y0080883D01*
X0022565Y0080892D01*
X0022669Y0080905D01*
X0022772Y0080921D01*
X0022875Y0080941D01*
X0022977Y0080965D01*
X0023078Y0080992D01*
X0023178Y0081023D01*
X0023277Y0081057D01*
X0023374Y0081094D01*
X0023470Y0081135D01*
X0023565Y0081179D01*
X0020872Y0084674D02*
X0018447Y0088311D01*
X0016138Y0088311D02*
X0015128Y0088311D01*
X0015128Y0084674D01*
X0015128Y0086290D02*
X0016138Y0086290D01*
X0016341Y0086290D02*
X0017149Y0084674D01*
X0018447Y0084674D02*
X0020872Y0088311D01*
X0016138Y0088310D02*
X0016200Y0088308D01*
X0016262Y0088302D01*
X0016324Y0088293D01*
X0016384Y0088279D01*
X0016444Y0088262D01*
X0016503Y0088242D01*
X0016560Y0088218D01*
X0016616Y0088190D01*
X0016670Y0088159D01*
X0016722Y0088124D01*
X0016771Y0088087D01*
X0016818Y0088046D01*
X0016863Y0088003D01*
X0016905Y0087957D01*
X0016944Y0087909D01*
X0016980Y0087858D01*
X0017013Y0087805D01*
X0017042Y0087750D01*
X0017068Y0087694D01*
X0017091Y0087636D01*
X0017109Y0087576D01*
X0017125Y0087516D01*
X0017136Y0087455D01*
X0017144Y0087393D01*
X0017148Y0087331D01*
X0017148Y0087269D01*
X0017144Y0087207D01*
X0017136Y0087145D01*
X0017125Y0087084D01*
X0017109Y0087024D01*
X0017091Y0086964D01*
X0017068Y0086906D01*
X0017042Y0086850D01*
X0017013Y0086795D01*
X0016980Y0086742D01*
X0016944Y0086691D01*
X0016905Y0086643D01*
X0016863Y0086597D01*
X0016818Y0086554D01*
X0016771Y0086513D01*
X0016722Y0086476D01*
X0016670Y0086441D01*
X0016616Y0086410D01*
X0016560Y0086382D01*
X0016503Y0086358D01*
X0016444Y0086338D01*
X0016384Y0086321D01*
X0016324Y0086307D01*
X0016262Y0086298D01*
X0016200Y0086292D01*
X0016138Y0086290D01*
X0023753Y0104674D02*
X0023753Y0108311D01*
X0024763Y0108311D01*
X0024763Y0108310D02*
X0024825Y0108308D01*
X0024887Y0108302D01*
X0024949Y0108293D01*
X0025009Y0108279D01*
X0025069Y0108262D01*
X0025128Y0108242D01*
X0025185Y0108218D01*
X0025241Y0108190D01*
X0025295Y0108159D01*
X0025347Y0108124D01*
X0025396Y0108087D01*
X0025443Y0108046D01*
X0025488Y0108003D01*
X0025530Y0107957D01*
X0025569Y0107909D01*
X0025605Y0107858D01*
X0025638Y0107805D01*
X0025667Y0107750D01*
X0025693Y0107694D01*
X0025716Y0107636D01*
X0025734Y0107576D01*
X0025750Y0107516D01*
X0025761Y0107455D01*
X0025769Y0107393D01*
X0025773Y0107331D01*
X0025773Y0107269D01*
X0025769Y0107207D01*
X0025761Y0107145D01*
X0025750Y0107084D01*
X0025734Y0107024D01*
X0025716Y0106964D01*
X0025693Y0106906D01*
X0025667Y0106850D01*
X0025638Y0106795D01*
X0025605Y0106742D01*
X0025569Y0106691D01*
X0025530Y0106643D01*
X0025488Y0106597D01*
X0025443Y0106554D01*
X0025396Y0106513D01*
X0025347Y0106476D01*
X0025295Y0106441D01*
X0025241Y0106410D01*
X0025185Y0106382D01*
X0025128Y0106358D01*
X0025069Y0106338D01*
X0025009Y0106321D01*
X0024949Y0106307D01*
X0024887Y0106298D01*
X0024825Y0106292D01*
X0024763Y0106290D01*
X0023753Y0106290D01*
X0024965Y0106290D02*
X0025773Y0104674D01*
X0028048Y0104674D02*
X0028048Y0108311D01*
X0027038Y0108311D02*
X0029058Y0108311D01*
X0030328Y0107502D02*
X0030330Y0107557D01*
X0030336Y0107612D01*
X0030345Y0107666D01*
X0030358Y0107720D01*
X0030375Y0107773D01*
X0030395Y0107824D01*
X0030419Y0107874D01*
X0030446Y0107922D01*
X0030476Y0107968D01*
X0030509Y0108012D01*
X0030545Y0108054D01*
X0030585Y0108093D01*
X0030626Y0108129D01*
X0030670Y0108162D01*
X0030716Y0108192D01*
X0030764Y0108219D01*
X0030814Y0108243D01*
X0030865Y0108263D01*
X0030918Y0108280D01*
X0030972Y0108293D01*
X0031026Y0108302D01*
X0031081Y0108308D01*
X0031136Y0108310D01*
X0030327Y0107502D02*
X0030329Y0107449D01*
X0030334Y0107396D01*
X0030343Y0107343D01*
X0030355Y0107291D01*
X0030370Y0107240D01*
X0030388Y0107190D01*
X0030410Y0107142D01*
X0030435Y0107095D01*
X0030463Y0107049D01*
X0030494Y0107006D01*
X0030527Y0106964D01*
X0030564Y0106925D01*
X0030602Y0106889D01*
X0030643Y0106855D01*
X0030686Y0106823D01*
X0030731Y0106795D01*
X0030732Y0106795D02*
X0031843Y0106189D01*
X0031439Y0104674D02*
X0031360Y0104676D01*
X0031281Y0104681D01*
X0031202Y0104691D01*
X0031124Y0104703D01*
X0031046Y0104720D01*
X0030969Y0104740D01*
X0030894Y0104763D01*
X0030819Y0104790D01*
X0030746Y0104821D01*
X0030674Y0104855D01*
X0030604Y0104892D01*
X0030536Y0104932D01*
X0030470Y0104976D01*
X0030406Y0105022D01*
X0030344Y0105072D01*
X0030284Y0105124D01*
X0030227Y0105179D01*
X0031136Y0108310D02*
X0031211Y0108308D01*
X0031286Y0108303D01*
X0031360Y0108293D01*
X0031434Y0108280D01*
X0031507Y0108264D01*
X0031579Y0108244D01*
X0031651Y0108220D01*
X0031720Y0108193D01*
X0031789Y0108162D01*
X0031856Y0108128D01*
X0031921Y0108091D01*
X0031984Y0108050D01*
X0032045Y0108007D01*
X0032247Y0105482D02*
X0032245Y0105427D01*
X0032239Y0105372D01*
X0032230Y0105318D01*
X0032217Y0105264D01*
X0032200Y0105211D01*
X0032180Y0105160D01*
X0032156Y0105110D01*
X0032129Y0105062D01*
X0032099Y0105016D01*
X0032066Y0104972D01*
X0032030Y0104930D01*
X0031991Y0104891D01*
X0031949Y0104855D01*
X0031905Y0104822D01*
X0031859Y0104792D01*
X0031811Y0104765D01*
X0031761Y0104741D01*
X0031710Y0104721D01*
X0031657Y0104704D01*
X0031603Y0104691D01*
X0031549Y0104682D01*
X0031494Y0104676D01*
X0031439Y0104674D01*
X0032247Y0105482D02*
X0032245Y0105535D01*
X0032240Y0105588D01*
X0032231Y0105641D01*
X0032219Y0105693D01*
X0032204Y0105744D01*
X0032186Y0105794D01*
X0032164Y0105842D01*
X0032139Y0105889D01*
X0032111Y0105935D01*
X0032080Y0105978D01*
X0032047Y0106020D01*
X0032010Y0106059D01*
X0031972Y0106095D01*
X0031931Y0106129D01*
X0031888Y0106161D01*
X0031843Y0106189D01*
X0033694Y0088311D02*
X0034704Y0088311D01*
X0033694Y0088311D02*
X0033694Y0084674D01*
X0033694Y0086290D02*
X0034704Y0086290D01*
X0034906Y0086290D02*
X0035714Y0084674D01*
X0034704Y0086290D02*
X0034766Y0086292D01*
X0034828Y0086298D01*
X0034890Y0086307D01*
X0034950Y0086321D01*
X0035010Y0086338D01*
X0035069Y0086358D01*
X0035126Y0086382D01*
X0035182Y0086410D01*
X0035236Y0086441D01*
X0035288Y0086476D01*
X0035337Y0086513D01*
X0035384Y0086554D01*
X0035429Y0086597D01*
X0035471Y0086643D01*
X0035510Y0086691D01*
X0035546Y0086742D01*
X0035579Y0086795D01*
X0035608Y0086850D01*
X0035634Y0086906D01*
X0035657Y0086964D01*
X0035675Y0087024D01*
X0035691Y0087084D01*
X0035702Y0087145D01*
X0035710Y0087207D01*
X0035714Y0087269D01*
X0035714Y0087331D01*
X0035710Y0087393D01*
X0035702Y0087455D01*
X0035691Y0087516D01*
X0035675Y0087576D01*
X0035657Y0087636D01*
X0035634Y0087694D01*
X0035608Y0087750D01*
X0035579Y0087805D01*
X0035546Y0087858D01*
X0035510Y0087909D01*
X0035471Y0087957D01*
X0035429Y0088003D01*
X0035384Y0088046D01*
X0035337Y0088087D01*
X0035288Y0088124D01*
X0035236Y0088159D01*
X0035182Y0088190D01*
X0035126Y0088218D01*
X0035069Y0088242D01*
X0035010Y0088262D01*
X0034950Y0088279D01*
X0034890Y0088293D01*
X0034828Y0088302D01*
X0034766Y0088308D01*
X0034704Y0088310D01*
X0037602Y0086795D02*
X0038713Y0086189D01*
X0038309Y0084674D02*
X0038230Y0084676D01*
X0038151Y0084681D01*
X0038072Y0084691D01*
X0037994Y0084703D01*
X0037916Y0084720D01*
X0037839Y0084740D01*
X0037764Y0084763D01*
X0037689Y0084790D01*
X0037616Y0084821D01*
X0037544Y0084855D01*
X0037474Y0084892D01*
X0037406Y0084932D01*
X0037340Y0084976D01*
X0037276Y0085022D01*
X0037214Y0085072D01*
X0037154Y0085124D01*
X0037097Y0085179D01*
X0038006Y0088310D02*
X0038081Y0088308D01*
X0038156Y0088303D01*
X0038230Y0088293D01*
X0038304Y0088280D01*
X0038377Y0088264D01*
X0038449Y0088244D01*
X0038521Y0088220D01*
X0038590Y0088193D01*
X0038659Y0088162D01*
X0038726Y0088128D01*
X0038791Y0088091D01*
X0038854Y0088050D01*
X0038915Y0088007D01*
X0037602Y0086795D02*
X0037557Y0086823D01*
X0037514Y0086855D01*
X0037473Y0086889D01*
X0037435Y0086925D01*
X0037398Y0086964D01*
X0037365Y0087006D01*
X0037334Y0087049D01*
X0037306Y0087095D01*
X0037281Y0087142D01*
X0037259Y0087190D01*
X0037241Y0087240D01*
X0037226Y0087291D01*
X0037214Y0087343D01*
X0037205Y0087396D01*
X0037200Y0087449D01*
X0037198Y0087502D01*
X0037200Y0087557D01*
X0037206Y0087612D01*
X0037215Y0087666D01*
X0037228Y0087720D01*
X0037245Y0087773D01*
X0037265Y0087824D01*
X0037289Y0087874D01*
X0037316Y0087922D01*
X0037346Y0087968D01*
X0037379Y0088012D01*
X0037415Y0088054D01*
X0037455Y0088093D01*
X0037496Y0088129D01*
X0037540Y0088162D01*
X0037586Y0088192D01*
X0037634Y0088219D01*
X0037684Y0088243D01*
X0037735Y0088263D01*
X0037788Y0088280D01*
X0037842Y0088293D01*
X0037896Y0088302D01*
X0037951Y0088308D01*
X0038006Y0088310D01*
X0040286Y0088311D02*
X0042306Y0088311D01*
X0041296Y0088311D02*
X0041296Y0084674D01*
X0039117Y0085482D02*
X0039115Y0085427D01*
X0039109Y0085372D01*
X0039100Y0085318D01*
X0039087Y0085264D01*
X0039070Y0085211D01*
X0039050Y0085160D01*
X0039026Y0085110D01*
X0038999Y0085062D01*
X0038969Y0085016D01*
X0038936Y0084972D01*
X0038900Y0084930D01*
X0038861Y0084891D01*
X0038819Y0084855D01*
X0038775Y0084822D01*
X0038729Y0084792D01*
X0038681Y0084765D01*
X0038631Y0084741D01*
X0038580Y0084721D01*
X0038527Y0084704D01*
X0038473Y0084691D01*
X0038419Y0084682D01*
X0038364Y0084676D01*
X0038309Y0084674D01*
X0039117Y0085482D02*
X0039115Y0085535D01*
X0039110Y0085588D01*
X0039101Y0085641D01*
X0039089Y0085693D01*
X0039074Y0085744D01*
X0039056Y0085794D01*
X0039034Y0085842D01*
X0039009Y0085889D01*
X0038981Y0085935D01*
X0038950Y0085978D01*
X0038917Y0086020D01*
X0038880Y0086059D01*
X0038842Y0086095D01*
X0038801Y0086129D01*
X0038758Y0086161D01*
X0038713Y0086189D01*
X0044840Y0104674D02*
X0045648Y0104674D01*
X0044840Y0104674D02*
X0044785Y0104676D01*
X0044730Y0104682D01*
X0044676Y0104691D01*
X0044622Y0104704D01*
X0044569Y0104721D01*
X0044518Y0104741D01*
X0044468Y0104765D01*
X0044420Y0104792D01*
X0044374Y0104822D01*
X0044330Y0104855D01*
X0044288Y0104891D01*
X0044249Y0104930D01*
X0044213Y0104972D01*
X0044180Y0105016D01*
X0044150Y0105062D01*
X0044123Y0105110D01*
X0044099Y0105160D01*
X0044079Y0105211D01*
X0044062Y0105264D01*
X0044049Y0105318D01*
X0044040Y0105372D01*
X0044034Y0105427D01*
X0044032Y0105482D01*
X0044032Y0107502D01*
X0044034Y0107557D01*
X0044040Y0107612D01*
X0044049Y0107666D01*
X0044062Y0107720D01*
X0044079Y0107773D01*
X0044099Y0107824D01*
X0044123Y0107874D01*
X0044150Y0107922D01*
X0044180Y0107968D01*
X0044213Y0108012D01*
X0044249Y0108053D01*
X0044288Y0108093D01*
X0044330Y0108129D01*
X0044374Y0108162D01*
X0044420Y0108192D01*
X0044468Y0108219D01*
X0044518Y0108243D01*
X0044569Y0108263D01*
X0044622Y0108280D01*
X0044676Y0108293D01*
X0044730Y0108302D01*
X0044785Y0108308D01*
X0044840Y0108310D01*
X0044840Y0108311D02*
X0045648Y0108311D01*
X0046759Y0108311D02*
X0048779Y0108311D01*
X0047769Y0108311D02*
X0047769Y0104674D01*
X0050453Y0106795D02*
X0051564Y0106189D01*
X0051160Y0104674D02*
X0051081Y0104676D01*
X0051002Y0104681D01*
X0050923Y0104691D01*
X0050845Y0104703D01*
X0050767Y0104720D01*
X0050690Y0104740D01*
X0050615Y0104763D01*
X0050540Y0104790D01*
X0050467Y0104821D01*
X0050395Y0104855D01*
X0050325Y0104892D01*
X0050257Y0104932D01*
X0050191Y0104976D01*
X0050127Y0105022D01*
X0050065Y0105072D01*
X0050005Y0105124D01*
X0049948Y0105179D01*
X0051564Y0106189D02*
X0051609Y0106161D01*
X0051652Y0106129D01*
X0051693Y0106095D01*
X0051731Y0106059D01*
X0051768Y0106020D01*
X0051801Y0105978D01*
X0051832Y0105935D01*
X0051860Y0105889D01*
X0051885Y0105842D01*
X0051907Y0105794D01*
X0051925Y0105744D01*
X0051940Y0105693D01*
X0051952Y0105641D01*
X0051961Y0105588D01*
X0051966Y0105535D01*
X0051968Y0105482D01*
X0051966Y0105427D01*
X0051960Y0105372D01*
X0051951Y0105318D01*
X0051938Y0105264D01*
X0051921Y0105211D01*
X0051901Y0105160D01*
X0051877Y0105110D01*
X0051850Y0105062D01*
X0051820Y0105016D01*
X0051787Y0104972D01*
X0051751Y0104930D01*
X0051712Y0104891D01*
X0051670Y0104855D01*
X0051626Y0104822D01*
X0051580Y0104792D01*
X0051532Y0104765D01*
X0051482Y0104741D01*
X0051431Y0104721D01*
X0051378Y0104704D01*
X0051324Y0104691D01*
X0051270Y0104682D01*
X0051215Y0104676D01*
X0051160Y0104674D01*
X0051766Y0108007D02*
X0051705Y0108050D01*
X0051642Y0108091D01*
X0051577Y0108128D01*
X0051510Y0108162D01*
X0051441Y0108193D01*
X0051372Y0108220D01*
X0051300Y0108244D01*
X0051228Y0108264D01*
X0051155Y0108280D01*
X0051081Y0108293D01*
X0051007Y0108303D01*
X0050932Y0108308D01*
X0050857Y0108310D01*
X0050802Y0108308D01*
X0050747Y0108302D01*
X0050693Y0108293D01*
X0050639Y0108280D01*
X0050586Y0108263D01*
X0050535Y0108243D01*
X0050485Y0108219D01*
X0050437Y0108192D01*
X0050391Y0108162D01*
X0050347Y0108129D01*
X0050306Y0108093D01*
X0050266Y0108054D01*
X0050230Y0108012D01*
X0050197Y0107968D01*
X0050167Y0107922D01*
X0050140Y0107874D01*
X0050116Y0107824D01*
X0050096Y0107773D01*
X0050079Y0107720D01*
X0050066Y0107666D01*
X0050057Y0107612D01*
X0050051Y0107557D01*
X0050049Y0107502D01*
X0050048Y0107502D02*
X0050050Y0107449D01*
X0050055Y0107396D01*
X0050064Y0107343D01*
X0050076Y0107291D01*
X0050091Y0107240D01*
X0050109Y0107190D01*
X0050131Y0107142D01*
X0050156Y0107095D01*
X0050184Y0107049D01*
X0050215Y0107006D01*
X0050248Y0106964D01*
X0050285Y0106925D01*
X0050323Y0106889D01*
X0050364Y0106855D01*
X0050407Y0106823D01*
X0050452Y0106795D01*
X0051275Y0088311D02*
X0052083Y0084674D01*
X0052891Y0087098D01*
X0053700Y0084674D01*
X0054508Y0088311D01*
X0056907Y0088311D02*
X0058120Y0084674D01*
X0057816Y0085583D02*
X0055998Y0085583D01*
X0055695Y0084674D02*
X0056907Y0088311D01*
X0059610Y0088311D02*
X0059610Y0084674D01*
X0059610Y0086088D02*
X0061630Y0088311D01*
X0063109Y0088311D02*
X0064725Y0088311D01*
X0064321Y0086694D02*
X0063109Y0086694D01*
X0063109Y0088311D02*
X0063109Y0084674D01*
X0064725Y0084674D01*
X0061630Y0084674D02*
X0060418Y0086896D01*
X0063000Y0078796D02*
X0064819Y0078796D01*
X0064819Y0077180D02*
X0061181Y0077180D01*
X0062394Y0077180D02*
X0062394Y0078190D01*
X0062396Y0078238D01*
X0062401Y0078285D01*
X0062411Y0078331D01*
X0062424Y0078377D01*
X0062440Y0078422D01*
X0062460Y0078465D01*
X0062483Y0078507D01*
X0062510Y0078546D01*
X0062539Y0078584D01*
X0062571Y0078619D01*
X0062606Y0078651D01*
X0062644Y0078680D01*
X0062683Y0078707D01*
X0062725Y0078730D01*
X0062768Y0078750D01*
X0062813Y0078766D01*
X0062859Y0078779D01*
X0062905Y0078789D01*
X0062952Y0078794D01*
X0063000Y0078796D01*
X0062798Y0075932D02*
X0062394Y0075932D01*
X0062394Y0074720D01*
X0064819Y0074720D01*
X0064819Y0072437D02*
X0062394Y0073245D01*
X0062394Y0071629D02*
X0064819Y0072437D01*
X0064010Y0070292D02*
X0063202Y0070292D01*
X0063147Y0070290D01*
X0063092Y0070284D01*
X0063038Y0070275D01*
X0062984Y0070262D01*
X0062931Y0070245D01*
X0062880Y0070225D01*
X0062830Y0070201D01*
X0062782Y0070174D01*
X0062736Y0070144D01*
X0062692Y0070111D01*
X0062650Y0070075D01*
X0062611Y0070036D01*
X0062575Y0069994D01*
X0062542Y0069950D01*
X0062512Y0069904D01*
X0062485Y0069856D01*
X0062461Y0069806D01*
X0062441Y0069755D01*
X0062424Y0069702D01*
X0062411Y0069648D01*
X0062402Y0069594D01*
X0062396Y0069539D01*
X0062394Y0069484D01*
X0062396Y0069429D01*
X0062402Y0069374D01*
X0062411Y0069320D01*
X0062424Y0069266D01*
X0062441Y0069213D01*
X0062461Y0069162D01*
X0062485Y0069112D01*
X0062512Y0069064D01*
X0062542Y0069018D01*
X0062575Y0068974D01*
X0062611Y0068932D01*
X0062650Y0068893D01*
X0062692Y0068857D01*
X0062736Y0068824D01*
X0062782Y0068794D01*
X0062830Y0068767D01*
X0062880Y0068743D01*
X0062931Y0068723D01*
X0062984Y0068706D01*
X0063038Y0068693D01*
X0063092Y0068684D01*
X0063147Y0068678D01*
X0063202Y0068676D01*
X0064010Y0068676D01*
X0064065Y0068678D01*
X0064120Y0068684D01*
X0064174Y0068693D01*
X0064228Y0068706D01*
X0064281Y0068723D01*
X0064332Y0068743D01*
X0064382Y0068767D01*
X0064430Y0068794D01*
X0064476Y0068824D01*
X0064520Y0068857D01*
X0064562Y0068893D01*
X0064601Y0068932D01*
X0064637Y0068974D01*
X0064670Y0069018D01*
X0064700Y0069064D01*
X0064727Y0069112D01*
X0064751Y0069162D01*
X0064771Y0069213D01*
X0064788Y0069266D01*
X0064801Y0069320D01*
X0064810Y0069374D01*
X0064816Y0069429D01*
X0064818Y0069484D01*
X0064816Y0069539D01*
X0064810Y0069594D01*
X0064801Y0069648D01*
X0064788Y0069702D01*
X0064771Y0069755D01*
X0064751Y0069806D01*
X0064727Y0069856D01*
X0064700Y0069904D01*
X0064670Y0069950D01*
X0064637Y0069994D01*
X0064601Y0070036D01*
X0064562Y0070075D01*
X0064520Y0070111D01*
X0064476Y0070144D01*
X0064430Y0070174D01*
X0064382Y0070201D01*
X0064332Y0070225D01*
X0064281Y0070245D01*
X0064228Y0070262D01*
X0064174Y0070275D01*
X0064120Y0070284D01*
X0064065Y0070290D01*
X0064010Y0070292D01*
X0065425Y0067180D02*
X0062394Y0067180D01*
X0061384Y0067281D02*
X0061384Y0067079D01*
X0061181Y0067079D01*
X0061181Y0067281D01*
X0061384Y0067281D01*
X0063202Y0065804D02*
X0063606Y0065804D01*
X0063606Y0064188D01*
X0063202Y0064188D02*
X0064212Y0064188D01*
X0064260Y0064190D01*
X0064307Y0064195D01*
X0064353Y0064205D01*
X0064399Y0064218D01*
X0064444Y0064234D01*
X0064487Y0064254D01*
X0064529Y0064277D01*
X0064568Y0064304D01*
X0064606Y0064333D01*
X0064641Y0064365D01*
X0064673Y0064400D01*
X0064702Y0064438D01*
X0064729Y0064477D01*
X0064752Y0064519D01*
X0064772Y0064562D01*
X0064788Y0064607D01*
X0064801Y0064653D01*
X0064811Y0064699D01*
X0064816Y0064746D01*
X0064818Y0064794D01*
X0064819Y0064794D02*
X0064819Y0065804D01*
X0066031Y0066574D02*
X0066029Y0066622D01*
X0066024Y0066669D01*
X0066014Y0066715D01*
X0066001Y0066761D01*
X0065985Y0066806D01*
X0065965Y0066849D01*
X0065942Y0066891D01*
X0065915Y0066930D01*
X0065886Y0066968D01*
X0065854Y0067003D01*
X0065819Y0067035D01*
X0065781Y0067064D01*
X0065742Y0067091D01*
X0065700Y0067114D01*
X0065657Y0067134D01*
X0065612Y0067150D01*
X0065566Y0067163D01*
X0065520Y0067173D01*
X0065473Y0067178D01*
X0065425Y0067180D01*
X0066031Y0066574D02*
X0066031Y0066372D01*
X0063202Y0065804D02*
X0063147Y0065802D01*
X0063092Y0065796D01*
X0063038Y0065787D01*
X0062984Y0065774D01*
X0062931Y0065757D01*
X0062880Y0065737D01*
X0062830Y0065713D01*
X0062782Y0065686D01*
X0062736Y0065656D01*
X0062692Y0065623D01*
X0062650Y0065587D01*
X0062611Y0065548D01*
X0062575Y0065506D01*
X0062542Y0065462D01*
X0062512Y0065416D01*
X0062485Y0065368D01*
X0062461Y0065318D01*
X0062441Y0065267D01*
X0062424Y0065214D01*
X0062411Y0065160D01*
X0062402Y0065106D01*
X0062396Y0065051D01*
X0062394Y0064996D01*
X0062396Y0064941D01*
X0062402Y0064886D01*
X0062411Y0064832D01*
X0062424Y0064778D01*
X0062441Y0064725D01*
X0062461Y0064674D01*
X0062485Y0064624D01*
X0062512Y0064576D01*
X0062542Y0064530D01*
X0062575Y0064486D01*
X0062611Y0064444D01*
X0062650Y0064405D01*
X0062692Y0064369D01*
X0062736Y0064336D01*
X0062782Y0064306D01*
X0062830Y0064279D01*
X0062880Y0064255D01*
X0062931Y0064235D01*
X0062984Y0064218D01*
X0063038Y0064205D01*
X0063092Y0064196D01*
X0063147Y0064190D01*
X0063202Y0064188D01*
X0064819Y0056343D02*
X0064819Y0054322D01*
X0064819Y0055333D02*
X0061181Y0055333D01*
X0061990Y0054322D01*
X0061181Y0052976D02*
X0061181Y0052168D01*
X0061182Y0052168D02*
X0061184Y0052113D01*
X0061190Y0052058D01*
X0061199Y0052004D01*
X0061212Y0051950D01*
X0061229Y0051897D01*
X0061249Y0051846D01*
X0061273Y0051796D01*
X0061300Y0051748D01*
X0061330Y0051702D01*
X0061363Y0051658D01*
X0061399Y0051616D01*
X0061439Y0051577D01*
X0061480Y0051541D01*
X0061524Y0051508D01*
X0061570Y0051478D01*
X0061618Y0051451D01*
X0061668Y0051427D01*
X0061719Y0051407D01*
X0061772Y0051390D01*
X0061826Y0051377D01*
X0061880Y0051368D01*
X0061935Y0051362D01*
X0061990Y0051360D01*
X0064010Y0051360D01*
X0064065Y0051362D01*
X0064120Y0051368D01*
X0064174Y0051377D01*
X0064228Y0051390D01*
X0064281Y0051407D01*
X0064332Y0051427D01*
X0064382Y0051451D01*
X0064430Y0051478D01*
X0064476Y0051508D01*
X0064520Y0051541D01*
X0064562Y0051577D01*
X0064601Y0051616D01*
X0064637Y0051658D01*
X0064670Y0051702D01*
X0064700Y0051748D01*
X0064727Y0051796D01*
X0064751Y0051846D01*
X0064771Y0051897D01*
X0064788Y0051950D01*
X0064801Y0052004D01*
X0064810Y0052058D01*
X0064816Y0052113D01*
X0064818Y0052168D01*
X0064819Y0052168D02*
X0064819Y0052976D01*
X0064819Y0049949D02*
X0064819Y0049141D01*
X0064819Y0049545D02*
X0061181Y0049545D01*
X0061181Y0049141D02*
X0061181Y0049949D01*
X0064819Y0043149D02*
X0064819Y0041129D01*
X0064819Y0042139D02*
X0061181Y0042139D01*
X0061990Y0041129D01*
X0064616Y0037870D02*
X0064819Y0037870D01*
X0064819Y0037668D01*
X0064616Y0037668D01*
X0064616Y0037870D01*
X0064819Y0035643D02*
X0062394Y0036451D01*
X0062394Y0034835D02*
X0064819Y0035643D01*
X0061780Y0028311D02*
X0060769Y0028311D01*
X0060769Y0024674D01*
X0061780Y0024674D01*
X0061841Y0024676D01*
X0061902Y0024681D01*
X0061962Y0024691D01*
X0062022Y0024703D01*
X0062080Y0024720D01*
X0062138Y0024740D01*
X0062195Y0024763D01*
X0062249Y0024790D01*
X0062303Y0024820D01*
X0062354Y0024853D01*
X0062403Y0024889D01*
X0062450Y0024928D01*
X0062494Y0024970D01*
X0062536Y0025014D01*
X0062575Y0025061D01*
X0062611Y0025110D01*
X0062644Y0025161D01*
X0062674Y0025215D01*
X0062701Y0025269D01*
X0062724Y0025326D01*
X0062744Y0025384D01*
X0062761Y0025442D01*
X0062773Y0025502D01*
X0062783Y0025562D01*
X0062788Y0025623D01*
X0062790Y0025684D01*
X0062790Y0027300D01*
X0062788Y0027361D01*
X0062783Y0027422D01*
X0062773Y0027482D01*
X0062761Y0027542D01*
X0062744Y0027600D01*
X0062724Y0027658D01*
X0062701Y0027715D01*
X0062674Y0027769D01*
X0062644Y0027823D01*
X0062611Y0027874D01*
X0062575Y0027923D01*
X0062536Y0027970D01*
X0062494Y0028014D01*
X0062450Y0028056D01*
X0062403Y0028095D01*
X0062354Y0028131D01*
X0062303Y0028164D01*
X0062249Y0028194D01*
X0062195Y0028221D01*
X0062138Y0028244D01*
X0062080Y0028264D01*
X0062022Y0028281D01*
X0061962Y0028293D01*
X0061902Y0028303D01*
X0061841Y0028308D01*
X0061780Y0028310D01*
X0059010Y0028311D02*
X0059010Y0024674D01*
X0056990Y0028311D01*
X0056990Y0024674D01*
X0055231Y0024674D02*
X0054018Y0024674D01*
X0053963Y0024676D01*
X0053908Y0024682D01*
X0053854Y0024691D01*
X0053800Y0024704D01*
X0053747Y0024721D01*
X0053696Y0024741D01*
X0053646Y0024765D01*
X0053598Y0024792D01*
X0053552Y0024822D01*
X0053508Y0024855D01*
X0053466Y0024891D01*
X0053427Y0024930D01*
X0053391Y0024972D01*
X0053358Y0025016D01*
X0053328Y0025062D01*
X0053301Y0025110D01*
X0053277Y0025160D01*
X0053257Y0025211D01*
X0053240Y0025264D01*
X0053227Y0025318D01*
X0053218Y0025372D01*
X0053212Y0025427D01*
X0053210Y0025482D01*
X0053210Y0027502D01*
X0053212Y0027557D01*
X0053218Y0027612D01*
X0053227Y0027666D01*
X0053240Y0027720D01*
X0053257Y0027773D01*
X0053277Y0027824D01*
X0053301Y0027874D01*
X0053328Y0027922D01*
X0053358Y0027968D01*
X0053391Y0028012D01*
X0053427Y0028053D01*
X0053466Y0028093D01*
X0053508Y0028129D01*
X0053552Y0028162D01*
X0053598Y0028192D01*
X0053646Y0028219D01*
X0053696Y0028243D01*
X0053747Y0028263D01*
X0053800Y0028280D01*
X0053854Y0028293D01*
X0053908Y0028302D01*
X0053963Y0028308D01*
X0054018Y0028310D01*
X0054018Y0028311D02*
X0055231Y0028311D01*
X0055231Y0026694D02*
X0054625Y0026694D01*
X0055231Y0026694D02*
X0055231Y0024674D01*
X0055567Y0031860D02*
X0055567Y0033072D01*
X0055566Y0033072D02*
X0055564Y0033127D01*
X0055558Y0033182D01*
X0055549Y0033236D01*
X0055536Y0033290D01*
X0055519Y0033343D01*
X0055499Y0033394D01*
X0055475Y0033444D01*
X0055448Y0033492D01*
X0055418Y0033538D01*
X0055385Y0033582D01*
X0055349Y0033624D01*
X0055310Y0033663D01*
X0055268Y0033699D01*
X0055224Y0033732D01*
X0055178Y0033762D01*
X0055130Y0033789D01*
X0055080Y0033813D01*
X0055029Y0033833D01*
X0054976Y0033850D01*
X0054922Y0033863D01*
X0054868Y0033872D01*
X0054813Y0033878D01*
X0054758Y0033880D01*
X0054354Y0033880D01*
X0054299Y0033878D01*
X0054244Y0033872D01*
X0054190Y0033863D01*
X0054136Y0033850D01*
X0054083Y0033833D01*
X0054032Y0033813D01*
X0053982Y0033789D01*
X0053934Y0033762D01*
X0053888Y0033732D01*
X0053844Y0033699D01*
X0053803Y0033663D01*
X0053763Y0033624D01*
X0053727Y0033582D01*
X0053694Y0033538D01*
X0053664Y0033492D01*
X0053637Y0033444D01*
X0053613Y0033394D01*
X0053593Y0033343D01*
X0053576Y0033290D01*
X0053563Y0033236D01*
X0053554Y0033182D01*
X0053548Y0033127D01*
X0053546Y0033072D01*
X0053546Y0031860D01*
X0051930Y0031860D01*
X0051930Y0033880D01*
X0040765Y0028311D02*
X0038340Y0024674D01*
X0036245Y0024674D02*
X0036245Y0028311D01*
X0035235Y0028311D02*
X0037256Y0028311D01*
X0038340Y0028311D02*
X0040765Y0024674D01*
X0043446Y0008311D02*
X0044659Y0008311D01*
X0044659Y0008310D02*
X0044714Y0008308D01*
X0044769Y0008302D01*
X0044823Y0008293D01*
X0044877Y0008280D01*
X0044930Y0008263D01*
X0044981Y0008243D01*
X0045031Y0008219D01*
X0045079Y0008192D01*
X0045125Y0008162D01*
X0045169Y0008129D01*
X0045211Y0008093D01*
X0045250Y0008054D01*
X0045286Y0008012D01*
X0045319Y0007968D01*
X0045349Y0007922D01*
X0045376Y0007874D01*
X0045400Y0007824D01*
X0045420Y0007773D01*
X0045437Y0007720D01*
X0045450Y0007666D01*
X0045459Y0007612D01*
X0045465Y0007557D01*
X0045467Y0007502D01*
X0045465Y0007447D01*
X0045459Y0007392D01*
X0045450Y0007338D01*
X0045437Y0007284D01*
X0045420Y0007231D01*
X0045400Y0007180D01*
X0045376Y0007130D01*
X0045349Y0007082D01*
X0045319Y0007036D01*
X0045286Y0006992D01*
X0045250Y0006950D01*
X0045211Y0006911D01*
X0045169Y0006875D01*
X0045125Y0006842D01*
X0045079Y0006812D01*
X0045031Y0006785D01*
X0044981Y0006761D01*
X0044930Y0006741D01*
X0044877Y0006724D01*
X0044823Y0006711D01*
X0044769Y0006702D01*
X0044714Y0006696D01*
X0044659Y0006694D01*
X0043851Y0006694D01*
X0044457Y0006694D02*
X0044519Y0006692D01*
X0044581Y0006686D01*
X0044643Y0006677D01*
X0044703Y0006663D01*
X0044763Y0006646D01*
X0044822Y0006626D01*
X0044879Y0006602D01*
X0044935Y0006574D01*
X0044989Y0006543D01*
X0045041Y0006508D01*
X0045090Y0006471D01*
X0045137Y0006430D01*
X0045182Y0006387D01*
X0045224Y0006341D01*
X0045263Y0006293D01*
X0045299Y0006242D01*
X0045332Y0006189D01*
X0045361Y0006134D01*
X0045387Y0006078D01*
X0045410Y0006020D01*
X0045428Y0005960D01*
X0045444Y0005900D01*
X0045455Y0005839D01*
X0045463Y0005777D01*
X0045467Y0005715D01*
X0045467Y0005653D01*
X0045463Y0005591D01*
X0045455Y0005529D01*
X0045444Y0005468D01*
X0045428Y0005408D01*
X0045410Y0005348D01*
X0045387Y0005290D01*
X0045361Y0005234D01*
X0045332Y0005179D01*
X0045299Y0005126D01*
X0045263Y0005075D01*
X0045224Y0005027D01*
X0045182Y0004981D01*
X0045137Y0004938D01*
X0045090Y0004897D01*
X0045041Y0004860D01*
X0044989Y0004825D01*
X0044935Y0004794D01*
X0044879Y0004766D01*
X0044822Y0004742D01*
X0044763Y0004722D01*
X0044703Y0004705D01*
X0044643Y0004691D01*
X0044581Y0004682D01*
X0044519Y0004676D01*
X0044457Y0004674D01*
X0043446Y0004674D01*
X0048000Y0004674D02*
X0046788Y0008311D01*
X0049212Y0008311D02*
X0048000Y0004674D01*
X0050533Y0004674D02*
X0051543Y0004674D01*
X0051605Y0004676D01*
X0051667Y0004682D01*
X0051729Y0004691D01*
X0051789Y0004705D01*
X0051849Y0004722D01*
X0051908Y0004742D01*
X0051965Y0004766D01*
X0052021Y0004794D01*
X0052075Y0004825D01*
X0052127Y0004860D01*
X0052176Y0004897D01*
X0052223Y0004938D01*
X0052268Y0004981D01*
X0052310Y0005027D01*
X0052349Y0005075D01*
X0052385Y0005126D01*
X0052418Y0005179D01*
X0052447Y0005234D01*
X0052473Y0005290D01*
X0052496Y0005348D01*
X0052514Y0005408D01*
X0052530Y0005468D01*
X0052541Y0005529D01*
X0052549Y0005591D01*
X0052553Y0005653D01*
X0052553Y0005715D01*
X0052549Y0005777D01*
X0052541Y0005839D01*
X0052530Y0005900D01*
X0052514Y0005960D01*
X0052496Y0006020D01*
X0052473Y0006078D01*
X0052447Y0006134D01*
X0052418Y0006189D01*
X0052385Y0006242D01*
X0052349Y0006293D01*
X0052310Y0006341D01*
X0052268Y0006387D01*
X0052223Y0006430D01*
X0052176Y0006471D01*
X0052127Y0006508D01*
X0052075Y0006543D01*
X0052021Y0006574D01*
X0051965Y0006602D01*
X0051908Y0006626D01*
X0051849Y0006646D01*
X0051789Y0006663D01*
X0051729Y0006677D01*
X0051667Y0006686D01*
X0051605Y0006692D01*
X0051543Y0006694D01*
X0051745Y0006694D02*
X0050937Y0006694D01*
X0051745Y0006694D02*
X0051800Y0006696D01*
X0051855Y0006702D01*
X0051909Y0006711D01*
X0051963Y0006724D01*
X0052016Y0006741D01*
X0052067Y0006761D01*
X0052117Y0006785D01*
X0052165Y0006812D01*
X0052211Y0006842D01*
X0052255Y0006875D01*
X0052297Y0006911D01*
X0052336Y0006950D01*
X0052372Y0006992D01*
X0052405Y0007036D01*
X0052435Y0007082D01*
X0052462Y0007130D01*
X0052486Y0007180D01*
X0052506Y0007231D01*
X0052523Y0007284D01*
X0052536Y0007338D01*
X0052545Y0007392D01*
X0052551Y0007447D01*
X0052553Y0007502D01*
X0052551Y0007557D01*
X0052545Y0007612D01*
X0052536Y0007666D01*
X0052523Y0007720D01*
X0052506Y0007773D01*
X0052486Y0007824D01*
X0052462Y0007874D01*
X0052435Y0007922D01*
X0052405Y0007968D01*
X0052372Y0008012D01*
X0052336Y0008054D01*
X0052297Y0008093D01*
X0052255Y0008129D01*
X0052211Y0008162D01*
X0052165Y0008192D01*
X0052117Y0008219D01*
X0052067Y0008243D01*
X0052016Y0008263D01*
X0051963Y0008280D01*
X0051909Y0008293D01*
X0051855Y0008302D01*
X0051800Y0008308D01*
X0051745Y0008310D01*
X0051745Y0008311D02*
X0050533Y0008311D01*
X0033862Y0006189D02*
X0032751Y0006795D01*
X0033155Y0008310D02*
X0033230Y0008308D01*
X0033305Y0008303D01*
X0033379Y0008293D01*
X0033453Y0008280D01*
X0033526Y0008264D01*
X0033598Y0008244D01*
X0033670Y0008220D01*
X0033739Y0008193D01*
X0033808Y0008162D01*
X0033875Y0008128D01*
X0033940Y0008091D01*
X0034003Y0008050D01*
X0034064Y0008007D01*
X0032750Y0006795D02*
X0032705Y0006823D01*
X0032662Y0006855D01*
X0032621Y0006889D01*
X0032583Y0006925D01*
X0032546Y0006964D01*
X0032513Y0007006D01*
X0032482Y0007049D01*
X0032454Y0007095D01*
X0032429Y0007142D01*
X0032407Y0007190D01*
X0032389Y0007240D01*
X0032374Y0007291D01*
X0032362Y0007343D01*
X0032353Y0007396D01*
X0032348Y0007449D01*
X0032346Y0007502D01*
X0032347Y0007502D02*
X0032349Y0007557D01*
X0032355Y0007612D01*
X0032364Y0007666D01*
X0032377Y0007720D01*
X0032394Y0007773D01*
X0032414Y0007824D01*
X0032438Y0007874D01*
X0032465Y0007922D01*
X0032495Y0007968D01*
X0032528Y0008012D01*
X0032564Y0008054D01*
X0032604Y0008093D01*
X0032645Y0008129D01*
X0032689Y0008162D01*
X0032735Y0008192D01*
X0032783Y0008219D01*
X0032833Y0008243D01*
X0032884Y0008263D01*
X0032937Y0008280D01*
X0032991Y0008293D01*
X0033045Y0008302D01*
X0033100Y0008308D01*
X0033155Y0008310D01*
X0032246Y0005179D02*
X0032303Y0005124D01*
X0032363Y0005072D01*
X0032425Y0005022D01*
X0032489Y0004976D01*
X0032555Y0004932D01*
X0032623Y0004892D01*
X0032693Y0004855D01*
X0032765Y0004821D01*
X0032838Y0004790D01*
X0032913Y0004763D01*
X0032988Y0004740D01*
X0033065Y0004720D01*
X0033143Y0004703D01*
X0033221Y0004691D01*
X0033300Y0004681D01*
X0033379Y0004676D01*
X0033458Y0004674D01*
X0033513Y0004676D01*
X0033568Y0004682D01*
X0033622Y0004691D01*
X0033676Y0004704D01*
X0033729Y0004721D01*
X0033780Y0004741D01*
X0033830Y0004765D01*
X0033878Y0004792D01*
X0033924Y0004822D01*
X0033968Y0004855D01*
X0034010Y0004891D01*
X0034049Y0004930D01*
X0034085Y0004972D01*
X0034118Y0005016D01*
X0034148Y0005062D01*
X0034175Y0005110D01*
X0034199Y0005160D01*
X0034219Y0005211D01*
X0034236Y0005264D01*
X0034249Y0005318D01*
X0034258Y0005372D01*
X0034264Y0005427D01*
X0034266Y0005482D01*
X0034264Y0005535D01*
X0034259Y0005588D01*
X0034250Y0005641D01*
X0034238Y0005693D01*
X0034223Y0005744D01*
X0034205Y0005794D01*
X0034183Y0005842D01*
X0034158Y0005889D01*
X0034130Y0005935D01*
X0034099Y0005978D01*
X0034066Y0006020D01*
X0034029Y0006059D01*
X0033991Y0006095D01*
X0033950Y0006129D01*
X0033907Y0006161D01*
X0033862Y0006189D01*
X0030000Y0006290D02*
X0028990Y0006290D01*
X0028990Y0004674D02*
X0028990Y0008311D01*
X0030000Y0008311D01*
X0030000Y0008310D02*
X0030062Y0008308D01*
X0030124Y0008302D01*
X0030186Y0008293D01*
X0030246Y0008279D01*
X0030306Y0008262D01*
X0030365Y0008242D01*
X0030422Y0008218D01*
X0030478Y0008190D01*
X0030532Y0008159D01*
X0030584Y0008124D01*
X0030633Y0008087D01*
X0030680Y0008046D01*
X0030725Y0008003D01*
X0030767Y0007957D01*
X0030806Y0007909D01*
X0030842Y0007858D01*
X0030875Y0007805D01*
X0030904Y0007750D01*
X0030930Y0007694D01*
X0030953Y0007636D01*
X0030971Y0007576D01*
X0030987Y0007516D01*
X0030998Y0007455D01*
X0031006Y0007393D01*
X0031010Y0007331D01*
X0031010Y0007269D01*
X0031006Y0007207D01*
X0030998Y0007145D01*
X0030987Y0007084D01*
X0030971Y0007024D01*
X0030953Y0006964D01*
X0030930Y0006906D01*
X0030904Y0006850D01*
X0030875Y0006795D01*
X0030842Y0006742D01*
X0030806Y0006691D01*
X0030767Y0006643D01*
X0030725Y0006597D01*
X0030680Y0006554D01*
X0030633Y0006513D01*
X0030584Y0006476D01*
X0030532Y0006441D01*
X0030478Y0006410D01*
X0030422Y0006382D01*
X0030365Y0006358D01*
X0030306Y0006338D01*
X0030246Y0006321D01*
X0030186Y0006307D01*
X0030124Y0006298D01*
X0030062Y0006292D01*
X0030000Y0006290D01*
X0026457Y0006290D02*
X0025446Y0006290D01*
X0025446Y0004674D02*
X0025446Y0008311D01*
X0026457Y0008311D01*
X0026457Y0008310D02*
X0026519Y0008308D01*
X0026581Y0008302D01*
X0026643Y0008293D01*
X0026703Y0008279D01*
X0026763Y0008262D01*
X0026822Y0008242D01*
X0026879Y0008218D01*
X0026935Y0008190D01*
X0026989Y0008159D01*
X0027041Y0008124D01*
X0027090Y0008087D01*
X0027137Y0008046D01*
X0027182Y0008003D01*
X0027224Y0007957D01*
X0027263Y0007909D01*
X0027299Y0007858D01*
X0027332Y0007805D01*
X0027361Y0007750D01*
X0027387Y0007694D01*
X0027410Y0007636D01*
X0027428Y0007576D01*
X0027444Y0007516D01*
X0027455Y0007455D01*
X0027463Y0007393D01*
X0027467Y0007331D01*
X0027467Y0007269D01*
X0027463Y0007207D01*
X0027455Y0007145D01*
X0027444Y0007084D01*
X0027428Y0007024D01*
X0027410Y0006964D01*
X0027387Y0006906D01*
X0027361Y0006850D01*
X0027332Y0006795D01*
X0027299Y0006742D01*
X0027263Y0006691D01*
X0027224Y0006643D01*
X0027182Y0006597D01*
X0027137Y0006554D01*
X0027090Y0006513D01*
X0027041Y0006476D01*
X0026989Y0006441D01*
X0026935Y0006410D01*
X0026879Y0006382D01*
X0026822Y0006358D01*
X0026763Y0006338D01*
X0026703Y0006321D01*
X0026643Y0006307D01*
X0026581Y0006298D01*
X0026519Y0006292D01*
X0026457Y0006290D01*
X0023754Y0004674D02*
X0021734Y0004674D01*
X0022744Y0004674D02*
X0022744Y0008311D01*
X0021734Y0007502D01*
X0013936Y0036998D02*
X0012320Y0036998D01*
X0012258Y0037000D01*
X0012196Y0037006D01*
X0012134Y0037015D01*
X0012074Y0037029D01*
X0012014Y0037046D01*
X0011955Y0037066D01*
X0011898Y0037090D01*
X0011842Y0037118D01*
X0011788Y0037149D01*
X0011736Y0037184D01*
X0011687Y0037221D01*
X0011640Y0037262D01*
X0011595Y0037305D01*
X0011553Y0037351D01*
X0011514Y0037399D01*
X0011478Y0037450D01*
X0011445Y0037503D01*
X0011416Y0037558D01*
X0011390Y0037614D01*
X0011367Y0037672D01*
X0011349Y0037732D01*
X0011333Y0037792D01*
X0011322Y0037853D01*
X0011314Y0037915D01*
X0011310Y0037977D01*
X0011310Y0038039D01*
X0011314Y0038101D01*
X0011322Y0038163D01*
X0011333Y0038224D01*
X0011349Y0038284D01*
X0011367Y0038344D01*
X0011390Y0038402D01*
X0011416Y0038458D01*
X0011445Y0038513D01*
X0011478Y0038566D01*
X0011514Y0038617D01*
X0011553Y0038665D01*
X0011595Y0038711D01*
X0011640Y0038754D01*
X0011687Y0038795D01*
X0011736Y0038832D01*
X0011788Y0038867D01*
X0011842Y0038898D01*
X0011898Y0038926D01*
X0011955Y0038950D01*
X0012014Y0038970D01*
X0012074Y0038987D01*
X0012134Y0039001D01*
X0012196Y0039010D01*
X0012258Y0039016D01*
X0012320Y0039018D01*
X0013936Y0039018D01*
X0013998Y0039016D01*
X0014060Y0039010D01*
X0014122Y0039001D01*
X0014182Y0038987D01*
X0014242Y0038970D01*
X0014301Y0038950D01*
X0014358Y0038926D01*
X0014414Y0038898D01*
X0014468Y0038867D01*
X0014520Y0038832D01*
X0014569Y0038795D01*
X0014616Y0038754D01*
X0014661Y0038711D01*
X0014703Y0038665D01*
X0014742Y0038617D01*
X0014778Y0038566D01*
X0014811Y0038513D01*
X0014840Y0038458D01*
X0014866Y0038402D01*
X0014889Y0038344D01*
X0014907Y0038284D01*
X0014923Y0038224D01*
X0014934Y0038163D01*
X0014942Y0038101D01*
X0014946Y0038039D01*
X0014946Y0037977D01*
X0014942Y0037915D01*
X0014934Y0037853D01*
X0014923Y0037792D01*
X0014907Y0037732D01*
X0014889Y0037672D01*
X0014866Y0037614D01*
X0014840Y0037558D01*
X0014811Y0037503D01*
X0014778Y0037450D01*
X0014742Y0037399D01*
X0014703Y0037351D01*
X0014661Y0037305D01*
X0014616Y0037262D01*
X0014569Y0037221D01*
X0014520Y0037184D01*
X0014468Y0037149D01*
X0014414Y0037118D01*
X0014358Y0037090D01*
X0014301Y0037066D01*
X0014242Y0037046D01*
X0014182Y0037029D01*
X0014122Y0037015D01*
X0014060Y0037006D01*
X0013998Y0037000D01*
X0013936Y0036998D01*
X0014138Y0044321D02*
X0014193Y0044323D01*
X0014248Y0044329D01*
X0014302Y0044338D01*
X0014356Y0044351D01*
X0014409Y0044368D01*
X0014460Y0044388D01*
X0014510Y0044412D01*
X0014558Y0044439D01*
X0014604Y0044469D01*
X0014648Y0044502D01*
X0014690Y0044538D01*
X0014729Y0044577D01*
X0014765Y0044619D01*
X0014798Y0044663D01*
X0014828Y0044709D01*
X0014855Y0044757D01*
X0014879Y0044807D01*
X0014899Y0044858D01*
X0014916Y0044911D01*
X0014929Y0044965D01*
X0014938Y0045019D01*
X0014944Y0045074D01*
X0014946Y0045129D01*
X0014946Y0046341D01*
X0012926Y0046341D01*
X0012926Y0045735D01*
X0053546Y0079104D02*
X0054556Y0079104D01*
X0053546Y0079104D02*
X0053546Y0080316D01*
X0053546Y0079104D02*
X0053467Y0079106D01*
X0053388Y0079112D01*
X0053309Y0079121D01*
X0053231Y0079135D01*
X0053153Y0079152D01*
X0053077Y0079174D01*
X0053002Y0079198D01*
X0052928Y0079227D01*
X0052855Y0079259D01*
X0052784Y0079295D01*
X0052715Y0079334D01*
X0052648Y0079376D01*
X0052583Y0079422D01*
X0052521Y0079471D01*
X0052461Y0079523D01*
X0052403Y0079577D01*
X0052349Y0079635D01*
X0052297Y0079695D01*
X0052248Y0079757D01*
X0052202Y0079822D01*
X0052160Y0079889D01*
X0052121Y0079958D01*
X0052085Y0080029D01*
X0052053Y0080102D01*
X0052024Y0080176D01*
X0052000Y0080251D01*
X0051978Y0080327D01*
X0051961Y0080405D01*
X0051947Y0080483D01*
X0051938Y0080562D01*
X0051932Y0080641D01*
X0051930Y0080720D01*
X0053546Y0080316D02*
X0053548Y0080371D01*
X0053554Y0080426D01*
X0053563Y0080480D01*
X0053576Y0080534D01*
X0053593Y0080587D01*
X0053613Y0080638D01*
X0053637Y0080688D01*
X0053664Y0080736D01*
X0053694Y0080782D01*
X0053727Y0080826D01*
X0053763Y0080868D01*
X0053803Y0080907D01*
X0053844Y0080943D01*
X0053888Y0080976D01*
X0053934Y0081006D01*
X0053982Y0081033D01*
X0054032Y0081057D01*
X0054083Y0081077D01*
X0054136Y0081094D01*
X0054190Y0081107D01*
X0054244Y0081116D01*
X0054299Y0081122D01*
X0054354Y0081124D01*
X0054556Y0081124D01*
X0054618Y0081122D01*
X0054680Y0081116D01*
X0054742Y0081107D01*
X0054802Y0081093D01*
X0054862Y0081076D01*
X0054921Y0081056D01*
X0054978Y0081032D01*
X0055034Y0081004D01*
X0055088Y0080973D01*
X0055140Y0080938D01*
X0055189Y0080901D01*
X0055236Y0080860D01*
X0055281Y0080817D01*
X0055323Y0080771D01*
X0055362Y0080723D01*
X0055398Y0080672D01*
X0055431Y0080619D01*
X0055460Y0080564D01*
X0055486Y0080508D01*
X0055509Y0080450D01*
X0055527Y0080390D01*
X0055543Y0080330D01*
X0055554Y0080269D01*
X0055562Y0080207D01*
X0055566Y0080145D01*
X0055566Y0080083D01*
X0055562Y0080021D01*
X0055554Y0079959D01*
X0055543Y0079898D01*
X0055527Y0079838D01*
X0055509Y0079778D01*
X0055486Y0079720D01*
X0055460Y0079664D01*
X0055431Y0079609D01*
X0055398Y0079556D01*
X0055362Y0079505D01*
X0055323Y0079457D01*
X0055281Y0079411D01*
X0055236Y0079368D01*
X0055189Y0079327D01*
X0055140Y0079290D01*
X0055088Y0079255D01*
X0055034Y0079224D01*
X0054978Y0079196D01*
X0054921Y0079172D01*
X0054862Y0079152D01*
X0054802Y0079135D01*
X0054742Y0079121D01*
X0054680Y0079112D01*
X0054618Y0079106D01*
X0054556Y0079104D01*
D11*
X0057685Y0076177D02*
X0050598Y0076177D01*
X0057685Y0076177D02*
X0057685Y0036807D01*
X0050598Y0036807D01*
X0025402Y0036807D02*
X0018315Y0036807D01*
X0018315Y0076177D01*
X0025402Y0076177D01*
D12*
X0013000Y0013992D02*
X0015500Y0011492D01*
X0020500Y0011492D01*
X0023000Y0013992D01*
X0025500Y0011492D01*
X0030500Y0011492D01*
X0033000Y0013992D01*
X0033000Y0018992D01*
X0030500Y0021492D01*
X0025500Y0021492D01*
X0023000Y0018992D01*
X0023000Y0013992D01*
X0023000Y0018992D02*
X0020500Y0021492D01*
X0015500Y0021492D01*
X0013000Y0018992D01*
X0013000Y0013992D01*
X0033000Y0013992D02*
X0035500Y0011492D01*
X0040500Y0011492D01*
X0043000Y0013992D01*
X0045500Y0011492D01*
X0050500Y0011492D01*
X0053000Y0013992D01*
X0055500Y0011492D01*
X0060500Y0011492D01*
X0063000Y0013992D01*
X0063000Y0018992D01*
X0060500Y0021492D01*
X0055500Y0021492D01*
X0053000Y0018992D01*
X0053000Y0013992D01*
X0053000Y0018992D02*
X0050500Y0021492D01*
X0045500Y0021492D01*
X0043000Y0018992D01*
X0043000Y0013992D01*
X0043000Y0018992D02*
X0040500Y0021492D01*
X0035500Y0021492D01*
X0033000Y0018992D01*
X0030500Y0091492D02*
X0025500Y0091492D01*
X0023000Y0093992D01*
X0020500Y0091492D01*
X0015500Y0091492D01*
X0013000Y0093992D01*
X0013000Y0098992D01*
X0015500Y0101492D01*
X0020500Y0101492D01*
X0023000Y0098992D01*
X0025500Y0101492D01*
X0030500Y0101492D01*
X0033000Y0098992D01*
X0035500Y0101492D01*
X0040500Y0101492D01*
X0043000Y0098992D01*
X0045500Y0101492D01*
X0050500Y0101492D01*
X0053000Y0098992D01*
X0055500Y0101492D01*
X0060500Y0101492D01*
X0063000Y0098992D01*
X0063000Y0093992D01*
X0060500Y0091492D01*
X0055500Y0091492D01*
X0053000Y0093992D01*
X0050500Y0091492D01*
X0045500Y0091492D01*
X0043000Y0093992D01*
X0043000Y0098992D01*
X0043000Y0093992D02*
X0040500Y0091492D01*
X0035500Y0091492D01*
X0033000Y0093992D01*
X0030500Y0091492D01*
X0033000Y0093992D02*
X0033000Y0098992D01*
X0023000Y0098992D02*
X0023000Y0093992D01*
X0053000Y0093992D02*
X0053000Y0098992D01*
M02*
